<svg width="46" height="46" viewBox="0 0 46 46" fill="none" xmlns="http://www.w3.org/2000/svg">
<circle cx="22.6449" cy="22.6449" r="22.6449" fill="#EDF0FE"/>
<path fill-rule="evenodd" clip-rule="evenodd" d="M31.3664 16.5312H28.4019C28.5425 16.2827 28.6245 15.995 28.6245 15.6875C28.6245 14.757 27.8865 14 26.9793 14C25.8914 14 25.2009 14.7228 24.7857 15.4178C24.3706 14.7228 23.6801 14 22.5922 14C21.685 14 20.947 14.757 20.947 15.6875C20.947 15.995 21.029 16.2827 21.1696 16.5312H18.2051C18.0535 16.5312 17.9309 16.6572 17.9309 16.8125V19.0625C17.9309 19.2178 18.0535 19.3438 18.2051 19.3438H31.3664C31.5179 19.3438 31.6406 19.2178 31.6406 19.0625V16.8125C31.6406 16.6572 31.5179 16.5312 31.3664 16.5312ZM26.9793 15.125C27.2816 15.125 27.5277 15.3773 27.5277 15.6875C27.5277 15.9977 27.2816 16.25 26.9793 16.25H25.585C25.8389 15.7352 26.286 15.125 26.9793 15.125ZM23.9867 16.25C23.7329 15.7354 23.2857 15.125 22.5922 15.125C22.2899 15.125 22.0438 15.3773 22.0438 15.6875C22.0438 15.9977 22.2899 16.25 22.5922 16.25H23.9867Z" fill="#4F6EF7"/>
<path d="M31.0869 28.0073C31.0762 27.9522 30.7985 26.6562 28.6245 26.6562H25.4337C25.5438 26.9273 25.6084 27.2126 25.6084 27.5C25.6084 27.6553 25.4857 27.7812 25.3342 27.7812H20.3987C20.2471 27.7812 20.1245 27.6553 20.1245 27.5C20.1245 27.3447 20.2471 27.2188 20.3987 27.2188H25.034C24.8855 26.4076 24.1253 25.6531 23.3314 25.5456C23.2678 25.5392 23.2044 25.5312 23.1406 25.5312H21.0893C20.3671 24.5314 18.9801 23.8438 17.6568 23.8438H14.9148C14.7633 23.8438 14.6406 23.9697 14.6406 24.125V28.0625C14.6406 28.1682 14.6985 28.2652 14.7906 28.3131L20.9433 31.5247C21.3268 31.7035 21.7276 31.793 22.1143 31.793C22.4541 31.7929 22.7832 31.7238 23.0793 31.5857L30.9211 28.3232C31.0432 28.2723 31.1129 28.1398 31.0869 28.0073Z" fill="#4F6EF7"/>
<path d="M21.3519 24.9688H23.1406C23.2118 24.9688 23.283 24.9752 23.354 24.9826L23.3842 24.9856C24.0668 25.0779 24.711 25.5102 25.1287 26.0938H28.6244C29.1776 26.0938 29.6253 26.1737 29.9954 26.2961V20.1875C29.9954 20.0322 29.8728 19.9062 29.7212 19.9062H19.8502C19.6987 19.9062 19.576 20.0322 19.576 20.1875V23.6927C20.2686 23.9886 20.8943 24.4268 21.3519 24.9688Z" fill="#4F6EF7"/>
</svg>
