<svg width="46" height="46" viewBox="0 0 46 46" fill="none" xmlns="http://www.w3.org/2000/svg">
<g clip-path="url(#clip0)">
<circle cx="22.6449" cy="22.6449" r="22.6449" fill="#EDF0FE"/>
<path d="M23.9638 31.2152H22.4459V29.3178C21.7518 29.2464 21.0966 29.0518 20.4803 28.7339C19.8641 28.4096 19.3614 27.9296 18.9722 27.2939C18.5829 26.6582 18.3883 25.8311 18.3883 24.8127H20.8014C20.8014 25.4743 20.9182 25.9933 21.1517 26.3695C21.3853 26.7392 21.6836 27.002 22.0469 27.1576C22.4102 27.3068 22.7832 27.3814 23.1659 27.3814C23.8794 27.3814 24.4243 27.2031 24.8006 26.8463C25.1768 26.4895 25.3649 26.0257 25.3649 25.4549C25.3649 24.897 25.193 24.4397 24.8492 24.0829C24.5054 23.7261 23.9086 23.3985 23.0589 23.1001C22.2221 22.8082 21.4955 22.4774 20.8793 22.1076C20.263 21.7379 19.783 21.2806 19.4392 20.7357C19.1019 20.1908 18.9332 19.5129 18.9332 18.7021C18.9332 17.6058 19.2673 16.7171 19.9354 16.036C20.6101 15.3484 21.5085 14.9429 22.6307 14.8197V12.7082H24.1584V14.8392C25.2611 14.9948 26.1304 15.4619 26.7661 16.2403C27.4083 17.0122 27.7294 18.0501 27.7294 19.354H25.326C25.326 18.5431 25.1444 17.9074 24.7811 17.4469C24.4243 16.9863 23.9313 16.756 23.3021 16.756C22.6275 16.756 22.1312 16.9409 21.8134 17.3106C21.502 17.6739 21.3463 18.1345 21.3463 18.6923C21.3463 19.2372 21.5117 19.6816 21.8426 20.0254C22.1799 20.3692 22.7961 20.7033 23.6913 21.0276C24.5281 21.3325 25.2514 21.673 25.8612 22.0493C26.4774 22.419 26.951 22.8731 27.2818 23.4115C27.6191 23.9499 27.7878 24.6245 27.7878 25.4354C27.7878 26.5706 27.4407 27.4723 26.7466 28.1404C26.0525 28.8021 25.1249 29.1945 23.9638 29.3178V31.2152Z" fill="#4F6EF7"/>
</g>
<defs>
<clipPath id="clip0">
<rect width="46" height="46" fill="white"/>
</clipPath>
</defs>
</svg>
