<svg width="46" height="46" viewBox="0 0 46 46" fill="none" xmlns="http://www.w3.org/2000/svg">
<circle cx="22.6449" cy="22.6449" r="22.6449" fill="#EDF0FE"/>
<path d="M14.048 22.5538C14.048 17.7366 18.0338 13.8172 22.9327 13.8172C25.1019 13.8172 27.1669 14.585 28.7883 15.9846L26.45 18.284C26.3574 18.375 26.3259 18.5101 26.3686 18.6317C26.4117 18.7534 26.5214 18.8401 26.6516 18.8552L32.4608 19.5272C32.4741 19.5289 32.4874 19.5296 32.5008 19.5296C32.591 19.5296 32.6781 19.4946 32.7423 19.4311C32.8162 19.3586 32.8524 19.2564 32.8401 19.1543L32.1566 13.4419C32.1413 13.3139 32.0531 13.206 31.9294 13.1637C31.8057 13.1217 31.668 13.1522 31.5757 13.2436L29.7557 15.0333C27.8746 13.3814 25.4655 12.4731 22.9327 12.4731C17.28 12.4731 12.6812 16.9953 12.6812 22.5538C12.6812 22.9248 12.9873 23.2258 13.3646 23.2258C13.7418 23.2258 14.048 22.9248 14.048 22.5538Z" fill="#4F6EF7"/>
<path d="M32.831 21.2095C32.4537 21.2095 32.1476 21.5105 32.1476 21.8815C32.1476 26.6991 28.1618 30.6181 23.2629 30.6181C21.0937 30.6181 19.0287 29.8503 17.4076 28.4504L19.7456 26.1513C19.8382 26.0603 19.8697 25.9252 19.827 25.8036C19.7839 25.6819 19.6742 25.5952 19.544 25.5801L13.7348 24.9081C13.6303 24.896 13.5271 24.9316 13.4532 25.0042C13.3794 25.0771 13.3432 25.1789 13.3555 25.281L14.0389 30.9934C14.0543 31.1211 14.1425 31.2293 14.2662 31.2713C14.3028 31.2837 14.3407 31.2901 14.3783 31.2901C14.4675 31.2901 14.5549 31.2555 14.6199 31.1917L16.4399 29.402C18.321 31.0539 20.7298 31.9622 23.2629 31.9622C28.9156 31.9622 33.5144 27.44 33.5144 21.8815C33.5144 21.5105 33.2083 21.2095 32.831 21.2095Z" fill="#4F6EF7"/>
</svg>
