<svg xmlns="http://www.w3.org/2000/svg" width="50" height="50" viewBox="0 0 50 50">
  <g fill="none" fill-rule="evenodd">
    <rect width="51" height="51" fill="#000"/>
    <g transform="translate(13 10)">
      <path fill="#FFFFFE" d="M8.4124149,17.4224787 C8.4124149,19.3212936 9.39980601,20.5923438 11.0849865,20.5923438 C12.3128431,20.5923438 13.4251336,19.8437379 14.1220994,18.6078868 C14.9878852,17.089611 14.9483566,15.6755468 14.9483566,13.9671401 L14.9483566,13.0167626 C11.767129,13.0167626 8.4124149,13.699959 8.4124149,17.4224787 L8.4124149,17.4224787 Z M3.39146109,7.61493775 C3.03542932,7.53068148 2.63382988,7.24243634 2.73841593,6.69283046 C3.71372886,1.55707808 8.38276846,0 12.5615438,0 C14.6980089,0 17.4963033,0.570115631 19.1721506,2.17431071 C21.3102628,4.16929968 21.1109728,6.81699759 21.1109728,9.70111196 L21.1109728,16.520604 C21.1109728,18.5701932 21.9619354,19.4734537 22.7667813,20.5729427 C23.0448539,20.9728828 23.1132055,21.4459928 22.7552522,21.7331293 C21.8568004,22.4822896 20.2556182,23.8697465 19.3840678,24.6371991 L19.3579899,24.6615891 C19.0686626,24.9262758 18.6659651,24.9138036 18.3404033,24.7330961 C16.8726301,23.526901 16.6140473,22.9678718 15.8212795,21.8179399 C13.4045458,24.266915 11.6993265,25 8.57574482,25 C4.87762609,25 2,22.7295152 2,18.1830024 C2,14.6301039 3.93607715,12.2204854 6.68660786,11.0328599 C9.0747932,9.98963426 12.3998609,9.79867186 14.9483566,9.51486125 L14.9483566,8.94474562 C14.9483566,7.90761743 15.0235707,6.67453798 14.4108777,5.77321759 C13.8744967,4.97527744 12.8500476,4.64268689 11.9493997,4.64268689 C10.2735524,4.64268689 8.77668179,5.49772175 8.4124149,7.26294609 C8.33610277,7.6637177 8.04650098,8.05090853 7.65368567,8.07224975 L3.39146109,7.61493775 L3.39146109,7.61493775 Z"/>
      <path fill="#EB902D" d="M20.8141615,28.9872041 C18.2934164,30.9544476 14.6379369,32 11.4916154,32 C7.08010501,32 3.10812186,30.2752456 0.101337221,27.4086991 C-0.13370114,27.1853998 0.0765673699,26.877491 0.36059499,27.0507806 C3.60351887,29.0436105 7.61320724,30.2435534 11.7555519,30.2435534 C14.5504167,30.2435534 17.6218782,29.6341324 20.4489438,28.366153 C20.8736091,28.1745459 21.2316711,28.6635946 20.8141615,28.9872041"/>
      <path fill="#EB902D" d="M21.9225963,28.071959 C21.6239745,27.6819883 19.9462354,27.8873314 19.1936881,27.9787389 C18.9657053,28.0067049 18.9297483,27.8042102 19.1352899,27.6571296 C20.4720749,26.7036954 22.6646879,26.9789535 22.9189372,27.2990091 C23.1739515,27.6198416 22.8521235,29.8506499 21.5982181,30.9151715 C21.4056823,31.0785656 21.222072,30.9915601 21.3064817,30.7766361 C21.5892926,30.0603951 22.220963,28.4593402 21.9225963,28.071959"/>
    </g>
  </g>
</svg>
