<?xml version="1.0" encoding="UTF-8"?>
<svg width="50px" height="50px" viewBox="0 0 50 50" version="1.1" xmlns="http://www.w3.org/2000/svg" xmlns:xlink="http://www.w3.org/1999/xlink">
    <!-- Generator: Sketch 52.6 (67491) - http://www.bohemiancoding.com/sketch -->
    <title>Brand/Icon/XboxLive</title>
    <desc>Created with Sketch.</desc>
    <g id="Brand/Icon/XboxLive" stroke="none" stroke-width="1" fill="none" fill-rule="evenodd">
        <g id="XBOX_logo_2012">
            <rect id="Rectangle" fill="#1C9B1C" x="0" y="0" width="50" height="50"></rect>
            <g id="g4146" transform="translate(6.000000, 6.000000)" fill="#FFFFFF" fill-rule="nonzero">
                <path d="M17.1042222,37.9156493 C14.1824444,37.6372919 11.2226667,36.5871254 8.67666667,34.9254162 C6.54444444,33.5336293 6.06311111,32.9642619 6.06311111,31.8213097 C6.06311111,29.5311876 8.58377778,25.5160932 12.8904444,20.9442841 C15.3393333,18.3462819 18.7466667,15.3012209 19.114,15.3813541 C19.8317778,15.5416204 25.5613333,21.1340733 27.7062222,23.7615982 C31.1008889,27.9285239 32.6631111,31.336293 31.8693333,32.854606 C31.2655556,34.0102109 27.5288889,36.2665927 24.7844444,37.1311876 C22.5213333,37.8481687 19.5488889,38.1518313 17.1042222,37.9156493 Z M3.18777778,29.4426193 C1.41866667,26.7265261 0.523555556,24.0483907 0.0886666667,20.1809101 C-0.0548888889,18.9029967 -0.00422222222,18.1733629 0.413777778,15.5500555 C0.933111111,12.281465 2.79088889,8.50255272 5.02866667,6.17447281 C5.98288889,5.18335183 6.06733333,5.15804661 7.22844444,5.55027747 C8.63866667,6.02685905 10.1417778,7.06437292 12.4766667,9.17735849 L13.8404444,10.408879 L13.0973333,11.3240844 C9.63933333,15.5669256 5.99555556,21.5811321 4.62333333,25.3009989 C3.876,27.3211987 3.57622222,29.3540511 3.89711111,30.1975583 C4.11244444,30.7669256 3.914,30.5560488 3.18777778,29.4426193 Z M34.2633333,29.9023307 C34.4364444,29.0503885 34.2168889,27.481465 33.6975556,25.899889 C32.5786667,22.4752497 28.8251111,16.0983352 25.3797778,11.7669256 L24.2946667,10.4046615 L25.4684444,9.32497225 C27.0011111,7.91631521 28.0651111,7.07280799 29.2135556,6.3600444 C30.1213333,5.79489456 31.4133333,5.29722531 31.9706667,5.29722531 C32.3126667,5.29722531 33.5202222,6.54983352 34.4955556,7.92053274 C36.0071111,10.0377358 37.1175556,12.6104329 37.6791111,15.2843507 C38.0422222,17.0135405 38.0717778,20.7123196 37.7382222,22.4330744 C37.4637778,23.8459489 36.8811111,25.6805771 36.3153333,26.9289678 C35.8888889,27.8610433 34.8333333,29.6703663 34.3688889,30.2608213 C34.1324444,30.5560488 34.1324444,30.5560488 34.2633333,29.9023307 Z M17.4166667,4.64772475 C15.8248889,3.83795782 13.3717778,2.97336293 12.0164444,2.73718091 C11.5393333,2.65704772 10.7328889,2.61065483 10.2135556,2.63596004 C9.09466667,2.69078801 9.14533333,2.63596004 10.9397778,1.78823529 C12.4302222,1.08390677 13.6757778,0.670588235 15.3646667,0.316315205 C17.2646667,-0.0843507214 20.8324444,-0.0885682575 22.7028889,0.307880133 C24.7211111,0.733851276 27.0982222,1.61953385 28.4366667,2.44195339 L28.8335556,2.68657048 L27.9215556,2.64017758 C26.106,2.54739179 23.4628889,3.28124306 20.6213333,4.66459489 C19.7642222,5.08213097 19.0211111,5.41531632 18.9662222,5.40266371 C18.9155556,5.39422863 18.2146667,5.05260821 17.4166667,4.64772475 Z" id="path4148"></path>
            </g>
        </g>
    </g>
</svg>