<?xml version="1.0" encoding="UTF-8"?>
<svg width="149px" height="73px" viewBox="0 0 149 73" version="1.1" xmlns="http://www.w3.org/2000/svg" xmlns:xlink="http://www.w3.org/1999/xlink">
    <!-- Generator: Sketch 52.6 (67491) - http://www.bohemiancoding.com/sketch -->
    <title>Brand/Card/Small/BassPro</title>
    <desc>Created with Sketch.</desc>
    <g id="Symbols" stroke="none" stroke-width="1" fill="none" fill-rule="evenodd">
        <g id="Brand/Card/Small/XboxLive">
            <g id="Mask"></g>
            <g id="xbox-9" transform="translate(20.000000, 19.000000)" fill="#FFFFFF" fill-rule="nonzero">
                <path d="M106.90925,26.8905 L100.5305,18.23325 L94.15875,26.8905 L91.53375,26.8905 L99.20225,16.43075 L92.19875,6.923 L94.82375,6.923 L100.5305,14.67725 L106.23725,6.923 L108.8605,6.923 L101.86225,16.429 L109.5325,26.8905 L106.90925,26.8905 Z M57.204,26.887 L49.52675,16.429 L56.53025,6.923 L53.90525,6.923 L48.19675,14.679 L42.4935,6.923 L39.8755,6.923 L46.8755,16.429 L39.2,26.887 L41.8285,26.887 L48.20025,18.23325 L54.57725,26.887 L57.204,26.887 Z" id="Shape"></path>
                <path d="M71.799,17.185 C71.4034735,16.8478841 70.9629045,16.567522 70.49,16.352 C71.9687601,15.5662154 72.8924702,14.0278206 72.891,12.35325 C72.891,11.07575 72.42025,6.92125 66.40025,6.92125 L58.2925,6.92125 L58.2925,15.5295 L55.59225,15.5295 C55.24225,15.98625 54.446,17.0835 54.14325,17.53325 L58.2925,17.53325 L58.2925,26.887 L66.402,26.88875 C70.7945,26.88875 73.52275,24.65925 73.52275,21.0595 C73.52275,19.488 72.9295,18.15275 71.799,17.185 Z M60.53425,9.0055 L66.402,9.0055 C67.98925,9.0055 70.64925,9.401 70.64925,12.17825 C70.64925,14.27825 69.1005,15.5295 66.402,15.5295 L60.53425,15.5295 L60.53425,9.0055 Z M66.40025,24.80625 L60.5325,24.80625 L60.5325,17.5385 L66.40025,17.5385 C68.6245,17.5385 71.28625,18.15275 71.28625,21.01575 C71.28625,24.31275 68.2255,24.80625 66.40025,24.80625 Z M84.07,6.46275 C78.46125,6.46275 74.54125,10.752 74.54125,16.8945 C74.54125,23.04575 78.46125,27.3315 84.07,27.3315 C89.6735,27.3315 93.583,23.04575 93.583,16.8945 C93.583,10.752 89.6735,6.46275 84.07,6.46275 Z M84.07,25.21925 C79.7965,25.21925 76.80225,21.7945 76.80225,16.8945 C76.80225,11.9945 79.7965,8.5715 84.07,8.5715 C88.3365,8.5715 91.31325,11.9945 91.31325,16.8945 C91.31325,21.7945 88.3365,25.21925 84.07,25.21925 Z M4.9665,4.78625 L4.95075,4.80025 L4.95075,4.802 C1.77846029,7.92528596 -0.00547286665,12.1924743 4.95766351e-15,16.64425 C-0.00497264472,20.2874155 1.19067949,23.8307036 3.402,26.726 C3.42475,26.754 3.45975,26.76975 3.49125,26.754 C3.521,26.7365 3.52275,26.69975 3.5105,26.66825 C2.24175,22.74475 8.72725,13.23525 12.0785,9.24875 C12.089,9.23475 12.103,9.219 12.103,9.19975 C12.103,9.177 12.08725,9.1595 12.0715,9.1455 C6.43475,3.535 4.92975,4.81775 4.95075,4.80025 L4.9665,4.78625 Z M28.322,4.78625 L28.33775,4.80025 L28.33775,4.802 C31.50973,7.92535174 33.2930785,12.1926499 33.28675,16.64425 C33.2917226,20.2874155 32.0960705,23.8307036 29.88475,26.726 C29.86375,26.754 29.827,26.76975 29.7955,26.754 C29.7675,26.7365 29.76575,26.69975 29.77625,26.66825 C31.045,22.74475 24.56475,13.22825 21.21525,9.24 C21.203,9.226 21.19075,9.21025 21.19075,9.19275 C21.19075,9.16825 21.20475,9.15075 21.22225,9.13675 C26.86075,3.52625 28.35525,4.81775 28.336,4.80025 L28.322,4.78625 Z M16.64425,0 C20.0025,0 22.76575,0.9205 25.31375,2.436 C25.34525,2.45175 25.354,2.48675 25.34175,2.51825 C25.3295,2.548 25.2945,2.555 25.26125,2.54625 C22.0395,1.84975 17.14125,4.634 16.67925,4.91225 C16.66875,4.91925 16.65825,4.92625 16.64425,4.92625 C16.6285,4.92625 16.618,4.91925 16.6075,4.91225 C15.379,4.207 10.85175,1.834 8.001,2.56375 C7.9695,2.57075 7.9345,2.5655 7.9205,2.534 C7.90815698,2.50343299 7.9200705,2.468437 7.9485,2.45175 C10.4965,0.9205 13.29475,0 16.64425,0 Z M16.64425,13.349 C16.6635,13.349 16.6845,13.36475 16.69675,13.37525 C21.67725,17.16225 30.2015,26.52475 27.59925,29.1725 L27.60275,29.169 L27.601,29.1725 L27.5975,29.1725 C24.5680498,31.8315592 20.6733978,33.2954756 16.6425,33.29025 C12.6111451,33.2950984 8.71607229,31.8312577 5.68575,29.1725 L5.68225,29.169 L5.68575,29.1725 C3.08875,26.52475 11.61125,17.16225 16.5865,13.37525 C16.6005,13.36475 16.62325,13.349 16.64425,13.349 Z" id="Shape"></path>
            </g>
        </g>
    </g>
</svg>