<svg width="40" height="40" viewBox="0 0 40 40" fill="none" xmlns="http://www.w3.org/2000/svg">
<path fill-rule="evenodd" clip-rule="evenodd" d="M4.81813 0C2.14885 0 0 2.14892 0 4.8182V6.70486H0.595677V13.7724H0V26.2126H0.595677V33.2952H0V35.1819C0 37.8512 2.14885 40.0001 4.81813 40.0001H35.1818C37.8511 40.0001 40 37.8512 40 35.1819V4.8182C40 2.14892 37.8511 0 35.1818 0H4.81813Z" fill="#002A3D"/>
<path fill-rule="evenodd" clip-rule="evenodd" d="M6.7213 2.86771C4.57587 2.86771 2.86723 4.51059 2.86723 6.63684C2.86723 6.83566 2.70605 6.99684 2.50723 6.99684H1.87332V13.4125H2.50723C2.70605 13.4125 2.86723 13.5736 2.86723 13.7725V26.2126C2.86723 26.4115 2.70605 26.5726 2.50723 26.5726H1.87332V32.9435H2.50723C2.70605 32.9435 2.86723 33.1047 2.86723 33.3035C2.86723 35.4365 4.58272 37.1325 6.7213 37.1325H33.2779C35.4137 37.1325 37.132 35.4142 37.132 33.2784V6.72179C37.132 4.58601 35.4137 2.86771 33.2779 2.86771H6.7213ZM6.7213 2.14771C4.31804 2.14771 2.34408 3.91249 2.16108 6.27684H1.51332C1.3145 6.27684 1.15332 6.43801 1.15332 6.63684V13.7725C1.15332 13.9713 1.3145 14.1325 1.51332 14.1325H2.14723V25.8526H1.51332C1.3145 25.8526 1.15332 26.0138 1.15332 26.2126V33.3035C1.15332 33.5023 1.3145 33.6635 1.51332 33.6635H2.16107C2.34373 36.0276 4.31168 37.8525 6.7213 37.8525H33.2779C35.8113 37.8525 37.852 35.8118 37.852 33.2784V6.72179C37.852 4.18837 35.8113 2.14771 33.2779 2.14771H6.7213Z" fill="white"/>
<path fill-rule="evenodd" clip-rule="evenodd" d="M30.0236 9.99979L28.3569 12.8865H25.0236L23.3569 9.99979L25.0236 7.11304H28.3569L30.0236 9.99979Z" fill="#06435E"/>
<path fill-rule="evenodd" clip-rule="evenodd" d="M23.3571 29.9981L21.6904 32.8848H18.3571L16.6904 29.9981L18.3571 27.1113H21.6904L23.3571 29.9981Z" fill="#06435E"/>
<path d="M13.3695 19.9699C15.2104 19.9699 16.7028 18.4775 16.7028 16.6366C16.7028 14.7956 15.2104 13.3032 13.3695 13.3032C11.5285 13.3032 10.0361 14.7956 10.0361 16.6366C10.0361 18.4775 11.5285 19.9699 13.3695 19.9699Z" fill="#06435E"/>
<path d="M26.703 19.9699C28.5439 19.9699 30.0363 18.4775 30.0363 16.6366C30.0363 14.7956 28.5439 13.3032 26.703 13.3032C24.862 13.3032 23.3696 14.7956 23.3696 16.6366C23.3696 18.4775 24.862 19.9699 26.703 19.9699Z" fill="#06435E"/>
<path d="M20.0365 26.6366C21.8774 26.6366 23.3698 25.1443 23.3698 23.3033C23.3698 21.4624 21.8774 19.97 20.0365 19.97C18.1955 19.97 16.7031 21.4624 16.7031 23.3033C16.7031 25.1443 18.1955 26.6366 20.0365 26.6366Z" fill="#06435E"/>
<path d="M26.703 26.6366C28.5439 26.6366 30.0363 25.1443 30.0363 23.3033C30.0363 21.4624 28.5439 19.97 26.703 19.97C24.862 19.97 23.3696 21.4624 23.3696 23.3033C23.3696 25.1443 24.862 26.6366 26.703 26.6366Z" fill="#06435E"/>
<path fill-rule="evenodd" clip-rule="evenodd" d="M26.7029 13.3032C25.8188 13.3032 24.971 13.6545 24.3459 14.2796C23.7208 14.9047 23.3696 15.7526 23.3696 16.6366C23.3697 17.5207 23.7208 18.3685 24.3459 18.9936C24.971 19.6187 25.8189 19.9699 26.7029 19.9699V13.3032Z" fill="#00A8F3"/>
<path fill-rule="evenodd" clip-rule="evenodd" d="M21.8041 20.4775C21.2741 20.1459 20.6616 19.97 20.0364 19.97C18.1954 19.97 16.7031 21.4624 16.7031 23.3034C16.7032 25.1443 18.1955 26.6366 20.0364 26.6366C20.6618 26.6353 21.2744 26.4592 21.8041 26.1268V20.4775Z" fill="#F39C11"/>
<path fill-rule="evenodd" clip-rule="evenodd" d="M15.0776 13.8108C14.5476 13.4792 13.935 13.3033 13.3098 13.3032C11.4689 13.3033 9.97653 14.7957 9.97656 16.6366C9.97662 18.4775 11.4689 19.9698 13.3098 19.9699C13.9352 19.9699 14.5478 19.7925 15.0776 19.46V13.8108Z" fill="#BE0000"/>
<path fill-rule="evenodd" clip-rule="evenodd" d="M36.6901 16.6592L35.0234 19.546H31.6901L30.0234 16.6592L31.6901 13.7725H35.0234L36.6901 16.6592Z" fill="#06435E"/>
<path fill-rule="evenodd" clip-rule="evenodd" d="M36.6901 23.3255L35.0234 26.2122H31.6901L30.0234 23.3255L31.6901 20.4387H35.0234L36.6901 23.3255Z" fill="#06435E"/>
<path fill-rule="evenodd" clip-rule="evenodd" d="M9.97673 16.6587L8.31006 19.5455H4.97673L3.31006 16.6587L4.97673 13.772H8.31006L9.97673 16.6587Z" fill="#06435E"/>
<path fill-rule="evenodd" clip-rule="evenodd" d="M9.97673 23.3255L8.31006 26.2122H4.97673L3.31006 23.3255L4.97673 20.4387H8.31006L9.97673 23.3255Z" fill="#06435E"/>
<path d="M20.0409 13.3031C21.8818 13.3031 23.3742 11.8108 23.3742 9.96981C23.3742 8.12886 21.8818 6.63647 20.0409 6.63647C18.1999 6.63647 16.7075 8.12886 16.7075 9.96981C16.7075 11.8108 18.1999 13.3031 20.0409 13.3031Z" fill="#06435E"/>
<path d="M13.3695 33.3031C15.2104 33.3031 16.7028 31.8108 16.7028 29.9698C16.7028 28.1289 15.2104 26.6365 13.3695 26.6365C11.5285 26.6365 10.0361 28.1289 10.0361 29.9698C10.0361 31.8108 11.5285 33.3031 13.3695 33.3031Z" fill="#06435E"/>
<path d="M26.703 33.3031C28.5439 33.3031 30.0363 31.8108 30.0363 29.9698C30.0363 28.1289 28.5439 26.6365 26.703 26.6365C24.862 26.6365 23.3696 28.1289 23.3696 29.9698C23.3696 31.8108 24.862 33.3031 26.703 33.3031Z" fill="#06435E"/>
<path d="M13.3695 26.6366C15.2104 26.6366 16.7028 25.1443 16.7028 23.3033C16.7028 21.4624 15.2104 19.97 13.3695 19.97C11.5285 19.97 10.0361 21.4624 10.0361 23.3033C10.0361 25.1443 11.5285 26.6366 13.3695 26.6366Z" fill="#F39C11"/>
<path d="M12.6051 25.1421H10.9385V28.8921H12.6051V25.1421Z" fill="#F39C11"/>
<path d="M27.5365 25.1431H25.8716V28.889H27.5365V25.1431Z" fill="#F39C11"/>
<path fill-rule="evenodd" clip-rule="evenodd" d="M23.8806 21.5408C23.5493 22.0702 23.3736 22.6821 23.3735 23.3066C23.3736 24.1897 23.7244 25.0366 24.3489 25.6611C24.9733 26.2855 25.8203 26.6363 26.7034 26.6363C27.5864 26.6362 28.4333 26.2854 29.0577 25.661C29.6822 25.0366 30.033 24.1897 30.033 23.3066C30.0323 22.6819 29.8558 22.07 29.5237 21.5408H23.8806Z" fill="#F39C11"/>
<path fill-rule="evenodd" clip-rule="evenodd" d="M16.6901 9.99979L15.0234 12.8865H11.6901L10.0234 9.99979L11.6901 7.11304H15.0234L16.6901 9.99979Z" fill="#06435E"/>
<path d="M20.036 19.9704C21.8769 19.9704 23.3693 18.478 23.3693 16.637C23.3693 14.7961 21.8769 13.3037 20.036 13.3037C18.195 13.3037 16.7026 14.7961 16.7026 16.637C16.7026 18.478 18.195 19.9704 20.036 19.9704Z" fill="#54BC89"/>
<path d="M19.2716 11.012H17.605V14.762H19.2716V11.012Z" fill="#54BC89"/>
</svg>
