<svg width="130" height="16" viewBox="0 0 130 16" fill="none" xmlns="http://www.w3.org/2000/svg">
<path d="M1.02538 15.6004C0.652527 15.6004 0.366221 15.4406 0.166467 15.121C-0.0332832 14.8014 -0.0532676 14.4619 0.106515 14.1023L5.71952 0.699057C5.91927 0.232985 6.24553 0 6.6983 0C7.17767 0 7.50393 0.232985 7.67707 0.699057L13.31 14.1423C13.4565 14.5152 13.4299 14.8547 13.2301 15.161C13.0437 15.454 12.7574 15.6004 12.3712 15.6004C12.1714 15.6004 11.9783 15.5471 11.7919 15.4406C11.6188 15.3207 11.4923 15.161 11.4124 14.9612L6.45857 2.65658H7.01786L1.98416 14.9612C1.89096 15.1743 1.75115 15.334 1.56472 15.4406C1.39159 15.5471 1.21181 15.6004 1.02538 15.6004H1.02538ZM2.08405 12.1648L2.88305 10.4469H10.7133L11.5123 12.1648H2.08405Z" fill="#00A8F3"/>
<path d="M25.4547 15.6004C25.1617 15.6004 24.9154 15.5006 24.7156 15.3008C24.5159 15.101 24.416 14.8547 24.416 14.5617V1.03867C24.416 0.732376 24.5159 0.486058 24.7156 0.29962C24.9154 0.0998745 25.1617 0 25.4547 0H30.2287C31.1343 0 31.9266 0.179725 32.6058 0.539248C33.2982 0.88551 33.8376 1.3715 34.2237 1.99735C34.6232 2.62325 34.823 3.34235 34.823 4.15468C34.823 4.80719 34.6432 5.39992 34.2837 5.93257C33.9374 6.45192 33.458 6.86458 32.8455 7.17088C33.7244 7.38393 34.4301 7.80345 34.9628 8.42935C35.4955 9.0552 35.7618 9.87417 35.7618 10.8863C35.7618 11.8051 35.5421 12.6175 35.1026 13.3233C34.6765 14.029 34.0773 14.5883 33.3049 15.0012C32.5325 15.4007 31.647 15.6004 30.6482 15.6004H25.4547ZM26.4934 13.6829H30.6482C31.2608 13.6829 31.8001 13.5763 32.2662 13.3632C32.7323 13.1502 33.0985 12.8372 33.3648 12.4244C33.6311 12.0116 33.7643 11.4988 33.7643 10.8863C33.7643 10.3137 33.6311 9.8409 33.3648 9.46802C33.0985 9.09514 32.7323 8.81547 32.2662 8.62898C31.8001 8.42928 31.2608 8.32953 30.6482 8.32953H26.4934V13.6829ZM26.4934 6.41183H30.2287C30.9878 6.41183 31.607 6.22546 32.0864 5.85258C32.5791 5.47971 32.8255 4.9137 32.8255 4.15468C32.8255 3.39562 32.5791 2.83647 32.0864 2.47695C31.607 2.10407 30.9878 1.91753 30.2287 1.91753H26.4934V6.41183Z" fill="#00A8F3"/>
<path d="M54.4848 16C53.4061 16 52.3941 15.8003 51.4486 15.4008C50.5164 14.9879 49.6974 14.422 48.9916 13.7029C48.2992 12.9704 47.7532 12.1182 47.3537 11.1461C46.9675 10.1739 46.7744 9.12198 46.7744 7.99009C46.7744 6.8715 46.9675 5.83288 47.3537 4.87407C47.7532 3.90192 48.2992 3.05623 48.9916 2.33714C49.6974 1.60474 50.5164 1.03208 51.4486 0.619237C52.3807 0.206439 53.3928 0 54.4848 0C55.5102 0 56.389 0.133278 57.1215 0.399605C57.8672 0.665932 58.6129 1.10531 59.3587 1.7179C59.4652 1.79779 59.5451 1.88433 59.5984 1.97752C59.665 2.05741 59.7049 2.14408 59.7182 2.23732C59.7449 2.31721 59.7582 2.41708 59.7582 2.53694C59.7582 2.78996 59.665 3.00304 59.4786 3.17617C59.3054 3.33595 59.0924 3.42913 58.8394 3.45579C58.5863 3.4691 58.34 3.38244 58.1003 3.196C57.6076 2.76985 57.0949 2.44368 56.5622 2.21732C56.0428 1.99096 55.3504 1.87771 54.4848 1.87771C53.6991 1.87771 52.96 2.03758 52.2676 2.35713C51.5751 2.67673 50.9625 3.11611 50.4299 3.67543C49.9105 4.23469 49.5044 4.8872 49.2114 5.63295C48.9184 6.3654 48.7719 7.15114 48.7719 7.99009C48.7719 8.84234 48.9184 9.64134 49.2114 10.387C49.5044 11.1195 49.9105 11.7653 50.4299 12.3246C50.9625 12.8839 51.5751 13.3235 52.2676 13.643C52.96 13.9493 53.6991 14.1025 54.4848 14.1025C55.1639 14.1025 55.8031 13.9893 56.4024 13.7629C57.015 13.5232 57.6009 13.1968 58.1602 12.784C58.3999 12.6109 58.6329 12.5378 58.8593 12.5644C59.099 12.5777 59.2988 12.6709 59.4586 12.844C59.6184 13.0038 59.6983 13.2302 59.6983 13.5232C59.6983 13.6564 59.6716 13.7895 59.6184 13.9227C59.5651 14.0425 59.4852 14.1557 59.3787 14.2623C58.6596 14.8349 57.8872 15.2676 57.0616 15.5606C56.2493 15.8536 55.3903 16 54.4848 16H54.4848Z" fill="#00A8F3"/>
<path d="M71.8097 15.6004C71.5167 15.6004 71.2704 15.5006 71.0706 15.3008C70.8709 15.101 70.771 14.8547 70.771 14.5617V1.03867C70.771 0.732376 70.8709 0.486058 71.0706 0.29962C71.2704 0.0998745 71.5167 0 71.8097 0H75.8047C76.8035 0 77.689 0.219651 78.4614 0.659063C79.2337 1.09852 79.833 1.7111 80.2591 2.49678C80.6986 3.26914 80.9183 4.16128 80.9183 5.17336C80.9183 6.14551 80.6986 7.0111 80.2591 7.77012C79.833 8.52918 79.2337 9.1219 78.4614 9.54801C77.689 9.97416 76.8035 10.1872 75.8047 10.1872H72.8484V14.5617C72.8484 14.8547 72.7485 15.101 72.5488 15.3008C72.3623 15.5006 72.116 15.6004 71.8097 15.6004ZM72.8484 8.26954H75.8047C76.4173 8.26954 76.9566 8.13643 77.4227 7.8701C77.8888 7.60378 78.255 7.23751 78.5213 6.77144C78.7876 6.30532 78.9208 5.77259 78.9208 5.17336C78.9208 4.53415 78.7876 3.97488 78.5213 3.49545C78.255 3.00277 77.8888 2.6166 77.4227 2.33697C76.9566 2.05733 76.4173 1.91753 75.8047 1.91753H72.8484V8.26954Z" fill="#00A8F3"/>
<path d="M92.9565 15.6004C92.5837 15.6004 92.2974 15.4406 92.0976 15.121C91.8978 14.8014 91.8779 14.4619 92.0377 14.1023L97.6507 0.699057C97.8504 0.232985 98.1767 0 98.6295 0C99.1089 0 99.4351 0.232985 99.6082 0.699057L105.241 14.1423C105.388 14.5152 105.361 14.8547 105.161 15.161C104.975 15.454 104.689 15.6004 104.302 15.6004C104.103 15.6004 103.91 15.5471 103.723 15.4406C103.55 15.3207 103.423 15.161 103.344 14.9612L98.3898 2.65658H98.9491L93.9154 14.9612C93.8221 15.1743 93.6823 15.334 93.4959 15.4406C93.3228 15.5471 93.143 15.6004 92.9566 15.6004H92.9565ZM94.0152 12.1648L94.8142 10.4469H102.644L103.443 12.1648H94.0152Z" fill="#00A8F3"/>
<path d="M122.91 15.6004C122.63 15.6004 122.39 15.5006 122.191 15.3008C121.991 15.101 121.891 14.8547 121.891 14.5617V9.90762L116.558 1.61791C116.385 1.33823 116.318 1.07858 116.358 0.838868C116.398 0.585848 116.511 0.386099 116.697 0.239629C116.897 0.0798508 117.124 0 117.377 0C117.603 0 117.783 0.0531371 117.916 0.15964C118.049 0.252882 118.176 0.392804 118.295 0.579243L123.369 8.62898H122.57L127.724 0.499254C127.83 0.339476 127.957 0.2197 128.103 0.139811C128.25 0.0466153 128.429 0 128.643 0C128.882 0 129.082 0.0865406 129.242 0.259626C129.402 0.419404 129.495 0.625797 129.521 0.878862C129.548 1.11853 129.482 1.36485 129.322 1.61791L123.948 9.90762V14.5617C123.948 14.8547 123.849 15.101 123.649 15.3008C123.449 15.5006 123.203 15.6004 122.91 15.6004Z" fill="#00A8F3"/>
</svg>
