<svg width="189" height="24" viewBox="0 0 189 24" fill="none" xmlns="http://www.w3.org/2000/svg">
<path d="M1.48973 23.042C0.948024 23.042 0.532065 22.8099 0.241851 22.3455C-0.0483555 21.8811 -0.0773898 21.3879 0.15475 20.8655L8.30961 1.39258C8.59982 0.715445 9.07382 0.376953 9.73162 0.376953C10.4281 0.376953 10.9021 0.715445 11.1536 1.39258L19.3375 20.9236C19.5503 21.4653 19.5116 21.9586 19.2214 22.4036C18.9505 22.8292 18.5345 23.042 17.9735 23.042C17.6833 23.042 17.4027 22.9646 17.1319 22.8098C16.8804 22.6357 16.6966 22.4035 16.5805 22.1133L9.38334 4.23657H10.1959L2.88269 22.1133C2.74728 22.4229 2.54415 22.655 2.2733 22.8098C2.02177 22.9646 1.76057 23.042 1.48972 23.042H1.48973ZM3.02781 18.0505L4.18864 15.5547H15.5648L16.7256 18.0505H3.02781Z" fill="#00A8F3"/>
<path d="M36.9817 23.042C36.5561 23.042 36.1982 22.897 35.908 22.6067C35.6178 22.3165 35.4727 21.9586 35.4727 21.533V1.88599C35.4727 1.44099 35.6178 1.08312 35.908 0.812256C36.1982 0.522056 36.5561 0.376953 36.9817 0.376953H43.9177C45.2333 0.376953 46.3844 0.638067 47.3711 1.1604C48.3772 1.66347 49.1607 2.36954 49.7218 3.27881C50.3022 4.18814 50.5924 5.23289 50.5924 6.41309C50.5924 7.36109 50.3312 8.22223 49.8089 8.99609C49.3059 9.75063 48.6094 10.3502 47.7194 10.7952C48.9963 11.1047 50.0217 11.7142 50.7956 12.6235C51.5695 13.5328 51.9564 14.7226 51.9564 16.1931C51.9564 17.528 51.6372 18.7082 50.9987 19.7336C50.3796 20.759 49.509 21.5716 48.3869 22.1714C47.2647 22.7519 45.9781 23.042 44.5271 23.042H36.9817ZM38.4908 20.2561H44.5271C45.4171 20.2561 46.2006 20.1013 46.8778 19.7917C47.5549 19.4822 48.087 19.0275 48.4739 18.4277C48.8609 17.828 49.0543 17.083 49.0543 16.1931C49.0543 15.3612 48.8609 14.6743 48.4739 14.1326C48.087 13.5908 47.5549 13.1845 46.8778 12.9136C46.2006 12.6234 45.4171 12.4785 44.5271 12.4785H38.4908V20.2561ZM38.4908 9.69238H43.9177C45.0205 9.69238 45.9201 9.42162 46.6166 8.87988C47.3324 8.33815 47.6904 7.51582 47.6904 6.41309C47.6904 5.31029 47.3324 4.49792 46.6166 3.97559C45.9201 3.43385 45.0205 3.16284 43.9177 3.16284H38.4908V9.69238Z" fill="#00A8F3"/>
<path d="M79.158 23.6226C77.5909 23.6226 76.1205 23.3324 74.7469 22.752C73.3926 22.1522 72.2028 21.3299 71.1774 20.2852C70.1713 19.221 69.3781 17.9828 68.7977 16.5706C68.2366 15.1582 67.9561 13.6298 67.9561 11.9854C67.9561 10.3602 68.2366 8.85125 68.7977 7.45825C69.3781 6.04585 70.1713 4.81719 71.1774 3.77246C72.2028 2.70839 73.3926 1.87641 74.7469 1.27661C76.1012 0.676878 77.5716 0.376953 79.158 0.376953C80.6478 0.376953 81.9247 0.570586 82.9888 0.95752C84.0722 1.34445 85.1557 1.9828 86.2391 2.8728C86.3939 2.98887 86.51 3.1146 86.5873 3.25C86.6841 3.36607 86.7421 3.49197 86.7615 3.62744C86.8002 3.74351 86.8196 3.88861 86.8196 4.06274C86.8196 4.43034 86.6841 4.73992 86.4133 4.99146C86.1618 5.22359 85.8522 5.35897 85.4846 5.39771C85.117 5.41704 84.7591 5.29113 84.4108 5.02026C83.695 4.40113 82.9501 3.92726 82.1762 3.59839C81.4217 3.26952 80.4156 3.10498 79.1581 3.10498C78.0166 3.10498 76.9428 3.33725 75.9368 3.80151C74.9307 4.26585 74.0408 4.9042 73.2669 5.7168C72.5123 6.52933 71.9223 7.47732 71.4966 8.56079C71.071 9.62492 70.8582 10.7665 70.8582 11.9854C70.8582 13.2236 71.071 14.3844 71.4966 15.4678C71.9223 16.5319 72.5123 17.4702 73.2669 18.2827C74.0408 19.0954 74.9307 19.734 75.9368 20.1982C76.9428 20.6432 78.0166 20.8657 79.1581 20.8657C80.1448 20.8657 81.0735 20.7012 81.9441 20.3723C82.8341 20.0241 83.6853 19.55 84.4979 18.9502C84.8462 18.6987 85.1847 18.5924 85.5136 18.6311C85.8619 18.6504 86.1521 18.7858 86.3843 19.0374C86.6164 19.2695 86.7325 19.5985 86.7325 20.0242C86.7325 20.2176 86.6938 20.411 86.6164 20.6045C86.539 20.7786 86.4229 20.9431 86.2682 21.0979C85.2234 21.9298 84.1013 22.5585 82.9018 22.9841C81.7216 23.4098 80.4737 23.6226 79.1581 23.6226H79.158Z" fill="#00A8F3"/>
<path d="M104.329 23.042C103.903 23.042 103.545 22.897 103.255 22.6067C102.965 22.3165 102.82 21.9586 102.82 21.533V1.88599C102.82 1.44099 102.965 1.08312 103.255 0.812256C103.545 0.522056 103.903 0.376953 104.329 0.376953H110.133C111.584 0.376953 112.871 0.696073 113.993 1.33447C115.115 1.97294 115.986 2.86293 116.605 4.00439C117.243 5.12653 117.562 6.42267 117.562 7.89307C117.562 9.30547 117.243 10.563 116.605 11.6658C115.986 12.7686 115.115 13.6297 113.993 14.2488C112.871 14.8679 111.584 15.1775 110.133 15.1775H105.838V21.533C105.838 21.9586 105.693 22.3165 105.403 22.6067C105.132 22.897 104.774 23.042 104.329 23.042ZM105.838 12.3914H110.133C111.023 12.3914 111.807 12.198 112.484 11.811C113.161 11.4241 113.693 10.892 114.08 10.2148C114.467 9.53764 114.66 8.76367 114.66 7.89307C114.66 6.9644 114.467 6.15186 114.08 5.45532C113.693 4.73952 113.161 4.17848 112.484 3.77222C111.807 3.36595 111.023 3.16284 110.133 3.16284H105.838V12.3914Z" fill="#00A8F3"/>
<path d="M135.052 23.042C134.51 23.042 134.095 22.8099 133.804 22.3455C133.514 21.8811 133.485 21.3879 133.717 20.8655L141.872 1.39258C142.162 0.715445 142.636 0.376953 143.294 0.376953C143.991 0.376953 144.465 0.715445 144.716 1.39258L152.9 20.9236C153.113 21.4653 153.074 21.9586 152.784 22.4036C152.513 22.8292 152.097 23.042 151.536 23.042C151.246 23.042 150.965 22.9646 150.694 22.8098C150.443 22.6357 150.259 22.4035 150.143 22.1133L142.946 4.23657H143.758L136.445 22.1133C136.31 22.4229 136.107 22.655 135.836 22.8098C135.584 22.9646 135.323 23.042 135.052 23.042H135.052ZM136.59 18.0505L137.751 15.5547H149.127L150.288 18.0505H136.59Z" fill="#00A8F3"/>
<path d="M178.57 23.042C178.163 23.042 177.815 22.897 177.525 22.6067C177.235 22.3165 177.09 21.9586 177.09 21.533V14.7712L169.341 2.72754C169.09 2.32121 168.993 1.94397 169.051 1.5957C169.109 1.2281 169.274 0.937898 169.544 0.725098C169.835 0.492964 170.163 0.376953 170.531 0.376953C170.86 0.376953 171.121 0.454153 171.315 0.608887C171.508 0.744353 171.692 0.947639 171.866 1.21851L179.237 12.9136H178.076L185.564 1.10229C185.719 0.870162 185.902 0.696145 186.115 0.580078C186.328 0.444678 186.589 0.376953 186.899 0.376953C187.247 0.376953 187.537 0.502684 187.769 0.75415C188.002 0.986284 188.137 1.28614 188.176 1.65381C188.214 2.00201 188.118 2.35987 187.885 2.72754L180.079 14.7712V21.533C180.079 21.9586 179.934 22.3165 179.644 22.6067C179.353 22.897 178.995 23.042 178.57 23.042Z" fill="#00A8F3"/>
</svg>
