<svg width="48" height="48" viewBox="0 0 48 48" fill="none" xmlns="http://www.w3.org/2000/svg">
<path fill-rule="evenodd" clip-rule="evenodd" d="M5.78175 0C2.57862 0 0 2.5787 0 5.78184V8.04583H0.714813V16.5269H0V31.4551H0.714813V39.9543H0V42.2183C0 45.4214 2.57862 48.0001 5.78175 48.0001H42.2182C45.4213 48.0001 48 45.4214 48 42.2183V5.78184C48 2.5787 45.4213 0 42.2182 0H5.78175Z" fill="#002A3D"/>
<path fill-rule="evenodd" clip-rule="evenodd" d="M8.06586 3.44115C5.49134 3.44115 3.44097 5.41261 3.44097 7.96411C3.44097 8.20269 3.24755 8.39611 3.00896 8.39611H2.24828V16.0949H3.00896C3.24755 16.0949 3.44097 16.2883 3.44097 16.5269V31.4551C3.44097 31.6937 3.24755 31.8871 3.00896 31.8871H2.24828V39.5321H3.00896C3.24755 39.5321 3.44097 39.7255 3.44097 39.9641C3.44097 42.5237 5.49955 44.5589 8.06586 44.5589H39.9338C42.4967 44.5589 44.5587 42.4969 44.5587 39.934V8.06605C44.5587 5.50312 42.4967 3.44115 39.9338 3.44115H8.06586ZM8.06586 2.57715C5.18195 2.57715 2.81319 4.69489 2.59358 7.53211H1.81628C1.57769 7.53211 1.38428 7.72552 1.38428 7.96411V16.5269C1.38428 16.7654 1.57769 16.9589 1.81628 16.9589H2.57696V31.0231H1.81628C1.57769 31.0231 1.38428 31.2165 1.38428 31.4551V39.9641C1.38428 40.2027 1.57769 40.3961 1.81628 40.3961H2.59357C2.81277 43.233 5.17431 45.4229 8.06586 45.4229H39.9338C42.9739 45.4229 45.4227 42.9741 45.4227 39.934V8.06605C45.4227 5.02594 42.9739 2.57715 39.9338 2.57715H8.06586Z" fill="white"/>
<path fill-rule="evenodd" clip-rule="evenodd" d="M36.0283 12.0002L34.0283 15.4643H30.0283L28.0283 12.0002L30.0283 8.53613H34.0283L36.0283 12.0002Z" fill="#06435E"/>
<path fill-rule="evenodd" clip-rule="evenodd" d="M28.0283 35.9983L26.0283 39.4624H22.0283L20.0283 35.9983L22.0283 32.5342H26.0283L28.0283 35.9983Z" fill="#06435E"/>
<path d="M16.0435 23.9639C18.2526 23.9639 20.0435 22.173 20.0435 19.9639C20.0435 17.7547 18.2526 15.9639 16.0435 15.9639C13.8343 15.9639 12.0435 17.7547 12.0435 19.9639C12.0435 22.173 13.8343 23.9639 16.0435 23.9639Z" fill="#06435E"/>
<path d="M32.0435 23.9639C34.2526 23.9639 36.0435 22.173 36.0435 19.9639C36.0435 17.7547 34.2526 15.9639 32.0435 15.9639C29.8343 15.9639 28.0435 17.7547 28.0435 19.9639C28.0435 22.173 29.8343 23.9639 32.0435 23.9639Z" fill="#06435E"/>
<path d="M24.0435 31.9639C26.2526 31.9639 28.0435 30.173 28.0435 27.9639C28.0435 25.7547 26.2526 23.9639 24.0435 23.9639C21.8343 23.9639 20.0435 25.7547 20.0435 27.9639C20.0435 30.173 21.8343 31.9639 24.0435 31.9639Z" fill="#06435E"/>
<path d="M32.0435 31.9639C34.2526 31.9639 36.0435 30.173 36.0435 27.9639C36.0435 25.7547 34.2526 23.9639 32.0435 23.9639C29.8343 23.9639 28.0435 25.7547 28.0435 27.9639C28.0435 30.173 29.8343 31.9639 32.0435 31.9639Z" fill="#06435E"/>
<path fill-rule="evenodd" clip-rule="evenodd" d="M32.0434 15.9639C30.9825 15.9639 29.9651 16.3854 29.215 17.1355C28.4648 17.8857 28.0434 18.9031 28.0435 19.964C28.0435 21.0248 28.4649 22.0422 29.215 22.7923C29.9652 23.5424 30.9825 23.9638 32.0434 23.9639V15.9639Z" fill="#00A8F3"/>
<path fill-rule="evenodd" clip-rule="evenodd" d="M26.1647 24.573C25.5287 24.175 24.7936 23.9639 24.0434 23.9639C21.8342 23.9639 20.0434 25.7548 20.0435 27.964C20.0435 30.173 21.8343 31.9638 24.0434 31.9639C24.7938 31.9623 25.529 31.751 26.1647 31.3521V24.573Z" fill="#F39C11"/>
<path fill-rule="evenodd" clip-rule="evenodd" d="M18.0934 16.5729C17.4574 16.175 16.7223 15.9639 15.9721 15.9639C13.7629 15.9639 11.9721 17.7548 11.9722 19.964C11.9722 22.173 13.763 23.9638 15.9721 23.9639C16.7226 23.9639 17.4577 23.7509 18.0934 23.352V16.5729Z" fill="#BE0000"/>
<path fill-rule="evenodd" clip-rule="evenodd" d="M44.0283 19.9905L42.0283 23.4546H38.0283L36.0283 19.9905L38.0283 16.5264H42.0283L44.0283 19.9905Z" fill="#06435E"/>
<path fill-rule="evenodd" clip-rule="evenodd" d="M44.0283 27.9905L42.0283 31.4546H38.0283L36.0283 27.9905L38.0283 24.5264H42.0283L44.0283 27.9905Z" fill="#06435E"/>
<path fill-rule="evenodd" clip-rule="evenodd" d="M11.9722 19.9905L9.97217 23.4546H5.97217L3.97217 19.9905L5.97217 16.5264H9.97217L11.9722 19.9905Z" fill="#06435E"/>
<path fill-rule="evenodd" clip-rule="evenodd" d="M11.9722 27.9905L9.97217 31.4546H5.97217L3.97217 27.9905L5.97217 24.5264H9.97217L11.9722 27.9905Z" fill="#06435E"/>
<path d="M24.0488 15.9639C26.258 15.9639 28.0488 14.173 28.0488 11.9639C28.0488 9.75473 26.258 7.96387 24.0488 7.96387C21.8397 7.96387 20.0488 9.75473 20.0488 11.9639C20.0488 14.173 21.8397 15.9639 24.0488 15.9639Z" fill="#06435E"/>
<path d="M16.0435 39.9639C18.2526 39.9639 20.0435 38.173 20.0435 35.9639C20.0435 33.7547 18.2526 31.9639 16.0435 31.9639C13.8343 31.9639 12.0435 33.7547 12.0435 35.9639C12.0435 38.173 13.8343 39.9639 16.0435 39.9639Z" fill="#06435E"/>
<path d="M32.0435 39.9639C34.2526 39.9639 36.0435 38.173 36.0435 35.9639C36.0435 33.7547 34.2526 31.9639 32.0435 31.9639C29.8343 31.9639 28.0435 33.7547 28.0435 35.9639C28.0435 38.173 29.8343 39.9639 32.0435 39.9639Z" fill="#06435E"/>
<path d="M16.0435 31.9639C18.2526 31.9639 20.0435 30.173 20.0435 27.9639C20.0435 25.7547 18.2526 23.9639 16.0435 23.9639C13.8343 23.9639 12.0435 25.7547 12.0435 27.9639C12.0435 30.173 13.8343 31.9639 16.0435 31.9639Z" fill="#F39C11"/>
<path d="M15.1265 30.1699H13.1265V34.6699H15.1265V30.1699Z" fill="#F39C11"/>
<path d="M33.0433 30.1729H31.0454V34.668H33.0433V30.1729Z" fill="#F39C11"/>
<path fill-rule="evenodd" clip-rule="evenodd" d="M28.6563 25.8496C28.2588 26.4849 28.0479 27.2192 28.0479 27.9686C28.0479 29.0283 28.4689 30.0446 29.2182 30.794C29.9676 31.5433 30.9839 31.9642 32.0436 31.9642C33.1033 31.9642 34.1196 31.5432 34.8689 30.7939C35.6182 30.0446 36.0392 29.0283 36.0392 27.9686C36.0383 27.2189 35.8265 26.4846 35.4281 25.8496H28.6563Z" fill="#F39C11"/>
<path fill-rule="evenodd" clip-rule="evenodd" d="M20.0283 12.0002L18.0283 15.4643H14.0283L12.0283 12.0002L14.0283 8.53613H18.0283L20.0283 12.0002Z" fill="#06435E"/>
<path d="M24.0435 23.9639C26.2526 23.9639 28.0435 22.173 28.0435 19.9639C28.0435 17.7547 26.2526 15.9639 24.0435 15.9639C21.8343 15.9639 20.0435 17.7547 20.0435 19.9639C20.0435 22.173 21.8343 23.9639 24.0435 23.9639Z" fill="#54BC89"/>
<path d="M23.1265 13.2139H21.1265V17.7139H23.1265V13.2139Z" fill="#54BC89"/>
</svg>
