<svg width="43" height="43" viewBox="0 0 43 43" fill="none" xmlns="http://www.w3.org/2000/svg">
  <rect width="43" height="43" rx="12" fill="#F5F7F8"/>
  <path fill-rule="evenodd" clip-rule="evenodd" d="M27.1875 20.6875H22.3125V15.8125C22.3125 15.325 21.9875 15 21.5 15C21.0125 15 20.6875 15.325 20.6875 15.8125V20.6875H15.8125C15.325 20.6875 15 21.0125 15 21.5C15 21.9875 15.325 22.3125 15.8125 22.3125H20.6875V27.1875C20.6875 27.675 21.0125 28 21.5 28C21.9875 28 22.3125 27.675 22.3125 27.1875V22.3125H27.1875C27.675 22.3125 28 21.9875 28 21.5C28 21.0125 27.675 20.6875 27.1875 20.6875Z" fill="#434D5A"/>
</svg>
