<?xml version="1.0" encoding="UTF-8"?>
<svg width="58px" height="58px" viewBox="0 0 58 58" version="1.1" xmlns="http://www.w3.org/2000/svg" xmlns:xlink="http://www.w3.org/1999/xlink">
    <!-- Generator: sketchtool 60.1 (101010) - https://sketch.com -->
    <title>0EBC7B8E-03E4-4237-9C10-C5CFD1021326</title>
    <desc>Created with sketchtool.</desc>
    <g id="Asset-Artboard-Page" stroke="none" stroke-width="1" fill="none" fill-rule="evenodd">
        <g id="Brand/Icon/Amazon">
            <rect fill="#FFFFFF" x="0" y="0" width="58" height="58"></rect>
            <g id="Group-3">
                <rect id="Rectangle" fill="#000000" x="0" y="0" width="59.16" height="59.16"></rect>
                <g id="Group" transform="translate(15.080000, 11.600000)">
                    <path d="M9.75840143,20.2100754 C9.75840143,22.4127006 10.9037752,23.8871188 12.8585845,23.8871188 C14.2828983,23.8871188 15.5731553,23.018736 16.3816356,21.5851488 C17.3859472,19.8239489 17.340094,18.1836345 17.340094,16.2018826 L17.340094,15.0994448 C13.6498699,15.0994448 9.75840143,15.8919526 9.75840143,20.2100754 L9.75840143,20.2100754 Z M3.93409487,8.83332779 C3.52109802,8.73559051 3.05524266,8.40122615 3.17656248,7.76368333 C4.30792548,1.80621057 9.72401141,0 14.5713908,0 C17.0496903,0 20.2957119,0.661334132 22.2396947,2.52220042 C24.7199048,4.83638762 24.4887285,7.90771721 24.4887285,11.2532899 L24.4887285,19.1639006 C24.4887285,21.5414242 25.4758451,22.5892063 26.4094663,23.8646135 C26.7320306,24.328544 26.8113183,24.8773517 26.3960925,25.21043 C25.3538884,26.0794559 23.4965171,27.6889059 22.4855186,28.579151 L22.4552683,28.6074434 C22.1196486,28.9144799 21.6525196,28.9000122 21.2748679,28.6903915 C19.5722509,27.2912052 19.2722948,26.6427312 18.3526843,25.3088103 C15.5492731,28.1496214 13.5712188,29 9.94786399,29 C5.65804626,29 2.32,26.3662376 2.32,21.0922828 C2.32,16.9709205 4.5658495,14.175763 7.75646512,12.7981175 C10.5267601,11.5879757 14.3838387,11.3664594 17.3400937,11.0372391 L17.3400937,10.3759049 C17.3400937,9.17283622 17.4273421,7.74246405 16.7166181,6.69693241 C16.0944162,5.77132183 14.9060552,5.38551679 13.8613037,5.38551679 C11.9173208,5.38551679 10.1809509,6.37735724 9.75840128,8.42501746 C9.66987921,8.88991253 9.33394114,9.33905389 8.87827538,9.36380971 L3.93409487,8.83332779 L3.93409487,8.83332779 Z" id="Fill-24" fill="#FFFFFE"></path>
                    <path d="M24.1444273,33.6251568 C21.220363,35.9071592 16.9800068,37.12 13.3302739,37.12 C8.21292182,37.12 3.60542136,35.1192849 0.117551176,31.794091 C-0.155093322,31.5350638 0.0888181491,31.1778896 0.418290188,31.3789055 C4.18008189,33.6905881 8.8313204,35.0825219 13.6364402,35.0825219 C16.8784834,35.0825219 20.4413787,34.3755936 23.7207748,32.9047375 C24.2133866,32.6824732 24.6287385,33.2497697 24.1444273,33.6251568" id="Fill-25" fill="#EB902D"></path>
                    <path d="M25.4302117,32.5634724 C25.0838105,32.1111064 23.137633,32.3493045 22.2646782,32.4553371 C22.0002182,32.4877777 21.958508,32.2528838 22.1969362,32.0822704 C23.7476069,30.9762866 26.291038,31.2955861 26.5859672,31.6668506 C26.8817838,32.0390162 26.5084632,34.6267539 25.053933,35.8615989 C24.8305914,36.051136 24.6176035,35.9502098 24.7155188,35.7008978 C25.0435794,34.8700583 25.7763171,33.0128346 25.4302117,32.5634724" id="Fill-26" fill="#EB902D"></path>
                </g>
            </g>
        </g>
    </g>
</svg>