<svg xmlns="http://www.w3.org/2000/svg" width="72" height="72" viewBox="0 0 72 72">
  <g fill="none" fill-rule="evenodd">
    <rect width="72" height="72" fill="#221E20"/>
    <path fill="#F90" fill-rule="nonzero" d="M54.8103344,53.6345387 C56.5052225,51.9861741 57.5144515,49.7581069 57.6357214,47.3969536 L57.6357214,47.1296285 C57.6477452,46.8713271 57.5899349,46.6145591 57.4683715,46.3863344 C55.6353404,45.6451104 53.5983535,45.5803953 51.721969,46.2037709 C51.054471,46.4128456 50.4216591,46.71973 49.8441734,47.1144149 C49.4094985,47.4230341 49.4942601,47.8142415 49.928935,47.7664272 C50.404904,47.6816656 51.0156223,47.6403715 51.7089288,47.5490898 C53.230291,47.4230341 55.016805,47.3817399 55.4514799,47.9424706 C56.0535046,48.6857647 54.7516533,51.9088793 54.1909226,53.3107059 C54.0387864,53.7736347 54.4169536,53.9431579 54.8103344,53.6345387 Z M14.8028545,47.3969536 C24.9548149,56.571614 39.8573388,58.1724796 51.7263158,51.3633622 C52.3467968,51.013358 52.9416257,50.6197106 53.5063096,50.1853932 C54.2908978,49.6246625 53.5910712,48.7422724 52.806483,49.0987059 C52.4565697,49.2247616 52.0631889,49.4073251 51.7197957,49.5333808 C46.8905665,51.4236087 41.7529762,52.4029342 36.5670279,52.4217957 C29.0931136,52.4242653 21.7492,50.4668875 15.2679567,46.7449412 C14.7050526,46.4428421 14.3116718,47.0035728 14.8028545,47.3969536 Z"/>
    <path fill="#FFF" fill-rule="nonzero" d="M38.4404768,26.4391022 C37.4037771,26.5238638 36.1975542,26.606452 34.9913313,26.7607616 C33.1986333,26.922882 31.4403821,27.3529209 29.7752322,28.0365325 C26.6628505,29.2132941 24.6563221,32.2537542 24.7982043,35.5781424 C24.6209746,37.4782375 25.2811516,39.3611527 26.6061169,40.7345567 C27.9310823,42.1079608 29.7890902,42.8352915 31.694322,42.7263715 C32.7997229,42.7336932 33.9016312,42.6015226 34.9739443,42.3329907 C36.6608437,41.7487389 38.1588035,40.7200648 39.3098266,39.3554675 C40.0227195,40.5100085 40.9173458,41.5418744 41.9591703,42.4112322 C42.3188604,42.5977226 42.7530579,42.5649054 43.0806316,42.3264706 C44.0477833,41.5266687 45.7299752,40.083548 46.6123653,39.2707059 C46.9614115,38.9573435 46.9989192,38.42358 46.6971269,38.064483 C45.5660165,36.9407388 44.9300132,35.4121405 44.9301734,33.817709 L44.9301734,26.5847183 C44.9301734,23.5289536 45.1692446,20.7166068 42.926322,18.6366873 C40.9490463,17.0667556 38.4823515,16.2427287 35.958483,16.3090031 L34.9913313,16.3090031 C30.8988669,16.5480743 26.5803715,18.3128545 25.6132198,23.374644 C25.5517077,23.5909213 25.5887442,23.82332 25.7144364,24.0097634 C25.8401285,24.1962067 26.0416721,24.3177018 26.2652322,24.3417957 L30.7510774,24.9025263 C31.1785971,24.8090978 31.4997778,24.4547518 31.5508793,24.0201362 C31.9371517,22.4149315 33.3497616,21.2666853 35.0000248,21.216483 L35.3216842,21.216483 C36.3185158,21.1935963 37.2682076,21.6402734 37.8862663,22.4227059 C38.3953825,23.4707509 38.5901351,24.6437957 38.4469969,25.80013 L38.4469969,26.4304087 L38.4404768,26.4391022 Z M38.4404768,31.0922972 C38.6434046,32.7746353 38.3359748,34.4791295 37.5580867,35.9845635 C37.0576929,37.0285558 36.1171859,37.7945111 34.9935046,38.0731765 C34.839195,38.0731765 34.6001238,38.1579381 34.3414923,38.1579381 C32.5745387,38.1579381 31.537839,36.7974056 31.537839,34.7805139 C31.4484654,32.6792027 32.9190244,30.8324327 34.9869845,30.4489783 C36.1214849,30.2159988 37.2781134,30.1081343 38.43613,30.1273189 L38.43613,31.0944706 L38.4404768,31.0922972 Z"/>
  </g>
</svg>
