<svg width="343" height="235" viewBox="0 0 343 235" fill="none" xmlns="http://www.w3.org/2000/svg">
<path d="M0.0263672 -1H343V234.795H0.0263672V-1Z" fill="url(#paint0_linear_1904_48456)"/>
<mask id="mask0_1904_48456" style="mask-type:alpha" maskUnits="userSpaceOnUse" x="0" y="-1" width="343" height="236">
<path d="M0 -1H342.974V234.795H0V-1Z" fill="#C4C4C4" fill-opacity="0.5"/>
</mask>
<g mask="url(#mask0_1904_48456)">
<path d="M153.938 287.419C148.668 253.295 151.891 219.215 159.608 187.401C103.887 135.916 40.4842 101.901 40.4842 101.901C40.4842 101.901 39.2935 165.884 58.5437 234.954C84.4093 244.765 119.654 261.293 153.895 287.463C153.909 287.449 153.924 287.436 153.938 287.419Z" fill="#3B9E9A" fill-opacity="0.2"/>
<path d="M329.486 287.422C329.499 287.436 329.513 287.449 329.527 287.466C363.768 261.293 399.013 244.765 424.879 234.954C444.13 165.884 442.938 101.901 442.938 101.901C442.938 101.901 379.536 135.916 323.813 187.401C331.531 219.215 334.755 253.295 329.486 287.422Z" fill="#3B9E9A" fill-opacity="0.2"/>
<path d="M275.755 239.913C256.306 224.483 241.604 214.423 241.46 214.325C241.351 214.399 230.385 221.899 214.925 233.838C212.33 235.842 209.718 237.884 207.162 239.913C193.946 222.167 177.862 204.5 159.357 187.401C164.448 166.414 171.931 144.681 181.6 122.804C189.336 105.301 198.479 87.667 208.777 70.3906C226.311 40.9796 241.31 22.5672 241.46 22.3843C241.61 22.5672 256.609 40.9796 274.141 70.3933C284.439 87.667 293.582 105.301 301.319 122.804C310.989 144.681 318.473 166.414 323.561 187.401C305.058 204.5 288.974 222.167 275.755 239.913Z" fill="#3B9E9A" fill-opacity="0.2"/>
<path d="M275.755 239.913C256.306 224.483 241.604 214.423 241.46 214.325C241.351 214.399 230.385 221.899 214.925 233.838C212.33 235.842 209.718 237.884 207.162 239.913C193.946 222.167 177.862 204.5 159.357 187.401C164.448 166.414 171.931 144.681 181.6 122.804C189.336 105.301 198.479 87.667 208.777 70.3906C226.311 40.9796 241.31 22.5672 241.46 22.3843C241.61 22.5672 256.609 40.9796 274.141 70.3933C284.439 87.667 293.582 105.301 301.319 122.804C310.989 144.681 318.473 166.414 323.561 187.401C305.058 204.5 288.974 222.167 275.755 239.913Z" fill="#3B9E9A" fill-opacity="0.2"/>
<path d="M275.755 239.913C256.306 224.483 241.604 214.423 241.46 214.325C241.351 214.399 230.385 221.899 214.925 233.838C212.33 235.842 209.718 237.884 207.162 239.913C193.946 222.167 177.862 204.5 159.357 187.401C164.448 166.414 171.931 144.681 181.6 122.804C189.336 105.301 198.479 87.667 208.777 70.3906C226.311 40.9796 241.31 22.5672 241.46 22.3843C241.61 22.5672 256.609 40.9796 274.141 70.3933C284.439 87.667 293.582 105.301 301.319 122.804C310.989 144.681 318.473 166.414 323.561 187.401C305.058 204.5 288.974 222.167 275.755 239.913Z" fill="#3B9E9A" fill-opacity="0.2"/>
<path d="M275.755 239.913C256.306 224.483 241.604 214.423 241.46 214.325C241.351 214.399 230.385 221.899 214.925 233.838C212.33 235.842 209.718 237.884 207.162 239.913C193.946 222.167 177.862 204.5 159.357 187.401C164.448 166.414 171.931 144.681 181.6 122.804C189.336 105.301 198.479 87.667 208.777 70.3906C226.311 40.9796 241.31 22.5672 241.46 22.3843C241.61 22.5672 256.609 40.9796 274.141 70.3933C284.439 87.667 293.582 105.301 301.319 122.804C310.989 144.681 318.473 166.414 323.561 187.401C305.058 204.5 288.974 222.167 275.755 239.913Z" fill="#3B9E9A" fill-opacity="0.2"/>
<path d="M241.71 300.843C242.277 299.412 242.853 297.973 243.45 296.509C251.691 276.322 262.981 257.402 276.006 239.913C256.33 224.305 241.71 214.324 241.71 214.324C241.71 214.324 227.087 224.305 207.413 239.913C220.439 257.402 231.729 276.322 239.97 296.509C240.567 297.973 241.143 299.412 241.71 300.843Z" fill="#3B9E9A" fill-opacity="0.6"/>
<path d="M153.94 287.419C171.638 269.394 191.233 252.749 207.415 239.912C193.015 220.577 176.493 203 159.61 187.401C151.893 219.215 148.67 253.295 153.94 287.419Z" fill="#3B9E9A" fill-opacity="0.7"/>
<path d="M276.007 239.913C292.189 252.749 311.786 269.395 329.485 287.422C334.754 253.295 331.53 219.215 323.813 187.401C306.929 203.001 290.409 220.577 276.007 239.913Z" fill="#3B9E9A" fill-opacity="0.7"/>
</g>
<defs>
<linearGradient id="paint0_linear_1904_48456" x1="0.0263621" y1="234.795" x2="343" y2="-1.00003" gradientUnits="userSpaceOnUse">
<stop stop-color="#3B9E9A"/>
<stop offset="1" stop-color="#001E2E"/>
</linearGradient>
</defs>
</svg>
