<svg width="343" height="176" viewBox="0 0 343 176" fill="none" xmlns="http://www.w3.org/2000/svg">
<path d="M0 0H343V176H0V0Z" fill="url(#paint0_linear_2530_56968)"/>
<mask id="mask0_2530_56968" style="mask-type:alpha" maskUnits="userSpaceOnUse" x="0" y="0" width="343" height="176">
<path d="M0 0H343V176H0V0Z" fill="#C4C4C4" fill-opacity="0.5"/>
</mask>
<g mask="url(#mask0_2530_56968)">
<path d="M159.077 223.621C147.859 198.351 143.215 171.335 142.518 145.131C88.6714 117.005 32.5457 103.991 32.5457 103.991C32.5457 103.991 45.0222 153.692 74.3624 203.045C96.408 205.212 127.109 210.607 159.053 223.664C159.061 223.651 159.069 223.637 159.077 223.621Z" fill="#3B9E9A" fill-opacity="0.2"/>
<path d="M294.756 186.867C294.77 186.875 294.783 186.883 294.797 186.893C315.782 159.495 339.562 139.341 357.499 126.342C357.916 68.9274 343.598 19.725 343.598 19.725C343.598 19.725 301.717 59.2899 269.43 110.749C282.056 133.722 291.683 159.388 294.756 186.867Z" fill="#3B9E9A" fill-opacity="0.2"/>
<path d="M243.283 161.397C225.019 153.543 211.55 148.847 211.418 148.801C211.349 148.881 204.444 156.974 194.995 169.438C193.409 171.531 191.818 173.656 190.267 175.759C176.337 164.811 160.207 154.524 142.325 145.183C141.864 127.896 143.098 109.532 145.991 90.5986C148.304 75.451 151.679 59.9072 156.021 44.3984C163.415 17.9955 171.152 0.624281 171.23 0.451489C171.384 0.561471 186.832 11.6518 206.541 30.7145C218.117 41.9091 228.876 53.6238 238.52 65.5319C250.575 80.416 260.909 95.6462 269.237 110.802C258.516 127.891 249.783 144.914 243.283 161.397Z" fill="#3B9E9A" fill-opacity="0.2"/>
<path d="M243.283 161.397C225.019 153.543 211.55 148.847 211.418 148.801C211.349 148.881 204.444 156.974 194.995 169.438C193.409 171.531 191.818 173.656 190.267 175.759C176.337 164.811 160.207 154.524 142.325 145.183C141.864 127.896 143.098 109.532 145.991 90.5986C148.304 75.451 151.679 59.9072 156.021 44.3984C163.415 17.9955 171.152 0.624281 171.23 0.451489C171.384 0.561471 186.832 11.6518 206.541 30.7145C218.117 41.9091 228.876 53.6238 238.52 65.5319C250.575 80.416 260.909 95.6462 269.237 110.802C258.516 127.891 249.783 144.914 243.283 161.397Z" fill="#3B9E9A" fill-opacity="0.2"/>
<path d="M243.283 161.397C225.019 153.543 211.55 148.847 211.418 148.801C211.349 148.881 204.444 156.974 194.995 169.438C193.409 171.531 191.818 173.656 190.267 175.759C176.337 164.811 160.207 154.524 142.325 145.183C141.864 127.896 143.098 109.532 145.991 90.5986C148.304 75.451 151.679 59.9072 156.021 44.3984C163.415 17.9955 171.152 0.624281 171.23 0.451489C171.384 0.561471 186.832 11.6518 206.541 30.7145C218.117 41.9091 228.876 53.6238 238.52 65.5319C250.575 80.416 260.909 95.6462 269.237 110.802C258.516 127.891 249.783 144.914 243.283 161.397Z" fill="#3B9E9A" fill-opacity="0.2"/>
<path d="M243.283 161.397C225.019 153.543 211.55 148.847 211.418 148.801C211.349 148.881 204.444 156.974 194.995 169.438C193.409 171.531 191.818 173.656 190.267 175.759C176.337 164.811 160.207 154.524 142.325 145.183C141.864 127.896 143.098 109.532 145.991 90.5986C148.304 75.451 151.679 59.9072 156.021 44.3984C163.415 17.9955 171.152 0.624281 171.23 0.451489C171.384 0.561471 186.832 11.6518 206.541 30.7145C218.117 41.9091 228.876 53.6238 238.52 65.5319C250.575 80.416 260.909 95.6462 269.237 110.802C258.516 127.891 249.783 144.914 243.283 161.397Z" fill="#3B9E9A" fill-opacity="0.2"/>
<path d="M229.726 215.618C229.865 214.393 230.008 213.16 230.163 211.904C232.306 194.576 237.071 177.589 243.476 161.344C225 153.401 211.611 148.748 211.611 148.748C211.611 148.748 202.399 159.524 190.46 175.706C204.19 186.496 216.878 198.756 227.474 212.633C228.242 213.639 228.988 214.631 229.726 215.618Z" fill="#3B9E9A" fill-opacity="0.6"/>
<path d="M159.078 223.621C168.982 205.985 180.642 189.017 190.462 175.707C175.283 163.778 158.833 153.653 142.518 145.131C143.215 171.335 147.86 198.351 159.078 223.621Z" fill="#3B9E9A" fill-opacity="0.7"/>
<path d="M243.476 161.346C258.671 167.879 277.302 176.641 294.756 186.868C291.683 159.389 282.056 133.723 269.43 110.75C259.647 126.342 250.558 143.386 243.476 161.346Z" fill="#3B9E9A" fill-opacity="0.7"/>
</g>
<defs>
<linearGradient id="paint0_linear_2530_56968" x1="-5.1111e-06" y1="176" x2="273.259" y2="-75.7109" gradientUnits="userSpaceOnUse">
<stop stop-color="#3B9E9A"/>
<stop offset="1" stop-color="#001E2E"/>
</linearGradient>
</defs>
</svg>
