<svg width="375" height="812" viewBox="0 0 375 812" fill="none" xmlns="http://www.w3.org/2000/svg">
<g opacity="0.16" clip-path="url(#clip0_2530_62902)">
<path fill-rule="evenodd" clip-rule="evenodd" d="M182.744 428.383C104.085 428.383 40.3198 492.149 40.3198 570.808C40.3198 649.466 104.085 713.232 182.744 713.232C261.403 713.232 325.168 649.466 325.168 570.808C325.168 492.149 261.403 428.383 182.744 428.383ZM18.8545 570.808C18.8545 480.294 92.2303 406.918 182.744 406.918C273.258 406.918 346.634 480.294 346.634 570.808C346.634 661.321 273.258 734.697 182.744 734.697C92.2303 734.697 18.8545 661.321 18.8545 570.808Z" fill="#52F6FF" fill-opacity="0.21"/>
<path fill-rule="evenodd" clip-rule="evenodd" d="M182.744 418.724C98.7504 418.724 30.6602 486.814 30.6602 570.807C30.6602 654.801 98.7504 722.891 182.744 722.891C266.737 722.891 334.828 654.801 334.828 570.807C334.828 486.814 266.737 418.724 182.744 418.724ZM28.5137 570.807C28.5137 485.628 97.5649 416.577 182.744 416.577C267.923 416.577 336.974 485.628 336.974 570.807C336.974 655.986 267.923 725.038 182.744 725.038C97.5649 725.038 28.5137 655.986 28.5137 570.807Z" fill="url(#paint0_linear_2530_62902)" fill-opacity="0.44"/>
<path fill-rule="evenodd" clip-rule="evenodd" d="M393.899 264.601L319.199 307.729L319.195 393.986L393.899 437.114L468.602 393.986V322.645H449.315L436.998 301.317L442.122 292.442L393.899 264.601Z" fill="#3B9E9A"/>
<path d="M162.14 266.155C180.78 266.155 195.891 251.045 195.891 232.404C195.891 213.764 180.78 198.653 162.14 198.653C143.5 198.653 128.389 213.764 128.389 232.404C128.389 251.045 143.5 266.155 162.14 266.155Z" fill="#3B9E9A" fill-opacity="0.4"/>
<path fill-rule="evenodd" clip-rule="evenodd" d="M351.987 191.3L392.523 191.3L412.792 226.406L392.523 261.512L351.987 261.512L331.719 226.406L351.987 191.3Z" fill="#01F2FF" fill-opacity="0.27"/>
<path fill-rule="evenodd" clip-rule="evenodd" d="M436.101 130.845C396.87 130.845 365.066 162.649 365.066 201.881C365.066 241.113 396.87 272.916 436.101 272.916C475.333 272.916 507.137 241.113 507.137 201.881C507.137 162.649 475.333 130.845 436.101 130.845ZM364.529 201.881C364.529 162.353 396.573 130.309 436.101 130.309C475.63 130.309 507.674 162.353 507.674 201.881C507.674 241.409 475.63 273.453 436.101 273.453C396.573 273.453 364.529 241.409 364.529 201.881Z" fill="#10FFD7"/>
<path fill-rule="evenodd" clip-rule="evenodd" d="M197.613 214.174C197.709 214.008 197.886 213.905 198.078 213.905H259.489C259.681 213.905 259.858 214.008 259.954 214.174L290.66 267.358C290.756 267.524 290.756 267.728 290.66 267.894L259.954 321.079C259.858 321.245 259.681 321.347 259.489 321.347H198.078C197.886 321.347 197.709 321.245 197.613 321.079L166.907 267.894C166.811 267.728 166.811 267.524 166.907 267.358L197.613 214.174ZM198.387 214.979L167.991 267.626L198.387 320.274H259.18L289.576 267.626L259.18 214.979H198.387Z" fill="#3B9E9A"/>
<path fill-rule="evenodd" clip-rule="evenodd" d="M233.408 204.288C233.217 204.288 233.04 204.186 232.944 204.02L221.165 183.618C221.069 183.452 221.069 183.248 221.165 183.082L232.944 162.68C233.04 162.514 233.217 162.411 233.409 162.411L256.967 162.411C257.158 162.411 257.335 162.514 257.431 162.68L269.21 183.082C269.306 183.248 269.306 183.452 269.21 183.618L257.431 204.02C257.335 204.186 257.158 204.288 256.966 204.288L233.408 204.288ZM233.718 203.215L256.657 203.215L268.126 183.35L256.657 163.485L233.718 163.485L222.249 183.35L233.718 203.215Z" fill="#20FFD9"/>
<path fill-rule="evenodd" clip-rule="evenodd" d="M165.275 127.277C140.692 127.277 120.764 147.205 120.764 171.788C120.764 196.371 140.692 216.299 165.275 216.299C189.858 216.299 209.786 196.371 209.786 171.788C209.786 147.205 189.858 127.277 165.275 127.277ZM118.832 171.788C118.832 146.138 139.625 125.345 165.275 125.345C190.925 125.345 211.718 146.138 211.718 171.788C211.718 197.437 190.925 218.231 165.275 218.231C139.625 218.231 118.832 197.437 118.832 171.788Z" fill="#00FFD4"/>
<path d="M306.072 272.65C313.954 272.65 320.343 266.261 320.343 258.379C320.343 250.498 313.954 244.108 306.072 244.108C298.19 244.108 291.801 250.498 291.801 258.379C291.801 266.261 298.19 272.65 306.072 272.65Z" fill="#00FFD3" fill-opacity="0.51"/>
<path fill-rule="evenodd" clip-rule="evenodd" d="M218.592 88.8649L257.717 88.8649L277.28 122.749L257.717 156.632L218.592 156.632L199.029 122.749L218.592 88.8649Z" fill="#3B9E9A" fill-opacity="0.54"/>
<path fill-rule="evenodd" clip-rule="evenodd" d="M25.6367 56.7899L80.4427 54.7559L109.802 99.6724L56.0956 101.864L25.6367 56.7899Z" fill="#3BA09C" fill-opacity="0.245161"/>
<path fill-rule="evenodd" clip-rule="evenodd" d="M26.6228 57.2894L56.373 101.314L108.836 99.1739L80.1598 55.3025L26.6228 57.2894ZM25.6171 56.2527L80.4231 54.2188L80.8922 54.4614L110.252 99.3779L109.825 100.208L56.1178 102.399L55.6512 102.163L25.1924 57.0895L25.6171 56.2527Z" fill="#00FBC6" fill-opacity="0.71"/>
<path fill-rule="evenodd" clip-rule="evenodd" d="M56.0956 101.864L109.803 99.6729L85.6122 148.037L31.9053 151.013L56.0956 101.864Z" fill="#3BA09C" fill-opacity="0.245161"/>
<path fill-rule="evenodd" clip-rule="evenodd" d="M56.4353 102.387L32.7912 150.427L85.2706 147.518L108.915 100.246L56.4353 102.387ZM56.0728 101.328L109.78 99.1367L110.281 99.913L86.0912 148.277L85.641 148.573L31.934 151.549L31.4229 150.776L55.6132 101.627L56.0728 101.328Z" fill="#00FBC6" fill-opacity="0.71"/>
<path fill-rule="evenodd" clip-rule="evenodd" d="M2.07422 104.686L25.6361 56.793L56.095 101.867L31.9048 151.016L2.07422 104.686Z" fill="#3BA09C" fill-opacity="0.245161"/>
<path fill-rule="evenodd" clip-rule="evenodd" d="M25.1547 56.5548L26.0808 56.4912L56.5398 101.565L56.5766 102.102L32.3864 151.252L31.4537 151.305L1.62309 104.975L1.59277 104.448L25.1547 56.5548ZM25.7094 57.8585L2.68976 104.649L31.8424 149.926L55.4762 101.908L25.7094 57.8585Z" fill="#00FBC6" fill-opacity="0.71"/>
<g filter="url(#filter0_d_2530_62902)">
<path fill-rule="evenodd" clip-rule="evenodd" d="M289.203 286.662C289.299 286.496 289.476 286.394 289.668 286.394H332.484C332.676 286.394 332.853 286.496 332.949 286.662L354.357 323.742C354.453 323.908 354.453 324.113 354.357 324.279L332.949 361.359C332.853 361.525 332.676 361.628 332.484 361.628H289.668C289.476 361.628 289.299 361.525 289.203 361.359L267.795 324.279C267.699 324.113 267.699 323.908 267.795 323.742L289.203 286.662ZM289.977 287.467L268.879 324.011L289.977 360.554H332.175L353.273 324.011L332.175 287.467H289.977Z" fill="#00F2FF"/>
</g>
<path fill-rule="evenodd" clip-rule="evenodd" d="M120.584 203.039H232.967V204.649H122.194V323.325H84.9023V321.715H120.584V203.039Z" fill="url(#paint1_linear_2530_62902)"/>
<path fill-rule="evenodd" clip-rule="evenodd" d="M479.648 123.332H277.272V122.259H479.648V123.332Z" fill="url(#paint2_linear_2530_62902)"/>
<path fill-rule="evenodd" clip-rule="evenodd" d="M257.721 88.4092L267.367 88.4384L278.931 108.495H455.512V110.105H278.001L266.435 90.0454L257.716 90.0191L257.721 88.4092Z" fill="url(#paint3_linear_2530_62902)"/>
<path fill-rule="evenodd" clip-rule="evenodd" d="M502.693 135.391L503.157 108.936L504.767 108.964L504.275 137.001H278.931L267.367 157.057L257.721 157.086L257.716 155.476L266.435 155.45L278.001 135.391H502.693Z" fill="url(#paint4_linear_2530_62902)"/>
<path fill-rule="evenodd" clip-rule="evenodd" d="M-30.3535 180.274H120.756V181.884H-28.7436V230.74H-30.3535V180.274Z" fill="url(#paint5_linear_2530_62902)"/>
<path fill-rule="evenodd" clip-rule="evenodd" d="M304.776 54.0479H323.327V55.1211H304.776V54.0479Z" fill="url(#paint6_linear_2530_62902)"/>
<path fill-rule="evenodd" clip-rule="evenodd" d="M303.972 2.70703H473.789V4.31693H305.582V54.5845H303.972V2.70703Z" fill="url(#paint7_linear_2530_62902)"/>
<path fill-rule="evenodd" clip-rule="evenodd" d="M329.99 9.35645L393.326 9.3567V191.298H391.717V10.9666L331.6 10.9664L331.6 22.5166L329.99 22.5166L329.99 9.35645Z" fill="url(#paint8_linear_2530_62902)"/>
<path fill-rule="evenodd" clip-rule="evenodd" d="M-97.908 423.391L-47.3584 330.397L-22.1349 369.869L-69.1073 467.831L-97.908 423.391Z" fill="#01F2FF" fill-opacity="0.31"/>
<path fill-rule="evenodd" clip-rule="evenodd" d="M-97.2831 423.366L-69.1764 466.735L-22.7468 369.905L-47.32 331.451L-97.2831 423.366ZM-98.3784 423.134L-47.8288 330.139L-46.9051 330.107L-21.6816 369.579L-21.6499 370.1L-68.6223 468.061L-69.5566 468.121L-98.3573 423.682L-98.3784 423.134Z" fill="#01F2FF" fill-opacity="0.31"/>
<path fill-rule="evenodd" clip-rule="evenodd" d="M323.256 54.8965L330.646 22.5674L361.475 12.4487L354.35 44.1604L323.256 54.8965Z" fill="#01F2FF" fill-opacity="0.19"/>
<path fill-rule="evenodd" clip-rule="evenodd" d="M323.995 54.076L353.892 43.753L360.744 13.2556L331.101 22.9849L323.995 54.076ZM322.733 54.7792L330.123 22.4501L330.479 22.0598L361.308 11.9411L361.999 12.5686L354.873 44.2803L354.525 44.6699L323.432 55.406L322.733 54.7792Z" fill="#3FFCD4" fill-opacity="0.81"/>
<path fill-rule="evenodd" clip-rule="evenodd" d="M354.35 44.1622L361.475 12.4505L385.938 34.1485L379.271 65.9831L354.35 44.1622Z" fill="#01F2FF" fill-opacity="0.19"/>
<path fill-rule="evenodd" clip-rule="evenodd" d="M354.943 43.9617L378.934 64.9677L385.348 34.3363L361.799 13.4485L354.943 43.9617ZM353.826 44.0376L360.952 12.3259L361.831 12.0421L386.294 33.7401L386.463 34.2515L379.796 66.0861L378.917 66.3799L353.996 44.559L353.826 44.0376Z" fill="#3FFCD4" fill-opacity="0.81"/>
<path fill-rule="evenodd" clip-rule="evenodd" d="M347.544 76.1516L323.259 54.8944L354.352 44.1582L379.273 65.9791L347.544 76.1516Z" fill="#01F2FF" fill-opacity="0.19"/>
<path fill-rule="evenodd" clip-rule="evenodd" d="M322.906 55.2966L323.084 54.3855L354.178 43.6494L354.706 43.7529L379.627 65.5737L379.438 66.4885L347.709 76.661L347.192 76.5538L322.906 55.2966ZM324.309 55.0982L347.67 75.5464L378.206 65.7561L354.234 44.7655L324.309 55.0982Z" fill="#3FFCD4" fill-opacity="0.81"/>
<g filter="url(#filter2_d_2530_62902)">
<path fill-rule="evenodd" clip-rule="evenodd" d="M298.661 176.982C285.074 176.982 274.06 187.996 274.06 201.583C274.06 215.17 285.074 226.185 298.661 226.185C312.248 226.185 323.263 215.17 323.263 201.583C323.263 187.996 312.248 176.982 298.661 176.982ZM273.201 201.583C273.201 187.522 284.6 176.123 298.661 176.123C312.723 176.123 324.122 187.522 324.122 201.583C324.122 215.645 312.723 227.043 298.661 227.043C284.6 227.043 273.201 215.645 273.201 201.583Z" fill="#00F2FF"/>
</g>
<path fill-rule="evenodd" clip-rule="evenodd" d="M53.5117 495.646H84.4314V496.72H53.5117V495.646Z" fill="url(#paint9_linear_2530_62902)"/>
<path fill-rule="evenodd" clip-rule="evenodd" d="M52.7061 445.673H394.063V447.283H54.316V496.18H52.7061V445.673Z" fill="url(#paint10_linear_2530_62902)"/>
<path fill-rule="evenodd" clip-rule="evenodd" d="M32.9605 530.377V151.002H31.3506V531.987H84.4314V530.377H32.9605Z" fill="url(#paint11_linear_2530_62902)"/>
<path fill-rule="evenodd" clip-rule="evenodd" d="M-33.9766 367.603L1.32483 311.904L84.9025 322.19L60.1752 382.789L-33.9766 367.603Z" fill="#00FFD3" fill-opacity="0.08"/>
<path fill-rule="evenodd" clip-rule="evenodd" d="M1.09924 311.758L1.35865 311.636L84.9363 321.922L85.152 322.289L60.4247 382.889L60.1335 383.052L-34.0182 367.865L-34.2021 367.457L1.09924 311.758ZM1.46161 312.189L-33.531 367.4L60.0084 382.488L84.5226 322.412L1.46161 312.189Z" fill="#00F2FF" fill-opacity="0.29"/>
<path fill-rule="evenodd" clip-rule="evenodd" d="M-66.3809 292.557L-29.4998 230.672L1.3266 311.904L-33.9748 367.602L-66.3809 292.557Z" fill="#00FFD3" fill-opacity="0.08"/>
<path fill-rule="evenodd" clip-rule="evenodd" d="M-66.0799 292.572L-33.9294 367.024L1.02837 311.868L-29.5534 231.281L-66.0799 292.572ZM-66.6111 292.415L-29.7301 230.529L-29.2487 230.571L1.57771 311.803L1.55349 312.042L-33.7479 367.74L-34.2209 367.703L-66.627 292.658L-66.6111 292.415Z" fill="#00F2FF" fill-opacity="0.29"/>
<path fill-rule="evenodd" clip-rule="evenodd" d="M1.32545 311.904L-29.501 230.672L68.2769 244.916L84.9031 322.19L1.32545 311.904Z" fill="#00FFD3" fill-opacity="0.08"/>
<path fill-rule="evenodd" clip-rule="evenodd" d="M-29.751 230.764L-29.4614 230.403L68.3165 244.648L68.5401 244.857L85.1663 322.13L84.8712 322.453L1.29353 312.167L1.07545 311.996L-29.751 230.764ZM-29.0874 231L1.51974 311.654L84.5623 321.874L68.0547 245.152L-29.0874 231Z" fill="#00F2FF" fill-opacity="0.29"/>
<g filter="url(#filter3_f_2530_62902)">
<path fill-rule="evenodd" clip-rule="evenodd" d="M31.8428 305.673L68.2767 244.909L84.9029 322.183L60.1756 382.782L31.8428 305.673Z" fill="#00FFD3" fill-opacity="0.08"/>
</g>
<g filter="url(#filter4_f_2530_62902)">
<path fill-rule="evenodd" clip-rule="evenodd" d="M32.1388 305.705L60.1885 382.044L84.623 322.162L68.1572 245.634L32.1388 305.705ZM31.6126 305.539L68.0464 244.775L68.5389 244.857L85.1651 322.13L85.1512 322.288L60.4239 382.887L59.9236 382.878L31.5908 305.77L31.6126 305.539Z" fill="#00F2FF" fill-opacity="0.29"/>
</g>
<g filter="url(#filter5_f_2530_62902)">
<path fill-rule="evenodd" clip-rule="evenodd" d="M-33.9757 367.597L-66.3818 292.552L31.8432 305.675L60.176 382.783L-33.9757 367.597Z" fill="#00FFD3" fill-opacity="0.08"/>
</g>
<g filter="url(#filter6_f_2530_62902)">
<path fill-rule="evenodd" clip-rule="evenodd" d="M-66.6279 292.664L-66.3461 292.292L31.879 305.415L32.0953 305.589L60.4281 382.697L60.1335 383.054L-34.0182 367.868L-34.2218 367.709L-66.6279 292.664ZM-65.9474 292.887L-33.7875 367.361L59.7662 382.452L31.6475 305.926L-65.9474 292.887Z" fill="#00F2FF" fill-opacity="0.29"/>
</g>
<path fill-rule="evenodd" clip-rule="evenodd" d="M95.3945 678.438H97.0044V733.808H437.544V735.418H95.3945V678.438Z" fill="url(#paint12_linear_2530_62902)"/>
<path fill-rule="evenodd" clip-rule="evenodd" d="M354.608 323.856V664.988H270.064V663.378H352.998V323.856H354.608Z" fill="url(#paint13_linear_2530_62902)"/>
<path fill-rule="evenodd" clip-rule="evenodd" d="M449.188 612.614H175.33V611.004H449.188V612.614Z" fill="url(#paint14_linear_2530_62902)"/>
<path fill-rule="evenodd" clip-rule="evenodd" d="M174.525 611.983V597.228H176.135V611.983H174.525Z" fill="url(#paint15_linear_2530_62902)"/>
<path fill-rule="evenodd" clip-rule="evenodd" d="M259.488 425.205H309.99V562.823H282.503V561.213H308.38V426.815H259.488V425.205Z" fill="url(#paint16_linear_2530_62902)"/>
<path fill-rule="evenodd" clip-rule="evenodd" d="M260.293 320.813V426.01H258.684V320.813H260.293Z" fill="url(#paint17_linear_2530_62902)"/>
<g opacity="0.4">
<path opacity="0.369403" fill-rule="evenodd" clip-rule="evenodd" d="M412.449 678.066L404.522 713.979L376.75 689.531L384.158 653.482L412.449 678.066Z" fill="#01F2FF" fill-opacity="0.75"/>
<path opacity="0.369403" fill-rule="evenodd" clip-rule="evenodd" d="M411.855 678.255L384.497 654.482L377.336 689.327L404.192 712.968L411.855 678.255ZM412.971 678.174L405.044 714.087L404.166 714.374L376.394 689.927L376.222 689.416L383.63 653.366L384.508 653.069L412.799 677.654L412.971 678.174Z" fill="#00FFD3"/>
</g>
<path fill-rule="evenodd" clip-rule="evenodd" d="M133.546 578.003L133.549 579.613L16.6011 579.791V713.372H404.826V714.982H14.9912V578.184L133.546 578.003Z" fill="url(#paint18_linear_2530_62902)"/>
<g opacity="0.634328">
<path opacity="0.634328" fill-rule="evenodd" clip-rule="evenodd" d="M-40.7025 623.285L-57.9868 579.595L-11.1046 585.622L6.82768 629.085L-40.7025 623.285Z" fill="#3BA09C" fill-opacity="0.245161"/>
<path opacity="0.634328" fill-rule="evenodd" clip-rule="evenodd" d="M-40.322 622.788L5.98037 628.439L-11.483 586.112L-57.1544 580.241L-40.322 622.788ZM-41.2026 623.48L-58.4869 579.791L-57.9195 579.061L-11.0373 585.087L-10.6097 585.415L7.32261 628.878L6.76154 629.615L-40.7686 623.815L-41.2026 623.48Z" fill="#0EF3FF"/>
<path opacity="0.634328" fill-rule="evenodd" clip-rule="evenodd" d="M-22.8081 667.056L-69.1206 661.412L-40.7013 623.288L6.82893 629.088L-22.8081 667.056Z" fill="#3BA09C" fill-opacity="0.245161"/>
<path opacity="0.634328" fill-rule="evenodd" clip-rule="evenodd" d="M-69.1856 661.944L-69.5509 661.091L-41.1316 622.967L-40.6364 622.755L6.89383 628.555L7.25184 629.417L-22.3852 667.385L-22.8731 667.587L-69.1856 661.944ZM-68.1377 660.991L-23.0445 666.485L5.82197 629.505L-40.4573 623.858L-68.1377 660.991Z" fill="#0EF3FF"/>
</g>
<g opacity="0.136029" filter="url(#filter8_f_2530_62902)">
<path d="M249.32 451.366H117.122C91.5688 451.366 70.8535 470.375 70.8535 493.823V647.119C70.8535 670.568 91.5688 689.577 117.122 689.577H249.32C274.873 689.577 295.588 670.568 295.588 647.119V493.823C295.588 470.375 274.873 451.366 249.32 451.366Z" fill="#01F2FF"/>
</g>
<path fill-rule="evenodd" clip-rule="evenodd" d="M-131.011 30.1426H79.7877V54.7562H78.1778V31.7525H-129.401V263.96H-131.011V30.1426Z" fill="url(#paint19_linear_2530_62902)"/>
<path fill-rule="evenodd" clip-rule="evenodd" d="M110.525 5.10547V99.6712H108.915V5.10547H110.525Z" fill="url(#paint20_linear_2530_62902)"/>
<path fill-rule="evenodd" clip-rule="evenodd" d="M218.344 5.9097H109.72V4.2998H219.954V88.8598H218.344V5.9097Z" fill="url(#paint21_linear_2530_62902)"/>
<path fill-rule="evenodd" clip-rule="evenodd" d="M142.985 121.471H199.302V123.081H144.595V148.845H85.6113V147.235H142.985V121.471Z" fill="url(#paint22_linear_2530_62902)"/>
<path fill-rule="evenodd" clip-rule="evenodd" d="M493.714 570.185V442.017H495.324V571.795H270.064V570.185H493.714Z" fill="url(#paint23_linear_2530_62902)"/>
<path fill-rule="evenodd" clip-rule="evenodd" d="M107.571 462.957C94.3535 462.957 83.7129 473.598 83.7129 486.816V496.158H86.6626V531.155H83.7129V592.756H86.6626V627.827H83.7129V637.17C83.7129 650.387 94.3535 661.028 107.571 661.028H257.925C271.143 661.028 281.784 650.387 281.784 637.17V486.816C281.784 473.598 271.143 462.957 257.925 462.957H107.571Z" fill="#002A3D" fill-opacity="0.86"/>
<path fill-rule="evenodd" clip-rule="evenodd" d="M87.7358 495.085V532.228H84.7862V591.682H87.7358V628.901H84.7862V637.17C84.7862 649.795 94.9463 659.955 107.571 659.955H257.925C270.55 659.955 280.711 649.795 280.711 637.17V486.816C280.711 474.191 270.55 464.03 257.925 464.03H107.571C94.9463 464.03 84.7862 474.191 84.7862 486.816V495.085H87.7358ZM83.7129 627.827H86.6626V592.756H83.7129V531.155H86.6626V496.158H83.7129V486.816C83.7129 473.598 94.3535 462.957 107.571 462.957H257.925C271.143 462.957 281.784 473.598 281.784 486.816V637.17C281.784 650.387 271.143 661.028 257.925 661.028H107.571C94.3535 661.028 83.7129 650.387 83.7129 637.17V627.827Z" fill="#01F2FF"/>
<path fill-rule="evenodd" clip-rule="evenodd" d="M116.998 476.717C106.142 476.717 97.472 485.038 97.472 495.822C97.472 496.563 96.8713 497.164 96.1304 497.164H92.5504V529.815H96.1304C96.8713 529.815 97.472 530.415 97.472 531.156V592.757C97.472 593.498 96.8713 594.099 96.1304 594.099H92.5504V626.528H96.1304C96.8713 626.528 97.472 627.129 97.472 627.87C97.472 638.679 106.168 647.271 116.998 647.271H248.5C259.319 647.271 268.026 638.565 268.026 627.745V496.243C268.026 485.423 259.319 476.717 248.5 476.717H116.998ZM116.998 474.034C105.181 474.034 95.5192 482.807 94.8283 494.481H91.2088C90.4678 494.481 89.8672 495.081 89.8672 495.822V531.156C89.8672 531.897 90.4678 532.498 91.2088 532.498H94.7888V591.416H91.2088C90.4678 591.416 89.8672 592.016 89.8672 592.757V627.87C89.8672 628.611 90.4678 629.211 91.2088 629.211H94.8283C95.5181 640.884 105.157 649.954 116.998 649.954H248.5C260.801 649.954 270.709 640.047 270.709 627.745V496.243C270.709 483.942 260.801 474.034 248.5 474.034H116.998Z" fill="#01F2FF"/>
<path fill-rule="evenodd" clip-rule="evenodd" d="M232.381 512.463L224.128 526.758H207.622L199.369 512.463L207.622 498.169H224.128L232.381 512.463Z" fill="#06435E" fill-opacity="0.79"/>
<path fill-rule="evenodd" clip-rule="evenodd" d="M231.142 512.463L223.508 525.685H208.242L200.608 512.463L208.242 499.242H223.508L231.142 512.463ZM224.128 498.169L232.381 512.463L224.128 526.758H207.622L199.369 512.463L207.622 498.169H224.128Z" fill="#01F2FF"/>
<path fill-rule="evenodd" clip-rule="evenodd" d="M199.368 611.498L191.115 625.792H174.609L166.356 611.498L174.609 597.203H191.115L199.368 611.498Z" fill="#06435E" fill-opacity="0.79"/>
<path fill-rule="evenodd" clip-rule="evenodd" d="M198.129 611.498L190.496 624.719H175.229L167.596 611.498L175.229 598.276H190.496L198.129 611.498ZM191.115 597.203L199.368 611.498L191.115 625.792H174.609L166.356 611.498L174.609 597.203H191.115Z" fill="#01F2FF"/>
<path d="M149.852 561.886C158.968 561.886 166.358 554.496 166.358 545.38C166.358 536.264 158.968 528.874 149.852 528.874C140.736 528.874 133.346 536.264 133.346 545.38C133.346 554.496 140.736 561.886 149.852 561.886Z" fill="#06435E" fill-opacity="0.79"/>
<path fill-rule="evenodd" clip-rule="evenodd" d="M149.852 560.813C158.375 560.813 165.284 553.903 165.284 545.38C165.284 536.857 158.375 529.947 149.852 529.947C141.328 529.947 134.419 536.857 134.419 545.38C134.419 553.903 141.328 560.813 149.852 560.813ZM166.358 545.38C166.358 554.496 158.968 561.886 149.852 561.886C140.736 561.886 133.346 554.496 133.346 545.38C133.346 536.264 140.736 528.874 149.852 528.874C158.968 528.874 166.358 536.264 166.358 545.38Z" fill="#01F2FF"/>
<path d="M215.939 561.836C225.055 561.836 232.444 554.446 232.444 545.33C232.444 536.214 225.055 528.824 215.939 528.824C206.823 528.824 199.433 536.214 199.433 545.33C199.433 554.446 206.823 561.836 215.939 561.836Z" fill="#06435E" fill-opacity="0.79"/>
<path fill-rule="evenodd" clip-rule="evenodd" d="M215.939 560.763C224.462 560.763 231.371 553.853 231.371 545.33C231.371 536.807 224.462 529.897 215.939 529.897C207.415 529.897 200.506 536.807 200.506 545.33C200.506 553.853 207.415 560.763 215.939 560.763ZM232.444 545.33C232.444 554.446 225.055 561.836 215.939 561.836C206.823 561.836 199.433 554.446 199.433 545.33C199.433 536.214 206.823 528.824 215.939 528.824C225.055 528.824 232.444 536.214 232.444 545.33Z" fill="#01F2FF"/>
<path d="M182.937 561.836C192.053 561.836 199.443 554.446 199.443 545.33C199.443 536.214 192.053 528.824 182.937 528.824C173.821 528.824 166.431 536.214 166.431 545.33C166.431 554.446 173.821 561.836 182.937 561.836Z" fill="#06435E" fill-opacity="0.79"/>
<path fill-rule="evenodd" clip-rule="evenodd" d="M182.937 560.763C191.46 560.763 198.369 553.853 198.369 545.33C198.369 536.807 191.46 529.897 182.937 529.897C174.413 529.897 167.504 536.807 167.504 545.33C167.504 553.853 174.413 560.763 182.937 560.763ZM199.443 545.33C199.443 554.446 192.053 561.836 182.937 561.836C173.821 561.836 166.431 554.446 166.431 545.33C166.431 536.214 173.821 528.824 182.937 528.824C192.053 528.824 199.443 536.214 199.443 545.33Z" fill="#01F2FF"/>
<path d="M182.927 594.847C192.043 594.847 199.433 587.457 199.433 578.341C199.433 569.225 192.043 561.835 182.927 561.835C173.811 561.835 166.421 569.225 166.421 578.341C166.421 587.457 173.811 594.847 182.927 594.847Z" fill="#06435E" fill-opacity="0.79"/>
<path fill-rule="evenodd" clip-rule="evenodd" d="M182.927 593.774C191.45 593.774 198.36 586.864 198.36 578.341C198.36 569.818 191.45 562.908 182.927 562.908C174.404 562.908 167.494 569.818 167.494 578.341C167.494 586.864 174.404 593.774 182.927 593.774ZM199.433 578.341C199.433 587.457 192.043 594.847 182.927 594.847C173.811 594.847 166.421 587.457 166.421 578.341C166.421 569.225 173.811 561.835 182.927 561.835C192.043 561.835 199.433 569.225 199.433 578.341Z" fill="#01F2FF"/>
<path d="M149.841 594.847C158.957 594.847 166.347 587.457 166.347 578.341C166.347 569.225 158.957 561.835 149.841 561.835C140.725 561.835 133.335 569.225 133.335 578.341C133.335 587.457 140.725 594.847 149.841 594.847Z" fill="#06435E" fill-opacity="0.79"/>
<path fill-rule="evenodd" clip-rule="evenodd" d="M149.841 593.774C158.364 593.774 165.274 586.864 165.274 578.341C165.274 569.818 158.364 562.908 149.841 562.908C141.318 562.908 134.408 569.818 134.408 578.341C134.408 586.864 141.318 593.774 149.841 593.774ZM166.347 578.341C166.347 587.457 158.957 594.847 149.841 594.847C140.725 594.847 133.335 587.457 133.335 578.341C133.335 569.225 140.725 561.835 149.841 561.835C158.957 561.835 166.347 569.225 166.347 578.341Z" fill="#01F2FF"/>
<path d="M215.939 594.847C225.055 594.847 232.444 587.457 232.444 578.341C232.444 569.225 225.055 561.835 215.939 561.835C206.823 561.835 199.433 569.225 199.433 578.341C199.433 587.457 206.823 594.847 215.939 594.847Z" fill="#06435E" fill-opacity="0.79"/>
<path fill-rule="evenodd" clip-rule="evenodd" d="M215.939 593.774C224.462 593.774 231.371 586.864 231.371 578.341C231.371 569.818 224.462 562.908 215.939 562.908C207.415 562.908 200.506 569.818 200.506 578.341C200.506 586.864 207.415 593.774 215.939 593.774ZM232.444 578.341C232.444 587.457 225.055 594.847 215.939 594.847C206.823 594.847 199.433 587.457 199.433 578.341C199.433 569.225 206.823 561.835 215.939 561.835C225.055 561.835 232.444 569.225 232.444 578.341Z" fill="#01F2FF"/>
<path fill-rule="evenodd" clip-rule="evenodd" d="M265.392 545.441L257.139 559.736H240.633L232.38 545.441L240.633 531.146H257.139L265.392 545.441Z" fill="#06435E" fill-opacity="0.79"/>
<path fill-rule="evenodd" clip-rule="evenodd" d="M264.152 545.441L256.519 558.662H241.252L233.619 545.441L241.252 532.22H256.519L264.152 545.441ZM257.139 531.146L265.392 545.441L257.139 559.736H240.633L232.38 545.441L240.633 531.146H257.139Z" fill="#01F2FF"/>
<path fill-rule="evenodd" clip-rule="evenodd" d="M265.392 578.453L257.139 592.747H240.633L232.38 578.453L240.633 564.158H257.139L265.392 578.453Z" fill="#06435E" fill-opacity="0.79"/>
<path fill-rule="evenodd" clip-rule="evenodd" d="M264.152 578.453L256.519 591.674H241.252L233.619 578.453L241.252 565.231H256.519L264.152 578.453ZM257.139 564.158L265.392 578.453L257.139 592.747H240.633L232.38 578.453L240.633 564.158H257.139Z" fill="#01F2FF"/>
<path fill-rule="evenodd" clip-rule="evenodd" d="M133.114 545.441L124.861 559.736H108.356L100.103 545.441L108.356 531.146H124.861L133.114 545.441Z" fill="#06435E" fill-opacity="0.79"/>
<path fill-rule="evenodd" clip-rule="evenodd" d="M131.875 545.441L124.242 558.662H108.975L101.342 545.441L108.975 532.22H124.242L131.875 545.441ZM124.861 531.146L133.114 545.441L124.861 559.736H108.356L100.103 545.441L108.356 531.146H124.861Z" fill="#01F2FF"/>
<path fill-rule="evenodd" clip-rule="evenodd" d="M133.114 578.453L124.861 592.747H108.356L100.103 578.453L108.356 564.158H124.861L133.114 578.453Z" fill="#06435E" fill-opacity="0.79"/>
<path fill-rule="evenodd" clip-rule="evenodd" d="M131.875 578.453L124.242 591.674H108.975L101.342 578.453L108.975 565.231H124.242L131.875 578.453ZM124.861 564.158L133.114 578.453L124.861 592.747H108.356L100.103 578.453L108.356 564.158H124.861Z" fill="#01F2FF"/>
<path d="M182.948 528.824C192.064 528.824 199.454 521.434 199.454 512.318C199.454 503.202 192.064 495.812 182.948 495.812C173.832 495.812 166.442 503.202 166.442 512.318C166.442 521.434 173.832 528.824 182.948 528.824Z" fill="#06435E" fill-opacity="0.79"/>
<path fill-rule="evenodd" clip-rule="evenodd" d="M182.948 527.751C191.472 527.751 198.381 520.842 198.381 512.318C198.381 503.795 191.472 496.886 182.948 496.886C174.425 496.886 167.516 503.795 167.516 512.318C167.516 520.842 174.425 527.751 182.948 527.751ZM199.454 512.318C199.454 521.434 192.064 528.824 182.948 528.824C173.832 528.824 166.442 521.434 166.442 512.318C166.442 503.202 173.832 495.812 182.948 495.812C192.064 495.812 199.454 503.202 199.454 512.318Z" fill="#01F2FF"/>
<path d="M149.915 627.858C159.031 627.858 166.421 620.469 166.421 611.353C166.421 602.237 159.031 594.847 149.915 594.847C140.799 594.847 133.409 602.237 133.409 611.353C133.409 620.469 140.799 627.858 149.915 627.858Z" fill="#06435E" fill-opacity="0.79"/>
<path fill-rule="evenodd" clip-rule="evenodd" d="M149.915 626.785C158.438 626.785 165.348 619.876 165.348 611.353C165.348 602.829 158.438 595.92 149.915 595.92C141.392 595.92 134.482 602.829 134.482 611.353C134.482 619.876 141.392 626.785 149.915 626.785ZM166.421 611.353C166.421 620.469 159.031 627.858 149.915 627.858C140.799 627.858 133.409 620.469 133.409 611.353C133.409 602.237 140.799 594.847 149.915 594.847C159.031 594.847 166.421 602.237 166.421 611.353Z" fill="#01F2FF"/>
<path d="M215.939 627.858C225.055 627.858 232.444 620.469 232.444 611.353C232.444 602.237 225.055 594.847 215.939 594.847C206.823 594.847 199.433 602.237 199.433 611.353C199.433 620.469 206.823 627.858 215.939 627.858Z" fill="#06435E" fill-opacity="0.79"/>
<path fill-rule="evenodd" clip-rule="evenodd" d="M215.939 626.785C224.462 626.785 231.371 619.876 231.371 611.353C231.371 602.829 224.462 595.92 215.939 595.92C207.415 595.92 200.506 602.829 200.506 611.353C200.506 619.876 207.415 626.785 215.939 626.785ZM232.444 611.353C232.444 620.469 225.055 627.858 215.939 627.858C206.823 627.858 199.433 620.469 199.433 611.353C199.433 602.237 206.823 594.847 215.939 594.847C225.055 594.847 232.444 602.237 232.444 611.353Z" fill="#01F2FF"/>
<path fill-rule="evenodd" clip-rule="evenodd" d="M166.358 512.463L158.105 526.758H141.599L133.346 512.463L141.599 498.169H158.105L166.358 512.463Z" fill="#06435E" fill-opacity="0.79"/>
<path fill-rule="evenodd" clip-rule="evenodd" d="M165.118 512.463L157.485 525.685H142.218L134.585 512.463L142.218 499.242H157.485L165.118 512.463ZM158.105 498.169L166.358 512.463L158.105 526.758H141.599L133.346 512.463L141.599 498.169H158.105Z" fill="#01F2FF"/>
<path fill-rule="evenodd" clip-rule="evenodd" d="M66.028 427.463C66.028 434.244 60.5309 439.741 53.7499 439.741C52.7817 439.741 51.8396 439.629 50.9361 439.417V448.049H44.797V435.865C42.7348 433.669 41.4717 430.713 41.4717 427.463C41.4717 420.682 46.9688 415.185 53.7499 415.185C60.5309 415.185 66.028 420.682 66.028 427.463Z" fill="#F39C11"/>
<path fill-rule="evenodd" clip-rule="evenodd" d="M90.4258 427.378C90.426 425.076 91.0737 422.82 92.2949 420.868H113.099C114.323 422.819 114.973 425.075 114.976 427.378C114.976 430.633 113.683 433.756 111.381 436.058C109.817 437.621 107.875 438.719 105.77 439.263V447.959H99.6322V439.263C97.527 438.72 95.585 437.621 94.0213 436.058C91.7192 433.756 90.4259 430.634 90.4258 427.378Z" fill="#F39C11"/>
<path fill-rule="evenodd" clip-rule="evenodd" d="M69.39 382.25H75.5315V391.018C76.4354 390.807 77.3777 390.694 78.3463 390.694C85.1299 390.694 90.6291 396.194 90.6291 402.977C90.6291 409.761 85.1299 415.26 78.3463 415.26C71.5627 415.26 66.0635 409.761 66.0635 402.977C66.0635 399.725 67.3271 396.769 69.39 394.572V382.25Z" fill="#54BC89"/>
<path fill-rule="evenodd" clip-rule="evenodd" d="M216.016 528.766C211.623 528.766 207.411 530.511 204.305 533.617C201.199 536.723 199.454 540.935 199.454 545.328C199.454 549.72 201.199 553.933 204.305 557.039C207.411 560.144 211.623 561.889 216.016 561.889V528.766Z" fill="#00A8F3"/>
<path fill-rule="evenodd" clip-rule="evenodd" d="M191.694 564.35C189.068 562.707 186.033 561.835 182.935 561.835C173.815 561.835 166.421 569.229 166.421 578.35C166.421 587.471 173.815 594.865 182.935 594.865C186.034 594.858 189.069 593.986 191.694 592.339V564.35Z" fill="#F39C11"/>
<path fill-rule="evenodd" clip-rule="evenodd" d="M158.625 531.364C155.998 529.721 152.963 528.849 149.864 528.849C140.741 528.849 133.346 536.245 133.346 545.368C133.346 554.491 140.741 561.886 149.864 561.887C152.964 561.887 155.999 561.007 158.625 559.36V531.364Z" fill="#BE0000"/>
<path d="M95.48 678.417C95.1361 678.417 94.872 678.27 94.6877 677.975C94.5035 677.68 94.485 677.367 94.6324 677.035L99.8099 664.672C99.9942 664.242 100.295 664.027 100.713 664.027C101.155 664.027 101.456 664.242 101.616 664.672L106.811 677.072C106.947 677.416 106.922 677.729 106.738 678.012C106.566 678.282 106.302 678.417 105.945 678.417C105.761 678.417 105.583 678.368 105.411 678.27C105.251 678.159 105.135 678.012 105.061 677.828L100.492 666.478H101.008L96.3644 677.828C96.2784 678.024 96.1495 678.172 95.9775 678.27C95.8178 678.368 95.652 678.417 95.48 678.417ZM96.4565 675.248L97.1935 673.664H104.416L105.153 675.248H96.4565Z" fill="#002A3D"/>
<path d="M128.851 678.417C128.58 678.417 128.353 678.325 128.169 678.141C127.985 677.957 127.893 677.729 127.893 677.459V664.985C127.893 664.703 127.985 664.476 128.169 664.304C128.353 664.119 128.58 664.027 128.851 664.027H133.254C134.09 664.027 134.82 664.193 135.447 664.525C136.086 664.844 136.583 665.292 136.939 665.87C137.308 666.447 137.492 667.11 137.492 667.86C137.492 668.462 137.326 669.008 136.995 669.5C136.675 669.979 136.233 670.359 135.668 670.642C136.479 670.838 137.13 671.225 137.621 671.803C138.112 672.38 138.358 673.135 138.358 674.069C138.358 674.917 138.155 675.666 137.75 676.317C137.357 676.968 136.804 677.484 136.092 677.865C135.379 678.233 134.562 678.417 133.641 678.417H128.851ZM129.809 676.648H133.641C134.206 676.648 134.704 676.55 135.134 676.354C135.564 676.157 135.901 675.868 136.147 675.488C136.393 675.107 136.516 674.634 136.516 674.069C136.516 673.541 136.393 673.105 136.147 672.761C135.901 672.417 135.564 672.159 135.134 671.987C134.704 671.803 134.206 671.711 133.641 671.711H129.809V676.648ZM129.809 669.942H133.254C133.954 669.942 134.526 669.77 134.968 669.426C135.422 669.082 135.65 668.56 135.65 667.86C135.65 667.16 135.422 666.644 134.968 666.312C134.526 665.968 133.954 665.796 133.254 665.796H129.809V669.942Z" fill="#002A3D"/>
<path d="M166.659 678.417C165.664 678.417 164.73 678.232 163.858 677.864C162.998 677.483 162.243 676.961 161.592 676.298C160.953 675.622 160.45 674.836 160.081 673.939C159.725 673.043 159.547 672.072 159.547 671.028C159.547 669.996 159.725 669.038 160.081 668.154C160.45 667.257 160.953 666.477 161.592 665.814C162.243 665.138 162.998 664.61 163.858 664.229C164.718 663.849 165.652 663.658 166.659 663.658C167.605 663.658 168.415 663.781 169.091 664.027C169.779 664.272 170.467 664.678 171.155 665.243C171.253 665.316 171.327 665.396 171.376 665.482C171.437 665.556 171.474 665.636 171.486 665.722C171.511 665.796 171.523 665.888 171.523 665.998C171.523 666.232 171.437 666.428 171.265 666.588C171.106 666.735 170.909 666.821 170.676 666.846C170.442 666.858 170.215 666.778 169.994 666.606C169.539 666.213 169.066 665.912 168.575 665.703C168.096 665.495 167.457 665.39 166.659 665.39C165.934 665.39 165.253 665.538 164.614 665.832C163.975 666.127 163.41 666.533 162.919 667.048C162.44 667.564 162.065 668.166 161.795 668.854C161.525 669.53 161.389 670.254 161.389 671.028C161.389 671.814 161.525 672.551 161.795 673.239C162.065 673.915 162.44 674.511 162.919 675.026C163.41 675.542 163.975 675.948 164.614 676.243C165.253 676.525 165.934 676.666 166.659 676.666C167.285 676.666 167.875 676.562 168.428 676.353C168.993 676.132 169.533 675.831 170.049 675.45C170.27 675.291 170.485 675.223 170.694 675.248C170.915 675.26 171.099 675.346 171.247 675.506C171.394 675.653 171.468 675.862 171.468 676.132C171.468 676.255 171.443 676.378 171.394 676.5C171.345 676.611 171.271 676.715 171.173 676.814C170.51 677.342 169.797 677.741 169.036 678.011C168.286 678.282 167.494 678.417 166.659 678.417H166.659Z" fill="#002A3D"/>
<path d="M194.223 678.417C193.953 678.417 193.725 678.325 193.541 678.141C193.357 677.957 193.265 677.729 193.265 677.459V664.985C193.265 664.703 193.357 664.476 193.541 664.304C193.725 664.119 193.953 664.027 194.223 664.027H197.908C198.829 664.027 199.646 664.23 200.358 664.635C201.071 665.041 201.624 665.606 202.017 666.33C202.422 667.043 202.625 667.866 202.625 668.799C202.625 669.696 202.422 670.495 202.017 671.195C201.624 671.895 201.071 672.441 200.358 672.834C199.646 673.228 198.829 673.424 197.908 673.424H195.181V677.459C195.181 677.729 195.089 677.957 194.904 678.141C194.733 678.325 194.505 678.417 194.223 678.417ZM195.181 671.655H197.908C198.473 671.655 198.97 671.532 199.4 671.287C199.83 671.041 200.168 670.703 200.414 670.273C200.659 669.843 200.782 669.352 200.782 668.799C200.782 668.21 200.659 667.694 200.414 667.252C200.168 666.797 199.83 666.441 199.4 666.183C198.97 665.925 198.473 665.796 197.908 665.796H195.181V671.655Z" fill="#002A3D"/>
<path d="M225.118 678.417C224.774 678.417 224.51 678.27 224.325 677.975C224.141 677.68 224.123 677.367 224.27 677.035L229.448 664.672C229.632 664.242 229.933 664.027 230.35 664.027C230.793 664.027 231.094 664.242 231.253 664.672L236.449 677.072C236.584 677.416 236.56 677.729 236.375 678.012C236.203 678.282 235.939 678.417 235.583 678.417C235.399 678.417 235.221 678.368 235.049 678.27C234.889 678.159 234.772 678.012 234.699 677.828L230.129 666.478H230.645L226.002 677.828C225.916 678.024 225.787 678.172 225.615 678.27C225.455 678.368 225.29 678.417 225.118 678.417ZM226.094 675.248L226.831 673.664H234.054L234.791 675.248H226.094Z" fill="#002A3D"/>
<path d="M262.738 678.417C262.48 678.417 262.259 678.325 262.075 678.141C261.891 677.957 261.799 677.729 261.799 677.459V673.166L256.879 665.52C256.72 665.262 256.658 665.022 256.695 664.801C256.732 664.568 256.836 664.384 257.008 664.248C257.192 664.101 257.401 664.027 257.635 664.027C257.843 664.027 258.009 664.076 258.132 664.175C258.255 664.261 258.372 664.39 258.482 664.562L263.162 671.987H262.425L267.179 664.488C267.277 664.341 267.394 664.23 267.529 664.156C267.664 664.07 267.83 664.027 268.026 664.027C268.247 664.027 268.432 664.107 268.579 664.267C268.727 664.414 268.813 664.605 268.837 664.838C268.862 665.059 268.8 665.286 268.653 665.52L263.696 673.166V677.459C263.696 677.729 263.604 677.957 263.42 678.141C263.236 678.325 263.009 678.417 262.738 678.417Z" fill="#002A3D"/>
</g>
<defs>
<filter id="filter0_d_2530_62902" x="264.723" y="283.394" width="96.707" height="85.2344" filterUnits="userSpaceOnUse" color-interpolation-filters="sRGB">
<feFlood flood-opacity="0" result="BackgroundImageFix"/>
<feColorMatrix in="SourceAlpha" type="matrix" values="0 0 0 0 0 0 0 0 0 0 0 0 0 0 0 0 0 0 127 0" result="hardAlpha"/>
<feOffset dx="2" dy="2"/>
<feGaussianBlur stdDeviation="2.5"/>
<feColorMatrix type="matrix" values="0 0 0 0 0.219608 0 0 0 0 0.945098 0 0 0 0 0.984314 0 0 0 1 0"/>
<feBlend mode="normal" in2="BackgroundImageFix" result="effect1_dropShadow_2530_62902"/>
<feBlend mode="normal" in="SourceGraphic" in2="effect1_dropShadow_2530_62902" result="shape"/>
</filter>
<filter id="filter2_d_2530_62902" x="270.201" y="173.123" width="58.9199" height="58.9199" filterUnits="userSpaceOnUse" color-interpolation-filters="sRGB">
<feFlood flood-opacity="0" result="BackgroundImageFix"/>
<feColorMatrix in="SourceAlpha" type="matrix" values="0 0 0 0 0 0 0 0 0 0 0 0 0 0 0 0 0 0 127 0" result="hardAlpha"/>
<feOffset dx="1" dy="1"/>
<feGaussianBlur stdDeviation="2"/>
<feColorMatrix type="matrix" values="0 0 0 0 0 0 0 0 0 0.94902 0 0 0 0 1 0 0 0 1 0"/>
<feBlend mode="normal" in2="BackgroundImageFix" result="effect1_dropShadow_2530_62902"/>
<feBlend mode="normal" in="SourceGraphic" in2="effect1_dropShadow_2530_62902" result="shape"/>
</filter>
<filter id="filter3_f_2530_62902" x="31.6643" y="244.731" width="53.4174" height="138.229" filterUnits="userSpaceOnUse" color-interpolation-filters="sRGB">
<feFlood flood-opacity="0" result="BackgroundImageFix"/>
<feBlend mode="normal" in="SourceGraphic" in2="BackgroundImageFix" result="shape"/>
<feGaussianBlur stdDeviation="0.0892215" result="effect1_foregroundBlur_2530_62902"/>
</filter>
<filter id="filter4_f_2530_62902" x="31.4124" y="244.597" width="53.9311" height="138.469" filterUnits="userSpaceOnUse" color-interpolation-filters="sRGB">
<feFlood flood-opacity="0" result="BackgroundImageFix"/>
<feBlend mode="normal" in="SourceGraphic" in2="BackgroundImageFix" result="shape"/>
<feGaussianBlur stdDeviation="0.0892215" result="effect1_foregroundBlur_2530_62902"/>
</filter>
<filter id="filter5_f_2530_62902" x="-66.5836" y="292.35" width="126.961" height="90.635" filterUnits="userSpaceOnUse" color-interpolation-filters="sRGB">
<feFlood flood-opacity="0" result="BackgroundImageFix"/>
<feBlend mode="normal" in="SourceGraphic" in2="BackgroundImageFix" result="shape"/>
<feGaussianBlur stdDeviation="0.100894" result="effect1_foregroundBlur_2530_62902"/>
</filter>
<filter id="filter6_f_2530_62902" x="-66.8297" y="292.09" width="127.459" height="91.1663" filterUnits="userSpaceOnUse" color-interpolation-filters="sRGB">
<feFlood flood-opacity="0" result="BackgroundImageFix"/>
<feBlend mode="normal" in="SourceGraphic" in2="BackgroundImageFix" result="shape"/>
<feGaussianBlur stdDeviation="0.100894" result="effect1_foregroundBlur_2530_62902"/>
</filter>
<filter id="filter8_f_2530_62902" x="-9.14648" y="371.366" width="384.735" height="398.211" filterUnits="userSpaceOnUse" color-interpolation-filters="sRGB">
<feFlood flood-opacity="0" result="BackgroundImageFix"/>
<feBlend mode="normal" in="SourceGraphic" in2="BackgroundImageFix" result="shape"/>
<feGaussianBlur stdDeviation="40" result="effect1_foregroundBlur_2530_62902"/>
</filter>
<linearGradient id="paint0_linear_2530_62902" x1="99.6422" y1="437.669" x2="252.479" y2="712.164" gradientUnits="userSpaceOnUse">
<stop stop-color="#01F2FF"/>
<stop offset="0.432292" stop-color="#01F2FF" stop-opacity="0"/>
</linearGradient>
<linearGradient id="paint1_linear_2530_62902" x1="98.9669" y1="364.542" x2="131.029" y2="140.107" gradientUnits="userSpaceOnUse">
<stop stop-color="#00FBC6"/>
<stop offset="1" stop-color="#00FBC6" stop-opacity="0"/>
</linearGradient>
<linearGradient id="paint2_linear_2530_62902" x1="277.272" y1="123.332" x2="473.713" y2="107.871" gradientUnits="userSpaceOnUse">
<stop offset="0.124824" stop-color="#A80033"/>
<stop offset="1" stop-color="#A80033" stop-opacity="0.19"/>
</linearGradient>
<linearGradient id="paint3_linear_2530_62902" x1="214.536" y1="79.5203" x2="461.574" y2="109.3" gradientUnits="userSpaceOnUse">
<stop stop-color="#00FFD3"/>
<stop offset="1" stop-color="#308A8B" stop-opacity="0"/>
</linearGradient>
<linearGradient id="paint4_linear_2530_62902" x1="257.718" y1="148.429" x2="520.083" y2="132.616" gradientUnits="userSpaceOnUse">
<stop stop-color="#00FFD3" stop-opacity="0.8"/>
<stop offset="1" stop-color="#308A8B" stop-opacity="0.09"/>
</linearGradient>
<linearGradient id="paint5_linear_2530_62902" x1="-70.46" y1="255.141" x2="165.275" y2="171.793" gradientUnits="userSpaceOnUse">
<stop stop-color="#00FBC6"/>
<stop offset="1" stop-color="#00FBC6" stop-opacity="0"/>
</linearGradient>
<linearGradient id="paint6_linear_2530_62902" x1="304.776" y1="55.1211" x2="323.327" y2="55.1211" gradientUnits="userSpaceOnUse">
<stop stop-color="#00FBC6"/>
<stop offset="1" stop-color="#00FBC6" stop-opacity="0"/>
</linearGradient>
<linearGradient id="paint7_linear_2530_62902" x1="295.668" y1="-60.3579" x2="300.613" y2="54.5844" gradientUnits="userSpaceOnUse">
<stop stop-color="#00FBC6"/>
<stop offset="1" stop-color="#00FBC6" stop-opacity="0"/>
</linearGradient>
<linearGradient id="paint8_linear_2530_62902" x1="330.795" y1="-16.6965" x2="392.522" y2="191.297" gradientUnits="userSpaceOnUse">
<stop stop-color="#00FFD3"/>
<stop offset="1" stop-color="#002A3D" stop-opacity="0.11"/>
</linearGradient>
<linearGradient id="paint9_linear_2530_62902" x1="59.278" y1="496.183" x2="84.4217" y2="491.302" gradientUnits="userSpaceOnUse">
<stop stop-color="#01F2FF"/>
<stop offset="1" stop-color="#00FBC6" stop-opacity="0.38"/>
</linearGradient>
<linearGradient id="paint10_linear_2530_62902" x1="53.511" y1="478.677" x2="462.875" y2="516.383" gradientUnits="userSpaceOnUse">
<stop stop-color="#00F2FF"/>
<stop offset="1" stop-color="#308A8B" stop-opacity="0"/>
</linearGradient>
<linearGradient id="paint11_linear_2530_62902" x1="58.2934" y1="549.946" x2="16.1601" y2="144.022" gradientUnits="userSpaceOnUse">
<stop stop-color="#A80033"/>
<stop offset="1" stop-color="#A80033" stop-opacity="0.243129"/>
</linearGradient>
<linearGradient id="paint12_linear_2530_62902" x1="109.654" y1="734.613" x2="448.978" y2="734.613" gradientUnits="userSpaceOnUse">
<stop offset="0.0677083" stop-color="#00FFD3"/>
<stop offset="1" stop-color="#002A3D" stop-opacity="0.3"/>
</linearGradient>
<linearGradient id="paint13_linear_2530_62902" x1="353.803" y1="675.145" x2="311.934" y2="288.399" gradientUnits="userSpaceOnUse">
<stop stop-color="#00FFD3"/>
<stop offset="1" stop-color="#002A3D" stop-opacity="0.56"/>
</linearGradient>
<linearGradient id="paint14_linear_2530_62902" x1="175.33" y1="612.346" x2="480.598" y2="593.324" gradientUnits="userSpaceOnUse">
<stop offset="0.201084" stop-color="#A80033"/>
<stop offset="1" stop-color="#A80033" stop-opacity="0.08"/>
</linearGradient>
<linearGradient id="paint15_linear_2530_62902" x1="175.33" y1="597.228" x2="175.33" y2="611.983" gradientUnits="userSpaceOnUse">
<stop stop-color="#A80033"/>
<stop offset="1" stop-color="#A80033" stop-opacity="0"/>
</linearGradient>
<linearGradient id="paint16_linear_2530_62902" x1="306.17" y1="562.018" x2="280.514" y2="387.112" gradientUnits="userSpaceOnUse">
<stop stop-color="#A80033"/>
<stop offset="1" stop-color="#A80033" stop-opacity="0.243129"/>
</linearGradient>
<linearGradient id="paint17_linear_2530_62902" x1="259.489" y1="320.813" x2="259.489" y2="426.01" gradientUnits="userSpaceOnUse">
<stop stop-color="#A80033"/>
<stop offset="1" stop-color="#A80033" stop-opacity="0.11"/>
</linearGradient>
<linearGradient id="paint18_linear_2530_62902" x1="-7.88124" y1="600.801" x2="404.826" y2="719.157" gradientUnits="userSpaceOnUse">
<stop stop-color="#A80033"/>
<stop offset="1" stop-color="#A80033" stop-opacity="0.243129"/>
</linearGradient>
<linearGradient id="paint19_linear_2530_62902" x1="-130.206" y1="263.96" x2="92.3176" y2="30.9476" gradientUnits="userSpaceOnUse">
<stop offset="0.494624" stop-color="#00F2FF"/>
<stop offset="1" stop-color="#002A3D" stop-opacity="0.54"/>
</linearGradient>
<linearGradient id="paint20_linear_2530_62902" x1="109.72" y1="99.6714" x2="109.72" y2="-6.14254" gradientUnits="userSpaceOnUse">
<stop stop-color="#00FBC6"/>
<stop offset="1" stop-color="#00FBC6" stop-opacity="0"/>
</linearGradient>
<linearGradient id="paint21_linear_2530_62902" x1="118.322" y1="5.10476" x2="206.34" y2="105.851" gradientUnits="userSpaceOnUse">
<stop stop-color="#3CE0E6"/>
<stop offset="1" stop-color="#002A3D" stop-opacity="0.38"/>
</linearGradient>
<linearGradient id="paint22_linear_2530_62902" x1="85.6113" y1="148.04" x2="199.302" y2="108.883" gradientUnits="userSpaceOnUse">
<stop offset="0.334539" stop-color="#A80033"/>
<stop offset="1" stop-color="#A80033" stop-opacity="0.28"/>
</linearGradient>
<linearGradient id="paint23_linear_2530_62902" x1="270.064" y1="570.99" x2="494.519" y2="451.951" gradientUnits="userSpaceOnUse">
<stop offset="0.322917" stop-color="#00F2FF"/>
<stop offset="1" stop-color="#2EF1FC" stop-opacity="0.13"/>
</linearGradient>
<clipPath id="clip0_2530_62902">
<rect width="812" height="812" fill="white" transform="translate(-218)"/>
</clipPath>
</defs>
</svg>
