<svg width="375" height="812" viewBox="0 0 375 812" fill="none" xmlns="http://www.w3.org/2000/svg">
<g opacity="0.24" clip-path="url(#clip0_2530_58304)">
<path fill-rule="evenodd" clip-rule="evenodd" d="M183.813 427.457C105.099 427.457 41.2888 491.267 41.2888 569.982C41.2888 648.696 105.099 712.506 183.813 712.506C262.528 712.506 326.338 648.696 326.338 569.982C326.338 491.267 262.528 427.457 183.813 427.457ZM19.8083 569.982C19.8083 479.404 93.2359 405.977 183.813 405.977C274.391 405.977 347.818 479.404 347.818 569.982C347.818 660.559 274.391 733.987 183.813 733.987C93.2359 733.987 19.8083 660.559 19.8083 569.982Z" fill="#3BA09C" fill-opacity="0.07"/>
<path fill-rule="evenodd" clip-rule="evenodd" d="M183.814 417.787C99.7617 417.787 31.6236 485.925 31.6236 569.978C31.6236 654.03 99.7617 722.168 183.814 722.168C267.867 722.168 336.005 654.03 336.005 569.978C336.005 485.925 267.867 417.787 183.814 417.787ZM29.4756 569.978C29.4756 484.739 98.5754 415.639 183.814 415.639C269.053 415.639 338.153 484.739 338.153 569.978C338.153 655.217 269.053 724.316 183.814 724.316C98.5754 724.316 29.4756 655.217 29.4756 569.978Z" fill="url(#paint0_linear_2530_58304)" fill-opacity="0.44"/>
<path fill-rule="evenodd" clip-rule="evenodd" d="M394.395 264.182L319.642 307.341L319.639 393.658L394.395 436.817L469.151 393.658V322.267H449.85L437.525 300.924L442.652 292.043L394.395 264.182Z" fill="#12384A"/>
<path d="M162.472 265.735C181.125 265.735 196.246 250.614 196.246 231.96C196.246 213.307 181.125 198.186 162.472 198.186C143.818 198.186 128.697 213.307 128.697 231.96C128.697 250.614 143.818 265.735 162.472 265.735Z" fill="#12384A"/>
<path fill-rule="evenodd" clip-rule="evenodd" d="M352.451 190.819L393.016 190.819L413.299 225.949L393.016 261.079L352.451 261.079L332.169 225.949L352.451 190.819Z" fill="#12384A"/>
<path fill-rule="evenodd" clip-rule="evenodd" d="M436.625 130.317C397.366 130.317 365.54 162.143 365.54 201.403C365.54 240.662 397.366 272.488 436.625 272.488C475.885 272.488 507.711 240.662 507.711 201.403C507.711 162.143 475.885 130.317 436.625 130.317ZM365.003 201.403C365.003 161.847 397.069 129.78 436.625 129.78C476.182 129.78 508.248 161.847 508.248 201.403C508.248 240.959 476.182 273.025 436.625 273.025C397.069 273.025 365.003 240.959 365.003 201.403Z" fill="#3BA09C"/>
<path fill-rule="evenodd" clip-rule="evenodd" d="M198.203 213.857C198.251 213.774 198.34 213.723 198.436 213.723H259.891C259.987 213.723 260.075 213.774 260.123 213.857L290.851 267.079C290.899 267.162 290.899 267.264 290.851 267.347L260.123 320.569C260.075 320.652 259.987 320.703 259.891 320.703H198.436C198.34 320.703 198.251 320.652 198.203 320.569L167.476 267.347C167.428 267.264 167.428 267.162 167.476 267.079L198.203 213.857ZM198.591 214.26L168.018 267.213L198.591 320.166H259.736L290.308 267.213L259.736 214.26H198.591Z" fill="#3B9E9A"/>
<path fill-rule="evenodd" clip-rule="evenodd" d="M233.79 203.558C233.694 203.558 233.606 203.507 233.558 203.424L221.77 183.007C221.722 182.924 221.722 182.822 221.77 182.739L233.558 162.323C233.606 162.24 233.694 162.189 233.79 162.189L257.365 162.189C257.461 162.189 257.549 162.24 257.597 162.323L269.384 182.739C269.432 182.822 269.432 182.924 269.384 183.008L257.597 203.424C257.549 203.507 257.461 203.558 257.365 203.558L233.79 203.558ZM233.945 203.021L257.21 203.021L268.842 182.873L257.21 162.726L233.945 162.726L222.313 182.873L233.945 203.021Z" fill="#3BA09C"/>
<path d="M306.505 272.224C314.393 272.224 320.787 265.83 320.787 257.943C320.787 250.056 314.393 243.662 306.505 243.662C298.618 243.662 292.224 250.056 292.224 257.943C292.224 265.83 298.618 272.224 306.505 272.224Z" fill="#12384A"/>
<path fill-rule="evenodd" clip-rule="evenodd" d="M218.965 88.3189L258.118 88.3189L277.695 122.226L258.118 156.134L218.965 156.134L199.388 122.227L218.965 88.3189Z" fill="#12384A"/>
<path fill-rule="evenodd" clip-rule="evenodd" d="M25.8743 56.2044L80.7189 54.1689L110.099 99.1171L56.3546 101.31L25.8743 56.2044Z" fill="#3BA09C" fill-opacity="0.245161"/>
<path fill-rule="evenodd" clip-rule="evenodd" d="M26.3671 56.4594L56.4928 101.04L109.615 98.8728L80.5768 54.4475L26.3671 56.4594ZM25.8639 55.9407L80.7085 53.9053L80.9432 54.0267L110.324 98.9748L110.11 99.39L56.3651 101.583L56.1317 101.465L25.6514 56.3594L25.8639 55.9407Z" fill="#00FBC6" fill-opacity="0.365591"/>
<path fill-rule="evenodd" clip-rule="evenodd" d="M56.3537 101.31L110.098 99.1172L85.8911 147.515L32.1462 150.494L56.3537 101.31Z" fill="#3BA09C" fill-opacity="0.245161"/>
<path fill-rule="evenodd" clip-rule="evenodd" d="M56.5245 101.577L32.5904 150.206L85.721 147.261L109.655 99.4096L56.5245 101.577ZM56.3431 101.047L110.088 98.8545L110.339 99.2429L86.1316 147.641L85.9063 147.789L32.1615 150.767L31.9058 150.381L56.1132 101.197L56.3431 101.047Z" fill="#00FBC6" fill-opacity="0.365591"/>
<path fill-rule="evenodd" clip-rule="evenodd" d="M2.29321 104.142L25.8717 56.2148L56.3521 101.32L32.1448 150.504L2.29321 104.142Z" fill="#3BA09C" fill-opacity="0.245161"/>
<path fill-rule="evenodd" clip-rule="evenodd" d="M25.6312 56.0845L26.0946 56.0527L56.5751 101.158L56.5935 101.427L32.3862 150.611L31.9196 150.638L2.06791 104.275L2.05273 104.011L25.6312 56.0845ZM25.9088 56.7368L2.60161 104.112L32.1141 149.948L56.0429 101.33L25.9088 56.7368Z" fill="#00FBC6" fill-opacity="0.365591"/>
<g filter="url(#filter0_f_2530_58304)">
<path fill-rule="evenodd" clip-rule="evenodd" d="M289.857 286.374C289.905 286.291 289.994 286.24 290.09 286.24H332.936C333.032 286.24 333.121 286.291 333.169 286.374L354.592 323.481C354.64 323.564 354.64 323.666 354.592 323.749L333.169 360.856C333.121 360.939 333.032 360.99 332.936 360.99H290.09C289.994 360.99 289.905 360.939 289.857 360.856L268.434 323.749C268.386 323.666 268.386 323.564 268.434 323.481L289.857 286.374ZM290.245 286.777L268.976 323.615L290.245 360.453H332.781L354.05 323.615L332.781 286.777H290.245Z" fill="#3BA09C"/>
</g>
<g filter="url(#filter1_d_2530_58304)">
<path fill-rule="evenodd" clip-rule="evenodd" d="M289.857 286.374C289.905 286.291 289.994 286.24 290.09 286.24H332.936C333.032 286.24 333.121 286.291 333.169 286.374L354.592 323.481C354.64 323.564 354.64 323.666 354.592 323.749L333.169 360.856C333.121 360.939 333.032 360.99 332.936 360.99H290.09C289.994 360.99 289.905 360.939 289.857 360.856L268.434 323.749C268.386 323.666 268.386 323.564 268.434 323.481L289.857 286.374ZM290.245 286.777L268.976 323.615L290.245 360.453H332.781L354.05 323.615L332.781 286.777H290.245Z" fill="#00FBC6"/>
</g>
<path fill-rule="evenodd" clip-rule="evenodd" d="M121.156 202.845H233.35V203.919H122.23V322.678H85.1809V321.604H121.156V202.845Z" fill="url(#paint1_linear_2530_58304)"/>
<path fill-rule="evenodd" clip-rule="evenodd" d="M480.206 122.906H277.688V121.617H480.206V122.906Z" fill="url(#paint2_linear_2530_58304)"/>
<path fill-rule="evenodd" clip-rule="evenodd" d="M258.121 88.1328L267.619 88.1615L279.192 108.233H456.052V109.307H278.571L266.998 89.2337L258.117 89.2068L258.121 88.1328Z" fill="url(#paint3_linear_2530_58304)"/>
<path fill-rule="evenodd" clip-rule="evenodd" d="M503.528 135.147L503.997 108.409L505.071 108.428L504.583 136.221H279.189L267.617 156.292L258.118 156.321L258.115 155.247L266.995 155.22L278.569 135.147H503.528Z" fill="url(#paint4_linear_2530_58304)"/>
<path fill-rule="evenodd" clip-rule="evenodd" d="M-29.8882 180.057H121.06V181.131H-28.8142V230.289H-29.8882V180.057Z" fill="url(#paint5_linear_2530_58304)"/>
<path fill-rule="evenodd" clip-rule="evenodd" d="M305.209 53.4746H323.773V54.5486H305.209V53.4746Z" fill="url(#paint6_linear_2530_58304)"/>
<path fill-rule="evenodd" clip-rule="evenodd" d="M304.672 2.36719H474.341V3.44121H305.746V54.0127H304.672V2.36719Z" fill="url(#paint7_linear_2530_58304)"/>
<path fill-rule="evenodd" clip-rule="evenodd" d="M330.712 9.01172H393.555V190.812H392.481V10.0857H331.786L331.785 21.9124L330.711 21.9123L330.712 9.01172Z" fill="url(#paint8_linear_2530_58304)"/>
<path fill-rule="evenodd" clip-rule="evenodd" d="M-97.759 423.086L-47.1738 330.026L-21.9325 369.526L-68.938 467.557L-97.759 423.086Z" fill="#3BA09C" fill-opacity="0.432258"/>
<path fill-rule="evenodd" clip-rule="evenodd" d="M-97.446 423.066L-68.9723 467.001L-22.2384 369.536L-47.1543 330.546L-97.446 423.066ZM-97.9941 422.949L-47.4089 329.89L-46.9467 329.873L-21.7055 369.373L-21.6896 369.634L-68.6951 467.665L-69.1625 467.695L-97.9835 423.224L-97.9941 422.949Z" fill="#00FBC6"/>
<path fill-rule="evenodd" clip-rule="evenodd" d="M323.698 54.3469L331.093 21.995L361.944 11.8692L354.814 43.6032L323.698 54.3469Z" fill="#3BA09C" fill-opacity="0.245161"/>
<path fill-rule="evenodd" clip-rule="evenodd" d="M324.068 53.9324L354.585 43.3954L361.579 12.2689L331.321 22.1999L324.068 53.9324ZM323.437 54.2842L330.831 21.9323L331.009 21.737L361.86 11.6112L362.206 11.9252L355.076 43.6592L354.901 43.8541L323.786 54.5978L323.437 54.2842Z" fill="#00FBC6" fill-opacity="0.365591"/>
<path fill-rule="evenodd" clip-rule="evenodd" d="M354.814 43.5958L361.944 11.8618L386.423 33.5751L379.752 65.4321L354.814 43.5958Z" fill="#3BA09C" fill-opacity="0.245161"/>
<path fill-rule="evenodd" clip-rule="evenodd" d="M355.11 43.5174L379.583 64.9459L386.129 33.6909L362.106 12.383L355.11 43.5174ZM354.551 43.5554L361.682 11.8213L362.122 11.6793L386.602 33.3926L386.686 33.6485L380.015 65.5056L379.575 65.6525L354.637 43.8162L354.551 43.5554Z" fill="#00FBC6" fill-opacity="0.365591"/>
<path fill-rule="evenodd" clip-rule="evenodd" d="M348.003 75.6276L323.701 54.3554L354.816 43.6117L379.754 65.4479L348.003 75.6276Z" fill="#3BA09C" fill-opacity="0.245161"/>
<path fill-rule="evenodd" clip-rule="evenodd" d="M323.524 54.5462L323.613 54.0904L354.728 43.3467L354.992 43.3985L379.931 65.2347L379.836 65.6924L348.085 75.8721L347.826 75.8184L323.524 54.5462ZM324.226 54.447L348.066 75.3144L379.22 65.326L354.756 43.9051L324.226 54.447Z" fill="#00FBC6" fill-opacity="0.365591"/>
<g filter="url(#filter3_d_2530_58304)">
<path fill-rule="evenodd" clip-rule="evenodd" d="M299.091 176.326C285.405 176.326 274.311 187.42 274.311 201.106C274.311 214.792 285.405 225.886 299.091 225.886C312.777 225.886 323.871 214.792 323.871 201.106C323.871 187.42 312.777 176.326 299.091 176.326ZM273.774 201.106C273.774 187.124 285.109 175.789 299.091 175.789C313.073 175.789 324.408 187.124 324.408 201.106C324.408 215.088 313.073 226.423 299.091 226.423C285.109 226.423 273.774 215.088 273.774 201.106Z" fill="#3BA09C"/>
</g>
<path fill-rule="evenodd" clip-rule="evenodd" d="M53.7656 495.389H84.7071V496.463H53.7656V495.389Z" fill="url(#paint9_linear_2530_58304)"/>
<path fill-rule="evenodd" clip-rule="evenodd" d="M53.2288 445.639H394.558V446.713H54.3028V495.913H53.2288V445.639Z" fill="url(#paint10_linear_2530_58304)"/>
<path fill-rule="evenodd" clip-rule="evenodd" d="M33.0383 530.306V150.502H31.7495V531.595H84.7065V530.306H33.0383Z" fill="url(#paint11_linear_2530_58304)"/>
<path fill-rule="evenodd" clip-rule="evenodd" d="M-33.7834 367.24L1.5428 311.502L85.1794 321.795L60.4346 382.437L-33.7834 367.24Z" fill="#3BA09C" fill-opacity="0.0622317"/>
<path fill-rule="evenodd" clip-rule="evenodd" d="M1.31748 311.361L1.57707 311.238L85.2137 321.532L85.4295 321.899L60.6847 382.541L60.3933 382.705L-33.8248 367.508L-34.0088 367.099L1.31748 311.361ZM1.68011 311.792L-33.3372 367.042L60.2681 382.141L84.7996 322.022L1.68011 311.792Z" fill="#00FBC6" fill-opacity="0.232258"/>
<path fill-rule="evenodd" clip-rule="evenodd" d="M-66.2114 292.142L-29.3044 230.213L1.54375 311.502L-33.7825 367.24L-66.2114 292.142Z" fill="#3BA09C" fill-opacity="0.0622317"/>
<path fill-rule="evenodd" clip-rule="evenodd" d="M-65.9096 292.156L-33.7365 366.662L1.24594 311.466L-29.3574 230.823L-65.9096 292.156ZM-66.4412 291.999L-29.5342 230.07L-29.0525 230.113L1.79567 311.401L1.77142 311.64L-33.5548 367.378L-34.0281 367.341L-66.457 292.243L-66.4412 291.999Z" fill="#00FBC6" fill-opacity="0.232258"/>
<path fill-rule="evenodd" clip-rule="evenodd" d="M1.54638 311.502L-29.3018 230.213L68.545 244.467L85.1829 321.795L1.54638 311.502Z" fill="#3BA09C" fill-opacity="0.0622317"/>
<path fill-rule="evenodd" clip-rule="evenodd" d="M-29.5549 230.31L-29.2652 229.949L68.5816 244.204L68.8054 244.413L85.4433 321.741L85.148 322.064L1.51146 311.77L1.29322 311.599L-29.5549 230.31ZM-28.8909 230.546L1.73782 311.257L84.8389 321.485L68.3196 244.708L-28.8909 230.546Z" fill="#00FBC6" fill-opacity="0.232258"/>
<g filter="url(#filter4_f_2530_58304)">
<path fill-rule="evenodd" clip-rule="evenodd" d="M32.0828 305.28L68.5423 244.473L85.1803 321.801L60.4355 382.442L32.0828 305.28Z" fill="#3BA09C" fill-opacity="0.0622317"/>
</g>
<g filter="url(#filter5_f_2530_58304)">
<path fill-rule="evenodd" clip-rule="evenodd" d="M32.3779 305.304L60.4475 381.696L84.8992 321.772L68.4217 245.19L32.3779 305.304ZM31.8513 305.138L68.3109 244.331L68.8037 244.413L85.4416 321.741L85.4277 321.898L60.683 382.54L60.1823 382.531L31.8296 305.369L31.8513 305.138Z" fill="#00FBC6" fill-opacity="0.232258"/>
</g>
<g filter="url(#filter6_f_2530_58304)">
<path fill-rule="evenodd" clip-rule="evenodd" d="M-33.7825 367.235L-66.2114 292.137L32.0829 305.269L60.4356 382.432L-33.7825 367.235Z" fill="#3BA09C" fill-opacity="0.0622317"/>
</g>
<g filter="url(#filter7_f_2530_58304)">
<path fill-rule="evenodd" clip-rule="evenodd" d="M-66.457 292.246L-66.175 291.873L32.1193 305.005L32.3358 305.179L60.6885 382.342L60.3937 382.699L-33.8244 367.502L-34.0281 367.343L-66.457 292.246ZM-65.776 292.468L-33.5935 366.995L60.0261 382.096L31.8876 305.516L-65.776 292.468Z" fill="#00FBC6" fill-opacity="0.232258"/>
</g>
<path fill-rule="evenodd" clip-rule="evenodd" d="M95.9497 678.304H97.0237V733.982H438.071V735.056H95.9497V678.304Z" fill="url(#paint12_linear_2530_58304)"/>
<path fill-rule="evenodd" clip-rule="evenodd" d="M354.809 323.472V664.575H270.474V663.501H353.735V323.472H354.809Z" fill="url(#paint13_linear_2530_58304)"/>
<path fill-rule="evenodd" clip-rule="evenodd" d="M449.693 612.282H175.672V610.993H449.693V612.282Z" fill="url(#paint14_linear_2530_58304)"/>
<path fill-rule="evenodd" clip-rule="evenodd" d="M175.028 611.802V597.036H176.317V611.802H175.028Z" fill="url(#paint15_linear_2530_58304)"/>
<path fill-rule="evenodd" clip-rule="evenodd" d="M259.89 425.058H310.266V562.45H282.921V561.161H308.977V426.346H259.89V425.058Z" fill="url(#paint16_linear_2530_58304)"/>
<path fill-rule="evenodd" clip-rule="evenodd" d="M260.533 320.434V425.705H259.244V320.434H260.533Z" fill="url(#paint17_linear_2530_58304)"/>
<g opacity="0.369403">
<path opacity="0.369403" fill-rule="evenodd" clip-rule="evenodd" d="M412.874 677.949L404.941 713.887L377.15 689.423L384.563 653.347L412.874 677.949Z" fill="#01F2FF" fill-opacity="0.55"/>
<path opacity="0.369403" fill-rule="evenodd" clip-rule="evenodd" d="M412.4 678.086L384.836 654.134L377.621 689.245L404.679 713.063L412.4 678.086ZM413.294 678.022L405.361 713.959L404.658 714.189L376.866 689.725L376.729 689.316L384.143 653.241L384.845 653.003L413.156 677.605L413.294 678.022Z" fill="#01F2FF" fill-opacity="0.58"/>
</g>
<path fill-rule="evenodd" clip-rule="evenodd" d="M133.86 577.953L133.862 579.242L16.6712 579.421V713.418H405.331V714.707H15.3823V578.134L133.86 577.953Z" fill="url(#paint18_linear_2530_58304)"/>
<g filter="url(#filter9_f_2530_58304)">
<path d="M249.96 451.067H117.67C92.0983 451.067 71.3684 470.089 71.3684 493.554V646.959C71.3684 670.424 92.0983 689.446 117.67 689.446H249.96C275.532 689.446 296.262 670.424 296.262 646.959V493.554C296.262 470.089 275.532 451.067 249.96 451.067Z" fill="#3B9E9A" fill-opacity="0.15"/>
</g>
<g opacity="0.634328">
<path opacity="0.634328" fill-rule="evenodd" clip-rule="evenodd" d="M-40.5135 623.124L-57.81 579.404L-10.8947 585.434L7.05021 628.928L-40.5135 623.124Z" fill="#3BA09C" fill-opacity="0.245161"/>
<path opacity="0.634328" fill-rule="evenodd" clip-rule="evenodd" d="M-40.1308 622.626L6.20423 628.28L-11.2715 585.923L-56.975 580.049L-40.1308 622.626ZM-41.012 623.318L-58.3085 579.597L-57.7407 578.867L-10.8255 584.898L-10.3975 585.225L7.54741 628.719L6.98595 629.457L-40.5777 623.653L-41.012 623.318Z" fill="#00FBC6" fill-opacity="0.365591"/>
<path opacity="0.634328" fill-rule="evenodd" clip-rule="evenodd" d="M-22.606 666.93L-68.9511 661.282L-40.5117 623.131L7.05199 628.935L-22.606 666.93Z" fill="#3BA09C" fill-opacity="0.245161"/>
<path opacity="0.634328" fill-rule="evenodd" clip-rule="evenodd" d="M-69.015 661.808L-69.3806 660.954L-40.9413 622.804L-40.4457 622.591L7.11801 628.395L7.47628 629.259L-22.1817 667.253L-22.6699 667.456L-69.015 661.808ZM-67.9664 660.854L-22.8414 666.353L6.04539 629.346L-40.2665 623.695L-67.9664 660.854Z" fill="#00FBC6" fill-opacity="0.365591"/>
</g>
<path fill-rule="evenodd" clip-rule="evenodd" d="M-129.157 29.8145H81.2526V54.1769H80.1785V30.8885H-128.083V263.528H-129.157V29.8145Z" fill="url(#paint19_linear_2530_58304)"/>
<path fill-rule="evenodd" clip-rule="evenodd" d="M110.636 4.49414V99.1265H109.562V4.49414H110.636Z" fill="url(#paint20_linear_2530_58304)"/>
<path fill-rule="evenodd" clip-rule="evenodd" d="M219.068 5.0418H110.099V3.96777H220.142V88.3189H219.068V5.0418Z" fill="url(#paint21_linear_2530_58304)"/>
<path fill-rule="evenodd" clip-rule="evenodd" d="M143.465 121.11H199.661V122.399H144.754V148.182H85.8899V146.893H143.465V121.11Z" fill="url(#paint22_linear_2530_58304)"/>
<path fill-rule="evenodd" clip-rule="evenodd" d="M165.61 126.611C140.921 126.611 120.906 146.625 120.906 171.315C120.906 196.004 140.921 216.018 165.61 216.018C190.299 216.018 210.313 196.004 210.313 171.315C210.313 146.625 190.299 126.611 165.61 126.611ZM119.295 171.315C119.295 145.736 140.031 125 165.61 125C191.189 125 211.924 145.736 211.924 171.315C211.924 196.893 191.189 217.629 165.61 217.629C140.031 217.629 119.295 196.893 119.295 171.315Z" fill="#3BA09C"/>
<path fill-rule="evenodd" clip-rule="evenodd" d="M494.465 570.129V441.709H495.754V571.417H270.497V570.129H494.465Z" fill="url(#paint23_linear_2530_58304)"/>
<path fill-rule="evenodd" clip-rule="evenodd" d="M88.371 494.475V531.644H85.4192V591.14H88.371V628.385H85.4192V636.66C85.4192 649.294 95.5865 659.461 108.22 659.461H258.68C271.314 659.461 281.482 649.293 281.482 636.66V486.2C281.482 473.566 271.314 463.398 258.68 463.398H108.22C95.5865 463.398 85.4192 473.566 85.4192 486.2V494.475H88.371ZM84.3452 627.311H87.297V592.214H84.3452V530.57H87.297V495.549H84.3452V486.2C84.3452 472.973 94.9933 462.324 108.22 462.324H258.68C271.907 462.324 282.556 472.973 282.556 486.2V636.66C282.556 649.887 271.907 660.535 258.68 660.535H108.22C94.9933 660.535 84.3452 649.887 84.3452 636.66V627.311Z" fill="#3B9E9A"/>
<path fill-rule="evenodd" clip-rule="evenodd" d="M117.653 476.089C106.79 476.089 98.1133 484.416 98.1133 495.208C98.1133 495.949 97.5122 496.55 96.7708 496.55H93.1882V529.224H96.7708C97.5122 529.224 98.1133 529.825 98.1133 530.567V592.211C98.1133 592.952 97.5122 593.554 96.7708 593.554H93.1882V626.006H96.7708C97.5122 626.006 98.1133 626.607 98.1133 627.348C98.1133 638.165 106.815 646.763 117.653 646.763H249.248C260.075 646.763 268.787 638.051 268.787 627.224V495.629C268.787 484.802 260.075 476.089 249.248 476.089H117.653ZM117.653 473.404C105.828 473.404 96.1591 482.183 95.4678 493.865H91.8457C91.1042 493.865 90.5032 494.466 90.5032 495.208V530.567C90.5032 531.308 91.1042 531.909 91.8457 531.909H95.4282V590.868H91.8457C91.1042 590.868 90.5032 591.47 90.5032 592.211V627.348C90.5032 628.09 91.1042 628.691 91.8457 628.691H95.4678C96.1581 640.372 105.803 649.448 117.653 649.448H249.248C261.558 649.448 271.472 639.534 271.472 627.224V495.629C271.472 483.319 261.558 473.404 249.248 473.404H117.653Z" fill="#3B9E9A"/>
<path fill-rule="evenodd" clip-rule="evenodd" d="M233.118 511.859L224.859 526.164H208.341L200.083 511.859L208.341 497.555H224.859L233.118 511.859Z" fill="#06435E" fill-opacity="0.5"/>
<path fill-rule="evenodd" clip-rule="evenodd" d="M231.877 511.859L224.239 525.09H208.961L201.323 511.859L208.961 498.629H224.239L231.877 511.859ZM224.859 497.555L233.118 511.859L224.859 526.164H208.341L200.083 511.859L208.341 497.555H224.859Z" fill="#3B9E9A"/>
<path fill-rule="evenodd" clip-rule="evenodd" d="M200.082 610.974L191.823 625.279H175.306L167.047 610.974L175.306 596.67H191.823L200.082 610.974Z" fill="#06435E" fill-opacity="0.5"/>
<path fill-rule="evenodd" clip-rule="evenodd" d="M198.842 610.974L191.203 624.205H175.926L168.287 610.974L175.926 597.744H191.203L198.842 610.974ZM191.823 596.67L200.082 610.974L191.823 625.279H175.306L167.047 610.974L175.306 596.67H191.823Z" fill="#3B9E9A"/>
<path d="M150.529 561.319C159.651 561.319 167.046 553.924 167.046 544.802C167.046 535.679 159.651 528.284 150.529 528.284C141.406 528.284 134.011 535.679 134.011 544.802C134.011 553.924 141.406 561.319 150.529 561.319Z" fill="#06435E" fill-opacity="0.5"/>
<path fill-rule="evenodd" clip-rule="evenodd" d="M150.529 560.245C159.058 560.245 165.972 553.331 165.972 544.802C165.972 536.272 159.058 529.358 150.529 529.358C142 529.358 135.085 536.272 135.085 544.802C135.085 553.331 142 560.245 150.529 560.245ZM167.046 544.802C167.046 553.924 159.651 561.319 150.529 561.319C141.406 561.319 134.011 553.924 134.011 544.802C134.011 535.679 141.406 528.284 150.529 528.284C159.651 528.284 167.046 535.679 167.046 544.802Z" fill="#3B9E9A"/>
<path d="M216.663 561.278C225.786 561.278 233.181 553.883 233.181 544.761C233.181 535.638 225.786 528.243 216.663 528.243C207.541 528.243 200.146 535.638 200.146 544.761C200.146 553.883 207.541 561.278 216.663 561.278Z" fill="#06435E" fill-opacity="0.5"/>
<path fill-rule="evenodd" clip-rule="evenodd" d="M216.663 560.204C225.193 560.204 232.107 553.29 232.107 544.761C232.107 536.232 225.193 529.317 216.663 529.317C208.134 529.317 201.22 536.232 201.22 544.761C201.22 553.29 208.134 560.204 216.663 560.204ZM233.181 544.761C233.181 553.883 225.786 561.278 216.663 561.278C207.541 561.278 200.146 553.883 200.146 544.761C200.146 535.638 207.541 528.243 216.663 528.243C225.786 528.243 233.181 535.638 233.181 544.761Z" fill="#3B9E9A"/>
<path d="M183.638 561.278C192.76 561.278 200.156 553.883 200.156 544.761C200.156 535.638 192.76 528.243 183.638 528.243C174.516 528.243 167.12 535.638 167.12 544.761C167.12 553.883 174.516 561.278 183.638 561.278Z" fill="#06435E" fill-opacity="0.5"/>
<path fill-rule="evenodd" clip-rule="evenodd" d="M183.638 560.204C192.167 560.204 199.081 553.29 199.081 544.761C199.081 536.232 192.167 529.317 183.638 529.317C175.109 529.317 168.194 536.232 168.194 544.761C168.194 553.29 175.109 560.204 183.638 560.204ZM200.156 544.761C200.156 553.883 192.76 561.278 183.638 561.278C174.516 561.278 167.12 553.883 167.12 544.761C167.12 535.638 174.516 528.243 183.638 528.243C192.76 528.243 200.156 535.638 200.156 544.761Z" fill="#3B9E9A"/>
<path d="M183.628 594.316C192.75 594.316 200.145 586.921 200.145 577.799C200.145 568.676 192.75 561.281 183.628 561.281C174.505 561.281 167.11 568.676 167.11 577.799C167.11 586.921 174.505 594.316 183.628 594.316Z" fill="#06435E" fill-opacity="0.5"/>
<path fill-rule="evenodd" clip-rule="evenodd" d="M183.628 593.242C192.157 593.242 199.071 586.328 199.071 577.799C199.071 569.27 192.157 562.355 183.628 562.355C175.099 562.355 168.184 569.27 168.184 577.799C168.184 586.328 175.099 593.242 183.628 593.242ZM200.145 577.799C200.145 586.921 192.75 594.316 183.628 594.316C174.505 594.316 167.11 586.921 167.11 577.799C167.11 568.676 174.505 561.281 183.628 561.281C192.75 561.281 200.145 568.676 200.145 577.799Z" fill="#3B9E9A"/>
<path d="M150.519 594.316C159.641 594.316 167.036 586.921 167.036 577.799C167.036 568.676 159.641 561.281 150.519 561.281C141.396 561.281 134.001 568.676 134.001 577.799C134.001 586.921 141.396 594.316 150.519 594.316Z" fill="#06435E" fill-opacity="0.5"/>
<path fill-rule="evenodd" clip-rule="evenodd" d="M150.519 593.242C159.048 593.242 165.962 586.328 165.962 577.799C165.962 569.27 159.048 562.355 150.519 562.355C141.989 562.355 135.075 569.27 135.075 577.799C135.075 586.328 141.989 593.242 150.519 593.242ZM167.036 577.799C167.036 586.921 159.641 594.316 150.519 594.316C141.396 594.316 134.001 586.921 134.001 577.799C134.001 568.676 141.396 561.281 150.519 561.281C159.641 561.281 167.036 568.676 167.036 577.799Z" fill="#3B9E9A"/>
<path d="M216.663 594.316C225.786 594.316 233.181 586.921 233.181 577.799C233.181 568.676 225.786 561.281 216.663 561.281C207.541 561.281 200.146 568.676 200.146 577.799C200.146 586.921 207.541 594.316 216.663 594.316Z" fill="#06435E" fill-opacity="0.5"/>
<path fill-rule="evenodd" clip-rule="evenodd" d="M216.663 593.242C225.193 593.242 232.107 586.328 232.107 577.799C232.107 569.27 225.193 562.355 216.663 562.355C208.134 562.355 201.22 569.27 201.22 577.799C201.22 586.328 208.134 593.242 216.663 593.242ZM233.181 577.799C233.181 586.921 225.786 594.316 216.663 594.316C207.541 594.316 200.146 586.921 200.146 577.799C200.146 568.676 207.541 561.281 216.663 561.281C225.786 561.281 233.181 568.676 233.181 577.799Z" fill="#3B9E9A"/>
<path fill-rule="evenodd" clip-rule="evenodd" d="M266.151 544.878L257.892 559.182H241.375L233.116 544.878L241.375 530.573H257.892L266.151 544.878Z" fill="#06435E" fill-opacity="0.5"/>
<path fill-rule="evenodd" clip-rule="evenodd" d="M264.911 544.878L257.272 558.108H241.995L234.356 544.878L241.995 531.647H257.272L264.911 544.878ZM257.892 530.573L266.151 544.878L257.892 559.182H241.375L233.116 544.878L241.375 530.573H257.892Z" fill="#3B9E9A"/>
<path fill-rule="evenodd" clip-rule="evenodd" d="M266.151 577.895L257.892 592.2H241.375L233.116 577.895L241.375 563.591H257.892L266.151 577.895Z" fill="#06435E" fill-opacity="0.5"/>
<path fill-rule="evenodd" clip-rule="evenodd" d="M264.911 577.895L257.272 591.126H241.995L234.356 577.895L241.995 564.665H257.272L264.911 577.895ZM257.892 563.591L266.151 577.895L257.892 592.2H241.375L233.116 577.895L241.375 563.591H257.892Z" fill="#3B9E9A"/>
<path fill-rule="evenodd" clip-rule="evenodd" d="M133.78 544.878L125.521 559.182H109.004L100.745 544.878L109.004 530.573H125.521L133.78 544.878Z" fill="#06435E" fill-opacity="0.5"/>
<path fill-rule="evenodd" clip-rule="evenodd" d="M132.54 544.878L124.901 558.108H109.624L101.985 544.878L109.624 531.647H124.901L132.54 544.878ZM125.521 530.573L133.78 544.878L125.521 559.182H109.004L100.745 544.878L109.004 530.573H125.521Z" fill="#3B9E9A"/>
<path fill-rule="evenodd" clip-rule="evenodd" d="M133.78 577.895L125.521 592.2H109.004L100.745 577.895L109.004 563.591H125.521L133.78 577.895Z" fill="#06435E" fill-opacity="0.5"/>
<path fill-rule="evenodd" clip-rule="evenodd" d="M132.54 577.895L124.901 591.126H109.624L101.985 577.895L109.624 564.665H124.901L132.54 577.895ZM125.521 563.591L133.78 577.895L125.521 592.2H109.004L100.745 577.895L109.004 563.591H125.521Z" fill="#3B9E9A"/>
<path d="M183.651 528.24C192.773 528.24 200.168 520.845 200.168 511.723C200.168 502.6 192.773 495.205 183.651 495.205C174.528 495.205 167.133 502.6 167.133 511.723C167.133 520.845 174.528 528.24 183.651 528.24Z" fill="#06435E" fill-opacity="0.5"/>
<path fill-rule="evenodd" clip-rule="evenodd" d="M183.651 527.166C192.18 527.166 199.094 520.252 199.094 511.723C199.094 503.193 192.18 496.279 183.651 496.279C175.121 496.279 168.207 503.193 168.207 511.723C168.207 520.252 175.121 527.166 183.651 527.166ZM200.168 511.723C200.168 520.845 192.773 528.24 183.651 528.24C174.528 528.24 167.133 520.845 167.133 511.723C167.133 502.6 174.528 495.205 183.651 495.205C192.773 495.205 200.168 502.6 200.168 511.723Z" fill="#3B9E9A"/>
<path d="M150.592 627.335C159.714 627.335 167.11 619.94 167.11 610.817C167.11 601.695 159.714 594.3 150.592 594.3C141.47 594.3 134.074 601.695 134.074 610.817C134.074 619.94 141.47 627.335 150.592 627.335Z" fill="#06435E" fill-opacity="0.5"/>
<path fill-rule="evenodd" clip-rule="evenodd" d="M150.592 626.261C159.121 626.261 166.036 619.347 166.036 610.817C166.036 602.288 159.121 595.374 150.592 595.374C142.063 595.374 135.148 602.288 135.148 610.817C135.148 619.347 142.063 626.261 150.592 626.261ZM167.11 610.817C167.11 619.94 159.714 627.335 150.592 627.335C141.47 627.335 134.074 619.94 134.074 610.817C134.074 601.695 141.47 594.3 150.592 594.3C159.714 594.3 167.11 601.695 167.11 610.817Z" fill="#3B9E9A"/>
<path d="M216.663 627.335C225.786 627.335 233.181 619.94 233.181 610.817C233.181 601.695 225.786 594.3 216.663 594.3C207.541 594.3 200.146 601.695 200.146 610.817C200.146 619.94 207.541 627.335 216.663 627.335Z" fill="#06435E" fill-opacity="0.5"/>
<path fill-rule="evenodd" clip-rule="evenodd" d="M216.663 626.261C225.193 626.261 232.107 619.347 232.107 610.817C232.107 602.288 225.193 595.374 216.663 595.374C208.134 595.374 201.22 602.288 201.22 610.817C201.22 619.347 208.134 626.261 216.663 626.261ZM233.181 610.817C233.181 619.94 225.786 627.335 216.663 627.335C207.541 627.335 200.146 619.94 200.146 610.817C200.146 601.695 207.541 594.3 216.663 594.3C225.786 594.3 233.181 601.695 233.181 610.817Z" fill="#3B9E9A"/>
<path fill-rule="evenodd" clip-rule="evenodd" d="M167.046 511.859L158.788 526.164H142.27L134.011 511.859L142.27 497.555H158.788L167.046 511.859Z" fill="#06435E" fill-opacity="0.5"/>
<path fill-rule="evenodd" clip-rule="evenodd" d="M165.806 511.859L158.167 525.09H142.89L135.251 511.859L142.89 498.629H158.167L165.806 511.859ZM158.788 497.555L167.046 511.859L158.788 526.164H142.27L134.011 511.859L142.27 497.555H158.788Z" fill="#3B9E9A"/>
<path fill-rule="evenodd" clip-rule="evenodd" d="M167.075 577.953C167.075 587.137 159.63 594.581 150.447 594.581C149.136 594.581 147.86 594.43 146.636 594.143V605.833H138.322V589.333C135.529 586.358 133.819 582.355 133.819 577.953C133.819 568.77 141.263 561.325 150.447 561.325C159.63 561.325 167.075 568.77 167.075 577.953Z" fill="#F39C11"/>
<path fill-rule="evenodd" clip-rule="evenodd" d="M200.112 577.842C200.113 574.724 200.99 571.669 202.644 569.025H230.818C232.476 571.667 233.357 574.723 233.36 577.842C233.36 582.25 231.609 586.479 228.491 589.596C226.374 591.714 223.744 593.201 220.892 593.937V605.715H212.58V593.938C209.729 593.201 207.099 591.714 204.982 589.597C201.864 586.479 200.112 582.251 200.112 577.842Z" fill="#F39C11"/>
<path fill-rule="evenodd" clip-rule="evenodd" d="M171.625 516.718H179.943V528.593C181.167 528.306 182.443 528.154 183.755 528.154C192.942 528.154 200.389 535.601 200.389 544.788C200.389 553.975 192.942 561.423 183.755 561.423C174.568 561.423 167.12 553.975 167.12 544.788C167.12 540.385 168.832 536.381 171.625 533.405V516.718Z" fill="#54BC89"/>
<path fill-rule="evenodd" clip-rule="evenodd" d="M216.739 528.183C212.344 528.183 208.128 529.929 205.02 533.037C201.912 536.145 200.166 540.361 200.166 544.757C200.166 549.152 201.912 553.367 205.02 556.475C208.128 559.583 212.344 561.33 216.739 561.33V528.183Z" fill="#00A8F3"/>
<path fill-rule="evenodd" clip-rule="evenodd" d="M192.401 563.798C189.773 562.154 186.736 561.282 183.636 561.281C174.509 561.282 167.11 568.681 167.11 577.808C167.11 586.935 174.509 594.334 183.636 594.335C186.737 594.328 189.774 593.455 192.401 591.807V563.798Z" fill="#F39C11"/>
<path fill-rule="evenodd" clip-rule="evenodd" d="M159.308 530.781C156.68 529.136 153.642 528.264 150.541 528.264C141.412 528.264 134.011 535.665 134.011 544.795C134.011 553.924 141.412 561.325 150.541 561.325C153.643 561.325 156.681 560.445 159.308 558.796V530.781Z" fill="#BE0000"/>
<path d="M96.1213 677.931C95.7771 677.931 95.5128 677.784 95.3285 677.489C95.1441 677.194 95.1256 676.88 95.2731 676.548L100.454 664.177C100.639 663.746 100.94 663.531 101.358 663.531C101.8 663.531 102.101 663.746 102.261 664.177L107.461 676.585C107.596 676.93 107.571 677.243 107.387 677.526C107.215 677.796 106.951 677.931 106.594 677.931C106.41 677.931 106.231 677.882 106.059 677.784C105.9 677.673 105.783 677.526 105.709 677.341L101.136 665.984H101.653L97.0063 677.341C96.9203 677.538 96.7912 677.686 96.6191 677.784C96.4593 677.882 96.2934 677.931 96.1213 677.931ZM97.0985 674.76L97.836 673.174H105.064L105.801 674.76H97.0985Z" fill="#3B9E9A"/>
<path d="M129.516 677.931C129.246 677.931 129.018 677.839 128.834 677.655C128.65 677.47 128.557 677.243 128.557 676.973V664.49C128.557 664.207 128.65 663.98 128.834 663.808C129.018 663.623 129.246 663.531 129.516 663.531H133.923C134.759 663.531 135.49 663.697 136.117 664.029C136.756 664.349 137.254 664.797 137.61 665.375C137.979 665.953 138.164 666.617 138.164 667.366C138.164 667.969 137.998 668.516 137.666 669.007C137.346 669.487 136.904 669.868 136.338 670.15C137.15 670.347 137.801 670.734 138.293 671.312C138.784 671.89 139.03 672.646 139.03 673.58C139.03 674.428 138.827 675.178 138.422 675.829C138.028 676.481 137.475 676.997 136.762 677.378C136.049 677.747 135.232 677.931 134.31 677.931H129.516ZM130.475 676.161H134.31C134.875 676.161 135.373 676.063 135.804 675.866C136.234 675.67 136.572 675.381 136.818 675C137.063 674.619 137.186 674.145 137.186 673.58C137.186 673.051 137.063 672.615 136.818 672.271C136.572 671.927 136.234 671.669 135.804 671.496C135.373 671.312 134.875 671.22 134.31 671.22H130.475V676.161ZM130.475 669.45H133.923C134.623 669.45 135.195 669.278 135.638 668.934C136.092 668.589 136.32 668.067 136.32 667.366C136.32 666.666 136.092 666.149 135.638 665.818C135.195 665.473 134.623 665.301 133.923 665.301H130.475V669.45Z" fill="#3B9E9A"/>
<path d="M167.351 677.936C166.355 677.936 165.421 677.751 164.548 677.383C163.687 677.002 162.932 676.479 162.28 675.815C161.641 675.139 161.137 674.353 160.768 673.455C160.412 672.558 160.233 671.587 160.233 670.542C160.233 669.51 160.412 668.551 160.768 667.666C161.137 666.769 161.641 665.988 162.28 665.324C162.932 664.648 163.687 664.12 164.548 663.739C165.408 663.358 166.343 663.167 167.351 663.167C168.297 663.167 169.108 663.29 169.784 663.536C170.473 663.782 171.161 664.187 171.849 664.753C171.948 664.826 172.022 664.906 172.071 664.992C172.132 665.066 172.169 665.146 172.181 665.232C172.206 665.306 172.218 665.398 172.218 665.509C172.218 665.742 172.132 665.939 171.96 666.099C171.8 666.246 171.604 666.332 171.37 666.357C171.136 666.369 170.909 666.289 170.688 666.117C170.233 665.724 169.76 665.423 169.268 665.214C168.789 665.005 168.15 664.9 167.351 664.9C166.625 664.9 165.943 665.048 165.304 665.343C164.665 665.638 164.099 666.043 163.608 666.56C163.128 667.076 162.753 667.678 162.483 668.367C162.212 669.043 162.077 669.768 162.077 670.542C162.077 671.329 162.212 672.066 162.483 672.755C162.753 673.431 163.128 674.027 163.608 674.543C164.099 675.059 164.665 675.465 165.304 675.76C165.943 676.043 166.625 676.184 167.351 676.184C167.977 676.184 168.567 676.08 169.121 675.871C169.686 675.649 170.227 675.348 170.743 674.967C170.964 674.807 171.18 674.74 171.388 674.764C171.61 674.777 171.794 674.863 171.942 675.023C172.089 675.17 172.163 675.379 172.163 675.649C172.163 675.772 172.138 675.895 172.089 676.018C172.04 676.129 171.966 676.233 171.868 676.332C171.204 676.86 170.491 677.26 169.729 677.53C168.979 677.801 168.186 677.936 167.351 677.936H167.351Z" fill="#3B9E9A"/>
<path d="M194.932 677.931C194.661 677.931 194.434 677.839 194.249 677.655C194.065 677.47 193.973 677.243 193.973 676.973V664.49C193.973 664.207 194.065 663.98 194.249 663.808C194.434 663.623 194.661 663.531 194.932 663.531H198.619C199.541 663.531 200.359 663.734 201.072 664.14C201.785 664.545 202.338 665.111 202.731 665.836C203.137 666.549 203.339 667.372 203.339 668.307C203.339 669.204 203.137 670.003 202.731 670.704C202.338 671.404 201.785 671.951 201.072 672.345C200.359 672.738 199.541 672.935 198.619 672.935H195.89V676.973C195.89 677.243 195.798 677.47 195.614 677.655C195.442 677.839 195.214 677.931 194.932 677.931ZM195.89 671.165H198.619C199.185 671.165 199.683 671.042 200.113 670.796C200.543 670.55 200.881 670.212 201.127 669.782C201.373 669.352 201.496 668.86 201.496 668.307C201.496 667.717 201.373 667.2 201.127 666.758C200.881 666.303 200.543 665.947 200.113 665.688C199.683 665.43 199.185 665.301 198.619 665.301H195.89V671.165Z" fill="#3B9E9A"/>
<path d="M225.851 677.931C225.507 677.931 225.243 677.784 225.058 677.489C224.874 677.194 224.855 676.88 225.003 676.548L230.184 664.177C230.368 663.746 230.67 663.531 231.087 663.531C231.53 663.531 231.831 663.746 231.991 664.177L237.19 676.585C237.326 676.93 237.301 677.243 237.117 677.526C236.945 677.796 236.68 677.931 236.324 677.931C236.139 677.931 235.961 677.882 235.789 677.784C235.629 677.673 235.513 677.526 235.439 677.341L230.866 665.984H231.382L226.736 677.341C226.65 677.538 226.521 677.686 226.349 677.784C226.189 677.882 226.023 677.931 225.851 677.931ZM226.828 674.76L227.566 673.174H234.793L235.531 674.76H226.828Z" fill="#3B9E9A"/>
<path d="M263.497 677.931C263.239 677.931 263.018 677.839 262.833 677.655C262.649 677.47 262.557 677.243 262.557 676.973V672.677L257.634 665.025C257.474 664.767 257.412 664.527 257.449 664.306C257.486 664.072 257.591 663.888 257.763 663.752C257.947 663.605 258.156 663.531 258.39 663.531C258.599 663.531 258.764 663.58 258.887 663.679C259.01 663.765 259.127 663.894 259.238 664.066L263.921 671.496H263.183L267.94 663.992C268.039 663.845 268.156 663.734 268.291 663.66C268.426 663.574 268.592 663.531 268.789 663.531C269.01 663.531 269.194 663.611 269.342 663.771C269.489 663.918 269.575 664.109 269.6 664.343C269.625 664.564 269.563 664.791 269.416 665.025L264.456 672.677V676.973C264.456 677.243 264.364 677.47 264.179 677.655C263.995 677.839 263.767 677.931 263.497 677.931Z" fill="#3B9E9A"/>
</g>
<defs>
<filter id="filter0_f_2530_58304" x="267.518" y="285.361" width="87.9898" height="76.5091" filterUnits="userSpaceOnUse" color-interpolation-filters="sRGB">
<feFlood flood-opacity="0" result="BackgroundImageFix"/>
<feBlend mode="normal" in="SourceGraphic" in2="BackgroundImageFix" result="shape"/>
<feGaussianBlur stdDeviation="0.439765" result="effect1_foregroundBlur_2530_58304"/>
</filter>
<filter id="filter1_d_2530_58304" x="265.398" y="283.24" width="96.2307" height="84.75" filterUnits="userSpaceOnUse" color-interpolation-filters="sRGB">
<feFlood flood-opacity="0" result="BackgroundImageFix"/>
<feColorMatrix in="SourceAlpha" type="matrix" values="0 0 0 0 0 0 0 0 0 0 0 0 0 0 0 0 0 0 127 0" result="hardAlpha"/>
<feOffset dx="2" dy="2"/>
<feGaussianBlur stdDeviation="2.5"/>
<feColorMatrix type="matrix" values="0 0 0 0 0.0235294 0 0 0 0 0.776471 0 0 0 0 0.647059 0 0 0 1 0"/>
<feBlend mode="normal" in2="BackgroundImageFix" result="effect1_dropShadow_2530_58304"/>
<feBlend mode="normal" in="SourceGraphic" in2="effect1_dropShadow_2530_58304" result="shape"/>
</filter>
<filter id="filter3_d_2530_58304" x="270.774" y="172.789" width="60.634" height="60.6338" filterUnits="userSpaceOnUse" color-interpolation-filters="sRGB">
<feFlood flood-opacity="0" result="BackgroundImageFix"/>
<feColorMatrix in="SourceAlpha" type="matrix" values="0 0 0 0 0 0 0 0 0 0 0 0 0 0 0 0 0 0 127 0" result="hardAlpha"/>
<feOffset dx="2" dy="2"/>
<feGaussianBlur stdDeviation="2.5"/>
<feColorMatrix type="matrix" values="0 0 0 0 0.231373 0 0 0 0 0.627451 0 0 0 0 0.611765 0 0 0 1 0"/>
<feBlend mode="normal" in2="BackgroundImageFix" result="effect1_dropShadow_2530_58304"/>
<feBlend mode="normal" in="SourceGraphic" in2="effect1_dropShadow_2530_58304" result="shape"/>
</filter>
<filter id="filter4_f_2530_58304" x="31.9043" y="244.294" width="53.4543" height="138.327" filterUnits="userSpaceOnUse" color-interpolation-filters="sRGB">
<feFlood flood-opacity="0" result="BackgroundImageFix"/>
<feBlend mode="normal" in="SourceGraphic" in2="BackgroundImageFix" result="shape"/>
<feGaussianBlur stdDeviation="0.0892215" result="effect1_foregroundBlur_2530_58304"/>
</filter>
<filter id="filter5_f_2530_58304" x="31.6511" y="244.153" width="53.9689" height="138.566" filterUnits="userSpaceOnUse" color-interpolation-filters="sRGB">
<feFlood flood-opacity="0" result="BackgroundImageFix"/>
<feBlend mode="normal" in="SourceGraphic" in2="BackgroundImageFix" result="shape"/>
<feGaussianBlur stdDeviation="0.0892215" result="effect1_foregroundBlur_2530_58304"/>
</filter>
<filter id="filter6_f_2530_58304" x="-66.4132" y="291.935" width="127.051" height="90.6985" filterUnits="userSpaceOnUse" color-interpolation-filters="sRGB">
<feFlood flood-opacity="0" result="BackgroundImageFix"/>
<feBlend mode="normal" in="SourceGraphic" in2="BackgroundImageFix" result="shape"/>
<feGaussianBlur stdDeviation="0.100894" result="effect1_foregroundBlur_2530_58304"/>
</filter>
<filter id="filter7_f_2530_58304" x="-66.6588" y="291.671" width="127.549" height="91.2297" filterUnits="userSpaceOnUse" color-interpolation-filters="sRGB">
<feFlood flood-opacity="0" result="BackgroundImageFix"/>
<feBlend mode="normal" in="SourceGraphic" in2="BackgroundImageFix" result="shape"/>
<feGaussianBlur stdDeviation="0.100894" result="effect1_foregroundBlur_2530_58304"/>
</filter>
<filter id="filter9_f_2530_58304" x="-28.6316" y="351.067" width="424.893" height="438.378" filterUnits="userSpaceOnUse" color-interpolation-filters="sRGB">
<feFlood flood-opacity="0" result="BackgroundImageFix"/>
<feBlend mode="normal" in="SourceGraphic" in2="BackgroundImageFix" result="shape"/>
<feGaussianBlur stdDeviation="50" result="effect1_foregroundBlur_2530_58304"/>
</filter>
<linearGradient id="paint0_linear_2530_58304" x1="79.3454" y1="396.675" x2="253.599" y2="711.434" gradientUnits="userSpaceOnUse">
<stop stop-color="#00FBC6"/>
<stop offset="0.446815" stop-color="#3BA09C" stop-opacity="0"/>
</linearGradient>
<linearGradient id="paint1_linear_2530_58304" x1="54.3487" y1="448.027" x2="93.104" y2="180.6" gradientUnits="userSpaceOnUse">
<stop stop-color="#00FBC6"/>
<stop offset="1" stop-color="#00FBC6" stop-opacity="0"/>
</linearGradient>
<linearGradient id="paint2_linear_2530_58304" x1="277.688" y1="122.799" x2="499.675" y2="183.688" gradientUnits="userSpaceOnUse">
<stop stop-color="#F4C52F" stop-opacity="0.79"/>
<stop offset="0.930308" stop-color="#F5C32E" stop-opacity="0.03"/>
</linearGradient>
<linearGradient id="paint3_linear_2530_58304" x1="47.9425" y1="88.6386" x2="456.052" y2="90.2631" gradientUnits="userSpaceOnUse">
<stop stop-color="#308A8B"/>
<stop offset="1" stop-color="#308A8B" stop-opacity="0"/>
</linearGradient>
<linearGradient id="paint4_linear_2530_58304" x1="47.9403" y1="155.815" x2="526.444" y2="155.273" gradientUnits="userSpaceOnUse">
<stop stop-color="#308A8B"/>
<stop offset="1" stop-color="#308A8B" stop-opacity="0"/>
</linearGradient>
<linearGradient id="paint5_linear_2530_58304" x1="-4.78908" y1="336.533" x2="116.307" y2="165.679" gradientUnits="userSpaceOnUse">
<stop stop-color="#00FBC6"/>
<stop offset="1" stop-color="#00FBC6" stop-opacity="0"/>
</linearGradient>
<linearGradient id="paint6_linear_2530_58304" x1="294.59" y1="50.892" x2="322.428" y2="63.2462" gradientUnits="userSpaceOnUse">
<stop stop-color="#00FBC6"/>
<stop offset="1" stop-color="#00FBC6" stop-opacity="0"/>
</linearGradient>
<linearGradient id="paint7_linear_2530_58304" x1="297.202" y1="-86.0708" x2="299.899" y2="59.4296" gradientUnits="userSpaceOnUse">
<stop stop-color="#00FBC6"/>
<stop offset="1" stop-color="#00FBC6" stop-opacity="0"/>
</linearGradient>
<linearGradient id="paint8_linear_2530_58304" x1="303.412" y1="-20.1177" x2="403.16" y2="208.377" gradientUnits="userSpaceOnUse">
<stop stop-color="#308A8B"/>
<stop offset="1" stop-color="#308A8B" stop-opacity="0"/>
</linearGradient>
<linearGradient id="paint9_linear_2530_58304" x1="53.7656" y1="496.463" x2="84.7071" y2="496.463" gradientUnits="userSpaceOnUse">
<stop stop-color="#00FBC6"/>
<stop offset="1" stop-color="#00FBC6" stop-opacity="0"/>
</linearGradient>
<linearGradient id="paint10_linear_2530_58304" x1="22.1342" y1="483.118" x2="407.169" y2="455.461" gradientUnits="userSpaceOnUse">
<stop stop-color="#00FBC6" stop-opacity="0.67"/>
<stop offset="1" stop-color="#00FBC6" stop-opacity="0"/>
</linearGradient>
<linearGradient id="paint11_linear_2530_58304" x1="79.6318" y1="617.558" x2="32.3939" y2="166.529" gradientUnits="userSpaceOnUse">
<stop stop-color="#F4C52F" stop-opacity="0.68"/>
<stop offset="0.940558" stop-color="#F5C32E" stop-opacity="0.281184"/>
</linearGradient>
<linearGradient id="paint12_linear_2530_58304" x1="49.0493" y1="712.915" x2="502.981" y2="709.987" gradientUnits="userSpaceOnUse">
<stop stop-color="#308A8B"/>
<stop offset="1" stop-color="#308A8B" stop-opacity="0"/>
</linearGradient>
<linearGradient id="paint13_linear_2530_58304" x1="317.792" y1="709.21" x2="328.536" y2="171.67" gradientUnits="userSpaceOnUse">
<stop stop-color="#308A8B"/>
<stop offset="1" stop-color="#308A8B" stop-opacity="0"/>
</linearGradient>
<linearGradient id="paint14_linear_2530_58304" x1="145.017" y1="654.81" x2="366.678" y2="562.487" gradientUnits="userSpaceOnUse">
<stop offset="0.0793975" stop-color="#F4C52F"/>
<stop offset="1" stop-color="#F5C32E" stop-opacity="0.281184"/>
</linearGradient>
<linearGradient id="paint15_linear_2530_58304" x1="175.673" y1="604.419" x2="176.747" y2="604.419" gradientUnits="userSpaceOnUse">
<stop stop-color="#308A8B"/>
<stop offset="1" stop-color="#308A8B" stop-opacity="0"/>
</linearGradient>
<linearGradient id="paint16_linear_2530_58304" x1="457.842" y1="521.025" x2="284.756" y2="413.208" gradientUnits="userSpaceOnUse">
<stop stop-color="#F4C52F"/>
<stop offset="1" stop-color="#F1C22F" stop-opacity="0.11"/>
</linearGradient>
<linearGradient id="paint17_linear_2530_58304" x1="224.007" y1="256.423" x2="260.69" y2="431.872" gradientUnits="userSpaceOnUse">
<stop stop-color="#F4C52F"/>
<stop offset="1" stop-color="#EFC22F" stop-opacity="0.05"/>
</linearGradient>
<linearGradient id="paint18_linear_2530_58304" x1="-37.0811" y1="578.598" x2="366.183" y2="723.024" gradientUnits="userSpaceOnUse">
<stop stop-color="#F4C52F" stop-opacity="0.44"/>
<stop offset="1" stop-color="#F5C32E" stop-opacity="0.07"/>
</linearGradient>
<linearGradient id="paint19_linear_2530_58304" x1="-128.62" y1="321.479" x2="92.6139" y2="-12.8107" gradientUnits="userSpaceOnUse">
<stop stop-color="#00FBC6"/>
<stop offset="1" stop-color="#00FBC6" stop-opacity="0"/>
</linearGradient>
<linearGradient id="paint20_linear_2530_58304" x1="105.303" y1="112.321" x2="113.063" y2="-6.84858" gradientUnits="userSpaceOnUse">
<stop stop-color="#00FBC6"/>
<stop offset="1" stop-color="#00FBC6" stop-opacity="0"/>
</linearGradient>
<linearGradient id="paint21_linear_2530_58304" x1="73.0394" y1="-43.6541" x2="221.995" y2="121.135" gradientUnits="userSpaceOnUse">
<stop stop-color="#3CE0E6"/>
<stop offset="1" stop-color="#308A8B" stop-opacity="0"/>
</linearGradient>
<linearGradient id="paint22_linear_2530_58304" x1="85.8899" y1="134.646" x2="199.661" y2="134.646" gradientUnits="userSpaceOnUse">
<stop stop-color="#F4C52F" stop-opacity="0.88"/>
<stop offset="1" stop-color="#F5C32E" stop-opacity="0.11"/>
</linearGradient>
<linearGradient id="paint23_linear_2530_58304" x1="296.264" y1="570.258" x2="525.201" y2="391.499" gradientUnits="userSpaceOnUse">
<stop stop-color="#00F2FF"/>
<stop offset="1" stop-color="#308A8B" stop-opacity="0"/>
</linearGradient>
<clipPath id="clip0_2530_58304">
<rect width="812" height="812" fill="white" transform="translate(-218)"/>
</clipPath>
</defs>
</svg>
