<?xml version="1.0" encoding="UTF-8"?>
<svg width="68px" height="67px" viewBox="0 0 68 67" version="1.1" xmlns="http://www.w3.org/2000/svg" xmlns:xlink="http://www.w3.org/1999/xlink">
    <!-- Generator: sketchtool 60.1 (101010) - https://sketch.com -->
    <title>765834CC-A5E8-4CF8-9E46-379473E01F6B</title>
    <desc>Created with sketchtool.</desc>
    <defs>
        <ellipse id="path-1" cx="33.2292249" cy="33.0983895" rx="33.2292249" ry="33.0983895"></ellipse>
        <filter x="-33.0%" y="-20.8%" width="167.7%" height="142.3%" filterUnits="objectBoundingBox" id="filter-3">
            <feOffset dx="0" dy="2" in="SourceAlpha" result="shadowOffsetOuter1"></feOffset>
            <feGaussianBlur stdDeviation="2" in="shadowOffsetOuter1" result="shadowBlurOuter1"></feGaussianBlur>
            <feColorMatrix values="0 0 0 0 0   0 0 0 0 0   0 0 0 0 0  0 0 0 0.359921329 0" type="matrix" in="shadowBlurOuter1" result="shadowMatrixOuter1"></feColorMatrix>
            <feMerge>
                <feMergeNode in="shadowMatrixOuter1"></feMergeNode>
                <feMergeNode in="SourceGraphic"></feMergeNode>
            </feMerge>
        </filter>
        <path d="M2.5638852,-1.03584031e-16 L33.8090732,1.03584031e-16 C34.7005919,-6.01853049e-17 35.0238782,0.0928256111 35.3498041,0.267132704 C35.67573,0.441439796 35.9315186,0.697228371 36.1058257,1.0231543 C36.2801328,1.34908022 36.3729584,1.67236646 36.3729584,2.5638852 L36.3729584,55.0561148 C36.3729584,55.9476335 36.2801328,56.2709198 36.1058257,56.5968457 C35.9315186,56.9227716 35.67573,57.1785602 35.3498041,57.3528673 C35.0238782,57.5271744 34.7005919,57.62 33.8090732,57.62 L2.5638852,57.62 C1.67236646,57.62 1.34908022,57.5271744 1.0231543,57.3528673 C0.697228371,57.1785602 0.441439796,56.9227716 0.267132704,56.5968457 C0.0928256111,56.2709198 4.01235366e-17,55.9476335 -6.90560205e-17,55.0561148 L6.90560205e-17,2.5638852 C-4.01235366e-17,1.67236646 0.0928256111,1.34908022 0.267132704,1.0231543 C0.441439796,0.697228371 0.697228371,0.441439796 1.0231543,0.267132704 C1.34908022,0.0928256111 1.67236646,6.01853049e-17 2.5638852,-1.03584031e-16 Z" id="path-4"></path>
        <polygon id="path-6" points="0.0142639051 0.233799674 36.3696291 0.233799674 36.3696291 57.8571172 0.0142639051 57.8571172"></polygon>
        <path d="M22.0144352,51.851125 C22.8360362,49.4666528 23.2841605,47.0081994 23.2841605,44.4750534 C23.2841605,41.3457894 22.7616261,38.887336 21.7158442,37.0989818 C20.6700622,35.3108648 18.5038505,34.4911433 15.6653335,34.4911433 C14.7688471,34.4911433 13.7977129,34.566073 12.3035688,34.9385875 C10.810138,35.2366465 9.53993728,35.9812012 8.34462206,37.0247635 L3.39661767,57.8571223 L0.0142639051,57.8571223 L0.0142639051,0.233799674 L15.7195717,0.233799674 L10.7485655,21.107653 C12.2783693,20.4294917 13.6379571,19.9208707 15.1679987,19.58179 C16.612219,19.1580577 18.2271308,18.9885174 19.926675,18.9885174 C23.4959795,18.9885174 26.6402196,19.6666787 29.2750005,20.9381127 C31.9095438,22.2095466 34.0336769,23.9051871 35.8188046,26.1089743 C36.0076673,26.3537728 36.1912694,26.6027946 36.3696291,26.8560215 L36.3696291,57.8571223 L18.760632,57.8571223 C20.1348443,56.0702798 21.2402463,54.0269848 22.0144352,51.851125 Z" id="path-8"></path>
    </defs>
    <g id="Asset-Artboard-Page" stroke="none" stroke-width="1" fill="none" fill-rule="evenodd">
        <g id="Large-(50px)/bitpay-card-solid" transform="translate(0.357333, 0.000000)">
            <g id="Oval-87-+-bitpay-logo-grayscale" transform="translate(0.344833, 0.280465)">
                <mask id="mask-2" fill="white">
                    <use xlink:href="#path-1"></use>
                </mask>
                <use id="Oval-87" fill="#A8B7FB" xlink:href="#path-1"></use>
                <g id="BitPay-CARD-Front" filter="url(#filter-3)" mask="url(#mask-2)">
                    <g transform="translate(14.473780, 17.139535)">
                        <g>
                            <mask id="mask-5" fill="white">
                                <use xlink:href="#path-4"></use>
                            </mask>
                            <use id="Mask" fill="#D8D8D8" xlink:href="#path-4"></use>
                            <g mask="url(#mask-5)">
                                <g transform="translate(0.000000, -0.237119)">
                                    <g id="BitPay-Blue-BG" stroke-width="1" fill="none">
                                        <mask id="mask-7" fill="white">
                                            <use xlink:href="#path-6"></use>
                                        </mask>
                                        <g id="Clip-2"></g>
                                        <polygon id="Fill-1" fill="#244093" mask="url(#mask-7)" points="0.0142639051 57.8571172 36.3696291 57.8571172 36.3696291 0.233799674 0.0142639051 0.233799674"></polygon>
                                    </g>
                                    <g id="Spot-UV" stroke-width="1" fill="none">
                                        <mask id="mask-9" fill="white">
                                            <use xlink:href="#path-8"></use>
                                        </mask>
                                        <g id="Clip-8"></g>
                                        <polygon id="Fill-7" fill="#26439B" mask="url(#mask-9)" points="0.0142639051 57.8571172 36.3696291 57.8571172 36.3696291 0.233799674 0.0142639051 0.233799674"></polygon>
                                    </g>
                                    <g id="Contactless-Symbol" stroke-width="1" fill="none" transform="translate(26.388225, 8.299177)">
                                        <path d="M2.68042554,4.40212057 C3.00635578,3.81762139 3.18370368,3.14752213 3.16563606,2.43616411 C3.14780618,1.72551744 2.93670038,1.06514008 2.58152912,0.497950614 C2.5094964,0.382473495 2.54800894,0.232376952 2.66806348,0.162663865 C2.78788029,0.0927136596 2.94383233,0.129941396 3.01610278,0.245181396 C3.41501668,0.882321066 3.65274844,1.62663868 3.67271791,2.42359679 C3.69292511,3.22079201 3.49323043,3.97601711 3.12712352,4.63236345 C3.06079636,4.75163448 2.90674617,4.79621291 2.78383885,4.73242781 C2.6599806,4.66887983 2.61409837,4.52068024 2.68042554,4.40212057" id="Fill-16" fill="#FFFFFE"></path>
                                        <path d="M0.0689422083,3.00453917 C0.127899683,2.92486707 0.174732838,2.83642155 0.206826625,2.74086246 C0.238920411,2.64530336 0.256274829,2.54357916 0.256274829,2.4361641 C0.256274829,2.3294604 0.238920411,2.2277362 0.206588893,2.13193999 C0.174495106,2.03685513 0.127661951,1.94793538 0.0684667448,1.8685004 C-0.0118865876,1.76013686 0.0111733924,1.60719488 0.11934134,1.52704855 C0.227747019,1.44666509 0.380608536,1.46919143 0.4611996,1.57731785 C0.550586739,1.69730023 0.621668533,1.83150978 0.670165811,1.9763897 C0.719138552,2.12126962 0.745526776,2.27610855 0.745526776,2.4361641 C0.745526776,2.59693102 0.719138552,2.75200707 0.670165811,2.89641275 C0.621668533,3.04129266 0.550586739,3.17550221 0.461675064,3.2954846 C0.381083999,3.40361102 0.228222483,3.42637447 0.119816803,3.34599102 C0.0114111242,3.26560756 -0.0118865876,3.1129027 0.0689422083,3.00453917" id="Fill-11" fill="#FFFFFE"></path>
                                        <path d="M0.906946627,3.45980841 C1.090951,3.1619865 1.19674163,2.81247258 1.19674163,2.43616416 C1.19674163,2.06056711 1.090951,1.71105318 0.906946627,1.41323127 C0.836102565,1.2984655 0.872237791,1.14789471 0.987062228,1.07699603 C1.1021244,1.00633446 1.2526086,1.04213948 1.32345266,1.15690525 C1.55333926,1.52847128 1.68623131,1.96809056 1.6859939,2.43616416 C1.68623131,2.90494912 1.55333926,3.34409417 1.32345266,3.71613443 C1.2526086,3.83066308 1.1021244,3.8664681 0.987062228,3.79556942 C0.872237791,3.72490785 0.836340297,3.57433706 0.906946627,3.45980841" id="Fill-13" fill="#FFFFFE"></path>
                                        <path d="M1.79558793,3.9236136 C2.05114956,3.48683979 2.19735459,2.97940442 2.19759232,2.43616403 C2.19735459,1.89292364 2.05114956,1.38619962 1.7953502,0.949188694 C1.72735891,0.832763102 1.76682239,0.683615042 1.88307321,0.615324675 C1.9997995,0.547034307 2.14957051,0.586396116 2.21779952,0.702821708 C2.5156774,1.21144268 2.68684426,1.80518948 2.68660678,2.43616403 C2.68684426,3.06784993 2.5156774,3.6611225 2.21803725,4.16998058 C2.14980824,4.28616906 2.00003723,4.32553087 1.88331094,4.25771474 C1.76682239,4.18942437 1.72735891,4.04003919 1.79558793,3.9236136" id="Fill-14" fill="#FFFFFE"></path>
                                    </g>
                                    <g id="BitPay-Logo" stroke-width="1" fill="none" transform="translate(2.852781, 27.031606)">
                                        <path d="M16.5047647,1.55052341 L15.653685,1.55052341 L15.1584898,3.63029722 L15.1594407,3.63029722 L15.0912117,3.91626315 C15.0436654,3.92954183 14.9965945,3.9413978 14.9495236,3.95088257 C14.8615629,3.96842941 14.7705116,3.97743994 14.6763698,3.97743994 C14.5665378,3.97743994 14.4804789,3.96155294 14.4177177,3.93025319 C14.3551942,3.89895344 14.3109761,3.85508636 14.2857766,3.79841483 C14.2601015,3.74174331 14.2503545,3.67416429 14.2562978,3.59591491 C14.2622411,3.51790264 14.2769805,3.43396239 14.3002782,3.34385704 L14.5589304,2.26472689 L14.7291463,1.54886358 L14.729384,1.54862646 L13.8597613,1.54862646 L13.4660775,3.20893613 C13.4190066,3.40835351 13.3916675,3.59804898 13.3838223,3.77802257 C13.3759772,3.95775904 13.4033163,4.11710324 13.4660775,4.25581806 C13.528601,4.39453287 13.6343916,4.50408201 13.7832117,4.58422835 C13.9320317,4.66437469 14.1417111,4.70468498 14.4120121,4.70468498 C14.6000579,4.70468498 14.7626665,4.68903511 14.8995999,4.65773535 L14.9157657,4.65370432 L14.915528,4.65536416 C14.8774909,4.82656433 14.8002281,4.96551627 14.6763698,5.07387981 C14.5525116,5.18248047 14.3685072,5.23654368 14.1245945,5.23654368 C14.020468,5.23654368 13.9258507,5.23037858 13.8400296,5.21852261 L13.6726664,5.92229284 C13.7858267,5.93675712 13.9113491,5.94434494 14.0504222,5.94434494 C14.309312,5.94434494 14.5361081,5.91470502 14.7308104,5.85589942 C14.9250372,5.7968567 15.0916872,5.70746271 15.230998,5.58771744 C15.3700711,5.46773505 15.4865596,5.31740138 15.5797505,5.13671644 C15.673179,4.95579437 15.74854,4.74191272 15.8055956,4.49436012 L16.3946949,2.02239091 L16.3925553,2.02144244 L16.5047647,1.55052341" id="Fill-18" fill="#FFFFFE"></path>
                                        <path d="M12.3297199,2.2652011 C11.9327079,2.2652011 11.8571092,2.2652011 11.6942629,2.34937847 C11.578963,2.40913254 11.4833949,2.49900077 11.3994756,2.60380752 C11.3153185,2.70861427 11.2494668,2.82954514 11.2019205,2.96683724 C11.1541364,3.10412934 11.1303632,3.24687519 11.1303632,3.3953119 C11.1303632,3.57836803 11.1607929,3.72324795 11.2218899,3.82995166 C11.282987,3.93665536 11.3956719,3.99000721 11.5597068,3.99000721 C11.6476675,3.99000721 11.7268322,3.97293462 11.7974385,3.93855232 C11.8680449,3.90417001 11.9434058,3.84726137 12.0235214,3.76711503 C12.0311288,3.67179305 12.0437286,3.57196581 12.0608453,3.46692194 C12.0781997,3.36235231 12.0995956,3.26513338 12.1188519,3.17739922 L12.3297199,2.2652011 M12.934034,3.32678432 C12.8805443,3.54398563 12.8653295,3.76237254 12.8881518,3.98147081 C12.9112117,4.20056907 12.995131,4.53656717 13.0771485,4.70468478 L12.253408,4.70468478 C12.1526097,4.53467022 12.1573644,4.45499812 12.1381081,4.40164627 C12.0311288,4.48938042 11.9127384,4.5614647 11.7829368,4.61884758 C11.6531353,4.67599334 11.5083567,4.70468478 11.3478877,4.70468478 C11.1569892,4.70468478 10.9939052,4.67101383 10.8583981,4.60462042 C10.7226532,4.53798989 10.612108,4.44835878 10.5262868,4.33572709 C10.4404657,4.22356965 10.3781799,4.09196842 10.3401429,3.94139764 C10.3021058,3.79082686 10.2830872,3.63005995 10.2830872,3.45838555 C10.2830872,3.19542021 10.3296827,2.94786762 10.423349,2.71525355 C10.5167775,2.4828766 10.6465791,2.27990245 10.8125158,2.10656822 C10.9786903,1.93299686 11.3792683,1.55076049 12.0370721,1.55076049 C12.3211615,1.55076049 12.7029587,1.55052337 13.3574342,1.55052337 L12.934034,3.32678432" id="Fill-19" fill="#FFFFFE"></path>
                                        <path d="M7.95379154,3.97909972 C8.01893004,3.9947496 8.09975884,4.00233742 8.19580247,4.00233742 C8.34557348,4.00233742 8.48226924,3.97459446 8.60517655,3.91863429 C8.72808387,3.86314836 8.83268585,3.78561034 8.91922021,3.68578309 C9.00575456,3.58595585 9.07303265,3.46621058 9.12105447,3.32607305 C9.16907628,3.18617263 9.19308719,3.03157082 9.19308719,2.86274185 C9.19308719,2.6979439 9.1564765,2.55780637 9.08373058,2.44280349 C9.0105092,2.32780061 8.88237178,2.26662382 8.70193338,2.26567534 C8.57569782,2.2652011 8.36578068,2.2652011 8.36578068,2.2652011 L7.95379154,3.97909972 Z M10.0463066,2.79966808 C10.0463066,3.0794689 9.99994891,3.33555778 9.90794672,3.56769761 C9.8157068,3.79983744 9.68780711,4.0004404 9.52448539,4.16903225 C9.36116366,4.33809833 9.16527269,4.46946244 8.93657474,4.5633617 C8.70787678,4.65749808 8.45897162,4.7044477 8.190097,4.7044477 C8.05934453,4.7044477 7.92882979,4.69282886 7.79831505,4.66982828 L7.53871197,5.71149352 L6.68549267,5.71149352 L7.67588319,1.55076055 C7.81994864,1.55052343 8.58187894,1.55076055 8.81247875,1.55076055 C9.027626,1.55076055 9.21329451,1.58348301 9.36877108,1.64845371 C9.52448539,1.71389865 9.65214734,1.80305552 9.75223242,1.91616144 C9.85207976,2.02950448 9.92601433,2.16157995 9.97427388,2.31333633 C10.022058,2.46485558 10.0463066,2.62680809 10.0463066,2.79966808 L10.0463066,2.79966808 Z" id="Fill-20" fill="#FFFFFE"></path>
                                        <path d="M6.16200711,3.97767705 C6.05241277,3.97767705 5.96635387,3.96226429 5.90359269,3.93096454 C5.8408315,3.89966479 5.79685113,3.85579771 5.77141383,3.79912618 C5.74597653,3.74221754 5.73622953,3.67487565 5.74193509,3.59662626 C5.74787839,3.51837688 5.76261776,3.43443663 5.7861532,3.34456839 L6.04456762,2.26520113 L7.01403774,2.26520113 L7.19019697,1.54957494 L6.21478356,1.54957494 L6.43825141,0.640459359 L5.52750105,0.781308251 L4.95171472,3.20941037 C4.90488157,3.40882774 4.87730468,3.59876033 4.86945954,3.7784968 C4.86161439,3.95823327 4.88895354,4.11757747 4.95171472,4.2565294 C5.01447591,4.39524422 5.12026654,4.50479336 5.26908662,4.5849397 C5.4179067,4.66508604 5.62734838,4.70515921 5.89764939,4.70515921 C6.08545748,4.70515921 6.24806601,4.68950933 6.38523723,4.6584467 L6.43492317,4.64659073 L6.61203333,3.90630413 C6.55260039,3.92645927 6.49269199,3.93997508 6.4351609,3.9513568 C6.34720015,3.96890364 6.25591116,3.97767705 6.16200711,3.97767705" id="Fill-21" fill="#FFFFFE"></path>
                                        <polyline id="Fill-22" fill="#FFFFFE" points="3.99104059 1.54886351 3.23957054 4.70515905 4.09065019 4.70515905 4.84212023 1.54886351 3.99104059 1.54886351"></polyline>
                                        <polyline id="Fill-23" fill="#FFFFFE" points="4.93031877 1.18393686 5.0608335 0.635716944 4.20975382 0.635716944 4.07923909 1.18393686 4.93031877 1.18393686"></polyline>
                                        <path d="M1.35911246,4.00067758 C1.4927177,4.00067758 1.61895326,3.96819223 1.73734367,3.90345865 C1.85573408,3.83848795 1.95819646,3.75170227 2.04401762,3.64286449 C2.13007652,3.53402671 2.1980678,3.41119889 2.24775373,3.2739068 C2.29720194,3.1366147 2.32216377,2.99339462 2.32216377,2.84448367 C2.32216377,2.66142754 2.29149637,2.51820746 2.23063705,2.41553478 C2.16930226,2.31238787 2.0423535,2.26520112 1.87784313,2.26520112 C1.82435349,2.26520112 1.76896199,2.27041775 1.68314083,2.28938729 C1.59708194,2.30859396 1.52290963,2.34819289 1.45396742,2.40913256 L1.08025312,3.97909972 C1.19103611,3.99830638 1.22931092,4.00067758 1.25593688,4.00067758 C1.28256283,4.00067758 1.31703394,4.00067758 1.35911246,4.00067758 Z M2.10416378,1.55123469 C2.28793043,1.55123469 2.44625978,1.58372004 2.58010276,1.64845362 C2.71394574,1.71342432 2.82472874,1.80115847 2.91268949,1.9118932 C3.00041251,2.02239081 3.06531328,2.15209509 3.10762953,2.30076891 C3.14947032,2.44967985 3.17062845,2.60997252 3.17062845,2.78164692 C3.17062845,3.04484938 3.12189344,3.29382468 3.02442342,3.52857282 C2.9269534,3.76308384 2.79429908,3.96748071 2.62598499,4.14081494 C2.45790864,4.3143863 2.25916489,4.45191551 2.02975374,4.55292835 C1.80058033,4.65394118 1.55191291,4.70468472 1.28446468,4.70468472 C1.25023131,4.70468472 1.19008518,4.70349912 1.10402628,4.70160217 C1.01796738,4.69970521 0.919546437,4.69116892 0.808763438,4.67599328 C0.697742708,4.66058052 0.580303219,4.63781707 0.456207242,4.60722867 C0.331873533,4.5768774 0.214434045,4.53490728 0.103651046,4.48155543 L1.09546794,0.320822468 L1.98410925,0.183530373 L1.63297944,1.65793839 C1.70929134,1.62355609 1.78132406,1.59889568 1.85787368,1.57968901 C1.93442331,1.56071947 2.01644077,1.55123469 2.10416378,1.55123469 L2.10416378,1.55123469 Z" id="Fill-24" fill="#FFFFFE"></path>
                                    </g>
                                    <path d="M28.8813174,49.2826457 L28.1678845,52.6091929 L27.305156,52.6091929 L28.0188267,49.2826457 L28.8813174,49.2826457 Z M32.5114816,51.4307098 L32.965787,50.181328 L33.2270541,51.4307098 L32.5114816,51.4307098 Z M33.474295,52.6091929 L34.2723605,52.6091929 L33.5758064,49.2826457 L32.8393135,49.2826457 C32.6736144,49.2826457 32.5338281,49.3784419 32.4720179,49.5266415 L31.1773308,52.6091929 L32.0833265,52.6091929 L32.2632894,52.112665 L33.3701685,52.112665 L33.474295,52.6091929 Z M31.2224996,51.5229491 C31.2260656,50.6451334 30.0050753,50.596761 30.0133959,50.2045656 C30.016011,50.0850575 30.1298845,49.9581987 30.3792651,49.9257133 C30.5031233,49.9095892 30.8435552,49.897259 31.230107,50.0746243 L31.3815421,49.3691942 C31.1740023,49.2940274 30.9067918,49.221706 30.5744429,49.221706 C29.7216991,49.221706 29.1214264,49.6738926 29.1161963,50.3214655 C29.1109662,50.8002094 29.5448267,51.0674429 29.8717078,51.2267871 C30.2078605,51.3899252 30.3207831,51.4942577 30.3193567,51.6400861 C30.3169794,51.8634525 30.0511953,51.961857 29.8030033,51.9656509 C29.3693806,51.9727645 29.117385,51.8489882 28.9169771,51.7558003 L28.7603119,52.484468 C28.9621461,52.5771817 29.3339586,52.6570909 29.7202727,52.6613591 C30.6265061,52.6613591 31.2194091,52.2146262 31.2224996,51.5229491 L31.2224996,51.5229491 Z M27.6486782,49.2826457 L26.2508155,52.6091929 L25.3386388,52.6091929 L24.6506431,49.9541677 C24.60904,49.7907924 24.5724294,49.7310384 24.4454806,49.6620366 C24.2384162,49.5498792 23.8958448,49.4445982 23.5944009,49.3791533 L23.6150836,49.2826457 L25.0830772,49.2826457 C25.270172,49.2826457 25.4384861,49.4066591 25.4808024,49.6217263 L25.8442942,51.5468983 L26.742207,49.2826457 L27.6486782,49.2826457 L27.6486782,49.2826457 Z" id="VISA" fill="#FFFFFE"></path>
                                    <g id="Platinum" stroke-width="1" fill="none" transform="translate(21.158126, 2.608313)">
                                        <path d="M1.06708766,0.744707395 C1.13351878,0.698304743 1.16673435,0.634624507 1.16673435,0.554407155 C1.16673435,0.505783099 1.15236223,0.46160185 1.12361799,0.421369763 C1.09487375,0.381137676 1.04984111,0.349050735 0.988839456,0.324615296 C0.927518417,0.300426679 0.851186499,0.288085548 0.759524321,0.288085548 L0.317821212,0.288085548 L0.317821212,0.814558197 L0.759524321,0.814558197 C0.8984548,0.814558197 1.00065653,0.791603693 1.06708766,0.744707395 Z M1.11435597,0.195773893 C1.2133639,0.230575882 1.28841829,0.27845947 1.33919978,0.33967148 C1.39030065,0.401130312 1.41585108,0.472215227 1.41585108,0.552432578 C1.41585108,0.638326849 1.39062003,0.711633167 1.33983854,0.772351532 C1.28937644,0.833069896 1.21528018,0.879225726 1.11723039,0.910819021 C1.0191806,0.942412316 0.900051706,0.958208964 0.759524321,0.958208964 L0.317821202,0.958208964 L0.317821202,1.48369432 L0.0687044756,1.48369432 L0.0687044756,0.14369432 L0.759524321,0.14369432 C0.897496662,0.14369432 1.01566742,0.161218726 1.11435597,0.195773893 L1.11435597,0.195773893 Z" id="Fill-33" fill="#FFFFFE"></path>
                                        <polyline id="Fill-34" fill="#FFFFFE" points="2.67804825 1.29301174 2.67804825 1.4310152 1.8331496 1.4310152 1.8331496 0.14369432 2.01858037 0.14369432 2.01858037 1.29301174 2.67804825 1.29301174"></polyline>
                                        <path d="M4.23161662,0.988568159 L3.97252987,0.362872811 L3.71422664,0.988568159 L4.23161662,0.988568159 Z M4.2916871,1.13295938 L3.65415611,1.13295938 L3.50946452,1.48369432 L3.29947889,1.48369432 L3.8832076,0.14369432 L4.06185209,0.14369432 L4.6466255,1.48369432 L4.4374234,1.48369432 L4.2916871,1.13295938 L4.2916871,1.13295938 Z" id="Fill-35" fill="#FFFFFE"></path>
                                        <polyline id="Fill-36" fill="#FFFFFE" points="6.08735916 0.282409132 5.64089893 0.282409132 5.64089893 1.4310152 5.45760775 1.4310152 5.45760775 0.282409132 5.01209844 0.282409132 5.01209844 0.14369432 6.08735916 0.14369432 6.08735916 0.282409132"></polyline>
                                        <polygon id="Fill-37" fill="#FFFFFE" points="6.83573868 1.4310152 7.02116945 1.4310152 7.02116945 0.14369432 6.83573868 0.14369432"></polygon>
                                        <polyline id="Fill-38" fill="#FFFFFE" points="8.76826001 1.4310152 8.0695664 0.435588223 8.0695664 1.4310152 7.88413564 1.4310152 7.88413564 0.14369432 8.0695664 0.14369432 8.77111279 1.14196672 8.77111279 0.14369432 8.9546417 0.14369432 8.9546417 1.4310152 8.76826001 1.4310152"></polyline>
                                        <path d="M10.7899312,1.01463365 C10.7899312,1.10782155 10.7668712,1.18701941 10.7214645,1.25246435 C10.67582,1.31790929 10.6144852,1.36699299 10.5379355,1.39947834 C10.4611482,1.43243793 10.3765157,1.44856204 10.2842758,1.44856204 C10.1870435,1.44856204 10.1009846,1.43243793 10.0256236,1.39947834 C9.95002492,1.36699299 9.89035425,1.31814641 9.84684934,1.25293859 C9.8031067,1.18773077 9.78123538,1.10829579 9.78123538,1.01463365 L9.78123538,0.14369432 L9.96500202,0.14369432 L9.96500202,1.01463365 C9.96500202,1.11232682 9.9932921,1.18630806 10.0503477,1.23610312 C10.1074033,1.28589818 10.1853794,1.31079571 10.2842758,1.31079571 C10.3836476,1.31079571 10.4616236,1.28589818 10.5182038,1.23610312 C10.5750217,1.18630806 10.6033118,1.11232682 10.6033118,1.01463365 L10.6033118,0.14369432 L10.7899312,0.14369432 L10.7899312,1.01463365" id="Fill-39" fill="#FFFFFE"></path>
                                        <polyline id="Fill-40" fill="#FFFFFE" points="12.9927538 1.4310152 12.8085117 1.4310152 12.8085117 0.928085084 12.8256284 0.391246907 12.3696589 1.4310152 12.2291594 1.4310152 11.7741408 0.392195384 11.7914952 0.928085084 11.7914952 1.4310152 11.6070154 1.4310152 11.6070154 0.14369432 11.8459358 0.14369432 12.2997657 1.19579281 12.7538334 0.14369432 12.9927538 0.14369432 12.9927538 1.4310152"></polyline>
                                    </g>
                                    <g id="Chip-01" stroke-width="1" fill="none" transform="translate(17.829882, 7.113580)">
                                        <path d="M5.05043116,7.35069952 L0.655197917,7.35069952 C0.293295577,7.35069952 0,7.06328616 0,6.70870733 L0,0.641992191 C0,0.287413357 0.293295577,0 0.655197917,0 L5.05043116,0 C5.41220015,0 5.7055624,0.287413357 5.7055624,0.641992191 L5.7055624,6.70870733 C5.7055624,7.06328616 5.41220015,7.35069952 5.05043116,7.35069952" id="Fill-1" fill="#D2D2CC"></path>
                                        <path d="M5.00895911,7.33593332 L0.685716782,7.33593332 C0.329742155,7.33593332 0.0412505592,7.04977643 0.0412505592,6.69674769 L0.0412505592,0.656554094 C0.0412505592,0.303525354 0.329742155,0.0173684666 0.685716782,0.0173684666 L5.00895911,0.0173684666 C5.36480257,0.0173684666 5.65335975,0.303525354 5.65335975,0.656554094 L5.65335975,6.69674769 C5.65335975,7.04977643 5.36480257,7.33593332 5.00895911,7.33593332 Z" id="Stroke-2" stroke="#0A0B09" stroke-width="0.4"></path>
                                        <path d="M2.0984008,2.71214782 C2.15985036,2.72652396 2.22143108,2.74740515 2.28314297,2.77049806 C2.46821305,2.83997192 2.65505381,2.93019688 2.84733782,2.93019688 C3.03516231,2.93019688 3.22285563,2.83164547 3.39671133,2.77199422 C3.39933457,2.77114856 3.4020234,2.77049806 3.40464665,2.76958735 C3.5584345,2.71800236 3.71602607,2.70011349 3.87283066,2.70772439 L3.87283066,0.0173684666 L1.82171382,0.0173684666 L1.82171382,2.69074622 C1.91693769,2.68580239 2.01039086,2.69146178 2.0984008,2.71214782 Z M3.41146709,4.97941607 C3.21472356,4.95788438 3.03949066,4.81978229 2.84727224,4.81978229 C2.65944775,4.81978229 2.47168885,4.91826866 2.29789873,4.97791991 C2.29527549,4.97883062 2.2927834,4.98006658 2.28996341,4.98032678 C2.12620722,4.99554858 1.96959937,4.98709202 1.82171382,4.96048639 L1.82171382,7.33593332 L3.87283066,7.33593332 L3.87283066,4.96569043 C3.72697812,4.99060475 3.57266562,4.99710979 3.41146709,4.97941607 Z M1.82171382,2.69074643 C1.56293052,2.70434197 1.29083423,2.79938066 1.07736752,2.90671388 C0.774710412,3.05886686 0.504188079,3.31835305 0.504188079,3.67665087 C0.504188079,3.74404312 0.513107118,3.81026447 0.529830317,3.87498965 C0.644990854,4.3201298 1.13842359,4.83767108 1.82171382,4.96048631 L1.82171382,2.69074643 Z M3.87283058,4.96569018 C4.55553059,4.84911979 5.04968472,4.32006458 5.16477968,3.87498949 C5.1814373,3.81019925 5.19042192,3.74404296 5.19042192,3.67665071 C5.19035634,3.33520096 4.94809949,3.08794425 4.65921442,2.93787289 C4.41446548,2.81076433 4.14473012,2.72073453 3.87283058,2.70772444 L3.87283058,4.96569018 Z" id="Stroke-4" stroke="#0A0B09" stroke-width="0.35"></path>
                                    </g>
                                </g>
                            </g>
                        </g>
                    </g>
                </g>
            </g>
        </g>
    </g>
</svg>