<?xml version="1.0" encoding="UTF-8"?>
<svg width="18px" height="17px" viewBox="0 0 18 17" version="1.1" xmlns="http://www.w3.org/2000/svg" xmlns:xlink="http://www.w3.org/1999/xlink">
    <!-- Generator: Sketch 51.2 (57519) - http://www.bohemiancoding.com/sketch -->
    <title>controls-ico-search</title>
    <desc>Created with Sketch.</desc>
    <defs></defs>
    <g id="Symbols" stroke="none" stroke-width="1" fill="none" fill-rule="evenodd">
        <g id="Field/Search-(Focus)" transform="translate(-17.000000, -19.000000)" stroke="#4A4A4A">
            <g id="Group-3">
                <path d="M33.7545048,34.7108538 C33.8106417,34.7619143 33.8387097,34.825739 33.8387097,34.9023298 C33.8387097,34.9789206 33.8106417,35.0452983 33.7545048,35.1014648 C33.6983679,35.1576314 33.6320253,35.1857143 33.5554751,35.1857143 C33.4789248,35.1857143 33.4151338,35.1576314 33.3641003,35.1014648 L28.9471711,30.6821987 C28.3602856,31.2234402 27.6943082,31.6421302 26.9492187,31.9382812 C26.2041293,32.2344323 25.4207765,32.3825056 24.5991368,32.3825056 C23.7264636,32.3825056 22.8933539,32.2127319 22.0997826,31.8731794 C21.3062114,31.5336269 20.6210966,31.0766421 20.0444178,30.5022112 C19.4677391,29.9277803 19.0097201,29.2423031 18.6703472,28.4457589 C18.3309742,27.6492148 18.1612903,26.8143877 18.1612903,25.9412528 C18.1612903,25.0681178 18.3309742,24.2332908 18.6703472,23.4367467 C19.0097201,22.6402025 19.4677391,21.9547252 20.0444178,21.3802944 C20.6210966,20.8058635 21.3062114,20.3488787 22.0997826,20.0093262 C22.8933539,19.6697737 23.7264636,19.5 24.5991368,19.5 C25.4718101,19.5 26.3061956,19.6697737 27.1023185,20.0093262 C27.8984415,20.3488787 28.5835562,20.8058635 29.1576833,21.3802944 C29.7318105,21.9547252 30.1885536,22.6402025 30.5279265,23.4367467 C30.8672995,24.2332908 31.0369834,25.0681178 31.0369834,25.9412528 C31.0369834,26.7633272 30.8889884,27.5470945 30.592994,28.2925781 C30.2969995,29.0380618 29.8785309,29.7043916 29.3375756,30.2915876 L33.7545048,34.7108538 Z M24.5991368,31.8233956 C25.6657374,31.8233956 26.6493938,31.5604379 27.5501355,31.0345145 C28.4508771,30.5085911 29.1640599,29.795031 29.6897051,28.8938128 C30.2153504,27.9925945 30.4781691,27.0084177 30.4781691,25.9412528 C30.4781691,24.8740879 30.2153504,23.889911 29.6897051,22.9886928 C29.1640599,22.0874746 28.4508771,21.3739145 27.5501355,20.8479911 C26.6493938,20.3220677 25.6657374,20.0591099 24.5991368,20.0591099 C23.5325362,20.0591099 22.5488799,20.3220677 21.6481382,20.8479911 C20.7473966,21.3739145 20.0342138,22.0874746 19.5085685,22.9886928 C18.9829233,23.889911 18.7201046,24.8740879 18.7201046,25.9412528 C18.7201046,27.0084177 18.9829233,27.9925945 19.5085685,28.8938128 C20.0342138,29.795031 20.7473966,30.5085911 21.6481382,31.0345145 C22.5488799,31.5604379 23.5325362,31.8233956 24.5991368,31.8233956 L24.5991368,31.8233956 Z" id="controls-ico-search"></path>
            </g>
        </g>
    </g>
</svg>