<svg width="40" height="40" viewBox="0 0 40 40" fill="none" xmlns="http://www.w3.org/2000/svg">
<rect width="40" height="40" rx="20" fill="#AFB7CB"/>
<path fill-rule="evenodd" clip-rule="evenodd" d="M20 28C24.4183 28 28 24.4183 28 20C28 15.5817 24.4183 12 20 12C15.5817 12 12 15.5817 12 20C12 24.4183 15.5817 28 20 28ZM21.2978 18.5234L23.8509 18.913H23.8511C23.8832 18.9179 23.9133 18.9321 23.9382 18.9541C23.963 18.976 23.9814 19.0048 23.9915 19.0372C24.0015 19.0696 24.0027 19.1043 23.995 19.1374C23.9872 19.1705 23.9708 19.2006 23.9476 19.2244L22.0997 21.1159L22.5359 23.7861C22.5413 23.8196 22.5377 23.8541 22.5255 23.8857C22.5133 23.9172 22.4929 23.9445 22.4667 23.9645C22.4405 23.9846 22.4094 23.9965 22.3771 23.999C22.3448 24.0014 22.3124 23.9944 22.2837 23.9786L20 22.7183L17.7163 23.9791C17.6876 23.9949 17.6552 24.002 17.6229 23.9995C17.5905 23.997 17.5595 23.9851 17.5333 23.9651C17.5071 23.9451 17.4867 23.9178 17.4745 23.8862C17.4623 23.8547 17.4587 23.8202 17.4641 23.7866L17.9003 21.1159L16.0524 19.2244C16.0292 19.2006 16.0128 19.1705 16.005 19.1374C15.9973 19.1043 15.9985 19.0696 16.0086 19.0372C16.0186 19.0048 16.0371 18.976 16.0619 18.954C16.0868 18.9321 16.1169 18.9179 16.1491 18.913L18.7028 18.5229L19.8447 16.0937C19.8607 16.0651 19.8834 16.0415 19.9108 16.0251C19.9381 16.0086 19.9691 16 20.0006 16C20.0321 16 20.0631 16.0086 20.0904 16.0251C20.1177 16.0415 20.1405 16.0651 20.1565 16.0937L21.2978 18.5234Z" fill="#ECEFFD"/>
</svg>
