<svg width="24" height="17" viewBox="0 0 24 17" fill="none" xmlns="http://www.w3.org/2000/svg">
<path d="M11.0474 6.02515C10.7545 5.73224 10.7545 5.25739 11.0474 4.96448C11.3403 4.67157 11.8152 4.67157 12.108 4.96448L14.583 7.43939L17.0579 4.96448C17.3507 4.67157 17.8256 4.67157 18.1185 4.96448C18.4114 5.25732 18.4114 5.73224 18.1185 6.02515L15.6436 8.5L18.1185 10.9749C18.4114 11.2678 18.4114 11.7427 18.1185 12.0355C17.8256 12.3284 17.3507 12.3284 17.0579 12.0355L14.583 9.56067L12.108 12.0355C11.8152 12.3284 11.3403 12.3284 11.0475 12.0355C10.7545 11.7426 10.7545 11.2678 11.0475 10.9749L13.5223 8.50006L11.0474 6.02515Z" fill="#1C3745"/>
<path fill-rule="evenodd" clip-rule="evenodd" d="M7.95435 0.878662L0.333008 8.5L7.95435 16.1213C8.51697 16.684 9.28003 17 10.0757 17H20.333C21.9899 17 23.333 15.6569 23.333 14V3C23.333 1.34314 21.9899 0 20.333 0H10.0757C9.28003 0 8.51697 0.316101 7.95435 0.878662ZM20.333 15.7H10.0757C9.62476 15.7 9.19238 15.5209 8.87354 15.2021L2.17151 8.5L8.87354 1.79791C9.19238 1.47913 9.62476 1.29999 10.0757 1.29999H20.333C21.2719 1.29999 22.033 2.0611 22.033 3V14C22.033 14.9389 21.2719 15.7 20.333 15.7Z" fill="#1C3745"/>
</svg>
