<svg width="24" height="17" viewBox="0 0 24 17" fill="none" xmlns="http://www.w3.org/2000/svg">
<path d="M11.0477 6.02515C10.7548 5.73224 10.7548 5.25739 11.0477 4.96448C11.3406 4.67157 11.8155 4.67157 12.1083 4.96448L14.5833 7.43939L17.0582 4.96448C17.351 4.67157 17.8259 4.67157 18.1188 4.96448C18.4117 5.25732 18.4117 5.73224 18.1188 6.02515L15.6439 8.5L18.1188 10.9749C18.4117 11.2678 18.4117 11.7427 18.1188 12.0355C17.8259 12.3284 17.351 12.3284 17.0582 12.0355L14.5833 9.56067L12.1083 12.0355C11.8155 12.3284 11.3406 12.3284 11.0478 12.0355C10.7548 11.7426 10.7548 11.2678 11.0478 10.9749L13.5226 8.50006L11.0477 6.02515Z" fill="#D2E5F4"/>
<path fill-rule="evenodd" clip-rule="evenodd" d="M7.95465 0.878662L0.333313 8.5L7.95465 16.1213C8.51727 16.684 9.28033 17 10.076 17H20.3333C21.9902 17 23.3333 15.6569 23.3333 14V3C23.3333 1.34314 21.9902 0 20.3333 0H10.076C9.28033 0 8.51727 0.316101 7.95465 0.878662ZM20.3333 15.7H10.076C9.62506 15.7 9.19269 15.5209 8.87384 15.2021L2.17181 8.5L8.87384 1.79791C9.19269 1.47913 9.62506 1.29999 10.076 1.29999H20.3333C21.2722 1.29999 22.0333 2.0611 22.0333 3V14C22.0333 14.9389 21.2722 15.7 20.3333 15.7Z" fill="#D2E5F4"/>
</svg>
