<svg width="81" height="81" viewBox="0 0 81 81" fill="none" xmlns="http://www.w3.org/2000/svg">
<g clip-path="url(#clip0_3345_136910)">
<path d="M66.4004 33.4414H75.8122V52.2649H66.4004V33.4414Z" fill="#1C3745" fill-opacity="0.1"/>
<path fill-rule="evenodd" clip-rule="evenodd" d="M73.4592 35.7943H68.7533V49.912H73.4592V35.7943ZM66.4004 33.4414V52.2649H75.8122V33.4414H66.4004Z" fill="#1C3745"/>
<path fill-rule="evenodd" clip-rule="evenodd" d="M61.6584 9.91177H24.0114V71.0882H61.6584V9.91177ZM14.5996 0.5V80.5H66.3643C68.9633 80.5 71.0702 78.3931 71.0702 75.7941V0.5H14.5996Z" fill="#1C3745"/>
<path d="M5.1875 0.5H14.5993V80.5C9.40129 80.5 5.1875 76.2862 5.1875 71.0882V0.5Z" fill="#1C3745" fill-opacity="0.1"/>
<path fill-rule="evenodd" clip-rule="evenodd" d="M14.5993 80.5V0.5H5.1875V71.0882C5.1875 75.4737 8.18697 79.1587 12.2463 80.2035C12.9984 80.397 13.7868 80.5 14.5993 80.5ZM12.2463 77.7454V2.85294H7.54044V71.0882C7.54044 74.1617 9.50469 76.7764 12.2463 77.7454Z" fill="#1C3745"/>
<path d="M66.4004 5.20703H75.8122V24.0306H66.4004V5.20703Z" fill="#1C3745" fill-opacity="0.1"/>
<path fill-rule="evenodd" clip-rule="evenodd" d="M73.4592 7.55997H68.7533V21.6776H73.4592V7.55997ZM66.4004 5.20703V24.0306H75.8122V5.20703H66.4004Z" fill="#1C3745"/>
<g filter="url(#filter0_f_3345_136910)">
<circle cx="42.8346" cy="30.6119" r="5.69785" stroke="#1C3745" stroke-opacity="0.76" stroke-width="2"/>
</g>
<g filter="url(#filter1_f_3345_136910)">
<path d="M30.1442 50.0357C30.6542 43.4741 36.1401 38.3086 42.8325 38.3086C49.5249 38.3086 55.0109 43.4741 55.5209 50.0357H55.4618H55.3855H55.3095H55.2337H55.1583H55.0831H55.0081H54.9335H54.8591H54.785H54.7111H54.6376H54.5643H54.4912H54.4184H54.3459H54.2736H54.2016H54.1299H54.0584H53.9872H53.9162H53.8455H53.7751H53.7048H53.6349H53.5652H53.4957H53.4265H53.3575H53.2888H53.2204H53.1521H53.0841H53.0164H52.9489H52.8816H52.8146H52.7478H52.6812H52.6149H52.5488H52.483H52.4174H52.352H52.2868H52.2219H52.1572H52.0927H52.0284H51.9644H51.9006H51.837H51.7736H51.7105H51.6475H51.5848H51.5223H51.46H51.398H51.3361H51.2745H51.213H51.1518H51.0908H51.03H50.9694H50.909H50.8488H50.7888H50.729H50.6694H50.61H50.5508H50.4918H50.433H50.3744H50.316H50.2578H50.1998H50.1419H50.0843H50.0268H49.9696H49.9125H49.8556H49.7989H49.7423H49.686H49.6298H49.5738H49.518H49.4624H49.4069H49.3516H49.2965H49.2416H49.1868H49.1322H49.0778H49.0235H48.9694H48.9155H48.8618H48.8082H48.7547H48.7015H48.6484H48.5954H48.5426H48.49H48.4375H48.3852H48.333H48.281H48.2291H48.1774H48.1259H48.0744H48.0232H47.9721H47.9211H47.8703H47.8196H47.769H47.7186H47.6684H47.6182H47.5682H47.5184H47.4687H47.4191H47.3696H47.3203H47.2711H47.2221H47.1731H47.1243H47.0757H47.0271H46.9787H46.9304H46.8822H46.8342H46.7862H46.7384H46.6907H46.6431H46.5956H46.5483H46.501H46.4539H46.4069H46.36H46.3132H46.2665H46.2199H46.1734H46.127H46.0808H46.0346H45.9885H45.9425H45.8967H45.8509H45.8052H45.7596H45.7142H45.6688H45.6235H45.5782H45.5331H45.4881H45.4431H45.3983H45.3535H45.3088H45.2642H45.2197H45.1753H45.1309H45.0866H45.0424H44.9983H44.9542H44.9103H44.8664H44.8225H44.7788H44.7351H44.6915H44.6479H44.6044H44.561H44.5176H44.4743H44.4311H44.3879H44.3448H44.3018H44.2588H44.2159H44.173H44.1301H44.0874H44.0447H44.002H43.9594H43.9168H43.8743H43.8318H43.7894H43.747H43.7047H43.6624H43.6201H43.5779H43.5357H43.4936H43.4515H43.4094H43.3674H43.3254H43.2834H43.2415H43.1996H43.1577H43.1159H43.0741H43.0323H42.9905H42.9487H42.907H42.8653H42.8236H42.782H42.7403H42.6987H42.6571H42.6155H42.5739H42.5324H42.4908H42.4493H42.4077H42.3662H42.3247H42.2832H42.2417H42.2001H42.1586H42.1171H42.0756H42.0341H41.9926H41.9511H41.9096H41.8681H41.8266H41.7851H41.7435H41.702H41.6604H41.6188H41.5773H41.5357H41.4941H41.4524H41.4108H41.3691H41.3274H41.2857H41.244H41.2023H41.1605H41.1187H41.0769H41.035H40.9931H40.9512H40.9093H40.8673H40.8253H40.7833H40.7412H40.6991H40.657H40.6148H40.5726H40.5303H40.488H40.4457H40.4033H40.3609H40.3184H40.2758H40.2333H40.1906H40.148H40.1052H40.0625H40.0196H39.9768H39.9338H39.8908H39.8478H39.8046H39.7615H39.7182H39.6749H39.6316H39.5881H39.5446H39.5011H39.4574H39.4137H39.37H39.3261H39.2822H39.2382H39.1942H39.15H39.1058H39.0615H39.0172H38.9727H38.9282H38.8836H38.8389H38.7941H38.7492H38.7042H38.6592H38.6141H38.5689H38.5235H38.4781H38.4326H38.387H38.3413H38.2956H38.2497H38.2037H38.1576H38.1114H38.0651H38.0187H37.9722H37.9256H37.8789H37.8321H37.7852H37.7382H37.691H37.6438H37.5964H37.5489H37.5013H37.4536H37.4058H37.3578H37.3097H37.2615H37.2132H37.1648H37.1162H37.0675H37.0187H36.9698H36.9207H36.8715H36.8221H36.7727H36.7231H36.6733H36.6235H36.5735H36.5233H36.473H36.4226H36.3721H36.3214H36.2705H36.2195H36.1684H36.1171H36.0657H36.0141H35.9623H35.9105H35.8584H35.8062H35.7539H35.7014H35.6487H35.5959H35.543H35.4898H35.4365H35.3831H35.3295H35.2757H35.2218H35.1676H35.1134H35.0589H35.0043H34.9495H34.8946H34.8394H34.7841H34.7286H34.673H34.6171H34.5611H34.5049H34.4486H34.392H34.3353H34.2783H34.2212H34.1639H34.1065H34.0488H33.9909H33.9329H33.8746H33.8162H33.7576H33.6987H33.6397H33.5805H33.5211H33.4615H33.4017H33.3416H33.2814H33.221H33.1604H33.0995H33.0385H32.9772H32.9158H32.8541H32.7922H32.7301H32.6678H32.6053H32.5425H32.4796H32.4164H32.353H32.2894H32.2255H32.1615H32.0972H32.0327H31.9679H31.903H31.8378H31.7724H31.7067H31.6408H31.5747H31.5084H31.4418H31.375H31.3079H31.2406H31.1731H31.1053H31.0373H30.969H30.9005H30.8318H30.7628H30.6935H30.624H30.5543H30.4843H30.4141H30.3436H30.2728H30.2018H30.1442Z" stroke="#1C3745" stroke-opacity="0.76" stroke-width="2"/>
</g>
</g>
<defs>
<filter id="filter0_f_3345_136910" x="30.1367" y="17.9141" width="25.3965" height="25.3945" filterUnits="userSpaceOnUse" color-interpolation-filters="sRGB">
<feFlood flood-opacity="0" result="BackgroundImageFix"/>
<feBlend mode="normal" in="SourceGraphic" in2="BackgroundImageFix" result="shape"/>
<feGaussianBlur stdDeviation="3" result="effect1_foregroundBlur_3345_136910"/>
</filter>
<filter id="filter1_f_3345_136910" x="23.1055" y="31.3086" width="39.4551" height="25.7266" filterUnits="userSpaceOnUse" color-interpolation-filters="sRGB">
<feFlood flood-opacity="0" result="BackgroundImageFix"/>
<feBlend mode="normal" in="SourceGraphic" in2="BackgroundImageFix" result="shape"/>
<feGaussianBlur stdDeviation="3" result="effect1_foregroundBlur_3345_136910"/>
</filter>
<clipPath id="clip0_3345_136910">
<rect width="80" height="80" fill="white" transform="translate(0.5 0.5)"/>
</clipPath>
</defs>
</svg>
