<svg width="81" height="81" viewBox="0 0 81 81" fill="none" xmlns="http://www.w3.org/2000/svg">
<g clip-path="url(#clip0_3349_140242)">
<path fill-rule="evenodd" clip-rule="evenodd" d="M2.71123 53.0128L11.5314 14.4233L48.3307 2.3452L39.8255 40.1977L2.71123 53.0128Z" fill="#B6C9D8" fill-opacity="0.1"/>
<g filter="url(#filter0_f_3349_140242)">
<path fill-rule="evenodd" clip-rule="evenodd" d="M10.5565 14.1979L11.2195 13.4706L15.2363 12.1522L15.86 14.0525L12.3803 15.1946L11.5484 18.8342L9.59869 18.3885L10.5565 14.1979ZM10.524 23.316L8.60836 31.6973L6.65864 31.2517L8.5743 22.8704L10.524 23.316ZM7.58397 36.1792L5.66831 44.5605L3.71859 44.1148L5.63425 35.7335L7.58397 36.1792ZM4.64392 49.0423L4.08744 51.477L6.42295 50.6706L7.07571 52.5611L3.03761 53.9554L1.73638 52.7873L2.6942 48.5967L4.64392 49.0423ZM19.4692 10.7629L27.5027 8.12618L28.1264 10.0264L20.0929 12.6632L19.4692 10.7629ZM10.7182 49.1875L18.7944 46.3989L19.4471 48.2894L11.3709 51.078L10.7182 49.1875ZM31.7357 6.73686L39.7692 4.10014L40.3929 6.0004L32.3594 8.63712L31.7357 6.73686ZM23.0896 44.9158L31.1658 42.1272L31.8185 44.0177L23.7424 46.8063L23.0896 44.9158ZM44.0021 2.71081L48.0189 1.39245L49.3064 2.56181L48.3784 6.69186L46.4271 6.2534L46.9689 3.84205L44.6258 4.61108L44.0021 2.71081ZM35.461 40.6441L38.9721 39.4318L39.7778 35.8458L41.7292 36.2842L40.8012 40.4143L40.1519 41.1403L36.1138 42.5346L35.461 40.6441ZM47.3993 11.0493L45.5433 19.3094L43.592 18.8709L45.448 10.6108L47.3993 11.0493ZM44.5642 23.6668L42.7083 31.9268L40.7569 31.4884L42.6129 23.2283L44.5642 23.6668Z" fill="#B6C9D8"/>
</g>
<path fill-rule="evenodd" clip-rule="evenodd" d="M39.8191 40.1967L48.3244 2.34421L77.5236 28.2439L69.5658 66.2431L39.8191 40.1967Z" fill="#B6C9D8" fill-opacity="0.1"/>
<g filter="url(#filter1_f_3349_140242)">
<path fill-rule="evenodd" clip-rule="evenodd" d="M47.3487 2.12632L48.9879 1.59743L52.1693 4.41931L50.8422 5.91554L48.9285 4.21814L48.372 6.69482L46.4207 6.25637L47.3487 2.12632ZM47.3929 11.0522L45.5369 19.3123L43.5856 18.8739L45.4416 10.6138L47.3929 11.0522ZM44.5579 23.6697L42.7019 31.9298L40.7505 31.4914L42.6065 23.2313L44.5579 23.6697ZM41.7228 36.2872L40.9251 39.8373L43.7091 42.275L42.3916 43.7797L39.1603 40.9504L38.8434 39.9788L39.7714 35.8488L41.7228 36.2872ZM55.5396 7.40878L61.9024 13.0525L60.5753 14.5488L54.2125 8.905L55.5396 7.40878ZM47.1622 45.2985L53.6247 50.9571L52.3071 52.4618L45.8447 46.8032L47.1622 45.2985ZM65.2727 16.042L71.6355 21.6858L70.3084 23.182L63.9456 17.5382L65.2727 16.042ZM57.0778 53.9807L63.5402 59.6393L62.2227 61.144L55.7602 55.4854L57.0778 53.9807ZM75.0058 24.6752L78.1872 27.4971L78.5024 28.4502L77.6343 32.5956L75.6767 32.1856L76.4259 28.6082L73.6787 26.1714L75.0058 24.6752ZM66.9933 62.6628L68.9376 64.3653L69.4552 61.8941L71.4127 62.3041L70.5446 66.4494L68.907 66.9968L65.6758 64.1675L66.9933 62.6628ZM76.7179 36.9712L74.9817 45.262L73.0241 44.852L74.7604 36.5613L76.7179 36.9712ZM74.0653 49.6376L72.329 57.9284L70.3715 57.5184L72.1078 49.2277L74.0653 49.6376Z" fill="#B6C9D8"/>
</g>
<path fill-rule="evenodd" clip-rule="evenodd" d="M31.6948 78.3843L2.70642 53.0107L39.8207 40.1956L69.5675 66.2419L31.6948 78.3843Z" fill="#B6C9D8" fill-opacity="0.1"/>
<g filter="url(#filter2_f_3349_140242)">
<path fill-rule="evenodd" clip-rule="evenodd" d="M2.0478 53.764L2.38005 52.0663L6.41814 50.672L7.0709 52.5625L4.66196 53.3943L6.53322 55.0322L5.21596 56.5371L2.0478 53.764ZM10.7134 49.1889L18.7896 46.4003L19.4423 48.2908L11.3661 51.0794L10.7134 49.1889ZM9.85969 57.9439L16.196 63.4901L14.8787 64.995L8.54242 59.4488L9.85969 57.9439ZM23.0848 44.9172L31.161 42.1286L31.8138 44.0191L23.7376 46.8077L23.0848 44.9172ZM19.5225 66.4017L25.8588 71.9479L24.5415 73.4529L18.2052 67.9067L19.5225 66.4017ZM35.4562 40.6455L39.4943 39.2512L40.4795 39.4441L43.7107 42.2733L42.3932 43.778L39.5986 41.331L36.109 42.536L35.4562 40.6455ZM29.1853 74.8596L31.9279 77.2603L35.4978 76.1157L36.1084 78.0202L32.0001 79.3374L31.0362 79.1376L27.868 76.3645L29.1853 74.8596ZM47.1638 45.2969L53.6263 50.9555L52.3088 52.4602L45.8463 46.8016L47.1638 45.2969ZM39.9054 74.7026L48.122 72.0683L48.7326 73.9728L40.516 76.6071L39.9054 74.7026ZM57.0794 53.979L63.5419 59.6376L62.2244 61.1423L55.7619 55.4837L57.0794 53.979ZM52.5296 70.6551L60.7463 68.0208L61.3569 69.9253L53.1403 72.5596L52.5296 70.6551ZM66.995 62.6611L70.2263 65.4904L69.8728 67.195L65.7645 68.5122L65.1539 66.6077L67.5785 65.8303L65.6775 64.1658L66.995 62.6611Z" fill="#B6C9D8"/>
</g>
<g filter="url(#filter3_f_3349_140242)">
<path fill-rule="evenodd" clip-rule="evenodd" d="M36.1454 51.7251C33.6352 51.7251 31.2663 53.0721 30.7578 55.2115C30.4723 56.4121 30.4706 57.0737 30.4982 57.8038C30.5013 57.8841 30.5047 57.9654 30.5082 58.0484C30.5382 58.7613 30.5736 59.6009 30.4145 60.9686L29.8999 60.9087L30.4145 60.9686C30.3527 61.4999 30.2592 62.2747 30.0498 63.0597C29.8424 63.8371 29.5054 64.6888 28.9164 65.339C28.5607 65.7316 28.4651 66.0685 28.4458 66.2935H43.9276C43.9278 66.2901 43.928 66.2868 43.9282 66.2834C43.9384 66.0947 43.8948 65.7677 43.4837 65.3691C42.8488 64.7536 42.4581 63.8992 42.2187 63.1073C41.9765 62.3061 41.8694 61.5027 41.8431 60.9233C41.7842 59.6257 41.8559 58.8146 41.9137 58.1602C41.9259 58.0213 41.9376 57.8894 41.9472 57.7615C41.9992 57.0712 42.0011 56.4413 41.7127 55.2093C41.4579 54.1208 40.7161 53.2564 39.6907 52.6523C38.6615 52.0459 37.38 51.7251 36.1454 51.7251ZM44.3963 66.9392C44.9403 67.2872 44.9406 67.2868 44.9408 67.2865L44.9412 67.2858L44.9422 67.2843L44.9443 67.2809L44.9491 67.2731L44.9613 67.2526C44.9705 67.2369 44.9816 67.217 44.994 67.1931C45.0188 67.1453 45.0493 67.081 45.0797 67.0018C45.1403 66.8445 45.2034 66.6222 45.2179 66.353C45.2483 65.7887 45.0604 65.0988 44.3827 64.4418C43.9721 64.0438 43.6646 63.4269 43.455 62.7336C43.2483 62.0496 43.1556 61.354 43.1333 60.8647C43.0786 59.6587 43.1425 58.9319 43.1995 58.2839C43.2122 58.1397 43.2245 57.9994 43.2351 57.8586C43.2964 57.0447 43.2904 56.2824 42.9702 54.9149C42.6165 53.404 41.598 52.277 40.3463 51.5396C39.0986 50.8044 37.5864 50.4336 36.1454 50.4336C33.3047 50.4336 30.2018 51.9661 29.5013 54.9128C29.1821 56.2551 29.1768 57.0383 29.2076 57.8527C29.2108 57.9353 29.2142 58.018 29.2177 58.1014C29.2471 58.8008 29.2787 59.5548 29.1316 60.8194C29.0699 61.3503 28.9847 62.0416 28.8019 62.7268C28.617 63.4197 28.3482 64.0425 27.9592 64.4719C27.3625 65.1306 27.1694 65.7856 27.1515 66.3079C27.1428 66.5625 27.176 66.7746 27.2138 66.9285C27.2328 67.0056 27.2531 67.0688 27.2703 67.1164C27.279 67.1402 27.2869 67.1602 27.2935 67.1762L27.3025 67.1972L27.3062 67.2054L27.3078 67.209L27.3085 67.2106L27.3089 67.2114C27.3091 67.2118 27.3093 67.2121 27.8945 66.9392L27.3093 67.2121C27.4153 67.4396 27.6436 67.585 27.8945 67.585H44.3963C44.6166 67.585 44.8217 67.4727 44.9403 67.2872L44.3963 66.9392Z" fill="#B6C9D8"/>
<path fill-rule="evenodd" clip-rule="evenodd" d="M36.1839 49.7134C36.0669 49.7134 35.951 49.7365 35.8429 49.7813C35.7347 49.826 35.6365 49.8917 35.5538 49.9744C35.471 50.0572 35.4054 50.1554 35.3606 50.2635C35.3158 50.3716 35.2927 50.4875 35.2927 50.6046C35.2927 50.7023 35.3088 50.7994 35.3403 50.8919C35.4553 51.2295 35.2749 51.5964 34.9373 51.7114C34.5997 51.8264 34.2328 51.6459 34.1178 51.3083C34.0406 51.0817 34.0012 50.844 34.0012 50.6046C34.0012 50.3179 34.0577 50.0341 34.1674 49.7693C34.277 49.5045 34.4378 49.2638 34.6405 49.0612C34.8432 48.8585 35.0838 48.6977 35.3486 48.588C35.6134 48.4783 35.8972 48.4219 36.1839 48.4219C36.4705 48.4219 36.7543 48.4783 37.0192 48.588C37.284 48.6977 37.5246 48.8585 37.7273 49.0612C37.9299 49.2638 38.0907 49.5045 38.2004 49.7693C38.3101 50.0341 38.3666 50.3179 38.3666 50.6046L37.7208 50.6046L38.3666 50.6046C38.3665 50.8556 38.3232 51.1048 38.2385 51.3411C38.1182 51.6768 37.7484 51.8514 37.4127 51.7311C37.077 51.6107 36.9024 51.241 37.0227 50.9053C37.0573 50.8088 37.075 50.707 37.075 50.6046M37.075 50.6045C37.075 50.4875 37.052 50.3716 37.0072 50.2635C36.9624 50.1554 36.8968 50.0572 36.814 49.9744C36.7313 49.8917 36.633 49.826 36.5249 49.7813C36.4168 49.7365 36.3009 49.7134 36.1839 49.7134" fill="#B6C9D8"/>
<path fill-rule="evenodd" clip-rule="evenodd" d="M33.0483 66.3315C33.4031 66.2953 33.72 66.5536 33.7562 66.9084C33.8176 67.5101 34.1001 68.0677 34.549 68.4731C34.9979 68.8785 35.5812 69.1029 36.1861 69.1029C36.7909 69.1029 37.3743 68.8785 37.8231 68.4731C38.272 68.0677 38.5545 67.5101 38.6159 66.9084C38.6521 66.5536 38.9691 66.2953 39.3239 66.3315C39.6787 66.3677 39.937 66.6847 39.9008 67.0395C39.8069 67.9594 39.3751 68.8118 38.6888 69.4316C38.0026 70.0513 37.1108 70.3944 36.1861 70.3944C35.2614 70.3944 34.3696 70.0513 33.6833 69.4316C32.9971 68.8118 32.5652 67.9594 32.4714 67.0395C32.4352 66.6847 32.6935 66.3677 33.0483 66.3315Z" fill="#B6C9D8"/>
</g>
</g>
<defs>
<filter id="filter0_f_3349_140242" x="-0.263626" y="-0.609375" width="51.57" height="56.5664" filterUnits="userSpaceOnUse" color-interpolation-filters="sRGB">
<feFlood flood-opacity="0" result="BackgroundImageFix"/>
<feBlend mode="normal" in="SourceGraphic" in2="BackgroundImageFix" result="shape"/>
<feGaussianBlur stdDeviation="1" result="effect1_foregroundBlur_3349_140242"/>
</filter>
<filter id="filter1_f_3349_140242" x="36.8434" y="-0.402344" width="43.659" height="69.3984" filterUnits="userSpaceOnUse" color-interpolation-filters="sRGB">
<feFlood flood-opacity="0" result="BackgroundImageFix"/>
<feBlend mode="normal" in="SourceGraphic" in2="BackgroundImageFix" result="shape"/>
<feGaussianBlur stdDeviation="1" result="effect1_foregroundBlur_3349_140242"/>
</filter>
<filter id="filter2_f_3349_140242" x="0.0477982" y="37.25" width="72.1785" height="44.0859" filterUnits="userSpaceOnUse" color-interpolation-filters="sRGB">
<feFlood flood-opacity="0" result="BackgroundImageFix"/>
<feBlend mode="normal" in="SourceGraphic" in2="BackgroundImageFix" result="shape"/>
<feGaussianBlur stdDeviation="1" result="effect1_foregroundBlur_3349_140242"/>
</filter>
<filter id="filter3_f_3349_140242" x="24.1501" y="45.4219" width="24.0709" height="27.9727" filterUnits="userSpaceOnUse" color-interpolation-filters="sRGB">
<feFlood flood-opacity="0" result="BackgroundImageFix"/>
<feBlend mode="normal" in="SourceGraphic" in2="BackgroundImageFix" result="shape"/>
<feGaussianBlur stdDeviation="1.5" result="effect1_foregroundBlur_3349_140242"/>
</filter>
<clipPath id="clip0_3349_140242">
<rect width="80" height="80" fill="white" transform="translate(0.5 0.5)"/>
</clipPath>
</defs>
</svg>
