<svg width="80" height="81" viewBox="0 0 80 81" fill="none" xmlns="http://www.w3.org/2000/svg">
<g clip-path="url(#clip0_3345_139936)">
<path fill-rule="evenodd" clip-rule="evenodd" d="M2.21102 53.0128L11.0312 14.4233L47.8305 2.3452L39.3253 40.1977L2.21102 53.0128Z" fill="#1C3745" fill-opacity="0.1"/>
<g filter="url(#filter0_f_3345_139936)">
<path fill-rule="evenodd" clip-rule="evenodd" d="M10.0563 14.1979L10.7193 13.4706L14.7361 12.1522L15.3598 14.0525L11.8801 15.1946L11.0482 18.8342L9.0985 18.3885L10.0563 14.1979ZM10.0238 23.316L8.10817 31.6973L6.15845 31.2517L8.07411 22.8704L10.0238 23.316ZM7.08378 36.1792L5.16812 44.5605L3.2184 44.1148L5.13406 35.7335L7.08378 36.1792ZM4.14373 49.0423L3.58725 51.477L5.92276 50.6706L6.57552 52.5611L2.53742 53.9554L1.23618 52.7873L2.19401 48.5967L4.14373 49.0423ZM18.969 10.7629L27.0025 8.12618L27.6262 10.0264L19.5927 12.6632L18.969 10.7629ZM10.218 49.1875L18.2942 46.3989L18.9469 48.2894L10.8708 51.078L10.218 49.1875ZM31.2355 6.73686L39.269 4.10014L39.8927 6.0004L31.8592 8.63712L31.2355 6.73686ZM22.5894 44.9158L30.6656 42.1272L31.3184 44.0177L23.2422 46.8063L22.5894 44.9158ZM43.502 2.71081L47.5187 1.39245L48.8062 2.56181L47.8782 6.69186L45.9269 6.2534L46.4687 3.84205L44.1257 4.61108L43.502 2.71081ZM34.9608 40.6441L38.4719 39.4318L39.2776 35.8458L41.229 36.2842L40.301 40.4143L39.6517 41.1403L35.6136 42.5346L34.9608 40.6441ZM46.8991 11.0493L45.0431 19.3094L43.0918 18.8709L44.9478 10.6108L46.8991 11.0493ZM44.0641 23.6668L42.2081 31.9268L40.2567 31.4884L42.1127 23.2283L44.0641 23.6668Z" fill="#1C3745"/>
</g>
<path fill-rule="evenodd" clip-rule="evenodd" d="M39.319 40.1967L47.8243 2.34421L77.0236 28.2439L69.0657 66.2431L39.319 40.1967Z" fill="#1C3745" fill-opacity="0.1"/>
<g filter="url(#filter1_f_3345_139936)">
<path fill-rule="evenodd" clip-rule="evenodd" d="M46.8487 2.12632L48.4879 1.59743L51.6693 4.41931L50.3422 5.91554L48.4285 4.21814L47.872 6.69482L45.9207 6.25637L46.8487 2.12632ZM46.8929 11.0522L45.0369 19.3123L43.0856 18.8739L44.9416 10.6138L46.8929 11.0522ZM44.0579 23.6697L42.2019 31.9298L40.2505 31.4914L42.1065 23.2313L44.0579 23.6697ZM41.2228 36.2872L40.4251 39.8373L43.2091 42.275L41.8916 43.7797L38.6603 40.9504L38.3434 39.9788L39.2714 35.8488L41.2228 36.2872ZM55.0396 7.40878L61.4024 13.0525L60.0753 14.5488L53.7125 8.905L55.0396 7.40878ZM46.6622 45.2985L53.1247 50.9571L51.8071 52.4618L45.3447 46.8032L46.6622 45.2985ZM64.7727 16.042L71.1355 21.6858L69.8084 23.182L63.4456 17.5382L64.7727 16.042ZM56.5778 53.9807L63.0402 59.6393L61.7227 61.144L55.2602 55.4854L56.5778 53.9807ZM74.5058 24.6752L77.6872 27.4971L78.0024 28.4502L77.1343 32.5956L75.1767 32.1856L75.9259 28.6082L73.1787 26.1714L74.5058 24.6752ZM66.4933 62.6628L68.4376 64.3653L68.9552 61.8941L70.9127 62.3041L70.0446 66.4494L68.407 66.9968L65.1758 64.1675L66.4933 62.6628ZM76.2179 36.9712L74.4817 45.262L72.5241 44.852L74.2604 36.5613L76.2179 36.9712ZM73.5653 49.6376L71.829 57.9284L69.8715 57.5184L71.6078 49.2277L73.5653 49.6376Z" fill="#1C3745"/>
</g>
<path fill-rule="evenodd" clip-rule="evenodd" d="M31.1946 78.3843L2.20623 53.0107L39.3205 40.1956L69.0673 66.2419L31.1946 78.3843Z" fill="#1C3745" fill-opacity="0.1"/>
<g filter="url(#filter2_f_3345_139936)">
<path fill-rule="evenodd" clip-rule="evenodd" d="M1.54722 53.764L1.87948 52.0663L5.91757 50.672L6.57033 52.5625L4.16138 53.3943L6.03265 55.0322L4.71538 56.5371L1.54722 53.764ZM10.2128 49.1889L18.289 46.4003L18.9418 48.2908L10.8656 51.0794L10.2128 49.1889ZM9.35912 57.9439L15.6954 63.4901L14.3782 64.995L8.04185 59.4488L9.35912 57.9439ZM22.5842 44.9172L30.6604 42.1286L31.3132 44.0191L23.237 46.8077L22.5842 44.9172ZM19.0219 66.4017L25.3582 71.9479L24.041 73.4529L17.7046 67.9067L19.0219 66.4017ZM34.9557 40.6455L38.9938 39.2512L39.9789 39.4441L43.2102 42.2733L41.8926 43.778L39.098 41.331L35.6084 42.536L34.9557 40.6455ZM28.6847 74.8596L31.4274 77.2603L34.9972 76.1157L35.6078 78.0202L31.4995 79.3374L30.5356 79.1376L27.3674 76.3645L28.6847 74.8596ZM46.6632 45.2969L53.1258 50.9555L51.8082 52.4602L45.3457 46.8016L46.6632 45.2969ZM39.4048 74.7026L47.6215 72.0683L48.2321 73.9728L40.0154 76.6071L39.4048 74.7026ZM56.5788 53.979L63.0413 59.6376L61.7238 61.1423L55.2613 55.4837L56.5788 53.979ZM52.0291 70.6551L60.2457 68.0208L60.8563 69.9253L52.6397 72.5596L52.0291 70.6551ZM66.4944 62.6611L69.7257 65.4904L69.3722 67.195L65.2639 68.5122L64.6533 66.6077L67.0779 65.8303L65.1769 64.1658L66.4944 62.6611Z" fill="#1C3745"/>
</g>
<g filter="url(#filter3_f_3345_139936)">
<path fill-rule="evenodd" clip-rule="evenodd" d="M35.6457 51.7251C33.1355 51.7251 30.7666 53.0721 30.2581 55.2115C29.9726 56.4121 29.9709 57.0737 29.9985 57.8038C30.0016 57.8841 30.005 57.9654 30.0085 58.0484C30.0385 58.7613 30.0739 59.6009 29.9148 60.9686L29.4002 60.9087L29.9148 60.9686C29.853 61.4999 29.7595 62.2747 29.55 63.0597C29.3426 63.8371 29.0056 64.6888 28.4167 65.339C28.061 65.7316 27.9654 66.0685 27.9461 66.2935H43.4279C43.4281 66.2901 43.4283 66.2868 43.4285 66.2834C43.4387 66.0947 43.395 65.7677 42.9839 65.3691C42.3491 64.7536 41.9584 63.8992 41.719 63.1073C41.4768 62.3061 41.3697 61.5027 41.3434 60.9233C41.2845 59.6257 41.3561 58.8146 41.4139 58.1602C41.4262 58.0213 41.4379 57.8894 41.4475 57.7615C41.4995 57.0712 41.5014 56.4413 41.213 55.2093C40.9581 54.1208 40.2163 53.2564 39.191 52.6523C38.1618 52.0459 36.8802 51.7251 35.6457 51.7251ZM43.8966 66.9392C44.4406 67.2872 44.4408 67.2868 44.4411 67.2865L44.4415 67.2858L44.4425 67.2843L44.4446 67.2809L44.4494 67.2731L44.4616 67.2526C44.4707 67.2369 44.4819 67.217 44.4943 67.1931C44.5191 67.1453 44.5496 67.081 44.58 67.0018C44.6406 66.8445 44.7036 66.6222 44.7182 66.353C44.7486 65.7887 44.5606 65.0988 43.8829 64.4418C43.4724 64.0438 43.1649 63.4269 42.9553 62.7336C42.7485 62.0496 42.6558 61.354 42.6336 60.8647C42.5789 59.6587 42.6428 58.9319 42.6998 58.2839C42.7124 58.1397 42.7248 57.9994 42.7354 57.8586C42.7967 57.0447 42.7907 56.2824 42.4705 54.9149C42.1168 53.404 41.0983 52.277 39.8466 51.5396C38.5989 50.8044 37.0866 50.4336 35.6457 50.4336C32.805 50.4336 29.702 51.9661 29.0015 54.9128C28.6824 56.2551 28.6771 57.0383 28.7079 57.8527C28.711 57.9353 28.7145 58.018 28.718 58.1014C28.7474 58.8008 28.779 59.5548 28.6319 60.8194C28.5701 61.3503 28.485 62.0416 28.3021 62.7268C28.1173 63.4197 27.8484 64.0425 27.4595 64.4719C26.8628 65.1306 26.6696 65.7856 26.6518 66.3079C26.6431 66.5625 26.6763 66.7746 26.7141 66.9285C26.7331 67.0056 26.7534 67.0688 26.7706 67.1164C26.7792 67.1402 26.7871 67.1602 26.7938 67.1762L26.8028 67.1972L26.8065 67.2054L26.8081 67.209L26.8088 67.2106L26.8092 67.2114C26.8094 67.2118 26.8095 67.2121 27.3948 66.9392L26.8095 67.2121C26.9156 67.4396 27.1438 67.585 27.3948 67.585H43.8966C44.1169 67.585 44.3219 67.4727 44.4406 67.2872L43.8966 66.9392Z" fill="#1C3745"/>
<path fill-rule="evenodd" clip-rule="evenodd" d="M35.6846 49.7134C35.5676 49.7134 35.4517 49.7365 35.3436 49.7813C35.2355 49.826 35.1372 49.8917 35.0545 49.9744C34.9717 50.0572 34.9061 50.1554 34.8613 50.2635C34.8165 50.3716 34.7935 50.4875 34.7935 50.6046C34.7935 50.7023 34.8096 50.7994 34.8411 50.8919C34.9561 51.2295 34.7756 51.5964 34.438 51.7114C34.1004 51.8264 33.7335 51.6459 33.6185 51.3083C33.5413 51.0817 33.502 50.844 33.502 50.6046C33.502 50.3179 33.5584 50.0341 33.6681 49.7693C33.7778 49.5045 33.9386 49.2638 34.1412 49.0612C34.3439 48.8585 34.5845 48.6977 34.8494 48.588C35.1142 48.4783 35.398 48.4219 35.6846 48.4219C35.9713 48.4219 36.2551 48.4783 36.5199 48.588C36.7847 48.6977 37.0253 48.8585 37.228 49.0612C37.4307 49.2638 37.5915 49.5045 37.7012 49.7693C37.8108 50.0341 37.8673 50.3179 37.8673 50.6046L37.2215 50.6046L37.8673 50.6046C37.8673 50.8556 37.824 51.1048 37.7393 51.3411C37.6189 51.6768 37.2492 51.8514 36.9134 51.7311C36.5777 51.6107 36.4031 51.241 36.5235 50.9053C36.5581 50.8088 36.5758 50.707 36.5758 50.6046M36.5758 50.6045C36.5758 50.4875 36.5527 50.3716 36.5079 50.2635C36.4631 50.1554 36.3975 50.0572 36.3148 49.9744C36.232 49.8917 36.1338 49.826 36.0256 49.7813C35.9175 49.7365 35.8016 49.7134 35.6846 49.7134" fill="#1C3745"/>
<path fill-rule="evenodd" clip-rule="evenodd" d="M32.549 66.3315C32.9038 66.2953 33.2208 66.5536 33.257 66.9084C33.3184 67.5101 33.6009 68.0677 34.0498 68.4731C34.4986 68.8785 35.082 69.1029 35.6868 69.1029C36.2917 69.1029 36.875 68.8785 37.3239 68.4731C37.7728 68.0677 38.0553 67.5101 38.1167 66.9084C38.1529 66.5536 38.4699 66.2953 38.8247 66.3315C39.1795 66.3677 39.4377 66.6847 39.4015 67.0395C39.3077 67.9594 38.8758 68.8118 38.1896 69.4316C37.5033 70.0513 36.6115 70.3944 35.6868 70.3944C34.7621 70.3944 33.8703 70.0513 33.1841 69.4316C32.4979 68.8118 32.066 67.9594 31.9721 67.0395C31.9359 66.6847 32.1942 66.3677 32.549 66.3315Z" fill="#1C3745"/>
</g>
</g>
<defs>
<filter id="filter0_f_3345_139936" x="-0.763672" y="-0.609375" width="51.5703" height="56.5664" filterUnits="userSpaceOnUse" color-interpolation-filters="sRGB">
<feFlood flood-opacity="0" result="BackgroundImageFix"/>
<feBlend mode="normal" in="SourceGraphic" in2="BackgroundImageFix" result="shape"/>
<feGaussianBlur stdDeviation="1" result="effect1_foregroundBlur_3345_139936"/>
</filter>
<filter id="filter1_f_3345_139936" x="36.3438" y="-0.402344" width="43.6582" height="69.3984" filterUnits="userSpaceOnUse" color-interpolation-filters="sRGB">
<feFlood flood-opacity="0" result="BackgroundImageFix"/>
<feBlend mode="normal" in="SourceGraphic" in2="BackgroundImageFix" result="shape"/>
<feGaussianBlur stdDeviation="1" result="effect1_foregroundBlur_3345_139936"/>
</filter>
<filter id="filter2_f_3345_139936" x="-0.453125" y="37.25" width="72.1787" height="44.0859" filterUnits="userSpaceOnUse" color-interpolation-filters="sRGB">
<feFlood flood-opacity="0" result="BackgroundImageFix"/>
<feBlend mode="normal" in="SourceGraphic" in2="BackgroundImageFix" result="shape"/>
<feGaussianBlur stdDeviation="1" result="effect1_foregroundBlur_3345_139936"/>
</filter>
<filter id="filter3_f_3345_139936" x="23.6504" y="45.4219" width="24.0713" height="27.9727" filterUnits="userSpaceOnUse" color-interpolation-filters="sRGB">
<feFlood flood-opacity="0" result="BackgroundImageFix"/>
<feBlend mode="normal" in="SourceGraphic" in2="BackgroundImageFix" result="shape"/>
<feGaussianBlur stdDeviation="1.5" result="effect1_foregroundBlur_3345_139936"/>
</filter>
<clipPath id="clip0_3345_139936">
<rect width="80" height="80" fill="white" transform="translate(0 0.5)"/>
</clipPath>
</defs>
</svg>
