<?xml version="1.0" encoding="UTF-8"?>
<svg width="71px" height="74px" viewBox="0 0 71 74" version="1.1" xmlns="http://www.w3.org/2000/svg" xmlns:xlink="http://www.w3.org/1999/xlink">
    <!-- Generator: Sketch 58 (84663) - https://sketch.com -->
    <title>Group</title>
    <desc>Created with Sketch.</desc>
    <defs>
        <path d="M29.5,59 C45.7924001,59 59,45.7924001 59,29.5 C59,13.2075999 45.7924001,0 29.5,0 C13.2075999,0 0,13.2075999 0,29.5 C0,45.7924001 13.2075999,59 29.5,59 Z" id="path-1"></path>
    </defs>
    <g id="Add-wallet" stroke="none" stroke-width="1" fill="none" fill-rule="evenodd">
        <g id="Artboard-Copy-3" transform="translate(-11.000000, 0.000000)">
            <g id="Group" transform="translate(11.000000, 0.000000)">
                <g id="Currency/Large/Ethereum" transform="translate(0.000000, 15.000000)">
                    <g id="item-ico-backup">
                        <mask id="mask-2" fill="white">
                            <use xlink:href="#path-1"></use>
                        </mask>
                        <use id="Mask" fill="#401DF0" opacity="0.100000001" xlink:href="#path-1"></use>
                    </g>
                    <g id="path0" transform="translate(17.700000, 9.440000)" fill="#6B71D6">
                        <path d="M12.2208458,0.966689628 C12.1352055,1.17381842 9.54730631,5.56514096 6.46995868,10.7252197 C3.39261104,15.8851918 0.849168753,20.1747107 0.81770044,20.2575195 C0.776833871,20.3651923 2.44866723,21.4162029 6.67988823,23.942726 L12.5994159,27.4772545 L18.5172541,23.9408052 C22.76875,21.4000893 24.4189356,20.3615641 24.3776467,20.2527174 C24.16381,19.6894893 12.6561223,0.589994808 12.5305658,0.589994808 C12.4458759,0.589994808 12.3064861,0.759454121 12.2208458,0.966689628 M0.831745023,22.7995159 C1.0598375,23.1936048 12.5505239,39.5314888 12.5985711,39.5299948 C12.6779811,39.5275404 24.4260107,22.7510685 24.3807347,22.7050754 C24.3377305,22.6618569 13.3566618,29.1975654 12.8985761,29.5389384 L12.6177901,29.7483081 L6.93226833,26.3561339 C3.80518386,24.4904808 1.13122199,22.8887275 0.990142574,22.7968481 C0.75624219,22.6445695 0.742197607,22.6447829 0.831745023,22.7995159" id="Shape"></path>
                    </g>
                </g>
                <g id="Group-6" opacity="0.5" transform="translate(37.000000, 0.000000)" fill="#6B71D6">
                    <path d="M13,16.380844 C15.8252355,16.3677317 18.2104917,15.0496582 20.1557688,12.4266234 C22.1010459,9.80358862 23.1846682,6.66138082 23.4066359,3 C23.5018136,6.71685396 24.5170566,9.85906177 26.4523651,12.4266234 C28.3876735,14.9941851 30.9035518,16.3122586 34,16.380844 C30.8996169,16.370913 28.3837386,17.6775312 26.4523651,20.3006986 C24.5209915,22.9238659 23.5368698,26.1569664 23.5,30 C23.1185327,26.0437569 22.003789,22.8106564 20.1557688,20.3006986 C18.3077486,17.7907407 15.9224924,16.4841225 13,16.380844 Z" id="Path-2"></path>
                    <path d="M0,5.44234385 C1.00337348,5.43599923 1.97023517,4.79822172 2.90058507,3.52901133 C3.83093497,2.25980095 4.34918915,1.08346384 4.45534761,0 C4.50086737,1.11030568 4.98641839,2.28664279 5.91200069,3.52901133 C6.83758298,4.77137988 7.86691609,5.40915738 9,5.44234385 C7.86503418,5.43753854 6.83570108,6.06977315 5.91200069,7.33904769 C4.98830029,8.60832222 4.5176334,9.82863966 4.5,11 C4.31755911,9.77386086 3.7844208,8.55354342 2.90058507,7.33904769 C2.01674934,6.12455195 1.04988765,5.49231734 0,5.44234385 Z" id="Path-2-Copy"></path>
                    <path d="M9,29.4500313 C9.69972982,29.4445327 10.4301924,28.8917922 11.1913878,27.7918098 C11.9525832,26.6918275 12.3766093,25.7612242 12.4634662,25 C12.5007097,25.7844871 12.8979787,26.7150904 13.6552733,27.7918098 C14.4125679,28.8685292 15.1941435,29.4212697 16,29.4500313 C15.1926037,29.4458667 14.4110282,29.9938034 13.6552733,31.0938413 C12.8995184,32.1938793 12.5144273,33.1625988 12.5,34 C12.3507302,33.1151239 11.9145261,32.1464043 11.1913878,31.0938413 C10.4682495,30.0412784 9.73778687,29.4933417 9,29.4500313 Z" id="Path-2-Copy-2"></path>
                </g>
            </g>
        </g>
    </g>
</svg>