<svg width="853" height="576" viewBox="0 0 853 576" fill="none" xmlns="http://www.w3.org/2000/svg">
<ellipse rx="211.199" ry="59.643" transform="matrix(0.999339 -0.0363634 0.114123 0.993467 422.733 453.918)" fill="#536CEA"/>
<path d="M629.792 444.55C638.867 475.628 549.367 509.397 424.867 506.02C303.867 512.493 194.48 490.342 207.674 459.91C220.867 429.477 266.986 389.4 411.926 392.976C556.867 396.553 620.717 413.471 629.792 444.55Z" fill="#C6CBF8"/>
<path opacity="0.5" d="M473.367 411.749L411.867 441.015L317.867 415.97L411.867 444.111C345.268 449.885 255.367 467.468 255.367 467.468C255.367 467.468 350 455.5 411.867 447.488C381.642 463.575 343 493 343 493C343 493 395 463 421.367 447.488C436 468.5 466 495.5 466 495.5C466 495.5 438.5 463.5 426.367 447.488C484.44 470.08 561.678 477.218 553.367 475.628C545.056 474.039 473.367 458 426.367 444.111L595.367 430.603L421.367 441.015L473.367 411.749Z" fill="#536CEA"/>
<ellipse opacity="0.1" cx="677.5" cy="375" rx="106.5" ry="26" fill="black"/>
<path opacity="0.1" d="M682.5 353.5L675 368.5L663 361.5L671.5 371L592 366.5L671.5 375L656.5 395L678 375L736 386.5L682.5 371L740 363.5L678 368.5L682.5 353.5Z" fill="black"/>
<path opacity="0.1" d="M314 350.5C314 354.417 305.429 357.972 291.5 360.581C284.288 361.933 242 352 242 352C242 352 283.5 365 234 365C189.817 365 154 358.508 154 350.5C154 342.492 189.817 336 234 336C278.183 336 314 342.492 314 350.5Z" fill="black"/>
<path opacity="0.1" d="M222 338.5V347L170 350.5H226L216.5 358.5L233.5 349.5L244.5 361L235 348.5L279 347H235.5H230L244.5 338.5L224.5 347L222 338.5Z" fill="black"/>
<ellipse opacity="0.1" cx="104" cy="441.5" rx="60" ry="14.5" fill="black"/>
<path opacity="0.1" d="M800 479.5C800 490.822 764.183 500 720 500C697.171 500 676.575 497.55 662 493.619C655.541 491.878 700 479.5 700 479.5C700 479.5 640 482.38 640 479.5C640 468.178 675.817 459 720 459C764.183 459 800 468.178 800 479.5Z" fill="black"/>
<path d="M308.5 272C321.5 278.5 335 323.5 335 323.5C339.769 342.08 341.934 352.291 334 365.75L349 399.5C349.927 390.487 370 399.5 349 422.5C328 445.5 332.5 451.5 325.5 461.5C322.298 466.073 314.11 463.983 311 459.5C307.31 454.18 309.546 446.015 318.5 449L329 432.5L305.5 446C305.5 446 296 450.648 293 443.5C291.351 439.571 293.177 436.637 295.155 434.793C279.944 443.013 273.385 415.962 293 422.5L335 406C260.829 320.85 295.5 265.5 308.5 272Z" fill="#536CEA"/>
<path d="M314.5 317.5L334 366L335 364.5C332.718 348.899 333.369 339.805 335 323.5L336.5 318C336.5 318 329 334.5 331 354L314.5 317.5Z" fill="black"/>
<path opacity="0.3" d="M299.5 432C296.5 432.5 293 437.5 293 437.5C293 437.5 294.5 431 299.5 430.5C304.5 430 306 435 306 435C306 435 302.5 431.5 299.5 432Z" fill="black"/>
<path d="M478.5 371.664C478.5 223.593 357 227.31 357 371.664C357 423.396 478.5 422.157 478.5 371.664Z" fill="black"/>
<path d="M504.5 352C495 418.5 343 418 334 361C325 304 366 274.326 369.5 243C373 211.674 460 196.823 468 235C476 273.177 514 285.5 504.5 352Z" fill="#536CEA"/>
<path opacity="0.04" d="M369.5 243C371.183 232.795 460 196.823 468 235L476.785 258.119C477.047 258.717 477.286 259.343 477.5 260L476.785 258.119C469.256 240.958 442.5 247.685 442.5 253C442.5 258.5 377.988 254.5 371.5 257C366.402 258.965 363.141 263.399 361.978 265.209C361.822 265.47 361.663 265.733 361.5 266C361.5 266 361.661 265.702 361.978 265.209C366.295 257.976 367.876 252.849 369.5 243Z" fill="black"/>
<path fill-rule="evenodd" clip-rule="evenodd" d="M468.78 238.913C459.997 242.538 450.623 245.546 440.779 247.807C415.291 253.663 390.458 253.646 369.125 248.833C369.412 247.473 369.635 246.113 369.788 244.749C373.288 213.423 460.288 198.572 468.288 236.749C468.441 237.48 468.605 238.201 468.78 238.913Z" fill="black"/>
<ellipse cx="420" cy="167" rx="120" ry="80" transform="rotate(-12.9391 420 167)" fill="#536CEA"/>
<path opacity="0.3" d="M497.608 171.369C493.351 186.56 477.235 230.418 429 241.5C380.765 252.582 329 229 315.5 209.5C302 190 299.5 133 341.865 141.177C354.709 132.921 371.865 155.677 402.865 141.177C433.865 126.677 437.423 150.012 454.365 145.355C472.127 140.472 472.865 127.677 487.865 127.677C502.865 127.677 501.865 156.177 497.608 171.369Z" fill="white"/>
<path d="M407.481 92.1893C408.503 117.278 399.276 140.583 374.599 139.031C349.922 137.478 332.316 121.533 338.016 95.0191C343.716 68.5047 360.387 48.467 381.165 49.7745C401.944 51.0819 406.7 73.0116 407.481 92.1893Z" fill="black"/>
<path d="M408.189 92.3052C409.138 115.597 399.844 137.263 375.174 135.893C350.505 134.523 332.947 119.77 338.723 95.135C344.5 70.5 361.228 51.8465 382 52.9999C402.772 54.1533 407.464 74.5011 408.189 92.3052Z" fill="white"/>
<path d="M480.231 88.8225C482.657 113.252 468.5 130.751 449.443 136.55C430.386 142.35 412.295 120.241 409.868 95.8114C407.442 71.382 419.49 48.0716 440.656 48.0837C461.822 48.0959 477.804 64.3932 480.231 88.8225Z" fill="black"/>
<path d="M479.266 88.5872C481.544 111.527 467.567 128.027 448.828 133.557C430.089 139.087 412.417 118.393 410.139 95.4533C407.86 72.5132 419.791 50.5624 440.577 50.4835C461.362 50.4045 476.987 65.6471 479.266 88.5872Z" fill="white"/>
<path d="M489 368.664C489 220.593 348 224.31 348 368.664C348 420.396 489 419.157 489 368.664Z" fill="#9FAAF3"/>
<path d="M434 436C442.016 425.47 446.775 421.958 456.5 415C466.275 423.116 470.844 429.935 474.5 440C467.5 436 458.5 434.5 454.5 442.5C451.81 443.394 450.472 439.27 448.5 442.5C443 431.5 441.5 438.5 434 436Z" fill="#7688EE"/>
<path d="M463.5 415.5C463.5 415.5 486 332.5 469.5 274C469.5 274 458.5 260.5 452 270.5C472.5 298.5 452 402 448.5 413.5C445 425 432 434.5 432 434.5C424.959 436.999 425.172 442.246 428.5 445C432.498 448.308 440.546 448.277 440 439C444 432.5 447 422.5 452 421C451.692 429.412 450.262 438.37 447 445C441.45 450.045 445.327 453.607 450 453.5C454.589 453.395 459.964 449.707 456 445C455.477 436.984 456.058 427.767 459.5 421C467.64 426.336 467.738 435.314 467.5 442.5C466.526 448.586 471.598 450.573 475.5 448.5C479.613 446.315 482.427 439.822 475.5 437C471.858 430.862 469.982 422.47 463.5 415.5Z" fill="#536CEA"/>
<path d="M371.5 421.5C362.75 424.599 357.268 428.174 354 434.5C360.501 437.589 364.841 439.046 369.5 446.5H374.5C380.17 438.612 381.806 436.822 389.5 434.5C383.352 426.847 381.274 423.962 371.5 421.5Z" fill="#7688EE"/>
<path d="M367 417.5C363.9 362.027 363.5 280.5 372.5 272C381.5 263.5 388 267 388 267C379 290.5 379 361.5 381.5 417.5C383.994 424.152 393 433.5 393 433.5C400.763 433.5 401.25 439.496 397.5 443.5C394.004 447.232 385.5 444 388 436.5C386 430.5 381.5 428 376.5 424C378.607 432.358 378.288 440.055 377 448.5C382 454.5 375.5 458.5 370.5 458.5C365.5 458.5 360.5 451.5 367 448.5C368.717 439.816 371.959 432.152 370.5 424C365.024 423.475 357.675 430.428 355 438.5C356.5 445.5 352 447.789 347.5 446C343 444.211 341.5 437 348.5 434.5C355.02 425.233 359.061 424.228 367 417.5Z" fill="#536CEA"/>
<path d="M538 278.5C507.607 242.556 504.5 324 504.5 324L502 361.5L481 405.5C481 398 467.602 402.588 473.5 414.5C495.5 443.5 509 462.5 509 462.5C509 462.5 515.519 474 521.5 466C527.481 458 518.252 449.928 517 454.5L509 442C512.64 441.03 524 459 532 457C538.364 455.409 545.489 449.509 541.509 444.512C541.64 444.67 543.115 446.293 545.5 442C548 437.5 541.832 427.795 534.5 432.5C521.703 422.869 497.5 407 497.5 407C509.157 401.45 568.393 314.444 538 278.5Z" fill="#536CEA"/>
<path d="M524.5 320.5L498 369.5C509.365 337.83 507.5 329.5 502.5 305.5C508.5 323 512.433 331.51 503.5 356L524.5 320.5Z" fill="black"/>
<ellipse cx="374.5" cy="96" rx="21.5" ry="27" fill="#4F4F4F"/>
<ellipse cx="374.5" cy="95.5" rx="13.5" ry="17.5" fill="#333333"/>
<ellipse cx="369" cy="86" rx="8" ry="9" fill="white"/>
<ellipse cx="364" cy="104.375" rx="3" ry="3.375" fill="white"/>
<path d="M341 193.5C322.5 208.5 336.5 181 336.5 181C334.042 182.863 325.291 200.656 333.5 199.5C335.241 199.255 339.176 196.604 342.5 194.5C361.5 182.473 437.598 155.322 496.5 161C505.5 163 505 167.5 505.5 168C506 168.5 506 166.5 506 166.5C505 162.5 502.379 159.68 496.5 159C443.849 152.912 357.642 180.007 341 193.5Z" fill="black"/>
<circle cx="409.5" cy="145.5" r="1.5" fill="#333333"/>
<circle cx="417.5" cy="144.5" r="1.5" fill="#333333"/>
<ellipse opacity="0.3" cx="287.5" cy="425" rx="3.5" ry="2" fill="white"/>
<ellipse opacity="0.3" cx="537.5" cy="434" rx="3.5" ry="2" fill="white"/>
<ellipse opacity="0.3" cx="531.5" cy="446" rx="2.5" ry="2" fill="white"/>
<ellipse opacity="0.3" cx="518.5" cy="456.5" rx="2.5" ry="3.5" fill="white"/>
<path opacity="0.3" d="M306 438.5C306 439.881 306.433 440.5 304.5 440.5C302.567 440.5 297 436.881 297 435.5C297 434.119 298.567 433 300.5 433C303.5 432.5 306 437.119 306 438.5Z" fill="white"/>
<path opacity="0.3" d="M323 454C323 455.381 321.933 456 320 456C318.067 456 313 451.381 313 450C313 448.619 315.567 449 317.5 449C319.433 449 323 452.619 323 454Z" fill="white"/>
<path opacity="0.3" d="M313.5 448.5C313.5 448.5 320.5 447.5 322.5 453C323 445.5 313.5 448.5 313.5 448.5Z" fill="black"/>
<path opacity="0.1" d="M310 278C304.892 273.455 302.128 276.516 299.387 280.055L300.5 286.5C302.5 295 317.655 298.011 319 296.5C321.975 293.156 315.108 282.545 310 278Z" fill="white"/>
<path opacity="0.1" d="M353.199 398.121C351.199 397.621 350.801 405.5 352 406.5C353.199 407.5 351.699 410.69 354 410C356.301 409.31 358 409 357.199 403.621C356.397 398.241 355.199 398.621 353.199 398.121Z" fill="black"/>
<path opacity="0.1" d="M473.542 405.015C471.896 404.682 471.569 409.935 472.555 410.602C473.542 411.269 472.307 413.396 474.202 412.935C476.096 412.475 477.494 412.269 476.834 408.682C476.175 405.096 475.188 405.349 473.542 405.015Z" fill="black"/>
<ellipse opacity="0.1" cx="317.931" cy="460.098" rx="7" ry="4" transform="rotate(19.3975 317.931 460.098)" fill="black"/>
<path opacity="0.1" d="M520.085 466.571C519.537 468.129 517.03 468.665 514.486 467.77C511.942 466.874 512.256 465.714 512.805 464.156C513.353 462.598 514.48 463.167 517.024 464.062C519.568 464.958 520.634 465.014 520.085 466.571Z" fill="black"/>
<path opacity="0.1" d="M535.227 454.841C534.678 456.398 532.171 456.935 529.627 456.039C527.083 455.143 527.398 453.983 527.946 452.425C528.495 450.868 529.621 451.436 532.165 452.332C534.709 453.227 535.775 453.283 535.227 454.841Z" fill="black"/>
<path opacity="0.1" d="M545.227 442.84C544.679 444.398 542.172 444.935 539.628 444.039C537.084 443.143 541.452 443.057 542 441.5C542.548 439.942 544 437 544.5 437C547.044 437.896 545.776 441.283 545.227 442.84Z" fill="black"/>
<ellipse opacity="0.1" cx="298.5" cy="443.271" rx="5.62037" ry="3.60904" transform="rotate(19.3975 298.5 443.271)" fill="black"/>
<ellipse opacity="0.1" cx="287.5" cy="432.271" rx="5.62037" ry="3.60904" transform="rotate(19.3975 287.5 432.271)" fill="black"/>
<path opacity="0.1" d="M517.5 282.5C508.5 303 504 308.5 512 314C520 319.5 529.5 300.5 529.5 291.5C529.5 282.5 526.5 262 517.5 282.5Z" fill="white"/>
<path opacity="0.3" d="M519 374.5L541.5 311.5C541.5 311.5 536.5 338 532.5 347C528.5 356 519 374.5 519 374.5Z" fill="white"/>
<path opacity="0.3" d="M322 383C308.432 359.579 302.63 344.927 295 316.5C295 316.5 298.5 341.5 303.5 354C308.5 366.5 322 383 322 383Z" fill="white"/>
<path opacity="0.3" d="M541.5 444.5C545.274 447.208 540.5 452.5 540.5 452.5C544 446 536.5 444 529 445L529.5 444.5C529.204 443.735 537.726 441.792 541.5 444.5Z" fill="black"/>
<path opacity="0.3" d="M479 409.5L481 405.5C480.812 404.171 480.647 403.085 480 403L479 409.5Z" fill="black"/>
<path opacity="0.2" d="M368.5 390C366.71 388.687 368.597 305.964 370 307.5C371.384 309.015 369.689 355.421 371.426 355.522C371.451 355.512 371.475 355.504 371.5 355.5C371.475 355.516 371.45 355.524 371.426 355.522C368.798 356.641 370.274 391.301 368.5 390Z" fill="white"/>
<path opacity="0.2" d="M470.231 312.021C479.736 309.437 467.947 396.043 464.66 398.451C464.605 398.498 464.551 398.515 464.5 398.5C464.551 398.508 464.604 398.492 464.66 398.451C467.5 396.045 475.424 314.21 470.231 312.021Z" fill="white"/>
<path d="M387.5 263C380.078 313.604 378.303 347.205 381 402H381.5C380.685 348.248 382.427 310.664 390 259L387.5 263Z" fill="black"/>
<path d="M456.69 266C460.912 316.801 460.196 350.418 450.189 405H450.689C462.161 351.496 462.477 313.884 459.19 262L456.69 266Z" fill="black"/>
<path d="M365.5 286C362.545 334.266 362.202 336 364 385L364.5 385.5C363.685 331.748 365 320 368 280.5L365.5 286Z" fill="black"/>
<path d="M473.5 295C477.692 340.583 475.398 343.976 467.1 396.5L467.6 397C479.269 344.361 479.188 331.332 475 291L473.5 295Z" fill="black"/>
<path d="M351 404.5L315.5 316L311 311.5L348.5 403.5L351 404.5Z" fill="black"/>
<ellipse cx="446.5" cy="92" rx="21.5" ry="27" fill="#4F4F4F"/>
<ellipse cx="446.5" cy="91.5" rx="13.5" ry="17.5" fill="#333333"/>
<ellipse cx="441" cy="82" rx="8" ry="9" fill="white"/>
<ellipse cx="441" cy="104.375" rx="3" ry="3.375" fill="white"/>
<path d="M478.943 409.988C494.986 373.309 503.97 352.769 523 322L526 319C505.038 354.462 496.904 374.18 480.5 411H478.5L478.943 409.988Z" fill="black"/>
<path opacity="0.1" d="M713 464L721 475.5L670.5 472.5L719.5 478L681 493L726 479L728.5 493V479L785 481L728.5 477L757.5 467.5L724 475.5L713 464Z" fill="black"/>
<path opacity="0.1" d="M104 430L101 438L56 440L99.5 442L83 450.5L104 443.5L112 450.5L108 443.5L145.5 440H108L125 430L104 438V430Z" fill="black"/>
</svg>
