<svg width="853" height="576" viewBox="0 0 853 576" fill="none" xmlns="http://www.w3.org/2000/svg">
<ellipse rx="211.199" ry="59.643" transform="matrix(0.999339 -0.0363634 0.114123 0.993467 418.733 457.918)" fill="#536CEA"/>
<path d="M625.792 448.55C634.867 479.628 545.367 513.397 420.867 510.02C299.867 516.493 190.48 494.342 203.674 463.91C216.867 433.477 262.986 393.4 407.926 396.976C552.867 400.553 616.717 417.471 625.792 448.55Z" fill="#C6CBF8"/>
<path opacity="0.5" d="M469.367 415.749L407.867 445.015L313.867 419.97L407.867 448.111C341.268 453.885 251.367 471.468 251.367 471.468C251.367 471.468 346 459.5 407.867 451.488C377.642 467.575 339 497 339 497C339 497 391 467 417.367 451.488C432 472.5 462 499.5 462 499.5C462 499.5 434.5 467.5 422.367 451.488C480.44 474.08 557.678 481.218 549.367 479.628C541.056 478.039 469.367 462 422.367 448.111L591.367 434.603L417.367 445.015L469.367 415.749Z" fill="#536CEA"/>
<ellipse opacity="0.2" cx="673.5" cy="379" rx="106.5" ry="26" fill="white"/>
<path opacity="0.3" d="M678.5 357.5L671 372.5L659 365.5L667.5 375L588 370.5L667.5 379L652.5 399L674 379L732 390.5L678.5 375L736 367.5L674 372.5L678.5 357.5Z" fill="white"/>
<path opacity="0.2" d="M310 354.5C310 358.417 301.429 361.972 287.5 364.581C280.288 365.933 238 356 238 356C238 356 279.5 369 230 369C185.817 369 150 362.508 150 354.5C150 346.492 185.817 340 230 340C274.183 340 310 346.492 310 354.5Z" fill="white"/>
<path opacity="0.3" d="M218 342.5V351L166 354.5H222L212.5 362.5L229.5 353.5L240.5 365L231 352.5L275 351H231.5H226L240.5 342.5L220.5 351L218 342.5Z" fill="white"/>
<ellipse opacity="0.2" cx="100" cy="445.5" rx="60" ry="14.5" fill="white"/>
<path opacity="0.2" d="M796 483.5C796 494.822 760.183 504 716 504C693.171 504 672.575 501.55 658 497.619C651.541 495.878 696 483.5 696 483.5C696 483.5 636 486.38 636 483.5C636 472.178 671.817 463 716 463C760.183 463 796 472.178 796 483.5Z" fill="white"/>
<path d="M304.5 276C317.5 282.5 331 327.5 331 327.5C335.769 346.08 337.934 356.291 330 369.75L345 403.5C345.927 394.487 366 403.5 345 426.5C324 449.5 328.5 455.5 321.5 465.5C318.299 470.073 310.11 467.983 307 463.5C303.31 458.18 305.546 450.015 314.5 453L325 436.5L301.5 450C301.5 450 292 454.648 289 447.5C287.351 443.571 289.177 440.637 291.156 438.793C275.944 447.013 269.385 419.962 289 426.5L331 410C256.829 324.85 291.5 269.5 304.5 276Z" fill="#536CEA"/>
<path d="M310.5 321.5L330 370L331 368.5C328.718 352.899 329.369 343.805 331 327.5L332.5 322C332.5 322 325 338.5 327 358L310.5 321.5Z" fill="black"/>
<path opacity="0.3" d="M295.5 436C292.5 436.5 289 441.5 289 441.5C289 441.5 290.5 435 295.5 434.5C300.5 434 302 439 302 439C302 439 298.5 435.5 295.5 436Z" fill="black"/>
<path d="M500.5 356C491 422.5 339 422 330 365C321 308 362 278.326 365.5 247C369 215.674 456 200.823 464 239C472 277.177 510 289.5 500.5 356Z" fill="#536CEA"/>
<path opacity="0.04" d="M365.5 247C367.183 236.795 456 200.823 464 239L472.785 262.119C473.048 262.717 473.287 263.343 473.5 264L472.785 262.119C465.256 244.958 438.5 251.685 438.5 257C438.5 262.5 373.988 258.5 367.5 261C362.402 262.964 359.141 267.399 357.978 269.209C357.823 269.469 357.663 269.733 357.5 270C357.5 270 357.661 269.702 357.978 269.209C362.296 261.976 363.876 256.849 365.5 247Z" fill="black"/>
<path fill-rule="evenodd" clip-rule="evenodd" d="M464.78 242.913C455.997 246.538 446.623 249.546 436.78 251.807C411.291 257.663 386.459 257.646 365.125 252.833C365.412 251.473 365.636 250.113 365.788 248.749C369.288 217.423 456.288 202.572 464.288 240.749C464.441 241.48 464.605 242.201 464.78 242.913Z" fill="black"/>
<ellipse cx="416" cy="171" rx="120" ry="80" transform="rotate(-12.9391 416 171)" fill="#536CEA"/>
<path opacity="0.3" d="M493.608 175.369C489.351 190.56 473.235 234.418 425 245.5C376.765 256.582 325 233 311.5 213.5C298 194 295.5 137 337.865 145.177C350.709 136.921 367.865 159.677 398.865 145.177C429.865 130.677 433.423 154.012 450.365 149.355C468.127 144.472 468.865 131.677 483.865 131.677C498.865 131.677 497.865 160.177 493.608 175.369Z" fill="white"/>
<path d="M403.482 96.1893C404.504 121.278 395.276 144.583 370.599 143.031C345.923 141.478 328.316 125.533 334.016 99.0191C339.716 72.5047 356.387 52.467 377.166 53.7745C397.944 55.0819 402.7 77.0116 403.482 96.1893Z" fill="black"/>
<path d="M404.19 96.3052C405.138 119.597 395.844 141.263 371.175 139.893C346.505 138.523 328.947 123.77 334.724 99.135C340.5 74.5 357.228 55.8465 378 56.9999C398.772 58.1533 403.464 78.5011 404.19 96.3052Z" fill="white"/>
<path d="M476.231 92.8226C478.658 117.252 464.5 134.751 445.443 140.55C426.387 146.35 408.295 124.241 405.868 99.8114C403.442 75.3821 415.49 52.0717 436.656 52.0838C457.822 52.0959 473.805 68.3933 476.231 92.8226Z" fill="black"/>
<path d="M475.266 92.5872C477.545 115.527 463.567 132.027 444.828 137.557C426.089 143.087 408.417 122.393 406.139 99.4533C403.86 76.5132 415.791 54.5624 436.577 54.4835C457.362 54.4045 472.987 69.6471 475.266 92.5872Z" fill="white"/>
<path d="M475.5 375.664C475.5 227.593 354 231.31 354 375.664C354 427.396 475.5 426.157 475.5 375.664Z" fill="black"/>
<path d="M485 372.664C485 224.593 344 228.31 344 372.664C344 424.396 485 423.157 485 372.664Z" fill="#9FAAF3"/>
<path d="M430 440C438.016 429.47 442.775 425.958 452.5 419C462.275 427.116 466.845 433.935 470.5 444C463.5 440 454.5 438.5 450.5 446.5C447.81 447.394 446.472 443.27 444.5 446.5C439 435.5 437.5 442.5 430 440Z" fill="#7688EE"/>
<path d="M459.5 419.5C459.5 419.5 482 336.5 465.5 278C465.5 278 454.5 264.5 448 274.5C468.5 302.5 448 406 444.5 417.5C441 429 428 438.5 428 438.5C420.959 440.999 421.172 446.246 424.5 449C428.498 452.308 436.546 452.277 436 443C440 436.5 443 426.5 448 425C447.692 433.412 446.263 442.37 443 449C437.451 454.045 441.328 457.607 446 457.5C450.59 457.395 455.964 453.707 452 449C451.477 440.984 452.058 431.767 455.5 425C463.641 430.336 463.738 439.314 463.5 446.5C462.526 452.586 467.598 454.573 471.5 452.5C475.613 450.315 478.427 443.822 471.5 441C467.858 434.862 465.983 426.47 459.5 419.5Z" fill="#536CEA"/>
<path d="M367.5 425.5C358.751 428.599 353.268 432.174 350 438.5C356.501 441.589 360.841 443.046 365.5 450.5H370.5C376.17 442.612 377.806 440.822 385.5 438.5C379.353 430.847 377.275 427.962 367.5 425.5Z" fill="#7688EE"/>
<path d="M363 421.5C359.9 366.027 359.5 284.5 368.5 276C377.5 267.5 384 271 384 271C375 294.5 375 365.5 377.5 421.5C379.994 428.152 389 437.5 389 437.5C396.763 437.5 397.25 443.496 393.5 447.5C390.005 451.232 381.5 448 384 440.5C382 434.5 377.5 432 372.5 428C374.607 436.358 374.289 444.055 373 452.5C378 458.5 371.5 462.5 366.5 462.5C361.5 462.5 356.5 455.5 363 452.5C364.718 443.816 367.959 436.152 366.5 428C361.025 427.475 353.675 434.428 351 442.5C352.5 449.5 348 451.789 343.5 450C339 448.211 337.5 441 344.5 438.5C351.02 429.233 355.061 428.228 363 421.5Z" fill="#536CEA"/>
<path d="M534 282.5C503.607 246.556 500.5 328 500.5 328L498 365.5L477 409.5C477 402 463.602 406.588 469.5 418.5C491.5 447.5 505 466.5 505 466.5C505 466.5 511.519 478 517.5 470C523.481 462 514.252 453.928 513 458.5L505 446C508.64 445.03 520 463 528 461C534.364 459.409 541.489 453.509 537.509 448.512C537.64 448.67 539.115 450.293 541.5 446C544 441.5 537.832 431.795 530.5 436.5C517.703 426.869 493.5 411 493.5 411C505.157 405.45 564.393 318.444 534 282.5Z" fill="#536CEA"/>
<path d="M520.5 324.5L494 373.5C505.365 341.83 503.5 333.5 498.5 309.5C504.5 327 508.433 335.51 499.5 360L520.5 324.5Z" fill="black"/>
<ellipse cx="370.5" cy="100" rx="21.5" ry="27" fill="#4F4F4F"/>
<ellipse cx="370.5" cy="99.5" rx="13.5" ry="17.5" fill="#333333"/>
<ellipse cx="365" cy="90" rx="8" ry="9" fill="white"/>
<ellipse cx="360" cy="108.375" rx="3" ry="3.375" fill="white"/>
<path d="M337 197.5C318.5 212.5 332.5 185 332.5 185C330.042 186.863 321.291 204.656 329.5 203.5C331.241 203.255 335.176 200.604 338.5 198.5C357.5 186.473 433.598 159.322 492.5 165C501.5 167 501 171.5 501.5 172C502 172.5 502 170.5 502 170.5C501 166.5 498.379 163.68 492.5 163C439.849 156.912 353.642 184.007 337 197.5Z" fill="black"/>
<circle cx="405.5" cy="149.5" r="1.5" fill="#333333"/>
<circle cx="413.5" cy="148.5" r="1.5" fill="#333333"/>
<ellipse opacity="0.3" cx="283.5" cy="429" rx="3.5" ry="2" fill="white"/>
<ellipse opacity="0.3" cx="533.5" cy="438" rx="3.5" ry="2" fill="white"/>
<ellipse opacity="0.3" cx="527.5" cy="450" rx="2.5" ry="2" fill="white"/>
<ellipse opacity="0.3" cx="514.5" cy="460.5" rx="2.5" ry="3.5" fill="white"/>
<path opacity="0.3" d="M302 442.5C302 443.881 302.433 444.5 300.5 444.5C298.567 444.5 293 440.881 293 439.5C293 438.119 294.567 437 296.5 437C299.5 436.5 302 441.119 302 442.5Z" fill="white"/>
<path opacity="0.3" d="M319 458C319 459.381 317.933 460 316 460C314.067 460 309 455.381 309 454C309 452.619 311.567 453 313.5 453C315.433 453 319 456.619 319 458Z" fill="white"/>
<path opacity="0.3" d="M309.5 452.5C309.5 452.5 316.5 451.5 318.5 457C319 449.5 309.5 452.5 309.5 452.5Z" fill="black"/>
<path opacity="0.1" d="M306 282C300.892 277.455 298.128 280.516 295.387 284.055L296.5 290.5C298.5 299 313.656 302.011 315 300.5C317.975 297.156 311.108 286.545 306 282Z" fill="white"/>
<path opacity="0.1" d="M349.199 402.121C347.199 401.621 346.802 409.5 348 410.5C349.199 411.5 347.699 414.69 350 414C352.302 413.31 354 413 353.199 407.621C352.398 402.241 351.199 402.621 349.199 402.121Z" fill="black"/>
<path opacity="0.1" d="M469.542 409.015C467.896 408.682 467.569 413.935 468.555 414.602C469.542 415.269 468.307 417.396 470.202 416.935C472.096 416.475 473.494 416.269 472.834 412.682C472.175 409.096 471.188 409.349 469.542 409.015Z" fill="black"/>
<ellipse opacity="0.1" cx="313.931" cy="464.098" rx="7" ry="4" transform="rotate(19.3975 313.931 464.098)" fill="black"/>
<path opacity="0.1" d="M516.085 470.571C515.537 472.129 513.03 472.665 510.486 471.77C507.942 470.874 508.256 469.714 508.805 468.156C509.353 466.598 510.48 467.167 513.024 468.062C515.568 468.958 516.634 469.014 516.085 470.571Z" fill="black"/>
<path opacity="0.1" d="M531.227 458.841C530.679 460.398 528.172 460.935 525.628 460.039C523.084 459.143 523.398 457.983 523.947 456.425C524.495 454.868 525.622 455.436 528.166 456.332C530.71 457.227 531.776 457.283 531.227 458.841Z" fill="black"/>
<path opacity="0.1" d="M541.227 446.84C540.679 448.398 538.172 448.935 535.628 448.039C533.084 447.143 537.452 447.057 538 445.5C538.548 443.942 540 441 540.5 441C543.044 441.896 541.776 445.283 541.227 446.84Z" fill="black"/>
<ellipse opacity="0.1" cx="294.5" cy="447.271" rx="5.62037" ry="3.60904" transform="rotate(19.3975 294.5 447.271)" fill="black"/>
<ellipse opacity="0.1" cx="283.5" cy="436.271" rx="5.62037" ry="3.60904" transform="rotate(19.3975 283.5 436.271)" fill="black"/>
<path opacity="0.1" d="M513.5 286.5C504.5 307 500 312.5 508 318C516 323.5 525.5 304.5 525.5 295.5C525.5 286.5 522.5 266 513.5 286.5Z" fill="white"/>
<path opacity="0.3" d="M515 378.5L537.5 315.5C537.5 315.5 532.5 342 528.5 351C524.5 360 515 378.5 515 378.5Z" fill="white"/>
<path opacity="0.3" d="M318 387C304.433 363.579 298.63 348.927 291 320.5C291 320.5 294.5 345.5 299.5 358C304.5 370.5 318 387 318 387Z" fill="white"/>
<path opacity="0.3" d="M537.5 448.5C541.274 451.208 536.5 456.5 536.5 456.5C540 450 532.5 448 525 449L525.5 448.5C525.204 447.735 533.726 445.792 537.5 448.5Z" fill="black"/>
<path opacity="0.3" d="M475 413.5L477 409.5C476.812 408.171 476.647 407.085 476 407L475 413.5Z" fill="black"/>
<path opacity="0.2" d="M364.5 394C362.71 392.687 364.598 309.964 366 311.5C367.384 313.015 365.69 359.421 367.427 359.522C367.451 359.512 367.475 359.504 367.5 359.5C367.475 359.516 367.45 359.524 367.427 359.522C364.798 360.641 366.274 395.301 364.5 394Z" fill="white"/>
<path opacity="0.2" d="M466.231 316.021C475.736 313.437 463.947 400.043 460.66 402.451C460.605 402.498 460.551 402.515 460.5 402.5C460.551 402.508 460.604 402.492 460.66 402.451C463.5 400.045 471.424 318.21 466.231 316.021Z" fill="white"/>
<path d="M383.5 267C376.078 317.604 374.303 351.205 377 406H377.5C376.685 352.248 378.427 314.664 386 263L383.5 267Z" fill="black"/>
<path d="M452.69 270C456.912 320.801 456.196 354.418 446.189 409H446.689C458.161 355.496 458.477 317.884 455.19 266L452.69 270Z" fill="black"/>
<path d="M361.5 290C358.545 338.266 358.202 340 360 389L360.5 389.5C359.686 335.748 361 324 364 284.5L361.5 290Z" fill="black"/>
<path d="M469.5 299C473.692 344.583 471.398 347.976 463.1 400.5L463.6 401C475.269 348.361 475.188 335.332 471 295L469.5 299Z" fill="black"/>
<path d="M347 408.5L311.5 320L307 315.5L344.5 407.5L347 408.5Z" fill="black"/>
<ellipse cx="442.5" cy="96" rx="21.5" ry="27" fill="#4F4F4F"/>
<ellipse cx="442.5" cy="95.5" rx="13.5" ry="17.5" fill="#333333"/>
<ellipse cx="437" cy="86" rx="8" ry="9" fill="white"/>
<ellipse cx="437" cy="108.375" rx="3" ry="3.375" fill="white"/>
<path d="M474.943 413.988C490.986 377.309 499.97 356.769 519 326L522 323C501.038 358.462 492.904 378.18 476.5 415H474.5L474.943 413.988Z" fill="black"/>
<path opacity="0.3" d="M709 468L717 479.5L666.5 476.5L715.5 482L677 497L722 483L724.5 497V483L781 485L724.5 481L753.5 471.5L720 479.5L709 468Z" fill="white"/>
<path opacity="0.3" d="M100 434L97 442L52 444L95.5 446L79 454.5L100 447.5L108 454.5L104 447.5L141.5 444H104L121 434L100 442V434Z" fill="white"/>
</svg>
