<svg xmlns="http://www.w3.org/2000/svg" viewBox="0 0 253.87 251"><defs><style>.cls-1{fill:none;}.cls-2{fill:#eaeaea;}.cls-3{fill:#ec4a71;}.cls-4{fill:#d02f6c;}.cls-5{fill:#5172f2;}.cls-6{fill:#22449a;}.cls-7{fill:#3acda4;}.cls-8{fill:#1f988c;}.cls-9{fill:#fab25e;}.cls-10{fill:#c06e4d;}.cls-11{fill:#1c3d87;}.cls-12{fill:#9aa2ad;}.cls-13{fill:#98abf6;}.cls-14{fill:#303133;}.cls-15{fill:#434d59;}.cls-16{fill:#0d214d;}.cls-17{fill:#f5f6fb;}.cls-18{fill:#e6e6e6;}.cls-19,.cls-26{fill:#f9b76e;}.cls-19,.cls-20{fill-rule:evenodd;}.cls-20,.cls-27{fill:#f7931a;}.cls-21{fill:#7e7e7e;}.cls-22{fill:#fdfdfd;}.cls-23{fill:#b3b3b3;}.cls-24{fill:#d0d0f7;}.cls-25{fill:#6c74d3;}.cls-28{fill:#53ea89;}.cls-29{fill:#2fcf6e;}</style></defs><title>Asset 11@200x</title><g id="Layer_2" data-name="Layer 2"><g id="Layer_1-2" data-name="Layer 1"><path class="cls-1" d="M193.5,249.46c-88.09.21-116.32-31.38-116.32-31.38l1.67-11.85a21.3,21.3,0,0,0,3.41,3.35L107.82,81.39A48.05,48.05,0,0,1,103,78.28L109.84,51h0a124.5,124.5,0,0,1-34-51h-19V251h197v-6.39C238.58,247.42,218.84,249.4,193.5,249.46Z"/><path class="cls-2" d="M109.85,51s.63.37,1.75.95a17.39,17.39,0,0,1-2-7.64l-.16-.05c-3.37-1-7-4.48-8.32-6.8-3.62-6.28-2.38-11.19-2.17-12,0,0,0,0,.06,0,.07-.4.15-.79.25-1.19a16.56,16.56,0,0,1,20.17-11.87,16.25,16.25,0,0,1,10.33,8.44,16.46,16.46,0,0,1,17.75-7.11,16.52,16.52,0,0,1,20-11.28A16.29,16.29,0,0,1,178,11.3a16.15,16.15,0,0,1,19.75,1.24A16.4,16.4,0,0,1,215.37,6a16,16,0,0,1,6.47,3.46,16.15,16.15,0,0,1,18.46,4.92s0-.08,0-.12A16.67,16.67,0,0,1,253.87,2.07V0h-178A124.5,124.5,0,0,0,109.85,51Z"/><path class="cls-2" d="M130.72,59.91,131,60c0-.06,0-.1,0-.15Z"/><path class="cls-3" d="M134.63,44.05a17.78,17.78,0,0,1-5.21-5.25c-.24-.41-.45-.81-.64-1.21a16.69,16.69,0,0,1-3.62,4,15.26,15.26,0,0,1-10.72,3.57,16.32,16.32,0,0,1-2.59-.3l-.29,0c1.44,3.15,4,7.37,8,9.47,3.17,1.64,7.32,1.92,10.9,1.74A16.65,16.65,0,0,1,134.63,44.05Z"/><path class="cls-4" d="M130.72,59.91l.21-.06a11.65,11.65,0,0,1-.41-2.29s0-.05,0-.05c0-.38-.11-.77-.14-1.16,0-.12,0-.25,0-.37-3.58.18-7.73-.1-10.9-1.74-4-2.1-6.53-6.32-8-9.47-.65-.13-1.32-.3-2-.5a17.39,17.39,0,0,0,2,7.64A134.74,134.74,0,0,0,130.72,59.91Z"/><path class="cls-5" d="M144,62.78c3.64.56,8.11-.71,11.83-2.21,0-.2.08-.36.11-.46s0,0,.05,0c.08-.4.15-.8.26-1.19a16.8,16.8,0,0,1,5.09-8.27,17.49,17.49,0,0,1-7.71-6.56c-.17-.29-.32-.58-.46-.86A16.11,16.11,0,0,1,140.2,46.2a19.08,19.08,0,0,1-2.46-.6,12,12,0,0,1-3.11-1.55A16.65,16.65,0,0,0,130.43,56c0,.12,0,.25,0,.37,0,.39.09.78.14,1.16C131.15,57.52,136.53,61.66,144,62.78Z"/><path class="cls-6" d="M155.78,60.57c-3.72,1.5-8.19,2.77-11.83,2.21-7.42-1.12-12.8-5.26-13.38-5.27,0,0-.06,0,0,.05a11.65,11.65,0,0,0,.41,2.29s0,.09,0,.15a193.94,193.94,0,0,0,24.91,6.57A14.35,14.35,0,0,1,155.78,60.57Z"/><path class="cls-3" d="M222.93,58a17.87,17.87,0,0,1-1.77,1.6,15.26,15.26,0,0,1-10.73,3.57c-.11,0-.22,0-.33,0a16.64,16.64,0,0,1,2.35,7.1c5.73-.28,11.06-.73,16-1.3a16.61,16.61,0,0,1,2.44-4.87l-.12,0C227.73,63.13,224.52,60.25,222.93,58Z"/><path class="cls-7" d="M193.93,48.3a16.46,16.46,0,0,1-2.59-.3,23.07,23.07,0,0,1-2.46-.6,12.72,12.72,0,0,1-3.26-1.66,20.44,20.44,0,0,1-4.36-.86l-.3-.11a17.1,17.1,0,0,1-2.65,3,16.4,16.4,0,0,1,9.34,10A16.36,16.36,0,0,1,197,55.34a18.27,18.27,0,0,1-2.38-7Z"/><path class="cls-7" d="M252.33,52.56a16.86,16.86,0,0,1-2.71,5.64,16.48,16.48,0,0,1,4.25,2.26v-10c-.38.17-.78.33-1.19.48A15.84,15.84,0,0,1,252.33,52.56Z"/><path class="cls-3" d="M180,68.93c.08-.4.15-.8.26-1.19a16.73,16.73,0,0,1,7.42-10,16.4,16.4,0,0,0-9.34-10l-.63.51A15.3,15.3,0,0,1,167,51.82a16.46,16.46,0,0,1-2.59-.3,23.07,23.07,0,0,1-2.46-.6c-.2-.06-.41-.16-.61-.24A16.8,16.8,0,0,0,156.2,59c-.11.39-.18.79-.26,1.19a43,43,0,0,0,3.24,7c6.31,1.13,13.17,2,20.54,2.65.08-.45.16-.77.2-.93S180,68.88,180,68.93Z"/><path class="cls-4" d="M155.94,60.14s0-.06-.05,0-.07.26-.11.46a14.35,14.35,0,0,0,.1,6c1.08.21,2.18.41,3.3.61A43,43,0,0,1,155.94,60.14Z"/><path class="cls-5" d="M157.88,21.84a16.3,16.3,0,0,1,13.84-2.79A16.66,16.66,0,0,1,178,11.3a16.29,16.29,0,0,0-10.55-8.87,16.52,16.52,0,0,0-20,11.28l.28.06A16.26,16.26,0,0,1,157.88,21.84Z"/><path class="cls-7" d="M227,26.38a16.83,16.83,0,0,1-4.69,7.87,16.76,16.76,0,0,1,2.06,2.32l.48.11a16.65,16.65,0,0,1,6.21-4q.08-.37.12-.54s0,0,.06,0c.07-.39.15-.79.25-1.19a16.75,16.75,0,0,1,8.32-10.48,13.49,13.49,0,0,1,.25-5s0,0,.06,0c.07-.36.14-.72.23-1.07A16.15,16.15,0,0,0,221.84,9.5,16.68,16.68,0,0,1,227,26.38Z"/><path class="cls-8" d="M224.8,36.68l-.48-.11.24.34Z"/><path class="cls-9" d="M200.89,16.26a16.47,16.47,0,0,1,10,13.63,16.69,16.69,0,0,1,4.46.53,16.24,16.24,0,0,1,6,3.07c1.1-.21,1.76-.37,1.76-.37a9.55,9.55,0,0,1-.93,1.09s0,0,0,0a16.75,16.75,0,0,0-.42-24.75A16,16,0,0,0,215.37,6a16.4,16.4,0,0,0-17.63,6.5A16.5,16.5,0,0,1,200.89,16.26Z"/><path class="cls-10" d="M223.15,33.12s-.66.16-1.76.37c.29.23.56.47.83.72A9.55,9.55,0,0,0,223.15,33.12Z"/><path class="cls-7" d="M131,32.72c-.11.41-.25.8-.39,1.19a16.82,16.82,0,0,0,6.29,6.3c4.68,2.43,11.47,1.89,15.44,1.26a15,15,0,0,1-.89-9.35s0,0,.06,0c.08-.39.15-.79.25-1.19a16.72,16.72,0,0,1,6.16-9.11,16.26,16.26,0,0,0-10.14-8.07l-.28-.06a16.46,16.46,0,0,0-17.75,7.11A16.68,16.68,0,0,1,131,32.72Z"/><path class="cls-7" d="M140.2,46.2a15.38,15.38,0,0,0,2.59.31A19.16,19.16,0,0,1,140.2,46.2Z"/><path class="cls-8" d="M134.63,44.05a12,12,0,0,0,3.11,1.55,21.41,21.41,0,0,0,5,.91,15.27,15.27,0,0,0,10.33-3.25,18.64,18.64,0,0,1-.82-1.79c-4,.63-10.76,1.17-15.44-1.26a16.82,16.82,0,0,1-6.29-6.3,17,17,0,0,1-1.79,3.68c.19.4.4.8.64,1.21A17.78,17.78,0,0,0,134.63,44.05Z"/><path class="cls-7" d="M171.72,19.05l.17,0A16.16,16.16,0,0,1,180,24.14a16.23,16.23,0,0,1,20.92-7.88,16.5,16.5,0,0,0-3.15-3.72A16.15,16.15,0,0,0,178,11.3,16.66,16.66,0,0,0,171.72,19.05Z"/><path class="cls-8" d="M185.62,45.74a19.69,19.69,0,0,1-3.43-3,17.82,17.82,0,0,1-1.23,2l.3.11A20.44,20.44,0,0,0,185.62,45.74Z"/><path class="cls-9" d="M161,45.53c7,3.62,18.65.63,18.65.63a12.07,12.07,0,0,1-2,2.09l.63-.51a17.1,17.1,0,0,0,2.65-3,17.82,17.82,0,0,0,1.23-2,12.47,12.47,0,0,1-1.63-2.16c-3.62-6.28-2.38-11.18-2.17-12,0,0,0,0,.06,0,.08-.4.15-.79.25-1.19A17.8,17.8,0,0,1,180,24.14a16.16,16.16,0,0,0-8.08-5.06l-.17,0a16.3,16.3,0,0,0-13.84,2.79A16.72,16.72,0,0,0,151.72,31c-.1.4-.17.8-.25,1.19C151.88,32.85,154.39,42.08,161,45.53Z"/><path class="cls-9" d="M167,51.82a18.9,18.9,0,0,1-2.59-.3A16.46,16.46,0,0,0,167,51.82Z"/><path class="cls-10" d="M153.12,43.26c.14.28.29.57.46.86a17.49,17.49,0,0,0,7.71,6.56c.2.08.41.18.61.24a23.07,23.07,0,0,0,2.46.6,18.9,18.9,0,0,0,2.59.3,15.3,15.3,0,0,0,10.73-3.57,12.07,12.07,0,0,0,2-2.09s-11.68,3-18.65-.63c-6.63-3.45-9.14-12.68-9.55-13.39,0,0-.05-.06-.06,0a15,15,0,0,0,.89,9.35A18.64,18.64,0,0,0,153.12,43.26Z"/><path class="cls-3" d="M193.93,48.3a20.61,20.61,0,0,1-2.59-.3A16.46,16.46,0,0,0,193.93,48.3Z"/><path class="cls-3" d="M178.45,28.62c.41.71,2.92,9.94,9.55,13.38a17.83,17.83,0,0,0,6.83,1.72c0-.11,0-.2.07-.26s0,0,0,0c.08-.39.15-.79.26-1.19a16.63,16.63,0,0,1,15.71-12.4A16.35,16.35,0,0,0,180,24.14a17.8,17.8,0,0,0-1.27,3.29C178.6,27.83,178.53,28.22,178.45,28.62Z"/><path class="cls-4" d="M185.62,45.74a12.72,12.72,0,0,0,3.26,1.66,23.07,23.07,0,0,0,2.46.6,20.61,20.61,0,0,0,2.59.3h.69a13.51,13.51,0,0,1,.21-4.59A17.83,17.83,0,0,1,188,42c-6.63-3.44-9.14-12.67-9.55-13.38,0-.05,0-.06-.06,0-.21.81-1.45,5.71,2.17,12a12.47,12.47,0,0,0,1.63,2.16A19.69,19.69,0,0,0,185.62,45.74Z"/><path class="cls-3" d="M240.32,14.3s0,.08,0,.12c-.09.35-.16.71-.23,1.07.17.28.68,2,1.66,4.09a16.19,16.19,0,0,1,9.88-.5,15.54,15.54,0,0,1,2.26.81V2.07A16.67,16.67,0,0,0,240.32,14.3Z"/><path class="cls-4" d="M240,15.46a13.49,13.49,0,0,0-.25,5,16.52,16.52,0,0,1,2-.89c-1-2.13-1.49-3.81-1.66-4.09Q240,15.42,240,15.46Z"/><path class="cls-9" d="M207.84,62.86a23.07,23.07,0,0,1-2.46-.6c-3.37-1-7-4.48-8.32-6.8l-.06-.12a16.36,16.36,0,0,0-9.35,2.42,16.73,16.73,0,0,0-7.42,10c-.11.39-.18.79-.26,1.19a9.07,9.07,0,0,1,.38,1c5.21.41,10.66.67,16.37.71,5.55,0,10.78-.09,15.73-.34a16.64,16.64,0,0,0-2.35-7.1A16.1,16.1,0,0,1,207.84,62.86Z"/><path class="cls-10" d="M179.92,68.9c0,.16-.12.48-.2.93l.63.06a9.07,9.07,0,0,0-.38-1C180,68.88,179.93,68.87,179.92,68.9Z"/><path class="cls-5" d="M108.51,38.82c7,3.63,18.65.64,18.65.64a11.93,11.93,0,0,1-2,2.09,16.69,16.69,0,0,0,3.62-4,17,17,0,0,0,1.79-3.68c.14-.39.28-.78.39-1.19a16.68,16.68,0,0,0-1.25-11.9,16.25,16.25,0,0,0-10.33-8.44A16.56,16.56,0,0,0,99.21,24.25c-.1.4-.18.79-.25,1.19C99.37,26.15,101.88,35.38,108.51,38.82Z"/><path class="cls-5" d="M111.85,44.82a16.32,16.32,0,0,0,2.59.3A20.61,20.61,0,0,1,111.85,44.82Z"/><path class="cls-6" d="M111.56,44.77l.29,0a20.61,20.61,0,0,0,2.59.3,15.26,15.26,0,0,0,10.72-3.57,11.93,11.93,0,0,0,2-2.09s-11.68,3-18.65-.64c-6.63-3.44-9.14-12.67-9.55-13.38,0-.05,0-.06-.06,0-.21.81-1.45,5.72,2.17,12,1.33,2.32,5,5.77,8.32,6.8l.16.05C110.24,44.47,110.91,44.64,111.56,44.77Z"/><path class="cls-5" d="M221.16,59.59a17.87,17.87,0,0,0,1.77-1.6l-.07-.11A13.8,13.8,0,0,1,221.16,59.59Z"/><path class="cls-5" d="M195.21,42.29c-.11.4-.18.8-.26,1.19.42.71,2.93,9.94,9.55,13.39,6.15,3.19,15.95,1.25,18.18.74-.07-.12-.17-.25-.24-.36-3.61-6.28-2.37-11.19-2.16-12,0,0,0,0,.06,0,.07-.39.14-.79.25-1.18a16.8,16.8,0,0,1,4-7.18l-.24-.34a16.76,16.76,0,0,0-2.06-2.32s0,0,0,0c-.27-.25-.54-.49-.83-.72a16.24,16.24,0,0,0-6-3.07,16.53,16.53,0,0,0-20.17,11.87Z"/><path class="cls-5" d="M207.84,62.86a16.1,16.1,0,0,0,2.26.3c.11,0,.22,0,.33,0A17.61,17.61,0,0,1,207.84,62.86Z"/><path class="cls-6" d="M204.5,56.87c-6.62-3.45-9.13-12.68-9.55-13.39,0,0,0-.06,0,0s0,.15-.07.26a13.51,13.51,0,0,0-.21,4.59,18.27,18.27,0,0,0,2.38,7l.06.12c1.34,2.32,4.95,5.77,8.32,6.8a23.07,23.07,0,0,0,2.46.6,17.61,17.61,0,0,0,2.59.3,15.26,15.26,0,0,0,10.73-3.57,13.8,13.8,0,0,0,1.7-1.71l-.18-.27C220.45,58.12,210.65,60.06,204.5,56.87Z"/><path class="cls-5" d="M241.73,19.58a16.52,16.52,0,0,0-2,.89A16.75,16.75,0,0,0,231.44,31c-.1.4-.18.8-.25,1.19,0,.07.09.2.16.4a16.17,16.17,0,0,1,9.41-.32,16.42,16.42,0,0,1,12.1,15l1-.1V19.89a15.54,15.54,0,0,0-2.26-.81A16.19,16.19,0,0,0,241.73,19.58Z"/><path class="cls-6" d="M231.13,32.12q0,.16-.12.54l.34-.12c-.07-.2-.13-.33-.16-.4S231.14,32.08,231.13,32.12Z"/><path class="cls-6" d="M252.68,51c.41-.15.81-.31,1.19-.48V47.09l-1,.1A16.53,16.53,0,0,1,252.68,51Z"/><path class="cls-5" d="M246.54,61.38a16.2,16.2,0,0,1-13.31,3.27,22.71,22.71,0,0,1-2.35-.56A16.61,16.61,0,0,0,228.44,69a189.77,189.77,0,0,0,25.43-4.64V60.46a16.48,16.48,0,0,0-4.25-2.26A16.89,16.89,0,0,1,246.54,61.38Z"/><path class="cls-9" d="M231,32.66a16.65,16.65,0,0,0-6.21,4l-.24.23a16.8,16.8,0,0,0-4,7.18c-.11.39-.18.79-.25,1.18.41.71,2.92,9.94,9.55,13.39,7,3.62,18.65.63,18.65.63a12.43,12.43,0,0,1-2,2.09,16.69,16.69,0,0,0,5.79-8.82,15.84,15.84,0,0,0,.35-1.6,16.7,16.7,0,0,0-11.92-18.74,16.17,16.17,0,0,0-9.41.32Z"/><path class="cls-9" d="M235.82,65a17.31,17.31,0,0,1-2.59-.3A15.24,15.24,0,0,0,235.82,65Z"/><path class="cls-10" d="M248.54,59.29s-11.68,3-18.65-.63c-6.63-3.45-9.14-12.68-9.55-13.39,0,0-.05-.05-.06,0-.21.81-1.45,5.72,2.16,12,.07.11.17.24.24.36l.18.27.07.11c1.59,2.26,4.8,5.14,7.83,6.06l.12,0a22.71,22.71,0,0,0,2.35.56,17.31,17.31,0,0,0,2.59.3,15.21,15.21,0,0,0,10.72-3.57A12.43,12.43,0,0,0,248.54,59.29Z"/><path class="cls-11" d="M115.33,218.67c-9.08-4-10.72-6.91-10.72-6.91L119.19,87a104.58,104.58,0,0,1-11.37-5.62L82.26,209.58c4.86,4,15.63,11,36.72,16.65A21.33,21.33,0,0,1,115.33,218.67Z"/><path class="cls-11" d="M194.3,100.2V230.56c-5.34.34-18.2,3.58-47.39-2.57-2-.42-3.93-.85-5.77-1.27a20.08,20.08,0,0,1-5.26,3.29c15.18,2.79,34.16,4.81,57.81,5.26,25.42.48,45.07-1.28,60.18-4V93.1c-12.21,3.37-29.13,6.19-52.37,7C199.05,100.15,196.66,100.19,194.3,100.2Z"/><path class="cls-12" d="M193.69,235.27c-23.65-.45-42.63-2.47-57.81-5.26a23.83,23.83,0,0,1-7.07,1.79c-3.82.41-7.32-2.21-9.83-5.57-21.09-5.66-31.86-12.61-36.72-16.65a21.3,21.3,0,0,1-3.41-3.35l-1.67,11.85s28.23,31.59,116.32,31.38c25.34-.06,45.08-2,60.37-4.85V231.25C238.76,234,219.11,235.75,193.69,235.27Z"/><path class="cls-5" d="M115.33,218.67a8.61,8.61,0,0,1-.25-2.75c.12-1.1,0-3.27,0-6-.05.41-.06.65-.06.65l-2.25-1.14s2.81-13.16,5.56-17.43,7.76-9.37,15.38-8.4,13.5,7.47,15,11.18c2.56,6.5-1.31,26.26-1.31,26.26l-1.5-.51a20.49,20.49,0,0,1-4.77,6.18c1.84.42,3.74.85,5.77,1.27,29.19,6.15,42.05,2.91,47.39,2.57V100.2c-35.78.23-60.51-7-75.11-13.19L104.61,211.76S106.25,214.66,115.33,218.67Zm7.49-120.79s7.31,5.25,25.2,8.39c17.46,3.06,28.77,2.2,28.77,2.2l-1.7,76.06s-12.36.93-31.88-2.7c-19.82-3.68-29.63-11.72-29.63-11.72Z"/><path class="cls-13" d="M175.09,184.53l1.7-76.06s-11.31.86-28.77-2.2c-17.89-3.14-25.2-8.39-25.2-8.39l-9.24,72.23s9.81,8,29.63,11.72C162.73,185.46,175.09,184.53,175.09,184.53Zm-29.48-74.88a15.81,15.81,0,1,1-16.23,15.8A16,16,0,0,1,145.61,109.65Zm-20.27,50.83a15.55,15.55,0,0,1,.52-3.95c-3.88-3.81-7.93-8.21-8.15-10.14h0a1.21,1.21,0,0,1,0-.33c.15-.81,1.48-.63,3.43.15a24.71,24.71,0,0,1,5.24,1,31.45,31.45,0,0,1,4.11,1.59A15.77,15.77,0,0,1,155.93,166c.71.7,1.4,1.43,2,2.2,6.31,7.42,1.71,10.78,1.71,10.78l-.14-.11c-1.49.58-5.79-1.68-10.26-4.88a15.78,15.78,0,0,1-23.95-13.52Z"/><path class="cls-12" d="M140.06,150.63a9.82,9.82,0,0,1,9.83,9.82c0,.17,0,.33,0,.5a46.34,46.34,0,0,1,6.07,5.06,15.65,15.65,0,0,0,1-5.53,15.78,15.78,0,0,0-26.46-11.65,48.06,48.06,0,0,1,5.23,2.82A9.73,9.73,0,0,1,140.06,150.63Z"/><path class="cls-12" d="M143.7,169.57a9.75,9.75,0,0,1-3.64.7,9.85,9.85,0,0,1-5.72-1.84,8.55,8.55,0,0,1-4.54-7.55c0-.2,0-.38,0-.57-1.17-1.09-2.55-2.39-4-3.78a15.55,15.55,0,0,0-.52,3.95A15.78,15.78,0,0,0,149.29,174,70.57,70.57,0,0,1,143.7,169.57Z"/><path class="cls-14" d="M149.86,161a9.5,9.5,0,0,1-.49,2.63c4.94,4.79,13.32,13.54,10.32,15.26l-.14,0,.14.11s4.6-3.36-1.71-10.78c-.65-.77-1.34-1.5-2-2.2A46.34,46.34,0,0,0,149.86,161Z"/><polygon class="cls-14" points="117.7 146.38 117.71 146.39 117.71 146.38 117.7 146.38"/><path class="cls-14" d="M133.38,153.27a9.5,9.5,0,0,1,2.34-1.62,48.06,48.06,0,0,0-5.23-2.82,31.45,31.45,0,0,0-4.11-1.59,24.71,24.71,0,0,0-5.24-1A71.61,71.61,0,0,1,133.38,153.27Z"/><path class="cls-15" d="M149.37,163.58a9.85,9.85,0,0,1-5.67,6,70.57,70.57,0,0,0,5.59,4.43c4.47,3.2,8.77,5.46,10.26,4.88l.14,0C162.69,177.12,154.31,168.37,149.37,163.58Z"/><path class="cls-15" d="M131.28,156.06a9.76,9.76,0,0,1,2.1-2.79,71.61,71.61,0,0,0-12.24-7.07c-2-.78-3.28-1-3.43-.15a1.21,1.21,0,0,0,0,.33h0c.22,1.93,4.27,6.33,8.15,10.14,1.41,1.39,2.79,2.69,4,3.78A8.65,8.65,0,0,1,131.28,156.06Z"/><path class="cls-15" d="M149.37,163.58a9.5,9.5,0,0,0,.49-2.63c0-.17,0-.33,0-.5a9.81,9.81,0,0,0-14.17-8.8,9.5,9.5,0,0,0-2.34,1.62,9.76,9.76,0,0,0-2.1,2.79,8.54,8.54,0,1,1,3.06,12.37,9.85,9.85,0,0,0,5.72,1.84,9.75,9.75,0,0,0,3.64-.7A9.85,9.85,0,0,0,149.37,163.58Z"/><path class="cls-12" d="M146.88,160.88a8.54,8.54,0,0,0-15.6-4.82,8.65,8.65,0,0,0-1.46,4.25c0,.19,0,.37,0,.57a8.54,8.54,0,0,0,17.08,0Z"/><path class="cls-12" d="M145.61,141.26a15.81,15.81,0,1,0-16.23-15.81A16,16,0,0,0,145.61,141.26Zm-.25-10.18a29.21,29.21,0,0,0,1.68-7.6c.42-5.32-1.69-6.41-.9-8.47.49-1.25,1.82-2.56,2.81.86s-1.28,14.62-2,17.94c-.75,3.69-3.42,4.51-4,2.56C142.16,133.75,144,134.86,145.36,131.08Z"/><path class="cls-16" d="M147,133.81c.68-3.32,2.95-14.52,2-17.94s-2.32-2.11-2.81-.86c-.79,2.06,1.32,3.15.9,8.47a29.21,29.21,0,0,1-1.68,7.6c-1.41,3.78-3.2,2.67-2.39,5.29C143.57,138.32,146.24,137.5,147,133.81Z"/><path class="cls-17" d="M145.91,220.54l-1-.35s.34-2.63.43-6.36c-2.88,4.64-9.89,13.84-19.1,11.49-10.48-2.67-9.52-17.75-8.87-23-.12-.37-.23-.74-.32-1.1a39.48,39.48,0,0,0-1.93,8.67c0,2.72.08,4.89,0,6a8.61,8.61,0,0,0,.25,2.75,21.33,21.33,0,0,0,3.65,7.56c2.51,3.36,6,6,9.83,5.57a23.83,23.83,0,0,0,7.07-1.79,20.08,20.08,0,0,0,5.26-3.29A20.49,20.49,0,0,0,145.91,220.54Z"/><path class="cls-12" d="M130.53,214.47c-5.87-1-11.4-7-13.16-12.11-.65,5.21-1.61,20.29,8.87,23,9.21,2.35,16.22-6.85,19.1-11.49,0-.62,0-1.27,0-2C142.61,214.84,136.51,215.52,130.53,214.47Z"/><path class="cls-15" d="M130.53,214.47c6,1.05,12.08.37,14.83-2.59a50.94,50.94,0,0,0-1.13-11c-2,2.4-7.63,2.47-12.34,1.66s-9-5.85-9.94-9.72a23.29,23.29,0,0,0-4.9,8.44c.09.36.2.73.32,1.1C119.13,207.47,124.66,213.44,130.53,214.47Z"/><path class="cls-14" d="M131.89,202.54c4.71.81,10.36.74,12.34-1.66-1.47-6.39-4.7-12-11.49-12.29A13.45,13.45,0,0,0,122,192.82C122.85,196.69,127.21,201.74,131.89,202.54Z"/><path class="cls-18" d="M122,192.82a13.45,13.45,0,0,1,10.79-4.23c6.79.32,10,5.9,11.49,12.29a50.94,50.94,0,0,1,1.13,11c0,.68,0,1.33,0,2-.09,3.73-.43,6.36-.43,6.36l1,.35,1.5.51s3.87-19.76,1.31-26.26c-1.47-3.71-7.36-10.2-15-11.18s-12.56,4-15.38,8.4-5.56,17.43-5.56,17.43l2.25,1.14s0-.24.06-.65a39.48,39.48,0,0,1,1.93-8.67A23.29,23.29,0,0,1,122,192.82Z"/><path class="cls-12" d="M228.44,69c-4.93.57-10.26,1-16,1.3-4.95.25-10.18.38-15.73.34-5.71,0-11.16-.3-16.37-.71l-.63-.06c-7.37-.6-14.23-1.52-20.54-2.65-1.12-.2-2.22-.4-3.3-.61A193.94,193.94,0,0,1,131,60l-.25-.09a134.74,134.74,0,0,1-19.12-8c-1.12-.58-1.71-.93-1.75-.95h0L103,78.28a48.05,48.05,0,0,0,4.82,3.11A104.58,104.58,0,0,0,119.19,87c14.6,6.21,39.33,13.42,75.11,13.19,2.36,0,4.75,0,7.2-.13,23.24-.78,40.16-3.6,52.37-7V64.32A189.77,189.77,0,0,1,228.44,69Z"/><path class="cls-19" d="M135,109.26c9.91,1.24,12.47,12.52,12.27,15-.16,1.93-2.39,14.56-14,13.62-12.69-1-14.42-10.88-14.13-15.66S123.79,107.87,135,109.26Z"/><path class="cls-20" d="M146.92,129.73c-4.29,9.17-11.39,8.26-13.69,8.2s-10.6-2.54-11.36-12.93c-1-13,9.58-15.32,9.58-15.32C143.21,107.08,151.21,120.56,146.92,129.73Z"/><path class="cls-21" d="M131.59,122h0Z"/><path class="cls-22" d="M141.59,122.41a3,3,0,0,0,.27-1.1,2.34,2.34,0,0,0-.44-1.58,3.61,3.61,0,0,0-1-.91,8.56,8.56,0,0,0-1.81-.79l0-.07.6-2.42s0-.06,0-.06l-1.49-.35c-.07,0-.08,0-.1.06l-.57,2.36s0,0-.07,0l-.44-.1-.73-.15s-.06,0-.05-.06a.94.94,0,0,0,0-.16c.19-.74.37-1.48.55-2.22,0-.05,0-.06,0-.07l-.28-.06-1.26-.29s-.05,0-.06,0l-.39,1.6-.21.85s0,0-.06,0l-1.26-.26-1.91-.44s-.06,0-.07,0c-.12.52-.25,1-.38,1.55,0,0,0,0,0,.06l.74.16a3.34,3.34,0,0,1,.68.21.72.72,0,0,1,.44.53.58.58,0,0,1,0,.26l-.33,1.33c-.12.49-.24,1-.37,1.49,0,0,0,0,0,.06h0s0,0,0,0,0,0,0,0l-.12.51-.84,3.46a.55.55,0,0,1-.41.41,1.23,1.23,0,0,1-.47,0l-1-.24s-.06,0-.08,0c-.12.29-.25.58-.38.87s-.23.55-.35.82c0,0,0,.05,0,.05l.19,0c1,.21,2,.43,2.95.67.06,0,.06,0,.05.08-.2.82-.41,1.63-.61,2.45,0,0,0,0,0,.06l1.53.35s.05,0,.06,0l.12-.49c.17-.65.33-1.3.49-1.95,0,0,0-.05.06,0l1.18.28s.05,0,0,.08c-.21.8-.41,1.61-.61,2.41,0,0,0,0,0,.06l1.51.35s.06,0,.07-.05c.2-.82.41-1.63.61-2.45,0,0,0-.05.05,0a11.72,11.72,0,0,0,2,.19,4.68,4.68,0,0,0,1.66-.25,2.82,2.82,0,0,0,1.29-.83,4,4,0,0,0,.75-1.42,3.5,3.5,0,0,0,.18-1.54,2.15,2.15,0,0,0-.45-1,3.34,3.34,0,0,0-1.07-.87l-.22-.12.3-.08A2.34,2.34,0,0,0,141.59,122.41Zm-4.09,5a2.63,2.63,0,0,1-.83.23,4.41,4.41,0,0,1-.52,0,9.62,9.62,0,0,1-2-.27l-.85-.2s-.05,0,0-.06l.75-3.07.06-.24s0,0,0,0a16.78,16.78,0,0,1,2.32.59,4.17,4.17,0,0,1,1.18.62,1.49,1.49,0,0,1,.56.83A1.39,1.39,0,0,1,137.5,127.42Zm1.15-5.91a1.21,1.21,0,0,1-.58.84,2,2,0,0,1-.78.24,4.23,4.23,0,0,1-1.23,0,13.41,13.41,0,0,1-1.53-.32s0,0,0,0c.23-.93.46-1.85.7-2.77l.06-.27a13.34,13.34,0,0,1,2,.52,3,3,0,0,1,1,.58A1.23,1.23,0,0,1,138.65,121.51Z"/><path class="cls-23" d="M131.64,122h0S131.65,122,131.64,122Z"/><path class="cls-24" d="M46.64,236v6.22s5,3.74,16.18,3.74S79,242.26,79,242.26V236Z"/><ellipse class="cls-25" cx="62.82" cy="236.04" rx="16.18" ry="3.73"/><path class="cls-26" d="M0,227.77v5.77S4.62,237,15,237s15-3.46,15-3.46v-5.77Z"/><ellipse class="cls-27" cx="15" cy="227.77" rx="15" ry="3.46"/><path class="cls-28" d="M8,221.29v5.77s4.62,3.46,15,3.46,15-3.46,15-3.46v-5.77Z"/><ellipse class="cls-29" cx="23" cy="221.29" rx="15" ry="3.46"/></g></g></svg>