<?xml version="1.0" encoding="UTF-8"?>
<svg width="18px" height="18px" viewBox="0 0 18 18" version="1.1" xmlns="http://www.w3.org/2000/svg" xmlns:xlink="http://www.w3.org/1999/xlink">
    <!-- Generator: sketchtool 64 (101010) - https://sketch.com -->
    <title>F07939C4-D40E-4237-96EB-AF540D610172</title>
    <desc>Created with sketchtool.</desc>
    <g id="Home" stroke="none" stroke-width="1" fill="none" fill-rule="evenodd">
        <g id="Component/Callout/Feedback-(initial)-" transform="translate(-46.000000, -50.000000)" fill="#4F6EF7">
            <g id="Group-7" transform="translate(24.000000, 24.000000)">
                <g id="Group-4">
                    <g id="Heading" transform="translate(21.000000, 21.000000)">
                        <g id="Icon" transform="translate(0.000000, 4.000000)">
                            <g id="c-question" transform="translate(1.666667, 1.666667)">
                                <path d="M8.33333333,0 C3.73819444,0 -9.47390314e-14,3.73819444 -9.47390314e-14,8.33333333 C-9.47390314e-14,12.9284722 3.73819444,16.6666667 8.33333333,16.6666667 C12.9284722,16.6666667 16.6666667,12.9284722 16.6666667,8.33333333 C16.6666667,3.73819444 12.9284722,0 8.33333333,0 Z M7.98611111,13.1944444 C7.41111111,13.1944444 6.94444444,12.7277778 6.94444444,12.1527778 C6.94444444,11.5777778 7.41111111,11.1111111 7.98611111,11.1111111 C8.56111111,11.1111111 9.02777778,11.5777778 9.02777778,12.1527778 C9.02777778,12.7277778 8.56111111,13.1944444 7.98611111,13.1944444 Z M10.9798611,7.03263889 C10.7652778,7.37638889 10.3576389,7.7625 9.75625,8.19166667 C8.78333333,8.91111111 8.80972222,9.07083333 8.80972222,9.72222222 L7.10347222,9.72222222 C7.10347222,9.21319444 7.09236111,8.82222222 7.36736111,8.34652778 C7.54305556,8.04166667 7.86527778,7.71736111 8.33333333,7.37430556 C8.89513889,6.97291667 9.44097222,6.58611111 9.44097222,5.9125 C9.44097222,5.28125 8.90069444,5.05625 8.26944444,5.05625 C7.62569444,5.05625 6.89166667,5.26666667 6.06736111,5.6875 L5.36527778,4.27777778 C6.86319444,3.43819444 9.22708333,3.05833333 10.5194444,4.11041667 C11.4680556,4.88333333 11.4736111,6.24236111 10.9798611,7.03263889 Z" id="Shape"></path>
                            </g>
                        </g>
                    </g>
                </g>
            </g>
        </g>
    </g>
</svg>