<svg width="181" height="124" viewBox="0 0 181 124" fill="none" xmlns="http://www.w3.org/2000/svg">
<g opacity="0.1">
<path fill-rule="evenodd" clip-rule="evenodd" d="M171.297 -1.55889L160.672 16.8441H139.422L128.797 -1.55889L139.422 -19.9619H160.672L171.297 -1.55889Z" stroke="#00A8F3" stroke-width="1.5" stroke-linecap="square" stroke-linejoin="round"/>
<path fill-rule="evenodd" clip-rule="evenodd" d="M128.797 125.931L118.172 144.334H96.9219L86.2969 125.931L96.9219 107.528H118.172L128.797 125.931Z" stroke="#00A8F3" stroke-width="1.5" stroke-linecap="square" stroke-linejoin="round"/>
<path d="M65.1289 61.999C76.8649 61.999 86.3789 52.4851 86.3789 40.749C86.3789 29.013 76.8649 19.499 65.1289 19.499C53.3929 19.499 43.8789 29.013 43.8789 40.749C43.8789 52.4851 53.3929 61.999 65.1289 61.999Z" stroke="#00A8F3" stroke-width="1.5" stroke-linecap="square" stroke-linejoin="round"/>
<path d="M150.129 61.999C161.865 61.999 171.379 52.4851 171.379 40.749C171.379 29.013 161.865 19.499 150.129 19.499C138.393 19.499 128.879 29.013 128.879 40.749C128.879 52.4851 138.393 61.999 150.129 61.999Z" stroke="#00A8F3" stroke-width="1.5" stroke-linecap="square" stroke-linejoin="round"/>
<path d="M107.629 104.5C119.365 104.5 128.879 94.986 128.879 83.25C128.879 71.514 119.365 62 107.629 62C95.8933 62 86.3794 71.514 86.3794 83.25C86.3794 94.986 95.8933 104.5 107.629 104.5Z" stroke="#00A8F3" stroke-width="1.5" stroke-linecap="square" stroke-linejoin="round"/>
<path d="M150.129 104.5C161.865 104.5 171.379 94.986 171.379 83.25C171.379 71.514 161.865 62 150.129 62C138.393 62 128.879 71.514 128.879 83.25C128.879 94.986 138.393 104.5 150.129 104.5Z" stroke="#00A8F3" stroke-width="1.5" stroke-linecap="square" stroke-linejoin="round"/>
<path fill-rule="evenodd" clip-rule="evenodd" d="M118.898 65.2358C115.52 63.1217 111.614 62.0004 107.629 62C95.8928 62.0003 86.3792 71.5145 86.3794 83.2505C86.3797 94.9861 95.8932 104.5 107.629 104.5C111.616 104.491 115.521 103.369 118.898 101.25V65.2358Z" fill="#00A8F3" fill-opacity="0.465854" stroke="#00A8F3" stroke-width="2" stroke-linecap="square" stroke-linejoin="round"/>
<path fill-rule="evenodd" clip-rule="evenodd" d="M213.797 40.8923L203.172 59.2953H181.922L171.297 40.8923L181.922 22.4893H203.172L213.797 40.8923Z" stroke="#00A8F3" stroke-width="1.5" stroke-linecap="square" stroke-linejoin="round"/>
<path fill-rule="evenodd" clip-rule="evenodd" d="M213.797 83.3933L203.172 101.796H181.922L171.297 83.3933L181.922 64.9902H203.172L213.797 83.3933Z" stroke="#00A8F3" stroke-width="1.5" stroke-linecap="square" stroke-linejoin="round"/>
<path fill-rule="evenodd" clip-rule="evenodd" d="M43.5 40.8923L32.875 59.2953H11.625L1 40.8923L11.625 22.4893H32.875L43.5 40.8923Z" stroke="#00A8F3" stroke-width="1.5" stroke-linecap="square" stroke-linejoin="round"/>
<path fill-rule="evenodd" clip-rule="evenodd" d="M43.5 83.3933L32.875 101.796H11.625L1 83.3933L11.625 64.9902H32.875L43.5 83.3933Z" stroke="#00A8F3" stroke-width="1.5" stroke-linecap="square" stroke-linejoin="round"/>
<path d="M107.657 19.5C119.393 19.5 128.907 9.98603 128.907 -1.75001C128.907 -13.486 119.393 -23 107.657 -23C95.9207 -23 86.4067 -13.486 86.4067 -1.75001C86.4067 9.98603 95.9207 19.5 107.657 19.5Z" stroke="#00A8F3" stroke-width="1.5" stroke-linecap="square" stroke-linejoin="round"/>
<path d="M65.1289 147C76.8649 147 86.3789 137.486 86.3789 125.75C86.3789 114.014 76.8649 104.5 65.1289 104.5C53.3929 104.5 43.8789 114.014 43.8789 125.75C43.8789 137.486 53.3929 147 65.1289 147Z" stroke="#00A8F3" stroke-width="1.5" stroke-linecap="square" stroke-linejoin="round"/>
<path d="M150.129 147C161.865 147 171.379 137.486 171.379 125.75C171.379 114.014 161.865 104.5 150.129 104.5C138.393 104.5 128.879 114.014 128.879 125.75C128.879 137.486 138.393 147 150.129 147Z" stroke="#00A8F3" stroke-width="1.5" stroke-linecap="square" stroke-linejoin="round"/>
<path fill-rule="evenodd" clip-rule="evenodd" d="M65.1289 61.999C62.3383 61.999 59.5751 62.5487 56.9969 63.6166C54.4187 64.6845 52.0761 66.2498 50.1029 68.223C48.1296 70.1963 46.5644 72.5388 45.4964 75.117C44.4285 77.6951 43.8789 80.4584 43.8789 83.249C43.8812 88.6489 45.939 93.8453 49.6344 97.7826V118.878H60.2592V103.928C61.855 104.306 63.4891 104.497 65.1289 104.499C67.9195 104.499 70.6828 103.949 73.2609 102.882C75.8391 101.814 78.1817 100.248 80.155 98.275C82.1282 96.3018 83.6935 93.9593 84.7614 91.3811C85.8293 88.8029 86.3789 86.0396 86.3789 83.249C86.3789 80.4584 85.8293 77.6951 84.7614 75.117C83.6935 72.5388 82.1282 70.1963 80.155 68.223C78.1817 66.2498 75.8391 64.6845 73.2609 63.6166C70.6828 62.5487 67.9195 61.999 65.1289 61.999Z" fill="#00A8F3" fill-opacity="0.465854" stroke="#00A8F3" stroke-width="2" stroke-linecap="square" stroke-linejoin="round"/>
<path fill-rule="evenodd" clip-rule="evenodd" d="M132.134 72.0156C130.023 75.3906 128.902 79.2915 128.902 83.2727C128.903 87.9776 130.468 92.5487 133.349 96.2678C136.231 99.9869 140.267 102.643 144.822 103.819V118.863H155.436V103.819C159.991 102.643 164.027 99.9868 166.908 96.2677C169.79 92.5486 171.354 87.9776 171.356 83.2727C171.351 79.2901 170.226 75.3891 168.109 72.0156H132.134Z" fill="#00A8F3" fill-opacity="0.465854" stroke="#00A8F3" stroke-width="2" stroke-linecap="square" stroke-linejoin="round"/>
<path fill-rule="evenodd" clip-rule="evenodd" d="M86.2968 -1.55889L75.6719 16.8441H54.4219L43.7969 -1.55889L54.4219 -19.9619H75.6719L86.2968 -1.55889Z" stroke="#00A8F3" stroke-width="1.5" stroke-linecap="square" stroke-linejoin="round"/>
<path fill-rule="evenodd" clip-rule="evenodd" d="M92.1344 4.89062V26.2158C88.4389 30.1532 86.381 35.3499 86.3789 40.7498C86.3789 43.5404 86.9285 46.3037 87.9964 48.8819C89.0644 51.4601 90.6296 53.8026 92.6029 55.7758C94.5761 57.7491 96.9187 59.3144 99.4969 60.3823C102.075 61.4502 104.838 61.9999 107.629 61.9998C110.42 61.9999 113.183 61.4502 115.761 60.3823C118.339 59.3144 120.682 57.7491 122.655 55.7758C124.628 53.8026 126.193 51.4601 127.261 48.8819C128.329 46.3037 128.879 43.5404 128.879 40.7498C128.879 37.9592 128.329 35.1959 127.261 32.6178C126.193 30.0396 124.628 27.6971 122.655 25.7238C120.682 23.7506 118.339 22.1853 115.761 21.1174C113.183 20.0495 110.42 19.4998 107.629 19.4998C105.989 19.5016 104.355 19.6933 102.759 20.0709V4.89062H92.1344Z" fill="#00A8F3" fill-opacity="0.465854" stroke="#00A8F3" stroke-width="2" stroke-linecap="square" stroke-linejoin="round"/>
<path fill-rule="evenodd" clip-rule="evenodd" d="M76.0188 22.7347C72.6401 20.6207 68.735 19.4995 64.7494 19.499C53.0134 19.4994 43.4998 29.0136 43.5 40.7495C43.5003 52.4851 53.0138 61.9986 64.7494 61.999C68.7364 61.999 72.6416 60.8678 76.0188 58.7486V22.7347Z" fill="#00A8F3" fill-opacity="0.465854" stroke="#00A8F3" stroke-width="2" stroke-linecap="square" stroke-linejoin="round"/>
<path fill-rule="evenodd" clip-rule="evenodd" d="M150.129 19.5C144.493 19.5002 139.088 21.7392 135.103 25.7244C131.118 29.7097 128.879 35.1147 128.879 40.7505C128.88 46.3862 131.118 51.791 135.103 55.776C139.088 59.761 144.493 61.9998 150.129 62V19.5Z" fill="#00A8F3" fill-opacity="0.465854" stroke="#00A8F3" stroke-width="2" stroke-linecap="square" stroke-linejoin="round"/>
</g>
</svg>
