<?xml version="1.0" encoding="UTF-8"?>
<svg width="23px" height="23px" viewBox="0 0 23 23" version="1.1" xmlns="http://www.w3.org/2000/svg" xmlns:xlink="http://www.w3.org/1999/xlink">
    <title>2AD92141-F9F3-412F-9A87-86E217A33B21</title>
    <g id="iPhone-8" stroke="none" stroke-width="1" fill="none" fill-rule="evenodd">
        <g id="Create-Key---Tour-2-(Cancel)" transform="translate(-24.000000, -551.000000)" fill="#FDB455" fill-rule="nonzero">
            <g id="Component/Info-sheet-(iPhoneX+)" transform="translate(0.000000, 523.000000)">
                <g id="Header" transform="translate(22.000000, 26.000000)">
                    <g id="Icons/Small-(20px)/Info-(color)" transform="translate(2.000000, 2.000000)">
                        <path d="M11.5,0.25 C17.7132034,0.25 22.75,5.28679656 22.75,11.5 C22.75,17.7132034 17.7132034,22.75 11.5,22.75 C5.28679656,22.75 0.25,17.7132034 0.25,11.5 C0.25,5.28679656 5.28679656,0.25 11.5,0.25 Z M11.4956463,15.2529025 C11.0776896,15.2529025 10.7395511,15.3791602 10.4812307,15.6316757 C10.2229102,15.8841912 10.09375,16.2020124 10.09375,16.5851393 C10.09375,16.9682663 10.2229102,17.2846362 10.4812307,17.5342492 C10.7395511,17.7838622 11.0776896,17.9086687 11.4956463,17.9086687 C11.9194079,17.9086687 12.2604489,17.7838622 12.5187693,17.5342492 C12.7770898,17.2846362 12.90625,16.9682663 12.90625,16.5851393 C12.90625,16.1962074 12.7770898,15.876935 12.5187693,15.627322 C12.2604489,15.377709 11.9194079,15.2529025 11.4956463,15.2529025 Z M12.8365906,5.09133127 L10.154702,5.09133127 L10.4507546,13.8771285 L12.5405379,13.8771285 L12.8365906,5.09133127 Z" id="Combined-Shape"></path>
                    </g>
                </g>
            </g>
        </g>
    </g>
</svg>