<?xml version="1.0" encoding="UTF-8"?>
<svg width="24px" height="24px" viewBox="0 0 24 24" version="1.1" xmlns="http://www.w3.org/2000/svg" xmlns:xlink="http://www.w3.org/1999/xlink">
    <title>B6E81097-51E5-454C-B580-85239C402A61</title>
    <g id="iPhone-8" stroke="none" stroke-width="1" fill="none" fill-rule="evenodd">
        <g id="Verify-key---Instructions" transform="translate(-24.000000, -577.000000)" fill="#4F6EF7" fill-rule="nonzero">
            <g id="Component/Info-sheet-(iPhoneX+)" transform="translate(0.000000, 549.000000)">
                <g id="Header" transform="translate(22.000000, 26.000000)">
                    <g id="Icons/Small-(20px)/Info-(color)" transform="translate(2.000000, 2.000000)">
                        <g id="c-info" transform="translate(0.250000, 0.250000)">
                            <path d="M11.25,0 C5.0465625,0 -1.27897692e-13,5.0465625 -1.27897692e-13,11.25 C-1.27897692e-13,17.4534375 5.0465625,22.5 11.25,22.5 C17.4534375,22.5 22.5,17.4534375 22.5,11.25 C22.5,5.0465625 17.4534375,0 11.25,0 Z M13.741875,17.14125 C13.1221875,17.385 10.974375,18.410625 9.736875,17.3203125 C9.3675,16.9959375 9.18375,16.584375 9.18375,16.0846875 C9.18375,15.1490625 9.49125,14.3334375 10.0453125,12.375 C10.1428125,12.0046875 10.261875,11.5246875 10.261875,11.1440625 C10.261875,10.486875 10.0125,10.3125 9.3365625,10.3125 C9.0065625,10.3125 8.6409375,10.4296875 8.31,10.5534375 L8.4928125,9.804375 C9.230625,9.504375 10.156875,9.13875 10.95,9.13875 C12.1396875,9.13875 13.0153125,9.7321875 13.0153125,10.8609375 C13.0153125,11.18625 12.9590625,11.75625 12.8409375,12.15 L12.1565625,14.570625 C12.015,15.06 11.7590625,16.1390625 12.155625,16.45875 C12.545625,16.7746875 13.4690625,16.606875 13.9246875,16.3921875 L13.741875,17.14125 Z M12.61125,7.5 C11.835,7.5 11.205,6.87 11.205,6.09375 C11.205,5.3175 11.835,4.6875 12.61125,4.6875 C13.3875,4.6875 14.0175,5.3175 14.0175,6.09375 C14.0175,6.87 13.3875,7.5 12.61125,7.5 Z" id="Shape"></path>
                        </g>
                    </g>
                </g>
            </g>
        </g>
    </g>
</svg>