<?xml version="1.0" encoding="UTF-8"?>
<svg width="57px" height="14px" viewBox="0 0 57 14" version="1.1" xmlns="http://www.w3.org/2000/svg" xmlns:xlink="http://www.w3.org/1999/xlink">
    <!-- Generator: Sketch 43.2 (39069) - http://www.bohemiancoding.com/sketch -->
    <title>Group 2</title>
    <desc>Created with Sketch.</desc>
    <defs></defs>
    <g id="Page-1" stroke="none" stroke-width="1" fill="none" fill-rule="evenodd">
        <g id="Group-2">
            <path d="M4.34960938,7.66601563 L4.34960938,11 L2.75585938,11 L2.75585938,2.43359375 L4.84179688,2.43359375 C5.72461379,2.43359375 6.37597446,2.64257604 6.79589844,3.06054688 C7.21582241,3.47851771 7.42578125,4.1171832 7.42578125,4.9765625 C7.42578125,6.05859916 7.06055053,6.81445098 6.33007812,7.24414062 L7.9765625,11 L6.27148438,11 L4.91796875,7.66601563 L4.34960938,7.66601563 Z M4.34960938,6.29492188 L4.75976562,6.29492188 C5.1347675,6.29492188 5.40429605,6.18847763 5.56835938,5.97558594 C5.7324227,5.76269425 5.81445312,5.44531461 5.81445312,5.0234375 C5.81445312,4.58593531 5.72753993,4.27441499 5.55371094,4.08886719 C5.37988194,3.90331938 5.11132994,3.81054688 4.74804688,3.81054688 L4.34960938,3.81054688 L4.34960938,6.29492188 Z M12.6171875,11 L8.75585938,11 L8.75585938,2.43359375 L12.6171875,2.43359375 L12.6171875,3.81054688 L10.3496094,3.81054688 L10.3496094,5.84960938 L12.453125,5.84960938 L12.453125,7.23242188 L10.3496094,7.23242188 L10.3496094,9.60546875 L12.6171875,9.60546875 L12.6171875,11 Z M17.9199219,11 L17.4277344,8.83789063 L15.1953125,8.83789063 L14.703125,11 L13.109375,11 L15.2304688,2.3984375 L17.3925781,2.3984375 L19.5195312,11 L17.9199219,11 Z M17.1289062,7.42578125 L16.671875,5.43359375 C16.6445311,5.31249939 16.5830083,5.00879149 16.4873047,4.52246094 C16.3916011,4.03613038 16.3339845,3.71093832 16.3144531,3.546875 C16.2636716,3.88281418 16.1992191,4.25292767 16.1210938,4.65722656 C16.0429684,5.06152546 15.8398454,5.98436779 15.5117188,7.42578125 L17.1289062,7.42578125 Z M25.7246094,6.63476562 C25.7246094,8.0488352 25.4365263,9.12987907 24.8603516,9.87792969 C24.2841768,10.6259803 23.4550835,11 22.3730469,11 L20.2753906,11 L20.2753906,2.43359375 L22.5664062,2.43359375 C23.562505,2.43359375 24.3378879,2.80175413 24.8925781,3.53808594 C25.4472684,4.27441774 25.7246094,5.30663398 25.7246094,6.63476562 Z M24.0898438,6.68164062 C24.0898438,4.76756855 23.5625053,3.81054688 22.5078125,3.81054688 L21.8691406,3.81054688 L21.8691406,9.60546875 L22.3847656,9.60546875 C22.9667998,9.60546875 23.396483,9.36230712 23.6738281,8.87597656 C23.9511733,8.38964601 24.0898438,7.65820801 24.0898438,6.68164062 Z M35.8320312,6.70507812 C35.8320312,8.12305396 35.5664089,9.21288682 35.0351562,9.97460938 C34.5039036,10.7363319 33.7441456,11.1171875 32.7558594,11.1171875 C31.7636669,11.1171875 31.0019558,10.7373085 30.4707031,9.97753906 C29.9394505,9.21776964 29.6738281,8.12305402 29.6738281,6.69335938 C29.6738281,5.27538354 29.9394505,4.18848034 30.4707031,3.43261719 C31.0019558,2.67675403 31.7675731,2.29882812 32.7675781,2.29882812 C33.7558643,2.29882812 34.5136692,2.67870714 35.0410156,3.43847656 C35.568362,4.19824599 35.8320312,5.28710229 35.8320312,6.70507812 Z M31.3027344,6.70507812 C31.3027344,7.68164551 31.42578,8.42577869 31.671875,8.9375 C31.91797,9.44922131 32.2792945,9.70507812 32.7558594,9.70507812 C33.7168017,9.70507812 34.1972656,8.70508812 34.1972656,6.70507812 C34.1972656,4.70506813 33.7207079,3.70507812 32.7675781,3.70507812 C32.2832007,3.70507812 31.91797,3.95995839 31.671875,4.46972656 C31.42578,4.97949474 31.3027344,5.72460447 31.3027344,6.70507812 Z M43.0800781,11 L41.1347656,11 L38.4863281,4.79492188 L38.4101562,4.79492188 C38.507813,5.26758049 38.5566406,5.77538791 38.5566406,6.31835938 L38.5566406,11 L37.0800781,11 L37.0800781,2.43359375 L39.0371094,2.43359375 L41.6621094,8.57421875 L41.7265625,8.57421875 C41.6523434,8.16406045 41.6152344,7.67578408 41.6152344,7.109375 L41.6152344,2.43359375 L43.0800781,2.43359375 L43.0800781,11 Z M44.5917969,11 L44.5917969,2.43359375 L46.1855469,2.43359375 L46.1855469,9.60546875 L48.3945312,9.60546875 L48.3945312,11 L44.5917969,11 Z M51.1425781,5.81445313 L52.2851562,2.43359375 L53.9550781,2.43359375 L51.921875,7.56640625 L51.921875,11 L50.3515625,11 L50.3515625,7.63085938 L48.3242188,2.43359375 L50.0058594,2.43359375 L51.1425781,5.81445313 Z" id="READ-ONLY" fill="#FFFFFF"></path>
            <rect id="Rectangle-Copy" stroke="#FFFFFF" x="0.5" y="0.5" width="56" height="13" rx="2"></rect>
        </g>
    </g>
</svg>