<svg xmlns="http://www.w3.org/2000/svg" width="25" height="25" viewBox="0 0 25 25">
  <path fill="#EFD358" d="M24.9498122,8.47202334 C24.8510275,8.23937404 24.6226833,8.08827237 24.369728,8.08827237 L16.6824548,8.08827237 L13.0708525,0.363438122 C12.9671456,0.141559735 12.7446501,0 12.5000014,0 C12.2553527,0 12.0328572,0.141559735 11.9291503,0.363438122 L8.31754801,8.08827237 L0.630274774,8.08827237 C0.37731318,8.08827237 0.148975274,8.23937404 0.0501906106,8.47202334 C-0.0485940524,8.70467265 0.00095584043,8.9739456 0.176668256,9.15612474 L5.86918961,15.0597663 L3.57993666,24.2168112 C3.51869572,24.4617692 3.60948257,24.7196536 3.81073883,24.8719843 C4.01199509,25.0243149 4.28496067,25.0418547 4.50407178,24.9169146 L12.5000014,20.3476189 L20.495931,24.9169083 C20.5931779,24.9726095 20.7008868,25 20.8085895,25 C20.9430712,25 21.0772442,24.9569163 21.1892577,24.8719843 C21.3905202,24.7196536 21.4813008,24.4617692 21.4200598,24.2168112 L19.1308132,15.05976 L24.8233345,9.15611844 C24.999047,8.97393929 25.0485905,8.70467265 24.9498122,8.47202334 Z"/>
</svg>
