<?xml version="1.0" encoding="UTF-8"?>
<svg width="24px" height="27px" viewBox="0 0 24 27" version="1.1" xmlns="http://www.w3.org/2000/svg" xmlns:xlink="http://www.w3.org/1999/xlink">
    <title>F687D40D-4327-4D17-B05F-FA4E017B3E5B</title>
    <g id="iPhone-8" stroke="none" stroke-width="1" fill="none" fill-rule="evenodd">
        <g id="Security---Face-ID-Prompt-(Message)" transform="translate(-24.000000, -578.000000)" fill="#4F6EF7" fill-rule="nonzero">
            <g id="Component/Info-sheet-(iPhoneX+)" transform="translate(0.000000, 552.000000)">
                <g id="Header" transform="translate(22.000000, 26.000000)">
                    <g id="Icons/Small-(20px)/Info-(color)" transform="translate(2.000000, 0.000000)">
                        <g id="verified" transform="translate(0.250000, 0.000000)">
                            <path d="M21.6,2.068875 L11.475,0.043875 C11.3294396,0.0147808433 11.1795604,0.0147808433 11.034,0.043875 L0.909,2.068875 C0.381132913,2.17214682 0,2.63462577 0,3.1725 L0,14.625 C0,23.625 11.25,27 11.25,27 C11.25,27 22.5,23.625 22.5,14.625 L22.5,3.1725 C22.5006442,2.63740025 22.124289,2.17589464 21.6,2.068875 Z M10.189125,18.529875 L5.15925,13.5 L6.75,11.90925 L10.060875,15.220125 L16.7535,7.41375 L18.46125,8.87625 L10.189125,18.529875 Z" id="Shape"></path>
                        </g>
                    </g>
                </g>
            </g>
        </g>
    </g>
</svg>