<?xml version="1.0" encoding="utf-8"?>
<!-- Generator: Adobe Illustrator 20.1.0, SVG Export Plug-In . SVG Version: 6.00 Build 0)  -->
<svg version="1.1" id="Bitcoin_Symbol" xmlns="http://www.w3.org/2000/svg" xmlns:xlink="http://www.w3.org/1999/xlink" x="0px"
	 y="0px" viewBox="0 0 12 16" style="enable-background:new 0 0 12 16;" xml:space="preserve">
<style type="text/css">
	.st0{fill:#5D5D5D;}
</style>
<path class="st0" d="M7.4,2.5l0-2.4L6,0.2l0,2.3c-0.4,0-0.8,0-1.2,0l0-2.3l-1.5,0l0,2.4c-0.3,0-0.6,0-0.9,0l-2,0l0,1.5
	c0,0,1.1,0,1,0c0.6,0,0.8,0.3,0.8,0.6l0,6.5c0,0.2-0.2,0.5-0.6,0.5c0,0-1.1,0-1.1,0l-0.3,1.7l1.9,0c0.4,0,0.7,0,1,0l0,2.4l1.5,0
	l0-2.4c0.4,0,0.8,0,1.2,0l0,2.3l1.5,0l0-2.4c2.5-0.1,4.2-0.7,4.4-3c0.2-1.8-0.7-2.6-2.1-3C10.5,7,11,6.2,10.9,5
	C10.7,3.3,9.3,2.7,7.4,2.5z M8.8,10.1c0,1.8-3.1,1.6-4.1,1.6l0-3.2C5.7,8.5,8.8,8.2,8.8,10.1L8.8,10.1z M8.2,5.6
	c0,1.6-2.6,1.4-3.4,1.4l0-2.9C5.6,4.2,8.2,3.9,8.2,5.6L8.2,5.6z"/>
</svg>
