<?xml version="1.0" encoding="UTF-8"?>
<svg width="24px" height="22px" viewBox="0 0 24 22" version="1.1" xmlns="http://www.w3.org/2000/svg" xmlns:xlink="http://www.w3.org/1999/xlink">
    <title>7D69A676-CE24-4B99-8300-E70D3C641AA7</title>
    <g id="iPhone-8" stroke="none" stroke-width="1" fill="none" fill-rule="evenodd">
        <g id="Verify-key---Incorrect-" transform="translate(-24.000000, -578.000000)" fill="#FF647C" fill-rule="nonzero">
            <g id="Component/Info-sheet-(iPhoneX+)" transform="translate(0.000000, 549.000000)">
                <g id="Header" transform="translate(22.000000, 26.000000)">
                    <g id="Icons/Small-(20px)/Info-(color)" transform="translate(2.000000, 3.000000)">
                        <path d="M23.7408138,19.5332767 L12.9128209,0.830379756 C12.7229046,0.545860404 12.4034279,0.375 12.0613469,0.375 C11.7192658,0.375 11.3997892,0.545860404 11.2098729,0.830379756 L0.381879933,19.5332767 C0.206130306,19.8376835 0.206034026,20.2127059 0.38162733,20.5172029 C0.557220634,20.8217 0.881855223,21.0094608 1.23335392,21.0098212 L22.8893398,21.0098212 C23.2408385,21.0094608 23.5654731,20.8217 23.7410664,20.5172029 C23.9166597,20.2127059 23.9165634,19.8376835 23.7408138,19.5332767 L23.7408138,19.5332767 Z M13.2484886,7.22873923 L12.782885,13.725535 L11.3398088,13.725535 L10.9007829,7.22873923 L13.2484886,7.22873923 Z M12.0613469,18.0567322 C11.2638143,18.0567322 10.6172864,17.4102043 10.6172864,16.6126717 C10.6172864,15.8151391 11.2638143,15.1686111 12.0613469,15.1686111 C12.8588795,15.1686111 13.5054074,15.8151391 13.5054074,16.6126717 C13.5054074,17.4102043 12.8588795,18.0567322 12.0613469,18.0567322 Z" id="Shape"></path>
                    </g>
                </g>
            </g>
        </g>
    </g>
</svg>