<svg xmlns="http://www.w3.org/2000/svg" width="16" height="16" viewBox="0 0 256 256">
  <g fill="none" fill-rule="evenodd">
    <g fill-rule="nonzero" transform="translate(0 13.73)">
      <path fill="#B3D234" d="M70.7071568,31.2853201 C75.5684522,25.787651 79.9987315,21.095553 84.2311674,17.1666276 C12.6966424,14.862977 33.5196614,66.5749849 10.209468,119.127896 C-16.6336433,179.651721 13.3678968,202.716492 58.0734419,209.903034 C51.8767036,202.589296 46.817565,194.222664 42.9666842,185.191788 C13.9826245,148.700833 25.64832,82.2200228 70.7071568,31.2853201"/>
      <path fill="#0095D9" d="M242.836593,95.7564432 C236.180575,114.503637 223.963744,135.540348 206.69484,156.244938 C193.234421,172.377559 178.268979,185.082969 162.82306,194.283439 C144.967691,205.851157 122.816294,212.677312 98.0505371,212.677312 C84.1873655,212.677312 70.5573673,211.907073 58.072034,209.900212 C65.4487674,218.598966 74.4153135,225.82084 84.8444885,230.859193 C149.518091,262.135136 153.602144,204.035089 222.027705,174.554014 C260.451724,157.997408 260.593041,125.633237 242.836593,95.7564432"/>
      <path fill="#EEE809" d="M162.801151,35.2948021 C172.34003,37.0331395 181.391367,40.1706267 189.495881,44.7496621 C211.216262,57.0381537 231.000604,75.8418777 242.83588,95.755028 C254.487444,62.9386079 249.060882,37.1391357 223.567344,32.468237 C195.551303,27.3450879 173.64721,25.6986137 152.598083,11.0004756 C126.673529,-7.10367354 103.949799,-1.13255489 84.2290502,17.1694537 C85.6210196,17.2118522 87.0412532,17.2754499 88.5038808,17.3602469 C115.862799,18.971389 141.971065,24.2994641 162.801151,35.2948021"/>
      <path fill="#51B849" d="M70.7071574,31.285319 C25.6483207,82.2200216 13.9826253,148.700832 42.966685,185.191787 C29.9514149,154.643685 30.8558419,116.541588 49.1987524,86.120681 C73.618282,45.6160039 122.598658,27.9570386 162.803265,35.2990414 C141.97318,24.2966369 115.864916,18.9756282 88.5130645,17.3574196 C87.0433704,17.2726227 85.6231374,17.2160914 84.231168,17.1666265 C79.9987321,21.095552 75.5684528,25.7876499 70.7071574,31.285319"/>
      <path fill="#00845D" d="M189.494463,44.75249 C181.389949,40.166388 172.338613,37.0359671 162.799734,35.2976295 C190.22931,49.7767096 208.480365,74.1063689 208.275455,112.858577 C208.091744,146.480569 190.723919,176.194836 162.820932,194.284853 C178.266849,185.084383 193.239356,172.378973 206.692708,156.246352 C223.968677,135.541763 236.178442,114.505051 242.83446,95.7578583 C230.999184,75.8447068 211.214843,57.0339154 189.494463,44.75249"/>
      <path fill="#005121" d="M158.288196,175.860587 C127.318637,195.759604 86.0258919,186.88419 66.0507736,156.032233 C46.0756551,125.180276 55.9536937,85.452905 85.9481678,64.1264723 C119.489691,40.2843963 162.506501,49.6897914 178.185591,83.9548259 C193.47606,117.364824 189.25069,155.961569 158.288196,175.860587 M162.803269,35.295508 C122.598661,27.9605719 73.6182845,45.6124702 49.1987545,86.1171461 C30.8558438,116.538052 29.9443509,154.647214 42.966687,185.188249 C46.8175677,194.219124 51.8696405,202.592823 58.0734449,209.906559 C70.558777,211.913421 84.1887752,212.676593 98.0448802,212.676593 C122.817702,212.676593 144.969098,205.850439 162.8174,194.282721 C190.727453,176.199772 208.095278,146.478441 208.271924,112.856451 C208.483899,74.1042449 190.225779,49.7745871 162.803269,35.295508"/>
    </g>
    <rect width="16" height="16"/>
  </g>
</svg>
