<?xml version="1.0" encoding="UTF-8"?>
<svg width="23px" height="23px" viewBox="0 0 23 23" version="1.1" xmlns="http://www.w3.org/2000/svg" xmlns:xlink="http://www.w3.org/1999/xlink">
    <title>Group</title>
    <g id="Icons" stroke="none" stroke-width="1" fill="none" fill-rule="evenodd">
        <g id="Dashboard/Medium/Coins" transform="translate(-1.000000, -1.000000)" fill="#CED1D7" fill-rule="nonzero">
            <g id="Group" transform="translate(1.440000, 1.440000)">
                <path d="M5.76,-4.08562073e-14 C2.47632,-4.08562073e-14 -8.8817842e-15,0.8256 -8.8817842e-15,1.92 C-8.8817842e-15,3.0144 2.47632,3.84 5.76,3.84 C9.04368,3.84 11.52,3.0144 11.52,1.92 C11.52,0.8256 9.04368,-4.08562073e-14 5.76,-4.08562073e-14 Z" id="Path"></path>
                <path d="M15.36,18.24 C13.24224,18.24 10.88304,17.8872 9.6,16.98624 L9.6,19.2 C9.6,20.2944 12.07632,21.12 15.36,21.12 C18.64368,21.12 21.12,20.2944 21.12,19.2 L21.12,16.98624 C19.83696,17.8872 17.47776,18.24 15.36,18.24 Z" id="Path"></path>
                <path d="M15.36,14.4 C13.24224,14.4 10.88304,14.0472 9.6,13.14624 L9.6,15.36 C9.6,16.4544 12.07632,17.28 15.36,17.28 C18.64368,17.28 21.12,16.4544 21.12,15.36 L21.12,13.14624 C19.83696,14.0472 17.47776,14.4 15.36,14.4 Z" id="Path"></path>
                <path d="M15.36,10.56 C13.24224,10.56 10.88304,10.2072 9.6,9.30624 L9.6,11.52 C9.6,12.6144 12.07632,13.44 15.36,13.44 C18.64368,13.44 21.12,12.6144 21.12,11.52 L21.12,9.30624 C19.83696,10.2072 17.47776,10.56 15.36,10.56 Z" id="Path"></path>
                <path d="M15.36,5.76 C12.07632,5.76 9.6,6.5856 9.6,7.68 C9.6,8.7744 12.07632,9.6 15.36,9.6 C18.64368,9.6 21.12,8.7744 21.12,7.68 C21.12,6.5856 18.64368,5.76 15.36,5.76 Z" id="Path"></path>
                <path d="M5.76,7.68 C6.83616,7.68 7.82256,7.58976 8.66688,7.43232 C8.8224,6.33744 9.99072,5.63856 11.52,5.2392 L11.52,3.54624 C10.23696,4.4472 7.87776,4.8 5.76,4.8 C3.64224,4.8 1.28304,4.4472 -8.8817842e-15,3.54624 L-8.8817842e-15,5.76 C-8.8817842e-15,6.8544 2.47632,7.68 5.76,7.68 Z" id="Path"></path>
                <path d="M5.76,11.52 C6.82464,11.52 7.80192,11.43216 8.64,11.2776 L8.64,8.40336 C7.70976,8.56368 6.71232,8.64 5.76,8.64 C3.64224,8.64 1.28304,8.2872 -6.39488462e-14,7.38624 L-6.39488462e-14,9.6 C-6.39488462e-14,10.6944 2.47632,11.52 5.76,11.52 Z" id="Path"></path>
                <path d="M5.76,15.36 C6.82464,15.36 7.80192,15.27216 8.64,15.1176 L8.64,12.24336 C7.70976,12.40368 6.71232,12.48 5.76,12.48 C3.64224,12.48 1.28304,12.1272 -6.39488462e-14,11.22624 L-6.39488462e-14,13.44 C-6.39488462e-14,14.5344 2.47632,15.36 5.76,15.36 Z" id="Path"></path>
                <path d="M8.64,16.08336 C7.70976,16.24368 6.71232,16.32 5.76,16.32 C3.64224,16.32 1.28304,15.9672 -6.39488462e-14,15.06624 L-6.39488462e-14,17.28 C-6.39488462e-14,18.3744 2.47632,19.2 5.76,19.2 C6.82464,19.2 7.80192,19.11216 8.64,18.9576 L8.64,16.08336 Z" id="Path"></path>
            </g>
        </g>
    </g>
</svg>