<svg width="65" height="72" viewBox="0 0 65 72" fill="none" xmlns="http://www.w3.org/2000/svg">
<path d="M1.96124 12.1816C1.95716 12.1497 1.9532 12.1187 1.94936 12.0884L32.9252 1.31752L63.9011 12.0884C63.8972 12.1187 63.8933 12.1497 63.8892 12.1816C63.8155 12.7569 63.7033 13.5935 63.5497 14.6347C63.2425 16.7176 62.77 19.6163 62.1093 22.8771C60.7828 29.424 58.7162 37.3357 55.7512 43.0529C52.7029 48.9304 46.8617 55.7489 41.7191 61.1448C39.1588 63.8314 36.7915 66.1449 35.0644 67.7866C34.201 68.6073 33.4983 69.2596 33.012 69.706C32.9823 69.7334 32.9533 69.7599 32.9252 69.7857C32.8971 69.7599 32.8682 69.7334 32.8384 69.706C32.3522 69.2596 31.6494 68.6073 30.786 67.7866C29.059 66.1449 26.6916 63.8314 24.1313 61.1448C18.9887 55.7489 13.1475 48.9304 10.0993 43.0529C7.13418 37.3357 5.06757 29.424 3.74113 22.8771C3.08047 19.6163 2.60794 16.7176 2.30068 14.6347C2.14709 13.5935 2.03491 12.7569 1.96124 12.1816Z" fill="#3B9E9A" fill-opacity="0.5" stroke="#00FFD3" stroke-width="2"/>
<path d="M28.1953 54.6975C27.2673 54.6975 26.5473 54.2655 26.0353 53.4015L18.9793 39.2415C18.7553 38.8255 18.6433 38.4095 18.6433 37.9935C18.6433 37.2895 18.8673 36.7135 19.3153 36.2655C19.7953 35.8175 20.3873 35.5935 21.0913 35.5935C21.5713 35.5935 22.0033 35.7215 22.3873 35.9775C22.7713 36.2015 23.0913 36.5535 23.3473 37.0335L28.1953 46.7775L43.7473 15.6735C44.0033 15.1935 44.3073 14.8415 44.6593 14.6175C45.0433 14.3615 45.4913 14.2335 46.0033 14.2335H49.5553C50.2593 14.2335 50.8353 14.4575 51.2833 14.9055C51.7633 15.3535 52.0033 15.9455 52.0033 16.6815C52.0033 17.3855 51.7633 17.9615 51.2833 18.4095C50.8353 18.8575 50.2593 19.0815 49.5553 19.0815H47.5393L30.4033 53.3055C29.9233 54.2335 29.1873 54.6975 28.1953 54.6975Z" fill="#00FFD3"/>
</svg>
