<?xml version="1.0" encoding="UTF-8" standalone="no"?>
<!DOCTYPE svg PUBLIC "-//W3C//DTD SVG 1.1//EN" "http://www.w3.org/Graphics/SVG/1.1/DTD/svg11.dtd">
<svg width="100%" height="100%" viewBox="0 0 51 51" version="1.1" xmlns="http://www.w3.org/2000/svg" xmlns:xlink="http://www.w3.org/1999/xlink" xml:space="preserve" style="fill-rule:evenodd;clip-rule:evenodd;stroke-linejoin:round;stroke-miterlimit:1.41421;">
    <path id="coin" d="M25.5,51C39.6,51 51,39.6 51,25.5C51,11.4 39.5,0 25.5,0C11.5,0 0,11.4 0,25.5C0,39.6 11.4,51 25.5,51Z" style="fill:url(#_Linear1);fill-rule:nonzero;"/>
    <g id="BitPay.-Bitcoin_Symbol" transform="matrix(0.939973,0.341249,-0.341249,0.939973,10.2185,-7.19166)">
        <path d="M33.5,19.1C32.9,16.1 30.2,15.3 27,15.2L26.5,11L24,11.2L24.5,15.4C23.8,15.5 23.2,15.5 22.5,15.6L22,11.4L19.5,11.6L20,15.9C19.5,15.9 18.9,16 18.4,16.1L15,16.4L15.3,19.2C15.3,19.2 17.1,19 17.1,19.1C18.1,19 18.5,19.6 18.6,20.1L19.1,25C19.2,25 19.3,25 19.4,25C19.3,25 19.2,25 19.1,25L19.9,31.8C19.9,32.1 19.7,32.7 19.1,32.7L17.3,32.9L17.2,36L20.4,35.7C21,35.7 21.6,35.6 22.2,35.6L22.7,39.9L25.2,39.7L24.7,35.4C25.4,35.4 26.1,35.3 26.7,35.3L27.2,39.5L29.7,39.3L29.2,35C33.4,34.4 36.2,33 36.1,28.9C36,25.6 34.4,24.2 31.9,23.8C33.2,22.8 34,21.4 33.5,19.1ZM31,28.7C31.4,31.9 26,32 24.3,32.2L23.7,26.5C25.5,26.3 30.7,25.3 31,28.7ZM23.5,23.8L23,18.6C24.4,18.5 28.8,17.6 29.1,20.7C29.3,23.6 24.9,23.7 23.5,23.8Z" style="fill:white;fill-rule:nonzero;"/>
    </g>
    <defs>
        <linearGradient id="_Linear1" x1="0" y1="0" x2="1" y2="0" gradientUnits="userSpaceOnUse" gradientTransform="matrix(-17.5917,-30.4347,30.4347,-17.5917,30.8557,34.8191)"><stop offset="0" style="stop-color:rgb(255,162,75);stop-opacity:1"/><stop offset="1" style="stop-color:rgb(247,137,28);stop-opacity:1"/></linearGradient>
    </defs>
</svg>
