<?xml version="1.0" encoding="UTF-8"?>
<svg width="41px" height="41px" viewBox="0 0 41 41" version="1.1" xmlns="http://www.w3.org/2000/svg" xmlns:xlink="http://www.w3.org/1999/xlink">
    <title>Group 6</title>
    <g id="V2" stroke="none" stroke-width="1" fill="none" fill-rule="evenodd">
        <g id="Choose-Exchange-Type-2---v2" transform="translate(-314.000000, -25.000000)" fill="#9BA3AE">
            <g id="Group-4" transform="translate(314.000000, 25.000000)">
                <circle id="Oval" opacity="0.100000001" cx="20.5" cy="20.5" r="20.5"></circle>
                <g id="Group-8" transform="translate(10.500000, 10.000000)">
                    <g id="Group-7" transform="translate(0.500000, 0.000000)">
                        <g id="refresh-01" fill-rule="nonzero">
                            <path d="M18.5455304,8.1728 L17.2524522,0.7352 L14.5828174,3.2936 C13.0217739,2.2 11.1493565,1.6 9.1826087,1.6 C4.11965217,1.6 0,5.548 0,10.4 C0,15.252 4.11965217,19.2 9.1826087,19.2 C12.8339478,19.2 16.1380174,17.128 17.6005565,13.9208 C17.7850435,13.516 17.5922087,13.044 17.1698087,12.8672 C16.7482435,12.692 16.2557217,12.8752 16.0704,13.28 C14.8741565,15.904 12.1702957,17.6 9.1826087,17.6 C5.04041739,17.6 1.66956522,14.3696 1.66956522,10.4 C1.66956522,6.4304 5.04041739,3.2 9.1826087,3.2 C10.7027478,3.2 12.1561043,3.6352 13.3890783,4.4376 L10.7845565,6.9336 L18.5455304,8.1728 Z" id="Path"></path>
                        </g>
                        <rect id="Rectangle" x="7.82608696" y="6.66666667" width="1.73913043" height="5" rx="0.869565217"></rect>
                        <path d="M10.4729997,9.3901661 C10.9431773,9.39892278 11.3221773,9.77807129 11.3307497,10.2482524 L11.3941655,13.7265011 C11.4023409,14.1749074 11.0454632,14.54504 10.5970568,14.5532154 C10.587083,14.5533973 10.5771066,14.5533953 10.5671329,14.5532096 C10.0969552,14.5444529 9.71795527,14.1653044 9.70938288,13.6951233 L9.64596705,10.2168746 C9.63779166,9.76846827 9.99466936,9.39833563 10.4430757,9.39016023 C10.4530496,9.38997839 10.4630259,9.38998034 10.4729997,9.3901661 Z" id="Rectangle" transform="translate(10.520066, 11.971688) rotate(-240.000000) translate(-10.520066, -11.971688) "></path>
                    </g>
                </g>
            </g>
        </g>
    </g>
</svg>