<?xml version="1.0" encoding="UTF-8"?>
<svg width="20px" height="20px" viewBox="0 0 20 20" version="1.1" xmlns="http://www.w3.org/2000/svg" xmlns:xlink="http://www.w3.org/1999/xlink">
    <title>Interface/Medium/Link</title>
    <g id="---Shop" stroke="none" stroke-width="1" fill="none" fill-rule="evenodd">
        <g id="Shop---Merchant-" transform="translate(-74.000000, -692.000000)" fill="#FFFFFF">
            <g id="Interface/Medium/Link" transform="translate(72.000000, 690.000000)">
                <g id="a-tag" transform="translate(2.000000, 2.000000)">
                    <path d="M7.90869658,12.0912021 C8.25956258,12.4420651 8.2644925,13.0093874 7.91977688,13.3662948 L1.55253078,19.7334875 C1.38198615,19.9040822 1.15066187,20 0.909438921,20 C0.541597749,20 0.210011444,19.7783057 0.0692553485,19.4384632 C-0.0715007475,19.0986207 0.00628334139,18.7074547 0.266347064,18.4473146 L6.63359317,12.0801219 C6.99050359,11.7354091 7.55783057,11.740339 7.90869658,12.0912021 Z M18.2438116,5.61378284 L18.5403434,6.58159613 C18.5858237,6.71530718 19.6036735,9.86888678 17.410612,12.0619299 L12.0102777,17.4613093 C9.81903543,19.6525332 6.66451979,18.6356016 6.55263818,18.5973984 L5.56571503,18.2926828 L7.02108557,16.8373244 L7.10385977,16.8627932 C7.12569033,16.87007 9.33603433,17.5631844 10.7259132,16.1733172 L16.1253379,10.7730281 C17.5133975,9.38407053 16.8211869,7.17374506 16.8084524,7.1346323 L16.7884411,7.06914118 L18.2438116,5.61378284 Z M7.93887862,2.5875471 C10.1319401,0.394504003 13.2855461,1.41234524 13.4192583,1.45782519 L13.4192583,1.45782519 L14.3870797,1.75435445 L12.9317092,3.20971279 L12.8662175,3.18970161 C12.8271044,3.17696722 10.6167604,2.48476241 9.22779115,3.87281043 L9.22779115,3.87281043 L3.82654724,9.27400906 C2.43666838,10.6638763 3.1297886,12.8742017 3.13706545,12.8960321 L3.13706545,12.8960321 L3.16253443,12.9788056 L1.7071639,14.434164 L1.4042649,13.4445203 C1.36606143,13.3326396 0.349121264,10.1781504 2.54036353,7.98692653 L2.54036353,7.98692653 Z M19.7335822,0.266415573 C20.0844482,0.617278636 20.0893781,1.18460086 19.7446625,1.54150829 L13.3774164,7.90870102 C13.2068718,8.07929573 12.9755475,8.17521351 12.7343245,8.17521351 C12.3664834,8.17521351 12.0348971,7.95351923 11.894141,7.61367674 C11.7533849,7.27383425 11.831169,6.88266816 12.0912327,6.62252809 L18.4584788,0.255335362 C18.8153892,-0.0893773656 19.3827162,-0.0844474887 19.7335822,0.266415573 Z" id="Path-2" fill-rule="nonzero"></path>
                </g>
            </g>
        </g>
    </g>
</svg>