<svg width="65" height="72" viewBox="0 0 65 72" fill="none" xmlns="http://www.w3.org/2000/svg">
<path d="M1.96027 12.6102C1.95618 12.5783 1.95222 12.5472 1.94838 12.517L32.9242 1.74611L63.9001 12.517C63.8962 12.5472 63.8923 12.5783 63.8882 12.6102C63.8145 13.1854 63.7023 14.0221 63.5488 15.0632C63.2415 17.1462 62.769 20.0449 62.1083 23.3057C60.7819 29.8526 58.7153 37.7642 55.7502 43.4814C52.7019 49.359 46.8607 56.1775 41.7182 61.5734C39.1578 64.26 36.7905 66.5735 35.0634 68.2152C34.2001 69.0359 33.4973 69.6882 33.011 70.1346C32.9813 70.1619 32.9523 70.1885 32.9242 70.2142C32.8961 70.1885 32.8672 70.1619 32.8374 70.1346C32.3512 69.6882 31.6484 69.0359 30.7851 68.2152C29.058 66.5735 26.6907 64.26 24.1303 61.5734C18.9878 56.1775 13.1465 49.359 10.0983 43.4814C7.1332 37.7642 5.0666 29.8526 3.74016 23.3057C3.07949 20.0449 2.60696 17.1462 2.29971 15.0632C2.14612 14.0221 2.03394 13.1854 1.96027 12.6102Z" fill="#01F2FF" fill-opacity="0.2" stroke="#01F2FF" stroke-width="2"/>
<path d="M28.1938 55.1261C27.2658 55.1261 26.5458 54.6941 26.0338 53.8301L18.9778 39.6701C18.7538 39.2541 18.6418 38.8381 18.6418 38.4221C18.6418 37.7181 18.8658 37.1421 19.3138 36.6941C19.7938 36.2461 20.3858 36.0221 21.0898 36.0221C21.5698 36.0221 22.0018 36.1501 22.3858 36.4061C22.7698 36.6301 23.0898 36.9821 23.3458 37.4621L28.1938 47.2061L43.7458 16.1021C44.0018 15.6221 44.3058 15.2701 44.6578 15.0461C45.0418 14.7901 45.4898 14.6621 46.0018 14.6621H49.5538C50.2578 14.6621 50.8338 14.8861 51.2818 15.3341C51.7618 15.7821 52.0018 16.3741 52.0018 17.1101C52.0018 17.8141 51.7618 18.3901 51.2818 18.8381C50.8338 19.2861 50.2578 19.5101 49.5538 19.5101H47.5378L30.4018 53.7341C29.9218 54.6621 29.1858 55.1261 28.1938 55.1261Z" fill="#01F2FF"/>
</svg>
