<?xml version="1.0" encoding="UTF-8" standalone="no"?>
<!DOCTYPE svg PUBLIC "-//W3C//DTD SVG 1.1//EN" "http://www.w3.org/Graphics/SVG/1.1/DTD/svg11.dtd">
<svg version="1.1" xmlns="http://www.w3.org/2000/svg" xmlns:xlink="http://www.w3.org/1999/xlink" preserveAspectRatio="xMidYMid meet" viewBox="0 0 25 25" width="25" height="25"><defs><path d="M13.86 1L14.47 1.16L15.05 1.38L15.59 1.65L16.09 1.97L16.55 2.34L16.97 2.76L17.34 3.22L17.66 3.73L17.93 4.27L18.15 4.84L18.31 5.45L18.4 6.09L18.44 6.75L18.44 8.38L21.19 8.38L21.19 24.13L3.81 24.13L3.81 8.5L6.69 8.5L6.69 6.75L6.72 6.09L6.82 5.45L6.97 4.84L7.19 4.27L7.46 3.73L7.78 3.22L8.16 2.76L8.57 2.34L9.04 1.97L9.54 1.65L10.08 1.38L10.66 1.16L11.26 1L11.9 0.91L12.56 0.88L13.23 0.91L13.86 1ZM6.19 21.75L19.06 21.75L19.06 10.75L6.19 10.75L6.19 21.75ZM11.23 3.32L10.53 3.55L9.95 3.89L9.58 4.25L9.29 4.68L9.07 5.18L8.94 5.74L8.94 8.5L16.19 8.5L16.19 5.74L16.07 5.08L15.76 4.53L15.33 4.08L14.87 3.73L14.37 3.45L13.86 3.26L13.27 3.16L12.56 3.13L11.94 3.17L11.23 3.32Z" id="d22ASScwUn"></path><path d="M14.69 13.14L15.38 14.1L15.69 15.25L15.55 16.14L15.17 16.91L14.58 17.54L13.81 18L13.81 18.88L11.44 18.88L11.44 18L10.72 17.59L10.13 16.95L9.71 16.15L9.56 15.25L9.8 14.1L10.45 13.14L11.41 12.49L12.56 12.25L13.72 12.49L14.69 13.14ZM12.05 14.86L11.88 15.1L11.81 15.37L11.88 15.65L12.05 15.89L12.29 16.06L12.56 16.13L12.84 16.08L13.08 15.94L13.25 15.7L13.31 15.37L13.25 15.1L13.08 14.86L12.84 14.69L12.56 14.63L12.29 14.69L12.05 14.86Z" id="b7gemX4"></path></defs><g><g><g><use xlink:href="#d22ASScwUn" opacity="1" fill="#6cc64d" fill-opacity="1"></use><g><use xlink:href="#d22ASScwUn" opacity="1" fill-opacity="0" stroke="#000000" stroke-width="1" stroke-opacity="0"></use></g></g><g><use xlink:href="#b7gemX4" opacity="1" fill="#6cc64d" fill-opacity="1"></use><g><use xlink:href="#b7gemX4" opacity="1" fill-opacity="0" stroke="#000000" stroke-width="1" stroke-opacity="0"></use></g></g></g></g></svg>