<svg width="24" height="24" viewBox="0 0 24 24" fill="none" xmlns="http://www.w3.org/2000/svg">
<path fill-rule="evenodd" clip-rule="evenodd" d="M4 3H6H18V4H19.0088V8H18V10H19.0088V14H18V19C18 19.5523 17.5523 20 17 20H6C5.82735 20 5.65981 19.9781 5.5 19.937C4.63739 19.715 4 18.9319 4 18V3ZM18 4.5V7.5H18.5088V4.5H18ZM5.5 3.5V19.4146C4.9174 19.2087 4.5 18.6531 4.5 18V3.5H5.5ZM16 5H8V18H16V5ZM18.5088 13.5H18V10.5H18.5088V13.5ZM10.5088 8.5H13.5088V10.5H10.5088V8.5ZM10.0088 11V8H14.0088V11H10.0088Z" fill="#C3E7FF" fill-opacity="0.6"/>
</svg>
