<svg width="80" height="80" viewBox="0 0 80 80" fill="none" xmlns="http://www.w3.org/2000/svg">
<path fill-rule="evenodd" clip-rule="evenodd" d="M56.6871 16.8535C54.1615 10.1108 47.8601 5.33301 40.4862 5.33301C31.2338 5.33301 23.6699 12.8552 23.135 22.3428H23.1049V23.3457L23.1047 23.4187L23.1049 23.4916V32.6775L21.1448 32.6775C18.3519 32.6775 16.0877 35.0333 16.0877 37.9394V69.027C16.0877 71.9331 18.3519 74.289 21.1448 74.289H59.3194C62.1123 74.289 64.3764 71.9331 64.3764 69.027V37.9394C64.3764 35.0333 62.1123 32.6775 59.3194 32.6775L57.8952 32.6775L57.9061 32.7913H46.5281L46.5384 32.6775H29.8307V24.7942H29.8492C30.1772 17.557 34.8142 11.8191 40.4864 11.8191C44.5967 11.8191 48.1634 14.8322 49.9408 19.2454L56.6871 16.8535Z" fill="#00FFD3" fill-opacity="0.5"/>
<path fill-rule="evenodd" clip-rule="evenodd" d="M57.4951 32.6761H57.8662V32.6775L59.5721 32.6775C62.3651 32.6775 64.6292 35.0333 64.6292 37.9394V69.3785C64.6292 72.2846 62.365 74.6405 59.5721 74.6405H21.057C18.2641 74.6405 16 72.2846 16 69.3785V37.9394C16 35.0333 18.2641 32.6775 21.057 32.6775L23.1031 32.6775V23.4916L23.103 23.4187L23.1031 23.3457V22.3428H23.1333C23.6682 12.8552 31.2321 5.33301 40.4845 5.33301C47.8572 5.33301 54.1577 10.1093 56.6841 16.8503L56.2048 17.0197L56.2024 17.0134L50.4055 19.0492L50.4126 19.0669L49.9352 19.2357C48.1565 14.8278 44.5919 11.8191 40.4846 11.8191C34.8125 11.8191 30.1754 17.557 29.8475 24.7942H29.829V32.6775H51.1403V32.6761H51.5931V32.6624H57.4951V32.6761ZM57.4951 33.2037L59.5721 33.2037C62.0858 33.2037 64.1235 35.3239 64.1235 37.9394V69.3785C64.1235 71.994 62.0858 74.1143 59.5721 74.1143H21.057C18.5434 74.1143 16.5057 71.994 16.5057 69.3785V37.9394C16.5057 35.3239 18.5434 33.2037 21.057 33.2037L23.6088 33.2037L23.6089 23.4916L23.6088 23.4896L23.6087 23.4187L23.6088 23.3478V22.869L23.6381 22.3736C24.1574 13.1625 31.5015 5.8592 40.4845 5.8592C47.363 5.8592 53.2805 10.1414 55.9088 16.2833L50.0934 18.3256C48.1659 14.1442 44.6219 11.2929 40.4846 11.2929C34.5869 11.2929 29.895 17.0869 29.372 24.268H29.3232V33.2037H51.5931V33.215H57.4951V33.2037Z" fill="#00FFD3"/>
<path fill-rule="evenodd" clip-rule="evenodd" d="M51.405 43.6844L49.5602 47.0091H45.8706L44.0258 43.6844L45.8706 40.3597H49.5602L51.405 43.6844Z" fill="#06435E" fill-opacity="0.5"/>
<path fill-rule="evenodd" clip-rule="evenodd" d="M45.7627 40.1589H49.6752L51.6315 43.6844L49.6752 47.21H45.7627L43.8065 43.6844L45.7627 40.1589ZM45.9856 40.5606L44.2523 43.6844L45.9856 46.8083H49.4523L51.1856 43.6844L49.4523 40.5606H45.9856Z" fill="#00FFD3"/>
<path fill-rule="evenodd" clip-rule="evenodd" d="M44.0289 66.7171L42.1841 70.0418H38.4945L36.6498 66.7171L38.4945 63.3924H42.1841L44.0289 66.7171Z" fill="#06435E" fill-opacity="0.5"/>
<path fill-rule="evenodd" clip-rule="evenodd" d="M38.3866 63.1914H42.2991L44.2554 66.717L42.2991 70.2426H38.3866L36.4304 66.717L38.3866 63.1914ZM38.6096 63.5932L36.8762 66.717L38.6096 69.8408H42.0762L43.8095 66.717L42.0762 63.5932H38.6096Z" fill="#00FFD3"/>
<path d="M32.9632 55.1788C35.0009 55.1788 36.6528 53.46 36.6528 51.3397C36.6528 49.2195 35.0009 47.5006 32.9632 47.5006C30.9256 47.5006 29.2737 49.2195 29.2737 51.3397C29.2737 53.46 30.9256 55.1788 32.9632 55.1788Z" fill="#06435E" fill-opacity="0.5"/>
<path fill-rule="evenodd" clip-rule="evenodd" d="M32.9644 47.7016C31.0333 47.7016 29.4678 49.3304 29.4678 51.3397C29.4678 53.349 31.0333 54.9779 32.9644 54.9779C34.8954 54.9779 36.4609 53.349 36.4609 51.3397C36.4609 49.3304 34.8954 47.7016 32.9644 47.7016ZM29.0817 51.3397C29.0817 49.1085 30.82 47.2998 32.9644 47.2998C35.1087 47.2998 36.847 49.1085 36.847 51.3397C36.847 53.5709 35.1087 55.3797 32.9644 55.3797C30.82 55.3797 29.0817 53.5709 29.0817 51.3397Z" fill="#00FFD3"/>
<path d="M47.7319 55.167C49.7696 55.167 51.4214 53.4482 51.4214 51.328C51.4214 49.2077 49.7696 47.4889 47.7319 47.4889C45.6942 47.4889 44.0423 49.2077 44.0423 51.328C44.0423 53.4482 45.6942 55.167 47.7319 55.167Z" fill="#06435E" fill-opacity="0.5"/>
<path fill-rule="evenodd" clip-rule="evenodd" d="M47.733 47.6898C45.8019 47.6898 44.2365 49.3187 44.2365 51.328C44.2365 53.3373 45.8019 54.9662 47.733 54.9662C49.664 54.9662 51.2295 53.3373 51.2295 51.328C51.2295 49.3187 49.664 47.6898 47.733 47.6898ZM43.8503 51.328C43.8503 49.0968 45.5887 47.2881 47.733 47.2881C49.8773 47.2881 51.6156 49.0968 51.6156 51.328C51.6156 53.5592 49.8773 55.3679 47.733 55.3679C45.5887 55.3679 43.8503 53.5592 43.8503 51.328Z" fill="#00FFD3"/>
<path d="M40.3558 55.167C42.3935 55.167 44.0454 53.4482 44.0454 51.328C44.0454 49.2077 42.3935 47.4889 40.3558 47.4889C38.3181 47.4889 36.6662 49.2077 36.6662 51.328C36.6662 53.4482 38.3181 55.167 40.3558 55.167Z" fill="#06435E" fill-opacity="0.5"/>
<path fill-rule="evenodd" clip-rule="evenodd" d="M40.3569 47.6898C38.4258 47.6898 36.8604 49.3187 36.8604 51.328C36.8604 53.3373 38.4258 54.9662 40.3569 54.9662C42.288 54.9662 43.8534 53.3373 43.8534 51.328C43.8534 49.3187 42.288 47.6898 40.3569 47.6898ZM36.4743 51.328C36.4743 49.0968 38.2126 47.2881 40.3569 47.2881C42.5012 47.2881 44.2395 49.0968 44.2395 51.328C44.2395 53.5592 42.5012 55.3679 40.3569 55.3679C38.2126 55.3679 36.4743 53.5592 36.4743 51.328Z" fill="#00FFD3"/>
<path d="M40.3558 62.8451C42.3935 62.8451 44.0454 61.1263 44.0454 59.006C44.0454 56.8858 42.3935 55.167 40.3558 55.167C38.3181 55.167 36.6662 56.8858 36.6662 59.006C36.6662 61.1263 38.3181 62.8451 40.3558 62.8451Z" fill="#06435E" fill-opacity="0.5"/>
<path fill-rule="evenodd" clip-rule="evenodd" d="M40.3569 55.3679C38.4258 55.3679 36.8604 56.9969 36.8604 59.0062C36.8604 61.0155 38.4258 62.6444 40.3569 62.6444C42.288 62.6444 43.8534 61.0155 43.8534 59.0062C43.8534 56.9969 42.288 55.3679 40.3569 55.3679ZM36.4743 59.0062C36.4743 56.775 38.2126 54.9662 40.3569 54.9662C42.5012 54.9662 44.2395 56.775 44.2395 59.0062C44.2395 61.2374 42.5012 63.0462 40.3569 63.0462C38.2126 63.0462 36.4743 61.2374 36.4743 59.0062Z" fill="#00FFD3"/>
<path d="M32.9578 62.8451C34.9955 62.8451 36.6473 61.1263 36.6473 59.006C36.6473 56.8858 34.9955 55.167 32.9578 55.167C30.9201 55.167 29.2682 56.8858 29.2682 59.006C29.2682 61.1263 30.9201 62.8451 32.9578 62.8451Z" fill="#06435E" fill-opacity="0.5"/>
<path fill-rule="evenodd" clip-rule="evenodd" d="M32.9589 55.3681C31.0278 55.3681 29.4624 56.9969 29.4624 59.0062C29.4624 61.0155 31.0278 62.6444 32.9589 62.6444C34.89 62.6444 36.4554 61.0155 36.4554 59.0062C36.4554 56.9969 34.89 55.3681 32.9589 55.3681ZM29.0762 59.0062C29.0762 56.775 30.8146 54.9663 32.9589 54.9663C35.1032 54.9663 36.8415 56.775 36.8415 59.0062C36.8415 61.2374 35.1032 63.0462 32.9589 63.0462C30.8146 63.0462 29.0762 61.2374 29.0762 59.0062Z" fill="#00FFD3"/>
<path d="M47.7319 62.8453C49.7696 62.8453 51.4214 61.1265 51.4214 59.0062C51.4214 56.886 49.7696 55.167 47.7319 55.167C45.6942 55.167 44.0423 56.886 44.0423 59.0062C44.0423 61.1265 45.6942 62.8453 47.7319 62.8453Z" fill="#06435E" fill-opacity="0.5"/>
<path fill-rule="evenodd" clip-rule="evenodd" d="M47.733 55.3679C45.8019 55.3679 44.2365 56.9969 44.2365 59.0062C44.2365 61.0155 45.8019 62.6444 47.733 62.6444C49.664 62.6444 51.2295 61.0155 51.2295 59.0062C51.2295 56.9969 49.664 55.3679 47.733 55.3679ZM43.8503 59.0062C43.8503 56.775 45.5887 54.9662 47.733 54.9662C49.8773 54.9662 51.6156 56.775 51.6156 59.0062C51.6156 61.2374 49.8773 63.0462 47.733 63.0462C45.5887 63.0462 43.8503 61.2374 43.8503 59.0062Z" fill="#00FFD3"/>
<path fill-rule="evenodd" clip-rule="evenodd" d="M58.7865 51.3538L56.9418 54.6786H53.2522L51.4074 51.3538L53.2522 48.0291H56.9418L58.7865 51.3538Z" fill="#06435E" fill-opacity="0.5"/>
<path fill-rule="evenodd" clip-rule="evenodd" d="M53.1388 47.8283H57.0513L59.0075 51.3539L57.0513 54.8795H53.1388L51.1825 51.3539L53.1388 47.8283ZM53.3617 48.23L51.6284 51.3539L53.3617 54.4777H56.8284L58.5617 51.3539L56.8284 48.23H53.3617Z" fill="#00FFD3"/>
<path fill-rule="evenodd" clip-rule="evenodd" d="M58.7865 59.0319L56.9418 62.3566H53.2522L51.4074 59.0319L53.2522 55.7072H56.9418L58.7865 59.0319Z" fill="#06435E" fill-opacity="0.5"/>
<path fill-rule="evenodd" clip-rule="evenodd" d="M53.1388 55.5063H57.0513L59.0075 59.0319L57.0513 62.5575H53.1388L51.1825 59.0319L53.1388 55.5063ZM53.3617 55.9081L51.6284 59.0319L53.3617 62.1558H56.8284L58.5617 59.0319L56.8284 55.9081H53.3617Z" fill="#00FFD3"/>
<path fill-rule="evenodd" clip-rule="evenodd" d="M29.2219 51.3538L27.3771 54.6786H23.6875L21.8428 51.3538L23.6875 48.0291H27.3771L29.2219 51.3538Z" fill="#06435E" fill-opacity="0.5"/>
<path fill-rule="evenodd" clip-rule="evenodd" d="M23.5742 47.8283H27.4867L29.4429 51.3539L27.4867 54.8795H23.5742L21.6179 51.3539L23.5742 47.8283ZM23.7971 48.23L22.0638 51.3539L23.7971 54.4777H27.2637L28.9971 51.3539L27.2637 48.23H23.7971Z" fill="#00FFD3"/>
<path fill-rule="evenodd" clip-rule="evenodd" d="M29.2219 59.0319L27.3771 62.3566H23.6875L21.8428 59.0319L23.6875 55.7072H27.3771L29.2219 59.0319Z" fill="#06435E" fill-opacity="0.5"/>
<path fill-rule="evenodd" clip-rule="evenodd" d="M23.5742 55.5063H27.4867L29.4429 59.0319L27.4867 62.5575H23.5742L21.6179 59.0319L23.5742 55.5063ZM23.7971 55.9081L22.0638 59.0319L23.7971 62.1558H27.2637L28.9971 59.0319L27.2637 55.9081H23.7971Z" fill="#00FFD3"/>
<path d="M40.3613 47.4891C42.399 47.4891 44.0508 45.7703 44.0508 43.6501C44.0508 41.5298 42.399 39.811 40.3613 39.811C38.3236 39.811 36.6717 41.5298 36.6717 43.6501C36.6717 45.7703 38.3236 47.4891 40.3613 47.4891Z" fill="#06435E" fill-opacity="0.5"/>
<path fill-rule="evenodd" clip-rule="evenodd" d="M40.3624 40.0118C38.4313 40.0118 36.8659 41.6406 36.8659 43.65C36.8659 45.6593 38.4313 47.2881 40.3624 47.2881C42.2934 47.2881 43.8589 45.6593 43.8589 43.65C43.8589 41.6406 42.2934 40.0118 40.3624 40.0118ZM36.4797 43.65C36.4797 41.4188 38.2181 39.61 40.3624 39.61C42.5067 39.61 44.245 41.4188 44.245 43.65C44.245 45.8811 42.5067 47.6899 40.3624 47.6899C38.2181 47.6899 36.4797 45.8811 36.4797 43.65Z" fill="#00FFD3"/>
<path d="M32.9742 70.5233C35.0119 70.5233 36.6638 68.8045 36.6638 66.6843C36.6638 64.564 35.0119 62.8452 32.9742 62.8452C30.9365 62.8452 29.2846 64.564 29.2846 66.6843C29.2846 68.8045 30.9365 70.5233 32.9742 70.5233Z" fill="#06435E" fill-opacity="0.5"/>
<path fill-rule="evenodd" clip-rule="evenodd" d="M32.9753 63.0461C31.0443 63.0461 29.4788 64.675 29.4788 66.6843C29.4788 68.6936 31.0443 70.3225 32.9753 70.3225C34.9064 70.3225 36.4718 68.6936 36.4718 66.6843C36.4718 64.675 34.9064 63.0461 32.9753 63.0461ZM29.0927 66.6843C29.0927 64.4531 30.831 62.6444 32.9753 62.6444C35.1196 62.6444 36.858 64.4531 36.858 66.6843C36.858 68.9155 35.1196 70.7242 32.9753 70.7242C30.831 70.7242 29.0927 68.9155 29.0927 66.6843Z" fill="#00FFD3"/>
<path d="M47.7319 70.5233C49.7696 70.5233 51.4214 68.8045 51.4214 66.6843C51.4214 64.564 49.7696 62.8453 47.7319 62.8453C45.6942 62.8453 44.0423 64.564 44.0423 66.6843C44.0423 68.8045 45.6942 70.5233 47.7319 70.5233Z" fill="#06435E" fill-opacity="0.5"/>
<path fill-rule="evenodd" clip-rule="evenodd" d="M47.733 63.0462C45.8019 63.0462 44.2365 64.675 44.2365 66.6843C44.2365 68.6936 45.8019 70.3225 47.733 70.3225C49.664 70.3225 51.2295 68.6936 51.2295 66.6843C51.2295 64.675 49.664 63.0462 47.733 63.0462ZM43.8503 66.6843C43.8503 64.4531 45.5887 62.6444 47.733 62.6444C49.8773 62.6444 51.6156 64.4531 51.6156 66.6843C51.6156 68.9155 49.8773 70.7242 47.733 70.7242C45.5887 70.7242 43.8503 68.9155 43.8503 66.6843Z" fill="#00FFD3"/>
<path fill-rule="evenodd" clip-rule="evenodd" d="M36.6528 43.6844L34.808 47.0091H31.1185L29.2737 43.6844L31.1185 40.3597H34.808L36.6528 43.6844Z" fill="#06435E" fill-opacity="0.5"/>
<path fill-rule="evenodd" clip-rule="evenodd" d="M31.0051 40.1589H34.9176L36.8738 43.6844L34.9176 47.21H31.0051L29.0488 43.6844L31.0051 40.1589ZM31.228 40.5606L29.4947 43.6844L31.228 46.8083H34.6946L36.428 43.6844L34.6946 40.5606H31.228Z" fill="#00FFD3"/>
</svg>
