<svg width="100" height="100" viewBox="0 0 100 100" fill="none" xmlns="http://www.w3.org/2000/svg">
<path d="M100 50C100 77.6142 77.6142 100 50 100C22.3858 100 0 77.6142 0 50C0 22.3858 22.3858 0 50 0C77.6142 0 100 22.3858 100 50Z" fill="#3B9E9A" fill-opacity="0.75"/>
<path fill-rule="evenodd" clip-rule="evenodd" d="M50 98.1359C76.5847 98.1359 98.1359 76.5847 98.1359 50C98.1359 23.4153 76.5847 1.86414 50 1.86414C23.4153 1.86414 1.86414 23.4153 1.86414 50C1.86414 76.5847 23.4153 98.1359 50 98.1359ZM50 100C77.6142 100 100 77.6142 100 50C100 22.3858 77.6142 0 50 0C22.3858 0 0 22.3858 0 50C0 77.6142 22.3858 100 50 100Z" fill="#00FBC6"/>
<path d="M29.8467 73.209C28.0806 71.8585 26.4437 70.3237 24.9815 68.6464C23.514 66.9635 22.2133 65.1268 21.1155 63.1881C18.8411 59.171 17.4565 54.8021 17 50.2028C17.0233 50.2076 19.3674 50.7124 22.8296 52.0253C24.5501 58.1986 27.2131 63.5577 30.7443 67.9536C29.8054 69.9392 29.5035 71.7072 29.8467 73.209Z" fill="#00FFD3" fill-opacity="0.4"/>
<path fill-rule="evenodd" clip-rule="evenodd" d="M25.2612 68.4026L25.2611 68.4026C23.81 66.7385 22.5238 64.9223 21.4384 63.0053C19.2751 59.1846 17.9261 55.0428 17.4248 50.685C17.6936 50.7524 18.0646 50.8496 18.5236 50.9803C19.502 51.2589 20.8802 51.6894 22.5231 52.3062C24.2332 58.3616 26.8506 63.6433 30.3112 68.0058C29.6012 69.5694 29.2696 71.0273 29.3505 72.3463C27.8785 71.1538 26.5058 69.8303 25.2612 68.4026ZM29.4047 72.865C27.807 71.5998 26.321 70.1829 24.9815 68.6464C23.514 66.9635 22.2133 65.1268 21.1155 63.1881C18.9054 59.2846 17.5355 55.0488 17.0409 50.5922C17.0265 50.4626 17.0129 50.3328 17 50.2028C17.0054 50.2039 17.1379 50.2324 17.3819 50.2922C18.1811 50.488 20.1773 51.0195 22.8296 52.0253C24.5501 58.1986 27.2131 63.5577 30.7443 67.9536C29.9162 69.705 29.5836 71.2871 29.7521 72.6665C29.7747 72.851 29.8062 73.0318 29.8467 73.209C29.6984 73.0956 29.5511 72.981 29.4047 72.865Z" fill="#00FFD3"/>
<path d="M29.8467 73.209C28.0806 71.8585 26.4437 70.3237 24.9815 68.6464C23.514 66.9635 22.2133 65.1268 21.1155 63.1881C18.8412 59.171 17.4565 54.8021 17 50.2028C17.0234 50.2076 19.3757 50.7156 22.8296 52.0253C24.5501 58.1986 27.213 63.5577 30.7443 67.9536C29.8054 69.9392 29.5035 71.7076 29.8467 73.209Z" fill="#00FFD3" fill-opacity="0.4"/>
<path fill-rule="evenodd" clip-rule="evenodd" d="M25.2612 68.4026L25.2611 68.4026C23.81 66.7385 22.5238 64.9223 21.4384 63.0053C19.2752 59.1846 17.9262 55.0429 17.4248 50.6852C17.6944 50.7528 18.0665 50.8504 18.5267 50.9815C19.5061 51.2605 20.8842 51.6909 22.5231 52.3062C24.2332 58.3616 26.8506 63.6433 30.3112 68.0058C29.6013 69.5694 29.2696 71.0275 29.3504 72.3463C27.8785 71.1537 26.5058 69.8303 25.2612 68.4026ZM29.4047 72.865C27.807 71.5998 26.321 70.1829 24.9815 68.6464C23.514 66.9635 22.2133 65.1268 21.1155 63.1881C18.9055 59.2846 17.5355 55.0488 17.0409 50.5923C17.0266 50.4627 17.0129 50.3328 17 50.2028C17.0055 50.2039 17.138 50.2325 17.3819 50.2924C18.1824 50.4887 20.1824 51.0215 22.8296 52.0253C24.5501 58.1986 27.213 63.5577 30.7443 67.9536C29.9162 69.7049 29.5836 71.2873 29.7521 72.6665C29.7747 72.851 29.8062 73.0319 29.8467 73.209C29.6984 73.0956 29.5511 72.981 29.4047 72.865Z" fill="#00FFD3"/>
<path d="M29.8467 73.209C28.0806 71.8585 26.4437 70.3237 24.9815 68.6464C23.514 66.9635 22.2133 65.1268 21.1155 63.1881C18.8412 59.171 17.4565 54.8021 17 50.2028C17.0234 50.2076 19.3757 50.7156 22.8296 52.0253C24.5501 58.1986 27.213 63.5577 30.7443 67.9536C29.8054 69.9392 29.5035 71.7076 29.8467 73.209Z" fill="#00FFD3" fill-opacity="0.4"/>
<path fill-rule="evenodd" clip-rule="evenodd" d="M25.2612 68.4026L25.2611 68.4026C23.81 66.7385 22.5238 64.9223 21.4384 63.0053C19.2752 59.1846 17.9262 55.0429 17.4248 50.6852C17.6944 50.7528 18.0665 50.8504 18.5267 50.9815C19.5061 51.2605 20.8842 51.6909 22.5231 52.3062C24.2332 58.3616 26.8506 63.6433 30.3112 68.0058C29.6013 69.5694 29.2696 71.0275 29.3504 72.3463C27.8785 71.1537 26.5058 69.8303 25.2612 68.4026ZM29.4047 72.865C27.807 71.5998 26.321 70.1829 24.9815 68.6464C23.514 66.9635 22.2133 65.1268 21.1155 63.1881C18.9055 59.2846 17.5355 55.0488 17.0409 50.5923C17.0266 50.4627 17.0129 50.3328 17 50.2028C17.0055 50.2039 17.138 50.2325 17.3819 50.2924C18.1824 50.4887 20.1824 51.0215 22.8296 52.0253C24.5501 58.1986 27.213 63.5577 30.7443 67.9536C29.9162 69.7049 29.5836 71.2873 29.7521 72.6665C29.7747 72.851 29.8062 73.0319 29.8467 73.209C29.6984 73.0956 29.5511 72.981 29.4047 72.865Z" fill="#00FFD3"/>
<path fill-rule="evenodd" clip-rule="evenodd" d="M17.3819 50.292C17.1326 50.231 17 50.2028 17 50.2028C17.0129 50.3328 17.0266 50.4626 17.041 50.5922C18.0427 59.6044 22.6588 67.5237 29.4044 72.8649C29.5508 72.9808 29.6983 73.0955 29.8467 73.209C29.8058 73.0303 29.7743 72.8493 29.7517 72.6662C29.5717 71.2048 29.9626 69.6069 30.7443 67.9536C26.7434 62.973 24.3043 57.317 22.8296 52.0253C20.1682 51.016 18.1789 50.4869 17.3819 50.292ZM17.4248 50.6848C18.4312 59.4126 22.8672 67.0947 29.3497 72.3457C29.2633 70.9592 29.6371 69.4898 30.3112 68.0058C26.4016 63.0775 23.9945 57.5167 22.523 52.3062C20.8649 51.6835 19.4808 51.2518 18.5032 50.974C18.0532 50.8462 17.6894 50.751 17.4248 50.6848Z" fill="#00FFD3"/>
<path d="M82.7913 50.2024C82.7913 50.2024 80.4557 50.6999 76.9619 52.0249C75.4871 57.3166 73.0479 62.973 69.0469 67.9532C69.9266 69.8137 70.3114 71.6043 69.9443 73.209C77.0288 67.7914 81.8616 59.5725 82.7913 50.2024Z" fill="#00FFD3" fill-opacity="0.3"/>
<path d="M82.7913 50.2024C82.7913 50.2024 80.4557 50.6999 76.9619 52.0249C75.4871 57.3166 73.0479 62.973 69.0469 67.9532C69.9266 69.8137 70.3114 71.6043 69.9443 73.209C77.0288 67.7914 81.8616 59.5725 82.7913 50.2024Z" fill="#00FFD3" fill-opacity="0.3"/>
<path d="M82.7913 50.2024C82.7913 50.2024 80.4557 50.6999 76.9619 52.0249C75.4871 57.3166 73.0479 62.973 69.0469 67.9532C69.9266 69.8137 70.3114 71.6043 69.9443 73.209C77.0288 67.7914 81.8616 59.5725 82.7913 50.2024Z" fill="#00FFD3" fill-opacity="0.3"/>
<path d="M82.7913 50.2024C82.7913 50.2024 80.4557 50.6999 76.9619 52.0249C75.4871 57.3166 73.0479 62.973 69.0469 67.9532C69.9266 69.8137 70.3114 71.6043 69.9443 73.209C77.0288 67.7914 81.8616 59.5725 82.7913 50.2024Z" fill="#00FFD3" fill-opacity="0.3"/>
<path d="M82.7913 50.2024C82.7913 50.2024 80.4557 50.6999 76.9619 52.0249C75.4871 57.3166 73.0479 62.973 69.0469 67.9532C69.9266 69.8137 70.3114 71.6043 69.9443 73.209C77.0288 67.7914 81.8616 59.5725 82.7913 50.2024Z" fill="#00FFD3" fill-opacity="0.3"/>
<path d="M82.7913 50.2024C82.7913 50.2024 80.4557 50.6999 76.9619 52.0249C75.4871 57.3166 73.0479 62.973 69.0469 67.9532C69.9266 69.8137 70.3114 71.6043 69.9443 73.209C77.0288 67.7914 81.8616 59.5725 82.7913 50.2024Z" fill="#00FFD3" fill-opacity="0.3"/>
<path fill-rule="evenodd" clip-rule="evenodd" d="M69.6475 73.6699L70.0555 73.3579C77.1794 67.9102 82.0395 59.6453 82.9744 50.2223L82.9995 49.9696L82.7512 50.0225L82.7898 50.2039C82.7512 50.0225 82.7512 50.0225 82.7512 50.0225L82.751 50.0226L82.7491 50.023L82.7437 50.0241L82.7227 50.0287C82.7043 50.0328 82.677 50.0389 82.6412 50.0471C82.5696 50.0635 82.4637 50.0883 82.326 50.1223C82.0504 50.1901 81.6472 50.2943 81.1346 50.4399C80.1096 50.7311 78.6472 51.1884 76.8947 51.853L76.807 51.8863L76.7818 51.9767C75.3118 57.2512 72.8822 62.883 68.9008 67.8386L68.8281 67.9291L68.8778 68.0341C69.7485 69.8756 70.1161 71.6214 69.762 73.1692L69.6475 73.6699ZM82.5787 50.4427C81.6103 59.4841 76.9846 67.4288 70.212 72.7667C70.4174 71.2677 70.0326 69.6423 69.2624 67.9806C73.2175 63.0264 75.6406 57.4177 77.1139 52.1668C78.8163 51.5243 80.2369 51.0806 81.236 50.7967C81.7441 50.6524 82.1431 50.5493 82.4146 50.4825C82.4759 50.4674 82.5306 50.4542 82.5787 50.4427Z" fill="#00FFD3"/>
<path d="M44.7026 79.5781C39.3472 78.7502 34.2101 76.548 29.8466 73.2091C29.5033 71.7074 29.8053 69.9393 30.7442 67.9538C31.0769 68.3678 31.3785 68.7301 31.6662 69.0609C34.2814 72.0681 36.8133 74.5189 39.1916 76.3454C41.1347 77.8379 42.9889 78.9257 44.7026 79.5781Z" fill="#00FFD3" fill-opacity="0.8"/>
<path fill-rule="evenodd" clip-rule="evenodd" d="M31.3862 69.3044L31.3862 69.3044C34.0127 72.3245 36.5625 74.794 38.9657 76.6396L39.1912 76.346L38.9657 76.6396C39.9703 77.4113 40.9546 78.0784 41.9119 78.6356C37.6976 77.5799 33.6893 75.6588 30.1805 72.9972C29.9339 71.7636 30.14 70.3103 30.8368 68.6551C31.0274 68.8859 31.2092 69.1008 31.3862 69.3044ZM31.0041 68.2744C30.9195 68.171 30.8329 68.0642 30.7442 67.9538C30.6842 68.0805 30.6269 68.2064 30.5721 68.3314C29.7694 70.164 29.5253 71.8033 29.8466 73.2091C33.7829 76.2211 38.3489 78.3082 43.1367 79.2957C43.6563 79.4029 44.1784 79.4971 44.7026 79.5781C44.2315 79.3988 43.7498 79.1865 43.2585 78.942C41.9627 78.297 40.6006 77.4276 39.1916 76.3454C36.8133 74.5189 34.2814 72.0681 31.6662 69.0609C31.4552 68.8183 31.2368 68.5588 31.0041 68.2744Z" fill="#00FFD3"/>
<path d="M44.7026 79.5781C39.3473 78.7502 34.2101 76.548 29.8466 73.2091C29.5033 71.7078 29.8053 69.9393 30.7442 67.9538C31.0772 68.3682 31.3788 68.7305 31.6662 69.0609C34.2814 72.0681 36.8134 74.5189 39.1916 76.3454C41.1348 77.8383 42.989 78.9257 44.7026 79.5781Z" fill="#00FFD3" fill-opacity="0.8"/>
<path fill-rule="evenodd" clip-rule="evenodd" d="M30.1805 72.9972C29.9339 71.7639 30.14 70.3104 30.8368 68.6552C31.0275 68.8861 31.2094 69.101 31.3862 69.3044C34.0128 72.3245 36.5626 74.794 38.9657 76.6396L39.1916 76.3454L38.9657 76.6396C39.9702 77.4114 40.9544 78.0784 41.9115 78.6355C37.6974 77.5798 33.6893 75.6587 30.1805 72.9972ZM43.1366 79.2957C38.3489 78.3081 33.7829 76.2211 29.8466 73.2091C29.5253 71.8036 29.7694 70.164 30.5721 68.3314C30.6269 68.2064 30.6842 68.0805 30.7442 67.9538C30.8329 68.0643 30.9195 68.171 31.0041 68.2745C31.237 68.5591 31.4554 68.8186 31.6662 69.0609M44.7026 79.5781C44.1783 79.4971 43.6562 79.4028 43.1366 79.2957L44.7026 79.5781ZM43.2584 78.942C43.7497 79.1865 44.2315 79.3987 44.7026 79.5781L43.2584 78.942Z" fill="#00FFD3"/>
<path fill-rule="evenodd" clip-rule="evenodd" d="M30.1805 72.9972C29.9339 71.7639 30.14 70.3104 30.8368 68.6552C31.0275 68.8861 31.2094 69.101 31.3862 69.3044C34.0128 72.3245 36.5626 74.794 38.9657 76.6396L39.1916 76.3454L38.9657 76.6396C39.9702 77.4114 40.9544 78.0784 41.9115 78.6355C37.6974 77.5798 33.6893 75.6587 30.1805 72.9972ZM43.1366 79.2957C38.3489 78.3081 33.7829 76.2211 29.8466 73.2091C29.5253 71.8036 29.7694 70.164 30.5721 68.3314C30.6269 68.2064 30.6842 68.0805 30.7442 67.9538C30.8329 68.0643 30.9195 68.171 31.0041 68.2745C31.237 68.5591 31.4554 68.8186 31.6662 69.0609M44.7026 79.5781C44.1783 79.4971 43.6562 79.4028 43.1366 79.2957L44.7026 79.5781ZM43.2584 78.942C43.7497 79.1865 44.2315 79.3987 44.7026 79.5781L43.2584 78.942Z" fill="#00FFD3"/>
<path d="M36.9191 59.7852C31.7355 55.823 26.3961 53.3791 22.8296 52.0262C21.3602 46.7543 20.7129 41.6894 20.4287 38.3687C20.1212 34.7773 20.1606 32.3895 20.161 32.3657C20.1845 32.3782 22.5473 33.6512 25.8746 35.8296C28.9506 37.8438 33.5102 41.0696 37.7634 44.9995C36.4984 50.2145 36.2164 55.1871 36.9255 59.7787L36.9191 59.7852Z" fill="#00FFD3" fill-opacity="0.2"/>
<path fill-rule="evenodd" clip-rule="evenodd" d="M23.137 51.7464C21.7111 46.569 21.0781 41.6061 20.7983 38.337L20.4287 38.3687L20.7983 38.337C20.6453 36.5495 20.5786 35.062 20.5502 34.0192C20.5389 33.6044 20.5337 33.2601 20.5315 32.9953C20.7981 33.1456 21.156 33.3502 21.5912 33.6054C22.5963 34.195 24.0136 35.0546 25.6714 36.14C28.6994 38.1227 33.1651 41.2805 37.3518 45.1248C36.1987 49.9742 35.8891 54.6229 36.436 58.9588C31.5262 55.3421 26.5585 53.0573 23.137 51.7464ZM36.5049 59.472C31.4525 55.6936 26.3011 53.343 22.8296 52.0262C21.3602 46.7543 20.7129 41.6894 20.4287 38.3687C20.1961 35.6526 20.162 33.6249 20.1594 32.7876C20.1585 32.5177 20.1609 32.3715 20.161 32.3657C20.1664 32.3685 20.2951 32.4378 20.5303 32.5692C21.32 33.0103 23.311 34.1512 25.8746 35.8296C28.9506 37.8438 33.5102 41.0696 37.7634 44.9995C36.5451 50.0217 36.2386 54.819 36.8509 59.2678C36.8744 59.4381 36.8991 59.6079 36.9253 59.7771C36.9254 59.7777 36.9254 59.7782 36.9255 59.7787L36.9191 59.7852C36.9172 59.7836 36.9152 59.7821 36.9132 59.7806C36.7772 59.6767 36.6411 59.5738 36.5049 59.472Z" fill="#00FFD3"/>
<path d="M36.9192 59.7852C31.7356 55.823 26.3961 53.3791 22.8297 52.0262C21.3603 46.7543 20.713 41.6894 20.4287 38.3687C20.1207 34.7708 20.1607 32.3895 20.1611 32.3657C20.1845 32.3782 22.5418 33.6475 25.8746 35.8296C28.9507 37.8438 33.5102 41.0696 37.7635 44.9995C36.4984 50.2149 36.2165 55.1875 36.9256 59.7787L36.9192 59.7852Z" fill="#00FFD3" fill-opacity="0.2"/>
<path fill-rule="evenodd" clip-rule="evenodd" d="M23.1371 51.7464C21.7112 46.569 21.0782 41.6061 20.7983 38.337L20.481 38.3642L20.7983 38.337C20.645 36.5463 20.5784 35.0588 20.5501 34.0168C20.5388 33.6029 20.5337 33.2594 20.5315 32.9952C20.7976 33.1452 21.1547 33.3493 21.5892 33.6041C22.5936 34.1931 24.0109 35.0528 25.6714 36.1399C28.6994 38.1227 33.1651 41.2805 37.3518 45.1248C36.1987 49.9745 35.8892 54.6233 36.436 58.9588C31.5263 55.3421 26.5586 53.0573 23.1371 51.7464ZM36.505 59.472C31.4526 55.6936 26.3012 53.343 22.8297 52.0262C21.3603 46.7543 20.713 41.6894 20.4287 38.3687C20.1958 35.6486 20.1619 33.6238 20.1593 32.7875C20.1585 32.5176 20.161 32.3715 20.1611 32.3657C20.1665 32.3685 20.2951 32.4378 20.5304 32.5692C21.3192 33.0096 23.3076 34.1489 25.8746 35.8296C28.9507 37.8438 33.5102 41.0696 37.7635 44.9995C36.5452 50.0221 36.2387 54.8194 36.851 59.2678C36.8744 59.4381 36.8992 59.6079 36.9253 59.7771C36.9254 59.7777 36.9255 59.7782 36.9256 59.7787L36.9192 59.7852C36.9172 59.7836 36.9152 59.7821 36.9132 59.7806C36.7773 59.6767 36.6411 59.5738 36.505 59.472Z" fill="#00FFD3"/>
<path d="M36.9192 59.7852C31.7356 55.823 26.3961 53.3791 22.8297 52.0262C21.3603 46.7543 20.713 41.6894 20.4287 38.3687C20.1207 34.7708 20.1607 32.3895 20.1611 32.3657C20.1845 32.3782 22.5418 33.6475 25.8746 35.8296C28.9507 37.8438 33.5102 41.0696 37.7635 44.9995C36.4984 50.2149 36.2165 55.1875 36.9256 59.7787L36.9192 59.7852Z" fill="#00FFD3" fill-opacity="0.2"/>
<path fill-rule="evenodd" clip-rule="evenodd" d="M23.1371 51.7464C21.7112 46.569 21.0782 41.6061 20.7983 38.337L20.481 38.3642L20.7983 38.337C20.645 36.5463 20.5784 35.0588 20.5501 34.0168C20.5388 33.6029 20.5337 33.2594 20.5315 32.9952C20.7976 33.1452 21.1547 33.3493 21.5892 33.6041C22.5936 34.1931 24.0109 35.0528 25.6714 36.1399C28.6994 38.1227 33.1651 41.2805 37.3518 45.1248C36.1987 49.9745 35.8892 54.6233 36.436 58.9588C31.5263 55.3421 26.5586 53.0573 23.1371 51.7464ZM36.505 59.472C31.4526 55.6936 26.3012 53.343 22.8297 52.0262C21.3603 46.7543 20.713 41.6894 20.4287 38.3687C20.1958 35.6486 20.1619 33.6238 20.1593 32.7875C20.1585 32.5176 20.161 32.3715 20.1611 32.3657C20.1665 32.3685 20.2951 32.4378 20.5304 32.5692C21.3192 33.0096 23.3076 34.1489 25.8746 35.8296C28.9507 37.8438 33.5102 41.0696 37.7635 44.9995C36.5452 50.0221 36.2387 54.8194 36.851 59.2678C36.8744 59.4381 36.8992 59.6079 36.9253 59.7771C36.9254 59.7777 36.9255 59.7782 36.9256 59.7787L36.9192 59.7852C36.9172 59.7836 36.9152 59.7821 36.9132 59.7806C36.7773 59.6767 36.6411 59.5738 36.505 59.472Z" fill="#00FFD3"/>
<path d="M36.9257 59.7787C36.147 54.7364 36.6234 49.7005 37.7636 44.9995C29.53 37.3919 20.1613 32.3657 20.1613 32.3657C20.1613 32.3657 19.9854 41.8201 22.8299 52.0262C26.6519 53.4759 31.8599 55.9182 36.9194 59.7852C36.9215 59.7831 36.9236 59.7811 36.9257 59.7787Z" fill="#00FFD3" fill-opacity="0.2"/>
<path fill-rule="evenodd" clip-rule="evenodd" d="M20.1593 32.7872C20.1586 32.5118 20.1613 32.3657 20.1613 32.3657C20.1613 32.3657 20.29 32.4347 20.5304 32.5688C22.3417 33.5792 30.4949 38.2834 37.7636 44.9995C36.6619 49.5417 36.18 54.3965 36.8511 59.2677C36.8745 59.4375 36.8993 59.6073 36.9255 59.7771C36.9256 59.7777 36.9257 59.7782 36.9257 59.7787C36.9237 59.7811 36.9215 59.7831 36.9194 59.7851L36.9194 59.7852C36.9174 59.7836 36.9154 59.7821 36.9134 59.7806C36.7774 59.6767 36.6413 59.5738 36.5051 59.4719C31.5768 55.7857 26.5477 53.4364 22.8299 52.0262C20.339 43.0888 20.1642 34.7278 20.1593 32.7872ZM20.5314 32.9947C20.7925 33.1417 21.1416 33.3411 21.5663 33.59C22.5687 34.1774 23.9918 35.0402 25.6716 36.1401C28.9889 38.3122 33.3014 41.4051 37.352 45.1248C36.3049 49.528 35.8385 54.2284 36.4361 58.9586C31.6438 55.4272 26.7854 53.1437 23.1373 51.7463C21.7573 46.7366 21.1052 41.9184 20.7985 38.337C20.6434 36.5255 20.5769 35.0321 20.5491 33.9925C20.5383 33.5887 20.5334 33.2534 20.5314 32.9947Z" fill="#00FFD3"/>
<path d="M36.9189 59.786L36.9226 59.7826L36.9267 59.792L36.9189 59.786Z" fill="#00FFD3" fill-opacity="0.2"/>
<path fill-rule="evenodd" clip-rule="evenodd" d="M36.9267 59.792L36.9226 59.7826L36.9189 59.786L36.9267 59.792Z" fill="#00FFD3"/>
<path d="M36.9189 59.786L36.9226 59.7826L36.9267 59.792L36.9189 59.786Z" fill="#00FFD3" fill-opacity="0.2"/>
<path fill-rule="evenodd" clip-rule="evenodd" d="M36.9267 59.792L36.9226 59.7826L36.9189 59.786L36.9267 59.792Z" fill="#00FFD3"/>
<path d="M36.9189 59.786L36.9226 59.7826L36.9267 59.792L36.9189 59.786Z" fill="#00FFD3" fill-opacity="0.2"/>
<path fill-rule="evenodd" clip-rule="evenodd" d="M36.9267 59.792L36.9226 59.7826L36.9189 59.786L36.9267 59.792Z" fill="#00FFD3"/>
<path d="M36.9189 59.7857C36.9217 59.7881 36.9243 59.79 36.927 59.792C36.9264 59.7881 36.9257 59.7838 36.9251 59.7795C36.9231 59.7818 36.921 59.7838 36.9189 59.7857Z" fill="#00FFD3" fill-opacity="0.2"/>
<path fill-rule="evenodd" clip-rule="evenodd" d="M36.9189 59.7857C36.9217 59.7881 36.9243 59.79 36.927 59.792C36.9264 59.7881 36.9257 59.7838 36.9251 59.7795C36.9231 59.7818 36.921 59.7838 36.919 59.7857L36.9189 59.7857Z" fill="#00FFD3"/>
<path d="M62.8641 59.7787C63.5729 55.1871 63.2912 50.2145 62.0259 44.9991C66.2792 41.0692 70.8388 37.8434 73.9146 35.8292C77.2423 33.6508 79.6049 32.3778 79.6283 32.3653C79.6287 32.3891 79.6682 34.7773 79.3607 38.3683C79.0766 41.689 78.429 46.7539 76.9598 52.0258C73.3932 53.3787 68.0539 55.823 62.8701 59.7852L62.8641 59.7787Z" fill="#00FFD3" fill-opacity="0.2"/>
<path fill-rule="evenodd" clip-rule="evenodd" d="M62.8641 59.7787C62.8641 59.7783 62.8642 59.7779 62.8642 59.7775C62.8904 59.608 62.9152 59.438 62.9387 59.2675C63.5507 54.8188 63.2444 50.0216 62.0259 44.9991C66.2792 41.0692 70.8388 37.8434 73.9146 35.8292C76.4784 34.1509 78.4693 33.01 79.259 32.5689C79.4943 32.4374 79.6229 32.3681 79.6283 32.3653C79.6284 32.3711 79.6308 32.5173 79.63 32.7872C79.6273 33.6246 79.5932 35.6525 79.3607 38.3683C79.0766 41.689 78.4291 46.7539 76.9598 52.0258C73.4882 53.3426 68.3371 55.6935 63.2847 59.4717C63.1484 59.5736 63.0122 59.6766 62.8761 59.7806C62.8741 59.7821 62.8721 59.7836 62.8701 59.7852L62.8641 59.7787ZM63.3536 58.9586C63.9002 54.6228 63.5908 49.9741 62.4375 45.1244C66.6243 41.2801 71.09 38.1223 74.1179 36.1395C75.7758 35.0542 77.1931 34.1946 78.1983 33.605C78.6334 33.3498 78.9912 33.1453 79.2578 32.995C79.2501 33.9251 79.205 35.8377 78.9911 38.3366L78.9911 38.3367C78.7114 41.6057 78.0781 46.5686 76.6524 51.746C73.2308 53.0569 68.2633 55.342 63.3536 58.9586Z" fill="#00FFD3"/>
<path d="M62.864 59.7787C63.5729 55.1871 63.2912 50.2145 62.0259 44.9991C66.2792 41.0692 70.8388 37.8434 73.9146 35.8292C77.2475 33.6471 79.6049 32.3778 79.6283 32.3653C79.6287 32.3891 79.6686 34.7704 79.3607 38.3683C79.0766 41.689 78.429 46.7539 76.9598 52.0258C73.3932 53.3787 68.0539 55.823 62.8701 59.7852L62.864 59.7787Z" fill="#00FFD3" fill-opacity="0.2"/>
<path fill-rule="evenodd" clip-rule="evenodd" d="M62.864 59.7787C62.8641 59.7783 62.8642 59.7779 62.8642 59.7775C62.8904 59.608 62.9152 59.438 62.9387 59.2675C63.5507 54.8188 63.2444 50.0216 62.0259 44.9991C66.2792 41.0692 70.8388 37.8434 73.9146 35.8292C76.4817 34.1485 78.4701 33.0093 79.259 32.5688C79.4943 32.4374 79.6229 32.3682 79.6283 32.3653C79.6284 32.3711 79.6308 32.5172 79.63 32.7871C79.6274 33.6235 79.5935 35.6482 79.3607 38.3683C79.0766 41.689 78.429 46.7539 76.9598 52.0258C73.4882 53.3426 68.3371 55.6935 63.2847 59.4717C63.1484 59.5736 63.0122 59.6766 62.8761 59.7806C62.8741 59.7821 62.8721 59.7836 62.8701 59.7852L62.864 59.7787ZM63.3536 58.9586C63.9002 54.6228 63.5908 49.9741 62.4375 45.1244C66.6243 41.2801 71.09 38.1223 74.1178 36.1395C75.7785 35.0524 77.1957 34.1927 78.2002 33.6037C78.6346 33.3489 78.9917 33.1448 79.2578 32.9948C79.2502 33.9238 79.2052 35.834 78.9911 38.3367L79.3235 38.3651L78.9911 38.3367C78.7114 41.6057 78.0781 46.5686 76.6524 51.746C73.2307 53.0569 68.2633 55.342 63.3536 58.9586Z" fill="#00FFD3"/>
<path d="M62.864 59.7787C63.5729 55.1871 63.2912 50.2145 62.0259 44.9991C66.2792 41.0692 70.8388 37.8434 73.9146 35.8292C77.2475 33.6471 79.6049 32.3778 79.6283 32.3653C79.6287 32.3891 79.6686 34.7704 79.3607 38.3683C79.0766 41.689 78.429 46.7539 76.9598 52.0258C73.3932 53.3787 68.0539 55.823 62.8701 59.7852L62.864 59.7787Z" fill="#00FFD3" fill-opacity="0.2"/>
<path fill-rule="evenodd" clip-rule="evenodd" d="M62.864 59.7787C62.8641 59.7783 62.8642 59.7779 62.8642 59.7775C62.8904 59.608 62.9152 59.438 62.9387 59.2675C63.5507 54.8188 63.2444 50.0216 62.0259 44.9991C66.2792 41.0692 70.8388 37.8434 73.9146 35.8292C76.4817 34.1485 78.4701 33.0093 79.259 32.5688C79.4943 32.4374 79.6229 32.3682 79.6283 32.3653C79.6284 32.3711 79.6308 32.5172 79.63 32.7871C79.6274 33.6235 79.5935 35.6482 79.3607 38.3683C79.0766 41.689 78.429 46.7539 76.9598 52.0258C73.4882 53.3426 68.3371 55.6935 63.2847 59.4717C63.1484 59.5736 63.0122 59.6766 62.8761 59.7806C62.8741 59.7821 62.8721 59.7836 62.8701 59.7852L62.864 59.7787ZM63.3536 58.9586C63.9002 54.6228 63.5908 49.9741 62.4375 45.1244C66.6243 41.2801 71.09 38.1223 74.1178 36.1395C75.7785 35.0524 77.1957 34.1927 78.2002 33.6037C78.6346 33.3489 78.9917 33.1448 79.2578 32.9948C79.2502 33.9238 79.2052 35.834 78.9911 38.3367L79.3235 38.3651L78.9911 38.3367C78.7114 41.6057 78.0781 46.5686 76.6524 51.746C73.2307 53.0569 68.2633 55.342 63.3536 58.9586Z" fill="#00FFD3"/>
<path d="M62.8641 59.7787C62.8661 59.7807 62.8681 59.7827 62.8701 59.7852C67.9297 55.9178 73.1377 53.4755 76.9598 52.0258C79.8044 41.8197 79.6283 32.3653 79.6283 32.3653C79.6283 32.3653 70.2597 37.3915 62.0259 44.9991C63.1663 49.7001 63.6426 54.736 62.8641 59.7787Z" fill="#00FFD3" fill-opacity="0.2"/>
<path fill-rule="evenodd" clip-rule="evenodd" d="M79.6303 32.7868C79.631 32.5114 79.6283 32.3653 79.6283 32.3653C79.6283 32.3653 79.4996 32.4343 79.2592 32.5684C77.448 33.5788 69.2947 38.283 62.0259 44.9991C63.1277 49.5412 63.6096 54.396 62.9387 59.2675C62.9153 59.4375 62.8905 59.6075 62.8642 59.7775C62.8642 59.7779 62.8641 59.7783 62.8641 59.7787L62.8641 59.7787C62.8661 59.7807 62.8681 59.7827 62.8701 59.7852C62.8701 59.7852 62.8701 59.7852 62.8701 59.7852C62.8721 59.7836 62.8741 59.7821 62.8761 59.7806C63.0122 59.6766 63.1484 59.5736 63.2847 59.4717C68.213 55.7852 73.242 53.4359 76.9598 52.0258C79.4508 43.0884 79.6254 34.7274 79.6303 32.7868ZM79.2582 32.9943C79.2562 33.253 79.2513 33.5883 79.2405 33.9921C79.2127 35.0317 79.1462 36.5251 78.9911 38.3366C78.6845 41.918 78.0324 46.7362 76.6524 51.7459C73.0043 53.1432 68.1461 55.4267 63.3537 58.9584C63.9512 54.2279 63.4847 49.5275 62.4375 45.1244C66.4882 41.4047 70.8007 38.3118 74.118 36.1397C75.7978 35.0398 77.2209 34.177 78.2234 33.5896C78.648 33.3407 78.9971 33.1413 79.2582 32.9943Z" fill="#00FFD3"/>
<path d="M62.8648 59.7817L62.8709 59.7862L62.8633 59.792L62.8648 59.7817Z" fill="#00FFD3" fill-opacity="0.2"/>
<path fill-rule="evenodd" clip-rule="evenodd" d="M62.8709 59.7862L62.8633 59.792L62.8648 59.7817L62.8709 59.7862Z" fill="#00FFD3"/>
<path d="M62.8648 59.7817L62.8709 59.7862L62.8633 59.792L62.8648 59.7817Z" fill="#00FFD3" fill-opacity="0.2"/>
<path fill-rule="evenodd" clip-rule="evenodd" d="M62.8709 59.7862L62.8633 59.792L62.8648 59.7817L62.8709 59.7862Z" fill="#00FFD3"/>
<path d="M62.8648 59.7817L62.8709 59.7862L62.8633 59.792L62.8648 59.7817Z" fill="#00FFD3" fill-opacity="0.2"/>
<path fill-rule="evenodd" clip-rule="evenodd" d="M62.8709 59.7862L62.8633 59.792L62.8648 59.7817L62.8709 59.7862Z" fill="#00FFD3"/>
<path d="M62.8633 59.792C62.866 59.7901 62.8683 59.7882 62.8709 59.7862C62.869 59.784 62.8671 59.782 62.8652 59.7801C62.8644 59.784 62.8637 59.7882 62.8633 59.792Z" fill="#00FFD3" fill-opacity="0.2"/>
<path fill-rule="evenodd" clip-rule="evenodd" d="M62.8709 59.7862C62.8696 59.7872 62.8684 59.7882 62.8671 59.7891C62.8659 59.7901 62.8646 59.791 62.8633 59.792C62.8637 59.7882 62.8644 59.784 62.8652 59.7801L62.8652 59.7801C62.8671 59.7821 62.869 59.784 62.8709 59.7862Z" fill="#00FFD3"/>
<path d="M49.2787 79.9631C49.2271 79.9627 49.1756 79.9623 49.124 79.9614C47.6503 79.9328 46.3231 79.8255 45.0665 79.6338C44.9446 79.6157 44.8231 79.5967 44.7016 79.5777C42.988 78.9253 41.1338 77.8379 39.1906 76.3454C36.8122 74.5185 34.2803 72.0677 31.6652 69.0606C31.3775 68.7297 31.0759 68.3678 30.7432 67.9534C31.88 65.549 33.9575 62.8005 36.918 59.7841L36.9263 59.7905C37.0084 60.3211 37.0859 60.7625 37.1701 61.1801C38.5963 68.2504 40.827 73.4718 43.8 76.6993C46.1447 79.2449 48.3015 79.8372 49.3782 79.9639L49.2787 79.9631Z" fill="#00FFD3" fill-opacity="0.6"/>
<path fill-rule="evenodd" clip-rule="evenodd" d="M47.654 79.9038C46.7467 79.8491 45.8914 79.7596 45.0665 79.6338C44.9446 79.6157 44.8231 79.5967 44.7016 79.5777C42.988 78.9253 41.1338 77.8379 39.1906 76.3454C36.8122 74.5185 34.2803 72.0677 31.6652 69.0606C31.3775 68.7297 31.0759 68.3678 30.7432 67.9534C31.839 65.6358 33.8088 62.9984 36.601 60.1095C36.7026 60.0044 36.8053 59.899 36.909 59.7932C36.912 59.7902 36.915 59.7871 36.918 59.7841L36.9263 59.7905C36.9264 59.7912 36.9265 59.7919 36.9266 59.7925C36.9505 59.9466 36.9739 60.0931 36.9973 60.2338C37.0542 60.5766 37.1105 60.8844 37.1701 61.1801C38.5963 68.2504 40.827 73.4718 43.8 76.6993C45.2547 78.2786 46.637 79.1061 47.734 79.537C48.2756 79.7497 48.7477 79.8658 49.1245 79.9279C49.1245 79.9279 49.1245 79.9279 49.1245 79.9279C49.1778 79.9367 49.2294 79.9445 49.2788 79.9512M49.124 79.9614C49.1755 79.9623 49.227 79.9627 49.2786 79.9631L49.3782 79.9639C49.3461 79.9601 49.3129 79.9559 49.2788 79.9512M46.6791 79.4573C46.1447 79.4074 45.6275 79.3441 45.1224 79.2671L45.1212 79.2669C45.0135 79.2509 44.906 79.2342 44.7975 79.2172C43.1366 78.5795 41.3263 77.518 39.4166 76.0512C37.0631 74.2433 34.549 71.8113 31.9451 68.8171C31.7038 68.5396 31.4521 68.2394 31.1793 67.9031C32.2438 65.7384 34.085 63.2734 36.6774 60.5653C36.7196 60.8069 36.762 61.0332 36.8065 61.2535C38.2384 68.3518 40.4874 73.6507 43.5271 76.9506C44.6443 78.1635 45.7253 78.9495 46.6791 79.4573ZM49.124 79.9614C48.6177 79.9516 48.1287 79.9325 47.654 79.9038L49.124 79.9614Z" fill="#00FFD3"/>
<path d="M49.2787 79.9631C49.2271 79.9627 49.1756 79.9623 49.124 79.9614C47.6503 79.9328 46.323 79.8255 45.0665 79.6338C44.9446 79.6157 44.8231 79.5967 44.7016 79.5777C42.988 78.9253 41.1338 77.8379 39.1906 76.3454C36.8124 74.5185 34.2804 72.0677 31.6652 69.0606C31.3778 68.7301 31.0762 68.3678 30.7432 67.9534C31.88 65.549 33.9575 62.8005 36.918 59.7841L36.9263 59.7905C37.0085 60.3211 37.0859 60.7625 37.1701 61.1801C38.5963 68.2504 40.827 73.4718 43.8 76.6993C46.1447 79.2449 48.3015 79.8372 49.3782 79.9639L49.2787 79.9631Z" fill="#00FFD3" fill-opacity="0.6"/>
<path fill-rule="evenodd" clip-rule="evenodd" d="M47.654 79.9038C46.7467 79.8491 45.8914 79.7596 45.0665 79.6338C44.9446 79.6157 44.8231 79.5967 44.7016 79.5777C42.988 78.9253 41.1338 77.8379 39.1906 76.3454C36.8124 74.5185 34.2804 72.0677 31.6652 69.0606C31.3778 68.7301 31.0762 68.3678 30.7432 67.9534C31.839 65.6358 33.8088 62.9984 36.6011 60.1095C36.7026 60.0044 36.8053 59.899 36.909 59.7932C36.912 59.7902 36.915 59.7871 36.918 59.7841L36.9263 59.7905C36.9264 59.7912 36.9265 59.7919 36.9266 59.7925C36.9505 59.9466 36.9739 60.0931 36.9973 60.2338C37.0542 60.5766 37.1105 60.8844 37.1701 61.1801C38.5963 68.2504 40.827 73.4718 43.8 76.6993C45.2547 78.2786 46.637 79.1061 47.734 79.537C48.2756 79.7497 48.7477 79.8658 49.1245 79.9279C49.1245 79.9279 49.1245 79.9279 49.1245 79.9279C49.1778 79.9367 49.2294 79.9445 49.2788 79.9512M49.124 79.9614C49.1755 79.9623 49.227 79.9627 49.2786 79.9631L49.3782 79.9639C49.3461 79.9601 49.3129 79.9559 49.2788 79.9512M46.6791 79.4573C46.1447 79.4074 45.6275 79.3441 45.1224 79.2671L45.1212 79.2669C45.0135 79.2509 44.906 79.2342 44.7975 79.2172C43.1366 78.5795 41.3263 77.518 39.4166 76.0512C37.0632 74.2433 34.549 71.8113 31.9451 68.8171C31.7041 68.54 31.4524 68.2395 31.1793 67.903C32.2439 65.7383 34.0851 63.2733 36.6774 60.5652C36.7196 60.8068 36.7621 61.0332 36.8065 61.2534C38.2384 68.3518 40.4874 73.6507 43.5271 76.9506C44.6443 78.1635 45.7253 78.9495 46.6791 79.4573ZM49.124 79.9614C48.6177 79.9516 48.1287 79.9325 47.654 79.9038L49.124 79.9614Z" fill="#00FFD3"/>
<path d="M49.2787 79.9631C49.2271 79.9627 49.1756 79.9623 49.124 79.9614C47.6503 79.9328 46.323 79.8255 45.0665 79.6338C44.9446 79.6157 44.8231 79.5967 44.7016 79.5777C42.988 78.9253 41.1338 77.8379 39.1906 76.3454C36.8124 74.5185 34.2804 72.0677 31.6652 69.0606C31.3778 68.7301 31.0762 68.3678 30.7432 67.9534C31.88 65.549 33.9575 62.8005 36.918 59.7841L36.9263 59.7905C37.0085 60.3211 37.0859 60.7625 37.1701 61.1801C38.5963 68.2504 40.827 73.4718 43.8 76.6993C46.1447 79.2449 48.3015 79.8372 49.3782 79.9639L49.2787 79.9631Z" fill="#00FFD3" fill-opacity="0.6"/>
<path fill-rule="evenodd" clip-rule="evenodd" d="M47.654 79.9038C46.7467 79.8491 45.8914 79.7596 45.0665 79.6338C44.9446 79.6157 44.8231 79.5967 44.7016 79.5777C42.988 78.9253 41.1338 77.8379 39.1906 76.3454C36.8124 74.5185 34.2804 72.0677 31.6652 69.0606C31.3778 68.7301 31.0762 68.3678 30.7432 67.9534C31.839 65.6358 33.8088 62.9984 36.6011 60.1095C36.7026 60.0044 36.8053 59.899 36.909 59.7932C36.912 59.7902 36.915 59.7871 36.918 59.7841L36.9263 59.7905C36.9264 59.7912 36.9265 59.7919 36.9266 59.7925C36.9505 59.9466 36.9739 60.0931 36.9973 60.2338C37.0542 60.5766 37.1105 60.8844 37.1701 61.1801C38.5963 68.2504 40.827 73.4718 43.8 76.6993C45.2547 78.2786 46.637 79.1061 47.734 79.537C48.2756 79.7497 48.7477 79.8658 49.1245 79.9279C49.1245 79.9279 49.1245 79.9279 49.1245 79.9279C49.1778 79.9367 49.2294 79.9445 49.2788 79.9512M49.124 79.9614C49.1755 79.9623 49.227 79.9627 49.2786 79.9631L49.3782 79.9639C49.3461 79.9601 49.3129 79.9559 49.2788 79.9512M46.6791 79.4573C46.1447 79.4074 45.6275 79.3441 45.1224 79.2671L45.1212 79.2669C45.0135 79.2509 44.906 79.2342 44.7975 79.2172C43.1366 78.5795 41.3263 77.518 39.4166 76.0512C37.0632 74.2433 34.549 71.8113 31.9451 68.8171C31.7041 68.54 31.4524 68.2395 31.1793 67.903C32.2439 65.7383 34.0851 63.2733 36.6774 60.5652C36.7196 60.8068 36.7621 61.0332 36.8065 61.2534C38.2384 68.3518 40.4874 73.6507 43.5271 76.9506C44.6443 78.1635 45.7253 78.9495 46.6791 79.4573ZM49.124 79.9614C48.6177 79.9516 48.1287 79.9325 47.654 79.9038L49.124 79.9614Z" fill="#00FFD3"/>
<path fill-rule="evenodd" clip-rule="evenodd" d="M36.8064 61.2534L36.8064 61.2535C38.4861 69.5802 41.0753 74.2892 43.5271 76.9508C44.6485 78.1682 45.7374 78.953 46.6896 79.4582C46.1657 79.4096 45.6436 79.3467 45.1225 79.2671L45.1212 79.2669C45.0135 79.2509 44.906 79.2342 44.7975 79.2172C41.8659 78.0916 37.5939 75.3124 31.9451 68.8172C31.6835 68.5162 31.4293 68.2111 31.1793 67.903C32.3596 65.5023 34.3741 62.9711 36.6774 60.5651C36.7174 60.7942 36.7601 61.0236 36.8064 61.2534ZM36.9973 60.2337C36.9729 60.0866 36.9494 59.9396 36.9266 59.7926C36.9265 59.7919 36.9264 59.7912 36.9263 59.7905C36.9235 59.7885 36.9208 59.7865 36.9179 59.7841C36.915 59.7871 36.912 59.7902 36.909 59.7932C36.8059 59.8983 36.7032 60.0037 36.6011 60.1094C34.1403 62.6552 31.9638 65.3717 30.7432 67.9534C31.0425 68.3258 31.3481 68.6958 31.6651 69.0606C37.3606 75.6095 41.6922 78.4318 44.7016 79.5777C44.823 79.5967 44.9446 79.6157 45.0665 79.6338C45.9304 79.7657 46.7958 79.8524 47.6656 79.9045C48.1501 79.9336 48.6359 79.9519 49.1236 79.9614C49.18 79.9623 49.2367 79.9627 49.2934 79.9632C49.3217 79.9634 49.35 79.9636 49.3782 79.9639C49.3013 79.9548 49.2164 79.943 49.1242 79.9276C49.1242 79.9276 49.1241 79.9276 49.1241 79.9276C48.765 79.8676 48.295 79.7534 47.7456 79.5376C44.8821 78.4129 39.8627 74.5288 37.1701 61.1801C37.1065 60.8646 37.0497 60.5492 36.9973 60.2337Z" fill="#00FFD3"/>
<path d="M50.4106 79.9639C51.4874 79.8372 53.644 79.2449 55.9889 76.6993C58.962 73.4718 61.1924 68.2504 62.6189 61.1801C62.7031 60.7617 62.7805 60.3203 62.8627 59.7905L62.8708 59.7841C65.8314 62.8005 67.9091 65.549 69.0458 67.9534C68.7126 68.3678 68.4112 68.7301 68.1239 69.0606C65.5086 72.0677 62.9768 74.5185 60.5985 76.3454C58.6549 77.8379 56.8009 78.9253 55.0875 79.5777C54.9658 79.5967 54.8445 79.6157 54.7224 79.6338C53.4659 79.8255 52.1386 79.9328 50.6649 79.9614C50.6137 79.9623 50.5618 79.9627 50.5102 79.9631L50.4106 79.9639Z" fill="#00FFD3" fill-opacity="0.6"/>
<path fill-rule="evenodd" clip-rule="evenodd" d="M52.0548 79.537C53.1518 79.1061 54.5341 78.2786 55.9889 76.6993C58.962 73.4718 61.1924 68.2504 62.6189 61.1801C62.6785 60.884 62.7347 60.5763 62.7916 60.2339C62.815 60.0931 62.8385 59.9464 62.8625 59.7922C62.8625 59.7917 62.8626 59.7911 62.8627 59.7905L62.8708 59.7841C62.8738 59.7871 62.8767 59.7901 62.8797 59.7932C62.9835 59.899 63.0862 60.0045 63.1879 60.1096C65.9801 62.9985 67.9501 65.6358 69.0458 67.9534C68.7126 68.3678 68.4112 68.7301 68.1239 69.0606C65.5086 72.0677 62.9768 74.5185 60.5985 76.3454C58.6549 77.8379 56.8009 78.9253 55.0875 79.5777L55.0642 79.5814C54.9503 79.5991 54.8367 79.6168 54.7224 79.6338C53.8976 79.7596 53.0422 79.8491 52.1349 79.9038C51.6601 79.9325 51.1711 79.9516 50.6649 79.9614C50.6142 79.9622 50.5626 79.9627 50.5115 79.9631L50.4106 79.9639C50.4428 79.9601 50.476 79.9559 50.5101 79.9512C50.5101 79.9512 50.5101 79.9512 50.5101 79.9512C50.5595 79.9445 50.6109 79.9367 50.6643 79.928C50.6642 79.928 50.6643 79.9279 50.6643 79.928C51.0411 79.8658 51.5132 79.7497 52.0548 79.537ZM53.1097 79.4573C54.0635 78.9495 55.1445 78.1635 56.2618 76.9506C59.3016 73.6507 61.5504 68.3519 62.9826 61.2535C63.0269 61.0331 63.0694 60.8066 63.1115 60.5654C65.7039 63.2734 67.5452 65.7383 68.6097 67.903C68.3364 68.2395 68.0848 68.5401 67.8439 68.8171C65.24 71.8113 62.726 74.2433 60.3725 76.0512C58.4624 77.518 56.6523 78.5795 54.9916 79.2172C54.8828 79.2342 54.7756 79.2508 54.6678 79.2669L54.6664 79.2671C54.1614 79.3441 53.6442 79.4074 53.1097 79.4573Z" fill="#00FFD3"/>
<path d="M50.4106 79.9639C51.4874 79.8372 53.644 79.2449 55.9889 76.6993C58.962 73.4718 61.1924 68.2504 62.6189 61.1801C62.7031 60.7621 62.7805 60.3207 62.8627 59.7905L62.8708 59.7841C65.8314 62.8005 67.9091 65.549 69.0458 67.9534C68.7126 68.3678 68.4112 68.7301 68.1239 69.0606C65.5086 72.0677 62.9764 74.5185 60.5985 76.3454C58.6549 77.8379 56.8009 78.9253 55.0875 79.5777C54.9658 79.5967 54.8445 79.6157 54.7224 79.6338C53.4659 79.8255 52.1386 79.9328 50.6649 79.9614C50.6137 79.9623 50.5618 79.9627 50.5102 79.9631L50.4106 79.9639Z" fill="#00FFD3" fill-opacity="0.6"/>
<path fill-rule="evenodd" clip-rule="evenodd" d="M52.0548 79.537C53.1518 79.1061 54.5341 78.2786 55.9889 76.6993C58.962 73.4718 61.1924 68.2504 62.6189 61.1801C62.6786 60.8842 62.7347 60.5765 62.7917 60.2339C62.815 60.0931 62.8385 59.9464 62.8625 59.7922C62.8625 59.7917 62.8626 59.7911 62.8627 59.7905L62.8708 59.7841C62.8738 59.7871 62.8767 59.7901 62.8797 59.7932C62.9835 59.899 63.0862 60.0045 63.1879 60.1096C65.9801 62.9985 67.9501 65.6358 69.0458 67.9534C68.7126 68.3678 68.4112 68.7301 68.1239 69.0606C65.5086 72.0677 62.9764 74.5185 60.5985 76.3454C58.6549 77.8379 56.8009 78.9253 55.0875 79.5777L55.0642 79.5814C54.9503 79.5991 54.8367 79.6168 54.7224 79.6338C53.8976 79.7596 53.0422 79.8491 52.1349 79.9038C51.6601 79.9325 51.1711 79.9516 50.6649 79.9614C50.6142 79.9622 50.5626 79.9627 50.5115 79.9631L50.4106 79.9639C50.4428 79.9601 50.476 79.9559 50.5101 79.9512C50.5101 79.9512 50.5101 79.9512 50.5101 79.9512C50.5595 79.9445 50.6109 79.9367 50.6643 79.928C50.6642 79.928 50.6643 79.9279 50.6643 79.928C51.0411 79.8658 51.5132 79.7497 52.0548 79.537ZM53.1097 79.4573C54.0635 78.9495 55.1445 78.1635 56.2618 76.9506C59.3016 73.6507 61.5504 68.3519 62.9826 61.2535C63.027 61.0332 63.0694 60.8068 63.1115 60.5654C65.7039 63.2734 67.5452 65.7383 68.6097 67.903C68.3364 68.2395 68.0848 68.5401 67.8439 68.8171C65.24 71.8112 62.7256 74.2433 60.3725 76.0512M53.1097 79.4573C53.6442 79.4074 54.1614 79.3441 54.6664 79.2671L54.6678 79.2669C54.7756 79.2508 54.8828 79.2342 54.9916 79.2172C56.6523 78.5795 58.4625 77.5179 60.3725 76.0512" fill="#00FFD3"/>
<path d="M50.4106 79.9639C51.4874 79.8372 53.644 79.2449 55.9889 76.6993C58.962 73.4718 61.1924 68.2504 62.6189 61.1801C62.7031 60.7621 62.7805 60.3207 62.8627 59.7905L62.8708 59.7841C65.8314 62.8005 67.9091 65.549 69.0458 67.9534C68.7126 68.3678 68.4112 68.7301 68.1239 69.0606C65.5086 72.0677 62.9764 74.5185 60.5985 76.3454C58.6549 77.8379 56.8009 78.9253 55.0875 79.5777C54.9658 79.5967 54.8445 79.6157 54.7224 79.6338C53.4659 79.8255 52.1386 79.9328 50.6649 79.9614C50.6137 79.9623 50.5618 79.9627 50.5102 79.9631L50.4106 79.9639Z" fill="#00FFD3" fill-opacity="0.6"/>
<path fill-rule="evenodd" clip-rule="evenodd" d="M52.0548 79.537C53.1518 79.1061 54.5341 78.2786 55.9889 76.6993C58.962 73.4718 61.1924 68.2504 62.6189 61.1801C62.6786 60.8842 62.7347 60.5765 62.7917 60.2339C62.815 60.0931 62.8385 59.9464 62.8625 59.7922C62.8625 59.7917 62.8626 59.7911 62.8627 59.7905L62.8708 59.7841C62.8738 59.7871 62.8767 59.7901 62.8797 59.7932C62.9835 59.899 63.0862 60.0045 63.1879 60.1096C65.9801 62.9985 67.9501 65.6358 69.0458 67.9534C68.7126 68.3678 68.4112 68.7301 68.1239 69.0606C65.5086 72.0677 62.9764 74.5185 60.5985 76.3454C58.6549 77.8379 56.8009 78.9253 55.0875 79.5777L55.0642 79.5814C54.9503 79.5991 54.8367 79.6168 54.7224 79.6338C53.8976 79.7596 53.0422 79.8491 52.1349 79.9038C51.6601 79.9325 51.1711 79.9516 50.6649 79.9614C50.6142 79.9622 50.5626 79.9627 50.5115 79.9631L50.4106 79.9639C50.4428 79.9601 50.476 79.9559 50.5101 79.9512C50.5101 79.9512 50.5101 79.9512 50.5101 79.9512C50.5595 79.9445 50.6109 79.9367 50.6643 79.928C50.6642 79.928 50.6643 79.9279 50.6643 79.928C51.0411 79.8658 51.5132 79.7497 52.0548 79.537ZM53.1097 79.4573C54.0635 78.9495 55.1445 78.1635 56.2618 76.9506C59.3016 73.6507 61.5504 68.3519 62.9826 61.2535C63.027 61.0332 63.0694 60.8068 63.1115 60.5654C65.7039 63.2734 67.5452 65.7383 68.6097 67.903C68.3364 68.2395 68.0848 68.5401 67.8439 68.8171C65.24 71.8112 62.7256 74.2433 60.3725 76.0512M53.1097 79.4573C53.6442 79.4074 54.1614 79.3441 54.6664 79.2671L54.6678 79.2669C54.7756 79.2508 54.8828 79.2342 54.9916 79.2172C56.6523 78.5795 58.4625 77.5179 60.3725 76.0512" fill="#00FFD3"/>
<path fill-rule="evenodd" clip-rule="evenodd" d="M62.9826 61.2535L62.9826 61.2532C63.0288 61.0236 63.0715 60.7942 63.1115 60.5653C65.4149 62.9711 67.4292 65.5023 68.6097 67.903C68.3596 68.2111 68.1056 68.5162 67.8439 68.8171C62.1951 75.3123 57.9232 78.0916 54.9916 79.2172C54.8829 79.2341 54.7752 79.2509 54.6676 79.2669L54.6664 79.2671C54.1453 79.3466 53.6232 79.4096 53.0993 79.4582C54.0515 78.953 55.1403 78.1682 56.2618 76.9508C58.7136 74.2892 61.3028 69.5802 62.9826 61.2535ZM52.0433 79.5376C54.9068 78.4129 59.9261 74.5287 62.6189 61.1801C62.6823 60.8647 62.7392 60.5493 62.7916 60.2339C62.8161 60.0867 62.8397 59.9395 62.8625 59.7922C62.8625 59.7917 62.8626 59.7911 62.8627 59.7905C62.8655 59.7885 62.868 59.7865 62.8708 59.7841C62.8738 59.7871 62.8767 59.7901 62.8797 59.7932C62.9829 59.8983 63.0856 60.0038 63.1879 60.1096C65.6489 62.6553 67.8251 65.3717 69.0458 67.9534C68.7464 68.3258 68.441 68.6958 68.1239 69.0606C62.4283 75.6095 58.0968 78.4318 55.0875 79.5777L55.0871 79.5778C54.9655 79.5967 54.844 79.6157 54.7224 79.6338C53.8586 79.7657 52.9931 79.8523 52.1233 79.9045C51.6387 79.9336 51.1527 79.9519 50.6649 79.9614C50.6086 79.9623 50.5521 79.9627 50.4956 79.9631C50.4673 79.9634 50.4389 79.9636 50.4106 79.9639C50.4875 79.9548 50.5722 79.943 50.6643 79.9277C50.6643 79.9277 50.6644 79.9277 50.6644 79.9276C51.0235 79.8677 51.4937 79.7535 52.0433 79.5376Z" fill="#00FFD3"/>
<path d="M54.9251 52.7578C52.0511 50.4777 49.8787 48.9913 49.8574 48.9768C49.8413 48.9877 48.2209 50.096 45.9365 51.8601C45.553 52.1562 45.1671 52.458 44.7894 52.7578C42.8365 50.1356 40.4599 47.525 37.7256 44.9984C38.4777 41.8973 39.5835 38.6859 41.0123 35.4532C42.1553 32.8669 43.5064 30.2612 45.028 27.7084C47.6189 23.3625 49.8352 20.6418 49.8574 20.6148C49.8795 20.6418 52.0959 23.3625 54.6865 27.7088C56.2081 30.2612 57.5593 32.8669 58.7025 35.4532C60.1314 38.6859 61.2372 41.8973 61.9891 44.9984C59.255 47.525 56.8783 50.1356 54.9251 52.7578Z" fill="#00FFD3" fill-opacity="0.2"/>
<path d="M54.9251 52.7578C52.0511 50.4777 49.8787 48.9913 49.8574 48.9768C49.8413 48.9877 48.2209 50.096 45.9365 51.8601C45.553 52.1562 45.1671 52.458 44.7894 52.7578C42.8365 50.1356 40.4599 47.525 37.7256 44.9984C38.4777 41.8973 39.5835 38.6859 41.0123 35.4532C42.1553 32.8669 43.5064 30.2612 45.028 27.7084C47.6189 23.3625 49.8352 20.6418 49.8574 20.6148C49.8795 20.6418 52.0959 23.3625 54.6865 27.7088C56.2081 30.2612 57.5593 32.8669 58.7025 35.4532C60.1314 38.6859 61.2372 41.8973 61.9891 44.9984C59.255 47.525 56.8783 50.1356 54.9251 52.7578Z" fill="#00FFD3" fill-opacity="0.2"/>
<path d="M54.9251 52.7578C52.0511 50.4777 49.8787 48.9913 49.8574 48.9768C49.8413 48.9877 48.2209 50.096 45.9365 51.8601C45.553 52.1562 45.1671 52.458 44.7894 52.7578C42.8365 50.1356 40.4599 47.525 37.7256 44.9984C38.4777 41.8973 39.5835 38.6859 41.0123 35.4532C42.1553 32.8669 43.5064 30.2612 45.028 27.7084C47.6189 23.3625 49.8352 20.6418 49.8574 20.6148C49.8795 20.6418 52.0959 23.3625 54.6865 27.7088C56.2081 30.2612 57.5593 32.8669 58.7025 35.4532C60.1314 38.6859 61.2372 41.8973 61.9891 44.9984C59.255 47.525 56.8783 50.1356 54.9251 52.7578Z" fill="#00FFD3" fill-opacity="0.2"/>
<path d="M54.9251 52.7578C52.0511 50.4777 49.8787 48.9913 49.8574 48.9768C49.8413 48.9877 48.2209 50.096 45.9365 51.8601C45.553 52.1562 45.1671 52.458 44.7894 52.7578C42.8365 50.1356 40.4599 47.525 37.7256 44.9984C38.4777 41.8973 39.5835 38.6859 41.0123 35.4532C42.1553 32.8669 43.5064 30.2612 45.028 27.7084C47.6189 23.3625 49.8352 20.6418 49.8574 20.6148C49.8795 20.6418 52.0959 23.3625 54.6865 27.7088C56.2081 30.2612 57.5593 32.8669 58.7025 35.4532C60.1314 38.6859 61.2372 41.8973 61.9891 44.9984C59.255 47.525 56.8783 50.1356 54.9251 52.7578Z" fill="#00FFD3" fill-opacity="0.2"/>
<path fill-rule="evenodd" clip-rule="evenodd" d="M44.7207 53.2861L45.0204 53.0482C45.3966 52.7496 45.7813 52.4488 46.1635 52.1535C47.302 51.2744 48.2748 50.5588 48.9647 50.0619C49.3096 49.8134 49.5837 49.6197 49.7724 49.4875C49.8031 49.466 49.8315 49.4461 49.8577 49.4279C49.9097 49.4642 49.9709 49.5071 50.0409 49.5563C50.291 49.7323 50.6528 49.9896 51.1036 50.3176C52.0053 50.9736 53.2626 51.9121 54.6948 53.0483L54.9945 53.286L55.2229 52.9793C57.1607 50.3777 59.5216 47.784 62.2412 45.2708L62.4013 45.1228L62.3499 44.9109C61.5923 41.7861 60.479 38.5539 59.0421 35.3031C57.8925 32.7024 56.5344 30.0834 55.0055 27.5187C52.4029 23.1524 50.1749 20.4164 50.1446 20.3794L49.8577 20.0295L49.5708 20.3794C49.5405 20.4164 47.3125 23.1524 44.7096 27.5183L44.7096 27.5183C43.1808 30.0834 41.8227 32.7024 40.6733 35.3031C39.2366 38.5539 38.1232 41.7861 37.3654 44.9109L37.314 45.1228L37.4741 45.2708C40.1939 47.784 42.5547 50.3777 44.4922 52.9793L44.7207 53.2861ZM54.8572 52.2308C52.1237 50.0777 50.0921 48.6874 50.0663 48.6699L49.8583 48.5284L49.65 48.6693C49.6281 48.6841 48.0013 49.797 45.71 51.5663L45.71 51.5663C45.426 51.7857 45.1405 52.0082 44.858 52.2308C42.9732 49.7425 40.7143 47.2704 38.1381 44.8746C38.8832 41.8623 39.9636 38.7443 41.3519 35.6031L41.0126 35.4531L41.3519 35.6031C42.4886 33.0312 43.8327 30.4388 45.347 27.8982C46.6361 25.7358 47.832 23.978 48.7076 22.7582C49.1454 22.1484 49.5031 21.6732 49.7521 21.3495C49.7898 21.3004 49.8251 21.2549 49.8577 21.2129C49.8903 21.2549 49.9255 21.3005 49.9632 21.3495C50.2123 21.6733 50.5699 22.1484 51.0077 22.7582C51.8834 23.9781 53.0791 25.736 54.3682 27.8986L54.6868 27.7087L54.3682 27.8986C55.8825 30.4388 57.2267 33.0312 58.3635 35.6031C59.752 38.7443 60.8323 41.8623 61.5772 44.8746C59.0011 47.2704 56.7422 49.7425 54.8572 52.2308Z" fill="#00FFD3"/>
<path d="M30.7448 67.9551C27.2135 63.5591 24.5506 58.2001 22.8301 52.0268C26.3966 53.3797 31.7361 55.824 36.9196 59.7858C33.9591 62.8022 31.8816 65.5507 30.7448 67.9551Z" fill="#00FFD3" fill-opacity="0.6"/>
<path fill-rule="evenodd" clip-rule="evenodd" d="M22.8301 52.0268C22.9714 52.0804 23.1154 52.1357 23.2622 52.1927C26.7485 53.5481 31.7378 55.8854 36.6216 59.5598C36.721 59.6346 36.8203 59.7099 36.9196 59.7858C36.8319 59.8752 36.7449 59.9643 36.6587 60.0533C33.9843 62.8126 32.0582 65.3434 30.9251 67.5865C30.8626 67.7102 30.8025 67.8331 30.7448 67.9551C30.6588 67.848 30.5733 67.7404 30.4883 67.6321C27.1685 63.4048 24.6366 58.3087 22.9562 52.4722C22.9136 52.3242 22.8716 52.1757 22.8301 52.0268ZM30.6726 67.2655C27.4899 63.1733 25.0421 58.2613 23.392 52.642C26.8329 53.9997 31.6457 56.2875 36.3607 59.8277C33.7491 62.5264 31.8335 65.0242 30.6726 67.2655Z" fill="#00FFD3"/>
<path d="M30.7448 67.9551C27.2136 63.5591 24.5506 58.2001 22.8301 52.0268C26.3965 53.3797 31.736 55.8236 36.9196 59.7858C33.9591 62.8022 31.8816 65.5507 30.7448 67.9551Z" fill="#00FFD3" fill-opacity="0.6"/>
<path fill-rule="evenodd" clip-rule="evenodd" d="M22.8301 52.0268C22.9714 52.0804 23.1154 52.1357 23.2622 52.1927C26.7484 53.5481 31.7377 55.885 36.6216 59.5598C36.721 59.6346 36.8203 59.7099 36.9196 59.7858C36.8319 59.8752 36.7449 59.9643 36.6587 60.0533C33.9843 62.8126 32.0582 65.3434 30.9251 67.5865C30.8626 67.7102 30.8025 67.8331 30.7448 67.9551C30.6588 67.848 30.5733 67.7404 30.4883 67.6321C27.1686 63.4048 24.6366 58.3087 22.9562 52.4722C22.9136 52.3242 22.8716 52.1757 22.8301 52.0268ZM30.6726 67.2655C27.49 63.1733 25.0421 58.2613 23.392 52.642C26.8329 53.9997 31.6456 56.2872 36.3607 59.8277C33.7491 62.5264 31.8335 65.0242 30.6726 67.2655Z" fill="#00FFD3"/>
<path fill-rule="evenodd" clip-rule="evenodd" d="M22.8301 52.0268C22.9714 52.0804 23.1154 52.1357 23.2622 52.1927C26.7484 53.5481 31.7377 55.885 36.6216 59.5598C36.721 59.6346 36.8203 59.7099 36.9196 59.7858C36.8319 59.8752 36.7449 59.9643 36.6587 60.0533C33.9843 62.8126 32.0582 65.3434 30.9251 67.5865C30.8626 67.7102 30.8025 67.8331 30.7448 67.9551C30.6588 67.848 30.5733 67.7404 30.4883 67.6321C27.1686 63.4048 24.6366 58.3087 22.9562 52.4722C22.9136 52.3242 22.8716 52.1757 22.8301 52.0268ZM30.6726 67.2655C27.49 63.1733 25.0421 58.2613 23.392 52.642C26.8329 53.9997 31.6456 56.2872 36.3607 59.8277C33.7491 62.5264 31.8335 65.0242 30.6726 67.2655Z" fill="#00FFD3"/>
<path fill-rule="evenodd" clip-rule="evenodd" d="M36.9196 59.7858C36.8323 59.8747 36.7453 59.9639 36.6586 60.0533C34.292 62.495 32.1827 65.0961 30.9251 67.5864C30.8629 67.7096 30.8027 67.8325 30.7448 67.9551C30.6586 67.8477 30.5731 67.7401 30.4883 67.6321C26.7494 62.8711 24.4097 57.5202 22.9562 52.4721C22.9134 52.3234 22.8714 52.175 22.8301 52.0268C22.9722 52.0807 23.1163 52.136 23.2622 52.1927C26.9623 53.6302 31.8446 55.9651 36.6216 59.5598C36.721 59.6346 36.8203 59.7099 36.9196 59.7858ZM36.3606 59.8277C34.0446 62.2209 31.957 64.7847 30.6725 67.2654C27.0992 62.6711 24.8267 57.527 23.3919 52.6418C27.026 54.0744 31.7426 56.3595 36.3606 59.8277Z" fill="#00FFD3"/>
<path d="M69.0458 67.9551C67.909 65.5511 65.8317 62.8026 62.8711 59.7862C68.0549 55.824 73.3942 53.3797 76.9608 52.0268C75.2402 58.2001 72.5774 63.5591 69.0458 67.9551Z" fill="#00FFD3" fill-opacity="0.6"/>
<path fill-rule="evenodd" clip-rule="evenodd" d="M68.8655 67.5865C68.928 67.7102 68.9881 67.8331 69.0458 67.9551C69.1318 67.848 69.2173 67.7404 69.3023 67.6322C72.6223 63.4048 75.1542 58.3087 76.8347 52.4722C76.8773 52.3242 76.9193 52.1757 76.9608 52.0268C76.8195 52.0804 76.6755 52.1357 76.5287 52.1927C73.0423 53.5481 68.0532 55.8854 63.1691 59.5602C63.0697 59.635 62.9704 59.7103 62.8711 59.7862C62.9588 59.8756 63.0458 59.9647 63.132 60.0537C65.8065 62.813 67.7324 65.3438 68.8655 67.5865ZM69.118 67.2655C67.9571 65.0245 66.0417 62.5268 63.43 59.8281C68.1452 56.2876 72.9579 53.9997 76.3989 52.642C74.7487 58.2614 72.3009 63.1733 69.118 67.2655Z" fill="#00FFD3"/>
<path d="M69.0458 67.9551C67.9094 65.5511 65.8317 62.8026 62.8711 59.7862C68.0549 55.824 73.3942 53.3797 76.9608 52.0268C75.2402 58.2001 72.5774 63.5591 69.0458 67.9551Z" fill="#00FFD3" fill-opacity="0.6"/>
<path fill-rule="evenodd" clip-rule="evenodd" d="M68.8655 67.5865C68.928 67.7102 68.9881 67.8331 69.0458 67.9551C69.1318 67.848 69.2173 67.7404 69.3023 67.6321C72.6223 63.4048 75.1542 58.3087 76.8347 52.4722C76.8773 52.3242 76.9193 52.1757 76.9608 52.0268C76.8195 52.0804 76.6755 52.1357 76.5287 52.1927C73.0423 53.5481 68.0532 55.8854 63.1691 59.5602C63.0697 59.635 62.9704 59.7103 62.8711 59.7862C62.9588 59.8756 63.0458 59.9647 63.132 60.0537C65.8065 62.813 67.7328 65.3438 68.8655 67.5865ZM69.118 67.2655C67.9574 65.0245 66.0416 62.5268 63.43 59.8281C68.1452 56.2876 72.9579 53.9997 76.3989 52.642C74.7487 58.2614 72.3009 63.1733 69.118 67.2655Z" fill="#00FFD3"/>
<path d="M69.0458 67.9551C67.9094 65.5511 65.8317 62.8026 62.8711 59.7862C68.0549 55.824 73.3942 53.3797 76.9608 52.0268C75.2402 58.2001 72.5774 63.5591 69.0458 67.9551Z" fill="#00FFD3" fill-opacity="0.2"/>
<path fill-rule="evenodd" clip-rule="evenodd" d="M68.8655 67.5865C68.928 67.7102 68.9881 67.8331 69.0458 67.9551C69.1318 67.848 69.2173 67.7404 69.3023 67.6321C72.6223 63.4048 75.1542 58.3087 76.8347 52.4722C76.8773 52.3242 76.9193 52.1757 76.9608 52.0268C76.8195 52.0804 76.6755 52.1357 76.5287 52.1927C73.0423 53.5481 68.0532 55.8854 63.1691 59.5602C63.0697 59.635 62.9704 59.7103 62.8711 59.7862C62.9588 59.8756 63.0458 59.9647 63.132 60.0537C65.8065 62.813 67.7328 65.3438 68.8655 67.5865ZM69.118 67.2655C67.9574 65.0245 66.0416 62.5268 63.43 59.8281C68.1452 56.2876 72.9579 53.9997 76.3989 52.642C74.7487 58.2614 72.3009 63.1733 69.118 67.2655Z" fill="#00FFD3"/>
<path fill-rule="evenodd" clip-rule="evenodd" d="M68.8655 67.5865C68.9277 67.7096 68.9878 67.8325 69.0458 67.9551C69.132 67.8477 69.2175 67.7401 69.3023 67.6322C73.0414 62.8715 75.3811 57.5202 76.8347 52.4721C76.8775 52.3234 76.9195 52.175 76.9608 52.0268C76.8187 52.0807 76.6746 52.136 76.5288 52.1927C72.8285 53.6302 67.9462 55.9651 63.1691 59.5602C63.0697 59.635 62.9704 59.7103 62.8711 59.7862C62.9584 59.8751 63.0454 59.9643 63.132 60.0537C65.4986 62.4954 67.608 65.0965 68.8655 67.5865ZM69.118 67.2655C67.8337 64.785 65.746 62.2213 63.43 59.8281C68.0483 56.3595 72.7648 54.0744 76.399 52.6418C74.9642 57.527 72.6915 62.6714 69.118 67.2655Z" fill="#00FFD3"/>
<path d="M49.8946 61.7617C49.7931 61.5055 49.7137 61.3078 49.6375 61.1214C48.4967 58.3265 46.878 55.5126 44.8267 52.7584C47.7097 50.4715 49.8729 48.9919 49.8946 48.9774C49.916 48.9919 52.0803 50.4723 54.9623 52.7584C52.9112 55.5126 51.2925 58.3265 50.1517 61.1214C50.0743 61.3114 49.9925 61.5148 49.8946 61.7617Z" fill="#00FFD3" fill-opacity="0.6"/>
<path fill-rule="evenodd" clip-rule="evenodd" d="M49.6947 61.2619C49.7541 61.4087 49.8181 61.5686 49.8946 61.7617C49.9689 61.5744 50.0339 61.4122 50.0947 61.2619C50.1141 61.214 50.133 61.1673 50.1517 61.1214C51.2925 58.3265 52.9112 55.5126 54.9623 52.7584C52.0803 50.4723 49.916 48.9919 49.8946 48.9774C49.8729 48.9919 47.7097 50.4715 44.8267 52.7584C46.878 55.5126 48.4967 58.3265 49.6375 61.1214C49.6563 61.1673 49.6752 61.2139 49.6947 61.2619ZM49.8946 60.7717C48.7868 58.1118 47.2546 55.4417 45.3384 52.8267C46.6579 51.7871 47.8106 50.9278 48.6519 50.3157C49.1021 49.9882 49.463 49.7316 49.7124 49.5561C49.782 49.5072 49.8428 49.4646 49.8945 49.4286C49.9463 49.4646 50.0071 49.5073 50.0767 49.5562C50.3262 49.7317 50.6872 49.9884 51.1375 50.316C51.9789 50.9282 53.1316 51.7875 54.4506 52.8268C52.5346 55.4417 51.0024 58.1118 49.8946 60.7717Z" fill="#00FFD3"/>
<path d="M49.8946 61.7617C49.7939 61.5071 49.7145 61.3098 49.6375 61.1214C48.4967 58.3265 46.878 55.5126 44.8267 52.7584C47.7009 50.4783 49.8729 48.9919 49.8946 48.9774C49.916 48.9919 52.0884 50.4783 54.9623 52.7584C52.9112 55.5126 51.2925 58.3265 50.1517 61.1214C50.0751 61.309 49.9933 61.5124 49.8946 61.7617Z" fill="#00FFD3" fill-opacity="0.6"/>
<path fill-rule="evenodd" clip-rule="evenodd" d="M49.6946 61.2617C49.7545 61.4096 49.8185 61.5693 49.8946 61.7617C49.9693 61.5731 50.0343 61.4108 50.0947 61.2617C50.1141 61.2137 50.1331 61.1671 50.1517 61.1214C51.2925 58.3265 52.9112 55.5126 54.9623 52.7584C52.0884 50.4783 49.916 48.9919 49.8946 48.9774C49.8729 48.9919 47.7009 50.4783 44.8267 52.7584C46.878 55.5126 48.4967 58.3265 49.6375 61.1214C49.6563 61.1674 49.6753 61.2139 49.6946 61.2617ZM49.8946 60.7717C48.7868 58.1118 47.2546 55.4417 45.3384 52.8267C46.6539 51.7902 47.8064 50.931 48.6486 50.3183C49.0993 49.9903 49.4611 49.733 49.7112 49.5571C49.7813 49.5078 49.8425 49.4649 49.8945 49.4286C49.9465 49.4649 50.0078 49.5078 50.0778 49.557C50.3279 49.733 50.6897 49.9903 51.1405 50.3183C51.9827 50.931 53.1352 51.7902 54.4506 52.8267C52.5346 55.4417 51.0024 58.1118 49.8946 60.7717Z" fill="#00FFD3"/>
<path d="M49.8946 61.7617C49.7939 61.5071 49.7145 61.3098 49.6375 61.1214C48.4967 58.3265 46.878 55.5126 44.8267 52.7584C47.7009 50.4783 49.8729 48.9919 49.8946 48.9774C49.916 48.9919 52.0884 50.4783 54.9623 52.7584C52.9112 55.5126 51.2925 58.3265 50.1517 61.1214C50.0751 61.309 49.9933 61.5124 49.8946 61.7617Z" fill="#00FFD3" fill-opacity="0.2"/>
<path fill-rule="evenodd" clip-rule="evenodd" d="M49.6946 61.2617C49.7545 61.4096 49.8185 61.5693 49.8946 61.7617C49.9693 61.5731 50.0343 61.4108 50.0947 61.2617C50.1141 61.2137 50.1331 61.1671 50.1517 61.1214C51.2925 58.3265 52.9112 55.5126 54.9623 52.7584C52.0884 50.4783 49.916 48.9919 49.8946 48.9774C49.8729 48.9919 47.7009 50.4783 44.8267 52.7584C46.878 55.5126 48.4967 58.3265 49.6375 61.1214C49.6563 61.1674 49.6753 61.2139 49.6946 61.2617ZM49.8946 60.7717C48.7868 58.1118 47.2546 55.4417 45.3384 52.8267C46.6539 51.7902 47.8064 50.931 48.6486 50.3183C49.0993 49.9903 49.4611 49.733 49.7112 49.5571C49.7813 49.5078 49.8425 49.4649 49.8945 49.4286C49.9465 49.4649 50.0078 49.5078 50.0778 49.557C50.3279 49.733 50.6897 49.9903 51.1405 50.3183C51.9827 50.931 53.1352 51.7902 54.4506 52.8267C52.5346 55.4417 51.0024 58.1118 49.8946 60.7717Z" fill="#00FFD3"/>
<path fill-rule="evenodd" clip-rule="evenodd" d="M49.6946 61.2619C49.7627 61.43 49.829 61.5962 49.8946 61.7617C49.9602 61.5962 50.0266 61.43 50.0946 61.2619C50.1135 61.2152 50.1325 61.1684 50.1517 61.1214C51.3695 58.1384 53.0378 55.3427 54.9623 52.7584C52.0549 50.4521 49.8946 48.9774 49.8946 48.9774C49.8946 48.9774 47.7339 50.4521 44.8267 52.7584C46.7515 55.3427 48.4198 58.1384 49.6375 61.1214C49.6567 61.1684 49.6757 61.2152 49.6946 61.2619ZM45.3384 52.8267C46.6693 51.778 47.8276 50.9149 48.669 50.3031C49.1191 49.9759 49.4784 49.7206 49.7249 49.5473C49.7893 49.5021 49.846 49.4624 49.8946 49.4285C49.9432 49.4624 49.9999 49.5021 50.0643 49.5473C50.3107 49.7206 50.67 49.9758 51.12 50.3031C51.9614 50.9149 53.1196 51.778 54.4506 52.8267C52.6458 55.2895 51.0719 57.9445 49.8946 60.7717C48.7173 57.9445 47.1434 55.2895 45.3384 52.8267Z" fill="#00FFD3"/>
<path d="M36.9258 59.7783C36.2167 55.1867 36.4986 50.2142 37.7637 44.9991C40.4981 47.5258 42.8747 50.1363 44.8275 52.7585C41.7989 55.1609 39.1404 57.5229 36.9258 59.7783Z" fill="#00FFD3" fill-opacity="0.2"/>
<path fill-rule="evenodd" clip-rule="evenodd" d="M37.7637 44.9991C37.8682 45.0957 37.9721 45.1923 38.0756 45.2891C40.6791 47.7253 42.9493 50.2365 44.8275 52.7585C41.946 55.0442 39.3995 57.2933 37.2516 59.449C37.1419 59.559 37.0333 59.6688 36.9258 59.7783C36.9022 59.6255 36.8797 59.4722 36.8583 59.3185C36.2537 54.9778 36.5247 50.3045 37.6651 45.4136C37.6973 45.2756 37.7301 45.1375 37.7637 44.9991ZM37.1881 58.988C36.6482 54.8389 36.9114 50.3784 37.9782 45.7066C40.4037 47.9907 42.5316 50.3375 44.3143 52.6928C41.6272 54.8383 39.234 56.9523 37.1881 58.988Z" fill="#00FFD3"/>
<path d="M36.9258 59.7783C36.2167 55.1871 36.4986 50.2146 37.7637 44.9991C40.498 47.5258 42.8746 50.1363 44.8275 52.7585C41.7989 55.1609 39.1404 57.5229 36.9258 59.7783Z" fill="#00FFD3" fill-opacity="0.2"/>
<path fill-rule="evenodd" clip-rule="evenodd" d="M37.7637 44.9991C37.8682 45.0957 37.9721 45.1924 38.0756 45.2891C40.679 47.7253 42.9493 50.2365 44.8275 52.7585C41.946 55.0442 39.3995 57.2934 37.2516 59.449C37.1419 59.559 37.0333 59.6688 36.9258 59.7783C36.9022 59.6255 36.8797 59.4722 36.8583 59.3185C36.2537 54.9781 36.5247 50.3049 37.6651 45.4136C37.6973 45.2756 37.7301 45.1375 37.7637 44.9991ZM37.1881 58.988C36.6482 54.8392 36.9114 50.3788 37.9782 45.7066C40.4036 47.9907 42.5316 50.3375 44.3143 52.6928C41.6272 54.8383 39.234 56.9523 37.1881 58.988Z" fill="#00FFD3"/>
<path d="M36.9258 59.7783C36.2167 55.1871 36.4986 50.2146 37.7637 44.9991C40.498 47.5258 42.8746 50.1363 44.8275 52.7585C41.7989 55.1609 39.1404 57.5229 36.9258 59.7783Z" fill="#00FFD3" fill-opacity="0.2"/>
<path fill-rule="evenodd" clip-rule="evenodd" d="M37.7637 44.9991C37.8682 45.0957 37.9721 45.1924 38.0756 45.2891C40.679 47.7253 42.9493 50.2365 44.8275 52.7585C41.946 55.0442 39.3995 57.2934 37.2516 59.449C37.1419 59.559 37.0333 59.6688 36.9258 59.7783C36.9022 59.6255 36.8797 59.4722 36.8583 59.3185C36.2537 54.9781 36.5247 50.3049 37.6651 45.4136C37.6973 45.2756 37.7301 45.1375 37.7637 44.9991ZM37.1881 58.988C36.6482 54.8392 36.9114 50.3788 37.9782 45.7066C40.4036 47.9907 42.5316 50.3375 44.3143 52.6928C41.6272 54.8383 39.234 56.9523 37.1881 58.988Z" fill="#00FFD3"/>
<path d="M36.9262 59.7783C39.5414 57.1149 42.4369 54.6553 44.828 52.7585C42.7002 49.9015 40.2588 47.3042 37.7641 44.9991C36.6239 49.7001 36.1475 54.736 36.9262 59.7783Z" fill="#00FFD3" fill-opacity="0.7"/>
<path fill-rule="evenodd" clip-rule="evenodd" d="M36.9262 59.7783C36.9026 59.625 36.8801 59.4718 36.8587 59.3185C36.1977 54.578 36.6305 49.852 37.6655 45.4136C37.6978 45.2752 37.7307 45.137 37.7641 44.9991C37.8682 45.0953 37.9721 45.1919 38.076 45.2891C40.4619 47.5214 42.7889 50.0206 44.828 52.7585C42.5358 54.5769 39.7799 56.9125 37.252 59.449C37.143 59.5584 37.0344 59.6682 36.9262 59.7783ZM37.1885 58.9881C36.5997 54.47 37.0064 49.9627 37.9787 45.7065C40.2133 47.8106 42.3885 50.1474 44.3148 52.6928C42.1349 54.4338 39.5711 56.6181 37.1885 58.9881Z" fill="#00FFD3"/>
<path d="M62.8656 59.7783C60.6509 57.5224 57.9921 55.1605 54.9634 52.7581C56.9166 50.1359 59.2933 47.5254 62.0274 44.9987C63.2927 50.2142 63.5744 55.1867 62.8656 59.7783Z" fill="#00FFD3" fill-opacity="0.2"/>
<path fill-rule="evenodd" clip-rule="evenodd" d="M55.4766 52.6924C57.2596 50.3371 59.3876 47.9903 61.8129 45.7062C62.8799 50.3783 63.1429 54.8388 62.6032 58.9879C60.5572 56.9519 58.1638 54.8379 55.4766 52.6924ZM62.5398 59.4489C60.3918 57.293 57.845 55.0438 54.9634 52.7581C56.8419 50.2361 59.1122 47.7249 61.7155 45.2887C61.819 45.192 61.9229 45.0953 62.0274 44.9987C62.0609 45.1371 62.0938 45.2752 62.126 45.4132C63.2666 50.3044 63.5375 54.9777 62.9331 59.3184C62.9117 59.4721 62.8892 59.6254 62.8656 59.7783C62.758 59.6688 62.6494 59.559 62.5398 59.4489Z" fill="#00FFD3"/>
<path d="M62.8656 59.7783C60.6509 57.5224 57.9921 55.1605 54.9634 52.7581C56.9166 50.1359 59.2933 47.5254 62.0274 44.9987C63.2927 50.2142 63.5744 55.1867 62.8656 59.7783Z" fill="#00FFD3" fill-opacity="0.2"/>
<path fill-rule="evenodd" clip-rule="evenodd" d="M55.4766 52.6924C57.2596 50.3371 59.3876 47.9903 61.8129 45.7062C62.8799 50.3783 63.1429 54.8388 62.6032 58.9879C60.5572 56.9519 58.1638 54.8379 55.4766 52.6924ZM62.5398 59.4489C60.3918 57.293 57.845 55.0438 54.9634 52.7581C56.8419 50.2361 59.1122 47.7249 61.7155 45.2887C61.819 45.192 61.9229 45.0953 62.0274 44.9987C62.0609 45.1371 62.0938 45.2752 62.126 45.4132C63.2666 50.3044 63.5375 54.9777 62.9331 59.3184C62.9117 59.4721 62.8892 59.6254 62.8656 59.7783C62.758 59.6688 62.6494 59.559 62.5398 59.4489Z" fill="#00FFD3"/>
<path d="M62.8656 59.7783C60.6509 57.5224 57.9921 55.1605 54.9634 52.7581C56.9166 50.1359 59.2933 47.5254 62.0274 44.9987C63.2927 50.2142 63.5744 55.1867 62.8656 59.7783Z" fill="#00FFD3" fill-opacity="0.2"/>
<path fill-rule="evenodd" clip-rule="evenodd" d="M55.4766 52.6924C57.2596 50.3371 59.3876 47.9903 61.8129 45.7062C62.8799 50.3783 63.1429 54.8388 62.6032 58.9879C60.5572 56.9519 58.1638 54.8379 55.4766 52.6924ZM62.5398 59.4489C60.3918 57.293 57.845 55.0438 54.9634 52.7581C56.8419 50.2361 59.1122 47.7249 61.7155 45.2887C61.819 45.192 61.9229 45.0953 62.0274 44.9987C62.0609 45.1371 62.0938 45.2752 62.126 45.4132C63.2666 50.3044 63.5375 54.9777 62.9331 59.3184C62.9117 59.4721 62.8892 59.6254 62.8656 59.7783C62.758 59.6688 62.6494 59.559 62.5398 59.4489Z" fill="#00FFD3"/>
<path d="M54.9634 52.7581C57.3546 54.6549 60.2503 57.1145 62.8656 59.7783C63.6441 54.7356 63.1678 49.6997 62.0274 44.9987C59.5326 47.3038 57.0914 49.9011 54.9634 52.7581Z" fill="#00FFD3" fill-opacity="0.7"/>
<path fill-rule="evenodd" clip-rule="evenodd" d="M55.4766 52.6925C57.4031 50.147 59.5782 47.8102 61.8129 45.7061C62.7852 49.9623 63.192 54.4695 62.6033 58.988C60.2205 56.6177 57.6566 54.4334 55.4766 52.6925ZM62.5398 59.449C60.0117 56.9121 57.2557 54.5765 54.9634 52.7581C57.0027 50.0202 59.3295 47.521 61.7155 45.2887C61.8194 45.1915 61.9233 45.0949 62.0274 44.9987C62.0608 45.1366 62.0937 45.2747 62.126 45.4132C63.1612 49.8516 63.5939 54.5776 62.9331 59.3185C62.9117 59.4717 62.8892 59.625 62.8656 59.7783C62.7574 59.6682 62.6488 59.5584 62.5398 59.449Z" fill="#00FFD3"/>
<path d="M47.283 70.8936C44.6144 66.7405 41.1304 63.0051 36.9277 59.7913L36.9258 59.7784C39.1404 57.5229 41.7989 55.1609 44.8275 52.7586C46.8789 55.5128 48.4976 58.3267 49.6384 61.1216C49.7145 61.308 49.7939 61.5057 49.8955 61.7619C48.5314 65.2032 47.6522 68.2758 47.283 70.8936Z" fill="#00FFD3" fill-opacity="0.45"/>
<path fill-rule="evenodd" clip-rule="evenodd" d="M49.2949 61.2618L49.295 61.2619C49.3565 61.4125 49.4202 61.5707 49.4964 61.7623C48.3148 64.7631 47.4979 67.4931 47.0679 69.8934C44.5207 66.1276 41.2989 62.7195 37.4781 59.7473C39.5469 57.6678 41.9923 55.4974 44.7576 53.2885C46.6849 55.9221 48.2098 58.6033 49.2949 61.2618ZM45.048 53.0572C44.9751 52.9576 44.9016 52.8581 44.8275 52.7586C44.7303 52.8357 44.6335 52.9128 44.5371 52.9898C41.7438 55.2205 39.2723 57.4146 37.1821 59.5189C37.114 59.5875 37.0462 59.656 36.9789 59.7244C36.9612 59.7424 36.9435 59.7604 36.9258 59.7784L36.9277 59.7913C36.9447 59.8043 36.9617 59.8173 36.9787 59.8303C37.0578 59.891 37.1367 59.9519 37.2154 60.013C41.1325 63.0544 44.4134 66.5542 46.9779 70.4259C47.0808 70.5812 47.1825 70.7371 47.283 70.8936C47.3086 70.712 47.3367 70.5282 47.3672 70.3423C47.7765 67.8477 48.626 64.9645 49.8955 61.7619C49.7939 61.5057 49.7145 61.308 49.6384 61.1216C48.5388 58.4276 46.9951 55.716 45.048 53.0572Z" fill="#00FFD3"/>
<path d="M47.283 70.8936C44.6144 66.7405 41.1304 63.0051 36.9277 59.7913L36.9258 59.7784C39.1404 57.5229 41.7989 55.1609 44.8275 52.7586C46.8789 55.5128 48.4976 58.3267 49.6384 61.1216C49.7153 61.31 49.7947 61.5073 49.8955 61.7619C48.5314 65.2032 47.6522 68.2758 47.283 70.8936Z" fill="#00FFD3" fill-opacity="0.45"/>
<path d="M47.3192 71.1699C47.6557 68.7841 48.4443 65.7903 49.9316 62.0383C49.8478 61.8269 49.7628 61.6142 49.6746 61.398C48.4568 58.415 46.7885 55.6193 44.8637 53.035C42.4726 54.9318 39.577 57.3914 36.9619 60.0548C36.9626 60.0592 36.9632 60.0637 36.9639 60.0677C40.7062 62.9296 44.3645 66.5714 47.3192 71.1699Z" fill="#00FFD3" fill-opacity="0.6"/>
<path d="M47.3192 71.1699C47.6557 68.7841 48.4443 65.7903 49.9316 62.0383C49.8478 61.8269 49.7628 61.6142 49.6746 61.398C48.4568 58.415 46.7885 55.6193 44.8637 53.035C42.4726 54.9318 39.577 57.3914 36.9619 60.0548C36.9626 60.0592 36.9632 60.0637 36.9639 60.0677C40.7062 62.9296 44.3645 66.5714 47.3192 71.1699Z" fill="#00FFD3" fill-opacity="0.6"/>
<path fill-rule="evenodd" clip-rule="evenodd" d="M47.2831 70.8936C47.1822 70.7365 47.0805 70.5806 46.978 70.4258C44.1554 66.1635 40.7296 62.7415 37.2154 60.013C37.1365 59.9517 37.0575 59.8908 36.9785 59.8302C36.9616 59.8172 36.9447 59.8043 36.9278 59.7913C36.9271 59.7873 36.9264 59.7828 36.9258 59.7784C36.9435 59.7603 36.9613 59.7422 36.9791 59.7242C37.0466 59.6556 37.1143 59.5871 37.1822 59.5189C39.6233 57.0618 42.2835 54.79 44.5372 52.9898C44.6347 52.9118 44.7315 52.8348 44.8275 52.7586C44.8275 52.7586 44.8276 52.7586 44.8276 52.7586C44.9015 52.8578 44.975 52.9574 45.0481 53.0572C46.8798 55.5579 48.4674 58.2532 49.6384 61.1216C49.7267 61.3379 49.8117 61.5505 49.8955 61.7619C48.5206 65.2304 47.7427 68.0509 47.3672 70.3422C47.3365 70.5295 47.3085 70.7133 47.2831 70.8936ZM47.0678 69.8931C44.2718 65.7578 40.9158 62.4214 37.4781 59.7473C39.893 57.3203 42.5232 55.0738 44.7576 53.2885C46.5712 55.766 48.1393 58.431 49.295 61.2618C49.3637 61.4303 49.4305 61.5966 49.4965 61.7623C48.2231 64.9955 47.4649 67.6742 47.0678 69.8931Z" fill="#00FFD3"/>
<path d="M52.5065 70.8936C52.1374 68.2758 51.2581 65.2032 49.894 61.7619C49.9936 61.511 50.075 61.3076 50.1511 61.1216C51.2919 58.3267 52.9107 55.5128 54.9618 52.7586C57.9905 55.1609 60.6492 57.5229 62.8639 59.7788L62.8619 59.7913C58.659 63.0051 55.1753 66.7405 52.5065 70.8936Z" fill="#00FFD3" fill-opacity="0.45"/>
<path fill-rule="evenodd" clip-rule="evenodd" d="M52.4223 70.3423C52.4528 70.5282 52.4809 70.712 52.5065 70.8936C52.607 70.7371 52.7087 70.5812 52.8116 70.426C55.3763 66.5543 58.6568 63.0545 62.5741 60.0131C62.6535 59.9514 62.7332 59.8899 62.8132 59.8286C62.8294 59.8162 62.8457 59.8037 62.8619 59.7913L62.8639 59.7788C62.8466 59.7611 62.8292 59.7435 62.8118 59.7258C62.7441 59.6569 62.6759 59.588 62.6073 59.519C60.517 57.4145 58.0455 55.2205 55.2522 52.9898C55.1557 52.9127 55.0589 52.8357 54.9618 52.7586C54.8877 52.8581 54.8142 52.9576 54.7412 53.0572C52.7944 55.716 51.2507 58.4276 50.1511 61.1216C50.075 61.3076 49.9936 61.511 49.894 61.7619C51.1635 64.9645 52.0131 67.8478 52.4223 70.3423ZM52.7216 69.8934C52.2916 67.4931 51.4747 64.7631 50.2931 61.7623C50.3685 61.5729 50.4332 61.4117 50.4945 61.2622L50.4946 61.2618C51.5797 58.6033 53.1046 55.9221 55.0317 53.2885C57.7969 55.4973 60.2425 57.6676 62.3114 59.7474C58.4904 62.7196 55.2689 66.1277 52.7216 69.8934Z" fill="#00FFD3"/>
<path d="M52.5065 70.8936C52.1374 68.2758 51.2581 65.2032 49.894 61.7619C49.9932 61.5122 50.0746 61.3088 50.1511 61.1216C51.2919 58.3267 52.9107 55.5128 54.9618 52.7586C57.9905 55.1609 60.6492 57.5229 62.8639 59.7788L62.8619 59.7913C58.659 63.0051 55.1749 66.7405 52.5065 70.8936Z" fill="#00FFD3" fill-opacity="0.45"/>
<path fill-rule="evenodd" clip-rule="evenodd" d="M52.4223 70.3423C52.4528 70.5282 52.4809 70.712 52.5065 70.8936C52.607 70.7371 52.7087 70.5812 52.8116 70.4259C55.3759 66.5542 58.6568 63.0545 62.5741 60.0131C62.6535 59.9514 62.7332 59.8899 62.8132 59.8286C62.8294 59.8162 62.8457 59.8037 62.8619 59.7913L62.8639 59.7788C62.8466 59.7611 62.8292 59.7435 62.8118 59.7258C62.7441 59.6569 62.6759 59.588 62.6073 59.519C60.517 57.4145 58.0455 55.2205 55.2522 52.9898C55.1557 52.9127 55.0589 52.8357 54.9618 52.7586C54.8877 52.8581 54.8142 52.9576 54.7412 53.0572C52.7944 55.716 51.2507 58.4276 50.1511 61.1216C50.0746 61.3088 49.9932 61.5122 49.894 61.7619C51.1635 64.9645 52.013 67.8477 52.4223 70.3423ZM52.7216 69.8933C52.2916 67.4931 51.4747 64.7631 50.2931 61.7623C50.3682 61.5737 50.433 61.4124 50.4945 61.262L50.4946 61.2618C51.5797 58.6033 53.1046 55.9221 55.0317 53.2885C57.7969 55.4973 60.2425 57.6676 62.3114 59.7474C58.4904 62.7196 55.2686 66.1276 52.7216 69.8933Z" fill="#00FFD3"/>
<path d="M52.5065 70.8936C52.1374 68.2758 51.2581 65.2032 49.894 61.7619C49.9932 61.5122 50.0746 61.3088 50.1511 61.1216C51.2919 58.3267 52.9107 55.5128 54.9618 52.7586C57.9905 55.1609 60.6492 57.5229 62.8639 59.7788L62.8619 59.7913C58.659 63.0051 55.1749 66.7405 52.5065 70.8936Z" fill="#00FFD3" fill-opacity="0.45"/>
<path fill-rule="evenodd" clip-rule="evenodd" d="M52.4223 70.3423C52.4528 70.5282 52.4809 70.712 52.5065 70.8936C52.607 70.7371 52.7087 70.5812 52.8116 70.4259C55.3759 66.5542 58.6568 63.0545 62.5741 60.0131C62.6535 59.9514 62.7332 59.8899 62.8132 59.8286C62.8294 59.8162 62.8457 59.8037 62.8619 59.7913L62.8639 59.7788C62.8466 59.7611 62.8292 59.7435 62.8118 59.7258C62.7441 59.6569 62.6759 59.588 62.6073 59.519C60.517 57.4145 58.0455 55.2205 55.2522 52.9898C55.1557 52.9127 55.0589 52.8357 54.9618 52.7586C54.8877 52.8581 54.8142 52.9576 54.7412 53.0572C52.7944 55.716 51.2507 58.4276 50.1511 61.1216C50.0746 61.3088 49.9932 61.5122 49.894 61.7619C51.1635 64.9645 52.013 67.8477 52.4223 70.3423ZM52.7216 69.8933C52.2916 67.4931 51.4747 64.7631 50.2931 61.7623C50.3682 61.5737 50.433 61.4124 50.4945 61.262L50.4946 61.2618C51.5797 58.6033 53.1046 55.9221 55.0317 53.2885C57.7969 55.4973 60.2425 57.6676 62.3114 59.7474C58.4904 62.7196 55.2686 66.1276 52.7216 69.8933Z" fill="#00FFD3"/>
<path d="M54.9618 52.7586C53.0372 55.3429 51.3689 58.1387 50.1511 61.1216C50.0629 61.3379 49.9779 61.5505 49.894 61.7619C51.3814 65.5139 52.17 68.5078 52.5065 70.8936C55.461 66.2955 59.1196 62.6532 62.8619 59.7913C62.8623 59.7873 62.8631 59.7828 62.8639 59.7788C60.2487 57.115 57.353 54.6554 54.9618 52.7586Z" fill="#00FFD3" fill-opacity="0.6"/>
<path fill-rule="evenodd" clip-rule="evenodd" d="M55.2522 52.9898C55.1546 52.9118 55.0578 52.8348 54.9618 52.7586C54.8879 52.8578 54.8143 52.9574 54.7412 53.0572C52.9097 55.5579 51.3221 58.2532 50.1511 61.1216C50.0629 61.3379 49.9779 61.5505 49.894 61.7619C51.269 65.2304 52.0468 68.0509 52.4223 70.3422C52.453 70.5295 52.481 70.7133 52.5065 70.8936C52.6074 70.7365 52.7091 70.5807 52.8116 70.4259C55.634 66.1639 59.0599 62.7416 62.5741 60.0131C62.6537 59.9513 62.7334 59.8898 62.8132 59.8286C62.8294 59.8162 62.8457 59.8037 62.8619 59.7913C62.8621 59.7894 62.8624 59.7874 62.8627 59.7854C62.8631 59.7831 62.8635 59.7809 62.8639 59.7788C62.8466 59.7611 62.8292 59.7434 62.8118 59.7258C62.7438 59.6567 62.6757 59.5878 62.6073 59.519C60.1661 57.0617 57.5058 54.7899 55.2522 52.9898ZM55.0317 53.2885C57.2661 55.0738 59.8964 57.3202 62.3113 59.7475C58.8737 62.4215 55.5176 65.7582 52.7217 69.8931C52.3247 67.6742 51.5664 64.9955 50.2931 61.7623C50.359 61.5966 50.4259 61.4302 50.4946 61.2618C51.6503 58.431 53.2184 55.766 55.0317 53.2885Z" fill="#00FFD3"/>
<path d="M49.8574 79.9697C49.7454 79.9693 49.6342 79.9681 49.5226 79.9665L49.3787 79.9645C48.8839 79.9064 48.0908 79.7373 47.1229 79.2632C45.9605 78.6939 44.8427 77.8313 43.8005 76.6999C42.4621 75.247 41.2558 73.3538 40.2152 71.0733C38.9673 68.3377 37.9429 65.0094 37.1706 61.1807C37.0864 60.7631 37.0089 60.3217 36.9268 59.7911C41.1294 63.0049 44.6134 66.7403 47.2821 70.8934C46.2482 78.2226 49.4847 79.8124 49.8574 79.9697Z" fill="#00FFD3" fill-opacity="0.9"/>
<path fill-rule="evenodd" clip-rule="evenodd" d="M49.4083 79.7127C49.4492 79.7412 49.4882 79.7672 49.525 79.7906C49.5251 79.7906 49.5251 79.7906 49.5251 79.7906C49.6835 79.8914 49.8021 79.9464 49.8574 79.9697C49.7454 79.9693 49.6342 79.9681 49.5226 79.9665L49.3787 79.9645C49.2832 79.9533 49.1765 79.9379 49.0596 79.917C48.5711 79.8297 47.904 79.6458 47.1229 79.2632C45.9605 78.6939 44.8427 77.8313 43.8005 76.6999C42.4621 75.247 41.2558 73.3538 40.2152 71.0733C38.9673 68.3377 37.9429 65.0094 37.1706 61.1807C37.1163 60.9116 37.0648 60.6326 37.0131 60.3262C36.9846 60.1572 36.956 59.9798 36.9268 59.7911C37.0704 59.901 37.2133 60.0115 37.3553 60.1226C41.3667 63.2608 44.7047 66.8823 47.2821 70.8934C46.4907 76.5037 48.2015 78.751 49.2146 79.5671C49.2731 79.6142 49.3293 79.6565 49.3825 79.6945C49.3912 79.7006 49.3998 79.7067 49.4083 79.7127ZM48.501 79.4047C48.1466 79.3018 47.737 79.1509 47.2861 78.9301L47.2861 78.9301C46.172 78.3844 45.0902 77.5524 44.0733 76.4486C42.7675 75.031 41.5812 73.1733 40.5528 70.9193L40.2157 71.0731L40.5528 70.9193C39.3195 68.2158 38.3025 64.916 37.5343 61.1074C37.5056 60.9655 37.4778 60.8206 37.4502 60.6701C41.249 63.6945 44.4225 67.1588 46.8958 70.9789C46.4036 74.6194 46.9517 76.895 47.7165 78.2985C47.9675 78.7591 48.2395 79.1216 48.501 79.4047Z" fill="#00FFD3"/>
<path d="M49.8574 79.9697C49.7454 79.9693 49.6342 79.9681 49.5226 79.9665L49.3787 79.9645C48.8839 79.9064 48.0908 79.7373 47.1229 79.2632C45.9605 78.6939 44.8427 77.8313 43.8005 76.6999C42.4621 75.247 41.2558 73.3538 40.2152 71.0733C38.9673 68.3381 37.9429 65.0094 37.1706 61.1807C37.0864 60.7631 37.0089 60.3217 36.9268 59.7911C41.1295 63.0049 44.6135 66.7403 47.2821 70.8934C46.2482 78.2231 49.4847 79.8124 49.8574 79.9697Z" fill="#00FFD3" fill-opacity="0.8"/>
<path fill-rule="evenodd" clip-rule="evenodd" d="M49.4083 79.7127C49.4492 79.7413 49.4882 79.7672 49.525 79.7906C49.5251 79.7906 49.5251 79.7907 49.5251 79.7907C49.6835 79.8914 49.8021 79.9464 49.8574 79.9697C49.7454 79.9693 49.6342 79.9681 49.5226 79.9665L49.3787 79.9645C49.2832 79.9533 49.1765 79.9379 49.0596 79.917C48.5711 79.8297 47.9039 79.6458 47.1229 79.2632C45.9605 78.6939 44.8427 77.8313 43.8005 76.6999C42.4621 75.247 41.2558 73.3538 40.2152 71.0733C38.9673 68.3381 37.9429 65.0094 37.1706 61.1807C37.1163 60.9116 37.0649 60.6326 37.0131 60.3262C36.9846 60.1572 36.956 59.9798 36.9268 59.7911C37.0704 59.901 37.2133 60.0115 37.3553 60.1226C41.3667 63.2608 44.7047 66.8823 47.2821 70.8934C46.4907 76.5038 48.2014 78.751 49.2146 79.5671C49.2731 79.6142 49.3293 79.6565 49.3825 79.6945C49.3912 79.7007 49.3998 79.7067 49.4083 79.7127ZM48.5008 79.4047C48.1465 79.3018 47.737 79.1509 47.2861 78.9301L47.2861 78.9301C46.172 78.3844 45.0902 77.5524 44.0733 76.4486C42.7675 75.031 41.5812 73.1733 40.5528 70.9193C39.3195 68.2163 38.3025 64.916 37.5343 61.1074C37.5056 60.9655 37.4778 60.8206 37.4502 60.6701C41.2491 63.6945 44.4225 67.1588 46.8958 70.9789C46.4036 74.6196 46.9517 76.8952 47.7165 78.2987C47.9674 78.7592 48.2394 79.1216 48.5008 79.4047Z" fill="#00FFD3"/>
<path fill-rule="evenodd" clip-rule="evenodd" d="M49.4083 79.7127C49.4492 79.7413 49.4882 79.7672 49.525 79.7906C49.5251 79.7906 49.5251 79.7907 49.5251 79.7907C49.6835 79.8914 49.8021 79.9464 49.8574 79.9697C49.7454 79.9693 49.6342 79.9681 49.5226 79.9665L49.3787 79.9645C49.2832 79.9533 49.1765 79.9379 49.0596 79.917C48.5711 79.8297 47.9039 79.6458 47.1229 79.2632C45.9605 78.6939 44.8427 77.8313 43.8005 76.6999C42.4621 75.247 41.2558 73.3538 40.2152 71.0733C38.9673 68.3381 37.9429 65.0094 37.1706 61.1807C37.1163 60.9116 37.0649 60.6326 37.0131 60.3262C36.9846 60.1572 36.956 59.9798 36.9268 59.7911C37.0704 59.901 37.2133 60.0115 37.3553 60.1226C41.3667 63.2608 44.7047 66.8823 47.2821 70.8934C46.4907 76.5038 48.2014 78.751 49.2146 79.5671C49.2731 79.6142 49.3293 79.6565 49.3825 79.6945C49.3912 79.7007 49.3998 79.7067 49.4083 79.7127ZM48.5008 79.4047C48.1465 79.3018 47.737 79.1509 47.2861 78.9301L47.2861 78.9301C46.172 78.3844 45.0902 77.5524 44.0733 76.4486C42.7675 75.031 41.5812 73.1733 40.5528 70.9193C39.3195 68.2163 38.3025 64.916 37.5343 61.1074C37.5056 60.9655 37.4778 60.8206 37.4502 60.6701C41.2491 63.6945 44.4225 67.1588 46.8958 70.9789C46.4036 74.6196 46.9517 76.8952 47.7165 78.2987C47.9674 78.7592 48.2394 79.1216 48.5008 79.4047Z" fill="#00FFD3"/>
<path fill-rule="evenodd" clip-rule="evenodd" d="M47.2821 70.8938C46.4905 76.5049 48.2001 78.7515 49.214 79.5673C49.2726 79.6145 49.3288 79.6568 49.3821 79.6948C49.3909 79.7011 49.3996 79.7072 49.4083 79.7132C49.6242 79.8639 49.7884 79.9407 49.8574 79.9697C49.7329 79.9697 49.6093 79.968 49.4855 79.9663C49.45 79.9658 49.4144 79.9653 49.3787 79.9649C49.2838 79.9537 49.1769 79.9383 49.059 79.9173C46.7693 79.5074 40.349 76.938 37.1706 61.1811C37.1131 60.8963 37.0613 60.6115 37.0132 60.3267C36.9831 60.1483 36.9544 59.9699 36.9268 59.7915C37.0697 59.9009 37.2126 60.0114 37.3553 60.123C40.9476 62.9332 44.4403 66.471 47.2821 70.8938ZM37.4503 60.6705C40.8699 63.3927 44.1793 66.7831 46.8958 70.9793C46.4037 74.6185 46.9505 76.8935 47.7146 78.2971C47.9657 78.7583 48.2379 79.1213 48.4997 79.4047C47.4154 79.0896 45.7976 78.321 44.0733 76.4491C41.7415 73.9178 39.1966 69.3489 37.5342 61.1078M37.4503 60.6705C37.477 60.8164 37.5049 60.9622 37.5342 61.1078L37.4503 60.6705Z" fill="#00FFD3"/>
<path d="M49.9326 79.9697C50.3054 79.8124 53.542 78.2222 52.508 70.8934C55.1768 66.7403 58.6605 63.0049 62.8634 59.7911C62.7808 60.3229 62.7034 60.7643 62.6196 61.1807C61.8471 65.0098 60.8228 68.3381 59.5748 71.0733C58.5343 73.3538 57.3283 75.247 55.9896 76.6999C54.9475 77.8313 53.8297 78.6939 52.6671 79.2632C51.6992 79.7373 50.9062 79.9064 50.4113 79.9645L50.2679 79.9665C50.1563 79.9681 50.0446 79.9693 49.9326 79.9697Z" fill="#00FFD3" fill-opacity="0.9"/>
<path d="M49.9326 79.9697C50.3054 79.8124 53.542 78.2222 52.508 70.8934C55.1768 66.7403 58.6605 63.0049 62.8634 59.7911C62.7808 60.3229 62.7034 60.7643 62.6196 61.1807C61.8471 65.0098 60.8228 68.3381 59.5748 71.0733C58.5343 73.3538 57.3283 75.247 55.9896 76.6999C54.9475 77.8313 53.8297 78.6939 52.6671 79.2632C51.6992 79.7373 50.9062 79.9064 50.4113 79.9645L50.2679 79.9665C50.1563 79.9681 50.0446 79.9693 49.9326 79.9697Z" fill="#00FFD3" fill-opacity="0.7"/>
<path fill-rule="evenodd" clip-rule="evenodd" d="M50.5754 79.5671C51.5886 78.7509 53.2995 76.5035 52.508 70.8934C55.0856 66.8824 58.4232 63.2609 62.4347 60.1227C62.5768 60.0116 62.7197 59.9011 62.8634 59.7911C62.8341 59.98 62.8054 60.1574 62.7769 60.3263C62.7251 60.6332 62.6737 60.9122 62.6196 61.1807C61.8471 65.0098 60.8228 68.3381 59.5748 71.0733C58.5343 73.3538 57.3283 75.247 55.9896 76.6999C54.9475 77.8313 53.8297 78.6939 52.6671 79.2632C51.8861 79.6458 51.2189 79.8297 50.7304 79.917C50.6135 79.9379 50.5069 79.9533 50.4113 79.9645L50.2679 79.9665C50.1563 79.9681 50.0446 79.9693 49.9326 79.9697C49.988 79.9463 50.1068 79.8913 50.2653 79.7904C50.2654 79.7904 50.2654 79.7903 50.2654 79.7903C50.3022 79.767 50.341 79.7411 50.3818 79.7126C50.3903 79.7067 50.3989 79.7006 50.4075 79.6944C50.4607 79.6565 50.5169 79.6142 50.5754 79.5671ZM51.289 79.4048C51.6434 79.3019 52.053 79.151 52.504 78.9301L52.504 78.9301C53.6182 78.3844 54.7001 77.5524 55.7167 76.4486L55.7168 76.4485C57.0228 75.031 58.2089 73.1733 59.2373 70.9193L59.2373 70.9193C60.4706 68.2163 61.4875 64.9164 62.256 61.1074C62.2845 60.9657 62.3123 60.8208 62.3399 60.6702C58.5409 63.6945 55.3678 67.1588 52.8943 70.9789C53.3866 74.6192 52.8384 76.8948 52.0736 78.2984C51.8226 78.759 51.5505 79.1216 51.289 79.4048Z" fill="#00FFD3"/>
<path fill-rule="evenodd" clip-rule="evenodd" d="M50.5754 79.5671C51.5886 78.7509 53.2995 76.5035 52.508 70.8934C55.0852 66.8823 58.4232 63.2608 62.4349 60.1226C62.5769 60.0115 62.7197 59.901 62.8634 59.7911C62.8342 59.9799 62.8056 60.1572 62.777 60.3262C62.7252 60.633 62.6737 60.912 62.6196 61.1807C61.8471 65.0094 60.8228 68.3381 59.5748 71.0733C58.5343 73.3538 57.3279 75.247 55.9896 76.6999C54.9475 77.8313 53.8297 78.6939 52.6671 79.2632C51.8861 79.6458 51.2189 79.8297 50.7304 79.917C50.6135 79.9379 50.5069 79.9533 50.4113 79.9645L50.2679 79.9665C50.1563 79.9681 50.0446 79.9693 49.9326 79.9697C49.988 79.9463 50.1068 79.8913 50.2653 79.7904C50.2654 79.7904 50.2654 79.7903 50.2654 79.7903C50.3022 79.767 50.341 79.7411 50.3818 79.7126C50.3903 79.7067 50.3989 79.7006 50.4075 79.6944C50.4607 79.6565 50.5169 79.6142 50.5754 79.5671ZM51.289 79.4048C51.5505 79.1216 51.8226 78.759 52.0736 78.2984C52.8384 76.8948 53.3866 74.6192 52.8943 70.9789C55.3674 67.1588 58.5409 63.6945 62.3399 60.6701C62.3123 60.8207 62.2845 60.9656 62.256 61.1074C61.4875 64.916 60.4706 68.2163 59.2373 70.9193L59.2373 70.9193C58.209 73.1733 57.0224 75.031 55.7167 76.4486C54.7001 77.5524 53.6182 78.3844 52.504 78.9301L52.504 78.9301C52.053 79.151 51.6434 79.3019 51.289 79.4048Z" fill="#00FFD3"/>
<path fill-rule="evenodd" clip-rule="evenodd" d="M50.5754 79.5671C51.5886 78.7509 53.2995 76.5035 52.508 70.8934C55.0852 66.8823 58.4232 63.2608 62.4349 60.1226C62.5769 60.0115 62.7197 59.901 62.8634 59.7911C62.8342 59.9799 62.8056 60.1572 62.777 60.3262C62.7252 60.633 62.6737 60.912 62.6196 61.1807C61.8471 65.0094 60.8228 68.3381 59.5748 71.0733C58.5343 73.3538 57.3279 75.247 55.9896 76.6999C54.9475 77.8313 53.8297 78.6939 52.6671 79.2632C51.8861 79.6458 51.2189 79.8297 50.7304 79.917C50.6135 79.9379 50.5069 79.9533 50.4113 79.9645L50.2679 79.9665C50.1563 79.9681 50.0446 79.9693 49.9326 79.9697C49.988 79.9463 50.1068 79.8913 50.2653 79.7904C50.2654 79.7904 50.2654 79.7903 50.2654 79.7903C50.3022 79.767 50.341 79.7411 50.3818 79.7126C50.3903 79.7067 50.3989 79.7006 50.4075 79.6944C50.4607 79.6565 50.5169 79.6142 50.5754 79.5671ZM51.289 79.4048C51.5505 79.1216 51.8226 78.759 52.0736 78.2984C52.8384 76.8948 53.3866 74.6192 52.8943 70.9789C55.3674 67.1588 58.5409 63.6945 62.3399 60.6701C62.3123 60.8207 62.2845 60.9656 62.256 61.1074C61.4875 64.916 60.4706 68.2163 59.2373 70.9193L59.2373 70.9193C58.209 73.1733 57.0224 75.031 55.7167 76.4486C54.7001 77.5524 53.6182 78.3844 52.504 78.9301L52.504 78.9301C52.053 79.151 51.6434 79.3019 51.289 79.4048Z" fill="#00FFD3"/>
<path fill-rule="evenodd" clip-rule="evenodd" d="M52.508 70.8938C55.3496 66.4714 58.8425 62.9332 62.4348 60.1231C62.5775 60.0114 62.7204 59.9009 62.8634 59.7915C62.8358 59.9699 62.8071 60.1483 62.7769 60.3267C62.7288 60.6115 62.6769 60.8963 62.6196 61.1811C59.441 76.938 53.0207 79.5074 50.7311 79.9173C50.6132 79.9383 50.5063 79.9537 50.4113 79.9649C50.3757 79.9653 50.3401 79.9658 50.3045 79.9663C50.1808 79.968 50.0572 79.9697 49.9326 79.9697C50.0016 79.9407 50.1658 79.8639 50.3818 79.7132C50.3904 79.7072 50.3991 79.7011 50.4079 79.6948C50.4612 79.6568 50.5175 79.6145 50.5761 79.5673C51.5899 78.7515 53.2996 76.5049 52.508 70.8938ZM51.2903 79.4047C51.5521 79.1213 51.8244 78.7583 52.0755 78.2971C52.8395 76.8935 53.3864 74.6185 52.8943 70.9793C55.6107 66.7835 58.9201 63.3928 62.3398 60.6706C62.3131 60.8165 62.2852 60.9622 62.256 61.1078C60.5935 69.3489 58.0486 73.9178 55.7168 76.4491C53.9924 78.321 52.3747 79.0896 51.2903 79.4047Z" fill="#00FFD3"/>
<path d="M49.8947 75.6299C49.1411 74.0119 48.2622 72.4186 47.2822 70.8934C47.6513 68.2756 48.5306 65.2031 49.8947 61.7618C51.2587 65.2031 52.138 68.2756 52.5071 70.8934C51.5271 72.4186 50.6482 74.0119 49.8947 75.6299Z" fill="#00FFD3" fill-opacity="0.9"/>
<path d="M49.8947 75.6299C49.1411 74.0119 48.2622 72.4186 47.2822 70.8934C47.6513 68.2756 48.5306 65.2031 49.8947 61.7618C51.2587 65.2031 52.138 68.2756 52.5071 70.8934C51.5271 72.4186 50.6482 74.0119 49.8947 75.6299Z" fill="#00FFD3" fill-opacity="0.7"/>
<path fill-rule="evenodd" clip-rule="evenodd" d="M47.6691 70.8096C48.0105 68.4861 48.7564 65.7926 49.8947 62.7881C51.0329 65.7926 51.7789 68.4861 52.1202 70.8096C51.3029 72.0911 50.5564 73.4194 49.8947 74.7696C49.2329 73.4194 48.4864 72.0911 47.6691 70.8096ZM49.6891 75.1955C48.9828 73.7269 48.1744 72.2819 47.2822 70.8934C47.6331 68.4052 48.4448 65.5061 49.6957 62.27C49.7608 62.1015 49.8272 61.9321 49.8947 61.7618C49.9622 61.9321 50.0285 62.1015 50.0936 62.27C51.3445 65.5061 52.1562 68.4052 52.5071 70.8934C51.6149 72.2819 50.8066 73.7269 50.1003 75.1955C50.0307 75.3401 49.9622 75.4849 49.8947 75.6299C49.8271 75.4849 49.7586 75.3401 49.6891 75.1955Z" fill="#00FFD3"/>
<path fill-rule="evenodd" clip-rule="evenodd" d="M47.6691 70.8096C48.0105 68.4861 48.7564 65.7926 49.8947 62.7881C51.0329 65.7926 51.7789 68.4862 52.1202 70.8097C51.3033 72.0908 50.5565 73.4193 49.8947 74.7696C49.2329 73.4194 48.4864 72.0911 47.6691 70.8096ZM49.6891 75.1955C48.9828 73.7269 48.1744 72.2819 47.2822 70.8934C47.6331 68.4052 48.4448 65.5061 49.6957 62.27C49.7608 62.1015 49.8272 61.9321 49.8947 61.7618C49.9622 61.9321 50.0285 62.1015 50.0936 62.27C51.3445 65.5061 52.1562 68.4052 52.5071 70.8934C51.6153 72.2815 50.8066 73.7268 50.1003 75.1955C50.0307 75.3401 49.9622 75.4849 49.8947 75.6299C49.8271 75.4849 49.7586 75.3401 49.6891 75.1955Z" fill="#00FFD3"/>
<path fill-rule="evenodd" clip-rule="evenodd" d="M47.6691 70.8096C48.0105 68.4861 48.7564 65.7926 49.8947 62.7881C51.0329 65.7926 51.7789 68.4862 52.1202 70.8097C51.3033 72.0908 50.5565 73.4193 49.8947 74.7696C49.2329 73.4194 48.4864 72.0911 47.6691 70.8096ZM49.6891 75.1955C48.9828 73.7269 48.1744 72.2819 47.2822 70.8934C47.6331 68.4052 48.4448 65.5061 49.6957 62.27C49.7608 62.1015 49.8272 61.9321 49.8947 61.7618C49.9622 61.9321 50.0285 62.1015 50.0936 62.27C51.3445 65.5061 52.1562 68.4052 52.5071 70.8934C51.6153 72.2815 50.8066 73.7268 50.1003 75.1955C50.0307 75.3401 49.9622 75.4849 49.8947 75.6299C49.8271 75.4849 49.7586 75.3401 49.6891 75.1955Z" fill="#00FFD3"/>
<path d="M49.8593 79.9697C49.4865 79.8124 46.25 78.2231 47.2839 70.8934C48.2639 72.4185 49.1428 74.0119 49.8963 75.6299C50.6499 74.0119 51.5291 72.4181 52.5088 70.8934C53.5428 78.2222 50.3061 79.8124 49.9334 79.9697H49.8963H49.8593Z" fill="#00FFD3" fill-opacity="0.6"/>
<path fill-rule="evenodd" clip-rule="evenodd" d="M49.8592 79.9697C49.4965 79.8166 46.421 78.307 47.21 71.4692C47.2316 71.2813 47.2562 71.0894 47.2839 70.8934C47.3883 71.0559 47.4916 71.2192 47.5937 71.3832C48.3639 72.6205 49.0671 73.8988 49.6907 75.1955C49.7603 75.3401 49.8288 75.4849 49.8963 75.6299C49.9639 75.4849 50.0324 75.3401 50.1019 75.1955C50.7256 73.8988 51.429 72.6203 52.199 71.3833C52.3011 71.2192 52.4043 71.0559 52.5088 70.8934C52.5364 71.0894 52.561 71.2813 52.5827 71.4692C53.3717 78.3063 50.2962 79.8166 49.9334 79.9697H49.8592ZM49.8963 79.5767C49.6218 79.433 48.9421 78.9938 48.3698 77.9437C47.7592 76.8231 47.2535 74.9748 47.5291 71.9868C48.2783 73.2228 48.9594 74.4969 49.56 75.7865L49.8963 76.5086L50.2326 75.7865C50.8332 74.497 51.5145 73.2227 52.2636 71.9869C52.5391 74.9745 52.0335 76.8228 51.4228 77.9434C50.8506 78.9936 50.1708 79.433 49.8963 79.5767Z" fill="#00FFD3"/>
<path d="M49.8592 79.9697C49.4865 79.8124 46.25 78.2231 47.2839 70.8934C48.2639 72.4185 49.1428 74.0119 49.8963 75.6299C50.6499 74.0119 51.5291 72.4181 52.5087 70.8934C53.5428 78.2226 50.3061 79.8124 49.9334 79.9697C49.9233 79.9697 49.8963 79.9697 49.8963 79.9697H49.8592Z" fill="#00FFD3" fill-opacity="0.6"/>
<path fill-rule="evenodd" clip-rule="evenodd" d="M49.8592 79.9697C49.4965 79.8166 46.421 78.307 47.21 71.4692C47.2316 71.2813 47.2562 71.0894 47.2839 70.8934C47.3883 71.0559 47.4916 71.2192 47.5937 71.3832C48.3639 72.6205 49.0671 73.8988 49.6907 75.1955C49.7602 75.3401 49.8288 75.4849 49.8963 75.6299C49.9638 75.4849 50.0324 75.3401 50.1019 75.1955C50.7256 73.8988 51.429 72.6203 52.1989 71.3833C52.301 71.2192 52.4043 71.0559 52.5087 70.8934C52.5364 71.0894 52.561 71.2813 52.5827 71.4692C53.3717 78.3067 50.2962 79.8166 49.9334 79.9697H49.8592ZM49.8963 79.5767C49.6218 79.433 48.9421 78.9938 48.3698 77.9437C47.7592 76.8231 47.2536 74.9748 47.5291 71.9868C48.2783 73.2228 48.9594 74.4969 49.56 75.7865L49.8963 76.5086L50.2326 75.7865C50.8332 74.497 51.5145 73.2227 52.2635 71.9869C52.5391 74.9747 52.0334 76.8229 51.4228 77.9435C50.8506 78.9937 50.1708 79.433 49.8963 79.5767Z" fill="#00FFD3"/>
<path d="M49.8592 79.9697C49.4865 79.8124 46.25 78.2231 47.2839 70.8934C48.2639 72.4185 49.1428 74.0119 49.8963 75.6299C50.6499 74.0119 51.5291 72.4181 52.5087 70.8934C53.5428 78.2226 50.3061 79.8124 49.9334 79.9697C49.9233 79.9697 49.8963 79.9697 49.8963 79.9697H49.8592Z" fill="#00FFD3" fill-opacity="0.6"/>
<path fill-rule="evenodd" clip-rule="evenodd" d="M49.8592 79.9697C49.4965 79.8166 46.421 78.307 47.21 71.4692C47.2316 71.2813 47.2562 71.0894 47.2839 70.8934C47.3883 71.0559 47.4916 71.2192 47.5937 71.3832C48.3639 72.6205 49.0671 73.8988 49.6907 75.1955C49.7602 75.3401 49.8288 75.4849 49.8963 75.6299C49.9638 75.4849 50.0324 75.3401 50.1019 75.1955C50.7256 73.8988 51.429 72.6203 52.1989 71.3833C52.301 71.2192 52.4043 71.0559 52.5087 70.8934C52.5364 71.0894 52.561 71.2813 52.5827 71.4692C53.3717 78.3067 50.2962 79.8166 49.9334 79.9697H49.8592ZM49.8963 79.5767C49.6218 79.433 48.9421 78.9938 48.3698 77.9437C47.7592 76.8231 47.2536 74.9748 47.5291 71.9868C48.2783 73.2228 48.9594 74.4969 49.56 75.7865L49.8963 76.5086L50.2326 75.7865C50.8332 74.497 51.5145 73.2227 52.2635 71.9869C52.5391 74.9747 52.0334 76.8229 51.4228 77.9435C50.8506 78.9937 50.1708 79.433 49.8963 79.5767Z" fill="#00FFD3"/>
<path d="M49.9335 79.9693C50.3115 79.8104 53.5425 78.2202 52.5089 70.8934C51.5587 72.3721 50.6802 73.9477 49.8965 75.6299C49.1127 73.9477 48.2342 72.3721 47.284 70.8934C46.2505 78.2202 49.4814 79.8104 49.8594 79.9693C49.8719 79.9697 49.884 79.9697 49.8965 79.9697C49.8969 79.9697 49.9214 79.9697 49.9335 79.9693Z" fill="#00FFD3"/>
<path fill-rule="evenodd" clip-rule="evenodd" d="M50.1021 75.1955C50.7451 73.8581 51.4481 72.589 52.1991 71.3831C52.3015 71.2187 52.4047 71.0555 52.5089 70.8934C52.5365 71.0894 52.5611 71.2812 52.5828 71.4691C53.3717 78.3043 50.3014 79.8146 49.9335 79.9693C49.9215 79.9697 49.8969 79.9697 49.8965 79.9697C49.884 79.9697 49.8719 79.9697 49.8594 79.9693C49.4915 79.8146 46.4213 78.3043 47.2101 71.4691C47.2318 71.2812 47.2564 71.0894 47.284 70.8934C47.3882 71.0555 47.4915 71.2187 47.5939 71.3831C48.3448 72.589 49.0478 73.8581 49.6909 75.1955C49.7601 75.3395 49.8286 75.4843 49.8965 75.6299C49.9643 75.4843 50.0328 75.3395 50.1021 75.1955ZM47.5293 71.9865C48.2586 73.1892 48.9394 74.4542 49.5602 75.7865L49.8965 76.5083L50.2327 75.7865C50.8535 74.4542 51.5344 73.1892 52.2637 71.9865C52.5393 74.9734 52.0347 76.8214 51.4247 77.9419C50.8521 78.9937 50.1713 79.433 49.8965 79.5764C49.6216 79.433 48.9408 78.9937 48.3682 77.9419C47.7582 76.8214 47.2536 74.9734 47.5293 71.9865Z" fill="#00FFD3"/>
<path d="M55.0874 79.5781C56.8012 78.9261 58.6553 77.8383 60.5984 76.3458C62.9771 74.5193 65.5089 72.0681 68.1242 69.0609C68.4115 68.7309 68.7129 68.369 69.0458 67.9542C69.9847 69.9401 70.2869 71.7082 69.9436 73.21C65.5803 76.5484 60.4432 78.7506 55.0874 79.5781Z" fill="#00FFD3" fill-opacity="0.8"/>
<path fill-rule="evenodd" clip-rule="evenodd" d="M60.8243 76.6401C63.2279 74.7944 65.7776 72.3245 68.4041 69.3044L68.1242 69.0609L68.404 69.3045C68.404 69.3045 68.4041 69.3044 68.4041 69.3044C68.5809 69.1013 68.7627 68.8867 68.9532 68.6558C68.9003 68.5301 68.8445 68.4032 68.7859 68.2751C68.8705 68.1716 68.957 68.0648 69.0458 67.9542C69.1057 68.081 69.1631 68.2069 69.2178 68.3319C70.0207 70.1648 70.265 71.8041 69.9436 73.21C66.0075 76.2215 61.4417 78.3085 56.6537 79.2957C56.1341 79.4029 55.6118 79.4971 55.0874 79.5781C55.5587 79.3988 56.0405 79.1866 56.532 78.942M60.8243 76.6401C59.8199 77.4116 58.8356 78.0787 57.8785 78.6357L60.8243 76.6401ZM57.8785 78.6357C62.0929 77.5803 66.101 75.6593 69.6096 72.998C69.8563 71.7644 69.6501 70.3113 68.9532 68.6558" fill="#00FFD3"/>
<path d="M55.0874 79.5781C56.8012 78.9261 58.6553 77.8383 60.5984 76.3458C62.9767 74.5193 65.5089 72.0685 68.1242 69.0609C68.4111 68.7309 68.7129 68.369 69.0458 67.9542C69.9847 69.9401 70.2869 71.7082 69.9436 73.21C65.5803 76.5484 60.4432 78.7506 55.0874 79.5781Z" fill="#00FFD3" fill-opacity="0.8"/>
<path fill-rule="evenodd" clip-rule="evenodd" d="M68.4041 69.3044L68.4042 69.3043C68.5807 69.1013 68.7625 68.8867 68.9532 68.6557C69.6501 70.3112 69.8563 71.7644 69.6096 72.998C66.101 75.6593 62.0929 77.5803 57.8785 78.6357C58.8357 78.0787 59.8199 77.4116 60.8244 76.64C63.2275 74.7944 65.7776 72.325 68.4041 69.3044ZM56.532 78.942C57.8276 78.2972 59.1896 77.4279 60.5984 76.3458C62.9767 74.5193 65.5089 72.0685 68.1242 69.0609C68.3346 68.8189 68.5531 68.5597 68.7859 68.275C68.8705 68.1716 68.957 68.0648 69.0458 67.9542C69.1057 68.081 69.1631 68.2069 69.2178 68.3319C70.0207 70.1648 70.265 71.8041 69.9436 73.21C66.0075 76.2215 61.4417 78.3085 56.6537 79.2957C56.1341 79.4029 55.6118 79.4971 55.0874 79.5781C55.5587 79.3988 56.0405 79.1866 56.532 78.942Z" fill="#00FFD3"/>
<path fill-rule="evenodd" clip-rule="evenodd" d="M68.4041 69.3044L68.4042 69.3043C68.5807 69.1013 68.7625 68.8867 68.9532 68.6557C69.6501 70.3112 69.8563 71.7644 69.6096 72.998C66.101 75.6593 62.0929 77.5803 57.8785 78.6357C58.8357 78.0787 59.8199 77.4116 60.8244 76.64C63.2275 74.7944 65.7776 72.325 68.4041 69.3044ZM56.532 78.942C57.8276 78.2972 59.1896 77.4279 60.5984 76.3458C62.9767 74.5193 65.5089 72.0685 68.1242 69.0609C68.3346 68.8189 68.5531 68.5597 68.7859 68.275C68.8705 68.1716 68.957 68.0648 69.0458 67.9542C69.1057 68.081 69.1631 68.2069 69.2178 68.3319C70.0207 70.1648 70.265 71.8041 69.9436 73.21C66.0075 76.2215 61.4417 78.3085 56.6537 79.2957C56.1341 79.4029 55.6118 79.4971 55.0874 79.5781C55.5587 79.3988 56.0405 79.1866 56.532 78.942Z" fill="#00FFD3"/>
</svg>
