<svg width="54" height="54" viewBox="0 0 54 54" fill="none" xmlns="http://www.w3.org/2000/svg">
<circle cx="27" cy="27" r="27" fill="#002A3D"/>
<path fill-rule="evenodd" clip-rule="evenodd" d="M41.1076 13.1236L38.7675 17.1768H34.0872L31.7471 13.1236L34.0872 9.07031H38.7675L41.1076 13.1236Z" fill="#06435E"/>
<path fill-rule="evenodd" clip-rule="evenodd" d="M31.7468 41.2017L29.4067 45.2549H24.7264L22.3862 41.2017L24.7264 37.1484H29.4067L31.7468 41.2017Z" fill="#06435E"/>
<path d="M17.7237 27.1223C20.3086 27.1223 22.404 25.0269 22.404 22.442C22.404 19.8572 20.3086 17.7617 17.7237 17.7617C15.1389 17.7617 13.0435 19.8572 13.0435 22.442C13.0435 25.0269 15.1389 27.1223 17.7237 27.1223Z" fill="#06435E"/>
<path d="M36.4449 27.1223C39.0298 27.1223 41.1252 25.0269 41.1252 22.442C41.1252 19.8572 39.0298 17.7617 36.4449 17.7617C33.8601 17.7617 31.7646 19.8572 31.7646 22.442C31.7646 25.0269 33.8601 27.1223 36.4449 27.1223Z" fill="#06435E"/>
<path d="M27.0846 36.4817C29.6694 36.4817 31.7649 34.3862 31.7649 31.8014C31.7649 29.2165 29.6694 27.1211 27.0846 27.1211C24.4997 27.1211 22.4043 29.2165 22.4043 31.8014C22.4043 34.3862 24.4997 36.4817 27.0846 36.4817Z" fill="#06435E"/>
<path d="M36.4449 36.4817C39.0298 36.4817 41.1252 34.3862 41.1252 31.8014C41.1252 29.2165 39.0298 27.1211 36.4449 27.1211C33.8601 27.1211 31.7646 29.2165 31.7646 31.8014C31.7646 34.3862 33.8601 36.4817 36.4449 36.4817Z" fill="#06435E"/>
<path fill-rule="evenodd" clip-rule="evenodd" d="M36.4448 17.7617C35.2035 17.7618 34.0131 18.2549 33.1354 19.1326C32.2577 20.0104 31.7646 21.2008 31.7646 22.4421C31.7647 23.6834 32.2578 24.8738 33.1355 25.7515C34.0132 26.6292 35.2036 27.1223 36.4448 27.1223V17.7617Z" fill="#00A8F3"/>
<path fill-rule="evenodd" clip-rule="evenodd" d="M29.5665 27.8338C28.8224 27.3682 27.9623 27.1212 27.0845 27.1211C24.4996 27.1212 22.4042 29.2167 22.4043 31.8015C22.4044 34.3862 24.4997 36.4816 27.0845 36.4817C27.9626 36.4798 28.8227 36.2326 29.5665 35.7658V27.8338Z" fill="#F39C11"/>
<path fill-rule="evenodd" clip-rule="evenodd" d="M20.1227 18.4744C19.3785 18.0088 18.5184 17.7618 17.6406 17.7617C15.0558 17.7618 12.9604 19.8573 12.9604 22.4421C12.9605 25.0269 15.0559 27.1222 17.6406 27.1223C18.5188 27.1223 19.3789 26.8732 20.1227 26.4064V18.4744Z" fill="#BE0000"/>
<path fill-rule="evenodd" clip-rule="evenodd" d="M50.468 22.4732L48.1279 26.5264H43.4476L41.1074 22.4732L43.4476 18.4199H48.1279L50.468 22.4732Z" fill="#06435E"/>
<path fill-rule="evenodd" clip-rule="evenodd" d="M50.468 31.8345L48.1279 35.8877H43.4476L41.1074 31.8345L43.4476 27.7812H48.1279L50.468 31.8345Z" fill="#06435E"/>
<path fill-rule="evenodd" clip-rule="evenodd" d="M12.9602 22.4732L10.62 26.5264H5.93975L3.59961 22.4732L5.93975 18.4199H10.62L12.9602 22.4732Z" fill="#06435E"/>
<path fill-rule="evenodd" clip-rule="evenodd" d="M12.9602 31.8345L10.62 35.8877H5.93975L3.59961 31.8345L5.93975 27.7812H10.62L12.9602 31.8345Z" fill="#06435E"/>
<path d="M27.0909 17.761C29.6758 17.761 31.7712 15.6655 31.7712 13.0807C31.7712 10.4958 29.6758 8.40039 27.0909 8.40039C24.5061 8.40039 22.4106 10.4958 22.4106 13.0807C22.4106 15.6655 24.5061 17.761 27.0909 17.761Z" fill="#06435E"/>
<path d="M17.7237 45.8411C20.3086 45.8411 22.404 43.7456 22.404 41.1608C22.404 38.5759 20.3086 36.4805 17.7237 36.4805C15.1389 36.4805 13.0435 38.5759 13.0435 41.1608C13.0435 43.7456 15.1389 45.8411 17.7237 45.8411Z" fill="#06435E"/>
<path d="M36.4449 45.8411C39.0298 45.8411 41.1252 43.7456 41.1252 41.1608C41.1252 38.5759 39.0298 36.4805 36.4449 36.4805C33.8601 36.4805 31.7646 38.5759 31.7646 41.1608C31.7646 43.7456 33.8601 45.8411 36.4449 45.8411Z" fill="#06435E"/>
<path d="M17.7233 36.4817C20.3081 36.4817 22.4036 34.3862 22.4036 31.8014C22.4036 29.2165 20.3081 27.1211 17.7233 27.1211C15.1384 27.1211 13.043 29.2165 13.043 31.8014C13.043 34.3862 15.1384 36.4817 17.7233 36.4817Z" fill="#F39C11"/>
<path d="M16.6497 34.3828H14.3096V39.6481H16.6497V34.3828Z" fill="#F39C11"/>
<path d="M37.6135 34.3848H35.2759V39.6444H37.6135V34.3848Z" fill="#F39C11"/>
<path fill-rule="evenodd" clip-rule="evenodd" d="M32.4814 29.3281C32.0163 30.0715 31.7696 30.9306 31.7695 31.8075C31.7696 33.0475 32.2622 34.2366 33.139 35.1134C34.0158 35.9901 35.2049 36.4827 36.4449 36.4826C37.6848 36.4826 38.8739 35.99 39.7507 35.1133C40.6274 34.2365 41.12 33.0474 41.12 31.8075C41.119 30.9303 40.8711 30.0711 40.4049 29.3281H32.4814Z" fill="#F39C11"/>
<path fill-rule="evenodd" clip-rule="evenodd" d="M22.386 13.1236L20.0458 17.1768H15.3655L13.0254 13.1236L15.3655 9.07031H20.0458L22.386 13.1236Z" fill="#06435E"/>
<path d="M27.0851 27.1223C29.6699 27.1223 31.7654 25.0269 31.7654 22.442C31.7654 19.8572 29.6699 17.7617 27.0851 17.7617C24.5002 17.7617 22.4048 19.8572 22.4048 22.442C22.4048 25.0269 24.5002 27.1223 27.0851 27.1223Z" fill="#54BC89"/>
<path d="M26.012 14.543H23.6719V19.8083H26.012V14.543Z" fill="#54BC89"/>
</svg>
