<svg width="100" height="100" viewBox="0 0 100 100" fill="none" xmlns="http://www.w3.org/2000/svg">
<path d="M100 50C100 77.6142 77.6142 100 50 100C22.3858 100 0 77.6142 0 50C0 22.3858 22.3858 0 50 0C77.6142 0 100 22.3858 100 50Z" fill="#001E2E" fill-opacity="0.8"/>
<path fill-rule="evenodd" clip-rule="evenodd" d="M50 98.1359C76.5847 98.1359 98.1359 76.5847 98.1359 50C98.1359 23.4153 76.5847 1.86414 50 1.86414C23.4153 1.86414 1.86414 23.4153 1.86414 50C1.86414 76.5847 23.4153 98.1359 50 98.1359ZM50 100C77.6142 100 100 77.6142 100 50C100 22.3858 77.6142 0 50 0C22.3858 0 0 22.3858 0 50C0 77.6142 22.3858 100 50 100Z" fill="#00FBC6"/>
<path d="M29.8467 73.208C28.0806 71.8576 26.4437 70.3227 24.9815 68.6454C23.514 66.9625 22.2133 65.1258 21.1155 63.1871C18.8411 59.17 17.4565 54.8011 17 50.2018C17.0233 50.2067 19.3674 50.7114 22.8296 52.0244C24.5501 58.1976 27.2131 63.5567 30.7443 67.9526C29.8054 69.9382 29.5035 71.7062 29.8467 73.208Z" fill="#01F2FF" fill-opacity="0.4"/>
<path fill-rule="evenodd" clip-rule="evenodd" d="M25.2612 68.4016L25.2611 68.4016C23.81 66.7375 22.5238 64.9213 21.4384 63.0043C19.2751 59.1836 17.9261 55.0418 17.4248 50.684C17.6936 50.7514 18.0646 50.8486 18.5236 50.9794C19.502 51.2579 20.8802 51.6884 22.5231 52.3052C24.2332 58.3606 26.8506 63.6424 30.3112 68.0048C29.6012 69.5685 29.2696 71.0264 29.3505 72.3453C27.8785 71.1528 26.5058 69.8294 25.2612 68.4016ZM29.4047 72.8641C27.807 71.5989 26.321 70.1819 24.9815 68.6454C23.514 66.9625 22.2133 65.1258 21.1155 63.1871C18.9054 59.2836 17.5355 55.0478 17.0409 50.5913C17.0265 50.4616 17.0129 50.3318 17 50.2018C17.0054 50.203 17.1379 50.2314 17.3819 50.2912C18.1811 50.487 20.1773 51.0185 22.8296 52.0244C24.5501 58.1976 27.2131 63.5567 30.7443 67.9526C29.9162 69.704 29.5836 71.2861 29.7521 72.6656C29.7747 72.85 29.8062 73.0309 29.8467 73.208C29.6984 73.0946 29.5511 72.98 29.4047 72.8641Z" fill="#01F2FF"/>
<path d="M29.8467 73.208C28.0806 71.8576 26.4437 70.3227 24.9815 68.6454C23.514 66.9625 22.2133 65.1258 21.1155 63.1871C18.8412 59.17 17.4565 54.8011 17 50.2018C17.0234 50.2067 19.3757 50.7146 22.8296 52.0244C24.5501 58.1976 27.213 63.5567 30.7443 67.9526C29.8054 69.9382 29.5035 71.7066 29.8467 73.208Z" fill="#01F2FF" fill-opacity="0.4"/>
<path fill-rule="evenodd" clip-rule="evenodd" d="M25.2612 68.4016L25.2611 68.4016C23.81 66.7375 22.5238 64.9213 21.4384 63.0043C19.2752 59.1837 17.9262 55.0419 17.4248 50.6842C17.6944 50.7518 18.0665 50.8495 18.5267 50.9806C19.5061 51.2595 20.8842 51.6899 22.5231 52.3052C24.2332 58.3606 26.8506 63.6424 30.3112 68.0048C29.6013 69.5684 29.2696 71.0265 29.3504 72.3453C27.8785 71.1528 26.5058 69.8293 25.2612 68.4016ZM29.4047 72.864C27.807 71.5989 26.321 70.1819 24.9815 68.6454C23.514 66.9625 22.2133 65.1258 21.1155 63.1871C18.9055 59.2836 17.5355 55.0479 17.0409 50.5913C17.0266 50.4617 17.0129 50.3318 17 50.2018C17.0055 50.2029 17.138 50.2315 17.3819 50.2914C18.1824 50.4877 20.1824 51.0206 22.8296 52.0244C24.5501 58.1976 27.213 63.5567 30.7443 67.9526C29.9162 69.7039 29.5836 71.2863 29.7521 72.6655C29.7747 72.85 29.8062 73.0309 29.8467 73.208C29.6984 73.0946 29.5511 72.98 29.4047 72.864Z" fill="#01F2FF"/>
<path d="M29.8467 73.208C28.0806 71.8576 26.4437 70.3227 24.9815 68.6454C23.514 66.9625 22.2133 65.1258 21.1155 63.1871C18.8412 59.17 17.4565 54.8011 17 50.2018C17.0234 50.2067 19.3757 50.7146 22.8296 52.0244C24.5501 58.1976 27.213 63.5567 30.7443 67.9526C29.8054 69.9382 29.5035 71.7066 29.8467 73.208Z" fill="#01F2FF" fill-opacity="0.4"/>
<path fill-rule="evenodd" clip-rule="evenodd" d="M25.2612 68.4016L25.2611 68.4016C23.81 66.7375 22.5238 64.9213 21.4384 63.0043C19.2752 59.1837 17.9262 55.0419 17.4248 50.6842C17.6944 50.7518 18.0665 50.8495 18.5267 50.9806C19.5061 51.2595 20.8842 51.6899 22.5231 52.3052C24.2332 58.3606 26.8506 63.6424 30.3112 68.0048C29.6013 69.5684 29.2696 71.0265 29.3504 72.3453C27.8785 71.1528 26.5058 69.8293 25.2612 68.4016ZM29.4047 72.864C27.807 71.5989 26.321 70.1819 24.9815 68.6454C23.514 66.9625 22.2133 65.1258 21.1155 63.1871C18.9055 59.2836 17.5355 55.0479 17.0409 50.5913C17.0266 50.4617 17.0129 50.3318 17 50.2018C17.0055 50.2029 17.138 50.2315 17.3819 50.2914C18.1824 50.4877 20.1824 51.0206 22.8296 52.0244C24.5501 58.1976 27.213 63.5567 30.7443 67.9526C29.9162 69.7039 29.5836 71.2863 29.7521 72.6655C29.7747 72.85 29.8062 73.0309 29.8467 73.208C29.6984 73.0946 29.5511 72.98 29.4047 72.864Z" fill="#01F2FF"/>
<path fill-rule="evenodd" clip-rule="evenodd" d="M17.3819 50.291C17.1326 50.2301 17 50.2018 17 50.2018C17.0129 50.3318 17.0266 50.4616 17.041 50.5912C18.0427 59.6035 22.6588 67.5228 29.4044 72.8639C29.5508 72.9798 29.6983 73.0945 29.8467 73.208C29.8058 73.0293 29.7743 72.8484 29.7517 72.6652C29.5717 71.2038 29.9626 69.6059 30.7443 67.9526C26.7434 62.9721 24.3043 57.316 22.8296 52.0244C20.1682 51.015 18.1789 50.4859 17.3819 50.291ZM17.4248 50.6838C18.4312 59.4116 22.8672 67.0937 29.3497 72.3447C29.2633 70.9583 29.6371 69.4888 30.3112 68.0048C26.4016 63.0765 23.9945 57.5157 22.523 52.3052C20.8649 51.6825 19.4808 51.2508 18.5032 50.9731C18.0532 50.8452 17.6894 50.75 17.4248 50.6838Z" fill="#01F2FF"/>
<path d="M82.7903 50.2024C82.7903 50.2024 80.4547 50.6999 76.961 52.0249C75.4861 57.3166 73.047 62.973 69.0459 67.9532C69.9256 69.8137 70.3104 71.6043 69.9433 73.209C77.0279 67.7914 81.8606 59.5725 82.7903 50.2024Z" fill="#01F2FF" fill-opacity="0.3"/>
<path d="M82.7903 50.2024C82.7903 50.2024 80.4547 50.6999 76.961 52.0249C75.4861 57.3166 73.047 62.973 69.0459 67.9532C69.9256 69.8137 70.3104 71.6043 69.9433 73.209C77.0279 67.7914 81.8606 59.5725 82.7903 50.2024Z" fill="#01F2FF" fill-opacity="0.3"/>
<path d="M82.7903 50.2024C82.7903 50.2024 80.4547 50.6999 76.961 52.0249C75.4861 57.3166 73.047 62.973 69.0459 67.9532C69.9256 69.8137 70.3104 71.6043 69.9433 73.209C77.0279 67.7914 81.8606 59.5725 82.7903 50.2024Z" fill="#01F2FF" fill-opacity="0.3"/>
<path d="M82.7903 50.2024C82.7903 50.2024 80.4547 50.6999 76.961 52.0249C75.4861 57.3166 73.047 62.973 69.0459 67.9532C69.9256 69.8137 70.3104 71.6043 69.9433 73.209C77.0279 67.7914 81.8606 59.5725 82.7903 50.2024Z" fill="#01F2FF" fill-opacity="0.3"/>
<path d="M82.7903 50.2024C82.7903 50.2024 80.4547 50.6999 76.961 52.0249C75.4861 57.3166 73.047 62.973 69.0459 67.9532C69.9256 69.8137 70.3104 71.6043 69.9433 73.209C77.0279 67.7914 81.8606 59.5725 82.7903 50.2024Z" fill="#01F2FF" fill-opacity="0.3"/>
<path d="M82.7903 50.2024C82.7903 50.2024 80.4547 50.6999 76.961 52.0249C75.4861 57.3166 73.047 62.973 69.0459 67.9532C69.9256 69.8137 70.3104 71.6043 69.9433 73.209C77.0279 67.7914 81.8606 59.5725 82.7903 50.2024Z" fill="#01F2FF" fill-opacity="0.3"/>
<path fill-rule="evenodd" clip-rule="evenodd" d="M69.6475 73.6689L70.0555 73.3569C77.1794 67.9093 82.0395 59.6443 82.9744 50.2213L82.9995 49.9687L82.7512 50.0215L82.7898 50.203C82.7512 50.0215 82.7512 50.0215 82.7512 50.0215L82.751 50.0216L82.7491 50.022L82.7437 50.0232L82.7227 50.0277C82.7043 50.0318 82.677 50.0379 82.6412 50.0461C82.5696 50.0625 82.4637 50.0874 82.326 50.1213C82.0504 50.1891 81.6472 50.2933 81.1346 50.4389C80.1096 50.7302 78.6472 51.1874 76.8947 51.8521L76.807 51.8853L76.7818 51.9757C75.3118 57.2502 72.8822 62.882 68.9008 67.8376L68.8281 67.9281L68.8778 68.0331C69.7485 69.8746 70.1161 71.6205 69.762 73.1682L69.6475 73.6689ZM82.5787 50.4417C81.6103 59.4832 76.9846 67.4278 70.212 72.7657C70.4174 71.2667 70.0326 69.6413 69.2624 67.9797C73.2175 63.0254 75.6406 57.4168 77.1139 52.1658C78.8163 51.5233 80.2369 51.0797 81.236 50.7958C81.7441 50.6514 82.1431 50.5484 82.4146 50.4815C82.4759 50.4664 82.5307 50.4532 82.5787 50.4417Z" fill="#01F2FF"/>
<path d="M44.7031 79.5781C39.3477 78.7502 34.2106 76.548 29.847 73.2091C29.5038 71.7074 29.8058 69.9393 30.7447 67.9538C31.0774 68.3678 31.379 68.7301 31.6666 69.0609C34.2819 72.0681 36.8138 74.5189 39.1921 76.3454C41.1352 77.8379 42.9894 78.9257 44.7031 79.5781Z" fill="#01F2FF" fill-opacity="0.8"/>
<path fill-rule="evenodd" clip-rule="evenodd" d="M31.3867 69.3044L31.3867 69.3044C34.0132 72.3245 36.563 74.794 38.9662 76.6396L39.1917 76.346L38.9662 76.6396C39.9707 77.4113 40.9551 78.0784 41.9124 78.6356C37.6981 77.5799 33.6898 75.6588 30.181 72.9972C29.9344 71.7636 30.1405 70.3103 30.8373 68.6551C31.0279 68.8859 31.2097 69.1008 31.3867 69.3044ZM31.0046 68.2744C30.92 68.171 30.8334 68.0642 30.7447 67.9538C30.6847 68.0805 30.6274 68.2064 30.5726 68.3314C29.7699 70.164 29.5257 71.8033 29.847 73.2091C33.7834 76.2211 38.3494 78.3082 43.1372 79.2957C43.6568 79.4029 44.1789 79.4971 44.7031 79.5781C44.232 79.3988 43.7503 79.1865 43.259 78.942C41.9632 78.297 40.601 77.4276 39.1921 76.3454C36.8138 74.5189 34.2819 72.0681 31.6666 69.0609C31.4557 68.8183 31.2373 68.5588 31.0046 68.2744Z" fill="#01F2FF"/>
<path d="M44.7031 79.5781C39.3478 78.7502 34.2106 76.548 29.847 73.2091C29.5038 71.7078 29.8058 69.9393 30.7447 67.9538C31.0777 68.3682 31.3792 68.7305 31.6666 69.0609C34.2819 72.0681 36.8139 74.5189 39.1921 76.3454C41.1353 77.8383 42.9894 78.9257 44.7031 79.5781Z" fill="#01F2FF" fill-opacity="0.8"/>
<path fill-rule="evenodd" clip-rule="evenodd" d="M30.181 72.9972C29.9344 71.7639 30.1405 70.3104 30.8373 68.6552C31.028 68.8861 31.2098 69.101 31.3867 69.3044C34.0133 72.3245 36.5631 74.794 38.9662 76.6396L39.1921 76.3454L38.9662 76.6396C39.9707 77.4114 40.9549 78.0784 41.912 78.6355C37.6979 77.5798 33.6897 75.6587 30.181 72.9972ZM43.1371 79.2957C38.3493 78.3081 33.7834 76.2211 29.847 73.2091C29.5257 71.8036 29.7699 70.164 30.5726 68.3314C30.6274 68.2064 30.6847 68.0805 30.7447 67.9538C30.8334 68.0643 30.92 68.171 31.0046 68.2745C31.2375 68.5591 31.4559 68.8186 31.6666 69.0609M44.7031 79.5781C44.1788 79.4971 43.6567 79.4028 43.1371 79.2957L44.7031 79.5781ZM43.2589 78.942C43.7502 79.1865 44.232 79.3987 44.7031 79.5781L43.2589 78.942Z" fill="#01F2FF"/>
<path fill-rule="evenodd" clip-rule="evenodd" d="M30.181 72.9972C29.9344 71.7639 30.1405 70.3104 30.8373 68.6552C31.028 68.8861 31.2098 69.101 31.3867 69.3044C34.0133 72.3245 36.5631 74.794 38.9662 76.6396L39.1921 76.3454L38.9662 76.6396C39.9707 77.4114 40.9549 78.0784 41.912 78.6355C37.6979 77.5798 33.6897 75.6587 30.181 72.9972ZM43.1371 79.2957C38.3493 78.3081 33.7834 76.2211 29.847 73.2091C29.5257 71.8036 29.7699 70.164 30.5726 68.3314C30.6274 68.2064 30.6847 68.0805 30.7447 67.9538C30.8334 68.0643 30.92 68.171 31.0046 68.2745C31.2375 68.5591 31.4559 68.8186 31.6666 69.0609M44.7031 79.5781C44.1788 79.4971 43.6567 79.4028 43.1371 79.2957L44.7031 79.5781ZM43.2589 78.942C43.7502 79.1865 44.232 79.3987 44.7031 79.5781L43.2589 78.942Z" fill="#01F2FF"/>
<path fill-rule="evenodd" clip-rule="evenodd" d="M31.3858 69.3043L31.3859 69.3044C35.6221 74.1754 39.1233 77.0127 41.9083 78.6341C37.6747 77.5714 33.6604 75.6368 30.1802 72.9972C29.9178 71.6878 30.1762 70.221 30.8364 68.655C31.016 68.8725 31.1988 69.0892 31.3858 69.3043ZM31.0038 68.2745C30.9166 68.1678 30.83 68.0609 30.7439 67.9538C30.6842 68.08 30.6268 68.2058 30.5718 68.3313C29.8155 70.0562 29.5043 71.7133 29.8463 73.2091C33.7487 76.1951 38.3239 78.3013 43.135 79.2952C43.6549 79.4026 44.1775 79.497 44.7023 79.5781C44.2503 79.406 43.7686 79.1962 43.2569 78.9415C40.3611 77.5005 36.506 74.6264 31.6658 69.0609C31.44 68.8011 31.2199 68.5386 31.0038 68.2745Z" fill="#01F2FF"/>
<path d="M36.9182 59.7832C31.7345 55.821 26.3951 53.3771 22.8286 52.0242C21.3593 46.7523 20.7119 41.6874 20.4277 38.3667C20.1202 34.7753 20.1596 32.3875 20.1601 32.3637C20.1836 32.3762 22.5463 33.6492 25.8736 35.8276C28.9497 37.8418 33.5092 41.0677 37.7624 44.9976C36.4974 50.2126 36.2155 55.1851 36.9245 59.7767L36.9182 59.7832Z" fill="#01F2FF" fill-opacity="0.2"/>
<path fill-rule="evenodd" clip-rule="evenodd" d="M23.1361 51.7444C21.7102 46.5671 21.0771 41.6042 20.7973 38.3351L20.4277 38.3667L20.7973 38.3351C20.6443 36.5476 20.5776 35.06 20.5493 34.0173C20.538 33.6025 20.5328 33.2581 20.5306 32.9934C20.7972 33.1436 21.155 33.3482 21.5902 33.6035C22.5953 34.193 24.0126 35.0526 25.6704 36.138C28.6985 38.1208 33.1641 41.2786 37.3508 45.1228C36.1977 49.9722 35.8881 54.621 36.435 58.9569C31.5253 55.3402 26.5576 53.0554 23.1361 51.7444ZM36.5039 59.47C31.4515 55.6917 26.3002 53.3411 22.8286 52.0242C21.3593 46.7523 20.7119 41.6874 20.4277 38.3667C20.1951 35.6507 20.161 33.623 20.1584 32.7856C20.1575 32.5158 20.16 32.3695 20.1601 32.3637C20.1655 32.3666 20.2941 32.4359 20.5294 32.5673C21.3191 33.0083 23.31 34.1492 25.8736 35.8276C28.9497 37.8418 33.5092 41.0677 37.7624 44.9976C36.5442 50.0198 36.2377 54.817 36.8499 59.2658C36.8734 59.4361 36.8982 59.6059 36.9243 59.7752C36.9244 59.7757 36.9245 59.7762 36.9245 59.7767L36.9182 59.7832C36.9162 59.7817 36.9142 59.7802 36.9122 59.7787C36.7762 59.6747 36.6401 59.5719 36.5039 59.47Z" fill="#01F2FF"/>
<path d="M36.9182 59.7832C31.7346 55.821 26.3951 53.3771 22.8287 52.0242C21.3593 46.7523 20.712 41.6874 20.4277 38.3667C20.1197 34.7689 20.1597 32.3875 20.1601 32.3637C20.1835 32.3762 22.5409 33.6456 25.8737 35.8276C28.9497 37.8418 33.5092 41.0677 37.7625 44.9976C36.4974 50.213 36.2155 55.1855 36.9246 59.7767L36.9182 59.7832Z" fill="#01F2FF" fill-opacity="0.2"/>
<path fill-rule="evenodd" clip-rule="evenodd" d="M23.1361 51.7444C21.7102 46.5671 21.0772 41.6042 20.7974 38.3351L20.48 38.3623L20.7974 38.3351C20.6441 36.5443 20.5774 35.0568 20.5491 34.0149C20.5379 33.6009 20.5327 33.2574 20.5305 32.9932C20.7966 33.1432 21.1538 33.3473 21.5882 33.6021C22.5926 34.1912 24.0099 35.0508 25.6704 36.138C28.6985 38.1208 33.1642 41.2786 37.3509 45.1228C36.1977 49.9725 35.8882 54.6213 36.4351 58.9569C31.5253 55.3402 26.5576 53.0554 23.1361 51.7444ZM36.504 59.47C31.4516 55.6917 26.3002 53.3411 22.8287 52.0242C21.3593 46.7523 20.712 41.6874 20.4277 38.3667C20.1949 35.6467 20.1609 33.6219 20.1584 32.7855C20.1576 32.5157 20.16 32.3695 20.1601 32.3637C20.1655 32.3666 20.2941 32.4358 20.5294 32.5672C21.3182 33.0077 23.3066 34.1469 25.8737 35.8276C28.9497 37.8418 33.5092 41.0677 37.7625 44.9976C36.5442 50.0201 36.2377 54.8174 36.85 59.2658C36.8734 59.4361 36.8982 59.6059 36.9244 59.7752C36.9244 59.7757 36.9245 59.7762 36.9246 59.7767L36.9182 59.7832C36.9162 59.7817 36.9143 59.7802 36.9123 59.7787C36.7763 59.6747 36.6402 59.5719 36.504 59.47Z" fill="#01F2FF"/>
<path d="M36.9182 59.7832C31.7346 55.821 26.3951 53.3771 22.8287 52.0242C21.3593 46.7523 20.712 41.6874 20.4277 38.3667C20.1197 34.7689 20.1597 32.3875 20.1601 32.3637C20.1835 32.3762 22.5409 33.6456 25.8737 35.8276C28.9497 37.8418 33.5092 41.0677 37.7625 44.9976C36.4974 50.213 36.2155 55.1855 36.9246 59.7767L36.9182 59.7832Z" fill="#01F2FF" fill-opacity="0.2"/>
<path fill-rule="evenodd" clip-rule="evenodd" d="M23.1361 51.7444C21.7102 46.5671 21.0772 41.6042 20.7974 38.3351L20.48 38.3623L20.7974 38.3351C20.6441 36.5443 20.5774 35.0568 20.5491 34.0149C20.5379 33.6009 20.5327 33.2574 20.5305 32.9932C20.7966 33.1432 21.1538 33.3473 21.5882 33.6021C22.5926 34.1912 24.0099 35.0508 25.6704 36.138C28.6985 38.1208 33.1642 41.2786 37.3509 45.1228C36.1977 49.9725 35.8882 54.6213 36.4351 58.9569C31.5253 55.3402 26.5576 53.0554 23.1361 51.7444ZM36.504 59.47C31.4516 55.6917 26.3002 53.3411 22.8287 52.0242C21.3593 46.7523 20.712 41.6874 20.4277 38.3667C20.1949 35.6467 20.1609 33.6219 20.1584 32.7855C20.1576 32.5157 20.16 32.3695 20.1601 32.3637C20.1655 32.3666 20.2941 32.4358 20.5294 32.5672C21.3182 33.0077 23.3066 34.1469 25.8737 35.8276C28.9497 37.8418 33.5092 41.0677 37.7625 44.9976C36.5442 50.0201 36.2377 54.8174 36.85 59.2658C36.8734 59.4361 36.8982 59.6059 36.9244 59.7752C36.9244 59.7757 36.9245 59.7762 36.9246 59.7767L36.9182 59.7832C36.9162 59.7817 36.9143 59.7802 36.9123 59.7787C36.7763 59.6747 36.6402 59.5719 36.504 59.47Z" fill="#01F2FF"/>
<path d="M36.9248 59.7767C36.1461 54.7344 36.6224 49.6986 37.7627 44.9976C29.529 37.3899 20.1603 32.3637 20.1603 32.3637C20.1603 32.3637 19.9844 41.8181 22.8289 52.0242C26.6509 53.4739 31.8589 55.9162 36.9184 59.7832C36.9205 59.7812 36.9227 59.7792 36.9248 59.7767Z" fill="#01F2FF" fill-opacity="0.2"/>
<path fill-rule="evenodd" clip-rule="evenodd" d="M20.1583 32.7853C20.1576 32.5098 20.1603 32.3637 20.1603 32.3637C20.1603 32.3637 20.289 32.4328 20.5295 32.5669C22.3407 33.5773 30.494 38.2815 37.7627 44.9976C36.6609 49.5398 36.179 54.3946 36.8501 59.2658C36.8735 59.4356 36.8983 59.6054 36.9245 59.7752C36.9246 59.7757 36.9247 59.7762 36.9248 59.7767C36.9227 59.7792 36.9205 59.7812 36.9184 59.7832L36.9184 59.7832C36.9164 59.7817 36.9144 59.7802 36.9124 59.7787C36.7764 59.6747 36.6403 59.5719 36.5041 59.47C31.5759 55.7837 26.5467 53.4344 22.8289 52.0242C20.338 43.0868 20.1633 34.7258 20.1583 32.7853ZM20.5304 32.9927C20.7915 33.1398 21.1406 33.3392 21.5653 33.588C22.5678 34.1755 23.9908 35.0382 25.6707 36.1381C28.9879 38.3102 33.3004 41.4032 37.351 45.1228C36.3039 49.526 35.8375 54.2265 36.4351 58.9567C31.6428 55.4253 26.7844 53.1417 23.1363 51.7444C21.7564 46.7347 21.1042 41.9165 20.7976 38.335C20.6425 36.5235 20.5759 35.0301 20.5481 33.9905C20.5373 33.5867 20.5324 33.2515 20.5304 32.9927Z" fill="#01F2FF"/>
<path d="M36.9189 59.784L36.9226 59.7806L36.9267 59.79L36.9189 59.784Z" fill="#01F2FF" fill-opacity="0.2"/>
<path fill-rule="evenodd" clip-rule="evenodd" d="M36.9267 59.79L36.9226 59.7806L36.9189 59.784L36.9267 59.79Z" fill="#01F2FF"/>
<path d="M36.9189 59.784L36.9226 59.7806L36.9267 59.79L36.9189 59.784Z" fill="#01F2FF" fill-opacity="0.2"/>
<path fill-rule="evenodd" clip-rule="evenodd" d="M36.9267 59.79L36.9226 59.7806L36.9189 59.784L36.9267 59.79Z" fill="#01F2FF"/>
<path d="M36.9189 59.784L36.9226 59.7806L36.9267 59.79L36.9189 59.784Z" fill="#01F2FF" fill-opacity="0.2"/>
<path fill-rule="evenodd" clip-rule="evenodd" d="M36.9267 59.79L36.9226 59.7806L36.9189 59.784L36.9267 59.79Z" fill="#01F2FF"/>
<path d="M36.9189 59.7838C36.9217 59.7861 36.9243 59.7881 36.927 59.79C36.9264 59.7861 36.9257 59.7818 36.9251 59.7775C36.9231 59.7799 36.921 59.7818 36.9189 59.7838Z" fill="#01F2FF" fill-opacity="0.2"/>
<path fill-rule="evenodd" clip-rule="evenodd" d="M36.9189 59.7838C36.9217 59.7861 36.9243 59.7881 36.927 59.79C36.9264 59.7861 36.9257 59.7818 36.9251 59.7775C36.9231 59.7799 36.921 59.7818 36.919 59.7838L36.9189 59.7838Z" fill="#01F2FF"/>
<path d="M62.8655 59.7777C63.5743 55.1861 63.2927 50.2136 62.0273 44.9982C66.2807 41.0682 70.8402 37.8424 73.9161 35.8282C77.2438 33.6498 79.6064 32.3768 79.6297 32.3643C79.6302 32.3881 79.6696 34.7763 79.3622 38.3673C79.0781 41.688 78.4305 46.7529 76.9613 52.0248C73.3946 53.3777 68.0553 55.822 62.8716 59.7842L62.8655 59.7777Z" fill="#01F2FF" fill-opacity="0.2"/>
<path fill-rule="evenodd" clip-rule="evenodd" d="M62.8655 59.7777C62.8656 59.7773 62.8656 59.7769 62.8657 59.7765C62.8919 59.607 62.9167 59.4371 62.9401 59.2666C63.5521 54.8178 63.2458 50.0206 62.0273 44.9982C66.2807 41.0682 70.8402 37.8424 73.9161 35.8282C76.4798 34.1499 78.4708 33.009 79.2604 32.5679C79.4957 32.4365 79.6244 32.3672 79.6297 32.3643C79.6298 32.3701 79.6323 32.5163 79.6314 32.7862C79.6288 33.6237 79.5947 35.6515 79.3622 38.3673C79.0781 41.688 78.4305 46.7529 76.9613 52.0248C73.4896 53.3416 68.3385 55.6925 63.2861 59.4708C63.1499 59.5727 63.0137 59.6756 62.8776 59.7796C62.8756 59.7811 62.8736 59.7826 62.8716 59.7842L62.8655 59.7777ZM63.355 58.9576C63.9017 54.6218 63.5923 49.9731 62.439 45.1234C66.6258 41.2792 71.0914 38.1213 74.1193 36.1386C75.7773 35.0532 77.1946 34.1936 78.1997 33.604C78.6349 33.3488 78.9927 33.1443 79.2592 32.994C79.2516 33.9241 79.2065 35.8367 78.9925 38.3357L78.9925 38.3357C78.7129 41.6047 78.0796 46.5676 76.6539 51.745C73.2322 53.056 68.2648 55.3411 63.355 58.9576Z" fill="#01F2FF"/>
<path d="M62.8655 59.7777C63.5743 55.1861 63.2927 50.2136 62.0273 44.9982C66.2807 41.0682 70.8402 37.8424 73.9161 35.8282C77.249 33.6462 79.6064 32.3768 79.6297 32.3643C79.6301 32.3881 79.67 34.7695 79.3622 38.3673C79.0781 41.688 78.4305 46.7529 76.9613 52.0248C73.3946 53.3777 68.0553 55.822 62.8716 59.7842L62.8655 59.7777Z" fill="#01F2FF" fill-opacity="0.2"/>
<path fill-rule="evenodd" clip-rule="evenodd" d="M62.8655 59.7777C62.8656 59.7773 62.8656 59.7769 62.8657 59.7765C62.8919 59.607 62.9167 59.4371 62.9401 59.2666C63.5521 54.8178 63.2458 50.0206 62.0273 44.9982C66.2807 41.0682 70.8402 37.8424 73.9161 35.8282C76.4832 34.1475 78.4716 33.0083 79.2605 32.5678C79.4958 32.4364 79.6244 32.3672 79.6297 32.3643C79.6298 32.3701 79.6323 32.5162 79.6315 32.7862C79.6289 33.6225 79.5949 35.6473 79.3622 38.3673C79.0781 41.688 78.4305 46.7529 76.9613 52.0248C73.4896 53.3416 68.3385 55.6925 63.2861 59.4708C63.1499 59.5727 63.0137 59.6756 62.8776 59.7796C62.8756 59.7811 62.8736 59.7826 62.8716 59.7842L62.8655 59.7777ZM63.355 58.9576C63.9017 54.6218 63.5923 49.9731 62.439 45.1234C66.6258 41.2792 71.0914 38.1213 74.1193 36.1386C75.7799 35.0514 77.1972 34.1918 78.2017 33.6027C78.6361 33.3479 78.9932 33.1438 79.2593 32.9938C79.2517 33.9228 79.2067 35.833 78.9925 38.3357L79.325 38.3641L78.9925 38.3357C78.7129 41.6047 78.0796 46.5676 76.6539 51.745C73.2322 53.056 68.2647 55.3411 63.355 58.9576Z" fill="#01F2FF"/>
<path d="M62.8655 59.7777C63.5743 55.1861 63.2927 50.2136 62.0273 44.9982C66.2807 41.0682 70.8402 37.8424 73.9161 35.8282C77.249 33.6462 79.6064 32.3768 79.6297 32.3643C79.6301 32.3881 79.67 34.7695 79.3622 38.3673C79.0781 41.688 78.4305 46.7529 76.9613 52.0248C73.3946 53.3777 68.0553 55.822 62.8716 59.7842L62.8655 59.7777Z" fill="#01F2FF" fill-opacity="0.2"/>
<path fill-rule="evenodd" clip-rule="evenodd" d="M62.8655 59.7777C62.8656 59.7773 62.8656 59.7769 62.8657 59.7765C62.8919 59.607 62.9167 59.4371 62.9401 59.2666C63.5521 54.8178 63.2458 50.0206 62.0273 44.9982C66.2807 41.0682 70.8402 37.8424 73.9161 35.8282C76.4832 34.1475 78.4716 33.0083 79.2605 32.5678C79.4958 32.4364 79.6244 32.3672 79.6297 32.3643C79.6298 32.3701 79.6323 32.5162 79.6315 32.7862C79.6289 33.6225 79.5949 35.6473 79.3622 38.3673C79.0781 41.688 78.4305 46.7529 76.9613 52.0248C73.4896 53.3416 68.3385 55.6925 63.2861 59.4708C63.1499 59.5727 63.0137 59.6756 62.8776 59.7796C62.8756 59.7811 62.8736 59.7826 62.8716 59.7842L62.8655 59.7777ZM63.355 58.9576C63.9017 54.6218 63.5923 49.9731 62.439 45.1234C66.6258 41.2792 71.0914 38.1213 74.1193 36.1386C75.7799 35.0514 77.1972 34.1918 78.2017 33.6027C78.6361 33.3479 78.9932 33.1438 79.2593 32.9938C79.2517 33.9228 79.2067 35.833 78.9925 38.3357L79.325 38.3641L78.9925 38.3357C78.7129 41.6047 78.0796 46.5676 76.6539 51.745C73.2322 53.056 68.2647 55.3411 63.355 58.9576Z" fill="#01F2FF"/>
<path d="M62.8655 59.7777C62.8675 59.7797 62.8695 59.7818 62.8716 59.7842C67.9312 55.9168 73.1392 53.4745 76.9613 52.0248C79.8058 41.8187 79.6297 32.3643 79.6297 32.3643C79.6297 32.3643 70.2612 37.3905 62.0273 44.9982C63.1677 49.6991 63.644 54.735 62.8655 59.7777Z" fill="#01F2FF" fill-opacity="0.2"/>
<path fill-rule="evenodd" clip-rule="evenodd" d="M79.6318 32.7859C79.6325 32.5104 79.6297 32.3643 79.6297 32.3643C79.6297 32.3643 79.5011 32.4333 79.2606 32.5675C77.4494 33.5778 69.2962 38.2821 62.0273 44.9982C63.1292 49.5403 63.6111 54.395 62.9402 59.2665C62.9168 59.4365 62.8919 59.6065 62.8657 59.7765C62.8656 59.7769 62.8656 59.7773 62.8655 59.7777L62.8655 59.7777C62.8675 59.7798 62.8696 59.7818 62.8716 59.7842C62.8716 59.7842 62.8716 59.7842 62.8716 59.7842C62.8736 59.7826 62.8756 59.7811 62.8776 59.7796C63.0137 59.6756 63.1499 59.5726 63.2862 59.4707C68.2145 55.7842 73.2435 53.4349 76.9613 52.0248C79.4522 43.0874 79.6269 34.7264 79.6318 32.7859ZM79.2597 32.9933C79.2577 33.252 79.2528 33.5873 79.242 33.9911C79.2142 35.0307 79.1477 36.5241 78.9926 38.3356C78.686 41.917 78.0339 46.7352 76.6539 51.745C73.0058 53.1422 68.1475 55.4258 63.3552 58.9574C63.9526 54.2269 63.4862 49.5266 62.439 45.1234C66.4897 41.4037 70.8022 38.3108 74.1195 36.1387C75.7993 35.0388 77.2224 34.176 78.2248 33.5886C78.6495 33.3397 78.9986 33.1403 79.2597 32.9933Z" fill="#01F2FF"/>
<path d="M62.8648 59.7797L62.8709 59.7843L62.8633 59.79L62.8648 59.7797Z" fill="#01F2FF" fill-opacity="0.2"/>
<path fill-rule="evenodd" clip-rule="evenodd" d="M62.8709 59.7843L62.8633 59.79L62.8648 59.7797L62.8709 59.7843Z" fill="#01F2FF"/>
<path d="M62.8648 59.7797L62.8709 59.7843L62.8633 59.79L62.8648 59.7797Z" fill="#01F2FF" fill-opacity="0.2"/>
<path fill-rule="evenodd" clip-rule="evenodd" d="M62.8709 59.7843L62.8633 59.79L62.8648 59.7797L62.8709 59.7843Z" fill="#01F2FF"/>
<path d="M62.8648 59.7797L62.8709 59.7843L62.8633 59.79L62.8648 59.7797Z" fill="#01F2FF" fill-opacity="0.2"/>
<path fill-rule="evenodd" clip-rule="evenodd" d="M62.8709 59.7843L62.8633 59.79L62.8648 59.7797L62.8709 59.7843Z" fill="#01F2FF"/>
<path d="M62.8633 59.79C62.866 59.7881 62.8683 59.7862 62.8709 59.7843C62.869 59.782 62.8671 59.7801 62.8652 59.7782C62.8644 59.782 62.8637 59.7862 62.8633 59.79Z" fill="#01F2FF" fill-opacity="0.2"/>
<path fill-rule="evenodd" clip-rule="evenodd" d="M62.8709 59.7843C62.8696 59.7853 62.8684 59.7862 62.8671 59.7872C62.8659 59.7881 62.8646 59.7891 62.8633 59.79C62.8637 59.7862 62.8644 59.782 62.8652 59.7782L62.8652 59.7782C62.8671 59.7801 62.869 59.782 62.8709 59.7843Z" fill="#01F2FF"/>
<path d="M49.2797 79.9631C49.2281 79.9627 49.1765 79.9623 49.125 79.9614C47.6513 79.9328 46.324 79.8255 45.0675 79.6338C44.9456 79.6157 44.824 79.5967 44.7026 79.5777C42.989 78.9253 41.1348 77.8379 39.1916 76.3454C36.8132 74.5185 34.2813 72.0677 31.6661 69.0606C31.3785 68.7297 31.0769 68.3678 30.7441 67.9534C31.881 65.549 33.9584 62.8005 36.919 59.7841L36.9273 59.7905C37.0094 60.3211 37.0869 60.7625 37.1711 61.1801C38.5973 68.2504 40.8279 73.4718 43.801 76.6993C46.1457 79.2449 48.3025 79.8372 49.3792 79.9639L49.2797 79.9631Z" fill="#01F2FF" fill-opacity="0.6"/>
<path fill-rule="evenodd" clip-rule="evenodd" d="M47.6549 79.9038C46.7477 79.8491 45.8924 79.7596 45.0675 79.6338C44.9456 79.6157 44.824 79.5967 44.7026 79.5777C42.989 78.9253 41.1348 77.8379 39.1916 76.3454C36.8132 74.5185 34.2813 72.0677 31.6661 69.0606C31.3785 68.7297 31.0769 68.3678 30.7441 67.9534C31.8399 65.6358 33.8098 62.9984 36.602 60.1095C36.7036 60.0044 36.8063 59.899 36.91 59.7932C36.913 59.7902 36.916 59.7871 36.919 59.7841L36.9273 59.7905C36.9274 59.7912 36.9275 59.7919 36.9276 59.7925C36.9514 59.9466 36.9749 60.0931 36.9982 60.2338C37.0552 60.5766 37.1115 60.8844 37.1711 61.1801C38.5973 68.2504 40.8279 73.4718 43.801 76.6993C45.2557 78.2786 46.638 79.1061 47.735 79.537C48.2766 79.7497 48.7486 79.8658 49.1255 79.9279C49.1254 79.9279 49.1255 79.9279 49.1255 79.9279C49.1788 79.9367 49.2303 79.9445 49.2798 79.9512M49.125 79.9614C49.1765 79.9623 49.228 79.9627 49.2796 79.9631L49.3792 79.9639C49.347 79.9601 49.3139 79.9559 49.2798 79.9512M46.6801 79.4573C46.1456 79.4074 45.6285 79.3441 45.1234 79.2671L45.1221 79.2669C45.0145 79.2509 44.907 79.2342 44.7985 79.2172C43.1376 78.5795 41.3273 77.518 39.4176 76.0512C37.064 74.2433 34.5499 71.8113 31.9461 68.8171C31.7048 68.5396 31.4531 68.2394 31.1803 67.9031C32.2448 65.7384 34.086 63.2734 36.6783 60.5653C36.7205 60.8069 36.763 61.0332 36.8074 61.2535C38.2393 68.3518 40.4883 73.6507 43.5281 76.9506C44.6453 78.1635 45.7263 78.9495 46.6801 79.4573ZM49.125 79.9614C48.6187 79.9516 48.1297 79.9325 47.6549 79.9038L49.125 79.9614Z" fill="#01F2FF"/>
<path d="M49.2797 79.9631C49.2281 79.9627 49.1765 79.9623 49.125 79.9614C47.6513 79.9328 46.324 79.8255 45.0675 79.6338C44.9456 79.6157 44.824 79.5967 44.7026 79.5777C42.9889 78.9253 41.1348 77.8379 39.1916 76.3454C36.8133 74.5185 34.2814 72.0677 31.6661 69.0606C31.3787 68.7301 31.0772 68.3678 30.7441 67.9534C31.881 65.549 33.9585 62.8005 36.919 59.7841L36.9273 59.7905C37.0094 60.3211 37.0869 60.7625 37.1711 61.1801C38.5973 68.2504 40.8279 73.4718 43.801 76.6993C46.1457 79.2449 48.3025 79.8372 49.3792 79.9639L49.2797 79.9631Z" fill="#01F2FF" fill-opacity="0.6"/>
<path fill-rule="evenodd" clip-rule="evenodd" d="M47.6549 79.9038C46.7477 79.8491 45.8923 79.7596 45.0675 79.6338C44.9456 79.6157 44.824 79.5967 44.7026 79.5777C42.9889 78.9253 41.1348 77.8379 39.1916 76.3454C36.8133 74.5185 34.2814 72.0677 31.6661 69.0606C31.3787 68.7301 31.0772 68.3678 30.7441 67.9534C31.8399 65.6358 33.8098 62.9984 36.602 60.1095C36.7036 60.0044 36.8063 59.899 36.91 59.7932C36.913 59.7902 36.916 59.7871 36.919 59.7841L36.9273 59.7905C36.9274 59.7912 36.9275 59.7919 36.9276 59.7925C36.9514 59.9466 36.9749 60.0931 36.9983 60.2338C37.0552 60.5766 37.1115 60.8844 37.1711 61.1801C38.5973 68.2504 40.8279 73.4718 43.801 76.6993C45.2557 78.2786 46.638 79.1061 47.735 79.537C48.2766 79.7497 48.7486 79.8658 49.1255 79.9279C49.1254 79.9279 49.1255 79.9279 49.1255 79.9279C49.1788 79.9367 49.2303 79.9445 49.2798 79.9512M49.125 79.9614C49.1765 79.9623 49.228 79.9627 49.2796 79.9631L49.3792 79.9639C49.347 79.9601 49.3139 79.9559 49.2798 79.9512M46.6801 79.4573C46.1456 79.4074 45.6285 79.3441 45.1234 79.2671L45.1221 79.2669C45.0145 79.2509 44.907 79.2342 44.7985 79.2172C43.1375 78.5795 41.3273 77.518 39.4176 76.0512C37.0641 74.2433 34.55 71.8113 31.9461 68.8171C31.7051 68.54 31.4534 68.2395 31.1803 67.903C32.2448 65.7383 34.086 63.2733 36.6784 60.5652C36.7206 60.8068 36.763 61.0332 36.8074 61.2534C38.2393 68.3518 40.4883 73.6507 43.5281 76.9506C44.6453 78.1635 45.7263 78.9495 46.6801 79.4573ZM49.125 79.9614C48.6187 79.9516 48.1297 79.9325 47.6549 79.9038L49.125 79.9614Z" fill="#01F2FF"/>
<path d="M49.2797 79.9631C49.2281 79.9627 49.1765 79.9623 49.125 79.9614C47.6513 79.9328 46.324 79.8255 45.0675 79.6338C44.9456 79.6157 44.824 79.5967 44.7026 79.5777C42.9889 78.9253 41.1348 77.8379 39.1916 76.3454C36.8133 74.5185 34.2814 72.0677 31.6661 69.0606C31.3787 68.7301 31.0772 68.3678 30.7441 67.9534C31.881 65.549 33.9585 62.8005 36.919 59.7841L36.9273 59.7905C37.0094 60.3211 37.0869 60.7625 37.1711 61.1801C38.5973 68.2504 40.8279 73.4718 43.801 76.6993C46.1457 79.2449 48.3025 79.8372 49.3792 79.9639L49.2797 79.9631Z" fill="#01F2FF" fill-opacity="0.6"/>
<path fill-rule="evenodd" clip-rule="evenodd" d="M47.6549 79.9038C46.7477 79.8491 45.8923 79.7596 45.0675 79.6338C44.9456 79.6157 44.824 79.5967 44.7026 79.5777C42.9889 78.9253 41.1348 77.8379 39.1916 76.3454C36.8133 74.5185 34.2814 72.0677 31.6661 69.0606C31.3787 68.7301 31.0772 68.3678 30.7441 67.9534C31.8399 65.6358 33.8098 62.9984 36.602 60.1095C36.7036 60.0044 36.8063 59.899 36.91 59.7932C36.913 59.7902 36.916 59.7871 36.919 59.7841L36.9273 59.7905C36.9274 59.7912 36.9275 59.7919 36.9276 59.7925C36.9514 59.9466 36.9749 60.0931 36.9983 60.2338C37.0552 60.5766 37.1115 60.8844 37.1711 61.1801C38.5973 68.2504 40.8279 73.4718 43.801 76.6993C45.2557 78.2786 46.638 79.1061 47.735 79.537C48.2766 79.7497 48.7486 79.8658 49.1255 79.9279C49.1254 79.9279 49.1255 79.9279 49.1255 79.9279C49.1788 79.9367 49.2303 79.9445 49.2798 79.9512M49.125 79.9614C49.1765 79.9623 49.228 79.9627 49.2796 79.9631L49.3792 79.9639C49.347 79.9601 49.3139 79.9559 49.2798 79.9512M46.6801 79.4573C46.1456 79.4074 45.6285 79.3441 45.1234 79.2671L45.1221 79.2669C45.0145 79.2509 44.907 79.2342 44.7985 79.2172C43.1375 78.5795 41.3273 77.518 39.4176 76.0512C37.0641 74.2433 34.55 71.8113 31.9461 68.8171C31.7051 68.54 31.4534 68.2395 31.1803 67.903C32.2448 65.7383 34.086 63.2733 36.6784 60.5652C36.7206 60.8068 36.763 61.0332 36.8074 61.2534C38.2393 68.3518 40.4883 73.6507 43.5281 76.9506C44.6453 78.1635 45.7263 78.9495 46.6801 79.4573ZM49.125 79.9614C48.6187 79.9516 48.1297 79.9325 47.6549 79.9038L49.125 79.9614Z" fill="#01F2FF"/>
<path d="M37.1711 61.1801C37.0777 60.7169 36.999 60.2537 36.9273 59.7905C36.9245 59.7885 36.9217 59.7865 36.9189 59.7841C34.329 62.4229 32.0169 65.2614 30.7441 67.9534C31.0435 68.3258 31.349 68.6958 31.6661 69.0606C37.3615 75.6095 41.6932 78.4318 44.7026 79.5777C44.824 79.5967 44.9456 79.6157 45.0675 79.6338C46.4125 79.8392 47.7613 79.9348 49.1245 79.9614C49.2092 79.9627 49.2942 79.9631 49.3792 79.9639C47.4393 79.7359 40.5131 77.7479 37.1711 61.1801Z" fill="#01F2FF" fill-opacity="0.6"/>
<path fill-rule="evenodd" clip-rule="evenodd" d="M36.8074 61.2534L36.8074 61.2535C38.487 69.5802 41.0763 74.2892 43.5281 76.9508C44.6495 78.1682 45.7384 78.953 46.6906 79.4582C46.1667 79.4096 45.6446 79.3467 45.1235 79.2671L45.1221 79.2669C45.0145 79.2509 44.9069 79.2342 44.7985 79.2172C41.8668 78.0916 37.5948 75.3124 31.9461 68.8172C31.6845 68.5162 31.4303 68.2111 31.1803 67.903C32.3606 65.5023 34.3751 62.9711 36.6784 60.5651C36.7184 60.7942 36.7611 61.0236 36.8074 61.2534ZM36.9983 60.2337C36.9739 60.0866 36.9504 59.9396 36.9276 59.7926C36.9275 59.7919 36.9274 59.7912 36.9273 59.7905C36.9245 59.7885 36.9217 59.7865 36.9189 59.7841C36.9159 59.7871 36.9129 59.7902 36.91 59.7932C36.8069 59.8983 36.7042 60.0037 36.602 60.1094C34.1413 62.6552 31.9648 65.3717 30.7441 67.9534C31.0435 68.3258 31.349 68.6958 31.6661 69.0606C37.3615 75.6095 41.6932 78.4318 44.7026 79.5777C44.824 79.5967 44.9456 79.6157 45.0675 79.6338C45.9313 79.7657 46.7968 79.8524 47.6666 79.9045C48.1511 79.9336 48.6369 79.9519 49.1245 79.9614C49.181 79.9623 49.2377 79.9627 49.2944 79.9632C49.3227 79.9634 49.3509 79.9636 49.3792 79.9639C49.3022 79.9548 49.2174 79.943 49.1252 79.9276C49.1251 79.9276 49.1251 79.9276 49.125 79.9276C48.766 79.8676 48.296 79.7534 47.7466 79.5376C44.8831 78.4129 39.8637 74.5288 37.1711 61.1801C37.1075 60.8646 37.0507 60.5492 36.9983 60.2337Z" fill="#01F2FF"/>
<path d="M50.4102 79.9639C51.4869 79.8372 53.6436 79.2449 55.9884 76.6993C58.9615 73.4718 61.1919 68.2504 62.6184 61.1801C62.7027 60.7617 62.78 60.3203 62.8622 59.7905L62.8703 59.7841C65.8309 62.8005 67.9086 65.549 69.0454 67.9534C68.7121 68.3678 68.4107 68.7301 68.1234 69.0606C65.5081 72.0677 62.9763 74.5185 60.598 76.3454C58.6545 77.8379 56.8004 78.9253 55.087 79.5777C54.9653 79.5967 54.844 79.6157 54.7219 79.6338C53.4655 79.8255 52.1381 79.9328 50.6644 79.9614C50.6132 79.9623 50.5613 79.9627 50.5097 79.9631L50.4102 79.9639Z" fill="#01F2FF" fill-opacity="0.6"/>
<path fill-rule="evenodd" clip-rule="evenodd" d="M52.0543 79.537C53.1513 79.1061 54.5336 78.2786 55.9884 76.6993C58.9615 73.4718 61.1919 68.2504 62.6184 61.1801C62.6781 60.884 62.7342 60.5763 62.7911 60.2339C62.8145 60.0931 62.838 59.9464 62.862 59.7922C62.8621 59.7917 62.8621 59.7911 62.8622 59.7905L62.8703 59.7841C62.8733 59.7871 62.8762 59.7901 62.8792 59.7932C62.983 59.899 63.0857 60.0045 63.1874 60.1096C65.9796 62.9985 67.9496 65.6358 69.0454 67.9534C68.7121 68.3678 68.4107 68.7301 68.1234 69.0606C65.5081 72.0677 62.9763 74.5185 60.598 76.3454C58.6545 77.8379 56.8004 78.9253 55.087 79.5777L55.0637 79.5814C54.9498 79.5991 54.8362 79.6168 54.7219 79.6338C53.8971 79.7596 53.0417 79.8491 52.1344 79.9038C51.6596 79.9325 51.1707 79.9516 50.6644 79.9614C50.6137 79.9622 50.5622 79.9627 50.511 79.9631L50.4102 79.9639C50.4423 79.9601 50.4755 79.9559 50.5096 79.9512C50.5096 79.9512 50.5096 79.9512 50.5096 79.9512C50.559 79.9445 50.6105 79.9367 50.6638 79.928C50.6637 79.928 50.6638 79.9279 50.6638 79.928C51.0406 79.8658 51.5127 79.7497 52.0543 79.537ZM53.1092 79.4573C54.063 78.9495 55.144 78.1635 56.2613 76.9506C59.3011 73.6507 61.5499 68.3519 62.9821 61.2535C63.0265 61.0331 63.0689 60.8066 63.111 60.5654C65.7034 63.2734 67.5447 65.7383 68.6092 67.903C68.3359 68.2395 68.0843 68.5401 67.8434 68.8171C65.2395 71.8113 62.7255 74.2433 60.372 76.0512C58.462 77.518 56.6518 78.5795 54.9911 79.2172C54.8824 79.2342 54.7751 79.2508 54.6673 79.2669L54.666 79.2671C54.1609 79.3441 53.6437 79.4074 53.1092 79.4573Z" fill="#01F2FF"/>
<path d="M50.4102 79.9639C51.4869 79.8372 53.6436 79.2449 55.9884 76.6993C58.9615 73.4718 61.1919 68.2504 62.6184 61.1801C62.7027 60.7621 62.78 60.3207 62.8622 59.7905L62.8703 59.7841C65.8309 62.8005 67.9086 65.549 69.0454 67.9534C68.7121 68.3678 68.4107 68.7301 68.1234 69.0606C65.5081 72.0677 62.9759 74.5185 60.598 76.3454C58.6545 77.8379 56.8004 78.9253 55.087 79.5777C54.9653 79.5967 54.844 79.6157 54.7219 79.6338C53.4655 79.8255 52.1381 79.9328 50.6644 79.9614C50.6132 79.9623 50.5613 79.9627 50.5097 79.9631L50.4102 79.9639Z" fill="#01F2FF" fill-opacity="0.6"/>
<path fill-rule="evenodd" clip-rule="evenodd" d="M52.0543 79.537C53.1513 79.1061 54.5336 78.2786 55.9884 76.6993C58.9615 73.4718 61.1919 68.2504 62.6184 61.1801C62.6781 60.8842 62.7343 60.5765 62.7912 60.2339C62.8145 60.0931 62.8381 59.9464 62.862 59.7922C62.8621 59.7917 62.8621 59.7911 62.8622 59.7905L62.8703 59.7841C62.8733 59.7871 62.8762 59.7901 62.8792 59.7932C62.983 59.899 63.0858 60.0045 63.1874 60.1096C65.9796 62.9985 67.9496 65.6358 69.0454 67.9534C68.7121 68.3678 68.4107 68.7301 68.1234 69.0606C65.5081 72.0677 62.9759 74.5185 60.598 76.3454C58.6545 77.8379 56.8004 78.9253 55.087 79.5777L55.0637 79.5814C54.9498 79.5991 54.8362 79.6168 54.7219 79.6338C53.8971 79.7596 53.0417 79.8491 52.1344 79.9038C51.6596 79.9325 51.1707 79.9516 50.6644 79.9614C50.6137 79.9622 50.5622 79.9627 50.511 79.9631L50.4102 79.9639C50.4423 79.9601 50.4755 79.9559 50.5096 79.9512C50.5096 79.9512 50.5096 79.9512 50.5096 79.9512C50.559 79.9445 50.6105 79.9367 50.6638 79.928C50.6637 79.928 50.6638 79.9279 50.6638 79.928C51.0406 79.8658 51.5127 79.7497 52.0543 79.537ZM53.1092 79.4573C54.063 78.9495 55.144 78.1635 56.2613 76.9506C59.3011 73.6507 61.5499 68.3519 62.9821 61.2535C63.0265 61.0332 63.0689 60.8068 63.1111 60.5654C65.7034 63.2734 67.5447 65.7383 68.6092 67.903C68.3359 68.2395 68.0843 68.5401 67.8434 68.8171C65.2395 71.8112 62.7251 74.2433 60.372 76.0512M53.1092 79.4573C53.6437 79.4074 54.1609 79.3441 54.666 79.2671L54.6673 79.2669C54.7751 79.2508 54.8824 79.2342 54.9911 79.2172C56.6518 78.5795 58.462 77.5179 60.372 76.0512" fill="#01F2FF"/>
<path d="M50.4102 79.9639C51.4869 79.8372 53.6436 79.2449 55.9884 76.6993C58.9615 73.4718 61.1919 68.2504 62.6184 61.1801C62.7027 60.7621 62.78 60.3207 62.8622 59.7905L62.8703 59.7841C65.8309 62.8005 67.9086 65.549 69.0454 67.9534C68.7121 68.3678 68.4107 68.7301 68.1234 69.0606C65.5081 72.0677 62.9759 74.5185 60.598 76.3454C58.6545 77.8379 56.8004 78.9253 55.087 79.5777C54.9653 79.5967 54.844 79.6157 54.7219 79.6338C53.4655 79.8255 52.1381 79.9328 50.6644 79.9614C50.6132 79.9623 50.5613 79.9627 50.5097 79.9631L50.4102 79.9639Z" fill="#01F2FF" fill-opacity="0.6"/>
<path fill-rule="evenodd" clip-rule="evenodd" d="M52.0543 79.537C53.1513 79.1061 54.5336 78.2786 55.9884 76.6993C58.9615 73.4718 61.1919 68.2504 62.6184 61.1801C62.6781 60.8842 62.7343 60.5765 62.7912 60.2339C62.8145 60.0931 62.8381 59.9464 62.862 59.7922C62.8621 59.7917 62.8621 59.7911 62.8622 59.7905L62.8703 59.7841C62.8733 59.7871 62.8762 59.7901 62.8792 59.7932C62.983 59.899 63.0858 60.0045 63.1874 60.1096C65.9796 62.9985 67.9496 65.6358 69.0454 67.9534C68.7121 68.3678 68.4107 68.7301 68.1234 69.0606C65.5081 72.0677 62.9759 74.5185 60.598 76.3454C58.6545 77.8379 56.8004 78.9253 55.087 79.5777L55.0637 79.5814C54.9498 79.5991 54.8362 79.6168 54.7219 79.6338C53.8971 79.7596 53.0417 79.8491 52.1344 79.9038C51.6596 79.9325 51.1707 79.9516 50.6644 79.9614C50.6137 79.9622 50.5622 79.9627 50.511 79.9631L50.4102 79.9639C50.4423 79.9601 50.4755 79.9559 50.5096 79.9512C50.5096 79.9512 50.5096 79.9512 50.5096 79.9512C50.559 79.9445 50.6105 79.9367 50.6638 79.928C50.6637 79.928 50.6638 79.9279 50.6638 79.928C51.0406 79.8658 51.5127 79.7497 52.0543 79.537ZM53.1092 79.4573C54.063 78.9495 55.144 78.1635 56.2613 76.9506C59.3011 73.6507 61.5499 68.3519 62.9821 61.2535C63.0265 61.0332 63.0689 60.8068 63.1111 60.5654C65.7034 63.2734 67.5447 65.7383 68.6092 67.903C68.3359 68.2395 68.0843 68.5401 67.8434 68.8171C65.2395 71.8112 62.7251 74.2433 60.372 76.0512M53.1092 79.4573C53.6437 79.4074 54.1609 79.3441 54.666 79.2671L54.6673 79.2669C54.7751 79.2508 54.8824 79.2342 54.9911 79.2172C56.6518 78.5795 58.462 77.5179 60.372 76.0512" fill="#01F2FF"/>
<path d="M62.6184 61.1801C62.7115 60.7169 62.7905 60.2537 62.8622 59.7905C62.8651 59.7885 62.8675 59.7865 62.8703 59.7841C65.4606 62.4229 67.7724 65.2614 69.0454 67.9534C68.746 68.3258 68.4405 68.6958 68.1234 69.0606C62.4278 75.6095 58.0963 78.4318 55.087 79.5777C54.9653 79.5967 54.8436 79.6157 54.7219 79.6338C53.3768 79.8392 52.0277 79.9348 50.6644 79.9614C50.5798 79.9627 50.4948 79.9631 50.4102 79.9639C52.35 79.7359 59.2762 77.7479 62.6184 61.1801Z" fill="#01F2FF" fill-opacity="0.6"/>
<path fill-rule="evenodd" clip-rule="evenodd" d="M62.9821 61.2535L62.9822 61.2532C63.0283 61.0236 63.071 60.7942 63.111 60.5653C65.4144 62.9711 67.4287 65.5023 68.6092 67.903C68.3592 68.2111 68.1051 68.5162 67.8434 68.8171C62.1946 75.3123 57.9227 78.0915 54.9911 79.2172C54.8824 79.2341 54.7747 79.2509 54.6672 79.2669L54.6659 79.2671C54.1448 79.3466 53.6227 79.4096 53.0988 79.4582C54.051 78.953 55.1399 78.1682 56.2613 76.9508C58.7131 74.2892 61.3024 69.5802 62.9821 61.2535ZM52.0429 79.5376C54.9063 78.4129 59.9256 74.5287 62.6184 61.1801C62.6818 60.8647 62.7387 60.5493 62.7911 60.2339C62.8156 60.0867 62.8392 59.9395 62.862 59.7922C62.8621 59.7917 62.8621 59.7911 62.8622 59.7905C62.8651 59.7885 62.8675 59.7865 62.8703 59.7841C62.8733 59.7871 62.8762 59.7901 62.8792 59.7932C62.9824 59.8983 63.0852 60.0038 63.1874 60.1096C65.6484 62.6553 67.8246 65.3717 69.0454 67.9534C68.746 68.3258 68.4405 68.6958 68.1234 69.0606C62.4278 75.6095 58.0963 78.4318 55.087 79.5777L55.0866 79.5778C54.965 79.5967 54.8435 79.6157 54.7219 79.6338C53.8581 79.7657 52.9926 79.8523 52.1228 79.9045C51.6382 79.9336 51.1522 79.9519 50.6644 79.9614C50.6081 79.9623 50.5516 79.9627 50.4951 79.9631C50.4668 79.9634 50.4385 79.9636 50.4102 79.9639C50.487 79.9548 50.5718 79.943 50.6638 79.9277C50.6638 79.9277 50.6639 79.9277 50.6639 79.9276C51.023 79.8677 51.4932 79.7535 52.0429 79.5376Z" fill="#01F2FF"/>
<path d="M54.9251 52.7578C52.0511 50.4777 49.8787 48.9913 49.8574 48.9768C49.8413 48.9877 48.2209 50.096 45.9365 51.8601C45.553 52.1562 45.1671 52.458 44.7894 52.7578C42.8365 50.1356 40.4599 47.525 37.7256 44.9984C38.4777 41.8973 39.5835 38.6859 41.0123 35.4532C42.1553 32.8669 43.5064 30.2612 45.028 27.7084C47.6189 23.3625 49.8352 20.6418 49.8574 20.6148C49.8795 20.6418 52.0959 23.3625 54.6865 27.7088C56.2081 30.2612 57.5593 32.8669 58.7025 35.4532C60.1314 38.6859 61.2372 41.8973 61.9891 44.9984C59.255 47.525 56.8783 50.1356 54.9251 52.7578Z" fill="#01F2FF" fill-opacity="0.2"/>
<path d="M54.9251 52.7578C52.0511 50.4777 49.8787 48.9913 49.8574 48.9768C49.8413 48.9877 48.2209 50.096 45.9365 51.8601C45.553 52.1562 45.1671 52.458 44.7894 52.7578C42.8365 50.1356 40.4599 47.525 37.7256 44.9984C38.4777 41.8973 39.5835 38.6859 41.0123 35.4532C42.1553 32.8669 43.5064 30.2612 45.028 27.7084C47.6189 23.3625 49.8352 20.6418 49.8574 20.6148C49.8795 20.6418 52.0959 23.3625 54.6865 27.7088C56.2081 30.2612 57.5593 32.8669 58.7025 35.4532C60.1314 38.6859 61.2372 41.8973 61.9891 44.9984C59.255 47.525 56.8783 50.1356 54.9251 52.7578Z" fill="#01F2FF" fill-opacity="0.2"/>
<path d="M54.9251 52.7578C52.0511 50.4777 49.8787 48.9913 49.8574 48.9768C49.8413 48.9877 48.2209 50.096 45.9365 51.8601C45.553 52.1562 45.1671 52.458 44.7894 52.7578C42.8365 50.1356 40.4599 47.525 37.7256 44.9984C38.4777 41.8973 39.5835 38.6859 41.0123 35.4532C42.1553 32.8669 43.5064 30.2612 45.028 27.7084C47.6189 23.3625 49.8352 20.6418 49.8574 20.6148C49.8795 20.6418 52.0959 23.3625 54.6865 27.7088C56.2081 30.2612 57.5593 32.8669 58.7025 35.4532C60.1314 38.6859 61.2372 41.8973 61.9891 44.9984C59.255 47.525 56.8783 50.1356 54.9251 52.7578Z" fill="#01F2FF" fill-opacity="0.2"/>
<path d="M54.9251 52.7578C52.0511 50.4777 49.8787 48.9913 49.8574 48.9768C49.8413 48.9877 48.2209 50.096 45.9365 51.8601C45.553 52.1562 45.1671 52.458 44.7894 52.7578C42.8365 50.1356 40.4599 47.525 37.7256 44.9984C38.4777 41.8973 39.5835 38.6859 41.0123 35.4532C42.1553 32.8669 43.5064 30.2612 45.028 27.7084C47.6189 23.3625 49.8352 20.6418 49.8574 20.6148C49.8795 20.6418 52.0959 23.3625 54.6865 27.7088C56.2081 30.2612 57.5593 32.8669 58.7025 35.4532C60.1314 38.6859 61.2372 41.8973 61.9891 44.9984C59.255 47.525 56.8783 50.1356 54.9251 52.7578Z" fill="#01F2FF" fill-opacity="0.2"/>
<path fill-rule="evenodd" clip-rule="evenodd" d="M44.7203 53.2861L45.0199 53.0482C45.3961 52.7496 45.7808 52.4488 46.1631 52.1535C47.3015 51.2744 48.2743 50.5588 48.9642 50.0619C49.3091 49.8134 49.5832 49.6197 49.7719 49.4875C49.8026 49.466 49.831 49.4461 49.8572 49.4279C49.9092 49.4642 49.9704 49.5071 50.0404 49.5563C50.2905 49.7323 50.6523 49.9896 51.1031 50.3176C52.0048 50.9736 53.2621 51.9121 54.6943 53.0483L54.994 53.286L55.2224 52.9793C57.1602 50.3777 59.5211 47.784 62.2407 45.2708L62.4008 45.1228L62.3495 44.9109C61.5918 41.7861 60.4785 38.5539 59.0416 35.3031C57.8921 32.7024 56.5339 30.0834 55.005 27.5187C52.4024 23.1524 50.1744 20.4164 50.1441 20.3794L49.8572 20.0295L49.5703 20.3794C49.54 20.4164 47.312 23.1524 44.7092 27.5183L44.7091 27.5183C43.1803 30.0834 41.8222 32.7024 40.6728 35.3031C39.2361 38.5539 38.1227 41.7861 37.3649 44.9109L37.3135 45.1228L37.4736 45.2708C40.1934 47.784 42.5542 50.3777 44.4917 52.9793L44.7203 53.2861ZM54.8567 52.2308C52.1233 50.0777 50.0916 48.6874 50.0658 48.6699L49.8579 48.5284L49.6495 48.6693C49.6276 48.6841 48.0009 49.797 45.7096 51.5663L45.7095 51.5663C45.4255 51.7857 45.14 52.0082 44.8575 52.2308C42.9727 49.7425 40.7138 47.2704 38.1377 44.8746C38.8827 41.8623 39.9631 38.7443 41.3514 35.6031L41.0121 35.4531L41.3514 35.6031C42.4881 33.0312 43.8322 30.4388 45.3465 27.8982C46.6356 25.7358 47.8315 23.978 48.7072 22.7582C49.1449 22.1484 49.5026 21.6733 49.7517 21.3495C49.7894 21.3005 49.8246 21.2549 49.8572 21.2129C49.8898 21.2549 49.925 21.3005 49.9628 21.3495C50.2118 21.6733 50.5694 22.1484 51.0072 22.7582C51.8829 23.9781 53.0786 25.736 54.3677 27.8986L54.6864 27.7087L54.3677 27.8986C55.882 30.4388 57.2262 33.0312 58.363 35.6031C59.7515 38.7443 60.8318 41.8623 61.5767 44.8746C59.0006 47.2704 56.7417 49.7425 54.8567 52.2308Z" fill="#01F2FF"/>
<path d="M30.7448 67.9531C27.2135 63.5572 24.5506 58.1981 22.8301 52.0248C26.3966 53.3777 31.7361 55.822 36.9196 59.7838C33.9591 62.8002 31.8816 65.5488 30.7448 67.9531Z" fill="#01F2FF" fill-opacity="0.6"/>
<path fill-rule="evenodd" clip-rule="evenodd" d="M22.8301 52.0248C22.9714 52.0784 23.1154 52.1337 23.2622 52.1908C26.7485 53.5462 31.7378 55.8834 36.6216 59.5578C36.721 59.6326 36.8203 59.7079 36.9196 59.7838C36.8319 59.8732 36.7449 59.9624 36.6587 60.0513C33.9843 62.8107 32.0582 65.3415 30.9251 67.5845C30.8626 67.7083 30.8025 67.8311 30.7448 67.9531C30.6588 67.846 30.5733 67.7384 30.4883 67.6302C27.1685 63.4028 24.6366 58.3067 22.9562 52.4702C22.9136 52.3222 22.8716 52.1738 22.8301 52.0248ZM30.6726 67.2635C27.4899 63.1713 25.0421 58.2594 23.392 52.64C26.8329 53.9977 31.6457 56.2856 36.3607 59.8258C33.7491 62.5245 31.8335 65.0222 30.6726 67.2635Z" fill="#01F2FF"/>
<path d="M30.7448 67.9531C27.2136 63.5572 24.5506 58.1981 22.8301 52.0248C26.3965 53.3777 31.736 55.8216 36.9196 59.7838C33.9591 62.8002 31.8816 65.5488 30.7448 67.9531Z" fill="#01F2FF" fill-opacity="0.6"/>
<path fill-rule="evenodd" clip-rule="evenodd" d="M22.8301 52.0248C22.9714 52.0784 23.1154 52.1337 23.2622 52.1908C26.7484 53.5462 31.7377 55.8831 36.6216 59.5578C36.721 59.6326 36.8203 59.7079 36.9196 59.7838C36.8319 59.8732 36.7449 59.9624 36.6587 60.0513C33.9843 62.8107 32.0582 65.3415 30.9251 67.5845C30.8626 67.7083 30.8025 67.8311 30.7448 67.9531C30.6588 67.846 30.5733 67.7384 30.4883 67.6302C27.1686 63.4028 24.6366 58.3067 22.9562 52.4702C22.9136 52.3222 22.8716 52.1738 22.8301 52.0248ZM30.6726 67.2635C27.49 63.1713 25.0421 58.2594 23.392 52.64C26.8329 53.9977 31.6456 56.2852 36.3607 59.8258C33.7491 62.5245 31.8335 65.0222 30.6726 67.2635Z" fill="#01F2FF"/>
<path fill-rule="evenodd" clip-rule="evenodd" d="M22.8301 52.0248C22.9714 52.0784 23.1154 52.1337 23.2622 52.1908C26.7484 53.5462 31.7377 55.8831 36.6216 59.5578C36.721 59.6326 36.8203 59.7079 36.9196 59.7838C36.8319 59.8732 36.7449 59.9624 36.6587 60.0513C33.9843 62.8107 32.0582 65.3415 30.9251 67.5845C30.8626 67.7083 30.8025 67.8311 30.7448 67.9531C30.6588 67.846 30.5733 67.7384 30.4883 67.6302C27.1686 63.4028 24.6366 58.3067 22.9562 52.4702C22.9136 52.3222 22.8716 52.1738 22.8301 52.0248ZM30.6726 67.2635C27.49 63.1713 25.0421 58.2594 23.392 52.64C26.8329 53.9977 31.6456 56.2852 36.3607 59.8258C33.7491 62.5245 31.8335 65.0222 30.6726 67.2635Z" fill="#01F2FF"/>
<path fill-rule="evenodd" clip-rule="evenodd" d="M36.9196 59.7838C36.8323 59.8728 36.7453 59.9619 36.6586 60.0513C34.292 62.493 32.1827 65.0942 30.9251 67.5845C30.8629 67.7077 30.8027 67.8305 30.7448 67.9531C30.6586 67.8458 30.5731 67.7381 30.4883 67.6302C26.7494 62.8692 24.4097 57.5183 22.9562 52.4702C22.9134 52.3215 22.8714 52.173 22.8301 52.0248C22.9722 52.0787 23.1163 52.134 23.2622 52.1907C26.9623 53.6283 31.8446 55.9631 36.6216 59.5578C36.721 59.6326 36.8203 59.7079 36.9196 59.7838ZM36.3606 59.8258C34.0446 62.2189 31.957 64.7827 30.6725 67.2635C27.0992 62.6691 24.8267 57.525 23.3919 52.6399C27.026 54.0724 31.7426 56.3575 36.3606 59.8258Z" fill="#01F2FF"/>
<path d="M69.0458 67.9531C67.909 65.5492 65.8317 62.8006 62.8711 59.7842C68.0549 55.822 73.3942 53.3777 76.9608 52.0248C75.2402 58.1981 72.5774 63.5572 69.0458 67.9531Z" fill="#01F2FF" fill-opacity="0.6"/>
<path fill-rule="evenodd" clip-rule="evenodd" d="M68.8655 67.5845C68.928 67.7083 68.9881 67.8311 69.0458 67.9531C69.1318 67.8461 69.2173 67.7384 69.3023 67.6302C72.6223 63.4028 75.1542 58.3067 76.8347 52.4702C76.8773 52.3222 76.9193 52.1738 76.9608 52.0248C76.8195 52.0784 76.6755 52.1337 76.5287 52.1908C73.0423 53.5462 68.0532 55.8835 63.1691 59.5582C63.0697 59.633 62.9704 59.7083 62.8711 59.7842C62.9588 59.8736 63.0458 59.9628 63.132 60.0517C65.8065 62.811 67.7324 65.3419 68.8655 67.5845ZM69.118 67.2636C67.9571 65.0226 66.0417 62.5249 63.43 59.8262C68.1452 56.2856 72.9579 53.9977 76.3989 52.64C74.7487 58.2594 72.3009 63.1714 69.118 67.2636Z" fill="#01F2FF"/>
<path d="M69.0458 67.9531C67.9094 65.5492 65.8317 62.8006 62.8711 59.7842C68.0549 55.822 73.3942 53.3777 76.9608 52.0248C75.2402 58.1981 72.5774 63.5572 69.0458 67.9531Z" fill="#01F2FF" fill-opacity="0.6"/>
<path fill-rule="evenodd" clip-rule="evenodd" d="M68.8655 67.5845C68.928 67.7083 68.9881 67.8311 69.0458 67.9531C69.1318 67.8461 69.2173 67.7384 69.3023 67.6302C72.6223 63.4028 75.1542 58.3067 76.8347 52.4702C76.8773 52.3222 76.9193 52.1738 76.9608 52.0248C76.8195 52.0784 76.6755 52.1337 76.5287 52.1908C73.0423 53.5462 68.0532 55.8835 63.1691 59.5582C63.0697 59.633 62.9704 59.7083 62.8711 59.7842C62.9588 59.8736 63.0458 59.9628 63.132 60.0517C65.8065 62.811 67.7328 65.3418 68.8655 67.5845ZM69.118 67.2635C67.9574 65.0225 66.0416 62.5248 63.43 59.8262C68.1452 56.2856 72.9579 53.9977 76.3989 52.64C74.7487 58.2594 72.3009 63.1713 69.118 67.2635Z" fill="#01F2FF"/>
<path d="M69.0458 67.9531C67.9094 65.5492 65.8317 62.8006 62.8711 59.7842C68.0549 55.822 73.3942 53.3777 76.9608 52.0248C75.2402 58.1981 72.5774 63.5572 69.0458 67.9531Z" fill="#01F2FF" fill-opacity="0.2"/>
<path fill-rule="evenodd" clip-rule="evenodd" d="M68.8655 67.5845C68.928 67.7083 68.9881 67.8311 69.0458 67.9531C69.1318 67.8461 69.2173 67.7384 69.3023 67.6302C72.6223 63.4028 75.1542 58.3067 76.8347 52.4702C76.8773 52.3222 76.9193 52.1738 76.9608 52.0248C76.8195 52.0784 76.6755 52.1337 76.5287 52.1908C73.0423 53.5462 68.0532 55.8835 63.1691 59.5582C63.0697 59.633 62.9704 59.7083 62.8711 59.7842C62.9588 59.8736 63.0458 59.9628 63.132 60.0517C65.8065 62.811 67.7328 65.3418 68.8655 67.5845ZM69.118 67.2635C67.9574 65.0225 66.0416 62.5248 63.43 59.8262C68.1452 56.2856 72.9579 53.9977 76.3989 52.64C74.7487 58.2594 72.3009 63.1713 69.118 67.2635Z" fill="#01F2FF"/>
<path fill-rule="evenodd" clip-rule="evenodd" d="M68.8655 67.5845C68.9277 67.7077 68.9878 67.8305 69.0458 67.9531C69.132 67.8458 69.2175 67.7382 69.3023 67.6302C73.0414 62.8695 75.3811 57.5183 76.8347 52.4702C76.8775 52.3215 76.9195 52.173 76.9608 52.0248C76.8187 52.0787 76.6746 52.134 76.5288 52.1907C72.8285 53.6283 67.9462 55.9631 63.1691 59.5582C63.0697 59.633 62.9704 59.7083 62.8711 59.7842C62.9584 59.8732 63.0454 59.9623 63.132 60.0517C65.4986 62.4934 67.608 65.0945 68.8655 67.5845ZM69.118 67.2635C67.8337 64.7831 65.746 62.2193 63.43 59.8262C68.0483 56.3575 72.7648 54.0724 76.399 52.6399C74.9642 57.5251 72.6915 62.6695 69.118 67.2635Z" fill="#01F2FF"/>
<path d="M49.8941 61.7607C49.7926 61.5045 49.7132 61.3068 49.637 61.1204C48.4962 58.3255 46.8775 55.5116 44.8262 52.7574C47.7092 50.4705 49.8724 48.9909 49.8941 48.9764C49.9155 48.9909 52.0798 50.4713 54.9618 52.7574C52.9107 55.5116 51.292 58.3255 50.1512 61.1204C50.0738 61.3105 49.992 61.5138 49.8941 61.7607Z" fill="#01F2FF" fill-opacity="0.6"/>
<path fill-rule="evenodd" clip-rule="evenodd" d="M49.6942 61.2609C49.7536 61.4078 49.8176 61.5676 49.8941 61.7607C49.9684 61.5735 50.0334 61.4113 50.0942 61.2609C50.1136 61.213 50.1325 61.1663 50.1512 61.1204C51.292 58.3255 52.9107 55.5116 54.9618 52.7574C52.0798 50.4713 49.9155 48.9909 49.8941 48.9764C49.8724 48.9909 47.7092 50.4705 44.8262 52.7574C46.8775 55.5116 48.4962 58.3255 49.637 61.1204C49.6558 61.1663 49.6747 61.2129 49.6942 61.2609ZM49.8941 60.7707C48.7863 58.1108 47.2541 55.4407 45.3379 52.8258C46.6574 51.7861 47.8101 50.9268 48.6514 50.3147C49.1016 49.9872 49.4625 49.7306 49.7119 49.5551C49.7815 49.5062 49.8423 49.4636 49.894 49.4276C49.9458 49.4637 50.0067 49.5063 50.0762 49.5552C50.3257 49.7307 50.6867 49.9875 51.137 50.315C51.9784 50.9272 53.1311 51.7865 54.4501 52.8258C52.5341 55.4407 51.0019 58.1108 49.8941 60.7707Z" fill="#01F2FF"/>
<path d="M49.8941 61.7607C49.7934 61.5061 49.714 61.3088 49.637 61.1204C48.4962 58.3255 46.8775 55.5116 44.8262 52.7574C47.7004 50.4773 49.8724 48.9909 49.8941 48.9764C49.9155 48.9909 52.0879 50.4773 54.9618 52.7574C52.9107 55.5116 51.292 58.3255 50.1512 61.1204C50.0747 61.308 49.9929 61.5114 49.8941 61.7607Z" fill="#01F2FF" fill-opacity="0.6"/>
<path fill-rule="evenodd" clip-rule="evenodd" d="M49.6941 61.2607C49.754 61.4086 49.818 61.5683 49.8941 61.7607C49.9688 61.5721 50.0338 61.4098 50.0942 61.2607C50.1136 61.2127 50.1326 61.1661 50.1512 61.1204C51.292 58.3255 52.9107 55.5116 54.9618 52.7574C52.0879 50.4773 49.9155 48.9909 49.8941 48.9764C49.8724 48.9909 47.7004 50.4773 44.8262 52.7574C46.8775 55.5116 48.4962 58.3255 49.637 61.1204C49.6558 61.1664 49.6748 61.213 49.6941 61.2607ZM49.8941 60.7707C48.7863 58.1108 47.2541 55.4407 45.3379 52.8258C46.6534 51.7892 47.8059 50.93 48.6481 50.3173C49.0989 49.9893 49.4606 49.7321 49.7107 49.5561C49.7808 49.5068 49.842 49.4639 49.8941 49.4276C49.9461 49.4639 50.0073 49.5068 50.0773 49.5561C50.3274 49.7321 50.6892 49.9893 51.14 50.3173C51.9822 50.93 53.1347 51.7892 54.4501 52.8258C52.5342 55.4407 51.0019 58.1108 49.8941 60.7707Z" fill="#01F2FF"/>
<path d="M49.8941 61.7607C49.7934 61.5061 49.714 61.3088 49.637 61.1204C48.4962 58.3255 46.8775 55.5116 44.8262 52.7574C47.7004 50.4773 49.8724 48.9909 49.8941 48.9764C49.9155 48.9909 52.0879 50.4773 54.9618 52.7574C52.9107 55.5116 51.292 58.3255 50.1512 61.1204C50.0747 61.308 49.9929 61.5114 49.8941 61.7607Z" fill="#01F2FF" fill-opacity="0.2"/>
<path fill-rule="evenodd" clip-rule="evenodd" d="M49.6941 61.2607C49.754 61.4086 49.818 61.5683 49.8941 61.7607C49.9688 61.5721 50.0338 61.4098 50.0942 61.2607C50.1136 61.2127 50.1326 61.1661 50.1512 61.1204C51.292 58.3255 52.9107 55.5116 54.9618 52.7574C52.0879 50.4773 49.9155 48.9909 49.8941 48.9764C49.8724 48.9909 47.7004 50.4773 44.8262 52.7574C46.8775 55.5116 48.4962 58.3255 49.637 61.1204C49.6558 61.1664 49.6748 61.213 49.6941 61.2607ZM49.8941 60.7707C48.7863 58.1108 47.2541 55.4407 45.3379 52.8258C46.6534 51.7892 47.8059 50.93 48.6481 50.3173C49.0989 49.9893 49.4606 49.7321 49.7107 49.5561C49.7808 49.5068 49.842 49.4639 49.8941 49.4276C49.9461 49.4639 50.0073 49.5068 50.0773 49.5561C50.3274 49.7321 50.6892 49.9893 51.14 50.3173C51.9822 50.93 53.1347 51.7892 54.4501 52.8258C52.5342 55.4407 51.0019 58.1108 49.8941 60.7707Z" fill="#01F2FF"/>
<path fill-rule="evenodd" clip-rule="evenodd" d="M49.6941 61.2609C49.7622 61.429 49.8285 61.5953 49.8941 61.7607C49.9597 61.5953 50.0261 61.429 50.0941 61.2609C50.113 61.2142 50.132 61.1674 50.1512 61.1204C51.369 58.1375 53.0373 55.3417 54.9618 52.7574C52.0544 50.4511 49.8941 48.9764 49.8941 48.9764C49.8941 48.9764 47.7334 50.4511 44.8262 52.7574C46.751 55.3417 48.4193 58.1375 49.637 61.1204C49.6562 61.1674 49.6752 61.2142 49.6941 61.2609ZM45.3379 52.8257C46.6688 51.777 47.8271 50.9139 48.6685 50.3021C49.1186 49.9749 49.4779 49.7196 49.7244 49.5464C49.7888 49.5011 49.8455 49.4614 49.8941 49.4276C49.9427 49.4614 49.9994 49.5011 50.0638 49.5464C50.3102 49.7196 50.6695 49.9749 51.1195 50.3021C51.9609 50.9139 53.1191 51.777 54.4501 52.8258C52.6453 55.2885 51.0714 57.9435 49.8941 60.7707C48.7168 57.9435 47.143 55.2885 45.3379 52.8257Z" fill="#01F2FF"/>
<path d="M36.9258 59.7773C36.2167 55.1857 36.4986 50.2132 37.7637 44.9982C40.4981 47.5248 42.8747 50.1353 44.8275 52.7575C41.7989 55.1599 39.1404 57.5219 36.9258 59.7773Z" fill="#01F2FF" fill-opacity="0.2"/>
<path fill-rule="evenodd" clip-rule="evenodd" d="M37.7637 44.9982C37.8682 45.0947 37.9721 45.1914 38.0756 45.2882C40.6791 47.7243 42.9493 50.2355 44.8275 52.7575C41.946 55.0432 39.3995 57.2924 37.2516 59.448C37.1419 59.558 37.0333 59.6678 36.9258 59.7773C36.9022 59.6245 36.8797 59.4712 36.8583 59.3175C36.2537 54.9768 36.5247 50.3035 37.6651 45.4126C37.6973 45.2746 37.7301 45.1365 37.7637 44.9982ZM37.1881 58.987C36.6482 54.8379 36.9114 50.3774 37.9782 45.7056C40.4037 47.9897 42.5316 50.3365 44.3143 52.6919C41.6272 54.8374 39.234 56.9513 37.1881 58.987Z" fill="#01F2FF"/>
<path d="M36.9258 59.7773C36.2167 55.1861 36.4986 50.2136 37.7637 44.9982C40.498 47.5248 42.8746 50.1353 44.8275 52.7575C41.7989 55.1599 39.1404 57.5219 36.9258 59.7773Z" fill="#01F2FF" fill-opacity="0.2"/>
<path fill-rule="evenodd" clip-rule="evenodd" d="M37.7637 44.9982C37.8682 45.0947 37.9721 45.1914 38.0756 45.2882C40.679 47.7243 42.9493 50.2355 44.8275 52.7575C41.946 55.0432 39.3995 57.2924 37.2516 59.448C37.1419 59.558 37.0333 59.6678 36.9258 59.7773C36.9022 59.6245 36.8797 59.4712 36.8583 59.3175C36.2537 54.9772 36.5247 50.3039 37.6651 45.4126C37.6973 45.2746 37.7301 45.1365 37.7637 44.9982ZM37.1881 58.987C36.6482 54.8383 36.9114 50.3778 37.9782 45.7056C40.4036 47.9897 42.5316 50.3365 44.3143 52.6919C41.6272 54.8374 39.234 56.9513 37.1881 58.987Z" fill="#01F2FF"/>
<path d="M36.9258 59.7773C36.2167 55.1861 36.4986 50.2136 37.7637 44.9982C40.498 47.5248 42.8746 50.1353 44.8275 52.7575C41.7989 55.1599 39.1404 57.5219 36.9258 59.7773Z" fill="#01F2FF" fill-opacity="0.2"/>
<path fill-rule="evenodd" clip-rule="evenodd" d="M37.7637 44.9982C37.8682 45.0947 37.9721 45.1914 38.0756 45.2882C40.679 47.7243 42.9493 50.2355 44.8275 52.7575C41.946 55.0432 39.3995 57.2924 37.2516 59.448C37.1419 59.558 37.0333 59.6678 36.9258 59.7773C36.9022 59.6245 36.8797 59.4712 36.8583 59.3175C36.2537 54.9772 36.5247 50.3039 37.6651 45.4126C37.6973 45.2746 37.7301 45.1365 37.7637 44.9982ZM37.1881 58.987C36.6482 54.8383 36.9114 50.3778 37.9782 45.7056C40.4036 47.9897 42.5316 50.3365 44.3143 52.6919C41.6272 54.8374 39.234 56.9513 37.1881 58.987Z" fill="#01F2FF"/>
<path d="M36.9262 59.7773C39.5414 57.114 42.4369 54.6543 44.828 52.7575C42.7002 49.9005 40.2588 47.3033 37.7641 44.9982C36.6239 49.6991 36.1475 54.735 36.9262 59.7773Z" fill="#01F2FF" fill-opacity="0.7"/>
<path fill-rule="evenodd" clip-rule="evenodd" d="M36.9262 59.7773C36.9026 59.6241 36.8801 59.4708 36.8587 59.3175C36.1977 54.577 36.6305 49.851 37.6655 45.4126C37.6978 45.2742 37.7307 45.136 37.7641 44.9982C37.8682 45.0943 37.9721 45.191 38.076 45.2881C40.4619 47.5204 42.7889 50.0197 44.828 52.7575C42.5358 54.5759 39.7799 56.9115 37.252 59.448C37.143 59.5574 37.0344 59.6672 36.9262 59.7773ZM37.1885 58.9871C36.5997 54.469 37.0064 49.9618 37.9787 45.7056C40.2133 47.8096 42.3885 50.1464 44.3148 52.6919C42.1349 54.4328 39.5711 56.6172 37.1885 58.9871Z" fill="#01F2FF"/>
<path d="M62.8651 59.7783C60.6504 57.5224 57.9916 55.1605 54.9629 52.7581C56.9161 50.1359 59.2928 47.5254 62.0269 44.9987C63.2922 50.2142 63.5739 55.1867 62.8651 59.7783Z" fill="#01F2FF" fill-opacity="0.2"/>
<path fill-rule="evenodd" clip-rule="evenodd" d="M55.4761 52.6924C57.2591 50.3371 59.3871 47.9903 61.8124 45.7062C62.8794 50.3783 63.1424 54.8388 62.6028 58.9879C60.5567 56.9519 58.1633 54.8379 55.4761 52.6924ZM62.5393 59.4489C60.3913 57.293 57.8445 55.0438 54.9629 52.7581C56.8414 50.2361 59.1118 47.7249 61.715 45.2887C61.8185 45.192 61.9224 45.0953 62.0269 44.9987C62.0605 45.1371 62.0933 45.2752 62.1255 45.4132C63.2661 50.3044 63.537 54.9777 62.9326 59.3184C62.9112 59.4721 62.8887 59.6254 62.8651 59.7783C62.7575 59.6688 62.6489 59.559 62.5393 59.4489Z" fill="#01F2FF"/>
<path d="M62.8651 59.7783C60.6504 57.5224 57.9916 55.1605 54.9629 52.7581C56.9161 50.1359 59.2928 47.5254 62.0269 44.9987C63.2922 50.2142 63.5739 55.1867 62.8651 59.7783Z" fill="#01F2FF" fill-opacity="0.2"/>
<path fill-rule="evenodd" clip-rule="evenodd" d="M55.4761 52.6924C57.2591 50.3371 59.3871 47.9903 61.8124 45.7062C62.8794 50.3783 63.1424 54.8388 62.6028 58.9879C60.5567 56.9519 58.1633 54.8379 55.4761 52.6924ZM62.5393 59.4489C60.3913 57.293 57.8445 55.0438 54.9629 52.7581C56.8414 50.2361 59.1118 47.7249 61.715 45.2887C61.8185 45.192 61.9224 45.0953 62.0269 44.9987C62.0605 45.1371 62.0933 45.2752 62.1255 45.4132C63.2661 50.3044 63.537 54.9777 62.9326 59.3184C62.9112 59.4721 62.8887 59.6254 62.8651 59.7783C62.7575 59.6688 62.6489 59.559 62.5393 59.4489Z" fill="#01F2FF"/>
<path d="M62.8651 59.7783C60.6504 57.5224 57.9916 55.1605 54.9629 52.7581C56.9161 50.1359 59.2928 47.5254 62.0269 44.9987C63.2922 50.2142 63.5739 55.1867 62.8651 59.7783Z" fill="#01F2FF" fill-opacity="0.2"/>
<path fill-rule="evenodd" clip-rule="evenodd" d="M55.4761 52.6924C57.2591 50.3371 59.3871 47.9903 61.8124 45.7062C62.8794 50.3783 63.1424 54.8388 62.6028 58.9879C60.5567 56.9519 58.1633 54.8379 55.4761 52.6924ZM62.5393 59.4489C60.3913 57.293 57.8445 55.0438 54.9629 52.7581C56.8414 50.2361 59.1118 47.7249 61.715 45.2887C61.8185 45.192 61.9224 45.0953 62.0269 44.9987C62.0605 45.1371 62.0933 45.2752 62.1255 45.4132C63.2661 50.3044 63.537 54.9777 62.9326 59.3184C62.9112 59.4721 62.8887 59.6254 62.8651 59.7783C62.7575 59.6688 62.6489 59.559 62.5393 59.4489Z" fill="#01F2FF"/>
<path d="M54.9629 52.7581C57.3541 54.6549 60.2498 57.1145 62.8651 59.7783C63.6436 54.7356 63.1673 49.6997 62.0269 44.9987C59.5321 47.3038 57.091 49.9011 54.9629 52.7581Z" fill="#01F2FF" fill-opacity="0.7"/>
<path fill-rule="evenodd" clip-rule="evenodd" d="M55.4761 52.6925C57.4026 50.147 59.5777 47.8102 61.8124 45.7061C62.7848 49.9623 63.1915 54.4695 62.6028 58.988C60.22 56.6177 57.6561 54.4334 55.4761 52.6925ZM62.5393 59.449C60.0112 56.9121 57.2552 54.5765 54.9629 52.7581C57.0022 50.0202 59.329 47.521 61.715 45.2887C61.8189 45.1915 61.9228 45.0949 62.0269 44.9987C62.0603 45.1366 62.0932 45.2747 62.1255 45.4132C63.1607 49.8516 63.5934 54.5776 62.9326 59.3185C62.9112 59.4717 62.8887 59.625 62.8651 59.7783C62.7569 59.6682 62.6483 59.5584 62.5393 59.449Z" fill="#01F2FF"/>
<path d="M47.283 70.8926C44.6144 66.7395 41.1304 63.0041 36.9277 59.7903L36.9258 59.7774C39.1404 57.522 41.7989 55.16 44.8275 52.7576C46.8789 55.5118 48.4976 58.3257 49.6384 61.1206C49.7145 61.307 49.7939 61.5047 49.8955 61.761C48.5314 65.2023 47.6522 68.2748 47.283 70.8926Z" fill="#01F2FF" fill-opacity="0.45"/>
<path fill-rule="evenodd" clip-rule="evenodd" d="M49.2949 61.2608L49.295 61.2609C49.3565 61.4115 49.4202 61.5698 49.4964 61.7613C48.3148 64.7621 47.4979 67.4921 47.0679 69.8924C44.5207 66.1266 41.2989 62.7185 37.4781 59.7463C39.5469 57.6668 41.9923 55.4964 44.7576 53.2875C46.6849 55.9211 48.2098 58.6023 49.2949 61.2608ZM45.048 53.0562C44.9751 52.9566 44.9016 52.8571 44.8275 52.7576C44.7303 52.8347 44.6335 52.9118 44.5371 52.9888C41.7438 55.2196 39.2723 57.4137 37.1821 59.5179C37.114 59.5865 37.0462 59.655 36.9789 59.7234C36.9612 59.7414 36.9435 59.7594 36.9258 59.7774L36.9277 59.7903C36.9447 59.8033 36.9617 59.8163 36.9787 59.8293C37.0578 59.89 37.1367 59.9509 37.2154 60.012C41.1325 63.0535 44.4134 66.5532 46.9779 70.425C47.0808 70.5802 47.1825 70.7361 47.283 70.8926C47.3086 70.711 47.3367 70.5272 47.3672 70.3413C47.7765 67.8468 48.626 64.9636 49.8955 61.761C49.7939 61.5047 49.7145 61.307 49.6384 61.1206C48.5388 58.4266 46.9951 55.715 45.048 53.0562Z" fill="#01F2FF"/>
<path d="M47.283 70.8926C44.6144 66.7395 41.1304 63.0041 36.9277 59.7903L36.9258 59.7774C39.1404 57.522 41.7989 55.16 44.8275 52.7576C46.8789 55.5118 48.4976 58.3257 49.6384 61.1206C49.7153 61.3091 49.7947 61.5064 49.8955 61.761C48.5314 65.2023 47.6522 68.2748 47.283 70.8926Z" fill="#01F2FF" fill-opacity="0.45"/>
<path d="M47.3192 71.168C47.6557 68.7822 48.4443 65.7883 49.9316 62.0363C49.8478 61.8249 49.7628 61.6123 49.6746 61.396C48.4568 58.4131 46.7885 55.6173 44.8637 53.033C42.4726 54.9298 39.577 57.3894 36.9619 60.0528C36.9626 60.0573 36.9632 60.0617 36.9639 60.0657C40.7062 62.9276 44.3645 66.5695 47.3192 71.168Z" fill="#01F2FF" fill-opacity="0.6"/>
<path d="M47.3192 71.168C47.6557 68.7822 48.4443 65.7883 49.9316 62.0363C49.8478 61.8249 49.7628 61.6123 49.6746 61.396C48.4568 58.4131 46.7885 55.6173 44.8637 53.033C42.4726 54.9298 39.577 57.3894 36.9619 60.0528C36.9626 60.0573 36.9632 60.0617 36.9639 60.0657C40.7062 62.9276 44.3645 66.5695 47.3192 71.168Z" fill="#01F2FF" fill-opacity="0.6"/>
<path fill-rule="evenodd" clip-rule="evenodd" d="M47.2831 70.8926C47.1822 70.7356 47.0805 70.5797 46.978 70.4249C44.1554 66.1625 40.7296 62.7405 37.2154 60.012C37.1365 59.9507 37.0575 59.8898 36.9785 59.8292C36.9616 59.8162 36.9447 59.8033 36.9278 59.7903C36.9271 59.7863 36.9264 59.7819 36.9258 59.7774C36.9435 59.7593 36.9613 59.7413 36.9791 59.7232C37.0466 59.6546 37.1143 59.5862 37.1822 59.5179C39.6233 57.0608 42.2835 54.789 44.5372 52.9888C44.6347 52.9109 44.7315 52.8338 44.8275 52.7577C44.8275 52.7576 44.8276 52.7576 44.8276 52.7576C44.9015 52.8569 44.975 52.9564 45.0481 53.0562C46.8798 55.5569 48.4674 58.2522 49.6384 61.1206C49.7267 61.3369 49.8117 61.5495 49.8955 61.761C48.5206 65.2294 47.7427 68.05 47.3672 70.3412C47.3365 70.5285 47.3085 70.7123 47.2831 70.8926ZM47.0678 69.8921C44.2718 65.7569 40.9158 62.4204 37.4781 59.7463C39.893 57.3193 42.5232 55.0728 44.7576 53.2875C46.5712 55.765 48.1393 58.43 49.295 61.2608C49.3637 61.4293 49.4305 61.5957 49.4965 61.7613C48.2231 64.9945 47.4649 67.6732 47.0678 69.8921Z" fill="#01F2FF"/>
<path d="M52.507 70.8926C52.1378 68.2748 51.2586 65.2023 49.8945 61.761C49.9941 61.51 50.0755 61.3066 50.1516 61.1206C51.2924 58.3257 52.9111 55.5118 54.9622 52.7576C57.9909 55.16 60.6497 57.522 62.8644 59.7778L62.8624 59.7903C58.6595 63.0041 55.1758 66.7395 52.507 70.8926Z" fill="#01F2FF" fill-opacity="0.45"/>
<path fill-rule="evenodd" clip-rule="evenodd" d="M52.4228 70.3413C52.4533 70.5272 52.4814 70.711 52.507 70.8926C52.6075 70.7361 52.7092 70.5803 52.8121 70.425C55.3767 66.5533 58.6573 63.0536 62.5745 60.0121C62.654 59.9504 62.7337 59.889 62.8137 59.8276C62.8299 59.8152 62.8462 59.8028 62.8624 59.7903L62.8644 59.7778C62.8471 59.7602 62.8297 59.7425 62.8123 59.7248C62.7445 59.656 62.6764 59.587 62.6078 59.518C60.5175 57.4135 58.046 55.2195 55.2527 52.9888C55.1562 52.9118 55.0594 52.8347 54.9622 52.7576C54.8882 52.8571 54.8147 52.9566 54.7417 53.0562C52.7949 55.715 51.2512 58.4266 50.1516 61.1206C50.0755 61.3066 49.9941 61.51 49.8945 61.761C51.164 64.9636 52.0135 67.8468 52.4228 70.3413ZM52.7221 69.8924C52.2921 67.4922 51.4752 64.7622 50.2936 61.7613C50.3689 61.5719 50.4337 61.4107 50.4949 61.2612L50.4951 61.2608C51.5802 58.6023 53.1051 55.9211 55.0322 53.2875C57.7974 55.4964 60.243 57.6667 62.3118 59.7465C58.4909 62.7186 55.2694 66.1267 52.7221 69.8924Z" fill="#01F2FF"/>
<path d="M52.507 70.8926C52.1378 68.2748 51.2586 65.2023 49.8945 61.761C49.9937 61.5112 50.0751 61.3078 50.1516 61.1206C51.2924 58.3257 52.9111 55.5118 54.9622 52.7576C57.9909 55.16 60.6497 57.522 62.8644 59.7778L62.8624 59.7903C58.6595 63.0041 55.1754 66.7395 52.507 70.8926Z" fill="#01F2FF" fill-opacity="0.45"/>
<path fill-rule="evenodd" clip-rule="evenodd" d="M52.4228 70.3413C52.4533 70.5272 52.4814 70.711 52.507 70.8926C52.6075 70.7361 52.7092 70.5802 52.8121 70.4249C55.3764 66.5533 58.6573 63.0535 62.5745 60.0121C62.654 59.9504 62.7337 59.889 62.8137 59.8276C62.8299 59.8152 62.8462 59.8028 62.8624 59.7903L62.8644 59.7778C62.8471 59.7602 62.8297 59.7425 62.8123 59.7248C62.7445 59.656 62.6764 59.587 62.6078 59.518C60.5175 57.4135 58.046 55.2195 55.2527 52.9888C55.1562 52.9118 55.0594 52.8347 54.9622 52.7576C54.8882 52.8571 54.8147 52.9566 54.7417 53.0562C52.7949 55.715 51.2512 58.4266 50.1516 61.1206C50.0751 61.3078 49.9937 61.5112 49.8945 61.761C51.164 64.9635 52.0135 67.8467 52.4228 70.3413ZM52.7221 69.8923C52.2921 67.4921 51.4752 64.7622 50.2936 61.7614C50.3687 61.5728 50.4335 61.4115 50.495 61.2611L50.4951 61.2608C51.5802 58.6023 53.1051 55.9211 55.0322 53.2875C57.7974 55.4964 60.243 57.6667 62.3118 59.7465C58.4909 62.7186 55.2691 66.1266 52.7221 69.8923Z" fill="#01F2FF"/>
<path d="M52.507 70.8926C52.1378 68.2748 51.2586 65.2023 49.8945 61.761C49.9937 61.5112 50.0751 61.3078 50.1516 61.1206C51.2924 58.3257 52.9111 55.5118 54.9622 52.7576C57.9909 55.16 60.6497 57.522 62.8644 59.7778L62.8624 59.7903C58.6595 63.0041 55.1754 66.7395 52.507 70.8926Z" fill="#01F2FF" fill-opacity="0.45"/>
<path fill-rule="evenodd" clip-rule="evenodd" d="M52.4228 70.3413C52.4533 70.5272 52.4814 70.711 52.507 70.8926C52.6075 70.7361 52.7092 70.5802 52.8121 70.4249C55.3764 66.5533 58.6573 63.0535 62.5745 60.0121C62.654 59.9504 62.7337 59.889 62.8137 59.8276C62.8299 59.8152 62.8462 59.8028 62.8624 59.7903L62.8644 59.7778C62.8471 59.7602 62.8297 59.7425 62.8123 59.7248C62.7445 59.656 62.6764 59.587 62.6078 59.518C60.5175 57.4135 58.046 55.2195 55.2527 52.9888C55.1562 52.9118 55.0594 52.8347 54.9622 52.7576C54.8882 52.8571 54.8147 52.9566 54.7417 53.0562C52.7949 55.715 51.2512 58.4266 50.1516 61.1206C50.0751 61.3078 49.9937 61.5112 49.8945 61.761C51.164 64.9635 52.0135 67.8467 52.4228 70.3413ZM52.7221 69.8923C52.2921 67.4921 51.4752 64.7622 50.2936 61.7614C50.3687 61.5728 50.4335 61.4115 50.495 61.2611L50.4951 61.2608C51.5802 58.6023 53.1051 55.9211 55.0322 53.2875C57.7974 55.4964 60.243 57.6667 62.3118 59.7465C58.4909 62.7186 55.2691 66.1266 52.7221 69.8923Z" fill="#01F2FF"/>
<path d="M54.9622 52.7576C53.0377 55.3419 51.3694 58.1377 50.1516 61.1206C50.0634 61.3369 49.9783 61.5495 49.8945 61.761C51.3819 65.5129 52.1705 68.5068 52.507 70.8926C55.4615 66.2945 59.1201 62.6522 62.8624 59.7903C62.8628 59.7863 62.8636 59.7819 62.8644 59.7778C60.2492 57.114 57.3534 54.6544 54.9622 52.7576Z" fill="#01F2FF" fill-opacity="0.6"/>
<path fill-rule="evenodd" clip-rule="evenodd" d="M55.2526 52.9888C55.1551 52.9109 55.0582 52.8338 54.9622 52.7576C54.8883 52.8569 54.8148 52.9564 54.7417 53.0562C52.9102 55.5569 51.3226 58.2522 50.1516 61.1206C50.0634 61.3369 49.9783 61.5495 49.8945 61.761C51.2695 65.2294 52.0473 68.05 52.4228 70.3412C52.4535 70.5285 52.4815 70.7123 52.507 70.8926C52.6079 70.7356 52.7096 70.5797 52.8121 70.4249C55.6345 66.163 59.0604 62.7407 62.5746 60.0121C62.6542 59.9503 62.7339 59.8888 62.8137 59.8277C62.8299 59.8152 62.8462 59.8028 62.8624 59.7903C62.8626 59.7884 62.8629 59.7864 62.8632 59.7844C62.8636 59.7822 62.864 59.7799 62.8644 59.7778C62.8471 59.7601 62.8297 59.7425 62.8123 59.7248C62.7443 59.6557 62.6761 59.5868 62.6078 59.518C60.1666 57.0607 57.5063 54.789 55.2526 52.9888ZM55.0322 53.2875C57.2666 55.0728 59.8969 57.3192 62.3118 59.7465C58.8742 62.4206 55.5181 65.7573 52.7222 69.8921C52.3252 67.6732 51.5669 64.9945 50.2936 61.7613C50.3595 61.5957 50.4264 61.4293 50.4951 61.2608C51.6508 58.43 53.2189 55.765 55.0322 53.2875Z" fill="#01F2FF"/>
<path d="M49.8574 79.9688C49.7454 79.9683 49.6342 79.9671 49.5226 79.9655L49.3787 79.9635C48.8839 79.9054 48.0908 79.7363 47.1229 79.2623C45.9605 78.6929 44.8427 77.8303 43.8005 76.6989C42.4621 75.246 41.2558 73.3528 40.2152 71.0724C38.9673 68.3367 37.9429 65.0084 37.1706 61.1798C37.0864 60.7622 37.0089 60.3208 36.9268 59.7902C41.1294 63.0039 44.6134 66.7394 47.2821 70.8924C46.2482 78.2217 49.4847 79.8114 49.8574 79.9688Z" fill="#01F2FF" fill-opacity="0.9"/>
<path fill-rule="evenodd" clip-rule="evenodd" d="M49.4083 79.7117C49.4492 79.7403 49.4882 79.7662 49.525 79.7896C49.5251 79.7896 49.5251 79.7897 49.5251 79.7897C49.6835 79.8904 49.8021 79.9454 49.8574 79.9688C49.7454 79.9683 49.6342 79.9671 49.5226 79.9655L49.3787 79.9635C49.2832 79.9523 49.1765 79.9369 49.0596 79.916C48.5711 79.8288 47.904 79.6448 47.1229 79.2623C45.9605 78.6929 44.8427 77.8303 43.8005 76.6989C42.4621 75.246 41.2558 73.3528 40.2152 71.0724C38.9673 68.3367 37.9429 65.0084 37.1706 61.1798C37.1163 60.9106 37.0648 60.6316 37.0131 60.3252C36.9846 60.1562 36.956 59.9788 36.9268 59.7902C37.0704 59.9 37.2133 60.0105 37.3553 60.1216C41.3667 63.2598 44.7047 66.8813 47.2821 70.8924C46.4907 76.5027 48.2015 78.75 49.2146 79.5661C49.2731 79.6132 49.3293 79.6555 49.3825 79.6935C49.3912 79.6997 49.3998 79.7057 49.4083 79.7117ZM48.501 79.4038C48.1466 79.3009 47.737 79.15 47.2861 78.9291L47.2861 78.9291C46.172 78.3834 45.0902 77.5514 44.0733 76.4476C42.7675 75.03 41.5812 73.1723 40.5528 70.9184L40.2157 71.0722L40.5528 70.9184C39.3195 68.2149 38.3025 64.915 37.5343 61.1064C37.5056 60.9645 37.4778 60.8197 37.4502 60.6691C41.249 63.6935 44.4225 67.1579 46.8958 70.9779C46.4036 74.6184 46.9517 76.894 47.7165 78.2975C47.9675 78.7581 48.2395 79.1206 48.501 79.4038Z" fill="#01F2FF"/>
<path d="M49.8574 79.9688C49.7454 79.9683 49.6342 79.9671 49.5226 79.9655L49.3787 79.9635C48.8839 79.9054 48.0908 79.7363 47.1229 79.2623C45.9605 78.6929 44.8427 77.8303 43.8005 76.6989C42.4621 75.246 41.2558 73.3528 40.2152 71.0724C38.9673 68.3371 37.9429 65.0084 37.1706 61.1798C37.0864 60.7622 37.0089 60.3208 36.9268 59.7902C41.1295 63.0039 44.6135 66.7394 47.2821 70.8924C46.2482 78.2221 49.4847 79.8114 49.8574 79.9688Z" fill="#01F2FF" fill-opacity="0.8"/>
<path fill-rule="evenodd" clip-rule="evenodd" d="M49.4083 79.7117C49.4492 79.7403 49.4882 79.7662 49.525 79.7896C49.5251 79.7897 49.5251 79.7897 49.5251 79.7897C49.6835 79.8904 49.8021 79.9454 49.8574 79.9688C49.7454 79.9683 49.6342 79.9671 49.5226 79.9655L49.3787 79.9635C49.2832 79.9523 49.1765 79.9369 49.0596 79.916C48.5711 79.8287 47.9039 79.6448 47.1229 79.2623C45.9605 78.6929 44.8427 77.8303 43.8005 76.6989C42.4621 75.246 41.2558 73.3528 40.2152 71.0724C38.9673 68.3371 37.9429 65.0084 37.1706 61.1798C37.1163 60.9106 37.0649 60.6316 37.0131 60.3252C36.9846 60.1562 36.956 59.9788 36.9268 59.7902C37.0704 59.9 37.2133 60.0105 37.3553 60.1216C41.3667 63.2598 44.7047 66.8813 47.2821 70.8924C46.4907 76.5029 48.2014 78.75 49.2146 79.5661C49.2731 79.6132 49.3293 79.6556 49.3825 79.6935C49.3912 79.6997 49.3998 79.7058 49.4083 79.7117ZM48.5008 79.4037C48.1465 79.3008 47.737 79.1499 47.2861 78.9291L47.2861 78.9291C46.172 78.3834 45.0902 77.5514 44.0733 76.4476C42.7675 75.03 41.5812 73.1723 40.5528 70.9184C39.3195 68.2153 38.3025 64.9151 37.5343 61.1064C37.5056 60.9645 37.4778 60.8197 37.4502 60.6691C41.2491 63.6936 44.4225 67.1579 46.8958 70.9779C46.4036 74.6186 46.9517 76.8942 47.7165 78.2977C47.9674 78.7582 48.2394 79.1206 48.5008 79.4037Z" fill="#01F2FF"/>
<path fill-rule="evenodd" clip-rule="evenodd" d="M49.4083 79.7117C49.4492 79.7403 49.4882 79.7662 49.525 79.7896C49.5251 79.7897 49.5251 79.7897 49.5251 79.7897C49.6835 79.8904 49.8021 79.9454 49.8574 79.9688C49.7454 79.9683 49.6342 79.9671 49.5226 79.9655L49.3787 79.9635C49.2832 79.9523 49.1765 79.9369 49.0596 79.916C48.5711 79.8287 47.9039 79.6448 47.1229 79.2623C45.9605 78.6929 44.8427 77.8303 43.8005 76.6989C42.4621 75.246 41.2558 73.3528 40.2152 71.0724C38.9673 68.3371 37.9429 65.0084 37.1706 61.1798C37.1163 60.9106 37.0649 60.6316 37.0131 60.3252C36.9846 60.1562 36.956 59.9788 36.9268 59.7902C37.0704 59.9 37.2133 60.0105 37.3553 60.1216C41.3667 63.2598 44.7047 66.8813 47.2821 70.8924C46.4907 76.5029 48.2014 78.75 49.2146 79.5661C49.2731 79.6132 49.3293 79.6556 49.3825 79.6935C49.3912 79.6997 49.3998 79.7058 49.4083 79.7117ZM48.5008 79.4037C48.1465 79.3008 47.737 79.1499 47.2861 78.9291L47.2861 78.9291C46.172 78.3834 45.0902 77.5514 44.0733 76.4476C42.7675 75.03 41.5812 73.1723 40.5528 70.9184C39.3195 68.2153 38.3025 64.9151 37.5343 61.1064C37.5056 60.9645 37.4778 60.8197 37.4502 60.6691C41.2491 63.6936 44.4225 67.1579 46.8958 70.9779C46.4036 74.6186 46.9517 76.8942 47.7165 78.2977C47.9674 78.7582 48.2394 79.1206 48.5008 79.4037Z" fill="#01F2FF"/>
<path fill-rule="evenodd" clip-rule="evenodd" d="M47.2821 70.8928C46.4905 76.504 48.2001 78.7505 49.214 79.5664C49.2726 79.6135 49.3288 79.6559 49.3821 79.6938C49.3909 79.7001 49.3996 79.7062 49.4083 79.7123C49.6242 79.863 49.7884 79.9397 49.8574 79.9688C49.7329 79.9688 49.6093 79.967 49.4855 79.9653C49.45 79.9648 49.4144 79.9644 49.3787 79.9639C49.2838 79.9527 49.1769 79.9374 49.059 79.9163C46.7693 79.5064 40.349 76.937 37.1706 61.1802C37.1131 60.8953 37.0613 60.6105 37.0132 60.3257C36.9831 60.1473 36.9544 59.9689 36.9268 59.7906C37.0697 59.8999 37.2126 60.0104 37.3553 60.1221C40.9476 62.9322 44.4403 66.47 47.2821 70.8928ZM37.4503 60.6695C40.8699 63.3917 44.1793 66.7821 46.8958 70.9783C46.4037 74.6175 46.9505 76.8926 47.7146 78.2961C47.9657 78.7574 48.2379 79.1203 48.4997 79.4037C47.4154 79.0887 45.7976 78.32 44.0733 76.4481C41.7415 73.9168 39.1966 69.3479 37.5342 61.1069M37.4503 60.6695C37.477 60.8155 37.5049 60.9612 37.5342 61.1068L37.4503 60.6695Z" fill="#01F2FF"/>
<path d="M49.9326 79.9688C50.3054 79.8114 53.542 78.2213 52.508 70.8924C55.1768 66.7394 58.6605 63.0039 62.8634 59.7902C62.7808 60.322 62.7034 60.7634 62.6196 61.1798C61.8471 65.0088 60.8228 68.3371 59.5748 71.0724C58.5343 73.3528 57.3283 75.246 55.9896 76.6989C54.9475 77.8303 53.8297 78.6929 52.6671 79.2623C51.6992 79.7363 50.9062 79.9054 50.4113 79.9635L50.2679 79.9655C50.1563 79.9671 50.0446 79.9683 49.9326 79.9688Z" fill="#01F2FF" fill-opacity="0.9"/>
<path d="M49.9326 79.9688C50.3054 79.8114 53.542 78.2213 52.508 70.8924C55.1768 66.7394 58.6605 63.0039 62.8634 59.7902C62.7808 60.322 62.7034 60.7634 62.6196 61.1798C61.8471 65.0088 60.8228 68.3371 59.5748 71.0724C58.5343 73.3528 57.3283 75.246 55.9896 76.6989C54.9475 77.8303 53.8297 78.6929 52.6671 79.2623C51.6992 79.7363 50.9062 79.9054 50.4113 79.9635L50.2679 79.9655C50.1563 79.9671 50.0446 79.9683 49.9326 79.9688Z" fill="#01F2FF" fill-opacity="0.7"/>
<path fill-rule="evenodd" clip-rule="evenodd" d="M50.5754 79.5661C51.5886 78.75 53.2995 76.5025 52.508 70.8924C55.0856 66.8814 58.4232 63.2599 62.4347 60.1217C62.5768 60.0106 62.7197 59.9001 62.8634 59.7902C62.8341 59.979 62.8054 60.1564 62.7769 60.3253C62.7251 60.6322 62.6737 60.9112 62.6196 61.1798C61.8471 65.0088 60.8228 68.3371 59.5748 71.0724C58.5343 73.3528 57.3283 75.246 55.9896 76.6989C54.9475 77.8303 53.8297 78.6929 52.6671 79.2623C51.8861 79.6448 51.2189 79.8288 50.7304 79.9161C50.6135 79.9369 50.5069 79.9523 50.4113 79.9635L50.2679 79.9655C50.1563 79.9671 50.0446 79.9683 49.9326 79.9688C49.988 79.9454 50.1068 79.8903 50.2653 79.7894C50.2654 79.7894 50.2654 79.7894 50.2654 79.7894C50.3022 79.766 50.341 79.7401 50.3818 79.7117C50.3903 79.7057 50.3989 79.6997 50.4075 79.6935C50.4607 79.6555 50.5169 79.6132 50.5754 79.5661ZM51.289 79.4038C51.6434 79.3009 52.053 79.15 52.504 78.9291L52.504 78.9291C53.6182 78.3834 54.7001 77.5514 55.7167 76.4476L55.7168 76.4476C57.0228 75.03 58.2089 73.1723 59.2373 70.9184L59.2373 70.9184C60.4706 68.2153 61.4875 64.9155 62.256 61.1064C62.2845 60.9647 62.3123 60.8199 62.3399 60.6692C58.5409 63.6936 55.3678 67.1579 52.8943 70.9779C53.3866 74.6182 52.8384 76.8938 52.0736 78.2974C51.8226 78.7581 51.5505 79.1206 51.289 79.4038Z" fill="#01F2FF"/>
<path fill-rule="evenodd" clip-rule="evenodd" d="M50.5754 79.5661C51.5886 78.75 53.2995 76.5025 52.508 70.8924C55.0852 66.8813 58.4232 63.2598 62.4349 60.1216C62.5769 60.0105 62.7197 59.9 62.8634 59.7902C62.8342 59.9789 62.8056 60.1563 62.777 60.3252C62.7252 60.632 62.6737 60.911 62.6196 61.1798C61.8471 65.0084 60.8228 68.3371 59.5748 71.0724C58.5343 73.3528 57.3279 75.246 55.9896 76.6989C54.9475 77.8303 53.8297 78.6929 52.6671 79.2623C51.8861 79.6448 51.2189 79.8288 50.7304 79.9161C50.6135 79.9369 50.5069 79.9523 50.4113 79.9635L50.2679 79.9655C50.1563 79.9671 50.0446 79.9683 49.9326 79.9688C49.988 79.9454 50.1068 79.8903 50.2653 79.7894C50.2654 79.7894 50.2654 79.7894 50.2654 79.7894C50.3022 79.766 50.341 79.7401 50.3818 79.7117C50.3903 79.7057 50.3989 79.6997 50.4075 79.6935C50.4607 79.6555 50.5169 79.6132 50.5754 79.5661ZM51.289 79.4038C51.5505 79.1206 51.8226 78.7581 52.0736 78.2974C52.8384 76.8938 53.3866 74.6182 52.8943 70.9779C55.3674 67.1579 58.5409 63.6936 62.3399 60.6691C62.3123 60.8197 62.2845 60.9646 62.256 61.1064C61.4875 64.9151 60.4706 68.2153 59.2373 70.9184L59.2373 70.9184C58.209 73.1723 57.0224 75.03 55.7167 76.4476C54.7001 77.5514 53.6182 78.3834 52.504 78.9291L52.504 78.9291C52.053 79.15 51.6434 79.3009 51.289 79.4038Z" fill="#01F2FF"/>
<path fill-rule="evenodd" clip-rule="evenodd" d="M50.5754 79.5661C51.5886 78.75 53.2995 76.5025 52.508 70.8924C55.0852 66.8813 58.4232 63.2598 62.4349 60.1216C62.5769 60.0105 62.7197 59.9 62.8634 59.7902C62.8342 59.9789 62.8056 60.1563 62.777 60.3252C62.7252 60.632 62.6737 60.911 62.6196 61.1798C61.8471 65.0084 60.8228 68.3371 59.5748 71.0724C58.5343 73.3528 57.3279 75.246 55.9896 76.6989C54.9475 77.8303 53.8297 78.6929 52.6671 79.2623C51.8861 79.6448 51.2189 79.8288 50.7304 79.9161C50.6135 79.9369 50.5069 79.9523 50.4113 79.9635L50.2679 79.9655C50.1563 79.9671 50.0446 79.9683 49.9326 79.9688C49.988 79.9454 50.1068 79.8903 50.2653 79.7894C50.2654 79.7894 50.2654 79.7894 50.2654 79.7894C50.3022 79.766 50.341 79.7401 50.3818 79.7117C50.3903 79.7057 50.3989 79.6997 50.4075 79.6935C50.4607 79.6555 50.5169 79.6132 50.5754 79.5661ZM51.289 79.4038C51.5505 79.1206 51.8226 78.7581 52.0736 78.2974C52.8384 76.8938 53.3866 74.6182 52.8943 70.9779C55.3674 67.1579 58.5409 63.6936 62.3399 60.6691C62.3123 60.8197 62.2845 60.9646 62.256 61.1064C61.4875 64.9151 60.4706 68.2153 59.2373 70.9184L59.2373 70.9184C58.209 73.1723 57.0224 75.03 55.7167 76.4476C54.7001 77.5514 53.6182 78.3834 52.504 78.9291L52.504 78.9291C52.053 79.15 51.6434 79.3009 51.289 79.4038Z" fill="#01F2FF"/>
<path fill-rule="evenodd" clip-rule="evenodd" d="M52.508 70.8928C55.3496 66.4704 58.8425 62.9322 62.4348 60.1221C62.5775 60.0104 62.7204 59.8999 62.8634 59.7906C62.8358 59.969 62.8071 60.1473 62.7769 60.3257C62.7288 60.6105 62.6769 60.8954 62.6196 61.1802C59.441 76.937 53.0207 79.5064 50.7311 79.9163C50.6132 79.9374 50.5063 79.9527 50.4113 79.9639C50.3757 79.9644 50.3401 79.9648 50.3045 79.9653C50.1808 79.967 50.0572 79.9688 49.9326 79.9688C50.0016 79.9397 50.1658 79.863 50.3818 79.7123C50.3904 79.7062 50.3991 79.7001 50.4079 79.6938C50.4612 79.6559 50.5175 79.6135 50.5761 79.5664C51.5899 78.7505 53.2996 76.504 52.508 70.8928ZM51.2903 79.4037C51.5521 79.1203 51.8244 78.7573 52.0755 78.2961C52.8395 76.8926 53.3864 74.6175 52.8943 70.9783C55.6107 66.7825 58.9201 63.3918 62.3398 60.6696C62.3131 60.8155 62.2852 60.9613 62.256 61.1068C60.5935 69.3479 58.0486 73.9168 55.7168 76.4481C53.9924 78.32 52.3747 79.0887 51.2903 79.4037Z" fill="#01F2FF"/>
<path d="M49.8956 75.6289C49.1421 74.0109 48.2632 72.4176 47.2832 70.8924C47.6523 68.2746 48.5316 65.2021 49.8956 61.7608C51.2597 65.2021 52.139 68.2746 52.5081 70.8924C51.5281 72.4176 50.6492 74.0109 49.8956 75.6289Z" fill="#01F2FF" fill-opacity="0.9"/>
<path d="M49.8956 75.6289C49.1421 74.0109 48.2632 72.4176 47.2832 70.8924C47.6523 68.2746 48.5316 65.2021 49.8956 61.7608C51.2597 65.2021 52.139 68.2746 52.5081 70.8924C51.5281 72.4176 50.6492 74.0109 49.8956 75.6289Z" fill="#01F2FF" fill-opacity="0.7"/>
<path fill-rule="evenodd" clip-rule="evenodd" d="M47.6701 70.8087C48.0114 68.4852 48.7574 65.7916 49.8956 62.7871C51.0339 65.7916 51.7798 68.4852 52.1212 70.8087C51.3039 72.0901 50.5574 73.4184 49.8956 74.7686C49.2339 73.4184 48.4874 72.0901 47.6701 70.8087ZM49.69 75.1945C48.9837 73.7259 48.1754 72.2809 47.2832 70.8924C47.6341 68.4042 48.4458 65.5051 49.6967 62.269C49.7618 62.1005 49.8281 61.9311 49.8956 61.7608C49.9631 61.9311 50.0295 62.1005 50.0946 62.269C51.3455 65.5051 52.1572 68.4042 52.5081 70.8924C51.6159 72.2809 50.8075 73.7259 50.1012 75.1945C50.0317 75.3391 49.9632 75.4839 49.8956 75.6289C49.8281 75.4839 49.7596 75.3391 49.69 75.1945Z" fill="#01F2FF"/>
<path fill-rule="evenodd" clip-rule="evenodd" d="M47.6701 70.8087C48.0114 68.4852 48.7574 65.7916 49.8956 62.7871C51.0339 65.7916 51.7798 68.4852 52.1212 70.8087C51.3042 72.0898 50.5575 73.4184 49.8956 74.7686C49.2339 73.4184 48.4874 72.0901 47.6701 70.8087ZM49.69 75.1945C48.9837 73.7259 48.1754 72.2809 47.2832 70.8924C47.6341 68.4042 48.4458 65.5051 49.6967 62.269C49.7618 62.1005 49.8281 61.9311 49.8956 61.7608C49.9631 61.9311 50.0295 62.1005 50.0946 62.269C51.3455 65.5051 52.1572 68.4042 52.5081 70.8924C51.6162 72.2805 50.8076 73.7258 50.1012 75.1945C50.0317 75.3391 49.9632 75.4839 49.8956 75.6289C49.8281 75.4839 49.7596 75.3391 49.69 75.1945Z" fill="#01F2FF"/>
<path fill-rule="evenodd" clip-rule="evenodd" d="M47.6701 70.8087C48.0114 68.4852 48.7574 65.7916 49.8956 62.7871C51.0339 65.7916 51.7798 68.4852 52.1212 70.8087C51.3042 72.0898 50.5575 73.4184 49.8956 74.7686C49.2339 73.4184 48.4874 72.0901 47.6701 70.8087ZM49.69 75.1945C48.9837 73.7259 48.1754 72.2809 47.2832 70.8924C47.6341 68.4042 48.4458 65.5051 49.6967 62.269C49.7618 62.1005 49.8281 61.9311 49.8956 61.7608C49.9631 61.9311 50.0295 62.1005 50.0946 62.269C51.3455 65.5051 52.1572 68.4042 52.5081 70.8924C51.6162 72.2805 50.8076 73.7258 50.1012 75.1945C50.0317 75.3391 49.9632 75.4839 49.8956 75.6289C49.8281 75.4839 49.7596 75.3391 49.69 75.1945Z" fill="#01F2FF"/>
<path d="M49.8593 79.9688C49.4865 79.8114 46.25 78.2221 47.2839 70.8924C48.2639 72.4176 49.1428 74.0109 49.8963 75.6289C50.6499 74.0109 51.5291 72.4172 52.5088 70.8924C53.5428 78.2213 50.3061 79.8114 49.9334 79.9688H49.8963H49.8593Z" fill="#01F2FF" fill-opacity="0.6"/>
<path fill-rule="evenodd" clip-rule="evenodd" d="M49.8593 79.9688C49.4965 79.8156 46.421 78.3061 47.21 71.4682C47.2316 71.2803 47.2562 71.0884 47.2839 70.8924C47.3883 71.0549 47.4916 71.2182 47.5937 71.3822C48.3639 72.6195 49.0671 73.8978 49.6907 75.1945C49.7603 75.3391 49.8288 75.4839 49.8963 75.6289C49.9639 75.4839 50.0324 75.3391 50.1019 75.1945C50.7256 73.8978 51.429 72.6193 52.199 71.3823C52.3011 71.2182 52.4043 71.0549 52.5088 70.8924C52.5364 71.0884 52.561 71.2803 52.5827 71.4682C53.3717 78.3053 50.2962 79.8156 49.9334 79.9688H49.8593ZM49.8963 79.5757C49.6218 79.432 48.9421 78.9928 48.3698 77.9427C47.7592 76.8222 47.2535 74.9738 47.5291 71.9858C48.2783 73.2218 48.9594 74.496 49.56 75.7855L49.8963 76.5076L50.2326 75.7855C50.8332 74.496 51.5145 73.2217 52.2636 71.9859C52.5391 74.9735 52.0335 76.8218 51.4228 77.9424C50.8506 78.9926 50.1708 79.432 49.8963 79.5757Z" fill="#01F2FF"/>
<path d="M49.8592 79.9688C49.4865 79.8114 46.25 78.2221 47.2839 70.8924C48.2639 72.4176 49.1428 74.0109 49.8963 75.6289C50.6499 74.0109 51.5291 72.4172 52.5087 70.8924C53.5428 78.2217 50.3061 79.8114 49.9334 79.9688C49.9233 79.9688 49.8963 79.9688 49.8963 79.9688H49.8592Z" fill="#01F2FF" fill-opacity="0.6"/>
<path fill-rule="evenodd" clip-rule="evenodd" d="M49.8592 79.9688C49.4965 79.8156 46.421 78.3061 47.21 71.4682C47.2316 71.2803 47.2562 71.0884 47.2839 70.8924C47.3883 71.0549 47.4916 71.2182 47.5937 71.3823C48.3639 72.6195 49.0671 73.8978 49.6907 75.1945C49.7602 75.3391 49.8288 75.4839 49.8963 75.6289C49.9638 75.4839 50.0324 75.3391 50.1019 75.1945C50.7256 73.8978 51.429 72.6193 52.1989 71.3823C52.301 71.2182 52.4043 71.0549 52.5087 70.8924C52.5364 71.0884 52.561 71.2803 52.5827 71.4682C53.3717 78.3057 50.2962 79.8156 49.9334 79.9688H49.8592ZM49.8963 79.5757C49.6218 79.432 48.9421 78.9928 48.3698 77.9427C47.7592 76.8222 47.2536 74.9738 47.5291 71.9859C48.2783 73.2218 48.9594 74.496 49.56 75.7855L49.8963 76.5076L50.2326 75.7855C50.8332 74.496 51.5145 73.2217 52.2635 71.9859C52.5391 74.9737 52.0334 76.822 51.4228 77.9425C50.8506 78.9927 50.1708 79.432 49.8963 79.5757Z" fill="#01F2FF"/>
<path d="M49.8592 79.9688C49.4865 79.8114 46.25 78.2221 47.2839 70.8924C48.2639 72.4176 49.1428 74.0109 49.8963 75.6289C50.6499 74.0109 51.5291 72.4172 52.5087 70.8924C53.5428 78.2217 50.3061 79.8114 49.9334 79.9688C49.9233 79.9688 49.8963 79.9688 49.8963 79.9688H49.8592Z" fill="#01F2FF" fill-opacity="0.6"/>
<path fill-rule="evenodd" clip-rule="evenodd" d="M49.8592 79.9688C49.4965 79.8156 46.421 78.3061 47.21 71.4682C47.2316 71.2803 47.2562 71.0884 47.2839 70.8924C47.3883 71.0549 47.4916 71.2182 47.5937 71.3823C48.3639 72.6195 49.0671 73.8978 49.6907 75.1945C49.7602 75.3391 49.8288 75.4839 49.8963 75.6289C49.9638 75.4839 50.0324 75.3391 50.1019 75.1945C50.7256 73.8978 51.429 72.6193 52.1989 71.3823C52.301 71.2182 52.4043 71.0549 52.5087 70.8924C52.5364 71.0884 52.561 71.2803 52.5827 71.4682C53.3717 78.3057 50.2962 79.8156 49.9334 79.9688H49.8592ZM49.8963 79.5757C49.6218 79.432 48.9421 78.9928 48.3698 77.9427C47.7592 76.8222 47.2536 74.9738 47.5291 71.9859C48.2783 73.2218 48.9594 74.496 49.56 75.7855L49.8963 76.5076L50.2326 75.7855C50.8332 74.496 51.5145 73.2217 52.2635 71.9859C52.5391 74.9737 52.0334 76.822 51.4228 77.9425C50.8506 78.9927 50.1708 79.432 49.8963 79.5757Z" fill="#01F2FF"/>
<path d="M49.9335 79.9683C50.3115 79.8094 53.5425 78.2192 52.5089 70.8924C51.5587 72.3712 50.6802 73.9468 49.8965 75.6289C49.1127 73.9468 48.2342 72.3712 47.284 70.8924C46.2505 78.2192 49.4814 79.8094 49.8594 79.9683C49.8719 79.9688 49.884 79.9687 49.8965 79.9687C49.8969 79.9687 49.9214 79.9688 49.9335 79.9683Z" fill="#01F2FF"/>
<path fill-rule="evenodd" clip-rule="evenodd" d="M50.1021 75.1946C50.7451 73.8571 51.4481 72.588 52.1991 71.3822C52.3015 71.2177 52.4048 71.0545 52.5089 70.8924C52.5365 71.0884 52.5611 71.2803 52.5828 71.4681C53.3717 78.3033 50.3014 79.8136 49.9335 79.9683C49.9215 79.9688 49.8969 79.9688 49.8965 79.9688C49.884 79.9688 49.8719 79.9688 49.8594 79.9683C49.4915 79.8136 46.4213 78.3033 47.2101 71.4681C47.2318 71.2803 47.2564 71.0884 47.284 70.8924C47.3882 71.0545 47.4915 71.2177 47.5939 71.3822C48.3448 72.588 49.0478 73.8571 49.6909 75.1946C49.7601 75.3385 49.8286 75.4833 49.8965 75.6289C49.9643 75.4833 50.0328 75.3385 50.1021 75.1946ZM47.5293 71.9856C48.2586 73.1882 48.9394 74.4532 49.5602 75.7856L49.8965 76.5073L50.2327 75.7856C50.8535 74.4532 51.5344 73.1882 52.2637 71.9856C52.5393 74.9725 52.0347 76.8204 51.4247 77.941C50.8521 78.9928 50.1713 79.432 49.8965 79.5755C49.6216 79.432 48.9408 78.9928 48.3682 77.941C47.7582 76.8204 47.2536 74.9725 47.5293 71.9856Z" fill="#01F2FF"/>
<path d="M55.0869 79.5771C56.8007 78.9251 58.6548 77.8373 60.5979 76.3448C62.9766 74.5183 65.5084 72.0671 68.1237 69.06C68.411 68.7299 68.7124 68.368 69.0453 67.9532C69.9842 69.9392 70.2864 71.7072 69.9431 73.209C65.5798 76.5474 60.4427 78.7496 55.0869 79.5771Z" fill="#01F2FF" fill-opacity="0.8"/>
<path fill-rule="evenodd" clip-rule="evenodd" d="M60.8238 76.6391C63.2274 74.7934 65.7771 72.3235 68.4036 69.3034L68.1237 69.06L68.4035 69.3035C68.4036 69.3035 68.4036 69.3035 68.4036 69.3034C68.5804 69.1003 68.7622 68.8857 68.9527 68.6549C68.8998 68.5291 68.844 68.4022 68.7854 68.2741C68.87 68.1706 68.9565 68.0638 69.0453 67.9532C69.1052 68.08 69.1626 68.2059 69.2174 68.331C70.0202 70.1639 70.2645 71.8031 69.9431 73.209C66.007 76.2205 61.4412 78.3075 56.6532 79.2948C56.1336 79.4019 55.6113 79.4961 55.0869 79.5771C55.5582 79.3979 56.0401 79.1856 56.5315 78.9411M60.8238 76.6391C59.8194 77.4106 58.8352 78.0777 57.878 78.6348L60.8238 76.6391ZM57.878 78.6348C62.0925 77.5793 66.1005 75.6583 69.6091 72.997C69.8558 71.7635 69.6496 70.3103 68.9527 68.6549" fill="#01F2FF"/>
<path d="M55.0869 79.5771C56.8007 78.9251 58.6548 77.8373 60.5979 76.3448C62.9762 74.5183 65.5084 72.0675 68.1237 69.06C68.4106 68.7299 68.7124 68.368 69.0453 67.9532C69.9842 69.9392 70.2864 71.7072 69.9431 73.209C65.5798 76.5474 60.4427 78.7496 55.0869 79.5771Z" fill="#01F2FF" fill-opacity="0.8"/>
<path fill-rule="evenodd" clip-rule="evenodd" d="M68.4036 69.3034L68.4037 69.3034C68.5802 69.1003 68.762 68.8857 68.9527 68.6548C69.6496 70.3103 69.8558 71.7634 69.6091 72.997C66.1005 75.6583 62.0925 77.5793 57.878 78.6348C58.8352 78.0777 59.8194 77.4106 60.8239 76.6391C63.227 74.7934 65.7771 72.324 68.4036 69.3034ZM56.5315 78.9411C57.8271 78.2963 59.1891 77.4269 60.5979 76.3448C62.9762 74.5183 65.5084 72.0675 68.1237 69.06C68.3341 68.8179 68.5526 68.5587 68.7854 68.2741C68.87 68.1706 68.9566 68.0638 69.0453 67.9532C69.1052 68.08 69.1626 68.2059 69.2174 68.3309C70.0202 70.1639 70.2645 71.8031 69.9431 73.209C66.007 76.2205 61.4412 78.3075 56.6532 79.2948C56.1336 79.4019 55.6113 79.4961 55.0869 79.5771C55.5582 79.3979 56.0401 79.1856 56.5315 78.9411Z" fill="#01F2FF"/>
<path fill-rule="evenodd" clip-rule="evenodd" d="M68.4036 69.3034L68.4037 69.3034C68.5802 69.1003 68.762 68.8857 68.9527 68.6548C69.6496 70.3103 69.8558 71.7634 69.6091 72.997C66.1005 75.6583 62.0925 77.5793 57.878 78.6348C58.8352 78.0777 59.8194 77.4106 60.8239 76.6391C63.227 74.7934 65.7771 72.324 68.4036 69.3034ZM56.5315 78.9411C57.8271 78.2963 59.1891 77.4269 60.5979 76.3448C62.9762 74.5183 65.5084 72.0675 68.1237 69.06C68.3341 68.8179 68.5526 68.5587 68.7854 68.2741C68.87 68.1706 68.9566 68.0638 69.0453 67.9532C69.1052 68.08 69.1626 68.2059 69.2174 68.3309C70.0202 70.1639 70.2645 71.8031 69.9431 73.209C66.007 76.2205 61.4412 78.3075 56.6532 79.2948C56.1336 79.4019 55.6113 79.4961 55.0869 79.5771C55.5582 79.3979 56.0401 79.1856 56.5315 78.9411Z" fill="#01F2FF"/>
<path fill-rule="evenodd" clip-rule="evenodd" d="M56.5324 78.9406C56.0207 79.1952 55.5389 79.4051 55.0869 79.5771C55.6118 79.4961 56.1344 79.4017 56.6543 79.2943C61.4655 78.3007 66.0405 76.1945 69.9427 73.209C70.2849 71.7128 69.9737 70.0557 69.2174 68.3308C69.1624 68.2053 69.105 68.0794 69.0453 67.9532C68.9592 68.0604 68.8727 68.1674 68.7854 68.2741C68.5695 68.5381 68.3496 68.8005 68.1237 69.06C63.2836 74.6257 59.4282 77.4998 56.5324 78.9406ZM57.881 78.6333C60.6661 77.012 64.1674 74.1747 68.4035 69.3035C68.5906 69.0886 68.7734 68.8721 68.9528 68.6547C69.613 70.2206 69.8714 71.6873 69.6088 72.997C66.1288 75.6363 62.1146 77.5708 57.881 78.6333Z" fill="#01F2FF"/>
</svg>
