<?xml version="1.0" encoding="UTF-8"?>
<svg width="120px" height="256px" viewBox="0 0 232 368" version="1.1" xmlns="http://www.w3.org/2000/svg" xmlns:xlink="http://www.w3.org/1999/xlink">
    <!-- Generator: Sketch 60 (88103) - https://sketch.com -->
    <title>BitPay CARD Front</title>
    <desc>Created with Sketch.</desc>
    <defs>
        <rect id="path-1" x="0" y="0" width="232" height="368" rx="10"></rect>
        <polygon id="path-3" points="0.0909803922 0.346784201 231.978771 0.346784201 231.978771 368.367986 0.0909803922 368.367986"></polygon>
        <path d="M140.416105,330.172125 C145.656575,314.943286 148.514876,299.241952 148.514876,283.063582 C148.514876,263.078002 145.181961,247.376668 138.511582,235.955039 C131.841203,224.534923 118.024314,219.299631 99.9192157,219.299631 C94.201098,219.299631 88.0068497,219.778183 78.4766536,222.15731 C68.9510065,224.060915 60.8492026,228.816142 53.2250458,235.48103 L21.6648675,368.530455 L0.0909803922,368.530455 L0.0909803922,0.509244427 L100.265167,0.509244427 L68.5582745,133.823681 C78.3159216,129.492487 86.9878693,126.244092 96.7470327,124.078495 C105.958797,121.372257 116.259294,120.289458 127.099608,120.289458 C149.865935,120.289458 169.921046,124.620652 186.726641,132.740882 C203.530719,140.861113 217.079216,151.690611 228.465412,165.765475 C229.670047,167.328923 230.841128,168.919343 231.978771,170.536619 L231.978771,368.530455 L119.66216,368.530455 C128.427387,357.118479 135.478045,344.068626 140.416105,330.172125 Z" id="path-5"></path>
    </defs>
    <g id="Dashboard-(Desktop)" stroke="none" stroke-width="1" fill="none" fill-rule="evenodd">
        <g id="Personal-Dashboard---Home-(Card-Shipped-+-Verified)" transform="translate(-1249.000000, -738.000000)">
            <g id="BitPay-CARD-Front" transform="translate(1249.000000, 738.000000)">
                <mask id="mask-2" fill="white">
                    <use xlink:href="#path-1"></use>
                </mask>
                <use id="Mask" fill="#D8D8D8" xlink:href="#path-1"></use>
                <g mask="url(#mask-2)">
                    <g transform="translate(0.000000, -0.587451)">
                        <g id="BitPay-Blue-BG" stroke-width="1" fill="none" transform="translate(0.000000, 0.219465)">
                            <mask id="mask-4" fill="white">
                                <use xlink:href="#path-3"></use>
                            </mask>
                            <g id="Clip-2"></g>
                            <polygon id="Fill-1" fill="#0C204E" mask="url(#mask-4)" points="0.0909803922 368.367986 231.978771 368.367986 231.978771 0.346784201 0.0909803922 0.346784201"></polygon>
                        </g>
                        <g id="Spot-UV" stroke-width="1" fill="none" transform="translate(0.000000, 0.057005)">
                            <mask id="mask-6" fill="white">
                                <use xlink:href="#path-5"></use>
                            </mask>
                            <g id="Clip-8"></g>
                            <polygon id="Fill-7" fill="#102453" mask="url(#mask-6)" points="0.0909803922 368.530446 231.978771 368.530446 231.978771 0.509244427 0.0909803922 0.509244427"></polygon>
                        </g>
                        <g id="Contactless-Symbol" stroke-width="1" fill="none" transform="translate(168.313725, 52.077163)">
                            <path d="M17.096732,28.1148971 C19.175634,24.381893 20.3068235,20.1021893 20.1915817,15.5589794 C20.0778562,11.0203128 18.7313464,6.80269959 16.4659346,3.18024691 C16.0064837,2.44273251 16.2521307,1.48411523 17.0178824,1.03888066 C17.7821176,0.592131687 18.7768366,0.829893004 19.2378039,1.565893 C21.7822222,5.63509465 23.2985621,10.3888066 23.4259346,15.478716 C23.5548235,20.5701399 22.281098,25.3935144 19.9459346,29.5853827 C19.5228758,30.3471276 18.5402876,30.6318354 17.7563399,30.2244609 C16.9663268,29.8186008 16.6736732,28.8720988 17.096732,28.1148971" id="Fill-16" fill="#FFFFFE"></path>
                            <path d="M0.439738562,19.1890041 C0.81579085,18.6801646 1.1145098,18.1152922 1.31921569,17.5049877 C1.52392157,16.8946831 1.63461438,16.2450041 1.63461438,15.5589794 C1.63461438,14.8774979 1.52392157,14.2278189 1.31769935,13.616 C1.11299346,13.0087243 0.81427451,12.440823 0.436705882,11.9334979 C-0.0758169935,11.2414156 0.0712679739,10.2646255 0.761202614,9.7527572 C1.45265359,9.23937449 2.42766013,9.3832428 2.94169935,10.0738107 C3.51184314,10.8400988 3.96522876,11.697251 4.27456209,12.6225514 C4.5869281,13.5478519 4.75524183,14.5367572 4.75524183,15.5589794 C4.75524183,16.5857449 4.5869281,17.5761646 4.27456209,18.4984362 C3.96522876,19.4237366 3.51184314,20.2808889 2.94473203,21.047177 C2.43069281,21.7377449 1.45568627,21.8831276 0.764235294,21.3697449 C0.0727843137,20.8563621 -0.0758169935,19.8810864 0.439738562,19.1890041" id="Fill-11" fill="#FFFFFE"></path>
                            <path d="M5.7848366,22.0966584 C6.95848366,20.1945679 7.6332549,17.9623374 7.6332549,15.5589794 C7.6332549,13.1601646 6.95848366,10.9279342 5.7848366,9.02584362 C5.33296732,8.29287243 5.56345098,7.33122634 6.29584314,6.87841975 C7.02975163,6.42712757 7.98959477,6.65580247 8.44146405,7.38877366 C9.90776471,9.76184362 10.7553987,12.5695473 10.7538844,15.5589794 C10.7553987,18.5529547 9.90776471,21.3576296 8.44146405,23.7337284 C7.98959477,24.4651852 7.02975163,24.6938601 6.29584314,24.2410535 C5.56345098,23.7897613 5.33448366,22.8281152 5.7848366,22.0966584" id="Fill-13" fill="#FFFFFE"></path>
                            <path d="M11.452915,25.0588313 C13.0829804,22.2693004 14.0155294,19.0284774 14.0170458,15.5589794 C14.0155294,12.0894815 13.0829804,8.85320165 11.4513987,6.06215638 C11.0177255,5.31858436 11.2694379,4.36602469 12.0109281,3.92987654 C12.755451,3.4937284 13.7107451,3.74511934 14.1459346,4.48869136 C16.0459085,7.73708642 17.1376732,11.5291523 17.1361584,15.5589794 C17.1376732,19.5933498 16.0459085,23.3823868 14.147451,26.6322963 C13.7122614,27.3743539 12.7569673,27.6257449 12.0124444,27.1926255 C11.2694379,26.7564774 11.0177255,25.8024033 11.452915,25.0588313" id="Fill-14" fill="#FFFFFE"></path>
                        </g>
                        <g id="BitPay-Logo" stroke-width="1" fill="none" transform="translate(18.196078, 172.861441)">
                            <path d="M105.273412,8.75626568 L99.844915,8.75626568 L96.6863791,22.039097 L96.6924444,22.039097 L96.2572549,23.8654673 C95.9539869,23.9502739 95.6537516,24.0259941 95.3535163,24.0865702 C94.7924706,24.1986361 94.2117124,24.2561834 93.6112418,24.2561834 C92.9106928,24.2561834 92.3617778,24.1547184 91.9614641,23.9548171 C91.5626667,23.7549159 91.2806275,23.4747513 91.1198954,23.1128089 C90.9561307,22.7508665 90.8939608,22.3192616 90.9318693,21.8195085 C90.9697778,21.3212698 91.0637908,20.785171 91.2123922,20.2096978 L92.8621699,13.3176484 L93.9478693,8.74566486 L93.9493856,8.74415046 L88.4026144,8.74415046 L85.8915556,19.3480023 C85.5913203,20.6216155 85.4169412,21.8331381 85.366902,22.9825702 C85.3168627,24.1304879 85.4912418,25.1481669 85.8915556,26.0340928 C86.2903529,26.9200188 86.9651242,27.6196731 87.9143529,28.1315414 C88.8635817,28.6434097 90.2009935,28.9008583 91.9250719,28.9008583 C93.1244967,28.9008583 94.1616732,28.8009077 95.035085,28.6010064 L95.1381961,28.5752616 L95.1366797,28.5858624 C94.8940654,29.6792616 94.4012549,30.5667019 93.6112418,31.2587842 C92.8212288,31.9523809 91.6475817,32.2976649 90.091817,32.2976649 C89.4276601,32.2976649 88.8241569,32.2582904 88.2767582,32.1825702 L87.2092549,36.6773192 C87.9310327,36.7696978 88.7316601,36.8181587 89.618719,36.8181587 C91.2700131,36.8181587 92.7166013,36.6288583 93.9584837,36.2532863 C95.1973333,35.8761998 96.2602876,35.3052698 97.1488627,34.5404961 C98.0359216,33.7742081 98.7789281,32.8140764 99.3733333,31.6601011 C99.9692549,30.5046114 100.449935,29.1386196 100.813856,27.5575826 L104.571346,11.7699282 L104.557699,11.7638706 L105.273412,8.75626568" id="Fill-18" fill="#FFFFFE"></path>
                            <path d="M78.643451,13.3206772 C76.1111634,13.3206772 75.6289673,13.3206772 74.5902745,13.8582904 C73.8548497,14.23992 73.245281,14.8138789 72.7100131,15.4832451 C72.1732288,16.1526114 71.7532026,16.924957 71.4499346,17.8017965 C71.1451503,18.6786361 70.9935163,19.5903068 70.9935163,20.5383233 C70.9935163,21.7074426 71.1876078,22.632743 71.5773072,23.3142245 C71.9670065,23.995706 72.6857516,24.3364468 73.7320261,24.3364468 C74.2930719,24.3364468 74.7980131,24.2274097 75.248366,24.0078212 C75.698719,23.7882328 76.1793987,23.424776 76.6904052,22.9129077 C76.7389281,22.3041175 76.8192941,21.6665537 76.9284706,20.9956731 C77.0391634,20.3278212 77.175634,19.7069159 77.2984575,19.1465867 L78.643451,13.3206772 M82.4979869,20.1006607 C82.1568105,21.4878542 82.0597647,22.8826196 82.2053333,24.2819282 C82.3524183,25.6812369 82.8876863,27.8271463 83.4108235,28.9008583 L78.1567059,28.9008583 C77.5137778,27.8150311 77.5441046,27.3061916 77.421281,26.9654509 C76.7389281,27.5257801 75.9837908,27.9861587 75.1558693,28.3526443 C74.3279477,28.7176155 73.4044967,28.9008583 72.3809673,28.9008583 C71.1633464,28.9008583 70.1231373,28.685813 69.2588235,28.2617801 C68.3929935,27.8362328 67.6878954,27.2637883 67.1404967,26.5444468 C66.593098,25.828134 66.195817,24.9876402 65.9532026,24.0259941 C65.7105882,23.064348 65.589281,22.0375826 65.589281,20.9411546 C65.589281,19.2616813 65.8864837,17.6806443 66.4839216,16.1950147 C67.0798431,14.7108994 67.9077647,13.4145702 68.9661699,12.3075414 C70.0260915,11.1989982 72.5811242,8.75778009 76.7768366,8.75778009 C78.5888627,8.75778009 81.0241046,8.75626568 85.1985882,8.75626568 L82.4979869,20.1006607" id="Fill-19" fill="#FFFFFE"></path>
                            <path d="M50.732183,24.2667842 C51.1476601,24.3667348 51.6632157,24.4151957 52.275817,24.4151957 C53.2311111,24.4151957 54.1030065,24.2380105 54.8869542,23.8806114 C55.670902,23.526241 56.3380915,23.0310311 56.8900392,22.3934673 C57.4419869,21.7559035 57.8711111,20.9911299 58.1774118,20.0961175 C58.4837124,19.2026196 58.6368627,18.2152286 58.6368627,17.1369735 C58.6368627,16.0844632 58.4033464,15.1894509 57.9393464,14.4549653 C57.4723137,13.7204797 56.6550065,13.3297636 55.5041046,13.323706 C54.6989281,13.3206772 53.36,13.3206772 53.36,13.3206772 L50.732183,24.2667842 Z M64.0790065,16.7341422 C64.0790065,18.5211381 63.7833203,20.1566937 63.1964967,21.6392945 C62.6081569,23.1218953 61.792366,24.4030805 60.7506405,25.4798212 C59.708915,26.5595908 58.459451,27.3985702 57.000732,27.9982739 C55.5420131,28.599492 53.9544052,28.8993439 52.2394248,28.8993439 C51.4054379,28.8993439 50.5729673,28.8251381 49.7404967,28.678241 L48.0846536,35.3310147 L42.6425098,35.3310147 L48.9595817,8.75778009 C49.8784837,8.75626568 54.7383529,8.75778009 56.2092026,8.75778009 C57.5814902,8.75778009 58.7657516,8.96676774 59.7574379,9.38171424 C60.7506405,9.79968955 61.564915,10.3691052 62.2032941,11.0914756 C62.8401569,11.8153603 63.3117386,12.658883 63.6195556,13.6281011 C63.9243399,14.5958048 64.0790065,15.6301422 64.0790065,16.7341422 L64.0790065,16.7341422 Z" id="Fill-20" fill="#FFFFFE"></path>
                            <path d="M39.3035294,24.2576978 C38.6044967,24.2576978 38.0555817,24.1592616 37.655268,23.9593603 C37.2549542,23.7594591 36.9744314,23.4792945 36.812183,23.1173521 C36.6499346,22.7538953 36.5877647,22.3238048 36.6241569,21.8240517 C36.6620654,21.3242986 36.7560784,20.7881998 36.9061961,20.214241 L38.5544575,13.3206772 L44.7380915,13.3206772 L45.8616993,8.75020807 L39.6401569,8.75020807 L41.0655163,2.94398585 L35.2564183,3.8435414 L31.5838431,19.3510311 C31.2851242,20.6246443 31.1092288,21.8376813 31.0591895,22.985599 C31.0091503,24.1335167 31.1835294,25.1511957 31.5838431,26.0386361 C31.9841569,26.924562 32.6589281,27.6242163 33.6081569,28.1360846 C34.5573856,28.6479529 35.893281,28.9038871 37.6173595,28.9038871 C38.815268,28.9038871 39.8524444,28.8039365 40.7273725,28.6055496 L41.0442876,28.5298295 L42.1739608,23.8018624 C41.7948758,23.9305867 41.4127582,24.0169077 41.0458039,24.089599 C40.4847582,24.2016649 39.9024837,24.2576978 39.3035294,24.2576978" id="Fill-21" fill="#FFFFFE"></path>
                            <polyline id="Fill-22" fill="#FFFFFE" points="25.4563137 8.74566486 20.6631634 28.9038871 26.0916601 28.9038871 30.8848105 8.74566486 25.4563137 8.74566486"></polyline>
                            <polyline id="Fill-23" fill="#FFFFFE" points="31.4473725 6.41499819 32.2798431 2.91369778 26.8513464 2.91369778 26.0188758 6.41499819 31.4473725 6.41499819"></polyline>
                            <path d="M8.66891503,24.4045949 C9.52109804,24.4045949 10.3262745,24.1971216 11.0814118,23.7836896 C11.836549,23.368743 12.4900915,22.8144714 13.0374902,22.1193603 C13.5864052,21.4242492 14.0200784,20.6397883 14.3369935,19.7629488 C14.6523922,18.8861093 14.8116078,17.9714097 14.8116078,17.0203644 C14.8116078,15.8512451 14.616,14.9365455 14.227817,14.2808089 C13.8366013,13.6220435 13.0268758,13.3206772 11.9775686,13.3206772 C11.6363922,13.3206772 11.283085,13.3539941 10.7356863,13.4751463 C10.1867712,13.597813 9.7136732,13.8507184 9.27393464,14.23992 L6.89024837,24.2667842 C7.59686275,24.3894509 7.84099346,24.4045949 8.01082353,24.4045949 C8.18065359,24.4045949 8.40052288,24.4045949 8.66891503,24.4045949 Z M13.4211242,8.76080889 C14.5932549,8.76080889 15.6031373,8.96828214 16.4568366,9.38171424 C17.3105359,9.79666074 18.0171503,10.35699 18.5781961,11.0642163 C19.1377255,11.7699282 19.5516863,12.5983068 19.8215948,13.5478377 C20.0884706,14.498883 20.2234248,15.5226196 20.2234248,16.6190476 C20.2234248,18.3000352 19.9125752,19.8901587 19.2908758,21.3894179 C18.6691765,22.8871628 17.8230588,24.1925784 16.7494902,25.2996072 C15.6774379,26.4081505 14.4097778,27.2865044 12.9465098,27.9316402 C11.4847582,28.576776 9.89866667,28.9008583 8.19278431,28.9008583 C7.97443137,28.9008583 7.59079739,28.8932863 7.04188235,28.881171 C6.49296732,28.8690558 5.86520261,28.8145373 5.15858824,28.7176155 C4.45045752,28.6191793 3.70138562,28.4737965 2.90985621,28.2784385 C2.11681046,28.0845949 1.36773856,27.8165455 0.661124183,27.4758048 L6.98729412,0.902570209 L12.6553725,0.0257307027 L10.4157386,9.44229037 C10.9024837,9.2227019 11.3619346,9.06520395 11.8501961,8.94253729 C12.3384575,8.82138502 12.8615948,8.76080889 13.4211242,8.76080889 L13.4211242,8.76080889 Z" id="Fill-24" fill="#FFFFFE"></path>
                        </g>
                        <path d="M184.215582,313.825114 L179.665046,335.070677 L174.162248,335.070677 L178.714301,313.825114 L184.215582,313.825114 Z M207.370092,327.544093 L210.267817,319.564702 L211.934275,327.544093 L207.370092,327.544093 Z M213.511268,335.070677 L218.601621,335.070677 L214.158745,313.825114 L209.461124,313.825114 C208.404235,313.825114 207.512627,314.436933 207.118379,315.383435 L198.860392,335.070677 L204.639163,335.070677 L205.787033,331.899517 L212.847111,331.899517 L213.511268,335.070677 Z M199.148497,328.133196 C199.171242,322.526875 191.38332,322.217937 191.436392,319.713114 C191.453072,318.949854 192.179399,318.139649 193.770039,317.932175 C194.560052,317.829196 196.731451,317.750447 199.19702,318.883221 L200.162928,314.377871 C198.839163,313.897805 197.134797,313.435912 195.014954,313.435912 C189.575843,313.435912 185.747085,316.323879 185.713725,320.459715 C185.680366,323.517295 188.447686,325.224027 190.532654,326.241706 C192.676758,327.283616 193.39702,327.949953 193.387922,328.881311 C193.372758,330.307879 191.67749,330.936357 190.094431,330.960587 C187.328627,331.006019 185.721307,330.215501 184.443033,329.62034 L183.443765,334.274101 C184.731137,334.866233 187.102693,335.376587 189.566745,335.403846 C195.347033,335.403846 199.128784,332.55071 199.148497,328.133196 L199.148497,328.133196 Z M176.353359,313.825114 L167.437281,335.070677 L161.619085,335.070677 L157.230797,318.113904 C156.965438,317.07048 156.731922,316.68885 155.922196,316.248159 C154.601464,315.531846 152.416418,314.859451 150.493699,314.441476 L150.625621,313.825114 L159.98902,313.825114 C161.182379,313.825114 162.255948,314.617147 162.525856,315.99071 L164.84434,328.286151 L170.571556,313.825114 L176.353359,313.825114 L176.353359,313.825114 Z" id="VISA" fill="#FFFFFE"></path>
                        <g id="Prepaid" stroke-width="1" fill="none" transform="translate(177.411765, 345.871402)">
                            <path d="M5.01908497,4.80823045 C5.32993464,4.52806584 5.48308497,4.14643621 5.48308497,3.66334156 C5.48308497,3.37257613 5.41636601,3.10604115 5.2829281,2.86525103 C5.1494902,2.62446091 4.94175163,2.43061728 4.6551634,2.28372016 C4.37160784,2.13833745 4.01526797,2.06564609 3.59069281,2.06564609 L1.53756863,2.06564609 L1.53756863,5.22923457 L3.59069281,5.22923457 C4.23513725,5.22923457 4.71126797,5.08839506 5.01908497,4.80823045 Z M5.24198693,1.50986008 C5.70143791,1.71884774 6.04867974,2.00658436 6.28522876,2.37458436 C6.52329412,2.74409877 6.64156863,3.16964609 6.64156863,3.65274074 C6.64156863,4.16915226 6.52481046,4.60984362 6.28826144,4.97481481 C6.0547451,5.3382716 5.70901961,5.61692181 5.25411765,5.80622222 C4.79769935,5.99703704 4.24423529,6.09244444 3.59069281,6.09244444 L1.53756863,6.09244444 L1.53756863,9.24997531 L0.377568627,9.24997531 L0.377568627,1.197893 L3.59069281,1.197893 C4.23210458,1.197893 4.78101961,1.30087243 5.24198693,1.50986008 L5.24198693,1.50986008 Z" id="Fill-26" fill="#FFFFFE"></path>
                            <path d="M10.832732,3.18024691 L11.0541176,3.23325103 L11.0541176,4.17823868 C10.8842876,4.14795062 10.7023268,4.13432099 10.511268,4.13432099 C10.1443137,4.13432099 9.83952941,4.20852675 9.59388235,4.36148148 C9.34975163,4.51292181 9.16627451,4.72342387 9.04345098,4.99753086 L9.04345098,9.24997531 L7.9259085,9.24997531 L7.9259085,3.2650535 L9.01160784,3.2650535 L9.03586928,3.94653498 C9.20266667,3.69665844 9.41495425,3.50130041 9.66969935,3.36348971 C9.92444444,3.22416461 10.2216471,3.15450206 10.5658562,3.15450206 L10.832732,3.18024691" id="Fill-27" fill="#FFFFFE"></path>
                            <path d="M16.159634,5.63358025 C16.1277908,5.16411523 15.9913203,4.77188477 15.7502222,4.45688889 C15.5091242,4.141893 15.1300392,3.98439506 14.6129673,3.98439506 C14.1671634,3.98439506 13.7956601,4.13583539 13.4984575,4.43568724 C13.2027712,4.73553909 13.0162614,5.15957202 12.9404444,5.71081481 L16.159634,5.71081481 L16.159634,5.63358025 Z M17.2756601,6.53919342 L12.9055686,6.53919342 C12.916183,6.91325103 13.001098,7.24944856 13.1557647,7.55081481 C13.3104314,7.85369547 13.531817,8.09297119 13.8153725,8.26712757 C14.1004444,8.44279835 14.4325229,8.53063374 14.8146405,8.53063374 C15.1891765,8.53063374 15.5121569,8.46097119 15.7866144,8.32013169 C16.0595556,8.17929218 16.3021699,7.97939095 16.5159739,7.71739918 L17.1922614,8.20352263 C16.9541961,8.54426337 16.6357647,8.81988477 16.2369673,9.03644444 C15.8381699,9.25148971 15.3453595,9.36052675 14.7555033,9.36052675 C14.1671634,9.36052675 13.6470588,9.23634568 13.1982222,8.98949794 C12.7478693,8.74265021 12.4006275,8.39888066 12.1549804,7.96121811 C11.9108497,7.52204115 11.7880261,7.02531687 11.7880261,6.46801646 L11.7880261,6.22874074 C11.7880261,5.60632099 11.9199477,5.06265021 12.1822745,4.59469959 C12.4461176,4.12977778 12.7918431,3.7723786 13.2255163,3.52553086 C13.6561569,3.27868313 14.1186405,3.15450206 14.6129673,3.15450206 C15.2134379,3.15450206 15.7123137,3.28019753 16.1080784,3.52855967 C16.5053595,3.77692181 16.7980131,4.12220576 16.9890719,4.55986831 C17.1801307,4.99904527 17.2756601,5.50637037 17.2756601,6.08032922 L17.2756601,6.53919342 L17.2756601,6.53919342 Z" id="Fill-28" fill="#FFFFFE"></path>
                            <path d="M22.9058301,6.20753909 C22.9058301,5.794107 22.8436601,5.42307819 22.7178039,5.09293827 C22.5919477,4.76431276 22.3993725,4.50080658 22.1385621,4.30544856 C21.879268,4.11009053 21.5547712,4.01316872 21.1696209,4.01316872 C20.8178301,4.01316872 20.5191111,4.08586008 20.2734641,4.2342716 C20.0263007,4.38116872 19.8276601,4.58106996 19.6760261,4.83548971 L19.6760261,7.71739918 C20.0065882,8.25955556 20.5069804,8.53063374 21.1817516,8.53063374 C21.5638693,8.53063374 21.883817,8.43068313 22.1415948,8.2353251 C22.4008889,8.03845267 22.5919477,7.7734321 22.7178039,7.44026337 C22.8436601,7.10860905 22.9058301,6.73606584 22.9058301,6.32414815 L22.9058301,6.20753909 Z M22.8709542,3.53461728 C23.2485229,3.78600823 23.5351111,4.141893 23.7292026,4.6007572 C23.9248105,5.0611358 24.0233725,5.59572016 24.0233725,6.20753909 L24.0233725,6.32414815 C24.0233725,6.91022222 23.9232941,7.43269136 23.7261699,7.89155556 C23.5290458,8.35041975 23.2439739,8.70933333 22.8679216,8.9698107 C22.4918693,9.23028807 22.0430327,9.36052675 21.5198954,9.36052675 C20.7420131,9.36052675 20.1248627,9.13033745 19.6760261,8.67450206 L19.6760261,11.5503539 L18.56,11.5503539 L18.56,3.2650535 L19.5744314,3.2650535 L19.6335686,3.91776132 C20.0839216,3.40892181 20.7071373,3.15450206 21.5032157,3.15450206 C22.0369673,3.15450206 22.4918693,3.28171193 22.8709542,3.53461728 L22.8709542,3.53461728 Z" id="Fill-29" fill="#FFFFFE"></path>
                            <path d="M28.3009673,8.35041975 C28.5208366,8.26712757 28.7118954,8.15809053 28.8711111,8.02179424 C29.0303268,7.88549794 29.151634,7.73708642 29.2350327,7.57958848 L29.2350327,6.34080658 L28.3282614,6.34080658 C27.6913987,6.34080658 27.2031373,6.43318519 26.8649935,6.61945679 C26.5268497,6.8057284 26.3585359,7.08134979 26.3585359,7.44632099 C26.3585359,7.64167901 26.4055425,7.81734979 26.4995556,7.97181893 C26.5966013,8.12628807 26.7361046,8.24895473 26.9195817,8.33981893 C27.1015425,8.43068313 27.3244444,8.47611523 27.5867712,8.47611523 C27.8415163,8.47611523 28.0795817,8.43219753 28.3009673,8.35041975 Z M30.4117124,8.59423868 C30.4511373,8.81685597 30.5072418,9.00464198 30.5785098,9.16062551 L30.5785098,9.24997531 L29.4139608,9.24997531 C29.3457255,9.106107 29.2941699,8.89711934 29.2592941,8.62301235 C29.0363922,8.84562963 28.7695163,9.02281481 28.455634,9.15759671 C28.143268,9.2923786 27.8005752,9.36052675 27.4260392,9.36052675 C26.996915,9.36052675 26.6163137,9.28177778 26.282719,9.12427984 C25.9506405,8.9682963 25.6928627,8.75476543 25.5124183,8.48671605 C25.3319739,8.21715226 25.2409935,7.91881481 25.2409935,7.5901893 C25.2409935,7.16767078 25.359268,6.8072428 25.595817,6.51193416 C25.832366,6.21813992 26.1705098,5.99400823 26.6056993,5.84559671 C27.0408889,5.69718519 27.5564444,5.62146502 28.147817,5.62146502 L29.2350327,5.62146502 L29.2350327,5.14594239 C29.2350327,4.78097119 29.1182745,4.49474897 28.8862745,4.28576132 C28.6527582,4.07677366 28.3176471,3.97379424 27.8809412,3.97379424 C27.6140654,3.97379424 27.3744837,4.01619753 27.1637124,4.10403292 C26.9514248,4.19035391 26.7876601,4.30696296 26.670902,4.45234568 C26.5541438,4.5977284 26.4950065,4.75522634 26.4950065,4.92483951 L25.3774641,4.92483951 C25.3774641,4.63407407 25.4866405,4.35088066 25.7004444,4.07828807 C25.9157647,3.80569547 26.2175163,3.58307819 26.608732,3.41195062 C26.9984314,3.24082305 27.4442353,3.15450206 27.9461438,3.15450206 C28.4237908,3.15450206 28.8423007,3.23022222 29.2031895,3.38014815 C29.5625621,3.52855967 29.8446013,3.75420576 30.0462745,4.05405761 C30.2494641,4.35390947 30.3510588,4.72190947 30.3510588,5.15654321 L30.3510588,7.94455967 C30.3510588,8.15506173 30.3707712,8.370107 30.4117124,8.59423868 L30.4117124,8.59423868 Z" id="Fill-30" fill="#FFFFFE"></path>
                            <path d="M32.1797647,9.24997531 L33.2957908,9.24997531 L33.2957908,3.2650535 L32.1797647,3.2650535 L32.1797647,9.24997531 Z M33.2336209,1.25241152 C33.3503791,1.36296296 33.4095163,1.50380247 33.4095163,1.67341564 C33.4095163,1.8384856 33.3503791,1.9762963 33.2336209,2.08533333 C33.1153464,2.19285597 32.953098,2.24737449 32.7468758,2.24737449 C32.5391373,2.24737449 32.3784052,2.19285597 32.2646797,2.08533333 C32.1524706,1.9762963 32.096366,1.8384856 32.096366,1.67341564 C32.096366,1.50380247 32.1524706,1.36296296 32.2646797,1.25241152 C32.3784052,1.14186008 32.5391373,1.08734156 32.7468758,1.08734156 C32.953098,1.08734156 33.1153464,1.14186008 33.2336209,1.25241152 L33.2336209,1.25241152 Z" id="Fill-31" fill="#FFFFFE"></path>
                            <path d="M39.1291503,7.62804938 L39.1291503,4.85820576 C38.9775163,4.59621399 38.7773595,4.39176955 38.5286797,4.23881481 C38.28,4.08737449 37.976732,4.01316872 37.6173595,4.01316872 C37.2337255,4.01316872 36.9107451,4.10857613 36.6544837,4.30241975 C36.3982222,4.49626337 36.2086797,4.75976955 36.0873725,5.08990947 C35.9660654,5.42156379 35.9054118,5.794107 35.9054118,6.20753909 L35.9054118,6.32414815 C35.9054118,6.73606584 35.9660654,7.10558025 36.0873725,7.43269136 C36.2086797,7.75828807 36.3967059,8.01725103 36.651451,8.20958025 C36.9061961,8.40190947 37.2246275,8.49580247 37.6067451,8.49580247 C38.2951634,8.49580247 38.8031373,8.20806584 39.1291503,7.62804938 Z M40.2451765,0.755687243 L40.2451765,9.24997531 L39.2246797,9.24997531 L39.1716078,8.61392593 C38.7333856,9.11216461 38.1207843,9.36052675 37.3322876,9.36052675 C36.8349281,9.36052675 36.3921569,9.22877366 36.0070065,8.96678189 C35.6203399,8.70479012 35.3216209,8.34436214 35.107817,7.88246914 C34.8955294,7.42209053 34.7878693,6.90265021 34.7878693,6.32414815 L34.7878693,6.20753909 C34.7878693,5.60329218 34.8940131,5.07022222 35.1047843,4.60984362 C35.3155556,4.14795062 35.6142745,3.79055144 36.0009412,3.53613169 C36.3860915,3.28171193 36.8349281,3.15450206 37.3444183,3.15450206 C38.1041046,3.15450206 38.6985098,3.38923457 39.1291503,3.85718519 L39.1291503,0.755687243 L40.2451765,0.755687243 L40.2451765,0.755687243 Z" id="Fill-32" fill="#FFFFFE"></path>
                        </g>
                        <g id="Platinum" stroke-width="1" fill="none" transform="translate(134.954248, 15.731484)">
                            <path d="M5.17830065,4.60530041 C5.49369935,4.32059259 5.65139869,3.92987654 5.65139869,3.43769547 C5.65139869,3.13935802 5.5831634,2.86827984 5.44669281,2.6214321 C5.31022222,2.37458436 5.0964183,2.17771193 4.80679739,2.02778601 C4.51566013,1.87937449 4.1532549,1.80365432 3.71806536,1.80365432 L1.62096732,1.80365432 L1.62096732,5.03387654 L3.71806536,5.03387654 C4.3776732,5.03387654 4.86290196,4.89303704 5.17830065,4.60530041 Z M5.40271895,1.23726749 C5.87278431,1.45079835 6.22912418,1.74459259 6.47022222,2.12016461 C6.7128366,2.49725103 6.83414379,2.93339918 6.83414379,3.42558025 C6.83414379,3.95259259 6.71435294,4.40237037 6.4732549,4.77491358 C6.2336732,5.14745679 5.88188235,5.43065021 5.41636601,5.62449383 C4.95084967,5.81833745 4.3852549,5.91525926 3.71806536,5.91525926 L1.62096732,5.91525926 L1.62096732,9.13942387 L0.438222222,9.13942387 L0.438222222,0.917728395 L3.71806536,0.917728395 C4.37312418,0.917728395 4.93416993,1.02525103 5.40271895,1.23726749 L5.40271895,1.23726749 Z" id="Fill-33" fill="#FFFFFE"></path>
                            <polyline id="Fill-34" fill="#FFFFFE" points="17.0815686 8.25804115 17.0815686 9.13942387 11.6924967 9.13942387 11.6924967 0.917728395 12.8752418 0.917728395 12.8752418 8.25804115 17.0815686 8.25804115"></polyline>
                            <path d="M26.457098,6.10153086 L24.9528889,2.26251852 L23.4532288,6.10153086 L26.457098,6.10153086 Z M26.8058562,6.98745679 L23.1044706,6.98745679 L22.2644183,9.13942387 L21.045281,9.13942387 L24.4343007,0.917728395 L25.4714771,0.917728395 L28.8665621,9.13942387 L27.6519739,9.13942387 L26.8058562,6.98745679 L26.8058562,6.98745679 Z" id="Fill-35" fill="#FFFFFE"></path>
                            <polyline id="Fill-36" fill="#FFFFFE" points="38.8273987 1.80365432 35.9797124 1.80365432 35.9797124 9.13942387 34.8106144 9.13942387 34.8106144 1.80365432 31.9689935 1.80365432 31.9689935 0.917728395 38.8273987 0.917728395 38.8273987 1.80365432"></polyline>
                            <polygon id="Fill-37" fill="#FFFFFE" points="43.6008366 9.13942387 44.7835817 9.13942387 44.7835817 0.917728395 43.6008366 0.917728395"></polygon>
                            <polyline id="Fill-38" fill="#FFFFFE" points="55.9271634 9.13942387 51.4706405 2.78195885 51.4706405 9.13942387 50.2878954 9.13942387 50.2878954 0.917728395 51.4706405 0.917728395 55.9453595 7.29336626 55.9453595 0.917728395 57.1159739 0.917728395 57.1159739 9.13942387 55.9271634 9.13942387"></polyline>
                            <path d="M68.8221176,6.48013169 C68.8221176,7.07529218 68.6750327,7.58110288 68.3854118,7.99907819 C68.0942745,8.4170535 67.7030588,8.73053498 67.2147974,8.93800823 C66.7250196,9.14851029 66.1852026,9.25148971 65.5968627,9.25148971 C64.9766797,9.25148971 64.4277647,9.14851029 63.947085,8.93800823 C63.4648889,8.73053498 63.0842876,8.4185679 62.8067974,8.002107 C62.5277908,7.58564609 62.3882876,7.07832099 62.3882876,6.48013169 L62.3882876,0.917728395 L63.5604183,0.917728395 L63.5604183,6.48013169 C63.5604183,7.10406584 63.7408627,7.57655967 64.1047843,7.89458436 C64.4687059,8.21260905 64.9660654,8.3716214 65.5968627,8.3716214 C66.2306928,8.3716214 66.7280523,8.21260905 67.0889412,7.89458436 C67.4513464,7.57655967 67.6317908,7.10406584 67.6317908,6.48013169 L67.6317908,0.917728395 L68.8221176,0.917728395 L68.8221176,6.48013169" id="Fill-39" fill="#FFFFFE"></path>
                            <polyline id="Fill-40" fill="#FFFFFE" points="82.8725229 9.13942387 81.6973595 9.13942387 81.6973595 5.92737449 81.8065359 2.49876543 78.8981961 9.13942387 78.0020392 9.13942387 75.0997647 2.50482305 75.2104575 5.92737449 75.2104575 9.13942387 74.0337778 9.13942387 74.0337778 0.917728395 75.5576993 0.917728395 78.4523922 7.6371358 81.3486013 0.917728395 82.8725229 0.917728395 82.8725229 9.13942387"></polyline>
                        </g>
                        <g id="Chip-01" stroke-width="1" fill="none" transform="translate(113.725490, 44.505147)">
                            <path d="M32.213491,46.9465021 L4.17909115,46.9465021 C1.87074611,46.9465021 0,45.1108874 0,42.8463089 L0,4.10019314 C0,1.83561466 1.87074611,0 4.17909115,0 L32.213491,0 C34.5209855,0 36.3921569,1.83561466 36.3921569,4.10019314 L36.3921569,42.8463089 C36.3921569,45.1108874 34.5209855,46.9465021 32.213491,46.9465021" id="Fill-1" fill="#D2D2CC"></path>
                            <path d="M31.9489673,46.8521936 L4.37375163,46.8521936 C2.10321569,46.8521936 0.263111111,45.0246037 0.263111111,42.7699252 L0.263111111,4.19319509 C0.263111111,1.93851662 2.10321569,0.110926691 4.37375163,0.110926691 L31.9489673,0.110926691 C34.2186667,0.110926691 36.0591895,1.93851662 36.0591895,4.19319509 L36.0591895,42.7699252 C36.0591895,45.0246037 34.2186667,46.8521936 31.9489673,46.8521936 Z" id="Stroke-2" stroke="#0A0B09" stroke-width="0.4"></path>
                            <path d="M13.384366,17.3215974 C13.7763137,17.4134132 14.169098,17.5467745 14.562719,17.6942613 C15.7431634,18.137968 16.934902,18.7142052 18.1613595,18.7142052 C19.3593725,18.7142052 20.556549,18.0847897 21.6654641,17.7038167 C21.6821961,17.6984158 21.6993464,17.6942613 21.7160784,17.6884449 C22.6969935,17.3589885 23.7021699,17.2447381 24.7023268,17.2933464 L24.7023268,0.110926691 L11.6195556,0.110926691 L11.6195556,17.1849125 C12.2269281,17.1533378 12.8230065,17.1894825 13.384366,17.3215974 Z M21.7595817,31.8018929 C20.5046797,31.664377 19.3869804,30.7823644 18.1609412,30.7823644 C16.9629281,30.7823644 15.7653333,31.4113644 14.6568366,31.7923374 C14.6401046,31.7981538 14.6242092,31.8060474 14.6062222,31.8077092 C13.5617255,31.9049259 12.5628235,31.8509166 11.6195556,31.6809952 L11.6195556,46.8521936 L24.7023268,46.8521936 L24.7023268,31.7142317 C23.7720261,31.8733513 22.7877647,31.9148968 21.7595817,31.8018929 Z M11.6195556,17.1849125 C9.96894118,17.2717427 8.23341176,17.8787236 6.87184314,18.5642256 C4.94138562,19.5359767 3.21589542,21.1932298 3.21589542,23.4815601 C3.21589542,23.9119723 3.27278431,24.3349063 3.37945098,24.7482848 C4.11398693,27.5912486 7.26128105,30.8966147 11.6195556,31.6809952 L11.6195556,17.1849125 Z M24.7023268,31.7142317 C29.0568366,30.969735 32.208732,27.5908332 32.9428497,24.7482848 C33.049098,24.3344908 33.1064052,23.9119723 33.1064052,23.4815601 C33.1059869,21.3008328 31.5607843,19.7216854 29.7181699,18.763229 C28.1570719,17.9514284 26.4366013,17.3764376 24.7023268,17.2933464 L24.7023268,31.7142317 Z" id="Stroke-4" stroke="#0A0B09" stroke-width="0.35"></path>
                        </g>
                    </g>
                </g>
            </g>
        </g>
    </g>
</svg>
