<svg xmlns="http://www.w3.org/2000/svg" xmlns:xlink="http://www.w3.org/1999/xlink" viewBox="0 0 793.62 682.29"><defs><style>.cls-1{isolation:isolate;}.cls-2{fill:url(#linear-gradient);}.cls-3{fill:#2fcfa4;}.cls-4{fill:#fff;}.cls-5{fill:url(#linear-gradient-2);}.cls-6{fill:url(#linear-gradient-3);}.cls-7{fill:url(#linear-gradient-4);}.cls-8{fill:#fdb455;}.cls-18,.cls-20,.cls-9{mix-blend-mode:multiply;}.cls-9{fill:url(#linear-gradient-5);}.cls-10,.cls-14{fill:none;}.cls-11{fill:#081635;}.cls-12{fill:#3753e3;}.cls-13{fill:#0a1c43;}.cls-14{stroke:#3753e3;stroke-miterlimit:10;}.cls-15{fill:url(#linear-gradient-6);}.cls-16{fill:#0e1744;}.cls-17{fill:url(#linear-gradient-7);}.cls-18{fill:url(#linear-gradient-8);}.cls-19{fill:url(#linear-gradient-9);}.cls-20{fill:url(#linear-gradient-10);}.cls-21{fill:#4f6ef7;}.cls-22{fill:url(#linear-gradient-11);}.cls-23{fill:url(#linear-gradient-12);}.cls-24{fill:url(#linear-gradient-13);}.cls-25{fill:url(#linear-gradient-14);}</style><linearGradient id="linear-gradient" x1="-606.27" y1="455.66" x2="651.41" y2="455.66" gradientUnits="userSpaceOnUse"><stop offset="0" stop-color="#3753e3"/><stop offset="1" stop-color="#3753e3" stop-opacity="0"/></linearGradient><linearGradient id="linear-gradient-2" x1="652.28" y1="519.92" x2="449.6" y2="432.44" gradientUnits="userSpaceOnUse"><stop offset="0" stop-color="#84ecd3"/><stop offset="1" stop-color="#84ecd3" stop-opacity="0"/></linearGradient><linearGradient id="linear-gradient-3" x1="678.18" y1="544.3" x2="568.51" y2="298.12" xlink:href="#linear-gradient-2"/><linearGradient id="linear-gradient-4" x1="-1636.57" y1="12505.49" x2="-1636.57" y2="12810.03" gradientTransform="translate(-908.86 12822.38) rotate(180)" gradientUnits="userSpaceOnUse"><stop offset="0" stop-color="#fdb455" stop-opacity="0"/><stop offset="1" stop-color="#fdb455"/></linearGradient><linearGradient id="linear-gradient-5" x1="690.63" y1="97.99" x2="764.77" y2="97.99" gradientTransform="matrix(1, 0, 0, 1, 0, 0)" xlink:href="#linear-gradient-4"/><linearGradient id="linear-gradient-6" x1="306.47" y1="173.29" x2="411.17" y2="256.78" xlink:href="#linear-gradient"/><linearGradient id="linear-gradient-7" x1="-1068.38" y1="12264.26" x2="-1068.38" y2="12604.36" xlink:href="#linear-gradient-4"/><linearGradient id="linear-gradient-8" x1="118.12" y1="313.66" x2="200.91" y2="313.66" gradientTransform="matrix(1, 0, 0, 1, 0, 0)" xlink:href="#linear-gradient-4"/><linearGradient id="linear-gradient-9" x1="-1319.16" y1="12143.18" x2="-1319.16" y2="12373.22" gradientTransform="translate(-908.86 12822.38) rotate(180)" gradientUnits="userSpaceOnUse"><stop offset="0.21" stop-color="#fdb455" stop-opacity="0"/><stop offset="1" stop-color="#fdb455"/></linearGradient><linearGradient id="linear-gradient-10" x1="382.3" y1="513.86" x2="438.3" y2="513.86" gradientTransform="matrix(1, 0, 0, 1, 0, 0)" xlink:href="#linear-gradient-4"/><linearGradient id="linear-gradient-11" x1="150.67" y1="172.79" x2="16.12" y2="114.72" xlink:href="#linear-gradient-2"/><linearGradient id="linear-gradient-12" x1="167.87" y1="188.98" x2="95.06" y2="25.55" xlink:href="#linear-gradient-2"/><linearGradient id="linear-gradient-13" x1="355.9" y1="90.08" x2="282.24" y2="58.29" xlink:href="#linear-gradient-2"/><linearGradient id="linear-gradient-14" x1="365.31" y1="98.94" x2="325.46" y2="9.48" xlink:href="#linear-gradient-2"/></defs><title>CryptoToCash</title><g class="cls-1"><g id="Layer_2" data-name="Layer 2"><g id="Layer_1-2" data-name="Layer 1"><path class="cls-2" d="M703,399.56c14.55,8.4,14.63,22,.17,30.42L383.4,615.83c-14.46,8.4-38,8.4-52.52,0L150.63,511.76c-14.56-8.4-14.63-22-.17-30.42L470.25,295.5c14.46-8.41,38-8.41,52.52,0Z"/><polygon class="cls-3" points="779.31 470.53 619.11 563.02 619.11 475.97 779.31 383.48 779.31 470.53"/><ellipse class="cls-4" cx="699.21" cy="473.25" rx="16.84" ry="9.72" transform="translate(-60.24 842.15) rotate(-60)"/><polygon class="cls-5" points="619.11 563.02 425.32 451.59 425.32 364.54 619.11 475.97 619.11 563.02"/><polygon class="cls-6" points="779.31 383.48 619.1 475.97 425.32 364.54 585.51 272.05 779.31 383.48"/><path class="cls-7" d="M690.81,102V321h74V100.05h0v0l0-22.22c0-5.51-3.62-11.06-10.92-15.27l-1.11-.61-.3-.16-1.14-.57-.1,0c-.42-.2-.86-.39-1.3-.58a0,0,0,0,0,0,0c-.36-.16-.73-.31-1.09-.45a.52.52,0,0,0-.16-.06L748.5,60l-.21-.09-.89-.33c-.37-.13-.73-.27-1.11-.38s-.76-.27-1.14-.37l-1.1-.34h0l-1-.26c-1-.25-1.93-.49-2.91-.69l-1.82-.34-.93-.16-.93-.13c-.59-.09-1.17-.16-1.77-.23h0c-.6-.06-1.2-.13-1.81-.18-1.2-.1-2.43-.16-3.64-.19h-.72l-1,0-1,0c-.35,0-.72,0-1.07,0l-1,0c-.7,0-1.41.09-2.11.15l-.92.09h-.12c-.44,0-.87.1-1.33.16l-1,.13-1.18.18-1.14.19h0l-.9.16-.9.19c-.59.12-1.18.27-1.76.41l-.88.22c-.3.07-.59.16-.87.25-.58.16-1.14.32-1.71.51l-1.08.37c-.35.11-.69.25-1,.38-.63.23-1.26.48-1.86.74l-.62.27c-.76.33-1.5.7-2.23,1.09l-.52.28c-.26.15-.52.3-.79.44a4.83,4.83,0,0,1-.45.26,3.37,3.37,0,0,1-.31.21l-.52.32a26.89,26.89,0,0,0-3.85,3l-.06,0c-.33.31-.66.63-1,1-.13.15-.27.28-.38.42s-.28.31-.41.46-.27.32-.4.47l-.09.13a3,3,0,0,0-.27.35l-.35.48-.28.4c-.21.32-.41.64-.59,1a5.21,5.21,0,0,0-.3.57,9.91,9.91,0,0,0-.47,1l-.09.22c0,.1-.09.22-.12.32s-.11.31-.17.46a2,2,0,0,0-.08.26,2.42,2.42,0,0,0-.1.32c-.1.34-.19.69-.26,1h0s0,.08,0,.11,0,.27-.07.41a2.63,2.63,0,0,1-.06.39c0,.18,0,.34,0,.51a2.83,2.83,0,0,0,0,.41,1.46,1.46,0,0,0,0,.3v.32l-.07,22.24A12.44,12.44,0,0,0,690.81,102Z"/><path class="cls-8" d="M764.77,76.68l-.06,21.86v.31c0,.1,0,.2,0,.3s0,.27,0,.4,0,.35,0,.52,0,.26-.05.39l-.08.41a.36.36,0,0,1,0,.1h0a9.43,9.43,0,0,1-.25,1c0,.11-.06.21-.1.32l-.08.25c0,.17-.11.32-.16.47l-.13.31c0,.08-.06.15-.08.23-.15.33-.31.66-.47,1l-.31.57c-.19.33-.38.66-.59,1l-.28.41-.35.48a4.29,4.29,0,0,1-.28.35,1.48,1.48,0,0,0-.08.13c-.13.15-.25.31-.39.46s-.28.32-.42.47-.25.27-.38.41c-.31.33-.63.65-1,1,0,0,0,0,0,0a26.42,26.42,0,0,1-3.84,3c-.18.12-.35.23-.53.33l-.32.2a3.42,3.42,0,0,1-.46.26l-.77.44c-.18.1-.34.2-.52.28-.73.39-1.48.76-2.24,1.1l-.61.27c-.6.26-1.23.51-1.85.74l-1,.39-1.09.36c-.56.17-1.13.35-1.7.51-.29.09-.57.17-.86.24l-.88.23c-.59.15-1.18.29-1.77.41l-.89.18-.9.17h0c-.39.08-.76.14-1.14.2l-1.18.18-1.05.14-1.33.15H734l-.92.09c-.71,0-1.41.1-2.11.13l-.94,0h0c-.36,0-.73,0-1.09,0h-2.7c-1.23,0-2.44-.1-3.66-.2h0c-.59,0-1.17-.12-1.76-.18h0l-1.77-.23-.93-.13-.93-.15c-.37-.08-.76-.14-1.14-.23l-.67-.13c-1-.2-2-.43-2.92-.69-.31-.07-.64-.16-1-.25h0l-1.11-.34c-.38-.11-.76-.24-1.13-.36s-.76-.25-1.12-.39l-.89-.34-.21-.07v0a.35.35,0,0,1-.13-.05.94.94,0,0,1-.15-.06c-.38-.14-.74-.29-1.1-.45h0c-.45-.19-.87-.39-1.3-.59l-.1,0-1.14-.57-.29-.16c-.38-.19-.74-.4-1.12-.62-.22-.12-.45-.26-.66-.4-6.85-4.14-10.28-9.52-10.27-14.87l.07-22.22c0,5.34,3.4,10.67,10.2,14.8.23.16.49.3.74.45.62.35,1.26.7,1.92,1,.18.1.37.18.56.27a2.93,2.93,0,0,0,.4.19l.67.31c.57.27,1.18.52,1.79.76l.21.07c.29.12.59.24.88.34s.74.26,1.12.39.46.16.7.23l.73.23.85.26c1.26.35,2.55.67,3.87.94l.61.12a4.91,4.91,0,0,0,.5.1l.86.15.86.14L719,97c.6.08,1.21.16,1.81.22s1.1.12,1.68.18h.13l.8,0c.64,0,1.28.08,1.93.11.3,0,.6,0,.9,0H729l1,0h0l1,0c.7,0,1.42-.08,2.12-.14l.92-.08h.1c.42,0,.85-.09,1.27-.15l1.11-.14c.47-.06.93-.14,1.39-.21s.64-.1,1-.17l.9-.16.69-.14c.53-.11,1-.23,1.56-.36l.58-.14,1.65-.44c.54-.15,1.08-.31,1.62-.49h0l.87-.29.68-.24c.26-.08.51-.18.77-.28.56-.22,1.11-.44,1.65-.68l.6-.27c.76-.33,1.52-.7,2.25-1.09l.51-.29c.26-.13.53-.28.78-.42l.46-.28A31,31,0,0,0,757.56,89c.19-.14.37-.29.55-.44.36-.3.7-.6,1-.9,0,0,0,0,.05,0,.19-.18.38-.35.55-.53a19.73,19.73,0,0,0,1.7-1.89c.22-.29.44-.57.63-.86.1-.13.18-.26.27-.39.21-.32.42-.65.59-1,.29-.53.55-1.06.78-1.58.07-.18.15-.35.21-.53s.13-.35.18-.53.11-.34.16-.51a10.26,10.26,0,0,0,.25-1,7.71,7.71,0,0,0,.16-1,.32.32,0,0,0,0-.13c0-.13,0-.29,0-.44v0C764.76,77,764.76,76.82,764.77,76.68Z"/><path class="cls-9" d="M764.77,76.68l-.06,21.86v.31c0,.1,0,.2,0,.3s0,.27,0,.4,0,.35,0,.52,0,.26-.05.39l-.08.41a.36.36,0,0,1,0,.1h0a9.43,9.43,0,0,1-.25,1c0,.11-.06.21-.1.32l-.08.25c0,.17-.11.32-.16.47l-.13.31c0,.08-.06.15-.08.23-.15.33-.31.66-.47,1l-.31.57c-.19.33-.38.66-.59,1l-.28.41-.35.48a4.29,4.29,0,0,1-.28.35,1.48,1.48,0,0,0-.08.13c-.13.15-.25.31-.39.46s-.28.32-.42.47-.25.27-.38.41c-.31.33-.63.65-1,1,0,0,0,0,0,0a26.42,26.42,0,0,1-3.84,3c-.18.12-.35.23-.53.33l-.32.2a3.42,3.42,0,0,1-.46.26l-.77.44c-.18.1-.34.2-.52.28-.73.39-1.48.76-2.24,1.1l-.61.27c-.6.26-1.23.51-1.85.74l-1,.39-1.09.36c-.56.17-1.13.35-1.7.51-.29.09-.57.17-.86.24l-.88.23c-.59.15-1.18.29-1.77.41l-.89.18-.9.17h0c-.39.08-.76.14-1.14.2l-1.18.18-1.05.14-1.33.15H734l-.92.09c-.71,0-1.41.1-2.11.13l-.94,0h0c-.36,0-.73,0-1.09,0h-2.7c-1.23,0-2.44-.1-3.66-.2h0c-.59,0-1.17-.12-1.76-.18h0l-1.77-.23-.93-.13-.93-.15c-.37-.08-.76-.14-1.14-.23l-.67-.13c-1-.2-2-.43-2.92-.69-.31-.07-.64-.16-1-.25h0l-1.11-.34c-.38-.11-.76-.24-1.13-.36s-.76-.25-1.12-.39l-.89-.34-.21-.07v0a.35.35,0,0,1-.13-.05.94.94,0,0,1-.15-.06c-.38-.14-.74-.29-1.1-.45h0c-.45-.19-.87-.39-1.3-.59l-.1,0-1.14-.57-.29-.16c-.38-.19-.74-.4-1.12-.62-.22-.12-.45-.26-.66-.4-6.85-4.14-10.28-9.52-10.27-14.87l.07-22.22c0,5.34,3.4,10.67,10.2,14.8.23.16.49.3.74.45.62.35,1.26.7,1.92,1,.18.1.37.18.56.27a2.93,2.93,0,0,0,.4.19l.67.31c.57.27,1.18.52,1.79.76l.21.07c.29.12.59.24.88.34s.74.26,1.12.39.46.16.7.23l.73.23.85.26c1.26.35,2.55.67,3.87.94l.61.12a4.91,4.91,0,0,0,.5.1l.86.15.86.14L719,97c.6.08,1.21.16,1.81.22s1.1.12,1.68.18h.13l.8,0c.64,0,1.28.08,1.93.11.3,0,.6,0,.9,0H729l1,0h0l1,0c.7,0,1.42-.08,2.12-.14l.92-.08h.1c.42,0,.85-.09,1.27-.15l1.11-.14c.47-.06.93-.14,1.39-.21s.64-.1,1-.17l.9-.16.69-.14c.53-.11,1-.23,1.56-.36l.58-.14,1.65-.44c.54-.15,1.08-.31,1.62-.49h0l.87-.29.68-.24c.26-.08.51-.18.77-.28.56-.22,1.11-.44,1.65-.68l.6-.27c.76-.33,1.52-.7,2.25-1.09l.51-.29c.26-.13.53-.28.78-.42l.46-.28A31,31,0,0,0,757.56,89c.19-.14.37-.29.55-.44.36-.3.7-.6,1-.9,0,0,0,0,.05,0,.19-.18.38-.35.55-.53a19.73,19.73,0,0,0,1.7-1.89c.22-.29.44-.57.63-.86.1-.13.18-.26.27-.39.21-.32.42-.65.59-1,.29-.53.55-1.06.78-1.58.07-.18.15-.35.21-.53s.13-.35.18-.53.11-.34.16-.51a10.26,10.26,0,0,0,.25-1,7.71,7.71,0,0,0,.16-1,.32.32,0,0,0,0-.13c0-.13,0-.29,0-.44v0C764.76,77,764.76,76.82,764.77,76.68Z"/><ellipse class="cls-8" cx="727.74" cy="76.17" rx="21.45" ry="37.04" transform="translate(649.5 803.69) rotate(-89.84)"/><path class="cls-4" d="M716,96.49v22.26l-.67-.13c-1-.2-2-.43-2.92-.69-.31-.07-.64-.16-1-.25h0l-1.11-.34c-.38-.11-.76-.24-1.13-.36s-.76-.25-1.12-.39l-.89-.34-.21-.07v0a.35.35,0,0,1-.13-.05.94.94,0,0,1-.15-.06c-.38-.14-.74-.29-1.1-.45h0c-.45-.19-.87-.39-1.3-.59l-.1,0-1.14-.57-.29-.16c-.38-.19-.74-.4-1.12-.62-.22-.12-.45-.26-.66-.4V90.9c.23.16.49.3.74.45.62.35,1.26.7,1.92,1,.18.1.37.18.56.27a2.93,2.93,0,0,0,.4.19l.67.31c.57.27,1.18.52,1.79.76l.21.07c.29.12.59.24.88.34s.74.26,1.12.39.46.16.7.23l.73.23.85.26c1.26.35,2.55.67,3.87.94Z"/><path class="cls-4" d="M730,97.58v22.26h0c-.36,0-.73,0-1.09,0h-2.7c-1.23,0-2.44-.1-3.66-.2h0V97.41h.13l.8,0c.64,0,1.28.08,1.93.11.3,0,.6,0,.9,0H729Z"/><path class="cls-10" d="M793.62,192.27v.41c0,.06,0,.11,0,.18C793.62,192.66,793.62,192.47,793.62,192.27Z"/><g class="cls-1"><path class="cls-11" d="M786.81,218.86l-.06.06h0Z"/></g><path class="cls-12" d="M769.84,205.86V207l0,11.31c0,.14,0,.26,0,.4s0,.43,0,.65a11.6,11.6,0,0,1-.15,1.29c0,.22-.07.44-.11.65l-.07.31c0,.15-.06.29-.1.42s-.09.36-.14.53-.13.41-.19.62-.15.43-.23.65c-.16.44-.35.87-.55,1.29s-.41.85-.65,1.27c-.15.26-.29.52-.45.77l-.39.59c-.3.44-.62.88-1,1.33h0A24.9,24.9,0,0,1,763,232a.17.17,0,0,1-.06.06h0a34.24,34.24,0,0,1-4.68,3.58l-.76.48-.27.16c-.18.11-.36.22-.55.32L368.51,462.25c-.45.26-.92.51-1.38.75a5.84,5.84,0,0,1-.65.35c-1.13.58-2.3,1.13-3.51,1.63-.35.15-.69.29-1.05.42s-.44.18-.67.27c-.69.25-1.37.5-2.08.73l-.37.13-.17,0-.25.1-.26.07c-.32.11-.63.21-1,.3s-.77.23-1.16.32a4.38,4.38,0,0,1-.71.19c-.53.15-1.07.29-1.6.41a.93.93,0,0,1-.22,0c-.51.13-1,.25-1.55.35s-.82.17-1.23.24l-.39.08-.2,0h0l-.91.16c-1.12.19-2.25.34-3.39.48l-.16,0c-.28,0-.55.07-.83.09l-.3,0h-.16l-.6.06-.6.05c-.67.07-1.35.11-2,.15h-.22l-1,.05-.52,0-.51,0c-.71,0-1.42,0-2.14,0h-1l-1,0h-.21c-1.41-.05-2.82-.12-4.22-.24s-2.94-.28-4.39-.48-2.86-.45-4.25-.74l-.21,0c-.58-.1-1.17-.24-1.74-.38s-1.36-.32-2-.5l-.47-.13a4.42,4.42,0,0,1-.48-.15l-.48-.12-.56-.17c-.58-.17-1.16-.36-1.74-.55s-1-.37-1.57-.57c-.31-.1-.61-.22-.91-.33l-.21-.09-.33-.13c-.46-.18-.91-.37-1.36-.57h0q-.82-.36-1.65-.75c-.53-.25-1.07-.53-1.6-.8s-1.05-.56-1.55-.85L86,335.91c-8.88-5.13-13.32-11.86-13.3-18.59l0-12.85c0,6.73,4.43,13.45,13.31,18.57L304.81,449.37c.71.41,1.45.81,2.2,1.18.39.21.78.4,1.17.58s.95.44,1.44.65.9.4,1.37.57a2.22,2.22,0,0,0,.32.14l.21.08c.37.15.75.3,1.13.42s.9.34,1.36.49l1.38.44c.29.1.6.19.9.27s.33.1.5.15l.57.16c.84.23,1.69.44,2.54.64l1.37.31.21,0c1.47.3,3,.57,4.47.78h0c1.32.18,2.66.34,4,.44l.39,0,.6,0c1.28.11,2.56.17,3.84.19,1.1,0,2.19,0,3.28,0,.45,0,.89,0,1.33,0l1.26-.05c.42,0,.84,0,1.25-.07l1.81-.14.68-.06.4,0,1-.1c1-.13,2-.26,3-.42.47-.06,1-.15,1.42-.23.74-.13,1.46-.28,2.19-.44s1.37-.3,2-.47l.32-.08c.54-.13,1.08-.27,1.61-.42l.74-.21c.46-.13.9-.27,1.34-.41l.31-.1.31-.1c.32-.1.62-.2.93-.32.54-.18,1.06-.38,1.59-.58l1.78-.71a.2.2,0,0,1,.09-.05l1.66-.74,1.49-.74c.22-.11.44-.22.65-.35.46-.24.93-.49,1.38-.76l388.2-225.6c.19-.1.37-.21.55-.32l.25-.16c.26-.16.53-.32.78-.49l.76-.49.72-.51c.72-.5,1.39-1,2-1.56l.63-.54.54-.48c.22-.2.43-.4.63-.61a7.14,7.14,0,0,0,.55-.55,21.09,21.09,0,0,0,1.61-1.85,18.56,18.56,0,0,0,1.81-2.68h0c.12-.19.21-.38.31-.56a.83.83,0,0,0,.07-.13c.21-.4.4-.82.57-1.22.09-.21.18-.43.26-.65a17.73,17.73,0,0,0,.56-1.8l.09-.4a2,2,0,0,0,.08-.33c0-.17.06-.34.08-.5s.07-.36.09-.54,0-.47.07-.7,0-.38,0-.58V206C769.83,206,769.84,205.92,769.84,205.86Z"/><path class="cls-13" d="M756.54,186.85c17.66,10.2,17.75,26.73.21,36.92l-388.2,225.6c-17.55,10.2-46.09,10.2-63.75,0L86,323c-17.66-10.19-17.75-26.72-.21-36.92L474,60.52c17.55-10.19,46.09-10.2,63.75,0Z"/><path class="cls-13" d="M769.81,206.33v-1.87A14.59,14.59,0,0,1,769.81,206.33Z"/><path class="cls-12" d="M284.32,333.83a1.12,1.12,0,0,0,.69-1c0-.42-.36-.82-1-1.21a4.25,4.25,0,0,0-1.7-.58,2.4,2.4,0,0,0-1.44.27,1.09,1.09,0,0,0-.43.38.55.55,0,0,0,0,.5,2.27,2.27,0,0,0,.44.66,9.59,9.59,0,0,0,.94.88,4.44,4.44,0,0,1,1.73,2.31c.12.69-.34,1.34-1.39,1.94l-.2.12a6.61,6.61,0,0,1-1.81.7,7.42,7.42,0,0,1-2,.16,8.72,8.72,0,0,1-2.1-.36,9.55,9.55,0,0,1-2.06-.9,5.93,5.93,0,0,1-1.74-1.38,2.39,2.39,0,0,1-.57-1.4,2.07,2.07,0,0,1,.48-1.32,4.65,4.65,0,0,1,1.42-1.17l.51-.3,2.25,1.3-.4.24c-.72.41-1.08.86-1.1,1.35s.42,1,1.3,1.48a4.11,4.11,0,0,0,2,.62,3,3,0,0,0,1.55-.32,1.44,1.44,0,0,0,.45-.38.59.59,0,0,0,.12-.48,1.52,1.52,0,0,0-.31-.63,6,6,0,0,0-.84-.82,9.63,9.63,0,0,1-1.25-1.18,2.88,2.88,0,0,1-.65-1.13,1.41,1.41,0,0,1,.16-1.09,3.18,3.18,0,0,1,1.2-1l.1-.06a5.17,5.17,0,0,1,1.65-.61,7.63,7.63,0,0,1,1.92-.15,8.87,8.87,0,0,1,4,1.17,5.68,5.68,0,0,1,1.58,1.25,2.23,2.23,0,0,1,.56,1.27,1.74,1.74,0,0,1-.34,1.16,3.57,3.57,0,0,1-1.11,1l-.62.35-2.25-1.3Z"/><path class="cls-12" d="M291.57,344.63l-4.06-2.34-3.14,1.14L282,342.07l14.78-5.24,4.23,2.44-9.09,8.53-2.35-1.36Zm-1.44-3.3,3.09,1.78,4.72-4.32-.3-.18Z"/><path class="cls-12" d="M307.61,343.07l8.6,5-2.15,1.24-3.18-1.83-9.78,5.65-2.25-1.3,9.78-5.65-3.17-1.83Z"/><path class="cls-12" d="M315.87,353.19a9.91,9.91,0,0,1,4.76-1.4,8.39,8.39,0,0,1,4.51,1.12c1.38.8,2,1.66,1.95,2.61s-.88,1.86-2.43,2.75L322,359.8a9.89,9.89,0,0,1-4.8,1.43,8.5,8.5,0,0,1-4.47-1.15c-1.38-.8-2-1.66-2-2.59s.87-1.85,2.47-2.77Zm-1.1,5.71a4.23,4.23,0,0,0,1.22.48,4.17,4.17,0,0,0,1.22.06,4.28,4.28,0,0,0,1.21-.29,8.15,8.15,0,0,0,1.2-.57l2.93-1.69a5.19,5.19,0,0,0,.94-.68,1.75,1.75,0,0,0,.48-.71,1,1,0,0,0-.1-.71,2,2,0,0,0-.78-.7,3.55,3.55,0,0,0-1.2-.44,4.24,4.24,0,0,0-1.23-.06,5,5,0,0,0-1.23.28,6.6,6.6,0,0,0-1.18.54l-2.93,1.69a6,6,0,0,0-1,.69,1.45,1.45,0,0,0-.49.7.81.81,0,0,0,.11.7A2.29,2.29,0,0,0,314.77,358.9Z"/><path class="cls-12" d="M336.29,363.84a1.14,1.14,0,0,0,.69-1c0-.41-.36-.82-1-1.2a4.25,4.25,0,0,0-1.7-.58,2.28,2.28,0,0,0-1.43.26,1.15,1.15,0,0,0-.44.39.57.57,0,0,0,0,.5,2.25,2.25,0,0,0,.44.65,8.75,8.75,0,0,0,.95.88,4.52,4.52,0,0,1,1.72,2.32c.12.69-.34,1.33-1.38,1.94l-.21.11a6.3,6.3,0,0,1-1.81.7,7.42,7.42,0,0,1-2,.17,8.56,8.56,0,0,1-2.09-.36,9.41,9.41,0,0,1-2.07-.9,6.22,6.22,0,0,1-1.74-1.39,2.36,2.36,0,0,1-.57-1.39,2.09,2.09,0,0,1,.48-1.32,4.79,4.79,0,0,1,1.42-1.18l.51-.29,2.26,1.3-.41.23c-.72.42-1.08.87-1.1,1.35s.42,1,1.3,1.49a4.26,4.26,0,0,0,2,.62,2.83,2.83,0,0,0,1.55-.33,1.36,1.36,0,0,0,.46-.38.62.62,0,0,0,.11-.48,1.33,1.33,0,0,0-.31-.62,5.07,5.07,0,0,0-.84-.82,9.65,9.65,0,0,1-1.25-1.19,2.81,2.81,0,0,1-.65-1.13,1.41,1.41,0,0,1,.16-1.09,3.27,3.27,0,0,1,1.2-1l.1-.06a5.69,5.69,0,0,1,1.65-.61,8.13,8.13,0,0,1,1.92-.14,8.79,8.79,0,0,1,2,.33,8.65,8.65,0,0,1,2,.84,5.41,5.41,0,0,1,1.57,1.25,2.29,2.29,0,0,1,.57,1.26,1.83,1.83,0,0,1-.34,1.16,3.38,3.38,0,0,1-1.12,1l-.62.36-2.25-1.3Z"/><path class="cls-12" d="M346.71,365.64l2.25,1.3-4.87,2.82,3.85,2.22,4.88-2.81,2.24,1.3-11.93,6.89-2.25-1.3,4.91-2.84L341.94,371,337,373.83l-2.25-1.3Z"/><path class="cls-12" d="M359.89,373.25l8,4.61-2.15,1.24-2.86-1.66-7.64,4.41,2.86,1.66-2.14,1.24-8-4.61,2.14-1.24,2.87,1.66,7.63-4.42-2.86-1.65Z"/><path class="cls-12" d="M251.16,352.49l.31.18,10.81-6.24,2.25,1.29-11.94,6.9-4.4-2.54L257.6,345l-.3-.18-10.81,6.24-2.25-1.3,11.93-6.89,4.4,2.54Z"/><path class="cls-12" d="M266,359.4l-4.06-2.34-3.13,1.14-2.36-1.36,14.79-5.25,4.23,2.44-9.09,8.54L264,361.21Zm-1.43-3.31,3.08,1.78,4.73-4.32-.31-.17Z"/><path class="cls-12" d="M272.74,366.25l-2.25-1.3,11.94-6.89,2.25,1.3-4.89,2.83.49.28,8.05-1,2.54,1.46-.1.06-9.4,1.17-.3.18-1.83,5.54-.1.06-2.64-1.52,1.63-4.71-.49-.28Z"/><path class="cls-12" d="M292,374.4l-4.06-2.34-3.14,1.14-2.35-1.36,14.78-5.24,4.23,2.44-9.09,8.53L290,376.21Zm-1.44-3.31,3.09,1.79,4.72-4.32-.3-.18Z"/><path class="cls-12" d="M307.48,372.52l3.95,2.29-8.28,5.57-1.74,1,.41.24,1.74-1,9.65-4.79,4,2.28L305.23,385l-2.05-1.19,8-4.6,2.93-1.46-.41-.24-11.59,5.67-3.37-1.95,9.78-6.71-.41-.24-2.52,1.7-8,4.6-2-1.18Z"/><path class="cls-12" d="M316.28,383a9.93,9.93,0,0,1,4.76-1.41,8.48,8.48,0,0,1,4.51,1.13c1.38.8,2,1.66,1.95,2.61s-.88,1.85-2.43,2.75l-2.66,1.53a9.89,9.89,0,0,1-4.8,1.43,8.5,8.5,0,0,1-4.47-1.15c-1.38-.8-2-1.66-2-2.59s.87-1.85,2.47-2.77Zm-1.1,5.71a4.2,4.2,0,0,0,1.22.47,3.86,3.86,0,0,0,1.22.07,4.64,4.64,0,0,0,1.21-.29,8.15,8.15,0,0,0,1.2-.57l2.93-1.69a5.56,5.56,0,0,0,.94-.68,1.54,1.54,0,0,0,.47-.71.9.9,0,0,0-.09-.71,2.06,2.06,0,0,0-.77-.7,4,4,0,0,0-1.21-.45,4.62,4.62,0,0,0-1.23-.05,5,5,0,0,0-1.23.28,6.6,6.6,0,0,0-1.18.54l-2.93,1.69a6,6,0,0,0-1,.69,1.45,1.45,0,0,0-.49.7.84.84,0,0,0,.11.7A2.29,2.29,0,0,0,315.18,388.67Z"/><path class="cls-12" d="M334,387.84l8.59,5L340.45,394l-3.17-1.83-9.79,5.65-2.25-1.3,9.79-5.65-3.17-1.83Z"/><path class="cls-12" d="M342.26,398a10,10,0,0,1,4.77-1.4,8.48,8.48,0,0,1,4.51,1.12q2.06,1.2,1.95,2.61c-.07.94-.88,1.86-2.43,2.75l-2.66,1.53a9.89,9.89,0,0,1-4.8,1.43,8.48,8.48,0,0,1-4.47-1.15c-1.38-.79-2-1.65-2-2.58s.87-1.86,2.46-2.77Zm-1.09,5.71a3.91,3.91,0,0,0,2.44.54,4.72,4.72,0,0,0,1.21-.28,8.62,8.62,0,0,0,1.19-.57l2.94-1.7a4.66,4.66,0,0,0,.93-.68,1.6,1.6,0,0,0,.48-.71.9.9,0,0,0-.09-.71,2,2,0,0,0-.78-.69,3.44,3.44,0,0,0-1.2-.45,4.33,4.33,0,0,0-1.24-.06,5,5,0,0,0-1.23.28,6.91,6.91,0,0,0-1.17.54l-2.93,1.7a5.49,5.49,0,0,0-1,.68,1.61,1.61,0,0,0-.5.7.87.87,0,0,0,.11.71A2.34,2.34,0,0,0,341.17,403.67Z"/><path class="cls-4" d="M575.25,219.8l-28.94-16.7c-5-2.91-4.4-8,1.41-11.34L594.05,165c5.81-3.36,14.61-3.72,19.64-.81l28.93,16.7c5,2.91,4.41,8-1.41,11.34L594.89,219C589.08,222.34,580.28,222.71,575.25,219.8Z"/><path class="cls-12" d="M587.3,180.63a19.38,19.38,0,0,1,9.57,2.27c2.4,1.38,3.7,3.16,3.68,5v1h1.11a19.47,19.47,0,0,1,9.58,2.28c2.37,1.36,3.67,3.12,3.67,4.95s-1.31,3.58-3.68,5a21.29,21.29,0,0,1-19.15,0c-2.4-1.39-3.7-3.16-3.68-5l0-1h-1.14a19.42,19.42,0,0,1-9.56-2.27c-2.37-1.37-3.67-3.13-3.67-4.95s1.31-3.59,3.68-5a19.44,19.44,0,0,1,9.58-2.27m0-1A20.56,20.56,0,0,0,577.22,182c-5.57,3.21-5.57,8.42,0,11.63a20.51,20.51,0,0,0,10.06,2.41h.12c0,2.13,1.37,4.26,4.18,5.88a22.26,22.26,0,0,0,20.15,0c5.57-3.21,5.57-8.43,0-11.64a20.61,20.61,0,0,0-10.08-2.41h-.1c0-2.12-1.37-4.25-4.18-5.88a20.62,20.62,0,0,0-10.07-2.4Z"/><line class="cls-14" x1="553.6" y1="207.3" x2="620.98" y2="168.4"/><line class="cls-14" x1="568.62" y1="215.98" x2="636" y2="177.08"/><polygon class="cls-12" points="630.31 220.59 625.76 217.96 639.43 210.06 643.99 212.69 630.31 220.59"/><polygon class="cls-12" points="635.91 229.08 631.35 226.45 654.14 213.29 658.7 215.92 635.91 229.08"/><polygon class="cls-12" points="641.5 237.57 636.95 234.94 668.85 216.52 673.41 219.15 641.5 237.57"/><polygon class="cls-4" points="411.8 268.7 306.67 208.01 340.12 188.7 445.25 249.39 411.8 268.7"/><polygon class="cls-12" points="383.14 285.25 278.01 224.56 292.35 216.28 397.47 276.97 383.14 285.25"/><polygon class="cls-15" points="411.8 268.7 445.25 249.39 340.12 188.7 306.67 208.01 411.8 268.7"/><path class="cls-16" d="M255.64,247.34l-.45.27h0C255.34,247.51,255.48,247.42,255.64,247.34Z"/><path class="cls-17" d="M118.31,318.09V562.7h82.61V316h-.07v0l.07-24.81c0-6.16-4-12.35-12.2-17.06l-1.25-.68-.32-.18-1.28-.64-.11-.05c-.47-.23-1-.44-1.46-.65,0,0,0,0,0,0-.41-.18-.82-.34-1.23-.5a.56.56,0,0,0-.18-.07.35.35,0,0,0-.14-.06l-.23-.1-1-.38c-.41-.15-.82-.29-1.24-.42s-.85-.3-1.27-.41l-1.23-.38h-.05l-1.06-.3c-1.08-.28-2.16-.54-3.25-.77-.69-.13-1.37-.26-2-.37l-1-.18-1.05-.15c-.65-.1-1.3-.18-2-.26h0c-.67-.06-1.34-.15-2-.2-1.34-.11-2.72-.17-4.07-.21h-.8l-1.06,0-1.18,0c-.39,0-.8,0-1.19,0s-.72,0-1.1,0l-2.35.16-1,.1h-.13l-1.49.18-1.16.15-1.32.2-1.27.21h0c-.34.05-.69.12-1,.18s-.67.13-1,.22c-.67.13-1.32.29-2,.45l-1,.25c-.32.08-.65.18-1,.28-.65.18-1.27.36-1.91.57l-1.21.41q-.59.19-1.14.42c-.7.26-1.41.54-2.08.83l-.68.3c-.85.37-1.68.78-2.5,1.22-.2.1-.39.2-.57.31l-.89.49-.5.3c-.12.08-.23.14-.35.23l-.58.36a28.94,28.94,0,0,0-4.3,3.3l-.06,0c-.38.35-.74.71-1.08,1.07-.15.16-.3.31-.43.47s-.31.34-.45.51-.3.36-.45.52l-.09.15a3.52,3.52,0,0,0-.31.39l-.4.54a5.14,5.14,0,0,1-.31.44c-.22.36-.45.72-.65,1.09a6.61,6.61,0,0,0-.34.64c-.2.36-.36.73-.53,1.11l-.09.25a2.48,2.48,0,0,0-.13.35c-.09.17-.13.35-.2.51a1.67,1.67,0,0,0-.08.3,2.86,2.86,0,0,0-.12.35c-.11.38-.21.77-.29,1.16v0s0,.08,0,.11,0,.31-.08.46a3.11,3.11,0,0,1-.06.44c0,.2,0,.38,0,.58a3.42,3.42,0,0,0,0,.45c0,.12,0,.21,0,.33v.36l-.08,24.84A14.44,14.44,0,0,0,118.31,318.09Z"/><path class="cls-8" d="M200.91,289.86l-.07,24.41v.35c0,.12,0,.23,0,.34s0,.29,0,.45,0,.39-.06.57,0,.3,0,.44l-.09.46a.23.23,0,0,1,0,.11v0a9.33,9.33,0,0,1-.28,1.16,2.47,2.47,0,0,1-.11.36l-.08.28c-.06.18-.13.35-.18.52s-.1.24-.14.35-.07.17-.1.25c-.17.38-.34.75-.52,1.11l-.35.65c-.21.36-.42.72-.66,1.07l-.31.47-.39.53c-.1.13-.2.27-.31.39l-.1.14c-.14.17-.28.35-.43.52l-.46.52a4.78,4.78,0,0,1-.44.46,13.65,13.65,0,0,1-1.08,1.07l-.05.05a29.71,29.71,0,0,1-4.29,3.29c-.2.13-.39.26-.59.37l-.36.22-.51.3c-.28.17-.57.33-.87.49a6.28,6.28,0,0,1-.57.31c-.81.43-1.65.85-2.51,1.23l-.67.29c-.67.3-1.37.58-2.08.83-.37.15-.75.29-1.14.43l-1.22.41-1.89.58-1,.26-1,.25c-.66.17-1.32.33-2,.47-.33.07-.67.14-1,.19l-1,.2h0l-1.27.22-1.32.2-1.18.15-1.48.17h-.12l-1,.1c-.79.05-1.57.11-2.36.15l-1.05.05h0l-1.22,0h-2.22l-.79,0c-1.37,0-2.73-.11-4.09-.22h-.06l-2-.2h0l-2-.25-1-.15-1-.17-1.28-.25-.75-.14c-1.11-.23-2.19-.49-3.25-.77l-1.07-.28a0,0,0,0,0,0,0l-1.25-.38c-.42-.12-.84-.26-1.26-.4s-.84-.28-1.24-.44l-1-.38-.24-.08h0a.84.84,0,0,1-.14-.06l-.17-.07c-.42-.15-.82-.32-1.23-.51h0c-.51-.21-1-.43-1.46-.66l-.11-.05-1.28-.63-.32-.19c-.42-.21-.83-.44-1.25-.68-.25-.14-.5-.3-.74-.45C121.93,326,118.1,320,118.12,314l.07-24.81c0,5.95,3.8,11.91,11.39,16.52.27.18.55.34.83.5.7.4,1.41.79,2.14,1.15.21.12.42.21.63.31a3.68,3.68,0,0,0,.45.21c.24.13.49.24.74.35q1,.45,2,.84l.23.09,1,.38c.4.15.82.29,1.24.43a8,8,0,0,0,.79.25c.26.1.53.18.81.27l.95.28c1.4.39,2.85.75,4.32,1.05l.68.14.56.11,1,.17,1,.15c.31.06.62.1.93.14.67.1,1.34.19,2,.26s1.23.12,1.87.19l.14,0,.9.05c.72.06,1.43.09,2.16.13.34,0,.67,0,1,0h3l1.16,0h0c.35,0,.72,0,1.08,0,.79-.05,1.59-.09,2.37-.16l1-.08a.22.22,0,0,1,.12,0c.47-.05,1-.09,1.41-.16l1.25-.16c.52-.07,1-.15,1.55-.24.35-.05.72-.11,1.05-.18s.68-.12,1-.18l.77-.15,1.74-.41c.21,0,.44-.1.66-.16.62-.15,1.23-.32,1.84-.49s1.2-.35,1.8-.54a0,0,0,0,0,0,0c.32-.09.65-.21,1-.32l.75-.26c.3-.1.58-.22.87-.33.62-.24,1.24-.49,1.84-.75.22-.1.45-.19.67-.3.86-.38,1.7-.78,2.51-1.22.2-.1.39-.21.57-.32s.59-.32.87-.48.34-.21.52-.3a35.9,35.9,0,0,0,3.45-2.37c.21-.16.42-.32.61-.49.41-.34.79-.67,1.17-1,0,0,0,0,.05-.06l.62-.59a22.91,22.91,0,0,0,1.89-2.11c.25-.32.49-.63.7-.95l.31-.44c.24-.36.46-.73.66-1.08.32-.59.62-1.17.87-1.76.08-.2.17-.4.24-.59s.14-.39.19-.59.13-.38.18-.57a11.26,11.26,0,0,0,.28-1.15c.09-.4.14-.79.19-1.17a.66.66,0,0,0,0-.14c0-.15,0-.32.06-.49v0C200.9,290.19,200.9,290,200.91,289.86Z"/><path class="cls-18" d="M200.91,289.86l-.07,24.41v.35c0,.12,0,.23,0,.34s0,.29,0,.45,0,.39-.06.57,0,.3,0,.44l-.09.46a.23.23,0,0,1,0,.11v0a9.33,9.33,0,0,1-.28,1.16,2.47,2.47,0,0,1-.11.36l-.08.28c-.06.18-.13.35-.18.52s-.1.24-.14.35-.07.17-.1.25c-.17.38-.34.75-.52,1.11l-.35.65c-.21.36-.42.72-.66,1.07l-.31.47-.39.53c-.1.13-.2.27-.31.39l-.1.14c-.14.17-.28.35-.43.52l-.46.52a4.78,4.78,0,0,1-.44.46,13.65,13.65,0,0,1-1.08,1.07l-.05.05a29.71,29.71,0,0,1-4.29,3.29c-.2.13-.39.26-.59.37l-.36.22-.51.3c-.28.17-.57.33-.87.49a6.28,6.28,0,0,1-.57.31c-.81.43-1.65.85-2.51,1.23l-.67.29c-.67.3-1.37.58-2.08.83-.37.15-.75.29-1.14.43l-1.22.41-1.89.58-1,.26-1,.25c-.66.17-1.32.33-2,.47-.33.07-.67.14-1,.19l-1,.2h0l-1.27.22-1.32.2-1.18.15-1.48.17h-.12l-1,.1c-.79.05-1.57.11-2.36.15l-1.05.05h0l-1.22,0h-2.22l-.79,0c-1.37,0-2.73-.11-4.09-.22h-.06l-2-.2h0l-2-.25-1-.15-1-.17-1.28-.25-.75-.14c-1.11-.23-2.19-.49-3.25-.77l-1.07-.28a0,0,0,0,0,0,0l-1.25-.38c-.42-.12-.84-.26-1.26-.4s-.84-.28-1.24-.44l-1-.38-.24-.08h0a.84.84,0,0,1-.14-.06l-.17-.07c-.42-.15-.82-.32-1.23-.51h0c-.51-.21-1-.43-1.46-.66l-.11-.05-1.28-.63-.32-.19c-.42-.21-.83-.44-1.25-.68-.25-.14-.5-.3-.74-.45C121.93,326,118.1,320,118.12,314l.07-24.81c0,5.95,3.8,11.91,11.39,16.52.27.18.55.34.83.5.7.4,1.41.79,2.14,1.15.21.12.42.21.63.31a3.68,3.68,0,0,0,.45.21c.24.13.49.24.74.35q1,.45,2,.84l.23.09,1,.38c.4.15.82.29,1.24.43a8,8,0,0,0,.79.25c.26.1.53.18.81.27l.95.28c1.4.39,2.85.75,4.32,1.05l.68.14.56.11,1,.17,1,.15c.31.06.62.1.93.14.67.1,1.34.19,2,.26s1.23.12,1.87.19l.14,0,.9.05c.72.06,1.43.09,2.16.13.34,0,.67,0,1,0h3l1.16,0h0c.35,0,.72,0,1.08,0,.79-.05,1.59-.09,2.37-.16l1-.08a.22.22,0,0,1,.12,0c.47-.05,1-.09,1.41-.16l1.25-.16c.52-.07,1-.15,1.55-.24.35-.05.72-.11,1.05-.18s.68-.12,1-.18l.77-.15,1.74-.41c.21,0,.44-.1.66-.16.62-.15,1.23-.32,1.84-.49s1.2-.35,1.8-.54a0,0,0,0,0,0,0c.32-.09.65-.21,1-.32l.75-.26c.3-.1.58-.22.87-.33.62-.24,1.24-.49,1.84-.75.22-.1.45-.19.67-.3.86-.38,1.7-.78,2.51-1.22.2-.1.39-.21.57-.32s.59-.32.87-.48.34-.21.52-.3a35.9,35.9,0,0,0,3.45-2.37c.21-.16.42-.32.61-.49.41-.34.79-.67,1.17-1,0,0,0,0,.05-.06l.62-.59a22.91,22.91,0,0,0,1.89-2.11c.25-.32.49-.63.7-.95l.31-.44c.24-.36.46-.73.66-1.08.32-.59.62-1.17.87-1.76.08-.2.17-.4.24-.59s.14-.39.19-.59.13-.38.18-.57a11.26,11.26,0,0,0,.28-1.15c.09-.4.14-.79.19-1.17a.66.66,0,0,0,0-.14c0-.15,0-.32.06-.49v0C200.9,290.19,200.9,290,200.91,289.86Z"/><ellipse class="cls-8" cx="159.55" cy="289.3" rx="23.96" ry="41.36" transform="translate(-130.19 448.03) rotate(-89.84)"/><path class="cls-4" d="M146.39,312v24.86l-.75-.14c-1.11-.23-2.19-.49-3.25-.77l-1.07-.28a0,0,0,0,0,0,0l-1.25-.38c-.42-.12-.84-.26-1.26-.4s-.84-.28-1.24-.44l-1-.38-.24-.08h0a.84.84,0,0,1-.14-.06l-.17-.07c-.42-.15-.82-.32-1.23-.51h0c-.51-.21-1-.43-1.46-.66l-.11-.05-1.28-.63-.32-.19c-.42-.21-.83-.44-1.25-.68-.25-.14-.5-.3-.74-.45v-24.9c.27.18.55.34.83.5.7.4,1.41.79,2.14,1.15.21.12.42.21.63.31a3.68,3.68,0,0,0,.45.21c.24.13.49.24.74.35q1,.45,2,.84l.23.09,1,.38c.4.15.82.29,1.24.43a8,8,0,0,0,.79.25c.26.1.53.18.81.27l.95.28c1.4.39,2.85.75,4.32,1.05Z"/><path class="cls-4" d="M162.1,313.21v24.86h0l-1.22,0h-2.22l-.79,0c-1.37,0-2.73-.11-4.09-.22h-.06V313l.14,0,.9.05c.72.06,1.43.09,2.16.13.34,0,.67,0,1,0h3Z"/><path class="cls-19" d="M382.43,516.85V682.29H438.3V515.41h-.05v0l.05-16.78c0-4.17-2.74-8.36-8.25-11.54l-.84-.46-.23-.12-.86-.44-.07,0-1-.44h0l-.83-.34a.26.26,0,0,0-.12-.05l-.1,0-.15-.07-.68-.25c-.27-.1-.55-.2-.84-.29s-.57-.2-.86-.28l-.83-.25h0l-.72-.2c-.73-.19-1.46-.36-2.2-.52-.46-.09-.93-.18-1.38-.25l-.69-.13-.71-.09c-.44-.07-.89-.13-1.34-.18h0c-.45-.05-.9-.1-1.37-.13-.9-.08-1.83-.13-2.75-.15h-2.05l-.81,0c-.24,0-.49,0-.74,0-.53,0-1.06.06-1.59.11l-.7.06h-.09l-1,.12-.79.1-.89.14-.86.14h0c-.24,0-.47.08-.69.12s-.45.09-.67.15c-.46.08-.9.19-1.34.3l-.66.17c-.22.06-.45.12-.65.19-.45.12-.87.24-1.3.39l-.82.27-.77.29c-.47.18-.95.36-1.4.56l-.47.2c-.57.26-1.13.53-1.69.83-.13.07-.26.13-.38.21l-.6.33-.34.2-.23.15-.4.25a19.69,19.69,0,0,0-2.91,2.23l0,0c-.26.23-.5.48-.73.72s-.2.21-.29.32-.21.23-.31.34l-.3.36-.06.1a2.39,2.39,0,0,0-.21.26l-.27.37a1.94,1.94,0,0,1-.21.29c-.15.25-.31.49-.44.74a4.64,4.64,0,0,0-.23.44c-.13.24-.24.49-.35.75l-.07.16a2.5,2.5,0,0,0-.09.25c-.05.11-.09.23-.13.34a1.17,1.17,0,0,0-.06.2,1.37,1.37,0,0,0-.07.24,6.86,6.86,0,0,0-.2.78v0s0,.05,0,.07,0,.21-.06.31,0,.2,0,.3,0,.25,0,.39,0,.21,0,.31a1.55,1.55,0,0,0,0,.22v.24l-.06,16.81A9.49,9.49,0,0,0,382.43,516.85Z"/><path class="cls-8" d="M438.3,497.76l-.05,16.51v.23c0,.08,0,.16,0,.23l0,.3c0,.14,0,.27,0,.39s0,.2,0,.3l-.06.31a.24.24,0,0,1,0,.08h0a6.82,6.82,0,0,1-.19.78,2.41,2.41,0,0,1-.08.25,1.8,1.8,0,0,1-.05.19c0,.12-.09.23-.13.35l-.09.24c0,.05,0,.11-.07.17-.11.25-.22.5-.35.74s-.15.29-.23.44-.29.49-.45.73-.14.21-.21.31l-.26.36-.21.27-.07.09c-.09.12-.19.24-.29.35s-.21.24-.32.35a2.89,2.89,0,0,1-.29.32c-.23.24-.47.49-.73.72l0,0a20.09,20.09,0,0,1-2.9,2.22l-.39.25-.25.15-.34.2c-.19.11-.39.23-.59.33l-.39.21c-.55.29-1.12.58-1.69.83l-.46.2c-.45.2-.93.39-1.4.56l-.78.3-.82.27-1.28.39-.66.18-.66.17c-.45.11-.89.22-1.34.31l-.67.14-.68.13h0l-.86.15-.89.13-.8.11-1,.11h-.07l-.7.07-1.59.1-.72,0h0l-.83,0h-2c-.93,0-1.84-.08-2.76-.15h0l-1.33-.14h0l-1.33-.17-.71-.1-.7-.11-.86-.18-.51-.09c-.75-.15-1.48-.33-2.2-.52l-.72-.19h0l-.84-.26c-.29-.08-.57-.18-.85-.27l-.85-.29-.67-.26-.16-.06h0l-.1,0-.11,0-.83-.34h0c-.35-.14-.67-.3-1-.45l-.08,0-.86-.42-.22-.13c-.28-.14-.55-.3-.84-.46s-.34-.2-.5-.3c-5.18-3.13-7.76-7.2-7.75-11.23l0-16.79c0,4,2.57,8.06,7.71,11.18.18.12.37.22.56.34.47.26.95.53,1.45.77l.42.21a1.73,1.73,0,0,0,.31.14,4.59,4.59,0,0,0,.5.24q.66.3,1.35.57l.17.06c.21.08.44.18.66.25s.56.2.84.3l.53.17.55.18.65.19c.95.26,1.92.51,2.92.71l.46.09.38.08.64.11.66.11.62.09c.46.07.91.12,1.37.17s.83.09,1.27.13h.09l.61,0c.48,0,1,.06,1.46.09l.68,0h2.06l.78,0h0c.24,0,.49,0,.73,0,.53,0,1.07-.06,1.6-.11l.7,0h.07c.32,0,.65-.07,1-.12s.57-.06.84-.1l1-.16.72-.12.68-.13.52-.1,1.17-.28a3.63,3.63,0,0,0,.45-.1l1.24-.33,1.22-.37h0l.66-.22.51-.18.59-.22c.41-.16.83-.33,1.24-.51.15-.07.3-.12.45-.2.58-.25,1.15-.53,1.7-.82l.39-.22.59-.32a4.05,4.05,0,0,1,.35-.21,23.21,23.21,0,0,0,2.33-1.6l.41-.33c.28-.23.53-.46.79-.69l0,0,.42-.39a16.5,16.5,0,0,0,1.27-1.43,6.77,6.77,0,0,0,.48-.65l.21-.29c.16-.25.31-.5.44-.73a13.29,13.29,0,0,0,.59-1.2c.06-.13.11-.26.16-.39a3.7,3.7,0,0,0,.13-.4l.13-.39c.07-.27.14-.52.19-.78s.09-.53.12-.78a.38.38,0,0,0,0-.1,3.31,3.31,0,0,0,0-.33v0C438.29,498,438.29,497.86,438.3,497.76Z"/><path class="cls-20" d="M438.3,497.76l-.05,16.51v.23c0,.08,0,.16,0,.23l0,.3c0,.14,0,.27,0,.39s0,.2,0,.3l-.06.31a.24.24,0,0,1,0,.08h0a6.82,6.82,0,0,1-.19.78,2.41,2.41,0,0,1-.08.25,1.8,1.8,0,0,1-.05.19c0,.12-.09.23-.13.35l-.09.24c0,.05,0,.11-.07.17-.11.25-.22.5-.35.74s-.15.29-.23.44-.29.49-.45.73-.14.21-.21.31l-.26.36-.21.27-.07.09c-.09.12-.19.24-.29.35s-.21.24-.32.35a2.89,2.89,0,0,1-.29.32c-.23.24-.47.49-.73.72l0,0a20.09,20.09,0,0,1-2.9,2.22l-.39.25-.25.15-.34.2c-.19.11-.39.23-.59.33l-.39.21c-.55.29-1.12.58-1.69.83l-.46.2c-.45.2-.93.39-1.4.56l-.78.3-.82.27-1.28.39-.66.18-.66.17c-.45.11-.89.22-1.34.31l-.67.14-.68.13h0l-.86.15-.89.13-.8.11-1,.11h-.07l-.7.07-1.59.1-.72,0h0l-.83,0h-2c-.93,0-1.84-.08-2.76-.15h0l-1.33-.14h0l-1.33-.17-.71-.1-.7-.11-.86-.18-.51-.09c-.75-.15-1.48-.33-2.2-.52l-.72-.19h0l-.84-.26c-.29-.08-.57-.18-.85-.27l-.85-.29-.67-.26-.16-.06h0l-.1,0-.11,0-.83-.34h0c-.35-.14-.67-.3-1-.45l-.08,0-.86-.42-.22-.13c-.28-.14-.55-.3-.84-.46s-.34-.2-.5-.3c-5.18-3.13-7.76-7.2-7.75-11.23l0-16.79c0,4,2.57,8.06,7.71,11.18.18.12.37.22.56.34.47.26.95.53,1.45.77l.42.21a1.73,1.73,0,0,0,.31.14,4.59,4.59,0,0,0,.5.24q.66.3,1.35.57l.17.06c.21.08.44.18.66.25s.56.2.84.3l.53.17.55.18.65.19c.95.26,1.92.51,2.92.71l.46.09.38.08.64.11.66.11.62.09c.46.07.91.12,1.37.17s.83.09,1.27.13h.09l.61,0c.48,0,1,.06,1.46.09l.68,0h2.06l.78,0h0c.24,0,.49,0,.73,0,.53,0,1.07-.06,1.6-.11l.7,0h.07c.32,0,.65-.07,1-.12s.57-.06.84-.1l1-.16.72-.12.68-.13.52-.1,1.17-.28a3.63,3.63,0,0,0,.45-.1l1.24-.33,1.22-.37h0l.66-.22.51-.18.59-.22c.41-.16.83-.33,1.24-.51.15-.07.3-.12.45-.2.58-.25,1.15-.53,1.7-.82l.39-.22.59-.32a4.05,4.05,0,0,1,.35-.21,23.21,23.21,0,0,0,2.33-1.6l.41-.33c.28-.23.53-.46.79-.69l0,0,.42-.39a16.5,16.5,0,0,0,1.27-1.43,6.77,6.77,0,0,0,.48-.65l.21-.29c.16-.25.31-.5.44-.73a13.29,13.29,0,0,0,.59-1.2c.06-.13.11-.26.16-.39a3.7,3.7,0,0,0,.13-.4l.13-.39c.07-.27.14-.52.19-.78s.09-.53.12-.78a.38.38,0,0,0,0-.1,3.31,3.31,0,0,0,0-.33v0C438.29,498,438.29,497.86,438.3,497.76Z"/><ellipse class="cls-8" cx="410.32" cy="497.37" rx="16.21" ry="27.98" transform="translate(-88.21 906.28) rotate(-89.84)"/><path class="cls-4" d="M401.42,512.72v16.81l-.51-.09c-.75-.15-1.48-.33-2.2-.52l-.72-.19h0l-.84-.26c-.29-.08-.57-.18-.85-.27l-.85-.29-.67-.26-.16-.06h0l-.1,0-.11,0-.83-.34h0c-.35-.14-.67-.3-1-.45l-.08,0-.86-.42-.22-.13c-.28-.14-.55-.3-.84-.46s-.34-.2-.5-.3V508.5c.18.12.37.22.56.34.47.26.95.53,1.45.77l.42.21a1.73,1.73,0,0,0,.31.14,4.59,4.59,0,0,0,.5.24q.66.3,1.35.57l.17.06c.21.08.44.18.66.25s.56.2.84.3l.53.17.55.18.65.19c.95.26,1.92.51,2.92.71Z"/><path class="cls-4" d="M412,513.55v16.81h0l-.83,0h-2c-.93,0-1.84-.08-2.76-.15h0V513.41h.09l.61,0c.48,0,1,.06,1.46.09l.68,0h2.06Z"/><path class="cls-10" d="M197.22,539.91l.82,0-.7,0Z"/><path class="cls-10" d="M742,363.46l.83,0H742Z"/><path class="cls-21" d="M769.81,206.33v12l-6.87,1C767.24,215.33,769.54,210.85,769.81,206.33Z"/><polygon class="cls-3" points="235 140 128.65 201.41 128.65 143.62 235 82.22 235 140"/><ellipse class="cls-4" cx="181.83" cy="141.81" rx="11.18" ry="6.45" transform="translate(-31.9 228.37) rotate(-60)"/><polygon class="cls-22" points="128.65 201.41 0 127.43 0 69.64 128.65 143.62 128.65 201.41"/><polygon class="cls-23" points="235 82.21 128.65 143.62 0 69.64 106.35 8.24 235 82.21"/><polygon class="cls-3" points="402.07 72.13 343.85 105.75 343.85 74.11 402.07 40.5 402.07 72.13"/><ellipse class="cls-4" cx="372.96" cy="73.12" rx="6.12" ry="3.53" transform="translate(123.15 359.55) rotate(-60)"/><polygon class="cls-24" points="343.85 105.75 273.42 65.25 273.42 33.61 343.85 74.11 343.85 105.75"/><polygon class="cls-25" points="402.07 40.5 343.84 74.11 273.42 33.61 331.64 0 402.07 40.5"/></g></g></g></svg>