<svg xmlns="http://www.w3.org/2000/svg" xmlns:xlink="http://www.w3.org/1999/xlink" viewBox="0 0 1038.39 678.93"><defs><style>.cls-1,.cls-7{fill:none;}.cls-2{isolation:isolate;}.cls-3{fill:#1a2b82;}.cls-4{fill:#0e1744;}.cls-5{fill:url(#linear-gradient);}.cls-6{fill:#4f6ef7;}.cls-7{stroke:#8195ff;stroke-miterlimit:10;stroke-width:2.5px;}.cls-8{fill:#3753e3;}.cls-9{fill:#0b0a0a;}.cls-10{fill:#e59a34;}.cls-10,.cls-11{fill-rule:evenodd;}.cls-11,.cls-14{fill:#fff;}.cls-12{fill:#56d286;}.cls-13{fill:#0d2d5f;}.cls-15{clip-path:url(#clip-path);}.cls-16{fill:#90263a;}.cls-17{fill:#cd2638;}.cls-18{fill:#d53c3b;}.cls-19{clip-path:url(#clip-path-2);}.cls-20{opacity:0.25;}.cls-21,.cls-24{mix-blend-mode:screen;}.cls-21{fill:url(#linear-gradient-2);}.cls-22{fill:#fdb455;}.cls-23{fill:url(#linear-gradient-3);}.cls-24{fill:url(#linear-gradient-4);}</style><linearGradient id="linear-gradient" x1="2638.75" y1="508.2" x2="3813.75" y2="508.2" gradientTransform="matrix(-1, 0, 0, 1, 3901.41, 0)" gradientUnits="userSpaceOnUse"><stop offset="0.22" stop-color="#3753e3"/><stop offset="1" stop-color="#3753e3" stop-opacity="0"/></linearGradient><clipPath id="clip-path"><path class="cls-1" d="M881.53,392.2l-70.39,40.63c-1.7,1-3.07-.06-3.07-2.33V382.85a7.37,7.37,0,0,1,3.07-5.88l70.39-40.64c1.7-1,3.08.06,3.08,2.33v47.65A7.4,7.4,0,0,1,881.53,392.2Z"/></clipPath><clipPath id="clip-path-2"><path class="cls-1" d="M881.53,528.62l-70.39,40.64c-1.7,1-3.07-.06-3.07-2.33V519.28a7.37,7.37,0,0,1,3.07-5.88l70.39-40.64c1.7-1,3.08.06,3.08,2.33v47.65A7.36,7.36,0,0,1,881.53,528.62Z"/></clipPath><linearGradient id="linear-gradient-2" x1="906.35" y1="518.74" x2="1031.93" y2="453.43" gradientUnits="userSpaceOnUse"><stop offset="0" stop-color="#84ecd3"/><stop offset="1" stop-color="#84ecd3" stop-opacity="0"/></linearGradient><linearGradient id="linear-gradient-3" x1="1064.4" y1="249.83" x2="925.12" y2="295.03" xlink:href="#linear-gradient-2"/><linearGradient id="linear-gradient-4" x1="845.3" y1="618.42" x2="845.3" y2="318.44" xlink:href="#linear-gradient-2"/></defs><title>Giftcards</title><g class="cls-2"><g id="Layer_2" data-name="Layer 2"><g id="Layer_1-2" data-name="Layer 1"><polygon class="cls-3" points="904.19 495.51 786.41 563.51 786.41 427.07 904.19 495.51"/><polygon class="cls-4" points="904.19 270.44 904.19 495.51 786.41 427.07 786.41 338.44 904.19 270.44"/><polygon class="cls-5" points="532.16 557.02 741.93 678.93 252.57 678.93 0 533.91 340.28 337.46 531.06 337.46 532.16 557.02"/><polygon class="cls-4" points="741.93 678.93 532.16 557.02 531.06 171.16 740.83 293.06 741.93 678.93"/><polygon class="cls-6" points="740.83 293.06 531.06 171.16 827.52 0 1037.29 121.91 740.83 293.06"/><polygon class="cls-7" points="983.35 122.99 742.88 261.82 584.96 170.04 825.42 31.21 983.35 122.99"/><polygon class="cls-8" points="703.59 618.41 703.59 334.74 702.73 334.24 702.73 617.91 703.59 618.41"/><ellipse class="cls-8" cx="695.53" cy="448.77" rx="2.08" ry="3.61" transform="translate(-131.2 407.89) rotate(-30)"/><ellipse class="cls-8" cx="695.53" cy="471.92" rx="2.08" ry="3.61" transform="translate(-142.78 410.99) rotate(-30)"/><path class="cls-8" d="M695.53,544.32c1.41.81,2.56.15,2.56-1.48a5.65,5.65,0,0,0-2.56-4.42c-1.4-.81-2.55-.15-2.55,1.48A5.69,5.69,0,0,0,695.53,544.32Z"/><ellipse class="cls-8" cx="695.53" cy="495.07" rx="2.08" ry="3.61" transform="translate(-154.35 414.1) rotate(-30)"/><path class="cls-8" d="M695.53,428.57c1.41.81,2.56.15,2.56-1.47a5.64,5.64,0,0,0-2.56-4.42c-1.4-.82-2.55-.15-2.55,1.47A5.67,5.67,0,0,0,695.53,428.57Z"/><ellipse class="cls-8" cx="695.53" cy="402.48" rx="2.08" ry="3.61" transform="translate(-108.05 401.69) rotate(-30)"/><ellipse class="cls-8" cx="695.53" cy="518.22" rx="2.08" ry="3.61" transform="translate(-165.93 417.2) rotate(-30)"/><ellipse class="cls-8" cx="695.53" cy="564.52" rx="2.08" ry="3.61" transform="translate(-189.08 423.4) rotate(-30)"/><ellipse class="cls-8" cx="695.53" cy="587.66" rx="2.08" ry="3.61" transform="matrix(0.87, -0.5, 0.5, 0.87, -200.65, 426.5)"/><ellipse class="cls-8" cx="695.53" cy="610.81" rx="2.08" ry="3.61" transform="translate(-212.22 429.6) rotate(-30)"/><ellipse class="cls-8" cx="695.53" cy="379.33" rx="2.08" ry="3.61" transform="translate(-96.48 398.59) rotate(-30)"/><ellipse class="cls-8" cx="695.53" cy="356.18" rx="2.08" ry="3.61" transform="translate(-84.91 395.49) rotate(-30)"/><ellipse class="cls-8" cx="695.53" cy="333.03" rx="2.08" ry="3.61" transform="translate(-73.33 392.39) rotate(-30)"/><polygon class="cls-8" points="560.34 534.59 560.34 250.92 561.2 251.42 561.2 535.09 560.34 534.59"/><ellipse class="cls-8" cx="568.4" cy="374.26" rx="2.08" ry="3.61" transform="translate(-110.98 334.34) rotate(-30)"/><ellipse class="cls-8" cx="568.4" cy="397.41" rx="2.08" ry="3.61" transform="translate(-122.55 337.44) rotate(-30)"/><path class="cls-8" d="M568.4,469.8a5.65,5.65,0,0,1-2.56-4.42c0-1.62,1.15-2.29,2.56-1.47a5.65,5.65,0,0,1,2.55,4.42C571,470,569.8,470.61,568.4,469.8Z"/><ellipse class="cls-8" cx="568.4" cy="420.55" rx="2.08" ry="3.61" transform="translate(-134.13 340.54) rotate(-30)"/><path class="cls-8" d="M568.4,354.06a5.67,5.67,0,0,1-2.56-4.43c0-1.62,1.15-2.28,2.56-1.47a5.67,5.67,0,0,1,2.55,4.42C571,354.2,569.8,354.87,568.4,354.06Z"/><ellipse class="cls-8" cx="568.4" cy="327.96" rx="2.08" ry="3.61" transform="translate(-87.83 328.14) rotate(-30)"/><ellipse class="cls-8" cx="568.4" cy="443.7" rx="2.08" ry="3.61" transform="translate(-145.7 343.64) rotate(-30)"/><ellipse class="cls-8" cx="568.4" cy="490" rx="2.08" ry="3.61" transform="translate(-168.85 349.85) rotate(-30)"/><ellipse class="cls-8" cx="568.4" cy="513.15" rx="2.08" ry="3.61" transform="translate(-180.42 352.95) rotate(-30)"/><ellipse class="cls-8" cx="568.4" cy="536.29" rx="2.08" ry="3.61" transform="translate(-192 356.05) rotate(-30)"/><ellipse class="cls-8" cx="568.4" cy="304.81" rx="2.08" ry="3.61" transform="translate(-76.26 325.04) rotate(-30)"/><ellipse class="cls-8" cx="568.4" cy="281.67" rx="2.08" ry="3.61" transform="translate(-64.68 321.94) rotate(-30)"/><ellipse class="cls-8" cx="568.4" cy="258.52" rx="2.08" ry="3.61" transform="translate(-53.11 318.84) rotate(-30)"/><path class="cls-9" d="M881.53,460.41l-70.39,40.64c-1.7,1-3.07-.06-3.07-2.33V451.07a7.39,7.39,0,0,1,3.07-5.89l70.39-40.63c1.7-1,3.08.06,3.08,2.33v47.65A7.38,7.38,0,0,1,881.53,460.41Z"/><path id="path8" class="cls-10" d="M832.65,450.06a19.88,19.88,0,0,1-5.9,5.5c-2.8,1.61-5.31,1.87-7.21,1-.15-.07,0-.36.16-.34a12.47,12.47,0,0,0,7.21-1.95,24.55,24.55,0,0,0,5.51-4.48c.27-.29.49-.08.23.3"/><path id="path10" class="cls-10" d="M833.31,448.8c-.2-.19-1.35.63-1.86,1-.16.11-.18,0,0-.23.91-1.27,2.41-1.92,2.58-1.77a5.37,5.37,0,0,1-.9,3.35c-.13.2-.26.2-.2,0,.19-.67.63-2.17.42-2.35"/><path id="path12" class="cls-11" d="M831.48,444.27v-.72a.37.37,0,0,1,.16-.28l2.8-1.61c.09-.05.16,0,.16.09v.62a2,2,0,0,1-.21.58l-1.45,3.23a2.93,2.93,0,0,1,1.59-.52c.11,0,.14.1.15.19v.78c0,.1-.1.28-.2.28a4.16,4.16,0,0,0-3,1.71c-.09.12-.19.05-.19-.05v-.74a1.35,1.35,0,0,1,.1-.55l1.68-3.76-1.46.84c-.09.05-.17,0-.17-.09"/><path id="path14" class="cls-11" d="M821.29,454.67l-.85.5a.1.1,0,0,1-.15-.08V450a.34.34,0,0,1,.16-.27l.8-.46c.08,0,.15,0,.15.08V450h0a2.43,2.43,0,0,1,1.12-1.58c.53-.31.86-.2,1.1.3a2.69,2.69,0,0,1,1.17-1.62c.36-.2.75-.26,1,0s.21.92.21,1.46v3.2a.37.37,0,0,1-.16.28l-.85.49c-.09,0-.16,0-.16-.1v-2.68a7.26,7.26,0,0,0,0-.94c-.06-.3-.25-.29-.5-.14a1.31,1.31,0,0,0-.51.7,4.48,4.48,0,0,0-.08,1v2.68a.36.36,0,0,1-.16.28l-.85.49a.1.1,0,0,1-.15-.09v-2.69c0-.56.08-1.44-.53-1.09s-.58,1.15-.58,1.73v2.69a.35.35,0,0,1-.17.27"/><path id="path16" class="cls-11" d="M837,440.09c1.27-.73,2,.13,2,1.73a4.63,4.63,0,0,1-2,3.89c-1.23.71-1.91-.15-1.91-1.72a4.51,4.51,0,0,1,1.91-3.9m0,1c-.63.36-.67,1.37-.67,2s0,1.94.66,1.56.69-1.47.69-2.12a4.69,4.69,0,0,0-.12-1.27c-.1-.29-.29-.32-.56-.16"/><path id="path18" class="cls-11" d="M840.58,443.54l-.84.49c-.09,0-.16,0-.16-.1v-5.06a.36.36,0,0,1,.17-.26l.78-.45c.08,0,.14,0,.16,0V439h0a2.57,2.57,0,0,1,1.16-1.69c.38-.22.75-.27,1,0a2.84,2.84,0,0,1,.22,1.44v3.19a.35.35,0,0,1-.16.25l-.85.5c-.08,0-.14,0-.15-.08v-2.75c0-.55.05-1.39-.53-1.05a1.27,1.27,0,0,0-.5.69,3.43,3.43,0,0,0-.13,1v2.73a.38.38,0,0,1-.17.28"/><path id="path28" class="cls-11" d="M829.26,447.66a2.78,2.78,0,0,1-.16,1.14,1.53,1.53,0,0,1-.59.78c-.33.19-.52,0-.52-.41a2.08,2.08,0,0,1,1.27-1.72v.21m.85,1.91a.25.25,0,0,1-.2.14,1,1,0,0,1-.48-.38,3.48,3.48,0,0,1-1.41,1.53c-.71.41-1.27.22-1.27-.81a3.2,3.2,0,0,1,.91-2.13,9.79,9.79,0,0,1,1.6-1.27v-.12a1.12,1.12,0,0,0-.11-.66c-.1-.12-.3-.08-.47,0a1.43,1.43,0,0,0-.69,1,.39.39,0,0,1-.14.26l-.83.38c-.07,0-.15,0-.12-.14a3.68,3.68,0,0,1,1.9-2.6,1.49,1.49,0,0,1,1.28-.25c.41.21.37.83.37,1.48v1.54a.82.82,0,0,0,.32.72.22.22,0,0,1,0,.27c-.18.27-.48.76-.65,1h0"/><path id="path30" class="cls-11" d="M818.11,454.09a2.76,2.76,0,0,1-.16,1.14,1.49,1.49,0,0,1-.58.79c-.33.19-.52,0-.52-.42a2.08,2.08,0,0,1,1.26-1.72v.21M819,456a.28.28,0,0,1-.2.14,1.13,1.13,0,0,1-.49-.37,3.38,3.38,0,0,1-1.4,1.52c-.71.41-1.27.22-1.27-.8a3.2,3.2,0,0,1,.91-2.14,10.09,10.09,0,0,1,1.59-1.26V453c0-.23,0-.52-.1-.65s-.3-.09-.48,0a1.41,1.41,0,0,0-.68,1,.39.39,0,0,1-.15.27l-.82.37c-.07,0-.15,0-.13-.13a3.74,3.74,0,0,1,1.9-2.61,1.54,1.54,0,0,1,1.28-.25c.42.21.38.83.38,1.48V454a.82.82,0,0,0,.32.73.21.21,0,0,1,0,.26l-.65,1h0"/><path id="path8-2" data-name="path8" class="cls-10" d="M875.84,452.28a34.89,34.89,0,0,1-10.36,9.66c-4.9,2.83-9.32,3.27-12.66,1.7-.26-.12,0-.63.29-.6,3.6.35,8.06-.76,12.66-3.41a43.53,43.53,0,0,0,9.66-7.87c.47-.51.87-.14.41.52"/><path id="path10-2" data-name="path10" class="cls-10" d="M877,450.06c-.35-.32-2.37,1.12-3.27,1.77-.27.19-.31-.06-.07-.4,1.6-2.23,4.23-3.37,4.54-3.11s-.08,3.54-1.59,5.87c-.23.35-.45.36-.34,0,.33-1.18,1.09-3.81.73-4.14"/><path id="path30-2" data-name="path30" class="cls-11" d="M868.3,438.57a16.58,16.58,0,0,1-.94,6.73,9.15,9.15,0,0,1-3.48,4.67c-1.93,1.11-3.06.06-3.06-2.47,0-5,3.84-8.1,7.48-10.2v1.27m5.08,11.3a1.53,1.53,0,0,1-1.19.83,6.08,6.08,0,0,1-2.89-2.23c-2.76,4.86-4.71,7-8.3,9-4.23,2.44-7.53,1.32-7.53-4.75a19,19,0,0,1,5.37-12.64c2.73-3,6.55-5.43,9.46-7.5v-.75c0-1.39.09-3.09-.61-3.88s-1.79-.49-2.82.11a8.46,8.46,0,0,0-4,5.85,2.47,2.47,0,0,1-.87,1.57l-4.89,2.21c-.41.13-.86,0-.75-.79,1.13-7.52,6.47-12.67,11.26-15.44,2.45-1.41,5.65-2.5,7.58-1.47,2.45,1.24,2.22,4.92,2.22,8.77v9.1a4.85,4.85,0,0,0,1.9,4.31,1.24,1.24,0,0,1,0,1.56c-1,1.59-2.85,4.49-3.86,6.11h0"/><path class="cls-12" d="M881.53,324l-70.39,40.64c-1.7,1-3.07-.06-3.07-2.33V314.61a7.36,7.36,0,0,1,3.07-5.88l70.39-40.64c1.7-1,3.08.06,3.08,2.33v47.65A7.36,7.36,0,0,1,881.53,324Z"/><path d="M827.71,317.84c-4.41,2.54-8,8.75-8,13.87s3.58,7.19,8,4.65,8-8.76,8-13.87-3.57-7.2-8-4.65Zm3.66,11.24c-.15.35-.45.62-.69.59-1.87-.25-4.23.81-7,3.15-.27.23-.53.19-.59-.09a1,1,0,0,1,.37-.91c3-2.56,5.65-3.72,7.75-3.44C831.44,328.41,831.51,328.72,831.37,329.08Zm1-3.09c-.18.45-.56.78-.85.74-2.15-.3-5.42,1.15-8,3.51-.32.3-.67.29-.77,0a1.25,1.25,0,0,1,.41-1.14c2.9-2.7,6.51-4.28,9-3.95.29,0,.38.43.2.87Zm.09-2.67c-2.57-.29-6.82,2-9.27,4.28-.4.37-.82.35-.94,0a1.52,1.52,0,0,1,.5-1.36c2.82-2.62,7.51-5.14,10.47-4.81.36,0,.47.5.26,1s-.67.93-1,.89Zm9-4.86c-1.38.41-1.62.28-1.62-.28a2,2,0,0,1,1.07-1.51,2.33,2.33,0,0,1,1.88-.25.1.1,0,0,0,.07,0,.16.16,0,0,0,.06-.08l.67-1.49c0-.06,0-.12,0-.13a3.15,3.15,0,0,0-2.65.46,5,5,0,0,0-2.53,4c0,1.59.9,1.63,2.45,1.17,1.32-.4,1.54-.24,1.54.29a2.09,2.09,0,0,1-1.17,1.63,2.26,2.26,0,0,1-2.2.21s0,0-.07,0l-.06.08-.75,1.47c0,.07,0,.13,0,.15a3.29,3.29,0,0,0,3-.41,5,5,0,0,0,2.63-4.11c0-1.33-.68-1.67-2.36-1.17Zm6-5a4.58,4.58,0,0,0-1.73,2v-.73c0-.06,0-.08-.09-.06l-1.24.72a.2.2,0,0,0-.09.15v8.14c0,.06,0,.08.09.06l1.24-.72a.2.2,0,0,0,.09-.15v-2.57a1.5,1.5,0,0,0,1.73-.09,5.86,5.86,0,0,0,2.6-4.86c0-2.21-1.3-2.61-2.6-1.86Zm1.17,2.69a3.25,3.25,0,0,1-1.45,2.74c-.85.49-1.48,0-1.48-1.05a3.34,3.34,0,0,1,1.48-2.76c.84-.49,1.45,0,1.45,1.07Zm4.78-6.12a6.42,6.42,0,0,0-3,5.09c0,1.88,1.29,2.6,2.94,1.65a6.44,6.44,0,0,0,3-5.09c0-1.89-1.3-2.61-3-1.65Zm0,5.27c-.88.51-1.55.07-1.55-1a3.35,3.35,0,0,1,1.53-2.78c.89-.51,1.56-.08,1.56,1A3.38,3.38,0,0,1,853.38,315.26Zm6.51-8.9-1.36.78v-1.61a.06.06,0,0,0-.09,0l-1.23.71a.2.2,0,0,0-.09.16V308l-.6.34a.2.2,0,0,0-.09.16v1.23c0,.06,0,.08.09.05l.6-.34v3.18c0,1.29.55,1.62,1.64,1a3.88,3.88,0,0,0,1.15-1,.18.18,0,0,0,.05-.11v-1.18s0-.06,0-.06a.11.11,0,0,0-.09,0,2.94,2.94,0,0,1-.73.62c-.39.23-.57.12-.57-.35v-3l1.36-.78a.2.2,0,0,0,.09-.16v-1.23c0-.06,0-.08-.09-.05Zm4.73-2.73v-.19a1.22,1.22,0,0,1,.62-1.2,2.24,2.24,0,0,1,.7-.26s.06,0,.08-.06a.21.21,0,0,0,0-.11v-1.2a.06.06,0,0,0-.07-.07,3.48,3.48,0,0,0-1,.43,3.43,3.43,0,0,0-1.74,3.15v.31l-.6.34a.2.2,0,0,0-.09.16v1.23c0,.06,0,.08.09.06l.6-.35v4.91c0,.06,0,.08.09.06l1.23-.72a.2.2,0,0,0,.09-.15v-4.91l1.15-.67,1.77,3.89c-.2.63-.4.85-.67,1a1.13,1.13,0,0,1-.68.17.13.13,0,0,0-.07,0,.22.22,0,0,0,0,.08l-.42,1.31c0,.06,0,.11,0,.11a2.14,2.14,0,0,0,1.31-.37,4.17,4.17,0,0,0,1.86-2.89l2.14-7.65s0-.07,0-.09,0,0-.07,0l-1.28.74a.19.19,0,0,0-.09.12L868.25,306l-1.44-3.53s0,0-.08,0l-2.11,1.21Zm-2.74,1.58-1.24.71a.2.2,0,0,0-.09.16v6.25a.06.06,0,0,0,.09.05l1.24-.71a.2.2,0,0,0,.09-.16v-6.25a.06.06,0,0,0-.09-.05Zm-.61-2.49a2,2,0,0,0-.89,1.54c0,.56.4.8.89.51a2,2,0,0,0,.88-1.53C862.15,302.67,861.75,302.44,861.27,302.72Zm10.81-1.39c-.49.28-.87.05-.87-.51a1.91,1.91,0,0,1,.87-1.51c.49-.28.87-.05.87.5A1.92,1.92,0,0,1,872.08,301.33Zm0-1.92a1.71,1.71,0,0,0-.78,1.36c0,.5.33.71.78.46a1.73,1.73,0,0,0,.78-1.36C872.86,299.36,872.52,299.15,872.08,299.41Zm.19.9.25.25-.21.12-.22-.23-.19.1v.37l-.17.1V300l.4-.23c.22-.12.36-.08.36.13a.64.64,0,0,1-.21.45Zm-.14-.4-.23.13v.34l.23-.13a.34.34,0,0,0,.18-.27C872.31,299.87,872.24,299.85,872.13,299.91Z"/><polygon points="871.03 319.55 821.65 348.06 821.65 347.8 871.03 319.29 871.03 319.55"/><path class="cls-13" d="M881.53,392.2l-70.39,40.63c-1.7,1-3.07-.06-3.07-2.33V382.85a7.37,7.37,0,0,1,3.07-5.88l70.39-40.64c1.7-1,3.08.06,3.08,2.33v47.65A7.4,7.4,0,0,1,881.53,392.2Z"/><path class="cls-14" d="M850.16,401.83l-3.14.06V398Zm.25.52-3.39.3v1.66Z"/><polyline class="cls-14" points="843.87 405.46 847.02 398.02 847.02 401.89 843.87 405.46"/><polyline class="cls-14" points="843.62 406.28 847.02 404.31 847.02 402.65 843.62 406.28"/><path class="cls-14" d="M850.69,401c.12-.07.22,0,.22.13a.48.48,0,0,1-.22.39c-.12.07-.22,0-.22-.13h0A.49.49,0,0,1,850.69,401Zm0,.48a.44.44,0,0,0,.19-.33.12.12,0,0,0-.19-.11.41.41,0,0,0-.19.33h0c0,.12.08.17.19.11Zm-.05,0,0,0v-.3l.1-.06c.06,0,.08,0,.08,0a.17.17,0,0,1-.07.12l.08.09,0,0-.08-.09-.05,0Zm0-.17,0,0a.12.12,0,0,0,.08-.1s0,0-.06,0l-.06,0v.1Z"/><path class="cls-14" d="M853.07,400.15l1.52-.88a4.67,4.67,0,0,0,2.51-4c0-1.56-.94-2-2.51-1.06l-1.52.88Zm1-4.7.56-.33c1-.58,1.53-.29,1.53.76a2.79,2.79,0,0,1-1.53,2.51l-.56.33Z"/><polygon class="cls-14" points="860.38 393.75 862.22 392.69 862.22 391.82 860.38 392.88 860.38 391.78 862.46 390.58 862.46 389.71 859.41 391.47 859.41 396.49 862.53 394.69 862.53 393.82 860.38 395.06 860.38 393.75"/><polygon class="cls-14" points="868.03 390.64 866.17 391.72 866.17 387.57 865.2 388.13 865.2 393.15 868.03 391.51 868.03 390.64"/><polygon class="cls-14" points="873.25 383.49 869.37 385.73 869.37 386.6 870.82 385.76 870.82 389.9 871.79 389.34 871.79 385.2 873.25 384.36 873.25 383.49"/><path class="cls-14" d="M878.86,385.26l-1,.58-.42-1-1.76,1-.43,1.5-.94.54,1.81-6.08,1-.56Zm-1.71-1.11-.6-1.43-.61,2.13Z"/><g class="cls-15"><path class="cls-16" d="M833.63,429.18l-9.9-27.09L844,367Zm-2,7L819.74,409,811,424.15Z"/><polyline class="cls-17" points="795.46 406.93 843.96 366.96 823.73 402.09 795.46 406.93"/><polyline class="cls-17" points="790.43 412.14 811.04 424.15 819.74 409.03 790.43 412.14"/></g><path class="cls-18" d="M881.53,528.62l-70.39,40.64c-1.7,1-3.07-.06-3.07-2.33V519.28a7.37,7.37,0,0,1,3.07-5.88l70.39-40.64c1.7-1,3.08.06,3.08,2.33v47.65A7.36,7.36,0,0,1,881.53,528.62Z"/><g id="layer1"><g id="g5994"><path id="path3013" class="cls-14" d="M877.66,517.65s-.07,0-.07,0v-.55l-.13.08s-.06,0-.06,0a.15.15,0,0,1,.06-.11l.41-.24s.06,0,.06,0a.15.15,0,0,1-.06.11l-.14.07v.55a.17.17,0,0,1-.07.13m1-.59s-.07,0-.07,0v-.48l-.18.63a.09.09,0,0,1,0,.05s0,0,0,0l-.18-.42v.47a.17.17,0,0,1-.07.13s-.07,0-.07,0v-.56a.23.23,0,0,1,.12-.2c.05,0,.09,0,.1,0l.14.33.13-.48a.28.28,0,0,1,.11-.15c.06,0,.11,0,.11.07v.57a.15.15,0,0,1-.07.12"/><path id="path3017" class="cls-14" d="M841.57,537.47a2.11,2.11,0,0,1,.2-.86,2,2,0,0,0-.66,1.38v.84l.46-.23Z"/><path id="path3021" class="cls-14" d="M841.11,543.52c0,.47.28.71.66.62a.89.89,0,0,1-.2-.62v-1.58l-.46.26Z"/><path id="path3025" class="cls-14" d="M842.25,541.55l-.46.26v1.58c0,.47.28.71.66.62a.87.87,0,0,1-.2-.62Z"/><path id="path3029" class="cls-14" d="M842.25,536.81a2.07,2.07,0,0,1,.2-.85,2,2,0,0,0-.66,1.38v1.14l.46-.23Z"/><path id="path3033" class="cls-14" d="M837.14,539.43a2.41,2.41,0,0,0-.56,1.44v5c0,.48.22.77.56.81a1.28,1.28,0,0,1-.11-.55v-6a2.17,2.17,0,0,1,.11-.66"/><path id="path3037" class="cls-14" d="M837.71,539.17a2.23,2.23,0,0,1,.11-.66,2.41,2.41,0,0,0-.56,1.45v6c0,.57.31.87.74.81a1.07,1.07,0,0,1-.29-.8Z"/><path id="path3041" class="cls-14" d="M843.38,535.11a2,2,0,0,0-.91,1.57v1.71l-2.26,1.18v-1.84c0-.73-.51-1-1.14-.66a2.52,2.52,0,0,0-1.13,2v6.83c0,.73.51,1,1.13.66a2.5,2.5,0,0,0,1.14-2v-2.11l2.26-1.31v2.11c0,.58.41.81.91.52a2,2,0,0,0,.91-1.57v-6.58c0-.58-.41-.81-.91-.52"/><path id="path3045" class="cls-14" d="M851.21,537v-2l-2.45,1.42v1.95a.76.76,0,0,1-.33.57c-.18.11-.33,0-.33-.19v-4.44a.74.74,0,0,1,.33-.58c.18-.11.33,0,.33.19v1.81l2.45-1.41v-1.81a.73.73,0,0,1,.33-.58c.19-.1.33,0,.33.2v4.44a.7.7,0,0,1-.33.57c-.19.11-.33,0-.33-.19"/><path id="path3049" class="cls-14" d="M852.34,534.82a3.49,3.49,0,0,1,1.62-2.88c1-.58,1.62-.06,1.62,1a3.49,3.49,0,0,1-1.62,2.89c-1,.58-1.62.06-1.62-1m2.62-1.51c0-.7-.36-1.13-1-.76a2.28,2.28,0,0,0-1,1.91c0,.71.35,1.13,1,.77a2.3,2.3,0,0,0,1-1.92"/><path id="path3053" class="cls-14" d="M859.05,529c1-.56,1.56,0,1.56,1a.64.64,0,0,1-.35.53l-2.18,1.26c0,.61.44.9,1.08.53a2.59,2.59,0,0,0,.8-.76.37.37,0,0,1,.13-.12c.14-.07.24,0,.24.14a.53.53,0,0,1-.1.29,3.4,3.4,0,0,1-1.13,1c-1,.55-1.65.17-1.65-1a3.56,3.56,0,0,1,1.6-2.87m-1,2.24,2-1.13c0-.48-.3-.93-1-.54a2.18,2.18,0,0,0-1,1.67"/><path id="path3057" class="cls-14" d="M861,531.38v-4.52a.66.66,0,0,1,.3-.52.19.19,0,0,1,.3.18V531a.69.69,0,0,1-.3.52c-.17.09-.3,0-.3-.18"/><path id="path3061" class="cls-14" d="M862,530.55a.59.59,0,0,1,.26-.45.31.31,0,0,1,.15,0A1.4,1.4,0,0,0,864,529c0-.37-.36-.29-.78-.15s-1.18.36-1.18-.44a2.32,2.32,0,0,1,1.22-1.81,1.47,1.47,0,0,1,1.07-.23.16.16,0,0,1,.11.17.54.54,0,0,1-.25.43.16.16,0,0,1-.13,0,1.09,1.09,0,0,0-.79.17,1.17,1.17,0,0,0-.66.87c0,.32.35.23.75.11s1.22-.38,1.22.47a2.35,2.35,0,0,1-1.3,1.89,1.52,1.52,0,0,1-1.16.25c-.07,0-.12-.08-.12-.18"/><path id="path3065" class="cls-14" d="M865.33,528.31c.23-.13.42,0,.42.23a.94.94,0,0,1-.42.73c-.22.13-.41,0-.41-.25a.92.92,0,0,1,.41-.71"/><path id="path3069" class="cls-14" d="M868.85,525.29a3.47,3.47,0,0,1,1.62-2.88c1-.58,1.62-.06,1.62,1a3.49,3.49,0,0,1-1.62,2.89c-1,.57-1.62.06-1.62-1m2.62-1.51c0-.7-.36-1.13-1-.76a2.29,2.29,0,0,0-1,1.91c0,.71.36,1.13,1,.76a2.27,2.27,0,0,0,1-1.91"/><path id="path3073" class="cls-14" d="M877,519.74v2.38a.67.67,0,0,1-.3.52c-.16.1-.3,0-.3-.17V520.3c0-.44-.16-.55-.55-.32a2.72,2.72,0,0,0-.8,1.15v2.12a.66.66,0,0,1-.3.52c-.16.09-.3,0-.3-.18v-2.17c0-.43-.16-.54-.56-.31a3,3,0,0,0-.79,1.17v2.09a.66.66,0,0,1-.29.52c-.17.1-.3,0-.3-.17v-3.11a.64.64,0,0,1,.29-.51c.17-.1.3,0,.3.17v.21a3.15,3.15,0,0,1,1-1.21c.48-.28.77-.15.87.19a3,3,0,0,1,1.09-1.32c.59-.34.9-.14.9.6"/><path id="path3077" class="cls-14" d="M867.54,524.1a1,1,0,0,1,1-.16.19.19,0,0,1,.09.18.63.63,0,0,1-.26.47.2.2,0,0,1-.18,0,.64.64,0,0,0-.64.09,2.28,2.28,0,0,0-1,1.93c0,.77.41,1.08,1,.74a3.35,3.35,0,0,0,1.19-1.66c0-.11.11-.29.16-.39s.17-.17.23-.14.1.37,0,.56a5.84,5.84,0,0,1-.54,1.14,3.11,3.11,0,0,1-1.1,1.12c-1,.56-1.63.1-1.63-1a3.49,3.49,0,0,1,1.63-2.89"/><path id="path3081" class="cls-14" d="M857.87,532.92a2.9,2.9,0,0,1-.55.88,1.87,1.87,0,0,1-.46.37c-.51.29-.76.11-.76-.48v-2.28l-.31.17c-.14.08-.27,0-.27-.15a.62.62,0,0,1,.27-.46l.31-.17v-.71a.68.68,0,0,1,.29-.52c.16-.09.3,0,.3.18v.7l.42-.24c.15-.08.27,0,.27.15a.57.57,0,0,1-.27.46l-.42.24v2.13c0,.27.11.4.31.28.37-.21.66-1,.82-1.13s0,.41,0,.58"/></g></g><g class="cls-19"><g class="cls-20"><path id="path3017-2" data-name="path3017" class="cls-14" d="M835.82,519.67a13.4,13.4,0,0,1,1.2-5.21,12.38,12.38,0,0,0-4,8.39V528l2.76-1.43Z"/><path id="path3021-2" data-name="path3021" class="cls-14" d="M833.06,556.4c0,2.9,1.68,4.35,4,3.81a5.51,5.51,0,0,1-1.21-3.8v-9.59l-2.76,1.59Z"/><path id="path3025-2" data-name="path3025" class="cls-14" d="M840,544.44,837.19,546v9.58c0,2.9,1.68,4.36,4,3.82a5.6,5.6,0,0,1-1.21-3.81Z"/><path id="path3029-2" data-name="path3029" class="cls-14" d="M840,515.68a13.16,13.16,0,0,1,1.21-5.2,12.35,12.35,0,0,0-4,8.39v7l2.76-1.43Z"/><path id="path3033-2" data-name="path3033" class="cls-14" d="M808.9,531.56a15.06,15.06,0,0,0-3.38,8.79V570.7c0,2.92,1.36,4.66,3.38,4.89a8,8,0,0,1-.63-3.28V535.57a14.36,14.36,0,0,1,.63-4"/><path id="path3037-2" data-name="path3037" class="cls-14" d="M812.41,530a14.33,14.33,0,0,1,.62-4,15.11,15.11,0,0,0-3.38,8.79v36.75c0,3.43,1.88,5.25,4.5,4.86a6.38,6.38,0,0,1-1.74-4.86Z"/><path id="path3041-2" data-name="path3041" class="cls-14" d="M846.83,505.32a12.19,12.19,0,0,0-5.5,9.57v10.38l-13.77,7.15V521.24c0-4.41-3.09-6.2-6.89-4a15.24,15.24,0,0,0-6.89,12v41.54c0,4.41,3.08,6.2,6.89,4a15.27,15.27,0,0,0,6.89-12V550l13.77-8v12.79c0,3.52,2.46,5,5.5,3.2a12.17,12.17,0,0,0,5.51-9.56V508.53c0-3.53-2.46-5-5.51-3.21"/></g></g><path class="cls-8" d="M1037.29,121.91,740.84,293.06l1.08,385.86,296.47-171.14Zm-133.1,373.6-117.78,68V338.44l117.78-68Z"/><polygon class="cls-14" points="1016.02 206.49 1016.02 342.7 1009.04 346.73 943.57 384.52 943.57 248.31 1009.04 210.52 1016.02 206.49"/><polygon class="cls-8" points="999.65 237.32 999.65 293.05 994.26 296.16 954.84 318.91 954.84 263.18 994.26 240.43 999.65 237.32"/><polygon class="cls-4" points="999.65 237.32 999.65 293.05 994.26 296.16 994.26 240.43 999.65 237.32"/><polygon class="cls-14" points="965.45 446.72 965.49 460.16 949.9 469.16 949.86 455.72 965.45 446.72"/><polygon class="cls-6" points="949.86 455.72 945.99 453.47 961.58 444.47 965.45 446.72 949.86 455.72"/><polygon class="cls-14" points="965.38 422.36 965.42 435.8 949.83 444.8 949.79 431.36 965.38 422.36"/><polygon class="cls-14" points="965.31 398 965.35 411.44 949.76 420.44 949.72 407 965.31 398"/><polygon class="cls-14" points="991.26 431.81 991.3 445.25 975.71 454.25 975.67 440.81 991.26 431.81"/><polygon class="cls-14" points="991.2 407.45 991.23 420.9 975.64 429.9 975.61 416.46 991.2 407.45"/><polygon class="cls-14" points="991.13 383.1 991.16 396.54 975.57 405.54 975.54 392.1 991.13 383.1"/><polygon class="cls-14" points="1016.48 417.26 1016.51 430.7 1000.92 439.7 1000.88 426.26 1016.48 417.26"/><polygon class="cls-14" points="1016.41 392.9 1016.45 406.34 1000.85 415.35 1000.81 401.9 1016.41 392.9"/><polygon class="cls-14" points="1016.34 368.54 1016.38 381.98 1000.78 390.99 1000.74 377.55 1016.34 368.54"/><polygon class="cls-4" points="1016.3 448.86 1016.3 470.23 997.86 459.51 1016.3 448.86"/><polygon class="cls-3" points="1016.3 470.23 945.85 510.9 945.85 489.53 997.86 459.51 1016.3 470.23"/><polygon class="cls-21" points="1016.3 448.86 1016.3 470.23 945.85 510.9 945.85 489.53 997.86 459.51 1016.3 448.86"/><polygon class="cls-8" points="999.65 331.05 954.84 356.92 954.84 343.88 999.65 318.01 999.65 331.05"/><path class="cls-22" d="M988.93,271.37c0,7.45-5.23,16.51-11.68,20.24-3.92,2.26-7.38,2-9.5-.16-1.38-1.41-2.19-3.66-2.19-6.59a22.39,22.39,0,0,1,2.19-9.12c2.12-4.64,5.58-8.86,9.5-11.12C983.7,260.9,988.93,263.92,988.93,271.37Z"/><polygon class="cls-14" points="974.8 276.7 979.7 273.87 979.7 279.53 974.8 282.36 974.8 276.7"/><polygon class="cls-4" points="999.65 286.81 999.65 293.05 954.84 318.91 954.84 312.69 955.01 312.59 999.65 286.81"/><polygon class="cls-23" points="999.65 237.32 999.65 293.05 994.26 296.16 954.84 318.91 954.84 263.18 994.26 240.43 999.65 237.32"/><polygon class="cls-3" points="1016.02 342.71 1009.04 339.76 943.58 377.55 943.58 384.52 1016.02 342.71"/><polygon class="cls-4" points="1016.02 206.49 1016.02 342.7 1009.04 339.76 1009.04 210.52 1016.02 206.49"/><polygon class="cls-4" points="949.76 420.44 945.89 418.19 945.85 404.75 949.72 407 949.76 420.44"/><polygon class="cls-4" points="975.57 405.54 971.7 403.29 971.66 389.85 975.54 392.1 975.57 405.54"/><polygon class="cls-4" points="975.64 429.9 971.77 427.65 971.73 414.21 975.6 416.46 975.64 429.9"/><polygon class="cls-4" points="975.71 454.25 971.84 452 971.8 438.56 975.67 440.81 975.71 454.25"/><polygon class="cls-4" points="1000.92 439.7 997.05 437.45 997.01 424.01 1000.88 426.26 1000.92 439.7"/><polygon class="cls-4" points="1000.85 415.35 996.97 413.1 996.93 399.65 1000.81 401.9 1000.85 415.35"/><polygon class="cls-4" points="1000.78 390.99 996.91 388.74 996.87 375.3 1000.74 377.55 1000.78 390.99"/><polygon class="cls-4" points="949.83 444.8 945.96 442.55 945.92 429.11 949.79 431.36 949.83 444.8"/><polygon class="cls-4" points="949.9 469.16 946.02 466.91 945.99 453.47 949.86 455.72 949.9 469.16"/><polygon class="cls-24" points="904.19 270.44 904.19 495.51 786.41 563.51 786.41 338.44 904.19 270.44"/></g></g></g></svg>