<svg xmlns="http://www.w3.org/2000/svg" xmlns:xlink="http://www.w3.org/1999/xlink" viewBox="0 0 1132.57 581.03"><defs><style>.cls-1{isolation:isolate;}.cls-2{fill:url(#linear-gradient);}.cls-3{fill:#3753e3;}.cls-4{fill:#fafcff;}.cls-5{fill:#1a2b82;}.cls-6{fill:#4964ee;}.cls-7{fill:#4f6ef7;}.cls-8{fill:#0e1744;}.cls-21,.cls-9{fill:none;}.cls-10{fill:#8195ff;}.cls-11{fill:url(#linear-gradient-2);}.cls-12{fill:url(#linear-gradient-3);}.cls-13{fill:url(#linear-gradient-4);}.cls-14{fill:url(#linear-gradient-5);}.cls-15{fill:url(#linear-gradient-6);}.cls-16{fill:url(#linear-gradient-7);}.cls-17{fill:url(#linear-gradient-8);}.cls-18{fill:url(#linear-gradient-9);}.cls-19{fill:url(#linear-gradient-10);}.cls-20{fill:url(#linear-gradient-11);}.cls-21{stroke:#3753e3;stroke-miterlimit:10;stroke-width:2.5px;}.cls-22{fill:url(#linear-gradient-12);}.cls-23{fill:#fdb455;}.cls-24,.cls-26,.cls-27,.cls-28,.cls-30,.cls-31,.cls-32,.cls-34,.cls-35{mix-blend-mode:multiply;}.cls-24{fill:url(#linear-gradient-13);}.cls-25{fill:#fff;}.cls-26{fill:url(#linear-gradient-14);}.cls-27{fill:url(#linear-gradient-15);}.cls-28{fill:url(#linear-gradient-16);}.cls-29{fill:url(#linear-gradient-17);}.cls-30{fill:url(#linear-gradient-18);}.cls-31{fill:url(#linear-gradient-19);}.cls-32{fill:url(#linear-gradient-20);}.cls-33{fill:url(#linear-gradient-21);}.cls-34{fill:url(#linear-gradient-22);}.cls-35{fill:url(#linear-gradient-23);}.cls-36{fill:url(#linear-gradient-24);}</style><linearGradient id="linear-gradient" x1="314.79" y1="407" x2="999.66" y2="407" gradientUnits="userSpaceOnUse"><stop offset="0" stop-color="#3753e3"/><stop offset="1" stop-color="#3753e3" stop-opacity="0"/></linearGradient><linearGradient id="linear-gradient-2" x1="311.49" y1="342.23" x2="465.84" y2="342.23" gradientUnits="userSpaceOnUse"><stop offset="0" stop-color="#84ecd3"/><stop offset="1" stop-color="#84ecd3" stop-opacity="0"/></linearGradient><linearGradient id="linear-gradient-3" x1="311.49" y1="360.16" x2="465.84" y2="360.16" xlink:href="#linear-gradient-2"/><linearGradient id="linear-gradient-4" x1="311.49" y1="377.88" x2="465.84" y2="377.88" xlink:href="#linear-gradient-2"/><linearGradient id="linear-gradient-5" x1="311.49" y1="361.05" x2="465.84" y2="361.05" xlink:href="#linear-gradient-2"/><linearGradient id="linear-gradient-6" x1="311.49" y1="378.97" x2="465.84" y2="378.97" xlink:href="#linear-gradient-2"/><linearGradient id="linear-gradient-7" x1="311.49" y1="396.7" x2="465.84" y2="396.7" xlink:href="#linear-gradient-2"/><linearGradient id="linear-gradient-8" x1="311.49" y1="379.84" x2="465.84" y2="379.84" xlink:href="#linear-gradient-2"/><linearGradient id="linear-gradient-9" x1="311.49" y1="397.77" x2="465.84" y2="397.77" xlink:href="#linear-gradient-2"/><linearGradient id="linear-gradient-10" x1="311.49" y1="415.49" x2="465.84" y2="415.49" xlink:href="#linear-gradient-2"/><linearGradient id="linear-gradient-11" x1="311.49" y1="333.56" x2="465.84" y2="333.56" xlink:href="#linear-gradient-2"/><linearGradient id="linear-gradient-12" x1="147.46" y1="175.52" x2="147.46" y2="506.73" gradientUnits="userSpaceOnUse"><stop offset="0" stop-color="#fdb455" stop-opacity="0"/><stop offset="1" stop-color="#fdb455"/></linearGradient><linearGradient id="linear-gradient-13" x1="112.24" y1="438.19" x2="182.68" y2="438.19" xlink:href="#linear-gradient-12"/><linearGradient id="linear-gradient-14" x1="112.24" y1="396.6" x2="182.68" y2="396.6" xlink:href="#linear-gradient-12"/><linearGradient id="linear-gradient-15" x1="112.24" y1="355.07" x2="182.68" y2="355.07" xlink:href="#linear-gradient-12"/><linearGradient id="linear-gradient-16" x1="112.24" y1="313.48" x2="182.68" y2="313.48" xlink:href="#linear-gradient-12"/><linearGradient id="linear-gradient-17" x1="35.22" y1="207.45" x2="35.22" y2="496.79" xlink:href="#linear-gradient-12"/><linearGradient id="linear-gradient-18" x1="0" y1="434.29" x2="70.44" y2="434.29" xlink:href="#linear-gradient-12"/><linearGradient id="linear-gradient-19" x1="0" y1="392.7" x2="70.44" y2="392.7" xlink:href="#linear-gradient-12"/><linearGradient id="linear-gradient-20" x1="0" y1="351.16" x2="70.44" y2="351.16" xlink:href="#linear-gradient-12"/><linearGradient id="linear-gradient-21" x1="91.63" y1="290.24" x2="91.63" y2="526.09" xlink:href="#linear-gradient-12"/><linearGradient id="linear-gradient-22" x1="56.41" y1="471.29" x2="126.85" y2="471.29" xlink:href="#linear-gradient-12"/><linearGradient id="linear-gradient-23" x1="56.42" y1="429.7" x2="126.85" y2="429.7" xlink:href="#linear-gradient-12"/><linearGradient id="linear-gradient-24" x1="-214.16" y1="449.3" x2="319.51" y2="449.3" xlink:href="#linear-gradient"/></defs><title>ProtectCrypto</title><g class="cls-1"><g id="Layer_2" data-name="Layer 2"><g id="Layer_1-2" data-name="Layer 1"><polygon class="cls-2" points="1132.57 380.35 784.99 581.03 522.14 581.03 774.66 434.28 775.23 232.98 877.31 232.98 1132.57 380.35"/><polygon class="cls-3" points="522.92 302.76 522.18 564.97 522.13 581.02 495.14 565.44 495.18 549.39 495.18 549.17 395.96 491.89 292.97 432.43 278.96 424.35 278.92 440.6 251.92 425.02 251.97 408.97 251.98 406.72 252.71 146.75 505.49 292.69 519.51 300.79 522.92 302.76"/><polygon class="cls-4" points="495.19 313.43 494.65 504.28 297.96 390.73 297.96 199.56 481.32 305.42 492.47 311.86 495.19 313.43"/><polygon class="cls-5" points="424.55 349.08 424.55 365.74 341.87 318.14 341.87 301.37 346.24 303.9 424.55 349.08"/><path class="cls-6" d="M328.39,275.16V381.42L438,444.54V338.41Zm96.16,90.58-82.69-47.6V301.37l4.37,2.53,78.32,45.18Z"/><polygon class="cls-7" points="252.71 146.75 505.23 0 775.45 156.01 522.93 302.76 252.71 146.75"/><polygon class="cls-8" points="297.96 199.77 297.96 390.93 279.71 398.09 280.3 189.56 297.96 199.77"/><polygon class="cls-8" points="775.45 156.01 775.23 232.98 774.66 434.28 522.14 581.03 522.14 581.02 522.93 302.76 638.89 235.37 643 232.98 775.45 156.01"/><polygon class="cls-8" points="359.27 343.38 362.68 341.39 362.65 351.16 359.24 353.14 359.27 343.38"/><polygon class="cls-8" points="390.19 361.3 393.61 359.32 393.58 369.08 390.17 371.06 390.19 361.3"/><polygon class="cls-8" points="421.14 379.03 424.55 377.04 424.52 386.81 421.11 388.79 421.14 379.03"/><polygon class="cls-8" points="359.27 362.19 362.68 360.21 362.65 369.97 359.24 371.95 359.27 362.19"/><polygon class="cls-8" points="390.19 380.12 393.61 378.13 393.58 387.9 390.17 389.88 390.19 380.12"/><polygon class="cls-8" points="421.14 397.84 424.55 395.86 424.52 405.62 421.11 407.61 421.14 397.84"/><polygon class="cls-8" points="359.27 380.99 362.68 379 362.65 388.77 359.24 390.75 359.27 380.99"/><polygon class="cls-8" points="390.19 398.91 393.61 396.93 393.58 406.69 390.17 408.67 390.19 398.91"/><polygon class="cls-8" points="421.14 416.64 424.55 414.65 424.52 424.42 421.11 426.4 421.14 416.64"/><line class="cls-9" x1="251.97" y1="408.96" x2="251.93" y2="408.94"/><polygon class="cls-5" points="494.65 504.48 494.64 505.41 494.59 522.15 473.12 509.76 473.12 509.76 312.32 416.75 301.18 410.32 301.18 410.49 279.71 398.09 297.96 390.93 494.65 504.48"/><polygon class="cls-8" points="449.56 331.79 438.02 338.41 438.02 444.54 449.56 437.88 449.56 331.79"/><polygon class="cls-10" points="449.56 331.79 339.92 268.49 328.39 275.15 438.02 338.41 449.56 331.79"/><polygon class="cls-6" points="494.68 437.87 494.56 478.73 480.34 470.52 480.46 429.66 494.68 437.87"/><polygon class="cls-8" points="494.68 437.87 501.74 433.77 501.63 474.62 494.56 478.73 494.68 437.87"/><polygon class="cls-10" points="501.74 433.77 494.68 437.88 480.46 429.67 487.53 425.55 494.88 421.29 494.86 429.79 501.74 433.77"/><polygon class="cls-6" points="494.68 374.68 494.56 415.53 480.34 407.32 480.46 366.47 494.68 374.68"/><polygon class="cls-8" points="494.68 374.68 501.74 370.57 501.63 411.43 494.56 415.53 494.68 374.68"/><polygon class="cls-10" points="501.74 370.57 494.68 374.68 480.46 366.47 487.53 362.36 495.06 357.99 495.04 366.69 501.74 370.57"/><polygon class="cls-8" points="292.97 432.43 278.92 440.6 278.96 424.35 292.97 432.43"/><polygon class="cls-8" points="346.24 303.9 346.24 315.61 341.87 318.14 341.87 301.37 346.24 303.9"/><polygon class="cls-8" points="424.55 360.7 424.55 365.74 341.87 318.14 346.24 315.61 424.55 360.7"/><polygon class="cls-11" points="359.27 343.38 359.24 353.14 338.37 341.09 338.4 331.32 359.27 343.38"/><polygon class="cls-12" points="390.19 361.3 390.17 371.06 369.29 359.01 369.32 349.25 390.19 361.3"/><polygon class="cls-13" points="421.14 379.03 421.11 388.79 400.24 376.74 400.26 366.98 421.14 379.03"/><polygon class="cls-14" points="359.27 362.19 359.24 371.95 338.37 359.9 338.4 350.14 359.27 362.19"/><polygon class="cls-15" points="390.19 380.12 390.17 389.88 369.29 377.83 369.32 368.07 390.19 380.12"/><polygon class="cls-16" points="421.14 397.84 421.11 407.61 400.24 395.55 400.26 385.79 421.14 397.84"/><polygon class="cls-17" points="359.27 380.99 359.24 390.75 338.37 378.7 338.4 368.94 359.27 380.99"/><polygon class="cls-18" points="390.19 398.91 390.17 408.67 369.29 396.62 369.32 386.86 390.19 398.91"/><polygon class="cls-19" points="421.14 416.64 421.11 426.4 400.24 414.35 400.26 404.59 421.14 416.64"/><polygon class="cls-20" points="424.55 349.08 424.55 365.74 341.87 318.14 341.87 301.37 346.24 303.9 424.55 349.08"/><path class="cls-10" d="M537.56,261.76a4.58,4.58,0,0,1-4.14,0c-1.14-.66-1.13-1.73,0-2.4a4.58,4.58,0,0,1,4.14,0A1.27,1.27,0,0,1,537.56,261.76Z"/><path class="cls-10" d="M558.57,249.62a4.55,4.55,0,0,1-4.13,0,1.27,1.27,0,0,1,0-2.4,4.58,4.58,0,0,1,4.14,0C559.73,247.89,559.72,249,558.57,249.62Z"/><path class="cls-10" d="M579.59,237.49a4.55,4.55,0,0,1-4.13,0,1.27,1.27,0,0,1,0-2.4,4.51,4.51,0,0,1,4.14,0A1.26,1.26,0,0,1,579.59,237.49Z"/><path class="cls-10" d="M600.6,225.36a4.55,4.55,0,0,1-4.13,0,1.26,1.26,0,0,1,0-2.39,4.51,4.51,0,0,1,4.14,0C601.76,223.63,601.75,224.7,600.6,225.36Z"/><path class="cls-10" d="M621.62,213.22a4.55,4.55,0,0,1-4.14,0,1.27,1.27,0,0,1,0-2.4,4.58,4.58,0,0,1,4.14,0C622.78,211.49,622.76,212.56,621.62,213.22Z"/><path class="cls-10" d="M642.64,201.09a4.55,4.55,0,0,1-4.14,0c-1.14-.66-1.13-1.73,0-2.39a4.52,4.52,0,0,1,4.13,0A1.26,1.26,0,0,1,642.64,201.09Z"/><path class="cls-10" d="M663.65,189a4.55,4.55,0,0,1-4.13,0,1.27,1.27,0,0,1,0-2.4,4.58,4.58,0,0,1,4.14,0A1.27,1.27,0,0,1,663.65,189Z"/><path class="cls-10" d="M684.67,176.82a4.55,4.55,0,0,1-4.14,0,1.27,1.27,0,0,1,0-2.4,4.55,4.55,0,0,1,4.13,0A1.26,1.26,0,0,1,684.67,176.82Z"/><path class="cls-10" d="M705.68,164.69a4.55,4.55,0,0,1-4.13,0,1.26,1.26,0,0,1,0-2.39,4.55,4.55,0,0,1,4.14,0C706.84,163,706.82,164,705.68,164.69Z"/><path class="cls-10" d="M733.46,154.68a1.19,1.19,0,0,1,1,0,.32.32,0,0,1,0,.6L521.22,278.42a1.13,1.13,0,0,1-1,0c-.28-.16-.29-.43,0-.59Z"/><path class="cls-10" d="M513.36,274.26a3.8,3.8,0,0,1-.51-.16,2.56,2.56,0,0,1-.44-.21,1.45,1.45,0,0,1-.85-1.2,1.49,1.49,0,0,1,.88-1.2,2.74,2.74,0,0,1,.42-.21,4,4,0,0,1,.52-.15l.54-.1.57,0a4.23,4.23,0,0,1,2.07.5,2.31,2.31,0,0,1,.36.25,2.44,2.44,0,0,1,.27.3,1.07,1.07,0,0,1,.16.32.92.92,0,0,1,.06.33,1,1,0,0,1-.06.33,1.19,1.19,0,0,1-.17.31,1.5,1.5,0,0,1-.27.3,2.65,2.65,0,0,1-.37.25,2.56,2.56,0,0,1-.44.21,3.8,3.8,0,0,1-.51.16l-.55.1-.57,0-.57,0Z"/><path class="cls-10" d="M723.51,152.93a3.8,3.8,0,0,1-.51-.16,3,3,0,0,1-.44-.21,1.45,1.45,0,0,1-.84-1.2,1,1,0,0,1,0-.33,1.05,1.05,0,0,1,.17-.31,1.53,1.53,0,0,1,.27-.3,2.41,2.41,0,0,1,.35-.25,4.28,4.28,0,0,1,2.09-.5,4.34,4.34,0,0,1,2.07.49,2.45,2.45,0,0,1,.35.26,1.27,1.27,0,0,1,.27.3,1.05,1.05,0,0,1,.17.31,1,1,0,0,1,0,.33.77.77,0,0,1-.06.33.9.9,0,0,1-.17.32,1.21,1.21,0,0,1-.27.29,2,2,0,0,1-.36.26,3.1,3.1,0,0,1-.45.21,4.92,4.92,0,0,1-.5.16,5.25,5.25,0,0,1-.55.09,4.08,4.08,0,0,1-1.14,0A4.85,4.85,0,0,1,723.51,152.93Z"/><path class="cls-10" d="M490.74,40.83a4.55,4.55,0,0,1,4.14,0,1.27,1.27,0,0,1,0,2.4,4.58,4.58,0,0,1-4.14,0A1.26,1.26,0,0,1,490.74,40.83Z"/><path class="cls-10" d="M469.73,53a4.52,4.52,0,0,1,4.13,0,1.26,1.26,0,0,1,0,2.39,4.55,4.55,0,0,1-4.14,0C468.57,54.69,468.58,53.62,469.73,53Z"/><path class="cls-10" d="M448.71,65.09a4.58,4.58,0,0,1,4.14,0c1.14.66,1.13,1.73,0,2.4a4.52,4.52,0,0,1-4.13,0A1.26,1.26,0,0,1,448.71,65.09Z"/><path class="cls-10" d="M427.7,77.22a4.55,4.55,0,0,1,4.13,0,1.27,1.27,0,0,1,0,2.4,4.58,4.58,0,0,1-4.14,0C426.54,79,426.55,77.89,427.7,77.22Z"/><path class="cls-10" d="M406.68,89.36a4.58,4.58,0,0,1,4.14,0,1.27,1.27,0,0,1,0,2.4,4.55,4.55,0,0,1-4.14,0C405.52,91.09,405.54,90,406.68,89.36Z"/><path class="cls-10" d="M385.66,101.49a4.58,4.58,0,0,1,4.14,0,1.27,1.27,0,0,1,0,2.4,4.55,4.55,0,0,1-4.13,0A1.27,1.27,0,0,1,385.66,101.49Z"/><path class="cls-10" d="M364.65,113.63a4.55,4.55,0,0,1,4.13,0,1.27,1.27,0,0,1,0,2.4,4.58,4.58,0,0,1-4.14,0C363.49,115.36,363.51,114.29,364.65,113.63Z"/><path class="cls-10" d="M343.64,125.76a4.55,4.55,0,0,1,4.13,0,1.27,1.27,0,0,1,0,2.4,4.58,4.58,0,0,1-4.14,0C342.48,127.49,342.49,126.42,343.64,125.76Z"/><path class="cls-10" d="M322.62,137.89a4.55,4.55,0,0,1,4.13,0,1.26,1.26,0,0,1,0,2.39,4.51,4.51,0,0,1-4.14,0C321.46,139.62,321.48,138.55,322.62,137.89Z"/><path class="cls-10" d="M294.84,147.9a1.19,1.19,0,0,1-1,0,.32.32,0,0,1,0-.6L507.08,24.17a1.1,1.1,0,0,1,1,0,.32.32,0,0,1,0,.6Z"/><path class="cls-10" d="M514.94,28.32a3.8,3.8,0,0,1,.51.16,2.56,2.56,0,0,1,.44.21,1.46,1.46,0,0,1,.85,1.2,1.51,1.51,0,0,1-.88,1.21,4.09,4.09,0,0,1-.42.2,4.28,4.28,0,0,1-.51.15,3.53,3.53,0,0,1-.55.1,5.44,5.44,0,0,1-.57,0,4.34,4.34,0,0,1-2.07-.49,3.32,3.32,0,0,1-.36-.26,2.44,2.44,0,0,1-.27-.29,1.59,1.59,0,0,1-.16-.32,1.11,1.11,0,0,1,0-.66,1.1,1.1,0,0,1,.17-.32,1.45,1.45,0,0,1,.27-.29,2.68,2.68,0,0,1,.37-.26,3.61,3.61,0,0,1,.44-.21,3.8,3.8,0,0,1,.51-.16,4.51,4.51,0,0,1,.55-.09,2.73,2.73,0,0,1,.57,0,3.63,3.63,0,0,1,.57,0A4.68,4.68,0,0,1,514.94,28.32Z"/><path class="cls-10" d="M304.79,149.66a3.8,3.8,0,0,1,.51.15l.44.21a1.48,1.48,0,0,1,.85,1.2,1,1,0,0,1-.06.33,1.1,1.1,0,0,1-.17.32,2.06,2.06,0,0,1-.62.54,4.28,4.28,0,0,1-2.09.5,4.12,4.12,0,0,1-2.07-.49,2.45,2.45,0,0,1-.35-.26,1.45,1.45,0,0,1-.27-.29,1.1,1.1,0,0,1-.17-.32,1.26,1.26,0,0,1-.05-.33,1,1,0,0,1,.06-.33,1.24,1.24,0,0,1,.17-.32,1.45,1.45,0,0,1,.27-.29,2.31,2.31,0,0,1,.36-.25,4.71,4.71,0,0,1,.45-.22,3.09,3.09,0,0,1,.51-.15,3.22,3.22,0,0,1,.54-.1,5.44,5.44,0,0,1,.57,0,5.3,5.3,0,0,1,.57,0A3.33,3.33,0,0,1,304.79,149.66Z"/><line class="cls-21" x1="571.39" y1="506.76" x2="725.54" y2="417.16"/><line class="cls-21" x1="571.39" y1="329.41" x2="725.54" y2="239.81"/><path class="cls-22" d="M182.64,416.55c0-.32-.08-.65-.13-1V377.94h0V336.41h0V171.07H112.24V417.38h.05v0l0,8.12h0l0,8.53v4.5c0,.3,0,.61,0,.91s.06.64.11.95a11.93,11.93,0,0,0,.46,1.9,11.73,11.73,0,0,0,.76,1.86,13.43,13.43,0,0,0,.83,1.47,3.75,3.75,0,0,0,.24.36c.2.3.42.6.64.89s.31.4.48.59l.1.12.15.17c.25.29.52.58.8.86a23.84,23.84,0,0,0,2.78,2.41l.3.22c.64.47,1.33.92,2,1.36h0l.63.38.6.33.45.26.28.15h0l1.08.54.1,0,1,.45h0l.25.11a0,0,0,0,0,0,0h0l.17.07.28.12.58.24.16,0,.06,0,.06,0,.2.08.85.32.13.05.92.31h0c.36.12.71.24,1.07.34l1.06.32h0l.33.1.58.15,1.37.34c.46.12.93.22,1.39.32l.87.16.33.06.53.09.36.07.53.09h.06l.82.11.56.08.28,0,.84.11h0l.69.06.16,0c.27,0,.54.06.81.07h.05c1.12.1,2.23.16,3.36.18h2.68c.35,0,.7,0,1,0h0l.44,0h.45c.67,0,1.33-.08,2-.14l.88-.08h.1l1.26-.15h.1l.9-.12h0l.55-.08.56-.09.55-.09.54-.09h0l.31-.05.13,0,.42-.08.43-.09.43-.09,1.68-.39.17,0,.66-.17a2.47,2.47,0,0,0,.36-.11,4,4,0,0,0,.46-.13l.81-.23.81-.25,1-.35,1-.37.34-.13c.48-.18,1-.37,1.42-.57l.58-.25,1.08-.51,1-.53.24-.13.25-.14c.25-.13.5-.28.74-.42s.3-.17.43-.25l.31-.19.5-.31a25,25,0,0,0,3.65-2.8l0,0,0,0,.47-.46.45-.45.18-.2.18-.2c.14-.14.26-.29.39-.43h0c.14-.14.25-.3.37-.44a.83.83,0,0,0,.08-.12c.05-.05.09-.11.14-.17l.13-.16c.11-.16.23-.31.33-.46a4.44,4.44,0,0,1,.27-.38h0c.1-.15.2-.3.29-.46s.18-.3.26-.46l.09-.15.21-.4.3-.61c0-.11.09-.22.14-.33l.08-.21.06-.15a.88.88,0,0,0,.05-.15,1.89,1.89,0,0,0,.09-.21,1.55,1.55,0,0,0,.08-.23c0-.09.05-.16.07-.24a2.81,2.81,0,0,0,.1-.31c.07-.23.13-.47.18-.71a2.68,2.68,0,0,0,.07-.27V441a.07.07,0,0,0,0-.05c0-.13,0-.26.07-.39a1.13,1.13,0,0,0,0-.18,1.25,1.25,0,0,1,0-.19c0-.08,0-.16,0-.24s0-.16,0-.25a1.28,1.28,0,0,0,0-.19,1.41,1.41,0,0,0,0-.2,1.23,1.23,0,0,0,0-.27v-.31l.07-20.75v-.39C182.68,417.23,182.67,416.89,182.64,416.55Z"/><path class="cls-23" d="M182.68,418l-.06,20.76V439c0,.1,0,.19,0,.29a1.37,1.37,0,0,1,0,.19,1.28,1.28,0,0,1,0,.19c0,.09,0,.17,0,.25l0,.24a1.23,1.23,0,0,1,0,.19,1.13,1.13,0,0,1,0,.18c0,.13,0,.26-.07.39a.07.07,0,0,1,0,.05.43.43,0,0,0,0,0h0l-.06.28c0,.24-.11.48-.18.71a2.81,2.81,0,0,1-.1.31c0,.08,0,.15-.07.24a1.55,1.55,0,0,1-.08.23c0,.07,0,.14-.07.21l-.07.15-.05.15a1.8,1.8,0,0,0-.08.21l-.15.33-.3.61-.21.4-.08.15-.27.46c-.09.16-.19.31-.29.46h0c-.1.13-.18.25-.27.38s-.22.3-.33.46l-.13.16-.13.17-.09.12c-.12.14-.23.3-.37.44h0l-.39.43-.18.2-.19.19c-.14.16-.29.31-.44.46l-.48.45,0,0,0,0a25,25,0,0,1-3.65,2.8l-.5.31-.31.19c-.13.08-.29.18-.43.25s-.49.29-.74.42l-.25.14c-.08,0-.16.09-.24.12-.34.19-.7.37-1,.54l-1.08.51-.58.25c-.46.2-.94.39-1.42.57l-.34.13-1,.37-1,.35-.81.25-.8.24a4.05,4.05,0,0,1-.47.12l-.36.1-.66.18-.17,0-1.68.39-.43.09-.42.08-.43.09-.13,0-.3.06h0l-.54.09-.54.1-.57.08-.55.08h0l-.9.12h-.1l-1.26.15h-.1l-.88.08c-.66,0-1.33.1-2,.13l-.45,0-.44,0h0c-.34,0-.69,0-1,0h-2.68c-1.13,0-2.24-.08-3.36-.18h-.05l-.81-.08-.16,0-.7-.07h0l-.84-.1-.28,0-.56-.07-.82-.12h-.06l-.53-.09-.35-.06-.54-.1-.33-.06-.22-.05c-.21,0-.43-.07-.64-.12-.47-.09-.93-.2-1.4-.31l-1.37-.34-.58-.15-.32-.09h0l-1.06-.32c-.36-.1-.71-.22-1.07-.34l-.93-.32-.13-.05-.85-.32-.2-.08h0l-.06,0-.06,0-.14,0-.6-.24h0l-.28-.11-.17-.07h0l-.25-.11h0l-1-.45-.1,0-1.08-.54h0l-.27-.16a4.09,4.09,0,0,1-.46-.25l-.6-.33-.63-.38h0c-.72-.44-1.41-.9-2-1.36l-.3-.22a23.84,23.84,0,0,1-2.78-2.41c-.28-.28-.55-.57-.8-.86l-.15-.17a1.47,1.47,0,0,1-.1-.13c-.17-.19-.32-.38-.48-.58s-.44-.59-.64-.89a2.06,2.06,0,0,1-.23-.37,12.74,12.74,0,0,1-.84-1.46,14,14,0,0,1-.76-1.86,12.82,12.82,0,0,1-.46-1.9c0-.31-.09-.63-.11-.95s0-.61,0-.91v-4.5l0-8.54h0l0-8.12c0,.32,0,.63,0,1v0c0,.29.06.58.1.87a.52.52,0,0,1,0,.11c.05.29.11.59.18.88s.17.63.27.94.21.61.33.92.19.45.3.67a3.55,3.55,0,0,0,.21.44l.27.51q.12.22.27.45l.21.34.09.14c.08.14.18.27.27.41a20.33,20.33,0,0,0,3,3.37c.24.22.49.44.76.66l.11.09c.3.25.62.49,1,.74h0c.35.27.72.52,1.1.78h0c.37.25.76.5,1.16.74l.34.21.36.22.91.49c.3.17.61.33.92.48s.35.18.53.27l.12.05h0l.07,0,.19.08c.21.11.42.21.64.3l.2.09.42.18h0l.09,0,1,.41.2.07.25.1c.2.08.39.16.59.22s.52.19.79.28l.27.09h0l.5.17.13,0,.25.09.44.14.81.24.59.16,1.22.31.93.22.93.2.58.12.24.05.24.05.4.07c.67.12,1.34.23,2,.32l.48.07c.94.12,1.88.23,2.83.31h.12l.77.05,1.14.07.69,0h3.45l.44,0,.55,0h.2a4.89,4.89,0,0,0,.54,0h.21l.72,0,1-.07.44,0,.68-.05h.1l.53-.06,1.85-.23c.41,0,.81-.13,1.21-.19.69-.11,1.38-.24,2-.37l.36-.07.7-.16.77-.18q.76-.18,1.5-.39l.63-.16.76-.23h0l.76-.24h0l.82-.27.64-.23c.25-.08.49-.18.74-.27.43-.17.85-.34,1.26-.52.11-.05.23-.09.34-.15a5.15,5.15,0,0,0,.54-.23l.69-.32c.46-.21.92-.44,1.36-.68l.57-.31.74-.4.22-.14.22-.13.63-.4.33-.21c.3-.19.59-.38.87-.58a25,25,0,0,0,2.13-1.67l.23-.2.26-.23,0,0,.46-.45.07-.06c.25-.25.49-.5.72-.76a.71.71,0,0,0,.12-.13c.24-.26.47-.53.68-.8l.09-.11c.17-.22.33-.43.48-.65l.11-.16.09-.12.05-.07.13-.18c.12-.19.24-.37.34-.55s.15-.24.22-.36.21-.39.3-.58.29-.58.41-.88a.36.36,0,0,0,0-.11,2.44,2.44,0,0,0,.19-.44c.05-.12.09-.26.13-.39l0-.11a1.83,1.83,0,0,0,.08-.25,2.25,2.25,0,0,0,.08-.24c0-.11.06-.21.08-.32a1.67,1.67,0,0,0,.05-.18c0-.16.08-.31.11-.47s.05-.28.07-.41c.06-.34.1-.68.13-1a.34.34,0,0,0,0-.1v0C182.66,418.22,182.66,418.09,182.68,418Z"/><path class="cls-24" d="M182.68,418l-.06,20.76V439c0,.1,0,.19,0,.29a1.37,1.37,0,0,1,0,.19,1.28,1.28,0,0,1,0,.19c0,.09,0,.17,0,.25l0,.24a1.23,1.23,0,0,1,0,.19,1.13,1.13,0,0,1,0,.18c0,.13,0,.26-.07.39a.07.07,0,0,1,0,.05.43.43,0,0,0,0,0h0l-.06.28c0,.24-.11.48-.18.71a2.81,2.81,0,0,1-.1.31c0,.08,0,.15-.07.24a1.55,1.55,0,0,1-.08.23c0,.07,0,.14-.07.21l-.07.15-.05.15a1.8,1.8,0,0,0-.08.21l-.15.33-.3.61-.21.4-.08.15-.27.46c-.09.16-.19.31-.29.46h0c-.1.13-.18.25-.27.38s-.22.3-.33.46l-.13.16-.13.17-.09.12c-.12.14-.23.3-.37.44h0l-.39.43-.18.2-.19.19c-.14.16-.29.31-.44.46l-.48.45,0,0,0,0a25,25,0,0,1-3.65,2.8l-.5.31-.31.19c-.13.08-.29.18-.43.25s-.49.29-.74.42l-.25.14c-.08,0-.16.09-.24.12-.34.19-.7.37-1,.54l-1.08.51-.58.25c-.46.2-.94.39-1.42.57l-.34.13-1,.37-1,.35-.81.25-.8.24a4.05,4.05,0,0,1-.47.12l-.36.1-.66.18-.17,0-1.68.39-.43.09-.42.08-.43.09-.13,0-.3.06h0l-.54.09-.54.1-.57.08-.55.08h0l-.9.12h-.1l-1.26.15h-.1l-.88.08c-.66,0-1.33.1-2,.13l-.45,0-.44,0h0c-.34,0-.69,0-1,0h-2.68c-1.13,0-2.24-.08-3.36-.18h-.05l-.81-.08-.16,0-.7-.07h0l-.84-.1-.28,0-.56-.07-.82-.12h-.06l-.53-.09-.35-.06-.54-.1-.33-.06-.22-.05c-.21,0-.43-.07-.64-.12-.47-.09-.93-.2-1.4-.31l-1.37-.34-.58-.15-.32-.09h0l-1.06-.32c-.36-.1-.71-.22-1.07-.34l-.93-.32-.13-.05-.85-.32-.2-.08h0l-.06,0-.06,0-.14,0-.6-.24h0l-.28-.11-.17-.07h0l-.25-.11h0l-1-.45-.1,0-1.08-.54h0l-.27-.16a4.09,4.09,0,0,1-.46-.25l-.6-.33-.63-.38h0c-.72-.44-1.41-.9-2-1.36l-.3-.22a23.84,23.84,0,0,1-2.78-2.41c-.28-.28-.55-.57-.8-.86l-.15-.17a1.47,1.47,0,0,1-.1-.13c-.17-.19-.32-.38-.48-.58s-.44-.59-.64-.89a2.06,2.06,0,0,1-.23-.37,12.74,12.74,0,0,1-.84-1.46,14,14,0,0,1-.76-1.86,12.82,12.82,0,0,1-.46-1.9c0-.31-.09-.63-.11-.95s0-.61,0-.91v-4.5l0-8.54h0l0-8.12c0,.32,0,.63,0,1v0c0,.29.06.58.1.87a.52.52,0,0,1,0,.11c.05.29.11.59.18.88s.17.63.27.94.21.61.33.92.19.45.3.67a3.55,3.55,0,0,0,.21.44l.27.51q.12.22.27.45l.21.34.09.14c.08.14.18.27.27.41a20.33,20.33,0,0,0,3,3.37c.24.22.49.44.76.66l.11.09c.3.25.62.49,1,.74h0c.35.27.72.52,1.1.78h0c.37.25.76.5,1.16.74l.34.21.36.22.91.49c.3.17.61.33.92.48s.35.18.53.27l.12.05h0l.07,0,.19.08c.21.11.42.21.64.3l.2.09.42.18h0l.09,0,1,.41.2.07.25.1c.2.08.39.16.59.22s.52.19.79.28l.27.09h0l.5.17.13,0,.25.09.44.14.81.24.59.16,1.22.31.93.22.93.2.58.12.24.05.24.05.4.07c.67.12,1.34.23,2,.32l.48.07c.94.12,1.88.23,2.83.31h.12l.77.05,1.14.07.69,0h3.45l.44,0,.55,0h.2a4.89,4.89,0,0,0,.54,0h.21l.72,0,1-.07.44,0,.68-.05h.1l.53-.06,1.85-.23c.41,0,.81-.13,1.21-.19.69-.11,1.38-.24,2-.37l.36-.07.7-.16.77-.18q.76-.18,1.5-.39l.63-.16.76-.23h0l.76-.24h0l.82-.27.64-.23c.25-.08.49-.18.74-.27.43-.17.85-.34,1.26-.52.11-.05.23-.09.34-.15a5.15,5.15,0,0,0,.54-.23l.69-.32c.46-.21.92-.44,1.36-.68l.57-.31.74-.4.22-.14.22-.13.63-.4.33-.21c.3-.19.59-.38.87-.58a25,25,0,0,0,2.13-1.67l.23-.2.26-.23,0,0,.46-.45.07-.06c.25-.25.49-.5.72-.76a.71.71,0,0,0,.12-.13c.24-.26.47-.53.68-.8l.09-.11c.17-.22.33-.43.48-.65l.11-.16.09-.12.05-.07.13-.18c.12-.19.24-.37.34-.55s.15-.24.22-.36.21-.39.3-.58.29-.58.41-.88a.36.36,0,0,0,0-.11,2.44,2.44,0,0,0,.19-.44c.05-.12.09-.26.13-.39l0-.11a1.83,1.83,0,0,0,.08-.25,2.25,2.25,0,0,0,.08-.24c0-.11.06-.21.08-.32a1.67,1.67,0,0,0,.05-.18c0-.16.08-.31.11-.47s.05-.28.07-.41c.06-.34.1-.68.13-1a.34.34,0,0,0,0-.1v0C182.66,418.22,182.66,418.09,182.68,418Z"/><path class="cls-23" d="M182.68,417.57c0,.26,0,.53,0,.79,0,.05,0,.09,0,.13,0,.34-.07.68-.13,1a7.24,7.24,0,0,1-.18.88,1.67,1.67,0,0,1-.05.18,4.33,4.33,0,0,1-.16.56c0,.12-.07.24-.11.36a8.36,8.36,0,0,1-.32.83.36.36,0,0,1,0,.11c-.12.3-.26.59-.41.88s-.33.63-.52.94-.3.49-.47.73l-.05.07a2.43,2.43,0,0,1-.2.28c-.15.22-.31.43-.48.65l-.09.11c-.21.27-.44.54-.68.8a.71.71,0,0,1-.12.13c-.24.28-.51.55-.79.82s-.49.48-.76.72l-.23.2a25,25,0,0,1-2.13,1.67c-.28.2-.57.39-.87.58l-.33.21c-.27.19-.56.36-.85.53l-.22.13-.74.41-.57.31c-.44.24-.9.46-1.36.68s-.81.38-1.23.55c-.11.06-.23.1-.34.15a44.58,44.58,0,0,1-4.25,1.54h0c-.46.14-.92.27-1.39.39s-1,.27-1.5.39l-.77.18-1.06.23c-.67.13-1.36.26-2,.37l-1.21.19-1.85.23c-.44.05-.87.09-1.31.12l-.44,0-1,.07-.72,0h-.21l-.54,0h-.2l-.55,0c-.9,0-1.79,0-2.69,0h-.72l-1.17-.05-1.14-.07-.77-.05h-.12c-.95-.08-1.89-.19-2.83-.31l-.48-.07c-.68-.09-1.35-.2-2-.32l-.64-.12-.24-.05-.58-.12-.93-.2-.93-.22-1.22-.31-1.4-.4-.44-.14-.38-.12-.5-.17h0l-.27-.09-.79-.28-.59-.22-.25-.1c-.4-.15-.8-.31-1.19-.48l-.09,0-.42-.19-.2-.08c-.22-.09-.43-.19-.64-.3l-.19-.08-.07,0-.65-.32c-.31-.15-.62-.31-.92-.48s-.61-.33-.91-.5l-.36-.21-.34-.21c-.4-.24-.79-.49-1.16-.74h0c-.38-.26-.75-.51-1.1-.78h0c-.33-.25-.65-.49-1-.74l-.11-.09c-.27-.22-.52-.44-.76-.66a20.33,20.33,0,0,1-3-3.37l-.27-.41-.09-.14-.21-.34-.27-.45-.27-.51c-.07-.15-.15-.29-.21-.44s-.2-.44-.3-.67-.23-.61-.33-.92-.19-.62-.27-.94-.13-.59-.18-.88a.52.52,0,0,0,0-.11c0-.29-.08-.58-.1-.87v0c0-.32,0-.63,0-1,0-3.52,1.57-7,4.71-10.19a26,26,0,0,1,5-3.84l.53-.32c.69-.4,1.4-.78,2.13-1.13s1.34-.65,2-.94a47.32,47.32,0,0,1,9.6-2.85,53,53,0,0,1,6.21-.84,58.93,58.93,0,0,1,7.16-.16c8.23.31,16.32,2.28,22.63,5.92a28.23,28.23,0,0,1,5.05,3.67c.2.18.39.36.57.55a15.37,15.37,0,0,1,4.6,8.25c.06.34.1.68.13,1S182.68,417.23,182.68,417.57Z"/><path class="cls-25" d="M136.29,436.77v21.15c-.21,0-.43-.07-.64-.12-.47-.09-.93-.2-1.4-.31l-1.37-.34-.58-.15-.32-.09h0l-1.06-.32c-.36-.1-.71-.22-1.07-.34l-.93-.32-.13-.05-.85-.32-.2-.08h0l-.06,0-.06,0-.14,0-.6-.24h0l-.28-.11-.17-.07h0l-.25-.11h0l-1-.45-.1,0-1.08-.54h0l-.27-.16a4.09,4.09,0,0,1-.46-.25l-.6-.33-.63-.38V431.46l.34.21.36.22.91.49c.3.17.61.33.92.48s.35.18.53.27l.12.05h0l.07,0,.19.08c.21.11.42.21.64.3l.2.09.42.18h0l.09,0,1,.41.2.07.25.1c.2.08.39.16.59.22s.52.19.79.28l.27.09h0l.5.17.13,0,.25.09.44.14.81.24.59.16,1.22.31.93.22.93.2Z"/><path class="cls-25" d="M149.66,437.81V459h0c-.34,0-.69,0-1,0h-2.68c-1.13,0-2.24-.08-3.36-.18h-.05V437.64h.12l.77.05,1.14.07.69,0h3.45l.44,0Z"/><path class="cls-9" d="M146.35,459h0Z"/><path class="cls-23" d="M182.68,376.36l-.06,20.75v.31c0,.1,0,.18,0,.27s0,.27,0,.4,0,.32,0,.49,0,.23-.05.37a3.7,3.7,0,0,0-.07.38.38.38,0,0,1,0,.1v0a9.48,9.48,0,0,1-.24,1,2.46,2.46,0,0,1-.09.29L182,401l-.16.45c0,.09-.08.2-.12.29s-.06.15-.08.22c-.14.31-.29.63-.44.94s-.19.36-.3.54h0c-.18.31-.36.61-.56.92a4.28,4.28,0,0,0-.26.38l-.34.46a2.6,2.6,0,0,1-.26.32.62.62,0,0,1-.08.12c-.12.16-.24.31-.37.46l-.39.44-.37.39c-.29.31-.6.61-.92.91l-.05,0a26,26,0,0,1-3.65,2.81l-.5.31c-.11.05-.2.13-.31.19l-.43.25-.74.41c-.16.1-.32.18-.49.27-.69.37-1.4.71-2.13,1a4.11,4.11,0,0,1-.57.25c-.57.27-1.17.49-1.77.72-.32.13-.64.25-1,.36l-1,.34c-.52.18-1.07.35-1.61.5l-.82.23-.84.21c-.56.13-1.12.27-1.68.38l-.84.18-.86.17h0l-1.08.18-1.12.18-1,.12c-.42.06-.84.1-1.27.14h-.09c-.3,0-.59.05-.88.09l-2,.13-.89,0h0l-1,0h-1.9c-.22,0-.45,0-.66,0-1.17,0-2.33-.09-3.48-.17h-.05l-1.67-.17h0c-.56-.07-1.12-.14-1.68-.23-.3,0-.6-.08-.89-.12l-.88-.15-1.08-.2c-.22,0-.43-.09-.65-.12-.94-.21-1.86-.42-2.76-.66l-.91-.25h0c-.36-.1-.72-.2-1.06-.31l-1.08-.35-1.06-.38c-.28-.09-.57-.2-.84-.31l-.21-.08-.12-.05-.14-.06-1-.43h0c-.43-.19-.84-.37-1.24-.57l-.1,0-1.08-.55a2.29,2.29,0,0,1-.27-.14l-1.07-.58L122,411c-6.51-3.94-9.76-9-9.75-14.13l.06-21.1c0,5.05,3.23,10.12,9.69,14,.23.16.47.29.71.43.59.34,1.2.68,1.82,1l.54.26.38.18.63.29c.55.25,1.12.48,1.7.71l.21.08c.27.11.56.22.83.31s.7.27,1.06.39l.67.21c.23.08.45.16.69.22l.81.23c1.19.35,2.42.65,3.67.91l.59.11.47.09.81.16.83.13c.26,0,.52.08.78.12l1.72.21,1.6.16h.12c.25,0,.51,0,.76.06.61,0,1.22.07,1.84.09l.85,0h2.59l1,0h0l.91,0c.67,0,1.35-.07,2-.13l.87-.08a.16.16,0,0,0,.09,0c.41,0,.81-.08,1.21-.13s.71-.08,1.06-.13l1.32-.2.9-.16.85-.16.66-.13c.5-.1,1-.22,1.48-.34.18,0,.37-.08.56-.13.52-.13,1.05-.27,1.56-.43s1-.3,1.54-.46h0c.28-.1.55-.18.82-.29s.43-.14.65-.23.49-.17.74-.27c.52-.19,1-.41,1.56-.63l.57-.26c.73-.33,1.44-.67,2.13-1,.17-.08.34-.17.49-.26s.5-.28.74-.42.29-.17.44-.25a28.62,28.62,0,0,0,2.94-2c.17-.14.35-.27.52-.42.35-.28.67-.57,1-.86,0,0,0,0,0-.05.18-.16.36-.32.52-.49a20.5,20.5,0,0,0,1.61-1.81c.22-.26.42-.54.6-.8s.18-.25.26-.38c.2-.3.39-.61.56-.92.27-.49.52-1,.74-1.5.07-.17.14-.32.2-.49h0c.06-.16.12-.32.17-.49s.11-.33.15-.49a8.9,8.9,0,0,0,.24-1c.07-.33.12-.65.16-1a.37.37,0,0,0,0-.11c0-.14,0-.28,0-.41v0C182.67,376.63,182.67,376.49,182.68,376.36Z"/><path class="cls-26" d="M182.68,376.36l-.06,20.75v.31c0,.1,0,.18,0,.27s0,.27,0,.4,0,.32,0,.49,0,.23-.05.37a3.7,3.7,0,0,0-.07.38.38.38,0,0,1,0,.1v0a9.48,9.48,0,0,1-.24,1,2.46,2.46,0,0,1-.09.29L182,401l-.16.45c0,.09-.08.2-.12.29s-.06.15-.08.22c-.14.31-.29.63-.44.94s-.19.36-.3.54h0c-.18.31-.36.61-.56.92a4.28,4.28,0,0,0-.26.38l-.34.46a2.6,2.6,0,0,1-.26.32.62.62,0,0,1-.08.12c-.12.16-.24.31-.37.46l-.39.44-.37.39c-.29.31-.6.61-.92.91l-.05,0a26,26,0,0,1-3.65,2.81l-.5.31c-.11.05-.2.13-.31.19l-.43.25-.74.41c-.16.1-.32.18-.49.27-.69.37-1.4.71-2.13,1a4.11,4.11,0,0,1-.57.25c-.57.27-1.17.49-1.77.72-.32.13-.64.25-1,.36l-1,.34c-.52.18-1.07.35-1.61.5l-.82.23-.84.21c-.56.13-1.12.27-1.68.38l-.84.18-.86.17h0l-1.08.18-1.12.18-1,.12c-.42.06-.84.1-1.27.14h-.09c-.3,0-.59.05-.88.09l-2,.13-.89,0h0l-1,0h-1.9c-.22,0-.45,0-.66,0-1.17,0-2.33-.09-3.48-.17h-.05l-1.67-.17h0c-.56-.07-1.12-.14-1.68-.23-.3,0-.6-.08-.89-.12l-.88-.15-1.08-.2c-.22,0-.43-.09-.65-.12-.94-.21-1.86-.42-2.76-.66l-.91-.25h0c-.36-.1-.72-.2-1.06-.31l-1.08-.35-1.06-.38c-.28-.09-.57-.2-.84-.31l-.21-.08-.12-.05-.14-.06-1-.43h0c-.43-.19-.84-.37-1.24-.57l-.1,0-1.08-.55a2.29,2.29,0,0,1-.27-.14l-1.07-.58L122,411c-6.51-3.94-9.76-9-9.75-14.13l.06-21.1c0,5.05,3.23,10.12,9.69,14,.23.16.47.29.71.43.59.34,1.2.68,1.82,1l.54.26.38.18.63.29c.55.25,1.12.48,1.7.71l.21.08c.27.11.56.22.83.31s.7.27,1.06.39l.67.21c.23.08.45.16.69.22l.81.23c1.19.35,2.42.65,3.67.91l.59.11.47.09.81.16.83.13c.26,0,.52.08.78.12l1.72.21,1.6.16h.12c.25,0,.51,0,.76.06.61,0,1.22.07,1.84.09l.85,0h2.59l1,0h0l.91,0c.67,0,1.35-.07,2-.13l.87-.08a.16.16,0,0,0,.09,0c.41,0,.81-.08,1.21-.13s.71-.08,1.06-.13l1.32-.2.9-.16.85-.16.66-.13c.5-.1,1-.22,1.48-.34.18,0,.37-.08.56-.13.52-.13,1.05-.27,1.56-.43s1-.3,1.54-.46h0c.28-.1.55-.18.82-.29s.43-.14.65-.23.49-.17.74-.27c.52-.19,1-.41,1.56-.63l.57-.26c.73-.33,1.44-.67,2.13-1,.17-.08.34-.17.49-.26s.5-.28.74-.42.29-.17.44-.25a28.62,28.62,0,0,0,2.94-2c.17-.14.35-.27.52-.42.35-.28.67-.57,1-.86,0,0,0,0,0-.05.18-.16.36-.32.52-.49a20.5,20.5,0,0,0,1.61-1.81c.22-.26.42-.54.6-.8s.18-.25.26-.38c.2-.3.39-.61.56-.92.27-.49.52-1,.74-1.5.07-.17.14-.32.2-.49h0c.06-.16.12-.32.17-.49s.11-.33.15-.49a8.9,8.9,0,0,0,.24-1c.07-.33.12-.65.16-1a.37.37,0,0,0,0-.11c0-.14,0-.28,0-.41v0C182.67,376.63,182.67,376.49,182.68,376.36Z"/><ellipse class="cls-23" cx="147.49" cy="375.87" rx="20.38" ry="35.19" transform="translate(-228.79 522.3) rotate(-89.84)"/><path class="cls-25" d="M136.3,395.17v21.16c-.22,0-.43-.09-.65-.12-.94-.21-1.86-.42-2.76-.66l-.91-.25h0c-.36-.1-.72-.2-1.06-.31l-1.08-.35-1.06-.38c-.28-.09-.57-.2-.84-.31l-.21-.08-.12-.05-.14-.06-1-.43h0c-.43-.19-.84-.37-1.24-.57l-.1,0-1.08-.55a2.29,2.29,0,0,1-.27-.14l-1.07-.58L122,411V389.85c.23.16.47.29.71.43.59.34,1.2.68,1.82,1l.54.26.38.18.63.29c.55.25,1.12.48,1.7.71l.21.08c.27.11.56.22.83.31s.7.27,1.06.39l.67.21c.23.08.45.16.69.22l.81.23c1.19.35,2.42.65,3.67.91Z"/><path class="cls-25" d="M149.66,396.22v21.14h0l-1,0h-1.9c-.22,0-.45,0-.66,0-1.17,0-2.33-.09-3.48-.17h-.05V396h.12c.25,0,.51,0,.76.06.61,0,1.22.07,1.84.09l.85,0h2.59Z"/><path class="cls-23" d="M182.68,334.82l-.06,20.77v.3c0,.09,0,.18,0,.27s0,.26,0,.4,0,.32,0,.48,0,.24-.05.37,0,.27-.07.39a.38.38,0,0,1,0,.1v0a8.24,8.24,0,0,1-.24,1,2.13,2.13,0,0,1-.09.3l-.07.25c0,.15-.11.3-.16.44s-.08.21-.12.3-.06.14-.08.22c-.14.31-.29.63-.44.94s-.19.36-.3.53v0c-.18.31-.36.62-.56.91l-.26.39-.34.46a3.75,3.75,0,0,1-.26.33l-.08.12c-.12.15-.24.3-.37.44l-.39.45-.37.39c-.29.31-.6.61-.92.9,0,0,0,0-.05,0a25.2,25.2,0,0,1-3.65,2.8,5.19,5.19,0,0,1-.5.31,1.73,1.73,0,0,1-.31.19,4.41,4.41,0,0,1-.43.25c-.24.15-.49.29-.74.42a4.59,4.59,0,0,1-.49.26c-.69.37-1.4.72-2.13,1a5.86,5.86,0,0,1-.57.26c-.57.25-1.17.49-1.77.71-.32.13-.64.25-1,.35s-.68.24-1,.35c-.52.18-1.07.35-1.61.5l-.82.23-.84.21c-.56.15-1.12.26-1.68.38-.28.08-.57.12-.84.18L158,375h0l-1.08.18-1.12.18-1,.13-1.27.13h-.09l-.88.08-2,.14-.89,0h0l-1,0h-1.9c-.22,0-.45,0-.66,0q-1.75,0-3.48-.18h-.05c-.56,0-1.11-.1-1.67-.16h0l-1.68-.22-.89-.13-.88-.14c-.36-.07-.73-.13-1.08-.22l-.65-.11q-1.41-.3-2.76-.66l-.91-.25h0l-1.06-.31-1.08-.35-1.06-.38c-.28-.1-.57-.2-.84-.31l-.21-.08-.12-.05-.14-.06-1-.43h0c-.43-.18-.84-.37-1.24-.57,0,0-.07,0-.1,0l-1.08-.54-.27-.15c-.36-.19-.71-.38-1.07-.59s-.42-.25-.63-.38c-6.51-3.94-9.76-9-9.75-14.12l.06-21.11c0,5.05,3.23,10.12,9.69,14,.23.15.47.29.71.43.59.34,1.2.68,1.82,1l.54.26.38.18c.2.09.41.2.63.28.55.25,1.12.49,1.7.73l.21.07.83.33c.35.11.7.25,1.06.36s.44.16.67.22.45.15.69.21l.81.25c1.19.34,2.42.64,3.67.9.21,0,.4.08.59.12l.47.09.81.15.83.13.78.12,1.72.21c.53.07,1.05.11,1.6.16h.12c.25,0,.51,0,.76.06.61,0,1.22.07,1.84.09l.85,0h2.59l1,0h0l.91,0c.67,0,1.35-.07,2-.13l.87-.09h.09c.41,0,.81-.08,1.21-.14s.71-.08,1.06-.13l1.32-.2.9-.16.85-.16.66-.12,1.48-.35.56-.13c.52-.13,1.05-.27,1.56-.42l1.54-.47h0l.82-.28.65-.24a7.34,7.34,0,0,0,.74-.27c.52-.19,1-.41,1.56-.63l.57-.27c.73-.32,1.44-.66,2.13-1,.17-.09.34-.17.49-.26l.74-.42.44-.25a30.3,30.3,0,0,0,2.94-2l.52-.41c.35-.29.67-.58,1-.87,0,0,0,0,0-.05.18-.16.36-.32.52-.49a21.94,21.94,0,0,0,1.61-1.8c.22-.27.42-.55.6-.81s.18-.25.26-.38c.2-.3.39-.61.56-.92.27-.49.52-1,.74-1.49.07-.17.14-.33.2-.5h0c.06-.16.12-.33.17-.49a4.58,4.58,0,0,0,.15-.49,8.9,8.9,0,0,0,.24-1c.07-.32.12-.66.16-1a.41.41,0,0,0,0-.11c0-.14,0-.27,0-.41v0C182.67,335.1,182.67,335,182.68,334.82Z"/><path class="cls-27" d="M182.68,334.82l-.06,20.77v.3c0,.09,0,.18,0,.27s0,.26,0,.4,0,.32,0,.48,0,.24-.05.37,0,.27-.07.39a.38.38,0,0,1,0,.1v0a8.24,8.24,0,0,1-.24,1,2.13,2.13,0,0,1-.09.3l-.07.25c0,.15-.11.3-.16.44s-.08.21-.12.3-.06.14-.08.22c-.14.31-.29.63-.44.94s-.19.36-.3.53v0c-.18.31-.36.62-.56.91l-.26.39-.34.46a3.75,3.75,0,0,1-.26.33l-.08.12c-.12.15-.24.3-.37.44l-.39.45-.37.39c-.29.31-.6.61-.92.9,0,0,0,0-.05,0a25.2,25.2,0,0,1-3.65,2.8,5.19,5.19,0,0,1-.5.31,1.73,1.73,0,0,1-.31.19,4.41,4.41,0,0,1-.43.25c-.24.15-.49.29-.74.42a4.59,4.59,0,0,1-.49.26c-.69.37-1.4.72-2.13,1a5.86,5.86,0,0,1-.57.26c-.57.25-1.17.49-1.77.71-.32.13-.64.25-1,.35s-.68.24-1,.35c-.52.18-1.07.35-1.61.5l-.82.23-.84.21c-.56.15-1.12.26-1.68.38-.28.08-.57.12-.84.18L158,375h0l-1.08.18-1.12.18-1,.13-1.27.13h-.09l-.88.08-2,.14-.89,0h0l-1,0h-1.9c-.22,0-.45,0-.66,0q-1.75,0-3.48-.18h-.05c-.56,0-1.11-.1-1.67-.16h0l-1.68-.22-.89-.13-.88-.14c-.36-.07-.73-.13-1.08-.22l-.65-.11q-1.41-.3-2.76-.66l-.91-.25h0l-1.06-.31-1.08-.35-1.06-.38c-.28-.1-.57-.2-.84-.31l-.21-.08-.12-.05-.14-.06-1-.43h0c-.43-.18-.84-.37-1.24-.57,0,0-.07,0-.1,0l-1.08-.54-.27-.15c-.36-.19-.71-.38-1.07-.59s-.42-.25-.63-.38c-6.51-3.94-9.76-9-9.75-14.12l.06-21.11c0,5.05,3.23,10.12,9.69,14,.23.15.47.29.71.43.59.34,1.2.68,1.82,1l.54.26.38.18c.2.09.41.2.63.28.55.25,1.12.49,1.7.73l.21.07.83.33c.35.11.7.25,1.06.36s.44.16.67.22.45.15.69.21l.81.25c1.19.34,2.42.64,3.67.9.21,0,.4.08.59.12l.47.09.81.15.83.13.78.12,1.72.21c.53.07,1.05.11,1.6.16h.12c.25,0,.51,0,.76.06.61,0,1.22.07,1.84.09l.85,0h2.59l1,0h0l.91,0c.67,0,1.35-.07,2-.13l.87-.09h.09c.41,0,.81-.08,1.21-.14s.71-.08,1.06-.13l1.32-.2.9-.16.85-.16.66-.12,1.48-.35.56-.13c.52-.13,1.05-.27,1.56-.42l1.54-.47h0l.82-.28.65-.24a7.34,7.34,0,0,0,.74-.27c.52-.19,1-.41,1.56-.63l.57-.27c.73-.32,1.44-.66,2.13-1,.17-.09.34-.17.49-.26l.74-.42.44-.25a30.3,30.3,0,0,0,2.94-2l.52-.41c.35-.29.67-.58,1-.87,0,0,0,0,0-.05.18-.16.36-.32.52-.49a21.94,21.94,0,0,0,1.61-1.8c.22-.27.42-.55.6-.81s.18-.25.26-.38c.2-.3.39-.61.56-.92.27-.49.52-1,.74-1.49.07-.17.14-.33.2-.5h0c.06-.16.12-.33.17-.49a4.58,4.58,0,0,0,.15-.49,8.9,8.9,0,0,0,.24-1c.07-.32.12-.66.16-1a.41.41,0,0,0,0-.11c0-.14,0-.27,0-.41v0C182.67,335.1,182.67,335,182.68,334.82Z"/><ellipse class="cls-23" cx="147.49" cy="334.34" rx="20.38" ry="35.19" transform="translate(-187.26 480.88) rotate(-89.84)"/><path class="cls-25" d="M136.3,353.65v21.14l-.65-.11q-1.41-.3-2.76-.66l-.91-.25h0l-1.06-.31-1.08-.35-1.06-.38c-.28-.1-.57-.2-.84-.31l-.21-.08-.12-.05-.14-.06-1-.43h0c-.43-.18-.84-.37-1.24-.57,0,0-.07,0-.1,0l-1.08-.54-.27-.15c-.36-.19-.71-.38-1.07-.59s-.42-.25-.63-.38V348.32c.23.15.47.29.71.43.59.34,1.2.68,1.82,1l.54.26.38.18c.2.09.41.2.63.28.55.25,1.12.49,1.7.73l.21.07.83.33c.35.11.7.25,1.06.36s.44.16.67.22.45.15.69.21l.81.25c1.19.34,2.42.64,3.67.9C135.92,353.56,136.11,353.61,136.3,353.65Z"/><path class="cls-25" d="M149.66,354.68v21.15h0l-1,0h-1.9c-.22,0-.45,0-.66,0q-1.75,0-3.48-.18h-.05V354.51h.12c.25,0,.51,0,.76.06.61,0,1.22.07,1.84.09l.85,0h2.59Z"/><path class="cls-23" d="M182.68,293.22,182.62,314v.31c0,.09,0,.18,0,.27l0,.4c0,.16,0,.32,0,.47s0,.25-.05.37l-.07.4a.38.38,0,0,1,0,.1h0a8.9,8.9,0,0,1-.24,1,2.63,2.63,0,0,1-.09.3l-.07.25c0,.15-.11.3-.16.44a2.68,2.68,0,0,0-.12.3c0,.07-.06.14-.08.2-.14.33-.29.65-.44,1s-.19.35-.3.53-.36.62-.56.93a3.3,3.3,0,0,0-.26.39l-.34.45a3.75,3.75,0,0,1-.26.33.62.62,0,0,1-.08.12c-.12.16-.24.3-.37.45l-.39.44c-.12.14-.24.27-.37.4-.29.3-.6.61-.92.9,0,0,0,0-.05,0h0a25.17,25.17,0,0,1-3.65,2.79l-.5.32-.31.19a4.41,4.41,0,0,1-.43.25c-.24.15-.49.28-.74.42a4.59,4.59,0,0,1-.49.26c-.69.37-1.4.72-2.13,1l-.57.25c-.57.26-1.17.49-1.77.72l-1,.35c-.35.12-.68.24-1,.35-.52.18-1.07.33-1.61.49-.27.08-.55.15-.82.24l-.84.2-1.68.39-.84.18-.86.16h0l-1.08.18c-.38.06-.75.12-1.12.16l-1,.14-1.27.14h-.09l-.88.07c-.67.06-1.34.11-2,.14l-.89,0h0l-1,0-1,0-.91,0H146c-1.17,0-2.33-.09-3.48-.19h-.05c-.56-.05-1.11-.09-1.67-.17h0c-.56-.05-1.12-.13-1.68-.21l-.89-.13-.88-.14c-.36-.06-.73-.13-1.08-.21s-.43-.08-.65-.12c-.94-.2-1.86-.41-2.76-.65l-.91-.25h0l-1.06-.31-1.08-.36-1.06-.37c-.28-.11-.57-.2-.84-.31a.76.76,0,0,0-.21-.08l-.12-.05a.59.59,0,0,0-.14-.06c-.36-.14-.7-.29-1-.44h0c-.43-.18-.84-.36-1.24-.56l-.1,0L124,329l-.27-.14-1.07-.59c-.21-.11-.42-.25-.63-.38-6.51-3.94-9.76-9-9.75-14.13l.06-21.12c0,5.07,3.23,10.14,9.69,14.06.23.15.47.28.71.43.59.34,1.2.68,1.82,1,.18.08.36.18.54.25s.25.13.38.19l.63.28c.55.25,1.12.49,1.7.72l.21.08c.27.11.56.22.83.31l1.06.38.67.22.69.21.81.24c1.19.35,2.42.65,3.67.91.21,0,.4.08.59.1a3.94,3.94,0,0,0,.47.1,7.62,7.62,0,0,0,.81.14l.83.15c.26,0,.52.08.78.12l1.72.21c.53.06,1.05.11,1.6.15l.12,0c.25,0,.51,0,.76.06.61,0,1.22.07,1.84.09l.85,0h2.59c.32,0,.66,0,1,0h0l.91,0,2-.13c.28,0,.57-.06.87-.09h.09c.41,0,.81-.08,1.21-.13s.71-.1,1.06-.13l1.32-.2.9-.17.85-.16a6.42,6.42,0,0,0,.66-.13c.5-.1,1-.21,1.48-.33a5.07,5.07,0,0,1,.56-.13c.52-.13,1.05-.28,1.56-.43s1-.3,1.54-.47h0l.82-.28c.22-.07.43-.14.65-.23s.49-.18.74-.27c.52-.2,1-.41,1.56-.65a4.7,4.7,0,0,0,.57-.25c.73-.32,1.44-.66,2.13-1,.17-.09.34-.17.49-.27l.74-.41.44-.25a30.3,30.3,0,0,0,2.94-2l.52-.43c.35-.27.67-.57,1-.86l0,0c.18-.16.36-.32.52-.49a20.5,20.5,0,0,0,1.61-1.81q.33-.4.6-.81l.26-.37c.2-.31.39-.61.56-.92.27-.49.52-1,.74-1.5l.2-.5c.06-.17.12-.33.17-.49s.11-.34.15-.5a9.31,9.31,0,0,0,.24-1c.07-.33.12-.66.16-1a.49.49,0,0,0,0-.12c0-.13,0-.27,0-.41v0C182.67,293.5,182.67,293.37,182.68,293.22Z"/><path class="cls-28" d="M182.68,293.22,182.62,314v.31c0,.09,0,.18,0,.27l0,.4c0,.16,0,.32,0,.47s0,.25-.05.37l-.07.4a.38.38,0,0,1,0,.1h0a8.9,8.9,0,0,1-.24,1,2.63,2.63,0,0,1-.09.3l-.07.25c0,.15-.11.3-.16.44a2.68,2.68,0,0,0-.12.3c0,.07-.06.14-.08.2-.14.33-.29.65-.44,1s-.19.35-.3.53-.36.62-.56.93a3.3,3.3,0,0,0-.26.39l-.34.45a3.75,3.75,0,0,1-.26.33.62.62,0,0,1-.08.12c-.12.16-.24.3-.37.45l-.39.44c-.12.14-.24.27-.37.4-.29.3-.6.61-.92.9,0,0,0,0-.05,0h0a25.17,25.17,0,0,1-3.65,2.79l-.5.32-.31.19a4.41,4.41,0,0,1-.43.25c-.24.15-.49.28-.74.42a4.59,4.59,0,0,1-.49.26c-.69.37-1.4.72-2.13,1l-.57.25c-.57.26-1.17.49-1.77.72l-1,.35c-.35.12-.68.24-1,.35-.52.18-1.07.33-1.61.49-.27.08-.55.15-.82.24l-.84.2-1.68.39-.84.18-.86.16h0l-1.08.18c-.38.06-.75.12-1.12.16l-1,.14-1.27.14h-.09l-.88.07c-.67.06-1.34.11-2,.14l-.89,0h0l-1,0-1,0-.91,0H146c-1.17,0-2.33-.09-3.48-.19h-.05c-.56-.05-1.11-.09-1.67-.17h0c-.56-.05-1.12-.13-1.68-.21l-.89-.13-.88-.14c-.36-.06-.73-.13-1.08-.21s-.43-.08-.65-.12c-.94-.2-1.86-.41-2.76-.65l-.91-.25h0l-1.06-.31-1.08-.36-1.06-.37c-.28-.11-.57-.2-.84-.31a.76.76,0,0,0-.21-.08l-.12-.05a.59.59,0,0,0-.14-.06c-.36-.14-.7-.29-1-.44h0c-.43-.18-.84-.36-1.24-.56l-.1,0L124,329l-.27-.14-1.07-.59c-.21-.11-.42-.25-.63-.38-6.51-3.94-9.76-9-9.75-14.13l.06-21.12c0,5.07,3.23,10.14,9.69,14.06.23.15.47.28.71.43.59.34,1.2.68,1.82,1,.18.08.36.18.54.25s.25.13.38.19l.63.28c.55.25,1.12.49,1.7.72l.21.08c.27.11.56.22.83.31l1.06.38.67.22.69.21.81.24c1.19.35,2.42.65,3.67.91.21,0,.4.08.59.1a3.94,3.94,0,0,0,.47.1,7.62,7.62,0,0,0,.81.14l.83.15c.26,0,.52.08.78.12l1.72.21c.53.06,1.05.11,1.6.15l.12,0c.25,0,.51,0,.76.06.61,0,1.22.07,1.84.09l.85,0h2.59c.32,0,.66,0,1,0h0l.91,0,2-.13c.28,0,.57-.06.87-.09h.09c.41,0,.81-.08,1.21-.13s.71-.1,1.06-.13l1.32-.2.9-.17.85-.16a6.42,6.42,0,0,0,.66-.13c.5-.1,1-.21,1.48-.33a5.07,5.07,0,0,1,.56-.13c.52-.13,1.05-.28,1.56-.43s1-.3,1.54-.47h0l.82-.28c.22-.07.43-.14.65-.23s.49-.18.74-.27c.52-.2,1-.41,1.56-.65a4.7,4.7,0,0,0,.57-.25c.73-.32,1.44-.66,2.13-1,.17-.09.34-.17.49-.27l.74-.41.44-.25a30.3,30.3,0,0,0,2.94-2l.52-.43c.35-.27.67-.57,1-.86l0,0c.18-.16.36-.32.52-.49a20.5,20.5,0,0,0,1.61-1.81q.33-.4.6-.81l.26-.37c.2-.31.39-.61.56-.92.27-.49.52-1,.74-1.5l.2-.5c.06-.17.12-.33.17-.49s.11-.34.15-.5a9.31,9.31,0,0,0,.24-1c.07-.33.12-.66.16-1a.49.49,0,0,0,0-.12c0-.13,0-.27,0-.41v0C182.67,293.5,182.67,293.37,182.68,293.22Z"/><ellipse class="cls-23" cx="147.49" cy="292.74" rx="20.38" ry="35.19" transform="translate(-145.67 439.41) rotate(-89.84)"/><path class="cls-25" d="M136.3,312V333.2c-.22,0-.43-.08-.65-.12-.94-.2-1.86-.41-2.76-.65l-.91-.25h0l-1.06-.31-1.08-.36-1.06-.37c-.28-.11-.57-.2-.84-.31a.76.76,0,0,0-.21-.08l-.12-.05a.59.59,0,0,0-.14-.06c-.36-.14-.7-.29-1-.44h0c-.43-.18-.84-.36-1.24-.56l-.1,0L124,329l-.27-.14-1.07-.59c-.21-.11-.42-.25-.63-.38V306.73c.23.15.47.28.71.43.59.34,1.2.68,1.82,1,.18.08.36.18.54.25s.25.13.38.19l.63.28c.55.25,1.12.49,1.7.72l.21.08c.27.11.56.22.83.31l1.06.38.67.22.69.21.81.24c1.19.35,2.42.65,3.67.91C135.92,312,136.11,312,136.3,312Z"/><path class="cls-25" d="M149.66,313.09v21.15h0l-1,0-1,0-.91,0H146c-1.17,0-2.33-.09-3.48-.19h-.05V312.91l.12,0c.25,0,.51,0,.76.06.61,0,1.22.07,1.84.09l.85,0h2.59C149,313.12,149.33,313.11,149.66,313.09Z"/><path class="cls-29" d="M70.28,411.66V203.56H0V413.47H.06v0L0,434.6c0,5.24,3.45,10.51,10.38,14.51l1.06.59a2.34,2.34,0,0,1,.27.15l1.09.54a.23.23,0,0,0,.1,0c.4.2.82.38,1.23.56h0c.34.16.69.3,1,.43l.15.06a.39.39,0,0,0,.13.06l.19.08.85.32c.35.12.69.25,1.06.36s.72.25,1.08.35l1,.32h0l.91.25c.91.24,1.83.46,2.76.65.59.11,1.17.23,1.74.32l.87.16.89.12,1.69.22h0c.57.06,1.14.13,1.72.17,1.14.1,2.31.15,3.46.18h.68l.91,0,1,0,1,0c.31,0,.61,0,.93,0,.67,0,1.34-.08,2-.14l.88-.08h.11c.42,0,.83-.1,1.27-.16l1-.12,1.13-.17,1.08-.18h0c.29,0,.58-.1.86-.16s.57-.11.84-.18c.57-.11,1.13-.25,1.69-.38l.83-.21c.28-.07.56-.16.82-.24.56-.15,1.08-.31,1.63-.49l1-.34c.34-.11.66-.24,1-.36.59-.23,1.19-.46,1.76-.71l.59-.25c.72-.32,1.43-.67,2.12-1a3.8,3.8,0,0,0,.49-.26l.75-.42.43-.25.29-.19.5-.31a26,26,0,0,0,3.66-2.8.12.12,0,0,1,0-.05c.32-.29.63-.59.92-.9.12-.14.25-.26.36-.4s.26-.29.39-.43.25-.31.38-.45l.08-.12a3.85,3.85,0,0,0,.26-.34l.34-.46a4.17,4.17,0,0,1,.26-.37c.19-.31.39-.61.56-.93s.2-.36.29-.54.3-.63.44-.95l.09-.21c0-.09.08-.21.11-.3a3.75,3.75,0,0,0,.16-.43,1.36,1.36,0,0,0,.07-.25,2.81,2.81,0,0,0,.1-.31c.1-.32.18-.65.25-1h0s0-.07,0-.1,0-.26.07-.39,0-.25.06-.37,0-.32,0-.49a2.47,2.47,0,0,0,0-.39,2.44,2.44,0,0,0,0-.27v-.31l.07-21.14A12.35,12.35,0,0,0,70.28,411.66Z"/><path class="cls-23" d="M70.44,414l-.06,20.76v.3c0,.1,0,.19,0,.29s0,.25,0,.38,0,.33,0,.49,0,.25-.05.37l-.07.39s0,.06,0,.1h0a8.4,8.4,0,0,1-.24,1c0,.11-.06.2-.09.31a1.68,1.68,0,0,0-.07.24c0,.15-.11.29-.16.44s-.08.2-.12.3-.06.14-.08.21c-.14.32-.29.63-.44.94s-.19.36-.3.55-.36.62-.56.92a4.4,4.4,0,0,0-.26.39l-.34.45a3.85,3.85,0,0,1-.26.34.62.62,0,0,0-.08.12c-.12.14-.24.3-.37.44l-.39.44c-.12.14-.24.26-.37.39-.29.31-.6.62-.92.91l0,.05a24.51,24.51,0,0,1-3.65,2.8c-.16.11-.33.21-.5.31l-.31.19a4.41,4.41,0,0,1-.43.25c-.24.14-.49.29-.74.42a4.59,4.59,0,0,1-.49.26c-.69.37-1.4.73-2.13,1l-.57.25c-.57.25-1.17.49-1.77.7l-1,.37-1,.35-1.61.49-.82.22-.84.22-1.68.39-.84.17c-.29.06-.58.12-.86.16h0c-.36.08-.72.13-1.08.19l-1.12.17-1,.13-1.27.15H41.2l-.88.08-2,.13-.89,0h0l-1,0H33.8c-1.17,0-2.33-.1-3.48-.19h-.05l-1.67-.17h0l-1.68-.21-.89-.13-.88-.15L24.06,454l-.65-.12c-.94-.19-1.86-.42-2.76-.66l-.91-.23s0,0,0,0l-1.06-.32-1.08-.34L16.51,452l-.84-.33-.21-.07h0a.38.38,0,0,1-.12-.05l-.14-.06c-.36-.13-.7-.27-1-.43h0c-.43-.18-.83-.37-1.24-.56l-.1-.05c-.37-.17-.72-.35-1.08-.53l-.27-.16c-.36-.18-.71-.38-1.07-.58l-.63-.38C3.24,444.79,0,439.68,0,434.6l.06-21.11c0,5.07,3.23,10.13,9.69,14.05.23.16.47.29.71.43.59.34,1.2.67,1.82,1,.18.1.36.18.54.26s.25.13.38.18a6.09,6.09,0,0,0,.63.3c.55.25,1.12.49,1.7.72l.21.07.83.32,1.06.37c.23.08.44.15.67.21s.45.16.69.23.54.15.81.24c1.19.33,2.42.64,3.67.89l.59.12.47.1.81.14c.28,0,.55.1.83.13l.78.12c.58.08,1.15.16,1.72.21s1,.11,1.6.17h.12l.76.05c.61,0,1.22.07,1.84.11l.85,0h.68l.91,0,1,0,1,0h0c.29,0,.6,0,.91,0,.67,0,1.35-.07,2-.13l.87-.07h.09l1.21-.14,1.06-.14,1.32-.2c.3-.05.61-.09.9-.15l.85-.16.66-.13,1.48-.35c.18,0,.37-.08.56-.13l1.56-.41c.51-.15,1-.3,1.54-.47h0c.28-.08.55-.18.82-.27l.65-.23c.25-.08.49-.18.74-.28.52-.2,1.05-.41,1.56-.64.19-.08.38-.15.57-.25.73-.32,1.44-.67,2.13-1,.17-.08.34-.18.49-.27l.74-.41c.16-.08.29-.17.44-.26a30.25,30.25,0,0,0,2.94-2l.52-.42c.35-.29.67-.57,1-.86,0,0,0,0,.05-.05.18-.16.36-.33.52-.5a19.08,19.08,0,0,0,1.61-1.8,8.9,8.9,0,0,0,.6-.81l.26-.37c.2-.31.39-.62.56-.91.27-.51.52-1,.74-1.51.07-.16.14-.33.2-.5s.12-.33.17-.5A4.58,4.58,0,0,0,70,417a9.14,9.14,0,0,0,.24-1c.07-.34.12-.67.16-1a.57.57,0,0,0,0-.12c0-.13,0-.28,0-.42v0C70.43,414.31,70.43,414.17,70.44,414Z"/><path class="cls-30" d="M70.44,414l-.06,20.76v.3c0,.1,0,.19,0,.29s0,.25,0,.38,0,.33,0,.49,0,.25-.05.37l-.07.39s0,.06,0,.1h0a8.4,8.4,0,0,1-.24,1c0,.11-.06.2-.09.31a1.68,1.68,0,0,0-.07.24c0,.15-.11.29-.16.44s-.08.2-.12.3-.06.14-.08.21c-.14.32-.29.63-.44.94s-.19.36-.3.55-.36.62-.56.92a4.4,4.4,0,0,0-.26.39l-.34.45a3.85,3.85,0,0,1-.26.34.62.62,0,0,0-.08.12c-.12.14-.24.3-.37.44l-.39.44c-.12.14-.24.26-.37.39-.29.31-.6.62-.92.91l0,.05a24.51,24.51,0,0,1-3.65,2.8c-.16.11-.33.21-.5.31l-.31.19a4.41,4.41,0,0,1-.43.25c-.24.14-.49.29-.74.42a4.59,4.59,0,0,1-.49.26c-.69.37-1.4.73-2.13,1l-.57.25c-.57.25-1.17.49-1.77.7l-1,.37-1,.35-1.61.49-.82.22-.84.22-1.68.39-.84.17c-.29.06-.58.12-.86.16h0c-.36.08-.72.13-1.08.19l-1.12.17-1,.13-1.27.15H41.2l-.88.08-2,.13-.89,0h0l-1,0H33.8c-1.17,0-2.33-.1-3.48-.19h-.05l-1.67-.17h0l-1.68-.21-.89-.13-.88-.15L24.06,454l-.65-.12c-.94-.19-1.86-.42-2.76-.66l-.91-.23s0,0,0,0l-1.06-.32-1.08-.34L16.51,452l-.84-.33-.21-.07h0a.38.38,0,0,1-.12-.05l-.14-.06c-.36-.13-.7-.27-1-.43h0c-.43-.18-.83-.37-1.24-.56l-.1-.05c-.37-.17-.72-.35-1.08-.53l-.27-.16c-.36-.18-.71-.38-1.07-.58l-.63-.38C3.24,444.79,0,439.68,0,434.6l.06-21.11c0,5.07,3.23,10.13,9.69,14.05.23.16.47.29.71.43.59.34,1.2.67,1.82,1,.18.1.36.18.54.26s.25.13.38.18a6.09,6.09,0,0,0,.63.3c.55.25,1.12.49,1.7.72l.21.07.83.32,1.06.37c.23.08.44.15.67.21s.45.16.69.23.54.15.81.24c1.19.33,2.42.64,3.67.89l.59.12.47.1.81.14c.28,0,.55.1.83.13l.78.12c.58.08,1.15.16,1.72.21s1,.11,1.6.17h.12l.76.05c.61,0,1.22.07,1.84.11l.85,0h.68l.91,0,1,0,1,0h0c.29,0,.6,0,.91,0,.67,0,1.35-.07,2-.13l.87-.07h.09l1.21-.14,1.06-.14,1.32-.2c.3-.05.61-.09.9-.15l.85-.16.66-.13,1.48-.35c.18,0,.37-.08.56-.13l1.56-.41c.51-.15,1-.3,1.54-.47h0c.28-.08.55-.18.82-.27l.65-.23c.25-.08.49-.18.74-.28.52-.2,1.05-.41,1.56-.64.19-.08.38-.15.57-.25.73-.32,1.44-.67,2.13-1,.17-.08.34-.18.49-.27l.74-.41c.16-.08.29-.17.44-.26a30.25,30.25,0,0,0,2.94-2l.52-.42c.35-.29.67-.57,1-.86,0,0,0,0,.05-.05.18-.16.36-.33.52-.5a19.08,19.08,0,0,0,1.61-1.8,8.9,8.9,0,0,0,.6-.81l.26-.37c.2-.31.39-.62.56-.91.27-.51.52-1,.74-1.51.07-.16.14-.33.2-.5s.12-.33.17-.5A4.58,4.58,0,0,0,70,417a9.14,9.14,0,0,0,.24-1c.07-.34.12-.67.16-1a.57.57,0,0,0,0-.12c0-.13,0-.28,0-.42v0C70.43,414.31,70.43,414.17,70.44,414Z"/><ellipse class="cls-23" cx="35.25" cy="413.56" rx="20.38" ry="35.19" transform="translate(-378.4 447.64) rotate(-89.84)"/><path class="cls-25" d="M24.06,432.86V454l-.65-.12c-.94-.19-1.86-.42-2.76-.66l-.91-.23s0,0,0,0l-1.06-.32-1.08-.34L16.51,452l-.84-.33-.21-.07h0a.38.38,0,0,1-.12-.05l-.14-.06c-.36-.13-.7-.27-1-.43h0c-.43-.18-.83-.37-1.24-.56l-.1-.05c-.37-.17-.72-.35-1.08-.53l-.27-.16c-.36-.18-.71-.38-1.07-.58l-.63-.38V427.54c.23.16.47.29.71.43.59.34,1.2.67,1.82,1,.18.1.36.18.54.26s.25.13.38.18a6.09,6.09,0,0,0,.63.3c.55.25,1.12.49,1.7.72l.21.07.83.32,1.06.37c.23.08.44.15.67.21s.45.16.69.23.54.15.81.24c1.19.33,2.42.64,3.67.89Z"/><path class="cls-25" d="M37.42,433.9v21.15h0l-1,0H33.8c-1.17,0-2.33-.1-3.48-.19h-.05V433.73h.12l.76.05c.61,0,1.22.07,1.84.11l.85,0h.68l.91,0,1,0Z"/><path class="cls-9" d="M33.68,455.06l.78,0h-.78Z"/><path class="cls-23" d="M70.44,372.45l-.06,20.75v.31c0,.1,0,.18,0,.28s0,.26,0,.39,0,.32,0,.49,0,.24-.05.37,0,.25-.07.38a.61.61,0,0,1,0,.11h0a9.48,9.48,0,0,1-.24,1c0,.1-.06.2-.09.3l-.07.25c0,.14-.11.29-.16.44a2.68,2.68,0,0,0-.12.3c0,.07-.06.14-.08.21-.14.31-.29.63-.44.94s-.19.36-.3.54h0c-.18.31-.36.61-.56.92a4.28,4.28,0,0,0-.26.38l-.34.46a3.75,3.75,0,0,1-.26.33,1,1,0,0,1-.08.11c-.12.16-.24.31-.37.46l-.39.44L66,403c-.29.31-.6.61-.92.91l0,.05a25.93,25.93,0,0,1-3.65,2.8l-.5.31-.31.19-.43.25-.74.42-.49.26c-.69.37-1.4.71-2.13,1-.18.09-.38.17-.57.25-.57.26-1.17.48-1.77.71-.32.13-.64.25-1,.36s-.68.24-1,.34c-.52.18-1.07.35-1.61.5l-.82.23-.84.22-1.68.38-.84.18-.86.16h0l-1.08.18-1.12.18-1,.12c-.42.06-.84.11-1.27.14H41.2c-.3,0-.59.05-.88.09l-2,.13-.89,0h0l-1,0h-1.9l-.66,0c-1.17,0-2.33-.1-3.48-.18h-.05l-1.67-.17h0c-.56-.07-1.12-.14-1.68-.23l-.89-.11-.88-.16-1.08-.2c-.22,0-.43-.09-.65-.12q-1.41-.3-2.76-.66l-.91-.25h0c-.36-.09-.72-.2-1.06-.31l-1.08-.34c-.36-.12-.71-.26-1.06-.39s-.57-.2-.84-.31l-.21-.08-.12-.05-.14-.06-1-.43h0c-.43-.19-.83-.37-1.24-.57l-.1,0c-.37-.17-.72-.35-1.08-.54l-.27-.15-1.07-.58-.63-.38C3.24,403.19,0,398.09,0,393l.06-21.1c0,5.05,3.23,10.12,9.69,14,.23.16.47.29.71.43.59.35,1.2.68,1.82,1l.54.26.38.18.63.29c.55.25,1.12.49,1.7.71l.21.09.83.31,1.06.38.67.21A5.54,5.54,0,0,0,19,390l.81.24c1.19.34,2.42.64,3.67.9l.59.11.47.09.81.16.83.13.78.12,1.72.21,1.6.16h.12l.76.06,1.84.1.85,0h2.59l1,0h0l.91,0c.67,0,1.35-.07,2-.13l.87-.08h.09l1.21-.14c.36,0,.71-.08,1.06-.13l1.32-.2.9-.15.85-.17.66-.13c.5-.1,1-.22,1.48-.34.18,0,.37-.08.56-.13.52-.13,1-.27,1.56-.43s1-.29,1.54-.46h0c.28-.1.55-.18.82-.29l.65-.22.74-.28c.52-.19,1.05-.4,1.56-.63l.57-.26c.73-.32,1.44-.67,2.13-1,.17-.08.34-.17.49-.26s.5-.28.74-.42.29-.17.44-.25a30.25,30.25,0,0,0,2.94-2l.52-.43c.35-.28.67-.56,1-.86,0,0,0,0,.05-.05a6,6,0,0,0,.52-.49,19.17,19.17,0,0,0,1.61-1.81c.22-.26.42-.54.6-.8s.18-.25.26-.38c.2-.3.39-.61.56-.92.27-.49.52-1,.74-1.5.07-.17.14-.32.2-.49h0c.06-.16.12-.32.17-.49s.11-.33.15-.49a8.4,8.4,0,0,0,.24-1c.07-.33.12-.65.16-1a.34.34,0,0,0,0-.1c0-.15,0-.29,0-.42v0C70.43,372.72,70.43,372.58,70.44,372.45Z"/><path class="cls-31" d="M70.44,372.45l-.06,20.75v.31c0,.1,0,.18,0,.28s0,.26,0,.39,0,.32,0,.49,0,.24-.05.37,0,.25-.07.38a.61.61,0,0,1,0,.11h0a9.48,9.48,0,0,1-.24,1c0,.1-.06.2-.09.3l-.07.25c0,.14-.11.29-.16.44a2.68,2.68,0,0,0-.12.3c0,.07-.06.14-.08.21-.14.31-.29.63-.44.94s-.19.36-.3.54h0c-.18.31-.36.61-.56.92a4.28,4.28,0,0,0-.26.38l-.34.46a3.75,3.75,0,0,1-.26.33,1,1,0,0,1-.08.11c-.12.16-.24.31-.37.46l-.39.44L66,403c-.29.31-.6.61-.92.91l0,.05a25.93,25.93,0,0,1-3.65,2.8l-.5.31-.31.19-.43.25-.74.42-.49.26c-.69.37-1.4.71-2.13,1-.18.09-.38.17-.57.25-.57.26-1.17.48-1.77.71-.32.13-.64.25-1,.36s-.68.24-1,.34c-.52.18-1.07.35-1.61.5l-.82.23-.84.22-1.68.38-.84.18-.86.16h0l-1.08.18-1.12.18-1,.12c-.42.06-.84.11-1.27.14H41.2c-.3,0-.59.05-.88.09l-2,.13-.89,0h0l-1,0h-1.9l-.66,0c-1.17,0-2.33-.1-3.48-.18h-.05l-1.67-.17h0c-.56-.07-1.12-.14-1.68-.23l-.89-.11-.88-.16-1.08-.2c-.22,0-.43-.09-.65-.12q-1.41-.3-2.76-.66l-.91-.25h0c-.36-.09-.72-.2-1.06-.31l-1.08-.34c-.36-.12-.71-.26-1.06-.39s-.57-.2-.84-.31l-.21-.08-.12-.05-.14-.06-1-.43h0c-.43-.19-.83-.37-1.24-.57l-.1,0c-.37-.17-.72-.35-1.08-.54l-.27-.15-1.07-.58-.63-.38C3.24,403.19,0,398.09,0,393l.06-21.1c0,5.05,3.23,10.12,9.69,14,.23.16.47.29.71.43.59.35,1.2.68,1.82,1l.54.26.38.18.63.29c.55.25,1.12.49,1.7.71l.21.09.83.31,1.06.38.67.21A5.54,5.54,0,0,0,19,390l.81.24c1.19.34,2.42.64,3.67.9l.59.11.47.09.81.16.83.13.78.12,1.72.21,1.6.16h.12l.76.06,1.84.1.85,0h2.59l1,0h0l.91,0c.67,0,1.35-.07,2-.13l.87-.08h.09l1.21-.14c.36,0,.71-.08,1.06-.13l1.32-.2.9-.15.85-.17.66-.13c.5-.1,1-.22,1.48-.34.18,0,.37-.08.56-.13.52-.13,1-.27,1.56-.43s1-.29,1.54-.46h0c.28-.1.55-.18.82-.29l.65-.22.74-.28c.52-.19,1.05-.4,1.56-.63l.57-.26c.73-.32,1.44-.67,2.13-1,.17-.08.34-.17.49-.26s.5-.28.74-.42.29-.17.44-.25a30.25,30.25,0,0,0,2.94-2l.52-.43c.35-.28.67-.56,1-.86,0,0,0,0,.05-.05a6,6,0,0,0,.52-.49,19.17,19.17,0,0,0,1.61-1.81c.22-.26.42-.54.6-.8s.18-.25.26-.38c.2-.3.39-.61.56-.92.27-.49.52-1,.74-1.5.07-.17.14-.32.2-.49h0c.06-.16.12-.32.17-.49s.11-.33.15-.49a8.4,8.4,0,0,0,.24-1c.07-.33.12-.65.16-1a.34.34,0,0,0,0-.1c0-.15,0-.29,0-.42v0C70.43,372.72,70.43,372.58,70.44,372.45Z"/><ellipse class="cls-23" cx="35.25" cy="371.96" rx="20.38" ry="35.19" transform="translate(-336.81 406.16) rotate(-89.84)"/><path class="cls-25" d="M24.06,391.26v21.16c-.22,0-.43-.09-.65-.12q-1.41-.3-2.76-.66l-.91-.25h0c-.36-.09-.72-.2-1.06-.31l-1.08-.34c-.36-.12-.71-.26-1.06-.39s-.57-.2-.84-.31l-.21-.08-.12-.05-.14-.06-1-.43h0c-.43-.19-.83-.37-1.24-.57l-.1,0c-.37-.17-.72-.35-1.08-.54l-.27-.15-1.07-.58-.63-.38v-21.2c.23.16.47.29.71.43.59.35,1.2.68,1.82,1l.54.26.38.18.63.29c.55.25,1.12.49,1.7.71l.21.09.83.31,1.06.38.67.21A5.54,5.54,0,0,0,19,390l.81.24c1.19.34,2.42.64,3.67.9Z"/><path class="cls-25" d="M37.42,392.31v21.14h0l-1,0h-1.9l-.66,0c-1.17,0-2.33-.1-3.48-.18h-.05V392.13h.12l.76.06,1.84.1.85,0h2.59Z"/><path class="cls-23" d="M70.44,330.92l-.06,20.76v.3c0,.1,0,.18,0,.27s0,.27,0,.4,0,.32,0,.49,0,.24-.05.37,0,.26-.07.38a.61.61,0,0,1,0,.11h0a8.9,8.9,0,0,1-.24,1,2.46,2.46,0,0,1-.09.29l-.07.25-.16.45c0,.09-.08.2-.12.29s-.06.15-.08.22c-.14.31-.29.63-.44.94s-.19.36-.3.54h0c-.18.31-.36.62-.56.92-.1.13-.18.26-.26.38l-.34.46c-.08.11-.16.22-.26.34a.62.62,0,0,0-.08.12l-.37.44-.39.44-.37.39c-.29.31-.6.61-.92.91,0,0,0,0,0,0a26,26,0,0,1-3.65,2.81l-.5.31-.31.19-.43.25-.74.41c-.16.1-.32.18-.49.27-.69.37-1.4.71-2.13,1-.18.1-.38.18-.57.27-.57.25-1.17.48-1.77.7-.32.13-.64.25-1,.36s-.68.24-1,.34c-.52.18-1.07.35-1.61.5l-.82.23-.84.21c-.56.15-1.12.27-1.68.39-.28.07-.57.11-.84.17l-.86.17h0l-1.08.18-1.12.18-1,.13c-.42.05-.84.1-1.27.13H41.2l-.88.09-2,.13-.89,0h0l-1,0h-1.9l-.66,0q-1.75,0-3.48-.18h-.05l-1.67-.17h0l-1.68-.21-.89-.14-.88-.14c-.36-.07-.72-.13-1.08-.21l-.65-.12c-.94-.19-1.86-.42-2.76-.66l-.91-.25h0c-.36-.1-.72-.2-1.06-.31l-1.08-.35-1.06-.38c-.28-.09-.57-.2-.84-.31l-.21-.08-.12-.05-.14-.06-1-.43h0c-.43-.18-.83-.37-1.24-.57,0,0-.07,0-.1,0l-1.08-.53-.27-.16L10.38,366l-.63-.38C3.24,361.66,0,356.56,0,351.48l.06-21.11c0,5.05,3.23,10.12,9.69,14,.23.16.47.29.71.43.59.35,1.2.68,1.82,1l.54.26.38.18c.2.1.41.2.63.29.55.25,1.12.49,1.7.72l.21.08.83.32,1.06.37c.23.07.44.15.67.21s.45.16.69.22l.81.25c1.19.33,2.42.63,3.67.89l.59.12c.15,0,.32.06.47.09l.81.15.83.13.78.12,1.72.21c.53.07,1,.11,1.6.16h.12l.76.06c.61.05,1.22.07,1.84.09l.85,0h2.59l1,0h0l.91,0c.67,0,1.35-.07,2-.13l.87-.08h.09c.41,0,.81-.09,1.21-.15s.71-.08,1.06-.13l1.32-.2.9-.16c.28,0,.57-.1.85-.16l.66-.12,1.48-.35c.18,0,.37-.08.56-.13.52-.13,1-.27,1.56-.42l1.54-.47h0l.82-.28.65-.24a7.34,7.34,0,0,0,.74-.27c.52-.19,1.05-.4,1.56-.63l.57-.26c.73-.33,1.44-.67,2.13-1,.17-.08.34-.17.49-.26s.5-.28.74-.42.29-.17.44-.25a30.25,30.25,0,0,0,2.94-2c.17-.15.35-.28.52-.42.35-.29.67-.57,1-.87l.05-.05c.18-.16.36-.32.52-.49a20.41,20.41,0,0,0,1.61-1.8c.22-.27.42-.55.6-.81s.18-.25.26-.38c.2-.3.39-.61.56-.92.27-.49.52-1,.74-1.49.07-.17.14-.33.2-.5h0c.06-.16.12-.32.17-.49a4.58,4.58,0,0,0,.15-.49,8.4,8.4,0,0,0,.24-1c.07-.32.12-.65.16-1a.37.37,0,0,0,0-.11c0-.14,0-.27,0-.41v0C70.43,331.19,70.43,331.05,70.44,330.92Z"/><path class="cls-32" d="M70.44,330.92l-.06,20.76v.3c0,.1,0,.18,0,.27s0,.27,0,.4,0,.32,0,.49,0,.24-.05.37,0,.26-.07.38a.61.61,0,0,1,0,.11h0a8.9,8.9,0,0,1-.24,1,2.46,2.46,0,0,1-.09.29l-.07.25-.16.45c0,.09-.08.2-.12.29s-.06.15-.08.22c-.14.31-.29.63-.44.94s-.19.36-.3.54h0c-.18.31-.36.62-.56.92-.1.13-.18.26-.26.38l-.34.46c-.08.11-.16.22-.26.34a.62.62,0,0,0-.08.12l-.37.44-.39.44-.37.39c-.29.31-.6.61-.92.91,0,0,0,0,0,0a26,26,0,0,1-3.65,2.81l-.5.31-.31.19-.43.25-.74.41c-.16.1-.32.18-.49.27-.69.37-1.4.71-2.13,1-.18.1-.38.18-.57.27-.57.25-1.17.48-1.77.7-.32.13-.64.25-1,.36s-.68.24-1,.34c-.52.18-1.07.35-1.61.5l-.82.23-.84.21c-.56.15-1.12.27-1.68.39-.28.07-.57.11-.84.17l-.86.17h0l-1.08.18-1.12.18-1,.13c-.42.05-.84.1-1.27.13H41.2l-.88.09-2,.13-.89,0h0l-1,0h-1.9l-.66,0q-1.75,0-3.48-.18h-.05l-1.67-.17h0l-1.68-.21-.89-.14-.88-.14c-.36-.07-.72-.13-1.08-.21l-.65-.12c-.94-.19-1.86-.42-2.76-.66l-.91-.25h0c-.36-.1-.72-.2-1.06-.31l-1.08-.35-1.06-.38c-.28-.09-.57-.2-.84-.31l-.21-.08-.12-.05-.14-.06-1-.43h0c-.43-.18-.83-.37-1.24-.57,0,0-.07,0-.1,0l-1.08-.53-.27-.16L10.38,366l-.63-.38C3.24,361.66,0,356.56,0,351.48l.06-21.11c0,5.05,3.23,10.12,9.69,14,.23.16.47.29.71.43.59.35,1.2.68,1.82,1l.54.26.38.18c.2.1.41.2.63.29.55.25,1.12.49,1.7.72l.21.08.83.32,1.06.37c.23.07.44.15.67.21s.45.16.69.22l.81.25c1.19.33,2.42.63,3.67.89l.59.12c.15,0,.32.06.47.09l.81.15.83.13.78.12,1.72.21c.53.07,1,.11,1.6.16h.12l.76.06c.61.05,1.22.07,1.84.09l.85,0h2.59l1,0h0l.91,0c.67,0,1.35-.07,2-.13l.87-.08h.09c.41,0,.81-.09,1.21-.15s.71-.08,1.06-.13l1.32-.2.9-.16c.28,0,.57-.1.85-.16l.66-.12,1.48-.35c.18,0,.37-.08.56-.13.52-.13,1-.27,1.56-.42l1.54-.47h0l.82-.28.65-.24a7.34,7.34,0,0,0,.74-.27c.52-.19,1.05-.4,1.56-.63l.57-.26c.73-.33,1.44-.67,2.13-1,.17-.08.34-.17.49-.26s.5-.28.74-.42.29-.17.44-.25a30.25,30.25,0,0,0,2.94-2c.17-.15.35-.28.52-.42.35-.29.67-.57,1-.87l.05-.05c.18-.16.36-.32.52-.49a20.41,20.41,0,0,0,1.61-1.8c.22-.27.42-.55.6-.81s.18-.25.26-.38c.2-.3.39-.61.56-.92.27-.49.52-1,.74-1.49.07-.17.14-.33.2-.5h0c.06-.16.12-.32.17-.49a4.58,4.58,0,0,0,.15-.49,8.4,8.4,0,0,0,.24-1c.07-.32.12-.65.16-1a.37.37,0,0,0,0-.11c0-.14,0-.27,0-.41v0C70.43,331.19,70.43,331.05,70.44,330.92Z"/><ellipse class="cls-23" cx="35.25" cy="330.43" rx="20.38" ry="35.19" transform="translate(-295.28 364.75) rotate(-89.84)"/><path class="cls-25" d="M24.06,349.74v21.15l-.65-.12c-.94-.19-1.86-.42-2.76-.66l-.91-.25h0c-.36-.1-.72-.2-1.06-.31l-1.08-.35-1.06-.38c-.28-.09-.57-.2-.84-.31l-.21-.08-.12-.05-.14-.06-1-.43h0c-.43-.18-.83-.37-1.24-.57,0,0-.07,0-.1,0l-1.08-.53-.27-.16L10.38,366l-.63-.38v-21.2c.23.16.47.29.71.43.59.35,1.2.68,1.82,1l.54.26.38.18c.2.1.41.2.63.29.55.25,1.12.49,1.7.72l.21.08.83.32,1.06.37c.23.07.44.15.67.21s.45.16.69.22l.81.25c1.19.33,2.42.63,3.67.89Z"/><path class="cls-25" d="M37.42,350.78v21.14h0l-1,0h-1.9l-.66,0q-1.75,0-3.48-.18h-.05V350.6h.12l.76.06c.61.05,1.22.07,1.84.09l.85,0h2.59Z"/><path class="cls-33" d="M126.69,448.67V287.07H56.41V450.48h.06V451l-.06,20.62v0c0,.32,0,.64,0,.95v0c0,.29.06.58.1.87a.52.52,0,0,1,0,.11c0,.3.11.6.18.89s.19.71.31,1.06.19.53.29.8l0,0c.08.21.17.42.27.62s.11.24.17.36c.14.28.29.56.46.84l.13.22c.13.22.27.45.43.67s.33.48.51.72l.27.35c.21.28.45.55.7.83s.46.51.71.77.49.49.75.73l.18.16c.26.24.52.47.8.69a.39.39,0,0,0,.1.08c.3.26.62.5.95.75l.07,0q1.07.8,2.28,1.53h0l.63.38c.29.17.58.33.88.48l.19.1.27.16,1.08.54.1,0c.41.19.8.38,1.23.56h0c.31.14.62.26.94.39l.11,0,.14.06.12.05h0l.1,0,.09.05c.28.11.56.2.85.32l.52.18.54.18.72.23a2.47,2.47,0,0,0,.36.11l.52.17.54.16h0l.9.25,1.37.34c.46.11.93.22,1.4.31l.65.12h.07l1,.19c.25,0,.5.1.75.13l.13,0,.89.13,1.68.22h0l1.67.17h0c.87.08,1.76.12,2.64.15l.72,0h2.69l.78,0h.23c.31,0,.61,0,.93,0l1.88-.13h.13l.48,0,.39,0h.11l.63-.08h0l.6-.08.49-.06.5-.06,1.12-.17,1.08-.18h0l.16,0,.69-.13.18,0c.23,0,.45-.08.67-.14l.84-.18.84-.21.84-.21c.27-.07.55-.14.82-.23l.18-.05,1.43-.44.52-.17.51-.18.37-.12.62-.24.89-.34.86-.37.3-.12.28-.12c.73-.33,1.44-.68,2.14-1.05l.24-.12.24-.14.74-.42a4.41,4.41,0,0,0,.43-.25l.06,0,.24-.15h0l.5-.31a25.24,25.24,0,0,0,3.65-2.81s0,0,0,0c.32-.29.63-.6.92-.91l.09-.09c.09-.11.19-.2.27-.3l.2-.22c.06-.07.12-.15.19-.22s.13-.15.19-.22l.19-.22a.62.62,0,0,1,.08-.12,3.85,3.85,0,0,0,.26-.34l.34-.45h0c.07-.1.13-.21.21-.31l0-.07c.2-.3.38-.61.56-.92l.2-.37.09-.18c0-.1.11-.2.16-.31l.14-.3c0-.11.09-.22.14-.33l0-.11s0-.07,0-.11l.06-.14,0-.15a2,2,0,0,0,.09-.22c0-.07.05-.15.08-.23l0-.11a.61.61,0,0,0,0-.13,2.11,2.11,0,0,0,.1-.3c.1-.32.18-.65.25-1v-.05h0V474c0-.14.05-.26.07-.39s0-.25.06-.37,0-.33,0-.49a2.56,2.56,0,0,0,0-.39,2.62,2.62,0,0,0,0-.28v-.3l.06-16.7h0v-4.43A12.17,12.17,0,0,0,126.69,448.67Z"/><path class="cls-23" d="M126.85,451.08v4h0l0,16.7v.3c0,.1,0,.19,0,.29s0,.25,0,.38,0,.33,0,.49,0,.25,0,.37-.05.26-.07.39a.07.07,0,0,1,0,.05h0s0,0,0,0v0a8.9,8.9,0,0,1-.24,1c0,.1-.06.2-.09.31a.56.56,0,0,0,0,.12l0,.11c0,.08-.05.16-.08.23s0,.15-.08.22a.47.47,0,0,0-.06.15l-.06.14s0,.08,0,.11,0,.07,0,.11l-.15.33-.14.3-.15.31-.1.18-.2.37c-.18.31-.36.62-.56.92l0,.07-.21.31h0l-.34.45a3.85,3.85,0,0,1-.26.34.62.62,0,0,0-.08.12l-.19.22-.18.22-.2.22c-.06.07-.12.15-.19.22a4,4,0,0,1-.28.3l-.09.09c-.29.31-.6.62-.92.91,0,0,0,0,0,0a25.24,25.24,0,0,1-3.65,2.81l-.5.31h0l-.24.15-.06,0a4.41,4.41,0,0,1-.43.25l-.74.41-.24.15-.24.12c-.7.37-1.41.72-2.14,1.05l-.28.12-.29.13q-.43.19-.87.36l-.89.34-.62.24-.36.13-.52.17-.52.17-1.43.44-.18.05c-.27.09-.55.16-.82.23l-.84.21-.84.21-.84.19c-.22.05-.45.1-.67.13l-.17,0-.7.14-.16,0h0l-1.08.19-1.12.17-.5.06-.5.07-.59.07h0l-.64.07h-.09l-.4.05-.48,0H96.6l-1.88.12-.89,0h-.27c-.26,0-.52,0-.79,0H90.09l-.72,0q-1.34,0-2.64-.15h0L85,491.72h0l-1.68-.22-.89-.13-.13,0-.75-.12c-.34-.07-.67-.12-1-.2h-.07l-.65-.12c-.47-.09-.94-.2-1.4-.31l-1.36-.35c-.3-.07-.61-.15-.91-.24h0l-.54-.16-.52-.16-.36-.12-.72-.23-.54-.18-.52-.19-.84-.32-.1,0-.11,0h0l-.12-.05-.14-.06-.11,0c-.32-.13-.63-.25-.94-.39h0c-.43-.18-.82-.37-1.23-.56l-.1-.05-1.08-.53-.27-.16-.19-.1c-.3-.15-.59-.31-.88-.48l-.63-.38h0c-.81-.5-1.57-1-2.28-1.53l-.07,0c-.33-.25-.65-.49-.95-.75a.39.39,0,0,1-.1-.08c-.28-.22-.54-.45-.8-.69l-.18-.16c-.26-.24-.51-.49-.75-.73s-.49-.51-.71-.77-.49-.55-.7-.83l-.27-.35c-.18-.24-.36-.48-.51-.72s-.3-.45-.43-.67l-.13-.22c-.17-.28-.32-.56-.46-.84-.06-.12-.12-.24-.17-.36s-.19-.41-.27-.62l0,0c-.1-.27-.2-.53-.29-.8s-.22-.71-.31-1.06-.13-.59-.18-.89a.52.52,0,0,0,0-.11c0-.29-.08-.58-.1-.87v0c0-.31,0-.63,0-.95v0L56.47,451v-.49a3.7,3.7,0,0,0,0,.47h0c0,.16,0,.31,0,.47v0c0,.29.06.58.1.87a.22.22,0,0,1,0,.11q.06.38.15.75c0,.09,0,.19.08.29a7.59,7.59,0,0,0,.22.78,7.49,7.49,0,0,0,.32.86,13.18,13.18,0,0,0,.79,1.66c.08.16.17.31.27.47s.19.32.3.47l.22.33c.17.26.36.51.56.77s.39.49.6.73c0,.06.09.12.14.17.22.25.44.49.67.73l.1.1c.25.26.52.51.79.77l.08.07c.3.28.62.55.95.82s.65.53,1,.79h0c.71.52,1.46,1,2.27,1.52l.35.22.36.21c.59.34,1.2.67,1.82,1l.54.26c.12.06.25.13.38.18l.3.15.33.15L71,467c.32.14.66.27,1,.4l.21.08.41.16.42.16.53.19.53.18.34.11.33.1.25.09.44.14.41.12a3,3,0,0,1,.4.12l.59.16,1.22.31.93.22.93.2.59.12c1,.19,1.94.36,2.93.5.77.11,1.56.2,2.34.27l.94.1h.12l.76.05,1.15.07.69,0h3.93l.5,0H94l.51,0,.23,0,1-.06,1.2-.09.68-.05h.09l.48-.06h.13l.6-.08.53-.06.53-.07.87-.13.46-.07.89-.16c.44-.07.87-.15,1.3-.24l.21,0,.37-.09,1.11-.26.28-.06c.88-.21,1.76-.45,2.61-.71.26-.07.51-.15.77-.24h0c.32-.1.64-.21,1-.33l.52-.17.73-.28h0c.39-.15.79-.31,1.18-.48.6-.24,1.18-.51,1.76-.78l1-.49c.54-.27,1.07-.56,1.59-.86.15-.08.29-.17.43-.26.48-.29,1-.59,1.4-.89a.51.51,0,0,0,.13-.09l.72-.51c.42-.3.83-.62,1.21-.94a20.89,20.89,0,0,0,2.8-2.75c.13-.15.25-.31.37-.46a12.56,12.56,0,0,0,.84-1.16c.21-.31.4-.63.58-.94l.3-.57q.16-.32.3-.63c.05-.1.1-.2.14-.3A4.94,4.94,0,0,0,126,455c0-.07,0-.14.07-.2h0l.09-.27a12,12,0,0,0,.57-2.61c0-.14,0-.28,0-.42v0C126.84,451.33,126.84,451.2,126.85,451.08Z"/><path class="cls-34" d="M126.85,451.08v4h0l0,16.7v.3c0,.1,0,.19,0,.29s0,.25,0,.38,0,.33,0,.49,0,.25,0,.37-.05.26-.07.39a.07.07,0,0,1,0,.05h0s0,0,0,0v0a8.9,8.9,0,0,1-.24,1c0,.1-.06.2-.09.31a.56.56,0,0,0,0,.12l0,.11c0,.08-.05.16-.08.23s0,.15-.08.22a.47.47,0,0,0-.06.15l-.06.14s0,.08,0,.11,0,.07,0,.11l-.15.33-.14.3-.15.31-.1.18-.2.37c-.18.31-.36.62-.56.92l0,.07-.21.31h0l-.34.45a3.85,3.85,0,0,1-.26.34.62.62,0,0,0-.08.12l-.19.22-.18.22-.2.22c-.06.07-.12.15-.19.22a4,4,0,0,1-.28.3l-.09.09c-.29.31-.6.62-.92.91,0,0,0,0,0,0a25.24,25.24,0,0,1-3.65,2.81l-.5.31h0l-.24.15-.06,0a4.41,4.41,0,0,1-.43.25l-.74.41-.24.15-.24.12c-.7.37-1.41.72-2.14,1.05l-.28.12-.29.13q-.43.19-.87.36l-.89.34-.62.24-.36.13-.52.17-.52.17-1.43.44-.18.05c-.27.09-.55.16-.82.23l-.84.21-.84.21-.84.19c-.22.05-.45.1-.67.13l-.17,0-.7.14-.16,0h0l-1.08.19-1.12.17-.5.06-.5.07-.59.07h0l-.64.07h-.09l-.4.05-.48,0H96.6l-1.88.12-.89,0h-.27c-.26,0-.52,0-.79,0H90.09l-.72,0q-1.34,0-2.64-.15h0L85,491.72h0l-1.68-.22-.89-.13-.13,0-.75-.12c-.34-.07-.67-.12-1-.2h-.07l-.65-.12c-.47-.09-.94-.2-1.4-.31l-1.36-.35c-.3-.07-.61-.15-.91-.24h0l-.54-.16-.52-.16-.36-.12-.72-.23-.54-.18-.52-.19-.84-.32-.1,0-.11,0h0l-.12-.05-.14-.06-.11,0c-.32-.13-.63-.25-.94-.39h0c-.43-.18-.82-.37-1.23-.56l-.1-.05-1.08-.53-.27-.16-.19-.1c-.3-.15-.59-.31-.88-.48l-.63-.38h0c-.81-.5-1.57-1-2.28-1.53l-.07,0c-.33-.25-.65-.49-.95-.75a.39.39,0,0,1-.1-.08c-.28-.22-.54-.45-.8-.69l-.18-.16c-.26-.24-.51-.49-.75-.73s-.49-.51-.71-.77-.49-.55-.7-.83l-.27-.35c-.18-.24-.36-.48-.51-.72s-.3-.45-.43-.67l-.13-.22c-.17-.28-.32-.56-.46-.84-.06-.12-.12-.24-.17-.36s-.19-.41-.27-.62l0,0c-.1-.27-.2-.53-.29-.8s-.22-.71-.31-1.06-.13-.59-.18-.89a.52.52,0,0,0,0-.11c0-.29-.08-.58-.1-.87v0c0-.31,0-.63,0-.95v0L56.47,451v-.49a3.7,3.7,0,0,0,0,.47h0c0,.16,0,.31,0,.47v0c0,.29.06.58.1.87a.22.22,0,0,1,0,.11q.06.38.15.75c0,.09,0,.19.08.29a7.59,7.59,0,0,0,.22.78,7.49,7.49,0,0,0,.32.86,13.18,13.18,0,0,0,.79,1.66c.08.16.17.31.27.47s.19.32.3.47l.22.33c.17.26.36.51.56.77s.39.49.6.73c0,.06.09.12.14.17.22.25.44.49.67.73l.1.1c.25.26.52.51.79.77l.08.07c.3.28.62.55.95.82s.65.53,1,.79h0c.71.52,1.46,1,2.27,1.52l.35.22.36.21c.59.34,1.2.67,1.82,1l.54.26c.12.06.25.13.38.18l.3.15.33.15L71,467c.32.14.66.27,1,.4l.21.08.41.16.42.16.53.19.53.18.34.11.33.1.25.09.44.14.41.12a3,3,0,0,1,.4.12l.59.16,1.22.31.93.22.93.2.59.12c1,.19,1.94.36,2.93.5.77.11,1.56.2,2.34.27l.94.1h.12l.76.05,1.15.07.69,0h3.93l.5,0H94l.51,0,.23,0,1-.06,1.2-.09.68-.05h.09l.48-.06h.13l.6-.08.53-.06.53-.07.87-.13.46-.07.89-.16c.44-.07.87-.15,1.3-.24l.21,0,.37-.09,1.11-.26.28-.06c.88-.21,1.76-.45,2.61-.71.26-.07.51-.15.77-.24h0c.32-.1.64-.21,1-.33l.52-.17.73-.28h0c.39-.15.79-.31,1.18-.48.6-.24,1.18-.51,1.76-.78l1-.49c.54-.27,1.07-.56,1.59-.86.15-.08.29-.17.43-.26.48-.29,1-.59,1.4-.89a.51.51,0,0,0,.13-.09l.72-.51c.42-.3.83-.62,1.21-.94a20.89,20.89,0,0,0,2.8-2.75c.13-.15.25-.31.37-.46a12.56,12.56,0,0,0,.84-1.16c.21-.31.4-.63.58-.94l.3-.57q.16-.32.3-.63c.05-.1.1-.2.14-.3A4.94,4.94,0,0,0,126,455c0-.07,0-.14.07-.2h0l.09-.27a12,12,0,0,0,.57-2.61c0-.14,0-.28,0-.42v0C126.84,451.33,126.84,451.2,126.85,451.08Z"/><ellipse class="cls-23" cx="91.67" cy="450.56" rx="20.38" ry="35.19" transform="translate(-359.15 540.95) rotate(-89.84)"/><path class="cls-25" d="M80.47,469.87V491c-.21,0-.43-.07-.64-.12-.94-.19-1.86-.41-2.77-.65l-.9-.24h0l-1.06-.32L74,489.32c-.36-.12-.72-.24-1.06-.37l-.85-.32-.2-.07h0l-.12-.05-.15-.06c-.35-.13-.7-.28-1-.43h0c-.43-.18-.83-.37-1.24-.56l-.09-.05-1.09-.54-.27-.15c-.36-.18-.7-.38-1.06-.59s-.43-.25-.63-.38V464.55c.22.15.46.29.7.43.6.33,1.2.67,1.82,1l.54.26c.12.06.25.13.38.18l.63.3c.55.25,1.12.48,1.71.71l.2.07c.28.11.56.23.84.32s.7.25,1.06.37a5.67,5.67,0,0,0,.66.22l.7.22.81.24c1.19.34,2.42.65,3.67.9Z"/><path class="cls-25" d="M93.83,470.9v21.15h0l-1,0H90.88l-.67,0c-1.17,0-2.32-.09-3.48-.19h0V470.74h.12l.76.05,1.84.1c.29,0,.57,0,.86,0h2.59Z"/><path class="cls-9" d="M90.09,492.07l.78,0-.66,0Z"/><path class="cls-23" d="M126.85,409.45l-.06,20.76v.31c0,.09,0,.17,0,.27l0,.39c0,.17,0,.33,0,.49a2.52,2.52,0,0,1,0,.37c0,.12-.05.25-.07.38a.43.43,0,0,1,0,.11h0c-.06.34-.15.66-.24,1a2.64,2.64,0,0,1-.1.3l-.07.25c-.05.14-.11.3-.15.44a1.88,1.88,0,0,0-.12.3l-.09.21c-.14.31-.28.64-.44,1s-.19.35-.3.53h0c-.17.31-.35.61-.56.92l-.26.38c-.1.16-.22.31-.33.47l-.26.32-.09.12c-.12.15-.24.31-.37.45l-.39.44c-.12.13-.24.27-.37.4-.29.31-.6.6-.92.9l0,.05a25.65,25.65,0,0,1-3.64,2.8c-.17.11-.34.2-.5.31l-.31.19c-.13.09-.29.17-.43.25s-.49.29-.74.42-.32.18-.49.26c-.69.37-1.41.72-2.13,1a6,6,0,0,1-.58.25c-.57.26-1.16.49-1.76.71a8.18,8.18,0,0,1-1,.36c-.34.12-.68.24-1,.35-.52.18-1.07.34-1.6.5l-.83.23-.83.21-1.68.38-.85.18-.86.17h0l-1.09.18-1.12.17c-.33,0-.66.09-1,.12s-.83.11-1.26.15h-.1l-.88.08c-.67,0-1.33.1-2,.13l-.9,0h0l-1,0H90.88l-.67,0c-1.17,0-2.32-.09-3.48-.18h0L85,450.13h0l-1.68-.23-.88-.12-.88-.16c-.36-.05-.73-.13-1.09-.2l-.64-.12c-.94-.2-1.86-.41-2.77-.65l-.9-.25,0,0c-.36-.09-.71-.2-1.06-.31s-.72-.22-1.07-.34l-1.06-.38c-.29-.1-.58-.2-.85-.31l-.2-.09-.12,0a.94.94,0,0,0-.15-.06l-1-.43h0c-.43-.19-.83-.37-1.24-.58l-.09,0-1.09-.55a2.29,2.29,0,0,0-.27-.14c-.36-.19-.7-.38-1.06-.59s-.43-.25-.63-.38c-6.51-3.94-9.77-9.05-9.75-14.14l.06-21.1c0,5.06,3.23,10.12,9.69,14.05.22.15.46.28.7.43.6.34,1.2.68,1.82,1l.54.26.38.18.63.28q.83.38,1.71.72l.2.08c.28.11.56.22.84.31l1.06.38.66.22c.23.08.46.15.7.21s.53.17.81.24c1.19.35,2.42.64,3.67.91.2,0,.39.08.58.1l.48.1c.26.06.54.11.81.15l.82.13.79.12c.57.09,1.14.16,1.72.22s1,.11,1.59.15l.12,0,.76.05c.61,0,1.22.08,1.84.1l.86,0h2.59l1,0h0l.92,0,2-.13.87-.09h.1l1.2-.13,1.06-.13,1.33-.2.89-.16.86-.17a6.23,6.23,0,0,0,.65-.13c.51-.09,1-.21,1.48-.33l.56-.13c.53-.13,1-.28,1.56-.43s1-.3,1.54-.47h0l.82-.28.64-.23c.25-.08.49-.18.74-.27.53-.19,1.05-.41,1.56-.64.19-.08.38-.16.58-.26.72-.32,1.44-.67,2.13-1,.17-.09.33-.17.49-.27l.74-.41c.15-.09.28-.17.44-.25a30.68,30.68,0,0,0,2.93-2c.18-.14.36-.27.53-.43.34-.27.66-.56,1-.86a.1.1,0,0,0,0,0l.53-.49a22.34,22.34,0,0,0,1.61-1.82c.21-.26.41-.53.59-.79a3.3,3.3,0,0,0,.26-.39,7.18,7.18,0,0,0,.56-.91,12.41,12.41,0,0,0,.74-1.51c.07-.16.15-.32.21-.48v0a3.86,3.86,0,0,0,.16-.48c.06-.17.11-.34.16-.49.09-.34.18-.66.24-1a8.79,8.79,0,0,0,.15-1,.41.41,0,0,0,0-.11,3.19,3.19,0,0,0,0-.42v0C126.84,409.73,126.84,409.58,126.85,409.45Z"/><path class="cls-35" d="M126.85,409.45l-.06,20.76v.31c0,.09,0,.17,0,.27l0,.39c0,.17,0,.33,0,.49a2.52,2.52,0,0,1,0,.37c0,.12-.05.25-.07.38a.43.43,0,0,1,0,.11h0c-.06.34-.15.66-.24,1a2.64,2.64,0,0,1-.1.3l-.07.25c-.05.14-.11.3-.15.44a1.88,1.88,0,0,0-.12.3l-.09.21c-.14.31-.28.64-.44,1s-.19.35-.3.53h0c-.17.31-.35.61-.56.92l-.26.38c-.1.16-.22.31-.33.47l-.26.32-.09.12c-.12.15-.24.31-.37.45l-.39.44c-.12.13-.24.27-.37.4-.29.31-.6.6-.92.9l0,.05a25.65,25.65,0,0,1-3.64,2.8c-.17.11-.34.2-.5.31l-.31.19c-.13.09-.29.17-.43.25s-.49.29-.74.42-.32.18-.49.26c-.69.37-1.41.72-2.13,1a6,6,0,0,1-.58.25c-.57.26-1.16.49-1.76.71a8.18,8.18,0,0,1-1,.36c-.34.12-.68.24-1,.35-.52.18-1.07.34-1.6.5l-.83.23-.83.21-1.68.38-.85.18-.86.17h0l-1.09.18-1.12.17c-.33,0-.66.09-1,.12s-.83.11-1.26.15h-.1l-.88.08c-.67,0-1.33.1-2,.13l-.9,0h0l-1,0H90.88l-.67,0c-1.17,0-2.32-.09-3.48-.18h0L85,450.13h0l-1.68-.23-.88-.12-.88-.16c-.36-.05-.73-.13-1.09-.2l-.64-.12c-.94-.2-1.86-.41-2.77-.65l-.9-.25,0,0c-.36-.09-.71-.2-1.06-.31s-.72-.22-1.07-.34l-1.06-.38c-.29-.1-.58-.2-.85-.31l-.2-.09-.12,0a.94.94,0,0,0-.15-.06l-1-.43h0c-.43-.19-.83-.37-1.24-.58l-.09,0-1.09-.55a2.29,2.29,0,0,0-.27-.14c-.36-.19-.7-.38-1.06-.59s-.43-.25-.63-.38c-6.51-3.94-9.77-9.05-9.75-14.14l.06-21.1c0,5.06,3.23,10.12,9.69,14.05.22.15.46.28.7.43.6.34,1.2.68,1.82,1l.54.26.38.18.63.28q.83.38,1.71.72l.2.08c.28.11.56.22.84.31l1.06.38.66.22c.23.08.46.15.7.21s.53.17.81.24c1.19.35,2.42.64,3.67.91.2,0,.39.08.58.1l.48.1c.26.06.54.11.81.15l.82.13.79.12c.57.09,1.14.16,1.72.22s1,.11,1.59.15l.12,0,.76.05c.61,0,1.22.08,1.84.1l.86,0h2.59l1,0h0l.92,0,2-.13.87-.09h.1l1.2-.13,1.06-.13,1.33-.2.89-.16.86-.17a6.23,6.23,0,0,0,.65-.13c.51-.09,1-.21,1.48-.33l.56-.13c.53-.13,1-.28,1.56-.43s1-.3,1.54-.47h0l.82-.28.64-.23c.25-.08.49-.18.74-.27.53-.19,1.05-.41,1.56-.64.19-.08.38-.16.58-.26.72-.32,1.44-.67,2.13-1,.17-.09.33-.17.49-.27l.74-.41c.15-.09.28-.17.44-.25a30.68,30.68,0,0,0,2.93-2c.18-.14.36-.27.53-.43.34-.27.66-.56,1-.86a.1.1,0,0,0,0,0l.53-.49a22.34,22.34,0,0,0,1.61-1.82c.21-.26.41-.53.59-.79a3.3,3.3,0,0,0,.26-.39,7.18,7.18,0,0,0,.56-.91,12.41,12.41,0,0,0,.74-1.51c.07-.16.15-.32.21-.48v0a3.86,3.86,0,0,0,.16-.48c.06-.17.11-.34.16-.49.09-.34.18-.66.24-1a8.79,8.79,0,0,0,.15-1,.41.41,0,0,0,0-.11,3.19,3.19,0,0,0,0-.42v0C126.84,409.73,126.84,409.58,126.85,409.45Z"/><ellipse class="cls-23" cx="91.67" cy="408.97" rx="20.38" ry="35.19" transform="translate(-317.56 499.47) rotate(-89.84)"/><path class="cls-25" d="M80.47,428.26v21.16l-.64-.12c-.94-.2-1.86-.41-2.77-.65l-.9-.25,0,0c-.36-.09-.71-.2-1.06-.31s-.72-.22-1.07-.34l-1.06-.38c-.29-.1-.58-.2-.85-.31l-.2-.09-.12,0a.94.94,0,0,0-.15-.06l-1-.43h0c-.43-.19-.83-.37-1.24-.58l-.09,0-1.09-.55a2.29,2.29,0,0,0-.27-.14c-.36-.19-.7-.38-1.06-.59s-.43-.25-.63-.38V423c.22.15.46.28.7.43.6.34,1.2.68,1.82,1l.54.26.38.18.63.28q.83.38,1.71.72l.2.08c.28.11.56.22.84.31l1.06.38.66.22c.23.08.46.15.7.21s.53.17.81.24c1.19.35,2.42.64,3.67.91C80.09,428.19,80.28,428.24,80.47,428.26Z"/><path class="cls-25" d="M93.83,429.31v21.15h0l-1,0H90.88l-.67,0c-1.17,0-2.32-.09-3.48-.18h0V429.13l.12,0,.76.05c.61,0,1.22.08,1.84.1l.86,0h2.59Z"/><path class="cls-36" d="M369.29,476.49,96.73,491.89l.48,0,.39,0h.11l.63-.08h0l.59-.07.5-.07.5-.06,1.12-.17,1.08-.18h0l.16,0,.69-.13.18,0c.22,0,.45-.08.67-.13l.84-.19.84-.21.84-.21c.27-.07.55-.14.82-.23l.18-.05c.49-.14,1-.28,1.43-.44l.52-.17.52-.17.36-.13.62-.24.89-.34q.43-.16.87-.36l.29-.13.28-.12c.73-.33,1.44-.68,2.14-1.05l.24-.12.24-.14.74-.42a4.41,4.41,0,0,0,.43-.25l.06,0a1.58,1.58,0,0,0,.24-.15h0l.5-.31a25.24,25.24,0,0,0,3.65-2.81s0,0,0,0c.32-.29.63-.6.92-.91l.09-.09a4,4,0,0,0,.28-.3c.07-.07.13-.15.19-.22l.2-.22.18-.22.19-.22a.62.62,0,0,1,.08-.12,3.85,3.85,0,0,0,.26-.34l.34-.45h0l.21-.31,0-.07c.2-.3.38-.61.56-.92l.2-.37.1-.18.15-.31.14-.3.15-.33s0-.07,0-.11,0-.07,0-.11l.06-.14a.47.47,0,0,1,.06-.15c0-.07.05-.15.08-.22s.05-.15.08-.23l0-.11a.56.56,0,0,1,0-.12c0-.11.07-.21.09-.31.1-.32.18-.65.25-1v-.05h0a.07.07,0,0,0,0-.05c0-.13,0-.26.07-.39s0-.24,0-.37,0-.33,0-.49,0-.26,0-.38,0-.19,0-.29v-.3l0-16.7.58.24.16,0,.06,0,.06,0,.2.08.85.32.13.05.93.32c.36.12.71.24,1.07.34l1.06.32h0l.32.09.58.15,1.37.34c.46.12.93.22,1.39.32l.87.16.33.06.54.1.35.06.53.09h.06l.82.12.56.07.28,0,.84.11h0l.69.06.16,0,.81.08h.05c1.12.1,2.23.16,3.36.18h2.68c.35,0,.7,0,1,0h0l.44,0h.45c.67,0,1.33-.08,2-.14l.88-.08h.1l1.26-.15h.1l.9-.12h0l.55-.08.57-.08.54-.1.54-.09h0l.3-.06.13,0,.42-.08.43-.09.43-.09,1.68-.39.17,0,.66-.17a2.47,2.47,0,0,0,.36-.11,4.05,4.05,0,0,0,.47-.12l.8-.24.81-.25,1-.35,1-.37.34-.13c.48-.17,1-.37,1.42-.57l.58-.25,1.08-.51,1-.53.24-.13.25-.14c.25-.13.5-.28.74-.42s.3-.17.43-.25l.31-.19.5-.31a25,25,0,0,0,3.65-2.8l0,0,0,0,.47-.46.45-.45.18-.2.18-.2c.14-.14.26-.29.39-.43h0c.14-.14.25-.3.37-.44l.09-.12.13-.17.13-.16c.11-.16.23-.31.33-.46a4.44,4.44,0,0,1,.27-.38h0c.1-.15.2-.3.29-.46l.27-.46.08-.15.21-.4.3-.61.15-.33a1.8,1.8,0,0,1,.08-.21l.05-.15.07-.15c0-.07.05-.14.07-.21a1.55,1.55,0,0,0,.08-.23c0-.09.05-.16.07-.24a1.86,1.86,0,0,0,.1-.31c.07-.23.13-.47.18-.71a2.68,2.68,0,0,0,.07-.27V441a.07.07,0,0,0,0-.05c0-.13,0-.26.07-.39a1.13,1.13,0,0,0,0-.18,1.25,1.25,0,0,1,0-.19c0-.08,0-.16,0-.24s0-.16,0-.25a1.28,1.28,0,0,0,0-.19,1.37,1.37,0,0,0,0-.19c0-.1,0-.19,0-.29v-.29l.06-20.76v-.39c0-.34,0-.68,0-1s-.07-.69-.13-1v-8.8L252,409h0l-.05,16,27,15.58L293,432.43Z"/></g></g></g></svg>