<?xml version="1.0" encoding="utf-8"?>
<!-- Generator: Adobe Illustrator 22.0.0, SVG Export Plug-In . SVG Version: 6.00 Build 0)  -->
<svg version="1.1" id="Capa_1" xmlns="http://www.w3.org/2000/svg" xmlns:xlink="http://www.w3.org/1999/xlink" x="0px" y="0px"
	 viewBox="0 0 271 150" style="enable-background:new 0 0 271 150;" xml:space="preserve">
<style type="text/css">
	.st0{fill:#006E3C;}
	.st1{fill:#00B43C;}
</style>
<g>
	<path d="M116.9,124.9V68.2l11.6-1.4l1.8,8.9c3.8-6.1,9.3-9.2,16.6-9.2c1.5,0,2.8,0.1,3.7,0.2l-0.2,11.6c-1.4-0.2-2.9-0.3-4.4-0.3
		c-5.1,0-8.9,1.4-11.4,4.1s-3.8,6.5-3.8,11.3v31.5C130.8,124.9,116.9,124.9,116.9,124.9z"/>
	<path d="M177.1,126c-8.6,0-15.4-1.5-20.6-4.4l1.4-10.4c2.3,1.3,5.3,2.4,8.9,3.4c3.6,1,6.9,1.5,9.8,1.5c3.1,0,5.5-0.6,7.2-1.7
		s2.6-2.8,2.6-5.1c0-2-0.8-3.6-2.4-4.8c-1.6-1.2-4.7-2.6-9.2-4.3c-1.6-0.6-2.6-0.9-3-1.1c-5.4-2.1-9.2-4.4-11.6-7
		c-2.4-2.6-3.5-6-3.5-10.4c0-5.3,1.9-9.3,5.7-12.2c3.8-2.8,9.2-4.2,16-4.2c7.4,0,13.9,1.4,19.5,4.2l-3.4,9.6
		c-5.5-2.6-10.8-3.9-15.8-3.9c-2.8,0-5,0.5-6.5,1.4c-1.6,0.9-2.4,2.4-2.4,4.3c0,1.8,0.8,3.2,2.3,4.2s4.5,2.3,8.9,3.9
		c0.1,0,0.6,0.2,1.4,0.5c0.8,0.3,1.4,0.5,1.8,0.7c5.3,1.9,9.2,4.3,11.7,7s3.8,6.2,3.8,10.5c0,5.8-2,10.3-5.9,13.5
		C189.9,124.4,184.3,126,177.1,126"/>
	<polygon points="238.3,91.8 262,66.8 245.5,66.8 221.9,91.1 221.9,47.8 208,50.4 208,124.9 221.9,124.9 221.9,124.9 221.9,109.2 
		229.5,101.1 246.8,124.9 263.6,124.9 	"/>
	<path class="st0" d="M37.9,58.5v-54c0,0-17.5,8.7-17.5,27.2C20.4,50.2,37.9,58.5,37.9,58.5"/>
	<path class="st1" d="M37.9,4.5c0,0,17.5,8.7,17.5,27.2S37.9,58.5,37.9,58.5V4.5z"/>
	<path class="st0" d="M78.6,83.8l24-13.6c0,0-8.3-5.6-16.5-0.9S78.6,83.8,78.6,83.8"/>
	<path class="st1" d="M102.6,70.2c0,0,0.5,10-7.7,14.6c-8.2,4.7-16.3-1-16.3-1L102.6,70.2z"/>
	<path d="M103.8,68c-0.4-0.2-10.5-5.6-19.1-0.6c-6.9,4-8.2,11.9-8.5,15.2L73,84.4c-1.6-1.5-3.7-2.5-6.1-2.5s-4.5,0.9-6.1,2.5
		L46.4,76c0.2-0.7,0.3-1.4,0.3-2.1c0-4-2.7-7.4-6.3-8.4v-5.2C44.6,57.6,58,47.7,58,32C58,13.8,40,2.5,39.2,2l-1.3-0.8L36.6,2
		c-0.8,0.5-18.8,11.8-18.8,30c0,15.7,13.4,25.5,17.6,28.3v5.2c-3.7,1-6.3,4.4-6.3,8.4c0,0.7,0.1,1.4,0.3,2.1l-14.5,8.4
		c-1.6-1.5-3.7-2.5-6.1-2.5C4,81.9,0,85.8,0,90.7c0,4,2.7,7.4,6.3,8.4v17.4c-3.6,1.1-6.3,4.4-6.3,8.4c0,4.8,3.9,8.8,8.8,8.8
		c2.6,0,4.9-1.1,6.5-2.9l14.1,8.1c-0.2,0.7-0.3,1.4-0.3,2.1c0,4.8,3.9,8.7,8.8,8.7c4.8,0,8.8-3.9,8.8-8.7c0-0.7-0.1-1.4-0.3-2.1
		l14.1-8.1c1.6,1.8,3.9,2.9,6.5,2.9c4.8,0,8.8-3.9,8.8-8.8c0-4-2.7-7.4-6.3-8.4V99.1c3.6-1.1,6.3-4.4,6.3-8.4c0-0.7-0.1-1.4-0.2-2
		l3.2-1.8c1.8,0.9,5.5,2.3,9.6,2.3c2.5,0,5.2-0.5,7.8-2c8.5-4.9,9-16.4,9-16.8v-1.5L103.8,68z M69.4,93.7c-0.7,0.5-1.5,0.8-2.4,0.8
		c-0.5,0-0.9-0.1-1.4-0.3c-0.4-0.1-0.7-0.3-1-0.6c-0.8-0.6-1.3-1.5-1.5-2.5c0-0.2,0-0.4,0-0.6s0-0.3,0-0.5c0.2-1.4,1.1-2.6,2.4-3.1
		c0.4-0.2,0.9-0.3,1.4-0.3s1.1,0.1,1.5,0.3c1.4,0.6,2.4,2,2.4,3.6c0,0.2,0,0.4-0.1,0.6C70.6,92.3,70.1,93.1,69.4,93.7 M70.8,124.9
		c0,2.2-1.8,3.9-3.9,3.9c-0.7,0-1.5-0.2-2-0.6c-1.1-0.7-1.9-1.9-1.9-3.3v-0.1l0,0c0-0.4,0.1-0.8,0.2-1.2c0.2-0.7,0.7-1.3,1.3-1.8
		c0.5-0.4,1.1-0.7,1.7-0.8c0.2,0,0.4-0.1,0.7-0.1c0.9,0,1.8,0.3,2.4,0.8C70.3,122.5,70.8,123.6,70.8,124.9 M64.5,116.5
		c-1.2,0.3-2.3,0.9-3.2,1.7l-14.8-8.6l0,0c0.1-0.6,0.2-1.1,0.2-1.7c0-0.8-0.1-1.7-0.4-2.4L60.9,97c1,1,2.2,1.7,3.6,2.1V116.5z
		 M37.9,144.9c-2,0-3.6-1.4-3.9-3.3c0-0.2,0-0.4,0-0.6c0-1.6,1-3,2.4-3.6c0.5-0.2,1-0.3,1.5-0.3s1,0.1,1.5,0.3
		c1.4,0.6,2.4,2,2.4,3.6c0,0.2,0,0.4,0,0.6C41.5,143.4,39.8,144.9,37.9,144.9 M29.3,109.6l-14.8,8.6c-0.9-0.8-2-1.4-3.2-1.7V99.1
		c1.4-0.4,2.6-1.1,3.6-2.1l14.6,8.4c-0.2,0.8-0.4,1.6-0.4,2.5C29.1,108.5,29.2,109.1,29.3,109.6L29.3,109.6z M12.8,124.9
		c0,1.4-0.7,2.6-1.9,3.3c-0.6,0.4-1.3,0.6-2,0.6c-2.2,0-3.9-1.8-3.9-3.9c0-1.2,0.6-2.4,1.5-3.1c0.7-0.5,1.5-0.8,2.4-0.8
		c0.2,0,0.5,0,0.7,0.1c0.7,0.1,1.2,0.4,1.7,0.8c0.6,0.4,1,1.1,1.3,1.8C12.7,124.1,12.8,124.5,12.8,124.9
		C12.8,124.8,12.8,124.8,12.8,124.9 M4.9,90.7c0-2.2,1.8-3.9,3.9-3.9c0.5,0,1,0.1,1.4,0.3c1.3,0.5,2.2,1.7,2.4,3.1
		c0,0.2,0,0.4,0,0.6s0,0.4,0,0.6c-0.1,1-0.7,1.9-1.5,2.5c-0.3,0.2-0.6,0.4-1,0.6s-0.9,0.3-1.4,0.3c-0.9,0-1.8-0.3-2.4-0.8
		C5.5,93,4.9,91.9,4.9,90.7 M35.5,70.8c0.7-0.5,1.5-0.8,2.4-0.8s1.8,0.3,2.4,0.8c0.8,0.6,1.3,1.5,1.4,2.5c0,0.2,0,0.4,0,0.6
		c0,1.2-0.6,2.4-1.5,3.1c-0.3,0.2-0.6,0.4-1,0.6s-0.9,0.3-1.4,0.3s-1-0.1-1.4-0.3c-0.4-0.1-0.7-0.3-1-0.6c-0.9-0.7-1.5-1.8-1.5-3.1
		c0-0.2,0-0.4,0-0.6C34.2,72.3,34.7,71.4,35.5,70.8 M41.8,108c0,1.2-0.6,2.2-1.5,2.9c-0.2,0.1-0.4,0.3-0.6,0.4
		c-0.6,0.3-1.2,0.5-1.9,0.5s-1.3-0.2-1.8-0.5c-0.2-0.1-0.4-0.2-0.6-0.4c-0.9-0.7-1.5-1.8-1.5-3v-0.1c0-0.4,0-0.7,0.1-1
		c0.2-0.8,0.7-1.5,1.3-2.1c0.4-0.3,0.9-0.6,1.5-0.7c0.3-0.1,0.6-0.1,1-0.1s0.7,0,1,0.1c0.5,0.1,1,0.4,1.4,0.7c0.6,0.5,1.1,1.2,1.3,2
		c0.1,0.3,0.1,0.7,0.1,1.1C41.8,107.9,41.8,108,41.8,108L41.8,108z M58.4,88.6c-0.2,0.7-0.3,1.4-0.3,2.1s0.1,1.5,0.3,2.2l-14.7,8.5
		c-1-0.9-2.1-1.5-3.4-1.9V82.3c1.4-0.4,2.6-1.1,3.6-2.1L58.4,88.6z M22.7,32.1c0-12.9,11.3-22.2,15.2-25c3.9,2.8,15.2,12.1,15.2,25
		c0,10.8-8,18.6-12.8,22.3V34c0-1.3-1.1-2.4-2.4-2.4c-1.4,0-2.4,1.1-2.4,2.4v20.4C30.6,50.7,22.7,42.9,22.7,32.1 M31.8,80.2
		c1,1,2.3,1.7,3.6,2.1v17.2c-1.3,0.4-2.4,1-3.4,1.8l-14.8-8.5c0.2-0.7,0.3-1.4,0.3-2.1s-0.1-1.4-0.3-2.1L31.8,80.2z M17.5,126.4
		c0.1-0.5,0.1-1,0.1-1.5c0-0.9-0.1-1.8-0.4-2.7l14.4-8.3c1,1.1,2.4,1.9,3.9,2.4v16.3c-1.4,0.4-2.6,1.1-3.7,2.1L17.5,126.4z
		 M44,134.7c-1-1-2.3-1.7-3.7-2.1v-16.3c1.5-0.4,2.9-1.3,3.9-2.4l14.4,8.3c-0.3,0.8-0.4,1.7-0.4,2.7c0,0.5,0,1,0.1,1.5L44,134.7z
		 M93.6,82.9c-3.2,1.8-6.8,1.5-9.6,0.8l4.8-2.8c1.2-0.7,1.6-2.1,0.9-3.3c-0.7-1.2-2.1-1.6-3.3-0.9l-4.8,2.8c0.7-2.7,2.3-6,5.5-7.9
		c4.6-2.7,10.3-1,12.9,0.1C99.6,74.4,98.3,80.2,93.6,82.9"/>
</g>
</svg>
