<svg xmlns="http://www.w3.org/2000/svg" width="44" height="44" viewBox="0 0 44 44">
  <g fill="none">
    <path fill="#FFD764" d="M22,44 C9.8497355,44 1.55431223e-15,34.1502645 0,22 C-1.55431223e-15,9.8497355 9.8497355,-1.33226763e-15 22,-3.55271368e-15 C34.1502645,-5.77315973e-15 44,9.8497355 44,22 C43.9862228,34.1445532 34.1445532,43.9862228 22,44 Z"/>
    <path fill="#444" d="M12 23C10.7866133 23 9.6927044 22.2690735 9.2283614 21.1480503 8.7640184 20.0270271 9.02068567 18.7366736 9.87867966 17.8786797 10.7366736 17.0206857 12.0270271 16.7640184 13.1480503 17.2283614 14.2690735 17.6927044 15 18.7866133 15 20 15 21.6568542 13.6568542 23 12 23zM32 23C30.7866133 23 29.6927044 22.2690735 29.2283614 21.1480503 28.7640184 20.0270271 29.0206857 18.7366736 29.8786797 17.8786797 30.7366736 17.0206857 32.0270271 16.7640184 33.1480503 17.2283614 34.2690735 17.6927044 35 18.7866133 35 20 35 21.6568542 33.6568542 23 32 23zM22 37C18.7729648 36.992909 15.7953937 35.2629513 14.191 32.463 13.9303979 31.9853019 14.0995964 31.386909 14.571757 31.1164032 15.0439175 30.8458974 15.6457081 31.0025823 15.926 31.469 17.169165 33.651819 19.4879972 34.9997191 22 34.9997191 24.5120028 34.9997191 26.830835 33.651819 28.074 31.469 28.3542919 31.0025823 28.9560825 30.8458974 29.428243 31.1164032 29.9004036 31.386909 30.0696021 31.9853019 29.809 32.463 28.2046063 35.2629513 25.2270352 36.992909 22 37z"/>
  </g>
</svg>
