<svg width="18" height="18" viewBox="0 0 18 18" fill="none" xmlns="http://www.w3.org/2000/svg">
<path d="M12.7549 11.2539H11.9649L11.6849 10.9839C12.6649 9.84391 13.2549 8.36391 13.2549 6.75391C13.2549 3.16391 10.3449 0.253906 6.75488 0.253906C3.16488 0.253906 0.254883 3.16391 0.254883 6.75391C0.254883 10.3439 3.16488 13.2539 6.75488 13.2539C8.36488 13.2539 9.84488 12.6639 10.9849 11.6839L11.2549 11.9639V12.7539L16.2549 17.7439L17.7449 16.2539L12.7549 11.2539ZM6.75488 11.2539C4.26488 11.2539 2.25488 9.24391 2.25488 6.75391C2.25488 4.26391 4.26488 2.25391 6.75488 2.25391C9.24488 2.25391 11.2549 4.26391 11.2549 6.75391C11.2549 9.24391 9.24488 11.2539 6.75488 11.2539Z" fill="#001E2E" fill-opacity="0.6"/>
</svg>
