<?xml version="1.0" encoding="UTF-8"?>
<svg width="72px" height="98px" viewBox="0 0 72 98" version="1.1" xmlns="http://www.w3.org/2000/svg" xmlns:xlink="http://www.w3.org/1999/xlink">
    <!-- Generator: Sketch 50.2 (55047) - http://www.bohemiancoding.com/sketch -->
    <title>single-folded-content</title>
    <desc>Created with Sketch.</desc>
    <defs></defs>
    <g id="Receive" stroke="none" stroke-width="1" fill="none" fill-rule="evenodd">
        <g id="-2.1---Receive-(Tip)-Copy" transform="translate(-155.000000, -167.000000)" fill-rule="nonzero">
            <g id="single-folded-content" transform="translate(155.000000, 167.000000)">
                <path d="M68.2105263,98 L3.78947368,98 C1.69578947,98 0,96.3072826 0,94.2173913 L0,14.7826087 C0,12.6927174 1.69578947,11 3.78947368,11 L49.2631579,11 L72,33.6956522 L72,94.2173913 C72,96.3072826 70.3042105,98 68.2105263,98 Z" id="Shape" fill="#E6E6E6"></path>
                <path d="M49,11 L49,30.1666667 C49,32.2845833 50.7154167,34 52.8333333,34 L72,34 L49,11 Z" id="Shape" fill="#B3B3B3"></path>
                <g id="Group-2" transform="translate(10.000000, 49.000000)" fill="#B3B3B3">
                    <path d="M11.3178082,0 L1.25753425,0 C0.563375342,0 0,0.672 0,1.5 C0,2.328 0.563375342,3 1.25753425,3 L11.3178082,3 C12.0119671,3 12.5753425,2.328 12.5753425,1.5 C12.5753425,0.672 12.0119671,0 11.3178082,0 Z" id="Shape"></path>
                    <path d="M30.1808219,0 L20.1205479,0 C19.426389,0 18.8630137,0.672 18.8630137,1.5 C18.8630137,2.328 19.426389,3 20.1205479,3 L30.1808219,3 C30.8749808,3 31.4383562,2.328 31.4383562,1.5 C31.4383562,0.672 30.8749808,0 30.1808219,0 Z" id="Shape-Copy"></path>
                    <path d="M49.7424658,0 L39.6821918,0 C38.9880329,0 38.4246575,0.672 38.4246575,1.5 C38.4246575,2.328 38.9880329,3 39.6821918,3 L49.7424658,3 C50.4366247,3 51,2.328 51,1.5 C51,0.672 50.4366247,0 49.7424658,0 Z" id="Shape-Copy-2"></path>
                </g>
                <g id="Group-2-Copy" transform="translate(10.000000, 65.000000)" fill="#B3B3B3">
                    <path d="M11.3178082,0 L1.25753425,0 C0.563375342,0 0,0.672 0,1.5 C0,2.328 0.563375342,3 1.25753425,3 L11.3178082,3 C12.0119671,3 12.5753425,2.328 12.5753425,1.5 C12.5753425,0.672 12.0119671,0 11.3178082,0 Z" id="Shape"></path>
                    <path d="M30.1808219,0 L20.1205479,0 C19.426389,0 18.8630137,0.672 18.8630137,1.5 C18.8630137,2.328 19.426389,3 20.1205479,3 L30.1808219,3 C30.8749808,3 31.4383562,2.328 31.4383562,1.5 C31.4383562,0.672 30.8749808,0 30.1808219,0 Z" id="Shape-Copy"></path>
                    <path d="M49.7424658,0 L39.6821918,0 C38.9880329,0 38.4246575,0.672 38.4246575,1.5 C38.4246575,2.328 38.9880329,3 39.6821918,3 L49.7424658,3 C50.4366247,3 51,2.328 51,1.5 C51,0.672 50.4366247,0 49.7424658,0 Z" id="Shape-Copy-2"></path>
                </g>
                <g id="Group-2-Copy-3" transform="translate(10.000000, 80.000000)" fill="#B3B3B3">
                    <path d="M11.3178082,0 L1.25753425,0 C0.563375342,0 0,0.672 0,1.5 C0,2.328 0.563375342,3 1.25753425,3 L11.3178082,3 C12.0119671,3 12.5753425,2.328 12.5753425,1.5 C12.5753425,0.672 12.0119671,0 11.3178082,0 Z" id="Shape"></path>
                    <path d="M30.1808219,0 L20.1205479,0 C19.426389,0 18.8630137,0.672 18.8630137,1.5 C18.8630137,2.328 19.426389,3 20.1205479,3 L30.1808219,3 C30.8749808,3 31.4383562,2.328 31.4383562,1.5 C31.4383562,0.672 30.8749808,0 30.1808219,0 Z" id="Shape-Copy"></path>
                    <path d="M49.7424658,0 L39.6821918,0 C38.9880329,0 38.4246575,0.672 38.4246575,1.5 C38.4246575,2.328 38.9880329,3 39.6821918,3 L49.7424658,3 C50.4366247,3 51,2.328 51,1.5 C51,0.672 50.4366247,0 49.7424658,0 Z" id="Shape-Copy-2"></path>
                </g>
                <g id="lock-open" transform="translate(9.000000, 0.000000)">
                    <path d="M7.94117647,15.0416667 L7.94117647,8.70833333 C7.94117647,5.65261083 10.4348171,3.16666667 13.5,3.16666667 C16.5651829,3.16666667 19.0588235,5.65261083 19.0588235,8.70833333 L19.0588235,11.0833333 L22.2352941,11.0833333 L22.2352941,8.70833333 C22.2352941,3.90653458 18.316665,0 13.5,0 C8.683335,0 4.76470588,3.90653458 4.76470588,8.70833333 L4.76470588,15.0416667 L7.94117647,15.0416667 Z" id="Shape" fill="#B3B3B3"></path>
                    <path d="M25.4117647,38 L1.58823529,38 C0.711076765,38 0,37.2911179 0,36.4166667 L0,15.8333333 C0,14.9588821 0.711076765,14.25 1.58823529,14.25 L25.4117647,14.25 C26.2889232,14.25 27,14.9588821 27,15.8333333 L27,36.4166667 C27,37.2911179 26.2889232,38 25.4117647,38 Z" id="Shape" fill="#FDB455"></path>
                    <path d="M16.6764706,23.75 C16.6764706,22.0010738 15.2543409,20.5833333 13.5,20.5833333 C11.7457068,20.5833333 10.3235294,22.0010738 10.3235294,23.75 C10.3235294,24.9191413 10.9663279,25.92892 11.9117647,26.4774421 L11.9117647,31.6666667 L15.0882353,31.6666667 L15.0882353,26.4774421 C16.0337197,25.9288725 16.6764706,24.9191413 16.6764706,23.75 Z" id="Shape" fill="#878787"></path>
                </g>
            </g>
        </g>
    </g>
</svg>