<svg width="33" height="32" viewBox="0 0 33 32" fill="none" xmlns="http://www.w3.org/2000/svg">
<path fill-rule="evenodd" clip-rule="evenodd" d="M25.509 6.51951L25.5088 6.51763L25.5084 6.51484L25.5073 6.50728L25.5035 6.48459C25.5003 6.46627 25.4955 6.44159 25.4886 6.41186C25.4748 6.35266 25.4522 6.27181 25.4163 6.18021C25.3456 5.99973 25.2162 5.76028 24.983 5.56981C24.8356 5.44937 24.6579 5.39218 24.5031 5.36371C24.3451 5.33465 24.1838 5.33066 24.0453 5.33599C23.9054 5.34138 23.7793 5.35668 23.6887 5.37045C23.6431 5.37739 23.6057 5.38404 23.5791 5.3891L23.5474 5.39535L23.5382 5.39728L6.92161 8.71777H4.5V26.0511C4.5 26.7875 5.09695 27.3844 5.83333 27.3844H27.1667C27.903 27.3844 28.5 26.7875 28.5 26.0511V19.3981H24.5117V16.7314H28.5V8.71777H25.5117V6.54089L25.509 6.51951ZM23.6708 5.9856L9.99798 8.71777H24.8451V6.5249C24.8437 6.51785 24.8418 6.50882 24.8393 6.49809C24.8314 6.46411 24.8177 6.41478 24.7956 6.35841C24.7504 6.24294 24.6766 6.11526 24.5612 6.02098C24.5344 5.99904 24.4791 5.97203 24.3825 5.95427C24.2891 5.9371 24.1805 5.93284 24.0709 5.93706C23.9627 5.94122 23.8625 5.95326 23.7888 5.96445C23.7523 5.97 23.7231 5.97522 23.7036 5.97893L23.6821 5.98317L23.6772 5.98419L23.6708 5.9856ZM15.0938 12.4639H16.0706V13.8584C16.2144 13.8246 16.3644 13.8068 16.5185 13.8068C17.5974 13.8068 18.472 14.6816 18.472 15.7605C18.472 16.8395 17.5974 17.7141 16.5184 17.7141C15.4395 17.7141 14.5649 16.8394 14.5649 15.7604C14.5649 15.2433 14.7658 14.7731 15.0938 14.4236V12.4639ZM14.5649 19.6678C14.5648 18.5888 15.4395 17.7141 16.5184 17.7141C16.8848 17.7142 17.2439 17.8172 17.5545 18.0116V21.3225C17.244 21.5174 16.885 21.6206 16.5184 21.6213C15.4395 21.6213 14.5649 20.7467 14.5649 19.6678ZM14.5649 19.6678C14.5649 20.7467 13.6904 21.6214 12.6114 21.6214C12.4573 21.6214 12.3074 21.6036 12.1636 21.5698V22.9431H11.1868V21.0046C10.8587 20.6551 10.6578 20.1849 10.6578 19.6678C10.6578 18.5889 11.5325 17.7142 12.6114 17.7142C13.6904 17.7142 14.5649 18.5888 14.5649 19.6678ZM18.472 15.7605C18.472 15.2424 18.6778 14.7455 19.0442 14.3791C19.4105 14.0127 19.9074 13.8069 20.4256 13.8069V17.7141C19.9075 17.7141 19.4106 17.5083 19.0442 17.1419C18.6778 16.7755 18.472 16.2787 18.472 15.7605ZM12.5763 13.8069C12.9427 13.8069 13.3017 13.91 13.6123 14.1044V17.4153C13.3019 17.6101 12.9428 17.7141 12.5763 17.7141C11.4974 17.7141 10.6228 16.8395 10.6227 15.7605C10.6227 14.6816 11.4973 13.8069 12.5763 13.8069ZM18.7713 18.6349C18.5771 18.9452 18.4742 19.3038 18.4741 19.6698C18.4741 20.1874 18.6798 20.6838 19.0457 21.0497C19.2942 21.2981 19.6027 21.4727 19.9371 21.5591V22.942H20.9129V21.5595C21.2478 21.4731 21.5568 21.2984 21.8055 21.0497C22.1715 20.6837 22.3771 20.1874 22.3771 19.6698C22.3767 19.3037 22.2733 18.945 22.0786 18.6349H18.7713Z" fill="#7ED0FF"/>
</svg>
