<svg width="41" height="40" viewBox="0 0 41 40" fill="none" xmlns="http://www.w3.org/2000/svg">
<path d="M16.3187 10.833V15.833H11.3187V10.833H16.3187ZM18.8187 8.33301H8.81873V18.333H18.8187V8.33301ZM16.3187 24.1663V29.1663H11.3187V24.1663H16.3187ZM18.8187 21.6663H8.81873V31.6663H18.8187V21.6663ZM29.6521 10.833V15.833H24.6521V10.833H29.6521ZM32.1521 8.33301H22.1521V18.333H32.1521V8.33301ZM22.1521 21.6663H24.6521V24.1663H22.1521V21.6663ZM24.6521 24.1663H27.1521V26.6663H24.6521V24.1663ZM27.1521 21.6663H29.6521V24.1663H27.1521V21.6663ZM22.1521 26.6663H24.6521V29.1663H22.1521V26.6663ZM24.6521 29.1663H27.1521V31.6663H24.6521V29.1663ZM27.1521 26.6663H29.6521V29.1663H27.1521V26.6663ZM29.6521 24.1663H32.1521V26.6663H29.6521V24.1663ZM29.6521 29.1663H32.1521V31.6663H29.6521V29.1663ZM37.1521 11.6663H33.8187V6.66634H28.8187V3.33301H37.1521V11.6663ZM37.1521 36.6663V28.333H33.8187V33.333H28.8187V36.6663H37.1521ZM3.81873 36.6663H12.1521V33.333H7.15206V28.333H3.81873V36.6663ZM3.81873 3.33301V11.6663H7.15206V6.66634H12.1521V3.33301H3.81873Z" fill="#EDEFF0" fill-opacity="0.6"/>
</svg>
