<svg width="33" height="32" viewBox="0 0 33 32" fill="none" xmlns="http://www.w3.org/2000/svg">
<path fill-rule="evenodd" clip-rule="evenodd" d="M16.5493 4.00005C15.8777 3.99479 15.5998 4.41804 15.5998 4.41804L4.59853 15.4503H8.44054L16.5586 7.29562L24.6767 15.4503H28.5L24.4731 11.412V6.08423H21.8064V8.73784L17.4987 4.41804C17.4987 4.41804 17.2208 4.0053 16.5493 4.00005ZM25.9038 16.7708H23.2371V24.7708H9.90381V16.7708H7.23714V26.1042C7.23714 26.8405 7.8341 27.4375 8.57048 27.4375H24.5705C25.3069 27.4375 25.9038 26.8405 25.9038 26.1042V16.7708ZM18.5705 14.7708H14.5705V22.7708H18.5705V14.7708ZM19.2371 23.4375V14.1042H13.9038V23.4375H19.2371Z" fill="#E0E4E6" fill-opacity="0.6"/>
</svg>
