<svg width="32" height="32" viewBox="0 0 32 32" fill="none" xmlns="http://www.w3.org/2000/svg">
<path d="M12.655 8.66602V12.666H8.65497V8.66602H12.655ZM14.655 6.66602H6.65497V14.666H14.655V6.66602ZM12.655 19.3327V23.3327H8.65497V19.3327H12.655ZM14.655 17.3327H6.65497V25.3327H14.655V17.3327ZM23.3216 8.66602V12.666H19.3216V8.66602H23.3216ZM25.3216 6.66602H17.3216V14.666H25.3216V6.66602ZM17.3216 17.3327H19.3216V19.3327H17.3216V17.3327ZM19.3216 19.3327H21.3216V21.3327H19.3216V19.3327ZM21.3216 17.3327H23.3216V19.3327H21.3216V17.3327ZM17.3216 21.3327H19.3216V23.3327H17.3216V21.3327ZM19.3216 23.3327H21.3216V25.3327H19.3216V23.3327ZM21.3216 21.3327H23.3216V23.3327H21.3216V21.3327ZM23.3216 19.3327H25.3216V21.3327H23.3216V19.3327ZM23.3216 23.3327H25.3216V25.3327H23.3216V23.3327ZM29.3216 9.33268H26.655V5.33268H22.655V2.66602H29.3216V9.33268ZM29.3216 29.3327V22.666H26.655V26.666H22.655V29.3327H29.3216ZM2.65497 29.3327H9.32164V26.666H5.32164V22.666H2.65497V29.3327ZM2.65497 2.66602V9.33268H5.32164V5.33268H9.32164V2.66602H2.65497Z" fill="#00344B"/>
</svg>
