<svg width="41" height="40" viewBox="0 0 41 40" fill="none" xmlns="http://www.w3.org/2000/svg">
<path d="M16.3184 10.833V15.833H11.3184V10.833H16.3184ZM18.8184 8.33301H8.81836V18.333H18.8184V8.33301ZM16.3184 24.1663V29.1663H11.3184V24.1663H16.3184ZM18.8184 21.6663H8.81836V31.6663H18.8184V21.6663ZM29.6517 10.833V15.833H24.6517V10.833H29.6517ZM32.1517 8.33301H22.1517V18.333H32.1517V8.33301ZM22.1517 21.6663H24.6517V24.1663H22.1517V21.6663ZM24.6517 24.1663H27.1517V26.6663H24.6517V24.1663ZM27.1517 21.6663H29.6517V24.1663H27.1517V21.6663ZM22.1517 26.6663H24.6517V29.1663H22.1517V26.6663ZM24.6517 29.1663H27.1517V31.6663H24.6517V29.1663ZM27.1517 26.6663H29.6517V29.1663H27.1517V26.6663ZM29.6517 24.1663H32.1517V26.6663H29.6517V24.1663ZM29.6517 29.1663H32.1517V31.6663H29.6517V29.1663ZM37.1517 11.6663H33.8184V6.66634H28.8184V3.33301H37.1517V11.6663ZM37.1517 36.6663V28.333H33.8184V33.333H28.8184V36.6663H37.1517ZM3.81836 36.6663H12.1517V33.333H7.15169V28.333H3.81836V36.6663ZM3.81836 3.33301V11.6663H7.15169V6.66634H12.1517V3.33301H3.81836Z" fill="#001E2E" fill-opacity="0.38"/>
</svg>
