<svg width="41" height="40" viewBox="0 0 41 40" fill="none" xmlns="http://www.w3.org/2000/svg">
<path fill-rule="evenodd" clip-rule="evenodd" d="M20.5615 5.00006C19.722 4.99349 19.3746 5.52255 19.3746 5.52255L5.62305 19.3129H10.4256L20.5732 9.11953L30.7208 19.3129H35.4999L30.4662 14.265V7.60539H27.1329V10.9223L21.7483 5.52255C21.7483 5.52255 21.4009 5.00663 20.5615 5.00006ZM28.9213 20.9635H32.2546V32.6302C32.2546 33.5507 31.5084 34.2969 30.5879 34.2969H10.588C9.66748 34.2969 8.92129 33.5507 8.92129 32.6302V20.9635H12.2546V30.9635H28.9213V20.9635ZM23.088 18.4635H18.088V28.4635H23.088V18.4635ZM23.9213 29.2969V17.6302H17.2546V29.2969H23.9213Z" fill="#007FB1"/>
</svg>
