<svg width="33" height="32" viewBox="0 0 33 32" fill="none" xmlns="http://www.w3.org/2000/svg">
<path fill-rule="evenodd" clip-rule="evenodd" d="M25.4973 6.50779L25.497 6.50591L25.4967 6.50312L25.4955 6.49556L25.4918 6.47287C25.4886 6.45455 25.4838 6.42988 25.4769 6.40014C25.4631 6.34094 25.4405 6.26009 25.4046 6.16849C25.3338 5.98801 25.2044 5.74856 24.9713 5.5581C24.8239 5.43766 24.6462 5.38046 24.4914 5.35199C24.3333 5.32294 24.1721 5.31895 24.0336 5.32428C23.8937 5.32966 23.7676 5.34497 23.677 5.35874C23.6313 5.36567 23.5939 5.37233 23.5674 5.37738L23.5357 5.38363L23.5265 5.38557L6.90989 8.70605H4.48828V26.0394C4.48828 26.7758 5.08524 27.3727 5.82162 27.3727H27.1549C27.8913 27.3727 28.4883 26.7758 28.4883 26.0394V19.9674H28.5V17.3008H28.4883V8.70605H25.5V6.52917L25.4973 6.50779ZM23.6591 5.97388L9.98626 8.70605H24.8334V6.51318C24.832 6.50613 24.8301 6.4971 24.8276 6.48637C24.8197 6.45239 24.806 6.40306 24.7839 6.34669C24.7387 6.23122 24.6649 6.10354 24.5495 6.00926C24.5227 5.98733 24.4674 5.96031 24.3708 5.94256C24.2774 5.92538 24.1688 5.92112 24.0592 5.92534C23.951 5.92951 23.8508 5.94154 23.7771 5.95273C23.7406 5.95828 23.7114 5.9635 23.6918 5.96721L23.6704 5.97145L23.6655 5.97247L23.6591 5.97388ZM25.8333 17.3008V11.3835H7.16667V24.7168H25.8333V19.9674H24.5V17.3008H25.8333ZM16.059 12.4521H15.0822V14.4119C14.7541 14.7614 14.5532 15.2316 14.5532 15.7487C14.5532 16.8276 15.4278 17.7024 16.5068 17.7024C15.4278 17.7024 14.5532 18.5771 14.5532 19.6561C14.5532 18.5771 13.6787 17.7025 12.5998 17.7025C11.5208 17.7025 10.6462 18.5771 10.6462 19.6561C10.6462 20.1732 10.8471 20.6434 11.1751 20.9929V22.9314H12.1519V21.5581C12.2957 21.5919 12.4457 21.6097 12.5998 21.6097C13.6787 21.6097 14.5532 20.735 14.5532 19.6561C14.5533 20.735 15.4279 21.6096 16.5068 21.6096C16.8733 21.6088 17.2324 21.5056 17.5428 21.3108V17.9999C17.2322 17.8055 16.8732 17.7024 16.5068 17.7024C17.5857 17.7024 18.4604 16.8278 18.4604 15.7488C18.4604 16.2669 18.6662 16.7638 19.0326 17.1302C19.3989 17.4965 19.8958 17.7024 20.4139 17.7024V13.7952C19.8958 13.7952 19.3989 14.001 19.0325 14.3674C18.6662 14.7338 18.4604 15.2307 18.4604 15.7488C18.4604 14.6699 17.5858 13.7951 16.5068 13.7951C16.3527 13.7951 16.2028 13.8129 16.059 13.8467V12.4521ZM13.6007 14.0926C13.2901 13.8983 12.9311 13.7952 12.5646 13.7952C11.4857 13.7952 10.6111 14.6699 10.6111 15.7488C10.6111 16.8277 11.4857 17.7024 12.5646 17.7024C12.9312 17.7024 13.2902 17.5984 13.6007 17.4036V14.0926ZM18.4625 19.6581C18.4625 19.2921 18.5655 18.9335 18.7596 18.6232H22.067C22.2616 18.9333 22.3651 19.292 22.3655 19.6581C22.3655 20.1757 22.1599 20.672 21.7939 21.038C21.5452 21.2867 21.2362 21.4614 20.9012 21.5478V22.9303H19.9255V21.5474C19.591 21.4609 19.2825 21.2864 19.0341 21.038C18.6681 20.672 18.4625 20.1757 18.4625 19.6581Z" fill="#7ED0FF"/>
</svg>
