<svg width="41" height="40" viewBox="0 0 41 40" fill="none" xmlns="http://www.w3.org/2000/svg">
<path fill-rule="evenodd" clip-rule="evenodd" d="M31.7466 8.13425L31.7463 8.1319L31.7458 8.12841L31.7444 8.11896L31.7398 8.0906C31.7358 8.0677 31.7297 8.03686 31.7211 7.99968C31.7038 7.92568 31.6756 7.82462 31.6307 7.71012C31.5423 7.48452 31.3805 7.18522 31.0891 6.94713C30.9049 6.79658 30.6828 6.72509 30.4892 6.6895C30.2917 6.65318 30.0901 6.64819 29.917 6.65486C29.7421 6.66159 29.5845 6.68072 29.4712 6.69793C29.4142 6.7066 29.3674 6.71492 29.3342 6.72124L29.2946 6.72905L29.2831 6.73147L8.51236 10.8821H5.48535V32.5487C5.48535 33.4692 6.23154 34.2154 7.15202 34.2154H33.8187C34.7392 34.2154 35.4854 33.4692 35.4854 32.5487V24.2324H35.5V20.8991H35.4854V10.8821H31.75L31.75 8.16097L31.7466 8.13425ZM29.4489 7.46686L12.3578 10.8821H30.9167V8.14099C30.915 8.13218 30.9126 8.12089 30.9095 8.10748C30.8996 8.065 30.8825 8.00334 30.8549 7.93287C30.7983 7.78854 30.7061 7.62893 30.5619 7.51109C30.5283 7.48367 30.4592 7.4499 30.3385 7.42771C30.2218 7.40624 30.086 7.40091 29.949 7.40619C29.8137 7.41139 29.6884 7.42644 29.5964 7.44043C29.5507 7.44736 29.5142 7.45389 29.4898 7.45853L29.4629 7.46383L29.4569 7.4651L29.4489 7.46686ZM32.1667 20.8991V14.2288H8.83333V30.8955H32.1667V24.2324H30.5V20.8991H32.1667ZM19.9488 15.5647H18.7277V18.0144C18.3177 18.4512 18.0665 19.039 18.0665 19.6854C18.0665 21.0341 19.1598 22.1275 20.5085 22.1275C19.1598 22.1275 18.0665 23.2209 18.0665 24.5696C18.0665 23.2209 16.9734 22.1276 15.6247 22.1276C14.276 22.1276 13.1827 23.2209 13.1827 24.5696C13.1827 25.216 13.4339 25.8038 13.8439 26.2406V28.6637H15.0649V26.9472C15.2447 26.9893 15.4321 27.0116 15.6247 27.0116C16.9734 27.0116 18.0665 25.9183 18.0665 24.5696C18.0666 25.9182 19.1598 27.0115 20.5085 27.0115C20.9667 27.0106 21.4154 26.8816 21.8035 26.638V22.4994C21.4153 22.2564 20.9665 22.1276 20.5085 22.1275C21.8572 22.1275 22.9505 21.0342 22.9505 19.6855C22.9505 20.3332 23.2078 20.9543 23.6657 21.4122C24.1237 21.8702 24.7448 22.1275 25.3924 22.1275V17.2435C24.7448 17.2435 24.1236 17.5008 23.6657 17.9588C23.2077 18.4167 22.9504 19.0379 22.9505 19.6855C22.9505 18.3368 21.8572 17.2434 20.5085 17.2434C20.3159 17.2434 20.1285 17.2657 19.9488 17.3078V15.5647ZM16.8759 17.6153C16.4876 17.3724 16.0388 17.2435 15.5808 17.2435C14.2321 17.2435 13.1388 18.3369 13.1389 19.6855C13.1389 21.0342 14.2322 22.1275 15.5808 22.1275C16.039 22.1275 16.4878 21.9975 16.8759 21.754V17.6153ZM22.9531 24.5721C22.9532 24.1146 23.0819 23.6663 23.3246 23.2785H27.4587C27.702 23.6662 27.8313 24.1145 27.8319 24.5721C27.8318 25.2191 27.5748 25.8395 27.1174 26.297C26.8064 26.6079 26.4202 26.8262 26.0015 26.9342V28.6624H24.7818V26.9338C24.3638 26.8257 23.9782 26.6075 23.6676 26.297C23.2101 25.8396 22.9531 25.2191 22.9531 24.5721Z" fill="#7ED0FF"/>
</svg>
