<svg width="33" height="32" viewBox="0 0 33 32" fill="none" xmlns="http://www.w3.org/2000/svg">
<path fill-rule="evenodd" clip-rule="evenodd" d="M16.5494 4.00005C15.8778 3.99479 15.5999 4.41804 15.5999 4.41804L4.59863 15.4503H8.44064L16.5587 7.29562L24.6768 15.4503H28.5001L24.4732 11.412V6.08431H21.8065V8.73784L17.4988 4.41804C17.4988 4.41804 17.2209 4.0053 16.5494 4.00005ZM23.2372 16.7708H25.9039V26.1042C25.9039 26.8405 25.3069 27.4375 24.5706 27.4375H8.57056C7.83418 27.4375 7.23723 26.8405 7.23723 26.1042V16.7708H9.90389V24.7708H23.2372V16.7708ZM18.5706 14.7708H14.5706V22.7708H18.5706V14.7708ZM19.2372 23.4375V14.1042H13.9039V23.4375H19.2372Z" fill="#7ED0FF"/>
</svg>
