<svg width="41" height="40" viewBox="0 0 41 40" fill="none" xmlns="http://www.w3.org/2000/svg">
<path fill-rule="evenodd" clip-rule="evenodd" d="M31.7466 8.13522L31.7463 8.13287L31.7458 8.12939L31.7444 8.11994L31.7398 8.09158C31.7358 8.06868 31.7297 8.03783 31.7211 8.00066C31.7038 7.92666 31.6756 7.8256 31.6307 7.7111C31.5423 7.4855 31.3805 7.18619 31.0891 6.94811C30.9049 6.79756 30.6828 6.72607 30.4892 6.69047C30.2917 6.65416 30.0901 6.64917 29.917 6.65583C29.7421 6.66256 29.5845 6.6817 29.4712 6.69891C29.4142 6.70757 29.3674 6.7159 29.3342 6.72221L29.2946 6.73002L29.2831 6.73245L8.51236 10.8831H5.48535V32.5497C5.48535 33.4702 6.23154 34.2164 7.15202 34.2164H33.8187C34.7392 34.2164 35.4854 33.4702 35.4854 32.5497V24.2334H35.5V20.9001H35.4854V10.8831H31.75L31.75 8.16195L31.7466 8.13522ZM29.4489 7.46784L12.3578 10.8831H30.9167V8.14197C30.915 8.13315 30.9126 8.12186 30.9095 8.10845C30.8996 8.06597 30.8825 8.00431 30.8549 7.93385C30.7983 7.78952 30.7061 7.62991 30.5619 7.51206C30.5283 7.48465 30.4592 7.45088 30.3385 7.42868C30.2218 7.40721 30.086 7.40189 29.949 7.40716C29.8137 7.41237 29.6884 7.42742 29.5964 7.4414C29.5507 7.44834 29.5142 7.45487 29.4898 7.4595L29.4629 7.4648L29.4569 7.46608L29.4489 7.46784ZM32.1667 20.9001V14.2298H8.83333V30.8965H32.1667V24.2334H30.5V20.9001H32.1667ZM19.9488 15.5657H18.7277V18.0154C18.3177 18.4522 18.0665 19.0399 18.0665 19.6864C18.0665 21.035 19.1598 22.1285 20.5085 22.1285C19.1598 22.1285 18.0665 23.2219 18.0665 24.5706C18.0665 23.2219 16.9734 22.1286 15.6247 22.1286C14.276 22.1286 13.1827 23.2219 13.1827 24.5706C13.1827 25.217 13.4339 25.8048 13.8439 26.2416V28.6647H15.0649V26.9482C15.2447 26.9903 15.4321 27.0126 15.6247 27.0126C16.9734 27.0126 18.0665 25.9192 18.0665 24.5706C18.0666 25.9192 19.1598 27.0125 20.5085 27.0125C20.9667 27.0115 21.4154 26.8825 21.8035 26.639V22.5003C21.4153 22.2574 20.9665 22.1285 20.5085 22.1285C21.8572 22.1285 22.9505 21.0352 22.9505 19.6865C22.9505 20.3342 23.2078 20.9553 23.6657 21.4132C24.1237 21.8712 24.7448 22.1284 25.3924 22.1285V17.2444C24.7448 17.2445 24.1236 17.5018 23.6657 17.9597C23.2077 18.4177 22.9504 19.0389 22.9505 19.6865C22.9505 18.3378 21.8572 17.2443 20.5085 17.2443C20.3159 17.2443 20.1285 17.2666 19.9488 17.3088V15.5657ZM16.8759 17.6163C16.4876 17.3734 16.0388 17.2445 15.5808 17.2444C14.2321 17.2445 13.1388 18.3378 13.1389 19.6865C13.1389 21.0352 14.2322 22.1284 15.5808 22.1285C16.039 22.1285 16.4878 21.9985 16.8759 21.7549V17.6163ZM22.9531 24.5731C22.9532 24.1156 23.0819 23.6673 23.3246 23.2794H27.4587C27.702 23.6671 27.8313 24.1154 27.8319 24.5731C27.8318 25.2201 27.5748 25.8405 27.1174 26.2979C26.8064 26.6089 26.4202 26.8272 26.0015 26.9352V28.6634H24.7818V26.9348C24.3638 26.8267 23.9782 26.6085 23.6676 26.298C23.2101 25.8405 22.9531 25.2201 22.9531 24.5731Z" fill="#EDEFF0" fill-opacity="0.6"/>
</svg>
