<svg width="32" height="32" viewBox="0 0 32 32" fill="none" xmlns="http://www.w3.org/2000/svg">
<path d="M12.6553 8.66699V12.667H8.65527V8.66699H12.6553ZM14.6553 6.66699H6.65527V14.667H14.6553V6.66699ZM12.6553 19.3337V23.3337H8.65527V19.3337H12.6553ZM14.6553 17.3337H6.65527V25.3337H14.6553V17.3337ZM23.3219 8.66699V12.667H19.3219V8.66699H23.3219ZM25.3219 6.66699H17.3219V14.667H25.3219V6.66699ZM17.3219 17.3337H19.3219V19.3337H17.3219V17.3337ZM19.3219 19.3337H21.3219V21.3337H19.3219V19.3337ZM21.3219 17.3337H23.3219V19.3337H21.3219V17.3337ZM17.3219 21.3337H19.3219V23.3337H17.3219V21.3337ZM19.3219 23.3337H21.3219V25.3337H19.3219V23.3337ZM21.3219 21.3337H23.3219V23.3337H21.3219V21.3337ZM23.3219 19.3337H25.3219V21.3337H23.3219V19.3337ZM23.3219 23.3337H25.3219V25.3337H23.3219V23.3337ZM29.3219 9.33366H26.6553V5.33366H22.6553V2.66699H29.3219V9.33366ZM29.3219 29.3337V22.667H26.6553V26.667H22.6553V29.3337H29.3219ZM2.65527 29.3337H9.32194V26.667H5.32194V22.667H2.65527V29.3337ZM2.65527 2.66699V9.33366H5.32194V5.33366H9.32194V2.66699H2.65527Z" fill="#0B1D28"/>
</svg>
