<svg width="41" height="40" viewBox="0 0 41 40" fill="none" xmlns="http://www.w3.org/2000/svg">
<path fill-rule="evenodd" clip-rule="evenodd" d="M20.5616 5.00006C19.7221 4.99349 19.3748 5.52255 19.3748 5.52255L5.62317 19.3129H10.4257L20.5733 9.11953L30.7209 19.3129H35.5L30.4663 14.265V7.60539H27.133V10.9223L21.7484 5.52255C21.7484 5.52255 21.4011 5.00663 20.5616 5.00006ZM28.9214 20.9635H32.2547V32.6302C32.2547 33.5507 31.5085 34.2969 30.5881 34.2969H10.5881C9.6676 34.2969 8.92141 33.5507 8.92141 32.6302V20.9635H12.2547V30.9635H28.9214V20.9635ZM23.0881 18.4635H18.0881V28.4635H23.0881V18.4635ZM23.9214 29.2969V17.6302H17.2547V29.2969H23.9214Z" fill="#EDEFF0" fill-opacity="0.6"/>
</svg>
