<svg width="33" height="32" viewBox="0 0 33 32" fill="none" xmlns="http://www.w3.org/2000/svg">
<path fill-rule="evenodd" clip-rule="evenodd" d="M28.4883 8.73835H4.48828V26.0717C4.48828 26.8081 5.08524 27.405 5.82162 27.405H27.1549C27.8913 27.405 28.4883 26.8081 28.4883 26.0717V8.73835ZM25.8216 11.405H7.15495V24.7384H25.8216V11.405Z" fill="#E0E4E6" fill-opacity="0.6"/>
<path fill-rule="evenodd" clip-rule="evenodd" d="M20.4139 13.8276C19.8958 13.8276 19.3989 14.0334 19.0325 14.3998C18.6662 14.7662 18.4604 15.2631 18.4604 15.7812C18.4604 16.2993 18.6662 16.7962 19.0326 17.1626C19.3989 17.5289 19.8958 17.7348 20.4139 17.7348V13.8276Z" fill="#E0E4E6" fill-opacity="0.6"/>
<path fill-rule="evenodd" clip-rule="evenodd" d="M17.5428 18.0323C17.2322 17.8379 16.8732 17.7348 16.5068 17.7348C15.4278 17.7348 14.5532 18.6095 14.5532 19.6884C14.5533 20.7674 15.4279 21.642 16.5068 21.642C16.8733 21.6412 17.2324 21.538 17.5428 21.3432V18.0323Z" fill="#E0E4E6" fill-opacity="0.6"/>
<path fill-rule="evenodd" clip-rule="evenodd" d="M13.6007 14.125C13.2901 13.9307 12.9311 13.8276 12.5646 13.8276C11.4857 13.8276 10.6111 14.7023 10.6111 15.7812C10.6111 16.8601 11.4857 17.7347 12.5646 17.7348C12.9312 17.7348 13.2902 17.6308 13.6007 17.436V14.125Z" fill="#E0E4E6" fill-opacity="0.6"/>
<path fill-rule="evenodd" clip-rule="evenodd" d="M14.5532 19.6884C14.5532 20.7674 13.6787 21.6421 12.5998 21.6421C12.4457 21.6421 12.2957 21.6243 12.1519 21.5905V22.9638H11.1751V21.0253C10.8471 20.6758 10.6462 20.2056 10.6462 19.6885C10.6462 18.6095 11.5208 17.7349 12.5998 17.7349C13.6787 17.7349 14.5532 18.6095 14.5532 19.6884Z" fill="#E0E4E6" fill-opacity="0.6"/>
<path fill-rule="evenodd" clip-rule="evenodd" d="M18.4625 19.6905C18.4625 19.3245 18.5655 18.9658 18.7596 18.6556H22.067C22.2616 18.9657 22.365 19.3243 22.3655 19.6905C22.3655 20.208 22.1599 20.7044 21.7939 21.0704C21.5451 21.3191 21.2362 21.4938 20.9012 21.5802V22.9627H19.9255V21.5798C19.591 21.4933 19.2825 21.3188 19.0341 21.0704C18.6681 20.7044 18.4625 20.2081 18.4625 19.6905Z" fill="#E0E4E6" fill-opacity="0.6"/>
<path fill-rule="evenodd" clip-rule="evenodd" d="M15.0822 12.4845H16.059V13.8791C16.2028 13.8453 16.3527 13.8275 16.5068 13.8275C17.5858 13.8275 18.4604 14.7023 18.4604 15.7812C18.4604 16.8602 17.5857 17.7348 16.5068 17.7348C15.4278 17.7348 14.5532 16.86 14.5532 15.7811C14.5532 15.264 14.7541 14.7938 15.0822 14.4443V12.4845Z" fill="#E0E4E6" fill-opacity="0.6"/>
<path d="M24.4883 16.7384H28.4883V19.405H24.4883V16.7384Z" fill="#E0E4E6" fill-opacity="0.6"/>
<path fill-rule="evenodd" clip-rule="evenodd" d="M23.6537 6.04832L23.6474 6.04973L8.52406 9.07174L24.8216 9.07174V6.58903C24.8202 6.58198 24.8184 6.57295 24.8159 6.56222C24.8079 6.52824 24.7943 6.47891 24.7722 6.42254C24.7269 6.30707 24.6532 6.17939 24.5378 6.08511C24.5109 6.06318 24.4556 6.03616 24.3591 6.01841C24.2656 6.00123 24.1571 5.99697 24.0475 6.00119C23.9392 6.00536 23.839 6.01739 23.7654 6.02858C23.7288 6.03413 23.6996 6.03935 23.6801 6.04306L23.6586 6.0473L23.6537 6.04832ZM25.155 6.56124C25.4856 6.51876 25.4856 6.51864 25.4855 6.51853L25.4853 6.51665L25.4849 6.51386L25.4838 6.5063L25.4801 6.48362C25.4769 6.46529 25.472 6.44062 25.4651 6.41088C25.4513 6.35168 25.4288 6.27083 25.3928 6.17923C25.3221 5.99875 25.1927 5.75931 24.9596 5.56884C24.8121 5.4484 24.6345 5.3912 24.4796 5.36273C24.3216 5.33368 24.1603 5.32969 24.0218 5.33502C23.8819 5.3404 23.7559 5.35571 23.6652 5.36948C23.6196 5.37641 23.5822 5.38307 23.5556 5.38812L23.524 5.39437L23.5147 5.39631L5.08958 9.0782L5.1549 9.73841H25.4883L25.4883 6.53991L25.4855 6.51853L25.155 6.56124Z" fill="#E0E4E6" fill-opacity="0.6"/>
</svg>
