<?xml version="1.0" encoding="UTF-8"?>
<svg width="19px" height="21px" viewBox="0 0 19 21" version="1.1" xmlns="http://www.w3.org/2000/svg" xmlns:xlink="http://www.w3.org/1999/xlink">
    <!-- Generator: Sketch 62 (91390) - https://sketch.com -->
    <title>tags-stack</title>
    <desc>Created with Sketch.</desc>
    <g id="Cards" stroke="none" stroke-width="1" fill="none" fill-rule="evenodd">
        <g id="Artboard-Copy" transform="translate(-93.000000, -578.000000)">
            <g id="tags-stack" transform="translate(93.000000, 578.000000)">
                <path d="M18.3776011,9.05581085 L9.95058476,0.135000162 C9.8713889,0.0494464492 9.76324379,0.000858692949 9.65010561,0 L2.42500587,0 C2.19028161,0 2,0.201472104 2,0.450000539 L2,8.10000971 C2,8.21934752 2.04481713,8.33378826 2.12452672,8.41816009 L10.5515431,17.3421208 C11.381997,18.2192931 12.7263056,18.2192931 13.5567595,17.3421208 L18.3776011,12.2400147 C19.2074663,11.3604627 19.2074663,9.93536278 18.3776011,9.05581085 Z M5.40004694,9.45001132 C4.4611499,9.45001132 3.70002347,8.64412291 3.70002347,7.65000917 C3.70002347,6.65589543 4.4611499,5.85000701 5.40004694,5.85000701 C6.33894397,5.85000701 7.10007041,6.65589543 7.10007041,7.65000917 C7.10007041,8.64412291 6.33894397,9.45001132 5.40004694,9.45001132 Z" id="Shape" fill-opacity="0.318673514" fill="#2FCFA4" fill-rule="nonzero"></path>
                <path d="M16.378623,12.05514 L7.95108086,3.13186005 C7.87139038,3.0474564 7.76329935,3 7.65058296,3 L0.425032387,3 C0.190293481,3 0,3.20148722 0,3.45003429 L0,11.1006173 C0,11.219964 0.0448199309,11.3344133 0.124534489,11.4187915 L8.55207665,20.3420714 C9.3825824,21.2193095 10.7269749,21.2193095 11.5574807,20.3420714 L16.378623,15.2373325 C17.2071257,14.3579734 17.2071257,12.934499 16.378623,12.05514 Z M4.67535625,9.75051438 C3.73640063,9.75051438 2.97522671,8.94456552 2.97522671,7.95037721 C2.97522671,6.95618891 3.73640063,6.15024004 4.67535625,6.15024004 C5.61431188,6.15024004 6.3754858,6.95618891 6.3754858,7.95037721 C6.3754858,8.94456552 5.61431188,9.75051438 4.67535625,9.75051438 Z" id="Shape" fill="#2FCFA4" fill-rule="nonzero"></path>
                <circle id="Oval" cx="4.5" cy="7.5" r="1.5"></circle>
            </g>
        </g>
    </g>
</svg>