<?xml version="1.0" encoding="UTF-8"?>
<svg width="39px" height="39px" viewBox="0 0 39 39" version="1.1" xmlns="http://www.w3.org/2000/svg" xmlns:xlink="http://www.w3.org/1999/xlink">
    <!-- Generator: Sketch 53.2 (72643) - https://sketchapp.com -->
    <title>Icon</title>
    <desc>Created with Sketch.</desc>
    <defs>
        <circle id="path-1" cx="19.5" cy="19.5" r="19.5"></circle>
    </defs>
    <g id="Symbols" stroke="none" stroke-width="1" fill="none" fill-rule="evenodd">
        <g id="List/Item/Wallet" transform="translate(-25.000000, -16.000000)">
            <g id="Card/Item/Wallet">
                <g id="Large-(50px)/vault" transform="translate(25.000000, 16.000000)">
                    <g id="single-circle-39">
                        <mask id="mask-2" fill="white">
                            <use xlink:href="#path-1"></use>
                        </mask>
                        <use id="Oval" fill="#4F6EF7" xlink:href="#path-1"></use>
                        <g id="lock" mask="url(#mask-2)" fill="#FFFFFF">
                            <g transform="translate(9.551020, 10.346939)" id="Path-2">
                                <path d="M3.33772219,10.2332362 L3.33772219,7.03534985 C3.33772219,3.15603876 6.33230832,0 10.0131666,0 C13.6940248,0 16.6886109,3.15603876 16.6886109,7.03534985 L16.6886109,10.2332362 L19.4765906,10.2332362 C20.1488799,10.2332362 20.6938776,10.783025 20.6938776,11.4612245 L20.6938776,27.4250729 C20.6938776,28.1032724 20.1488799,28.6530612 19.4765906,28.6530612 L1.21728691,28.6530612 C0.544997611,28.6530612 0,28.1032724 0,27.4250729 L0,11.4612245 C0,10.783025 0.544997611,10.2332362 1.21728691,10.2332362 L3.33772219,10.2332362 Z M5.7651565,10.2332362 L14.2611766,10.2332362 L14.2611766,7.03534985 C14.2611766,4.56667117 12.3555557,2.55830904 10.0131666,2.55830904 C7.6707774,2.55830904 5.7651565,4.56667117 5.7651565,7.03534985 L5.7651565,10.2332362 Z M12.6833443,17.5426905 C12.6833443,16.1432122 11.637318,15.0087464 10.3469388,15.0087464 C9.05659457,15.0087464 8.01053325,16.1432122 8.01053325,17.5426905 C8.01053325,18.4782291 8.48333411,19.2862469 9.17873601,19.7251703 L9.17873601,23.877551 L11.5151415,23.877551 L11.5151415,19.7251703 C12.2105785,19.2862089 12.6833443,18.4782291 12.6833443,17.5426905 Z" style="mix-blend-mode: overlay;"></path>
                            </g>
                        </g>
                    </g>
                </g>
            </g>
        </g>
    </g>
</svg>