<?xml version="1.0" encoding="UTF-8"?>
<svg width="328px" height="328px" viewBox="0 0 328 328" version="1.1" xmlns="http://www.w3.org/2000/svg" xmlns:xlink="http://www.w3.org/1999/xlink">
    <!-- Generator: Sketch 58 (84663) - https://sketch.com -->
    <title>Artboard Copy 3</title>
    <desc>Created with Sketch.</desc>
    <defs>
        <linearGradient x1="50%" y1="98.6987965%" x2="50%" y2="0%" id="linearGradient-1">
            <stop stop-color="#0C204E" offset="0%"></stop>
            <stop stop-color="#1A3663" offset="100%"></stop>
        </linearGradient>
        <path d="M2.14998073,11.1694207 L0.165414474,62.0413812 C14.5585108,69.1271913 30.7548694,73.1068985 47.8813788,73.1068985 L47.8813788,73.1068985 C66.7174427,73.1068985 84.4290141,68.2927037 99.8533026,59.8268109 L99.8533026,59.8268109 L101.509892,0.0252628078" id="path-2"></path>
        <path d="M2.14998073,11.1694207 L0.165414474,62.0413812 C14.5585108,69.1271913 30.7548694,73.1068985 47.8813788,73.1068985 L47.8813788,73.1068985 C66.7174427,73.1068985 84.4290141,68.2927037 99.8533026,59.8268109 L99.8533026,59.8268109 L101.509892,0.0252628078" id="path-4"></path>
        <path d="M2.14998073,11.1694207 L0.165414474,62.0413812 C14.5585108,69.1271913 30.7548694,73.1068985 47.8813788,73.1068985 L47.8813788,73.1068985 C66.7174427,73.1068985 84.4290141,68.2927037 99.8533026,59.8268109 L99.8533026,59.8268109 L101.509892,0.0252628078" id="path-6"></path>
        <path d="M2.14998073,11.1694207 L0.165414474,62.0413812 C14.5585108,69.1271913 30.7548694,73.1068985 47.8813788,73.1068985 L47.8813788,73.1068985 C66.7174427,73.1068985 84.4290141,68.2927037 99.8533026,59.8268109 L99.8533026,59.8268109 L101.509892,0.0252628078" id="path-8"></path>
        <linearGradient x1="46.8075569%" y1="73.9896434%" x2="50%" y2="30.9418429%" id="linearGradient-10">
            <stop stop-color="#096CFF" stop-opacity="0.502458479" offset="0%"></stop>
            <stop stop-color="#8DBBFF" stop-opacity="0" offset="100%"></stop>
        </linearGradient>
        <linearGradient x1="50%" y1="0%" x2="50%" y2="100%" id="linearGradient-11">
            <stop stop-color="#9EC9FF" stop-opacity="0.221563593" offset="0%"></stop>
            <stop stop-color="#2F57A3" offset="100%"></stop>
        </linearGradient>
        <linearGradient x1="45.912898%" y1="0%" x2="45.912898%" y2="27.7717532%" id="linearGradient-12">
            <stop stop-color="#5C88CD" offset="0%"></stop>
            <stop stop-color="#4A7AC6" offset="100%"></stop>
        </linearGradient>
        <linearGradient x1="53.8522673%" y1="4.5502428%" x2="51.9163945%" y2="75.611516%" id="linearGradient-13">
            <stop stop-color="#5C90D0" stop-opacity="0.417722902" offset="0%"></stop>
            <stop stop-color="#2F57A3" offset="100%"></stop>
        </linearGradient>
    </defs>
    <g id="Artboard-Copy-3" stroke="none" stroke-width="1" fill="none" fill-rule="evenodd">
        <g id="Group">
            <path d="M328,164 C328,254.575194 254.574714,328 164.000309,328 C73.4252857,328 0,254.575194 0,164 C0,73.4248063 73.4252857,0 164.000309,0 C254.574714,0 328,73.4248063 328,164" id="Fill-1" fill="url(#linearGradient-1)"></path>
            <g id="Group-182" transform="translate(40.000000, 60.000000)">
                <g id="Group-15" transform="translate(48.965539, 160.833221)">
                    <g id="Group-5">
                        <mask id="mask-3" fill="white">
                            <use xlink:href="#path-2"></use>
                        </mask>
                        <g id="Clip-4"></g>
                        <path d="M16.8492568,27.3381474 C23.9588198,12.840148 81.1270397,18.4199688 81.1270397,18.4199688 C81.1270397,18.4199688 94.5023889,72.2998332 94.8996281,97.7916361 L6.86083012,97.274156 C6.86083012,97.274156 9.6830618,41.9522742 16.8492568,27.3381474" id="Fill-3" fill="#171A36" mask="url(#mask-3)"></path>
                    </g>
                    <g id="Group-8">
                        <mask id="mask-5" fill="white">
                            <use xlink:href="#path-4"></use>
                        </mask>
                        <g id="Clip-7"></g>
                        <path d="M60.7265867,38.255755 L51.6524213,97.2427812 L69.8003447,97.6209084 C69.8003447,97.6209084 67.910301,93.8396366 61.8608574,81.3618469 C55.8114138,68.8836497 66.0198499,43.5495356 60.7265867,38.255755" id="Fill-6" fill="#020202" mask="url(#mask-5)"></path>
                    </g>
                    <g id="Group-11">
                        <mask id="mask-7" fill="white">
                            <use xlink:href="#path-6"></use>
                        </mask>
                        <g id="Clip-10"></g>
                        <path d="M12.3252117,97.4025889 C12.3186929,97.4025889 12.3121741,97.4025889 12.3056553,97.401774 C12.1606121,97.3911799 12.0518297,97.2648658 12.0624227,97.1202159 C12.1052023,96.5452833 16.3831628,39.5124575 21.5986078,26.7991532 C21.6540176,26.6646899 21.8076168,26.6003104 21.942067,26.6553182 C22.0765172,26.7103259 22.1408903,26.8643475 22.0858879,26.9988109 C16.9014072,39.6359192 12.6299655,96.5852148 12.5875933,97.158925 C12.5774077,97.2970555 12.461699,97.4025889 12.3252117,97.4025889" id="Fill-9" fill="#020202" mask="url(#mask-7)"></path>
                    </g>
                    <g id="Group-14">
                        <mask id="mask-9" fill="white">
                            <use xlink:href="#path-8"></use>
                        </mask>
                        <g id="Clip-13"></g>
                        <path d="M60.8071754,38.5217479 C60.7733591,38.5217479 60.7403577,38.5205255 60.7073563,38.5180807 C58.5455602,38.3616143 53.9685499,33.2748257 53.7746157,33.058462 C53.6776486,32.9500764 53.6870194,32.7838308 53.7953944,32.6868543 C53.9037694,32.5894702 54.0699987,32.5988419 54.1669658,32.7072275 C55.447502,34.1378358 59.1261406,37.8759165 60.7456542,37.9932663 C62.3460189,38.1085788 65.8152412,34.2246258 67.0204038,32.718229 C67.1108521,32.6049539 67.276674,32.586618 67.3899381,32.6774826 C67.5036096,32.7679397 67.5219437,32.9337778 67.431088,33.047053 C66.9772167,33.6150587 62.9881204,38.5217479 60.8071754,38.5217479" id="Fill-12" fill="#020202" mask="url(#mask-9)"></path>
                    </g>
                </g>
                <g id="Group-181" transform="translate(0.074561, 0.292152)">
                    <path d="M172.789107,150.071346 L186.696146,149.157403 C186.696146,149.157403 186.365724,143.996456 188.60982,140.945768 C190.096513,138.924743 192.001224,134.930368 192.343869,133.37915 C192.416798,133.047473 192.747219,132.841704 193.073566,132.935828 C194.318249,133.294397 196.570086,134.712374 194.248172,140.31542 C193.986605,140.946583 193.77393,141.597711 193.595478,142.257397 C193.595478,142.257397 196.47923,143.187639 200.344062,143.682708 C202.542526,143.964266 204.683136,153.728341 201.517038,157.272061 C198.293493,160.880568 189.742461,158.267905 189.742461,158.267905 C189.742461,158.267905 172.901964,165.806001 168.831383,165.593304 C164.832508,165.384682 172.789107,150.071346 172.789107,150.071346" id="Fill-16" fill="#FF9E5C"></path>
                    <path d="M173.417356,150.035163 L178.69147,149.679039 C178.69147,149.679039 176.609937,159.964262 179.355573,159.00672 C185.210267,156.964914 189.702941,158.283877 189.702941,158.283877 L172.184081,165.429177 L173.417356,150.035163 Z" id="Fill-18" fill="#D65500"></path>
                    <path d="M179.316256,165.650146 L129.469053,174.41634 L127.735053,166.039682 L117.956857,166.645174 L127.345555,75.891797 C127.345555,75.891797 136.418091,89.2631567 141.994514,134.269664 C142.375864,137.343577 143.172787,143.512999 143.754182,149.447314 L176.826483,149.764322 L179.316256,165.650146 Z" id="Fill-20" fill="#1A336F"></path>
                    <path d="M129.88536,158.409458 C129.88536,158.409458 125.141713,174.962709 129.469379,174.416299 C133.796638,173.869889 158.009894,169.399594 158.009894,169.399594 C158.009894,169.399594 130.537239,173.125044 129.88536,158.409458" id="Fill-22" fill="#122358"></path>
                    <path d="M138.574794,150.736654 C138.451752,150.736654 138.341747,150.649864 138.316894,150.524365 C138.288374,150.381753 138.381267,150.243622 138.523866,150.2151 L143.70305,149.189104 C143.844834,149.160989 143.983766,149.253483 144.012285,149.396096 C144.040805,149.538708 143.947912,149.677246 143.805314,149.705361 L138.626129,150.731357 C138.60861,150.735025 138.591906,150.736654 138.574794,150.736654" id="Fill-24" fill="#171A36"></path>
                    <path d="M129.620778,167.92718 C129.426029,174.896048 129.2708,179.277515 129.2708,179.277515 L76.1161219,184.803958 L69.1666769,164.92987 L56.1307126,127.659894 C56.1307126,127.659894 24.4640266,101.751255 29.4635364,91.7479983 C29.7532155,91.1689911 31.2635392,89.5240563 31.2635392,89.5240563 L61.5119796,68.0893789 C61.5119796,68.0893789 75.1423766,79.116187 86.720575,74.9054474 C86.720575,74.9054474 92.9965468,73.5155855 90.8363804,65.8075769 C90.8363804,65.8075769 121.639733,67.4313235 127.165636,75.5895805 C131.507562,82.0002217 130.32603,142.365701 129.620778,167.92718" id="Fill-26" fill="#2F57A3"></path>
                    <path d="M76.1160405,184.804162 L129.270719,179.277719 L65.790266,187.82266 C65.790266,187.82266 68.7534667,173.493351 67.5507486,169.888104 C66.9563158,168.100964 67.5980099,166.44299 69.1665954,164.929667 L76.1160405,184.804162 Z" id="Fill-28" fill="#4F6EF6"></path>
                    <path d="M129.270841,179.277719 C129.270841,179.277719 129.42607,174.895844 129.620819,167.927384 C130.557488,171.137798 132.126074,173.240723 132.723359,175.414547 C133.809961,179.367361 129.270841,179.277719 129.270841,179.277719" id="Fill-30" fill="#4F6EF6"></path>
                    <path d="M65.7897771,187.821519 C65.7897771,187.821519 69.0882884,171.879465 67.646412,163.947351 C66.2041281,156.015237 59.174013,136.004648 59.174013,136.004648 L57.4290125,113.390361 L60.6167043,119.950541 C76.6863537,170.386107 99.568146,172.867567 129.626319,166.501339 L129.570502,168.007328 C129.570502,168.007328 131.355022,172.022893 132.525961,174.699935 C133.697308,177.377385 135.541312,184.413077 130.278199,184.303469 C128.270817,184.2615 65.7897771,187.821519 65.7897771,187.821519" id="Fill-32" fill="#1A336F"></path>
                    <path d="M69.2819374,166.315821 L53.8050911,121.089283 L57.4291348,113.390238 C57.4291348,113.390238 74.9369938,157.575296 69.2819374,166.315821" id="Fill-34" fill="#1A336F"></path>
                    <path d="M106.043471,148.448455 L106.038174,148.448455 C105.893131,148.44601 105.777422,148.325808 105.780274,148.180344 C106.233738,123.67053 84.9771634,78.3694265 84.7624506,77.914696 C84.700522,77.7830849 84.7567466,77.626211 84.8879374,77.5642764 C85.0195356,77.5023418 85.1763942,77.5581644 85.2383227,77.6897755 C85.453443,78.1457284 106.762576,123.557663 106.306667,148.190123 C106.303815,148.333958 106.186477,148.448455 106.043471,148.448455" id="Fill-36" fill="#171A36"></path>
                    <path d="M62.0184901,30.1939856 C62.0184901,30.1939856 62.0690108,64.0290345 61.5259135,70.0028736 C61.5259135,70.0028736 71.7486094,80.3541053 84.7144967,77.6558745 C92.3806019,76.0606504 91.1159553,67.6945864 91.1159553,67.6945864 L82.4321029,39.7991496 L62.0184901,30.1939856 Z" id="Fill-38" fill="#FF9E5C"></path>
                    <path d="M68.2362816,42.7358695 C68.2362816,42.7358695 70.7826867,53.8731005 84.6155739,59.4235839 C84.9500697,59.5580472 88.7383056,61.1178218 89.0866538,61.2453583 L87.9483089,57.3850383 L85.5946157,49.5853501 L68.2362816,42.7358695 Z" id="Fill-40" fill="#D65500"></path>
                    <path d="M80.5151284,70.421788 C80.5151284,70.421788 82.9800485,71.4913826 83.7773789,74.6651247 C83.947275,75.3394787 84.4064428,76.874398 84.9560588,77.4819278 C84.9560588,77.4819278 84.4186655,75.7848376 84.220657,74.5062135 C83.9187553,72.5577176 84.1998784,69.7971447 85.1931801,69.7396922 C85.1931801,69.7396922 89.3322087,69.4789148 90.6620433,73.2960435 C91.9922853,77.1127648 81.1205617,80.1777139 77.1306505,77.9223971 C73.1407393,75.6670803 80.5151284,70.421788 80.5151284,70.421788" id="Fill-42" fill="#2F57A3"></path>
                    <path d="M109.322752,181.233264 C109.23597,181.233264 109.150818,181.190073 109.100705,181.111432 C109.02248,180.988785 109.05874,180.825799 109.180968,180.747974 C110.758517,179.743981 111.198128,176.748708 110.711663,174.433087 C110.320128,172.568121 109.400162,171.349802 108.251224,171.172962 C106.711566,170.936225 105.949682,168.435615 105.985942,163.741214 C106.012425,160.340922 106.455296,156.960188 106.460185,156.926368 C106.479334,156.782126 106.613377,156.681075 106.755568,156.700225 C106.899389,156.718969 107.000838,156.851395 106.981689,156.995637 C106.496038,160.661597 105.790786,170.261871 108.33108,170.65263 C109.726102,170.867364 110.78174,172.205885 111.226648,174.324701 C111.742448,176.781305 111.300392,180.023501 109.463721,181.19211 C109.420126,181.219818 109.371235,181.233264 109.322752,181.233264" id="Fill-44" fill="#171A36"></path>
                    <path d="M106.720855,156.960881 C106.720855,156.960881 107.257841,164.422781 104.536243,164.80376 C101.814646,165.184332 101.400295,150.39581 101.400295,150.39581 L106.720855,156.960881 Z" id="Fill-46" fill="#171A36"></path>
                    <path d="M33.7018953,87.798525 C33.7018953,87.798525 37.2921227,88.0295575 43.6198375,85.1671184 C49.9475522,82.3042718 62.0403281,71.6401072 62.0403281,71.6401072 L59.7098581,69.274775 L33.7018953,87.798525 Z" id="Fill-48" fill="#4A7AC6"></path>
                    <path d="M77.6448613,78.7680492 C77.6448613,78.7680492 80.2426019,70.7817422 83.0974276,72.9783841 C83.0974276,72.9783841 82.5763313,71.2189518 80.5151691,70.4219509 C80.5151691,70.4219509 76.6100023,72.4755727 77.6448613,78.7680492" id="Fill-50" fill="#002855"></path>
                    <path d="M59.7100211,69.2745713 C58.2840343,67.7017578 61.7695535,61.0352288 61.7695535,61.0352288 C61.7695535,61.0352288 71.7669436,70.2830463 80.5151691,70.4215842 C80.5151691,70.4215842 78.2722955,72.941753 77.7373468,78.6894493 C77.7373468,78.6894493 67.0452974,77.3655966 59.7100211,69.2745713" id="Fill-52" fill="#1A336F"></path>
                    <path d="M84.1250752,72.6739673 C84.1250752,72.6739673 84.0611095,69.8612389 85.193343,69.7394069 C85.193343,69.7394069 89.3804478,71.0237355 90.542016,75.1794674 C90.542016,75.1794674 84.4917575,70.2902991 84.1250752,72.6739673" id="Fill-54" fill="#002855"></path>
                    <path d="M100.985862,101.843302 C101.291431,102.609743 101.137424,103.390852 100.641996,103.58888 C100.146567,103.7865 99.4971319,103.32525 99.1915633,102.558809 C98.8859946,101.792776 99.0400012,101.011259 99.5354298,100.813638 C100.030858,100.616018 100.680294,101.077268 100.985862,101.843302" id="Fill-56" fill="#171A36"></path>
                    <path d="M106.339098,116.861185 C106.644667,117.627626 106.491068,118.409143 105.995232,118.606764 C105.499803,118.804384 104.850775,118.343134 104.544799,117.576693 C104.239231,116.810659 104.393237,116.029142 104.888666,115.831522 C105.384094,115.633902 106.03353,116.095152 106.339098,116.861185" id="Fill-58" fill="#171A36"></path>
                    <path d="M109.37368,133.134915 C109.479203,133.953104 109.136151,134.671872 108.607314,134.739919 C108.078069,134.808373 107.563491,134.200435 107.457968,133.382246 C107.352445,132.564057 107.695497,131.84529 108.224742,131.776836 C108.753987,131.708789 109.268157,132.316726 109.37368,133.134915" id="Fill-60" fill="#171A36"></path>
                    <path d="M110.140209,163.687592 C110.245732,164.505781 109.90268,165.224549 109.373435,165.292595 C108.844598,165.361049 108.33002,164.753112 108.224497,163.934923 C108.118974,163.116734 108.462026,162.397966 108.991271,162.329512 C109.520108,162.261466 110.034686,162.869403 110.140209,163.687592" id="Fill-62" fill="#171A36"></path>
                    <path d="M95.0925437,87.6373728 C95.3981123,88.4038138 95.2445132,89.1849235 94.7486772,89.3825438 C94.2532486,89.5805717 93.6042209,89.1193217 93.2986523,88.3528807 C92.9926762,87.5864397 93.1466828,86.80533 93.6421114,86.6077096 C94.1375399,86.4100893 94.7869751,86.8709318 95.0925437,87.6373728" id="Fill-64" fill="#171A36"></path>
                    <path d="M89.306215,61.6767552 C89.1697277,61.6608907 88.9819049,68.7625919 85.1932616,69.7396922 C85.1932616,69.7396922 90.6111967,72.870243 90.6111967,76.1218108 C90.6111967,76.1218108 95.1865773,73.3518662 94.825599,66.1271106 C94.825599,66.1271106 91.0666977,61.8841813 89.306215,61.6767552" id="Fill-66" fill="#1A336F"></path>
                    <path d="M23.7524184,103.738379 C23.7450847,103.738379 23.7377511,103.738379 23.73001,103.737564 C23.5984118,103.72534 23.5010373,103.608805 23.5136674,103.476787 C23.5169268,103.439707 23.8726087,99.7057013 25.2423709,95.6746536 C27.0676341,90.3022323 29.861346,86.8375604 33.3211975,85.6550981 C33.4458695,85.6127217 33.5823568,85.678731 33.6251364,85.8042301 C33.6683234,85.9293218 33.6010984,86.0654149 33.4760189,86.1086062 C25.4326383,88.8577701 24.0042069,103.374513 23.9907619,103.520793 C23.979354,103.645069 23.8746458,103.738379 23.7524184,103.738379" id="Fill-70" fill="#171A36"></path>
                    <path d="M52.5279773,229.525158 C52.4974204,229.525158 52.4664561,229.519454 52.4363067,229.506822 C31.0363184,220.66647 12.533528,204.913479 0.338081109,185.150222 C0.268411466,185.037761 0.30345,184.890259 0.415899248,184.820583 C0.529163346,184.750906 0.676243703,184.785948 0.745505921,184.898408 C12.8892099,204.576506 31.3113302,220.261857 52.6196478,229.064316 C52.7418753,229.114434 52.7997296,229.254602 52.7492089,229.376841 C52.7113184,229.469336 52.6220924,229.525158 52.5279773,229.525158" id="Fill-72" fill="#171A36"></path>
                    <path d="M63.6227253,10.8734384 C63.4988681,10.8734384 63.388456,10.7854261 63.364418,10.6595195 C63.1195556,9.37030137 62.5727915,8.54233322 61.7404227,8.19843306 C59.7904875,7.392468 56.8382873,9.38415517 56.8085453,9.4045284 C56.688355,9.48642879 56.5249776,9.45586894 56.4430852,9.33566687 C56.3607854,9.21587227 56.3913423,9.05207148 56.5115326,8.96976362 C56.6419086,8.88093633 59.7265218,6.79797709 61.9404682,7.71151281 C62.9480298,8.12753421 63.6011318,9.08589105 63.88144,10.560913 C63.9087375,10.7035257 63.8150298,10.8416562 63.6724311,10.8685489 C63.6557267,10.8718086 63.6390223,10.8734384 63.6227253,10.8734384" id="Fill-74" fill="#171A36"></path>
                    <path d="M95.454011,41.5988394 C96.0790007,38.7840737 96.3173442,35.9122629 96.8755162,33.023746 C97.5909541,29.3211148 98.5463653,25.6624898 99.5779649,22.0368694 C99.6329673,21.8433237 99.6883771,21.6501855 99.7437868,21.4570473 C100.231882,18.2824902 100.524413,16.1877145 100.646233,16.1950489 C98.6449621,14.6344593 97.3758338,12.7087814 96.1075204,10.7822886 C94.8396144,8.8553883 71.2289391,7.24427311 67.9345021,14.9930282 C62.849433,26.9517079 66.3227295,40.8352507 66.3227295,40.8352507 C66.3227295,40.8352507 72.0877906,48.0673406 78.2696473,50.4000756 C84.6943291,52.8236753 88.119957,52.5457844 90.0698921,51.5067496 C92.1131275,50.4184116 93.2641026,47.7951542 94.1376214,45.7757594 C94.7320542,44.4009737 95.1415162,43.0070372 95.454011,41.5988394" id="Fill-76" fill="#FF9E5C"></path>
                    <path d="M101.015319,6.17467843 C98.0293025,3.73559508 93.176873,3.28575412 89.7891357,3.87454053 C86.145943,4.50855551 84.6808434,2.96385705 82.6168293,1.65182091 C81.380295,0.865821616 79.5118448,0.50358555 77.895998,0.338969835 C76.4801968,-0.329679641 71.2130088,0.67390577 70.0151798,1.11315265 C63.8720285,3.3643948 62.2895906,8.37661735 62.2895906,8.37661735 C54.5118509,9.24573943 55.511264,20.6518971 56.0266563,24.2632562 C56.1696625,25.6808257 56.4556747,27.0519442 56.8451728,28.298786 C59.1283814,35.600145 61.9636507,42.1656227 61.9636507,42.1656227 C61.9636507,42.1656227 64.7695854,29.266922 67.6602644,28.0176354 C73.354841,25.5569565 73.3173579,15.3304089 73.7133749,12.4223338 C73.7928227,11.8412892 74.0580563,11.8706266 74.2043218,11.9631211 C82.0435826,16.9170762 98.481544,24.24818 101.660272,18.5008913 C105.145792,12.1978208 103.621615,8.41532649 101.015319,6.17467843" id="Fill-78" fill="#171A36"></path>
                    <path d="M70.7843164,27.4408285 C70.3133333,30.3827232 68.0769785,32.4709795 65.7888808,32.1050762 C63.500783,31.7387655 62.0275349,29.0568333 62.498518,26.1149386 C62.9690937,23.1726364 65.2054484,21.0843801 67.4935462,21.4506908 C69.7816439,21.8165941 71.2548921,24.4985263 70.7843164,27.4408285" id="Fill-80" fill="#FF9E5C"></path>
                    <path d="M96.9728907,5.73714289 C96.9728907,5.73714289 98.7415218,6.47261657 99.8721257,7.65630135 C101.450897,9.30979287 102.678468,11.6571967 101.738539,12.955379 C101.429303,13.382402 100.807573,13.4264081 100.416853,13.0727288 C99.5861134,12.3201416 98.0541961,11.1735361 98.0541961,12.9472297 C98.0541961,15.3806086 96.6876933,15.5916752 95.5159396,13.7890517 C95.148035,13.2230833 95.6748352,11.1315673 93.6124508,9.78285932 C90.9650044,8.05194952 89.4868672,5.69313671 91.8364861,6.18779879 C95.2604842,6.90860374 97.3632037,8.96507778 97.4235025,8.3506211 C97.5326924,7.23416799 94.7198315,5.55704352 96.9728907,5.73714289" id="Fill-82" fill="#0074FF" opacity="0.198800223"></path>
                    <path d="M68.2023024,20.7138725 C68.2023024,20.7138725 72.3938889,24.4234306 70.2549086,28.9442508 C70.7474852,29.0925679 71.2751003,28.8696848 71.509777,28.411287 C72.7585341,25.9701664 76.2037183,18.3159431 73.7135378,12.4223745 L68.2023024,20.7138725 Z" id="Fill-84" fill="#171A36"></path>
                    <path d="M64.6178196,26.9267304 C64.5962261,26.9267304 64.5738178,26.9238781 64.5518168,26.9181736 C64.4112553,26.8823167 64.3265109,26.7388892 64.3627717,26.5979064 C64.3843652,26.5135612 64.9119804,24.5173919 66.3257445,24.003579 C67.0644056,23.7350598 67.8894409,23.9212712 68.7759973,24.5573235 C68.8941505,24.6420761 68.9210405,24.8062844 68.8362961,24.9244491 C68.7515518,25.0426139 68.5873596,25.069914 68.4692064,24.9851613 C67.7329898,24.4566797 67.0721467,24.2928789 66.5066411,24.4978336 C65.3540363,24.9154849 64.8773492,26.7111816 64.8724602,26.7295175 C64.8414959,26.8480897 64.735158,26.9267304 64.6178196,26.9267304" id="Fill-86" fill="#171A36"></path>
                    <path d="M73.369712,14.8573832 C73.369712,13.6292848 72.101806,12.7866479 70.9292374,13.1513288 C69.2860931,13.661882 67.0367008,14.5794923 68.6509179,15.4168322 C71.0498352,16.6608217 69.8059672,16.8384763 68.3848695,17.9936386 C66.9629569,19.1483933 69.4506928,20.5700375 71.4939282,20.0370737 C73.5375711,19.5037025 70.1612416,17.7267492 72.3825217,16.3939324 C73.1228126,15.9497959 73.369712,15.3972739 73.369712,14.8573832" id="Fill-88" fill="#0074FF" opacity="0.198800223"></path>
                    <path d="M96.8590969,32.7977254 C96.8590969,32.7977254 100.573996,21.6270823 100.124607,17.2346134 C100.104643,17.0406603 99.8394094,17.0076556 99.7685175,17.1889774 C99.2547548,18.506718 97.5162732,20.6067908 91.6334663,19.8053078 C83.3684466,18.6790756 96.8590969,32.7977254 96.8590969,32.7977254" id="Fill-90" fill="#FF9E5C"></path>
                    <path d="M140.166888,125.909997 L138.216953,126.16507 L129.777962,154.784571 C129.701774,155.050646 129.462208,155.237264 129.188826,155.250711 L114.110441,155.940141 L112.989616,157.871523 L111.744933,155.971516 C111.473995,155.842757 111.31347,155.532269 111.400251,155.216484 L119.594379,125.307357 C119.665679,125.044134 119.897096,124.854663 120.170885,124.833475 L138.095947,123.4811 C138.333069,123.462357 138.5433,123.573187 138.66675,123.746767 L138.672454,123.738618 L140.166888,125.909997 Z" id="Fill-92" fill="#020202"></path>
                    <path d="M121.095495,127.467041 L112.901367,157.376169 C112.785251,157.800339 113.116488,158.214731 113.555692,158.194765 L130.689535,157.408358 C130.965361,157.395727 131.20289,157.209515 131.281116,156.944663 L140.266462,126.469975 C140.394801,126.035618 140.04849,125.606965 139.596656,125.641192 L121.671594,126.992345 C121.398212,127.012718 121.167609,127.203004 121.095495,127.467041" id="Fill-94" fill="#171A36"></path>
                    <path d="M97.8641325,148.083774 L111.9374,144.369734 C111.9374,144.369734 110.568046,139.14563 112.259266,135.570535 C113.380092,133.201536 114.534734,128.726759 114.576291,127.068378 C114.585254,126.713884 114.882674,126.437215 115.235912,126.468183 C116.583265,126.587162 119.174487,127.591155 117.9131,133.798064 C117.770909,134.497681 117.683312,135.207077 117.631977,135.919325 C117.631977,135.919325 120.774037,136.297045 124.834433,136.0326 C129.495373,135.729039 135.546038,134.731973 137.979587,134.24872 C138.427754,134.159893 139.961301,134.62155 140.00734,135.856168 C140.066009,137.439983 136.412631,139.131776 136.412631,139.131776 C136.412631,139.131776 135.319103,149.465487 132.145671,150.727405 C128.972239,151.989323 116.878648,153.100479 116.878648,153.100479 L97.2778482,165.872458 L97.8641325,148.083774 Z" id="Fill-96" fill="#FF9E5C"></path>
                    <path d="M128.780057,140.144978 L128.64194,140.140903 C128.496489,140.136014 128.382818,140.013774 128.388114,139.868717 C128.393003,139.723252 128.516046,139.610384 128.660274,139.614866 L128.778835,139.618941 C131.516322,139.50974 133.660599,139.326381 136.160965,138.986148 C136.303563,138.966183 136.437199,139.067234 136.457163,139.211069 C136.476719,139.355311 136.376085,139.487737 136.231857,139.507703 C133.713971,139.850381 131.555435,140.034962 128.780057,140.144978" id="Fill-98" fill="#C85B1C"></path>
                    <path d="M128.219074,143.511736 L128.080957,143.507661 C127.935506,143.502772 127.821834,143.380532 127.826724,143.235475 C127.83202,143.09001 127.950988,142.97592 128.098883,142.981624 L128.217851,142.985699 C130.919893,142.878128 133.161137,142.68499 135.692467,142.340275 C135.835066,142.320309 135.969108,142.421361 135.988665,142.565603 C136.008629,142.709438 135.907587,142.841864 135.763766,142.86183 C133.214509,143.20899 130.958191,143.40335 128.219074,143.511736" id="Fill-100" fill="#C85B1C"></path>
                    <path d="M127.470879,146.753728 L127.332762,146.749654 C127.187718,146.744764 127.07364,146.622932 127.078936,146.477467 C127.083825,146.332002 127.205645,146.21832 127.351096,146.223617 L127.469656,146.227691 C130.170883,146.120121 132.412534,145.926983 134.944679,145.582267 C135.086871,145.562709 135.220913,145.663353 135.240877,145.807595 C135.260434,145.95143 135.159392,146.084264 135.015571,146.103822 C132.465907,146.450982 130.209588,146.645343 127.470879,146.753728" id="Fill-102" fill="#C85B1C"></path>
                    <path d="M100.996414,147.242767 L103.836165,146.503627 C103.836165,146.503627 103.755903,157.461981 106.378904,155.931951 C111.972846,152.669789 116.841573,153.124519 116.841573,153.124519 L100.309904,163.948003 L100.996414,147.242767 Z" id="Fill-104" fill="#D65500"></path>
                    <path d="M102.956902,146.650762 C79.2732976,151.910723 53.7473182,158.223165 53.7473182,158.223165 L56.4848055,138.838035 C56.7838554,136.720441 56.9904197,134.591438 57.1053135,132.455916 C57.4243272,126.532195 58.1385429,113.91709 57.4336979,110.884738 C53.6682778,94.6835366 38.3165109,90.8089553 31.8901993,90.7830838 C30.4625828,90.7775805 30.0466021,91.0106503 29.7821834,91.3459937 C28.6401716,92.7957529 27.4488615,95.2682483 26.2848488,99.8049597 C25.0389437,104.662346 24.186611,109.541735 23.6048084,114.443127 C23.4304305,119.476538 23.7657412,126.140214 24.1454611,131.552567 C24.4771049,136.277935 24.4249545,141.026935 23.8659677,145.731114 C22.9154456,153.721088 24.3104681,166.809668 24.9232351,171.842671 C27.4154526,182.197162 31.2562463,191.09293 33.9036928,192.36096 C43.8615626,197.131149 104.532821,164.809831 104.532821,164.809831 C103.21195,163.420784 102.501401,161.560708 102.56007,159.644809 L102.956902,146.650762 Z" id="Fill-106" fill="#2F57A3"></path>
                    <path d="M57.0182061,110.852508 C56.8959787,110.852508 56.7867888,110.767348 56.7607136,110.643071 C53.9568161,97.1853287 39.4019721,92.7211461 39.2552992,92.6775474 C39.1159599,92.6363935 39.036512,92.4897062 39.0776619,92.3503533 C39.1192193,92.2110004 39.2658922,92.1319523 39.4048241,92.1731062 C39.554349,92.2175198 54.4070205,96.7660476 57.276106,110.5355 C57.305848,110.677705 57.2141774,110.817466 57.0719862,110.846803 C57.0540595,110.850878 57.0357254,110.852508 57.0182061,110.852508" id="Fill-108" fill="#171A36"></path>
                    <path d="M46.0823945,160.090861 C45.9605745,160.090861 45.8513846,160.005701 45.8253094,159.881424 C45.79516,159.739219 45.8864232,159.599866 46.0286144,159.570121 L53.6934974,157.965525 C53.8360961,157.935373 53.9754354,158.027053 54.0051774,158.169258 C54.0349194,158.311463 53.9436563,158.450816 53.801465,158.480561 L46.136582,160.085156 C46.1182479,160.088824 46.1003212,160.090861 46.0823945,160.090861" id="Fill-110" fill="#171A36"></path>
                    <path d="M102.771727,152.800055 L102.954254,146.734537 L76.0324369,152.748715 C76.0324369,152.748715 72.4931375,154.299118 77.0685182,154.121463 C80.2720995,153.997186 102.168739,155.905343 102.771727,152.800055" id="Fill-112" fill="#4A7AC6"></path>
                </g>
            </g>
            <path d="M160.946262,186.97962 L175.434782,185.886871 C175.434782,185.886871 223.552693,94.9873718 225,92.2879027 C225,92.2879027 155.217064,70.4734927 139,71.0097266 L160.803931,187 L160.946262,186.97962 Z" id="Fill-1" fill="url(#linearGradient-10)" opacity="0.634463356"></path>
            <g id="Group-180" opacity="0.674781436" transform="translate(152.000000, 72.000000)">
                <polygon id="Fill-115" fill="#171A36" points="10.0157481 48.807973 17.8644148 48.807973 17.8644148 44.8544234 10.0157481 44.8544234"></polygon>
                <polygon id="Fill-117" fill="#4A7AC6" points="8.76140741 48.807973 16.6100741 48.807973 16.6100741 44.8544234 8.76140741 44.8544234"></polygon>
                <polygon id="Fill-118" fill="#171A36" points="33.8278889 48.807973 41.6765556 48.807973 41.6765556 44.8544234 33.8278889 44.8544234"></polygon>
                <polygon id="Fill-119" fill="#4A7AC6" points="32.5730963 48.807973 40.421763 48.807973 40.421763 44.8544234 32.5730963 44.8544234"></polygon>
                <polygon id="Fill-120" fill="url(#linearGradient-11)" points="2.96812444 45.5239577 0.399346667 0.110227928 46.8840578 0.588309009 45.0490874 46.2413"></polygon>
                <polygon id="Fill-121" fill="url(#linearGradient-12)" points="4.67006963 4.99627838 6.45126963 41.5935396 41.2334696 41.6743234 42.2492326 5.11017027"></polygon>
                <polygon id="Fill-122" fill="#171A36" points="45.0492681 46.2410793 46.0174059 46.2315883 47.856443 0.956471171 46.8842385 0.588088288"></polygon>
                <polygon id="Fill-123" fill="url(#linearGradient-13)" points="46.0174059 46.2315883 57.7402504 46.1689036 58.3335319 38.4922369 60.8435689 6.02730901 47.856443 0.956471171 46.6658133 30.2668586"></polygon>
                <path d="M46.9332644,30.7018108 C49.4392348,42.7734685 58.3334867,38.4919279 58.3334867,38.4919279 L57.7402052,46.169036 L46.0173607,46.2317207 L46.6594422,30.5044865 C46.6594422,30.5044865 46.9160941,30.6201441 46.9332644,30.7018108" id="Fill-124" fill="#1A336F" opacity="0.4085984"></path>
                <path d="M17.0141652,18.8499468 C17.0141652,19.9067577 16.1375726,20.7631541 15.0558393,20.7631541 C13.9736541,20.7631541 13.0970615,19.9067577 13.0970615,18.8499468 C13.0970615,17.793136 13.9736541,16.9367396 15.0558393,16.9367396 C16.1375726,16.9367396 17.0141652,17.793136 17.0141652,18.8499468" id="Fill-125" fill="#171A36"></path>
                <path d="M16.4056563,18.8413387 C16.4056563,19.8253117 15.6244044,20.6234378 14.6606044,20.6234378 C13.6968044,20.6234378 12.9155526,19.8253117 12.9155526,18.8413387 C12.9155526,17.8573658 13.6968044,17.0592396 14.6606044,17.0592396 C15.6244044,17.0592396 16.4056563,17.8573658 16.4056563,18.8413387" id="Fill-126" fill="#78A4E9"></path>
                <path d="M12.9106726,18.6477667 C12.9106726,18.6477667 12.8921467,18.9925324 12.958117,19.2662261 C12.9653467,19.2940369 15.2860578,17.1760009 15.1672207,17.1402441 C14.9982281,17.0894784 14.7239541,17.0373883 14.3859689,17.0828568 L12.9106726,18.6477667 Z" id="Fill-127" fill-opacity="0.375491696" fill="#FFFFFF"></path>
                <path d="M13.0877985,19.618364 L15.5793096,17.3277243 C15.5793096,17.3277243 16.160843,17.6685171 16.3564948,18.3823279 L14.1550726,20.5577514 C14.1550726,20.5577514 13.4781985,20.360427 13.0877985,19.618364" id="Fill-128" fill-opacity="0.375491696" fill="#FFFFFF"></path>
                <path d="M22.2982563,18.8499468 C22.2982563,19.9067577 21.4216637,20.7631541 20.3399304,20.7631541 C19.2577452,20.7631541 18.3811526,19.9067577 18.3811526,18.8499468 C18.3811526,17.793136 19.2577452,16.9367396 20.3399304,16.9367396 C21.4216637,16.9367396 22.2982563,17.793136 22.2982563,18.8499468" id="Fill-129" fill="#171A36"></path>
                <path d="M21.6897926,18.8413387 C21.6897926,19.8253117 20.9085407,20.6234378 19.9447407,20.6234378 C18.9809407,20.6234378 18.1996889,19.8253117 18.1996889,18.8413387 C18.1996889,17.8573658 18.9809407,17.0592396 19.9447407,17.0592396 C20.9085407,17.0592396 21.6897926,17.8573658 21.6897926,18.8413387" id="Fill-130" fill="#78A4E9"></path>
                <path d="M18.1947637,18.6477667 C18.1947637,18.6477667 18.1762378,18.9925324 18.2422081,19.2662261 C18.2494378,19.2940369 20.5701489,17.1760009 20.4513119,17.1402441 C20.2823193,17.0894784 20.0080452,17.0373883 19.67006,17.0828568 L18.1947637,18.6477667 Z" id="Fill-131" fill-opacity="0.375491696" fill="#FFFFFF"></path>
                <path d="M18.3719348,19.618364 L20.8634459,17.3277243 C20.8634459,17.3277243 21.4449793,17.6685171 21.6406311,18.3823279 L19.4392089,20.5577514 C19.4392089,20.5577514 18.7623348,20.360427 18.3719348,19.618364" id="Fill-132" fill-opacity="0.375491696" fill="#FFFFFF"></path>
                <path d="M27.6768296,18.8499468 C27.6768296,19.9067577 26.800237,20.7631541 25.7185037,20.7631541 C24.6367704,20.7631541 23.7597259,19.9067577 23.7597259,18.8499468 C23.7597259,17.793136 24.6367704,16.9367396 25.7185037,16.9367396 C26.800237,16.9367396 27.6768296,17.793136 27.6768296,18.8499468" id="Fill-133" fill="#171A36"></path>
                <path d="M27.0683207,18.8413387 C27.0683207,19.8253117 26.2870689,20.6234378 25.3232689,20.6234378 C24.3594689,20.6234378 23.578217,19.8253117 23.578217,18.8413387 C23.578217,17.8573658 24.3594689,17.0592396 25.3232689,17.0592396 C26.2870689,17.0592396 27.0683207,17.8573658 27.0683207,18.8413387" id="Fill-134" fill="#78A4E9"></path>
                <path d="M23.5732919,18.6477667 C23.5732919,18.6477667 23.5547659,18.9925324 23.6211881,19.2662261 C23.6279659,19.2940369 25.948677,17.1760009 25.82984,17.1402441 C25.6608474,17.0894784 25.3865733,17.0373883 25.0485881,17.0828568 L23.5732919,18.6477667 Z" id="Fill-135" fill-opacity="0.375491696" fill="#FFFFFF"></path>
                <path d="M23.750463,19.618364 L26.2419741,17.3277243 C26.2419741,17.3277243 26.8235074,17.6685171 27.0191593,18.3823279 L24.817737,20.5577514 C24.817737,20.5577514 24.1413148,20.360427 23.750463,19.618364" id="Fill-136" fill-opacity="0.375491696" fill="#FFFFFF"></path>
                <path d="M32.9293815,18.8499468 C32.9293815,19.9067577 32.052337,20.7631541 30.9710556,20.7631541 C29.8888704,20.7631541 29.0122778,19.9067577 29.0122778,18.8499468 C29.0122778,17.793136 29.8888704,16.9367396 30.9710556,16.9367396 C32.052337,16.9367396 32.9293815,17.793136 32.9293815,18.8499468" id="Fill-137" fill="#171A36"></path>
                <path d="M32.3206467,18.8413387 C32.3206467,19.8253117 31.5393948,20.6234378 30.5755948,20.6234378 C29.6117948,20.6234378 28.830543,19.8253117 28.830543,18.8413387 C28.830543,17.8573658 29.6117948,17.0592396 30.5755948,17.0592396 C31.5393948,17.0592396 32.3206467,17.8573658 32.3206467,18.8413387" id="Fill-138" fill="#78A4E9"></path>
                <path d="M28.8258437,18.6477667 C28.8258437,18.6477667 28.8073178,18.9925324 28.8732881,19.2662261 C28.8800659,19.2940369 31.2012289,17.1760009 31.0823919,17.1402441 C30.9133993,17.0894784 30.6386733,17.0373883 30.30114,17.0828568 L28.8258437,18.6477667 Z" id="Fill-139" fill-opacity="0.375491696" fill="#FFFFFF"></path>
                <path d="M29.0027889,19.618364 L31.4943,17.3277243 C31.4943,17.3277243 32.0758333,17.6685171 32.2714852,18.3823279 L30.070063,20.5577514 C30.070063,20.5577514 29.3936407,20.360427 29.0027889,19.618364" id="Fill-140" fill-opacity="0.375491696" fill="#FFFFFF"></path>
                <path d="M17.1066141,24.2700973 C17.1066141,25.3269081 16.2300215,26.1833045 15.1482881,26.1833045 C14.066103,26.1833045 13.1895104,25.3269081 13.1895104,24.2700973 C13.1895104,23.2132865 14.066103,22.3568901 15.1482881,22.3568901 C16.2300215,22.3568901 17.1066141,23.2132865 17.1066141,24.2700973" id="Fill-141" fill="#171A36"></path>
                <path d="M16.4981052,24.2614892 C16.4981052,25.2454622 15.7168533,26.0435883 14.7530533,26.0435883 C13.7892533,26.0435883 13.0080015,25.2454622 13.0080015,24.2614892 C13.0080015,23.2775162 13.7892533,22.4793901 14.7530533,22.4793901 C15.7168533,22.4793901 16.4981052,23.2775162 16.4981052,24.2614892" id="Fill-142" fill="#78A4E9"></path>
                <path d="M13.0030763,24.0679171 C13.0030763,24.0679171 12.9845504,24.4122414 13.0505207,24.6863766 C13.0577504,24.7141874 15.3784615,22.5961514 15.2596244,22.5603946 C15.0906319,22.5096288 14.8163578,22.4575387 14.4783726,22.5030072 L13.0030763,24.0679171 Z" id="Fill-143" fill-opacity="0.375491696" fill="#FFFFFF"></path>
                <path d="M13.1802474,25.0385144 L15.6717585,22.7478748 C15.6717585,22.7478748 16.2532919,23.0886676 16.4489437,23.8024784 L14.2475215,25.9779018 C14.2475215,25.9779018 13.5706474,25.7805775 13.1802474,25.0385144" id="Fill-144" fill-opacity="0.375491696" fill="#FFFFFF"></path>
                <path d="M22.3907052,24.2700973 C22.3907052,25.3269081 21.5141126,26.1833045 20.4323793,26.1833045 C19.3501941,26.1833045 18.4736015,25.3269081 18.4736015,24.2700973 C18.4736015,23.2132865 19.3501941,22.3568901 20.4323793,22.3568901 C21.5141126,22.3568901 22.3907052,23.2132865 22.3907052,24.2700973" id="Fill-145" fill="#171A36"></path>
                <path d="M21.7821963,24.2614892 C21.7821963,25.2454622 21.0009444,26.0435883 20.0371444,26.0435883 C19.0733444,26.0435883 18.2920926,25.2454622 18.2920926,24.2614892 C18.2920926,23.2775162 19.0733444,22.4793901 20.0371444,22.4793901 C21.0009444,22.4793901 21.7821963,23.2775162 21.7821963,24.2614892" id="Fill-146" fill="#78A4E9"></path>
                <path d="M18.2872126,24.0679171 C18.2872126,24.0679171 18.2686867,24.4122414 18.334657,24.6863766 C18.3418867,24.7141874 20.6625978,22.5961514 20.5437607,22.5603946 C20.3747681,22.5096288 20.1004941,22.4575387 19.7625089,22.5030072 L18.2872126,24.0679171 Z" id="Fill-147" fill-opacity="0.375491696" fill="#FFFFFF"></path>
                <path d="M18.4643837,25.0385144 L20.9558948,22.7478748 C20.9558948,22.7478748 21.5374281,23.0886676 21.73308,23.8024784 L19.5316578,25.9779018 C19.5316578,25.9779018 18.8547837,25.7805775 18.4643837,25.0385144" id="Fill-148" fill-opacity="0.375491696" fill="#FFFFFF"></path>
                <path d="M27.7692333,24.2700973 C27.7692333,25.3269081 26.8926407,26.1833045 25.8109074,26.1833045 C24.7291741,26.1833045 23.8521296,25.3269081 23.8521296,24.2700973 C23.8521296,23.2132865 24.7291741,22.3568901 25.8109074,22.3568901 C26.8926407,22.3568901 27.7692333,23.2132865 27.7692333,24.2700973" id="Fill-149" fill="#171A36"></path>
                <path d="M27.1607696,24.2614892 C27.1607696,25.2454622 26.3795178,26.0435883 25.4157178,26.0435883 C24.4519178,26.0435883 23.6706659,25.2454622 23.6706659,24.2614892 C23.6706659,23.2775162 24.4519178,22.4793901 25.4157178,22.4793901 C26.3795178,22.4793901 27.1607696,23.2775162 27.1607696,24.2614892" id="Fill-150" fill="#78A4E9"></path>
                <path d="M23.6659667,24.0679171 C23.6659667,24.0679171 23.6474407,24.4122414 23.7134111,24.6863766 C23.7201889,24.7141874 26.0413519,22.5961514 25.9225148,22.5603946 C25.7535222,22.5096288 25.4787963,22.4575387 25.141263,22.5030072 L23.6659667,24.0679171 Z" id="Fill-151" fill-opacity="0.375491696" fill="#FFFFFF"></path>
                <path d="M23.8429119,25.0385144 L26.334423,22.7478748 C26.334423,22.7478748 26.9159563,23.0886676 27.1116081,23.8024784 L24.9101859,25.9779018 C24.9101859,25.9779018 24.2337637,25.7805775 23.8429119,25.0385144" id="Fill-152" fill-opacity="0.375491696" fill="#FFFFFF"></path>
                <path d="M33.0784926,24.1521883 C33.0784926,25.2089991 32.2019,26.0653955 31.1201667,26.0653955 C30.0384333,26.0653955 29.1613889,25.2089991 29.1613889,24.1521883 C29.1613889,23.0953775 30.0384333,22.2389811 31.1201667,22.2389811 C32.2019,22.2389811 33.0784926,23.0953775 33.0784926,24.1521883" id="Fill-153" fill="#171A36"></path>
                <path d="M32.4700289,24.1435802 C32.4700289,25.1275532 31.688777,25.9256793 30.724977,25.9256793 C29.761177,25.9256793 28.9799252,25.1275532 28.9799252,24.1435802 C28.9799252,23.1596072 29.761177,22.3614811 30.724977,22.3614811 C31.688777,22.3614811 32.4700289,23.1596072 32.4700289,24.1435802" id="Fill-154" fill="#78A4E9"></path>
                <path d="M28.9752259,23.9500081 C28.9752259,23.9500081 28.9567,24.2947739 29.0226704,24.5684676 C29.0294481,24.5962784 31.3506111,22.4782423 31.2317741,22.4424856 C31.0627815,22.3917198 30.7880556,22.3396297 30.4505222,22.3850982 L28.9752259,23.9500081 Z" id="Fill-155" fill-opacity="0.375491696" fill="#FFFFFF"></path>
                <path d="M29.1521711,24.9208261 L31.6436822,22.6301865 C31.6436822,22.6301865 32.2252156,22.9705378 32.4208674,23.6847901 L30.2194452,25.8597721 C30.2194452,25.8597721 29.543023,25.6624477 29.1521711,24.9208261" id="Fill-156" fill-opacity="0.375491696" fill="#FFFFFF"></path>
                <path d="M17.1066141,29.7805667 C17.1066141,30.8373775 16.2300215,31.6937739 15.1482881,31.6937739 C14.066103,31.6937739 13.1895104,30.8373775 13.1895104,29.7805667 C13.1895104,28.7237559 14.066103,27.8673595 15.1482881,27.8673595 C16.2300215,27.8673595 17.1066141,28.7237559 17.1066141,29.7805667" id="Fill-157" fill="#171A36"></path>
                <path d="M16.4981052,29.7719586 C16.4981052,30.7559315 15.7168533,31.5540577 14.7530533,31.5540577 C13.7892533,31.5540577 13.0080015,30.7559315 13.0080015,29.7719586 C13.0080015,28.7879856 13.7892533,27.9898595 14.7530533,27.9898595 C15.7168533,27.9898595 16.4981052,28.7879856 16.4981052,29.7719586" id="Fill-158" fill="#78A4E9"></path>
                <path d="M13.0030763,29.5783865 C13.0030763,29.5783865 12.9845504,29.9227108 13.0505207,30.1968459 C13.0577504,30.2246568 15.3784615,28.1066207 15.2596244,28.070864 C15.0906319,28.0200982 14.8163578,27.9680081 14.4783726,28.0134766 L13.0030763,29.5783865 Z" id="Fill-159" fill-opacity="0.375491696" fill="#FFFFFF"></path>
                <path d="M13.1802474,30.5490279 L15.6717585,28.2583883 C15.6717585,28.2583883 16.2532919,28.5991811 16.4489437,29.3129919 L14.2475215,31.4884153 C14.2475215,31.4884153 13.5706474,31.291091 13.1802474,30.5490279" id="Fill-160" fill-opacity="0.375491696" fill="#FFFFFF"></path>
                <path d="M22.3907052,29.7805667 C22.3907052,30.8373775 21.5141126,31.6937739 20.4323793,31.6937739 C19.3501941,31.6937739 18.4736015,30.8373775 18.4736015,29.7805667 C18.4736015,28.7237559 19.3501941,27.8673595 20.4323793,27.8673595 C21.5141126,27.8673595 22.3907052,28.7237559 22.3907052,29.7805667" id="Fill-161" fill="#171A36"></path>
                <path d="M21.7821963,29.7719586 C21.7821963,30.7559315 21.0009444,31.5540577 20.0371444,31.5540577 C19.0733444,31.5540577 18.2920926,30.7559315 18.2920926,29.7719586 C18.2920926,28.7879856 19.0733444,27.9898595 20.0371444,27.9898595 C21.0009444,27.9898595 21.7821963,28.7879856 21.7821963,29.7719586" id="Fill-162" fill="#78A4E9"></path>
                <path d="M18.2872126,29.5783865 C18.2872126,29.5783865 18.2686867,29.9227108 18.334657,30.1968459 C18.3418867,30.2246568 20.6625978,28.1066207 20.5437607,28.070864 C20.3747681,28.0200982 20.1004941,27.9680081 19.7625089,28.0134766 L18.2872126,29.5783865 Z" id="Fill-163" fill-opacity="0.375491696" fill="#FFFFFF"></path>
                <path d="M18.4643837,30.5490279 L20.9558948,28.2583883 C20.9558948,28.2583883 21.5374281,28.5991811 21.73308,29.3129919 L19.5316578,31.4884153 C19.5316578,31.4884153 18.8547837,31.291091 18.4643837,30.5490279" id="Fill-164" fill-opacity="0.375491696" fill="#FFFFFF"></path>
                <path d="M27.7692333,29.7805667 C27.7692333,30.8373775 26.8926407,31.6937739 25.8109074,31.6937739 C24.7291741,31.6937739 23.8521296,30.8373775 23.8521296,29.7805667 C23.8521296,28.7237559 24.7291741,27.8673595 25.8109074,27.8673595 C26.8926407,27.8673595 27.7692333,28.7237559 27.7692333,29.7805667" id="Fill-165" fill="#171A36"></path>
                <path d="M27.1607696,29.7719586 C27.1607696,30.7559315 26.3795178,31.5540577 25.4157178,31.5540577 C24.4519178,31.5540577 23.6706659,30.7559315 23.6706659,29.7719586 C23.6706659,28.7879856 24.4519178,27.9898595 25.4157178,27.9898595 C26.3795178,27.9898595 27.1607696,28.7879856 27.1607696,29.7719586" id="Fill-166" fill="#78A4E9"></path>
                <path d="M23.6659667,29.5783865 C23.6659667,29.5783865 23.6474407,29.9227108 23.7134111,30.1968459 C23.7201889,30.2246568 26.0413519,28.1066207 25.9225148,28.070864 C25.7535222,28.0200982 25.4787963,27.9680081 25.141263,28.0134766 L23.6659667,29.5783865 Z" id="Fill-167" fill-opacity="0.375491696" fill="#FFFFFF"></path>
                <path d="M23.8429119,30.5490279 L26.334423,28.2583883 C26.334423,28.2583883 26.9159563,28.5991811 27.1116081,29.3129919 L24.9101859,31.4884153 C24.9101859,31.4884153 24.2337637,31.291091 23.8429119,30.5490279" id="Fill-168" fill-opacity="0.375491696" fill="#FFFFFF"></path>
                <path d="M33.0218304,29.7805667 C33.0218304,30.8373775 32.1447859,31.6937739 31.0635044,31.6937739 C29.9813193,31.6937739 29.1047267,30.8373775 29.1047267,29.7805667 C29.1047267,28.7237559 29.9813193,27.8673595 31.0635044,27.8673595 C32.1447859,27.8673595 33.0218304,28.7237559 33.0218304,29.7805667" id="Fill-169" fill="#171A36"></path>
                <path d="M32.4130956,29.7719586 C32.4130956,30.7559315 31.6318437,31.5540577 30.6680437,31.5540577 C29.7042437,31.5540577 28.9229919,30.7559315 28.9229919,29.7719586 C28.9229919,28.7879856 29.7042437,27.9898595 30.6680437,27.9898595 C31.6318437,27.9898595 32.4130956,28.7879856 32.4130956,29.7719586" id="Fill-170" fill="#78A4E9"></path>
                <path d="M28.9182926,29.5783865 C28.9182926,29.5783865 28.8997667,29.9227108 28.965737,30.1968459 C28.9725148,30.2246568 31.2936778,28.1066207 31.1748407,28.070864 C31.0058481,28.0200982 30.7315741,27.9680081 30.3935889,28.0134766 L28.9182926,29.5783865 Z" id="Fill-171" fill-opacity="0.375491696" fill="#FFFFFF"></path>
                <path d="M29.0952378,30.5490279 L31.5867489,28.2583883 C31.5867489,28.2583883 32.1682822,28.5991811 32.3639341,29.3129919 L30.1625119,31.4884153 C30.1625119,31.4884153 29.4860896,31.291091 29.0952378,30.5490279" id="Fill-172" fill-opacity="0.375491696" fill="#FFFFFF"></path>
                <path d="M6.4510437,41.8361559 C6.31910296,41.8361559 6.20975481,41.7350658 6.20342889,41.605282 L4.42195999,5.00802072 C4.41906593,4.94136306 4.44391778,4.87691261 4.49091037,4.8287955 C4.53745111,4.78111982 4.60251778,4.75419189 4.67029556,4.75419189 L4.67074741,4.75419189 L42.2503622,4.86764234 C42.3868215,4.86808378 42.4975252,4.97711982 42.4975252,5.11087658 C42.4970733,5.24463333 42.3741696,5.35631802 42.2485548,5.35234505 L4.93011037,5.23933604 L6.69911037,41.582327 C6.7054363,41.7160838 6.59970296,41.8295342 6.46279185,41.8357144 C6.45917704,41.8361559 6.45511037,41.8361559 6.4510437,41.8361559" id="Fill-173" fill="#171A36"></path>
                <polygon id="Fill-174" fill="#4A7AC6" points="37.5853533 18.2819883 37.4592867 22.7431955 43.8918496 22.7330423 44.0486422 18.4210423"></polygon>
                <polygon id="Fill-175" fill="#171A36" points="43.9273652 22.7619126 44.0489133 18.4212189 43.3151059 18.4079757 43.275343 22.1187324 37.4880244 22.1059306 37.4591059 22.7433721"></polygon>
                <path d="M37.4877985,22.7606324 L37.4859911,22.7606324 C37.3486281,22.7597495 37.2388281,22.6502721 37.2397263,22.5160739 L37.2763319,18.2795604 C37.2767837,18.2146685 37.3043467,18.1524252 37.352243,18.1069568 C37.4001393,18.0619297 37.4652059,18.0376505 37.5311763,18.0394162 L43.9452133,18.2173171 C44.0821244,18.2212901 44.190117,18.3329748 44.1860504,18.4662901 C44.1819837,18.6004883 44.0667615,18.7055514 43.9307541,18.7020198 L37.7702059,18.5307405 L37.7358652,22.5204883 C37.7345096,22.6533622 37.6238059,22.7606324 37.4877985,22.7606324" id="Fill-176" fill="#FFFFFF"></path>
                <polygon id="Fill-177" fill="#4A7AC6" points="37.4514244 30.1310712 37.3253578 34.5922784 43.7579207 34.5821252 43.9147133 30.2705667"></polygon>
                <polygon id="Fill-178" fill="#171A36" points="43.7934363 34.6109955 43.9149844 30.2703018 43.181177 30.2570586 43.1414141 33.9678153 37.3540956 33.9550135 37.325177 34.592455"></polygon>
                <path d="M37.3539148,34.6097153 L37.3521074,34.6097153 C37.2147444,34.6088324 37.1049444,34.499355 37.1058426,34.3651568 L37.1419963,30.1286432 C37.1429,30.0637514 37.1700111,30.0015081 37.2183593,29.9560396 C37.2662556,29.9110126 37.3326778,29.8871748 37.3972926,29.8884991 L43.8113296,30.0664 C43.9482407,30.070373 44.0557815,30.1820577 44.0521667,30.3158144 C44.0481,30.4495712 43.9306185,30.5537514 43.7968704,30.5511027 L37.6363222,30.3798234 L37.6019815,34.3695712 C37.6010778,34.502445 37.4899222,34.6097153 37.3539148,34.6097153" id="Fill-179" fill="#FFFFFF"></path>
            </g>
        </g>
    </g>
</svg>