<?xml version="1.0" encoding="UTF-8"?>
<svg width="16px" height="18px" viewBox="0 0 16 18" version="1.1" xmlns="http://www.w3.org/2000/svg" xmlns:xlink="http://www.w3.org/1999/xlink">
    <g id="Page-1" stroke="none" stroke-width="1" fill="none" fill-rule="evenodd">
        <g id="Icons" transform="translate(-590.000000, -770.000000)" fill="#9b9bab">
            <g id="icons/list-items/sync" transform="translate(590.000000, 770.000000)">
                <path d="M14.1416016,0 L1.29199219,0 C0.580078125,0 0,0.571289062 0,1.28320312 L0,16.7167969 C0,17.4199219 0.580078125,18 1.29199219,18 L14.1416016,18 C14.8535156,18 15.4335938,17.4199219 15.4335938,16.7167969 L15.4335938,1.28320312 C15.4335938,0.571289062 14.8535156,0 14.1416016,0 L14.1416016,0 Z M14.7919922,16.7167969 C14.7919922,17.0683594 14.5019531,17.3583984 14.1416016,17.3583984 L1.29199219,17.3583984 C0.931640625,17.3583984 0.641601562,17.0683594 0.641601562,16.7167969 L0.641601562,1.28320312 C0.641601562,0.931640625 0.931640625,0.641601562 1.29199219,0.641601562 L14.1416016,0.641601562 C14.5019531,0.641601562 14.7919922,0.931640625 14.7919922,1.28320312 L14.7919922,16.7167969 Z M12.8583984,1.92480469 L2.57519531,1.92480469 C2.21484375,1.92480469 1.93359375,2.21484375 1.93359375,2.56640625 L1.93359375,5.78320312 C1.93359375,6.14355469 2.21484375,6.42480469 2.57519531,6.42480469 L12.8583984,6.42480469 C13.21875,6.42480469 13.5,6.14355469 13.5,5.78320312 L13.5,2.56640625 C13.5,2.21484375 13.21875,1.92480469 12.8583984,1.92480469 L12.8583984,1.92480469 Z M12.8583984,5.78320312 L2.57519531,5.78320312 L2.57519531,2.56640625 L12.8583984,2.56640625 L12.8583984,5.78320312 Z M6.43359375,7.71679688 L5.79199219,7.71679688 C5.43164062,7.71679688 5.14160156,7.99804688 5.14160156,8.35839844 L5.14160156,9 C5.14160156,9.3515625 5.43164062,9.64160156 5.79199219,9.64160156 L6.43359375,9.64160156 C6.78515625,9.64160156 7.07519531,9.3515625 7.07519531,9 L7.07519531,8.35839844 C7.07519531,7.99804688 6.78515625,7.71679688 6.43359375,7.71679688 L6.43359375,7.71679688 Z M9.64160156,7.71679688 L9,7.71679688 C8.6484375,7.71679688 8.35839844,7.99804688 8.35839844,8.35839844 L8.35839844,9 C8.35839844,9.3515625 8.6484375,9.64160156 9,9.64160156 L9.64160156,9.64160156 C10.0019531,9.64160156 10.2919922,9.3515625 10.2919922,9 L10.2919922,8.35839844 C10.2919922,7.99804688 10.0019531,7.71679688 9.64160156,7.71679688 L9.64160156,7.71679688 Z M3.21679688,7.71679688 L2.57519531,7.71679688 C2.21484375,7.71679688 1.93359375,7.99804688 1.93359375,8.35839844 L1.93359375,9 C1.93359375,9.3515625 2.21484375,9.64160156 2.57519531,9.64160156 L3.21679688,9.64160156 C3.56835938,9.64160156 3.85839844,9.3515625 3.85839844,9 L3.85839844,8.35839844 C3.85839844,7.99804688 3.56835938,7.71679688 3.21679688,7.71679688 L3.21679688,7.71679688 Z M12.8583984,7.71679688 L12.2167969,7.71679688 C11.8652344,7.71679688 11.5751953,7.99804688 11.5751953,8.35839844 L11.5751953,9 C11.5751953,9.3515625 11.8652344,9.64160156 12.2167969,9.64160156 L12.8583984,9.64160156 C13.21875,9.64160156 13.5,9.3515625 13.5,9 L13.5,8.35839844 C13.5,7.99804688 13.21875,7.71679688 12.8583984,7.71679688 L12.8583984,7.71679688 Z M3.21679688,9 L2.57519531,9 L2.57519531,8.35839844 L3.21679688,8.35839844 L3.21679688,9 Z M6.43359375,9 L5.79199219,9 L5.79199219,8.35839844 L6.43359375,8.35839844 L6.43359375,9 Z M9.64160156,9 L9,9 L9,8.35839844 L9.64160156,8.35839844 L9.64160156,9 Z M12.8583984,9 L12.2167969,9 L12.2167969,8.35839844 L12.8583984,8.35839844 L12.8583984,9 Z M6.43359375,10.9248047 L5.79199219,10.9248047 C5.43164062,10.9248047 5.14160156,11.2148438 5.14160156,11.5664062 L5.14160156,12.2167969 C5.14160156,12.5683594 5.43164062,12.8583984 5.79199219,12.8583984 L6.43359375,12.8583984 C6.78515625,12.8583984 7.07519531,12.5683594 7.07519531,12.2167969 L7.07519531,11.5664062 C7.07519531,11.2148438 6.78515625,10.9248047 6.43359375,10.9248047 L6.43359375,10.9248047 Z M3.21679688,10.9248047 L2.57519531,10.9248047 C2.21484375,10.9248047 1.93359375,11.2148438 1.93359375,11.5664062 L1.93359375,12.2167969 C1.93359375,12.5683594 2.21484375,12.8583984 2.57519531,12.8583984 L3.21679688,12.8583984 C3.56835938,12.8583984 3.85839844,12.5683594 3.85839844,12.2167969 L3.85839844,11.5664062 C3.85839844,11.2148438 3.56835938,10.9248047 3.21679688,10.9248047 L3.21679688,10.9248047 Z M12.8583984,10.9248047 L12.2167969,10.9248047 C11.8652344,10.9248047 11.5751953,11.2148438 11.5751953,11.5664062 L11.5751953,15.4248047 C11.5751953,15.7851562 11.8652344,16.0664062 12.2167969,16.0664062 L12.8583984,16.0664062 C13.21875,16.0664062 13.5,15.7851562 13.5,15.4248047 L13.5,11.5664062 C13.5,11.2148438 13.21875,10.9248047 12.8583984,10.9248047 L12.8583984,10.9248047 Z M9.64160156,10.9248047 L9,10.9248047 C8.6484375,10.9248047 8.35839844,11.2148438 8.35839844,11.5664062 L8.35839844,12.2167969 C8.35839844,12.5683594 8.6484375,12.8583984 9,12.8583984 L9.64160156,12.8583984 C10.0019531,12.8583984 10.2919922,12.5683594 10.2919922,12.2167969 L10.2919922,11.5664062 C10.2919922,11.2148438 10.0019531,10.9248047 9.64160156,10.9248047 L9.64160156,10.9248047 Z M3.21679688,12.2167969 L2.57519531,12.2167969 L2.57519531,11.5664062 L3.21679688,11.5664062 L3.21679688,12.2167969 Z M6.43359375,12.2167969 L5.79199219,12.2167969 L5.79199219,11.5664062 L6.43359375,11.5664062 L6.43359375,12.2167969 Z M12.8583984,15.4248047 L12.2167969,15.4248047 L12.2167969,11.5664062 L12.8583984,11.5664062 L12.8583984,15.4248047 Z M9.64160156,12.2167969 L9,12.2167969 L9,11.5664062 L9.64160156,11.5664062 L9.64160156,12.2167969 Z M3.21679688,14.1416016 L2.57519531,14.1416016 C2.21484375,14.1416016 1.93359375,14.4316406 1.93359375,14.7832031 L1.93359375,15.4248047 C1.93359375,15.7851562 2.21484375,16.0664062 2.57519531,16.0664062 L3.21679688,16.0664062 C3.56835938,16.0664062 3.85839844,15.7851562 3.85839844,15.4248047 L3.85839844,14.7832031 C3.85839844,14.4316406 3.56835938,14.1416016 3.21679688,14.1416016 L3.21679688,14.1416016 Z M6.43359375,14.1416016 L5.79199219,14.1416016 C5.43164062,14.1416016 5.14160156,14.4316406 5.14160156,14.7832031 L5.14160156,15.4248047 C5.14160156,15.7851562 5.43164062,16.0664062 5.79199219,16.0664062 L6.43359375,16.0664062 C6.78515625,16.0664062 7.07519531,15.7851562 7.07519531,15.4248047 L7.07519531,14.7832031 C7.07519531,14.4316406 6.78515625,14.1416016 6.43359375,14.1416016 L6.43359375,14.1416016 Z M9.64160156,14.1416016 L9,14.1416016 C8.6484375,14.1416016 8.35839844,14.4316406 8.35839844,14.7832031 L8.35839844,15.4248047 C8.35839844,15.7851562 8.6484375,16.0664062 9,16.0664062 L9.64160156,16.0664062 C10.0019531,16.0664062 10.2919922,15.7851562 10.2919922,15.4248047 L10.2919922,14.7832031 C10.2919922,14.4316406 10.0019531,14.1416016 9.64160156,14.1416016 L9.64160156,14.1416016 Z M9.64160156,15.4248047 L9,15.4248047 L9,14.7832031 L9.64160156,14.7832031 L9.64160156,15.4248047 Z M3.21679688,15.4248047 L2.57519531,15.4248047 L2.57519531,14.7832031 L3.21679688,14.7832031 L3.21679688,15.4248047 Z M6.43359375,15.4248047 L5.79199219,15.4248047 L5.79199219,14.7832031 L6.43359375,14.7832031 L6.43359375,15.4248047 Z" id="Shape"></path>
            </g>
        </g>
    </g>
</svg>
