<?xml version="1.0" encoding="utf-8"?>
<!-- Generator: Adobe Illustrator 20.1.0, SVG Export Plug-In . SVG Version: 6.00 Build 0)  -->
<svg version="1.1" id="camera-toggle" xmlns="http://www.w3.org/2000/svg" xmlns:xlink="http://www.w3.org/1999/xlink" x="0px"
	 y="0px" viewBox="0 0 40 40" style="enable-background:new 0 0 40 40;" xml:space="preserve">
<style type="text/css">
	.st0{opacity:0.8;fill:none;stroke:#FFFFFF;}
	.st1{opacity:0.386;fill:#FFFFFF;enable-background:new    ;}
</style>
<path id="top-arrow-line" class="st0" d="M10.5,18.1c0-4.7,4.3-8.5,9.5-8.5c3.7,0,6.9,1.9,8.5,4.7"/>
<path id="bottom-arrow-line" class="st0" d="M29.5,21c0,4.7-4.3,8.5-9.5,8.5c-3.7,0-6.9-1.9-8.5-4.7"/>
<polyline id="top-arrow-head" class="st0" points="28.9,11.1 28.4,14.1 25,13.7 "/>
<polyline id="bottom-arrow-head" class="st0" points="11,27.8 11.4,24.8 14.8,25.2 "/>
<path id="camera" class="st1" d="M24.6,21.9c0,0.8-0.7,1.5-1.5,1.5H17c-0.8,0-1.5-0.7-1.5-1.5v-3.5c0-0.8,0.7-1.5,1.5-1.5h1l0.8-1.1
	h2.5l0.8,1.1h1c0.8,0,1.5,0.7,1.5,1.5V21.9z M20.1,21.9c1.1,0,2.1-0.8,2.1-1.9s-0.9-1.9-2.1-1.9C18.9,18.1,18,19,18,20
	S18.9,21.9,20.1,21.9z"/>
</svg>
