<?xml version="1.0" encoding="UTF-8"?>
<svg width="50px" height="50px" viewBox="0 0 50 50" version="1.1" xmlns="http://www.w3.org/2000/svg" xmlns:xlink="http://www.w3.org/1999/xlink">
    <!-- Generator: Sketch 52.5 (67469) - http://www.bohemiancoding.com/sketch -->
    <title>Brand/Icon/GameStop</title>
    <desc>Created with Sketch.</desc>
    <g id="Brand/Icon/GameStop" stroke="none" stroke-width="1" fill="none" fill-rule="evenodd">
        <rect id="Rectangle" fill="#000000" x="0" y="0" width="50" height="50"></rect>
        <g id="GameStop_logo" transform="translate(5.000000, 22.000000)">
            <polyline id="Fill-5" fill="#020201" opacity="0" points="8.12309179 8.78434783 8.4363285 8.78434783 8.69603865 9.88888889 8.96183575 8.78434783 9.19681159 8.78434783 9.46463768 9.89101449 9.72222222 8.78434783 10.0335266 8.78434783 9.62125604 10.309372 9.34521739 10.309372 9.07719807 9.22743961 8.81130435 10.309372 8.52705314 10.309372 8.12309179 8.78434783"></polyline>
            <polyline id="Fill-6" fill="#020201" opacity="0" points="10.5616425 8.78434783 11.4169082 8.78434783 11.4169082 9.0542029 10.8687923 9.0542029 10.8687923 9.40048309 11.4066667 9.40048309 11.4066667 9.67033816 10.8687923 9.67033816 10.8687923 10.0393237 11.4169082 10.0393237 11.4169082 10.309372 10.5616425 10.309372 10.5616425 8.78434783"></polyline>
            <path d="M12.0871498,8.78434783 L12.5486957,8.78434783 C12.7857005,8.78434783 12.9216425,8.82135266 13.0041546,8.88115942 C13.1298551,8.97198068 13.1978744,9.12628019 13.1978744,9.29545894 C13.1978744,9.40676329 13.1668599,9.50560386 13.1153623,9.57980676 C13.0495652,9.67661836 12.9628986,9.71980676 12.864058,9.74454106 L13.204058,10.309372 L12.8825121,10.309372 L12.4724638,9.60038647 L12.5322705,9.60038647 C12.6332367,9.60038647 12.7424155,9.59410628 12.8062802,9.5447343 C12.866087,9.4952657 12.9031884,9.41487923 12.9031884,9.32222222 C12.9031884,9.22937198 12.8577778,9.14502415 12.7898551,9.10164251 C12.7342029,9.06666667 12.66,9.0542029 12.57343,9.0542029 L12.3941063,9.0542029 L12.3941063,10.309372 L12.0871498,10.309372 L12.0871498,8.78434783" id="Fill-7" fill="#020201" opacity="0"></path>
            <polyline id="Fill-12" fill="#020201" opacity="0" points="18.7487923 9.0542029 18.4190338 9.0542029 18.4190338 8.78434783 19.3834783 8.78434783 19.3834783 9.0542029 19.0558454 9.0542029 19.0558454 10.309372 18.7487923 10.309372 18.7487923 9.0542029"></polyline>
            <polyline id="Fill-13" fill="#020201" opacity="0" points="19.8537198 10.309372 19.8537198 8.78434783 20.1607729 8.78434783 20.1607729 9.3963285 20.7481159 9.3963285 20.7481159 8.78434783 21.0551691 8.78434783 21.0551691 10.309372 20.7481159 10.309372 20.7481159 9.66618357 20.1607729 9.66618357 20.1607729 10.309372 19.8537198 10.309372"></polyline>
            <polyline id="Fill-14" fill="#020201" opacity="0" points="21.7336232 8.78434783 22.5887923 8.78434783 22.5887923 9.0542029 22.0406763 9.0542029 22.0406763 9.40048309 22.5784541 9.40048309 22.5784541 9.67033816 22.0406763 9.67033816 22.0406763 10.0393237 22.5887923 10.0393237 22.5887923 10.309372 21.7336232 10.309372 21.7336232 8.78434783"></polyline>
            <path d="M24.3170048,9.51584541 L24.4984541,9.51584541 C24.5685024,9.51584541 24.6364251,9.50956522 24.6982609,9.47671498 C24.753913,9.44792271 24.7992271,9.37990338 24.7992271,9.28299517 C24.7992271,9.18618357 24.753913,9.12241546 24.6941063,9.09352657 C24.6322705,9.06048309 24.5623188,9.0542029 24.4859903,9.0542029 L24.3170048,9.0542029 L24.3170048,9.51584541 Z M24.4714976,8.78434783 C24.7290821,8.78434783 24.8323671,8.82135266 24.9208696,8.8894686 C25.0321739,8.98009662 25.0941063,9.1284058 25.0941063,9.27903382 C25.0941063,9.42937198 25.0301449,9.5857971 24.9333333,9.66415459 C24.8302415,9.74869565 24.7272464,9.78589372 24.5046377,9.78589372 L24.3170048,9.78589372 L24.3170048,10.309372 L24.0099517,10.309372 L24.0099517,8.78434783 L24.4714976,8.78434783 Z" id="Fill-15" fill="#020201" opacity="0"></path>
            <polyline id="Fill-16" fill="#020201" opacity="0" points="25.6199034 8.78434783 25.9269565 8.78434783 25.9269565 10.0393237 26.4277295 10.0393237 26.4277295 10.309372 25.6199034 10.309372 25.6199034 8.78434783"></polyline>
            <path d="M27.4647343,9.14705314 L27.2483092,9.76531401 L27.687343,9.76531401 L27.4647343,9.14705314 Z M27.0588406,10.309372 L26.7249275,10.309372 L27.3430918,8.78434783 L27.6130435,8.78434783 L28.2169082,10.309372 L27.8809662,10.309372 L27.7696618,10.0104348 L27.1680193,10.0104348 L27.0588406,10.309372 Z" id="Fill-17" fill="#020201" opacity="0"></path>
            <polyline id="Fill-18" fill="#020201" opacity="0" points="28.8727536 9.76318841 28.4049275 8.78434783 28.7368116 8.78434783 29.0252174 9.47671498 29.3158454 8.78434783 29.6454106 8.78434783 29.1798068 9.76318841 29.1798068 10.309372 28.8727536 10.309372 28.8727536 9.76318841"></polyline>
            <polyline id="Fill-19" fill="#020201" opacity="0" points="30.1221256 8.78434783 30.9771014 8.78434783 30.9771014 9.0542029 30.4290821 9.0542029 30.4290821 9.40048309 30.9668599 9.40048309 30.9668599 9.67033816 30.4290821 9.67033816 30.4290821 10.0393237 30.9771014 10.0393237 30.9771014 10.309372 30.1221256 10.309372 30.1221256 8.78434783"></polyline>
            <path d="M35.1543197,9.2107294 L35.2480632,9.2107294 C35.3279962,9.2107294 35.401861,9.2063102 35.401861,9.11413849 C35.401861,9.03648697 35.3353199,9.0249129 35.27401,9.0249129 L35.1543197,9.0249129 L35.1543197,9.2107294 Z M35.0639242,8.95104926 L35.2886574,8.95104926 C35.4269709,8.95104926 35.4920473,9.00618394 35.4920473,9.11792637 C35.4920473,9.22398697 35.4255062,9.26796845 35.3392957,9.27743815 L35.5054392,9.53543478 L35.4079293,9.53543478 L35.2501557,9.28438259 L35.1543197,9.28438259 L35.1543197,9.53543478 L35.0639242,9.53543478 L35.0639242,8.95104926 Z M35.2578979,9.66990448 C35.4882808,9.66990448 35.665933,9.48535061 35.665933,9.24124286 C35.665933,9.00155431 35.4882808,8.81742131 35.2578979,8.81742131 C35.0252132,8.81742131 34.8469332,9.00155431 34.8469332,9.24124286 C34.8469332,9.48535061 35.0252132,9.66990448 35.2578979,9.66990448 Z M35.2578979,8.74376812 C35.5290843,8.74376812 35.7563285,8.95883546 35.7563285,9.24124286 C35.7563285,9.52849034 35.5290843,9.74376812 35.2578979,9.74376812 C34.9854559,9.74376812 34.7563285,9.52849034 34.7563285,9.24124286 C34.7563285,8.95883546 34.9854559,8.74376812 35.2578979,8.74376812 Z" id="Fill-24" fill="#020201" opacity="0"></path>
            <path d="M6.96521739,2.94705314 C6.96521739,2.65487923 6.98077295,2.47410628 7.01101449,2.40492754 C7.04183575,2.33545894 7.11922705,2.3010628 7.24463768,2.3010628 C7.35391304,2.3010628 7.43304348,2.34222222 7.48,2.42512077 C7.527343,2.50801932 7.55101449,2.68492754 7.55101449,2.95613527 C7.55101449,3.17304348 7.5294686,3.31710145 7.48599034,3.38763285 C7.44299517,3.45826087 7.11294686,3.59545894 6.49700483,3.7989372 C5.92086957,3.9884058 5.56009662,4.15352657 5.41478261,4.29410628 C5.26937198,4.43536232 5.19661836,4.69913043 5.19661836,5.08618357 L5.19661836,5.51333333 C5.19661836,6.03826087 5.33342995,6.37797101 5.60724638,6.53256039 C5.88086957,6.68705314 6.18144928,6.76405797 6.50927536,6.76405797 C6.76009662,6.76405797 6.97584541,6.7178744 7.15623188,6.62550725 C7.33729469,6.53342995 7.48502415,6.39381643 7.59980676,6.20608696 L7.59980676,6.66975845 L9.42956522,6.66975845 L9.42956522,4.0610628 C9.42956522,3.20144928 9.39690821,2.63487923 9.33188406,2.35971014 C9.26695652,2.08492754 9.07323671,1.85323671 8.75111111,1.66357488 C8.42879227,1.47458937 7.95062802,1.38009662 7.31584541,1.38009662 C6.78570048,1.38009662 6.3552657,1.46328502 6.02396135,1.63004831 C5.69217391,1.79758454 5.47178744,1.99033816 5.36154589,2.2084058 C5.25140097,2.42695652 5.19661836,2.59913043 5.19661836,3.00241546 L5.19661836,3.23294686 L6.96521739,3.23294686 L6.96521739,2.94705314 Z M7.55101449,5.26898551 C7.55101449,5.52917874 7.53371981,5.69024155 7.49826087,5.75140097 C7.46338164,5.81246377 7.38772947,5.84309179 7.27207729,5.84309179 C7.14995169,5.84309179 7.0684058,5.80463768 7.02724638,5.72647343 C6.98608696,5.64898551 6.96521739,5.47555556 6.96521739,5.20589372 C6.96521739,4.97285024 6.98937198,4.79410628 7.03652174,4.66995169 C7.0836715,4.54618357 7.25516908,4.39130435 7.55101449,4.2057971 L7.55101449,5.26898551 Z" id="Fill-25" fill="#FFFFFF"></path>
            <path d="M11.9789372,1.47971014 L11.9780676,1.96937198 C12.1239614,1.77323671 12.2978744,1.6257971 12.5001932,1.5268599 C12.7026087,1.42879227 12.9327536,1.38009662 13.1910145,1.38009662 C13.6948792,1.38009662 14.0910145,1.57690821 14.3804831,1.96937198 C14.5381643,1.77323671 14.7163285,1.6257971 14.9145894,1.5268599 C15.1127536,1.42879227 15.3328502,1.38009662 15.574686,1.38009662 C15.8938164,1.38009662 16.1574879,1.44521739 16.3669565,1.57594203 C16.5763285,1.70657005 16.7104348,1.86676329 16.7694686,2.05574879 C16.8276329,2.24502415 16.8574879,2.55275362 16.8574879,2.97913043 L16.8574879,6.66975845 L15.0275362,6.66975845 L15.0275362,3.28299517 C15.0275362,2.84154589 15.0097585,2.56782609 14.9750725,2.46096618 C14.9395169,2.35400966 14.8577778,2.3010628 14.729372,2.3010628 C14.5978744,2.3010628 14.5131401,2.35352657 14.4747826,2.45855072 C14.4369082,2.56396135 14.4174879,2.83826087 14.4174879,3.28299517 L14.4174879,6.66975845 L12.5881159,6.66975845 L12.5881159,3.36850242 C12.5881159,2.86096618 12.5732367,2.55642512 12.5434783,2.4542029 C12.5141063,2.35207729 12.4324638,2.3010628 12.298744,2.3010628 C12.2152657,2.3010628 12.1438647,2.32830918 12.0850242,2.38222222 C12.0257971,2.43623188 11.99343,2.5010628 11.9874396,2.57835749 C11.9806763,2.65458937 11.9780676,2.81884058 11.9780676,3.07120773 L11.9780676,6.66975845 L10.1481159,6.66975845 L10.1481159,1.47971014 L11.9789372,1.47971014" id="Fill-26" fill="#FFFFFF"></path>
            <path d="M21.7676329,3.47652174 C21.7676329,2.97178744 21.6981643,2.58038647 21.5601932,2.30193237 C21.4217391,2.02376812 21.1815459,1.8010628 20.8380676,1.63217391 C20.4949758,1.46454106 20.0594203,1.38009662 19.5317874,1.38009662 C19.0997101,1.38009662 18.7178744,1.44937198 18.3854106,1.5894686 C18.0530435,1.72937198 17.813913,1.93033816 17.6681159,2.19323671 C17.5217391,2.45574879 17.4492754,2.81468599 17.4492754,3.26753623 L17.4492754,4.78173913 C17.4492754,5.16937198 17.4815459,5.46415459 17.5469565,5.6668599 C17.6120773,5.86956522 17.7291787,6.05507246 17.8985507,6.22328502 C18.0674396,6.39178744 18.3044444,6.52386473 18.6089855,6.61990338 C18.9136232,6.71603865 19.2641546,6.76405797 19.6617391,6.76405797 C20.0718841,6.76405797 20.4125604,6.71516908 20.6838647,6.61835749 C20.9561353,6.52038647 21.1807729,6.37497585 21.3577778,6.17990338 C21.5343961,5.98570048 21.6468599,5.80164251 21.6949758,5.62975845 C21.743285,5.45748792 21.7676329,5.21072464 21.7676329,4.89091787 L21.7676329,4.58405797 L19.98657,4.58405797 L19.98657,5.1894686 C19.98657,5.44637681 19.9622222,5.61922705 19.9135266,5.70879227 C19.8646377,5.79806763 19.7683092,5.84309179 19.6244444,5.84309179 C19.5085024,5.84309179 19.4295652,5.80937198 19.3889855,5.74202899 C19.3480193,5.67458937 19.3278261,5.52415459 19.3278261,5.29004831 L19.3278261,4.16647343 L21.7676329,4.16647343 L21.7676329,3.47652174 Z M19.3278261,3.36434783 L19.3278261,2.93855072 C19.3278261,2.64570048 19.3436715,2.4657971 19.3751691,2.40009662 C19.4066667,2.33381643 19.4891787,2.3010628 19.6228019,2.3010628 C19.7307246,2.3010628 19.8013527,2.33980676 19.8366184,2.41758454 C19.8712077,2.49565217 19.8886957,2.66927536 19.8886957,2.93855072 L19.8886957,3.36434783 L19.3278261,3.36434783 Z" id="Fill-27" fill="#FFFFFF"></path>
            <path d="M29.2702415,0.63884058 L29.2702415,1.34280193 L29.8731401,1.34280193 L29.8731401,1.9978744 L29.2702415,1.9978744 L29.2702415,5.20009662 C29.2702415,5.54289855 29.2917874,5.73371981 29.3340097,5.7731401 C29.3771014,5.81188406 29.5553623,5.83091787 29.8679227,5.83091787 L29.8679227,6.66975845 L29.1078261,6.66975845 C28.6786473,6.66975845 28.48,6.65536232 28.296715,6.62647343 C28.1133333,6.59816425 27.9515942,6.52937198 27.811401,6.41990338 C27.6713043,6.30975845 27.5845411,6.18531401 27.5507246,6.04550725 C27.5162319,5.90589372 27.4992271,5.57729469 27.4992271,5.06048309 L27.4992271,1.9978744 L27.1317874,1.9978744 L27.1317874,1.34280193 L27.4992271,1.34280193 L27.4992271,0.63884058 L29.2702415,0.63884058" id="Fill-28" fill="#DA322A"></path>
            <path d="M34.4078261,2.47516908 C34.3468599,2.29468599 34.2343961,2.11951691 34.0698551,1.94995169 C33.9049275,1.77971014 33.6709179,1.64251208 33.3680193,1.53748792 C33.0648309,1.43256039 32.7015459,1.38009662 32.2794203,1.38009662 C31.7755556,1.38009662 31.3617391,1.46164251 31.0382609,1.62560386 C30.7151691,1.78898551 30.4912077,2.00676329 30.3670531,2.27864734 C30.2423188,2.5505314 30.1803865,2.9284058 30.1803865,3.41207729 L30.1803865,4.74531401 C30.1803865,5.187343 30.2145894,5.51864734 30.283285,5.73922705 C30.3517874,5.96 30.4657005,6.14782609 30.6257971,6.30270531 C30.7859903,6.45719807 31.0113043,6.57256039 31.3003865,6.64898551 C31.5885024,6.72541063 31.9416425,6.76405797 32.3580676,6.76405797 C32.7312077,6.76405797 33.0621256,6.7189372 33.3495652,6.62879227 C33.6364251,6.53903382 33.8720773,6.39913043 34.0553623,6.21004831 C34.2389372,6.0210628 34.3585507,5.81729469 34.4143961,5.59961353 C34.4708213,5.38173913 34.4989372,5.03835749 34.4989372,4.57033816 L34.4989372,3.29932367 C34.4989372,2.92985507 34.4678261,2.65497585 34.4078261,2.47516908 M32.6203865,5.30289855 C32.6203865,5.52782609 32.6023188,5.67458937 32.5655072,5.74164251 C32.5290821,5.80937198 32.4536232,5.84309179 32.3398068,5.84309179 C32.2289855,5.84309179 32.153913,5.80560386 32.1161353,5.73062802 C32.0778744,5.65584541 32.0590338,5.49671498 32.0590338,5.25342995 L32.0590338,2.90859903 C32.0590338,2.64115942 32.0778744,2.47333333 32.1161353,2.40454106 C32.153913,2.33545894 32.2301449,2.3010628 32.3447343,2.3010628 C32.4584541,2.3010628 32.5332367,2.33545894 32.5677295,2.40454106 C32.6028019,2.47333333 32.6203865,2.64115942 32.6203865,2.90859903 L32.6203865,5.30289855" id="Fill-29" fill="#DA322A"></path>
            <path d="M26.5085024,3.66657005 C26.2811594,3.3752657 25.7329469,3.00309179 24.862029,2.54869565 C24.5582609,2.39236715 24.3733333,2.25855072 24.3068599,2.14821256 C24.2361353,2.04019324 24.2017391,1.87729469 24.2017391,1.65874396 C24.2017391,1.4894686 24.2319807,1.36318841 24.2915942,1.28009662 C24.3521739,1.19681159 24.4410628,1.15507246 24.5582609,1.15507246 C24.667343,1.15507246 24.7442512,1.18666667 24.7903382,1.24811594 C24.8371014,1.31004831 24.8601932,1.45371981 24.8601932,1.67971014 L24.8601932,2.16657005 L26.677971,2.16657005 L26.677971,1.90599034 C26.677971,1.38560386 26.6197101,1.01690821 26.5036715,0.799613527 C26.387343,0.582608696 26.1503382,0.402705314 25.7931401,0.260289855 C25.4349758,0.117391304 25.0024155,0.0462801932 24.494686,0.0462801932 C24.0294686,0.0462801932 23.6333333,0.111304348 23.3052174,0.24173913 C22.9771981,0.372077295 22.7393237,0.553429952 22.5922705,0.785603865 C22.4455072,1.01816425 22.3716908,1.38560386 22.3716908,1.88792271 C22.3716908,2.2352657 22.4235749,2.52057971 22.5269565,2.74386473 C22.6309179,2.96666667 22.7613527,3.14193237 22.9197101,3.26937198 C23.0774879,3.39642512 23.3992271,3.59980676 23.8857005,3.87922705 C24.371401,4.1589372 24.6763285,4.35768116 24.8010628,4.47536232 C24.9215459,4.59603865 24.9822222,4.84850242 24.9822222,5.23227053 C24.9822222,5.40560386 24.9507246,5.53748792 24.887343,5.62714976 C24.8239614,5.71710145 24.727343,5.76183575 24.5976812,5.76183575 C24.4678261,5.76183575 24.3776812,5.72724638 24.3266667,5.65700483 C24.275942,5.58772947 24.2502415,5.42879227 24.2502415,5.17990338 L24.2502415,4.71942029 L22.4322705,4.71942029 L22.4322705,4.9505314 C22.4322705,5.44386473 22.4898551,5.68676329 22.6043478,5.95381643 C22.7194203,6.22057971 22.9621256,6.44038647 23.3333333,6.61256039 C23.7031884,6.78463768 24.1510145,6.87072464 24.6758454,6.87072464 C25.15343,6.87072464 25.5723671,6.79613527 25.9318841,6.64763285 C26.2918841,6.49855072 26.5343961,6.31342995 26.6604831,6.09149758 C26.7855072,5.87024155 26.8487923,5.52657005 26.8487923,5.06183575 C26.8487923,4.42019324 26.7351691,3.95478261 26.5085024,3.66657005" id="Fill-30" fill="#DA322A"></path>
            <path d="M35.1471498,1.41700483 L35.1471498,7.96859903 L36.8691787,7.96859903 L36.8691787,6.20396135 C37.0337198,6.38328502 37.2154589,6.51806763 37.4154589,6.60859903 C37.6148792,6.6989372 37.831401,6.74463768 38.0646377,6.74463768 C38.3576812,6.74463768 38.6071498,6.68541063 38.8142995,6.56821256 C39.0213527,6.45043478 39.1589372,6.29217391 39.2257005,6.092657 C39.2925604,5.89333333 39.3258937,5.55826087 39.3258937,5.08666667 L39.3258937,2.90763285 C39.3258937,2.49719807 39.2997101,2.20657005 39.2470531,2.03545894 C39.1940097,1.86502415 39.0607729,1.71371981 38.8467633,1.58241546 C38.6337198,1.45130435 38.3810628,1.38531401 38.0884058,1.38531401 C37.8485024,1.38531401 37.627343,1.43101449 37.4249275,1.52164251 C37.2224155,1.61227053 37.0371014,1.74995169 36.8691787,1.93429952 L36.8698551,1.41700483 L35.1471498,1.41700483 Z M37.427343,5.20251208 C37.427343,5.48096618 37.4124638,5.65603865 37.3837681,5.72676329 C37.354686,5.79806763 37.2804831,5.83381643 37.1618357,5.83381643 C37.0395169,5.83381643 36.9604831,5.7942029 36.9236715,5.71565217 C36.8870531,5.63690821 36.8691787,5.44193237 36.8691787,5.12985507 L36.8691787,2.98241546 C36.8691787,2.6826087 36.886087,2.49362319 36.9216425,2.41468599 C36.9565217,2.33594203 37.0355556,2.29690821 37.1576812,2.29690821 C37.282029,2.29690821 37.3584541,2.33082126 37.3859903,2.39922705 C37.4137198,2.46695652 37.427343,2.66164251 37.427343,2.98241546 L37.427343,5.20251208 Z" id="Fill-31" fill="#DA322A"></path>
            <path d="M4.56222222,2.59323671 L2.59835749,2.59323671 L2.59835749,1.99980676 C2.59835749,1.62521739 2.57942029,1.39120773 2.54231884,1.29652174 C2.50502415,1.20280193 2.4163285,1.15507246 2.27661836,1.15507246 C2.15507246,1.15507246 2.07256039,1.19623188 2.02888889,1.27855072 C1.98541063,1.36086957 1.96405797,1.56743961 1.96405797,1.89903382 L1.96405797,5.04154589 C1.96405797,5.33555556 1.98541063,5.52937198 2.02937198,5.62280193 C2.07256039,5.71536232 2.16009662,5.76183575 2.29111111,5.76183575 C2.43342995,5.76183575 2.53091787,5.70927536 2.5821256,5.60376812 C2.63342995,5.49845411 2.65922705,5.29391304 2.65922705,4.99004831 L2.65922705,4.21458937 L2.26879227,4.21458937 L2.26879227,3.37826087 L4.56222222,3.37826087 L4.56222222,6.73671498 L3.28763285,6.73671498 L3.14125604,6.27120773 C3.007343,6.47294686 2.83874396,6.62309179 2.6352657,6.72231884 C2.43169082,6.82144928 2.19169082,6.87072464 1.91516908,6.87072464 C1.58599034,6.87072464 1.27797101,6.80193237 0.990434783,6.66405797 C0.702801932,6.52550725 0.484637681,6.35381643 0.335555556,6.14753623 C0.18647343,5.94115942 0.0931400966,5.7257971 0.055942029,5.5010628 C0.018647343,5.27594203 0,4.9389372 0,4.48898551 L0,2.54463768 C0,1.91816425 0.038647343,1.46289855 0.116231884,1.17932367 C0.194396135,0.895652174 0.417004831,0.635652174 0.78589372,0.399323671 C1.15439614,0.163961353 1.63082126,0.0462801932 2.21565217,0.0462801932 C2.79091787,0.0462801932 3.26821256,0.148405797 3.64772947,0.353429952 C4.02695652,0.557584541 4.27439614,0.800966184 4.38956522,1.0826087 C4.50444444,1.36444444 4.56222222,1.77352657 4.56222222,2.31014493 L4.56222222,2.59323671" id="Fill-32" fill="#FFFFFF"></path>
            <path d="M39.8509381,1.86135908 L39.9446815,1.86135908 C40.0246146,1.86135908 40.0984794,1.856518 40.0984794,1.76453736 C40.0984794,1.68707998 40.0319383,1.67529299 39.9708376,1.67529299 L39.8509381,1.67529299 L39.8509381,1.86135908 Z M39.7607518,1.60141381 L39.985485,1.60141381 C40.1235893,1.60141381 40.1886656,1.65656009 40.1886656,1.76832604 C40.1886656,1.87419849 40.1221245,1.91818922 40.035914,1.92766091 L40.2020576,2.18592233 L40.1045476,2.18592233 L39.946774,1.9348173 L39.8509381,1.9348173 L39.8509381,2.18592233 L39.7607518,2.18592233 L39.7607518,1.60141381 Z M39.9545162,2.32042033 C40.1848992,2.32042033 40.3627606,2.1360381 40.3627606,1.89166849 C40.3627606,1.65192949 40.1848992,1.46775774 39.9545162,1.46775774 C39.7218316,1.46775774 39.5435516,1.65192949 39.5435516,1.89166849 C39.5435516,2.1360381 39.7218316,2.32042033 39.9545162,2.32042033 Z M39.9545162,1.39429952 C40.2257027,1.39429952 40.4529469,1.60941212 40.4529469,1.89166849 C40.4529469,2.17897643 40.2257027,2.39429952 39.9545162,2.39429952 C39.6822835,2.39429952 39.4529469,2.17897643 39.4529469,1.89166849 C39.4529469,1.60941212 39.6822835,1.39429952 39.9545162,1.39429952 Z" id="Fill-33" fill="#DA322A"></path>
        </g>
    </g>
</svg>