<?xml version="1.0" encoding="UTF-8"?>
<svg width="160px" height="73px" viewBox="0 0 160 73" version="1.1" xmlns="http://www.w3.org/2000/svg" xmlns:xlink="http://www.w3.org/1999/xlink">
    <!-- Generator: Sketch 52.5 (67469) - http://www.bohemiancoding.com/sketch -->
    <title>logo-box</title>
    <desc>Created with Sketch.</desc>
    <g id="Symbols" stroke="none" stroke-width="1" fill="none" fill-rule="evenodd">
        <g id="Brand/Card/Small/GameStop">
            <g id="Mask"></g>
            <g id="GameStop_logo" transform="translate(20.000000, 25.000000)">
                <path d="M20.8956522,8.84115942 C20.8956522,7.96463768 20.9423188,7.42231884 21.0330435,7.21478261 C21.1255072,7.00637681 21.3576812,6.90318841 21.733913,6.90318841 C22.0617391,6.90318841 22.2991304,7.02666667 22.44,7.27536232 C22.582029,7.52405797 22.6530435,8.05478261 22.6530435,8.8684058 C22.6530435,9.51913043 22.5884058,9.95130435 22.457971,10.1628986 C22.3289855,10.3747826 21.3388406,10.7863768 19.4910145,11.3968116 C17.7626087,11.9652174 16.6802899,12.4605797 16.2443478,12.8823188 C15.8081159,13.306087 15.5898551,14.0973913 15.5898551,15.2585507 L15.5898551,16.54 C15.5898551,18.1147826 16.0002899,19.133913 16.8217391,19.5976812 C17.6426087,20.0611594 18.5443478,20.2921739 19.5278261,20.2921739 C20.2802899,20.2921739 20.9275362,20.1536232 21.4686957,19.8765217 C22.0118841,19.6002899 22.4550725,19.1814493 22.7994203,18.6182609 L22.7994203,20.0092754 L28.2886957,20.0092754 L28.2886957,12.1831884 C28.2886957,9.60434783 28.1907246,7.90463768 27.9956522,7.07913043 C27.8008696,6.25478261 27.2197101,5.55971014 26.2533333,4.99072464 C25.2863768,4.42376812 23.8518841,4.14028986 21.9475362,4.14028986 C20.3571014,4.14028986 19.0657971,4.38985507 18.0718841,4.89014493 C17.0765217,5.39275362 16.4153623,5.97101449 16.0846377,6.62521739 C15.7542029,7.28086957 15.5898551,7.7973913 15.5898551,9.00724638 L15.5898551,9.69884058 L20.8956522,9.69884058 L20.8956522,8.84115942 Z M22.6530435,15.8069565 C22.6530435,16.5875362 22.6011594,17.0707246 22.4947826,17.2542029 C22.3901449,17.4373913 22.1631884,17.5292754 21.8162319,17.5292754 C21.4498551,17.5292754 21.2052174,17.413913 21.0817391,17.1794203 C20.9582609,16.9469565 20.8956522,16.4266667 20.8956522,15.6176812 C20.8956522,14.9185507 20.9681159,14.3823188 21.1095652,14.0098551 C21.2510145,13.6385507 21.7655072,13.173913 22.6530435,12.6173913 L22.6530435,15.8069565 Z" id="Fill-25" fill="#FFFFFF"></path>
                <path d="M35.9368116,4.43913043 L35.9342029,5.90811594 C36.3718841,5.31971014 36.8936232,4.8773913 37.5005797,4.58057971 C38.1078261,4.28637681 38.7982609,4.14028986 39.5730435,4.14028986 C41.0846377,4.14028986 42.2730435,4.73072464 43.1414493,5.90811594 C43.6144928,5.31971014 44.1489855,4.8773913 44.7437681,4.58057971 C45.3382609,4.28637681 45.9985507,4.14028986 46.724058,4.14028986 C47.6814493,4.14028986 48.4724638,4.33565217 49.1008696,4.72782609 C49.7289855,5.11971014 50.1313043,5.60028986 50.3084058,6.16724638 C50.4828986,6.73507246 50.5724638,7.65826087 50.5724638,8.9373913 L50.5724638,20.0092754 L45.0826087,20.0092754 L45.0826087,9.84898551 C45.0826087,8.52463768 45.0292754,7.70347826 44.9252174,7.38289855 C44.8185507,7.06202899 44.5733333,6.90318841 44.1881159,6.90318841 C43.7936232,6.90318841 43.5394203,7.06057971 43.4243478,7.37565217 C43.3107246,7.69188406 43.2524638,8.51478261 43.2524638,9.84898551 L43.2524638,20.0092754 L37.7643478,20.0092754 L37.7643478,10.1055072 C37.7643478,8.58289855 37.7197101,7.66927536 37.6304348,7.3626087 C37.5423188,7.05623188 37.2973913,6.90318841 36.8962319,6.90318841 C36.6457971,6.90318841 36.4315942,6.98492754 36.2550725,7.14666667 C36.0773913,7.30869565 35.9802899,7.50318841 35.9623188,7.73507246 C35.942029,7.96376812 35.9342029,8.45652174 35.9342029,9.21362319 L35.9342029,20.0092754 L30.4443478,20.0092754 L30.4443478,4.43913043 L35.9368116,4.43913043" id="Fill-26" fill="#FFFFFF"></path>
                <path d="M65.3028986,10.4295652 C65.3028986,8.91536232 65.0944928,7.74115942 64.6805797,6.9057971 C64.2652174,6.07130435 63.5446377,5.40318841 62.5142029,4.89652174 C61.4849275,4.39362319 60.1782609,4.14028986 58.5953623,4.14028986 C57.2991304,4.14028986 56.1536232,4.34811594 55.1562319,4.7684058 C54.1591304,5.18811594 53.4417391,5.79101449 53.0043478,6.57971014 C52.5652174,7.36724638 52.3478261,8.44405797 52.3478261,9.8026087 L52.3478261,14.3452174 C52.3478261,15.5081159 52.4446377,16.3924638 52.6408696,17.0005797 C52.8362319,17.6086957 53.1875362,18.1652174 53.6956522,18.6698551 C54.2023188,19.1753623 54.9133333,19.5715942 55.8269565,19.8597101 C56.7408696,20.1481159 57.7924638,20.2921739 58.9852174,20.2921739 C60.2156522,20.2921739 61.2376812,20.1455072 62.0515942,19.8550725 C62.8684058,19.5611594 63.5423188,19.1249275 64.0733333,18.5397101 C64.6031884,17.9571014 64.9405797,17.4049275 65.0849275,16.8892754 C65.2298551,16.3724638 65.3028986,15.6321739 65.3028986,14.6727536 L65.3028986,13.7521739 L59.9597101,13.7521739 L59.9597101,15.5684058 C59.9597101,16.3391304 59.8866667,16.8576812 59.7405797,17.1263768 C59.593913,17.3942029 59.3049275,17.5292754 58.8733333,17.5292754 C58.5255072,17.5292754 58.2886957,17.4281159 58.1669565,17.226087 C58.044058,17.0237681 57.9834783,16.5724638 57.9834783,15.8701449 L57.9834783,12.4994203 L65.3028986,12.4994203 L65.3028986,10.4295652 Z M57.9834783,10.0930435 L57.9834783,8.81565217 C57.9834783,7.93710145 58.0310145,7.3973913 58.1255072,7.20028986 C58.22,7.00144928 58.4675362,6.90318841 58.8684058,6.90318841 C59.1921739,6.90318841 59.404058,7.01942029 59.5098551,7.25275362 C59.6136232,7.48695652 59.666087,8.00782609 59.666087,8.81565217 L59.666087,10.0930435 L57.9834783,10.0930435 Z" id="Fill-27" fill="#FFFFFF"></path>
                <path d="M87.8107246,1.91652174 L87.8107246,4.0284058 L89.6194203,4.0284058 L89.6194203,5.99362319 L87.8107246,5.99362319 L87.8107246,15.6002899 C87.8107246,16.6286957 87.8753623,17.2011594 88.002029,17.3194203 C88.1313043,17.4356522 88.666087,17.4927536 89.6037681,17.4927536 L89.6037681,20.0092754 L87.3234783,20.0092754 C86.035942,20.0092754 85.44,19.966087 84.8901449,19.8794203 C84.34,19.7944928 83.8547826,19.5881159 83.4342029,19.2597101 C83.013913,18.9292754 82.7536232,18.555942 82.6521739,18.1365217 C82.5486957,17.7176812 82.4976812,16.7318841 82.4976812,15.1814493 L82.4976812,5.99362319 L81.3953623,5.99362319 L81.3953623,4.0284058 L82.4976812,4.0284058 L82.4976812,1.91652174 L87.8107246,1.91652174" id="Fill-28" fill="#DA322A"></path>
                <path d="M103.223478,7.42550725 C103.04058,6.88405797 102.703188,6.35855072 102.209565,5.84985507 C101.714783,5.33913043 101.012754,4.92753623 100.104058,4.61246377 C99.1944928,4.29768116 98.1046377,4.14028986 96.8382609,4.14028986 C95.3266667,4.14028986 94.0852174,4.38492754 93.1147826,4.87681159 C92.1455072,5.36695652 91.4736232,6.02028986 91.1011594,6.83594203 C90.7269565,7.6515942 90.5411594,8.78521739 90.5411594,10.2362319 L90.5411594,14.235942 C90.5411594,15.562029 90.6437681,16.555942 90.8498551,17.2176812 C91.0553623,17.88 91.3971014,18.4434783 91.8773913,18.9081159 C92.357971,19.3715942 93.033913,19.7176812 93.9011594,19.9469565 C94.7655072,20.1762319 95.8249275,20.2921739 97.0742029,20.2921739 C98.1936232,20.2921739 99.1863768,20.1568116 100.048696,19.8863768 C100.909275,19.6171014 101.616232,19.1973913 102.166087,18.6301449 C102.716812,18.0631884 103.075652,17.4518841 103.243188,16.7988406 C103.412464,16.1452174 103.496812,15.1150725 103.496812,13.7110145 L103.496812,9.89797101 C103.496812,8.78956522 103.403478,7.96492754 103.223478,7.42550725 M97.8611594,15.9086957 C97.8611594,16.5834783 97.8069565,17.0237681 97.6965217,17.2249275 C97.5872464,17.4281159 97.3608696,17.5292754 97.0194203,17.5292754 C96.6869565,17.5292754 96.4617391,17.4168116 96.3484058,17.1918841 C96.2336232,16.9675362 96.1771014,16.4901449 96.1771014,15.7602899 L96.1771014,8.7257971 C96.1771014,7.92347826 96.2336232,7.42 96.3484058,7.21362319 C96.4617391,7.00637681 96.6904348,6.90318841 97.0342029,6.90318841 C97.3753623,6.90318841 97.5997101,7.00637681 97.7031884,7.21362319 C97.8084058,7.42 97.8611594,7.92347826 97.8611594,8.7257971 L97.8611594,15.9086957" id="Fill-29" fill="#DA322A"></path>
                <path d="M79.5255072,10.9997101 C78.8434783,10.1257971 77.1988406,9.00927536 74.586087,7.64608696 C73.6747826,7.17710145 73.12,6.77565217 72.9205797,6.44463768 C72.7084058,6.12057971 72.6052174,5.63188406 72.6052174,4.97623188 C72.6052174,4.4684058 72.695942,4.08956522 72.8747826,3.84028986 C73.0565217,3.59043478 73.3231884,3.46521739 73.6747826,3.46521739 C74.002029,3.46521739 74.2327536,3.56 74.3710145,3.74434783 C74.5113043,3.93014493 74.5805797,4.36115942 74.5805797,5.03913043 L74.5805797,6.49971014 L80.033913,6.49971014 L80.033913,5.71797101 C80.033913,4.15681159 79.8591304,3.05072464 79.5110145,2.39884058 C79.162029,1.74782609 78.4510145,1.20811594 77.3794203,0.780869565 C76.3049275,0.352173913 75.0072464,0.13884058 73.484058,0.13884058 C72.0884058,0.13884058 70.9,0.333913043 69.9156522,0.725217391 C68.9315942,1.11623188 68.217971,1.66028986 67.7768116,2.35681159 C67.3365217,3.05449275 67.1150725,4.15681159 67.1150725,5.66376812 C67.1150725,6.7057971 67.2707246,7.56173913 67.5808696,8.2315942 C67.8927536,8.9 68.284058,9.4257971 68.7591304,9.80811594 C69.2324638,10.1892754 70.1976812,10.7994203 71.6571014,11.6376812 C73.1142029,12.4768116 74.0289855,13.0730435 74.4031884,13.426087 C74.7646377,13.7881159 74.9466667,14.5455072 74.9466667,15.6968116 C74.9466667,16.2168116 74.8521739,16.6124638 74.662029,16.8814493 C74.4718841,17.1513043 74.182029,17.2855072 73.7930435,17.2855072 C73.4034783,17.2855072 73.1330435,17.1817391 72.98,16.9710145 C72.8278261,16.7631884 72.7507246,16.2863768 72.7507246,15.5397101 L72.7507246,14.1582609 L67.2968116,14.1582609 L67.2968116,14.8515942 C67.2968116,16.3315942 67.4695652,17.0602899 67.8130435,17.8614493 C68.1582609,18.6617391 68.8863768,19.3211594 70,19.8376812 C71.1095652,20.353913 72.4530435,20.6121739 74.0275362,20.6121739 C75.4602899,20.6121739 76.7171014,20.3884058 77.7956522,19.9428986 C78.8756522,19.4956522 79.6031884,18.9402899 79.9814493,18.2744928 C80.3565217,17.6107246 80.5463768,16.5797101 80.5463768,15.1855072 C80.5463768,13.2605797 80.2055072,11.8643478 79.5255072,10.9997101" id="Fill-30" fill="#DA322A"></path>
                <path d="M105.441449,4.25101449 L105.441449,23.9057971 L110.607536,23.9057971 L110.607536,18.6118841 C111.101159,19.1498551 111.646377,19.5542029 112.246377,19.8257971 C112.844638,20.0968116 113.494203,20.233913 114.193913,20.233913 C115.073043,20.233913 115.821449,20.0562319 116.442899,19.7046377 C117.064058,19.3513043 117.476812,18.8765217 117.677101,18.277971 C117.877681,17.68 117.977681,16.6747826 117.977681,15.26 L117.977681,8.72289855 C117.977681,7.4915942 117.89913,6.61971014 117.741159,6.10637681 C117.582029,5.59507246 117.182319,5.14115942 116.54029,4.74724638 C115.901159,4.35391304 115.143188,4.15594203 114.265217,4.15594203 C113.545507,4.15594203 112.882029,4.29304348 112.274783,4.56492754 C111.667246,4.83681159 111.111304,5.24985507 110.607536,5.80289855 L110.609565,4.25101449 L105.441449,4.25101449 Z M112.282029,15.6075362 C112.282029,16.4428986 112.237391,16.9681159 112.151304,17.1802899 C112.064058,17.3942029 111.841449,17.5014493 111.485507,17.5014493 C111.118551,17.5014493 110.881449,17.3826087 110.771014,17.1469565 C110.661159,16.9107246 110.607536,16.3257971 110.607536,15.3895652 L110.607536,8.94724638 C110.607536,8.04782609 110.658261,7.48086957 110.764928,7.24405797 C110.869565,7.00782609 111.106667,6.89072464 111.473043,6.89072464 C111.846087,6.89072464 112.075362,6.99246377 112.157971,7.19768116 C112.241159,7.40086957 112.282029,7.98492754 112.282029,8.94724638 L112.282029,15.6075362 Z" id="Fill-31" fill="#DA322A"></path>
                <path d="M13.6866667,7.77971014 L7.79507246,7.77971014 L7.79507246,5.99942029 C7.79507246,4.87565217 7.73826087,4.17362319 7.62695652,3.88956522 C7.51507246,3.6084058 7.24898551,3.46521739 6.82985507,3.46521739 C6.46521739,3.46521739 6.21768116,3.58869565 6.08666667,3.83565217 C5.95623188,4.0826087 5.89217391,4.70231884 5.89217391,5.69710145 L5.89217391,15.1246377 C5.89217391,16.0066667 5.95623188,16.5881159 6.08811594,16.8684058 C6.21768116,17.146087 6.48028986,17.2855072 6.87333333,17.2855072 C7.30028986,17.2855072 7.59275362,17.1278261 7.74637681,16.8113043 C7.90028986,16.4953623 7.97768116,15.8817391 7.97768116,14.9701449 L7.97768116,12.6437681 L6.80637681,12.6437681 L6.80637681,10.1347826 L13.6866667,10.1347826 L13.6866667,20.2101449 L9.86289855,20.2101449 L9.42376812,18.8136232 C9.02202899,19.4188406 8.51623188,19.8692754 7.9057971,20.1669565 C7.29507246,20.4643478 6.57507246,20.6121739 5.74550725,20.6121739 C4.75797101,20.6121739 3.83391304,20.4057971 2.97130435,19.9921739 C2.1084058,19.5765217 1.45391304,19.0614493 1.00666667,18.4426087 C0.55942029,17.8234783 0.27942029,17.1773913 0.167826087,16.5031884 C0.055942029,15.8278261 0,14.8168116 0,13.4669565 L0,7.63391304 C0,5.75449275 0.115942029,4.38869565 0.348695652,3.53797101 C0.583188406,2.68695652 1.25101449,1.90695652 2.35768116,1.19797101 C3.46318841,0.491884058 4.89246377,0.13884058 6.64695652,0.13884058 C8.37275362,0.13884058 9.80463768,0.445217391 10.9431884,1.06028986 C12.0808696,1.67275362 12.8231884,2.40289855 13.1686957,3.24782609 C13.5133333,4.09333333 13.6866667,5.32057971 13.6866667,6.93043478 L13.6866667,7.77971014" id="Fill-32" fill="#FFFFFF"></path>
                <path d="M118.910145,4.82608696 L119.04,4.82608696 C119.150725,4.82608696 119.253043,4.81942029 119.253043,4.69275362 C119.253043,4.58608696 119.16087,4.56985507 119.076232,4.56985507 L118.910145,4.56985507 L118.910145,4.82608696 Z M118.785217,4.46811594 L119.096522,4.46811594 C119.287826,4.46811594 119.377971,4.54405797 119.377971,4.69797101 C119.377971,4.84376812 119.285797,4.90434783 119.166377,4.9173913 L119.396522,5.27304348 L119.261449,5.27304348 L119.042899,4.92724638 L118.910145,4.92724638 L118.910145,5.27304348 L118.785217,5.27304348 L118.785217,4.46811594 Z M119.053623,5.45826087 C119.372754,5.45826087 119.61913,5.20434783 119.61913,4.86782609 C119.61913,4.53768116 119.372754,4.28405797 119.053623,4.28405797 C118.731304,4.28405797 118.484348,4.53768116 118.484348,4.86782609 C118.484348,5.20434783 118.731304,5.45826087 119.053623,5.45826087 Z M119.053623,4.18289855 C119.429275,4.18289855 119.744058,4.47913043 119.744058,4.86782609 C119.744058,5.26347826 119.429275,5.56 119.053623,5.56 C118.676522,5.56 118.358841,5.26347826 118.358841,4.86782609 C118.358841,4.47913043 118.676522,4.18289855 119.053623,4.18289855 Z" id="Fill-33" fill="#DA322A"></path>
            </g>
        </g>
    </g>
</svg>