<?xml version="1.0" encoding="utf-8"?>
<svg version="1.1" id="QR_Icon" xmlns="http://www.w3.org/2000/svg" xmlns:xlink="http://www.w3.org/1999/xlink" x="0px" y="0px"
     viewBox="0 0 22 22" style="enable-background:new 0 0 22 22;" xml:space="preserve">
<style type="text/css">
    .st0{fill:#1abb9b;}
    .st1{fill:#616263;}
</style>
<rect x="13.5" y="1.2" class="st0" width="7.3" height="7.3"/>
<rect x="1.2" y="13.5" class="st0" width="7.3" height="7.3"/>
<rect x="1.2" y="1.2" class="st0" width="7.3" height="7.3"/>
<path class="st1" d="M9.7,9.7H0V0h9.7V9.7z M1.2,8.5h7.3V1.2H1.2V8.5z"/>
<path class="st1" d="M22,9.7h-9.7V0H22V9.7z M13.5,8.5h7.3V1.2h-7.3V8.5z"/>
<path class="st1" d="M9.7,22H0v-9.7h9.7V22z M1.2,20.8h7.3v-7.3H1.2V20.8z"/>
<polygon class="st1" points="22,17.6 20.8,17.6 20.8,13.5 18.2,13.5 18.2,16.3 13.2,16.3 13.2,12.9 14.4,12.9 14.4,15.1 17,15.1
    17,12.3 22,12.3 "/>
<polygon class="st1" points="21.4,22 13.2,22 13.2,19.5 14.4,19.5 14.4,20.8 21.4,20.8 "/>
<rect x="3.8" y="3.8" class="st1" width="2.2" height="2.2"/>
<rect x="16" y="3.8" class="st1" width="2.2" height="2.2"/>
<rect x="3.8" y="16" class="st1" width="2.2" height="2.2"/>
</svg>
