<?xml version="1.0" encoding="UTF-8" standalone="no"?>
<svg
   xmlns:dc="http://purl.org/dc/elements/1.1/"
   xmlns:cc="http://creativecommons.org/ns#"
   xmlns:rdf="http://www.w3.org/1999/02/22-rdf-syntax-ns#"
   xmlns:svg="http://www.w3.org/2000/svg"
   xmlns="http://www.w3.org/2000/svg"
   xmlns:sodipodi="http://sodipodi.sourceforge.net/DTD/sodipodi-0.dtd"
   xmlns:inkscape="http://www.inkscape.org/namespaces/inkscape"
   version="1.1"
   id="QR_Icon"
   x="0px"
   y="0px"
   viewBox="0 0 22 22"
   style="enable-background:new 0 0 22 22;"
   xml:space="preserve"
   inkscape:version="0.91 r13725"
   sodipodi:docname="ico-receive-selected.svg"><metadata
     id="metadata44"><rdf:RDF><cc:Work
         rdf:about=""><dc:format>image/svg+xml</dc:format><dc:type
           rdf:resource="http://purl.org/dc/dcmitype/StillImage" /></cc:Work></rdf:RDF></metadata><defs
     id="defs42" /><sodipodi:namedview
     pagecolor="#ffffff"
     bordercolor="#666666"
     borderopacity="1"
     objecttolerance="10"
     gridtolerance="10"
     guidetolerance="10"
     inkscape:pageopacity="0"
     inkscape:pageshadow="2"
     inkscape:window-width="640"
     inkscape:window-height="480"
     id="namedview40"
     showgrid="false"
     inkscape:zoom="10.727273"
     inkscape:cx="11"
     inkscape:cy="11"
     inkscape:window-x="0"
     inkscape:window-y="0"
     inkscape:window-maximized="0"
     inkscape:current-layer="QR_Icon" /><style
     type="text/css"
     id="style16">
    .st0{fill:#1abb9b;}
    .st1{fill:#616263;}
</style><rect
     x="13.5"
     y="1.2"
     class="st0"
     width="7.3"
     height="7.3"
     id="rect18"
     style="fill:#0d8843" /><rect
     x="1.2"
     y="13.5"
     class="st0"
     width="7.3"
     height="7.3"
     id="rect20"
     style="fill:#0d8843" /><rect
     x="1.2"
     y="1.2"
     class="st0"
     width="7.3"
     height="7.3"
     id="rect22"
     style="fill:#0d8843" /><path
     class="st1"
     d="M9.7,9.7H0V0h9.7V9.7z M1.2,8.5h7.3V1.2H1.2V8.5z"
     id="path24" /><path
     class="st1"
     d="M22,9.7h-9.7V0H22V9.7z M13.5,8.5h7.3V1.2h-7.3V8.5z"
     id="path26" /><path
     class="st1"
     d="M9.7,22H0v-9.7h9.7V22z M1.2,20.8h7.3v-7.3H1.2V20.8z"
     id="path28" /><polygon
     class="st1"
     points="22,17.6 20.8,17.6 20.8,13.5 18.2,13.5 18.2,16.3 13.2,16.3 13.2,12.9 14.4,12.9 14.4,15.1 17,15.1     17,12.3 22,12.3 "
     id="polygon30" /><polygon
     class="st1"
     points="21.4,22 13.2,22 13.2,19.5 14.4,19.5 14.4,20.8 21.4,20.8 "
     id="polygon32" /><rect
     x="3.8"
     y="3.8"
     class="st1"
     width="2.2"
     height="2.2"
     id="rect34" /><rect
     x="16"
     y="3.8"
     class="st1"
     width="2.2"
     height="2.2"
     id="rect36" /><rect
     x="3.8"
     y="16"
     class="st1"
     width="2.2"
     height="2.2"
     id="rect38" /></svg>