<?xml version="1.0" encoding="UTF-8"?>
<svg width="50px" height="50px" viewBox="0 0 50 50" version="1.1" xmlns="http://www.w3.org/2000/svg" xmlns:xlink="http://www.w3.org/1999/xlink">
    <!-- Generator: Sketch 52.6 (67491) - http://www.bohemiancoding.com/sketch -->
    <title>Brand/Icon/AMC</title>
    <desc>Created with Sketch.</desc>
    <defs>
        <polygon id="path-1" points="0 0.00586510264 49.8541056 0.00586510264 49.8541056 49.8533724 0 49.8533724"></polygon>
    </defs>
    <g id="Brand/Icon/AMC" stroke="none" stroke-width="1" fill="none" fill-rule="evenodd">
        <g id="AMC_logo">
            <polygon id="Fill-1" fill="#FFFFFE" points="2.79912023 32.7447214 47.4162757 32.7447214 47.4162757 17.8076246 2.79912023 17.8076246"></polygon>
            <path d="M45.8684751,28.6052786 L45.6646628,28.314956 L45.4897361,28.314956 L45.4897361,28.6052786 L45.3304985,28.6052786 L45.3304985,27.7655425 L45.7043988,27.7655425 C45.8151026,27.7655425 45.9013196,27.7989736 45.9592375,27.856305 C46.0035191,27.8985337 46.0280059,27.9583578 46.0280059,28.0316716 L46.0280059,28.0359238 C46.0280059,28.1711144 45.9483871,28.255132 45.8331378,28.2881232 L46.0589443,28.6052786 L45.8684751,28.6052786 Z M45.6554252,27.5079179 C45.2583578,27.5079179 44.957478,27.8239003 44.957478,28.2087977 L44.957478,28.2129032 C44.957478,28.5975073 45.2560117,28.9092375 45.6514663,28.9092375 C46.0485337,28.9092375 46.35,28.5934018 46.35,28.2087977 L46.35,28.2042522 C46.35,27.8197947 46.0510264,27.5079179 45.6554252,27.5079179 Z" id="Fill-2" fill="#CF2339"></path>
            <g id="Group-6">
                <mask id="mask-2" fill="white">
                    <use xlink:href="#path-1"></use>
                </mask>
                <g id="Clip-4"></g>
                <path d="M45.8639296,28.0400293 C45.8639296,27.9560117 45.8017595,27.9096774 45.697654,27.9096774 L45.4897361,27.9096774 L45.4897361,28.1753666 L45.697654,28.1753666 C45.8017595,28.1753666 45.8639296,28.1247801 45.8639296,28.0450147 L45.8639296,28.0400293" id="Fill-3" fill="#CF2339" mask="url(#mask-2)"></path>
                <path d="M45.6514663,29.0107038 C45.2019062,29.0107038 44.8520528,28.6494135 44.8520528,28.2130499 L44.8520528,28.2087977 C44.8520528,27.7722874 45.206305,27.4070381 45.6560117,27.4070381 C46.1054252,27.4070381 46.4554252,27.7678886 46.4554252,28.2042522 L46.4554252,28.2087977 C46.4554252,28.6447214 46.1008798,29.0107038 45.6514663,29.0107038 Z M40.0480938,29.4280059 C36.9788856,29.4280059 34.4904692,26.9394428 34.4904692,23.8703812 C34.4904692,20.801173 36.9788856,18.3127566 40.0480938,18.3127566 C42.540176,18.3127566 44.6494135,19.5282991 45.3546921,21.788563 C45.3546921,21.788563 45.691349,23.1485337 44.2280059,23.3181818 C43.1454545,23.3181818 42.9781525,22.435044 42.9781525,22.435044 C42.5596774,21.2227273 41.4085044,20.7765396 40.0539589,20.7765396 C38.3451613,20.7765396 36.9599707,22.1617302 36.9599707,23.8703812 C36.9599707,25.5790323 38.3451613,26.9640762 40.0539589,26.9640762 C41.3917889,26.9640762 42.5315249,26.3695015 42.9627566,25.1803519 C42.9627566,25.1803519 43.2278592,24.4118768 44.1891496,24.4329912 C45.5105572,24.5711144 45.3457478,25.8115836 45.3457478,25.8115836 C44.6315249,28.056305 42.529912,29.4280059 40.0480938,29.4280059 Z M33.9215543,27.6781525 C33.9215543,27.6781525 33.9049853,28.9567449 32.5944282,28.9567449 C31.3486804,28.9567449 31.2900293,27.6869501 31.2900293,27.6869501 L31.2727273,23.209824 C31.2727273,23.209824 31.1966276,21.1294721 29.1167155,21.1294721 C27.0259531,21.1294721 26.8599707,23.1985337 26.8599707,23.1985337 L26.8599707,27.6057185 C26.8599707,27.6057185 26.8599707,28.9406158 25.5363636,28.9406158 C24.2432551,28.9406158 24.2167155,27.6057185 24.2167155,27.6057185 L24.2156891,23.2118768 C24.2156891,23.2118768 24.176393,21.1294721 21.9664223,21.1294721 C19.7670088,21.1294721 19.823607,23.2419355 19.823607,23.2419355 L19.823607,27.7620235 C19.823607,27.7620235 19.6697947,28.951173 18.5104106,28.951173 C17.3080645,28.951173 17.1868035,27.751173 17.1868035,27.751173 L17.1780059,23.1898827 C17.1780059,21.5085044 17.5029326,19.840176 19.8950147,18.8956012 C20.9819648,18.466129 22.2568915,18.4752199 23.4008798,18.7351906 C24.1636364,19.0124633 24.8222874,19.385044 25.4636364,19.9400293 L25.5847507,20.0460411 L25.7148094,19.9400293 C27.7265396,18.2368035 29.8360704,18.2714076 31.6300587,19.1552786 C33.2983871,20.0353372 33.8964809,21.3007331 33.9225806,23.1466276 L33.9215543,27.6781525 Z M15.3143695,28.9296188 C14.0143695,28.9296188 13.9475073,27.58739 13.9475073,27.58739 L13.9475073,21.6753666 C13.9463343,21.2376833 13.9463343,21.1077713 13.6677419,21.086217 C12.3331378,20.9994135 11.0461877,21.5951613 9.92375367,22.1695015 C8.56642229,22.8640762 7.29780059,24.455132 6.7255132,25.8766862 C6.65835777,26.1237537 6.69105572,26.3359238 6.96818182,26.3359238 L11.6526393,26.3359238 C11.6526393,26.3359238 12.9529326,26.340176 12.9529326,27.6514663 C12.9529326,29.0055718 11.6741935,28.9579179 11.6741935,28.9579179 L4.121261,28.9190616 C3.52741935,28.9190616 3.31070381,28.3121701 3.29340176,27.7919355 C3.31070381,26.7089443 3.73152493,25.5329912 4.18621701,24.63739 C5.52096774,22.0068915 8.12082111,19.7969208 10.8420821,19.0035191 C12.3093842,18.576393 13.8410557,18.4316716 15.4357771,18.5618768 C15.7392962,18.605132 16.0079179,18.7958944 16.2073314,18.9778592 C16.4759531,19.3247801 16.5585044,19.7577713 16.5409091,20.208651 L16.5461877,27.6316716 C16.5461877,27.6316716 16.652346,28.9296188 15.3143695,28.9296188 Z M24.9269795,0 C11.1601173,0 0,11.1596774 0,24.9260997 C0,38.6934018 11.1601173,49.8533724 24.9269795,49.8533724 C38.6939883,49.8533724 49.8541056,38.6934018 49.8541056,24.9260997 C49.8541056,11.1596774 38.6939883,0 24.9269795,0 Z" id="Fill-5" fill="#CF2339" mask="url(#mask-2)"></path>
            </g>
        </g>
    </g>
</svg>