<?xml version="1.0" encoding="UTF-8" standalone="no"?>
<svg width="24px" height="25px" viewBox="0 0 24 25" version="1.1" xmlns="http://www.w3.org/2000/svg" xmlns:xlink="http://www.w3.org/1999/xlink">
    <!-- Generator: Sketch 39.1 (31720) - http://www.bohemiancoding.com/sketch -->
    <title>settings</title>
    <desc>Created with Sketch.</desc>
    <defs></defs>
    <g id="Symbols" stroke="none" stroke-width="1" fill="none" fill-rule="evenodd">
        <g id="Icons/Tabs/Settings-2" transform="translate(-1.000000, 1.000000)" stroke="#191919" stroke-width="1.4">
            <path d="M21.5984041,12.9580637 C21.6790141,12.5281435 21.7058842,12.0713533 21.7058842,11.614563 C21.7058842,11.1577728 21.6790141,10.7009826 21.5984041,10.2710624 L23.8286152,8.33642148 C23.9898353,8.22894143 24.0435753,8.01398133 23.9629652,7.82589124 C23.506175,6.42865057 22.7269446,5.11201994 21.7596242,4.01034942 C21.6252741,3.84912934 21.437184,3.79538931 21.2490939,3.87599935 L18.4546126,4.84331981 C17.7559923,4.27904954 16.9767619,3.82225933 16.1437915,3.49981917 L15.5795212,0.597857786 C15.5526512,0.409767696 15.3914311,0.248547619 15.2033411,0.221677606 C13.7523604,-0.0738925353 12.2476396,-0.0738925353 10.7966589,0.221677606 C10.6085689,0.248547619 10.4473488,0.409767696 10.4204788,0.597857786 L9.8562085,3.49981917 C9.0232381,3.82225933 8.21713771,4.27904954 7.54538739,4.84331981 L4.75090606,3.87599935 C4.56281597,3.79538931 4.37472588,3.84912934 4.24037581,4.01034942 C3.27305535,5.11201994 2.49382498,6.42865057 2.03703476,7.82589124 C1.95642472,8.01398133 2.01016475,8.22894143 2.17138483,8.33642148 L4.40159589,10.2710624 C4.32098585,10.7009826 4.29411584,11.1577728 4.29411584,11.614563 C4.29411584,12.0713533 4.32098585,12.5281435 4.40159589,12.9580637 L2.17138483,14.8927046 C2.01016475,15.0001847 1.95642472,15.2151448 2.03703476,15.4032349 C2.49382498,16.8004755 3.27305535,18.1171062 4.24037581,19.2187767 C4.37472588,19.3799968 4.56281597,19.4337368 4.75090606,19.3531267 L7.54538739,18.3858063 C8.21713771,18.9500766 9.0232381,19.4068668 9.8562085,19.7293069 L10.4204788,22.6312683 C10.4473488,22.8193584 10.6085689,22.9805785 10.7966589,23.0074485 C11.5221493,23.1417986 12.2476396,23.2224086 13,23.2224086 C13.7523604,23.2224086 14.4778507,23.1417986 15.2033411,23.0074485 C15.3914311,22.9805785 15.5526512,22.8193584 15.5795212,22.6312683 L16.1437915,19.7293069 C16.9767619,19.4068668 17.7559923,18.9500766 18.4546126,18.3858063 L21.2490939,19.3531267 C21.437184,19.4337368 21.6252741,19.3799968 21.7596242,19.2187767 C22.7269446,18.1171062 23.506175,16.8004755 23.9629652,15.4032349 C24.0435753,15.2151448 23.9898353,15.0001847 23.8286152,14.8927046 L21.5984041,12.9580637 Z M13,15.9675051 C10.5816988,15.9675051 8.64705792,14.0328642 8.64705792,11.614563 C8.64705792,9.22313191 10.5816988,7.26162097 13,7.26162097 C15.3914311,7.26162097 17.3529421,9.22313191 17.3529421,11.614563 C17.3529421,14.0328642 15.3914311,15.9675051 13,15.9675051 L13,15.9675051 Z" id="settings"></path>
        </g>
    </g>
</svg>