<?xml version="1.0" encoding="UTF-8" standalone="no"?>
<svg width="23px" height="22px" viewBox="0 0 23 22" version="1.1" xmlns="http://www.w3.org/2000/svg" xmlns:xlink="http://www.w3.org/1999/xlink">
    <!-- Generator: Sketch 39.1 (31720) - http://www.bohemiancoding.com/sketch -->
    <title>shopping-24px-outline_bardcode-qr</title>
    <desc>Created with Sketch.</desc>
    <defs></defs>
    <g id="Symbols" stroke="none" stroke-width="1" fill="none" fill-rule="evenodd">
        <g id="Icons/Tabs/QR-Code/Highlighted">
            <g id="shopping-24px-outline_bardcode-qr" transform="translate(1.000000, 1.000000)">
                <g id="Group">
                    <polygon id="Shape" stroke="#647CE8" stroke-width="1.7" fill="#D5DFFF" points="8.25 8.2173913 0 8.2173913 0 0 8.25 0 8.25 0"></polygon>
                    <polygon id="Shape" stroke="#647CE8" stroke-width="1.7" fill="#D3DFFF" points="20.1666667 8.2173913 11.9166667 8.2173913 11.9166667 0 11.9166667 0 20.1666667 0"></polygon>
                    <polygon id="Shape" stroke="#6277D9" stroke-width="1.7" fill="#D3DFFF" points="8.25 20.0869565 0 20.0869565 0 11.8695652 8.25 11.8695652 8.25 11.8695652"></polygon>
                    <polyline id="Shape" stroke="#6277D9" stroke-width="1.7" points="20.1666667 16.4347826 20.1666667 11.8695652 16.5 11.8695652 16.5 14.6086957 12.8333333 14.6086957 12.8333333 11.8695652"></polyline>
                    <polyline id="Shape" stroke="#6277D9" stroke-width="1.7" points="20.1666667 20.0869565 12.8333333 20.0869565 12.8333333 18.2608696"></polyline>
                    <polygon id="Shape" stroke="#6277D9" stroke-width="1.2" points="4.58333333 4.56521739 3.66666667 4.56521739 3.66666667 3.65217391 4.58333333 3.65217391"></polygon>
                    <polygon id="Shape" stroke="#6277D9" stroke-width="1.2" points="16.5 4.56521739 15.5833333 4.56521739 15.5833333 4.56521739 15.5833333 3.65217391 16.5 3.65217391"></polygon>
                    <polygon id="Shape" stroke="#6277D9" stroke-width="1.2" points="4.58333333 16.4347826 3.66666667 16.4347826 3.66666667 15.5217391 4.58333333 15.5217391"></polygon>
                </g>
            </g>
        </g>
    </g>
</svg>