<?xml version="1.0" encoding="UTF-8" standalone="no"?>
<svg width="23px" height="24px" viewBox="0 0 23 24" version="1.1" xmlns="http://www.w3.org/2000/svg" xmlns:xlink="http://www.w3.org/1999/xlink">
    <!-- Generator: Sketch 39.1 (31720) - http://www.bohemiancoding.com/sketch -->
    <title>settings</title>
    <desc>Created with Sketch.</desc>
    <defs></defs>
    <g id="Symbols" stroke="none" stroke-width="1" fill="none" fill-rule="evenodd" fill-opacity="0.5">
        <g id="Icons/Tabs/Settings/Highlighted" transform="translate(-1.000000, 1.000000)" stroke="#677AE7" stroke-width="1.5" fill="#647CE8">
            <path d="M20.1716379,12.014715 C20.2463795,11.6160931 20.2712934,11.1925573 20.2712934,10.7690214 C20.2712934,10.3454856 20.2463795,9.92194975 20.1716379,9.52332779 L22.2394893,7.72952897 C22.3889725,7.62987348 22.4388003,7.43056249 22.3640586,7.25616539 C21.9405228,5.96064401 21.2180205,4.73986426 20.3211211,3.71839548 C20.1965517,3.56891225 20.0221546,3.5190845 19.8477575,3.59382612 L17.2567148,4.49072553 C16.6089541,3.96753421 15.8864518,3.54399837 15.1141217,3.2450319 L14.5909304,0.554333665 C14.5660165,0.379936557 14.4165333,0.230453321 14.2421362,0.205539449 C12.8967871,-0.0685131496 11.5016102,-0.0685131496 10.1562611,0.205539449 C9.98186398,0.230453321 9.83238074,0.379936557 9.80746687,0.554333665 L9.28427555,3.2450319 C8.5119455,3.54399837 7.76452932,3.96753421 7.1416825,4.49072553 L4.55063976,3.59382612 C4.37624265,3.5190845 4.20184554,3.56891225 4.07727618,3.71839548 C3.18037677,4.73986426 2.45787446,5.96064401 2.03433863,7.25616539 C1.95959701,7.43056249 2.00942475,7.62987348 2.15890799,7.72952897 L4.22675941,9.52332779 C4.1520178,9.92194975 4.12710392,10.3454856 4.12710392,10.7690214 C4.12710392,11.1925573 4.1520178,11.6160931 4.22675941,12.014715 L2.15890799,13.8085139 C2.00942475,13.9081694 1.95959701,14.1074803 2.03433863,14.2818775 C2.45787446,15.5773988 3.18037677,16.7981786 4.07727618,17.8196474 C4.20184554,17.9691306 4.37624265,18.0189583 4.55063976,17.9442167 L7.1416825,17.0473173 C7.76452932,17.5705086 8.5119455,17.9940445 9.28427555,18.2930109 L9.80746687,20.9837092 C9.83238074,21.1581063 9.98186398,21.3075895 10.1562611,21.3325034 C10.8289356,21.4570728 11.5016102,21.5318144 12.1991986,21.5318144 C12.8967871,21.5318144 13.5694616,21.4570728 14.2421362,21.3325034 C14.4165333,21.3075895 14.5660165,21.1581063 14.5909304,20.9837092 L15.1141217,18.2930109 C15.8864518,17.9940445 16.6089541,17.5705086 17.2567148,17.0473173 L19.8477575,17.9442167 C20.0221546,18.0189583 20.1965517,17.9691306 20.3211211,17.8196474 C21.2180205,16.7981786 21.9405228,15.5773988 22.3640586,14.2818775 C22.4388003,14.1074803 22.3889725,13.9081694 22.2394893,13.8085139 L20.1716379,12.014715 Z M12.1991986,14.8050688 C9.95695011,14.8050688 8.16315128,13.01127 8.16315128,10.7690214 C8.16315128,8.55168676 9.95695011,6.73297406 12.1991986,6.73297406 C14.4165333,6.73297406 16.235246,8.55168676 16.235246,10.7690214 C16.235246,13.01127 14.4165333,14.8050688 12.1991986,14.8050688 L12.1991986,14.8050688 Z" id="settings"></path>
        </g>
    </g>
</svg>