<svg width="72" height="72" viewBox="0 0 72 72" fill="none" xmlns="http://www.w3.org/2000/svg">
<circle cx="36" cy="36" r="36" fill="#DFE5FF"/>
<mask id="mask0" mask-type="alpha" maskUnits="userSpaceOnUse" x="0" y="0" width="72" height="72">
<circle cx="36" cy="36" r="36" fill="white"/>
</mask>
<g mask="url(#mask0)">
<path fill-rule="evenodd" clip-rule="evenodd" d="M51.9305 91.2H20.6261C16.3108 91.2 12.8 87.6892 12.8 83.3739V27.0261C12.8 22.7108 16.3108 19.2 20.6261 19.2H51.9305C56.2458 19.2 59.7566 22.7108 59.7566 27.0261V83.3739C59.7566 87.6892 56.2458 91.2 51.9305 91.2Z" fill="#214497"/>
<rect x="12.8" y="28.5913" width="46.9565" height="50.0869" fill="#214497"/>
<path fill-rule="evenodd" clip-rule="evenodd" d="M55.061 75.5478H17.4958C16.6318 75.5478 15.9305 74.8466 15.9305 73.9826V33.287C15.9305 32.423 16.6318 31.7217 17.4958 31.7217H55.061C55.925 31.7217 56.6262 32.423 56.6262 33.287V73.9826C56.6262 74.8466 55.925 75.5478 55.061 75.5478Z" fill="#4F6EF7"/>
<ellipse cx="36.2784" cy="23.8956" rx="1.56522" ry="1.56522" fill="#4F6EF7"/>
<path d="M27.664 46.3817C32.2683 41.8728 39.7316 41.8728 44.3419 46.3817L44.8958 46.9238C45.1281 47.1501 45.1281 47.5134 44.8958 47.7398L43.0017 49.5982C42.8885 49.7113 42.6979 49.7113 42.5847 49.5982L41.8223 48.8536C38.6118 45.7087 33.4 45.7087 30.1895 48.8536L29.3735 49.6518C29.2603 49.7649 29.0697 49.7649 28.9566 49.6518L27.0565 47.7934C26.8242 47.567 26.8242 47.2037 27.0565 46.9774L27.664 46.3817ZM48.2612 50.2176L49.9468 51.8675C50.1791 52.0939 50.1791 52.4572 49.9468 52.6836L42.3405 60.135C42.1082 60.3613 41.7389 60.3613 41.5066 60.135L36.1042 54.8457C36.0446 54.7921 35.9553 54.7921 35.8957 54.8457L30.4993 60.135C30.267 60.3613 29.8977 60.3613 29.6654 60.135L22.0531 52.6895C21.8208 52.4632 21.8208 52.0998 22.0531 51.8735L23.7388 50.2236C23.9711 49.9972 24.3404 49.9972 24.5727 50.2236L29.9751 55.5128C30.0347 55.5665 30.124 55.5665 30.1836 55.5128L35.58 50.2236C35.8123 49.9972 36.1816 49.9972 36.4139 50.2236L41.8164 55.5128C41.8759 55.5665 41.9653 55.5665 42.0248 55.5128L47.4273 50.2236C47.6536 49.9913 48.0289 49.9913 48.2612 50.2176Z" fill="white"/>
</g>
</svg>
