<svg width="20" height="19" viewBox="0 0 20 19" fill="none" xmlns="http://www.w3.org/2000/svg">
<path fill-rule="evenodd" clip-rule="evenodd" d="M16.6667 3.16667H19.1667C19.6267 3.16667 20 3.50267 20 3.91667V16.6047C20 17.2659 19.1667 18.1667 18.4876 18.1667H3.33333C1.4925 18.1667 0 16.8234 0 15.1667V2.41667C0 1.17392 1.11917 0.166672 2.5 0.166672H15.8333C16.2933 0.166672 16.6667 0.502672 16.6667 0.916672V3.16667ZM3.33333 3.16667H15V1.66667H2.5C2.04083 1.66667 1.66667 2.00342 1.66667 2.41667C1.66667 2.82992 2.04083 3.16667 2.5 3.16667H3.33333ZM13.3333 10.803C13.3333 11.7071 14.0792 12.4394 15 12.4394C15.9208 12.4394 16.6667 11.7071 16.6667 10.803C16.6667 9.89894 15.9208 9.16667 15 9.16667C14.0792 9.16667 13.3333 9.89894 13.3333 10.803Z" fill="#2240C4"/>
</svg>
