<?xml version="1.0" encoding="UTF-8"?>
<svg width="50px" height="50px" viewBox="0 0 50 50" version="1.1" xmlns="http://www.w3.org/2000/svg" xmlns:xlink="http://www.w3.org/1999/xlink">
    <!-- Generator: Sketch 51.3 (57544) - http://www.bohemiancoding.com/sketch -->
    <title>Icons/Large (50px)/Gift Cards</title>
    <desc>Created with Sketch.</desc>
    <defs></defs>
    <g id="Icons/Large-(50px)/Gift-Cards" stroke="none" stroke-width="1" fill="none" fill-rule="evenodd">
        <rect id="Rectangle-4" fill="#4F6EF7" x="0" y="0" width="50" height="50"></rect>
        <g id="tag" transform="translate(13.000000, 13.000000)" fill-rule="nonzero">
            <path d="M23.8401818,13.2507273 L10.7492727,0.159818182 C10.6472727,0.0572727273 10.5081818,0 10.3636364,0 L0.545454545,0 C0.244363636,0 0,0.244363636 0,0.545454545 L0,10.3636364 C0,10.5081818 0.0572727273,10.6472727 0.159818182,10.7492727 L13.2507273,23.8401818 C13.3570909,23.9465455 13.4967273,24 13.6363636,24 C13.776,24 13.9156364,23.9465455 14.022,23.8401818 L23.8401818,14.022 C24.0534545,13.8087273 24.0534545,13.464 23.8401818,13.2507273 Z M5.45454545,7.09090909 C4.55072727,7.09090909 3.81818182,6.35836364 3.81818182,5.45454545 C3.81818182,4.55072727 4.55072727,3.81818182 5.45454545,3.81818182 C6.35836364,3.81818182 7.09090909,4.55072727 7.09090909,5.45454545 C7.09090909,6.35836364 6.35836364,7.09090909 5.45454545,7.09090909 Z" id="Shape" fill="#FFFFFF"></path>
            <path d="M5.45454545,8.18181818 C3.95072727,8.18181818 2.72727273,6.95836364 2.72727273,5.45454545 C2.72727273,3.95072727 3.95072727,2.72727273 5.45454545,2.72727273 C6.95836364,2.72727273 8.18181818,3.95072727 8.18181818,5.45454545 C8.18181818,6.95836364 6.95836364,8.18181818 5.45454545,8.18181818 Z M5.45454545,3.81818182 C4.55236364,3.81818182 3.81818182,4.55236364 3.81818182,5.45454545 C3.81818182,6.35672727 4.55236364,7.09090909 5.45454545,7.09090909 C6.35672727,7.09090909 7.09090909,6.35672727 7.09090909,5.45454545 C7.09090909,4.55236364 6.35672727,3.81818182 5.45454545,3.81818182 Z" id="Shape" fill="#F5A623"></path>
        </g>
    </g>
</svg>