<?xml version="1.0" encoding="UTF-8"?>
<svg width="50px" height="50px" viewBox="0 0 50 50" version="1.1" xmlns="http://www.w3.org/2000/svg" xmlns:xlink="http://www.w3.org/1999/xlink">
    <!-- Generator: Sketch 52.1 (67048) - http://www.bohemiancoding.com/sketch -->
    <title>Icons/Large (50px)/UberEats</title>
    <desc>Created with Sketch.</desc>
    <g id="Icons/Large-(50px)/UberEats" stroke="none" stroke-width="1" fill="none" fill-rule="evenodd">
        <rect fill="#DB4545" x="0" y="0" width="50" height="50"></rect>
        <g id="Group-2" transform="translate(10.000000, 11.000000)" fill="#FFFFFF">
            <g id="Group">
                <path d="M20.0691368,5.92257832 C20.0691368,5.07022143 20.3555988,4.28036177 20.8405194,3.625 C19.3816454,4.02285603 18.3094806,5.25776679 18.3094806,6.73702881 L18.3094806,9.34338851 L20.0691368,9.425 L20.0691368,5.92257832 Z" id="path3017"></path>
                <path d="M18.3084569,23.6853719 C18.3084569,25.177807 19.3806217,26.4237239 20.8415431,26.825 C20.3545751,26.1638261 20.0681131,25.3669615 20.0681131,24.5070454 L20.0681131,19.575 L18.3084569,19.575 L18.3084569,23.6853719 Z" id="path3021"></path>
                <path d="M22.2441368,19.575 L20.4844806,19.575 L20.4844806,24.4479956 C20.4844806,25.9225462 21.5566454,27.1535326 23.0155194,27.55 C22.5305814,26.8967493 22.2441368,26.1094339 22.2441368,25.2598226 L22.2441368,19.575 Z" id="path3025"></path>
                <path d="M22.2441368,4.64732361 C22.2441368,3.73013962 22.5305988,2.88020616 23.0155194,2.175 C21.5566454,2.60311549 20.4844806,3.93194898 20.4844806,5.52371818 L20.4844806,9.33718144 L22.2441368,9.425 L22.2441368,4.64732361 Z" id="path3029"></path>
                <path d="M3.9793249,3.625 C2.6923223,4.33598484 1.8206751,5.62714063 1.8206751,7.11548467 L1.8206751,22.6094616 C1.8206751,24.0997404 2.6923223,25.3890152 3.9793249,26.1 C3.7235449,25.527407 3.5803429,24.8998335 3.5803429,24.2400133 L3.5803429,5.48493291 C3.5803429,4.82704755 3.7235449,4.19947403 3.9793249,3.625" id="path3033"></path>
                <path d="M6.1222741,4.03803984 C6.1222741,3.37905551 6.2654761,2.75043366 6.5212561,2.175 C5.2342477,2.88717251 4.3626063,4.17860091 4.3626063,5.67131535 L4.3626063,24.4596094 C4.3626063,26.2144425 5.5616287,27.6976821 7.2373937,28.275 C6.5417127,27.4450921 6.1222625,26.4062537 6.1222625,25.2762202 L6.1222741,4.03803984 Z" id="path3037"></path>
                <path d="M25.8933721,1.61059197 C24.177502,1.61059197 22.7867441,3.05282439 22.7867441,4.83220067 L22.7867441,10.0691333 L15.0183721,9.66668436 L15.0183721,4.02698432 C15.0183721,1.80374621 13.2790223,0 11.1332824,0 C8.98754246,0 7.25,1.80374621 7.25,4.02698432 L7.25,24.9730157 C7.25,27.1981652 8.98754246,29 11.1332824,29 C13.2790223,29 15.0183721,27.1981652 15.0183721,24.9730157 L15.0183721,18.52794 L22.7867441,18.52794 L22.7867441,24.9730157 C22.7867441,26.752392 24.177502,28.1945713 25.8933721,28.1945713 C27.6092421,28.1945713 29,26.752392 29,24.9730157 L29,4.83241305 C29,3.05303677 27.6092421,1.61080435 25.8933721,1.61080435" id="path3041"></path>
            </g>
        </g>
    </g>
</svg>