<?xml version="1.0" encoding="UTF-8"?>
<svg width="207px" height="73px" viewBox="0 0 207 73" version="1.1" xmlns="http://www.w3.org/2000/svg" xmlns:xlink="http://www.w3.org/1999/xlink">
    <!-- Generator: Sketch 52.5 (67469) - http://www.bohemiancoding.com/sketch -->
    <title>logo-box</title>
    <desc>Created with Sketch.</desc>
    <defs>
        <polygon id="path-1" points="0 0 548.533333 0 548.533333 120 0 120"></polygon>
    </defs>
    <g id="Symbols" stroke="none" stroke-width="1" fill="none" fill-rule="evenodd">
        <g id="Brand/Card/Small/Hotels.com">
            <g id="Group-3" transform="translate(-5.000000, -1.000000)"></g>
            <g id="Brand/Logo/Hotels.com" transform="translate(14.000000, 15.000000)">
                <g id="Bitmap">
                    <mask id="mask-2" fill="white">
                        <use xlink:href="#path-1"></use>
                    </mask>
                    <g id="Mask"></g>
                </g>
                <g id="Hotels.com_logo" transform="translate(4.675000, 5.925926)" fill="#FFFFFF">
                    <path d="M163.701818,9.5278103 C163.548254,9.5278103 163.425861,9.40614363 163.425861,9.26503252 L163.425861,7.50114363 L162.892648,7.50114363 C162.761904,7.50114363 162.649921,7.39725474 162.649921,7.27169919 C162.649921,7.14225474 162.761962,7.04058807 162.892648,7.04058807 L164.508953,7.04058807 C164.637581,7.04058807 164.749622,7.14225474 164.749622,7.27169919 C164.749622,7.39725474 164.637581,7.50114363 164.508953,7.50114363 L163.973624,7.50114363 L163.973624,9.26503252 C163.973624,9.40614363 163.851231,9.5278103 163.701842,9.5278103 M167.695918,9.5278103 C167.546529,9.5278103 167.424136,9.40614363 167.424136,9.26503252 L167.424136,7.73042141 L166.729066,9.43158807 C166.706128,9.48714363 166.648137,9.52769919 166.581736,9.52769919 C166.517393,9.52769919 166.459343,9.4888103 166.436464,9.43158807 L165.741394,7.73042141 L165.741394,9.26503252 C165.741394,9.40614363 165.623118,9.5278103 165.473729,9.5278103 C165.320223,9.5278103 165.195713,9.40614363 165.195713,9.26503252 L165.195713,7.4423103 C165.195713,7.20508807 165.396976,7.01342141 165.641821,7.01342141 C165.834791,7.01342141 165.994532,7.12897696 166.060933,7.29175474 L166.581736,8.57547696 L167.108714,7.29175474 C167.168881,7.12897696 167.334856,7.01342141 167.523709,7.01342141 C167.772671,7.01342141 167.971876,7.20564363 167.971876,7.4423103 L167.971876,9.26503252 C167.971876,9.40614363 167.849483,9.5278103 167.695918,9.5278103" id="path3013" fill-rule="nonzero"></path>
                    <path d="M21.6169692,6.26458807 C21.6169692,5.38264363 21.9074541,4.56536585 22.3991846,3.88725474 C20.9198231,4.29892141 19.8326015,5.57669919 19.8326015,7.1073103 L19.8326015,9.80414363 L21.6169692,9.88858807 L21.6169692,6.26458807 Z" id="path3017"></path>
                    <path d="M19.8322368,24.8091436 C19.8322368,26.3398103 20.9194584,27.6176436 22.4008961,28.0291992 C21.9070894,27.3510881 21.6166045,26.5338103 21.6166045,25.6518659 L21.6166045,20.593477 L19.8322368,20.593477 L19.8322368,24.8091436 Z" id="path3021"></path>
                    <path d="M24.2941413,20.5944214 L22.5097735,20.5944214 L22.5097735,25.6528659 C22.5097735,27.1835325 23.5969952,28.4613659 25.0763567,28.8729214 C24.5846085,28.1948103 24.2941413,27.3775325 24.2941413,26.4955881 L24.2941413,20.5944214 Z" id="path3025"></path>
                    <path d="M24.2941413,5.42147696 C24.2941413,4.53953252 24.5846262,3.72225474 25.0763567,3.04414363 C23.5969952,3.4558103 22.5097735,4.73358807 22.5097735,6.26419919 L22.5097735,9.93114363 L24.2941413,10.0155881 L24.2941413,5.42147696 Z" id="path3029"></path>
                    <path d="M4.17348356,4.34175474 C2.8684071,5.07669919 1.98451902,6.41136585 1.98451902,7.94986585 L1.98451902,23.965977 C1.98451902,25.506477 2.8684071,26.8391992 4.17348356,27.5741436 C3.91411155,26.9822547 3.76889851,26.3335325 3.76889851,25.651477 L3.76889851,6.26436585 C3.76889851,5.5843103 3.91411155,4.93558807 4.17348356,4.34175474" id="path3033"></path>
                    <path d="M6.44637054,4.57869919 C6.44637054,3.89864363 6.59158358,3.24992141 6.8509556,2.65608807 C5.54587325,3.39103252 4.66199105,4.72375474 4.66199105,6.26419919 L4.66199105,25.6532547 C4.66199105,27.4641992 5.87785178,28.9948659 7.57715019,29.5906436 C6.87169948,28.7341992 6.44635878,27.6621436 6.44635878,26.495977 L6.44637054,4.57869919 Z" id="path3037"></path>
                    <path d="M28.7560457,2.04986585 C26.7849419,2.04986585 25.1873103,3.55897696 25.1873103,5.42086585 L25.1873103,10.9006436 L16.2634014,10.4795325 L16.2634014,4.5783103 C16.2634014,2.25197696 14.2653252,0.364588074 11.8004089,0.364588074 C9.33549249,0.364588074 7.33949249,2.25197696 7.33949249,4.5783103 L7.33949249,26.4956436 C7.33949249,28.823977 9.33549249,30.7093659 11.8004089,30.7093659 C14.2653252,30.7093659 16.2634014,28.823977 16.2634014,26.4956436 L16.2634014,19.7516992 L25.1873103,19.7516992 L25.1873103,26.4956436 C25.1873103,28.3575325 26.7849419,29.8665881 28.7560457,29.8665881 C30.7271495,29.8665881 32.3247812,28.3575325 32.3247812,26.4956436 L32.3247812,5.42108807 C32.3247812,3.55919919 30.7271495,2.05008807 28.7560457,2.05008807" id="path3041"></path>
                    <path d="M59.5682767,22.5788103 L59.5682767,16.3365881 L49.9285422,16.3365881 L49.9285422,22.5788103 C49.9285422,23.2451436 49.3538068,23.8115881 48.6483678,23.8115881 C47.9180209,23.8115881 47.3163131,23.2451436 47.3163131,22.5788103 L47.3163131,8.3403103 C47.3163131,7.67397696 47.9180209,7.10753252 48.6234658,7.10753252 C49.3538127,7.10753252 49.9285422,7.67397696 49.9285422,8.3403103 L49.9285422,14.1395881 L59.5682767,14.1395881 L59.5682767,8.3403103 C59.5682767,7.67397696 60.1430122,7.10753252 60.8754293,7.10753252 C61.6057762,7.10753252 62.1805058,7.67397696 62.1805058,8.3403103 L62.1805058,22.5788103 C62.1805058,23.2451436 61.6057703,23.8115881 60.8754293,23.8115881 C60.1430063,23.8115881 59.5682767,23.2451436 59.5682767,22.5788103" id="path3045"></path>
                    <path d="M64.0265994,17.7173103 C64.0265994,14.2875325 66.483217,11.4750881 70.4005226,11.4750881 C74.3448063,11.4750881 76.7744516,14.2875325 76.7744516,17.7173103 C76.7744516,21.1725881 74.3448063,23.984977 70.4005226,23.984977 C66.483217,23.984977 64.0265994,21.1725881 64.0265994,17.7173103 M74.3199101,17.7173103 C74.3199101,15.4713103 72.9339108,13.4486992 70.4005226,13.4486992 C67.8920364,13.4486992 66.483217,15.4713103 66.483217,17.7173103 C66.483217,19.9868659 67.8920364,22.0114214 70.4005226,22.0114214 C72.9339108,22.0114214 74.3199101,19.9868659 74.3199101,17.7173103" id="path3049" fill-rule="nonzero"></path>
                    <path d="M90.4402632,11.4747547 C94.2289297,11.4747547 96.5797283,14.2636436 96.5797283,17.397477 C96.5797283,18.0638659 96.0817457,18.4578103 95.1937348,18.4578103 L86.5997224,18.4578103 C86.7823415,20.4803659 88.3508952,22.159977 90.8842775,22.159977 C91.9549017,22.159977 93.0794647,21.8383103 94.0193736,21.1957547 C94.1501182,21.097977 94.3326785,21.0740881 94.5422346,21.0740881 C95.0650957,21.0740881 95.4821376,21.467977 95.4821376,21.9618659 C95.4821376,22.2813103 95.3244559,22.5283103 95.0650839,22.7026992 C93.8097998,23.5650881 92.3200634,23.984477 90.6498135,23.984477 C86.8881135,23.984477 84.1181968,21.467977 84.1181968,17.7168103 C84.1181968,14.263477 86.7573982,11.4745881 90.4402515,11.4745881 M86.5748144,16.8544214 L94.2807923,16.8544214 C94.2290356,15.2748103 93.104355,13.3011992 90.4402515,13.3011992 C87.9068632,13.3011992 86.7034536,15.2258103 86.5748144,16.8544214" id="path3053" fill-rule="nonzero"></path>
                    <path d="M98.0757461,22.7018659 L98.0757461,8.21642141 C98.0757461,7.60103252 98.5986071,7.10714363 99.2521834,7.10714363 C99.8787874,7.10714363 100.426545,7.60103252 100.426545,8.21642141 L100.426545,22.7018659 C100.426545,23.3191992 99.878805,23.8130881 99.2521834,23.8130881 C98.5986071,23.8130881 98.0757461,23.3191992 98.0757461,22.7018659" id="path3057"></path>
                    <path d="M101.938536,21.8628659 C101.938536,21.3200881 102.382527,20.9005881 102.957286,20.9005881 C103.166842,20.9005881 103.37434,20.9750325 103.532022,21.0728103 C104.498903,21.7391992 105.752111,22.2075881 107.08416,22.2075881 C108.860229,22.2075881 109.800132,21.5176992 109.800132,20.504477 C109.800132,19.3206992 108.36434,18.9267547 106.743882,18.5818103 C104.602646,18.1112547 102.09623,17.5685325 102.09623,15.0030881 C102.09623,13.103977 103.818354,11.4753103 106.90157,11.4753103 C108.652743,11.4753103 110.036666,11.966977 111.107284,12.7080881 C111.341719,12.8803103 111.524338,13.1275325 111.524338,13.4489214 C111.524338,13.9405881 111.080347,14.3602547 110.559539,14.3602547 C110.37692,14.3602547 110.167364,14.287477 110.036678,14.1880325 C109.227484,13.6216436 108.129893,13.2766992 106.92856,13.2766992 C105.335075,13.2766992 104.341227,13.8685881 104.341227,14.8308659 C104.341227,15.8676436 105.700248,16.2125881 107.266755,16.5575325 C109.461942,17.0258659 112.074171,17.5943103 112.074171,20.3322547 C112.074171,22.3803103 110.298108,23.985477 106.980428,23.985477 C105.229262,23.985477 103.662749,23.5660325 102.382568,22.6527547 C102.121138,22.4805325 101.938578,22.1844214 101.938578,21.8629214" id="path3061"></path>
                    <path d="M115.158363,20.8758659 C116.046398,20.8758659 116.803717,21.5676992 116.803717,22.4065325 C116.803717,23.2453659 116.046398,23.9606992 115.158363,23.9606992 C114.270329,23.9606992 113.537912,23.2453659 113.537912,22.4065325 C113.537912,21.5676992 114.270329,20.8758659 115.158363,20.8758659" id="path3065"></path>
                    <path d="M129.009358,17.7173103 C129.009358,14.2875325 131.4639,11.4750881 135.383282,11.4750881 C139.327565,11.4750881 141.757211,14.2875325 141.757211,17.7173103 C141.757211,21.1725881 139.327565,23.984977 135.383282,23.984977 C131.4639,23.984977 129.009358,21.1725881 129.009358,17.7173103 M139.302669,17.7173103 C139.302669,15.4713103 137.91667,13.4486992 135.383282,13.4486992 C132.874795,13.4486992 131.4639,15.4713103 131.4639,17.7173103 C131.4639,19.9868659 132.874795,22.0114214 135.383282,22.0114214 C137.91667,22.0114214 139.302669,19.9868659 139.302669,17.7173103" id="path3069" fill-rule="nonzero"></path>
                    <path d="M161.208265,15.076977 L161.208265,22.7028659 C161.208265,23.3182547 160.658408,23.8121436 160.006932,23.8121436 C159.380328,23.8121436 158.857467,23.3182547 158.857467,22.7028659 L158.857467,15.7433103 C158.857467,14.3616436 158.20389,13.6952547 156.662279,13.6952547 C155.382099,13.6952547 154.128891,15.0554214 153.527189,15.9196992 L153.527189,22.7028659 C153.527189,23.3182547 153.006387,23.8121436 152.352822,23.8121436 C151.726224,23.8121436 151.176385,23.3182547 151.176385,22.7028659 L151.176385,15.7433103 C151.176385,14.3616436 150.549787,13.6952547 148.956302,13.6952547 C147.727996,13.6952547 146.50176,15.1377547 145.873086,16.0000881 L145.873086,22.7028659 C145.873086,23.3182547 145.325346,23.8121436 144.698719,23.8121436 C144.045142,23.8121436 143.522281,23.3182547 143.522281,22.7028659 L143.522281,12.7584214 C143.522281,12.1410881 144.045142,11.6471992 144.671746,11.6471992 C145.325323,11.6471992 145.873086,12.1410881 145.873086,12.7584214 L145.873086,13.4483103 C146.395947,12.707477 148.068267,11.4746992 149.948079,11.4746992 C151.856939,11.4746992 152.979426,12.4115325 153.371572,13.6952547 C154.101919,12.5840325 155.809516,11.4746992 157.664432,11.4746992 C159.990328,11.4746992 161.208265,12.683977 161.208265,15.076977" id="path3073"></path>
                    <path d="M123.849837,11.4747547 C125.652879,11.4747547 126.906087,12.0175325 127.872962,12.856477 C128.08046,13.0286992 128.238141,13.3248103 128.238141,13.5973103 C128.238141,14.1636992 127.767155,14.6085881 127.194495,14.6085881 C126.906069,14.6085881 126.671634,14.5085881 126.486974,14.3613659 C125.756628,13.720477 124.947434,13.4480881 123.953586,13.4480881 C121.472072,13.4480881 119.878587,15.2491992 119.878587,17.7166992 C119.878587,20.1841436 121.474143,21.9323659 123.953586,22.0107547 C125.627988,22.0663103 127.314836,20.9151992 128.66971,18.8945881 C128.837802,18.643477 129.084647,18.1772547 129.288016,17.9342547 C129.671839,17.4759214 129.945738,17.6953659 130.171898,17.9175881 C130.586834,18.3270325 130.582717,19.2993103 130.312994,19.7775325 C129.551522,21.1200325 128.910397,21.7452547 128.182126,22.417477 C127.167529,23.346477 125.65289,23.9834214 123.849849,23.9834214 C120.036281,23.9834214 117.424052,21.294477 117.424052,17.7157547 C117.424052,14.138977 120.036281,11.4735325 123.849849,11.4735325" id="path3077"></path>
                    <path d="M85.7973806,21.8616992 C85.7973806,22.2811436 84.5254991,23.2198659 83.6104923,23.6393103 C83.0896897,23.8781992 82.5647702,23.9843103 81.8074509,23.9843103 C79.8218258,23.9843103 78.803076,22.9240325 78.803076,21.0484214 L78.803076,13.7204214 L77.6017425,13.7204214 C77.0540029,13.7204214 76.5560204,13.2754214 76.5560204,12.7326436 C76.5560204,12.2154214 77.0540029,11.7703659 77.6017425,11.7703659 L78.803076,11.7703659 L78.803076,9.5008103 C78.803076,8.88347696 79.3259371,8.38958807 79.9795134,8.38958807 C80.6061174,8.38958807 81.1538746,8.88347696 81.1538746,9.5008103 L81.1538746,11.7703659 L82.8013045,11.7703659 C83.3739814,11.7703659 83.8449504,12.2153659 83.8449504,12.7326436 C83.8449504,13.2754214 83.3739638,13.7204214 82.8013045,13.7204214 L81.1538746,13.7204214 L81.1538746,20.5545325 C81.1538746,21.3933659 81.5729869,22.0106992 82.3821864,22.0106992 C83.8200543,22.0106992 84.9508457,19.9018659 85.5878186,19.9018659 C86.1874503,19.9018659 85.7973748,21.3188659 85.7973748,21.8617547" id="path3081"></path>
                </g>
            </g>
        </g>
    </g>
</svg>