<svg width="48" height="38" viewBox="0 0 48 38" fill="none" xmlns="http://www.w3.org/2000/svg">
<path fill-rule="evenodd" clip-rule="evenodd" d="M38.1076 5.12356L35.7675 9.17681H31.0872L28.7471 5.12356L31.0872 1.07031H35.7675L38.1076 5.12356Z" fill="#06435E"/>
<path fill-rule="evenodd" clip-rule="evenodd" d="M28.7468 33.2017L26.4067 37.2549H21.7264L19.3862 33.2017L21.7264 29.1484H26.4067L28.7468 33.2017Z" fill="#06435E"/>
<path d="M14.7237 19.1223C17.3086 19.1223 19.404 17.0269 19.404 14.442C19.404 11.8572 17.3086 9.76172 14.7237 9.76172C12.1389 9.76172 10.0435 11.8572 10.0435 14.442C10.0435 17.0269 12.1389 19.1223 14.7237 19.1223Z" fill="#06435E"/>
<path d="M33.4449 19.1223C36.0298 19.1223 38.1252 17.0269 38.1252 14.442C38.1252 11.8572 36.0298 9.76172 33.4449 9.76172C30.8601 9.76172 28.7646 11.8572 28.7646 14.442C28.7646 17.0269 30.8601 19.1223 33.4449 19.1223Z" fill="#06435E"/>
<path d="M24.0846 28.4817C26.6694 28.4817 28.7649 26.3862 28.7649 23.8014C28.7649 21.2165 26.6694 19.1211 24.0846 19.1211C21.4997 19.1211 19.4043 21.2165 19.4043 23.8014C19.4043 26.3862 21.4997 28.4817 24.0846 28.4817Z" fill="#06435E"/>
<path d="M33.4449 28.4817C36.0298 28.4817 38.1252 26.3862 38.1252 23.8014C38.1252 21.2165 36.0298 19.1211 33.4449 19.1211C30.8601 19.1211 28.7646 21.2165 28.7646 23.8014C28.7646 26.3862 30.8601 28.4817 33.4449 28.4817Z" fill="#06435E"/>
<path fill-rule="evenodd" clip-rule="evenodd" d="M33.4448 9.76172C32.2035 9.76176 31.0131 10.2549 30.1354 11.1326C29.2577 12.0104 28.7646 13.2008 28.7646 14.4421C28.7647 15.6834 29.2578 16.8738 30.1355 17.7515C31.0132 18.6292 32.2036 19.1223 33.4448 19.1223V9.76172Z" fill="#00A8F3"/>
<path fill-rule="evenodd" clip-rule="evenodd" d="M26.5665 19.8338C25.8224 19.3682 24.9623 19.1212 24.0845 19.1211C21.4996 19.1212 19.4042 21.2167 19.4043 23.8015C19.4044 26.3862 21.4997 28.4816 24.0845 28.4817C24.9626 28.4798 25.8227 28.2326 26.5665 27.7658V19.8338Z" fill="#F39C11"/>
<path fill-rule="evenodd" clip-rule="evenodd" d="M17.1227 10.4744C16.3785 10.0088 15.5184 9.76181 14.6406 9.76172C12.0558 9.76179 9.9604 11.8573 9.96045 14.4421C9.96052 17.0269 12.0559 19.1222 14.6406 19.1223C15.5188 19.1223 16.3789 18.8732 17.1227 18.4064V10.4744Z" fill="#BE0000"/>
<path fill-rule="evenodd" clip-rule="evenodd" d="M47.468 14.4732L45.1279 18.5264H40.4476L38.1074 14.4732L40.4476 10.4199H45.1279L47.468 14.4732Z" fill="#06435E"/>
<path fill-rule="evenodd" clip-rule="evenodd" d="M47.468 23.8345L45.1279 27.8877H40.4476L38.1074 23.8345L40.4476 19.7812H45.1279L47.468 23.8345Z" fill="#06435E"/>
<path fill-rule="evenodd" clip-rule="evenodd" d="M9.96019 14.4732L7.62004 18.5264H2.93975L0.599609 14.4732L2.93975 10.4199H7.62004L9.96019 14.4732Z" fill="#06435E"/>
<path fill-rule="evenodd" clip-rule="evenodd" d="M9.96019 23.8345L7.62004 27.8877H2.93975L0.599609 23.8345L2.93975 19.7812H7.62004L9.96019 23.8345Z" fill="#06435E"/>
<path d="M24.0909 9.76097C26.6758 9.76097 28.7712 7.66553 28.7712 5.08068C28.7712 2.49583 26.6758 0.400391 24.0909 0.400391C21.5061 0.400391 19.4106 2.49583 19.4106 5.08068C19.4106 7.66553 21.5061 9.76097 24.0909 9.76097Z" fill="#06435E"/>
<path d="M14.7237 37.8411C17.3086 37.8411 19.404 35.7456 19.404 33.1608C19.404 30.5759 17.3086 28.4805 14.7237 28.4805C12.1389 28.4805 10.0435 30.5759 10.0435 33.1608C10.0435 35.7456 12.1389 37.8411 14.7237 37.8411Z" fill="#06435E"/>
<path d="M33.4449 37.8411C36.0298 37.8411 38.1252 35.7456 38.1252 33.1608C38.1252 30.5759 36.0298 28.4805 33.4449 28.4805C30.8601 28.4805 28.7646 30.5759 28.7646 33.1608C28.7646 35.7456 30.8601 37.8411 33.4449 37.8411Z" fill="#06435E"/>
<path d="M14.7233 28.4817C17.3081 28.4817 19.4036 26.3862 19.4036 23.8014C19.4036 21.2165 17.3081 19.1211 14.7233 19.1211C12.1384 19.1211 10.043 21.2165 10.043 23.8014C10.043 26.3862 12.1384 28.4817 14.7233 28.4817Z" fill="#F39C11"/>
<path d="M13.6497 26.3828H11.3096V31.6481H13.6497V26.3828Z" fill="#F39C11"/>
<path d="M34.6135 26.3848H32.2759V31.6444H34.6135V26.3848Z" fill="#F39C11"/>
<path fill-rule="evenodd" clip-rule="evenodd" d="M29.4814 21.3281C29.0163 22.0715 28.7696 22.9306 28.7695 23.8075C28.7696 25.0475 29.2622 26.2366 30.139 27.1134C31.0158 27.9901 32.2049 28.4827 33.4449 28.4826C34.6848 28.4826 35.8739 27.99 36.7507 27.1133C37.6274 26.2365 38.12 25.0474 38.12 23.8075C38.119 22.9303 37.8711 22.0711 37.4049 21.3281H29.4814Z" fill="#F39C11"/>
<path fill-rule="evenodd" clip-rule="evenodd" d="M19.386 5.12356L17.0458 9.17681H12.3655L10.0254 5.12356L12.3655 1.07031H17.0458L19.386 5.12356Z" fill="#06435E"/>
<path d="M24.0851 19.1223C26.6699 19.1223 28.7654 17.0269 28.7654 14.442C28.7654 11.8572 26.6699 9.76172 24.0851 9.76172C21.5002 9.76172 19.4048 11.8572 19.4048 14.442C19.4048 17.0269 21.5002 19.1223 24.0851 19.1223Z" fill="#54BC89"/>
<path d="M23.012 6.54297H20.6719V11.8083H23.012V6.54297Z" fill="#54BC89"/>
</svg>
