<svg width="120" height="120" viewBox="0 0 120 120" fill="none" xmlns="http://www.w3.org/2000/svg">
<path fill-rule="evenodd" clip-rule="evenodd" d="M14.9407 0.567657C7.0086 0.567657 0.623047 6.95345 0.623047 14.8855V20.4919H2.39316V41.4939H0.623047V78.4614H2.39316V99.5082H0.623047V105.115C0.623047 113.047 7.0086 119.432 14.9407 119.432H105.17C113.102 119.432 119.488 113.047 119.488 105.115V14.8855C119.488 6.95345 113.102 0.567657 105.17 0.567657H14.9407Z" fill="#001E2E" fill-opacity="0.83"/>
<path fill-rule="evenodd" clip-rule="evenodd" d="M20.5416 8.01941H99.4577C106.395 8.01941 111.98 13.6045 111.98 20.5421V99.4582C111.98 106.396 106.395 111.981 99.4577 111.981H20.5416C13.604 111.981 8.01894 106.47 8.01894 99.5328H5.06543V78.4614H8.01894V60.0001V41.494H5.06543V20.2896H8.01894C8.01894 13.3521 13.604 8.01941 20.5416 8.01941Z" fill="#001E2E" fill-opacity="0.77"/>
<path fill-rule="evenodd" clip-rule="evenodd" d="M20.5416 8.77658C14.0018 8.77658 8.77589 13.7904 8.77589 20.2899C8.77589 20.7079 8.43702 21.0468 8.019 21.0468H5.82238V40.7373H8.019C8.43702 40.7373 8.77589 41.0762 8.77589 41.4942V78.4616C8.77589 78.8797 8.43702 79.2185 8.019 79.2185H5.82238V98.7761H8.019C8.43702 98.7761 8.77589 99.115 8.77589 99.533C8.77589 106.047 14.0162 111.224 20.5416 111.224H99.4577C105.977 111.224 111.223 105.978 111.223 99.4584V20.5423C111.223 14.0228 105.977 8.77658 99.4577 8.77658H20.5416ZM20.5416 7.26279C13.4594 7.26279 7.67383 12.5311 7.28313 19.533H5.06549C4.64747 19.533 4.30859 19.8719 4.30859 20.2899V41.4942C4.30859 41.9122 4.64747 42.2511 5.06549 42.2511H7.2621V77.7048H5.06549C4.64747 77.7048 4.30859 78.0436 4.30859 78.4616V99.533C4.30859 99.951 4.64747 100.29 5.06549 100.29H7.28312C7.67327 107.291 13.4458 112.738 20.5416 112.738H99.4577C106.813 112.738 112.737 106.814 112.737 99.4584V20.5423C112.737 13.1868 106.813 7.26279 99.4577 7.26279H20.5416Z" fill="url(#paint0_linear_893_19575)"/>
<path fill-rule="evenodd" clip-rule="evenodd" d="M0 14.8855C0 6.63996 6.63969 0 14.8853 0H105.115C113.36 0 120 6.63994 120 14.8855V105.115C120 113.36 113.36 120 105.115 120H14.8853C6.6397 120 0 113.36 0 105.115V99.5083C0 99.1947 0.254155 98.9406 0.567671 98.9406H1.77011V79.0291H0.567671C0.254155 79.0291 0 78.7749 0 78.4614V41.494C0 41.1804 0.254155 40.9263 0.567671 40.9263H1.77011V21.0596H0.567671C0.254155 21.0596 0 20.8054 0 20.4919V14.8855ZM14.8853 1.13534C7.26675 1.13534 1.13534 7.26696 1.13534 14.8855V19.9243H2.33779C2.6513 19.9243 2.90546 20.1784 2.90546 20.4919V41.494C2.90546 41.8075 2.6513 42.0616 2.33779 42.0616H1.13534V77.8937H2.33779C2.6513 77.8937 2.90546 78.1479 2.90546 78.4614V99.5083C2.90546 99.8218 2.6513 100.076 2.33779 100.076H1.13534V105.115C1.13534 112.733 7.26675 118.865 14.8853 118.865H105.115C112.733 118.865 118.865 112.733 118.865 105.115V14.8855C118.865 7.26697 112.733 1.13534 105.115 1.13534H14.8853Z" fill="url(#paint1_linear_893_19575)"/>
<g filter="url(#filter0_f_893_19575)">
<path d="M60.5461 98.5676C60.5461 98.5676 41.7241 81.7702 35.0065 68.8176C28.4747 56.2231 26.0111 34.2412 26.0111 34.2412L60.5461 22.2327L95.0811 34.2412C95.0811 34.2412 92.6175 56.2231 86.0856 68.8176C79.368 81.7702 60.5461 98.5676 60.5461 98.5676Z" fill="#01F2FF" fill-opacity="0.25"/>
</g>
<g filter="url(#filter1_f_893_19575)">
<path fill-rule="evenodd" clip-rule="evenodd" d="M60.1677 98.9911L60.5457 98.5675L60.9237 98.9911L60.5457 99.3284L60.1677 98.9911ZM26.0107 34.2412L25.4466 34.3044L25.3961 33.8539L60.5457 21.6317L95.6953 33.8539L95.6448 34.3044L95.0807 34.2412C95.6448 34.3044 95.6448 34.3045 95.6448 34.3048L95.6429 34.3214L95.6373 34.3699C95.6324 34.4126 95.625 34.4758 95.6151 34.5586C95.5953 34.7241 95.5654 34.9679 95.5251 35.2824C95.4446 35.9113 95.3224 36.8227 95.1553 37.9555C94.8211 40.2206 94.3074 43.3722 93.5888 46.9191C92.1544 53.9989 89.8933 62.708 86.5892 69.079C83.1904 75.6323 76.756 83.1193 71.2073 88.9414C68.4268 91.859 65.8572 94.3702 63.9827 96.152C63.0453 97.0431 62.2814 97.7521 61.7515 98.2386C61.4865 98.4819 61.28 98.6696 61.1395 98.7967C61.0693 98.8603 61.0155 98.9087 60.9793 98.9413L60.938 98.9782L60.924 98.9908C60.9238 98.991 60.9237 98.9911 60.5457 98.5675C60.1677 98.9911 60.1676 98.991 60.1674 98.9908L60.1667 98.9902L60.1639 98.9877L60.1534 98.9782L60.1121 98.9413C60.0758 98.9087 60.0221 98.8603 59.9519 98.7967C59.8114 98.6696 59.6049 98.4819 59.3399 98.2386C58.8099 97.7521 58.0461 97.0431 57.1087 96.152C55.2342 94.3702 52.6646 91.859 49.8841 88.9414C44.3354 83.1193 37.901 75.6323 34.5022 69.079C31.1981 62.708 28.937 53.9989 27.5026 46.9191C26.784 43.3722 26.2702 40.2206 25.9361 37.9555C25.769 36.8227 25.6468 35.9113 25.5662 35.2824C25.526 34.9679 25.4961 34.7241 25.4763 34.5586C25.4664 34.4758 25.459 34.4126 25.4541 34.3699L25.4485 34.3214L25.4467 34.3056L25.4466 34.3048C25.4466 34.3045 25.4466 34.3044 26.0107 34.2412ZM94.4631 34.6274L60.5457 22.8337L26.6283 34.6274C26.6454 34.7672 26.6668 34.9381 26.6924 35.1382C26.7721 35.7606 26.8934 36.6649 27.0593 37.7898C27.3912 40.0399 27.9016 43.1709 28.6153 46.6937C30.0457 53.7536 32.2824 62.3327 35.5101 68.5563C38.8289 74.9555 45.1643 82.3435 50.7059 88.1582C53.4706 91.059 56.0264 93.5567 57.8909 95.3291C58.823 96.2152 59.5821 96.9197 60.1077 97.4023C60.2793 97.5599 60.426 97.6937 60.5457 97.8026C60.6654 97.6937 60.8121 97.5599 60.9836 97.4023C61.5093 96.9197 62.2683 96.2152 63.2005 95.3291C65.065 93.5567 67.6208 91.059 70.3854 88.1582C75.9271 82.3435 82.2625 74.9555 85.5813 68.5563C88.809 62.3327 91.0457 53.7536 92.476 46.6937C93.1898 43.1709 93.7002 40.0399 94.0321 37.7898C94.198 36.6649 94.3193 35.7606 94.399 35.1382C94.4246 34.9381 94.4459 34.7672 94.4631 34.6274Z" fill="#00FFD3"/>
</g>
<path fill-rule="evenodd" clip-rule="evenodd" d="M60.5754 98.5675C60.5754 98.5675 41.7534 81.7702 35.0358 68.8176C28.504 56.223 26.0404 34.2411 26.0404 34.2411L60.5754 22.2327L95.1104 34.2411C95.1104 34.2411 92.6468 56.223 86.1149 68.8176C79.3973 81.7702 60.5754 98.5675 60.5754 98.5675ZM60.5754 98.0581C60.7123 97.934 60.9028 97.7607 61.1413 97.5417C61.6676 97.0584 62.4275 96.3532 63.3605 95.4663C65.2267 93.6923 67.7848 91.1924 70.5521 88.2887C76.0949 82.4728 82.4468 75.0683 85.7789 68.6434C89.0194 62.3952 91.2601 53.7944 92.6912 46.7313C93.4057 43.2044 93.9167 40.07 94.249 37.8174C94.4151 36.6912 94.5365 35.7857 94.6164 35.1622C94.6522 34.8825 94.6796 34.6595 94.699 34.4988L60.5754 22.6333L26.4517 34.4988C26.4711 34.6595 26.4985 34.8825 26.5344 35.1622C26.6142 35.7857 26.7356 36.6912 26.9018 37.8174C27.234 40.07 27.745 43.2044 28.4596 46.7313C29.8906 53.7944 32.1313 62.3952 35.3718 68.6434C38.7039 75.0683 45.0558 82.4728 50.5986 88.2887C53.3659 91.1924 55.924 93.6923 57.7902 95.4663C58.7232 96.3532 59.4831 97.0584 60.0094 97.5417C60.2479 97.7607 60.4384 97.934 60.5754 98.0581Z" fill="#01F2FF"/>
<g filter="url(#filter2_f_893_19575)">
<path fill-rule="evenodd" clip-rule="evenodd" d="M69.5729 50.2164V43.4636L69.5585 43.2166C69.3049 38.8944 65.7177 35.4664 61.331 35.4664C56.9442 35.4664 53.3571 38.8944 53.1035 43.2166L53.0892 43.4603V43.6719L53.0892 43.6749C53.0891 43.681 53.0891 43.6871 53.0891 43.6932C53.0891 43.6982 53.0891 43.7033 53.0891 43.7083C53.0891 43.7194 53.0891 43.7305 53.0892 43.7417L53.0892 43.7447V50.2164L48.8325 50.2164C48.101 50.2164 47.5079 50.8094 47.5079 51.541V72.2776C47.5079 73.0091 48.101 73.6021 48.8325 73.6021H73.8294C74.5609 73.6021 75.1539 73.0091 75.1539 72.2776V51.541C75.1539 50.8094 74.5609 50.2164 73.8294 50.2164L69.5729 50.2164ZM51.5754 43.7476C51.5753 43.7345 51.5753 43.7214 51.5753 43.7083C51.5753 43.6952 51.5753 43.6821 51.5754 43.6689V43.1279H51.5923C51.8925 38.0102 56.1379 33.9526 61.331 33.9526C66.524 33.9526 70.7694 38.0102 71.0696 43.1279H71.0867V48.7026L73.8294 48.7026C75.397 48.7026 76.6677 49.9734 76.6677 51.541V72.2776C76.6677 73.8451 75.397 75.1159 73.8294 75.1159H48.8325C47.2649 75.1159 45.9941 73.8451 45.9941 72.2776V51.541C45.9941 49.9734 47.2649 48.7026 48.8325 48.7026L51.5754 48.7026V43.7476ZM53.8366 50.2164V42.9365H54.0182C54.7367 39.1318 57.5351 35.9375 61.331 35.9375C65.1269 35.9375 67.9253 39.1318 68.6439 42.9365H68.8255V50.2164H53.8366ZM67.3013 44.4502C67.1172 40.5464 64.5146 37.4513 61.331 37.4513C58.1474 37.4513 55.5448 40.5464 55.3608 44.4502H55.3504V48.7026H67.3117V44.4502H67.3013Z" fill="#00FFD3"/>
</g>
<path fill-rule="evenodd" clip-rule="evenodd" d="M71.0565 43.0526V48.6272L73.7991 48.6272C75.3667 48.6272 76.6375 49.898 76.6375 51.4656V72.2022C76.6375 73.7698 75.3667 75.0405 73.7991 75.0405H48.8022C47.2346 75.0405 45.9639 73.7698 45.9639 72.2022V51.4656C45.9639 49.898 47.2346 48.6272 48.8022 48.6272L51.5451 48.6272V43.6723C51.5451 43.6591 51.545 43.646 51.545 43.6329C51.545 43.6198 51.5451 43.6067 51.5451 43.5936V43.0526H51.562C51.8623 37.9348 56.1076 33.8773 61.3007 33.8773C66.4938 33.8773 70.7391 37.9348 71.0394 43.0526H71.0565ZM55.3201 48.6272H67.2815V44.3749H67.271C67.087 40.4711 64.4844 37.3759 61.3008 37.3759C58.1172 37.3759 55.5146 40.4711 55.3305 44.3749H55.3201V48.6272Z" fill="#002A3D"/>
<path fill-rule="evenodd" clip-rule="evenodd" d="M70.678 49.0057V43.355L70.6616 43.0747C70.373 38.1559 66.2922 34.2557 61.3007 34.2557C56.3092 34.2557 52.2284 38.1559 51.9398 43.0747L51.9236 43.3517V43.5951C51.9235 43.6077 51.9235 43.6203 51.9235 43.6329C51.9235 43.6431 51.9235 43.6532 51.9235 43.6634L51.9236 43.6723L51.9236 49.0057L48.8022 49.0057C47.4437 49.0057 46.3423 50.107 46.3423 51.4656V72.2022C46.3423 73.5608 47.4436 74.6621 48.8022 74.6621H73.7991C75.1577 74.6621 76.259 73.5608 76.259 72.2022V51.4656C76.259 50.107 75.1577 49.0057 73.7991 49.0057L70.678 49.0057ZM51.5451 43.0526H51.562C51.8623 37.9348 56.1076 33.8773 61.3007 33.8773C66.4938 33.8773 70.7391 37.9348 71.0394 43.0526H71.0565V48.6272L73.7991 48.6272C75.3667 48.6272 76.6375 49.898 76.6375 51.4656V72.2022C76.6375 73.7698 75.3667 75.0405 73.7991 75.0405H48.8022C47.2346 75.0405 45.9639 73.7698 45.9639 72.2022V51.4656C45.9639 49.898 47.2346 48.6272 48.8022 48.6272L51.5451 48.6272V43.6723C51.5451 43.6591 51.545 43.646 51.545 43.6329C51.545 43.6198 51.5451 43.6067 51.5451 43.5936V43.0526ZM54.9416 49.0057V43.9964H54.9763C55.3053 40.1315 57.9497 36.9975 61.3008 36.9975C64.6518 36.9975 67.2962 40.1315 67.6252 43.9964H67.6599V49.0057H54.9416ZM67.271 44.3749C67.087 40.4711 64.4844 37.3759 61.3008 37.3759C58.1172 37.3759 55.5146 40.4711 55.3305 44.3749H55.3201V48.6272H67.2815V44.3749H67.271Z" fill="#00FFD3"/>
<path fill-rule="evenodd" clip-rule="evenodd" d="M68.6691 54.4679L67.4489 56.5814H65.0083L63.7881 54.4679L65.0083 52.3543H67.4489L68.6691 54.4679Z" fill="#06435E" fill-opacity="0.79"/>
<path fill-rule="evenodd" clip-rule="evenodd" d="M64.8998 52.1651H67.5588L68.8883 54.4679L67.5588 56.7707H64.8998L63.5703 54.4679L64.8998 52.1651ZM65.1183 52.5436L64.0073 54.4679L65.1183 56.3922H67.3403L68.4513 54.4679L67.3403 52.5436H65.1183Z" fill="#01F2FF"/>
<path fill-rule="evenodd" clip-rule="evenodd" d="M63.7882 69.1099L62.568 71.2234H60.1275L58.9072 69.1099L60.1275 66.9963H62.568L63.7882 69.1099Z" fill="#06435E" fill-opacity="0.79"/>
<path fill-rule="evenodd" clip-rule="evenodd" d="M60.018 66.8071H62.677L64.0065 69.1099L62.677 71.4126H60.018L58.6885 69.1099L60.018 66.8071ZM60.2365 67.1855L59.1255 69.1099L60.2365 71.0342H62.4585L63.5695 69.1099L62.4585 67.1855H60.2365Z" fill="#01F2FF"/>
<path d="M56.4669 61.7749C57.8147 61.7749 58.9074 60.6823 58.9074 59.3344C58.9074 57.9866 57.8147 56.8939 56.4669 56.8939C55.119 56.8939 54.0264 57.9866 54.0264 59.3344C54.0264 60.6823 55.119 61.7749 56.4669 61.7749Z" fill="#06435E" fill-opacity="0.79"/>
<path d="M66.2384 61.7675C67.5862 61.7675 68.6789 60.6749 68.6789 59.327C68.6789 57.9792 67.5862 56.8865 66.2384 56.8865C64.8905 56.8865 63.7979 57.9792 63.7979 59.327C63.7979 60.6749 64.8905 61.7675 66.2384 61.7675Z" fill="#06435E" fill-opacity="0.79"/>
<path d="M61.3585 61.7675C62.7063 61.7675 63.799 60.6749 63.799 59.327C63.799 57.9792 62.7063 56.8865 61.3585 56.8865C60.0106 56.8865 58.918 57.9792 58.918 59.327C58.918 60.6749 60.0106 61.7675 61.3585 61.7675Z" fill="#06435E" fill-opacity="0.79"/>
<path d="M61.3575 66.6485C62.7054 66.6485 63.798 65.5559 63.798 64.208C63.798 62.8602 62.7054 61.7675 61.3575 61.7675C60.0096 61.7675 58.917 62.8602 58.917 64.208C58.917 65.5559 60.0096 66.6485 61.3575 66.6485Z" fill="#06435E" fill-opacity="0.79"/>
<path d="M56.4649 66.6485C57.8128 66.6485 58.9054 65.5559 58.9054 64.208C58.9054 62.8602 57.8128 61.7675 56.4649 61.7675C55.1171 61.7675 54.0244 62.8602 54.0244 64.208C54.0244 65.5559 55.1171 66.6485 56.4649 66.6485Z" fill="#06435E" fill-opacity="0.79"/>
<path d="M66.2384 66.6486C67.5862 66.6486 68.6789 65.5559 68.6789 64.208C68.6789 62.8602 67.5862 61.7675 66.2384 61.7675C64.8905 61.7675 63.7979 62.8602 63.7979 64.208C63.7979 65.5559 64.8905 66.6486 66.2384 66.6486Z" fill="#06435E" fill-opacity="0.79"/>
<path fill-rule="evenodd" clip-rule="evenodd" d="M73.55 59.3434L72.3297 61.4569H69.8892L68.6689 59.3434L69.8892 57.2299H72.3297L73.55 59.3434Z" fill="#06435E" fill-opacity="0.79"/>
<path fill-rule="evenodd" clip-rule="evenodd" d="M69.7797 57.0406H72.4387L73.7682 59.3434L72.4387 61.6462H69.7797L68.4502 59.3434L69.7797 57.0406ZM69.9982 57.4191L68.8872 59.3434L69.9982 61.2677H72.2202L73.3312 59.3434L72.2202 57.4191H69.9982Z" fill="#01F2FF"/>
<path fill-rule="evenodd" clip-rule="evenodd" d="M73.55 64.2244L72.3297 66.338H69.8892L68.6689 64.2244L69.8892 62.1109H72.3297L73.55 64.2244Z" fill="#06435E" fill-opacity="0.79"/>
<path fill-rule="evenodd" clip-rule="evenodd" d="M69.7797 61.9217H72.4387L73.7682 64.2244L72.4387 66.5272H69.7797L68.4502 64.2244L69.7797 61.9217ZM69.9982 62.3001L68.8872 64.2244L69.9982 66.1488H72.2202L73.3312 64.2244L72.2202 62.3001H69.9982Z" fill="#01F2FF"/>
<path fill-rule="evenodd" clip-rule="evenodd" d="M53.9923 59.3434L52.7721 61.4569H50.3316L49.1113 59.3434L50.3316 57.2299H52.7721L53.9923 59.3434Z" fill="#06435E" fill-opacity="0.79"/>
<path fill-rule="evenodd" clip-rule="evenodd" d="M50.2221 57.0406H52.8811L54.2106 59.3434L52.8811 61.6462H50.2221L48.8926 59.3434L50.2221 57.0406ZM50.4406 57.4191L49.3296 59.3434L50.4406 61.2677H52.6626L53.7736 59.3434L52.6626 57.4191H50.4406Z" fill="#01F2FF"/>
<path fill-rule="evenodd" clip-rule="evenodd" d="M53.9923 64.2244L52.7721 66.338H50.3316L49.1113 64.2244L50.3316 62.1109H52.7721L53.9923 64.2244Z" fill="#06435E" fill-opacity="0.79"/>
<path fill-rule="evenodd" clip-rule="evenodd" d="M50.2221 61.9217H52.8811L54.2106 64.2244L52.8811 66.5272H50.2221L48.8926 64.2244L50.2221 61.9217ZM50.4406 62.3001L49.3296 64.2244L50.4406 66.1488H52.6626L53.7736 64.2244L52.6626 62.3001H50.4406Z" fill="#01F2FF"/>
<path d="M61.3604 56.8865C62.7083 56.8865 63.8009 55.7939 63.8009 54.446C63.8009 53.0981 62.7083 52.0055 61.3604 52.0055C60.0126 52.0055 58.9199 53.0981 58.9199 54.446C58.9199 55.7939 60.0126 56.8865 61.3604 56.8865Z" fill="#06435E" fill-opacity="0.79"/>
<path fill-rule="evenodd" clip-rule="evenodd" d="M61.3602 52.1947C60.1169 52.1947 59.1089 53.2026 59.1089 54.446C59.1089 55.6893 60.1169 56.6973 61.3602 56.6973C62.6036 56.6973 63.6115 55.6893 63.6115 54.446C63.6115 53.2026 62.6036 52.1947 61.3602 52.1947ZM58.7305 54.446C58.7305 52.9936 59.9078 51.8163 61.3602 51.8163C62.8126 51.8163 63.9899 52.9936 63.9899 54.446C63.9899 55.8984 62.8126 57.0757 61.3602 57.0757C59.9078 57.0757 58.7305 55.8984 58.7305 54.446Z" fill="#01F2FF"/>
<path d="M56.4757 71.5296C57.8235 71.5296 58.9162 70.4369 58.9162 69.0891C58.9162 67.7412 57.8235 66.6485 56.4757 66.6485C55.1278 66.6485 54.0352 67.7412 54.0352 69.0891C54.0352 70.4369 55.1278 71.5296 56.4757 71.5296Z" fill="#06435E" fill-opacity="0.79"/>
<path fill-rule="evenodd" clip-rule="evenodd" d="M56.4764 66.8378C55.2331 66.8378 54.2251 67.8457 54.2251 69.0891C54.2251 70.3324 55.2331 71.3403 56.4764 71.3403C57.7198 71.3403 58.7277 70.3324 58.7277 69.0891C58.7277 67.8457 57.7198 66.8378 56.4764 66.8378ZM53.8467 69.0891C53.8467 67.6367 55.0241 66.4593 56.4764 66.4593C57.9288 66.4593 59.1062 67.6367 59.1062 69.0891C59.1062 70.5414 57.9288 71.7188 56.4764 71.7188C55.0241 71.7188 53.8467 70.5414 53.8467 69.0891Z" fill="#01F2FF"/>
<path d="M66.2384 71.5296C67.5862 71.5296 68.6789 70.4369 68.6789 69.0891C68.6789 67.7412 67.5862 66.6485 66.2384 66.6485C64.8905 66.6485 63.7979 67.7412 63.7979 69.0891C63.7979 70.4369 64.8905 71.5296 66.2384 71.5296Z" fill="#06435E" fill-opacity="0.79"/>
<path fill-rule="evenodd" clip-rule="evenodd" d="M66.2381 66.8378C64.9948 66.8378 63.9868 67.8457 63.9868 69.0891C63.9868 70.3324 64.9948 71.3403 66.2381 71.3403C67.4815 71.3403 68.4894 70.3324 68.4894 69.0891C68.4894 67.8457 67.4815 66.8378 66.2381 66.8378ZM63.6084 69.0891C63.6084 67.6367 64.7858 66.4593 66.2381 66.4593C67.6905 66.4593 68.8679 67.6367 68.8679 69.0891C68.8679 70.5414 67.6905 71.7188 66.2381 71.7188C64.7858 71.7188 63.6084 70.5414 63.6084 69.0891Z" fill="#01F2FF"/>
<path fill-rule="evenodd" clip-rule="evenodd" d="M58.9074 54.4679L57.6871 56.5814H55.2466L54.0264 54.4679L55.2466 52.3543H57.6871L58.9074 54.4679Z" fill="#06435E" fill-opacity="0.79"/>
<path fill-rule="evenodd" clip-rule="evenodd" d="M55.1371 52.1651H57.7961L59.1256 54.4679L57.7961 56.7707H55.1371L53.8076 54.4679L55.1371 52.1651ZM55.3556 52.5436L54.2446 54.4679L55.3556 56.3922H57.5776L58.6886 54.4679L57.5776 52.5436H55.3556Z" fill="#01F2FF"/>
<path d="M58.9108 64.2318C58.9108 65.5887 57.8108 66.6886 56.4539 66.6886C56.2602 66.6886 56.0717 66.6662 55.8909 66.6238V68.3511H54.6625V65.9131C54.2498 65.4736 53.9971 64.8822 53.9971 64.2318C53.9971 62.8749 55.097 61.7749 56.4539 61.7749C57.8108 61.7749 58.9108 62.8749 58.9108 64.2318Z" fill="#F39C11"/>
<path d="M63.793 64.2142C63.793 63.7535 63.9226 63.3021 64.167 62.9116H68.3298C68.5747 63.302 68.7049 63.7534 68.7055 64.2142C68.7055 64.8656 68.4467 65.4904 67.9861 65.951C67.6732 66.2639 67.2846 66.4836 66.8634 66.5924V68.3325H65.6353V66.5925C65.214 66.4837 64.8253 66.2639 64.5124 65.951C64.0518 65.4904 63.793 64.8657 63.793 64.2142Z" fill="#F39C11"/>
<path fill-rule="evenodd" clip-rule="evenodd" d="M59.5837 55.1841H60.8126V56.9387C60.9935 56.8963 61.182 56.8739 61.3758 56.8739C62.7332 56.8739 63.8335 57.9743 63.8335 59.3317C63.8335 60.689 62.7332 61.7894 61.3758 61.7894C60.0184 61.7894 58.918 60.689 58.918 59.3317C58.918 58.6809 59.1709 58.0893 59.5837 57.6496V55.1841Z" fill="#54BC89"/>
<path fill-rule="evenodd" clip-rule="evenodd" d="M66.2495 56.8774C65.6 56.8774 64.9772 57.1354 64.518 57.5947C64.0587 58.0539 63.8008 58.6768 63.8008 59.3262C63.8008 59.9757 64.0588 60.5985 64.518 61.0577C64.9772 61.5169 65.6001 61.7749 66.2495 61.7749V56.8774Z" fill="#00A8F3"/>
<path fill-rule="evenodd" clip-rule="evenodd" d="M62.6538 62.1393C62.2655 61.8964 61.8168 61.7675 61.3588 61.7675C60.0102 61.7675 58.917 62.8608 58.917 64.2094C58.917 65.5579 60.0102 66.6512 61.3588 66.6512C61.8169 66.6502 62.2657 66.5212 62.6538 66.2777V62.1393Z" fill="#F39C11"/>
<path fill-rule="evenodd" clip-rule="evenodd" d="M57.7641 57.2619C57.3757 57.019 56.9269 56.8901 56.4688 56.89C55.1198 56.8901 54.0263 57.9836 54.0264 59.3325C54.0264 60.6814 55.1199 61.7749 56.4688 61.7749C56.927 61.7749 57.3759 61.6449 57.7641 61.4013V57.2619Z" fill="#BE0000"/>
<defs>
<filter id="filter0_f_893_19575" x="6.01074" y="2.2327" width="109.07" height="116.335" filterUnits="userSpaceOnUse" color-interpolation-filters="sRGB">
<feFlood flood-opacity="0" result="BackgroundImageFix"/>
<feBlend mode="normal" in="SourceGraphic" in2="BackgroundImageFix" result="shape"/>
<feGaussianBlur stdDeviation="10" result="effect1_foregroundBlur_893_19575"/>
</filter>
<filter id="filter1_f_893_19575" x="5.39648" y="1.63168" width="110.299" height="117.697" filterUnits="userSpaceOnUse" color-interpolation-filters="sRGB">
<feFlood flood-opacity="0" result="BackgroundImageFix"/>
<feBlend mode="normal" in="SourceGraphic" in2="BackgroundImageFix" result="shape"/>
<feGaussianBlur stdDeviation="10" result="effect1_foregroundBlur_893_19575"/>
</filter>
<filter id="filter2_f_893_19575" x="25.9941" y="13.9526" width="70.6738" height="81.1633" filterUnits="userSpaceOnUse" color-interpolation-filters="sRGB">
<feFlood flood-opacity="0" result="BackgroundImageFix"/>
<feBlend mode="normal" in="SourceGraphic" in2="BackgroundImageFix" result="shape"/>
<feGaussianBlur stdDeviation="10" result="effect1_foregroundBlur_893_19575"/>
</filter>
<linearGradient id="paint0_linear_893_19575" x1="108.445" y1="109.324" x2="14.8646" y2="8.01967" gradientUnits="userSpaceOnUse">
<stop stop-color="#00FFD3"/>
<stop offset="0.40625" stop-color="#00FFD3" stop-opacity="0.14"/>
<stop offset="1" stop-color="#00FFD3" stop-opacity="0"/>
</linearGradient>
<linearGradient id="paint1_linear_893_19575" x1="8.37655" y1="-0.639221" x2="102.962" y2="103.11" gradientUnits="userSpaceOnUse">
<stop offset="0.197917" stop-color="#00FCDF" stop-opacity="0.736122"/>
<stop offset="0.557292" stop-color="#01F2FF" stop-opacity="0"/>
</linearGradient>
</defs>
</svg>
