<svg width="120" height="120" viewBox="0 0 120 120" fill="none" xmlns="http://www.w3.org/2000/svg">
<path fill-rule="evenodd" clip-rule="evenodd" d="M14.798 0.379639C6.84081 0.379639 0.435059 6.78563 0.435059 14.7428V20.3669H2.21077V41.4354H0.435059V78.5198H2.21077V99.6332H0.435059V105.257C0.435059 113.215 6.84081 119.62 14.798 119.62H105.313C113.27 119.62 119.676 113.215 119.676 105.257V14.7428C119.676 6.78563 113.27 0.379639 105.313 0.379639H14.798Z" fill="#3B9E9A" fill-opacity="0.1"/>
<path fill-rule="evenodd" clip-rule="evenodd" d="M20.4169 7.85495H99.5827C106.542 7.85495 112.145 13.4577 112.145 20.4172V99.583C112.145 106.542 106.542 112.145 99.5827 112.145H20.4169C13.4575 112.145 7.8547 106.617 7.8547 99.6578H4.89185V78.5198H7.8547V60.0001V41.4354H4.89185V20.164H7.8547C7.8547 13.2045 13.4575 7.85495 20.4169 7.85495Z" fill="#3B9E9A" fill-opacity="0.1"/>
<g filter="url(#filter0_f_788_29295)">
<path d="M60.5484 98.6896C60.5484 98.6896 41.6669 81.8391 34.928 68.8455C28.3755 56.2111 25.9041 34.1597 25.9041 34.1597L60.5484 22.1132L95.1926 34.1597C95.1926 34.1597 92.7212 56.2111 86.1687 68.8455C79.4299 81.8391 60.5484 98.6896 60.5484 98.6896Z" fill="#3B9E9A" fill-opacity="0.2"/>
</g>
<g filter="url(#filter1_f_788_29295)">
<path fill-rule="evenodd" clip-rule="evenodd" d="M60.5484 98.6896C60.5484 98.6896 41.6669 81.8391 34.928 68.8455C28.3755 56.2111 25.9041 34.1597 25.9041 34.1597L60.5484 22.1132L95.1926 34.1597C95.1926 34.1597 92.7212 56.2111 86.1687 68.8455C79.4299 81.8391 60.5484 98.6896 60.5484 98.6896ZM60.5484 97.9222C60.6685 97.813 60.8156 97.6787 60.9877 97.5207C61.515 97.0365 62.2765 96.3298 63.2116 95.4409C65.082 93.6629 67.6459 91.1573 70.4193 88.2473C75.9784 82.4142 82.3339 75.0028 85.6632 68.5833C88.9011 62.3401 91.1448 53.7338 92.5797 46.6516C93.2957 43.1177 93.8078 39.9767 94.1407 37.7195C94.3072 36.5911 94.4288 35.684 94.5088 35.0595C94.5345 34.8589 94.5559 34.6874 94.5731 34.5472L60.5484 22.7161L26.5237 34.5472C26.5409 34.6874 26.5623 34.8589 26.588 35.0595C26.6679 35.684 26.7896 36.5911 26.956 37.7195C27.289 39.9767 27.801 43.1177 28.517 46.6516C29.9519 53.7338 32.1957 62.3401 35.4336 68.5833C38.7629 75.0028 45.1183 82.4142 50.6775 88.2473C53.4509 91.1573 56.0148 93.6629 57.8852 95.4409C58.8203 96.3298 59.5818 97.0365 60.109 97.5207C60.2811 97.6787 60.4283 97.813 60.5484 97.9222Z" fill="#00FFD3"/>
</g>
<path d="M60.5779 98.6896C60.5779 98.6896 41.6964 81.8391 34.9576 68.8455C28.4051 56.2111 25.9337 34.1597 25.9337 34.1597L60.5779 22.1132L95.2222 34.1597C95.2222 34.1597 92.7508 56.2111 86.1983 68.8455C79.4594 81.8391 60.5779 98.6896 60.5779 98.6896Z" fill="#3B9E9A" fill-opacity="0.2"/>
<path fill-rule="evenodd" clip-rule="evenodd" d="M60.5779 98.6896C60.5779 98.6896 41.6964 81.8391 34.9576 68.8455C28.4051 56.2111 25.9337 34.1597 25.9337 34.1597L60.5779 22.1132L95.2222 34.1597C95.2222 34.1597 92.7508 56.2111 86.1983 68.8455C79.4594 81.8391 60.5779 98.6896 60.5779 98.6896ZM60.5779 98.3065C60.5853 98.2999 60.5928 98.293 60.6006 98.286C60.74 98.1599 60.9456 97.973 61.2098 97.7304C61.7382 97.2453 62.5009 96.5374 63.4373 95.6473C65.3102 93.8669 67.8775 91.3579 70.6549 88.4437C76.2159 82.6087 82.5961 75.1726 85.9455 68.7144C89.2026 62.4342 91.4524 53.7953 92.8883 46.7082C93.6056 43.1681 94.1184 40.022 94.4519 37.7611C94.6187 36.6307 94.7406 35.7217 94.8208 35.0957C94.8608 34.7827 94.8905 34.5404 94.9101 34.3766C94.911 34.3687 94.912 34.3611 94.9128 34.3536L60.5779 22.4147L26.243 34.3536C26.2439 34.3611 26.2448 34.3687 26.2457 34.3766C26.2654 34.5404 26.295 34.7827 26.3351 35.0957C26.4153 35.7217 26.5371 36.6307 26.7039 37.7611C27.0374 40.022 27.5503 43.1681 28.2675 46.7082C29.7034 53.7953 31.9533 62.4342 35.2103 68.7144C38.5597 75.1726 44.94 82.6087 50.5009 88.4437C53.2783 91.3579 55.8456 93.8669 57.7186 95.6473C58.655 96.5374 59.4176 97.2453 59.946 97.7304C60.2102 97.973 60.4158 98.1599 60.5552 98.286C60.563 98.293 60.5706 98.2999 60.5779 98.3065Z" fill="#00FFD3"/>
<g filter="url(#filter2_f_788_29295)">
<path fill-rule="evenodd" clip-rule="evenodd" d="M69.4157 48.8785V42.6572L69.4002 42.3927C69.1283 37.7575 65.2822 34.0819 60.5782 34.0819C55.8743 34.0819 52.0281 37.7575 51.7562 42.3927L51.7409 42.6539V42.8817L51.7409 42.8836C51.7409 42.8901 51.7408 42.8966 51.7408 42.9032C51.7408 42.9085 51.7408 42.9139 51.7408 42.9193C51.7408 42.9312 51.7408 42.9431 51.7409 42.955L51.7409 42.9569V48.8785L48.0402 48.8785C46.9918 48.8785 46.142 49.7284 46.142 50.7767V71.579C46.142 72.6273 46.9918 73.4772 48.0402 73.4772H73.1162C74.1645 73.4772 75.0144 72.6273 75.0144 71.579V50.7767C75.0144 49.7284 74.1645 48.8785 73.1162 48.8785L69.4157 48.8785ZM50.7918 42.9588C50.7917 42.9456 50.7917 42.9325 50.7917 42.9193C50.7917 42.9061 50.7917 42.893 50.7918 42.8798V42.3371H50.8087C51.1099 37.2032 55.3687 33.1328 60.5782 33.1328C65.7877 33.1328 70.0465 37.2032 70.3477 42.3371H70.3648V47.9294L73.1162 47.9294C74.6887 47.9294 75.9635 49.2042 75.9635 50.7767V71.579C75.9635 73.1515 74.6887 74.4263 73.1162 74.4263H48.0402C46.4677 74.4263 45.1929 73.1515 45.1929 71.579V50.7767C45.1929 49.2042 46.4677 47.9294 48.0402 47.9294L50.7918 47.9294V42.9588ZM53.6296 48.8785V42.7145H53.725C54.2583 38.8762 56.9838 35.6934 60.5783 35.6934C64.1728 35.6934 66.8982 38.8762 67.4315 42.7145H67.527V48.8785H53.6296ZM66.5674 43.6636C66.3828 39.7474 63.7719 36.6425 60.5783 36.6425C57.3846 36.6425 54.7738 39.7474 54.5891 43.6636H54.5787V47.9294H66.5779V43.6636H66.5674Z" fill="#00FFD3"/>
</g>
<path fill-rule="evenodd" clip-rule="evenodd" d="M70.3346 42.2616V47.8539L73.0859 47.8539C74.6584 47.8539 75.9332 49.1287 75.9332 50.7012V71.5034C75.9332 73.076 74.6584 74.3508 73.0859 74.3508H48.0099C46.4374 74.3508 45.1626 73.076 45.1626 71.5034V50.7012C45.1626 49.1287 46.4374 47.8539 48.0099 47.8539L50.7615 47.8539V42.8832C50.7615 42.8701 50.7614 42.8569 50.7614 42.8438C50.7614 42.8306 50.7615 42.8174 50.7615 42.8043V42.2616H50.7785C51.0797 37.1277 55.3385 33.0573 60.5479 33.0573C65.7574 33.0573 70.0162 37.1277 70.3174 42.2616H70.3346ZM54.5484 47.8539H66.5476V43.5881H66.5372C66.3525 39.6719 63.7417 36.567 60.548 36.567C57.3543 36.567 54.7435 39.6719 54.5589 43.5881H54.5484V47.8539Z" fill="#01F2FF" fill-opacity="0.5"/>
<path fill-rule="evenodd" clip-rule="evenodd" d="M70.0498 48.1386V42.5463H70.0489L70.0332 42.2783C69.7408 37.294 65.6058 33.342 60.5479 33.342C55.4901 33.342 51.3551 37.294 51.0627 42.2783L51.047 42.5463H51.0462V42.8054C51.0462 42.8182 51.0462 42.831 51.0462 42.8438C51.0462 42.8566 51.0462 42.8693 51.0462 42.8821L51.0462 42.8832L51.0462 48.1386L48.0099 48.1386C46.5946 48.1386 45.4473 49.2859 45.4473 50.7012V71.5034C45.4473 72.9187 46.5946 74.066 48.0099 74.066H73.0859C74.5012 74.066 75.6485 72.9187 75.6485 71.5034V50.7012C75.6485 49.2859 74.5012 48.1386 73.0859 48.1386L70.0498 48.1386ZM50.7615 42.2616H50.7785C51.0797 37.1277 55.3385 33.0573 60.5479 33.0573C65.7574 33.0573 70.0162 37.1277 70.3174 42.2616H70.3346V47.8539L73.0859 47.8539C74.6584 47.8539 75.9332 49.1287 75.9332 50.7012V71.5034C75.9332 73.076 74.6584 74.3508 73.0859 74.3508H48.0099C46.4374 74.3508 45.1626 73.076 45.1626 71.5034V50.7012C45.1626 49.1287 46.4374 47.8539 48.0099 47.8539L50.7615 47.8539V42.8832C50.7615 42.8701 50.7614 42.8569 50.7614 42.8438C50.7614 42.8306 50.7615 42.8174 50.7615 42.8043V42.2616ZM54.2637 48.1386V43.3033H54.2911C54.5856 39.4175 57.2274 36.2823 60.548 36.2823C63.8687 36.2823 66.5104 39.4175 66.8049 43.3033H66.8324V48.1386H54.2637ZM66.5372 43.5881C66.3525 39.6719 63.7417 36.567 60.548 36.567C57.3543 36.567 54.7435 39.6719 54.5589 43.5881H54.5484V47.8539H66.5476V43.5881H66.5372Z" fill="#00FFD3"/>
<path fill-rule="evenodd" clip-rule="evenodd" d="M67.9236 54.4217L66.6994 56.5419H64.2512L63.0271 54.4217L64.2512 52.3014H66.6994L67.9236 54.4217Z" fill="#06435E" fill-opacity="0.5"/>
<path fill-rule="evenodd" clip-rule="evenodd" d="M67.7044 54.4217L66.5899 56.3521H64.3608L63.2463 54.4217L64.3608 52.4912H66.5899L67.7044 54.4217ZM66.6994 52.3014L67.9236 54.4217L66.6994 56.5419H64.2512L63.0271 54.4217L64.2512 52.3014H66.6994Z" fill="#00FFD3"/>
<path fill-rule="evenodd" clip-rule="evenodd" d="M63.0271 69.1099L61.803 71.2302H59.3547L58.1306 69.1099L59.3547 66.9897H61.803L63.0271 69.1099Z" fill="#06435E" fill-opacity="0.5"/>
<path fill-rule="evenodd" clip-rule="evenodd" d="M62.8079 69.1099L61.6934 71.0404H59.4643L58.3498 69.1099L59.4643 67.1795H61.6934L62.8079 69.1099ZM61.803 66.9897L63.0271 69.1099L61.803 71.2302H59.3547L58.1306 69.1099L59.3547 66.9897H61.803Z" fill="#00FFD3"/>
<path d="M55.6824 61.7518C57.0345 61.7518 58.1306 60.6557 58.1306 59.3036C58.1306 57.9515 57.0345 56.8553 55.6824 56.8553C54.3302 56.8553 53.2341 57.9515 53.2341 59.3036C53.2341 60.6557 54.3302 61.7518 55.6824 61.7518Z" fill="#06435E" fill-opacity="0.5"/>
<path fill-rule="evenodd" clip-rule="evenodd" d="M55.6824 61.562C56.9296 61.562 57.9408 60.5509 57.9408 59.3036C57.9408 58.0563 56.9296 57.0452 55.6824 57.0452C54.4351 57.0452 53.424 58.0563 53.424 59.3036C53.424 60.5509 54.4351 61.562 55.6824 61.562ZM58.1306 59.3036C58.1306 60.6557 57.0345 61.7518 55.6824 61.7518C54.3302 61.7518 53.2341 60.6557 53.2341 59.3036C53.2341 57.9515 54.3302 56.8553 55.6824 56.8553C57.0345 56.8553 58.1306 57.9515 58.1306 59.3036Z" fill="#00FFD3"/>
<path d="M65.4849 61.7444C66.837 61.7444 67.9331 60.6483 67.9331 59.2962C67.9331 57.944 66.837 56.8479 65.4849 56.8479C64.1327 56.8479 63.0366 57.944 63.0366 59.2962C63.0366 60.6483 64.1327 61.7444 65.4849 61.7444Z" fill="#06435E" fill-opacity="0.5"/>
<path fill-rule="evenodd" clip-rule="evenodd" d="M65.4849 61.5546C66.7321 61.5546 67.7433 60.5434 67.7433 59.2962C67.7433 58.0489 66.7321 57.0378 65.4849 57.0378C64.2376 57.0378 63.2264 58.0489 63.2264 59.2962C63.2264 60.5434 64.2376 61.5546 65.4849 61.5546ZM67.9331 59.2962C67.9331 60.6483 66.837 61.7444 65.4849 61.7444C64.1327 61.7444 63.0366 60.6483 63.0366 59.2962C63.0366 57.944 64.1327 56.8479 65.4849 56.8479C66.837 56.8479 67.9331 57.944 67.9331 59.2962Z" fill="#00FFD3"/>
<path d="M60.5898 61.7444C61.942 61.7444 63.0381 60.6483 63.0381 59.2962C63.0381 57.944 61.942 56.8479 60.5898 56.8479C59.2377 56.8479 58.1416 57.944 58.1416 59.2962C58.1416 60.6483 59.2377 61.7444 60.5898 61.7444Z" fill="#06435E" fill-opacity="0.5"/>
<path fill-rule="evenodd" clip-rule="evenodd" d="M60.5898 61.5546C61.8371 61.5546 62.8482 60.5434 62.8482 59.2962C62.8482 58.0489 61.8371 57.0378 60.5898 57.0378C59.3425 57.0378 58.3314 58.0489 58.3314 59.2962C58.3314 60.5434 59.3425 61.5546 60.5898 61.5546ZM63.0381 59.2962C63.0381 60.6483 61.942 61.7444 60.5898 61.7444C59.2377 61.7444 58.1416 60.6483 58.1416 59.2962C58.1416 57.944 59.2377 56.8479 60.5898 56.8479C61.942 56.8479 63.0381 57.944 63.0381 59.2962Z" fill="#00FFD3"/>
<path d="M60.5884 66.6408C61.9405 66.6408 63.0366 65.5447 63.0366 64.1926C63.0366 62.8405 61.9405 61.7444 60.5884 61.7444C59.2362 61.7444 58.1401 62.8405 58.1401 64.1926C58.1401 65.5447 59.2362 66.6408 60.5884 66.6408Z" fill="#06435E" fill-opacity="0.5"/>
<path fill-rule="evenodd" clip-rule="evenodd" d="M60.5884 66.451C61.8357 66.451 62.8468 65.4399 62.8468 64.1926C62.8468 62.9453 61.8357 61.9342 60.5884 61.9342C59.3411 61.9342 58.33 62.9453 58.33 64.1926C58.33 65.4399 59.3411 66.451 60.5884 66.451ZM63.0366 64.1926C63.0366 65.5447 61.9405 66.6408 60.5884 66.6408C59.2362 66.6408 58.1401 65.5447 58.1401 64.1926C58.1401 62.8405 59.2362 61.7444 60.5884 61.7444C61.9405 61.7444 63.0366 62.8405 63.0366 64.1926Z" fill="#00FFD3"/>
<path d="M55.6809 66.6408C57.033 66.6408 58.1291 65.5447 58.1291 64.1926C58.1291 62.8405 57.033 61.7444 55.6809 61.7444C54.3288 61.7444 53.2327 62.8405 53.2327 64.1926C53.2327 65.5447 54.3288 66.6408 55.6809 66.6408Z" fill="#06435E" fill-opacity="0.5"/>
<path fill-rule="evenodd" clip-rule="evenodd" d="M55.6809 66.451C56.9282 66.451 57.9393 65.4399 57.9393 64.1926C57.9393 62.9453 56.9282 61.9342 55.6809 61.9342C54.4336 61.9342 53.4225 62.9453 53.4225 64.1926C53.4225 65.4399 54.4336 66.451 55.6809 66.451ZM58.1291 64.1926C58.1291 65.5447 57.033 66.6408 55.6809 66.6408C54.3288 66.6408 53.2327 65.5447 53.2327 64.1926C53.2327 62.8405 54.3288 61.7444 55.6809 61.7444C57.033 61.7444 58.1291 62.8405 58.1291 64.1926Z" fill="#00FFD3"/>
<path d="M65.4849 66.6409C66.837 66.6409 67.9331 65.5447 67.9331 64.1926C67.9331 62.8405 66.837 61.7444 65.4849 61.7444C64.1327 61.7444 63.0366 62.8405 63.0366 64.1926C63.0366 65.5447 64.1327 66.6409 65.4849 66.6409Z" fill="#06435E" fill-opacity="0.5"/>
<path fill-rule="evenodd" clip-rule="evenodd" d="M65.4849 66.451C66.7321 66.451 67.7433 65.4399 67.7433 64.1926C67.7433 62.9453 66.7321 61.9342 65.4849 61.9342C64.2376 61.9342 63.2264 62.9453 63.2264 64.1926C63.2264 65.4399 64.2376 66.451 65.4849 66.451ZM67.9331 64.1926C67.9331 65.5447 66.837 66.6409 65.4849 66.6409C64.1327 66.6409 63.0366 65.5447 63.0366 64.1926C63.0366 62.8405 64.1327 61.7444 65.4849 61.7444C66.837 61.7444 67.9331 62.8405 67.9331 64.1926Z" fill="#00FFD3"/>
<path fill-rule="evenodd" clip-rule="evenodd" d="M72.82 59.3126L71.5959 61.4328H69.1477L67.9236 59.3126L69.1477 57.1924H71.5959L72.82 59.3126Z" fill="#06435E" fill-opacity="0.5"/>
<path fill-rule="evenodd" clip-rule="evenodd" d="M72.6009 59.3126L71.4863 61.243H69.2573L68.1428 59.3126L69.2573 57.3822H71.4863L72.6009 59.3126ZM71.5959 57.1924L72.82 59.3126L71.5959 61.4328H69.1477L67.9236 59.3126L69.1477 57.1924H71.5959Z" fill="#00FFD3"/>
<path fill-rule="evenodd" clip-rule="evenodd" d="M72.82 64.2091L71.5959 66.3293H69.1477L67.9236 64.2091L69.1477 62.0888H71.5959L72.82 64.2091Z" fill="#06435E" fill-opacity="0.5"/>
<path fill-rule="evenodd" clip-rule="evenodd" d="M72.6009 64.2091L71.4863 66.1395H69.2573L68.1428 64.2091L69.2573 62.2787H71.4863L72.6009 64.2091ZM71.5959 62.0888L72.82 64.2091L71.5959 66.3293H69.1477L67.9236 64.2091L69.1477 62.0888H71.5959Z" fill="#00FFD3"/>
<path fill-rule="evenodd" clip-rule="evenodd" d="M53.1999 59.3126L51.9758 61.4328H49.5276L48.3035 59.3126L49.5276 57.1924H51.9758L53.1999 59.3126Z" fill="#06435E" fill-opacity="0.5"/>
<path fill-rule="evenodd" clip-rule="evenodd" d="M52.9807 59.3126L51.8662 61.243H49.6372L48.5227 59.3126L49.6372 57.3822H51.8662L52.9807 59.3126ZM51.9758 57.1924L53.1999 59.3126L51.9758 61.4328H49.5276L48.3035 59.3126L49.5276 57.1924H51.9758Z" fill="#00FFD3"/>
<path fill-rule="evenodd" clip-rule="evenodd" d="M53.1999 64.2091L51.9758 66.3293H49.5276L48.3035 64.2091L49.5276 62.0888H51.9758L53.1999 64.2091Z" fill="#06435E" fill-opacity="0.5"/>
<path fill-rule="evenodd" clip-rule="evenodd" d="M52.9807 64.2091L51.8662 66.1395H49.6372L48.5227 64.2091L49.6372 62.2787H51.8662L52.9807 64.2091ZM51.9758 62.0888L53.1999 64.2091L51.9758 66.3293H49.5276L48.3035 64.2091L49.5276 62.0888H51.9758Z" fill="#00FFD3"/>
<path d="M60.5915 56.8479C61.9437 56.8479 63.0398 55.7518 63.0398 54.3997C63.0398 53.0476 61.9437 51.9514 60.5915 51.9514C59.2394 51.9514 58.1433 53.0476 58.1433 54.3997C58.1433 55.7518 59.2394 56.8479 60.5915 56.8479Z" fill="#06435E" fill-opacity="0.5"/>
<path fill-rule="evenodd" clip-rule="evenodd" d="M60.5915 56.6581C61.8388 56.6581 62.85 55.647 62.85 54.3997C62.85 53.1524 61.8388 52.1413 60.5915 52.1413C59.3443 52.1413 58.3331 53.1524 58.3331 54.3997C58.3331 55.647 59.3443 56.6581 60.5915 56.6581ZM63.0398 54.3997C63.0398 55.7518 61.9437 56.8479 60.5915 56.8479C59.2394 56.8479 58.1433 55.7518 58.1433 54.3997C58.1433 53.0476 59.2394 51.9514 60.5915 51.9514C61.9437 51.9514 63.0398 53.0476 63.0398 54.3997Z" fill="#00FFD3"/>
<path d="M55.6919 71.5373C57.044 71.5373 58.1401 70.4412 58.1401 69.0891C58.1401 67.737 57.044 66.6408 55.6919 66.6408C54.3398 66.6408 53.2437 67.737 53.2437 69.0891C53.2437 70.4412 54.3398 71.5373 55.6919 71.5373Z" fill="#06435E" fill-opacity="0.5"/>
<path fill-rule="evenodd" clip-rule="evenodd" d="M55.6919 71.3475C56.9392 71.3475 57.9503 70.3364 57.9503 69.0891C57.9503 67.8418 56.9392 66.8307 55.6919 66.8307C54.4446 66.8307 53.4335 67.8418 53.4335 69.0891C53.4335 70.3364 54.4446 71.3475 55.6919 71.3475ZM58.1401 69.0891C58.1401 70.4412 57.044 71.5373 55.6919 71.5373C54.3398 71.5373 53.2437 70.4412 53.2437 69.0891C53.2437 67.737 54.3398 66.6408 55.6919 66.6408C57.044 66.6408 58.1401 67.737 58.1401 69.0891Z" fill="#00FFD3"/>
<path d="M65.4849 71.5373C66.837 71.5373 67.9331 70.4412 67.9331 69.0891C67.9331 67.737 66.837 66.6408 65.4849 66.6408C64.1327 66.6408 63.0366 67.737 63.0366 69.0891C63.0366 70.4412 64.1327 71.5373 65.4849 71.5373Z" fill="#06435E" fill-opacity="0.5"/>
<path fill-rule="evenodd" clip-rule="evenodd" d="M65.4849 71.3475C66.7321 71.3475 67.7433 70.3364 67.7433 69.0891C67.7433 67.8418 66.7321 66.8307 65.4849 66.8307C64.2376 66.8307 63.2264 67.8418 63.2264 69.0891C63.2264 70.3364 64.2376 71.3475 65.4849 71.3475ZM67.9331 69.0891C67.9331 70.4412 66.837 71.5373 65.4849 71.5373C64.1327 71.5373 63.0366 70.4412 63.0366 69.0891C63.0366 67.737 64.1327 66.6408 65.4849 66.6408C66.837 66.6408 67.9331 67.737 67.9331 69.0891Z" fill="#00FFD3"/>
<path fill-rule="evenodd" clip-rule="evenodd" d="M58.1306 54.4217L56.9065 56.5419H54.4582L53.2341 54.4217L54.4582 52.3014H56.9065L58.1306 54.4217Z" fill="#06435E" fill-opacity="0.5"/>
<path fill-rule="evenodd" clip-rule="evenodd" d="M57.9114 54.4217L56.7969 56.3521H54.5678L53.4533 54.4217L54.5678 52.4912H56.7969L57.9114 54.4217ZM56.9065 52.3014L58.1306 54.4217L56.9065 56.5419H54.4582L53.2341 54.4217L54.4582 52.3014H56.9065Z" fill="#00FFD3"/>
<path fill-rule="evenodd" clip-rule="evenodd" d="M58.1346 64.2165C58.1346 65.5776 57.0311 66.6811 55.6699 66.6811C55.4756 66.6811 55.2865 66.6586 55.1052 66.6161V68.3488H53.8729V65.9032C53.4589 65.4623 53.2053 64.869 53.2053 64.2165C53.2053 62.8553 54.3088 61.7518 55.6699 61.7518C57.0311 61.7518 58.1346 62.8553 58.1346 64.2165Z" fill="#F39C11"/>
<path fill-rule="evenodd" clip-rule="evenodd" d="M63.0322 64.1988C63.0323 63.7367 63.1623 63.2839 63.4074 62.8921H67.5834C67.8291 63.2837 67.9597 63.7365 67.9603 64.1988C67.9603 64.8523 67.7007 65.479 67.2386 65.9411C66.9247 66.255 66.5348 66.4755 66.1122 66.5846V68.3302H64.8802V66.5845C64.4576 66.4754 64.0678 66.255 63.754 65.9411C63.2919 65.4791 63.0322 64.8523 63.0322 64.1988Z" fill="#F39C11"/>
<path fill-rule="evenodd" clip-rule="evenodd" d="M58.8095 55.1402H60.0423V56.9003C60.2238 56.8577 60.413 56.8352 60.6074 56.8352C61.9691 56.8352 63.073 57.9391 63.073 59.3008C63.073 60.6625 61.9691 61.7664 60.6074 61.7664C59.2457 61.7664 58.1418 60.6625 58.1418 59.3008C58.1418 58.6481 58.3955 58.0546 58.8095 57.6136V55.1402Z" fill="#54BC89"/>
<path fill-rule="evenodd" clip-rule="evenodd" d="M65.4963 56.8387C64.8448 56.8388 64.2199 57.0976 63.7593 57.5583C63.2986 58.019 63.0398 58.6438 63.0398 59.2953C63.0398 59.9468 63.2986 60.5716 63.7593 61.0323C64.22 61.493 64.8448 61.7518 65.4963 61.7518V56.8387Z" fill="#00A8F3"/>
<path fill-rule="evenodd" clip-rule="evenodd" d="M61.8887 62.1174C61.4992 61.8737 61.0491 61.7444 60.5897 61.7444C59.2368 61.7444 58.1401 62.8411 58.1401 64.194C58.1402 65.5468 59.2368 66.6435 60.5897 66.6435C61.0492 66.6425 61.4994 66.5131 61.8887 66.2688V62.1174Z" fill="#F39C11"/>
<path fill-rule="evenodd" clip-rule="evenodd" d="M56.9836 57.2246C56.5941 56.9808 56.1438 56.8515 55.6842 56.8515C54.3311 56.8515 53.2341 57.9485 53.2341 59.3017C53.2342 60.6549 54.3311 61.7518 55.6842 61.7518C56.144 61.7518 56.5942 61.6214 56.9836 61.3771V57.2246Z" fill="#BE0000"/>
<path fill-rule="evenodd" clip-rule="evenodd" d="M0 14.7428C0 6.57597 6.57572 0 14.7426 0H105.257C113.424 0 120 6.57596 120 14.7428V105.257C120 113.424 113.424 120 105.257 120H14.7426C6.57572 120 0 113.424 0 105.257V99.6332C0 99.4236 0.169973 99.2536 0.379644 99.2536H1.77571V78.8994H0.379644C0.169973 78.8994 0 78.7295 0 78.5198V41.4354C0 41.2257 0.169973 41.0558 0.379644 41.0558H1.77571V20.7466H0.379644C0.169973 20.7466 0 20.5766 0 20.3669V14.7428ZM14.7426 0.759289C6.99508 0.759289 0.759289 6.9953 0.759289 14.7428V19.9873H2.15536C2.36503 19.9873 2.535 20.1573 2.535 20.3669V41.4354C2.535 41.6451 2.36503 41.8151 2.15536 41.8151H0.759289V78.1402H2.15536C2.36503 78.1402 2.535 78.3101 2.535 78.5198V99.6332C2.535 99.8429 2.36503 100.013 2.15536 100.013H0.759289V105.257C0.759289 113.005 6.99507 119.241 14.7426 119.241H105.257C113.005 119.241 119.241 113.005 119.241 105.257V14.7428C119.241 6.99531 113.005 0.759289 105.257 0.759289H14.7426Z" fill="url(#paint0_linear_788_29295)"/>
<path fill-rule="evenodd" clip-rule="evenodd" d="M20.417 8.61452C13.8565 8.61452 8.614 13.6442 8.614 20.1643C8.614 20.5836 8.27405 20.9235 7.85471 20.9235H5.65115V40.6764H7.85471C8.27405 40.6764 8.614 41.0163 8.614 41.4357V78.5201C8.614 78.9394 8.27405 79.2794 7.85471 79.2794H5.65115V98.8988H7.85471C8.27405 98.8988 8.614 99.2388 8.614 99.6581C8.614 106.192 13.8709 111.386 20.417 111.386H99.5827C106.123 111.386 111.386 106.123 111.386 99.5833V20.4175C111.386 13.8774 106.123 8.61452 99.5827 8.61452H20.417ZM20.417 7.09595C13.3123 7.09595 7.50845 12.381 7.11652 19.405H4.89186C4.47251 19.405 4.13257 19.7449 4.13257 20.1643V41.4357C4.13257 41.855 4.47251 42.195 4.89186 42.195H7.09542V77.7608H4.89186C4.47251 77.7608 4.13257 78.1007 4.13257 78.5201V99.6581C4.13257 100.077 4.47251 100.417 4.89186 100.417H7.11651C7.50789 107.441 13.2986 112.905 20.417 112.905H99.5827C106.962 112.905 112.904 106.962 112.904 99.5833V20.4175C112.904 13.0387 106.962 7.09595 99.5827 7.09595H20.417Z" fill="url(#paint1_linear_788_29295)"/>
<defs>
<filter id="filter0_f_788_29295" x="10.9041" y="7.11322" width="99.2886" height="106.576" filterUnits="userSpaceOnUse" color-interpolation-filters="sRGB">
<feFlood flood-opacity="0" result="BackgroundImageFix"/>
<feBlend mode="normal" in="SourceGraphic" in2="BackgroundImageFix" result="shape"/>
<feGaussianBlur stdDeviation="7.5" result="effect1_foregroundBlur_788_29295"/>
</filter>
<filter id="filter1_f_788_29295" x="10.9041" y="7.11322" width="99.2886" height="106.576" filterUnits="userSpaceOnUse" color-interpolation-filters="sRGB">
<feFlood flood-opacity="0" result="BackgroundImageFix"/>
<feBlend mode="normal" in="SourceGraphic" in2="BackgroundImageFix" result="shape"/>
<feGaussianBlur stdDeviation="7.5" result="effect1_foregroundBlur_788_29295"/>
</filter>
<filter id="filter2_f_788_29295" x="25.1929" y="13.1328" width="70.7708" height="81.2935" filterUnits="userSpaceOnUse" color-interpolation-filters="sRGB">
<feFlood flood-opacity="0" result="BackgroundImageFix"/>
<feBlend mode="normal" in="SourceGraphic" in2="BackgroundImageFix" result="shape"/>
<feGaussianBlur stdDeviation="10" result="effect1_foregroundBlur_788_29295"/>
</filter>
<linearGradient id="paint0_linear_788_29295" x1="4.08747" y1="2.40205" x2="103.098" y2="103.246" gradientUnits="userSpaceOnUse">
<stop stop-color="#00FFD3"/>
<stop offset="0.361089" stop-color="#00FFD3" stop-opacity="0"/>
</linearGradient>
<linearGradient id="paint1_linear_788_29295" x1="108.599" y1="109.48" x2="14.722" y2="7.85523" gradientUnits="userSpaceOnUse">
<stop stop-color="#00FFD3"/>
<stop offset="0.244792" stop-color="#00FFD3" stop-opacity="0.458333"/>
<stop offset="1" stop-color="#00FFD3" stop-opacity="0"/>
</linearGradient>
</defs>
</svg>
