<?xml version="1.0" encoding="UTF-8"?>
<svg width="50px" height="50px" viewBox="0 0 50 50" version="1.1" xmlns="http://www.w3.org/2000/svg" xmlns:xlink="http://www.w3.org/1999/xlink">
    <title>C1A3B129-A56D-41D9-9DF0-581EB97A8324</title>
    <defs>
        <path d="M7.5,15 C11.6421356,15 15,11.6421356 15,7.5 C15,3.35786438 11.6421356,0 7.5,0 C3.35786438,0 0,3.35786438 0,7.5 C0,11.6421356 3.35786438,15 7.5,15 Z" id="path-1"></path>
        <path d="M12.5,25 C19.4035594,25 25,19.4035594 25,12.5 C25,5.59644063 19.4035594,0 12.5,0 C5.59644063,0 0,5.59644063 0,12.5 C0,19.4035594 5.59644063,25 12.5,25 Z" id="path-3"></path>
        <path d="M8.5,17 C13.1944204,17 17,13.1944204 17,8.5 C17,3.80557963 13.1944204,0 8.5,0 C3.80557963,0 0,3.80557963 0,8.5 C0,13.1944204 3.80557963,17 8.5,17 Z" id="path-5"></path>
        <path d="M7,14 C10.8659932,14 14,10.8659932 14,7 C14,3.13400675 10.8659932,0 7,0 C3.13400675,0 0,3.13400675 0,7 C0,10.8659932 3.13400675,14 7,14 Z" id="path-7"></path>
    </defs>
    <g id="iPhone-8" stroke="none" stroke-width="1" fill="none" fill-rule="evenodd">
        <g id="Add-funds---(No-backup)" transform="translate(-43.000000, -381.000000)">
            <g id="Group-2" transform="translate(21.000000, 348.000000)">
                <g id="App/Large/Cryptocurrency" transform="translate(22.000000, 33.000000)">
                    <g id="alert-circle-i" transform="translate(19.000000, 14.000000)" fill="#FFFFFF" fill-rule="nonzero">
                        <path d="M10.3478261,20.7826087 L7.08695652,20.7826087 L7.08695652,8.82608696 C7.08695652,8.22581522 6.60079348,7.73913043 6,7.73913043 L1.65217391,7.73913043 C1.05138043,7.73913043 0.565217391,8.22581522 0.565217391,8.82608696 C0.565217391,9.4263587 1.05138043,9.91304348 1.65217391,9.91304348 L4.91304348,9.91304348 L4.91304348,20.7826087 L1.65217391,20.7826087 C1.05138043,20.7826087 0.565217391,21.2692935 0.565217391,21.8695652 C0.565217391,22.469837 1.05138043,22.9565217 1.65217391,22.9565217 L10.3478261,22.9565217 C10.9486196,22.9565217 11.4347826,22.469837 11.4347826,21.8695652 C11.4347826,21.2692935 10.9486196,20.7826087 10.3478261,20.7826087 Z" id="Shape"></path>
                        <circle id="Oval" cx="6" cy="2.30434783" r="2.17391304"></circle>
                    </g>
                    <g id="Oval-87-+-bitpay-logo-grayscale" fill="#EDF0FE">
                        <path d="M25,50 C38.8071187,50 50,38.8071187 50,25 C50,11.1928813 38.8071187,0 25,0 C11.1928813,0 0,11.1928813 0,25 C0,38.8071187 11.1928813,50 25,50 Z" id="Oval-87"></path>
                    </g>
                    <g id="Coins/Small/XRP-" transform="translate(5.000000, 31.000000)" fill-rule="nonzero">
                        <g id="USD_Coin_logo">
                            <circle id="Oval" fill="#2775CA" cx="4.5" cy="4.5" r="4.5"></circle>
                            <path d="M3.6,7.59728902 C3.6,7.70323961 3.516,7.76327828 3.418,7.7314931 C2.06,7.29356398 1.08,6.01509349 1.08,4.5 C1.08,2.9884382 2.06,1.70643602 3.418,1.2685069 C3.5195,1.23672172 3.6,1.29676039 3.6,1.40271098 L3.6,1.66758747 C3.6,1.73822119 3.5475,1.81944998 3.481,1.84417179 C2.4065,2.24325236 1.64,3.28509986 1.64,4.5 C1.64,5.71843183 2.4065,6.75674764 3.481,7.15229653 C3.5475,7.17701833 3.6,7.25824712 3.6,7.32888085 L3.6,7.59728902 Z" id="Path" fill="#FFFFFF"></path>
                            <path d="M4.8020915,6.699375 C4.8020915,6.77671875 4.7387005,6.84 4.66122261,6.84 L4.37948481,6.84 C4.30200692,6.84 4.23861592,6.77671875 4.23861592,6.699375 L4.23861592,6.25640625 C3.62231449,6.17203125 3.32296809,5.83101563 3.24196847,5.35992188 C3.22788158,5.2790625 3.29127259,5.20875 3.3722722,5.20875 L3.69274894,5.20875 C3.75966167,5.20875 3.81600923,5.25796875 3.83009612,5.32125 C3.8899654,5.59898438 4.05196463,5.8134375 4.54500577,5.8134375 C4.90774317,5.8134375 5.16835063,5.60953125 5.16835063,5.3071875 C5.16835063,5.00484375 5.01691657,4.88882812 4.48161476,4.8009375 C3.69274894,4.69546875 3.31944636,4.45640625 3.31944636,3.84117187 C3.31944636,3.3665625 3.68218377,2.99390625 4.23861592,2.9165625 L4.23861592,2.480625 C4.23861592,2.40328125 4.30200692,2.34 4.37948481,2.34 L4.66122261,2.34 C4.7387005,2.34 4.8020915,2.40328125 4.8020915,2.480625 L4.8020915,2.92710937 C5.25639369,3.00796875 5.54517493,3.26460938 5.64026144,3.69351562 C5.65787005,3.774375 5.59447905,3.84820312 5.50995771,3.84820312 L5.21413303,3.84820312 C5.15074202,3.84820312 5.09791619,3.80601562 5.08030757,3.74625 C4.99930796,3.47554688 4.80561322,3.35601562 4.46752787,3.35601562 C4.0942253,3.35601562 3.90053056,3.5353125 3.90053056,3.7884375 C3.90053056,4.055625 4.00970396,4.18921875 4.58374471,4.27007812 C5.35852364,4.37554687 5.76,4.59703125 5.76,5.25445312 C5.76,5.75367187 5.38669742,6.15796875 4.80561322,6.249375 L4.80561322,6.699375 L4.8020915,6.699375 Z" id="Path" fill="#FFFFFF"></path>
                            <path d="M5.582,7.73148382 C5.4805,7.76330368 5.4,7.7031995 5.4,7.59713329 L5.4,7.33196777 C5.4,7.25418588 5.4455,7.17993954 5.519,7.15519075 C6.59,6.75921024 7.36,5.71622586 7.36,4.5 C7.36,3.2802386 6.5935,2.24078976 5.519,1.84480925 C5.4525,1.82006046 5.4,1.73874304 5.4,1.66803223 L5.4,1.40286671 C5.4,1.2968005 5.484,1.23669632 5.582,1.26851618 C6.94,1.69985209 7.92,2.98325322 7.92,4.49646446 C7.92,6.01321124 6.94,7.29307683 5.582,7.73148382 Z" id="Path" fill="#FFFFFF"></path>
                        </g>
                    </g>
                    <g id="usd-icon---test" transform="translate(31.000000, 39.000000)">
                        <circle id="Oval" fill="#F3BA2D" cx="3" cy="3" r="3"></circle>
                        <path d="M4.54793939,3.80859956 L4.54793939,4.52859956 L1.66793939,4.52859956 L1.66793939,3.80859956 L4.54793939,3.80859956 Z M4.46308658,2.70551299 L4.46308658,3.42551299 L1.58308658,3.42551299 L1.58308658,2.70551299 L4.46308658,2.70551299 Z M2.28,1.60242641 L2.28,2.32242641 L1.56,2.32242641 L1.56,1.60242641 L2.28,1.60242641 Z M4.47462987,1.56 L4.47462987,2.28 L2.67462987,2.28 L2.67462987,1.56 L4.47462987,1.56 Z" id="Rectangle-2" fill="#FFFFFF" transform="translate(3.053970, 3.044300) rotate(-45.000000) translate(-3.053970, -3.044300) "></path>
                    </g>
                    <g id="XRP-Testnet" transform="translate(15.000000, 33.000000)">
                        <mask id="mask-2" fill="white">
                            <use xlink:href="#path-1"></use>
                        </mask>
                        <use id="Mask" fill="#000000" xlink:href="#path-1"></use>
                        <path d="M10.0105487,4.34210526 L11.0375532,4.34210526 L8.89977537,6.5586257 C8.12575236,7.36113008 6.87089688,7.36113008 6.09854925,6.5586257 L3.96077143,4.34210526 L4.98777596,4.34210526 L6.61121384,6.02585661 C7.10209855,6.53349509 7.89622607,6.53349509 8.38543539,6.02585661 L10.0105487,4.34210526 Z M4.97437299,10.5074833 L3.94736842,10.5074833 L6.09854925,8.27588455 C6.87257226,7.47338017 8.12742774,7.47338017 8.90145075,8.27588455 L11.0526316,10.5074833 L10.025627,10.5074833 L8.38878616,8.80865361 C7.89790145,8.30101516 7.10377393,8.30101516 6.61456461,8.80865361 L4.97437299,10.5074833 Z" id="Shape" fill="#FFFFFF" fill-rule="nonzero" mask="url(#mask-2)"></path>
                    </g>
                    <g id="Coins/Large/BTC" transform="translate(4.000000, 7.000000)">
                        <mask id="mask-4" fill="white">
                            <use xlink:href="#path-3"></use>
                        </mask>
                        <use id="Mask-2" fill="#F7931A" xlink:href="#path-3"></use>
                        <path d="M15.4690884,11.0693557 C15.1316139,12.4386421 12.9137694,11.7768781 12.1906615,11.6077106 L12.8015193,9.17696727 C13.5083327,9.3461348 15.8224951,9.63871143 15.4690884,11.0693557 L15.4690884,11.0693557 Z M15.1153195,14.9924479 C14.7459805,16.5000495 12.0780493,15.7155698 11.226397,15.5155499 L11.8854137,12.8386817 C12.7529983,13.0387015 15.5009529,13.4078889 15.1153195,14.9924479 Z M17.9758864,11.0693557 C18.1848164,9.59225969 17.0116219,8.82303273 15.4046351,8.29993067 L15.9028807,6.30007924 L14.6333683,6.00784925 L14.1514171,7.9615956 C13.8139427,7.88463824 13.4764682,7.80768088 13.1389937,7.74632298 L13.6209449,5.79222998 L12.3355003,5.5 L11.8372548,7.50019809 C11.5638715,7.43849354 11.2908503,7.39238845 11.017467,7.3306839 L9.26600347,6.93099094 L8.94446127,8.22331996 C8.94446127,8.22331996 9.8927935,8.42299312 9.86056686,8.43859258 C10.3747447,8.56165503 10.4710625,8.88473729 10.4551302,9.13086218 L9.8927935,11.4076908 C9.92465804,11.4232902 9.97317905,11.4232902 10.021338,11.4537959 C9.97317905,11.4385431 9.94095241,11.4385431 9.8927935,11.4232902 L9.12116464,14.6076611 C9.05707346,14.7615758 8.89630236,14.9768484 8.54289562,14.9002377 C8.55882789,14.9154905 7.61085776,14.6846184 7.61085776,14.6846184 L7,16.0847571 L8.65514571,16.4539444 C8.96075564,16.5309018 9.26600347,16.5922597 9.55531903,16.6692171 L9.05707346,18.684668 L10.3265858,18.9768979 L10.8248314,16.9770465 C11.1782381,17.0692567 11.5157126,17.146214 11.8372548,17.2231714 L11.3390092,19.20777 L12.6085215,19.5 L13.1067671,17.4848958 C15.2760906,17.8540831 16.8990097,17.6845689 17.5580264,15.7925271 C18.0884986,14.2845788 17.5098675,13.4231417 16.3529673,12.8539345 C17.2046196,12.6691675 17.8151153,12.1464121 17.9758864,11.0693557 L17.9758864,11.0693557 Z" id="Shape" fill="#FFFFFF" mask="url(#mask-4)"></path>
                    </g>
                    <g id="Coins/Large/ETH" transform="translate(29.000000, 21.000000)">
                        <mask id="mask-6" fill="white">
                            <use xlink:href="#path-5"></use>
                        </mask>
                        <use id="Mask" fill="#6B71D6" xlink:href="#path-5"></use>
                        <path d="M8.62126065,2.99853769 C8.59658464,3.05821887 7.85091877,4.32351519 6.96422538,5.81031755 C6.07753199,7.29708915 5.34467574,8.53305222 5.3356086,8.55691239 C5.32383349,8.58793677 5.80554819,8.89077032 7.02471356,9.61875155 L8.73034018,10.637175 L10.43548,9.6181981 C11.6604873,8.88612742 12.1359645,8.58689135 12.1240677,8.55552875 C12.0624537,8.39324268 8.74667929,2.8899985 8.71050201,2.8899985 C8.68609984,2.8899985 8.64593666,2.93882576 8.62126065,2.99853769 M5.33965535,9.28935204 C5.40537691,9.40290309 8.71625265,14.110429 8.73009677,14.1099985 C8.75297761,14.1092913 12.1380031,9.27539261 12.1249575,9.26214037 C12.1125664,9.24968757 8.94852968,11.1328578 8.81653888,11.2312195 L8.73563442,11.2915464 L7.09743325,10.3141403 C6.19640891,9.77657921 5.42594532,9.31505707 5.38529532,9.28858335 C5.31790029,9.24470646 5.31385355,9.24476795 5.33965535,9.28935204" id="Shape" fill="#FFFFFF" mask="url(#mask-6)"></path>
                    </g>
                    <g id="Coins/Small/BCH-" transform="translate(29.000000, 6.000000)">
                        <g id="item-ico-backup">
                            <mask id="mask-8" fill="white">
                                <use xlink:href="#path-7"></use>
                            </mask>
                            <use id="Mask" fill="#2FCF6E" xlink:href="#path-7"></use>
                        </g>
                        <path d="M8.6626895,6.17538928 C8.47370379,6.93642424 7.23171084,6.56862279 6.82677044,6.47460126 L7.16885079,5.1236197 C7.56466634,5.21764124 8.86059727,5.38025225 8.6626895,6.17538928 L8.6626895,6.17538928 Z M8.46457895,8.35580261 C8.2577491,9.19371173 6.76370762,8.75770614 6.28678232,8.64653723 L6.65583166,7.15876205 C7.14167902,7.26993096 8.68053364,7.47512139 8.46457895,8.35580261 Z M8.62659566,4.63617199 L8.90561318,3.52467562 L8.19468627,3.36225727 L7.9247936,4.44812892 C7.7358079,4.40535683 7.54682219,4.36258474 7.35783649,4.32848267 L7.62772916,3.24241835 L6.90788019,3.08 L6.62886267,4.19168904 C6.47576803,4.1573943 6.32287616,4.13176958 6.16978152,4.09747484 L5.18896194,3.8753297 L5.00889831,4.59359257 C5.00889831,4.59359257 5.53996436,4.70456881 5.52191744,4.71323882 C5.80985703,4.78163564 5.86379501,4.96120135 5.85487294,5.09799498 L5.53996436,6.36343235 C5.5578085,6.37210237 5.58498027,6.37210237 5.61194926,6.38905707 C5.58498027,6.38057972 5.56693335,6.38057972 5.53996436,6.37210237 L5.1078522,8.14194215 C5.07196114,8.22748634 4.98192932,8.34713259 4.78402155,8.30455317 C4.79294362,8.31303052 4.26208034,8.18471424 4.26208034,8.18471424 L3.92,8.96289657 L4.8468816,9.16808701 C5.01802316,9.2108591 5.18896194,9.24496118 5.35097866,9.28773327 L5.07196114,10.4078997 L5.78288804,10.570318 L6.06190556,9.45882163 C6.25981333,9.51007108 6.44879904,9.55284317 6.62886267,9.59561526 L6.34984515,10.6986343 L7.06077206,10.8610526 L7.33978957,9.7410789 C8.55461076,9.94626934 9.46344544,9.85205514 9.83249478,8.80047823 C10.1295592,7.96237644 9.80552579,7.48359875 9.15766171,7.1672394 C9.634587,7.06454785 9.97646457,6.7740059 10.0664964,6.17538928 C10.1834972,5.35443486 9.52650827,4.92690661 8.62659566,4.63617199 Z" id="Shape" fill="#FFFFFF" transform="translate(7.000000, 6.970526) rotate(-32.000000) translate(-7.000000, -6.970526) "></path>
                    </g>
                </g>
            </g>
        </g>
    </g>
</svg>