<svg width="120" height="114" viewBox="0 0 120 114" fill="none" xmlns="http://www.w3.org/2000/svg">
<path fill-rule="evenodd" clip-rule="evenodd" d="M35.4907 26.959C31.8007 26.959 28.8301 29.9297 28.8301 33.6197V36.2278H29.6536V45.9981H28.8301V63.1956H29.6536V72.9867H28.8301V75.5949C28.8301 79.2849 31.8007 82.2556 35.4907 82.2556H77.4659C81.156 82.2556 84.1266 79.2849 84.1266 75.5949V33.6197C84.1266 29.9297 81.156 26.959 77.4659 26.959H35.4907Z" fill="#002A3D" fill-opacity="0.86"/>
<path fill-rule="evenodd" clip-rule="evenodd" d="M37.7759 30.051C34.4938 30.051 31.8516 32.6894 31.8516 35.9668V38.2833V46.9609V62.2351V70.9312V73.2477C31.8516 76.525 34.4938 79.1635 37.7759 79.1635H75.1109C78.393 79.1635 81.0353 76.525 81.0353 73.2477V35.9668C81.0353 32.6894 78.393 30.051 75.1109 30.051H37.7759Z" fill="#01F2FF" fill-opacity="0.15"/>
<path fill-rule="evenodd" clip-rule="evenodd" d="M29.9532 35.9282V46.2977H29.1297V62.896H29.9532V73.2864H29.1297V75.5949C29.1297 79.1195 31.9662 81.956 35.4907 81.956H77.4659C80.9905 81.956 83.827 79.1194 83.827 75.5949V33.6197C83.827 30.0951 80.9905 27.2586 77.4659 27.2586H35.4907C31.9662 27.2586 29.1297 30.0951 29.1297 33.6197V35.9282H29.9532ZM28.8301 72.9867H29.6536V63.1956H28.8301V45.9981H29.6536V36.2278H28.8301V33.6197C28.8301 29.9297 31.8007 26.959 35.4907 26.959H77.4659C81.156 26.959 84.1266 29.9297 84.1266 33.6197V75.5949C84.1266 79.2849 81.156 82.2556 77.4659 82.2556H35.4907C31.8007 82.2556 28.8301 79.2849 28.8301 75.5949V72.9867Z" fill="#01F2FF"/>
<path fill-rule="evenodd" clip-rule="evenodd" d="M38.123 30.8001C35.0924 30.8001 32.6719 33.1231 32.6719 36.1337C32.6719 36.3406 32.5042 36.5083 32.2974 36.5083H31.2979V45.6236H32.2974C32.5042 45.6236 32.6719 45.7913 32.6719 45.9981V63.1956C32.6719 63.4025 32.5042 63.5701 32.2974 63.5701H31.2979V72.6236H32.2974C32.5042 72.6236 32.6719 72.7913 32.6719 72.9981C32.6719 76.0158 35.0995 78.4145 38.123 78.4145H74.8352C77.8558 78.4145 80.2863 75.984 80.2863 72.9634V36.2512C80.2863 33.2306 77.8557 30.8001 74.8352 30.8001H38.123ZM38.123 30.051C34.824 30.051 32.1267 32.5001 31.9339 35.7592H30.9234C30.7165 35.7592 30.5488 35.9269 30.5488 36.1337V45.9981C30.5488 46.205 30.7165 46.3727 30.9234 46.3727H31.9228V62.8211H30.9234C30.7165 62.8211 30.5488 62.9888 30.5488 63.1956V72.9981C30.5488 73.205 30.7165 73.3727 30.9234 73.3727H31.9338C32.1264 76.6314 34.8173 79.1636 38.123 79.1636H74.8352C78.2695 79.1636 81.0354 76.3977 81.0354 72.9634V36.2512C81.0354 32.8169 78.2695 30.051 74.8352 30.051H38.123Z" fill="#01F2FF"/>
<path fill-rule="evenodd" clip-rule="evenodd" d="M70.3352 40.7831L68.0312 44.7738H63.4232L61.1191 40.7831L63.4232 36.7924H68.0312L70.3352 40.7831Z" fill="#0D3E54"/>
<path fill-rule="evenodd" clip-rule="evenodd" d="M63.2505 36.4928H68.2045L70.6815 40.7831L68.2045 45.0735H63.2505L60.7734 40.7831L63.2505 36.4928ZM63.5964 37.0921L61.4654 40.7831L63.5964 44.4742H67.8585L69.9895 40.7831L67.8585 37.0921H63.5964Z" fill="#01F2FF"/>
<path fill-rule="evenodd" clip-rule="evenodd" d="M61.1204 68.4294L58.8164 72.42H54.2083L51.9043 68.4294L54.2083 64.4387H58.8164L61.1204 68.4294Z" fill="#0D3E54"/>
<path fill-rule="evenodd" clip-rule="evenodd" d="M54.0337 64.1391H58.9877L61.4647 68.4294L58.9877 72.7197H54.0337L51.5566 68.4294L54.0337 64.1391ZM54.3796 64.7383L52.2486 68.4294L54.3796 72.1204H58.6417L60.7727 68.4294L58.6417 64.7383H54.3796Z" fill="#01F2FF"/>
<path d="M47.2956 54.5799C49.8405 54.5799 51.9036 52.5168 51.9036 49.9719C51.9036 47.4269 49.8405 45.3638 47.2956 45.3638C44.7506 45.3638 42.6875 47.4269 42.6875 49.9719C42.6875 52.5168 44.7506 54.5799 47.2956 54.5799Z" fill="#0D3E54"/>
<path d="M65.7448 54.566C68.2897 54.566 70.3528 52.5029 70.3528 49.9579C70.3528 47.4129 68.2897 45.3499 65.7448 45.3499C63.1998 45.3499 61.1367 47.4129 61.1367 49.9579C61.1367 52.5029 63.1998 54.566 65.7448 54.566Z" fill="#0D3E54"/>
<path d="M56.5319 54.566C59.0768 54.566 61.1399 52.5029 61.1399 49.9579C61.1399 47.4129 59.0768 45.3499 56.5319 45.3499C53.9869 45.3499 51.9238 47.4129 51.9238 49.9579C51.9238 52.5029 53.9869 54.566 56.5319 54.566Z" fill="#06435E" fill-opacity="0.79"/>
<path d="M56.5299 63.782C59.0749 63.782 61.138 61.7189 61.138 59.1739C61.138 56.629 59.0749 54.5659 56.5299 54.5659C53.985 54.5659 51.9219 56.629 51.9219 59.1739C51.9219 61.7189 53.985 63.782 56.5299 63.782Z" fill="#0D3E54"/>
<path d="M47.2916 63.782C49.8366 63.782 51.8997 61.7189 51.8997 59.1739C51.8997 56.629 49.8366 54.5659 47.2916 54.5659C44.7467 54.5659 42.6836 56.629 42.6836 59.1739C42.6836 61.7189 44.7467 63.782 47.2916 63.782Z" fill="#06435E" fill-opacity="0.79"/>
<path d="M65.7448 63.7821C68.2897 63.7821 70.3528 61.719 70.3528 59.174C70.3528 56.6291 68.2897 54.566 65.7448 54.566C63.1998 54.566 61.1367 56.6291 61.1367 59.174C61.1367 61.719 63.1998 63.7821 65.7448 63.7821Z" fill="#0D3E54"/>
<path fill-rule="evenodd" clip-rule="evenodd" d="M79.552 49.9888L77.248 53.9795H72.64L70.3359 49.9888L72.64 45.9981H77.248L79.552 49.9888Z" fill="#0D3E54"/>
<path fill-rule="evenodd" clip-rule="evenodd" d="M72.4672 45.6985H77.4213L79.8983 49.9888L77.4213 54.2792H72.4672L69.9902 49.9888L72.4672 45.6985ZM72.8132 46.2978L70.6822 49.9888L72.8132 53.6799H77.0753L79.2063 49.9888L77.0753 46.2978H72.8132Z" fill="#01F2FF"/>
<path fill-rule="evenodd" clip-rule="evenodd" d="M79.552 59.2049L77.248 63.1956H72.64L70.3359 59.2049L72.64 55.2142H77.248L79.552 59.2049Z" fill="#0D3E54"/>
<path fill-rule="evenodd" clip-rule="evenodd" d="M72.4672 54.9146H77.4213L79.8983 59.2049L77.4213 63.4952H72.4672L69.9902 59.2049L72.4672 54.9146ZM72.8132 55.5139L70.6822 59.2049L72.8132 62.896H77.0753L79.2063 59.2049L77.0753 55.5139H72.8132Z" fill="#01F2FF"/>
<path fill-rule="evenodd" clip-rule="evenodd" d="M42.6223 49.9888L40.3183 53.9795H35.7103L33.4062 49.9888L35.7103 45.9981H40.3183L42.6223 49.9888Z" fill="#0D3E54"/>
<path fill-rule="evenodd" clip-rule="evenodd" d="M35.5376 45.6985H40.4916L42.9686 49.9888L40.4916 54.2792H35.5376L33.0605 49.9888L35.5376 45.6985ZM35.8835 46.2978L33.7525 49.9888L35.8835 53.6799H40.1456L42.2766 49.9888L40.1456 46.2978H35.8835Z" fill="#01F2FF"/>
<path fill-rule="evenodd" clip-rule="evenodd" d="M42.6223 59.2049L40.3183 63.1956H35.7103L33.4062 59.2049L35.7103 55.2142H40.3183L42.6223 59.2049Z" fill="#0D3E54"/>
<path fill-rule="evenodd" clip-rule="evenodd" d="M35.5376 54.9146H40.4916L42.9686 59.2049L40.4916 63.4952H35.5376L33.0605 59.2049L35.5376 54.9146ZM35.8835 55.5139L33.7525 59.2049L35.8835 62.896H40.1456L42.2766 59.2049L40.1456 55.5139H35.8835Z" fill="#01F2FF"/>
<path d="M56.5358 45.3499C59.0807 45.3499 61.1438 43.2868 61.1438 40.7418C61.1438 38.1969 59.0807 36.1338 56.5358 36.1338C53.9908 36.1338 51.9277 38.1969 51.9277 40.7418C51.9277 43.2868 53.9908 45.3499 56.5358 45.3499Z" fill="#0D3E54"/>
<path fill-rule="evenodd" clip-rule="evenodd" d="M56.5346 36.4334C54.1552 36.4334 52.2262 38.3623 52.2262 40.7418C52.2262 43.1213 54.1552 45.0502 56.5346 45.0502C58.9141 45.0502 60.8431 43.1213 60.8431 40.7418C60.8431 38.3623 58.9141 36.4334 56.5346 36.4334ZM51.627 40.7418C51.627 38.0314 53.8242 35.8341 56.5346 35.8341C59.2451 35.8341 61.4423 38.0314 61.4423 40.7418C61.4423 43.4522 59.2451 45.6495 56.5346 45.6495C53.8242 45.6495 51.627 43.4522 51.627 40.7418Z" fill="#01F2FF"/>
<path d="M47.3131 72.9981C49.8581 72.9981 51.9212 70.935 51.9212 68.3901C51.9212 65.8451 49.8581 63.782 47.3131 63.782C44.7682 63.782 42.7051 65.8451 42.7051 68.3901C42.7051 70.935 44.7682 72.9981 47.3131 72.9981Z" fill="#0D3E54"/>
<path fill-rule="evenodd" clip-rule="evenodd" d="M47.3139 64.0817C44.9345 64.0817 43.0055 66.0106 43.0055 68.3901C43.0055 70.7695 44.9345 72.6985 47.3139 72.6985C49.6934 72.6985 51.6224 70.7695 51.6224 68.3901C51.6224 66.0106 49.6934 64.0817 47.3139 64.0817ZM42.4062 68.3901C42.4062 65.6796 44.6035 63.4824 47.3139 63.4824C50.0244 63.4824 52.2216 65.6796 52.2216 68.3901C52.2216 71.1005 50.0244 73.2978 47.3139 73.2978C44.6035 73.2978 42.4062 71.1005 42.4062 68.3901Z" fill="#01F2FF"/>
<path d="M65.7448 72.9981C68.2897 72.9981 70.3528 70.935 70.3528 68.3901C70.3528 65.8451 68.2897 63.782 65.7448 63.782C63.1998 63.782 61.1367 65.8451 61.1367 68.3901C61.1367 70.935 63.1998 72.9981 65.7448 72.9981Z" fill="#0D3E54"/>
<path fill-rule="evenodd" clip-rule="evenodd" d="M65.7456 64.0817C63.3661 64.0817 61.4371 66.0106 61.4371 68.3901C61.4371 70.7695 63.3661 72.6985 65.7456 72.6985C68.125 72.6985 70.054 70.7695 70.054 68.3901C70.054 66.0106 68.125 64.0817 65.7456 64.0817ZM60.8379 68.3901C60.8379 65.6796 63.0351 63.4824 65.7456 63.4824C68.456 63.4824 70.6533 65.6796 70.6533 68.3901C70.6533 71.1005 68.456 73.2978 65.7456 73.2978C63.0351 73.2978 60.8379 71.1005 60.8379 68.3901Z" fill="#01F2FF"/>
<path fill-rule="evenodd" clip-rule="evenodd" d="M51.9036 40.7831L49.5996 44.7738H44.9915L42.6875 40.7831L44.9915 36.7924H49.5996L51.9036 40.7831Z" fill="#0D3E54"/>
<path fill-rule="evenodd" clip-rule="evenodd" d="M44.8188 36.4928H49.7728L52.2499 40.7831L49.7728 45.0735H44.8188L42.3418 40.7831L44.8188 36.4928ZM45.1648 37.0921L43.0338 40.7831L45.1648 44.4742H49.4269L51.5579 40.7831L49.4269 37.0921H45.1648Z" fill="#01F2FF"/>
<path d="M51.9106 59.2188C51.9106 61.7808 49.8337 63.8577 47.2717 63.8577C46.9059 63.8577 46.55 63.8154 46.2086 63.7354V66.9968H43.8892V62.3934C43.11 61.5636 42.6328 60.4469 42.6328 59.2188C42.6328 56.6568 44.7097 54.5799 47.2717 54.5799C49.8337 54.5799 51.9106 56.6568 51.9106 59.2188Z" fill="#F39C11"/>
<path d="M61.1289 59.1857C61.129 58.3159 61.3737 57.4636 61.8351 56.7262H69.6951C70.1576 57.4632 70.4034 58.3156 70.4045 59.1857C70.4044 60.4157 69.9158 61.5953 69.0461 62.465C68.4553 63.0558 67.7216 63.4707 66.9262 63.6761V66.9617H64.6073V63.6761C63.8119 63.4707 63.0781 63.0558 62.4874 62.4651C61.6176 61.5954 61.1289 60.4157 61.1289 59.1857Z" fill="#F39C11"/>
<path fill-rule="evenodd" clip-rule="evenodd" d="M53.1807 42.1355H55.501V45.4484C55.8425 45.3683 56.1986 45.326 56.5645 45.326C59.1275 45.326 61.2052 47.4037 61.2052 49.9666C61.2052 52.5296 59.1275 54.6073 56.5645 54.6073C54.0015 54.6073 51.9238 52.5296 51.9238 49.9666C51.9238 48.7381 52.4012 47.621 53.1807 46.7909V42.1355Z" fill="#54BC89"/>
<path fill-rule="evenodd" clip-rule="evenodd" d="M65.7661 45.3326C64.5399 45.3326 63.3638 45.8198 62.4967 46.687C61.6297 47.5541 61.1426 48.7301 61.1426 49.9564C61.1426 51.1826 61.6297 52.3586 62.4968 53.2257C63.3639 54.0928 64.5399 54.5799 65.7661 54.58V45.3326Z" fill="#00A8F3"/>
<path fill-rule="evenodd" clip-rule="evenodd" d="M58.9774 55.2679C58.2444 54.8092 57.3971 54.566 56.5323 54.5659C53.986 54.5659 51.9218 56.6302 51.9219 59.1766C51.9219 61.7228 53.9861 63.787 56.5323 63.787C57.3974 63.7852 58.2447 63.5416 58.9774 63.0818V55.2679Z" fill="#F39C11"/>
<path fill-rule="evenodd" clip-rule="evenodd" d="M49.7448 46.0587C49.0115 45.5999 48.1641 45.3566 47.2991 45.3565C44.7521 45.3566 42.6875 47.4214 42.6875 49.9683C42.6876 52.5152 44.7522 54.5798 47.2991 54.5799C48.1644 54.5799 49.0119 54.3344 49.7448 53.8745V46.0587Z" fill="#BE0000"/>
<path d="M32.1156 87.1097C32.0196 87.1097 31.9459 87.0685 31.8944 86.9862C31.843 86.9039 31.8378 86.8165 31.879 86.7239L33.3244 83.2724C33.3759 83.1523 33.4599 83.0923 33.5765 83.0923C33.6999 83.0923 33.7839 83.1523 33.8285 83.2724L35.2791 86.7341C35.3168 86.8302 35.3099 86.9176 35.2585 86.9965C35.2105 87.0719 35.1368 87.1097 35.0373 87.1097C34.9859 87.1097 34.9361 87.0959 34.8881 87.0685C34.8436 87.0376 34.811 86.9965 34.7904 86.945L33.5147 83.7765H33.6588L32.3625 86.945C32.3385 86.9999 32.3025 87.0411 32.2545 87.0685C32.2099 87.0959 32.1636 87.1097 32.1156 87.1097ZM32.3882 86.2249L32.594 85.7825H34.6104L34.8161 86.2249H32.3882Z" fill="#002A3D"/>
<path d="M41.4318 87.1097C41.3564 87.1097 41.293 87.0839 41.2415 87.0325C41.1901 86.9811 41.1644 86.9176 41.1644 86.8422V83.3598C41.1644 83.2809 41.1901 83.2175 41.2415 83.1695C41.293 83.118 41.3564 83.0923 41.4318 83.0923H42.6612C42.8944 83.0923 43.0984 83.1386 43.2733 83.2312C43.4517 83.3204 43.5905 83.4455 43.69 83.6067C43.7929 83.7679 43.8443 83.9531 43.8443 84.1622C43.8443 84.3303 43.798 84.4829 43.7054 84.62C43.6163 84.7538 43.4928 84.8601 43.3351 84.939C43.5614 84.9938 43.7431 85.1018 43.8803 85.263C44.0175 85.4242 44.0861 85.6351 44.0861 85.8957C44.0861 86.1323 44.0295 86.3415 43.9163 86.5233C43.8066 86.705 43.6523 86.849 43.4534 86.9553C43.2545 87.0582 43.0264 87.1097 42.7692 87.1097H41.4318ZM41.6993 86.6158H42.7692C42.927 86.6158 43.0659 86.5884 43.1859 86.5335C43.3059 86.4787 43.4002 86.3981 43.4688 86.2918C43.5374 86.1855 43.5717 86.0535 43.5717 85.8957C43.5717 85.7483 43.5374 85.6265 43.4688 85.5305C43.4002 85.4345 43.3059 85.3625 43.1859 85.3144C43.0659 85.263 42.927 85.2373 42.7692 85.2373H41.6993V86.6158ZM41.6993 84.7435H42.6612C42.8567 84.7435 43.0161 84.6955 43.1396 84.5995C43.2665 84.5034 43.3299 84.3577 43.3299 84.1622C43.3299 83.9668 43.2665 83.8227 43.1396 83.7302C43.0161 83.6341 42.8567 83.5861 42.6612 83.5861H41.6993V84.7435Z" fill="#002A3D"/>
<path d="M51.9869 87.1097C51.7092 87.1097 51.4485 87.0582 51.2051 86.9554C50.965 86.8491 50.7541 86.7033 50.5724 86.5181C50.394 86.3295 50.2535 86.1101 50.1506 85.8597C50.0511 85.6094 50.0014 85.3385 50.0014 85.047C50.0014 84.7589 50.0511 84.4915 50.1506 84.2446C50.2535 83.9942 50.394 83.7765 50.5724 83.5913C50.7541 83.4027 50.965 83.2552 51.2051 83.1489C51.4451 83.0426 51.7057 82.9895 51.9869 82.9895C52.251 82.9895 52.4773 83.0237 52.6659 83.0923C52.858 83.1609 53.05 83.2741 53.242 83.4318C53.2695 83.4524 53.29 83.4747 53.3037 83.4987C53.3209 83.5193 53.3312 83.5416 53.3346 83.5656C53.3415 83.5861 53.3449 83.6119 53.3449 83.6427C53.3449 83.7079 53.3209 83.7627 53.2729 83.8073C53.2283 83.8485 53.1734 83.8725 53.1083 83.8793C53.0431 83.8828 52.9797 83.8605 52.918 83.8125C52.7911 83.7027 52.6591 83.6187 52.5219 83.5604C52.3881 83.5021 52.2098 83.473 51.9869 83.473C51.7846 83.473 51.5943 83.5141 51.416 83.5964C51.2376 83.6787 51.0799 83.7919 50.9427 83.9359C50.809 84.0799 50.7044 84.248 50.629 84.44C50.5535 84.6286 50.5158 84.831 50.5158 85.047C50.5158 85.2665 50.5535 85.4722 50.629 85.6642C50.7044 85.8529 50.809 86.0192 50.9427 86.1632C51.0799 86.3072 51.2376 86.4204 51.416 86.5027C51.5943 86.5816 51.7846 86.621 51.9869 86.621C52.1618 86.621 52.3264 86.5919 52.4807 86.5336C52.6385 86.4718 52.7894 86.3878 52.9334 86.2815C52.9951 86.2369 53.0551 86.2181 53.1134 86.2249C53.1752 86.2284 53.2266 86.2524 53.2677 86.2969C53.3089 86.3381 53.3295 86.3964 53.3295 86.4718C53.3295 86.5061 53.3226 86.5404 53.3089 86.5747C53.2952 86.6056 53.2746 86.6347 53.2472 86.6622C53.062 86.8096 52.8631 86.9211 52.6505 86.9965C52.4413 87.0719 52.2201 87.1097 51.9869 87.1097Z" fill="#002A3D"/>
<path d="M59.682 87.1097C59.6066 87.1097 59.5432 87.0839 59.4917 87.0325C59.4403 86.9811 59.4146 86.9176 59.4146 86.8422V83.3598C59.4146 83.2809 59.4403 83.2175 59.4917 83.1695C59.5432 83.118 59.6066 83.0923 59.682 83.0923H60.7108C60.968 83.0923 61.196 83.1489 61.3949 83.2621C61.5938 83.3752 61.7482 83.533 61.8579 83.7353C61.9711 83.9342 62.0276 84.1639 62.0276 84.4246C62.0276 84.6749 61.9711 84.8978 61.8579 85.0933C61.7482 85.2887 61.5938 85.4413 61.3949 85.5511C61.196 85.6608 60.968 85.7157 60.7108 85.7157H59.9495V86.8422C59.9495 86.9176 59.9238 86.9811 59.8724 87.0325C59.8244 87.0839 59.7609 87.1097 59.682 87.1097ZM59.9495 85.2219H60.7108C60.8686 85.2219 61.0074 85.1876 61.1275 85.119C61.2475 85.0504 61.3418 84.9561 61.4104 84.8361C61.479 84.7161 61.5133 84.5789 61.5133 84.4246C61.5133 84.26 61.479 84.1159 61.4104 83.9925C61.3418 83.8656 61.2475 83.7662 61.1275 83.6941C61.0074 83.6221 60.8686 83.5861 60.7108 83.5861H59.9495V85.2219Z" fill="#002A3D"/>
<path d="M68.3074 87.1097C68.2113 87.1097 68.1376 87.0685 68.0862 86.9862C68.0347 86.9039 68.0296 86.8165 68.0707 86.7239L69.5162 83.2724C69.5676 83.1523 69.6516 83.0923 69.7682 83.0923C69.8917 83.0923 69.9757 83.1523 70.0203 83.2724L71.4708 86.7341C71.5085 86.8302 71.5017 86.9176 71.4502 86.9965C71.4022 87.0719 71.3285 87.1097 71.2291 87.1097C71.1776 87.1097 71.1279 87.0959 71.0799 87.0685C71.0353 87.0376 71.0027 86.9965 70.9822 86.945L69.7065 83.7765H69.8505L68.5543 86.945C68.5303 86.9999 68.4943 87.0411 68.4462 87.0685C68.4017 87.0959 68.3554 87.1097 68.3074 87.1097ZM68.58 86.2249L68.7857 85.7825H70.8021L71.0079 86.2249H68.58Z" fill="#002A3D"/>
<path d="M78.81 87.1097C78.7379 87.1097 78.6762 87.0839 78.6248 87.0325C78.5733 86.9811 78.5476 86.9176 78.5476 86.8422V85.6437L77.1742 83.509C77.1296 83.437 77.1125 83.3701 77.1228 83.3084C77.1331 83.2432 77.1622 83.1918 77.2102 83.154C77.2617 83.1129 77.32 83.0923 77.3851 83.0923C77.4434 83.0923 77.4897 83.106 77.524 83.1335C77.5583 83.1575 77.5909 83.1935 77.6217 83.2415L78.9283 85.3144H78.7225L80.0496 83.2209C80.077 83.1798 80.1096 83.1489 80.1474 83.1283C80.1851 83.1043 80.2314 83.0923 80.2862 83.0923C80.348 83.0923 80.3994 83.1146 80.4405 83.1592C80.4817 83.2003 80.5057 83.2535 80.5126 83.3186C80.5194 83.3804 80.5023 83.4438 80.4611 83.509L79.0774 85.6437V86.8422C79.0774 86.9176 79.0517 86.9811 79.0003 87.0325C78.9488 87.0839 78.8854 87.1097 78.81 87.1097Z" fill="#002A3D"/>
<path fill-rule="evenodd" clip-rule="evenodd" d="M59.0313 98.2881C80.9866 97.0388 98.4053 78.8391 98.4053 56.5711C98.4053 33.4936 79.6973 14.7856 56.6199 14.7856C33.5424 14.7856 14.8344 33.4936 14.8344 56.5711H8.58203C8.58203 30.0405 30.0893 8.5332 56.6199 8.5332C83.1505 8.5332 104.658 30.0405 104.658 56.5711C104.658 82.293 84.4415 103.293 59.0313 104.549V98.2881Z" fill="url(#paint0_linear_893_19623)"/>
<path fill-rule="evenodd" clip-rule="evenodd" d="M106.9 56.5063C106.9 84.2994 84.3691 106.83 56.576 106.83C28.7829 106.83 6.25205 84.2994 6.25205 56.5063C6.25205 29.6663 27.2639 7.73395 53.7357 6.26115V-7.62939e-06C23.8091 1.47964 -0.000358582 26.2125 -0.000358582 56.5063C-0.000358582 87.7525 25.3297 113.083 56.576 113.083C87.8222 113.083 113.152 87.7525 113.152 56.5063H106.9Z" fill="url(#paint1_linear_893_19623)"/>
<g filter="url(#filter0_f_893_19623)">
<path d="M110.202 46.66L100.403 56.8677H120L110.202 46.66Z" fill="#00FFD3"/>
</g>
<path d="M110.202 47.04L100.951 56.6777H119.453L110.202 47.04Z" fill="#01F2FF"/>
<g filter="url(#filter1_f_893_19623)">
<path d="M11.6983 66.6502L21.7072 56.2232H1.68945L11.6983 66.6502Z" fill="#00FFD3"/>
</g>
<path d="M11.6985 66.124L20.9498 56.4863H2.44727L11.6985 66.124Z" fill="#01F2FF"/>
<defs>
<filter id="filter0_f_893_19623" x="80.4023" y="26.66" width="59.5977" height="50.2077" filterUnits="userSpaceOnUse" color-interpolation-filters="sRGB">
<feFlood flood-opacity="0" result="BackgroundImageFix"/>
<feBlend mode="normal" in="SourceGraphic" in2="BackgroundImageFix" result="shape"/>
<feGaussianBlur stdDeviation="10" result="effect1_foregroundBlur_893_19623"/>
</filter>
<filter id="filter1_f_893_19623" x="-18.3105" y="36.2232" width="60.0176" height="50.427" filterUnits="userSpaceOnUse" color-interpolation-filters="sRGB">
<feFlood flood-opacity="0" result="BackgroundImageFix"/>
<feBlend mode="normal" in="SourceGraphic" in2="BackgroundImageFix" result="shape"/>
<feGaussianBlur stdDeviation="10" result="effect1_foregroundBlur_893_19623"/>
</filter>
<linearGradient id="paint0_linear_893_19623" x1="12.2995" y1="44.9738" x2="104.658" y2="84.0311" gradientUnits="userSpaceOnUse">
<stop stop-color="#01F2FF" stop-opacity="0.77"/>
<stop offset="0.552083" stop-color="#00FFD3" stop-opacity="0.2"/>
<stop offset="1" stop-color="#001E2E"/>
</linearGradient>
<linearGradient id="paint1_linear_893_19623" x1="109.071" y1="71.7402" x2="-6.99799" y2="35.2384" gradientUnits="userSpaceOnUse">
<stop stop-color="#01F2FF" stop-opacity="0.87"/>
<stop offset="0.546875" stop-color="#001E2E" stop-opacity="0.85"/>
<stop offset="1" stop-color="#00FFD3" stop-opacity="0.51"/>
</linearGradient>
</defs>
</svg>
