<svg width="120" height="114" viewBox="0 0 120 114" fill="none" xmlns="http://www.w3.org/2000/svg">
<path fill-rule="evenodd" clip-rule="evenodd" d="M30.2291 35.7424V46.1574H29.402V62.8284H30.2291V73.2643H29.402V75.583C29.402 79.123 32.2509 81.972 35.7909 81.972H77.9501C81.4901 81.972 84.3391 79.123 84.3391 75.583V33.4238C84.3391 29.8838 81.4901 27.0348 77.9501 27.0348H35.7909C32.2509 27.0348 29.402 29.8837 29.402 33.4238V35.7424H30.2291ZM29.1011 72.9634H29.9282V63.1293H29.1011V45.8564H29.9282V36.0434H29.1011V33.4238C29.1011 29.7175 32.0847 26.7338 35.7909 26.7338H77.9501C81.6564 26.7338 84.6401 29.7175 84.6401 33.4238V75.583C84.6401 79.2892 81.6564 82.2729 77.9501 82.2729H35.7909C32.0847 82.2729 29.1011 79.2892 29.1011 75.583V72.9634Z" fill="#3B9E9A"/>
<path fill-rule="evenodd" clip-rule="evenodd" d="M38.434 30.5918C35.3901 30.5918 32.959 32.925 32.959 35.9488C32.959 36.1566 32.7906 36.325 32.5829 36.325H31.579V45.4803H32.5829C32.7906 45.4803 32.959 45.6487 32.959 45.8565V63.1293C32.959 63.3371 32.7906 63.5055 32.5829 63.5055H31.579V72.5987H32.5829C32.7906 72.5987 32.959 72.7671 32.959 72.9748C32.959 76.0057 35.3973 78.4149 38.434 78.4149H75.3072C78.341 78.4149 80.7822 75.9738 80.7822 72.94V36.0668C80.7822 33.033 78.341 30.5918 75.3072 30.5918H38.434ZM38.434 29.8394C35.1206 29.8394 32.4115 32.2993 32.2178 35.5726H31.2028C30.9951 35.5726 30.8267 35.7411 30.8267 35.9488V45.8565C30.8267 46.0642 30.9951 46.2326 31.2028 46.2326H32.2067V62.7531H31.2028C30.9951 62.7531 30.8267 62.9216 30.8267 63.1293V72.9748C30.8267 73.1826 30.9951 73.351 31.2028 73.351H32.2178C32.4112 76.624 35.1138 79.1673 38.434 79.1673H75.3072C78.7565 79.1673 81.5345 76.3893 81.5345 72.94V36.0668C81.5345 32.6175 78.7565 29.8394 75.3072 29.8394H38.434Z" fill="#3B9E9A"/>
<path d="M29.1011 32.5809C29.1011 29.3517 31.7189 26.7338 34.9482 26.7338H78.793C82.0222 26.7338 84.6401 29.3517 84.6401 32.5809V76.4258C84.6401 79.6551 82.0222 82.2729 78.793 82.2729H34.9482C31.7189 82.2729 29.1011 79.6551 29.1011 76.4258V32.5809Z" fill="#00FFD3" fill-opacity="0.1"/>
<path d="M32.1353 35.6866C32.1353 32.4573 34.7531 29.8395 37.9824 29.8395H75.6877C78.917 29.8395 81.5348 32.4573 81.5348 35.6866V73.3202C81.5348 76.5495 78.917 79.1673 75.6877 79.1673H37.9824C34.7531 79.1673 32.1353 76.5495 32.1353 73.3202V35.6866Z" fill="#00FFD3" fill-opacity="0.2"/>
<path fill-rule="evenodd" clip-rule="evenodd" d="M70.7872 40.6186L68.4731 44.6268H63.8449L61.5308 40.6186L63.8449 36.6104H68.4731L70.7872 40.6186Z" fill="#06435E" fill-opacity="0.5"/>
<path fill-rule="evenodd" clip-rule="evenodd" d="M63.671 36.3095H68.6467L71.1345 40.6186L68.6467 44.9277H63.671L61.1831 40.6186L63.671 36.3095ZM64.0185 36.9114L61.8781 40.6186L64.0185 44.3258H68.2992L70.4395 40.6186L68.2992 36.9114H64.0185Z" fill="#00FFD3"/>
<path fill-rule="evenodd" clip-rule="evenodd" d="M61.5309 68.386L59.2167 72.3942H54.5885L52.2744 68.386L54.5885 64.3779H59.2167L61.5309 68.386Z" fill="#06435E" fill-opacity="0.5"/>
<path fill-rule="evenodd" clip-rule="evenodd" d="M54.4141 64.0769H59.3898L61.8777 68.386L59.3898 72.6951H54.4141L51.9263 68.386L54.4141 64.0769ZM54.7616 64.6788L52.6213 68.386L54.7616 72.0932H59.0423L61.1827 68.386L59.0423 64.6788H54.7616Z" fill="#00FFD3"/>
<path d="M47.6453 54.4758C50.2014 54.4758 52.2735 52.4037 52.2735 49.8476C52.2735 47.2915 50.2014 45.2194 47.6453 45.2194C45.0892 45.2194 43.0171 47.2915 43.0171 49.8476C43.0171 52.4037 45.0892 54.4758 47.6453 54.4758Z" fill="#06435E" fill-opacity="0.5"/>
<path d="M66.1766 54.4618C68.7327 54.4618 70.8048 52.3896 70.8048 49.8335C70.8048 47.2774 68.7327 45.2053 66.1766 45.2053C63.6205 45.2053 61.5483 47.2774 61.5483 49.8335C61.5483 52.3896 63.6205 54.4618 66.1766 54.4618Z" fill="#06435E" fill-opacity="0.5"/>
<path d="M56.9236 54.4618C59.4797 54.4618 61.5519 52.3896 61.5519 49.8335C61.5519 47.2774 59.4797 45.2053 56.9236 45.2053C54.3675 45.2053 52.2954 47.2774 52.2954 49.8335C52.2954 52.3896 54.3675 54.4618 56.9236 54.4618Z" fill="#06435E" fill-opacity="0.5"/>
<path d="M56.9202 63.7182C59.4763 63.7182 61.5484 61.6461 61.5484 59.09C61.5484 56.5339 59.4763 54.4618 56.9202 54.4618C54.3641 54.4618 52.292 56.5339 52.292 59.09C52.292 61.6461 54.3641 63.7182 56.9202 63.7182Z" fill="#06435E" fill-opacity="0.5"/>
<path d="M47.6434 63.7182C50.1995 63.7182 52.2716 61.6461 52.2716 59.09C52.2716 56.5339 50.1995 54.4618 47.6434 54.4618C45.0873 54.4618 43.0151 56.5339 43.0151 59.09C43.0151 61.6461 45.0873 63.7182 47.6434 63.7182Z" fill="#06435E" fill-opacity="0.5"/>
<path d="M66.1766 63.7183C68.7327 63.7183 70.8048 61.6462 70.8048 59.0901C70.8048 56.534 68.7327 54.4619 66.1766 54.4619C63.6205 54.4619 61.5483 56.534 61.5483 59.0901C61.5483 61.6462 63.6205 63.7183 66.1766 63.7183Z" fill="#06435E" fill-opacity="0.5"/>
<path fill-rule="evenodd" clip-rule="evenodd" d="M80.0435 49.8646L77.7294 53.8728H73.1012L70.7871 49.8646L73.1012 45.8565H77.7294L80.0435 49.8646Z" fill="#06435E" fill-opacity="0.5"/>
<path fill-rule="evenodd" clip-rule="evenodd" d="M72.9278 45.5555H77.9035L80.3914 49.8646L77.9035 54.1737H72.9278L70.4399 49.8646L72.9278 45.5555ZM73.2753 46.1574L71.1349 49.8646L73.2753 53.5718H77.556L79.6964 49.8646L77.556 46.1574H73.2753Z" fill="#00FFD3"/>
<path fill-rule="evenodd" clip-rule="evenodd" d="M80.0435 59.1211L77.7294 63.1293H73.1012L70.7871 59.1211L73.1012 55.113H77.7294L80.0435 59.1211Z" fill="#06435E" fill-opacity="0.5"/>
<path fill-rule="evenodd" clip-rule="evenodd" d="M72.9278 54.812H77.9035L80.3914 59.1211L77.9035 63.4302H72.9278L70.4399 59.1211L72.9278 54.812ZM73.2753 55.4139L71.1349 59.1211L73.2753 62.8284H77.556L79.6964 59.1211L77.556 55.4139H73.2753Z" fill="#00FFD3"/>
<path fill-rule="evenodd" clip-rule="evenodd" d="M42.9527 49.8646L40.6386 53.8728H36.0104L33.6963 49.8646L36.0104 45.8565H40.6386L42.9527 49.8646Z" fill="#06435E" fill-opacity="0.5"/>
<path fill-rule="evenodd" clip-rule="evenodd" d="M35.837 45.5555H40.8127L43.3006 49.8646L40.8127 54.1737H35.837L33.3491 49.8646L35.837 45.5555ZM36.1845 46.1574L34.0441 49.8646L36.1845 53.5718H40.4652L42.6056 49.8646L40.4652 46.1574H36.1845Z" fill="#00FFD3"/>
<path fill-rule="evenodd" clip-rule="evenodd" d="M42.9527 59.1211L40.6386 63.1293H36.0104L33.6963 59.1211L36.0104 55.113H40.6386L42.9527 59.1211Z" fill="#06435E" fill-opacity="0.5"/>
<path fill-rule="evenodd" clip-rule="evenodd" d="M35.837 54.812H40.8127L43.3006 59.1211L40.8127 63.4302H35.837L33.3491 59.1211L35.837 54.812ZM36.1845 55.4139L34.0441 59.1211L36.1845 62.8284H40.4652L42.6056 59.1211L40.4652 55.4139H36.1845Z" fill="#00FFD3"/>
<path d="M56.9266 45.2053C59.4827 45.2053 61.5548 43.1331 61.5548 40.577C61.5548 38.0209 59.4827 35.9488 56.9266 35.9488C54.3705 35.9488 52.2983 38.0209 52.2983 40.577C52.2983 43.1331 54.3705 45.2053 56.9266 45.2053Z" fill="#06435E" fill-opacity="0.5"/>
<path fill-rule="evenodd" clip-rule="evenodd" d="M56.9262 36.2498C54.5363 36.2498 52.599 38.1872 52.599 40.5771C52.599 42.9669 54.5363 44.9043 56.9262 44.9043C59.3161 44.9043 61.2535 42.9669 61.2535 40.5771C61.2535 38.1872 59.3161 36.2498 56.9262 36.2498ZM51.9971 40.5771C51.9971 37.8548 54.2039 35.6479 56.9262 35.6479C59.6485 35.6479 61.8554 37.8548 61.8554 40.5771C61.8554 43.2994 59.6485 45.5062 56.9262 45.5062C54.2039 45.5062 51.9971 43.2994 51.9971 40.5771Z" fill="#00FFD3"/>
<path d="M47.6644 72.9748C50.2205 72.9748 52.2926 70.9026 52.2926 68.3465C52.2926 65.7905 50.2205 63.7183 47.6644 63.7183C45.1083 63.7183 43.0361 65.7905 43.0361 68.3465C43.0361 70.9026 45.1083 72.9748 47.6644 72.9748Z" fill="#06435E" fill-opacity="0.5"/>
<path fill-rule="evenodd" clip-rule="evenodd" d="M47.664 64.0192C45.2741 64.0192 43.3367 65.9566 43.3367 68.3465C43.3367 70.7364 45.2741 72.6738 47.664 72.6738C50.0539 72.6738 51.9913 70.7364 51.9913 68.3465C51.9913 65.9566 50.0539 64.0192 47.664 64.0192ZM42.7349 68.3465C42.7349 65.6242 44.9417 63.4174 47.664 63.4174C50.3863 63.4174 52.5932 65.6242 52.5932 68.3465C52.5932 71.0688 50.3863 73.2757 47.664 73.2757C44.9417 73.2757 42.7349 71.0688 42.7349 68.3465Z" fill="#00FFD3"/>
<path d="M66.1766 72.9748C68.7327 72.9748 70.8048 70.9026 70.8048 68.3465C70.8048 65.7905 68.7327 63.7183 66.1766 63.7183C63.6205 63.7183 61.5483 65.7905 61.5483 68.3465C61.5483 70.9026 63.6205 72.9748 66.1766 72.9748Z" fill="#06435E" fill-opacity="0.5"/>
<path fill-rule="evenodd" clip-rule="evenodd" d="M66.1767 64.0192C63.7868 64.0192 61.8494 65.9566 61.8494 68.3465C61.8494 70.7364 63.7868 72.6738 66.1767 72.6738C68.5666 72.6738 70.504 70.7364 70.504 68.3465C70.504 65.9566 68.5666 64.0192 66.1767 64.0192ZM61.2476 68.3465C61.2476 65.6242 63.4544 63.4174 66.1767 63.4174C68.899 63.4174 71.1059 65.6242 71.1059 68.3465C71.1059 71.0688 68.899 73.2757 66.1767 73.2757C63.4544 73.2757 61.2476 71.0688 61.2476 68.3465Z" fill="#00FFD3"/>
<path fill-rule="evenodd" clip-rule="evenodd" d="M52.2735 40.6186L49.9594 44.6268H45.3312L43.0171 40.6186L45.3312 36.6104H49.9594L52.2735 40.6186Z" fill="#06435E" fill-opacity="0.5"/>
<path fill-rule="evenodd" clip-rule="evenodd" d="M45.1578 36.3095H50.1335L52.6214 40.6186L50.1335 44.9277H45.1578L42.6699 40.6186L45.1578 36.3095ZM45.5053 36.9114L43.3649 40.6186L45.5053 44.3258H49.786L51.9264 40.6186L49.786 36.9114H45.5053Z" fill="#00FFD3"/>
<path d="M52.2818 59.1351C52.2818 61.7083 50.1958 63.7943 47.6226 63.7943C47.2552 63.7943 46.8977 63.7518 46.5548 63.6714V66.9471H44.2252V62.3236C43.4427 61.4901 42.9634 60.3685 42.9634 59.1351C42.9634 56.5619 45.0494 54.4759 47.6226 54.4759C50.1958 54.4759 52.2818 56.5619 52.2818 59.1351Z" fill="#F39C11"/>
<path d="M61.54 59.1018C61.5401 58.2281 61.7859 57.3721 62.2493 56.6315H70.1437C70.6083 57.3718 70.8552 58.2278 70.8562 59.1018C70.8562 60.3372 70.3654 61.5219 69.4919 62.3954C68.8985 62.9888 68.1616 63.4056 67.3627 63.6119V66.9118H65.0336V63.6119C64.2348 63.4056 63.4978 62.9889 62.9045 62.3955C62.0309 61.522 61.5401 60.3372 61.54 59.1018Z" fill="#F39C11"/>
<path d="M53.5577 41.9769H55.8882V45.3043C56.2312 45.2238 56.5889 45.1813 56.9564 45.1813C59.5306 45.1813 61.6174 47.2681 61.6174 49.8423C61.6174 52.4164 59.5306 54.5032 56.9564 54.5032C54.3822 54.5032 52.2954 52.4164 52.2954 49.8423C52.2954 48.6083 52.7749 47.4864 53.5577 46.6526V41.9769Z" fill="#54BC89"/>
<path fill-rule="evenodd" clip-rule="evenodd" d="M66.199 45.188C64.9673 45.1881 63.7861 45.6774 62.9153 46.5483C62.0444 47.4192 61.5552 48.6004 61.5552 49.832C61.5552 51.0636 62.0445 52.2448 62.9153 53.1157C63.7862 53.9865 64.9674 54.4758 66.199 54.4758V45.188Z" fill="#00A8F3"/>
<path fill-rule="evenodd" clip-rule="evenodd" d="M59.3784 55.1669C58.6422 54.7062 57.7912 54.4619 56.9226 54.4618C54.3651 54.4618 52.2919 56.5352 52.292 59.0926C52.2921 61.65 54.3652 63.7232 56.9226 63.7233C57.7915 63.7214 58.6425 63.4768 59.3784 63.015V55.1669Z" fill="#F39C11"/>
<path fill-rule="evenodd" clip-rule="evenodd" d="M50.1053 45.9173C49.3688 45.4565 48.5176 45.2121 47.6489 45.212C45.0908 45.2121 43.017 47.2859 43.0171 49.8441C43.0172 52.4021 45.0908 54.4758 47.6489 54.4758C48.5179 54.4758 49.3692 54.2293 50.1053 53.7674V45.9173Z" fill="#BE0000"/>
<path d="M32.4005 87.1482C32.304 87.1482 32.23 87.1069 32.1783 87.0242C32.1266 86.9415 32.1215 86.8537 32.1628 86.7607L33.6146 83.2941C33.6662 83.1735 33.7506 83.1132 33.8677 83.1132C33.9917 83.1132 34.0761 83.1735 34.1209 83.2941L35.5778 86.771C35.6157 86.8675 35.6088 86.9553 35.5571 87.0345C35.5089 87.1103 35.4348 87.1482 35.335 87.1482C35.2833 87.1482 35.2334 87.1344 35.1851 87.1069C35.1404 87.0759 35.1077 87.0345 35.087 86.9828L33.8057 83.8004H33.9504L32.6484 86.9828C32.6243 87.038 32.5882 87.0793 32.54 87.1069C32.4952 87.1344 32.4487 87.1482 32.4005 87.1482ZM32.6743 86.2596L32.8809 85.8152H34.9062L35.1128 86.2596H32.6743Z" fill="#3B9E9A"/>
<path d="M41.7575 87.1482C41.6818 87.1482 41.618 87.1223 41.5664 87.0707C41.5147 87.019 41.4889 86.9553 41.4889 86.8795V83.3819C41.4889 83.3027 41.5147 83.239 41.5664 83.1907C41.618 83.1391 41.6818 83.1132 41.7575 83.1132H42.9923C43.2265 83.1132 43.4314 83.1597 43.6071 83.2527C43.7862 83.3423 43.9257 83.468 44.0256 83.6299C44.1289 83.7918 44.1806 83.9777 44.1806 84.1878C44.1806 84.3566 44.1341 84.5099 44.0411 84.6477C43.9515 84.782 43.8275 84.8887 43.6691 84.968C43.8964 85.0231 44.079 85.1316 44.2167 85.2934C44.3545 85.4553 44.4234 85.6671 44.4234 85.9289C44.4234 86.1666 44.3666 86.3767 44.2529 86.5592C44.1427 86.7418 43.9877 86.8864 43.7879 86.9932C43.5882 87.0965 43.3591 87.1482 43.1008 87.1482H41.7575ZM42.0262 86.6522H43.1008C43.2592 86.6522 43.3987 86.6246 43.5193 86.5695C43.6398 86.5144 43.7345 86.4335 43.8034 86.3267C43.8723 86.22 43.9068 86.0874 43.9068 85.9289C43.9068 85.7808 43.8723 85.6585 43.8034 85.5621C43.7345 85.4657 43.6398 85.3933 43.5193 85.3451C43.3987 85.2934 43.2592 85.2676 43.1008 85.2676H42.0262V86.6522ZM42.0262 84.7716H42.9923C43.1886 84.7716 43.3488 84.7234 43.4728 84.627C43.6002 84.5305 43.6639 84.3842 43.6639 84.1878C43.6639 83.9915 43.6002 83.8469 43.4728 83.7539C43.3488 83.6574 43.1886 83.6092 42.9923 83.6092H42.0262V84.7716Z" fill="#3B9E9A"/>
<path d="M52.3589 87.1482C52.0799 87.1482 51.8181 87.0965 51.5736 86.9932C51.3325 86.8864 51.1207 86.7401 50.9381 86.5541C50.759 86.3646 50.6178 86.1442 50.5145 85.8928C50.4146 85.6413 50.3647 85.3692 50.3647 85.0765C50.3647 84.7872 50.4146 84.5185 50.5145 84.2705C50.6178 84.0191 50.759 83.8004 50.9381 83.6144C51.1207 83.425 51.3325 83.2769 51.5736 83.1701C51.8147 83.0633 52.0765 83.0099 52.3589 83.0099C52.6241 83.0099 52.8514 83.0444 53.0409 83.1132C53.2337 83.1821 53.4266 83.2958 53.6195 83.4542C53.647 83.4749 53.6677 83.4973 53.6815 83.5214C53.6987 83.542 53.709 83.5644 53.7125 83.5886C53.7194 83.6092 53.7228 83.6351 53.7228 83.666C53.7228 83.7315 53.6987 83.7866 53.6505 83.8314C53.6057 83.8727 53.5506 83.8968 53.4852 83.9037C53.4197 83.9072 53.356 83.8848 53.294 83.8365C53.1666 83.7263 53.034 83.6419 52.8962 83.5834C52.7619 83.5248 52.5828 83.4956 52.3589 83.4956C52.1557 83.4956 51.9645 83.5369 51.7854 83.6196C51.6063 83.7022 51.4479 83.8159 51.3101 83.9605C51.1758 84.1052 51.0707 84.274 50.995 84.4668C50.9192 84.6563 50.8813 84.8595 50.8813 85.0765C50.8813 85.2969 50.9192 85.5036 50.995 85.6964C51.0707 85.8859 51.1758 86.0529 51.3101 86.1976C51.4479 86.3422 51.6063 86.4559 51.7854 86.5386C51.9645 86.6178 52.1557 86.6574 52.3589 86.6574C52.5345 86.6574 52.6999 86.6281 52.8549 86.5696C53.0133 86.5076 53.1649 86.4232 53.3095 86.3164C53.3715 86.2716 53.4318 86.2527 53.4903 86.2596C53.5523 86.263 53.604 86.2872 53.6453 86.3319C53.6867 86.3732 53.7073 86.4318 53.7073 86.5076C53.7073 86.542 53.7004 86.5764 53.6867 86.6109C53.6729 86.6419 53.6522 86.6712 53.6247 86.6987C53.4387 86.8468 53.2389 86.9588 53.0254 87.0345C52.8153 87.1103 52.5931 87.1482 52.3589 87.1482Z" fill="#3B9E9A"/>
<path d="M60.0877 87.1482C60.012 87.1482 59.9483 87.1223 59.8966 87.0707C59.8449 87.019 59.8191 86.9553 59.8191 86.8795V83.3819C59.8191 83.3027 59.8449 83.239 59.8966 83.1907C59.9483 83.1391 60.012 83.1132 60.0877 83.1132H61.121C61.3793 83.1132 61.6084 83.1701 61.8082 83.2837C62.0079 83.3974 62.1629 83.5558 62.2731 83.759C62.3868 83.9588 62.4436 84.1896 62.4436 84.4513C62.4436 84.7028 62.3868 84.9266 62.2731 85.1229C62.1629 85.3193 62.0079 85.4725 61.8082 85.5828C61.6084 85.693 61.3793 85.7481 61.121 85.7481H60.3564V86.8795C60.3564 86.9553 60.3306 87.019 60.2789 87.0707C60.2307 87.1223 60.167 87.1482 60.0877 87.1482ZM60.3564 85.2521H61.121C61.2795 85.2521 61.419 85.2177 61.5395 85.1488C61.6601 85.0799 61.7548 84.9852 61.8237 84.8646C61.8925 84.7441 61.927 84.6063 61.927 84.4513C61.927 84.286 61.8925 84.1413 61.8237 84.0173C61.7548 83.8899 61.6601 83.79 61.5395 83.7177C61.419 83.6454 61.2795 83.6092 61.121 83.6092H60.3564V85.2521Z" fill="#3B9E9A"/>
<path d="M68.7509 87.1482C68.6544 87.1482 68.5804 87.1069 68.5287 87.0242C68.4771 86.9415 68.4719 86.8537 68.5132 86.7607L69.965 83.2941C70.0166 83.1735 70.101 83.1132 70.2181 83.1132C70.3421 83.1132 70.4265 83.1735 70.4713 83.2941L71.9282 86.771C71.9661 86.8675 71.9592 86.9553 71.9075 87.0345C71.8593 87.1103 71.7853 87.1482 71.6854 87.1482C71.6337 87.1482 71.5838 87.1344 71.5356 87.1069C71.4908 87.0759 71.4581 87.0345 71.4374 86.9828L70.1561 83.8004H70.3008L68.9989 86.9828C68.9748 87.038 68.9386 87.0793 68.8904 87.1069C68.8456 87.1344 68.7991 87.1482 68.7509 87.1482ZM69.0247 86.2596L69.2313 85.8152H71.2566L71.4632 86.2596H69.0247Z" fill="#3B9E9A"/>
<path d="M79.2995 87.1482C79.2272 87.1482 79.1652 87.1223 79.1135 87.0707C79.0619 87.019 79.036 86.9553 79.036 86.8795V85.6758L77.6566 83.5317C77.6118 83.4594 77.5946 83.3922 77.6049 83.3302C77.6153 83.2648 77.6445 83.2131 77.6928 83.1752C77.7444 83.1339 77.803 83.1132 77.8684 83.1132C77.927 83.1132 77.9735 83.127 78.0079 83.1546C78.0424 83.1787 78.0751 83.2148 78.1061 83.2631L79.4183 85.3451H79.2117L80.5446 83.2424C80.5722 83.2011 80.6049 83.1701 80.6428 83.1494C80.6807 83.1253 80.7272 83.1132 80.7823 83.1132C80.8443 83.1132 80.8959 83.1356 80.9373 83.1804C80.9786 83.2217 81.0027 83.2751 81.0096 83.3406C81.0165 83.4025 80.9993 83.4663 80.9579 83.5317L79.5682 85.6758V86.8795C79.5682 86.9553 79.5423 87.019 79.4907 87.0707C79.439 87.1223 79.3753 87.1482 79.2995 87.1482Z" fill="#3B9E9A"/>
<path d="M59.3783 98.164C81.4295 96.9093 98.9243 78.6301 98.9243 56.2647C98.9243 33.0864 80.1346 14.2967 56.9563 14.2967C33.778 14.2967 14.9882 33.0864 14.9882 56.2647H8.7085C8.7085 29.6182 30.3098 8.01694 56.9563 8.01694C83.6028 8.01694 105.204 29.6182 105.204 56.2647C105.204 82.099 84.8995 103.191 59.3783 104.453V98.164Z" fill="url(#paint0_linear_902_19256)"/>
<path fill-rule="evenodd" clip-rule="evenodd" d="M107.455 56.4136C107.455 84.3282 84.8259 106.957 56.9113 106.957C28.9967 106.957 6.36745 84.3282 6.36745 56.4136C6.36745 29.4564 27.4712 7.42815 54.0586 5.94891V-0.3396C24.0012 1.14651 0.0877151 25.9874 0.0877151 56.4136C0.0877151 87.7964 25.5285 113.237 56.9113 113.237C88.2941 113.237 113.735 87.7964 113.735 56.4136H107.455Z" fill="url(#paint1_linear_902_19256)"/>
<g filter="url(#filter0_f_902_19256)">
<path d="M110.796 46.7689L101.504 56.4488H120.088L110.796 46.7689Z" fill="#00FFD3"/>
</g>
<path d="M110.796 46.7689L101.504 56.4488H120.088L110.796 46.7689Z" fill="#00FFD3" fill-opacity="0.81"/>
<g filter="url(#filter1_f_902_19256)">
<path d="M11.6579 65.9147L20.9496 56.2349H2.36621L11.6579 65.9147Z" fill="#00FFD3"/>
</g>
<path d="M11.6584 65.9147L20.9501 56.2349H2.3667L11.6584 65.9147Z" fill="#00FFD3" fill-opacity="0.67"/>
<defs>
<filter id="filter0_f_902_19256" x="86.5044" y="31.7689" width="48.5835" height="39.6798" filterUnits="userSpaceOnUse" color-interpolation-filters="sRGB">
<feFlood flood-opacity="0" result="BackgroundImageFix"/>
<feBlend mode="normal" in="SourceGraphic" in2="BackgroundImageFix" result="shape"/>
<feGaussianBlur stdDeviation="7.5" result="effect1_foregroundBlur_902_19256"/>
</filter>
<filter id="filter1_f_902_19256" x="-12.6338" y="41.2349" width="48.5835" height="39.6798" filterUnits="userSpaceOnUse" color-interpolation-filters="sRGB">
<feFlood flood-opacity="0" result="BackgroundImageFix"/>
<feBlend mode="normal" in="SourceGraphic" in2="BackgroundImageFix" result="shape"/>
<feGaussianBlur stdDeviation="7.5" result="effect1_foregroundBlur_902_19256"/>
</filter>
<linearGradient id="paint0_linear_902_19256" x1="12.1887" y1="43.2734" x2="100.096" y2="94.0033" gradientUnits="userSpaceOnUse">
<stop stop-color="#00FFD3" stop-opacity="0.58"/>
<stop offset="0.260417" stop-color="#00FFD3" stop-opacity="0.43"/>
<stop offset="0.510417" stop-color="#00FFD3" stop-opacity="0.88"/>
<stop offset="0.96875" stop-color="#00FFD3" stop-opacity="0"/>
</linearGradient>
<linearGradient id="paint1_linear_902_19256" x1="109.636" y1="71.7141" x2="0.0878468" y2="23.2622" gradientUnits="userSpaceOnUse">
<stop stop-color="#00FFD3" stop-opacity="0.58"/>
<stop offset="0.255208" stop-color="#00FFD3" stop-opacity="0.34"/>
<stop offset="0.453125" stop-color="#00FFD3" stop-opacity="0.05"/>
<stop offset="1" stop-color="#00FFD3" stop-opacity="0.47"/>
</linearGradient>
</defs>
</svg>
