<svg width="490" height="362" viewBox="0 0 490 362" fill="none" xmlns="http://www.w3.org/2000/svg">
<line x1="1.31641" y1="89.8362" x2="22.7712" y2="89.8362" stroke="#002A3D" stroke-opacity="0.5" stroke-width="2" stroke-linecap="round" stroke-dasharray="4 4"/>
<line x1="467.047" y1="85.3938" x2="486.477" y2="85.3937" stroke="#002A3D" stroke-opacity="0.5" stroke-width="2" stroke-linecap="round" stroke-dasharray="4 4"/>
<line x1="1.31641" y1="313.848" x2="118.178" y2="313.848" stroke="#002A3D" stroke-opacity="0.5" stroke-width="2" stroke-linecap="round" stroke-dasharray="4 4"/>
<line x1="369.615" y1="313.848" x2="486.477" y2="313.848" stroke="#002A3D" stroke-opacity="0.5" stroke-width="2" stroke-linecap="round" stroke-dasharray="4 4"/>
<line x1="1.31641" y1="92.0203" x2="1.31641" y2="313.848" stroke="#002A3D" stroke-opacity="0.5" stroke-width="2" stroke-linecap="round" stroke-dasharray="4 4"/>
<line x1="488.477" y1="87.3936" x2="488.477" y2="311.102" stroke="#002A3D" stroke-opacity="0.5" stroke-width="2" stroke-linecap="round" stroke-dasharray="4 4"/>
<path fill-rule="evenodd" clip-rule="evenodd" d="M136.824 79.4568C118.08 79.4568 102.99 94.5471 102.99 113.291V126.54H107.173V176.17H102.99V263.528H107.173V313.264H102.99V326.512C102.99 345.257 118.08 360.347 136.824 360.347H350.045C368.79 360.347 383.88 345.257 383.88 326.512V113.291C383.88 94.5471 368.79 79.4568 350.045 79.4568H136.824Z" fill="#001E2E" fill-opacity="0.83"/>
<path fill-rule="evenodd" clip-rule="evenodd" d="M150.06 97.066H336.547C352.941 97.066 366.139 110.264 366.139 126.658V313.145C366.139 329.54 352.941 342.738 336.547 342.738H150.06C133.666 342.738 120.468 329.716 120.468 313.322H113.488V263.528H120.468V219.902V176.17H113.488V126.062H120.468C120.468 109.668 133.666 97.066 150.06 97.066Z" fill="#001E2E" fill-opacity="0.77"/>
<path fill-rule="evenodd" clip-rule="evenodd" d="M150.06 97.0667H336.547C352.941 97.0667 366.139 110.265 366.139 126.659V313.146C366.139 329.54 352.941 342.738 336.547 342.738H150.06C133.666 342.738 120.468 329.716 120.468 313.322H113.488V263.528H120.468V219.902V176.171H113.488V126.062H120.468C120.468 109.668 133.666 97.0667 150.06 97.0667V97.0667Z" stroke="url(#paint0_linear_788_20129)" stroke-width="3" stroke-linecap="square" stroke-linejoin="round"/>
<path fill-rule="evenodd" clip-rule="evenodd" d="M136.693 79.4568C117.949 79.4568 102.859 94.5471 102.859 113.291V126.54H107.042V176.17H102.859V263.528H107.042V313.264H102.859V326.512C102.859 345.257 117.949 360.347 136.693 360.347H349.915C368.659 360.347 383.749 345.257 383.749 326.512V113.291C383.749 94.5471 368.659 79.4568 349.915 79.4568H136.693Z" stroke="url(#paint1_linear_788_20129)" stroke-width="2" stroke-linecap="square" stroke-linejoin="round"/>
<g filter="url(#filter0_f_788_20129)">
<path d="M244.595 311.041C244.595 311.041 200.117 271.347 184.243 240.739C168.807 210.976 162.985 159.031 162.985 159.031L244.595 130.654L326.205 159.031C326.205 159.031 320.383 210.976 304.948 240.739C289.074 271.347 244.595 311.041 244.595 311.041Z" fill="#01F2FF" fill-opacity="0.25"/>
<path d="M244.595 311.041C244.595 311.041 200.117 271.347 184.243 240.739C168.807 210.976 162.985 159.031 162.985 159.031L244.595 130.654L326.205 159.031C326.205 159.031 320.383 210.976 304.948 240.739C289.074 271.347 244.595 311.041 244.595 311.041Z" stroke="#00FFD3" stroke-width="3"/>
</g>
<path d="M163.599 159.371L244.666 131.183L325.732 159.371C325.726 159.429 325.718 159.492 325.71 159.562C325.664 159.948 325.594 160.52 325.499 161.257C325.31 162.733 325.023 164.875 324.63 167.539C323.844 172.868 322.635 180.282 320.945 188.625C317.562 205.322 312.258 225.692 304.574 240.508C296.672 255.745 281.628 273.277 268.527 287.023C261.982 293.89 255.932 299.803 251.519 303.998C249.312 306.096 247.515 307.764 246.27 308.907C245.647 309.479 245.162 309.919 244.834 310.217C244.772 310.272 244.716 310.323 244.666 310.368C244.615 310.323 244.559 310.272 244.498 310.217C244.169 309.919 243.684 309.479 243.062 308.907C241.816 307.764 240.019 306.096 237.812 303.998C233.399 299.803 227.349 293.89 220.804 287.023C207.703 273.277 192.659 255.745 184.757 240.508C177.073 225.692 171.769 205.322 168.386 188.625C166.696 180.282 165.487 172.868 164.701 167.539C164.308 164.875 164.021 162.733 163.832 161.257C163.738 160.52 163.668 159.948 163.621 159.562C163.613 159.492 163.606 159.429 163.599 159.371Z" stroke="#01F2FF" stroke-opacity="0.2"/>
<g filter="url(#filter1_f_788_20129)">
<path fill-rule="evenodd" clip-rule="evenodd" d="M270.817 188.787V167.558L270.771 166.782C269.974 153.194 258.697 142.418 244.907 142.418C231.117 142.418 219.84 153.194 219.043 166.782L218.998 167.548V168.213L218.998 168.222C218.998 168.242 218.998 168.261 218.997 168.28C218.997 168.296 218.997 168.312 218.997 168.327C218.997 168.362 218.998 168.397 218.998 168.432L218.998 168.442V188.787L205.616 188.787C203.316 188.787 201.452 190.651 201.452 192.951V258.139C201.452 260.439 203.316 262.303 205.616 262.303H284.198C286.497 262.303 288.362 260.439 288.362 258.139V192.951C288.362 190.651 286.497 188.787 284.198 188.787L270.817 188.787ZM214.239 168.451C214.239 168.41 214.239 168.369 214.239 168.327C214.239 168.286 214.239 168.245 214.239 168.204V166.503H214.292C215.236 150.415 228.582 137.659 244.907 137.659C261.232 137.659 274.578 150.415 275.522 166.503H275.576V184.028L284.198 184.028C289.126 184.028 293.12 188.023 293.12 192.951V258.139C293.12 263.067 289.126 267.062 284.198 267.062H205.616C200.688 267.062 196.693 263.067 196.693 258.139V192.951C196.693 188.023 200.688 184.028 205.616 184.028L214.239 184.028V168.451ZM221.347 188.787V165.901H221.918C224.177 153.94 232.974 143.899 244.907 143.899C256.84 143.899 265.637 153.94 267.896 165.901H268.467V188.787H221.347ZM263.676 170.66C263.097 158.388 254.915 148.658 244.907 148.658C234.899 148.658 226.717 158.388 226.139 170.66H226.106V184.028H263.708V170.66H263.676Z" fill="#01F2FF"/>
</g>
<path d="M273.253 156.607C268.708 145.358 257.684 137.422 244.807 137.422C228.482 137.422 215.136 150.178 214.192 166.266H214.139V167.967L214.139 168.09L214.139 168.214V183.791L205.517 183.791C200.589 183.791 196.594 187.786 196.594 192.714V257.902C196.594 262.83 200.589 266.825 205.517 266.825H284.098C289.026 266.825 293.021 262.83 293.021 257.902V192.714C293.021 188.044 289.434 184.212 284.865 183.823H252.63L252.631 183.791H226.006V170.423H226.039C226.618 158.151 234.799 148.421 244.808 148.421C251.992 148.421 258.236 153.435 261.401 160.805L273.253 156.607Z" fill="#002A3D"/>
<path fill-rule="evenodd" clip-rule="evenodd" d="M274.288 183.792L275.478 183.791L284.1 183.791C289.028 183.791 293.023 187.786 293.023 192.714V257.902C293.023 262.83 289.028 266.825 284.1 266.825H205.518C200.591 266.825 196.596 262.83 196.596 257.902V192.714C196.596 187.786 200.591 183.791 205.518 183.791L214.141 183.791V168.214L214.141 168.09L214.141 167.967L214.141 166.266C215.085 150.178 228.484 137.422 244.809 137.422C257.76 137.422 268.835 145.449 273.332 156.798L272.209 157.196L272.204 157.181L262.59 160.574L262.599 160.594L261.481 160.99C258.342 153.519 252.054 148.421 244.81 148.421C234.801 148.421 226.62 158.151 226.041 170.423L226.008 183.791H263.611L264.8 183.792H274.288ZM274.423 184.98L284.1 184.98C288.371 184.98 291.833 188.443 291.833 192.714V257.902C291.833 262.173 288.371 265.635 284.1 265.635H205.518C201.248 265.635 197.785 262.173 197.785 257.902V192.714C197.785 188.443 201.248 184.98 205.518 184.98L215.331 184.98L215.331 168.214L215.331 168.186L215.331 168.09L215.331 167.971V167.206L215.382 166.336C216.289 150.872 229.118 138.612 244.809 138.612C256.761 138.612 267.051 145.724 271.679 155.947L262.041 159.348C258.603 152.161 252.262 147.231 244.81 147.231C234.275 147.231 225.962 157.083 224.928 169.233L224.819 184.98H264.533L274.423 184.98Z" fill="#01F2FF"/>
<path fill-rule="evenodd" clip-rule="evenodd" d="M267.975 202.152L264.139 208.796H256.467L252.631 202.152L256.467 195.507H264.139L267.975 202.152Z" fill="#06435E" fill-opacity="0.79"/>
<path fill-rule="evenodd" clip-rule="evenodd" d="M256.125 194.913H264.484L268.663 202.152L264.484 209.391H256.125L251.945 202.152L256.125 194.913ZM256.812 196.102L253.319 202.152L256.812 208.201H263.797L267.29 202.152L263.797 196.102H256.812Z" fill="#01F2FF"/>
<path fill-rule="evenodd" clip-rule="evenodd" d="M252.631 248.181L248.795 254.825H241.123L237.287 248.181L241.123 241.537H248.795L252.631 248.181Z" fill="#06435E" fill-opacity="0.79"/>
<path fill-rule="evenodd" clip-rule="evenodd" d="M240.779 240.942H249.138L253.318 248.181L249.138 255.42H240.779L236.6 248.181L240.779 240.942ZM241.466 242.132L237.973 248.181L241.466 254.23H248.451L251.944 248.181L248.451 242.132H241.466Z" fill="#01F2FF"/>
<path d="M229.615 225.123C233.853 225.123 237.288 221.688 237.288 217.45C237.288 213.213 233.853 209.778 229.615 209.778C225.378 209.778 221.943 213.213 221.943 217.45C221.943 221.688 225.378 225.123 229.615 225.123Z" fill="#06435E" fill-opacity="0.79"/>
<path d="M260.334 225.099C264.571 225.099 268.006 221.664 268.006 217.427C268.006 213.19 264.571 209.755 260.334 209.755C256.097 209.755 252.662 213.19 252.662 217.427C252.662 221.664 256.097 225.099 260.334 225.099Z" fill="#06435E" fill-opacity="0.79"/>
<path d="M244.996 225.099C249.234 225.099 252.668 221.664 252.668 217.427C252.668 213.19 249.234 209.755 244.996 209.755C240.759 209.755 237.324 213.19 237.324 217.427C237.324 221.664 240.759 225.099 244.996 225.099Z" fill="#06435E" fill-opacity="0.79"/>
<path d="M244.99 240.443C249.228 240.443 252.663 237.008 252.663 232.771C252.663 228.534 249.228 225.099 244.99 225.099C240.753 225.099 237.318 228.534 237.318 232.771C237.318 237.008 240.753 240.443 244.99 240.443Z" fill="#06435E" fill-opacity="0.79"/>
<path d="M229.61 240.443C233.847 240.443 237.282 237.008 237.282 232.771C237.282 228.534 233.847 225.099 229.61 225.099C225.372 225.099 221.938 228.534 221.938 232.771C221.938 237.008 225.372 240.443 229.61 240.443Z" fill="#06435E" fill-opacity="0.79"/>
<path d="M260.334 240.443C264.571 240.443 268.006 237.009 268.006 232.771C268.006 228.534 264.571 225.099 260.334 225.099C256.097 225.099 252.662 228.534 252.662 232.771C252.662 237.009 256.097 240.443 260.334 240.443Z" fill="#06435E" fill-opacity="0.79"/>
<path fill-rule="evenodd" clip-rule="evenodd" d="M283.319 217.479L279.483 224.123H271.811L267.975 217.479L271.811 210.834H279.483L283.319 217.479Z" fill="#06435E" fill-opacity="0.79"/>
<path fill-rule="evenodd" clip-rule="evenodd" d="M271.469 210.24H279.828L284.007 217.479L279.828 224.718H271.469L267.289 217.479L271.469 210.24ZM272.155 211.429L268.663 217.479L272.155 223.528H279.141L282.633 217.479L279.141 211.429H272.155Z" fill="#01F2FF"/>
<path fill-rule="evenodd" clip-rule="evenodd" d="M283.319 232.823L279.483 239.467H271.811L267.975 232.823L271.811 226.179H279.483L283.319 232.823Z" fill="#06435E" fill-opacity="0.79"/>
<path fill-rule="evenodd" clip-rule="evenodd" d="M271.469 225.584H279.828L284.007 232.823L279.828 240.062H271.469L267.289 232.823L271.469 225.584ZM272.155 226.773L268.663 232.823L272.155 238.872H279.141L282.633 232.823L279.141 226.773H272.155Z" fill="#01F2FF"/>
<path fill-rule="evenodd" clip-rule="evenodd" d="M221.836 217.479L218 224.123H210.328L206.492 217.479L210.328 210.834H218L221.836 217.479Z" fill="#06435E" fill-opacity="0.79"/>
<path fill-rule="evenodd" clip-rule="evenodd" d="M209.984 210.24H218.343L222.523 217.479L218.343 224.718H209.984L205.805 217.479L209.984 210.24ZM210.671 211.429L207.178 217.479L210.671 223.528H217.656L221.149 217.479L217.656 211.429H210.671Z" fill="#01F2FF"/>
<path fill-rule="evenodd" clip-rule="evenodd" d="M221.836 232.823L218 239.467H210.328L206.492 232.823L210.328 226.179H218L221.836 232.823Z" fill="#06435E" fill-opacity="0.79"/>
<path fill-rule="evenodd" clip-rule="evenodd" d="M209.984 225.584H218.343L222.523 232.823L218.343 240.062H209.984L205.805 232.823L209.984 225.584ZM210.671 226.773L207.178 232.823L210.671 238.872H217.656L221.149 232.823L217.656 226.773H210.671Z" fill="#01F2FF"/>
<path d="M245 209.755C249.237 209.755 252.672 206.32 252.672 202.083C252.672 197.846 249.237 194.411 245 194.411C240.763 194.411 237.328 197.846 237.328 202.083C237.328 206.32 240.763 209.755 245 209.755Z" fill="#06435E" fill-opacity="0.79"/>
<path fill-rule="evenodd" clip-rule="evenodd" d="M244.999 195.006C241.091 195.006 237.922 198.174 237.922 202.083C237.922 205.992 241.091 209.16 244.999 209.16C248.908 209.16 252.077 205.992 252.077 202.083C252.077 198.174 248.908 195.006 244.999 195.006ZM236.732 202.083C236.732 197.517 240.434 193.816 244.999 193.816C249.565 193.816 253.266 197.517 253.266 202.083C253.266 206.649 249.565 210.35 244.999 210.35C240.434 210.35 236.732 206.649 236.732 202.083Z" fill="#01F2FF"/>
<path d="M229.645 255.788C233.882 255.788 237.317 252.353 237.317 248.115C237.317 243.878 233.882 240.443 229.645 240.443C225.408 240.443 221.973 243.878 221.973 248.115C221.973 252.353 225.408 255.788 229.645 255.788Z" fill="#06435E" fill-opacity="0.79"/>
<path fill-rule="evenodd" clip-rule="evenodd" d="M229.642 241.038C225.733 241.038 222.565 244.207 222.565 248.116C222.565 252.024 225.733 255.193 229.642 255.193C233.551 255.193 236.719 252.024 236.719 248.116C236.719 244.207 233.551 241.038 229.642 241.038ZM221.375 248.116C221.375 243.55 225.076 239.849 229.642 239.849C234.208 239.849 237.909 243.55 237.909 248.116C237.909 252.681 234.208 256.383 229.642 256.383C225.076 256.383 221.375 252.681 221.375 248.116Z" fill="#01F2FF"/>
<path d="M260.334 255.788C264.571 255.788 268.006 252.353 268.006 248.115C268.006 243.878 264.571 240.443 260.334 240.443C256.097 240.443 252.662 243.878 252.662 248.115C252.662 252.353 256.097 255.788 260.334 255.788Z" fill="#06435E" fill-opacity="0.79"/>
<path fill-rule="evenodd" clip-rule="evenodd" d="M260.333 241.038C256.425 241.038 253.256 244.207 253.256 248.116C253.256 252.024 256.425 255.193 260.333 255.193C264.242 255.193 267.411 252.024 267.411 248.116C267.411 244.207 264.242 241.038 260.333 241.038ZM252.066 248.116C252.066 243.55 255.768 239.849 260.333 239.849C264.899 239.849 268.6 243.55 268.6 248.116C268.6 252.681 264.899 256.383 260.333 256.383C255.768 256.383 252.066 252.681 252.066 248.116Z" fill="#01F2FF"/>
<path fill-rule="evenodd" clip-rule="evenodd" d="M237.288 202.152L233.452 208.796H225.779L221.943 202.152L225.779 195.507H233.452L237.288 202.152Z" fill="#06435E" fill-opacity="0.79"/>
<path fill-rule="evenodd" clip-rule="evenodd" d="M225.435 194.913H233.794L237.974 202.152L233.794 209.391H225.435L221.256 202.152L225.435 194.913ZM226.122 196.102L222.63 202.152L226.122 208.201H233.107L236.6 202.152L233.107 196.102H226.122Z" fill="#01F2FF"/>
<path d="M237.301 232.846C237.301 237.111 233.843 240.569 229.577 240.569C228.968 240.569 228.376 240.499 227.807 240.366V245.796H223.945V238.132C222.648 236.75 221.854 234.891 221.854 232.846C221.854 228.58 225.311 225.122 229.577 225.122C233.843 225.122 237.301 228.58 237.301 232.846Z" fill="#F39C11"/>
<path d="M252.646 232.791C252.647 231.343 253.054 229.924 253.822 228.696H266.909C267.679 229.923 268.088 231.342 268.09 232.791C268.09 234.839 267.276 236.803 265.828 238.251C264.845 239.234 263.623 239.925 262.299 240.267V245.737H258.438V240.267C257.114 239.925 255.892 239.234 254.908 238.251C253.46 236.803 252.647 234.839 252.646 232.791Z" fill="#F39C11"/>
<path fill-rule="evenodd" clip-rule="evenodd" d="M239.417 204.403H243.28V209.919C243.849 209.786 244.441 209.715 245.051 209.715C249.318 209.715 252.777 213.174 252.777 217.442C252.777 221.709 249.318 225.168 245.051 225.168C240.783 225.168 237.324 221.709 237.324 217.442C237.324 215.396 238.119 213.536 239.417 212.154V204.403Z" fill="#54BC89"/>
<path fill-rule="evenodd" clip-rule="evenodd" d="M260.37 209.726C258.328 209.726 256.37 210.538 254.926 211.981C253.483 213.425 252.672 215.383 252.672 217.425C252.672 219.466 253.483 221.424 254.927 222.868C256.37 224.311 258.328 225.123 260.37 225.123V209.726Z" fill="#00A8F3"/>
<path fill-rule="evenodd" clip-rule="evenodd" d="M249.065 226.268C247.845 225.504 246.434 225.099 244.994 225.099C240.755 225.099 237.318 228.536 237.318 232.776C237.318 237.015 240.755 240.452 244.994 240.452C246.435 240.449 247.845 240.043 249.065 239.278V226.268Z" fill="#F39C11"/>
<path fill-rule="evenodd" clip-rule="evenodd" d="M233.693 210.935C232.473 210.171 231.061 209.766 229.621 209.766C225.381 209.766 221.943 213.204 221.943 217.445C221.943 221.685 225.381 225.122 229.621 225.123C231.062 225.123 232.473 224.714 233.693 223.948V210.935Z" fill="#BE0000"/>
<rect x="32.0488" y="9.18103" width="164.245" height="163.714" rx="20" fill="#01F2FF" fill-opacity="0.2"/>
<g filter="url(#filter2_f_788_20129)">
<path d="M79.8848 60.651C79.8848 59.4242 80.8793 58.4297 82.1061 58.4297H83.7343C84.9611 58.4297 85.9556 59.4242 85.9556 60.651V69.3198C85.9556 70.5466 84.9611 71.5411 83.7343 71.5411H82.1061C80.8793 71.5411 79.8848 70.5466 79.8848 69.3198V60.651Z" fill="#01F2FF"/>
<path d="M142.59 60.6507C142.59 59.4239 143.584 58.4294 144.811 58.4294H146.439C147.666 58.4294 148.661 59.4239 148.661 60.6507V69.3195C148.661 70.5463 147.666 71.5408 146.439 71.5408H144.811C143.584 71.5408 142.59 70.5463 142.59 69.3195V60.6507Z" fill="#01F2FF"/>
<path fill-rule="evenodd" clip-rule="evenodd" d="M116.937 60.6507C116.937 59.4239 115.942 58.4294 114.715 58.4294H113.087C111.86 58.4294 110.866 59.4239 110.866 60.6507V91.2083C110.866 92.4351 109.871 93.4296 108.644 93.4296H105.317C104.09 93.4296 103.096 94.4241 103.096 95.6509V97.2792C103.096 98.5059 104.09 99.5005 105.317 99.5005H110.866C111.075 99.5005 111.282 99.4898 111.486 99.4691C114.548 99.1582 116.937 96.5729 116.937 93.4296C116.937 93.4296 116.937 93.4296 116.937 93.4296V60.6507Z" fill="#01F2FF"/>
<path d="M91.373 114.822C91.373 113.21 93.0408 112.135 94.529 112.757C109.681 119.092 119.328 119.069 133.992 112.8C135.484 112.162 137.168 113.238 137.168 114.861V116.3C137.168 117.202 136.62 118.017 135.782 118.35C119.493 124.813 109.617 124.936 92.7699 118.346C91.9263 118.016 91.373 117.198 91.373 116.292V114.822Z" fill="#01F2FF"/>
</g>
<path d="M79.8848 60.651C79.8848 59.4242 80.8793 58.4297 82.1061 58.4297H83.7343C84.9611 58.4297 85.9556 59.4242 85.9556 60.651V69.3198C85.9556 70.5466 84.9611 71.5411 83.7343 71.5411H82.1061C80.8793 71.5411 79.8848 70.5466 79.8848 69.3198V60.651Z" fill="#002A3D"/>
<path d="M80.1348 60.651C80.1348 59.5623 81.0173 58.6797 82.1061 58.6797H83.7343C84.823 58.6797 85.7056 59.5623 85.7056 60.651V69.3198C85.7056 70.4085 84.823 71.2911 83.7343 71.2911H82.1061C81.0173 71.2911 80.1348 70.4085 80.1348 69.3198V60.651Z" stroke="#01F2FF" stroke-opacity="0.61" stroke-width="0.5"/>
<path d="M142.59 60.6507C142.59 59.4239 143.584 58.4294 144.811 58.4294H146.439C147.666 58.4294 148.661 59.4239 148.661 60.6507V69.3195C148.661 70.5463 147.666 71.5408 146.439 71.5408H144.811C143.584 71.5408 142.59 70.5463 142.59 69.3195V60.6507Z" fill="#002A3D"/>
<path d="M142.84 60.6507C142.84 59.562 143.722 58.6794 144.811 58.6794H146.439C147.528 58.6794 148.411 59.562 148.411 60.6507V69.3195C148.411 70.4082 147.528 71.2908 146.439 71.2908H144.811C143.722 71.2908 142.84 70.4082 142.84 69.3195V60.6507Z" stroke="#01F2FF" stroke-opacity="0.61" stroke-width="0.5"/>
<path fill-rule="evenodd" clip-rule="evenodd" d="M116.937 60.6507C116.937 59.4239 115.942 58.4294 114.715 58.4294H113.087C111.86 58.4294 110.866 59.4239 110.866 60.6507V91.2083C110.866 92.4351 109.871 93.4296 108.644 93.4296H105.317C104.09 93.4296 103.096 94.4241 103.096 95.6509V97.2792C103.096 98.5059 104.09 99.5005 105.317 99.5005H110.866C111.075 99.5005 111.282 99.4898 111.486 99.4691C114.548 99.1582 116.937 96.5729 116.937 93.4296C116.937 93.4296 116.937 93.4296 116.937 93.4296V60.6507Z" fill="#002A3D"/>
<path d="M116.687 60.6507C116.687 59.562 115.804 58.6794 114.715 58.6794H113.087C111.998 58.6794 111.116 59.562 111.116 60.6507V91.2083C111.116 92.5732 110.009 93.6796 108.644 93.6796H105.317C104.228 93.6796 103.346 94.5622 103.346 95.6509V97.2792C103.346 98.3679 104.228 99.2505 105.317 99.2505H110.866C111.067 99.2505 111.265 99.2402 111.461 99.2204C114.396 98.9223 116.687 96.4433 116.687 93.4296V60.6507ZM116.687 60.6507V93.427V60.6507Z" stroke="#01F2FF" stroke-opacity="0.61" stroke-width="0.5"/>
<path d="M91.373 114.822C91.373 113.21 93.0408 112.135 94.529 112.757C109.681 119.092 119.328 119.069 133.992 112.8C135.484 112.162 137.168 113.238 137.168 114.861V116.3C137.168 117.202 136.62 118.017 135.782 118.35C119.493 124.813 109.617 124.936 92.7699 118.346C91.9263 118.016 91.373 117.198 91.373 116.292V114.822Z" fill="#002A3D"/>
<path d="M91.623 114.822C91.623 113.394 93.1034 112.432 94.4325 112.988C102.026 116.162 108.26 117.753 114.444 117.755C120.628 117.758 126.74 116.172 134.09 113.03C135.423 112.46 136.918 113.424 136.918 114.861V116.3C136.918 117.1 136.432 117.823 135.69 118.117C127.56 121.343 121.052 122.978 114.485 122.993C107.917 123.007 101.269 121.402 92.8609 118.113C92.1142 117.821 91.623 117.096 91.623 116.292V114.822Z" stroke="#01F2FF" stroke-opacity="0.61" stroke-width="0.5"/>
<path fill-rule="evenodd" clip-rule="evenodd" d="M175.005 10.666H53.5376C42.8032 10.666 34.1013 19.3679 34.1013 30.1022V151.57C34.1013 162.304 42.8032 171.006 53.5375 171.006H175.005C185.74 171.006 194.442 162.304 194.442 151.57V30.1023C194.442 19.3679 185.74 10.666 175.005 10.666ZM53.5376 2.33618C38.2028 2.33618 25.7715 14.7675 25.7715 30.1022V151.57C25.7715 166.905 38.2028 179.336 53.5375 179.336H175.005C190.34 179.336 202.771 166.905 202.771 151.57V30.1023C202.771 14.7675 190.34 2.33618 175.005 2.33618H53.5376Z" fill="#01F2FF" fill-opacity="0.3"/>
<path fill-rule="evenodd" clip-rule="evenodd" d="M27.502 32.5274C27.502 16.8092 40.244 4.06714 55.9622 4.06714H172.58C188.298 4.06714 201.04 16.8092 201.04 32.5274V149.145C201.04 164.863 188.298 177.605 172.58 177.605H55.9622C40.244 177.605 27.502 164.863 27.502 149.145V32.5274ZM55.9622 5.45544C41.0108 5.45544 28.8903 17.576 28.8903 32.5274V149.145C28.8903 164.096 41.0108 176.217 55.9622 176.217H172.58C187.531 176.217 199.652 164.096 199.652 149.145V32.5274C199.652 17.576 187.531 5.45544 172.58 5.45544H55.9622Z" fill="url(#paint2_linear_788_20129)"/>
<path fill-rule="evenodd" clip-rule="evenodd" d="M55.9622 177.605C40.244 177.605 27.502 164.863 27.502 149.145L27.502 32.5274C27.502 16.8092 40.244 4.06712 55.9622 4.06712L172.58 4.06713C188.298 4.06713 201.04 16.8092 201.04 32.5274L201.04 149.145C201.04 164.863 188.298 177.605 172.58 177.605L55.9622 177.605ZM28.8903 149.145C28.8903 164.096 41.0108 176.217 55.9622 176.217L172.58 176.217C187.531 176.217 199.652 164.096 199.652 149.145L199.652 32.5274C199.652 17.5759 187.531 5.45543 172.58 5.45543L55.9622 5.45543C41.0108 5.45543 28.8903 17.576 28.8903 32.5274L28.8903 149.145Z" fill="url(#paint3_linear_788_20129)"/>
<path fill-rule="evenodd" clip-rule="evenodd" d="M201.041 149.145C201.041 164.863 188.299 177.605 172.581 177.605L55.9633 177.605C40.2451 177.605 27.503 164.863 27.503 149.145L27.503 32.5274C27.503 16.8092 40.2451 4.06714 55.9633 4.06714L172.581 4.06713C188.299 4.06712 201.041 16.8092 201.041 32.5274L201.041 149.145ZM172.581 176.217C187.532 176.217 199.653 164.096 199.653 149.145L199.653 32.5274C199.653 17.5759 187.532 5.45543 172.581 5.45543L55.9633 5.45544C41.0118 5.45544 28.8913 17.576 28.8913 32.5274L28.8913 149.145C28.8913 164.096 41.0119 176.217 55.9633 176.217L172.581 176.217Z" fill="url(#paint4_linear_788_20129)"/>
<path fill-rule="evenodd" clip-rule="evenodd" d="M172.581 4.06714C188.299 4.06714 201.041 16.8092 201.041 32.5274L201.041 149.145C201.041 164.863 188.299 177.605 172.581 177.605L55.9633 177.605C40.2451 177.605 27.503 164.863 27.503 149.145L27.503 32.5274C27.503 16.8092 40.2451 4.06714 55.9633 4.06714L172.581 4.06714ZM199.653 32.5274C199.653 17.576 187.532 5.45544 172.581 5.45544L55.9633 5.45544C41.0119 5.45544 28.8913 17.576 28.8913 32.5274L28.8913 149.145C28.8913 164.096 41.0119 176.217 55.9633 176.217L172.581 176.217C187.532 176.217 199.653 164.096 199.653 149.145L199.653 32.5274Z" fill="url(#paint5_linear_788_20129)"/>
<rect x="295.426" y="7.24805" width="164.245" height="163.714" rx="20" fill="#01F2FF" fill-opacity="0.2"/>
<g filter="url(#filter3_f_788_20129)">
<path d="M401.535 58.0146C401.205 58.0146 400.875 57.932 400.586 57.7669C392.658 53.6792 385.804 51.9451 377.588 51.9451C369.412 51.9451 361.65 53.8857 354.59 57.7669C353.599 58.3036 352.36 57.932 351.782 56.9411C351.245 55.9501 351.617 54.6702 352.608 54.1334C360.288 49.9632 368.711 47.8162 377.588 47.8162C386.382 47.8162 394.062 49.7568 402.485 54.0921C403.517 54.6289 403.889 55.8676 403.352 56.8585C402.981 57.6017 402.279 58.0146 401.535 58.0146ZM342.451 79.6915C342.038 79.6915 341.625 79.5676 341.253 79.3199C340.304 78.6592 340.097 77.3793 340.758 76.4296C344.845 70.6491 350.048 66.1073 356.241 62.928C369.206 56.2392 385.804 56.1979 398.81 62.8867C405.004 66.066 410.206 70.5665 414.294 76.3057C414.954 77.2141 414.748 78.5354 413.798 79.196C412.849 79.8566 411.569 79.6502 410.908 78.7005C407.192 73.4981 402.485 69.4104 396.911 66.5615C385.061 60.492 369.908 60.492 358.099 66.6028C352.484 69.493 347.777 73.6219 344.061 78.8244C343.731 79.4024 343.111 79.6915 342.451 79.6915ZM368.256 129.528C367.72 129.528 367.183 129.321 366.811 128.908C363.219 125.316 361.278 123.004 358.512 118.008C355.663 112.929 354.177 106.736 354.177 100.088C354.177 87.8254 364.664 77.8334 377.546 77.8334C390.429 77.8334 400.916 87.8254 400.916 100.088C400.916 101.244 400.008 102.153 398.852 102.153C397.696 102.153 396.787 101.244 396.787 100.088C396.787 90.0963 388.158 81.9624 377.546 81.9624C366.935 81.9624 358.306 90.0963 358.306 100.088C358.306 106.034 359.627 111.525 362.146 115.985C364.788 120.733 366.605 122.756 369.784 125.977C370.569 126.802 370.569 128.082 369.784 128.908C369.33 129.321 368.793 129.528 368.256 129.528ZM397.861 121.889C392.947 121.889 388.612 120.65 385.061 118.214C378.909 114.044 375.234 107.273 375.234 100.088C375.234 98.9322 376.143 98.0239 377.299 98.0239C378.455 98.0239 379.363 98.9322 379.363 100.088C379.363 105.91 382.336 111.402 387.373 114.787C390.305 116.769 393.732 117.719 397.861 117.719C398.852 117.719 400.503 117.595 402.155 117.306C403.27 117.1 404.343 117.843 404.55 118.999C404.756 120.114 404.013 121.187 402.857 121.394C400.503 121.848 398.439 121.889 397.861 121.889ZM389.562 130.395C389.396 130.395 389.19 130.353 389.025 130.312C382.46 128.495 378.166 126.059 373.665 121.641C367.885 115.902 364.705 108.264 364.705 100.088C364.705 93.3995 370.403 87.9493 377.423 87.9493C384.442 87.9493 390.14 93.3995 390.14 100.088C390.14 104.506 393.98 108.098 398.728 108.098C403.476 108.098 407.316 104.506 407.316 100.088C407.316 84.5223 393.897 71.8878 377.381 71.8878C365.655 71.8878 354.92 78.4115 350.089 88.5274C348.479 91.8718 347.653 95.7943 347.653 100.088C347.653 103.309 347.942 108.387 350.419 114.994C350.832 116.067 350.296 117.265 349.222 117.636C348.148 118.049 346.951 117.471 346.579 116.439C344.556 111.03 343.565 105.662 343.565 100.088C343.565 95.1336 344.515 90.6331 346.373 86.7106C351.864 75.1909 364.045 67.7176 377.381 67.7176C396.168 67.7176 411.445 82.2101 411.445 100.047C411.445 106.736 405.747 112.186 398.728 112.186C391.709 112.186 386.011 106.736 386.011 100.047C386.011 95.6291 382.171 92.0369 377.423 92.0369C372.674 92.0369 368.834 95.6291 368.834 100.047C368.834 107.108 371.559 113.714 376.555 118.668C380.478 122.55 384.235 124.697 390.057 126.307C391.172 126.596 391.791 127.752 391.502 128.826C391.296 129.775 390.429 130.395 389.562 130.395Z" fill="#01F2FF"/>
</g>
<path d="M401.535 58.0146C401.205 58.0146 400.875 57.932 400.586 57.7669C392.658 53.6792 385.804 51.9451 377.588 51.9451C369.412 51.9451 361.65 53.8857 354.59 57.7669C353.599 58.3036 352.36 57.932 351.782 56.9411C351.245 55.9501 351.617 54.6702 352.608 54.1334C360.288 49.9632 368.711 47.8162 377.588 47.8162C386.382 47.8162 394.062 49.7568 402.485 54.0921C403.517 54.6289 403.889 55.8676 403.352 56.8585C402.981 57.6017 402.279 58.0146 401.535 58.0146ZM342.451 79.6915C342.038 79.6915 341.625 79.5676 341.253 79.3199C340.304 78.6592 340.097 77.3793 340.758 76.4296C344.845 70.6491 350.048 66.1073 356.241 62.928C369.206 56.2392 385.804 56.1979 398.81 62.8867C405.004 66.066 410.206 70.5665 414.294 76.3057C414.954 77.2141 414.748 78.5354 413.798 79.196C412.849 79.8566 411.569 79.6502 410.908 78.7005C407.192 73.4981 402.485 69.4104 396.911 66.5615C385.061 60.492 369.908 60.492 358.099 66.6028C352.484 69.493 347.777 73.6219 344.061 78.8244C343.731 79.4024 343.111 79.6915 342.451 79.6915ZM368.256 129.528C367.72 129.528 367.183 129.321 366.811 128.908C363.219 125.316 361.278 123.004 358.512 118.008C355.663 112.929 354.177 106.736 354.177 100.088C354.177 87.8254 364.664 77.8334 377.546 77.8334C390.429 77.8334 400.916 87.8254 400.916 100.088C400.916 101.244 400.008 102.153 398.852 102.153C397.696 102.153 396.787 101.244 396.787 100.088C396.787 90.0963 388.158 81.9624 377.546 81.9624C366.935 81.9624 358.306 90.0963 358.306 100.088C358.306 106.034 359.627 111.525 362.146 115.985C364.788 120.733 366.605 122.756 369.784 125.977C370.569 126.802 370.569 128.082 369.784 128.908C369.33 129.321 368.793 129.528 368.256 129.528ZM397.861 121.889C392.947 121.889 388.612 120.65 385.061 118.214C378.909 114.044 375.234 107.273 375.234 100.088C375.234 98.9322 376.143 98.0239 377.299 98.0239C378.455 98.0239 379.363 98.9322 379.363 100.088C379.363 105.91 382.336 111.402 387.373 114.787C390.305 116.769 393.732 117.719 397.861 117.719C398.852 117.719 400.503 117.595 402.155 117.306C403.27 117.1 404.343 117.843 404.55 118.999C404.756 120.114 404.013 121.187 402.857 121.394C400.503 121.848 398.439 121.889 397.861 121.889ZM389.562 130.395C389.396 130.395 389.19 130.353 389.025 130.312C382.46 128.495 378.166 126.059 373.665 121.641C367.885 115.902 364.705 108.264 364.705 100.088C364.705 93.3995 370.403 87.9493 377.423 87.9493C384.442 87.9493 390.14 93.3995 390.14 100.088C390.14 104.506 393.98 108.098 398.728 108.098C403.476 108.098 407.316 104.506 407.316 100.088C407.316 84.5223 393.897 71.8878 377.381 71.8878C365.655 71.8878 354.92 78.4115 350.089 88.5274C348.479 91.8718 347.653 95.7943 347.653 100.088C347.653 103.309 347.942 108.387 350.419 114.994C350.832 116.067 350.296 117.265 349.222 117.636C348.148 118.049 346.951 117.471 346.579 116.439C344.556 111.03 343.565 105.662 343.565 100.088C343.565 95.1336 344.515 90.6331 346.373 86.7106C351.864 75.1909 364.045 67.7176 377.381 67.7176C396.168 67.7176 411.445 82.2101 411.445 100.047C411.445 106.736 405.747 112.186 398.728 112.186C391.709 112.186 386.011 106.736 386.011 100.047C386.011 95.6291 382.171 92.0369 377.423 92.0369C372.674 92.0369 368.834 95.6291 368.834 100.047C368.834 107.108 371.559 113.714 376.555 118.668C380.478 122.55 384.235 124.697 390.057 126.307C391.172 126.596 391.791 127.752 391.502 128.826C391.296 129.775 390.429 130.395 389.562 130.395Z" fill="#002A3D"/>
<path d="M350.186 115.084L350.185 115.082C347.694 108.439 347.403 103.329 347.403 100.088C347.403 95.7627 348.235 91.8023 349.864 88.4191C349.864 88.4191 349.864 88.419 349.864 88.4189L350.089 88.5274L350.186 115.084ZM350.186 115.084C350.55 116.03 350.075 117.076 349.14 117.4L349.14 117.4M350.186 115.084L349.14 117.4M349.14 117.4L349.132 117.403M349.14 117.4L349.132 117.403M349.132 117.403C348.191 117.765 347.139 117.256 346.815 116.354L346.814 116.351M349.132 117.403L346.814 116.351M346.814 116.351C344.801 110.969 343.815 105.631 343.815 100.088C343.815 95.1659 344.759 90.7028 346.599 86.8181C352.047 75.3901 364.136 67.9676 377.381 67.9676C396.042 67.9676 411.195 82.3603 411.195 100.047C411.195 106.587 405.62 111.936 398.728 111.936C391.836 111.936 386.261 106.587 386.261 100.047C386.261 95.4751 382.292 91.7869 377.423 91.7869C372.553 91.7869 368.584 95.4751 368.584 100.047C368.584 107.173 371.336 113.844 376.379 118.846L376.38 118.846M346.814 116.351L376.38 118.846M376.38 118.846C380.335 122.76 384.131 124.927 389.99 126.548L389.994 126.549M376.38 118.846L389.994 126.549M389.994 126.549C390.968 126.801 391.516 127.814 391.261 128.761L391.26 128.761M389.994 126.549L391.26 128.761M391.26 128.761L391.258 128.773M391.26 128.761L391.258 128.773M391.258 128.773C391.078 129.601 390.318 130.145 389.562 130.145C389.429 130.145 389.249 130.11 389.088 130.07M391.258 128.773L389.088 130.07M389.088 130.07C382.563 128.264 378.308 125.849 373.841 121.463L389.088 130.07ZM400.71 57.5498L400.71 57.5496L400.7 57.5447C392.74 53.4403 385.847 51.6951 377.588 51.6951C369.372 51.6951 361.568 53.6455 354.47 57.5474C353.605 58.0155 352.514 57.6959 352 56.8186C351.531 55.9478 351.86 54.8227 352.727 54.3532L352.727 54.3531C360.37 50.2029 368.752 48.0662 377.588 48.0662C386.339 48.0662 393.98 49.9957 402.37 54.3142C403.279 54.7872 403.602 55.8726 403.132 56.7394L403.132 56.7394L403.129 56.7467C402.799 57.4065 402.183 57.7646 401.535 57.7646C401.246 57.7646 400.959 57.6922 400.71 57.5498ZM356.355 63.1504L356.356 63.1502C369.249 56.4983 385.762 56.4573 398.696 63.1091L398.696 63.1091C404.854 66.27 410.026 70.7439 414.09 76.4508L414.092 76.4528C414.67 77.2486 414.489 78.4107 413.656 78.9908C412.815 79.5755 411.692 79.3899 411.113 78.5577L411.112 78.5552C407.373 73.3211 402.636 69.2066 397.025 66.339C385.104 60.2329 369.865 60.2326 357.985 66.3806C352.333 69.2897 347.596 73.4455 343.857 78.6791L343.85 78.6894L343.844 78.7003C343.567 79.1853 343.041 79.4415 342.451 79.4415C342.089 79.4415 341.725 79.3335 341.394 79.1132C340.564 78.5341 340.379 77.4129 340.962 76.5731C345.027 70.8252 350.199 66.3108 356.355 63.1504ZM366.997 128.741L366.997 128.741L366.988 128.731C363.409 125.152 361.484 122.858 358.731 117.887L358.73 117.886C355.905 112.85 354.427 106.7 354.427 100.088C354.427 87.9748 364.791 78.0834 377.546 78.0834C390.302 78.0834 400.666 87.9748 400.666 100.088C400.666 101.106 399.87 101.903 398.852 101.903C397.834 101.903 397.037 101.106 397.037 100.088C397.037 89.9445 388.282 81.7124 377.546 81.7124C366.811 81.7124 358.056 89.9445 358.056 100.088C358.056 106.069 359.385 111.604 361.927 116.107C364.584 120.88 366.416 122.921 369.604 126.151C370.294 126.878 370.295 128.001 369.609 128.729C369.199 129.099 368.724 129.278 368.256 129.278C367.781 129.278 367.315 129.095 366.997 128.741ZM385.202 118.008L385.201 118.007C379.115 113.882 375.484 107.186 375.484 100.088C375.484 99.0703 376.281 98.2739 377.299 98.2739C378.317 98.2739 379.113 99.0703 379.113 100.088C379.113 105.997 382.13 111.564 387.234 114.995C390.214 117.009 393.691 117.969 397.861 117.969C398.867 117.969 400.533 117.844 402.198 117.552L402.2 117.552C403.176 117.371 404.121 118.02 404.303 119.043L404.304 119.044C404.484 120.02 403.836 120.965 402.813 121.147L402.809 121.148C400.477 121.598 398.43 121.639 397.861 121.639C392.99 121.639 388.706 120.412 385.202 118.008Z" stroke="#01F2FF" stroke-opacity="0.66" stroke-width="0.5"/>
<path fill-rule="evenodd" clip-rule="evenodd" d="M438.281 8.93505H316.813C306.079 8.93505 297.377 17.6369 297.377 28.3713V149.839C297.377 160.574 306.079 169.275 316.813 169.275H438.281C449.015 169.275 457.717 160.574 457.717 149.839V28.3713C457.717 17.637 449.015 8.93505 438.281 8.93505ZM316.813 0.605225C301.478 0.605225 289.047 13.0365 289.047 28.3713V149.839C289.047 165.174 301.478 177.605 316.813 177.605H438.281C453.616 177.605 466.047 165.174 466.047 149.839V28.3713C466.047 13.0365 453.616 0.605225 438.281 0.605225H316.813Z" fill="#01F2FF" fill-opacity="0.3"/>
<path fill-rule="evenodd" clip-rule="evenodd" d="M290.779 30.7964C290.779 15.0783 303.521 2.33618 319.24 2.33618H435.857C451.575 2.33618 464.317 15.0783 464.317 30.7964V147.414C464.317 163.132 451.575 175.874 435.857 175.874H319.24C303.521 175.874 290.779 163.132 290.779 147.414V30.7964ZM319.24 3.72449C304.288 3.72449 292.168 15.845 292.168 30.7964V147.414C292.168 162.365 304.288 174.486 319.24 174.486H435.857C450.808 174.486 462.929 162.365 462.929 147.414V30.7964C462.929 15.845 450.808 3.72449 435.857 3.72449H319.24Z" fill="url(#paint6_linear_788_20129)"/>
<path fill-rule="evenodd" clip-rule="evenodd" d="M319.24 175.874C303.521 175.874 290.779 163.132 290.779 147.414L290.779 30.7964C290.779 15.0782 303.521 2.33617 319.24 2.33617L435.857 2.33617C451.575 2.33617 464.317 15.0782 464.317 30.7964L464.317 147.414C464.317 163.132 451.575 175.874 435.857 175.874L319.24 175.874ZM292.168 147.414C292.168 162.365 304.288 174.486 319.24 174.486L435.857 174.486C450.808 174.486 462.929 162.365 462.929 147.414L462.929 30.7964C462.929 15.845 450.808 3.72447 435.857 3.72447L319.24 3.72447C304.288 3.72447 292.168 15.845 292.168 30.7964L292.168 147.414Z" fill="url(#paint7_linear_788_20129)"/>
<path fill-rule="evenodd" clip-rule="evenodd" d="M464.316 147.414C464.316 163.132 451.574 175.874 435.856 175.874L319.239 175.874C303.521 175.874 290.778 163.132 290.778 147.414L290.778 30.7964C290.778 15.0783 303.52 2.33618 319.239 2.33618L435.856 2.33617C451.574 2.33617 464.316 15.0782 464.316 30.7964L464.316 147.414ZM435.856 174.486C450.808 174.486 462.928 162.365 462.928 147.414L462.928 30.7964C462.928 15.845 450.808 3.72447 435.856 3.72447L319.239 3.72448C304.287 3.72449 292.167 15.845 292.167 30.7964L292.167 147.414C292.167 162.365 304.287 174.486 319.239 174.486L435.856 174.486Z" fill="url(#paint8_linear_788_20129)"/>
<path fill-rule="evenodd" clip-rule="evenodd" d="M435.856 2.33618C451.574 2.33618 464.316 15.0783 464.316 30.7964L464.316 147.414C464.316 163.132 451.574 175.874 435.856 175.874L319.239 175.874C303.521 175.874 290.778 163.132 290.778 147.414L290.778 30.7964C290.778 15.0783 303.521 2.33618 319.239 2.33618L435.856 2.33618ZM462.928 30.7964C462.928 15.845 450.808 3.72449 435.856 3.72449L319.239 3.72449C304.287 3.72449 292.167 15.845 292.167 30.7964L292.167 147.414C292.167 162.365 304.287 174.486 319.239 174.486L435.856 174.486C450.808 174.486 462.928 162.365 462.928 147.414L462.928 30.7964Z" fill="url(#paint9_linear_788_20129)"/>
<circle cx="185.892" cy="322.424" r="9.32139" fill="#01F2FF" fill-opacity="0.25" stroke="#01F2FF" stroke-width="2"/>
<circle cx="225.235" cy="322.424" r="9.32139" fill="#01F2FF" fill-opacity="0.25" stroke="#01F2FF" stroke-width="2"/>
<circle cx="264.579" cy="322.424" r="9.32139" fill="#01F2FF" fill-opacity="0.25" stroke="#01F2FF" stroke-width="2"/>
<circle cx="303.923" cy="322.424" r="9.32139" fill="#01F2FF" fill-opacity="0.25" stroke="#01F2FF" stroke-width="2"/>
<defs>
<filter id="filter0_f_788_20129" x="146.361" y="114.065" width="196.469" height="213.986" filterUnits="userSpaceOnUse" color-interpolation-filters="sRGB">
<feFlood flood-opacity="0" result="BackgroundImageFix"/>
<feBlend mode="normal" in="SourceGraphic" in2="BackgroundImageFix" result="shape"/>
<feGaussianBlur stdDeviation="7.5" result="effect1_foregroundBlur_788_20129"/>
</filter>
<filter id="filter1_f_788_20129" x="176.693" y="117.659" width="136.428" height="169.403" filterUnits="userSpaceOnUse" color-interpolation-filters="sRGB">
<feFlood flood-opacity="0" result="BackgroundImageFix"/>
<feBlend mode="normal" in="SourceGraphic" in2="BackgroundImageFix" result="shape"/>
<feGaussianBlur stdDeviation="10" result="effect1_foregroundBlur_788_20129"/>
</filter>
<filter id="filter2_f_788_20129" x="69.8848" y="48.4294" width="88.7754" height="84.8132" filterUnits="userSpaceOnUse" color-interpolation-filters="sRGB">
<feFlood flood-opacity="0" result="BackgroundImageFix"/>
<feBlend mode="normal" in="SourceGraphic" in2="BackgroundImageFix" result="shape"/>
<feGaussianBlur stdDeviation="5" result="effect1_foregroundBlur_788_20129"/>
</filter>
<filter id="filter3_f_788_20129" x="318" y="29.5583" width="119.094" height="119.094" filterUnits="userSpaceOnUse" color-interpolation-filters="sRGB">
<feFlood flood-opacity="0" result="BackgroundImageFix"/>
<feBlend mode="normal" in="SourceGraphic" in2="BackgroundImageFix" result="shape"/>
<feGaussianBlur stdDeviation="5" result="effect1_foregroundBlur_788_20129"/>
</filter>
<linearGradient id="paint0_linear_788_20129" x1="357.785" y1="336.459" x2="136.645" y2="97.0666" gradientUnits="userSpaceOnUse">
<stop stop-color="#00FFD3" stop-opacity="0.79"/>
<stop offset="0.40625" stop-color="#00FFD3" stop-opacity="0.14"/>
<stop offset="1" stop-color="#00FFD3" stop-opacity="0"/>
</linearGradient>
<linearGradient id="paint1_linear_788_20129" x1="121.313" y1="76.6048" x2="344.828" y2="321.774" gradientUnits="userSpaceOnUse">
<stop stop-color="#00FCDF" stop-opacity="0.736122"/>
<stop offset="0.557292" stop-color="#01F2FF" stop-opacity="0"/>
</linearGradient>
<linearGradient id="paint2_linear_788_20129" x1="28.1961" y1="4.76129" x2="200.346" y2="176.911" gradientUnits="userSpaceOnUse">
<stop stop-color="#00FFD3"/>
<stop offset="0.1807" stop-color="#00FFD3" stop-opacity="0"/>
</linearGradient>
<linearGradient id="paint3_linear_788_20129" x1="28.1961" y1="176.911" x2="200.346" y2="4.76122" gradientUnits="userSpaceOnUse">
<stop stop-color="#00FFD3"/>
<stop offset="0.1807" stop-color="#00FFD3" stop-opacity="0"/>
</linearGradient>
<linearGradient id="paint4_linear_788_20129" x1="200.347" y1="176.911" x2="28.1971" y2="4.76123" gradientUnits="userSpaceOnUse">
<stop stop-color="#00FFD3"/>
<stop offset="0.1807" stop-color="#00FFD3" stop-opacity="0"/>
</linearGradient>
<linearGradient id="paint5_linear_788_20129" x1="200.347" y1="4.76129" x2="28.1971" y2="176.911" gradientUnits="userSpaceOnUse">
<stop stop-color="#00FFD3"/>
<stop offset="0.1807" stop-color="#00FFD3" stop-opacity="0"/>
</linearGradient>
<linearGradient id="paint6_linear_788_20129" x1="291.473" y1="3.03033" x2="463.623" y2="175.18" gradientUnits="userSpaceOnUse">
<stop stop-color="#00FFD3"/>
<stop offset="0.1807" stop-color="#00FFD3" stop-opacity="0"/>
</linearGradient>
<linearGradient id="paint7_linear_788_20129" x1="291.473" y1="175.18" x2="463.623" y2="3.03026" gradientUnits="userSpaceOnUse">
<stop stop-color="#00FFD3"/>
<stop offset="0.1807" stop-color="#00FFD3" stop-opacity="0"/>
</linearGradient>
<linearGradient id="paint8_linear_788_20129" x1="463.622" y1="175.18" x2="291.473" y2="3.03027" gradientUnits="userSpaceOnUse">
<stop stop-color="#00FFD3"/>
<stop offset="0.1807" stop-color="#00FFD3" stop-opacity="0"/>
</linearGradient>
<linearGradient id="paint9_linear_788_20129" x1="463.622" y1="3.03033" x2="291.473" y2="175.18" gradientUnits="userSpaceOnUse">
<stop stop-color="#00FFD3"/>
<stop offset="0.1807" stop-color="#00FFD3" stop-opacity="0"/>
</linearGradient>
</defs>
</svg>
