<svg width="490" height="361" viewBox="0 0 490 361" fill="none" xmlns="http://www.w3.org/2000/svg">
<path fill-rule="evenodd" clip-rule="evenodd" d="M0.619141 89.8362C0.619141 89.2839 1.06686 88.8362 1.61914 88.8362L3.40704 88.8362C3.95932 88.8362 4.40704 89.2839 4.40704 89.8362C4.40704 90.3885 3.95932 90.8362 3.40704 90.8362L1.61914 90.8362C1.06686 90.8362 0.61914 90.3885 0.619141 89.8362ZM5.98283 89.8362C5.98283 89.2839 6.43055 88.8362 6.98283 88.8362L10.5586 88.8362C11.1109 88.8362 11.5586 89.2839 11.5586 89.8362C11.5586 90.3885 11.1109 90.8362 10.5586 90.8362L6.98283 90.8362C6.43055 90.8362 5.98283 90.3885 5.98283 89.8362ZM13.1344 89.8362C13.1344 89.2839 13.5821 88.8362 14.1344 88.8362L17.7102 88.8362C18.2625 88.8362 18.7102 89.2839 18.7102 89.8362C18.7102 90.3885 18.2625 90.8362 17.7102 90.8362L14.1344 90.8362C13.5821 90.8362 13.1344 90.3885 13.1344 89.8362ZM20.286 89.8362C20.286 89.2839 20.7337 88.8362 21.286 88.8362L23.0739 88.8362C23.6262 88.8362 24.0739 89.2839 24.0739 89.8362C24.0739 90.3885 23.6262 90.8362 23.0739 90.8362L21.286 90.8362C20.7337 90.8362 20.286 90.3885 20.286 89.8362Z" fill="#3B9E9A" fill-opacity="0.5"/>
<path fill-rule="evenodd" clip-rule="evenodd" d="M466.35 85.3938C466.35 84.8415 466.797 84.3938 467.35 84.3938L469.778 84.3938C470.331 84.3938 470.778 84.8415 470.778 85.3938C470.778 85.9461 470.331 86.3938 469.778 86.3938L467.35 86.3938C466.797 86.3938 466.35 85.9461 466.35 85.3938ZM473.636 85.3937C473.636 84.8415 474.083 84.3937 474.636 84.3937L479.493 84.3937C480.045 84.3937 480.493 84.8414 480.493 85.3937C480.493 85.946 480.045 86.3937 479.493 86.3937L474.636 86.3937C474.083 86.3937 473.636 85.946 473.636 85.3937ZM483.351 85.3937C483.351 84.8414 483.798 84.3937 484.351 84.3937L486.779 84.3937C487.332 84.3937 487.779 84.8414 487.779 85.3936C487.779 85.9459 487.332 86.3937 486.779 86.3937L484.351 86.3937C483.798 86.3937 483.351 85.946 483.351 85.3937Z" fill="#3B9E9A" fill-opacity="0.5"/>
<path fill-rule="evenodd" clip-rule="evenodd" d="M0.619141 313.848C0.619141 313.296 1.06686 312.848 1.61914 312.848H3.56766C4.11995 312.848 4.56766 313.296 4.56766 313.848C4.56766 314.4 4.11995 314.848 3.56766 314.848H1.61914C1.06686 314.848 0.619141 314.4 0.619141 313.848ZM6.46471 313.848C6.46471 313.296 6.91243 312.848 7.46471 312.848H11.3618C11.914 312.848 12.3618 313.296 12.3618 313.848C12.3618 314.4 11.914 314.848 11.3618 314.848H7.46471C6.91243 314.848 6.46471 314.4 6.46471 313.848ZM14.2588 313.848C14.2588 313.296 14.7065 312.848 15.2588 312.848H19.1558C19.7081 312.848 20.1558 313.296 20.1558 313.848C20.1558 314.4 19.7081 314.848 19.1558 314.848H15.2588C14.7065 314.848 14.2588 314.4 14.2588 313.848ZM22.0529 313.848C22.0529 313.296 22.5006 312.848 23.0529 312.848H26.9499C27.5022 312.848 27.9499 313.296 27.9499 313.848C27.9499 314.4 27.5022 314.848 26.9499 314.848H23.0529C22.5006 314.848 22.0529 314.4 22.0529 313.848ZM29.847 313.848C29.847 313.296 30.2947 312.848 30.847 312.848H34.744C35.2963 312.848 35.744 313.296 35.744 313.848C35.744 314.4 35.2963 314.848 34.744 314.848H30.847C30.2947 314.848 29.847 314.4 29.847 313.848ZM37.6411 313.848C37.6411 313.296 38.0888 312.848 38.6411 312.848H42.5381C43.0904 312.848 43.5381 313.296 43.5381 313.848C43.5381 314.4 43.0904 314.848 42.5381 314.848H38.6411C38.0888 314.848 37.6411 314.4 37.6411 313.848ZM45.4352 313.848C45.4352 313.296 45.8829 312.848 46.4352 312.848H50.3322C50.8845 312.848 51.3322 313.296 51.3322 313.848C51.3322 314.4 50.8845 314.848 50.3322 314.848H46.4352C45.8829 314.848 45.4352 314.4 45.4352 313.848ZM53.2293 313.848C53.2293 313.296 53.677 312.848 54.2293 312.848H58.1263C58.6786 312.848 59.1263 313.296 59.1263 313.848C59.1263 314.4 58.6786 314.848 58.1263 314.848H54.2293C53.677 314.848 53.2293 314.4 53.2293 313.848ZM61.0233 313.848C61.0233 313.296 61.4711 312.848 62.0233 312.848H65.9204C66.4727 312.848 66.9204 313.296 66.9204 313.848C66.9204 314.4 66.4727 314.848 65.9204 314.848H62.0233C61.4711 314.848 61.0233 314.4 61.0233 313.848ZM68.8175 313.848C68.8175 313.296 69.2652 312.848 69.8175 312.848H73.7145C74.2668 312.848 74.7145 313.296 74.7145 313.848C74.7145 314.4 74.2668 314.848 73.7145 314.848H69.8175C69.2652 314.848 68.8175 314.4 68.8175 313.848ZM76.6115 313.848C76.6115 313.296 77.0593 312.848 77.6115 312.848H81.5086C82.0609 312.848 82.5086 313.296 82.5086 313.848C82.5086 314.4 82.0609 314.848 81.5086 314.848H77.6115C77.0593 314.848 76.6115 314.4 76.6115 313.848ZM84.4056 313.848C84.4056 313.296 84.8534 312.848 85.4056 312.848H89.3027C89.855 312.848 90.3027 313.296 90.3027 313.848C90.3027 314.4 89.855 314.848 89.3027 314.848H85.4056C84.8534 314.848 84.4056 314.4 84.4056 313.848ZM92.1997 313.848C92.1997 313.296 92.6475 312.848 93.1997 312.848H97.0968C97.6491 312.848 98.0968 313.296 98.0968 313.848C98.0968 314.4 97.6491 314.848 97.0968 314.848H93.1997C92.6475 314.848 92.1997 314.4 92.1997 313.848ZM99.9938 313.848C99.9938 313.296 100.442 312.848 100.994 312.848H104.891C105.443 312.848 105.891 313.296 105.891 313.848C105.891 314.4 105.443 314.848 104.891 314.848H100.994C100.442 314.848 99.9938 314.4 99.9938 313.848ZM107.788 313.848C107.788 313.296 108.236 312.848 108.788 312.848H112.685C113.237 312.848 113.685 313.296 113.685 313.848C113.685 314.4 113.237 314.848 112.685 314.848H108.788C108.236 314.848 107.788 314.4 107.788 313.848ZM115.582 313.848C115.582 313.296 116.03 312.848 116.582 312.848H118.531C119.083 312.848 119.531 313.296 119.531 313.848C119.531 314.4 119.083 314.848 118.531 314.848H116.582C116.03 314.848 115.582 314.4 115.582 313.848Z" fill="#3B9E9A" fill-opacity="0.5"/>
<path fill-rule="evenodd" clip-rule="evenodd" d="M368.918 313.848C368.918 313.296 369.366 312.848 369.918 312.848H371.866C372.418 312.848 372.866 313.296 372.866 313.848C372.866 314.4 372.418 314.848 371.866 314.848H369.918C369.366 314.848 368.918 314.4 368.918 313.848ZM374.761 313.848C374.761 313.296 375.209 312.848 375.761 312.848H379.656C380.209 312.848 380.656 313.296 380.656 313.848C380.656 314.4 380.209 314.848 379.656 314.848H375.761C375.209 314.848 374.761 314.4 374.761 313.848ZM382.552 313.848C382.552 313.296 383 312.848 383.552 312.848H387.447C387.999 312.848 388.447 313.296 388.447 313.848C388.447 314.4 387.999 314.848 387.447 314.848H383.552C383 314.848 382.552 314.4 382.552 313.848ZM390.343 313.848C390.343 313.296 390.79 312.848 391.343 312.848H395.238C395.79 312.848 396.238 313.296 396.238 313.848C396.238 314.4 395.79 314.848 395.238 314.848H391.343C390.79 314.848 390.343 314.4 390.343 313.848ZM398.133 313.848C398.133 313.296 398.581 312.848 399.133 312.848H403.029C403.581 312.848 404.029 313.296 404.029 313.848C404.029 314.4 403.581 314.848 403.029 314.848H399.133C398.581 314.848 398.133 314.4 398.133 313.848ZM405.924 313.848C405.924 313.296 406.372 312.848 406.924 312.848H410.819C411.372 312.848 411.819 313.296 411.819 313.848C411.819 314.4 411.372 314.848 410.819 314.848H406.924C406.372 314.848 405.924 314.4 405.924 313.848ZM413.715 313.848C413.715 313.296 414.163 312.848 414.715 312.848H418.61C419.162 312.848 419.61 313.296 419.61 313.848C419.61 314.4 419.162 314.848 418.61 314.848H414.715C414.163 314.848 413.715 314.4 413.715 313.848ZM421.506 313.848C421.506 313.296 421.953 312.848 422.506 312.848H426.401C426.953 312.848 427.401 313.296 427.401 313.848C427.401 314.4 426.953 314.848 426.401 314.848H422.506C421.953 314.848 421.506 314.4 421.506 313.848ZM429.296 313.848C429.296 313.296 429.744 312.848 430.296 312.848H434.192C434.744 312.848 435.192 313.296 435.192 313.848C435.192 314.4 434.744 314.848 434.192 314.848H430.296C429.744 314.848 429.296 314.4 429.296 313.848ZM437.087 313.848C437.087 313.296 437.535 312.848 438.087 312.848H441.982C442.535 312.848 442.982 313.296 442.982 313.848C442.982 314.4 442.535 314.848 441.982 314.848H438.087C437.535 314.848 437.087 314.4 437.087 313.848ZM444.878 313.848C444.878 313.296 445.326 312.848 445.878 312.848H449.773C450.326 312.848 450.773 313.296 450.773 313.848C450.773 314.4 450.326 314.848 449.773 314.848H445.878C445.326 314.848 444.878 314.4 444.878 313.848ZM452.669 313.848C452.669 313.296 453.116 312.848 453.669 312.848H457.564C458.116 312.848 458.564 313.296 458.564 313.848C458.564 314.4 458.116 314.848 457.564 314.848H453.669C453.116 314.848 452.669 314.4 452.669 313.848ZM460.459 313.848C460.459 313.296 460.907 312.848 461.459 312.848H465.355C465.907 312.848 466.355 313.296 466.355 313.848C466.355 314.4 465.907 314.848 465.355 314.848H461.459C460.907 314.848 460.459 314.4 460.459 313.848ZM468.25 313.848C468.25 313.296 468.698 312.848 469.25 312.848H473.145C473.698 312.848 474.145 313.296 474.145 313.848C474.145 314.4 473.698 314.848 473.145 314.848H469.25C468.698 314.848 468.25 314.4 468.25 313.848ZM476.041 313.848C476.041 313.296 476.489 312.848 477.041 312.848H480.936C481.489 312.848 481.936 313.296 481.936 313.848C481.936 314.4 481.489 314.848 480.936 314.848H477.041C476.489 314.848 476.041 314.4 476.041 313.848ZM483.832 313.848C483.832 313.296 484.279 312.848 484.832 312.848H486.779C487.332 312.848 487.779 313.296 487.779 313.848C487.779 314.4 487.332 314.848 486.779 314.848H484.832C484.279 314.848 483.832 314.4 483.832 313.848Z" fill="#3B9E9A" fill-opacity="0.5"/>
<path fill-rule="evenodd" clip-rule="evenodd" d="M1.61914 91.0204C2.17143 91.0204 2.61914 91.4681 2.61914 92.0204V94.001C2.61914 94.5533 2.17143 95.001 1.61914 95.001C1.06686 95.001 0.619141 94.5533 0.619141 94.001V92.0204C0.619141 91.4681 1.06686 91.0204 1.61914 91.0204ZM1.61914 96.9622C2.17143 96.9622 2.61914 97.4099 2.61914 97.9622V101.923C2.61914 102.476 2.17143 102.923 1.61914 102.923C1.06686 102.923 0.619141 102.476 0.619141 101.923L0.619141 97.9622C0.619141 97.4099 1.06686 96.9622 1.61914 96.9622ZM1.61914 104.885C2.17143 104.885 2.61914 105.332 2.61914 105.885L2.61914 109.846C2.61914 110.398 2.17143 110.846 1.61914 110.846C1.06686 110.846 0.619141 110.398 0.619141 109.846L0.619141 105.885C0.619141 105.332 1.06686 104.885 1.61914 104.885ZM1.61914 112.807C2.17143 112.807 2.61914 113.255 2.61914 113.807V117.768C2.61914 118.321 2.17143 118.768 1.61914 118.768C1.06686 118.768 0.619141 118.321 0.619141 117.768V113.807C0.619141 113.255 1.06686 112.807 1.61914 112.807ZM1.61914 120.729C2.17143 120.729 2.61914 121.177 2.61914 121.729L2.61914 125.691C2.61914 126.243 2.17143 126.691 1.61914 126.691C1.06686 126.691 0.619141 126.243 0.619141 125.691L0.619141 121.729C0.619141 121.177 1.06686 120.729 1.61914 120.729ZM1.61914 128.652C2.17143 128.652 2.61914 129.1 2.61914 129.652V133.613C2.61914 134.165 2.17143 134.613 1.61914 134.613C1.06686 134.613 0.619141 134.165 0.619141 133.613L0.619141 129.652C0.619141 129.1 1.06686 128.652 1.61914 128.652ZM1.61914 136.574C2.17143 136.574 2.61914 137.022 2.61914 137.574V141.536C2.61914 142.088 2.17143 142.536 1.61914 142.536C1.06686 142.536 0.619141 142.088 0.619141 141.536V137.574C0.619141 137.022 1.06686 136.574 1.61914 136.574ZM1.61914 144.497C2.17143 144.497 2.61914 144.944 2.61914 145.497L2.61914 149.458C2.61914 150.01 2.17143 150.458 1.61914 150.458C1.06686 150.458 0.619141 150.01 0.619141 149.458V145.497C0.619141 144.944 1.06686 144.497 1.61914 144.497ZM1.61914 152.419C2.17143 152.419 2.61914 152.867 2.61914 153.419V157.38C2.61914 157.933 2.17143 158.38 1.61914 158.38C1.06686 158.38 0.619141 157.933 0.619141 157.38L0.619141 153.419C0.619141 152.867 1.06686 152.419 1.61914 152.419ZM1.61914 160.342C2.17143 160.342 2.61914 160.789 2.61914 161.342V165.303C2.61914 165.855 2.17143 166.303 1.61914 166.303C1.06686 166.303 0.619141 165.855 0.619141 165.303L0.619141 161.342C0.619141 160.789 1.06686 160.342 1.61914 160.342ZM1.61914 168.264C2.17143 168.264 2.61914 168.712 2.61914 169.264L2.61914 173.225C2.61914 173.778 2.17143 174.225 1.61914 174.225C1.06686 174.225 0.619141 173.778 0.619141 173.225V169.264C0.619141 168.712 1.06686 168.264 1.61914 168.264ZM1.61914 176.186C2.17143 176.186 2.61914 176.634 2.61914 177.186V181.148C2.61914 181.7 2.17143 182.148 1.61914 182.148C1.06686 182.148 0.619141 181.7 0.619141 181.148L0.619141 177.186C0.619141 176.634 1.06686 176.186 1.61914 176.186ZM1.61914 184.109C2.17143 184.109 2.61914 184.557 2.61914 185.109V189.07C2.61914 189.622 2.17143 190.07 1.61914 190.07C1.06686 190.07 0.619141 189.622 0.619141 189.07L0.619141 185.109C0.619141 184.557 1.06686 184.109 1.61914 184.109ZM1.61914 192.031C2.17143 192.031 2.61914 192.479 2.61914 193.031L2.61914 196.992C2.61914 197.545 2.17143 197.992 1.61914 197.992C1.06686 197.992 0.619141 197.545 0.619141 196.992L0.619141 193.031C0.619141 192.479 1.06686 192.031 1.61914 192.031ZM1.61914 199.954C2.17143 199.954 2.61914 200.401 2.61914 200.954V204.915C2.61914 205.467 2.17143 205.915 1.61914 205.915C1.06686 205.915 0.619141 205.467 0.619141 204.915V200.954C0.619141 200.401 1.06686 199.954 1.61914 199.954ZM1.61914 207.876C2.17143 207.876 2.61914 208.324 2.61914 208.876V212.837C2.61914 213.39 2.17143 213.837 1.61914 213.837C1.06686 213.837 0.619141 213.39 0.619141 212.837L0.619141 208.876C0.619141 208.324 1.06686 207.876 1.61914 207.876ZM1.61914 215.799C2.17143 215.799 2.61914 216.246 2.61914 216.799V220.76C2.61914 221.312 2.17143 221.76 1.61914 221.76C1.06686 221.76 0.619141 221.312 0.619141 220.76L0.619141 216.799C0.619141 216.246 1.06686 215.799 1.61914 215.799ZM1.61914 223.721C2.17143 223.721 2.61914 224.169 2.61914 224.721V228.682C2.61914 229.234 2.17143 229.682 1.61914 229.682C1.06686 229.682 0.619141 229.234 0.619141 228.682V224.721C0.619141 224.169 1.06686 223.721 1.61914 223.721ZM1.61914 231.643C2.17143 231.643 2.61914 232.091 2.61914 232.643L2.61914 236.605C2.61914 237.157 2.17143 237.605 1.61914 237.605C1.06686 237.605 0.619141 237.157 0.619141 236.605L0.619141 232.643C0.619141 232.091 1.06686 231.643 1.61914 231.643ZM1.61914 239.566C2.17143 239.566 2.61914 240.014 2.61914 240.566V244.527C2.61914 245.079 2.17143 245.527 1.61914 245.527C1.06686 245.527 0.619141 245.079 0.619141 244.527L0.619141 240.566C0.619141 240.014 1.06686 239.566 1.61914 239.566ZM1.61914 247.488C2.17143 247.488 2.61914 247.936 2.61914 248.488V252.449C2.61914 253.002 2.17143 253.449 1.61914 253.449C1.06686 253.449 0.619141 253.002 0.619141 252.449L0.619141 248.488C0.619141 247.936 1.06686 247.488 1.61914 247.488ZM1.61914 255.411C2.17143 255.411 2.61914 255.858 2.61914 256.411L2.61914 260.372C2.61914 260.924 2.17143 261.372 1.61914 261.372C1.06686 261.372 0.619141 260.924 0.619141 260.372V256.411C0.619141 255.858 1.06686 255.411 1.61914 255.411ZM1.61914 263.333C2.17143 263.333 2.61914 263.781 2.61914 264.333V268.294C2.61914 268.847 2.17143 269.294 1.61914 269.294C1.06686 269.294 0.619141 268.847 0.619141 268.294L0.619141 264.333C0.619141 263.781 1.06686 263.333 1.61914 263.333ZM1.61914 271.256C2.17143 271.256 2.61914 271.703 2.61914 272.256V276.217C2.61914 276.769 2.17143 277.217 1.61914 277.217C1.06686 277.217 0.619141 276.769 0.619141 276.217L0.619141 272.256C0.619141 271.703 1.06686 271.256 1.61914 271.256ZM1.61914 279.178C2.17143 279.178 2.61914 279.626 2.61914 280.178L2.61914 284.139C2.61914 284.691 2.17143 285.139 1.61914 285.139C1.06686 285.139 0.619141 284.691 0.619141 284.139V280.178C0.619141 279.626 1.06686 279.178 1.61914 279.178ZM1.61914 287.1C2.17143 287.1 2.61914 287.548 2.61914 288.1V292.062C2.61914 292.614 2.17143 293.062 1.61914 293.062C1.06686 293.062 0.619141 292.614 0.619141 292.062V288.1C0.619141 287.548 1.06686 287.1 1.61914 287.1ZM1.61914 295.023C2.17143 295.023 2.61914 295.471 2.61914 296.023V299.984C2.61914 300.536 2.17143 300.984 1.61914 300.984C1.06686 300.984 0.619141 300.536 0.619141 299.984L0.619141 296.023C0.619141 295.471 1.06686 295.023 1.61914 295.023ZM1.61914 302.945C2.17143 302.945 2.61914 303.393 2.61914 303.945L2.61914 307.906C2.61914 308.459 2.17143 308.906 1.61914 308.906C1.06686 308.906 0.619141 308.459 0.619141 307.906L0.619141 303.945C0.619141 303.393 1.06686 302.945 1.61914 302.945ZM1.61914 310.868C2.17143 310.868 2.61914 311.315 2.61914 311.868V313.848C2.61914 314.4 2.17143 314.848 1.61914 314.848C1.06686 314.848 0.619141 314.4 0.619141 313.848V311.868C0.619141 311.315 1.06686 310.868 1.61914 310.868Z" fill="#3B9E9A" fill-opacity="0.5"/>
<path fill-rule="evenodd" clip-rule="evenodd" d="M488.779 86.3936C489.332 86.3936 489.779 86.8413 489.779 87.3936V89.391C489.779 89.9432 489.332 90.391 488.779 90.391C488.227 90.391 487.779 89.9432 487.779 89.391V87.3936C487.779 86.8413 488.227 86.3936 488.779 86.3936ZM488.779 92.3858C489.332 92.3858 489.779 92.8335 489.779 93.3858V97.3805C489.779 97.9328 489.332 98.3805 488.779 98.3805C488.227 98.3805 487.779 97.9328 487.779 97.3805V93.3858C487.779 92.8335 488.227 92.3858 488.779 92.3858ZM488.779 100.375C489.332 100.375 489.779 100.823 489.779 101.375V105.37C489.779 105.922 489.332 106.37 488.779 106.37C488.227 106.37 487.779 105.922 487.779 105.37V101.375C487.779 100.823 488.227 100.375 488.779 100.375ZM488.779 108.365C489.332 108.365 489.779 108.813 489.779 109.365V113.36C489.779 113.912 489.332 114.36 488.779 114.36C488.227 114.36 487.779 113.912 487.779 113.36V109.365C487.779 108.813 488.227 108.365 488.779 108.365ZM488.779 116.355C489.332 116.355 489.779 116.802 489.779 117.355V121.349C489.779 121.902 489.332 122.349 488.779 122.349C488.227 122.349 487.779 121.902 487.779 121.349V117.355C487.779 116.802 488.227 116.355 488.779 116.355ZM488.779 124.344C489.332 124.344 489.779 124.792 489.779 125.344V129.339C489.779 129.891 489.332 130.339 488.779 130.339C488.227 130.339 487.779 129.891 487.779 129.339V125.344C487.779 124.792 488.227 124.344 488.779 124.344ZM488.779 132.334C489.332 132.334 489.779 132.781 489.779 133.334V137.329C489.779 137.881 489.332 138.329 488.779 138.329C488.227 138.329 487.779 137.881 487.779 137.329V133.334C487.779 132.781 488.227 132.334 488.779 132.334ZM488.779 140.323C489.332 140.323 489.779 140.771 489.779 141.323V145.318C489.779 145.87 489.332 146.318 488.779 146.318C488.227 146.318 487.779 145.87 487.779 145.318V141.323C487.779 140.771 488.227 140.323 488.779 140.323ZM488.779 148.313C489.332 148.313 489.779 148.761 489.779 149.313V153.308C489.779 153.86 489.332 154.308 488.779 154.308C488.227 154.308 487.779 153.86 487.779 153.308V149.313C487.779 148.761 488.227 148.313 488.779 148.313ZM488.779 156.303C489.332 156.303 489.779 156.75 489.779 157.303V161.297C489.779 161.85 489.332 162.297 488.779 162.297C488.227 162.297 487.779 161.85 487.779 161.297V157.303C487.779 156.75 488.227 156.303 488.779 156.303ZM488.779 164.292C489.332 164.292 489.779 164.74 489.779 165.292V169.287C489.779 169.839 489.332 170.287 488.779 170.287C488.227 170.287 487.779 169.839 487.779 169.287V165.292C487.779 164.74 488.227 164.292 488.779 164.292ZM488.779 172.282C489.332 172.282 489.779 172.729 489.779 173.282V177.276C489.779 177.829 489.332 178.276 488.779 178.276C488.227 178.276 487.779 177.829 487.779 177.276V173.282C487.779 172.729 488.227 172.282 488.779 172.282ZM488.779 180.271C489.332 180.271 489.779 180.719 489.779 181.271V185.266C489.779 185.818 489.332 186.266 488.779 186.266C488.227 186.266 487.779 185.818 487.779 185.266V181.271C487.779 180.719 488.227 180.271 488.779 180.271ZM488.779 188.261C489.332 188.261 489.779 188.709 489.779 189.261V193.256C489.779 193.808 489.332 194.256 488.779 194.256C488.227 194.256 487.779 193.808 487.779 193.256V189.261C487.779 188.709 488.227 188.261 488.779 188.261ZM488.779 196.25C489.332 196.25 489.779 196.698 489.779 197.25V201.245C489.779 201.798 489.332 202.245 488.779 202.245C488.227 202.245 487.779 201.798 487.779 201.245V197.25C487.779 196.698 488.227 196.25 488.779 196.25ZM488.779 204.24C489.332 204.24 489.779 204.688 489.779 205.24V209.235C489.779 209.787 489.332 210.235 488.779 210.235C488.227 210.235 487.779 209.787 487.779 209.235V205.24C487.779 204.688 488.227 204.24 488.779 204.24ZM488.779 212.23C489.332 212.23 489.779 212.677 489.779 213.23V217.224C489.779 217.777 489.332 218.224 488.779 218.224C488.227 218.224 487.779 217.777 487.779 217.224V213.23C487.779 212.677 488.227 212.23 488.779 212.23ZM488.779 220.219C489.332 220.219 489.779 220.667 489.779 221.219V225.214C489.779 225.766 489.332 226.214 488.779 226.214C488.227 226.214 487.779 225.766 487.779 225.214V221.219C487.779 220.667 488.227 220.219 488.779 220.219ZM488.779 228.209C489.332 228.209 489.779 228.657 489.779 229.209V233.204C489.779 233.756 489.332 234.204 488.779 234.204C488.227 234.204 487.779 233.756 487.779 233.204V229.209C487.779 228.657 488.227 228.209 488.779 228.209ZM488.779 236.198C489.332 236.198 489.779 236.646 489.779 237.198V241.193C489.779 241.746 489.332 242.193 488.779 242.193C488.227 242.193 487.779 241.746 487.779 241.193V237.198C487.779 236.646 488.227 236.198 488.779 236.198ZM488.779 244.188C489.332 244.188 489.779 244.636 489.779 245.188V249.183C489.779 249.735 489.332 250.183 488.779 250.183C488.227 250.183 487.779 249.735 487.779 249.183V245.188C487.779 244.636 488.227 244.188 488.779 244.188ZM488.779 252.178C489.332 252.178 489.779 252.625 489.779 253.178V257.172C489.779 257.725 489.332 258.172 488.779 258.172C488.227 258.172 487.779 257.725 487.779 257.172V253.178C487.779 252.625 488.227 252.178 488.779 252.178ZM488.779 260.167C489.332 260.167 489.779 260.615 489.779 261.167V265.162C489.779 265.714 489.332 266.162 488.779 266.162C488.227 266.162 487.779 265.714 487.779 265.162V261.167C487.779 260.615 488.227 260.167 488.779 260.167ZM488.779 268.157C489.332 268.157 489.779 268.605 489.779 269.157V273.152C489.779 273.704 489.332 274.152 488.779 274.152C488.227 274.152 487.779 273.704 487.779 273.152V269.157C487.779 268.605 488.227 268.157 488.779 268.157ZM488.779 276.146C489.332 276.146 489.779 276.594 489.779 277.146V281.141C489.779 281.693 489.332 282.141 488.779 282.141C488.227 282.141 487.779 281.693 487.779 281.141V277.146C487.779 276.594 488.227 276.146 488.779 276.146ZM488.779 284.136C489.332 284.136 489.779 284.584 489.779 285.136V289.131C489.779 289.683 489.332 290.131 488.779 290.131C488.227 290.131 487.779 289.683 487.779 289.131V285.136C487.779 284.584 488.227 284.136 488.779 284.136ZM488.779 292.126C489.332 292.126 489.779 292.573 489.779 293.126V297.12C489.779 297.673 489.332 298.12 488.779 298.12C488.227 298.12 487.779 297.673 487.779 297.12V293.126C487.779 292.573 488.227 292.126 488.779 292.126ZM488.779 300.115C489.332 300.115 489.779 300.563 489.779 301.115V305.11C489.779 305.662 489.332 306.11 488.779 306.11C488.227 306.11 487.779 305.662 487.779 305.11V301.115C487.779 300.563 488.227 300.115 488.779 300.115ZM488.779 308.105C489.332 308.105 489.779 308.553 489.779 309.105V311.102C489.779 311.654 489.332 312.102 488.779 312.102C488.227 312.102 487.779 311.654 487.779 311.102V309.105C487.779 308.553 488.227 308.105 488.779 308.105Z" fill="#3B9E9A" fill-opacity="0.5"/>
<path fill-rule="evenodd" clip-rule="evenodd" d="M138.038 80.7268C119.412 80.7268 104.418 95.7218 104.418 114.348V127.513H108.575V176.829H104.418V263.635H108.575V313.057H104.418V326.222C104.418 344.848 119.412 359.843 138.038 359.843H349.913C368.539 359.843 383.534 344.848 383.534 326.222V114.348C383.534 95.7218 368.539 80.7268 349.913 80.7268H138.038Z" fill="#3B9E9A" fill-opacity="0.1"/>
<path fill-rule="evenodd" clip-rule="evenodd" d="M151.19 98.2247H336.5C352.79 98.2247 365.905 111.34 365.905 127.63V312.939C365.905 329.23 352.79 342.345 336.5 342.345H151.19C134.9 342.345 121.785 329.405 121.785 313.115H114.85V263.635H121.785V220.285V176.829H114.85V127.037H121.785C121.785 110.747 134.9 98.2247 151.19 98.2247Z" fill="#3B9E9A" fill-opacity="0.1"/>
<g filter="url(#filter0_f_788_23419)">
<path d="M245.128 310.848C245.128 310.848 200.931 271.405 185.157 240.99C169.819 211.416 164.034 159.798 164.034 159.798L245.128 131.6L326.223 159.798C326.223 159.798 320.438 211.416 305.1 240.99C289.326 271.405 245.128 310.848 245.128 310.848Z" fill="#3B9E9A" fill-opacity="0.2"/>
</g>
<g filter="url(#filter1_f_788_23419)">
<path fill-rule="evenodd" clip-rule="evenodd" d="M245.128 310.848C245.128 310.848 200.931 271.405 185.157 240.99C169.819 211.416 164.034 159.798 164.034 159.798L245.128 131.6L326.223 159.798C326.223 159.798 320.438 211.416 305.1 240.99C289.326 271.405 245.128 310.848 245.128 310.848ZM245.128 309.052C245.409 308.796 245.754 308.482 246.157 308.112C247.391 306.979 249.173 305.324 251.362 303.244C255.74 299.082 261.742 293.217 268.234 286.405C281.247 272.751 296.123 255.403 303.916 240.376C311.496 225.762 316.748 205.617 320.106 189.039C321.782 180.767 322.981 173.415 323.76 168.131C324.15 165.49 324.435 163.366 324.622 161.905C324.682 161.435 324.732 161.033 324.772 160.705L245.128 133.011L165.484 160.705C165.524 161.033 165.575 161.435 165.635 161.905C165.822 163.366 166.107 165.49 166.496 168.131C167.276 173.415 168.474 180.767 170.15 189.039C173.509 205.617 178.761 225.762 186.34 240.376C194.133 255.403 209.01 272.751 222.023 286.405C228.515 293.217 234.516 299.082 238.894 303.244C241.083 305.324 242.866 306.979 244.1 308.112C244.503 308.482 244.847 308.796 245.128 309.052Z" fill="#00FFD3"/>
</g>
<path d="M245.197 310.848C245.197 310.848 200.999 271.405 185.225 240.99C169.887 211.416 164.102 159.798 164.102 159.798L245.197 131.6L326.291 159.798C326.291 159.798 320.506 211.416 305.168 240.99C289.394 271.405 245.197 310.848 245.197 310.848Z" fill="#3B9E9A" fill-opacity="0.2"/>
<path fill-rule="evenodd" clip-rule="evenodd" d="M245.197 310.848C245.197 310.848 200.999 271.405 185.225 240.99C169.887 211.416 164.102 159.798 164.102 159.798L245.197 131.6L326.291 159.798C326.291 159.798 320.506 211.416 305.168 240.99C289.394 271.405 245.197 310.848 245.197 310.848ZM245.197 309.951C245.214 309.936 245.232 309.92 245.25 309.903C245.576 309.608 246.057 309.171 246.676 308.603C247.913 307.467 249.698 305.81 251.89 303.727C256.274 299.559 262.283 293.686 268.785 286.865C281.802 273.207 296.736 255.8 304.576 240.683C312.201 225.983 317.467 205.761 320.828 189.171C322.507 180.885 323.707 173.521 324.488 168.228C324.878 165.582 325.164 163.455 325.351 161.989C325.445 161.257 325.515 160.689 325.561 160.306C325.563 160.288 325.565 160.27 325.567 160.252L245.197 132.306L164.826 160.252C164.828 160.27 164.831 160.288 164.833 160.306C164.879 160.689 164.948 161.257 165.042 161.989C165.23 163.455 165.515 165.582 165.905 168.228C166.686 173.521 167.886 180.885 169.565 189.171C172.926 205.761 178.193 225.983 185.817 240.683C193.657 255.8 208.592 273.207 221.609 286.865C228.11 293.686 234.119 299.559 238.504 303.727C240.695 305.81 242.481 307.467 243.717 308.603C244.336 309.171 244.817 309.608 245.144 309.903C245.162 309.92 245.179 309.936 245.197 309.951Z" fill="#00FFD3" fill-opacity="0.16"/>
<path fill-rule="evenodd" clip-rule="evenodd" d="M103.398 114.348C103.398 95.231 118.791 79.8381 137.907 79.8381H349.782C368.899 79.8381 384.291 95.231 384.291 114.348V326.222C384.291 345.339 368.899 360.731 349.782 360.731H137.907C118.791 360.731 103.398 345.339 103.398 326.222V313.057C103.398 312.566 103.796 312.168 104.287 312.168H107.555V264.524H104.287C103.796 264.524 103.398 264.126 103.398 263.635V176.829C103.398 176.338 103.796 175.94 104.287 175.94H107.555V128.401H104.287C103.796 128.401 103.398 128.003 103.398 127.513V114.348ZM137.907 81.6155C119.772 81.6155 105.176 96.2126 105.176 114.348V126.624H108.444C108.934 126.624 109.332 127.022 109.332 127.513V176.829C109.332 177.32 108.934 177.718 108.444 177.718H105.176V262.747H108.444C108.934 262.747 109.332 263.144 109.332 263.635V313.057C109.332 313.548 108.934 313.946 108.444 313.946H105.176V326.222C105.176 344.357 119.772 358.954 137.907 358.954H349.782C367.917 358.954 382.514 344.357 382.514 326.222V114.348C382.514 96.2126 367.917 81.6155 349.782 81.6155H137.907Z" fill="url(#paint0_linear_788_23419)"/>
<path fill-rule="evenodd" clip-rule="evenodd" d="M151.19 100.002C135.834 100.002 123.562 111.775 123.562 127.037C123.562 128.019 122.767 128.815 121.785 128.815H116.627V175.052H121.785C122.767 175.052 123.562 175.847 123.562 176.829V263.635C123.562 264.617 122.767 265.413 121.785 265.413H116.627V311.337H121.785C122.767 311.337 123.562 312.133 123.562 313.115C123.562 328.41 135.867 340.567 151.19 340.567H336.5C351.809 340.567 364.128 328.248 364.128 312.939V127.63C364.128 112.321 351.809 100.002 336.5 100.002H151.19ZM151.19 96.4475C134.56 96.4475 120.974 108.819 120.057 125.26H114.85C113.868 125.26 113.072 126.056 113.072 127.037V176.829C113.072 177.811 113.868 178.606 114.85 178.606H120.008V261.858H114.85C113.868 261.858 113.072 262.654 113.072 263.635V313.115C113.072 314.096 113.868 314.892 114.85 314.892H120.057C120.973 331.332 134.528 344.122 151.19 344.122H336.5C353.772 344.122 367.682 330.212 367.682 312.939V127.63C367.682 110.358 353.772 96.4475 336.5 96.4475H151.19Z" fill="url(#paint1_linear_788_23419)"/>
<g filter="url(#filter2_f_788_23419)">
<path fill-rule="evenodd" clip-rule="evenodd" d="M272.87 187.235V167.739L272.821 166.91C271.969 152.384 259.916 140.865 245.174 140.865C230.433 140.865 218.38 152.384 217.528 166.91L217.479 167.728V168.442L217.479 168.448C217.479 168.469 217.479 168.489 217.479 168.51C217.479 168.526 217.479 168.543 217.479 168.56C217.479 168.597 217.479 168.635 217.479 168.672L217.479 168.678V187.235L205.882 187.235C202.597 187.235 199.933 189.899 199.933 193.184V258.375C199.933 261.661 202.597 264.324 205.882 264.324H284.466C287.752 264.324 290.415 261.661 290.415 258.375V193.184C290.415 189.899 287.752 187.235 284.466 187.235L272.87 187.235ZM214.505 168.684C214.505 168.643 214.505 168.601 214.505 168.56C214.505 168.519 214.505 168.478 214.505 168.436V166.736H214.558C215.502 150.647 228.849 137.891 245.174 137.891C261.5 137.891 274.847 150.647 275.79 166.736H275.844V184.261L284.466 184.261C289.395 184.261 293.39 188.256 293.39 193.184V258.375C293.39 263.303 289.395 267.298 284.466 267.298H205.882C200.954 267.298 196.959 263.303 196.959 258.375V193.184C196.959 188.256 200.954 184.261 205.882 184.261L214.505 184.261V168.684ZM223.398 187.235V167.918H223.697C225.369 155.89 233.91 145.915 245.175 145.915C256.439 145.915 264.98 155.89 266.652 167.918H266.951V187.235H223.398ZM263.944 170.893C263.365 158.62 255.183 148.89 245.175 148.89C235.166 148.89 226.984 158.62 226.405 170.893H226.373V184.261H263.976V170.893H263.944Z" fill="#00FFD3"/>
</g>
<path fill-rule="evenodd" clip-rule="evenodd" d="M273.669 157.19C269.212 145.756 258.094 137.654 245.083 137.654C228.757 137.654 215.41 150.41 214.466 166.499H214.413V168.2L214.413 168.323L214.413 168.447V184.024L205.79 184.024C200.862 184.024 196.867 188.019 196.867 192.947V258.138C196.867 263.067 200.862 267.062 205.79 267.062H284.375C289.303 267.062 293.298 263.067 293.298 258.138V192.947C293.298 188.019 289.303 184.024 284.375 184.024L281.862 184.024L281.881 184.217H255.743L255.762 184.024H226.281V170.656H226.314C226.892 158.383 235.074 148.653 245.083 148.653C252.335 148.653 258.629 153.762 261.765 161.246L273.669 157.19Z" fill="#01F2FF" fill-opacity="0.5"/>
<path fill-rule="evenodd" clip-rule="evenodd" d="M275.098 184.022H275.752V184.024L284.375 184.024C289.303 184.024 293.298 188.019 293.298 192.947V258.138C293.298 263.067 289.303 267.062 284.375 267.062H205.79C200.862 267.062 196.867 263.067 196.867 258.138V192.947C196.867 188.019 200.862 184.024 205.79 184.024L214.413 184.024V168.447L214.413 168.323L214.413 168.2V166.499H214.466C215.41 150.41 228.757 137.654 245.083 137.654C258.092 137.654 269.209 145.753 273.667 157.185L272.821 157.472L272.817 157.461L262.588 160.914L262.601 160.944L261.758 161.23C258.62 153.755 252.33 148.653 245.083 148.653C235.074 148.653 226.892 158.383 226.314 170.656H226.281V184.024H263.885V184.022H264.684V183.999H275.098V184.022ZM275.098 184.917L284.375 184.917C288.81 184.917 292.405 188.512 292.405 192.947V258.138C292.405 262.574 288.81 266.169 284.375 266.169H205.79C201.355 266.169 197.759 262.574 197.759 258.138V192.947C197.759 188.512 201.355 184.917 205.79 184.917L215.306 184.917L215.306 168.447L215.306 168.444L215.305 168.323L215.306 168.203V167.391H215.308L215.357 166.551C216.274 150.931 229.232 138.546 245.083 138.546C257.22 138.546 267.661 145.808 272.299 156.223L262.037 159.687C258.636 152.596 252.383 147.761 245.083 147.761C234.676 147.761 226.397 157.586 225.475 169.764H225.389V184.917H264.684V184.936H275.098V184.917Z" fill="#00FFD3"/>
<path fill-rule="evenodd" clip-rule="evenodd" d="M268.189 204.607L264.352 211.251H256.68L252.844 204.607L256.68 197.962H264.352L268.189 204.607Z" fill="#06435E" fill-opacity="0.5"/>
<path fill-rule="evenodd" clip-rule="evenodd" d="M256.34 197.367H264.699L268.879 204.607L264.699 211.846H256.34L252.16 204.607L256.34 197.367ZM257.027 198.557L253.534 204.607L257.027 210.656H264.012L267.505 204.607L264.012 198.557H257.027Z" fill="#00FFD3"/>
<path fill-rule="evenodd" clip-rule="evenodd" d="M252.845 250.638L249.009 257.282H241.336L237.5 250.638L241.336 243.993H249.009L252.845 250.638Z" fill="#06435E" fill-opacity="0.5"/>
<path fill-rule="evenodd" clip-rule="evenodd" d="M240.994 243.398H249.353L253.533 250.638L249.353 257.877H240.994L236.814 250.638L240.994 243.398ZM241.681 244.588L238.188 250.638L241.681 256.687H248.666L252.159 250.638L248.666 244.588H241.681Z" fill="#00FFD3"/>
<path d="M229.829 227.578C234.066 227.578 237.501 224.143 237.501 219.906C237.501 215.669 234.066 212.234 229.829 212.234C225.591 212.234 222.156 215.669 222.156 219.906C222.156 224.143 225.591 227.578 229.829 227.578Z" fill="#06435E" fill-opacity="0.5"/>
<path d="M260.547 227.555C264.785 227.555 268.22 224.12 268.22 219.883C268.22 215.645 264.785 212.21 260.547 212.21C256.31 212.21 252.875 215.645 252.875 219.883C252.875 224.12 256.31 227.555 260.547 227.555Z" fill="#06435E" fill-opacity="0.5"/>
<path d="M245.21 227.555C249.447 227.555 252.882 224.12 252.882 219.883C252.882 215.645 249.447 212.21 245.21 212.21C240.972 212.21 237.537 215.645 237.537 219.883C237.537 224.12 240.972 227.555 245.21 227.555Z" fill="#06435E" fill-opacity="0.5"/>
<path d="M245.202 242.9C249.439 242.9 252.874 239.465 252.874 235.227C252.874 230.99 249.439 227.555 245.202 227.555C240.964 227.555 237.529 230.99 237.529 235.227C237.529 239.465 240.964 242.9 245.202 242.9Z" fill="#06435E" fill-opacity="0.5"/>
<path d="M229.827 242.9C234.064 242.9 237.499 239.465 237.499 235.227C237.499 230.99 234.064 227.555 229.827 227.555C225.589 227.555 222.154 230.99 222.154 235.227C222.154 239.465 225.589 242.9 229.827 242.9Z" fill="#06435E" fill-opacity="0.5"/>
<path d="M260.547 242.9C264.785 242.9 268.22 239.465 268.22 235.227C268.22 230.99 264.785 227.555 260.547 227.555C256.31 227.555 252.875 230.99 252.875 235.227C252.875 239.465 256.31 242.9 260.547 242.9Z" fill="#06435E" fill-opacity="0.5"/>
<path fill-rule="evenodd" clip-rule="evenodd" d="M283.536 219.934L279.7 226.579H272.028L268.191 219.934L272.028 213.29H279.7L283.536 219.934Z" fill="#06435E" fill-opacity="0.5"/>
<path fill-rule="evenodd" clip-rule="evenodd" d="M271.684 212.695H280.043L284.222 219.934L280.043 227.174H271.684L267.504 219.934L271.684 212.695ZM272.37 213.885L268.878 219.934L272.37 225.984H279.356L282.849 219.934L279.356 213.885H272.37Z" fill="#00FFD3"/>
<path fill-rule="evenodd" clip-rule="evenodd" d="M283.536 235.279L279.7 241.923H272.028L268.191 235.279L272.028 228.635H279.7L283.536 235.279Z" fill="#06435E" fill-opacity="0.5"/>
<path fill-rule="evenodd" clip-rule="evenodd" d="M271.684 228.04H280.043L284.222 235.279L280.043 242.518H271.684L267.504 235.279L271.684 228.04ZM272.37 229.229L268.878 235.279L272.37 241.329H279.356L282.849 235.279L279.356 229.229H272.37Z" fill="#00FFD3"/>
<path fill-rule="evenodd" clip-rule="evenodd" d="M222.048 219.934L218.212 226.579H210.539L206.703 219.934L210.539 213.29H218.212L222.048 219.934Z" fill="#06435E" fill-opacity="0.5"/>
<path fill-rule="evenodd" clip-rule="evenodd" d="M210.197 212.695H218.557L222.736 219.934L218.557 227.174H210.197L206.018 219.934L210.197 212.695ZM210.884 213.885L207.391 219.934L210.884 225.984H217.87L221.362 219.934L217.87 213.885H210.884Z" fill="#00FFD3"/>
<path fill-rule="evenodd" clip-rule="evenodd" d="M222.048 235.279L218.212 241.923H210.539L206.703 235.279L210.539 228.635H218.212L222.048 235.279Z" fill="#06435E" fill-opacity="0.5"/>
<path fill-rule="evenodd" clip-rule="evenodd" d="M210.197 228.04H218.557L222.736 235.279L218.557 242.518H210.197L206.018 235.279L210.197 228.04ZM210.884 229.229L207.391 235.279L210.884 241.329H217.87L221.362 235.279L217.87 229.229H210.884Z" fill="#00FFD3"/>
<path d="M245.215 212.21C249.453 212.21 252.888 208.775 252.888 204.538C252.888 200.301 249.453 196.865 245.215 196.865C240.978 196.865 237.543 200.301 237.543 204.538C237.543 208.775 240.978 212.21 245.215 212.21Z" fill="#06435E" fill-opacity="0.5"/>
<path fill-rule="evenodd" clip-rule="evenodd" d="M245.213 197.46C241.304 197.46 238.135 200.629 238.135 204.538C238.135 208.447 241.304 211.615 245.213 211.615C249.121 211.615 252.29 208.447 252.29 204.538C252.29 200.629 249.121 197.46 245.213 197.46ZM236.945 204.538C236.945 199.972 240.647 196.271 245.213 196.271C249.778 196.271 253.48 199.972 253.48 204.538C253.48 209.104 249.778 212.805 245.213 212.805C240.647 212.805 236.945 209.104 236.945 204.538Z" fill="#00FFD3"/>
<path d="M229.86 258.245C234.097 258.245 237.532 254.81 237.532 250.572C237.532 246.335 234.097 242.9 229.86 242.9C225.623 242.9 222.188 246.335 222.188 250.572C222.188 254.81 225.623 258.245 229.86 258.245Z" fill="#06435E" fill-opacity="0.5"/>
<path fill-rule="evenodd" clip-rule="evenodd" d="M229.857 243.495C225.948 243.495 222.78 246.663 222.78 250.572C222.78 254.481 225.948 257.65 229.857 257.65C233.766 257.65 236.935 254.481 236.935 250.572C236.935 246.663 233.766 243.495 229.857 243.495ZM221.59 250.572C221.59 246.006 225.291 242.305 229.857 242.305C234.423 242.305 238.124 246.006 238.124 250.572C238.124 255.138 234.423 258.839 229.857 258.839C225.291 258.839 221.59 255.138 221.59 250.572Z" fill="#00FFD3"/>
<path d="M260.547 258.245C264.785 258.245 268.22 254.81 268.22 250.572C268.22 246.335 264.785 242.9 260.547 242.9C256.31 242.9 252.875 246.335 252.875 250.572C252.875 254.81 256.31 258.245 260.547 258.245Z" fill="#06435E" fill-opacity="0.5"/>
<path fill-rule="evenodd" clip-rule="evenodd" d="M260.547 243.495C256.638 243.495 253.469 246.663 253.469 250.572C253.469 254.481 256.638 257.65 260.547 257.65C264.455 257.65 267.624 254.481 267.624 250.572C267.624 246.663 264.455 243.495 260.547 243.495ZM252.279 250.572C252.279 246.006 255.981 242.305 260.547 242.305C265.112 242.305 268.814 246.006 268.814 250.572C268.814 255.138 265.112 258.839 260.547 258.839C255.981 258.839 252.279 255.138 252.279 250.572Z" fill="#00FFD3"/>
<path fill-rule="evenodd" clip-rule="evenodd" d="M237.501 204.607L233.665 211.251H225.992L222.156 204.607L225.992 197.962H233.665L237.501 204.607Z" fill="#06435E" fill-opacity="0.5"/>
<path fill-rule="evenodd" clip-rule="evenodd" d="M225.648 197.367H234.008L238.187 204.607L234.008 211.846H225.648L221.469 204.607L225.648 197.367ZM226.335 198.557L222.843 204.607L226.335 210.656H233.321L236.814 204.607L233.321 198.557H226.335Z" fill="#00FFD3"/>
<path d="M237.516 235.302C237.516 239.568 234.058 243.026 229.792 243.026C229.183 243.026 228.591 242.956 228.022 242.822V248.253H224.16V240.588C222.863 239.206 222.068 237.347 222.068 235.302C222.068 231.037 225.526 227.578 229.792 227.578C234.058 227.578 237.516 231.037 237.516 235.302Z" fill="#F39C11"/>
<path d="M252.859 235.247C252.86 233.799 253.267 232.38 254.035 231.152H267.122C267.892 232.379 268.301 233.798 268.303 235.247C268.303 237.295 267.49 239.259 266.041 240.707C265.058 241.691 263.836 242.382 262.512 242.724V248.194H258.651V242.723C257.326 242.381 256.105 241.691 255.121 240.707C253.673 239.259 252.859 237.295 252.859 235.247Z" fill="#F39C11"/>
<path fill-rule="evenodd" clip-rule="evenodd" d="M239.63 206.858H243.493V212.374C244.062 212.241 244.654 212.17 245.264 212.17C249.531 212.17 252.991 215.63 252.991 219.897C252.991 224.165 249.531 227.624 245.264 227.624C240.996 227.624 237.537 224.165 237.537 219.897C237.537 217.852 238.332 215.992 239.63 214.61V206.858Z" fill="#54BC89"/>
<path fill-rule="evenodd" clip-rule="evenodd" d="M260.585 212.182C258.543 212.182 256.585 212.993 255.141 214.436C253.698 215.88 252.887 217.838 252.887 219.88C252.887 221.922 253.698 223.88 255.142 225.323C256.585 226.767 258.543 227.578 260.585 227.578V212.182Z" fill="#00A8F3"/>
<path fill-rule="evenodd" clip-rule="evenodd" d="M249.277 228.724C248.056 227.96 246.646 227.555 245.206 227.555C240.966 227.555 237.529 230.992 237.529 235.232C237.529 239.471 240.966 242.908 245.206 242.908C246.646 242.905 248.057 242.5 249.277 241.734V228.724Z" fill="#F39C11"/>
<path fill-rule="evenodd" clip-rule="evenodd" d="M233.907 213.391C232.686 212.627 231.275 212.222 229.835 212.221C225.594 212.222 222.156 215.659 222.156 219.9C222.156 224.141 225.594 227.578 229.835 227.578C231.275 227.578 232.686 227.17 233.907 226.404V213.391Z" fill="#BE0000"/>
<g filter="url(#filter3_f_788_23419)">
<path d="M80.1875 60.651C80.1875 59.4242 81.182 58.4297 82.4088 58.4297H84.037C85.2638 58.4297 86.2583 59.4242 86.2583 60.651V69.3198C86.2583 70.5466 85.2638 71.5411 84.037 71.5411H82.4088C81.182 71.5411 80.1875 70.5466 80.1875 69.3198V60.651Z" fill="#3B9E9A"/>
<path fill-rule="evenodd" clip-rule="evenodd" d="M84.037 58.8462H82.4088C81.412 58.8462 80.604 59.6542 80.604 60.651V69.3198C80.604 70.3165 81.412 71.1246 82.4088 71.1246H84.037C85.0338 71.1246 85.8418 70.3165 85.8418 69.3198V60.651C85.8418 59.6542 85.0338 58.8462 84.037 58.8462ZM82.4088 58.4297C81.182 58.4297 80.1875 59.4242 80.1875 60.651V69.3198C80.1875 70.5466 81.182 71.5411 82.4088 71.5411H84.037C85.2638 71.5411 86.2583 70.5466 86.2583 69.3198V60.651C86.2583 59.4242 85.2638 58.4297 84.037 58.4297H82.4088Z" fill="#00FFD3"/>
<path d="M142.893 60.6507C142.893 59.4239 143.887 58.4294 145.114 58.4294H146.742C147.969 58.4294 148.963 59.4239 148.963 60.6507V69.3195C148.963 70.5463 147.969 71.5408 146.742 71.5408H145.114C143.887 71.5408 142.893 70.5463 142.893 69.3195V60.6507Z" fill="#3B9E9A"/>
<path fill-rule="evenodd" clip-rule="evenodd" d="M146.742 58.8459H145.114C144.117 58.8459 143.309 59.654 143.309 60.6507V69.3195C143.309 70.3163 144.117 71.1243 145.114 71.1243H146.742C147.739 71.1243 148.547 70.3163 148.547 69.3195V60.6507C148.547 59.654 147.739 58.8459 146.742 58.8459ZM145.114 58.4294C143.887 58.4294 142.893 59.4239 142.893 60.6507V69.3195C142.893 70.5463 143.887 71.5408 145.114 71.5408H146.742C147.969 71.5408 148.963 70.5463 148.963 69.3195V60.6507C148.963 59.4239 147.969 58.4294 146.742 58.4294H145.114Z" fill="#00FFD3"/>
<path fill-rule="evenodd" clip-rule="evenodd" d="M117.239 60.6507C117.239 59.4239 116.245 58.4294 115.018 58.4294H113.39C112.163 58.4294 111.169 59.4239 111.169 60.6507V91.2083C111.169 92.4351 110.174 93.4296 108.947 93.4296H105.62C104.393 93.4296 103.398 94.4241 103.398 95.6509V97.2792C103.398 98.5059 104.393 99.5005 105.62 99.5005H111.169C111.378 99.5005 111.585 99.4898 111.789 99.4691C114.85 99.1582 117.239 96.5729 117.239 93.4296C117.239 93.4296 117.239 93.4296 117.239 93.4296V60.6507Z" fill="#3B9E9A"/>
<path fill-rule="evenodd" clip-rule="evenodd" d="M115.018 58.8459H113.39C112.393 58.8459 111.585 59.654 111.585 60.6507V91.2083C111.585 92.6651 110.404 93.8461 108.947 93.8461H105.62C104.623 93.8461 103.815 94.6541 103.815 95.6509V97.2792C103.815 98.2759 104.623 99.084 105.62 99.084H111.169C111.364 99.084 111.557 99.074 111.747 99.0547C114.598 98.7652 116.823 96.357 116.823 93.4296C116.823 93.4296 116.823 93.4296 116.823 93.4296L116.823 60.6507C116.823 59.654 116.015 58.8459 115.018 58.8459ZM115.018 58.4294C116.245 58.4294 117.239 59.4239 117.239 60.6507V93.4296C117.239 96.5729 114.85 99.1582 111.789 99.4691C111.585 99.4898 111.378 99.5005 111.169 99.5005H105.62C104.393 99.5005 103.398 98.5059 103.398 97.2792V95.6509C103.398 94.4241 104.393 93.4296 105.62 93.4296H108.947C110.174 93.4296 111.169 92.4351 111.169 91.2083V60.6507C111.169 59.4239 112.163 58.4294 113.39 58.4294H115.018Z" fill="#00FFD3"/>
<path d="M91.6758 114.822C91.6758 113.21 93.3436 112.135 94.8317 112.757C109.984 119.092 119.631 119.069 134.295 112.8C135.787 112.162 137.471 113.238 137.471 114.861V116.3C137.471 117.202 136.923 118.017 136.085 118.35C119.796 124.813 109.92 124.936 93.0726 118.346C92.229 118.016 91.6758 117.198 91.6758 116.292V114.822Z" fill="#3B9E9A"/>
<path fill-rule="evenodd" clip-rule="evenodd" d="M114.746 117.922C108.532 117.919 102.275 116.321 94.671 113.141C93.4478 112.63 92.0923 113.517 92.0923 114.822V116.292C92.0923 117.028 92.542 117.691 93.2243 117.958C101.623 121.243 108.248 122.841 114.787 122.826C121.325 122.811 127.812 121.184 135.931 117.963C136.609 117.694 137.055 117.033 137.055 116.3V114.861C137.055 113.547 135.685 112.659 134.458 113.183C127.097 116.33 120.961 117.924 114.746 117.922ZM94.8317 112.757C93.3436 112.135 91.6758 113.21 91.6758 114.822V116.292C91.6758 117.198 92.229 118.016 93.0726 118.346C109.92 124.936 119.796 124.813 136.085 118.35C136.923 118.017 137.471 117.202 137.471 116.3V114.861C137.471 113.238 135.787 112.162 134.295 112.8C119.631 119.069 109.984 119.092 94.8317 112.757Z" fill="#00FFD3"/>
</g>
<path d="M80.1875 60.651C80.1875 59.4242 81.182 58.4297 82.4088 58.4297H84.037C85.2638 58.4297 86.2583 59.4242 86.2583 60.651V69.3198C86.2583 70.5466 85.2638 71.5411 84.037 71.5411H82.4088C81.182 71.5411 80.1875 70.5466 80.1875 69.3198V60.651Z" fill="#3B9E9A"/>
<path fill-rule="evenodd" clip-rule="evenodd" d="M84.037 58.8462H82.4088C81.412 58.8462 80.604 59.6542 80.604 60.651V69.3198C80.604 70.3165 81.412 71.1246 82.4088 71.1246H84.037C85.0338 71.1246 85.8418 70.3165 85.8418 69.3198V60.651C85.8418 59.6542 85.0338 58.8462 84.037 58.8462ZM82.4088 58.4297C81.182 58.4297 80.1875 59.4242 80.1875 60.651V69.3198C80.1875 70.5466 81.182 71.5411 82.4088 71.5411H84.037C85.2638 71.5411 86.2583 70.5466 86.2583 69.3198V60.651C86.2583 59.4242 85.2638 58.4297 84.037 58.4297H82.4088Z" fill="#00FFD3"/>
<path d="M142.893 60.6507C142.893 59.4239 143.887 58.4294 145.114 58.4294H146.742C147.969 58.4294 148.963 59.4239 148.963 60.6507V69.3195C148.963 70.5463 147.969 71.5408 146.742 71.5408H145.114C143.887 71.5408 142.893 70.5463 142.893 69.3195V60.6507Z" fill="#3B9E9A"/>
<path fill-rule="evenodd" clip-rule="evenodd" d="M146.742 58.8459H145.114C144.117 58.8459 143.309 59.654 143.309 60.6507V69.3195C143.309 70.3163 144.117 71.1243 145.114 71.1243H146.742C147.739 71.1243 148.547 70.3163 148.547 69.3195V60.6507C148.547 59.654 147.739 58.8459 146.742 58.8459ZM145.114 58.4294C143.887 58.4294 142.893 59.4239 142.893 60.6507V69.3195C142.893 70.5463 143.887 71.5408 145.114 71.5408H146.742C147.969 71.5408 148.963 70.5463 148.963 69.3195V60.6507C148.963 59.4239 147.969 58.4294 146.742 58.4294H145.114Z" fill="#00FFD3"/>
<path fill-rule="evenodd" clip-rule="evenodd" d="M117.239 60.6507C117.239 59.4239 116.245 58.4294 115.018 58.4294H113.39C112.163 58.4294 111.169 59.4239 111.169 60.6507V91.2083C111.169 92.4351 110.174 93.4296 108.947 93.4296H105.62C104.393 93.4296 103.398 94.4241 103.398 95.6509V97.2792C103.398 98.5059 104.393 99.5005 105.62 99.5005H111.169C111.378 99.5005 111.585 99.4898 111.789 99.4691C114.85 99.1582 117.239 96.5729 117.239 93.4296C117.239 93.4296 117.239 93.4296 117.239 93.4296V60.6507Z" fill="#3B9E9A"/>
<path fill-rule="evenodd" clip-rule="evenodd" d="M115.018 58.8459H113.39C112.393 58.8459 111.585 59.654 111.585 60.6507V91.2083C111.585 92.6651 110.404 93.8461 108.947 93.8461H105.62C104.623 93.8461 103.815 94.6541 103.815 95.6509V97.2792C103.815 98.2759 104.623 99.084 105.62 99.084H111.169C111.364 99.084 111.557 99.074 111.747 99.0547C114.598 98.7652 116.823 96.357 116.823 93.4296C116.823 93.4296 116.823 93.4296 116.823 93.4296L116.823 60.6507C116.823 59.654 116.015 58.8459 115.018 58.8459ZM115.018 58.4294C116.245 58.4294 117.239 59.4239 117.239 60.6507V93.4296C117.239 96.5729 114.85 99.1582 111.789 99.4691C111.585 99.4898 111.378 99.5005 111.169 99.5005H105.62C104.393 99.5005 103.398 98.5059 103.398 97.2792V95.6509C103.398 94.4241 104.393 93.4296 105.62 93.4296H108.947C110.174 93.4296 111.169 92.4351 111.169 91.2083V60.6507C111.169 59.4239 112.163 58.4294 113.39 58.4294H115.018Z" fill="#00FFD3"/>
<path d="M91.6758 114.822C91.6758 113.21 93.3436 112.135 94.8317 112.757C109.984 119.092 119.631 119.069 134.295 112.8C135.787 112.162 137.471 113.238 137.471 114.861V116.3C137.471 117.202 136.923 118.017 136.085 118.35C119.796 124.813 109.92 124.936 93.0726 118.346C92.229 118.016 91.6758 117.198 91.6758 116.292V114.822Z" fill="#3B9E9A"/>
<path fill-rule="evenodd" clip-rule="evenodd" d="M114.746 117.922C108.532 117.919 102.275 116.321 94.671 113.141C93.4478 112.63 92.0923 113.517 92.0923 114.822V116.292C92.0923 117.028 92.542 117.691 93.2243 117.958C101.623 121.243 108.248 122.841 114.787 122.826C121.325 122.811 127.812 121.184 135.931 117.963C136.609 117.694 137.055 117.033 137.055 116.3V114.861C137.055 113.547 135.685 112.659 134.458 113.183C127.097 116.33 120.961 117.924 114.746 117.922ZM94.8317 112.757C93.3436 112.135 91.6758 113.21 91.6758 114.822V116.292C91.6758 117.198 92.229 118.016 93.0726 118.346C109.92 124.936 119.796 124.813 136.085 118.35C136.923 118.017 137.471 117.202 137.471 116.3V114.861C137.471 113.238 135.787 112.162 134.295 112.8C119.631 119.069 109.984 119.092 94.8317 112.757Z" fill="#00FFD3"/>
<path d="M32.3516 29.181C32.3516 18.1353 41.3059 9.18103 52.3516 9.18103H176.597C187.642 9.18103 196.597 18.1353 196.597 29.181V152.895C196.597 163.941 187.642 172.895 176.597 172.895H52.3515C41.3059 172.895 32.3516 163.941 32.3516 152.895V29.181Z" fill="#3B9E9A" fill-opacity="0.2"/>
<path fill-rule="evenodd" clip-rule="evenodd" d="M175.308 10.666H53.8403C43.1059 10.666 34.404 19.3679 34.404 30.1022V151.57C34.404 162.304 43.1059 171.006 53.8403 171.006H175.308C186.043 171.006 194.744 162.304 194.744 151.57V30.1023C194.744 19.3679 186.043 10.666 175.308 10.666ZM53.8403 2.33618C38.5055 2.33618 26.0742 14.7675 26.0742 30.1022V151.57C26.0742 166.905 38.5055 179.336 53.8403 179.336H175.308C190.643 179.336 203.074 166.905 203.074 151.57V30.1023C203.074 14.7675 190.643 2.33618 175.308 2.33618H53.8403Z" fill="#3B9E9A" fill-opacity="0.3"/>
<path fill-rule="evenodd" clip-rule="evenodd" d="M27.8047 32.5274C27.8047 16.8092 40.5468 4.06714 56.2649 4.06714H172.882C188.601 4.06714 201.343 16.8092 201.343 32.5274V149.145C201.343 164.863 188.601 177.605 172.882 177.605H56.2649C40.5468 177.605 27.8047 164.863 27.8047 149.145V32.5274ZM56.2649 5.45544C41.3135 5.45544 29.193 17.576 29.193 32.5274V149.145C29.193 164.096 41.3135 176.217 56.2649 176.217H172.882C187.834 176.217 199.954 164.096 199.954 149.145V32.5274C199.954 17.576 187.834 5.45544 172.882 5.45544H56.2649Z" fill="url(#paint2_linear_788_23419)"/>
<path fill-rule="evenodd" clip-rule="evenodd" d="M56.2649 177.605C40.5468 177.605 27.8047 164.863 27.8047 149.145L27.8047 32.5274C27.8047 16.8092 40.5468 4.06712 56.2649 4.06712L172.882 4.06713C188.601 4.06713 201.343 16.8092 201.343 32.5274L201.343 149.145C201.343 164.863 188.601 177.605 172.882 177.605L56.2649 177.605ZM29.193 149.145C29.193 164.096 41.3135 176.217 56.2649 176.217L172.882 176.217C187.834 176.217 199.954 164.096 199.954 149.145L199.954 32.5274C199.954 17.5759 187.834 5.45543 172.882 5.45543L56.2649 5.45543C41.3135 5.45543 29.193 17.576 29.193 32.5274L29.193 149.145Z" fill="url(#paint3_linear_788_23419)"/>
<path fill-rule="evenodd" clip-rule="evenodd" d="M201.344 149.145C201.344 164.863 188.602 177.605 172.884 177.605L56.266 177.605C40.5479 177.605 27.8058 164.863 27.8058 149.145L27.8058 32.5274C27.8058 16.8092 40.5478 4.06714 56.266 4.06714L172.884 4.06713C188.602 4.06712 201.344 16.8092 201.344 32.5274L201.344 149.145ZM172.884 176.217C187.835 176.217 199.955 164.096 199.955 149.145L199.955 32.5274C199.955 17.5759 187.835 5.45543 172.884 5.45543L56.266 5.45544C41.3146 5.45544 29.1941 17.576 29.1941 32.5274L29.1941 149.145C29.1941 164.096 41.3146 176.217 56.266 176.217L172.884 176.217Z" fill="url(#paint4_linear_788_23419)"/>
<path fill-rule="evenodd" clip-rule="evenodd" d="M172.884 4.06714C188.602 4.06714 201.344 16.8092 201.344 32.5274L201.344 149.145C201.344 164.863 188.602 177.605 172.884 177.605L56.266 177.605C40.5479 177.605 27.8058 164.863 27.8058 149.145L27.8058 32.5274C27.8058 16.8092 40.5479 4.06714 56.266 4.06714L172.884 4.06714ZM199.955 32.5274C199.955 17.576 187.835 5.45544 172.884 5.45544L56.266 5.45544C41.3146 5.45544 29.1941 17.576 29.1941 32.5274L29.1941 149.145C29.1941 164.096 41.3146 176.217 56.266 176.217L172.884 176.217C187.835 176.217 199.955 164.096 199.955 149.145L199.955 32.5274Z" fill="url(#paint5_linear_788_23419)"/>
<path d="M295.729 27.248C295.729 16.2024 304.683 7.24805 315.729 7.24805H439.973C451.019 7.24805 459.973 16.2024 459.973 27.248V150.962C459.973 162.008 451.019 170.962 439.973 170.962H315.729C304.683 170.962 295.729 162.008 295.729 150.962V27.248Z" fill="#3B9E9A" fill-opacity="0.2"/>
<g filter="url(#filter4_f_788_23419)">
<path d="M401.838 58.0146C401.508 58.0146 401.178 57.932 400.889 57.7669C392.961 53.6792 386.107 51.9451 377.89 51.9451C369.715 51.9451 361.953 53.8857 354.892 57.7669C353.901 58.3036 352.663 57.932 352.085 56.9411C351.548 55.9501 351.919 54.6702 352.91 54.1334C360.59 49.9632 369.013 47.8162 377.89 47.8162C386.685 47.8162 394.365 49.7568 402.788 54.0921C403.82 54.6289 404.192 55.8676 403.655 56.8585C403.283 57.6017 402.581 58.0146 401.838 58.0146ZM342.753 79.6915C342.34 79.6915 341.928 79.5676 341.556 79.3199C340.606 78.6592 340.4 77.3793 341.06 76.4296C345.148 70.6491 350.351 66.1073 356.544 62.928C369.509 56.2392 386.107 56.1979 399.113 62.8867C405.306 66.066 410.509 70.5665 414.597 76.3057C415.257 77.2141 415.051 78.5354 414.101 79.196C413.151 79.8566 411.871 79.6502 411.211 78.7005C407.495 73.4981 402.788 69.4104 397.214 66.5615C385.364 60.492 370.211 60.492 358.402 66.6028C352.787 69.493 348.08 73.6219 344.364 78.8244C344.033 79.4024 343.414 79.6915 342.753 79.6915ZM368.559 129.528C368.022 129.528 367.486 129.321 367.114 128.908C363.522 125.316 361.581 123.004 358.815 118.008C355.966 112.929 354.479 106.736 354.479 100.088C354.479 87.8254 364.967 77.8334 377.849 77.8334C390.731 77.8334 401.219 87.8254 401.219 100.088C401.219 101.244 400.31 102.153 399.154 102.153C397.998 102.153 397.09 101.244 397.09 100.088C397.09 90.0963 388.46 81.9624 377.849 81.9624C367.238 81.9624 358.608 90.0963 358.608 100.088C358.608 106.034 359.93 111.525 362.448 115.985C365.091 120.733 366.907 122.756 370.087 125.977C370.871 126.802 370.871 128.082 370.087 128.908C369.633 129.321 369.096 129.528 368.559 129.528ZM398.163 121.889C393.25 121.889 388.915 120.65 385.364 118.214C379.212 114.044 375.537 107.273 375.537 100.088C375.537 98.9322 376.445 98.0239 377.601 98.0239C378.758 98.0239 379.666 98.9322 379.666 100.088C379.666 105.91 382.639 111.402 387.676 114.787C390.608 116.769 394.035 117.719 398.163 117.719C399.154 117.719 400.806 117.595 402.458 117.306C403.572 117.1 404.646 117.843 404.852 118.999C405.059 120.114 404.316 121.187 403.159 121.394C400.806 121.848 398.742 121.889 398.163 121.889ZM389.864 130.395C389.699 130.395 389.493 130.353 389.328 130.312C382.763 128.495 378.468 126.059 373.968 121.641C368.187 115.902 365.008 108.264 365.008 100.088C365.008 93.3995 370.706 87.9493 377.725 87.9493C384.744 87.9493 390.442 93.3995 390.442 100.088C390.442 104.506 394.282 108.098 399.031 108.098C403.779 108.098 407.619 104.506 407.619 100.088C407.619 84.5223 394.2 71.8878 377.684 71.8878C365.958 71.8878 355.223 78.4115 350.392 88.5274C348.782 91.8718 347.956 95.7943 347.956 100.088C347.956 103.309 348.245 108.387 350.722 114.994C351.135 116.067 350.598 117.265 349.525 117.636C348.451 118.049 347.254 117.471 346.882 116.439C344.859 111.03 343.868 105.662 343.868 100.088C343.868 95.1336 344.818 90.6331 346.676 86.7106C352.167 75.1909 364.348 67.7176 377.684 67.7176C396.471 67.7176 411.748 82.2101 411.748 100.047C411.748 106.736 406.05 112.186 399.031 112.186C392.011 112.186 386.313 106.736 386.313 100.047C386.313 95.6291 382.474 92.0369 377.725 92.0369C372.977 92.0369 369.137 95.6291 369.137 100.047C369.137 107.108 371.862 113.714 376.858 118.668C380.781 122.55 384.538 124.697 390.36 126.307C391.475 126.596 392.094 127.752 391.805 128.826C391.598 129.775 390.731 130.395 389.864 130.395Z" fill="#00FFD3" fill-opacity="0.35"/>
</g>
<path d="M401.838 58.0146C401.508 58.0146 401.178 57.932 400.889 57.7669C392.961 53.6792 386.107 51.9451 377.89 51.9451C369.715 51.9451 361.953 53.8857 354.892 57.7669C353.901 58.3036 352.663 57.932 352.085 56.9411C351.548 55.9501 351.919 54.6702 352.91 54.1334C360.59 49.9632 369.013 47.8162 377.89 47.8162C386.685 47.8162 394.365 49.7568 402.788 54.0921C403.82 54.6289 404.192 55.8676 403.655 56.8585C403.283 57.6017 402.581 58.0146 401.838 58.0146ZM342.753 79.6915C342.34 79.6915 341.928 79.5676 341.556 79.3199C340.606 78.6592 340.4 77.3793 341.06 76.4296C345.148 70.6491 350.351 66.1073 356.544 62.928C369.509 56.2392 386.107 56.1979 399.113 62.8867C405.306 66.066 410.509 70.5665 414.597 76.3057C415.257 77.2141 415.051 78.5354 414.101 79.196C413.151 79.8566 411.871 79.6502 411.211 78.7005C407.495 73.4981 402.788 69.4104 397.214 66.5615C385.364 60.492 370.211 60.492 358.402 66.6028C352.787 69.493 348.08 73.6219 344.364 78.8244C344.033 79.4024 343.414 79.6915 342.753 79.6915ZM368.559 129.528C368.022 129.528 367.486 129.321 367.114 128.908C363.522 125.316 361.581 123.004 358.815 118.008C355.966 112.929 354.479 106.736 354.479 100.088C354.479 87.8254 364.967 77.8334 377.849 77.8334C390.731 77.8334 401.219 87.8254 401.219 100.088C401.219 101.244 400.31 102.153 399.154 102.153C397.998 102.153 397.09 101.244 397.09 100.088C397.09 90.0963 388.46 81.9624 377.849 81.9624C367.238 81.9624 358.608 90.0963 358.608 100.088C358.608 106.034 359.93 111.525 362.448 115.985C365.091 120.733 366.907 122.756 370.087 125.977C370.871 126.802 370.871 128.082 370.087 128.908C369.633 129.321 369.096 129.528 368.559 129.528ZM398.163 121.889C393.25 121.889 388.915 120.65 385.364 118.214C379.212 114.044 375.537 107.273 375.537 100.088C375.537 98.9322 376.445 98.0239 377.601 98.0239C378.758 98.0239 379.666 98.9322 379.666 100.088C379.666 105.91 382.639 111.402 387.676 114.787C390.608 116.769 394.035 117.719 398.163 117.719C399.154 117.719 400.806 117.595 402.458 117.306C403.572 117.1 404.646 117.843 404.852 118.999C405.059 120.114 404.316 121.187 403.159 121.394C400.806 121.848 398.742 121.889 398.163 121.889ZM389.864 130.395C389.699 130.395 389.493 130.353 389.328 130.312C382.763 128.495 378.468 126.059 373.968 121.641C368.187 115.902 365.008 108.264 365.008 100.088C365.008 93.3995 370.706 87.9493 377.725 87.9493C384.744 87.9493 390.442 93.3995 390.442 100.088C390.442 104.506 394.282 108.098 399.031 108.098C403.779 108.098 407.619 104.506 407.619 100.088C407.619 84.5223 394.2 71.8878 377.684 71.8878C365.958 71.8878 355.223 78.4115 350.392 88.5274C348.782 91.8718 347.956 95.7943 347.956 100.088C347.956 103.309 348.245 108.387 350.722 114.994C351.135 116.067 350.598 117.265 349.525 117.636C348.451 118.049 347.254 117.471 346.882 116.439C344.859 111.03 343.868 105.662 343.868 100.088C343.868 95.1336 344.818 90.6331 346.676 86.7106C352.167 75.1909 364.348 67.7176 377.684 67.7176C396.471 67.7176 411.748 82.2101 411.748 100.047C411.748 106.736 406.05 112.186 399.031 112.186C392.011 112.186 386.313 106.736 386.313 100.047C386.313 95.6291 382.474 92.0369 377.725 92.0369C372.977 92.0369 369.137 95.6291 369.137 100.047C369.137 107.108 371.862 113.714 376.858 118.668C380.781 122.55 384.538 124.697 390.36 126.307C391.475 126.596 392.094 127.752 391.805 128.826C391.598 129.775 390.731 130.395 389.864 130.395Z" fill="#3B9E9A"/>
<path fill-rule="evenodd" clip-rule="evenodd" d="M438.584 8.93505H317.116C306.381 8.93505 297.679 17.6369 297.679 28.3713V149.839C297.679 160.574 306.381 169.275 317.116 169.275H438.584C449.318 169.275 458.02 160.574 458.02 149.839V28.3713C458.02 17.637 449.318 8.93505 438.584 8.93505ZM317.116 0.605225C301.781 0.605225 289.35 13.0365 289.35 28.3713V149.839C289.35 165.174 301.781 177.605 317.116 177.605H438.584C453.918 177.605 466.35 165.174 466.35 149.839V28.3713C466.35 13.0365 453.918 0.605225 438.584 0.605225H317.116Z" fill="#3B9E9A" fill-opacity="0.3"/>
<path fill-rule="evenodd" clip-rule="evenodd" d="M291.082 30.7964C291.082 15.0783 303.824 2.33618 319.542 2.33618H436.16C451.878 2.33618 464.62 15.0783 464.62 30.7964V147.414C464.62 163.132 451.878 175.874 436.16 175.874H319.542C303.824 175.874 291.082 163.132 291.082 147.414V30.7964ZM319.542 3.72449C304.591 3.72449 292.47 15.845 292.47 30.7964V147.414C292.47 162.365 304.591 174.486 319.542 174.486H436.16C451.111 174.486 463.232 162.365 463.232 147.414V30.7964C463.232 15.845 451.111 3.72449 436.16 3.72449H319.542Z" fill="url(#paint6_linear_788_23419)"/>
<path fill-rule="evenodd" clip-rule="evenodd" d="M319.542 175.874C303.824 175.874 291.082 163.132 291.082 147.414L291.082 30.7964C291.082 15.0782 303.824 2.33617 319.542 2.33617L436.16 2.33617C451.878 2.33617 464.62 15.0782 464.62 30.7964L464.62 147.414C464.62 163.132 451.878 175.874 436.16 175.874L319.542 175.874ZM292.47 147.414C292.47 162.365 304.591 174.486 319.542 174.486L436.16 174.486C451.111 174.486 463.232 162.365 463.232 147.414L463.232 30.7964C463.232 15.845 451.111 3.72447 436.16 3.72447L319.542 3.72447C304.591 3.72447 292.47 15.845 292.47 30.7964L292.47 147.414Z" fill="url(#paint7_linear_788_23419)"/>
<path fill-rule="evenodd" clip-rule="evenodd" d="M464.619 147.414C464.619 163.132 451.877 175.874 436.159 175.874L319.541 175.874C303.823 175.874 291.081 163.132 291.081 147.414L291.081 30.7964C291.081 15.0783 303.823 2.33618 319.541 2.33618L436.159 2.33617C451.877 2.33617 464.619 15.0782 464.619 30.7964L464.619 147.414ZM436.159 174.486C451.11 174.486 463.231 162.365 463.231 147.414L463.231 30.7964C463.231 15.845 451.11 3.72447 436.159 3.72447L319.541 3.72448C304.59 3.72449 292.469 15.845 292.469 30.7964L292.469 147.414C292.469 162.365 304.59 174.486 319.541 174.486L436.159 174.486Z" fill="url(#paint8_linear_788_23419)"/>
<path fill-rule="evenodd" clip-rule="evenodd" d="M436.159 2.33618C451.877 2.33618 464.619 15.0783 464.619 30.7964L464.619 147.414C464.619 163.132 451.877 175.874 436.159 175.874L319.541 175.874C303.823 175.874 291.081 163.132 291.081 147.414L291.081 30.7964C291.081 15.0783 303.823 2.33618 319.541 2.33618L436.159 2.33618ZM463.231 30.7964C463.231 15.845 451.11 3.72449 436.159 3.72449L319.541 3.72449C304.59 3.72449 292.469 15.845 292.469 30.7964L292.469 147.414C292.469 162.365 304.59 174.486 319.541 174.486L436.159 174.486C451.11 174.486 463.231 162.365 463.231 147.414L463.231 30.7964Z" fill="url(#paint9_linear_788_23419)"/>
<path d="M193.887 325.17C193.887 330.87 189.266 335.491 183.566 335.491C177.865 335.491 173.244 330.87 173.244 325.17C173.244 319.469 177.865 314.848 183.566 314.848C189.266 314.848 193.887 319.469 193.887 325.17Z" fill="#00FFD3" fill-opacity="0.31"/>
<path fill-rule="evenodd" clip-rule="evenodd" d="M183.566 333.491C188.161 333.491 191.887 329.765 191.887 325.17C191.887 320.574 188.161 316.848 183.566 316.848C178.97 316.848 175.244 320.574 175.244 325.17C175.244 329.765 178.97 333.491 183.566 333.491ZM183.566 335.491C189.266 335.491 193.887 330.87 193.887 325.17C193.887 319.469 189.266 314.848 183.566 314.848C177.865 314.848 173.244 319.469 173.244 325.17C173.244 330.87 177.865 335.491 183.566 335.491Z" fill="#00FFD3"/>
<path d="M233.231 325.17C233.231 330.87 228.61 335.491 222.909 335.491C217.209 335.491 212.588 330.87 212.588 325.17C212.588 319.469 217.209 314.848 222.909 314.848C228.61 314.848 233.231 319.469 233.231 325.17Z" fill="#00FFD3" fill-opacity="0.31"/>
<path fill-rule="evenodd" clip-rule="evenodd" d="M222.909 333.491C227.505 333.491 231.231 329.765 231.231 325.17C231.231 320.574 227.505 316.848 222.909 316.848C218.314 316.848 214.588 320.574 214.588 325.17C214.588 329.765 218.314 333.491 222.909 333.491ZM222.909 335.491C228.61 335.491 233.231 330.87 233.231 325.17C233.231 319.469 228.61 314.848 222.909 314.848C217.209 314.848 212.588 319.469 212.588 325.17C212.588 330.87 217.209 335.491 222.909 335.491Z" fill="#00FFD3"/>
<path d="M272.574 325.17C272.574 330.87 267.953 335.491 262.253 335.491C256.553 335.491 251.932 330.87 251.932 325.17C251.932 319.469 256.553 314.848 262.253 314.848C267.953 314.848 272.574 319.469 272.574 325.17Z" fill="#00FFD3" fill-opacity="0.31"/>
<path fill-rule="evenodd" clip-rule="evenodd" d="M262.253 333.491C266.849 333.491 270.574 329.765 270.574 325.17C270.574 320.574 266.849 316.848 262.253 316.848C257.657 316.848 253.932 320.574 253.932 325.17C253.932 329.765 257.657 333.491 262.253 333.491ZM262.253 335.491C267.953 335.491 272.574 330.87 272.574 325.17C272.574 319.469 267.953 314.848 262.253 314.848C256.553 314.848 251.932 319.469 251.932 325.17C251.932 330.87 256.553 335.491 262.253 335.491Z" fill="#00FFD3"/>
<path d="M311.918 325.17C311.918 330.87 307.297 335.491 301.597 335.491C295.896 335.491 291.275 330.87 291.275 325.17C291.275 319.469 295.896 314.848 301.597 314.848C307.297 314.848 311.918 319.469 311.918 325.17Z" fill="#00FFD3" fill-opacity="0.31"/>
<path fill-rule="evenodd" clip-rule="evenodd" d="M301.597 333.491C306.193 333.491 309.918 329.765 309.918 325.17C309.918 320.574 306.193 316.848 301.597 316.848C297.001 316.848 293.275 320.574 293.275 325.17C293.275 329.765 297.001 333.491 301.597 333.491ZM301.597 335.491C307.297 335.491 311.918 330.87 311.918 325.17C311.918 319.469 307.297 314.848 301.597 314.848C295.896 314.848 291.275 319.469 291.275 325.17C291.275 330.87 295.896 335.491 301.597 335.491Z" fill="#00FFD3"/>
<defs>
<filter id="filter0_f_788_23419" x="149.033" y="116.6" width="192.189" height="209.248" filterUnits="userSpaceOnUse" color-interpolation-filters="sRGB">
<feFlood flood-opacity="0" result="BackgroundImageFix"/>
<feBlend mode="normal" in="SourceGraphic" in2="BackgroundImageFix" result="shape"/>
<feGaussianBlur stdDeviation="7.5" result="effect1_foregroundBlur_788_23419"/>
</filter>
<filter id="filter1_f_788_23419" x="149.033" y="116.6" width="192.189" height="209.248" filterUnits="userSpaceOnUse" color-interpolation-filters="sRGB">
<feFlood flood-opacity="0" result="BackgroundImageFix"/>
<feBlend mode="normal" in="SourceGraphic" in2="BackgroundImageFix" result="shape"/>
<feGaussianBlur stdDeviation="7.5" result="effect1_foregroundBlur_788_23419"/>
</filter>
<filter id="filter2_f_788_23419" x="176.959" y="117.891" width="136.43" height="169.408" filterUnits="userSpaceOnUse" color-interpolation-filters="sRGB">
<feFlood flood-opacity="0" result="BackgroundImageFix"/>
<feBlend mode="normal" in="SourceGraphic" in2="BackgroundImageFix" result="shape"/>
<feGaussianBlur stdDeviation="10" result="effect1_foregroundBlur_788_23419"/>
</filter>
<filter id="filter3_f_788_23419" x="70.1875" y="48.4294" width="88.7754" height="84.8132" filterUnits="userSpaceOnUse" color-interpolation-filters="sRGB">
<feFlood flood-opacity="0" result="BackgroundImageFix"/>
<feBlend mode="normal" in="SourceGraphic" in2="BackgroundImageFix" result="shape"/>
<feGaussianBlur stdDeviation="5" result="effect1_foregroundBlur_788_23419"/>
</filter>
<filter id="filter4_f_788_23419" x="318.303" y="29.5583" width="119.094" height="119.094" filterUnits="userSpaceOnUse" color-interpolation-filters="sRGB">
<feFlood flood-opacity="0" result="BackgroundImageFix"/>
<feBlend mode="normal" in="SourceGraphic" in2="BackgroundImageFix" result="shape"/>
<feGaussianBlur stdDeviation="5" result="effect1_foregroundBlur_788_23419"/>
</filter>
<linearGradient id="paint0_linear_788_23419" x1="112.966" y1="85.4608" x2="344.728" y2="321.514" gradientUnits="userSpaceOnUse">
<stop stop-color="#00FFD3" stop-opacity="0.29"/>
<stop offset="0.361089" stop-color="#00FFD3" stop-opacity="0"/>
</linearGradient>
<linearGradient id="paint1_linear_788_23419" x1="240.377" y1="397.305" x2="242.672" y2="98.7839" gradientUnits="userSpaceOnUse">
<stop stop-color="#00FFD3" stop-opacity="0.53"/>
<stop offset="0.244213" stop-color="#00FFD3" stop-opacity="0.458333"/>
<stop offset="1" stop-color="#00FFD3" stop-opacity="0"/>
</linearGradient>
<linearGradient id="paint2_linear_788_23419" x1="28.4988" y1="4.76129" x2="200.649" y2="176.911" gradientUnits="userSpaceOnUse">
<stop stop-color="#00FFD3"/>
<stop offset="0.1807" stop-color="#00FFD3" stop-opacity="0"/>
</linearGradient>
<linearGradient id="paint3_linear_788_23419" x1="28.4988" y1="176.911" x2="200.649" y2="4.76122" gradientUnits="userSpaceOnUse">
<stop stop-color="#00FFD3"/>
<stop offset="0.1807" stop-color="#00FFD3" stop-opacity="0"/>
</linearGradient>
<linearGradient id="paint4_linear_788_23419" x1="200.65" y1="176.911" x2="28.4998" y2="4.76123" gradientUnits="userSpaceOnUse">
<stop stop-color="#00FFD3"/>
<stop offset="0.1807" stop-color="#00FFD3" stop-opacity="0"/>
</linearGradient>
<linearGradient id="paint5_linear_788_23419" x1="200.65" y1="4.76129" x2="28.4999" y2="176.911" gradientUnits="userSpaceOnUse">
<stop stop-color="#00FFD3"/>
<stop offset="0.1807" stop-color="#00FFD3" stop-opacity="0"/>
</linearGradient>
<linearGradient id="paint6_linear_788_23419" x1="291.776" y1="3.03033" x2="463.926" y2="175.18" gradientUnits="userSpaceOnUse">
<stop stop-color="#00FFD3"/>
<stop offset="0.1807" stop-color="#00FFD3" stop-opacity="0"/>
</linearGradient>
<linearGradient id="paint7_linear_788_23419" x1="291.776" y1="175.18" x2="463.926" y2="3.03026" gradientUnits="userSpaceOnUse">
<stop stop-color="#00FFD3"/>
<stop offset="0.1807" stop-color="#00FFD3" stop-opacity="0"/>
</linearGradient>
<linearGradient id="paint8_linear_788_23419" x1="463.925" y1="175.18" x2="291.775" y2="3.03027" gradientUnits="userSpaceOnUse">
<stop stop-color="#00FFD3"/>
<stop offset="0.1807" stop-color="#00FFD3" stop-opacity="0"/>
</linearGradient>
<linearGradient id="paint9_linear_788_23419" x1="463.925" y1="3.03033" x2="291.775" y2="175.18" gradientUnits="userSpaceOnUse">
<stop stop-color="#00FFD3"/>
<stop offset="0.1807" stop-color="#00FFD3" stop-opacity="0"/>
</linearGradient>
</defs>
</svg>
