<svg xmlns="http://www.w3.org/2000/svg" xmlns:xlink="http://www.w3.org/1999/xlink" width="75" height="75" viewBox="0 0 75 75"><defs><style>.a{fill:#214497;}.b{clip-path:url(#a);}.c{fill:#1a2c57;}.d{fill:#efd358;}.e{fill:#b29930;}.f{fill:#4f6ef7;fill-rule:evenodd;}.g{fill:#223e49;}.h{fill:#a2b1f3;}</style><clipPath id="a"><circle class="a" cx="37.5" cy="37.5" r="37.5" transform="translate(75 75) rotate(180)"/></clipPath></defs><g class="b"><g transform="translate(100 100) rotate(180)"><circle class="a" cx="37.5" cy="37.5" r="37.5" transform="translate(25 25)"/><g transform="translate(-2)"><circle class="c" cx="40" cy="40" r="40"/></g><g transform="translate(38.333 56.667) rotate(180)"><circle class="d" cx="10" cy="10" r="10" transform="translate(0)"/><path class="e" d="M8.333,3.333H1.667A1.667,1.667,0,1,1,1.667,0H8.333a1.667,1.667,0,1,1,0,3.333Z" transform="translate(5 8.333)"/></g><g transform="translate(111.667 85) rotate(180)"><g transform="translate(0 0)"><path class="f" d="M57.645,45H4.022A4,4,0,0,1,0,41.029V3.971A4,4,0,0,1,4.022,0H57.645a4,4,0,0,1,4.022,3.971V41.029A4,4,0,0,1,57.645,45Z"/><rect class="g" width="61.667" height="10" transform="translate(0 8.333)"/><rect class="h" width="30" height="5" transform="translate(8.333 26.667)"/></g></g><g transform="translate(61.667 71.667) rotate(180)"><circle class="d" cx="10" cy="10" r="10"/><path class="e" d="M8.333,3.333H1.667A1.667,1.667,0,0,1,1.667,0H8.333a1.667,1.667,0,1,1,0,3.333Z" transform="translate(5 8.333)"/></g></g></g></svg>