<?xml version="1.0" encoding="UTF-8"?>
<svg width="45px" height="45px" viewBox="0 0 45 45" version="1.1" xmlns="http://www.w3.org/2000/svg" xmlns:xlink="http://www.w3.org/1999/xlink">
    <title>BitPay - Payments</title>
    <defs>
        <circle id="path-1" cx="22.5" cy="22.5" r="22.5"></circle>
        <circle id="path-3" cx="24" cy="24" r="24"></circle>
    </defs>
    <g id="Symbols" stroke="none" stroke-width="1" fill="none" fill-rule="evenodd">
        <g id="Components/Navigation/Dropnav/Products-(Business-+-Personal)" transform="translate(-30.000000, -87.000000)">
            <g id="Product-(Payment)">
                <g transform="translate(30.000000, 82.900000)">
                    <g id="Icons/large-(50px)/Payments" transform="translate(0.000000, 4.000000)">
                        <g id="Icon" transform="translate(22.500000, 22.600000) scale(-1, -1) translate(-22.500000, -22.600000) translate(0.000000, 0.100000)">
                            <mask id="mask-2" fill="white">
                                <use xlink:href="#path-1"></use>
                            </mask>
                            <use id="Oval-4" fill="#214497" xlink:href="#path-1"></use>
                            <g id="Fill-3-+-Fill-4-+-Fill-5-+-Fill-6-+-Fill-7-+-Fill-8-Mask" mask="url(#mask-2)">
                                <g transform="translate(-10.000000, -12.000000)">
                                    <mask id="mask-4" fill="white">
                                        <use xlink:href="#path-3"></use>
                                    </mask>
                                    <use id="Mask" stroke="none" fill="#1A2C57" fill-rule="evenodd" xlink:href="#path-3"></use>
                                </g>
                            </g>
                            <g id="Group" mask="url(#mask-2)">
                                <g transform="translate(-3.000000, 3.000000)"></g>
                            </g>
                            <g id="diag-bottom-right-copy" mask="url(#mask-2)" fill="#4F6EF7" fill-rule="nonzero">
                                <g transform="translate(30.000000, 29.000000) scale(-1, -1) translate(-30.000000, -29.000000) translate(14.000000, 13.000000)" id="Shape">
                                    <path d="M31.2380998,32 L16.0000952,32 C15.6922875,32 15.414194,31.8140963 15.2960994,31.5299076 C15.1780049,31.2449569 15.2435283,30.9173398 15.4614318,30.6994363 L22.0031071,24.157761 L0.223427242,2.37808108 C-0.0744757472,2.08017809 -0.0744757472,1.59789525 0.223427242,1.30075416 L1.30075416,0.223427242 C1.59865715,-0.0744757472 2.08093999,-0.0744757472 2.37808108,0.223427242 L24.157761,22.0031071 L30.6994363,15.4614318 C30.8449593,15.3151469 31.0400057,15.238195 31.2380998,15.238195 C31.3363849,15.238195 31.4354319,15.2572425 31.5299076,15.2960994 C31.8140963,15.414194 32,15.6922875 32,16.0000952 L32,31.2380998 C32,31.6586687 31.6586687,32 31.2380998,32 Z"></path>
                                </g>
                            </g>
                            <g id="diag-bottom-right-copy-2" opacity="0.639999986" mask="url(#mask-2)" fill="#4F6EF7" fill-rule="nonzero">
                                <g transform="translate(29.000000, 39.000000) scale(-1, -1) translate(-29.000000, -39.000000) translate(24.000000, 34.000000)" id="Shape">
                                    <path d="M9.76190618,10 L5.00002976,10 C4.90383986,10 4.81693561,9.94190511 4.78003107,9.85309611 C4.74312653,9.76404902 4.7636026,9.66166868 4.83169743,9.59357385 L6.87597098,7.5493003 L0.069821013,0.743150338 C-0.023273671,0.650055654 -0.023273671,0.499342266 0.069821013,0.406485676 L0.406485676,0.069821013 C0.49958036,-0.023273671 0.650293748,-0.023273671 0.743150338,0.069821013 L7.5493003,6.87597098 L9.59357385,4.83169743 C9.63904977,4.78598342 9.70000179,4.76193594 9.76190618,4.76193594 C9.79262028,4.76193594 9.82357248,4.76788829 9.85309611,4.78003107 C9.94190511,4.81693561 10,4.90383986 10,5.00002976 L10,9.76190618 C10,9.89333397 9.89333397,10 9.76190618,10 Z"></path>
                                </g>
                            </g>
                            <g id="diag-bottom-right-copy-3" mask="url(#mask-2)" fill="#4F6EF7" fill-rule="nonzero">
                                <g transform="translate(40.000000, 26.000000) scale(-1, -1) translate(-40.000000, -26.000000) translate(33.000000, 19.000000)" id="Shape">
                                    <path d="M13.6666687,14 L7.00004167,14 C6.8653758,14 6.74370986,13.9186672 6.6920435,13.7943346 C6.64037714,13.6696686 6.66904364,13.5263362 6.7643764,13.4310034 L9.62635937,10.5690204 L0.0977494182,1.04041047 C-0.0325831394,0.910077916 -0.0325831394,0.699079172 0.0977494182,0.569079946 L0.569079946,0.0977494182 C0.699412503,-0.0325831394 0.910411248,-0.0325831394 1.04041047,0.0977494182 L10.5690204,9.62635937 L13.4310034,6.7643764 C13.4946697,6.70037678 13.5800025,6.66671032 13.6666687,6.66671032 C13.7096684,6.66671032 13.7530015,6.6750436 13.7943346,6.6920435 C13.9186672,6.74370986 14,6.8653758 14,7.00004167 L14,13.6666687 C14,13.8506676 13.8506676,14 13.6666687,14 Z"></path>
                                </g>
                            </g>
                        </g>
                    </g>
                </g>
            </g>
        </g>
    </g>
</svg>
