<?xml version="1.0" encoding="UTF-8"?>
<svg width="34px" height="41px" viewBox="0 0 34 41" version="1.1" xmlns="http://www.w3.org/2000/svg" xmlns:xlink="http://www.w3.org/1999/xlink">
    <!-- Generator: Sketch 63.1 (92452) - https://sketch.com -->
    <title>Shape</title>
    <desc>Created with Sketch.</desc>
    <g id="Page-1" stroke="none" stroke-width="1" fill="none" fill-rule="evenodd">
        <g id="bitpay.com/card/US/fees" transform="translate(-774.000000, -1339.000000)" fill="#4F6EF7">
            <path d="M802.900001,1352.66667 L801.2,1352.66667 L801.2,1349.26708 C801.255686,1343.65559 796.776183,1339.06007 791.192099,1339 L790.9133,1339 C785.368538,1339.00715 780.860497,1343.49388 780.8,1349.0655 L780.8,1352.66667 L779.1,1352.66667 C776.283348,1352.66667 774,1354.96121 774,1357.79167 L774,1374.875 C774,1377.70546 776.283348,1380 779.1,1380 L802.900001,1380 C805.716653,1380 808,1377.70546 808,1374.875 L808,1357.79167 C808,1354.96121 805.716653,1352.66667 802.900001,1352.66667 Z M792.66651,1369.4565 L792.66651,1373 L789.33349,1373 L789.33349,1369.4565 C787.037794,1368.6663 785.660714,1366.38082 786.072469,1364.04435 C786.484225,1361.70787 788.565047,1360 791,1360 C793.434953,1360 795.515775,1361.70787 795.927531,1364.04435 C796.339286,1366.38082 794.962206,1368.6663 792.66651,1369.4565 L792.66651,1369.4565 Z M797.999502,1352 L785,1352 L785,1348.51833 C785.039141,1344.90977 787.900076,1342.00434 791.418504,1342 L791.64437,1342 C793.349685,1342.01757 794.978111,1342.73034 796.170369,1343.98104 C797.362628,1345.23175 798.020738,1346.91761 797.999502,1348.66667 L797.999502,1352 Z" id="Shape"></path>
        </g>
    </g>
</svg>
