<?xml version="1.0" encoding="UTF-8"?>
<svg width="389px" height="241px" viewBox="0 0 389 241" version="1.1" xmlns="http://www.w3.org/2000/svg" xmlns:xlink="http://www.w3.org/1999/xlink">
    <!-- Generator: Sketch 63.1 (92452) - https://sketch.com -->
    <title>Group 19</title>
    <desc>Created with Sketch.</desc>
    <defs>
        <rect id="path-1" x="0" y="0" width="389" height="241" rx="11"></rect>
        <rect id="path-3" x="0" y="0" width="389" height="241" rx="11"></rect>
        <rect id="path-5" x="0" y="0" width="389" height="241" rx="11"></rect>
        <rect id="path-7" x="0" y="0" width="389" height="241" rx="11"></rect>
        <rect id="path-9" x="0" y="0" width="389" height="241" rx="11"></rect>
        <rect id="path-11" x="0" y="0" width="389" height="241" rx="11"></rect>
    </defs>
    <g id="Page-1" stroke="none" stroke-width="1" fill="none" fill-rule="evenodd">
        <g id="Group-19">
            <g id="Card-BG" transform="translate(-0.000000, 0.000000)" fill="#1D3086" fill-rule="nonzero">
                <rect id="path-1" x="0" y="0" width="389" height="241" rx="11"></rect>
            </g>
            <g id="DEBIT-Clipped" transform="translate(-0.000000, 0.000000)">
                <mask id="mask-2" fill="white">
                    <use xlink:href="#path-1"></use>
                </mask>
                <g id="path-1"></g>
                <path d="M324.570312,178.920898 C324.997723,178.920898 325.348957,178.876465 325.624023,178.787598 C326.114911,178.622558 326.516926,178.305178 326.830078,177.835449 C327.079754,177.45882 327.259602,176.976403 327.369629,176.388184 C327.433106,176.036945 327.464844,175.711102 327.464844,175.410645 C327.464844,174.255365 327.235272,173.358239 326.776123,172.719238 C326.316974,172.080238 325.577479,171.760742 324.557617,171.760742 L322.316895,171.760742 L322.316895,178.920898 L324.570312,178.920898 Z M321.047363,170.675293 L324.824219,170.675293 C326.106452,170.675293 327.100908,171.130204 327.807617,172.040039 C328.438154,172.861007 328.753418,173.912591 328.753418,175.194824 C328.753418,176.185064 328.567222,177.080074 328.194824,177.879883 C327.538896,179.293301 326.411141,180 324.811523,180 L321.047363,180 L321.047363,170.675293 Z M331.499023,170.675293 L338.297363,170.675293 L338.297363,171.817871 L332.730469,171.817871 L332.730469,174.648926 L337.878418,174.648926 L337.878418,175.728027 L332.730469,175.728027 L332.730469,178.88916 L338.392578,178.88916 L338.392578,180 L331.499023,180 L331.499023,170.675293 Z M344.553223,174.617188 C345.086428,174.617188 345.501138,174.543132 345.797363,174.39502 C346.26286,174.162271 346.495605,173.74333 346.495605,173.138184 C346.495605,172.528806 346.248049,172.118328 345.75293,171.906738 C345.473631,171.788248 345.058922,171.729004 344.508789,171.729004 L342.255371,171.729004 L342.255371,174.617188 L344.553223,174.617188 Z M344.978516,178.920898 C345.752934,178.920898 346.305174,178.696617 346.635254,178.248047 C346.842612,177.964517 346.946289,177.621747 346.946289,177.219727 C346.946289,176.54264 346.64372,176.081381 346.038574,175.835938 C345.716958,175.704752 345.291669,175.63916 344.762695,175.63916 L342.255371,175.63916 L342.255371,178.920898 L344.978516,178.920898 Z M341.017578,170.675293 L345.022949,170.675293 C346.114752,170.675293 346.891274,171.001136 347.352539,171.652832 C347.623374,172.037925 347.758789,172.482257 347.758789,172.98584 C347.758789,173.574059 347.591636,174.056476 347.257324,174.433105 C347.083821,174.632 346.834149,174.813964 346.508301,174.979004 C346.986493,175.160971 347.344074,175.36621 347.581055,175.594727 C348.000002,176.000979 348.209473,176.561683 348.209473,177.276855 C348.209473,177.87777 348.021161,178.421547 347.644531,178.908203 C347.081703,179.636071 346.186692,180 344.959473,180 L341.017578,180 L341.017578,170.675293 Z M351.005859,170.675293 L352.281738,170.675293 L352.281738,180 L351.005859,180 L351.005859,170.675293 Z M362.117676,170.675293 L362.117676,171.786133 L358.975586,171.786133 L358.975586,180 L357.693359,180 L357.693359,171.786133 L354.55127,171.786133 L354.55127,170.675293 L362.117676,170.675293 Z" id="DEBIT" fill="#C9C9C9" fill-rule="nonzero" mask="url(#mask-2)"></path>
            </g>
            <g id="bitpay-logo-primary-Clipped" transform="translate(-0.000000, 0.000000)">
                <mask id="mask-4" fill="white">
                    <use xlink:href="#path-3"></use>
                </mask>
                <g id="path-1"></g>
                <g id="bitpay-logo-primary" mask="url(#mask-4)">
                    <g transform="translate(35.000000, 28.000000)" id="Group">
                        <g>
                            <path d="M99.9385224,8.69373134 L94.7519789,8.69373134 L91.7350923,21.617194 L91.7403694,21.617194 L91.3258575,23.3948955 C91.0364116,23.4776418 90.748285,23.5520597 90.4622691,23.6103582 C89.9253298,23.7197015 89.3704485,23.7745075 88.7976253,23.7745075 C88.1290237,23.7745075 87.6039578,23.6775224 87.2224274,23.4827463 C86.8403694,23.2885075 86.5720317,23.0152836 86.4168865,22.6625373 C86.2614776,22.310597 86.2021108,21.8914925 86.2379947,21.4049552 C86.2738786,20.9192239 86.3633245,20.3969552 86.5065963,19.8376119 L88.0815303,13.130597 L89.1197889,8.68352239 L89.1200528,8.6821791 L83.821372,8.6821791 L81.4229551,18.999403 C81.1366755,20.2387164 80.9693931,21.4175821 80.9218997,22.535194 C80.8736148,23.6530746 81.0408971,24.6436119 81.4229551,25.5057313 C81.8044855,26.3686567 82.4488127,27.0494328 83.3562005,27.5472537 C84.2627968,28.044806 85.5398417,28.2943881 87.1865435,28.2943881 C88.33219,28.2943881 89.3224274,28.1971343 90.1580475,28.0026269 C90.1918206,27.9948358 90.2242744,27.9865075 90.2572559,27.9781791 L90.2548813,27.9878507 C90.0226913,29.0522687 89.5525066,29.9154627 88.7978892,30.5892537 C88.0424802,31.2635821 86.9216359,31.6007463 85.4353562,31.6007463 C84.8007916,31.6007463 84.2242744,31.5623284 83.701847,31.4887164 L82.6810026,35.8619104 C83.371504,35.9529851 84.1369393,36 84.9823219,36 C86.5617414,36 87.9443272,35.8162388 89.1290237,35.449791 C90.3137203,35.0830746 91.3295515,34.5274925 92.1775726,33.7822388 C93.0253298,33.0372537 93.7337731,32.102597 94.3031662,30.9798806 C94.8720317,29.8560896 95.3308707,28.5262388 95.6794195,26.9884478 L99.2683377,11.6263881 C99.2638522,11.6242388 99.2596306,11.6226269 99.255409,11.6207463 L99.9385224,8.69373134" id="Fill-1" fill="#FFFFFF" fill-rule="nonzero"></path>
                            <path d="M74.4984169,13.1346269 C72.0799472,13.1346269 71.6182058,13.1346269 70.6271768,13.6579701 C69.9237467,14.0292537 69.3414248,14.5875224 68.8300792,15.2387463 C68.3182058,15.8902388 67.9171504,16.6419403 67.6266491,17.4943881 C67.3353562,18.3473731 67.1902375,19.2352836 67.1902375,20.1589254 C67.1902375,21.2956119 67.3762533,22.1961493 67.7488127,22.8589254 C68.1203166,23.5222388 68.8068602,23.8534925 69.807124,23.8534925 C70.3419525,23.8534925 70.8245383,23.7471045 71.2551451,23.533791 C71.6852243,23.3207463 72.1448549,22.9653134 72.6332454,22.4680299 C72.6796834,21.8764478 72.755409,21.2547761 72.8601583,20.6030149 C72.9646438,19.9520597 73.0973615,19.3483881 73.2139842,18.8030149 L74.4984169,13.1346269 M78.1810026,19.7325672 C77.8548813,21.0828358 77.7620053,22.4384776 77.9015831,23.8002985 C78.0414248,25.1626567 78.5530343,27.2495821 79.0519789,28.2943881 L74.0327177,28.2943881 C73.4195251,27.2382985 73.4472296,26.7434328 73.3311346,26.4113731 C72.6796834,26.9564776 71.9585752,27.406209 71.1680739,27.7613731 C70.3770449,28.1165373 69.4931398,28.2943881 68.516095,28.2943881 C67.3530343,28.2943881 66.3585752,28.0867164 65.5332454,27.6727164 C64.707124,27.2584478 64.0327177,26.701791 63.5094987,26.0030149 C62.9860158,25.3047761 62.6076517,24.4875224 62.3757256,23.551791 C62.1427441,22.6163284 62.0266491,21.6155821 62.0266491,20.5498209 C62.0266491,18.9155821 62.3110818,17.3761791 62.8815303,15.9316119 C63.4511873,14.4870448 64.2422164,13.2257015 65.2540897,12.1478507 C66.2656992,11.0702687 68.7076517,8.694 72.7147757,8.694 C74.446438,8.694 76.7738786,8.69373134 80.7614776,8.69373134 L78.1810026,19.7325672" id="Fill-2" fill="#FFFFFF" fill-rule="nonzero"></path>
                            <path d="M47.8337731,23.786597 C48.2319261,23.8822388 48.7234828,23.929791 49.3092348,23.929791 C50.2224274,23.929791 51.0532982,23.7570448 51.8031662,23.4112836 C52.5522427,23.065791 53.1905013,22.5830149 53.7174142,21.9626866 C54.2443272,21.3428955 54.653562,20.5981791 54.9467018,19.7274627 C55.2390501,18.8572836 55.385752,17.8979104 55.385752,16.8485373 C55.385752,15.8236119 55.1630607,14.9528955 54.7184697,14.2377313 C54.2733509,13.5222985 53.4931398,13.1421493 52.3926121,13.1375821 C51.623219,13.1346269 50.3453826,13.1346269 50.3453826,13.1346269 L47.8337731,23.786597 L47.8337731,23.786597 Z M60.5841689,16.4549552 C60.5841689,18.1958507 60.3031662,19.7873731 59.7411609,21.2295224 C59.1794195,22.6724776 58.4005277,23.9182388 57.4055409,24.966806 C56.4097625,26.0164478 55.2155673,26.8328955 53.8226913,27.4169552 C52.4292876,28.0007463 50.9129288,28.2930448 49.2738786,28.2930448 C48.4775726,28.2930448 47.6812665,28.2215821 46.8854881,28.0783881 L45.3047493,34.5516716 L40.1063325,34.5516716 L46.1406332,8.69402985 C47.0184697,8.69373134 51.662533,8.69402985 53.0675462,8.69402985 C54.378628,8.69402985 55.5087071,8.89710448 56.4569921,9.30223881 C57.4055409,9.70791045 58.1836412,10.2621493 58.792876,10.9652239 C59.4013193,11.6688358 59.8519789,12.4914627 60.1451187,13.4328358 C60.437467,14.3752836 60.5841689,15.382209 60.5841689,16.4549552 L60.5841689,16.4549552 Z" id="Fill-3" fill="#FFFFFF" fill-rule="nonzero"></path>
                            <path d="M36.916095,23.7782687 C36.2477573,23.7782687 35.7224274,23.6815522 35.3411609,23.4867761 C34.9588391,23.2925373 34.6905013,23.0190448 34.5356201,22.6665672 C34.3799472,22.3146269 34.3208443,21.8952537 34.3564644,21.4089851 C34.3923483,20.9232537 34.4817942,20.4009851 34.625066,19.8416418 L36.2002639,13.1346269 L42.107124,13.1346269 L43.1810026,8.68755224 L37.2382586,8.68755224 L38.5986807,3.03743284 L33.0498681,3.91244776 L29.5414248,19.0031642 C29.2551451,20.2424776 29.0878628,21.4216119 29.0403694,22.5389552 C28.9920844,23.6571045 29.1593668,24.6473731 29.5414248,25.5097612 C29.9229551,26.3726866 30.5672823,27.053194 31.4746702,27.5510149 C32.3812665,28.0488358 33.6583113,28.2981493 35.305277,28.2981493 C36.4506596,28.2981493 37.4408971,28.2008955 38.2765172,28.0066567 C38.3627968,27.9865075 38.4939314,27.9542687 38.5788918,27.9333134 L39.6591029,23.3325672 C39.2963061,23.4585672 38.9319261,23.5429254 38.5807388,23.6143881 C38.0437995,23.7237313 37.4889182,23.7782687 36.916095,23.7782687" id="Fill-4" fill="#FFFFFF" fill-rule="nonzero"></path>
                            <polyline id="Fill-5" fill="#FFFFFF" fill-rule="nonzero" points="23.6868074 8.68244776 19.1079156 28.2981493 24.294723 28.2981493 28.8736148 8.68244776 23.6868074 8.68244776"></polyline>
                            <polyline id="Fill-6" fill="#FFFFFF" fill-rule="nonzero" points="29.4108179 6.41444776 30.2063325 3.00707463 25.0195251 3.00707463 24.2240106 6.41444776 29.4108179 6.41444776"></polyline>
                            <path d="M7.64986807,23.9195821 C8.4646438,23.9195821 9.23324538,23.7183582 9.95514512,23.3151045 C10.676781,22.9121194 11.3002639,22.3723881 11.8242744,21.6967164 C12.3480211,21.0207761 12.7612137,20.2561791 13.0641161,19.4026567 C13.3664908,18.5491343 13.5182058,17.6598806 13.5182058,16.7348955 C13.5182058,15.5968657 13.3316623,14.7076119 12.9593668,14.0676716 C12.5865435,13.427194 11.8121372,13.1346269 10.8113456,13.1346269 C10.4849604,13.1346269 10.1474934,13.166597 9.62348285,13.2850746 C9.0994723,13.4040896 8.6474934,13.6501791 8.22849604,14.0292537 L5.95092348,23.785791 C6.62453826,23.9058806 6.85778364,23.9195821 7.02110818,23.9195821 L7.64986807,23.9195821 L7.64986807,23.9195821 Z M12.1907652,8.69695522 C13.3087071,8.69695522 14.2746702,8.89871642 15.0902375,9.30170149 C15.9050132,9.70495522 16.5802111,10.2500597 17.116095,10.9375522 C17.6514512,11.6255821 18.0472296,12.4312836 18.3036939,13.3562687 C18.5596306,14.2809851 18.6881266,15.2768955 18.6881266,16.3437313 C18.6881266,17.9798507 18.3912929,19.5270448 17.7973615,20.9853134 C17.2034301,22.4435821 16.3941953,23.7121791 15.369657,24.7911045 C14.344591,25.8702985 13.1340369,26.7238209 11.7366755,27.3516716 C10.3395778,27.979791 8.82559367,28.2943881 7.19577836,28.2943881 C6.98627968,28.2943881 6.61952507,28.288209 6.09551451,28.2766567 C5.57150396,28.2642985 4.97150396,28.2111045 4.29630607,28.1165373 C3.62084433,28.0214328 2.90474934,27.8793134 2.14828496,27.6896418 C1.39102902,27.5002388 0.675197889,27.2396418 0,26.9073134 L6.04300792,1.04991045 L11.4575198,0.19638806 L9.3182058,9.36053731 C9.78364116,9.14722388 10.2226913,8.9938209 10.6889182,8.87480597 C11.1543536,8.75632836 11.6548813,8.69695522 12.1907652,8.69695522 L12.1907652,8.69695522 Z" id="Fill-7" fill="#FFFFFF" fill-rule="nonzero"></path>
                        </g>
                    </g>
                </g>
            </g>
            <g id="expiration-Clipped" transform="translate(-0.000000, 0.000000)">
                <mask id="mask-6" fill="white">
                    <use xlink:href="#path-5"></use>
                </mask>
                <g id="path-1"></g>
                <g id="expiration" mask="url(#mask-6)">
                    <g transform="translate(149.000000, 168.000000)" id="01/21">
                        <g transform="translate(0.346875, 0.291414)">
                            <path d="M0.7323325,10.56766 L0.7323325,1.79021027 C0.7323325,1.405922 0.8720716,1.07404165 1.151554,0.79455926 C1.4310364,0.51507688 1.7629167,0.37533779 2.147205,0.37533779 L6.7237061,0.37533779 C7.1021718,0.37533779 7.4296853,0.51507688 7.7062564,0.79455926 C7.9828276,1.07404165 8.121111,1.405922 8.121111,1.79021027 L8.121111,10.56766 C8.121111,10.9577708 7.9828276,11.2911067 7.7062564,11.5676779 C7.4296853,11.844249 7.0963494,11.9825324 6.7062385,11.9825324 L2.147205,11.9825324 C1.7512716,11.9825324 1.41648,11.844249 1.1428202,11.5676779 C0.8691604,11.2911067 0.7323325,10.9577708 0.7323325,10.56766 L0.7323325,10.56766 Z M6.6713034,10.5152573 L6.6713034,1.86008052 L2.1996077,1.86008052 L2.1996077,10.5152573 L6.6713034,10.5152573 Z M12.2521893,10.5152573 L14.5055048,10.5152573 L14.5055048,1.86008052 L12.2871245,1.86008052 C12.0833352,1.86008052 11.910117,1.78875535 11.7674645,1.64610289 C11.624812,1.50345042 11.5534869,1.33023217 11.5534869,1.12644293 C11.5534869,0.9226537 11.624812,0.74943544 11.7674645,0.60678298 C11.910117,0.46413051 12.0833352,0.39280535 12.2871245,0.39280535 L15.97278,0.39280535 L15.97278,10.5152573 L17.4400551,10.5152573 L17.4400551,7.458434 C17.4400551,7.26046731 17.5113803,7.08870467 17.6540328,6.94314093 C17.7966852,6.79757719 17.9699035,6.72479641 18.1736927,6.72479641 C18.3774819,6.72479641 18.5507002,6.79612157 18.6933527,6.93877404 C18.8360051,7.08142651 18.9073303,7.25464476 18.9073303,7.458434 L18.9073303,11.2488949 C18.9073303,11.4526841 18.8360051,11.6259023 18.6933527,11.7685548 C18.5507002,11.9112073 18.3774819,11.9825324 18.1736927,11.9825324 L12.2521893,11.9825324 C12.0484001,11.9825324 11.8751819,11.908296 11.7325294,11.759821 C11.5898769,11.611346 11.5185518,11.4352165 11.5185518,11.2314273 C11.5185518,11.0334606 11.5898769,10.8646092 11.7325294,10.724868 C11.8751819,10.5851268 12.0484001,10.5152573 12.2521893,10.5152573 L12.2521893,10.5152573 Z M29.7372185,1.65920356 L23.78078,11.7816555 C23.6876192,11.9330418 23.5391464,12.0087338 23.3353571,12.0087338 C23.143213,12.0087338 22.9641723,11.9432311 22.7982296,11.8122237 C22.632287,11.6812163 22.5493169,11.5138206 22.5493169,11.3100313 C22.5493169,11.1295323 22.6075415,10.937391 22.7239925,10.7336018 L28.680431,0.61988365 C28.7794143,0.46267481 28.9337096,0.38407157 29.1433214,0.38407157 C29.329643,0.38407157 29.5057724,0.44666304 29.6717151,0.57184785 C29.8376578,0.69703267 29.9206279,0.86151723 29.9206279,1.06530647 C29.9206279,1.2574506 29.859492,1.45541432 29.7372185,1.65920356 L29.7372185,1.65920356 Z M39.833469,11.9825324 L33.1608605,11.9825324 L33.1608605,6.91693959 C33.1608605,6.50936111 33.3049665,6.16001338 33.5931827,5.86888589 C33.8813989,5.57775841 34.2263798,5.43219686 34.6281357,5.43219686 L39.0823639,5.43219686 L39.0823639,1.86008052 L33.8420954,1.86008052 C33.6324836,1.86008052 33.4578098,1.78875535 33.3180686,1.64610289 C33.1783274,1.50345042 33.1084578,1.33023217 33.1084578,1.12644293 C33.1084578,0.9226537 33.1783274,0.74943544 33.3180686,0.60678298 C33.4578098,0.46413051 33.6324836,0.39280535 33.8420954,0.39280535 L39.0823639,0.39280535 C39.4899424,0.39280535 39.8392901,0.53691129 40.1304176,0.8251275 C40.4215451,1.1133437 40.5671066,1.45832459 40.5671066,1.86008052 L40.5671066,5.43219686 C40.5671066,5.84559788 40.4215451,6.19640123 40.1304176,6.48461744 C39.8392901,6.77283365 39.4899424,6.91693959 39.0823639,6.91693959 L34.6281357,6.91693959 L34.6281357,10.5152573 L39.833469,10.5152573 C40.0314357,10.5152573 40.2031984,10.5865824 40.3487621,10.7292349 C40.4943258,10.8718874 40.5671066,11.0451056 40.5671066,11.2488949 C40.5671066,11.4526841 40.4943258,11.6259023 40.3487621,11.7685548 C40.2031984,11.9112073 40.0314357,11.9825324 39.833469,11.9825324 L39.833469,11.9825324 Z M44.6632498,10.5152573 L46.9165652,10.5152573 L46.9165652,1.86008052 L44.6981849,1.86008052 C44.4943957,1.86008052 44.3211774,1.78875535 44.178525,1.64610289 C44.0358725,1.50345042 43.9645473,1.33023217 43.9645473,1.12644293 C43.9645473,0.9226537 44.0358725,0.74943544 44.178525,0.60678298 C44.3211774,0.46413051 44.4943957,0.39280535 44.6981849,0.39280535 L48.3838404,0.39280535 L48.3838404,10.5152573 L49.8511156,10.5152573 L49.8511156,7.458434 C49.8511156,7.26046731 49.9224408,7.08870467 50.0650932,6.94314093 C50.2077457,6.79757719 50.3809639,6.72479641 50.5847532,6.72479641 C50.7885424,6.72479641 50.9617607,6.79612157 51.1044131,6.93877404 C51.2470656,7.08142651 51.3183908,7.25464476 51.3183908,7.458434 L51.3183908,11.2488949 C51.3183908,11.4526841 51.2470656,11.6259023 51.1044131,11.7685548 C50.9617607,11.9112073 50.7885424,11.9825324 50.5847532,11.9825324 L44.6632498,11.9825324 C44.4594606,11.9825324 44.2862423,11.908296 44.1435899,11.759821 C44.0009374,11.611346 43.9296122,11.4352165 43.9296122,11.2314273 C43.9296122,11.0334606 44.0009374,10.8646092 44.1435899,10.724868 C44.2862423,10.5851268 44.4594606,10.5152573 44.6632498,10.5152573 L44.6632498,10.5152573 Z" id="Shape" fill="#C9C9C9" fill-rule="nonzero"></path>
                        </g>
                    </g>
                </g>
            </g>
            <g id="card-holder-Clipped" transform="translate(-0.000000, 0.000000)">
                <mask id="mask-8" fill="white">
                    <use xlink:href="#path-7"></use>
                </mask>
                <g id="path-1"></g>
                <g id="card-holder" mask="url(#mask-8)">
                    <g transform="translate(37.000000, 193.000000)" id="SATOSHI-NAKAMOTO">
                        <g transform="translate(0.468750, 0.835968)">
                            <path d="M2.46731097,0.288845 L6.28397317,0.288845 C6.74977714,0.288845 7.19082866,0.4853531 7.60714096,0.8783752 C8.02345325,1.2713973 8.23160628,1.7473835 8.23160628,2.3063483 C8.23160628,2.5159601 8.15736989,2.6935452 8.00889487,2.8391089 C7.86041986,2.9846727 7.6959353,3.0574535 7.51543626,3.0574535 C7.26506662,3.0574535 7.09330399,3.0006845 7.00014319,2.8871447 C6.9069824,2.773605 6.81818985,2.5625408 6.73376288,2.2539456 C6.64933591,1.9453505 6.4615615,1.7910552 6.17043402,1.7910552 L2.545915,1.7910552 C2.37123851,1.7910552 2.28390157,1.8463686 2.28390157,1.9569971 C2.28390157,2.0268677 2.32174758,2.1083821 2.39744072,2.2015429 L7.83858615,9.1623662 C8.10060088,9.5000741 8.23160628,9.8610668 8.23160628,10.245355 C8.23160628,10.6820463 8.07294418,11.0663288 7.75561523,11.3982141 C7.43828627,11.7300994 7.08457169,11.8960396 6.69446086,11.8960396 L2.73805817,11.8960396 C2.21402871,11.8960396 1.75842103,11.6966203 1.37122148,11.2977756 C0.984021931,10.898931 0.790425059,10.4607907 0.790425059,9.9833416 C0.790425059,9.4360219 1.0466134,9.1623662 1.55899777,9.1623662 C1.75696446,9.1623662 1.92581586,9.2336914 2.06555705,9.3763438 C2.20529824,9.5189963 2.27516779,9.6863921 2.27516779,9.8785362 C2.27516779,10.0357451 2.32902557,10.1667505 2.43674274,10.2715564 C2.5444599,10.3763623 2.67983215,10.4287644 2.84286354,10.4287644 L6.49358391,10.4287644 C6.65079275,10.4287644 6.72939599,10.3676286 6.72939599,10.245355 C6.72939599,10.1871295 6.69154998,10.1114375 6.61585684,10.0182767 L1.18344519,3.0574535 C0.927253011,2.7255681 0.79915884,2.3645755 0.79915884,1.9744646 C0.79915884,1.5203058 0.962187784,1.1258339 1.28825056,0.7910373 C1.61431334,0.4562407 2.00732955,0.288845 2.46731097,0.288845 L2.46731097,0.288845 Z M11.6552483,10.8741873 L14.6247338,0.8390731 C14.7411848,0.4722525 14.9857282,0.288845 15.3583714,0.288845 C15.7193695,0.288845 15.9464455,0.4431402 16.0396063,0.7517353 L18.9654229,10.9440575 C18.9887131,11.0197506 19.000358,11.0925314 19.000358,11.162402 C19.000358,11.3661913 18.9304884,11.5394095 18.7907472,11.682062 C18.6510061,11.8247144 18.4908883,11.8960396 18.3103893,11.8960396 C17.926101,11.8960396 17.6815576,11.7184545 17.5767517,11.363279 L16.9828546,9.371977 L13.6378166,9.371977 L12.9915168,11.5030195 C12.9740492,11.5961803 12.9012684,11.6849728 12.7731723,11.7693998 C12.6450762,11.8538268 12.5053371,11.8960396 12.3539508,11.8960396 C12.1385165,11.8960396 11.9609314,11.8232588 11.8211902,11.6776951 C11.681449,11.5321313 11.6115794,11.3545462 11.6115794,11.1449345 C11.6115794,11.0575962 11.6261356,10.967348 11.6552483,10.8741873 L11.6552483,10.8741873 Z M15.3409038,3.6862857 L14.0832394,7.8872342 L16.5548994,7.8872342 L15.3409038,3.6862857 Z M22.3977987,2.2888807 L22.3977987,0.3063125 L29.8040448,0.3063125 L29.8040448,2.3063483 C29.8040448,2.5101375 29.731264,2.6833558 29.5857003,2.8260083 C29.4401365,2.9686607 29.2683739,3.0399859 29.0704072,3.0399859 C28.866618,3.0399859 28.6904885,2.9672051 28.5420135,2.8216414 C28.3935385,2.6760776 28.3193021,2.504315 28.3193021,2.3063483 L28.3193021,1.7735877 L26.8345593,1.7735877 L26.8345593,11.162402 C26.8345593,11.3661913 26.7617786,11.5394095 26.6162148,11.682062 C26.4706511,11.8247144 26.2988884,11.8960396 26.1009218,11.8960396 C25.89131,11.8960396 25.7137249,11.8247144 25.5681611,11.682062 C25.4225974,11.5394095 25.3498166,11.3661913 25.3498166,11.162402 L25.3498166,1.7735877 L23.8650739,1.7735877 L23.8650739,2.2888807 C23.8650739,2.49267 23.7937487,2.6658882 23.6510962,2.8085407 C23.5084438,2.9511932 23.3352255,3.0225183 23.1314363,3.0225183 C22.9276471,3.0225183 22.7544288,2.9511932 22.6117763,2.8085407 C22.4691239,2.6658882 22.3977987,2.49267 22.3977987,2.2888807 L22.3977987,2.2888807 Z M38.6513647,1.3631 L40.2671142,4.6557353 C40.4941936,5.1040717 40.6077316,5.5902473 40.6077316,6.1142767 C40.6077316,6.6266611 40.4941936,7.1099255 40.2671142,7.5640843 L38.6513647,10.8217846 C38.3078343,11.5379582 37.7255881,11.8960396 36.9046086,11.8960396 C36.5144977,11.8960396 36.1636944,11.7941465 35.852188,11.5903573 C35.5406816,11.386568 35.3063275,11.1303797 35.1491186,10.8217846 L33.5246354,7.5640843 C33.3092011,7.1390382 33.2014855,6.6557738 33.2014855,6.1142767 C33.2014855,5.5727796 33.3092011,5.086604 33.5246354,4.6557353 L35.1491186,1.3631 C35.5159393,0.6469264 36.1010967,0.288845 36.9046086,0.288845 C37.7197655,0.288845 38.3020118,0.6469264 38.6513647,1.3631 L38.6513647,1.3631 Z M36.4155168,2.0967376 L34.895839,5.188496 C34.7560978,5.4970911 34.6862283,5.7998591 34.6862283,6.0968092 C34.6862283,6.4170494 34.7560978,6.7227287 34.895839,7.0138561 L36.4591858,10.1405497 C36.5407014,10.3326938 36.6891742,10.4287644 36.9046086,10.4287644 C37.0909302,10.4287644 37.2335805,10.3326938 37.3325638,10.1405497 L38.9046444,7.0138561 C39.0502081,6.705261 39.1229889,6.3995817 39.1229889,6.0968092 C39.1229889,5.7765689 39.0502081,5.4738009 38.9046444,5.188496 L37.367499,2.0967376 C37.2685156,1.8696581 37.1142204,1.7561201 36.9046086,1.7561201 C36.6949968,1.7561201 36.5319678,1.8696581 36.4155168,2.0967376 L36.4155168,2.0967376 Z M45.6820583,0.288845 L49.4987205,0.288845 C49.9645244,0.288845 50.4055759,0.4853531 50.8218882,0.8783752 C51.2382005,1.2713973 51.4463536,1.7473835 51.4463536,2.3063483 C51.4463536,2.5159601 51.3721172,2.6935452 51.2236422,2.8391089 C51.0751671,2.9846727 50.9106826,3.0574535 50.7301835,3.0574535 C50.4798139,3.0574535 50.3080513,3.0006845 50.2148905,2.8871447 C50.1217297,2.773605 50.0329371,2.5625408 49.9485102,2.2539456 C49.8640832,1.9453505 49.6763088,1.7910552 49.3851813,1.7910552 L45.7606623,1.7910552 C45.5859858,1.7910552 45.4986489,1.8463686 45.4986489,1.9569971 C45.4986489,2.0268677 45.5364949,2.1083821 45.612188,2.2015429 L51.0533334,9.1623662 C51.3153482,9.5000741 51.4463536,9.8610668 51.4463536,10.245355 C51.4463536,10.6820463 51.2876915,11.0663288 50.9703625,11.3982141 C50.6530336,11.7300994 50.299319,11.8960396 49.9092082,11.8960396 L45.9528055,11.8960396 C45.428776,11.8960396 44.9731683,11.6966203 44.5859688,11.2977756 C44.1987692,10.898931 44.0051723,10.4607907 44.0051723,9.9833416 C44.0051723,9.4360219 44.2613607,9.1623662 44.7737451,9.1623662 C44.9717117,9.1623662 45.1405631,9.2336914 45.2803043,9.3763438 C45.4200455,9.5189963 45.4899151,9.6863921 45.4899151,9.8785362 C45.4899151,10.0357451 45.5437729,10.1667505 45.65149,10.2715564 C45.7592072,10.3763623 45.8945794,10.4287644 46.0576108,10.4287644 L49.7083312,10.4287644 C49.86554,10.4287644 49.9441433,10.3676286 49.9441433,10.245355 C49.9441433,10.1871295 49.9062973,10.1114375 49.8306041,10.0182767 L44.3981925,3.0574535 C44.1420003,2.7255681 44.0139061,2.3645755 44.0139061,1.9744646 C44.0139061,1.5203058 44.1769351,1.1258339 44.5029978,0.7910373 C44.8290606,0.4562407 45.2220768,0.288845 45.6820583,0.288845 L45.6820583,0.288845 Z M54.7913916,11.162402 L54.7913916,1.0224825 C54.7913916,0.8245158 54.8627168,0.6527532 55.0053692,0.5071895 C55.1480217,0.3616257 55.32124,0.288845 55.5250292,0.288845 C55.7229959,0.288845 55.8947585,0.3616257 56.0403223,0.5071895 C56.185886,0.6527532 56.2586668,0.8245158 56.2586668,1.0224825 L56.2586668,5.345704 L60.7303625,5.345704 L60.7303625,1.0224825 C60.7303625,0.8245158 60.8016877,0.6527532 60.9443402,0.5071895 C61.0869926,0.3616257 61.2602109,0.288845 61.4640001,0.288845 C61.6677894,0.288845 61.8410076,0.3616257 61.9836601,0.5071895 C62.1263125,0.6527532 62.1976377,0.8303383 62.1976377,1.0399501 L62.1976377,11.162402 C62.1976377,11.3603687 62.1234013,11.5321313 61.9749263,11.6776951 C61.8264513,11.8232588 61.6561443,11.8960396 61.4640001,11.8960396 C61.2543883,11.8960396 61.0797145,11.8247144 60.9399733,11.682062 C60.8002321,11.5394095 60.7303625,11.3661913 60.7303625,11.162402 L60.7303625,6.8129792 L56.2761343,6.8129792 L56.2761343,11.162402 C56.2761343,11.3603687 56.2018979,11.5321313 56.0534229,11.6776951 C55.9049479,11.8232588 55.7288184,11.8960396 55.5250292,11.8960396 C55.3270625,11.8960396 55.1552999,11.8247144 55.0097361,11.682062 C54.8641724,11.5394095 54.7913916,11.3661913 54.7913916,11.162402 L54.7913916,11.162402 Z M66.3461836,0.288845 L72.2851545,0.288845 C72.4772986,0.288845 72.6476057,0.3616257 72.7960807,0.5071895 C72.9445557,0.6527532 73.0187921,0.8245158 73.0187921,1.0224825 C73.0187921,1.2262718 72.9460113,1.4024013 72.8004476,1.5508763 C72.6548838,1.6993513 72.4831212,1.7735877 72.2851545,1.7735877 L70.0667742,1.7735877 L70.0667742,10.4287644 L72.2851545,10.4287644 C72.4889437,10.4287644 72.662162,10.5000896 72.8048145,10.6427421 C72.9474669,10.7853945 73.0187921,10.9586128 73.0187921,11.162402 C73.0187921,11.3661913 72.9460113,11.5394095 72.8004476,11.682062 C72.6548838,11.8247144 72.4831212,11.8960396 72.2851545,11.8960396 L66.3461836,11.8960396 C66.1423943,11.8960396 65.9691761,11.8247144 65.8265236,11.682062 C65.6838712,11.5394095 65.612546,11.3661913 65.612546,11.162402 C65.612546,10.9586128 65.6838712,10.7853945 65.8265236,10.6427421 C65.9691761,10.5000896 66.1423943,10.4287644 66.3461836,10.4287644 L68.599499,10.4287644 L68.599499,1.7735877 L66.3461836,1.7735877 C66.1423943,1.7735877 65.9691761,1.7008069 65.8265236,1.5552432 C65.6838712,1.4096794 65.612546,1.2379168 65.612546,1.0399501 C65.612546,0.8303383 65.6838712,0.6527532 65.8265236,0.5071895 C65.9691761,0.3616257 66.1423943,0.288845 66.3461836,0.288845 L66.3461836,0.288845 Z M94.6261657,1.0399501 L94.6261657,11.8960396 L92.6523313,11.8960396 L88.7046624,2.8827778 L88.7046624,11.162402 C88.7046624,11.3661913 88.6333372,11.5394095 88.4906847,11.682062 C88.3480323,11.8247144 88.174814,11.8960396 87.9710248,11.8960396 C87.7672355,11.8960396 87.5940173,11.8247144 87.4513648,11.682062 C87.3087124,11.5394095 87.2373872,11.3661913 87.2373872,11.162402 L87.2373872,0.288845 L89.1850203,0.288845 L93.141423,9.2846392 L93.141423,1.0399501 C93.141423,0.8361609 93.2156594,0.6600314 93.3641344,0.5115564 C93.5126094,0.3630813 93.6887389,0.288845 93.8925281,0.288845 C94.0963174,0.288845 94.2695356,0.3616257 94.4121881,0.5071895 C94.5548406,0.6527532 94.6261657,0.8303383 94.6261657,1.0399501 L94.6261657,1.0399501 Z M98.0847429,10.8741873 L101.054228,0.8390731 C101.170679,0.4722525 101.415223,0.288845 101.787866,0.288845 C102.148864,0.288845 102.37594,0.4431402 102.469101,0.7517353 L105.394917,10.9440575 C105.418208,11.0197506 105.429853,11.0925314 105.429853,11.162402 C105.429853,11.3661913 105.359983,11.5394095 105.220242,11.682062 C105.080501,11.8247144 104.920383,11.8960396 104.739884,11.8960396 C104.355596,11.8960396 104.111052,11.7184545 104.006246,11.363279 L103.412349,9.371977 L100.067311,9.371977 L99.4210114,11.5030195 C99.4035437,11.5961803 99.3307629,11.6849728 99.2026669,11.7693998 C99.0745708,11.8538268 98.9348317,11.8960396 98.7834454,11.8960396 C98.568011,11.8960396 98.3904259,11.8232588 98.2506848,11.6776951 C98.1109436,11.5321313 98.041074,11.3545462 98.041074,11.1449345 C98.041074,11.0575962 98.0556302,10.967348 98.0847429,10.8741873 L98.0847429,10.8741873 Z M101.770398,3.6862857 L100.512734,7.8872342 L102.984394,7.8872342 L101.770398,3.6862857 Z M108.827293,11.162402 L108.827293,1.0399501 C108.827293,0.8303383 108.898618,0.6527532 109.041271,0.5071895 C109.183923,0.3616257 109.357142,0.288845 109.560931,0.288845 C109.76472,0.288845 109.937938,0.3601701 110.080591,0.5028226 C110.223243,0.645475 110.294568,0.8186933 110.294568,1.0224825 L110.294568,4.4897935 L114.993343,0.4809881 C115.156374,0.3470695 115.339781,0.2801112 115.543571,0.2801112 C115.74736,0.2801112 115.919123,0.3558032 116.058864,0.5071895 C116.198605,0.6585758 116.268474,0.8332496 116.268474,1.0312163 C116.268474,1.2350056 116.189871,1.403857 116.032662,1.5377756 L110.705056,6.061874 L116.032662,10.6645765 C116.178226,10.7868501 116.251007,10.9440565 116.251007,11.1362007 C116.251007,11.3283448 116.179682,11.5030187 116.037029,11.6602275 C115.894377,11.8174364 115.718247,11.8960396 115.508636,11.8960396 C115.310669,11.8960396 115.133084,11.8290813 114.975875,11.6951626 L110.294568,7.6601559 L110.294568,11.162402 C110.294568,11.3661913 110.223243,11.5394095 110.080591,11.682062 C109.937938,11.8247144 109.76472,11.8960396 109.560931,11.8960396 C109.362964,11.8960396 109.191202,11.8247144 109.045638,11.682062 C108.900074,11.5394095 108.827293,11.3661913 108.827293,11.162402 L108.827293,11.162402 Z M119.692117,10.8741873 L122.661602,0.8390731 C122.778053,0.4722525 123.022596,0.288845 123.39524,0.288845 C123.756238,0.288845 123.983314,0.4431402 124.076475,0.7517353 L127.002291,10.9440575 C127.025581,11.0197506 127.037226,11.0925314 127.037226,11.162402 C127.037226,11.3661913 126.967357,11.5394095 126.827615,11.682062 C126.687874,11.8247144 126.527757,11.8960396 126.347258,11.8960396 C125.962969,11.8960396 125.718426,11.7184545 125.61362,11.363279 L125.019723,9.371977 L121.674685,9.371977 L121.028385,11.5030195 C121.010917,11.5961803 120.938137,11.6849728 120.81004,11.7693998 C120.681944,11.8538268 120.542205,11.8960396 120.390819,11.8960396 C120.175385,11.8960396 119.9978,11.8232588 119.858058,11.6776951 C119.718317,11.5321313 119.648448,11.3545462 119.648448,11.1449345 C119.648448,11.0575962 119.663004,10.967348 119.692117,10.8741873 L119.692117,10.8741873 Z M123.377772,3.6862857 L122.120108,7.8872342 L124.591768,7.8872342 L123.377772,3.6862857 Z M133.404152,4.8478785 L133.404152,4.4723259 L131.884475,2.3063483 L131.884475,11.162402 C131.884475,11.3661913 131.813149,11.5394095 131.670497,11.682062 C131.527844,11.8247144 131.354626,11.8960396 131.150837,11.8960396 C130.947048,11.8960396 130.773829,11.8232588 130.631177,11.6776951 C130.488525,11.5321313 130.417199,11.3603687 130.417199,11.162402 L130.417199,0.288845 L132.31243,0.288845 L134.120322,2.917713 L135.980618,0.288845 L137.840913,0.288845 L137.840913,11.162402 C137.840913,11.3661913 137.766677,11.5394095 137.618202,11.682062 C137.469727,11.8247144 137.293597,11.8960396 137.089808,11.8960396 C136.891841,11.8960396 136.720079,11.8232588 136.574515,11.6776951 C136.428951,11.5321313 136.35617,11.3603687 136.35617,11.162402 L136.35617,2.3412834 L134.871428,4.4373908 L134.871428,4.8478785 C134.871428,5.0458452 134.798647,5.2176078 134.653083,5.3631716 C134.507519,5.5087353 134.335757,5.5815161 134.13779,5.5815161 C133.934001,5.5815161 133.760782,5.5087353 133.61813,5.3631716 C133.475478,5.2176078 133.404152,5.0458452 133.404152,4.8478785 L133.404152,4.8478785 Z M146.688233,1.3631 L148.303982,4.6557353 C148.531062,5.1040717 148.6446,5.5902473 148.6446,6.1142767 C148.6446,6.6266611 148.531062,7.1099255 148.303982,7.5640843 L146.688233,10.8217846 C146.344703,11.5379582 145.762456,11.8960396 144.941477,11.8960396 C144.551366,11.8960396 144.200563,11.7941465 143.889056,11.5903573 C143.57755,11.386568 143.343196,11.1303797 143.185987,10.8217846 L141.561504,7.5640843 C141.346069,7.1390382 141.238354,6.6557738 141.238354,6.1142767 C141.238354,5.5727796 141.346069,5.086604 141.561504,4.6557353 L143.185987,1.3631 C143.552807,0.6469264 144.137965,0.288845 144.941477,0.288845 C145.756634,0.288845 146.33888,0.6469264 146.688233,1.3631 L146.688233,1.3631 Z M144.452385,2.0967376 L142.932707,5.188496 C142.792966,5.4970911 142.723096,5.7998591 142.723096,6.0968092 C142.723096,6.4170494 142.792966,6.7227287 142.932707,7.0138561 L144.496054,10.1405497 C144.57757,10.3326938 144.726042,10.4287644 144.941477,10.4287644 C145.127798,10.4287644 145.270449,10.3326938 145.369432,10.1405497 L146.941513,7.0138561 C147.087076,6.705261 147.159857,6.3995817 147.159857,6.0968092 C147.159857,5.7765689 147.087076,5.4738009 146.941513,5.188496 L145.404367,2.0967376 C145.305384,1.8696581 145.151089,1.7561201 144.941477,1.7561201 C144.731865,1.7561201 144.568836,1.8696581 144.452385,2.0967376 L144.452385,2.0967376 Z M152.042041,2.2888807 L152.042041,0.3063125 L159.448287,0.3063125 L159.448287,2.3063483 C159.448287,2.5101375 159.375506,2.6833558 159.229942,2.8260083 C159.084378,2.9686607 158.912616,3.0399859 158.714649,3.0399859 C158.51086,3.0399859 158.33473,2.9672051 158.186255,2.8216414 C158.03778,2.6760776 157.963544,2.504315 157.963544,2.3063483 L157.963544,1.7735877 L156.478801,1.7735877 L156.478801,11.162402 C156.478801,11.3661913 156.40602,11.5394095 156.260457,11.682062 C156.114893,11.8247144 155.94313,11.8960396 155.745164,11.8960396 C155.535552,11.8960396 155.357967,11.8247144 155.212403,11.682062 C155.066839,11.5394095 154.994058,11.3661913 154.994058,11.162402 L154.994058,1.7735877 L153.509316,1.7735877 L153.509316,2.2888807 C153.509316,2.49267 153.437991,2.6658882 153.295338,2.8085407 C153.152686,2.9511932 152.979467,3.0225183 152.775678,3.0225183 C152.571889,3.0225183 152.398671,2.9511932 152.256018,2.8085407 C152.113366,2.6658882 152.042041,2.49267 152.042041,2.2888807 L152.042041,2.2888807 Z M168.295607,1.3631 L169.911356,4.6557353 C170.138435,5.1040717 170.251973,5.5902473 170.251973,6.1142767 C170.251973,6.6266611 170.138435,7.1099255 169.911356,7.5640843 L168.295607,10.8217846 C167.952076,11.5379582 167.36983,11.8960396 166.54885,11.8960396 C166.15874,11.8960396 165.807936,11.7941465 165.49643,11.5903573 C165.184923,11.386568 164.950569,11.1303797 164.79336,10.8217846 L163.168877,7.5640843 C162.953443,7.1390382 162.845727,6.6557738 162.845727,6.1142767 C162.845727,5.5727796 162.953443,5.086604 163.168877,4.6557353 L164.79336,1.3631 C165.160181,0.6469264 165.745339,0.288845 166.54885,0.288845 C167.364007,0.288845 167.946254,0.6469264 168.295607,1.3631 L168.295607,1.3631 Z M166.059759,2.0967376 L164.540081,5.188496 C164.40034,5.4970911 164.33047,5.7998591 164.33047,6.0968092 C164.33047,6.4170494 164.40034,6.7227287 164.540081,7.0138561 L166.103428,10.1405497 C166.184943,10.3326938 166.333416,10.4287644 166.54885,10.4287644 C166.735172,10.4287644 166.877822,10.3326938 166.976806,10.1405497 L168.548886,7.0138561 C168.69445,6.705261 168.767231,6.3995817 168.767231,6.0968092 C168.767231,5.7765689 168.69445,5.4738009 168.548886,5.188496 L167.011741,2.0967376 C166.912757,1.8696581 166.758462,1.7561201 166.54885,1.7561201 C166.339239,1.7561201 166.17621,1.8696581 166.059759,2.0967376 L166.059759,2.0967376 Z" id="Shape" fill="#B6C4FF" fill-rule="nonzero"></path>
                        </g>
                    </g>
                </g>
            </g>
            <g id="card-number-Clipped" transform="translate(-0.000000, 0.000000)">
                <mask id="mask-10" fill="white">
                    <use xlink:href="#path-9"></use>
                </mask>
                <g id="path-1"></g>
                <g id="card-number" mask="url(#mask-10)">
                    <g transform="translate(39.000000, 132.000000)" id="Group">
                        <g transform="translate(0.468750, 0.113196)">
                            <path d="M6.68401613,16.8983791 L6.68401613,12.4150383 L0.202386285,12.4150383 L0.202386285,2.0521163 C0.202386285,1.75322542 0.31126633,1.49490218 0.529029686,1.27713882 C0.746793042,1.05937546 1.00511629,0.950495419 1.30400717,0.950495419 C1.59435831,0.950495419 1.84627684,1.05937546 2.05977033,1.27713882 C2.27326382,1.49490218 2.38000896,1.75322542 2.38000896,2.0521163 L2.38000896,10.2374156 L6.68401613,10.2374156 L6.68401613,3.93511944 C6.68401613,3.63622856 6.78862636,3.37790531 6.99784998,3.16014196 C7.2070736,2.9423786 7.46112704,2.83349855 7.76001792,2.83349855 C8.0589088,2.83349855 8.31296224,2.9423786 8.52218585,3.16014196 C8.73140947,3.37790531 8.83601971,3.63622856 8.83601971,3.93511944 L8.83601971,10.2374156 C9.13491059,10.2374156 9.38896403,10.3420259 9.59818765,10.5512495 C9.80741126,10.7604731 9.9120215,11.0145266 9.9120215,11.3134174 C9.9120215,11.6123083 9.80741126,11.8663618 9.59818765,12.0755854 C9.38896403,12.284809 9.13491059,12.3894192 8.83601971,12.3894192 L8.83601971,16.8983791 C8.83601971,17.19727 8.72927457,17.4513234 8.51578108,17.6605471 C8.30228759,17.8697707 8.05036906,17.9743809 7.76001792,17.9743809 C7.46112704,17.9743809 7.2070736,17.8697707 6.99784998,17.6605471 C6.78862636,17.4513234 6.68401613,17.19727 6.68401613,16.8983791 L6.68401613,16.8983791 Z M15.445745,15.8992346 L15.445745,3.02564173 C15.445745,2.46201893 15.6506957,1.97526108 16.0606032,1.56535359 C16.4705107,1.15544609 16.9572685,0.950495419 17.5208913,0.950495419 L24.233093,0.950495419 C24.788176,0.950495419 25.2685292,1.15544609 25.6741668,1.56535359 C26.0798044,1.97526108 26.2826202,2.46201893 26.2826202,3.02564173 L26.2826202,15.8992346 C26.2826202,16.4713971 26.0798044,16.9602899 25.6741668,17.3659275 C25.2685292,17.7715651 24.7796364,17.9743809 24.2074739,17.9743809 L17.5208913,17.9743809 C16.940189,17.9743809 16.4491614,17.7715651 16.0477936,17.3659275 C15.6464259,16.9602899 15.445745,16.4713971 15.445745,15.8992346 L15.445745,15.8992346 Z M24.1562357,15.8223773 L24.1562357,3.12811809 L17.5977486,3.12811809 L17.5977486,15.8223773 L24.1562357,15.8223773 Z M31.2911523,15.8992346 L31.2911523,3.02564173 C31.2911523,2.46201893 31.496103,1.97526108 31.9060105,1.56535359 C32.315918,1.15544609 32.8026758,0.950495419 33.3662987,0.950495419 L40.0785003,0.950495419 C40.6335834,0.950495419 41.1139365,1.15544609 41.5195741,1.56535359 C41.9252118,1.97526108 42.1280275,2.46201893 42.1280275,3.02564173 L42.1280275,15.8992346 C42.1280275,16.4713971 41.9252118,16.9602899 41.5195741,17.3659275 C41.1139365,17.7715651 40.6250438,17.9743809 40.0528812,17.9743809 L33.3662987,17.9743809 C32.7855964,17.9743809 32.2945687,17.7715651 31.893201,17.3659275 C31.4918332,16.9602899 31.2911523,16.4713971 31.2911523,15.8992346 L31.2911523,15.8992346 Z M40.001643,15.8223773 L40.001643,3.12811809 L33.4431559,3.12811809 L33.4431559,15.8223773 L40.001643,15.8223773 Z M47.1365597,15.8992346 L47.1365597,3.02564173 C47.1365597,2.46201893 47.3415104,1.97526108 47.7514178,1.56535359 C48.1613253,1.15544609 48.6480832,0.950495419 49.211706,0.950495419 L55.9239076,0.950495419 C56.4789907,0.950495419 56.9593438,1.15544609 57.3649815,1.56535359 C57.7706191,1.97526108 57.9734349,2.46201893 57.9734349,3.02564173 L57.9734349,15.8992346 C57.9734349,16.4713971 57.7706191,16.9602899 57.3649815,17.3659275 C56.9593438,17.7715651 56.4704511,17.9743809 55.8982886,17.9743809 L49.211706,17.9743809 C48.6310037,17.9743809 48.1399761,17.7715651 47.7386083,17.3659275 C47.3372405,16.9602899 47.1365597,16.4713971 47.1365597,15.8992346 L47.1365597,15.8992346 Z M55.8470504,15.8223773 L55.8470504,3.12811809 L49.2885633,3.12811809 L49.2885633,15.8223773 L55.8470504,15.8223773 Z" id="4000" fill="#B6C4FF" fill-rule="nonzero"></path>
                            <path d="M85.7444704,15.8223773 L89.049333,15.8223773 L89.049333,3.12811809 L85.7957085,3.12811809 C85.4968177,3.12811809 85.2427642,3.02350785 85.0335406,2.81428424 C84.824317,2.60506062 84.7197068,2.35100718 84.7197068,2.0521163 C84.7197068,1.75322542 84.824317,1.49917198 85.0335406,1.28994836 C85.2427642,1.08072475 85.4968177,0.976114509 85.7957085,0.976114509 L91.2013366,0.976114509 L91.2013366,15.8223773 L93.3533402,15.8223773 L93.3533402,11.3390365 C93.3533402,11.0486854 93.4579504,10.7967669 93.667174,10.5832734 C93.8763977,10.3697799 94.1304511,10.2630347 94.429342,10.2630347 C94.7282329,10.2630347 94.9822863,10.367645 95.1915099,10.5768686 C95.4007335,10.7860922 95.5053438,11.0401456 95.5053438,11.3390365 L95.5053438,16.8983791 C95.5053438,17.19727 95.4007335,17.4513234 95.1915099,17.6605471 C94.9822863,17.8697707 94.7282329,17.9743809 94.429342,17.9743809 L85.7444704,17.9743809 C85.4455795,17.9743809 85.191526,17.8655009 84.9823024,17.6477375 C84.7730788,17.4299742 84.6684686,17.1716509 84.6684686,16.87276 C84.6684686,16.5824089 84.7730788,16.3347602 84.9823024,16.1298064 C85.191526,15.9248527 85.4455795,15.8223773 85.7444704,15.8223773 L85.7444704,15.8223773 Z M110.351607,17.9743809 L100.565114,17.9743809 L100.565114,10.5448447 C100.565114,9.94706297 100.776469,9.43468628 101.199187,9.00769931 C101.621904,8.58071234 102.127876,8.36722205 102.717118,8.36722205 L109.249986,8.36722205 L109.249986,3.12811809 L101.564259,3.12811809 C101.256828,3.12811809 101.00064,3.02350785 100.795686,2.81428424 C100.590732,2.60506062 100.488257,2.35100718 100.488257,2.0521163 C100.488257,1.75322542 100.590732,1.49917198 100.795686,1.28994836 C101.00064,1.08072475 101.256828,0.976114509 101.564259,0.976114509 L109.249986,0.976114509 C109.847767,0.976114509 110.360144,1.18746989 110.787131,1.61018699 C111.214118,2.0329041 111.427608,2.53887607 111.427608,3.12811809 L111.427608,8.36722205 C111.427608,8.97354356 111.214118,9.48805514 110.787131,9.91077224 C110.360144,10.3334893 109.847767,10.5448447 109.249986,10.5448447 L102.717118,10.5448447 L102.717118,15.8223773 L110.351607,15.8223773 C110.641958,15.8223773 110.893876,15.9269876 111.10737,16.1362112 C111.320863,16.3454348 111.427608,16.5994882 111.427608,16.8983791 C111.427608,17.19727 111.320863,17.4513234 111.10737,17.6605471 C110.893876,17.8697707 110.641958,17.9743809 110.351607,17.9743809 L110.351607,17.9743809 Z M127.273016,3.12811809 L127.273016,7.16312481 C127.273016,8.10249615 126.982669,8.86252156 126.401967,9.44322385 C126.999748,10.1093235 127.298635,10.8351905 127.298635,11.6208465 L127.298635,15.8223773 C127.298635,16.4116193 127.085145,16.9175913 126.658158,17.3403084 C126.231171,17.7630255 125.718794,17.9743809 125.121012,17.9743809 L117.512142,17.9743809 C117.213251,17.9743809 116.959198,17.8697707 116.749974,17.6605471 C116.540751,17.4513234 116.436141,17.19727 116.436141,16.8983791 C116.436141,16.5994882 116.540751,16.3454348 116.749974,16.1362112 C116.959198,15.9269876 117.213251,15.8223773 117.512142,15.8223773 L125.095393,15.8223773 L125.095393,11.6208465 C125.095393,11.3219556 124.990783,11.0636324 124.781559,10.845869 C124.572336,10.6281057 124.318282,10.5192256 124.019391,10.5192256 L119.689765,10.5192256 C119.390874,10.5192256 119.136821,10.4167503 118.927597,10.2117966 C118.718373,10.0068428 118.613763,9.75065447 118.613763,9.44322385 C118.613763,9.14433297 118.718373,8.89027953 118.927597,8.68105591 C119.136821,8.47183229 119.390874,8.36722205 119.689765,8.36722205 L124.04501,8.36722205 C124.335361,8.36722205 124.58728,8.26261182 124.800773,8.0533882 C125.014267,7.84416458 125.121012,7.59011114 125.121012,7.29122026 L125.121012,3.12811809 L117.435285,3.12811809 C117.136394,3.12811809 116.882341,3.02350785 116.673117,2.81428424 C116.463893,2.60506062 116.359283,2.35100718 116.359283,2.0521163 C116.359283,1.75322542 116.463893,1.49917198 116.673117,1.28994836 C116.882341,1.08072475 117.136394,0.976114509 117.435285,0.976114509 L125.121012,0.976114509 C125.718794,0.976114509 126.226901,1.18746989 126.645348,1.61018699 C127.063795,2.0329041 127.273016,2.53887607 127.273016,3.12811809 L127.273016,3.12811809 Z M139.313988,16.8983791 L139.313988,12.4150383 L132.832358,12.4150383 L132.832358,2.0521163 C132.832358,1.75322542 132.941238,1.49490218 133.159002,1.27713882 C133.376765,1.05937546 133.635088,0.950495419 133.933979,0.950495419 C134.22433,0.950495419 134.476249,1.05937546 134.689742,1.27713882 C134.903236,1.49490218 135.009981,1.75322542 135.009981,2.0521163 L135.009981,10.2374156 L139.313988,10.2374156 L139.313988,3.93511944 C139.313988,3.63622856 139.418598,3.37790531 139.627822,3.16014196 C139.837046,2.9423786 140.091099,2.83349855 140.38999,2.83349855 C140.688881,2.83349855 140.942934,2.9423786 141.152158,3.16014196 C141.361381,3.37790531 141.465992,3.63622856 141.465992,3.93511944 L141.465992,10.2374156 C141.764883,10.2374156 142.018936,10.3420259 142.22816,10.5512495 C142.437383,10.7604731 142.541994,11.0145266 142.541994,11.3134174 C142.541994,11.6123083 142.437383,11.8663618 142.22816,12.0755854 C142.018936,12.284809 141.764883,12.3894192 141.465992,12.3894192 L141.465992,16.8983791 C141.465992,17.19727 141.359247,17.4513234 141.145753,17.6605471 C140.93226,17.8697707 140.680341,17.9743809 140.38999,17.9743809 C140.091099,17.9743809 139.837046,17.8697707 139.627822,17.6605471 C139.418598,17.4513234 139.313988,17.19727 139.313988,16.8983791 L139.313988,16.8983791 Z" id="1234" fill="#B6C4FF" fill-rule="nonzero"></path>
                            <path d="M173.771606,15.8223773 L178.754519,15.8223773 L178.754519,10.5448447 L172.24727,10.5448447 L172.24727,0.976114509 L179.830521,0.976114509 C180.120872,0.976114509 180.372791,1.08285965 180.586284,1.29635314 C180.799778,1.50984662 180.906523,1.76176516 180.906523,2.0521163 C180.906523,2.35100718 180.801913,2.60506062 180.592689,2.81428424 C180.383465,3.02350785 180.129412,3.12811809 179.830521,3.12811809 L174.424893,3.12811809 L174.424893,8.39284115 L178.754519,8.39284115 C179.335222,8.39284115 179.839059,8.60633143 180.266046,9.0333184 C180.693033,9.46030537 180.906523,9.96414245 180.906523,10.5448447 L180.906523,15.8223773 C180.906523,16.4116193 180.695167,16.9175913 180.27245,17.3403084 C179.849733,17.7630255 179.343761,17.9743809 178.754519,17.9743809 L173.771606,17.9743809 C173.32754,17.9743809 172.853591,17.8676358 172.349747,17.6541423 L170.722934,16.9752364 C170.287408,16.7959019 170.069648,16.4543174 170.069648,15.9504728 C170.069648,15.6515819 170.167853,15.3975285 170.364267,15.1883048 C170.560681,14.9790812 170.79979,14.874471 171.081602,14.874471 C171.295095,14.874471 171.542744,14.9385181 171.824555,15.0666142 L173.246415,15.6686628 C173.41721,15.7711397 173.592272,15.8223773 173.771606,15.8223773 L173.771606,15.8223773 Z M186.786104,0.976114509 L187.862106,0.976114509 C188.160997,0.976114509 188.41505,1.08285965 188.624274,1.29635314 C188.833497,1.50984662 188.938108,1.76176516 188.938108,2.0521163 C188.938108,2.35100718 188.833497,2.60506062 188.624274,2.81428424 C188.41505,3.02350785 188.160997,3.12811809 187.862106,3.12811809 L187.862106,10.2374156 L195.445357,10.2374156 C195.735708,10.2374156 195.987626,10.3462957 196.20112,10.564059 C196.414613,10.7818224 196.521358,11.0401456 196.521358,11.3390365 L196.521358,16.8983791 C196.521358,17.19727 196.412478,17.4513234 196.194715,17.6605471 C195.976952,17.8697707 195.718628,17.9743809 195.419737,17.9743809 L186.786104,17.9743809 C186.487213,17.9743809 186.22889,17.8676358 186.011127,17.6541423 C185.793363,17.4406488 185.684483,17.1887303 185.684483,16.8983791 L185.684483,2.0521163 C185.684483,1.75322542 185.791228,1.49917198 186.004722,1.28994836 C186.218215,1.08072475 186.478673,0.976114509 186.786104,0.976114509 L186.786104,0.976114509 Z M187.836487,12.4150383 L187.836487,15.8223773 L194.343736,15.8223773 L194.343736,12.4150383 L187.836487,12.4150383 Z M201.478652,3.00002264 L201.478652,2.07773539 C201.478652,1.77884451 201.583263,1.52479107 201.792486,1.31556746 C202.00171,1.10634384 202.255763,1.0017336 202.554654,1.0017336 L212.315528,1.0017336 L212.315528,7.61145889 C212.315528,7.96158821 212.183164,8.251935 211.918432,8.48250796 L207.960282,11.8642279 L207.960282,16.87276 C207.960282,17.1716509 207.855672,17.4299742 207.646448,17.6477375 C207.437225,17.8655009 207.183171,17.9743809 206.88428,17.9743809 C206.58539,17.9743809 206.327066,17.8676358 206.109303,17.6541423 C205.89154,17.4406488 205.78266,17.1887303 205.78266,16.8983791 L205.78266,11.467132 C205.78266,11.0572245 205.910754,10.7412589 206.166946,10.5192256 L210.137905,7.16312481 L210.137905,3.15373718 L203.630656,3.15373718 C203.476941,3.76859842 203.118277,4.07602443 202.554654,4.07602443 C202.255763,4.07602443 202.00171,3.97141419 201.792486,3.76219058 C201.583263,3.55296696 201.478652,3.29891352 201.478652,3.00002264 L201.478652,3.00002264 Z M217.298441,15.7967582 L217.298441,10.5448447 C217.298441,9.95560271 217.511931,9.44963073 217.938918,9.02691363 C218.365905,8.60419653 218.878281,8.39284115 219.476063,8.39284115 L219.476063,2.0521163 C219.476063,1.75322542 219.578539,1.49917198 219.783492,1.28994836 C219.988446,1.08072475 220.244634,0.976114509 220.552065,0.976114509 L224.932929,0.976114509 C225.23182,0.976114509 225.485874,1.08072475 225.695097,1.28994836 C225.904321,1.49917198 226.008931,1.75322542 226.008931,2.0521163 L226.008931,8.39284115 C226.589634,8.39284115 227.093471,8.59992672 227.520458,9.01410408 C227.947445,9.42828145 228.160935,9.93852323 228.160935,10.5448447 L228.160935,15.8223773 C228.160935,16.4116193 227.947445,16.9175913 227.520458,17.3403084 C227.093471,17.7630255 226.589634,17.9743809 226.008931,17.9743809 L219.476063,17.9743809 C218.869742,17.9743809 218.35523,17.752351 217.932513,17.3082846 C217.509796,16.8642181 217.298441,16.360381 217.298441,15.7967582 L217.298441,15.7967582 Z M221.628067,3.12811809 L221.628067,8.39284115 L223.856928,8.39284115 L223.856928,3.12811809 L221.628067,3.12811809 Z M219.476063,10.5448447 L219.476063,15.8223773 L226.008931,15.8223773 L226.008931,10.5448447 L219.476063,10.5448447 Z" id="5678" fill="#B6C4FF" fill-rule="nonzero"></path>
                            <path d="M265.909324,17.9487618 L264.833322,17.9487618 C264.542971,17.9487618 264.291053,17.8441516 264.077559,17.634928 C263.864066,17.4257043 263.757321,17.1716509 263.757321,16.87276 C263.757321,16.5738691 263.861931,16.3198157 264.071155,16.1105921 C264.280378,15.9013685 264.534432,15.7967582 264.833322,15.7967582 L264.833322,8.68746068 L257.250072,8.68746068 C256.959721,8.68746068 256.707802,8.58071554 256.494309,8.36722205 C256.280815,8.15372857 256.17407,7.90181003 256.17407,7.61145889 L256.17407,2.02649721 C256.17407,1.73614607 256.280815,1.48422753 256.494309,1.27073405 C256.707802,1.05724056 256.959721,0.950495419 257.250072,0.950495419 L265.909324,0.950495419 C266.199675,0.950495419 266.451594,1.05724056 266.665087,1.27073405 C266.878581,1.48422753 266.985326,1.73614607 266.985326,2.02649721 L266.985326,16.87276 C266.985326,17.1716509 266.880716,17.4257043 266.671492,17.634928 C266.462269,17.8441516 266.208215,17.9487618 265.909324,17.9487618 L265.909324,17.9487618 Z M264.858942,6.50983801 L264.858942,3.12811809 L258.326074,3.12811809 L258.326074,6.50983801 L264.858942,6.50983801 Z M271.94262,15.8992346 L271.94262,3.02564173 C271.94262,2.46201893 272.147571,1.97526108 272.557478,1.56535359 C272.967386,1.15544609 273.454144,0.950495419 274.017766,0.950495419 L280.729968,0.950495419 C281.285051,0.950495419 281.765404,1.15544609 282.171042,1.56535359 C282.576679,1.97526108 282.779495,2.46201893 282.779495,3.02564173 L282.779495,15.8992346 C282.779495,16.4713971 282.576679,16.9602899 282.171042,17.3659275 C281.765404,17.7715651 281.276511,17.9743809 280.704349,17.9743809 L274.017766,17.9743809 C273.437064,17.9743809 272.946036,17.7715651 272.544669,17.3659275 C272.143301,16.9602899 271.94262,16.4713971 271.94262,15.8992346 L271.94262,15.8992346 Z M280.653111,15.8223773 L280.653111,3.12811809 L274.094624,3.12811809 L274.094624,15.8223773 L280.653111,15.8223773 Z M288.83841,15.8223773 L292.143273,15.8223773 L292.143273,3.12811809 L288.889648,3.12811809 C288.590757,3.12811809 288.336704,3.02350785 288.12748,2.81428424 C287.918257,2.60506062 287.813646,2.35100718 287.813646,2.0521163 C287.813646,1.75322542 287.918257,1.49917198 288.12748,1.28994836 C288.336704,1.08072475 288.590757,0.976114509 288.889648,0.976114509 L294.295276,0.976114509 L294.295276,15.8223773 L296.44728,15.8223773 L296.44728,11.3390365 C296.44728,11.0486854 296.55189,10.7967669 296.761114,10.5832734 C296.970337,10.3697799 297.224391,10.2630347 297.523282,10.2630347 C297.822173,10.2630347 298.076226,10.367645 298.28545,10.5768686 C298.494673,10.7860922 298.599283,11.0401456 298.599283,11.3390365 L298.599283,16.8983791 C298.599283,17.19727 298.494673,17.4513234 298.28545,17.6605471 C298.076226,17.8697707 297.822173,17.9743809 297.523282,17.9743809 L288.83841,17.9743809 C288.539519,17.9743809 288.285466,17.8655009 288.076242,17.6477375 C287.867018,17.4299742 287.762408,17.1716509 287.762408,16.87276 C287.762408,16.5824089 287.867018,16.3347602 288.076242,16.1298064 C288.285466,15.9248527 288.539519,15.8223773 288.83841,15.8223773 L288.83841,15.8223773 Z M303.633435,15.8992346 L303.633435,3.02564173 C303.633435,2.46201893 303.838385,1.97526108 304.248293,1.56535359 C304.6582,1.15544609 305.144958,0.950495419 305.708581,0.950495419 L312.420783,0.950495419 C312.975866,0.950495419 313.456219,1.15544609 313.861856,1.56535359 C314.267494,1.97526108 314.47031,2.46201893 314.47031,3.02564173 L314.47031,15.8992346 C314.47031,16.4713971 314.267494,16.9602899 313.861856,17.3659275 C313.456219,17.7715651 312.967326,17.9743809 312.395164,17.9743809 L305.708581,17.9743809 C305.127879,17.9743809 304.636851,17.7715651 304.235483,17.3659275 C303.834116,16.9602899 303.633435,16.4713971 303.633435,15.8992346 L303.633435,15.8992346 Z M312.343925,15.8223773 L312.343925,3.12811809 L305.785438,3.12811809 L305.785438,15.8223773 L312.343925,15.8223773 Z" id="9010" fill="#B6C4FF" fill-rule="nonzero"></path>
                        </g>
                    </g>
                </g>
            </g>
            <g id="mclogo-2" transform="translate(320.000000, 196.000000)">
                <g id="mclogo">
                    <path d="M24.2596166,3.27556224 C27.8768564,6.17962904 29.9888607,10.6189649 29.9888607,15.3184096 C29.9888607,19.9003682 27.9811366,24.2350608 24.5280778,27.1403709 L24.2597025,27.3600844 L24.254437,27.3609718 L23.9909558,27.1447338 C20.5353705,24.2407365 18.5277945,19.9037032 18.5325687,15.3205369 C18.5289525,10.6213466 20.6407978,6.18142044 24.2596166,3.28005668 L24.2535594,3.27556224 L24.2596166,3.27556224 Z" id="Path" fill="#FF5F00"></path>
                    <path d="M18.5325772,15.3205369 C18.5289525,10.6213466 20.6407978,6.18142044 24.2596166,3.28005668 C18.1118128,-1.6552418 9.28332006,-0.936372897 3.97856574,4.93146164 C-1.32618858,10.7992962 -1.32618858,19.8460322 3.97856574,25.7138667 C9.28332006,31.5817013 18.1118128,32.3005702 24.2596166,27.3652717 C20.6396462,24.4629866 18.5276718,20.0212203 18.5325772,15.3205369 Z" id="Path" fill="#EB001B"></path>
                    <path d="M47.5017572,24.7492991 L47.5017572,27.3227325 L47.278432,27.3227325 L47.278432,24.7492991 L46.8012502,24.7492991 L46.8012502,24.2168842 L48.0093958,24.2168842 L48.0093958,24.7492991 L47.5017572,24.7492991 Z M49.8470072,24.2168842 L49.8470072,27.3227325 L49.5931879,27.3227325 L49.5931879,24.9711671 L49.1972492,26.9899685 L48.9231378,26.9899685 L48.5271618,24.9711671 L48.5271618,27.3227325 L48.2632151,27.3227325 L48.2632151,24.2168842 L48.628697,24.2168842 L49.0550925,26.4353365 L49.4815253,24.2168842 L49.8470072,24.2168842 Z" id="Shape" fill="#F79E1B"></path>
                    <path d="M48.5214379,15.3205369 C48.5214379,21.1847955 45.2432477,26.5342022 40.0794717,29.0968433 C34.9156958,31.6594845 28.7727693,30.9854547 24.2596166,27.3610171 C27.8768564,24.4571902 29.9888607,20.0178543 29.9888607,15.3184096 C29.9888607,10.6189649 27.8768564,6.17962904 24.2596166,3.2758021 C28.7727693,-0.348635523 34.9156958,-1.02266526 40.0794717,1.53997589 C45.2432477,4.10261705 48.5214379,9.4520237 48.5214379,15.3162823 L48.5214379,15.3205369 Z" id="Path" fill="#F79E1B"></path>
                </g>
            </g>
            <g id="GOOD-THRU-Copy-Clipped">
                <mask id="mask-12" fill="white">
                    <use xlink:href="#path-11"></use>
                </mask>
                <g id="path-1"></g>
                <path d="M120.592598,169.122559 C121.091624,169.384604 121.396959,169.843747 121.508613,170.5 L120.835273,170.5 C120.753242,170.133136 120.583484,169.865968 120.325996,169.698486 C120.068508,169.531005 119.743804,169.447266 119.351875,169.447266 C118.887029,169.447266 118.495675,169.62158 118.177803,169.970215 C117.85993,170.318849 117.700996,170.838375 117.700996,171.528809 C117.700996,172.125817 117.832017,172.611733 118.094062,172.986572 C118.356108,173.361411 118.78335,173.548828 119.375801,173.548828 C119.829254,173.548828 120.204657,173.417238 120.502021,173.154053 C120.799386,172.890868 120.951484,172.465335 120.95832,171.877441 L119.386055,171.877441 L119.386055,171.313477 L121.590644,171.313477 L121.590644,174 L121.153144,174 L120.989082,173.354004 C120.758938,173.606935 120.555001,173.782389 120.377266,173.880371 C120.078761,174.048992 119.699371,174.133301 119.239082,174.133301 C118.644352,174.133301 118.132802,173.940757 117.704414,173.555664 C117.237289,173.072589 117.00373,172.409509 117.00373,171.566406 C117.00373,170.725582 117.231593,170.056806 117.687324,169.560059 C118.120269,169.086098 118.68081,168.849121 119.368965,168.849121 C119.840647,168.849121 120.24852,168.940266 120.592598,169.122559 L120.592598,169.122559 Z M127.015371,169.696777 C127.348055,170.141116 127.514394,170.709632 127.514394,171.402344 C127.514394,172.152022 127.324129,172.775225 126.943594,173.271973 C126.496977,173.855309 125.860102,174.146973 125.032949,174.146973 C124.260484,174.146973 123.653231,173.891767 123.211172,173.381348 C122.816964,172.889158 122.619863,172.267094 122.619863,171.515137 C122.619863,170.836097 122.788481,170.255048 123.125723,169.771973 C123.558667,169.152178 124.198961,168.842285 125.046621,168.842285 C125.933019,168.842285 126.589262,169.127113 127.015371,169.696777 L127.015371,169.696777 Z M126.415518,172.894287 C126.68326,172.46476 126.817129,171.970869 126.817129,171.412598 C126.817129,170.822425 126.662752,170.347333 126.353994,169.987305 C126.045236,169.627277 125.623121,169.447266 125.087637,169.447266 C124.568103,169.447266 124.144279,169.625568 123.816152,169.982178 C123.488026,170.338788 123.323965,170.86458 123.323965,171.55957 C123.323965,172.115563 123.46467,172.584389 123.746084,172.966064 C124.027498,173.34774 124.483792,173.538574 125.11498,173.538574 C125.714267,173.538574 126.147775,173.323814 126.415518,172.894287 L126.415518,172.894287 Z M132.696445,169.696777 C133.029129,170.141116 133.195469,170.709632 133.195469,171.402344 C133.195469,172.152022 133.005204,172.775225 132.624668,173.271973 C132.178051,173.855309 131.541176,174.146973 130.714023,174.146973 C129.941559,174.146973 129.334306,173.891767 128.892246,173.381348 C128.498038,172.889158 128.300937,172.267094 128.300937,171.515137 C128.300937,170.836097 128.469556,170.255048 128.806797,169.771973 C129.239742,169.152178 129.880035,168.842285 130.727695,168.842285 C131.614093,168.842285 132.270336,169.127113 132.696445,169.696777 L132.696445,169.696777 Z M132.096592,172.894287 C132.364334,172.46476 132.498203,171.970869 132.498203,171.412598 C132.498203,170.822425 132.343826,170.347333 132.035068,169.987305 C131.72631,169.627277 131.304195,169.447266 130.768711,169.447266 C130.249177,169.447266 129.825353,169.625568 129.497227,169.982178 C129.1691,170.338788 129.005039,170.86458 129.005039,171.55957 C129.005039,172.115563 129.145744,172.584389 129.427158,172.966064 C129.708572,173.34774 130.164867,173.538574 130.796055,173.538574 C131.395342,173.538574 131.82885,173.323814 132.096592,172.894287 L132.096592,172.894287 Z M136.169512,173.418945 C136.399656,173.418945 136.588782,173.39502 136.736895,173.347168 C137.001219,173.2583 137.217688,173.087404 137.386309,172.834473 C137.520749,172.631672 137.617591,172.371909 137.676836,172.055176 C137.711016,171.866047 137.728105,171.690593 137.728105,171.528809 C137.728105,170.906735 137.60449,170.423667 137.357256,170.07959 C137.110022,169.735513 136.711832,169.563477 136.162676,169.563477 L134.956133,169.563477 L134.956133,173.418945 L136.169512,173.418945 Z M134.272539,168.979004 L136.30623,168.979004 C136.996664,168.979004 137.53214,169.223956 137.912676,169.713867 C138.252196,170.155927 138.421953,170.722165 138.421953,171.412598 C138.421953,171.945803 138.321694,172.427732 138.121172,172.858398 C137.76798,173.61947 137.160727,174 136.299395,174 L134.272539,174 L134.272539,168.979004 Z M122.800605,175.979004 L122.800605,176.577148 L121.108711,176.577148 L121.108711,181 L120.418281,181 L120.418281,176.577148 L118.726387,176.577148 L118.726387,175.979004 L122.800605,175.979004 Z M123.676016,175.979004 L124.363027,175.979004 L124.363027,178.053711 L126.974355,178.053711 L126.974355,175.979004 L127.661367,175.979004 L127.661367,181 L126.974355,181 L126.974355,178.651855 L124.363027,178.651855 L124.363027,181 L123.676016,181 L123.676016,175.979004 Z M131.284824,178.279297 C131.603836,178.279297 131.856194,178.215495 132.041904,178.087891 C132.227615,177.960286 132.320469,177.730145 132.320469,177.397461 C132.320469,177.039712 132.190587,176.795899 131.93082,176.666016 C131.791822,176.597656 131.606114,176.563477 131.373691,176.563477 L129.712559,176.563477 L129.712559,178.279297 L131.284824,178.279297 Z M129.032383,175.979004 L131.356602,175.979004 C131.739416,175.979004 132.055005,176.03483 132.303379,176.146484 C132.775061,176.360678 133.010898,176.756019 133.010898,177.33252 C133.010898,177.633302 132.948806,177.879394 132.824619,178.070801 C132.700432,178.262208 132.526687,178.416015 132.303379,178.532227 C132.499343,178.61198 132.646884,178.716796 132.746006,178.84668 C132.845127,178.976563 132.900384,179.187336 132.911777,179.479004 L132.935703,180.152344 C132.942539,180.343751 132.958489,180.486165 132.983555,180.57959 C133.02457,180.739096 133.097486,180.841634 133.202305,180.887207 L133.202305,181 L132.36832,181 C132.345534,180.956706 132.327305,180.900879 132.313633,180.83252 C132.299961,180.76416 132.288568,180.632 132.279453,180.436035 L132.238437,179.598633 C132.222487,179.270506 132.100581,179.050619 131.872715,178.938965 C131.742831,178.877441 131.538895,178.84668 131.260898,178.84668 L129.712559,178.84668 L129.712559,181 L129.032383,181 L129.032383,175.979004 Z M134.980059,175.979004 L134.980059,179.08252 C134.980059,179.447105 135.048417,179.750162 135.185137,179.991699 C135.387937,180.356284 135.729731,180.538574 136.210527,180.538574 C136.787028,180.538574 137.178951,180.341473 137.386309,179.947266 C137.497963,179.733072 137.553789,179.444826 137.553789,179.08252 L137.553789,175.979004 L138.244219,175.979004 L138.244219,178.798828 C138.244219,179.416344 138.161049,179.891437 137.994707,180.224121 C137.689367,180.830244 137.112875,181.133301 136.265215,181.133301 C135.417554,181.133301 134.842202,180.830244 134.539141,180.224121 C134.372799,179.891437 134.289629,179.416344 134.289629,178.798828 L134.289629,175.979004 L134.980059,175.979004 Z" id="GOOD-THRU-Copy" fill="#FFFFFF" fill-rule="nonzero" opacity="0.9" mask="url(#mask-12)"></path>
            </g>
        </g>
    </g>
</svg>
