<svg xmlns="http://www.w3.org/2000/svg" xmlns:xlink="http://www.w3.org/1999/xlink" width="261.729" height="132.398" viewBox="0 0 261.729 132.398">
    <defs>
        <path id="path-1" fill-rule="evenodd" d="M251.72851563 0H10C4.48046875 0 0 4.48083496 0 10v122.39819336h261.72851563V10c0-5.51916504-4.48242188-10-10-10z"/>
        <path id="path-17" fill-rule="evenodd" d="M103.0423864 100.94307673c-.99261203-.54753374-4.11869536-.95524664-4.11869536.92880993 0 2.25475805 3.96986215 1.45930667 3.96986215 3.4491101 0 1.98980342-2.57821306 1.84058285-4.36655538 1.19376455"/>
        <path id="path-18" fill-rule="evenodd" d="M101.07767086 99.30987522v8.81223837"/>
    </defs>
    <g>
        <use fill="rgb(1,35,81)" xlink:href="#path-1"/>
        <use fill-opacity="0" stroke="rgb(0,0,0)" stroke-linecap="butt" stroke-linejoin="miter" stroke-opacity="0" stroke-width="1" xlink:href="#path-1"/>
        <g>
            <path fill="rgb(255,95,0)" fill-rule="evenodd" d="M222.88395056 21.03499483c2.9648044 2.33738636 4.69587003 5.91075462 4.69587003 9.69349315 0 3.68817007-1.64559427 7.17730752-4.47583073 9.51588775l-.2199689.1768546-.00431579.00071429-.2159575-.17405709c-2.83230725-2.33752352-4.47778018-5.82854508-4.47386007-9.51768722-.00297097-3.78253375 1.72796438-7.35637716 4.69406296-9.69178082l-.00496468-.00361773.00496468.00019307z"/>
            <path fill="rgb(235,0,27)" fill-rule="evenodd" d="M218.1898876 30.7302003c-.00297097-3.78253374 1.72796438-7.35637715 4.69406296-9.69178081-5.0389348-3.97258501-12.27504725-3.39394365-16.622992 1.32927048-4.34794475 4.72321413-4.34794475 12.0052312 0 16.72844534 4.34794475 4.72321412 11.5840572 5.30185548 16.622992 1.32927048-2.9670425-2.3361453-4.69808359-5.91146995-4.69406296-9.69520548z"/>
            <path fill="rgb(247,158,27)" fill-rule="evenodd" d="M241.93359375 38.31976318v2.07141114H241.75v-2.07141114h-.390625v-.42858886h.99023438v.42858886h-.41601563zm1.92382813-.42858886v2.5h-.20898438v-1.8928833l-.32421875 1.625h-.22460938l-.32421874-1.625v1.8928833h-.21679688v-2.5h.29882813l.34960937 1.78570556.34960938-1.78570556h.30078124z"/>
            <path fill="rgb(247,158,27)" fill-rule="evenodd" d="M242.7697082 30.7302003c-.0001097 4.72033576-2.68690865 9.02625013-6.91930304 11.08900476-4.23239438 2.06275464-9.26733164 1.5202058-12.9664546-1.39722393 2.9648044-2.33738636 4.69587003-5.91075462 4.69587003-9.69349315 0-3.78273853-1.73106564-7.35610679-4.69587003-9.69349315 3.69912296-2.91742974 8.73406022-3.45997857 12.9664546-1.39722393 4.2323944 2.06275463 6.91919334 6.368669 6.91930303 11.08900475v.00342466z"/>
        </g>
        <g opacity=".05">
            <path fill="rgb(255,255,255)" fill-rule="evenodd" d="M42.40234375.39819336l-31.453125 132h128.38085938c4.578125-11.15332031 6.76953124-22.71160889 6.76953124-35.06567383 0-8.24597168-1.03320312-15.87353515-3.09570312-22.8826294-2.06445313-7.00909423-5.16015625-13.19354247-9.28710938-18.55346679-4.33203124-5.35986328-9.4921875-9.48284912-15.88867187-12.57513428-6.39648438-3.09222412-14.03125-4.74139404-22.69921875-4.74139404l-11.5546875 1.4430542c-3.71484375.82458496-7.01757813 2.0614624-10.73046875 3.71069336L83.1484375.39819336H42.40234375zm9.59960938 131.87542725l12.49414062-52.6593628c3.27929688-2.86401367 6.76171875-4.90979004 10.859375-5.72808838 4.09765625-1.02282714 6.75976563-1.22741699 9.21875-1.22741699 7.78515625 0 13.7265625 2.25030518 16.59570313 7.16009522 2.86914062 4.909729 4.30273437 11.66070556 4.30273437 20.25280761 0 6.95550537-1.22851563 13.7064209-3.48242188 20.25280762C100.53125 124.42816162 96 132.27362061 96 132.27362061H52.00195312z"/>
        </g>
        <g>
            <path fill="rgb(255,255,255)" fill-rule="evenodd" d="M79.38587383 20.31230376h-3.19170095l-1.8469741 8.14344707-.25922448 1.11739612c-.17821679.05079073-.35643358.10158146-.53465037.13544194-.3240306.06772097-.66426268.10158145-1.02069626.10158145-.40503821 0-.72906873-.06772097-.97209164-.18623266-.22682142-.1185117-.4050382-.28781411-.50224739-.52483758-.09720918-.22009314-.12961224-.49097701-.11341067-.79572145.0162015-.30474435.08100761-.6433492.1620153-.9819541l.97209164-4.23256086.63185955-2.81042042h-3.256507l-1.47433903 6.50121353c-.17821679.77879113-.27542597 1.52372185-.30782903 2.2347921-.03240306.71107023.08100761 1.32055902.30782903 1.879257.22682134.54176782.63185955.96502387 1.18271149 1.28669855.55085194.3216746 1.34472678.47404677 2.34922148.47404677.69666575 0 1.31232373-.06772097 1.89557872-.2031629-.04860455.01693024-.43744119 1.21897757-.89108394 1.64223362-.46984433.42325613-1.15030851.64334927-2.05759403.64334927-.38883664 0-.7452703-.01693024-1.06930081-.06772097l-.63185963 2.75962967c.42123978.05079073.89108403.08465121 1.4095329.08465121.97209172 0 1.81457112-.11851169 2.54363985-.33860483.72906872-.23702347 1.34472678-.5756283 1.87937723-1.04967516.51844888-.47404677.95589015-1.06660532 1.31232373-1.76074532.35643357-.71107016.63185954-1.5406521.8424794-2.52260628l2.20340775-9.68409923"/>
            <path fill="rgb(255,255,255)" fill-rule="evenodd" d="M65.28320313 27.35272217c-.19726563.8585205-.26367188 1.73425293-.18164063 2.59277344.08398438.87567138.4140625 2.19781494.7265625 2.86749267h-3.13476563c-.38085937-.66967773-.36328125-.99591064-.44726562-1.20196533-.41210938.34344482-.85742188.63531494-1.35351563.8585205-.49414062.2232666-1.0390625.34344483-1.66601562.34344483-.7265625 0-1.35351563-.13739014-1.86523438-.3949585-.51171875-.25750732-.94140625-.61810302-1.27148437-1.06457519-.33007813-.44641113-.56054688-.96154785-.70898438-1.5625s-.21484375-1.23626709-.21484375-1.9230957c0-1.04742432.18164063-2.02612305.52734375-2.95336914.36328125-.92718506.859375-1.7341919 1.48632813-2.42102051.62695313-.68682861 2.16210938-2.21502686 4.671875-2.21502686h5.03320313l-1.6015625 7.07427979zm-2.29296876-4.20678711c-1.51757812 0-1.79882812 0-2.42578125.3262329-.4453125.24041749-.80859375.6010132-1.12304687 1.01306153-.3125.41210938-.57617188.8928833-.7578125 1.44232178-.18164063.54949951-.28125 1.11608887-.28125 1.69989014 0 .7211914.11523438 1.30499267.34570313 1.73425293.23242187.42926025.66210937.63531494 1.2890625.63531494.33007812 0 .64257812-.06866455.90625-.20605469.265625-.1373291.5625-.3605957.859375-.68682861.03320312-.37774659.08203125-.77264405.1484375-1.18475342.06640625-.41210938.1484375-.80700684.21484375-1.15045166l.82421875-3.62298584z"/>
            <path fill="rgb(255,255,255)" fill-rule="evenodd" d="M54.38476563 25.75250244c0 1.05865479-.1875 2.01959229-.546875 2.89910889-.359375.8795166-.87109375 1.62872314-1.52148438 2.26391601-.6484375.63519287-1.41796875 1.1237793-2.32421875 1.4821167-.90625.3583374-1.88085938.53747559-2.93945313.53747559-.51367187 0-1.02539062-.04888916-1.55664062-.13031006l-1.02539063 3.9251709h-3.3671875l3.9140625-15.66815186h4.49609375c.85546875 0 1.58984375.13031006 2.1875.37457276.61523438.24432373 1.11132813.58636474 1.52148438 1.00982666.39257813.42346191.68359375.92834472.87109375 1.49841308l.29101563 1.80786133zm-8.25585938 4.44641113c.25585938.06512452.58203125.0814209.95703125.0814209.59765625 0 1.12890625-.09771728 1.625-.30944824.47851563-.21173096.90429688-.50488281 1.24609375-.8795166.34179688-.37457275.59960938-.83062744.8046875-1.35180664.1875-.52124024.29101563-1.10754395.29101563-1.74273682 0-.61889648-.13671875-1.15637207-.42773438-1.57983398-.29101563-.4397583-.78710938-.66778565-1.50390625-.66778565h-1.33398438l-1.65820312 6.44970703z"/>
            <path fill="rgb(255,255,255)" fill-rule="evenodd" d="M39.64245585 30.00202357c-.40133863 0-.7224096-.06653152-.96321282-.1829617-.22474963-.1164301-.40133862-.28275885-.49765988-.51561913-.09632134-.21622742-.12842837-.48235349-.11237486-.78174528.01605352-.2993918.08026774-.6320494.16053549-.9647069l.96321281-4.15821944h3.59599438l.65819545-2.76105769h-3.61204797l.83478437-3.49290431-3.37124475.54888496-2.13512175 9.34767726c-.176589.76511235-.27291026 1.49695898-.30501737 2.19553988-.03210711.69858083.08026774 1.29736442.30501737 1.84624942.2247497.53225207.62608834.94807397 1.17190893 1.2640987.5458206.31602465 1.33244441.46572055 2.32776427.46572055.69030248 0 1.3003373-.06653152 1.81405078-.18296162.04816063-.01663293.12842837-.0332658.176589-.04989865l.65819545-2.84422213c-.2247497.08316438-.44949934.13306304-.65819545.16632884"/>
            <path fill="rgb(255,255,255)" fill-rule="evenodd" d="M30.76090236 20.27844327l-2.9392896 12.53453662h3.32781639l2.92239707-12.53453662h-3.31092386z"/>
            <path fill="rgb(255,255,255)" fill-rule="evenodd" d="M34.33684074 19.49503473l.51626217-2.35022561h-3.39012126l-.51626216 2.35022561h3.39012125z"/>
            <path fill="rgb(255,255,255)" fill-rule="evenodd" d="M23.73242188 20.784729c.6953125 0 1.30664062.13183594 1.8203125.37896729.51367187.24719238.92773437.57672119 1.27539062 1.00512695.33007813.42840576.578125.9227295.74414063 1.48291016.16601562.5602417.24804687 1.16986084.24804687 1.8289795 0 1.0050659-.18164063 1.9442749-.5625 2.8505249-.38085938.8897705-.87695313 1.68066406-1.5234375 2.33972167-.64453125.65911866-1.40625 1.18634033-2.28320313 1.56530762-.87695312.37902832-1.8203125.5767212-2.84765624.5767212-.1328125 0-.36328126 0-.6953125-.0164795-.33007813 0-.7109375-.03295899-1.125-.09887695-.4296875-.06591797-.87695313-.1482544-1.34179688-.26361084-.47851563-.11535645-.92578125-.28009034-1.33984375-.47784424l3.79101563-15.85089112 3.39257812-.52728271-1.33984375 5.61865234c.296875-.1317749.5625-.23065185.859375-.29656982l.92773438-.11535645zm-2.84765626 9.32598877c.51367188 0 .99414063-.11535644 1.44140626-.37896728.44726562-.24719238.84375-.5767212 1.17382812-.98864746.33203125-.41192627.59765625-.88977051.77929688-1.4005127.18164062-.52728271.28125-1.07104492.28125-1.63122558 0-.69207764-.1171875-1.23577881-.34765626-1.63122559-.23242187-.39550781-.71289062-.5767212-1.34179687-.5767212-.19726563 0-.41210938.0164795-.74414063.09887696-.33007812.06585694-.61328124.23065186-.87695312.46136475l-1.42382813 5.98114013 1.05859376.06591797z"/>
        </g>
        <path fill="rgb(114,150,200)" fill-rule="evenodd" d="M51.44140625 79.98016357c-.0390625.44360352-.1640625.8355713-.37109375 1.17584229-.20703125.340271-.49804688.60614014-.875.79754639-.375.19146728-.82617188.2871704-1.35351563.2871704-.54296875 0-1.015625-.12841796-1.41796875-.38513183q-.60742187-.38513184-.93164062-1.09606934-.328125-.71099853-.328125-1.66351318v-.52410889q0-.95263671.33398438-1.66351318c.22265625-.47399902.5390625-.84014893.94921875-1.09838867.41210937-.25823975.890625-.38739014 1.43945312-.38739014.51757813 0 .9609375.09643555 1.32617188.28942871.3671875.19293213.65234375.461792.85742187.80664063q.30859375.51727295.375 1.19641113h-1.171875c-.05273438-.44366455-.18359375-.7770996-.39453125-1.00042725-.20898438-.22332763-.54101563-.33496093-.9921875-.33496093q-.7578125 0-1.1484375.5628662c-.2578125.37524415-.38867188.91528321-.38867188 1.62017823v.53326416c0 .69274902.12109375 1.23052979.36132813 1.61334229.2421875.3828125.6171875.57427978 1.13085938.57427978.31445312 0 .5703125-.04937744.76953125-.14813232.19921875-.09875489.34960937-.24310303.44921875-.4329834.1015625-.18988037.171875-.43066406.20703125-.72235108h1.17382812zm-31.40429688-1.28527832q.55078126.145813.83203126.55828858c.1875.27502441.28320312.59326172.28320312.95483398 0 .62890625-.203125 1.10974121-.60546875 1.44244385-.40234375.33270264-.96875.49908447-1.69921875.49908447H16.40625v-6.63580322h2.2734375c.74414063 0 1.31640625.14813232 1.71679688.44433594.40039062.29626465.59960937.7467041.59960937 1.35131836q0 .46490478-.24609375.82946777l-.71289063.55603027zm3.35546876 1.93243409h2.5390625l.52734374 1.5222168h1.23242188L25.1875 75.5137329h-1.05859375l-2.49609375 6.63580322h1.23242188l.52734374-1.5222168zm9.19921874.57421875v.94799804h-4.16796875v-6.63580322h1.17773438v5.68780518h2.99023438zm4.68164063-.57421875H34.734375l-.52734375 1.5222168h-1.23242188l2.49609375-6.63580323h1.05859375l2.50390625 6.63580322h-1.23242187l-.52734375-1.5222168zm3.66796875-3.14471436l2.91210938 4.66693115H45.03125v-6.63580322h-1.16796875v4.6760254l-2.921875-4.6760254h-1.17773438v6.63580322h1.17773438v-4.66693115zm15.85351563 3.7189331v.94799805h-4.33984375v-6.63580322h4.3125v.95251465H53.6328125v1.80023193h2.703125v.92974854h-2.703125v2.00531006h3.16210938zm-39.2109375-4.73529052v1.83666992H18.6875c.36132813 0 .640625-.08050537.83984375-.24151611.19726563-.16101074.296875-.38739014.296875-.67907715 0-.32208252-.09179688-.55529785-.27734375-.69958496-.18359375-.14434815-.47265625-.2164917-.8671875-.2164917h-1.09570313zm8.01757812 3.20855713l-.93945313-2.72088623-.94140624 2.72088623h1.88085937zm11.33984375 0l-.93945313-2.72088623-.94140625 2.72088623h1.88085938zm-18.09375 1.5267334q.54492188 0 .83789063-.2711792.29296874-.2711792.29296874-.72235108c0-.69274902-.359375-1.03912353-1.08007812-1.03912353h-1.31445313v2.0326538h1.26367188z"/>
        <g>
            <path fill="rgb(39,81,138)" fill-rule="evenodd" d="M100.00194252 91.96634324h28.91018306c6.46716218 0 11.71767735 5.26484216 11.71767735 11.74965117 1e-7 6.48480883-5.250515 11.74965106-11.71767717 11.74965116h-28.91018324c-6.46716218 0-11.71767735-5.26484215-11.71767735-11.74965116 0-6.48480901 5.25051517-11.74965117 11.71767735-11.74965117z"/>
            <g opacity=".1">
                <ellipse cx="100.785" cy="103.716" fill="rgb(255,255,255)" rx="7.813" ry="7.833"/>
            </g>
            <g>
                <g>
                    <use fill="rgb(0,0,0)" fill-opacity="0" xlink:href="#path-17"/>
                    <use fill-opacity="0" stroke="rgb(255,255,255)" stroke-linecap="round" stroke-linejoin="round" stroke-width="1" xlink:href="#path-17"/>
                </g>
                <g>
                    <use fill="rgb(0,0,0)" fill-opacity="0" xlink:href="#path-18"/>
                    <use fill-opacity="0" stroke="rgb(255,255,255)" stroke-linecap="round" stroke-linejoin="round" stroke-width="1" xlink:href="#path-18"/>
                </g>
            </g>
            <path fill="rgb(255,255,255)" fill-rule="evenodd" d="M119.09570313 104.86761475l.76757812-.06732178c.03710938.30853271.12109375.5616455.25390625.75939941.1328125.1977539.33984375.35760498.61914063.47961426.27929687.12200928.59375.18304443.94335937.18304443.31054688 0 .5859375-.04626464.82421875-.13885498.23632813-.0925293.4140625-.21948242.52929688-.3807373.1171875-.16131592.17578124-.33728027.17578124-.52801514 0-.19354248-.05664062-.36254883-.16796874-.506958-.11328126-.14447022-.296875-.26580811-.5546875-.36395264-.16601563-.06451416-.52929688-.16479492-1.09570313-.30084229-.56445313-.13598633-.9609375-.26434326-1.1875-.38494873-.29296875-.15423584-.51171875-.34570312-.65625-.57427978-.14453125-.22857666-.21679688-.48449707-.21679688-.76782227 0-.31134033.08789063-.60229492.265625-.87298584.17578126-.27069092.43359376-.47613525.77148438-.616333.33789063-.1402588.71484375-.21038819 1.12890625-.21038819.45507813 0 .85742188.0736084 1.20703125.22088623q.52148438.2208252.80273438.65002441c.1875.28607178.2890625.6100464.30273437.9718628l-.78125.05889892c-.04101563-.38989257-.18359375-.6843872-.42578125-.88354492-.2421875-.19909668-.59960938-.29870605-1.07226563-.29870605-.4921875 0-.8515625.0904541-1.07617187.2713623-.22460938.1809082-.33789063.39898682-.33789063.65423584 0 .22155762.08007813.40393067.24023438.54693604.15625.1430664.56445313.28961181 1.2265625.43969726.66210938.15002442 1.11523438.28112793 1.36132813.39331055.359375.16552734.62304687.3751831.79296874.62902832.171875.25384521.25585938.54620361.25585938.87719727 0 .32818603-.09375.63739013-.28125.92767333-.1875.29034424-.45507813.51611329-.80664063.67736817-.3515625.16131592-.74609374.24194336-1.18554687.24194336-.55664063 0-1.0234375-.08135986-1.40039063-.24401856-.375-.16271972-.66992187-.40740966-.88476562-.7341919l-.33789063-1.10858153zm-1.89257813-4.18615723h.81445313v3.5635376c0 .61987304-.0703125 1.11212158-.20898438 1.4767456-.140625.36462403-.39257813.66119385-.7578125.88983155-.36523438.22857666-.84375.3428955-1.4375.3428955-.57617188 0-1.046875-.09960937-1.4140625-.29876709-.3671875-.19909668-.62695313-.48730468-.78515625-.86456298q-.234375-.56591797-.234375-1.54614258v-3.5635376h.81445313v3.55932617c0 .53570557.04882812.93048096.1484375 1.18432617.09960937.25384522.26953124.4494629.51171874.58691407.2421875.13745117.5390625.20617675.88867188.20617675.59765625 0 1.02539063-.13604736 1.27929688-.40814209.25390624-.27203369.38085937-.79516601.38085937-1.5692749v-3.55932617zm7.90234375 6.16778564v-6.16778564h2.11914063c.47851562 0 .84375.02947998 1.09570312.0883789.3515625.08129883.65234375.22857667.90234375.44171143q.48632813.41235352.7265625 1.05395508c.16210938.42773437.2421875.91644287.2421875 1.46618652 0 .46844483-.0546875.88354492-.1640625 1.24536133-.109375.3618164-.24804688.66119385-.41992188.8982544-.16992187.2369995-.35742187.42352295-.55859374.5595703-.203125.13598634-.44921876.23907472-.734375.30920411-.28710938.0701294-.6171875.10516357-.98828126.10516357h-2.22070312zm.81445313-.72784423h1.3125c.40625 0 .72460937-.0378418.95507812-.11358643.23046875-.07574463.41601563-.18231201.55273438-.31976318.19335937-.19354248.34375-.45367432.45117187-.78045655.10742188-.32672119.16015625-.72290039.16015625-1.1885376 0-.64508056-.10546875-1.14086913-.31640625-1.48724365-.2109375-.3463745-.46679688-.5784912-.76953125-.69628906-.21875-.08416748-.56835938-.1262207-1.05273438-.1262207h-1.29296874v4.71209717z"/>
        </g>
        <g>
            <path fill="rgb(255,255,255)" fill-rule="evenodd" d="M28.67382813 107.98168945q0 2.20770264-1.33007813 3.52844239c-.88671875.8805542-2.10546875 1.40588379-3.65820313 1.5760498v2.48840332h-2.0234375v-2.48840332c-.96679687-.10211182-1.84570312-.37011719-2.63476562-.80395508-.7890625-.43389892-1.421875-1.07409668-1.90234375-1.92059326-.47851563-.84643555-.71875-1.90350342-.71875-3.17108154h3.16796875c0 1.19104004.29296875 2.04388428.87890625 2.55859375.5859375.51470947 1.30664063.77203369 2.1640625.77203369.92382813 0 1.63867188-.22546387 2.14453125-.67633057.50390625-.45092773.75585938-1.06341552.75585938-1.83764648 0-.7230835-.22851563-1.32073975-.68554688-1.79290772-.45898438-.47216797-1.23632813-.8996582-2.33007813-1.2824707-1.1875-.40838623-2.16796874-.8550415-2.93945312-1.33996582-.77148438-.48492432-1.37304688-1.08465576-1.80078125-1.7993164-.42773438-.71459962-.64257813-1.5866089-.64257813-2.61602784 0-.94433594.19726563-1.7822876.59179688-2.51391601.39453125-.73162842.95117188-1.31866455 1.67382813-1.76104737q1.08007812-.66357422 2.53125-.82946777v-2.78192139H23.953125v2.80743408c1.45898438.20422364 2.59960938.8209839 3.42382813 1.85040284.82226562 1.0293579 1.234375 2.39477539 1.234375 4.09631347h-3.16992188c0-1.06347656-.23046875-1.89715576-.69335938-2.5012207q-.69335937-.90600586-1.92773437-.90600586c-.84765625 0-1.484375.22753906-1.90820313.68273926-.42578124.45513916-.63671874 1.06976318-.63671874 1.8439331 0 .48492432.09570312.8996582.28515624 1.24420166.19140626.3446045.5078125.6593628.94921876.94433594.44140624.28503418 1.05273437.57214356 1.83203124.86138916 1.19726563.43389893 2.17578126.89324951 2.93945313 1.37817383q1.14453125.72735596 1.76953125 1.79296875l.62304688 2.5968628zm14.80273437-2.92230224c0 5.37670898-2.0234375 8.06500244-6.0703125 8.06500244-1.92578125 0-3.42578125-.64227295-4.5-1.92694092-1.07226563-1.28460693-1.609375-3.33062744-1.609375-6.13806152v-3.03717041c0-2.7989502.52929688-4.83007813 1.58984375-6.09344483 1.06054688-1.2633667 2.55859375-1.89501953 4.49414063-1.89501953 1.93359375 0 3.43359375.63165283 4.49804687 1.89501953 1.06445313 1.2633667 1.59765625 3.29449463 1.59765625 6.09344483v3.0371704zm22.15625 0c0 5.37670898-2.0234375 8.06500244-6.0703125 8.06500244-1.92578125 0-3.42578125-.64227295-4.5-1.92694092-1.07226563-1.28460693-1.609375-3.33062744-1.609375-6.13806152v-3.03717041c0-2.7989502.52929688-4.83007813 1.58984375-6.09344483 1.06054688-1.2633667 2.55859375-1.89501953 4.49414063-1.89501953 1.93359375 0 3.43359375.63165283 4.49804687 1.89501953 1.06445313 1.2633667 1.59765625 3.29449463 1.59765625 6.09344483v3.0371704zm8.76953125 8.06500244c4.046875 0 6.0703125-2.68829346 6.0703125-8.06500244v-3.03717041c0-2.7989502-.53320313-4.83007813-1.59765625-6.09344483-1.06445313-1.2633667-2.56445313-1.89501953-4.49804688-1.89501953-1.93554687 0-3.43359374.63165283-4.49414062 1.89501953-1.06054688 1.2633667-1.58984375 3.29449463-1.58984375 6.09344483v3.0371704c0 2.80743409.53710938 4.8534546 1.609375 6.13806153 1.07421875 1.28466797 2.57421875 1.92694092 4.5 1.92694092zm-34.09570313-11.57434082c0-1.78656006-.2421875-3.06048584-.7265625-3.82189942-.48242187-.76141357-1.21679687-1.14215087-2.20117187-1.14215087-.96679688 0-1.6953125.3807373-2.18164063 1.14215087-.48828125.76141358-.73242187 2.03533936-.73242187 3.82189942v3.95599365c0 1.78656006.24804688 3.07751465.74414063 3.87298584.49609375.7954712 1.22851562 1.19317627 2.1953125 1.19317627.9765625 0 1.703125-.39349365 2.18359375-1.18041992.47851562-.78692627.71875-2.08215332.71875-3.88574219v-3.95599365zm22.15820313 0c0-1.78656006-.2421875-3.06048584-.7265625-3.82189942-.48242188-.76141357-1.21679688-1.14215087-2.20117188-1.14215087-.96679687 0-1.6953125.3807373-2.18164062 1.14215087-.48828125.76141358-.73242188 2.03533936-.73242188 3.82189942v3.95599365c0 1.78656006.24804688 3.07751465.74414063 3.87298584.49609375.7954712 1.22851563 1.19317627 2.1953125 1.19317627.9765625 0 1.703125-.39349365 2.18359375-1.18041992.47851563-.78692627.71875-2.08215332.71875-3.88574219v-3.95599365zm14.11132813-3.82189942c.484375.76141358.7265625 2.03533936.7265625 3.82189942v3.95599365c0 1.80358887-.24023438 3.09881592-.71875 3.88574219-.48046876.78692627-1.20703126 1.18041992-2.18359376 1.18041992-.96679687 0-1.69921874-.39770508-2.1953125-1.19317627-.49609374-.7954712-.74414062-2.08642578-.74414062-3.87298584v-3.95599365c0-1.78656006.24414063-3.06048584.73242188-3.82189942.48632812-.76141357 1.21484374-1.14215087 2.18164062-1.14215087.984375 0 1.71875.3807373 2.20117188 1.14215087zm-28.21289063 11.79766846q.83984375 0 1.3359375.49768067c.33007813.3317871.49609375.75292968.49609375 1.2633667 0 .50195312-.16601563.916687-.49609375 1.24420165q-.49609375.49127198-1.3359375.49127198c-.56835938 0-1.01757813-.16375733-1.34960938-.49127198-.33007812-.32751464-.49609375-.74224853-.49609375-1.24420166 0-.510437.16601563-.93157959.49609375-1.2633667l1.34960938-.49768066z"/>
        </g>
    </g>
</svg>
