<?xml version="1.0" encoding="UTF-8"?>
<svg width="40px" height="42px" viewBox="0 0 40 42" version="1.1" xmlns="http://www.w3.org/2000/svg" xmlns:xlink="http://www.w3.org/1999/xlink">
    <!-- Generator: Sketch 63.1 (92452) - https://sketch.com -->
    <title>Group 3</title>
    <desc>Created with Sketch.</desc>
    <g id="Page-1" stroke="none" stroke-width="1" fill="none" fill-rule="evenodd">
        <g id="bitpay.com/card/US/fees" transform="translate(-468.000000, -1339.000000)" fill="#4F6EF7">
            <g id="Group-3" transform="translate(468.000000, 1339.000000)">
                <path d="M27.299387,35.2852478 C24.7428431,35.2852478 22.6703548,33.2285562 22.6703548,30.6914988 C22.6703548,28.1544412 24.7428431,26.0977497 27.299387,26.0977497 C29.8559307,26.0977497 31.9284191,28.1544412 31.9284191,30.6914988 C31.9284191,31.9098367 31.440719,33.0782746 30.5726072,33.9397701 C29.7044948,34.801265 28.5270825,35.2852478 27.299387,35.2852478 L27.299387,35.2852478 Z" id="Path"></path>
                <polygon id="Path" points="38.4646122 14.7892508 24.592064 21.4291877 22.5182571 13.1958752 33.0975815 2.32050007 30.7592585 0 17.9923871 12.231188 0.372967743 10.3608755 0 12.9596256 14.9478063 15.6174387 17.3892897 25.3063144 17.7106769 41.8477516 21.0171288 41.8477516 21.3477744 27.3144393 39.9406128 17.7174382"></polygon>
            </g>
        </g>
    </g>
</svg>
