<?xml version="1.0" encoding="UTF-8"?>
<svg width="222px" height="247px" viewBox="0 0 222 247" version="1.1" xmlns="http://www.w3.org/2000/svg" xmlns:xlink="http://www.w3.org/1999/xlink">
    <!-- Generator: Sketch 63.1 (92452) - https://sketch.com -->
    <title>mc-angled</title>
    <desc>Created with Sketch.</desc>
    <g id="Dashboard-(Desktop)" stroke="none" stroke-width="1" fill="none" fill-rule="evenodd">
        <g id="mc-angled">
            <path d="M86.49,8.47 L196.49,50.34 C198.442712,51.0889194 200.016436,52.5851871 200.862874,54.4976486 C201.709312,56.4101101 201.758661,58.5810517 201,60.53 L130.71,241.64 C129.098074,245.717346 124.504599,247.737583 120.41,246.17 L10.46,204.3 C8.49374855,203.562494 6.90321654,202.070648 6.0414448,200.1556 C5.17967306,198.240552 5.11795867,196.060738 5.87,194.1 L76.19,13 C77.8019264,8.92265423 82.3954012,6.90241728 86.49,8.47 Z" id="Rectangle" fill="#002452" fill-rule="nonzero"></path>
            <polygon id="Rectangle-3" fill="#F26122" fill-rule="nonzero" points="105.11 202.85 116.97 207.36 109.53 226.53 97.67 222.01"></polygon>
            <path d="M102.62,212.89 C104.068014,209.143673 107.158107,206.271141 111,205.1 C107.218499,198.890772 99.1495695,196.872426 92.89,200.57 C89.9016648,202.327393 87.7390558,205.205595 86.8827823,208.564966 C86.0265089,211.924337 86.5475098,215.486567 88.33,218.46 C91.4830399,223.642767 97.7474231,226.029983 103.55,224.26 C101.469888,220.830674 101.100415,216.629765 102.55,212.89 L102.62,212.89 Z" id="Path-2" fill="#EA1D25" fill-rule="nonzero"></path>
            <path d="M123.14,229.38 L123.29,228.98 L123.46,229.04 L123.46,228.96 L123.05,228.8 L123.05,228.89 L123.21,228.95 L123.06,229.35 L123.14,229.38 Z M123.92,229.68 L124.1,229.2 L123.99,229.2 L123.71,229.49 L123.71,229 L123.58,229 L123.4,229.47 L123.49,229.47 L123.63,229.11 L123.63,229.47 L123.72,229.47 L123.97,229.21 L123.83,229.57 L123.92,229.68 Z" id="Shape-5" fill="#F69E1E" fill-rule="nonzero"></path>
            <path d="M127.25,222.27 C125.399698,226.949138 121.05871,230.176459 116.044912,230.600459 C111.031114,231.024459 106.209803,228.571962 103.6,224.27 C107.449968,223.116738 110.550065,220.247621 111.997383,216.498283 C113.444702,212.748945 113.076494,208.540994 111,205.1 C117.940831,202.977456 125.29749,206.834128 127.5,213.75 C128.383645,216.536401 128.295505,219.540205 127.25,222.27 Z" id="Path-3" fill="#F69E1E" fill-rule="nonzero"></path>
            <polygon id="Rectangle-4" points="79.05 5.63 203.88 53.17 127.85 249 3.02 201.46"></polygon>
            <path d="M153.44,80 C153.733698,79.8111658 153.996747,79.5784687 154.22,79.31 C154.455857,79.034226 154.641963,78.7195384 154.77,78.38 C155.032075,77.7132462 155.067219,76.9787295 154.87,76.29 C154.808889,76.0711542 154.837941,75.836951 154.950673,75.6396704 C155.063405,75.4423898 155.25043,75.2984565 155.47,75.24 C155.924794,75.1172641 156.394663,75.3787951 156.53,75.83 L156.53,75.83 C157.117281,77.9736377 156.236939,80.2495453 154.36,81.44 C153.956129,81.6898954 153.426478,81.5697225 153.17,81.17 C153.04535,80.9805019 153.003682,80.7482461 153.054684,80.5272348 C153.105687,80.3062236 153.244916,80.1157134 153.44,80" id="Path-4" fill="#FFFFFF" fill-rule="nonzero"></path>
            <path d="M155.62,82.47 C157.675898,80.9158697 158.678335,78.3343046 158.21,75.8 C158.124922,75.3334323 158.433612,74.8860558 158.9,74.8 C159.36213,74.7200816 159.804436,75.02085 159.9,75.48 C160.491336,78.6497024 159.236086,81.8808069 156.66,83.82 C156.478624,83.9600352 156.248863,84.0218966 156.021696,83.991858 C155.79453,83.9618194 155.588744,83.8423651 155.45,83.66 C155.166133,83.2870596 155.237709,82.7547176 155.61,82.47" id="Path-5" fill="#FFFFFF" fill-rule="nonzero"></path>
            <path d="M157.94,85.12 C160.856049,82.8046544 162.297111,79.096883 161.71,75.42 C161.653824,75.1974699 161.694689,74.9615549 161.822439,74.7708839 C161.950188,74.580213 162.152829,74.4526876 162.38,74.42 C162.545656,74.3904705 162.716363,74.4113734 162.87,74.48 C163.155338,74.5847639 163.359315,74.8387724 163.4,75.14 C164.076758,79.418557 162.395086,83.729751 159,86.42 C158.633621,86.717684 158.096692,86.6688724 157.79,86.31 C157.646071,86.1352493 157.577801,85.9103015 157.600328,85.6850328 C157.622855,85.4597641 157.734317,85.2527894 157.91,85.11 L157.91,85.11" id="Path-6" fill="#FFFFFF" fill-rule="nonzero"></path>
            <path d="M160.27,87.79 C164.061036,84.68582 165.836528,79.7474911 164.89,74.94 C164.839792,74.7208789 164.880612,74.4907633 165.003125,74.3022813 C165.125638,74.1137993 165.319365,73.9830731 165.54,73.94 L165.6,73.94 C166.065475,73.8875816 166.496021,74.1932691 166.6,74.65 C167.665048,80.0521095 165.67034,85.6019326 161.41,89.09 C161.031626,89.3897718 160.485903,89.346114 160.16,88.99 C159.994964,88.8271991 159.907593,88.6014885 159.92,88.37 C159.937553,88.1389997 160.049729,87.9255044 160.23,87.78" id="Path-7" fill="#FFFFFF" fill-rule="nonzero"></path>
            <path d="M137.76,83.71 L125,78.84 C123.981846,78.4600334 123.453423,77.3365789 123.81,76.31 L130.44,59.23 C130.859715,58.2137558 132.021054,57.7268867 133.04,58.14 L145.8,63 C146.292787,63.173005 146.69835,63.5319105 146.93,64 C147.15596,64.4763196 147.184711,65.0225925 147.01,65.52 L140.37,82.6 C140.16705,83.0886986 139.778699,83.4770502 139.29,83.68 C138.804143,83.8924321 138.253811,83.903223 137.76,83.71 Z" id="Path-8" fill="#D7D7D7" fill-rule="nonzero"></path>
            <path d="M137.76,83.71 L125,78.84 C123.981846,78.4600334 123.453423,77.3365789 123.81,76.31 L130.44,59.23 C130.859715,58.2137558 132.021054,57.7268867 133.04,58.14 L145.8,63 C146.292787,63.173005 146.69835,63.5319105 146.93,64 C147.15596,64.4763196 147.184711,65.0225925 147.01,65.52 L140.37,82.6 C140.16705,83.0886986 139.778699,83.4770502 139.29,83.68 C138.804143,83.8924321 138.253811,83.903223 137.76,83.71 Z" id="Path-9" stroke="#010101" stroke-width="0.18"></path>
            <path d="M134.23,67.36 C134.39984,67.4744717 134.563409,67.5979829 134.72,67.73 C135.143546,68.1944389 135.648536,68.5774179 136.21,68.86 C136.79555,69.0007703 137.399684,69.048021 138,69 L138,69 C138.501406,69.0295007 138.993021,69.1515567 139.45,69.36 L142.45,61.7 L136.39,59.39 L133.44,67 C133.718464,67.0835559 133.984243,67.2046702 134.23,67.36 Z M135.65,75.26 C135.09,74.98 134.73,74.39 134.16,74.17 C133.572661,74.0190974 132.965205,73.9617265 132.36,74 L132.36,74 C131.88302,73.8586773 131.423461,73.6641194 130.99,73.42 L128.39,80.13 L134.45,82.44 L137.05,75.75 C136.57394,75.6519224 136.113172,75.4904855 135.68,75.27 L135.65,75.26 Z M133.48,67 C132.688655,66.769066 131.860559,66.6910078 131.04,66.77 C129.969313,66.7482016 128.981302,67.3433424 128.5,68.3 C128.430125,68.4944999 128.379875,68.6954999 128.35,68.9 C128.334126,70.7847399 129.351083,72.526999 131,73.44 M137,75.75 C138.838837,76.1516026 140.751154,75.5281872 142,74.12 C142.126574,73.956102 142.22771,73.7740557 142.3,73.58 C142.589381,72.6167981 142.297298,71.5730865 141.55,70.9 C140.971691,70.2428803 140.258938,69.7176937 139.46,69.36" id="Shape-6" stroke="#000000" stroke-width="0.18"></path>
            <path d="M86.49,8.47 C82.3954012,6.90241728 77.8019264,8.92265423 76.19,13 L32,126.8 L35.13,122.27 C39.1825128,120.676635 43.5794043,120.163205 47.89,120.78 C51.1291846,121.188997 54.3102734,121.970847 57.37,123.11 C65,126 70,130.48 71,136.3 C72,142.12 70.86,149.23 67.59,157.65 C64.997846,164.367388 61.2477088,170.57813 56.51,176 C51.9356297,181.304501 46.5323422,185.833131 40.51,189.41 C34.7179034,192.864416 28.2845239,195.106403 21.6,196 C16.2459805,196.73599 10.7974314,196.351187 5.6,194.87 C4.53650105,198.79408 6.63298471,202.88309 10.44,204.31 L58.52,222.62 L58.52,222.62 C69.5954086,217.497137 79.5988146,210.320338 88,201.47 C96.7507701,192.331447 103.587873,181.536916 108.11,169.72 C111.058921,162.28226 112.960424,154.470954 113.76,146.51 C114.510265,139.328512 113.799328,132.069466 111.67,125.17 C109.514381,118.434023 105.851591,112.278074 100.96,107.17 C95.9133333,101.836667 89.1333333,97.5466667 80.62,94.3 C76.7751502,92.8233997 72.7661765,91.8161199 68.68,91.3 C64.7560558,90.8186397 60.7967474,90.6914599 56.85,90.92 L108.25,16.74 L86.49,8.47 Z" id="Path" fill="#002958" fill-rule="nonzero"></path>
            <path d="M23.88,188.23 L21,195.59 L20.11,195.25 L20.28,194.68 C19.6914289,194.959184 19.0085711,194.959184 18.42,194.68 C18.0145675,194.528698 17.6654606,194.256394 17.42,193.9 C17.167314,193.533816 17.0218562,193.104369 17,192.66 C16.9793753,192.168557 17.0611032,191.67819 17.24,191.22 L17.24,191.12 C17.4180529,190.641649 17.6939281,190.205698 18.05,189.84 C18.3640263,189.528082 18.7588116,189.309911 19.19,189.21 C19.6288707,189.118606 20.0850379,189.160392 20.5,189.33 C21.0995529,189.512618 21.5868915,189.952322 21.83,190.53 L22.83,187.84 L23.88,188.23 Z M20.59,193.81 L21.52,191.41 C21.4570713,190.827937 21.0695407,190.331898 20.52,190.13 C20.2220742,190.005952 19.8912797,189.984837 19.58,190.07 C19.2852924,190.157885 19.0216884,190.32784 18.82,190.56 C18.5910592,190.82971 18.4116287,191.137789 18.29,191.47 L18.23,191.62 C18.0956051,191.936907 18.021016,192.275949 18.01,192.62 C18.0066293,192.925457 18.086114,193.226116 18.24,193.49 C18.4197291,193.751673 18.6793372,193.948133 18.98,194.05 C19.5278231,194.286416 20.1629116,194.185113 20.61,193.79 L20.59,193.81 Z" id="Shape" fill="#FFFFFF" fill-rule="nonzero"></path>
            <path d="M28,195.54 L24.17,194.08 C24.0559558,194.40022 24.0149555,194.741889 24.05,195.08 C24.0837462,195.385985 24.2014119,195.676689 24.39,195.92 C24.5874339,196.181202 24.8593825,196.376447 25.17,196.48 C25.4607664,196.600617 25.7765167,196.648666 26.09,196.62 C26.3860825,196.58456 26.6718697,196.489297 26.93,196.34 L27.36,196.99 C27.0261921,197.207942 26.6460979,197.344913 26.25,197.39 C25.7691461,197.431148 25.2854624,197.355679 24.84,197.17 C24.3613466,197.006226 23.9338625,196.720088 23.6,196.34 C23.3073312,195.982059 23.1111092,195.55519 23.03,195.1 C22.9672393,194.618194 23.0327808,194.128358 23.22,193.68 L23.3,193.48 C23.4786831,192.982358 23.7857173,192.54078 24.19,192.2 C24.5499617,191.89045 24.9903335,191.689335 25.46,191.62 C26.4178582,191.483206 27.3765655,191.863646 27.98,192.62 C28.2476098,192.960833 28.4015075,193.377056 28.42,193.81 C28.4287501,194.292679 28.3403301,194.772187 28.16,195.22 L28,195.54 Z M27.32,194.39 C27.440121,194.016077 27.440121,193.613923 27.32,193.24 C27.1888897,192.85696 26.8790435,192.562047 26.49,192.45 C26.1326789,192.295366 25.7273211,192.295366 25.37,192.45 C24.9743778,192.647798 24.6521101,192.966563 24.45,193.36 L27.29,194.45 L27.32,194.39 Z" id="Shape-2" fill="#FFFFFF" fill-rule="nonzero"></path>
            <path d="M33.89,194.81 C34.1508234,195.160692 34.2974545,195.583129 34.31,196.02 C34.3179717,196.530456 34.2227332,197.037261 34.03,197.51 L34.03,197.63 C33.8551615,198.099387 33.5863397,198.528141 33.24,198.89 C32.9268337,199.21033 32.5272815,199.432689 32.09,199.53 C30.9711384,199.7289 29.8609439,199.138722 29.4,198.1 L29.12,198.67 L28.22,198.33 L31,191 L32,191.37 L31,194.07 C32.0307312,193.628128 33.2297911,193.936105 33.92,194.82 L33.89,194.81 Z M33,197.14 C33.2091436,196.665853 33.2718252,196.140024 33.18,195.63 C33.0601863,195.177932 32.7164991,194.819138 32.27,194.68 C31.6992843,194.430643 31.0349365,194.544643 30.58,194.97 L29.7,197.23 C29.7323518,197.519003 29.8391684,197.794658 30.01,198.03 C30.2018558,198.279427 30.4626,198.467163 30.76,198.57 C31.1820711,198.767069 31.6770429,198.725187 32.06,198.46 C32.4790459,198.156292 32.7935092,197.730019 32.96,197.24 L33,197.14 Z" id="Shape-3" fill="#FFFFFF" fill-rule="nonzero"></path>
            <path d="M37.89,194.06 C37.9503227,194.193502 37.9503227,194.346498 37.89,194.48 C37.8394868,194.619572 37.7295724,194.729487 37.59,194.78 C37.4390032,194.839608 37.2709968,194.839608 37.12,194.78 C36.9631484,194.730422 36.8309283,194.623217 36.75,194.48 C36.6857265,194.35089 36.6857265,194.19911 36.75,194.07 C36.7918379,193.926412 36.8995165,193.811307 37.04,193.76 C37.1924933,193.690687 37.3675067,193.690687 37.52,193.76 C37.6783601,193.806743 37.811534,193.914721 37.89,194.06 L37.89,194.06 Z M34.27,200.67 L36.27,195.48 L37.27,195.85 L35.27,201.04 L34.27,200.67 Z" id="Shape-4" fill="#FFFFFF" fill-rule="nonzero"></path>
            <path d="M39.19,202.51 C38.9245644,202.471538 38.6633884,202.407918 38.41,202.32 C38.025306,202.212934 37.7118811,201.93375 37.5612208,201.563947 C37.4105604,201.194144 37.4396509,200.775417 37.64,200.43 L38.89,197.22 L37.89,196.83 L38.15,196.15 L39.15,196.54 L39.64,195.28 L40.64,195.65 L40.15,196.91 L41.21,197.31 L40.95,197.99 L39.89,197.59 L38.64,200.81 C38.5608461,200.988276 38.5608461,201.191724 38.64,201.37 C38.7396703,201.510686 38.8788947,201.618585 39.04,201.68 L39.5,201.85 L39.19,202.51 Z" id="Path" fill="#FFFFFF" fill-rule="nonzero"></path>
            <path d="M108.21,127.41 L105.4,126.34 L101.14,132.5 L101.14,132.5 L100.56,133.34 L100.04,133.28 C99.7233329,133.219245 99.4122624,133.132279 99.11,133.02 C98.8127967,132.923886 98.5422373,132.759495 98.32,132.54 C98.1564168,132.386131 98.0595123,132.174376 98.05,131.95 C98.041712,131.705524 98.1005031,131.463443 98.22,131.25 C98.3501912,130.980198 98.5041316,130.722515 98.68,130.48 L100.9,127.29 L102.37,125.18 L99.51,124.09 L96.11,129 C95.7190366,129.548458 95.384029,130.134722 95.11,130.75 C94.8670728,131.264853 94.7537801,131.831317 94.78,132.4 C94.8211623,132.946308 95.0427852,133.463428 95.41,133.87 C95.9444345,134.408791 96.5990048,134.813185 97.32,135.05 C97.8555545,135.259217 98.4121034,135.410089 98.98,135.5 L99.04,135.5 C98.7319403,135.990191 98.271826,136.366009 97.73,136.57 C97.0652785,136.7537 96.3570621,136.697043 95.73,136.41 C95.4178312,136.293857 95.1138139,136.156882 94.82,136 L93.36,138.11 C93.754339,138.319535 94.1618622,138.503255 94.58,138.66 C95.331523,138.961245 96.1233853,139.149944 96.93,139.22 C97.6107935,139.273041 98.2947303,139.170451 98.93,138.92 C99.5624575,138.700707 100.146521,138.361135 100.65,137.92 C101.255454,137.388209 101.79286,136.783626 102.25,136.12 L107.25,128.81 L107.25,128.81 L108.21,127.41 Z" id="y" fill="#FFFFFF" fill-rule="nonzero"></path>
            <path d="M94.22,128.72 C93.7698963,129.347233 93.431584,130.04754 93.22,130.79 C93.0156003,131.627363 92.9247858,132.48842 92.95,133.35 L90.24,132.35 C90.1651151,131.977055 90.1651151,131.592945 90.24,131.22 C89.76961,131.36929 89.282598,131.459975 88.79,131.49 C88.2632738,131.511034 87.7381546,131.418967 87.25,131.22 C86.6879828,131.024737 86.1782451,130.703157 85.76,130.28 C85.4051647,129.922398 85.1441068,129.482722 85,129 C84.8587823,128.509783 84.8213185,127.995508 84.89,127.49 C84.9521771,126.934878 85.0866495,126.390264 85.29,125.87 C85.6113261,125.038785 86.0862637,124.275493 86.69,123.62 C87.2791074,122.998173 87.9773413,122.48975 88.75,122.12 C90.2133219,121.368575 91.9233178,121.259889 93.47,121.82 L97.82,123.47 L94.22,128.72 Z M93.57,124.49 C92.26,124 92.01,123.9 91.37,123.98 C90.9131823,124.043972 90.4742258,124.200499 90.08,124.44 C89.6612017,124.682482 89.2887601,124.997365 88.98,125.37 C88.6433393,125.756209 88.3791085,126.199981 88.2,126.68 C87.9840553,127.159288 87.8978434,127.686905 87.95,128.21 C88.0465121,128.674733 88.3998458,129.043598 88.86,129.16 C89.1296758,129.267721 89.4204551,129.312193 89.71,129.29 C90.0543342,129.253139 90.3913178,129.165523 90.71,129.03 C90.8472651,128.703753 91.0111518,128.389358 91.2,128.09 C91.39,127.77 91.59,127.49 91.77,127.22 L93.61,124.51" id="a" fill="#FFFFFF" fill-rule="nonzero"></path>
            <path d="M85.42,123.39 C85.0960312,124.248385 84.614423,125.03863 84,125.72 C83.4326484,126.327299 82.7536068,126.819604 82,127.17 C81.2352776,127.51376 80.408341,127.697524 79.57,127.71 C78.6708168,127.729587 77.7767436,127.569809 76.94,127.24 C76.5055638,127.075302 76.0871453,126.871114 75.69,126.63 L73.52,129.71 L70.71,128.64 L79.24,116.35 L82.97,117.77 C83.6009876,117.985954 84.1823963,118.325959 84.68,118.77 C85.0847273,119.144709 85.3992719,119.606269 85.6,120.12 C85.7807393,120.622723 85.8589445,121.156559 85.83,121.69 C85.8019142,122.254177 85.6872408,122.81068 85.49,123.34 L85.42,123.39 Z M77,124.63 C77.2372971,124.780317 77.4884434,124.907564 77.75,125.01 C78.2068597,125.180126 78.6928358,125.25829 79.18,125.24 C79.6484594,125.209207 80.1051138,125.079709 80.52,124.86 C80.9432436,124.628145 81.3196499,124.31956 81.63,123.95 C81.987632,123.51232 82.2713679,123.01916 82.47,122.49 C82.6703347,122.016909 82.7293795,121.495925 82.64,120.99 C82.4977904,120.508669 82.1213308,120.13221 81.64,119.99 L80.54,119.57 L77,124.63 Z" id="p" fill="#FFFFFF" fill-rule="nonzero"></path>
            <path d="M71.12,122.35 C70.8251883,122.253598 70.555392,122.093086 70.33,121.88 C70.1748978,121.716181 70.0797448,121.50473 70.06,121.28 C70.0570952,121.040483 70.1119792,120.803795 70.22,120.59 C70.3513961,120.318737 70.5088001,120.060863 70.69,119.82 L72.91,116.63 L76.09,117.84 L77.57,115.74 L74.36,114.52 L76.25,111.84 L73.07,111.15 L68.07,118.35 C67.6829915,118.900979 67.3482087,119.486849 67.07,120.1 C66.8395301,120.618598 66.7301005,121.182845 66.75,121.75 C66.7812134,122.293814 67.0003716,122.809896 67.37,123.21 C67.9053335,123.752592 68.56411,124.157466 69.29,124.39 C69.8236859,124.607002 70.3807418,124.761367 70.95,124.85 L71.13,124.85 L72.65,122.66 C72.1269149,122.637411 71.6106236,122.532803 71.12,122.35 Z" id="t" fill="#FFFFFF" fill-rule="nonzero"></path>
            <polygon id="i_bottom" fill="#FFFFFF" fill-rule="nonzero" points="67.06 111.72 60.59 121.07 63.39 122.13 69.86 112.78"></polygon>
            <polygon id="i_top" fill="#FFFFFF" fill-rule="nonzero" points="70.61 111.7 71.73 110.08 68.93 109.02 67.81 110.64"></polygon>
            <path d="M60.84,109.37 C61.3845651,109.556536 61.8777775,109.868219 62.28,110.28 C62.6368489,110.636039 62.8982289,111.076258 63.04,111.56 C63.1991863,112.046442 63.2503755,112.561747 63.19,113.07 C63.1409259,113.626331 63.0094918,114.172288 62.8,114.69 C62.1570792,116.345686 60.8996109,117.689135 59.29,118.44 C58.509895,118.798444 57.6676815,119.002206 56.81,119.04 C55.9056476,119.079749 55.0029812,118.929873 54.16,118.6 L53.57,118.37 C53.2473319,118.240333 52.9333488,118.090022 52.63,117.92 C52.2582852,117.721651 51.9007622,117.497781 51.56,117.25 C51.1973946,117.003026 50.8621652,116.718081 50.56,116.4 L59.09,104.08 L62.19,104.75 L59.19,109.11 C59.4692,109.080067 59.7508,109.080067 60.03,109.11 C60.3095921,109.163312 60.5816124,109.250628 60.84,109.37 L60.84,109.37 Z M55.29,116.37 C55.7260781,116.537155 56.1971396,116.592169 56.66,116.53 C57.1346996,116.469103 57.5912644,116.308965 58,116.06 C58.8710906,115.540069 59.5487233,114.750083 59.93,113.81 C60.1401202,113.3327 60.2195007,112.808098 60.16,112.29 C60.0195977,111.821832 59.6371092,111.466118 59.16,111.36 C58.9450824,111.274214 58.7198187,111.217058 58.49,111.19 C58.1733952,111.137499 57.8484733,111.172065 57.55,111.29 L54.37,116 C54.5458049,116.110317 54.7296566,116.207257 54.92,116.29 L55.29,116.37 Z" id="b-2" fill="#FFFFFF" fill-rule="nonzero"></path>
        </g>
    </g>
</svg>
