<svg xmlns="http://www.w3.org/2000/svg" xmlns:xlink="http://www.w3.org/1999/xlink" width="261.729" height="132.398" viewBox="0 0 261.729 132.398">
    <defs>
        <path id="path-1" fill-rule="evenodd" d="M251.72851563 0H10C4.48046875 0 0 4.48083496 0 10v122.39819336h261.72851563V10c0-5.51916504-4.48242188-10-10-10z"/>
        <path id="path-17" fill-rule="evenodd" d="M103.0423864 100.94307673c-.99261203-.54753374-4.11869536-.95524664-4.11869536.92880993 0 2.25475805 3.96986215 1.45930667 3.96986215 3.4491101 0 1.98980342-2.57821306 1.84058285-4.36655538 1.19376455"/>
        <path id="path-18" fill-rule="evenodd" d="M101.07767086 99.30987522v8.81223837"/>
    </defs>
    <g>
        <use fill="rgb(1,35,81)" xlink:href="#path-1"/>
        <use fill-opacity="0" stroke="rgb(0,0,0)" stroke-linecap="butt" stroke-linejoin="miter" stroke-opacity="0" stroke-width="1" xlink:href="#path-1"/>
        <g>
            <path fill="rgb(255,95,0)" fill-rule="evenodd" d="M222.88395056 21.03499483c2.9648044 2.33738636 4.69587003 5.91075462 4.69587003 9.69349315 0 3.68817007-1.64559427 7.17730752-4.47583073 9.51588775l-.2199689.1768546-.00431579.00071429-.2159575-.17405709c-2.83230725-2.33752352-4.47778018-5.82854508-4.47386007-9.51768722-.00297097-3.78253375 1.72796438-7.35637716 4.69406296-9.69178082l-.00496468-.00361773.00496468.00019307z"/>
            <path fill="rgb(235,0,27)" fill-rule="evenodd" d="M218.1898876 30.7302003c-.00297097-3.78253374 1.72796438-7.35637715 4.69406296-9.69178081-5.0389348-3.97258501-12.27504725-3.39394365-16.622992 1.32927048-4.34794475 4.72321413-4.34794475 12.0052312 0 16.72844534 4.34794475 4.72321412 11.5840572 5.30185548 16.622992 1.32927048-2.9670425-2.3361453-4.69808359-5.91146995-4.69406296-9.69520548z"/>
            <path fill="rgb(247,158,27)" fill-rule="evenodd" d="M241.93359375 38.31976318v2.07141114H241.75v-2.07141114h-.390625v-.42858886h.99023438v.42858886h-.41601563zm1.92382813-.42858886v2.5h-.20898438v-1.8928833l-.32421875 1.625h-.22460938l-.32421874-1.625v1.8928833h-.21679688v-2.5h.29882813l.34960937 1.78570556.34960938-1.78570556h.30078124z"/>
            <path fill="rgb(247,158,27)" fill-rule="evenodd" d="M242.7697082 30.7302003c-.0001097 4.72033576-2.68690865 9.02625013-6.91930304 11.08900476-4.23239438 2.06275464-9.26733164 1.5202058-12.9664546-1.39722393 2.9648044-2.33738636 4.69587003-5.91075462 4.69587003-9.69349315 0-3.78273853-1.73106564-7.35610679-4.69587003-9.69349315 3.69912296-2.91742974 8.73406022-3.45997857 12.9664546-1.39722393 4.2323944 2.06275463 6.91919334 6.368669 6.91930303 11.08900475v.00342466z"/>
        </g>
        <g opacity=".05">
            <path fill="rgb(255,255,255)" fill-rule="evenodd" d="M42.40234375.39819336l-31.453125 132h128.38085938c4.578125-11.15332031 6.76953124-22.71160889 6.76953124-35.06567383 0-8.24597168-1.03320312-15.87353515-3.09570312-22.8826294-2.06445313-7.00909423-5.16015625-13.19354247-9.28710938-18.55346679-4.33203124-5.35986328-9.4921875-9.48284912-15.88867187-12.57513428-6.39648438-3.09222412-14.03125-4.74139404-22.69921875-4.74139404l-11.5546875 1.4430542c-3.71484375.82458496-7.01757813 2.0614624-10.73046875 3.71069336L83.1484375.39819336H42.40234375zm9.59960938 131.87542725l12.49414062-52.6593628c3.27929688-2.86401367 6.76171875-4.90979004 10.859375-5.72808838 4.09765625-1.02282714 6.75976563-1.22741699 9.21875-1.22741699 7.78515625 0 13.7265625 2.25030518 16.59570313 7.16009522 2.86914062 4.909729 4.30273437 11.66070556 4.30273437 20.25280761 0 6.95550537-1.22851563 13.7064209-3.48242188 20.25280762C100.53125 124.42816162 96 132.27362061 96 132.27362061H52.00195312z"/>
        </g>
        <g>
            <path fill="rgb(255,255,255)" fill-rule="evenodd" d="M79.38587383 20.31230376h-3.19170095l-1.8469741 8.14344707-.25922448 1.11739612c-.17821679.05079073-.35643358.10158146-.53465037.13544194-.3240306.06772097-.66426268.10158145-1.02069626.10158145-.40503821 0-.72906873-.06772097-.97209164-.18623266-.22682142-.1185117-.4050382-.28781411-.50224739-.52483758-.09720918-.22009314-.12961224-.49097701-.11341067-.79572145.0162015-.30474435.08100761-.6433492.1620153-.9819541l.97209164-4.23256086.63185955-2.81042042h-3.256507l-1.47433903 6.50121353c-.17821679.77879113-.27542597 1.52372185-.30782903 2.2347921-.03240306.71107023.08100761 1.32055902.30782903 1.879257.22682134.54176782.63185955.96502387 1.18271149 1.28669855.55085194.3216746 1.34472678.47404677 2.34922148.47404677.69666575 0 1.31232373-.06772097 1.89557872-.2031629-.04860455.01693024-.43744119 1.21897757-.89108394 1.64223362-.46984433.42325613-1.15030851.64334927-2.05759403.64334927-.38883664 0-.7452703-.01693024-1.06930081-.06772097l-.63185963 2.75962967c.42123978.05079073.89108403.08465121 1.4095329.08465121.97209172 0 1.81457112-.11851169 2.54363985-.33860483.72906872-.23702347 1.34472678-.5756283 1.87937723-1.04967516.51844888-.47404677.95589015-1.06660532 1.31232373-1.76074532.35643357-.71107016.63185954-1.5406521.8424794-2.52260628l2.20340775-9.68409923"/>
            <path fill="rgb(255,255,255)" fill-rule="evenodd" d="M65.28320313 27.35272217c-.19726563.8585205-.26367188 1.73425293-.18164063 2.59277344.08398438.87567138.4140625 2.19781494.7265625 2.86749267h-3.13476563c-.38085937-.66967773-.36328125-.99591064-.44726562-1.20196533-.41210938.34344482-.85742188.63531494-1.35351563.8585205-.49414062.2232666-1.0390625.34344483-1.66601562.34344483-.7265625 0-1.35351563-.13739014-1.86523438-.3949585-.51171875-.25750732-.94140625-.61810302-1.27148437-1.06457519-.33007813-.44641113-.56054688-.96154785-.70898438-1.5625s-.21484375-1.23626709-.21484375-1.9230957c0-1.04742432.18164063-2.02612305.52734375-2.95336914.36328125-.92718506.859375-1.7341919 1.48632813-2.42102051.62695313-.68682861 2.16210938-2.21502686 4.671875-2.21502686h5.03320313l-1.6015625 7.07427979zm-2.29296876-4.20678711c-1.51757812 0-1.79882812 0-2.42578125.3262329-.4453125.24041749-.80859375.6010132-1.12304687 1.01306153-.3125.41210938-.57617188.8928833-.7578125 1.44232178-.18164063.54949951-.28125 1.11608887-.28125 1.69989014 0 .7211914.11523438 1.30499267.34570313 1.73425293.23242187.42926025.66210937.63531494 1.2890625.63531494.33007812 0 .64257812-.06866455.90625-.20605469.265625-.1373291.5625-.3605957.859375-.68682861.03320312-.37774659.08203125-.77264405.1484375-1.18475342.06640625-.41210938.1484375-.80700684.21484375-1.15045166l.82421875-3.62298584z"/>
            <path fill="rgb(255,255,255)" fill-rule="evenodd" d="M54.38476563 25.75250244c0 1.05865479-.1875 2.01959229-.546875 2.89910889-.359375.8795166-.87109375 1.62872314-1.52148438 2.26391601-.6484375.63519287-1.41796875 1.1237793-2.32421875 1.4821167-.90625.3583374-1.88085938.53747559-2.93945313.53747559-.51367187 0-1.02539062-.04888916-1.55664062-.13031006l-1.02539063 3.9251709h-3.3671875l3.9140625-15.66815186h4.49609375c.85546875 0 1.58984375.13031006 2.1875.37457276.61523438.24432373 1.11132813.58636474 1.52148438 1.00982666.39257813.42346191.68359375.92834472.87109375 1.49841308l.29101563 1.80786133zm-8.25585938 4.44641113c.25585938.06512452.58203125.0814209.95703125.0814209.59765625 0 1.12890625-.09771728 1.625-.30944824.47851563-.21173096.90429688-.50488281 1.24609375-.8795166.34179688-.37457275.59960938-.83062744.8046875-1.35180664.1875-.52124024.29101563-1.10754395.29101563-1.74273682 0-.61889648-.13671875-1.15637207-.42773438-1.57983398-.29101563-.4397583-.78710938-.66778565-1.50390625-.66778565h-1.33398438l-1.65820312 6.44970703z"/>
            <path fill="rgb(255,255,255)" fill-rule="evenodd" d="M39.64245585 30.00202357c-.40133863 0-.7224096-.06653152-.96321282-.1829617-.22474963-.1164301-.40133862-.28275885-.49765988-.51561913-.09632134-.21622742-.12842837-.48235349-.11237486-.78174528.01605352-.2993918.08026774-.6320494.16053549-.9647069l.96321281-4.15821944h3.59599438l.65819545-2.76105769h-3.61204797l.83478437-3.49290431-3.37124475.54888496-2.13512175 9.34767726c-.176589.76511235-.27291026 1.49695898-.30501737 2.19553988-.03210711.69858083.08026774 1.29736442.30501737 1.84624942.2247497.53225207.62608834.94807397 1.17190893 1.2640987.5458206.31602465 1.33244441.46572055 2.32776427.46572055.69030248 0 1.3003373-.06653152 1.81405078-.18296162.04816063-.01663293.12842837-.0332658.176589-.04989865l.65819545-2.84422213c-.2247497.08316438-.44949934.13306304-.65819545.16632884"/>
            <path fill="rgb(255,255,255)" fill-rule="evenodd" d="M30.76090236 20.27844327l-2.9392896 12.53453662h3.32781639l2.92239707-12.53453662h-3.31092386z"/>
            <path fill="rgb(255,255,255)" fill-rule="evenodd" d="M34.33684074 19.49503473l.51626217-2.35022561h-3.39012126l-.51626216 2.35022561h3.39012125z"/>
            <path fill="rgb(255,255,255)" fill-rule="evenodd" d="M23.73242188 20.784729c.6953125 0 1.30664062.13183594 1.8203125.37896729.51367187.24719238.92773437.57672119 1.27539062 1.00512695.33007813.42840576.578125.9227295.74414063 1.48291016.16601562.5602417.24804687 1.16986084.24804687 1.8289795 0 1.0050659-.18164063 1.9442749-.5625 2.8505249-.38085938.8897705-.87695313 1.68066406-1.5234375 2.33972167-.64453125.65911866-1.40625 1.18634033-2.28320313 1.56530762-.87695312.37902832-1.8203125.5767212-2.84765624.5767212-.1328125 0-.36328126 0-.6953125-.0164795-.33007813 0-.7109375-.03295899-1.125-.09887695-.4296875-.06591797-.87695313-.1482544-1.34179688-.26361084-.47851563-.11535645-.92578125-.28009034-1.33984375-.47784424l3.79101563-15.85089112 3.39257812-.52728271-1.33984375 5.61865234c.296875-.1317749.5625-.23065185.859375-.29656982l.92773438-.11535645zm-2.84765626 9.32598877c.51367188 0 .99414063-.11535644 1.44140626-.37896728.44726562-.24719238.84375-.5767212 1.17382812-.98864746.33203125-.41192627.59765625-.88977051.77929688-1.4005127.18164062-.52728271.28125-1.07104492.28125-1.63122558 0-.69207764-.1171875-1.23577881-.34765626-1.63122559-.23242187-.39550781-.71289062-.5767212-1.34179687-.5767212-.19726563 0-.41210938.0164795-.74414063.09887696-.33007812.06585694-.61328124.23065186-.87695312.46136475l-1.42382813 5.98114013 1.05859376.06591797z"/>
        </g>
    </g>
</svg>
