<?xml version="1.0" encoding="UTF-8"?>
<svg width="153px" height="243px" viewBox="0 0 153 243" version="1.1" xmlns="http://www.w3.org/2000/svg" xmlns:xlink="http://www.w3.org/1999/xlink">
    <!-- Generator: Sketch 60.1 (88133) - https://sketch.com -->
    <title>BitPay CARD Front (Midnight)</title>
    <desc>Created with Sketch.</desc>
    <defs>
        <rect id="path-1" x="0" y="0" width="153" height="243" rx="10"></rect>
        <polygon id="path-3" points="0.06 0.986 152.986 0.986 152.986 244 0.06 244"></polygon>
        <path d="M92.602,218.671 C96.058,208.615 97.943,198.247 97.943,187.564 C97.943,174.367 95.745,163.999 91.346,156.457 C86.947,148.916 77.835,145.459 65.895,145.459 C62.124,145.459 58.039,145.775 51.754,147.346 C45.472,148.603 40.129,151.743 35.101,156.144 L14.2876066,244.000006 L0.06,244.000006 L0.06,0.986 L66.123149,0.986 L45.213,89.017 C51.648,86.157 57.367,84.012 63.803,82.582 C69.878,80.795 76.671,80.08 83.82,80.08 C98.834,80.08 112.06,82.94 123.143,88.302 C134.225,93.664 143.16,100.815 150.669,110.109 C151.463436,111.141385 152.235744,112.191581 152.986,113.259511 L152.986,244.000006 L78.9151312,244.000006 C84.6956476,236.464381 89.345435,227.847222 92.602,218.671 Z" id="path-5"></path>
    </defs>
    <g id="BitPay-CARD-Front-(Midnight)" stroke="none" stroke-width="1" fill="none" fill-rule="evenodd">
        <g id="BitPay-CARD-Front">
            <mask id="mask-2" fill="white">
                <use xlink:href="#path-1"></use>
            </mask>
            <use id="Mask" fill="#D8D8D8" xlink:href="#path-1"></use>
            <g mask="url(#mask-2)">
                <g transform="translate(0.000000, -1.000000)">
                    <g id="BitPay-Blue-BG" stroke-width="1" fill="none">
                        <mask id="mask-4" fill="white">
                            <use xlink:href="#path-3"></use>
                        </mask>
                        <g id="Clip-2"></g>
                        <polygon id="Fill-1" fill="#0C204E" mask="url(#mask-4)" points="0.06 244 152.986 244 152.986 0.986 0.06 0.986"></polygon>
                    </g>
                    <g id="Spot-UV" stroke-width="1" fill="none">
                        <mask id="mask-6" fill="white">
                            <use xlink:href="#path-5"></use>
                        </mask>
                        <g id="Clip-8"></g>
                        <polygon id="Fill-7" fill="#26439B" opacity="0.100000001" mask="url(#mask-6)" points="0.06 244 152.986 244 152.986 0.986 0.06 0.986"></polygon>
                    </g>
                    <g id="Contactless-Symbol" stroke-width="1" fill="none" transform="translate(111.000000, 35.000000)">
                        <path d="M11.275,18.565 C12.646,16.1 13.392,13.274 13.316,10.274 C13.241,7.277 12.353,4.492 10.859,2.1 C10.556,1.613 10.718,0.98 11.223,0.686 C11.727,0.391 12.383,0.548 12.687,1.034 C14.365,3.721 15.365,6.86 15.449,10.221 C15.534,13.583 14.694,16.768 13.154,19.536 C12.875,20.039 12.227,20.227 11.71,19.958 C11.189,19.69 10.996,19.065 11.275,18.565" id="Fill-16" fill="#FFFFFE"></path>
                        <path d="M0.29,12.671 C0.538,12.335 0.735,11.962 0.87,11.559 C1.005,11.156 1.078,10.727 1.078,10.274 C1.078,9.824 1.005,9.395 0.869,8.991 C0.734,8.59 0.537,8.215 0.288,7.88 C-0.05,7.423 0.047,6.778 0.502,6.44 C0.958,6.101 1.601,6.196 1.94,6.652 C2.316,7.158 2.615,7.724 2.819,8.335 C3.025,8.946 3.136,9.599 3.136,10.274 C3.136,10.952 3.025,11.606 2.819,12.215 C2.615,12.826 2.316,13.392 1.942,13.898 C1.603,14.354 0.96,14.45 0.504,14.111 C0.048,13.772 -0.05,13.128 0.29,12.671" id="Fill-11" fill="#FFFFFE"></path>
                        <path d="M3.815,14.591 C4.589,13.335 5.034,11.861 5.034,10.274 C5.034,8.69 4.589,7.216 3.815,5.96 C3.517,5.476 3.669,4.841 4.152,4.542 C4.636,4.244 5.269,4.395 5.567,4.879 C6.534,6.446 7.093,8.3 7.09200134,10.274 C7.093,12.251 6.534,14.103 5.567,15.672 C5.269,16.155 4.636,16.306 4.152,16.007 C3.669,15.709 3.518,15.074 3.815,14.591" id="Fill-13" fill="#FFFFFE"></path>
                        <path d="M7.553,16.547 C8.628,14.705 9.243,12.565 9.244,10.274 C9.243,7.983 8.628,5.846 7.552,4.003 C7.266,3.512 7.432,2.883 7.921,2.595 C8.412,2.307 9.042,2.473 9.329,2.964 C10.582,5.109 11.302,7.613 11.301001,10.274 C11.302,12.938 10.582,15.44 9.33,17.586 C9.043,18.076 8.413,18.242 7.922,17.956 C7.432,17.668 7.266,17.038 7.553,16.547" id="Fill-14" fill="#FFFFFE"></path>
                    </g>
                    <g id="BitPay-Logo" stroke-width="1" fill="none" transform="translate(12.000000, 114.000000)">
                        <path d="M69.426,6.539 L65.846,6.539 L63.763,15.31 L63.767,15.31 L63.48,16.516 C63.28,16.572 63.082,16.622 62.884,16.662 C62.514,16.736 62.131,16.774 61.735,16.774 C61.273,16.774 60.911,16.707 60.647,16.575 C60.384,16.443 60.198,16.258 60.092,16.019 C59.984,15.78 59.943,15.495 59.968,15.165 C59.993,14.836 60.055,14.482 60.153,14.102 L61.241,9.551 L61.957,6.532 L61.958,6.531 L58.3,6.531 L56.644,13.533 C56.446,14.374 56.331,15.174 56.298,15.933 C56.265,16.691 56.38,17.363 56.644,17.948 C56.907,18.533 57.352,18.995 57.978,19.333 C58.604,19.671 59.486,19.841 60.623,19.841 C61.414,19.841 62.098,19.775 62.674,19.643 L62.742,19.626 L62.741,19.633 C62.581,20.355 62.256,20.941 61.735,21.398 C61.214,21.856 60.44,22.084 59.414,22.084 C58.976,22.084 58.578,22.058 58.217,22.008 L57.513,24.976 C57.989,25.037 58.517,25.069 59.102,25.069 C60.191,25.069 61.145,24.944 61.964,24.696 C62.781,24.447 63.482,24.07 64.068,23.565 C64.653,23.059 65.143,22.425 65.535,21.663 C65.928,20.9 66.245,19.998 66.485,18.954 L68.963,8.529 L68.954,8.525 L69.426,6.539" id="Fill-18" fill="#FFFFFE"></path>
                        <path d="M51.864,9.553 C50.194,9.553 49.876,9.553 49.191,9.908 C48.706,10.16 48.304,10.539 47.951,10.981 C47.597,11.423 47.32,11.933 47.12,12.512 C46.919,13.091 46.819,13.693 46.819,14.319 C46.819,15.091 46.947,15.702 47.204,16.152 C47.461,16.602 47.935,16.827 48.625,16.827 C48.995,16.827 49.328,16.755 49.625,16.61 C49.922,16.465 50.239,16.225 50.576,15.887 C50.608,15.485 50.661,15.064 50.733,14.621 C50.806,14.18 50.896,13.77 50.977,13.4 L51.864,9.553 M54.406,14.03 C54.181,14.946 54.117,15.867 54.213,16.791 C54.31,17.715 54.663,19.132 55.008,19.841 L51.543,19.841 C51.119,19.124 51.139,18.788 51.058,18.563 C50.608,18.933 50.11,19.237 49.564,19.479 C49.018,19.72 48.409,19.841 47.734,19.841 C46.931,19.841 46.245,19.699 45.675,19.419 C45.104,19.138 44.639,18.76 44.278,18.285 C43.917,17.812 43.655,17.257 43.495,16.622 C43.335,15.987 43.255,15.309 43.255,14.585 C43.255,13.476 43.451,12.432 43.845,11.451 C44.238,10.471 44.784,9.615 45.482,8.884 C46.181,8.152 47.866,6.54 50.633,6.54 C51.828,6.54 53.434,6.539 56.187,6.539 L54.406,14.03" id="Fill-19" fill="#FFFFFE"></path>
                        <path d="M33.457,16.781 C33.731,16.847 34.071,16.879 34.475,16.879 C35.105,16.879 35.68,16.762 36.197,16.526 C36.714,16.292 37.154,15.965 37.518,15.544 C37.882,15.123 38.165,14.618 38.367,14.027 C38.569,13.437 38.67,12.785 38.67,12.073 C38.67,11.378 38.516,10.787 38.21,10.302 C37.902,9.817 37.363,9.559 36.604,9.555 C36.073,9.553 35.19,9.553 35.19,9.553 L33.457,16.781 Z M42.259,11.807 C42.259,12.987 42.064,14.067 41.677,15.046 C41.289,16.025 40.751,16.871 40.064,17.582 C39.377,18.295 38.553,18.849 37.591,19.245 C36.629,19.642 35.582,19.84 34.451,19.84 C33.901,19.84 33.352,19.791 32.803,19.694 L31.711,24.087 L28.122,24.087 L32.288,6.54 C32.894,6.539 36.099,6.54 37.069,6.54 C37.974,6.54 38.755,6.678 39.409,6.952 C40.064,7.228 40.601,7.604 41.022,8.081 C41.442,8.559 41.753,9.116 41.956,9.756 C42.157,10.395 42.259,11.078 42.259,11.807 L42.259,11.807 Z" id="Fill-20" fill="#FFFFFE"></path>
                        <path d="M25.92,16.775 C25.459,16.775 25.097,16.71 24.833,16.578 C24.569,16.446 24.384,16.261 24.277,16.022 C24.17,15.782 24.129,15.498 24.153,15.168 C24.178,14.838 24.24,14.484 24.339,14.105 L25.426,9.553 L29.504,9.553 L30.245,6.535 L26.142,6.535 L27.082,2.701 L23.251,3.295 L20.829,13.535 C20.632,14.376 20.516,15.177 20.483,15.935 C20.45,16.693 20.565,17.365 20.829,17.951 C21.093,18.536 21.538,18.998 22.164,19.336 C22.79,19.674 23.671,19.843 24.808,19.843 C25.598,19.843 26.282,19.777 26.859,19.646 L27.068,19.596 L27.813,16.474 C27.563,16.559 27.311,16.616 27.069,16.664 C26.699,16.738 26.315,16.775 25.92,16.775" id="Fill-21" fill="#FFFFFE"></path>
                        <polyline id="Fill-22" fill="#FFFFFE" points="16.788 6.532 13.627 19.843 17.207 19.843 20.368 6.532 16.788 6.532"></polyline>
                        <polyline id="Fill-23" fill="#FFFFFE" points="20.739 4.993 21.288 2.681 17.708 2.681 17.159 4.993 20.739 4.993"></polyline>
                        <path d="M5.717,16.872 C6.279,16.872 6.81,16.735 7.308,16.462 C7.806,16.188 8.237,15.822 8.598,15.363 C8.96,14.904 9.246,14.386 9.455,13.807 C9.663,13.228 9.768,12.624 9.768,11.996 C9.768,11.224 9.639,10.62 9.383,10.187 C9.125,9.752 8.591,9.553 7.899,9.553 C7.674,9.553 7.441,9.575 7.08,9.655 C6.718,9.736 6.406,9.903 6.116,10.16 L4.544,16.781 C5.01,16.862 5.171,16.872 5.283,16.872 C5.395,16.872 5.54,16.872 5.717,16.872 Z M8.851,6.542 C9.624,6.542 10.29,6.679 10.853,6.952 C11.416,7.226 11.882,7.596 12.252,8.063 C12.621,8.529 12.894,9.076 13.072,9.703 C13.248,10.331 13.337,11.007 13.337,11.731 C13.337,12.841 13.132,13.891 12.722,14.881 C12.312,15.87 11.754,16.732 11.046,17.463 C10.339,18.195 9.503,18.775 8.538,19.201 C7.574,19.627 6.528,19.841 5.403,19.841 C5.259,19.841 5.006,19.836 4.644,19.828 C4.282,19.82 3.868,19.784 3.402,19.72 C2.935,19.655 2.441,19.559 1.919,19.43 C1.396,19.302 0.902,19.125 0.436,18.9 L4.608,1.353 L8.346,0.774 L6.869,6.992 C7.19,6.847 7.493,6.743 7.815,6.662 C8.137,6.582 8.482,6.542 8.851,6.542 L8.851,6.542 Z" id="Fill-24" fill="#FFFFFE"></path>
                    </g>
                    <path d="M121.487,207.839 L118.486,221.868 L114.857,221.868 L117.859,207.839 L121.487,207.839 Z M136.757,216.898 L138.668,211.629 L139.767,216.898 L136.757,216.898 Z M140.807,221.868 L144.164,221.868 L141.234,207.839 L138.136,207.839 C137.439,207.839 136.851,208.243 136.591,208.868 L131.145,221.868 L134.956,221.868 L135.713,219.774 L140.369,219.774 L140.807,221.868 Z M131.335,217.287 C131.35,213.585 126.214,213.381 126.249,211.727 C126.26,211.223 126.739,210.688 127.788,210.551 C128.309,210.483 129.741,210.431 131.367,211.179 L132.004,208.204 C131.131,207.887 130.007,207.582 128.609,207.582 C125.022,207.582 122.497,209.489 122.475,212.22 C122.453,214.239 124.278,215.366 125.653,216.038 C127.067,216.726 127.542,217.166 127.536,217.781 C127.526,218.723 126.408,219.138 125.364,219.154 C123.54,219.184 122.48,218.662 121.637,218.269 L120.978,221.342 C121.827,221.733 123.391,222.07 125.016,222.088 C128.828,222.088 131.322,220.204 131.335,217.287 L131.335,217.287 Z M116.302,207.839 L110.422,221.868 L106.585,221.868 L103.691,210.671 C103.516,209.982 103.362,209.73 102.828,209.439 C101.957,208.966 100.516,208.522 99.248,208.246 L99.335,207.839 L105.51,207.839 C106.297,207.839 107.005,208.362 107.183,209.269 L108.712,217.388 L112.489,207.839 L116.302,207.839 L116.302,207.839 Z" id="VISA" fill="#FFFFFE"></path>
                    <g id="Prepaid" stroke-width="1" fill="none" transform="translate(117.000000, 229.000000)">
                        <path d="M3.31,3.175 C3.515,2.99 3.616,2.738 3.616,2.419 C3.616,2.227 3.572,2.051 3.484,1.892 C3.396,1.733 3.259,1.605 3.07,1.508 C2.883,1.412 2.648,1.364 2.368,1.364 L1.014,1.364 L1.014,3.453 L2.368,3.453 C2.793,3.453 3.107,3.36 3.31,3.175 Z M3.457,0.997 C3.76,1.135 3.989,1.325 4.145,1.568 C4.302,1.812 4.38,2.093 4.38,2.412 C4.38,2.753 4.303,3.044 4.147,3.285 C3.993,3.525 3.765,3.709 3.465,3.834 C3.164,3.96 2.799,4.023 2.368,4.023 L1.014,4.023 L1.014,6.108 L0.249,6.108 L0.249,0.791 L2.368,0.791 C2.791,0.791 3.153,0.859 3.457,0.997 L3.457,0.997 Z" id="Fill-26" fill="#FFFFFE"></path>
                        <path d="M7.144,2.1 L7.29,2.135 L7.29,2.759 C7.178,2.739 7.058,2.73 6.932,2.73 C6.69,2.73 6.489,2.779 6.327,2.88 C6.166,2.98 6.045,3.119 5.964,3.3 L5.964,6.108 L5.227,6.108 L5.227,2.156 L5.943,2.156 L5.959,2.606 C6.069,2.441 6.209,2.312 6.377,2.221 C6.545,2.129 6.741,2.083 6.968,2.083 L7.144,2.1" id="Fill-27" fill="#FFFFFE"></path>
                        <path d="M10.657,3.72 C10.636,3.41 10.546,3.151 10.387,2.943 C10.228,2.735 9.978,2.631 9.637,2.631 C9.343,2.631 9.098,2.731 8.902,2.929 C8.707,3.127 8.584,3.407 8.534,3.771 L10.657,3.771 L10.657,3.72 Z M11.393,4.318 L8.511,4.318 C8.518,4.565 8.574,4.787 8.676,4.986 C8.778,5.186 8.924,5.344 9.111,5.459 C9.299,5.575 9.518,5.633 9.77,5.633 C10.017,5.633 10.23,5.587 10.411,5.494 C10.591,5.401 10.751,5.269 10.892,5.096 L11.338,5.417 C11.181,5.642 10.971,5.824 10.708,5.967 C10.445,6.109 10.12,6.181 9.731,6.181 C9.343,6.181 9,6.099 8.704,5.936 C8.407,5.773 8.178,5.546 8.016,5.257 C7.855,4.967 7.774,4.639 7.774,4.271 L7.774,4.113 C7.774,3.702 7.861,3.343 8.034,3.034 C8.208,2.727 8.436,2.491 8.722,2.328 C9.006,2.165 9.311,2.083 9.637,2.083 C10.033,2.083 10.362,2.166 10.623,2.33 C10.885,2.494 11.078,2.722 11.204,3.011 C11.33,3.301 11.393,3.636 11.393,4.015 L11.393,4.318 L11.393,4.318 Z" id="Fill-28" fill="#FFFFFE"></path>
                        <path d="M15.106,4.099 C15.106,3.826 15.065,3.581 14.982,3.363 C14.899,3.146 14.772,2.972 14.6,2.843 C14.429,2.714 14.215,2.65 13.961,2.65 C13.729,2.65 13.532,2.698 13.37,2.796 C13.207,2.893 13.076,3.025 12.976,3.193 L12.976,5.096 C13.194,5.454 13.524,5.633 13.969,5.633 C14.221,5.633 14.432,5.567 14.602,5.438 C14.773,5.308 14.899,5.133 14.982,4.913 C15.065,4.694 15.106,4.448 15.106,4.176 L15.106,4.099 Z M15.083,2.334 C15.332,2.5 15.521,2.735 15.649,3.038 C15.778,3.342 15.843,3.695 15.843,4.099 L15.843,4.176 C15.843,4.563 15.777,4.908 15.647,5.211 C15.517,5.514 15.329,5.751 15.081,5.923 C14.833,6.095 14.537,6.181 14.192,6.181 C13.679,6.181 13.272,6.029 12.976,5.728 L12.976,7.627 L12.24,7.627 L12.24,2.156 L12.909,2.156 L12.948,2.587 C13.245,2.251 13.656,2.083 14.181,2.083 C14.533,2.083 14.833,2.167 15.083,2.334 L15.083,2.334 Z" id="Fill-29" fill="#FFFFFE"></path>
                        <path d="M18.664,5.514 C18.809,5.459 18.935,5.387 19.04,5.297 C19.145,5.207 19.225,5.109 19.28,5.005 L19.28,4.187 L18.682,4.187 C18.262,4.187 17.94,4.248 17.717,4.371 C17.494,4.494 17.383,4.676 17.383,4.917 C17.383,5.046 17.414,5.162 17.476,5.264 C17.54,5.366 17.632,5.447 17.753,5.507 C17.873,5.567 18.02,5.597 18.193,5.597 C18.361,5.597 18.518,5.568 18.664,5.514 Z M20.056,5.675 C20.082,5.822 20.119,5.946 20.166,6.049 L20.166,6.108 L19.398,6.108 C19.353,6.013 19.319,5.875 19.296,5.694 C19.149,5.841 18.973,5.958 18.766,6.047 C18.56,6.136 18.334,6.181 18.087,6.181 C17.804,6.181 17.553,6.129 17.333,6.025 C17.114,5.922 16.944,5.781 16.825,5.604 C16.706,5.426 16.646,5.229 16.646,5.012 C16.646,4.733 16.724,4.495 16.88,4.3 C17.036,4.106 17.259,3.958 17.546,3.86 C17.833,3.762 18.173,3.712 18.563,3.712 L19.28,3.712 L19.28,3.398 C19.28,3.157 19.203,2.968 19.05,2.83 C18.896,2.692 18.675,2.624 18.387,2.624 C18.211,2.624 18.053,2.652 17.914,2.71 C17.774,2.767 17.666,2.844 17.589,2.94 C17.512,3.036 17.473,3.14 17.473,3.252 L16.736,3.252 C16.736,3.06 16.808,2.873 16.949,2.693 C17.091,2.513 17.29,2.366 17.548,2.253 C17.805,2.14 18.099,2.083 18.43,2.083 C18.745,2.083 19.021,2.133 19.259,2.232 C19.496,2.33 19.682,2.479 19.815,2.677 C19.949,2.875 20.016,3.118 20.016,3.405 L20.016,5.246 C20.016,5.385 20.029,5.527 20.056,5.675 L20.056,5.675 Z" id="Fill-30" fill="#FFFFFE"></path>
                        <path d="M21.222,6.108 L21.958,6.108 L21.958,2.156 L21.222,2.156 L21.222,6.108 Z M21.917,0.827 C21.994,0.9 22.033,0.993 22.033,1.105 C22.033,1.214 21.994,1.305 21.917,1.377 C21.839,1.448 21.732,1.484 21.596,1.484 C21.459,1.484 21.353,1.448 21.278,1.377 C21.204,1.305 21.167,1.214 21.167,1.105 C21.167,0.993 21.204,0.9 21.278,0.827 C21.353,0.754 21.459,0.718 21.596,0.718 C21.732,0.718 21.839,0.754 21.917,0.827 L21.917,0.827 Z" id="Fill-31" fill="#FFFFFE"></path>
                        <path d="M25.805,5.037 L25.805,3.208 C25.705,3.035 25.573,2.9 25.409,2.799 C25.245,2.699 25.045,2.65 24.808,2.65 C24.555,2.65 24.342,2.713 24.173,2.841 C24.004,2.969 23.879,3.143 23.799,3.361 C23.719,3.58 23.679,3.826 23.679,4.099 L23.679,4.176 C23.679,4.448 23.719,4.692 23.799,4.908 C23.879,5.123 24.003,5.294 24.171,5.421 C24.339,5.548 24.549,5.61 24.801,5.61 C25.255,5.61 25.59,5.42 25.805,5.037 Z M26.541,0.499 L26.541,6.108 L25.868,6.108 L25.833,5.688 C25.544,6.017 25.14,6.181 24.62,6.181 C24.292,6.181 24,6.094 23.746,5.921 C23.491,5.748 23.294,5.51 23.153,5.205 C23.013,4.901 22.942,4.558 22.942,4.176 L22.942,4.099 C22.942,3.7 23.012,3.348 23.151,3.044 C23.29,2.739 23.487,2.503 23.742,2.335 C23.996,2.167 24.292,2.083 24.628,2.083 C25.129,2.083 25.521,2.238 25.805,2.547 L25.805,0.499 L26.541,0.499 L26.541,0.499 Z" id="Fill-32" fill="#FFFFFE"></path>
                    </g>
                    <g id="Platinum" stroke-width="1" fill="none" transform="translate(89.000000, 11.000000)">
                        <path d="M3.415,3.041 C3.623,2.853 3.727,2.595 3.727,2.27 C3.727,2.073 3.682,1.894 3.592,1.731 C3.502,1.568 3.361,1.438 3.17,1.339 C2.978,1.241 2.739,1.191 2.452,1.191 L1.069,1.191 L1.069,3.324 L2.452,3.324 C2.887,3.324 3.207,3.231 3.415,3.041 Z M3.563,0.817 C3.873,0.958 4.108,1.152 4.267,1.4 C4.427,1.649 4.507,1.937 4.507,2.262 C4.507,2.61 4.428,2.907 4.269,3.153 C4.111,3.399 3.879,3.586 3.572,3.714 C3.265,3.842 2.892,3.906 2.452,3.906 L1.069,3.906 L1.069,6.035 L0.289,6.035 L0.289,0.606 L2.452,0.606 C2.884,0.606 3.254,0.677 3.563,0.817 L3.563,0.817 Z" id="Fill-33" fill="#FFFFFE"></path>
                        <polyline id="Fill-34" fill="#FFFFFE" points="11.265 5.453 11.265 6.035 7.711 6.035 7.711 0.606 8.491 0.606 8.491 5.453 11.265 5.453"></polyline>
                        <path d="M17.448,4.029 L16.456,1.494 L15.467,4.029 L17.448,4.029 Z M17.678,4.614 L15.237,4.614 L14.683,6.035 L13.879,6.035 L16.114,0.606 L16.798,0.606 L19.037,6.035 L18.236,6.035 L17.678,4.614 L17.678,4.614 Z" id="Fill-35" fill="#FFFFFE"></path>
                        <polyline id="Fill-36" fill="#FFFFFE" points="25.606 1.191 23.728 1.191 23.728 6.035 22.957 6.035 22.957 1.191 21.083 1.191 21.083 0.606 25.606 0.606 25.606 1.191"></polyline>
                        <polygon id="Fill-37" fill="#FFFFFE" points="28.754 6.035 29.534 6.035 29.534 0.606 28.754 0.606"></polygon>
                        <polyline id="Fill-38" fill="#FFFFFE" points="36.883 6.035 33.944 1.837 33.944 6.035 33.164 6.035 33.164 0.606 33.944 0.606 36.895 4.816 36.895 0.606 37.667 0.606 37.667 6.035 36.883 6.035"></polyline>
                        <path d="M45.387,4.279 C45.387,4.672 45.29,5.006 45.099,5.282 C44.907,5.558 44.649,5.765 44.327,5.902 C44.004,6.041 43.648,6.109 43.26,6.109 C42.851,6.109 42.489,6.041 42.172,5.902 C41.854,5.765 41.603,5.559 41.42,5.284 C41.236,5.009 41.144,4.674 41.144,4.279 L41.144,0.606 L41.917,0.606 L41.917,4.279 C41.917,4.691 42.036,5.003 42.276,5.213 C42.516,5.423 42.844,5.528 43.26,5.528 C43.678,5.528 44.006,5.423 44.244,5.213 C44.483,5.003 44.602,4.691 44.602,4.279 L44.602,0.606 L45.387,0.606 L45.387,4.279" id="Fill-39" fill="#FFFFFE"></path>
                        <polyline id="Fill-40" fill="#FFFFFE" points="54.653 6.035 53.878 6.035 53.878 3.914 53.95 1.65 52.032 6.035 51.441 6.035 49.527 1.654 49.6 3.914 49.6 6.035 48.824 6.035 48.824 0.606 49.829 0.606 51.738 5.043 53.648 0.606 54.653 0.606 54.653 6.035"></polyline>
                    </g>
                    <g id="Chip-01" stroke-width="1" fill="none" transform="translate(75.000000, 30.000000)">
                        <path d="M21.2442419,31 L2.75603856,31 C1.2337248,31 0,29.7878958 0,28.2925355 L0,2.70746449 C0,1.21210424 1.2337248,0 2.75603856,0 L21.2442419,0 C22.7659947,0 24,1.21210424 24,2.70746449 L24,28.2925355 C24,29.7878958 22.7659947,31 21.2442419,31" id="Fill-1" fill="#D2D2CC"></path>
                        <path d="M21.0697931,30.9377257 L2.88441379,30.9377257 C1.38703448,30.9377257 0.173517241,29.7309204 0.173517241,28.2420973 L0.173517241,2.76887611 C0.173517241,1.2800531 1.38703448,0.0732477876 2.88441379,0.0732477876 L21.0697931,0.0732477876 C22.5666207,0.0732477876 23.7804138,1.2800531 23.7804138,2.76887611 L23.7804138,28.2420973 C23.7804138,29.7309204 22.5666207,30.9377257 21.0697931,30.9377257 Z" id="Stroke-2" stroke="#0A0B09" stroke-width="0.4"></path>
                        <path d="M8.82675862,11.4379027 C9.08524138,11.498531 9.34427586,11.5865929 9.60386207,11.6839823 C10.3823448,11.9769735 11.1682759,12.3574779 11.9771034,12.3574779 C12.7671724,12.3574779 13.5566897,11.9418584 14.288,11.690292 C14.2990345,11.6867257 14.3103448,11.6839823 14.3213793,11.6801416 C14.9682759,11.4625929 15.6311724,11.3871504 16.2907586,11.4192478 L16.2907586,0.0732477876 L7.66289655,0.0732477876 L7.66289655,11.347646 C8.06344828,11.3267965 8.45655172,11.3506637 8.82675862,11.4379027 Z M14.350069,20.9996195 C13.5224828,20.9088142 12.7853793,20.3263982 11.9768276,20.3263982 C11.1867586,20.3263982 10.3969655,20.7417434 9.66593103,20.9933097 C9.65489655,20.9971504 9.64441379,21.0023628 9.63255172,21.0034602 C8.94372414,21.0676549 8.28496552,21.0319912 7.66289655,20.9197876 L7.66289655,30.9377257 L16.2907586,30.9377257 L16.2907586,20.9417345 C15.6772414,21.0468053 15.0281379,21.0742389 14.350069,20.9996195 Z M7.66289655,11.347646 C6.57434483,11.4049823 5.4297931,11.8057876 4.53186207,12.2584425 C3.25875862,12.900115 2.12082759,13.9944425 2.12082759,15.5054867 C2.12082759,15.7896991 2.15834483,16.0689735 2.22868966,16.3419381 C2.71310345,18.2192212 4.78868966,20.4018407 7.66289655,20.9197876 L7.66289655,11.347646 Z M16.2907586,20.9417345 C19.1624828,20.4501239 21.2411034,18.2189469 21.7252414,16.3419381 C21.7953103,16.0686991 21.8331034,15.7896991 21.8331034,15.5054867 C21.8328276,14.0654956 20.8137931,13.0227434 19.5986207,12.3898496 C18.5691034,11.8537965 17.4344828,11.474115 16.2907586,11.4192478 L16.2907586,20.9417345 Z" id="Stroke-4" stroke="#0A0B09" stroke-width="0.35"></path>
                    </g>
                </g>
            </g>
        </g>
    </g>
</svg>