<svg width="45" height="45" viewBox="0 0 45 45" fill="none" xmlns="http://www.w3.org/2000/svg">
<ellipse cx="22.5" cy="22.0109" rx="22.5" ry="22.0109" transform="rotate(-180 22.5 22.0109)" fill="#214497"/>
<mask id="mask0" style="mask-type:alpha" maskUnits="userSpaceOnUse" x="0" y="0" width="45" height="45">
<ellipse cx="22.5" cy="22.0109" rx="22.5" ry="22.0109" transform="rotate(-180 22.5 22.0109)" fill="white"/>
</mask>
<g mask="url(#mask0)">
<ellipse cx="31" cy="32.2827" rx="24" ry="23.4783" transform="rotate(-180 31 32.2827)" fill="#1A2C57"/>
<mask id="mask1" style="mask-type:alpha" maskUnits="userSpaceOnUse" x="7" y="8" width="48" height="48">
<ellipse cx="31" cy="32.2827" rx="24" ry="23.4783" transform="rotate(-180 31 32.2827)" fill="white"/>
</mask>
<g mask="url(#mask1)">
</g>
<g clip-path="url(#clip0)">
<path d="M26.2123 5.30225H5.2873C3.36453 5.30225 1.7998 6.86697 1.7998 8.78975V23.9022C1.7998 25.825 3.36453 27.3897 5.2873 27.3897H13.4248V25.0647H5.2873C4.6456 25.0647 4.1248 24.5428 4.1248 23.9022V18.0897H29.6998V8.78975C29.6998 6.86697 28.1351 5.30225 26.2123 5.30225ZM4.1248 11.1147V8.78975C4.1248 8.14921 4.6456 7.62725 5.2873 7.62725H26.2123C26.854 7.62725 27.3748 8.14921 27.3748 8.78975V11.1147H4.1248Z" fill="#4F6EF7"/>
<path d="M22.7247 20.4148C20.0719 20.4148 17.7574 22.2074 17.0947 24.7742L19.3477 25.3543C19.7441 23.8151 21.1321 22.7398 22.7247 22.7398C23.664 22.7398 24.5533 23.1246 25.202 23.7779L23.3327 25.1357L28.2954 26.2273L28.793 21.1693L27.0887 22.4073C25.996 21.1634 24.4115 20.4148 22.7247 20.4148Z" fill="#BADEFC"/>
<path d="M22.7245 30.8771C21.7852 30.8771 20.8959 30.4924 20.2472 29.839L22.1165 28.4812L17.1538 27.3896L16.6562 32.4477L18.3605 31.2096C19.4532 32.4535 21.0377 33.2021 22.7245 33.2021C25.3773 33.2021 27.6919 31.4096 28.3545 28.8428L26.1016 28.2627C25.7052 29.8018 24.3171 30.8771 22.7245 30.8771Z" fill="#BADEFC"/>
</g>
</g>
<defs>
<clipPath id="clip0">
<rect width="27.9" height="27.9" fill="white" transform="translate(1.7998 5.30225)"/>
</clipPath>
</defs>
</svg>
