<svg width="45" height="45" viewBox="0 0 45 45" fill="none" xmlns="http://www.w3.org/2000/svg">
<ellipse cx="22.5" cy="22.0109" rx="22.5" ry="22.0109" transform="rotate(-180 22.5 22.0109)" fill="#214497"/>
<mask id="mask0" style="mask-type:alpha" maskUnits="userSpaceOnUse" x="0" y="0" width="45" height="45">
<ellipse cx="22.5" cy="22.0109" rx="22.5" ry="22.0109" transform="rotate(-180 22.5 22.0109)" fill="white"/>
</mask>
<g mask="url(#mask0)">
<ellipse cx="31" cy="32.2825" rx="24" ry="23.4783" transform="rotate(-180 31 32.2825)" fill="#1A2C57"/>
<mask id="mask1" style="mask-type:alpha" maskUnits="userSpaceOnUse" x="7" y="8" width="48" height="48">
<ellipse cx="31" cy="32.2825" rx="24" ry="23.4783" transform="rotate(-180 31 32.2825)" fill="white"/>
</mask>
<g mask="url(#mask1)">
</g>
<path fill-rule="evenodd" clip-rule="evenodd" d="M0 20C0 8.97247 8.9725 0 20 0C31.0275 0 40 8.97247 40 20C40 31.0275 31.0275 40 20 40C8.9725 40 0 31.0275 0 20ZM8.06375 32.7612C11.1937 35.6912 15.385 37.5 20 37.5C29.65 37.5 37.5 29.65 37.5 20C37.5 15.2587 35.5975 10.9575 32.525 7.80377C30.3175 8.97626 28.3575 10 26.6287 10C26.3013 10 25.9813 9.96252 25.67 9.88373C23.515 9.33374 22.8875 7.80627 22.335 6.45752C22.0925 5.86877 21.8425 5.25873 21.4563 4.67126C21.16 4.21997 20.445 3.71997 19.755 3.23627C19.4325 3.01251 19.1237 2.78625 18.83 2.56C15.5662 2.77753 12.545 3.88123 10.0112 5.65125C10.3838 6.02753 10.7537 6.47498 11.0775 7.01501C11.9062 8.40253 13.5488 13.0262 11.5187 15.6512C10.5513 16.9012 8.9075 17.7062 7.45625 18.415C6.77375 18.7487 4.96125 19.635 4.96125 20C4.96125 20.585 5.9075 21.6775 6.6675 22.5563C7.185 23.1537 7.72125 23.7725 8.155 24.4125C9.8375 26.8962 9.85125 29.7938 8.19375 32.5725C8.15625 32.6362 8.105 32.6975 8.06375 32.7612Z" fill="#4F6EF7"/>
<path fill-rule="evenodd" clip-rule="evenodd" d="M25.9898 15.1763C23.596 15.1763 21.2585 16.2038 19.8885 17.8575C18.9248 19.02 18.5373 20.41 18.796 21.7738C19.391 24.9088 19.2785 26.8263 19.1973 28.2275C19.0923 30.0375 19.0098 31.4675 20.951 32.9313C21.541 33.375 22.241 33.6013 23.031 33.6013C24.756 33.6013 26.8873 32.4438 28.8773 30.4275C30.9985 28.2775 33.2485 24.81 33.2048 21.5238C33.1585 18.0238 29.921 15.1763 25.9898 15.1763Z" fill="#4F6EF7"/>
</g>
</svg>
