<svg width="45" height="45" viewBox="0 0 45 45" fill="none" xmlns="http://www.w3.org/2000/svg">
<ellipse cx="22.5" cy="22.0109" rx="22.5" ry="22.0109" transform="rotate(-180 22.5 22.0109)" fill="#214497"/>
<mask id="mask0" style="mask-type:alpha" maskUnits="userSpaceOnUse" x="0" y="0" width="45" height="45">
<ellipse cx="22.5" cy="22.0109" rx="22.5" ry="22.0109" transform="rotate(-180 22.5 22.0109)" fill="white"/>
</mask>
<g mask="url(#mask0)">
<ellipse cx="31" cy="32.2825" rx="24" ry="23.4783" transform="rotate(-180 31 32.2825)" fill="#1A2C57"/>
<mask id="mask1" style="mask-type:alpha" maskUnits="userSpaceOnUse" x="7" y="8" width="48" height="48">
<ellipse cx="31" cy="32.2825" rx="24" ry="23.4783" transform="rotate(-180 31 32.2825)" fill="white"/>
</mask>
<g mask="url(#mask1)">
</g>
<path fill-rule="evenodd" clip-rule="evenodd" d="M19.6202 10.2H18.3602V7.66275C18.4015 3.47465 15.0814 0.0448242 10.9426 0H10.7359C6.62629 0.00532971 3.28503 3.35398 3.24019 7.51229V10.2H1.98019C-0.107441 10.2 -1.7998 11.9125 -1.7998 14.025V26.775C-1.7998 28.8875 -0.107441 30.6 1.98019 30.6H19.6202C21.7078 30.6 23.4002 28.8875 23.4002 26.775V14.025C23.4002 11.9125 21.7078 10.2 19.6202 10.2ZM6.35314 9.70244H15.9881V7.21465C16.0038 5.90924 15.516 4.65101 14.6324 3.71754C13.7487 2.78411 12.5417 2.25214 11.2778 2.23903H11.1104C8.50261 2.24226 6.38215 4.41072 6.35314 7.10391V9.70244ZM12.0354 22.7309V25.3756H9.56502V22.7309C7.8635 22.1412 6.84284 20.4354 7.14802 18.6917C7.45321 16.9478 8.99547 15.6732 10.8002 15.6732C12.6049 15.6732 14.1472 16.9478 14.4524 18.6917C14.7575 20.4354 13.7369 22.1412 12.0354 22.7309Z" fill="#4F6EF7"/>
</g>
</svg>
