<svg width="45" height="45" viewBox="0 0 45 45" fill="none" xmlns="http://www.w3.org/2000/svg">
<ellipse cx="22.5" cy="22.0109" rx="22.5" ry="22.0109" transform="rotate(-180 22.5 22.0109)" fill="#214497"/>
<mask id="mask0" style="mask-type:alpha" maskUnits="userSpaceOnUse" x="0" y="0" width="45" height="45">
<ellipse cx="22.5" cy="22.0109" rx="22.5" ry="22.0109" transform="rotate(-180 22.5 22.0109)" fill="white"/>
</mask>
<g mask="url(#mask0)">
<ellipse cx="31" cy="32.2825" rx="24" ry="23.4783" transform="rotate(-180 31 32.2825)" fill="#1A2C57"/>
<mask id="mask1" style="mask-type:alpha" maskUnits="userSpaceOnUse" x="7" y="8" width="48" height="48">
<ellipse cx="31" cy="32.2825" rx="24" ry="23.4783" transform="rotate(-180 31 32.2825)" fill="white"/>
</mask>
<g mask="url(#mask1)">
</g>
<path fill-rule="evenodd" clip-rule="evenodd" d="M8.66191 6.4689C8.66191 5.41224 7.80607 4.5564 6.74941 4.5564C5.69276 4.5564 4.83691 5.41224 4.83691 6.4689V8.3814H8.66191V6.4689Z" fill="#4F6EF7"/>
<path fill-rule="evenodd" clip-rule="evenodd" d="M13.4432 6.4689C13.4432 5.41224 12.5873 4.5564 11.5307 4.5564C10.474 4.5564 9.61816 5.41224 9.61816 6.4689V8.3814H13.4432V6.4689Z" fill="#4F6EF7"/>
<path fill-rule="evenodd" clip-rule="evenodd" d="M18.2244 5.5126C18.2244 4.45594 17.3686 3.6001 16.3119 3.6001C15.2553 3.6001 14.3994 4.45594 14.3994 5.5126V8.38135H18.2244V5.5126Z" fill="#4F6EF7"/>
<path fill-rule="evenodd" clip-rule="evenodd" d="M23.0057 6.4689C23.0057 5.41224 22.1498 4.5564 21.0932 4.5564C20.0365 4.5564 19.1807 5.41224 19.1807 6.4689V8.3814H23.0057V6.4689Z" fill="#4F6EF7"/>
<ellipse cx="14.4" cy="16.9876" rx="2.86875" ry="2.86875" fill="#4F6EF7"/>
<path fill-rule="evenodd" clip-rule="evenodd" d="M0.0558593 9.33765H28.7434C29.2722 9.33765 29.6996 9.76604 29.6996 10.2939V23.6814C29.6996 24.2092 29.2722 24.6376 28.7434 24.6376H24.8945C24.643 29.9592 20.2614 34.2001 14.8777 34.2001C9.49405 34.2001 5.11251 29.9592 4.86102 24.6376H0.0558593C-0.472947 24.6376 -0.900391 24.2092 -0.900391 23.6814V10.2939C-0.900391 9.76604 -0.472947 9.33765 0.0558593 9.33765ZM24.9184 22.7251H27.7871V11.2501H1.01211V22.7251H14.0984C13.648 24.9427 14.1299 26.2814 14.1299 26.2814C14.1299 26.2814 14.7878 24.1002 16.7654 22.7251C17.7417 22.1237 18.9246 21.7689 20.1371 21.7689V18.9001C20.1371 16.26 22.2782 14.1189 24.9184 14.1189V22.7251Z" fill="#4F6EF7"/>
</g>
</svg>
