<svg xmlns="http://www.w3.org/2000/svg" xmlns:xlink="http://www.w3.org/1999/xlink" height="28.662679471327692" width="46.856186776760296">
    <g opacity="1">
        <g opacity="1">
            <g opacity="1">
                <path fill="rgb(255,95,0)" fill-opacity="1" opacity="1" fill-rule="evenodd" d="M22.804039605979284 3.06446002463055C26.204245040561773 5.780943291150817 28.189529064471664 9.933870354407933 28.189529064471664 14.330125114208723C28.189529064471664 18.6164735050145 26.302268439242326 22.671508504293435 23.05639312401213 25.389379269118077L22.804120347066473 25.594917632077184L22.799170755495894 25.595747766630815L22.551498475252302 25.39346065090948C19.30324825444969 22.676817969556403 17.416126789032358 18.61959328550408 17.42062259713502 14.332115162801285C17.417215317373277 9.936098402093306 19.402349914863102 5.782619118950107 22.804039605975756 3.0684401218169146L22.798345823567498 3.064235640174445L22.804039605979284 3.06446002463055Z"/>
            </g>
            <g opacity="1">
                <path fill="rgb(235,0,27)" fill-opacity="1" opacity="1" fill-rule="evenodd" d="M17.420622597138543 14.332115162822083C17.417215317376805 9.936098402114107 19.40234991486665 5.782619118970908 22.804039605979337 3.0684401218377166C17.025104061601656 -1.548452006190012 8.726320854984657 -0.8759617424960576 3.7398517949913463 4.613302828686118C-1.2466172650019622 10.102567399868295 -1.2466172650019671 18.565643022963464 3.7398517949913352 24.05490759414565C8.726320854984637 29.54417216532783 17.025104061601645 30.2166624290218 22.804039605979327 25.59977030099407C19.401267381064724 22.88472939095618 17.416011511905044 18.729528622004437 17.420622597138543 14.332115162822083Z"/>
            </g>
            <g opacity="1">
                <path fill="rgb(247,158,27)" fill-opacity="1" opacity="1" fill-rule="evenodd" d="M44.651651789155885 23.152570152735958L44.651651789155885 25.559975566155458L44.441726075438424 25.559975566155458L44.441726075438424 23.152570152735958L43.99317523399077 23.152570152735958L43.99317523399077 22.654504619187776L45.1288320460455 22.654504619187776L45.1288320460455 23.152570152735958L44.651651789155885 23.152570152735958ZM46.856186776757696 22.654504619187776L46.856186776757696 25.559975566155458L46.61759664831289 25.559975566155458L46.61759664831289 23.36012405876202L46.24541424756739 25.248680174291014L45.98774950858974 25.248680174291014L45.61553210855885 23.36012405876202L45.61553210855885 25.559975566155458L45.36742217449031 25.559975566155458L45.36742217449031 22.654504619187776L45.710975159793854 22.654504619187776L46.11178697598132 24.729830876400506L46.51263379145416 22.654504619187776L46.856186776757696 22.654504619187776Z"/>
            </g>
            <g opacity="1">
                <path fill="rgb(247,158,27)" fill-opacity="1" opacity="1" fill-rule="evenodd" d="M45.61015166161533 14.332115162822022C45.61002586315533 19.818034512006392 42.52865279715384 24.822318153188956 37.6747034291261 27.21962762064584C32.82075406109835 29.616937088102727 27.046403118879446 28.98639313731131 22.804039605980506 25.59579020380639C26.204245040563062 22.879306937286117 28.18952906447299 18.726379874029 28.18952906447299 14.330125114228204C28.18952906447299 9.933870354427413 26.204245040563062 5.780943291170295 22.804039605980506 3.0644600246500273C27.046403118879446 -0.3261429088548931 32.82075406109835 -0.9566868596463077 37.6747034291261 1.4406226078105768C42.52865279715384 3.837932075267462 45.61002586315533 8.842215716450022 45.61015166161533 14.328135065634394L45.61015166161533 14.332115162822022Z"/>
            </g>
        </g>
    </g>
</svg>
