<svg xmlns="http://www.w3.org/2000/svg" width="53" height="17.403" viewBox="0 0 53 17.403">
    <path fill="rgb(255,255,254)" fill-rule="evenodd" d="M37.9447592 11.64415593c.01122546-2.65799542-2.22694386-3.8133365-4.01756742-4.7376504-1.20225263-.62059887-2.2027548-1.13705445-2.1852286-1.93425512.01293341-.60397794.59805741-1.24586897 1.87711994-1.41027969.63534284-.08157166 2.38210262-.14419282 4.36549024.7536628l.77662067-3.56921296C37.69619979.36573268 36.3250704 0 34.62041815 0c-4.37513448 0-7.45522525 2.28817089-7.48109812 5.56449594-.0276442 2.42287639 2.19822238 3.77453021 3.87598784 4.580325 1.72418213.82525225 2.30372961 1.35364544 2.29637271 2.09133911-.01141255 1.1301019-1.37594548 1.62781217-2.64866502 1.64751104-2.159917.0336281-3.43996628-.55436866-4.45476884-1.02052694-.03110237-.0142672-.0619573-.02846197-.09257986-.04248776l-.80223402 3.68796141c1.0343083.46751017 2.94313413.87341309 4.9237335.89436727 4.6498142 0 7.6923721-2.26022794 7.70759286-5.75882914zm-24.46921801 5.75882914L20.56716418.79104477H15.9688181L11.413859 12.09802657 9.57060857 2.48451984C9.35518538 1.4112574 8.501272.79104478 7.5520599.79104478H.10457631L0 1.27363085c1.5290206.32623838 3.26694335.85214507 4.3177217 1.41253685.64476075.34396977.82883413.64262732 1.0409953 1.45932167l3.48938847 13.2574957h4.62743572zM25.31343284.79104477l-3.22267521 16.6119403h-3.89672778L21.41715166.79104477h3.89628118zM53 17.40298508h-3.87581885l-.5046447-2.48063318h-5.37582979l-.87388383 2.48063318h-4.39967358l6.2864438-15.39316934c.30154237-.73914212.98000062-1.21877095 1.78354428-1.21877095h3.5778795L53 17.40298508zm-8.70149254-7.11940298l2.51050135-5.53731343 1.44472253 5.53731343h-3.95522388z"/>
</svg>
