<svg width="40" height="40" viewBox="0 0 40 40" fill="none" xmlns="http://www.w3.org/2000/svg">
<path fill-rule="evenodd" clip-rule="evenodd" d="M35.125 20.5C35.125 28.5772 28.5772 35.125 20.5 35.125C12.4228 35.125 5.875 28.5772 5.875 20.5C5.875 12.4228 12.4228 5.875 20.5 5.875C28.5772 5.875 35.125 12.4228 35.125 20.5ZM36.75 20.5C36.75 29.4746 29.4746 36.75 20.5 36.75C11.5254 36.75 4.25 29.4746 4.25 20.5C4.25 11.5254 11.5254 4.25 20.5 4.25C29.4746 4.25 36.75 11.5254 36.75 20.5ZM28.9025 13.604C28.1475 12.9238 27.6695 12.8184 27.6695 12.8184L27.5605 12.9394C25.8482 11.4067 24.3146 10.1612 22.892 9.29861L20.6395 11.7988C21.9882 12.7002 23.3937 13.8047 24.8425 15.048L24.1686 15.796C24.1686 15.796 24.4725 15.9655 24.8714 16.2397L11.861 29.6076L14.6754 32.1432L26.619 17.8198C26.9462 18.1988 27.159 18.4903 27.159 18.4903L27.8114 17.7661C29.9623 19.9278 31.6591 22.1778 32.7785 24.2551C33.2379 21.6529 32.1148 18.0979 29.5744 15.0123L29.812 14.7487C29.812 14.7487 29.6575 14.2842 28.9025 13.604ZM22.272 30.7272C22.1086 31.6097 22.6915 32.4575 23.5739 32.6209C24.4564 32.7843 25.3042 32.2015 25.4676 31.319C25.6311 30.4365 25.0482 29.5887 24.1657 29.4253C23.2833 29.2618 22.4354 29.8447 22.272 30.7272ZM30.9189 24.3764L27.0255 22.3657L26.7961 22.81L30.6895 24.8207L30.9189 24.3764ZM13.4675 16.2711C12.6134 16.2711 11.921 15.5788 11.921 14.7247C11.921 13.8706 12.6134 13.1782 13.4675 13.1782C14.3216 13.1782 15.0139 13.8706 15.0139 14.7247C15.0139 15.5788 14.3216 16.2711 13.4675 16.2711ZM13.4675 17.0836C12.1646 17.0836 11.1085 16.0275 11.1085 14.7247C11.1085 13.4218 12.1646 12.3657 13.4675 12.3657C14.7703 12.3657 15.8264 13.4218 15.8264 14.7247C15.8264 16.0275 14.7703 17.0836 13.4675 17.0836ZM30.0867 27.3884L26.0655 29.1293L26.2642 29.5882L30.2854 27.8472L30.0867 27.3884Z" fill="#37A372"/>
</svg>
