<svg width="40" height="40" viewBox="0 0 40 40" fill="none" xmlns="http://www.w3.org/2000/svg">
<path fill-rule="evenodd" clip-rule="evenodd" d="M20 34C27.732 34 34 27.732 34 20C34 12.268 27.732 6 20 6C12.268 6 6 12.268 6 20C6 27.732 12.268 34 20 34ZM20 36C28.8366 36 36 28.8366 36 20C36 11.1634 28.8366 4 20 4C11.1634 4 4 11.1634 4 20C4 28.8366 11.1634 36 20 36Z" fill="#625A7C"/>
<path d="M15 26H17V14H15V26ZM19 30H21V10H19V30ZM11 22H13V18H11V22ZM23 26H25V14H23V26ZM27 18V22H29V18H27Z" fill="#625A7C"/>
</svg>
