<?xml version="1.0" encoding="UTF-8" standalone="no"?>
<!DOCTYPE svg PUBLIC "-//W3C//DTD SVG 1.1//EN" "http://www.w3.org/Graphics/SVG/1.1/DTD/svg11.dtd">
<svg version="1.1" xmlns="http://www.w3.org/2000/svg" xmlns:xlink="http://www.w3.org/1999/xlink" preserveAspectRatio="xMidYMid meet" viewBox="0 0 30 30" width="30" height="30"><defs><path d="M17.62 0.66L18.88 0.95L20.09 1.34L21.25 1.83L22.36 2.42L23.41 3.09L24.39 3.85L25.31 4.69L26.15 5.61L26.91 6.59L27.58 7.64L28.17 8.75L28.66 9.91L29.05 11.12L29.34 12.38L29.51 13.67L29.57 15L29.51 16.33L29.34 17.62L29.05 18.88L28.66 20.09L28.17 21.25L27.58 22.36L26.91 23.41L26.15 24.39L25.31 25.31L24.39 26.15L23.41 26.91L22.36 27.58L21.25 28.17L20.09 28.66L18.88 29.05L17.62 29.34L16.33 29.51L15 29.57L13.67 29.51L12.38 29.34L11.12 29.05L9.91 28.66L8.75 28.17L7.64 27.58L6.59 26.91L5.61 26.15L4.69 25.31L3.85 24.39L3.09 23.41L2.42 22.36L1.83 21.25L1.34 20.09L0.95 18.88L0.66 17.62L0.49 16.33L0.43 15L0.49 13.67L0.66 12.38L0.95 11.12L1.34 9.91L1.83 8.75L2.42 7.64L3.09 6.59L3.85 5.61L4.69 4.69L5.61 3.85L6.59 3.09L7.64 2.42L8.75 1.83L9.91 1.34L11.12 0.95L12.38 0.66L13.67 0.49L15 0.43L16.33 0.49L17.62 0.66ZM12.4 1.53L11.16 1.84L9.97 2.25L8.82 2.77L7.74 3.38L6.72 4.09L5.76 4.89L4.89 5.76L4.09 6.72L3.38 7.74L2.77 8.82L2.25 9.97L1.84 11.16L1.53 12.4L1.35 13.68L1.29 15L1.35 16.32L1.53 17.6L1.84 18.84L2.25 20.03L2.77 21.18L3.38 22.26L4.09 23.28L4.89 24.24L5.76 25.11L6.72 25.91L7.74 26.62L8.82 27.23L9.97 27.75L11.16 28.16L12.4 28.47L13.68 28.65L15 28.71L16.32 28.65L17.6 28.47L18.84 28.16L20.03 27.75L21.18 27.23L22.26 26.62L23.28 25.91L24.24 25.11L25.11 24.24L25.91 23.28L26.62 22.26L27.23 21.18L27.75 20.03L28.16 18.84L28.47 17.6L28.65 16.32L28.71 15L28.65 13.68L28.47 12.4L28.16 11.16L27.75 9.97L27.23 8.82L26.62 7.74L25.91 6.72L25.11 5.76L24.24 4.89L23.28 4.09L22.26 3.38L21.18 2.77L20.03 2.25L18.84 1.84L17.6 1.53L16.32 1.35L15 1.29L13.68 1.35L12.4 1.53Z" id="a1JRLnWQr"></path><path d="M19.46 15.6C19.19 15.86 17.85 17.18 15.43 19.54C15.43 13.22 15.43 9.7 15.43 9C15.43 8.66 15.17 8.31 14.74 8.31C14.31 8.31 14.06 8.57 14.06 9C14.06 9.69 14.06 13.15 14.06 19.37C11.79 17.16 10.54 15.93 10.29 15.69C10.03 15.43 9.6 15.43 9.34 15.69C9.09 15.94 9.09 16.37 9.34 16.63C9.84 17.11 13.82 20.95 14.31 21.43C14.4 21.51 14.57 21.6 14.74 21.6C14.91 21.6 15.09 21.51 15.17 21.43C15.68 20.93 19.72 16.95 20.23 16.46C20.66 16.2 20.66 15.86 20.4 15.6C20.14 15.34 19.71 15.34 19.46 15.6Z" id="a4qMb4SUj"></path></defs><g><g><g><use xlink:href="#a1JRLnWQr" opacity="1" fill="#6cc64d" fill-opacity="1"></use><g><use xlink:href="#a1JRLnWQr" opacity="1" fill-opacity="0" stroke="#000000" stroke-width="1" stroke-opacity="0"></use></g></g><g><use xlink:href="#a4qMb4SUj" opacity="1" fill="#6cc64d" fill-opacity="1"></use><g><use xlink:href="#a4qMb4SUj" opacity="1" fill-opacity="0" stroke="#000000" stroke-width="1" stroke-opacity="0"></use></g></g></g></g></svg>