<svg width="24" height="24" viewBox="0 0 24 24" fill="none" xmlns="http://www.w3.org/2000/svg">
<path fill-rule="evenodd" clip-rule="evenodd" d="M20.5772 11.9998C20.5772 16.9703 16.5478 20.9998 11.5772 20.9998C6.60665 20.9998 2.57721 16.9703 2.57721 11.9998C2.57721 7.02919 6.60665 2.99976 11.5772 2.99976C16.5478 2.99976 20.5772 7.02919 20.5772 11.9998ZM21.5772 11.9998C21.5772 17.5226 17.1001 21.9998 11.5772 21.9998C6.05436 21.9998 1.57721 17.5226 1.57721 11.9998C1.57721 6.47691 6.05436 1.99976 11.5772 1.99976C17.1001 1.99976 21.5772 6.47691 21.5772 11.9998ZM16.748 7.75608C16.2834 7.33749 15.9892 7.27262 15.9892 7.27262L15.9222 7.34708C14.8684 6.40387 13.9247 5.63744 13.0492 5.10659L11.663 6.64515C12.493 7.19987 13.358 7.87958 14.2495 8.64466L13.8348 9.10498C13.8348 9.10498 14.0218 9.20932 14.2673 9.37804L6.2609 17.6044L7.99284 19.1648L15.3427 10.3504C15.5441 10.5836 15.6751 10.763 15.6751 10.763L16.0766 10.3174C17.4002 11.6477 18.4444 13.0323 19.1332 14.3106C19.4159 12.7092 18.7248 10.5216 17.1615 8.62273L17.3077 8.46047C17.3077 8.46047 17.2126 8.17467 16.748 7.75608ZM12.6677 18.2934C12.5671 18.8365 12.9258 19.3582 13.4688 19.4588C14.0119 19.5594 14.5337 19.2006 14.6342 18.6576C14.7348 18.1145 14.3761 17.5928 13.833 17.4922C13.29 17.3917 12.7682 17.7504 12.6677 18.2934ZM17.9888 14.3853L15.5929 13.1479L15.3635 13.5921L17.7594 14.8295L17.9888 14.3853ZM7.24949 9.39738C6.7239 9.39738 6.29781 8.9713 6.29781 8.4457C6.29781 7.9201 6.7239 7.49402 7.24949 7.49402C7.77509 7.49402 8.20117 7.9201 8.20117 8.4457C8.20117 8.9713 7.77509 9.39738 7.24949 9.39738ZM7.24949 9.89738C6.44775 9.89738 5.79781 9.24744 5.79781 8.4457C5.79781 7.64396 6.44775 6.99402 7.24949 6.99402C8.05123 6.99402 8.70117 7.64396 8.70117 8.4457C8.70117 9.24744 8.05123 9.89738 7.24949 9.89738ZM17.4767 16.2388L15.0021 17.3101L15.2008 17.769L17.6754 16.6976L17.4767 16.2388Z" fill="#D7D7D7"/>
</svg>
