<?xml version="1.0" encoding="UTF-8" standalone="no"?><!DOCTYPE svg PUBLIC "-//W3C//DTD SVG 1.1//EN" "http://www.w3.org/Graphics/SVG/1.1/DTD/svg11.dtd"><svg width="100%" height="100%" viewBox="0 0 40 28" version="1.1" xmlns="http://www.w3.org/2000/svg" xmlns:xlink="http://www.w3.org/1999/xlink" xml:space="preserve" style="fill-rule:evenodd;clip-rule:evenodd;stroke-linejoin:round;stroke-miterlimit:1.41421;"><g><g><path d="M39.954,13.243c0,-7.296 -8.944,-13.243 -19.976,-13.243c-11.032,0 -19.976,5.948 -19.976,13.243c0,0.188 -0.002,0.709 -0.002,0.775c0,7.739 7.817,14.007 19.976,14.007c12.232,0 19.978,-6.265 19.978,-14.006c0,-0.27 0,-0.426 0,-0.776Z" style="fill:#060e9f;fill-rule:nonzero;"/><ellipse cx="19.982" cy="13.236" rx="19.208" ry="12.454" style="fill:#ffd100;"/><g><path d="M13.603,9.307c-0.01,0.019 -0.201,0.22 -0.077,0.382c0.303,0.392 1.239,0.617 2.186,0.402c0.564,-0.128 1.287,-0.711 1.986,-1.274c0.759,-0.61 1.512,-1.221 2.267,-1.465c0.802,-0.258 1.315,-0.147 1.654,-0.043c0.372,0.112 0.809,0.36 1.507,0.891c1.314,1.002 6.599,5.677 7.512,6.485c0.736,-0.336 4.004,-1.763 8.445,-2.755c-0.386,-2.4 -1.825,-4.596 -4.01,-6.393c-3.045,1.296 -6.765,1.972 -10.403,0.171c-0.018,-0.007 -1.987,-0.952 -3.93,-0.906c-2.886,0.068 -4.137,1.334 -5.461,2.675l-1.676,1.83Z" style="fill:#fff;fill-rule:nonzero;"/><path d="M30.424,15.193c-0.063,-0.056 -6.214,-5.511 -7.608,-6.573c-0.807,-0.613 -1.255,-0.77 -1.726,-0.831c-0.245,-0.032 -0.584,0.014 -0.821,0.08c-0.648,0.178 -1.496,0.753 -2.248,1.358c-0.779,0.629 -1.515,1.221 -2.197,1.376c-0.87,0.198 -1.934,-0.036 -2.419,-0.369c-0.198,-0.133 -0.335,-0.288 -0.402,-0.446c-0.179,-0.421 0.151,-0.758 0.206,-0.814l1.697,-1.861c0.198,-0.2 0.396,-0.4 0.6,-0.596c-0.548,0.072 -1.054,0.213 -1.547,0.353c-0.615,0.175 -1.207,0.342 -1.806,0.341c-0.249,0 -1.588,-0.222 -1.842,-0.292c-1.537,-0.426 -2.885,-0.841 -4.899,-1.794c-2.413,1.821 -4.027,4.098 -4.493,6.605c0.346,0.093 0.905,0.262 1.14,0.315c5.461,1.231 7.162,2.498 7.47,2.763c0.335,-0.377 0.817,-0.615 1.354,-0.615c0.605,0.001 1.149,0.308 1.481,0.784c0.313,-0.25 0.744,-0.465 1.301,-0.465c0.254,0 0.516,0.048 0.782,0.14c0.616,0.214 0.934,0.63 1.099,1.006c0.206,-0.094 0.461,-0.164 0.76,-0.163c0.294,0 0.6,0.067 0.908,0.202c1.007,0.438 1.164,1.441 1.073,2.196c0.072,-0.008 0.144,-0.011 0.217,-0.011c1.194,0 2.165,0.984 2.165,2.194c0,0.375 -0.094,0.727 -0.259,1.037c0.325,0.185 1.153,0.603 1.881,0.51c0.58,-0.074 0.801,-0.275 0.879,-0.388c0.055,-0.079 0.112,-0.169 0.059,-0.235l-1.541,-1.735c0,0 -0.254,-0.243 -0.17,-0.336c0.087,-0.097 0.244,0.042 0.355,0.135c0.784,0.664 1.741,1.666 1.741,1.666c0.017,0.011 0.08,0.138 0.434,0.202c0.305,0.055 0.844,0.024 1.218,-0.287c0.093,-0.079 0.188,-0.177 0.268,-0.278c-0.007,0.005 -0.012,0.011 -0.018,0.014c0.395,-0.512 -0.044,-1.028 -0.044,-1.028l-1.799,-2.048c0,0 -0.257,-0.241 -0.169,-0.337c0.078,-0.084 0.243,0.043 0.356,0.138c0.57,0.482 1.374,1.3 2.145,2.067c0.151,0.112 0.829,0.536 1.727,-0.061c0.545,-0.362 0.654,-0.808 0.639,-1.142c-0.038,-0.445 -0.38,-0.761 -0.38,-0.761l-2.457,-2.505c0,0 -0.26,-0.225 -0.168,-0.338c0.075,-0.096 0.243,0.043 0.354,0.136c0.782,0.664 2.901,2.633 2.901,2.633c0.031,0.022 0.763,0.55 1.668,-0.033c0.324,-0.211 0.531,-0.526 0.547,-0.894c0.031,-0.637 -0.412,-1.015 -0.412,-1.015Z" style="fill:#fff;fill-rule:nonzero;"/><path d="M18.504,18.367c-0.381,-0.005 -0.798,0.225 -0.852,0.191c-0.031,-0.019 0.023,-0.175 0.058,-0.264c0.037,-0.089 0.539,-1.62 -0.684,-2.151c-0.937,-0.407 -1.509,0.051 -1.706,0.258c-0.052,0.054 -0.075,0.05 -0.08,-0.019c-0.019,-0.275 -0.14,-1.021 -0.948,-1.271c-1.156,-0.358 -1.898,0.458 -2.087,0.754c-0.084,-0.667 -0.64,-1.185 -1.322,-1.185c-0.74,-0.002 -1.341,0.606 -1.341,1.356c-0.001,0.75 0.599,1.359 1.34,1.359c0.359,0.002 0.686,-0.144 0.927,-0.379c0.007,0.007 0.01,0.02 0.006,0.046c-0.056,0.336 -0.16,1.556 1.102,2.054c0.505,0.199 0.936,0.051 1.292,-0.203c0.106,-0.075 0.124,-0.043 0.109,0.058c-0.046,0.314 0.012,0.986 0.942,1.367c0.707,0.292 1.126,-0.006 1.4,-0.263c0.12,-0.11 0.152,-0.092 0.158,0.079c0.034,0.908 0.779,1.63 1.683,1.631c0.932,0.001 1.688,-0.762 1.688,-1.707c0.001,-0.944 -0.754,-1.7 -1.685,-1.711Z" style="fill:#fff;fill-rule:nonzero;"/></g><path d="M30.662,14.539c-1.895,-1.676 -6.274,-5.535 -7.46,-6.437c-0.678,-0.517 -1.141,-0.789 -1.546,-0.912c-0.182,-0.056 -0.435,-0.119 -0.759,-0.12c-0.302,0 -0.627,0.055 -0.965,0.164c-0.767,0.247 -1.531,0.862 -2.269,1.457l-0.038,0.03c-0.688,0.554 -1.399,1.128 -1.937,1.249c-0.235,0.054 -0.477,0.082 -0.718,0.082c-0.603,-0.001 -1.145,-0.177 -1.348,-0.44c-0.033,-0.043 -0.011,-0.114 0.067,-0.214l0.01,-0.014l1.667,-1.821c1.306,-1.323 2.539,-2.573 5.378,-2.639c0.047,-0.001 0.095,-0.002 0.142,-0.002c1.767,0.001 3.533,0.803 3.732,0.896c1.657,0.819 3.367,1.235 5.086,1.236c1.792,0.001 3.64,-0.448 5.584,-1.356c-0.218,-0.185 -0.444,-0.365 -0.676,-0.541c-1.708,0.75 -3.334,1.129 -4.905,1.129c-1.602,-0.002 -3.203,-0.392 -4.758,-1.161c-0.082,-0.04 -2.032,-0.972 -4.062,-0.973c-0.054,0 -0.107,0.001 -0.161,0.002c-2.384,0.057 -3.728,0.915 -4.631,1.667c-0.878,0.022 -1.636,0.237 -2.311,0.427c-0.602,0.17 -1.121,0.317 -1.628,0.317c-0.209,0 -0.584,-0.02 -0.618,-0.021c-0.583,-0.018 -3.519,-0.748 -5.855,-1.645c-0.239,0.172 -0.468,0.348 -0.692,0.529c2.44,1.014 5.41,1.797 6.347,1.859c0.261,0.017 0.539,0.047 0.817,0.048c0.62,0 1.239,-0.176 1.838,-0.346c0.353,-0.101 0.744,-0.211 1.155,-0.29c-0.11,0.109 -0.22,0.219 -0.33,0.331l-1.693,1.857c-0.134,0.136 -0.423,0.5 -0.232,0.949c0.075,0.18 0.23,0.353 0.445,0.5c0.404,0.276 1.126,0.462 1.798,0.463c0.254,0 0.496,-0.026 0.717,-0.076c0.71,-0.162 1.455,-0.763 2.243,-1.399c0.63,-0.506 1.522,-1.149 2.206,-1.338c0.192,-0.052 0.426,-0.085 0.615,-0.085c0.057,0.001 0.11,0.002 0.16,0.01c0.45,0.058 0.888,0.213 1.668,0.806c1.39,1.059 7.542,6.514 7.603,6.568c0.004,0.004 0.396,0.346 0.369,0.917c-0.015,0.318 -0.189,0.601 -0.492,0.796c-0.262,0.169 -0.533,0.255 -0.807,0.255c-0.412,-0.001 -0.695,-0.196 -0.714,-0.21c-0.022,-0.018 -2.13,-1.978 -2.907,-2.636c-0.123,-0.103 -0.243,-0.197 -0.364,-0.197c-0.066,0 -0.122,0.028 -0.162,0.077c-0.122,0.152 0.015,0.364 0.176,0.503l2.462,2.509c0.004,0.002 0.307,0.291 0.341,0.676c0.019,0.415 -0.176,0.763 -0.584,1.034c-0.291,0.194 -0.585,0.293 -0.873,0.293c-0.379,0 -0.643,-0.175 -0.702,-0.217l-0.354,-0.352c-0.645,-0.644 -1.312,-1.31 -1.8,-1.722c-0.119,-0.1 -0.246,-0.193 -0.367,-0.193c-0.06,0 -0.114,0.022 -0.155,0.067c-0.055,0.063 -0.094,0.175 0.045,0.362c0.056,0.077 0.124,0.14 0.124,0.14l1.797,2.046c0.014,0.018 0.37,0.446 0.041,0.872l-0.064,0.082c-0.054,0.059 -0.112,0.115 -0.167,0.164c-0.306,0.255 -0.716,0.282 -0.878,0.282c-0.088,0 -0.171,-0.008 -0.243,-0.021c-0.177,-0.032 -0.297,-0.082 -0.354,-0.152l-0.022,-0.022c-0.098,-0.104 -1.004,-1.04 -1.753,-1.674c-0.099,-0.084 -0.222,-0.189 -0.35,-0.189c-0.063,0 -0.118,0.024 -0.162,0.072c-0.148,0.165 0.075,0.411 0.169,0.501l1.532,1.714c-0.002,0.015 -0.02,0.05 -0.057,0.104c-0.055,0.077 -0.241,0.265 -0.797,0.336c-0.067,0.009 -0.136,0.012 -0.203,0.012c-0.574,0 -1.185,-0.282 -1.501,-0.451c0.143,-0.307 0.218,-0.646 0.218,-0.984c0.001,-1.279 -1.024,-2.319 -2.285,-2.32c-0.027,0 -0.056,0.001 -0.083,0.002c0.042,-0.584 -0.04,-1.689 -1.159,-2.176c-0.322,-0.141 -0.643,-0.213 -0.955,-0.213c-0.245,0 -0.48,0.043 -0.702,0.129c-0.231,-0.457 -0.617,-0.79 -1.119,-0.964c-0.278,-0.097 -0.554,-0.146 -0.821,-0.146c-0.465,0 -0.895,0.139 -1.277,0.415c-0.367,-0.462 -0.921,-0.736 -1.504,-0.736c-0.51,0 -1.002,0.207 -1.365,0.572c-0.477,-0.369 -2.37,-1.588 -7.434,-2.753c-0.246,-0.056 -0.809,-0.22 -1.153,-0.322c-0.058,0.278 -0.102,0.559 -0.13,0.843c0,0 0.934,0.226 1.118,0.268c5.174,1.165 6.884,2.376 7.173,2.605c-0.098,0.238 -0.15,0.495 -0.15,0.753c0,1.085 0.869,1.967 1.938,1.968c0.12,0 0.239,-0.011 0.356,-0.034c0.161,0.798 0.675,1.403 1.462,1.713c0.23,0.089 0.463,0.135 0.691,0.135c0.148,0.001 0.296,-0.018 0.441,-0.055c0.146,0.373 0.472,0.84 1.204,1.141c0.256,0.104 0.511,0.159 0.761,0.159c0.203,0 0.402,-0.037 0.592,-0.107c0.351,0.865 1.184,1.438 2.113,1.438c0.616,0 1.207,-0.254 1.639,-0.704c0.368,0.209 1.148,0.585 1.936,0.586c0.101,0 0.197,-0.007 0.293,-0.018c0.781,-0.101 1.145,-0.411 1.313,-0.651c0.03,-0.043 0.057,-0.087 0.08,-0.134c0.185,0.054 0.388,0.098 0.62,0.099c0.426,0 0.836,-0.148 1.251,-0.454c0.407,-0.297 0.697,-0.724 0.738,-1.088c0.001,-0.004 0.001,-0.009 0.001,-0.015c0.138,0.029 0.279,0.043 0.419,0.043c0.44,0 0.872,-0.139 1.285,-0.413c0.797,-0.529 0.935,-1.222 0.922,-1.674c0.14,0.03 0.282,0.044 0.424,0.044c0.412,0 0.818,-0.126 1.204,-0.375c0.494,-0.32 0.792,-0.81 0.837,-1.38c0.03,-0.388 -0.065,-0.78 -0.266,-1.116c1.335,-0.582 4.387,-1.71 7.98,-2.531c-0.02,-0.283 -0.061,-0.561 -0.112,-0.839c-4.348,0.976 -7.591,2.399 -8.404,2.765Zm-12.158,7.124c-0.845,-0.001 -1.531,-0.666 -1.562,-1.513c-0.003,-0.073 -0.01,-0.266 -0.172,-0.266c-0.066,0 -0.123,0.04 -0.189,0.101c-0.186,0.175 -0.423,0.351 -0.768,0.351c-0.157,0 -0.326,-0.037 -0.506,-0.111c-0.891,-0.367 -0.904,-0.987 -0.868,-1.236c0.01,-0.067 0.013,-0.136 -0.032,-0.19l-0.055,-0.049l-0.055,0c-0.045,0 -0.092,0.018 -0.155,0.063c-0.258,0.184 -0.505,0.273 -0.757,0.273c-0.138,0 -0.281,-0.028 -0.422,-0.083c-1.175,-0.463 -1.082,-1.586 -1.025,-1.924c0.009,-0.069 -0.008,-0.122 -0.051,-0.157l-0.083,-0.069l-0.077,0.075c-0.229,0.223 -0.528,0.346 -0.843,0.346c-0.673,-0.001 -1.22,-0.554 -1.219,-1.236c0,-0.682 0.548,-1.234 1.22,-1.234c0.608,0 1.125,0.463 1.203,1.078l0.042,0.333l0.18,-0.282c0.02,-0.032 0.512,-0.787 1.419,-0.786c0.172,0 0.35,0.028 0.529,0.084c0.722,0.223 0.845,0.887 0.863,1.163c0.013,0.161 0.126,0.169 0.148,0.169c0.063,0 0.109,-0.041 0.141,-0.075c0.136,-0.144 0.433,-0.384 0.898,-0.384c0.212,0.001 0.438,0.053 0.672,0.154c1.148,0.499 0.627,1.976 0.621,1.992c-0.099,0.245 -0.103,0.353 -0.01,0.416l0.045,0.021l0.034,0c0.051,0 0.115,-0.022 0.222,-0.059c0.156,-0.054 0.391,-0.137 0.612,-0.137l0,0c0.865,0.01 1.567,0.723 1.567,1.588c0,0.873 -0.704,1.584 -1.567,1.584Z" style="fill:#060e9f;fill-rule:nonzero;"/></g></g></svg>