<svg xmlns="http://www.w3.org/2000/svg" width="96" height="32" viewBox="0 0 96 32"><path fill="#FFF" fill-rule="evenodd" d="M157.66947,64.2876304 L158.29682,61.0031621 C159.806798,61.250132 160.683425,60.786198 161.290464,60.2280922 C162.375284,59.230057 162.258493,57.6868416 162.145395,57.0871896 C161.387405,53.0631966 159.910664,45.21094 159.910664,45.21094 L159.910664,45.0115176 L164.273029,45.0115176 L165.604819,53.5885269 L169.872551,45.0115176 L173.977328,45.0115176 C173.977328,45.0115176 168.27948,55.4816547 165.911339,59.8153987 C165.326459,60.8863708 164.664026,61.9056408 163.792476,62.7758056 C162.404367,64.1625298 160.612335,64.7017089 157.66947,64.2876304 Z M154.39922,45.0116561 L158.273646,45.0116561 L151.757335,59.3973041 L147.252327,59.3973041 L146.564967,50.0286064 L146.462947,50.0110646 L142.126433,59.3982274 L137.650509,59.3982274 L136.82743,45.0116561 L140.963598,45.0116561 L141.144094,53.9819706 L141.251652,54.0184391 L145.46445,45.2346214 L149.786192,45.2346214 L150.323525,54.0082833 L150.431083,54.0175158 L154.39922,45.0116561 Z M178.320305,59.3983658 L173.977328,59.3983658 C174.944896,54.5471392 175.869071,49.8588665 176.836177,45.0113329 L180.203277,45.0113329 L180.203277,47.6582959 C180.653824,46.5647041 181.268709,45.5463573 182.311984,45.0995035 C183.335409,44.6609589 184.917401,44.6840401 186.530321,45.1793647 C185.895124,46.4095978 185.410879,47.5041128 184.723056,48.8359035 C184.102631,48.713111 183.544525,48.5561582 182.976264,48.4998399 C181.699868,48.3728927 180.772923,48.8820661 180.337148,50.0924492 C180.032937,50.9376863 179.84367,51.8327789 179.659943,52.7158693 C179.19924,54.9284422 178.771313,57.1465547 178.320305,59.3983658 Z M197.763849,55.8221038 L197.1365,59.0881071 C197.011399,59.1398092 195.291843,59.8299399 192.605642,59.5617353 C188.162492,59.1181128 186.803004,56.2758821 186.598504,54.2931988 C186.326144,51.6577765 186.847782,49.2900973 188.625041,47.137074 C190.575411,44.7744727 194.703731,44.2625295 197.66737,45.3390411 C201.04047,46.5641963 200.383115,50.7022109 197.79801,52.2481961 C196.843829,52.8187657 195.066108,53.6159936 190.878237,53.263773 C190.622958,54.6449577 191.433573,55.8678048 192.838763,56.2661879 C194.110542,56.6267178 195.955661,56.4596092 197.618437,55.8216422 C197.727381,55.8216422 197.763849,55.8221038 197.763849,55.8221038 Z M192.205412,48.432858 C191.709626,49.0352798 191.404953,49.7074071 191.212455,50.5415651 C192.349901,50.7372945 193.431029,50.7492967 194.475688,50.3569147 C194.814983,50.229506 195.155663,50.0093104 195.399863,49.7434139 C196.119076,48.9600347 195.786706,47.8378222 194.77436,47.5206852 C193.944357,47.2607898 192.826299,47.6780996 192.205412,48.432858 Z M110.636161,69 L113.254965,62.6027882 L120.409243,62.6027882 C122.022164,62.6027882 123.393654,61.8180242 124.299826,60.6108724 L130.278805,53.0069706 L124.951642,66.0202048 C124.213963,67.8223923 122.459785,69 120.512185,69 L110.636161,69 Z M107.362218,61.0009925 L109.981021,54.6037807 L117.1353,54.6037807 C118.74822,54.6037807 120.119711,53.8190167 121.025883,52.6118649 L127.005323,45.0084247 L121.677698,58.0211973 C120.94002,59.8233848 119.185842,61.0009925 117.238242,61.0009925 L107.362218,61.0009925 Z M113.855817,37 L123.731841,37 L118.403755,50.0146191 C117.666077,51.8168066 115.911899,52.9944143 113.964299,52.9944143 L104.088274,52.9944143 L109.41636,39.9797952 C110.154039,38.1776077 111.908217,37 113.855817,37 Z" transform="translate(-104 -37)"/></svg>