<svg xmlns="http://www.w3.org/2000/svg" width="96" height="32" viewBox="0 0 96 32"><g fill="none" fill-rule="evenodd"><path fill="#061027" d="M53.3777371,27.0990171 C56.2920229,27.5090743 58.0666514,26.9751314 59.44128,25.6018743 C60.3043657,24.74016 60.9603657,23.7307886 61.5395657,22.6702171 C63.8847086,18.37856 69.5272229,8.01010286 69.5272229,8.01010286 L65.4623086,8.01010286 L61.2360229,16.5038171 L59.9171657,8.01010286 L55.5971657,8.01010286 L55.5971657,8.20758857 C55.5971657,8.20758857 57.0595657,15.9835886 57.8101943,19.9685029 C57.9221943,20.5623314 58.0378514,22.09056 56.9635657,23.0789029 C56.3624229,23.6315886 55.4943086,24.0910171 53.9989943,23.8464457 L53.3777371,27.0990171 Z"/><polygon fill="#061027" points="50.139 8.01 46.21 16.929 46.103 16.92 45.571 8.231 41.291 8.231 37.119 16.93 37.013 16.893 36.834 8.01 32.738 8.01 33.553 22.257 37.986 22.257 42.28 12.961 42.381 12.979 43.062 22.256 47.523 22.256 53.976 8.01"/><path fill="#061027" d="M73.8280229 22.25728L69.5272229 22.25728C70.4853943 17.4531657 71.4005943 12.8104229 72.3583086 8.00996571L75.6927086 8.00996571 75.6927086 10.6312229C76.13888 9.54825143 76.7477943 8.53979429 77.7809371 8.09728 78.7944229 7.66299429 80.3610514 7.68585143 81.9583086 8.17636571 81.32928 9.39465143 80.8497371 10.4785371 80.1685943 11.7973943 79.5541943 11.6757943 79.0015086 11.5203657 78.4387657 11.4645943 77.1747657 11.33888 76.2568229 11.8431086 75.82528 13.0417371 75.5240229 13.8787657 75.3365943 14.7651657 75.1546514 15.63968 74.6984229 17.8307657 74.2746514 20.0273371 73.8280229 22.25728M87.5782857 11.3982629C88.1931429 10.6508343 89.3003429 10.2375771 90.1222857 10.4949486 91.1248 10.8090057 91.4539429 11.92032 90.7417143 12.6960914 90.4998857 12.9594057 90.1625143 13.1774629 89.8265143 13.3036343 88.792 13.6922057 87.7213714 13.68032 86.5949714 13.4864914 86.7856 12.6604343 87.0873143 11.9948343 87.5782857 11.3982629L87.5782857 11.3982629zM93.0827429 18.7157486C93.0827429 18.7157486 93.0466286 18.7152914 92.9387429 18.7152914 91.2921143 19.3470629 89.4649143 19.5125486 88.2054857 19.15552 86.8139429 18.7610057 86.0112 17.5500343 86.264 16.1822629 90.4112 16.5310629 92.1716571 15.7415771 93.1165714 15.1765486 95.6765714 13.6455771 96.3275429 9.54774857 92.9872 8.33449143 90.0523429 7.26843429 85.9641143 7.77540571 84.0326857 10.1150629 82.2726857 12.2471771 81.7561143 14.5918629 82.0258286 17.2016914 82.2283429 19.16512 83.5746286 21.9797486 87.9746286 22.4190629 90.6347429 22.6846629 92.3376 22.0012343 92.4614857 21.9500343L93.0827429 18.7157486z"/><path fill="#94C5FF" d="M16.4738286,15.92672 L26.2539429,15.92672 L20.9776,28.8149486 C20.2470857,30.5996343 18.5099429,31.7658057 16.5812571,31.7658057 L6.80114286,31.7658057 L12.0774857,18.8775771 C12.808,17.0928914 14.5451429,15.92672 16.4738286,15.92672"/><path fill="#1A32AF" d="M26.2538514,15.9274057 L20.3320229,23.45792 C19.4346514,24.6533486 18.07648,25.4304914 16.4792229,25.4304914 L9.39488,25.4304914 L12.0847086,18.8741486 C12.8161371,17.0912914 14.5528229,15.9264914 16.4801371,15.9269486 L26.2538514,15.9274057 Z"/><path fill="#0092FF" d="M13.2317257,8.00544 L23.01184,8.00544 L17.7354971,20.8936686 C17.0049829,22.6783543 15.26784,23.8445257 13.3391543,23.8445257 L3.55904,23.8445257 L8.83538286,10.9562971 C9.56589714,9.17161143 11.30304,8.00544 13.2317257,8.00544"/><path fill="#1A32AF" d="M23.0117486,8.00612571 L17.08992,15.53664 C16.1925486,16.7320686 14.8343771,17.5092114 13.23712,17.5092114 L6.15277714,17.5092114 L8.84260571,10.9528686 C9.57403429,9.17001143 11.31072,8.00521143 13.2380343,8.00566857 L23.0117486,8.00612571 Z"/><path fill="#05F" d="M9.98957714,0.0763885714 L19.7696914,0.0763885714 L14.4933486,12.9646171 C13.7628343,14.7493029 12.0256914,15.9154743 10.0970057,15.9154743 L0.316891429,15.9154743 L5.59323429,3.02724571 C6.32374857,1.24256 8.06089143,0.0763885714 9.98957714,0.0763885714"/></g></svg>