<svg width="21" height="20" viewBox="0 0 21 20" fill="none" xmlns="http://www.w3.org/2000/svg">
<path d="M8.49121 4.5V7.5H5.49121V4.5H8.49121ZM9.99121 3H3.99121V9H9.99121V3ZM8.49121 12.5V15.5H5.49121V12.5H8.49121ZM9.99121 11H3.99121V17H9.99121V11ZM16.4912 4.5V7.5H13.4912V4.5H16.4912ZM17.9912 3H11.9912V9H17.9912V3ZM11.9912 11H13.4912V12.5H11.9912V11ZM13.4912 12.5H14.9912V14H13.4912V12.5ZM14.9912 11H16.4912V12.5H14.9912V11ZM11.9912 14H13.4912V15.5H11.9912V14ZM13.4912 15.5H14.9912V17H13.4912V15.5ZM14.9912 14H16.4912V15.5H14.9912V14ZM16.4912 12.5H17.9912V14H16.4912V12.5ZM16.4912 15.5H17.9912V17H16.4912V15.5ZM20.9912 5H18.9912V2H15.9912V0H20.9912V5ZM20.9912 20V15H18.9912V18H15.9912V20H20.9912ZM0.991211 20H5.99121V18H2.99121V15H0.991211V20ZM0.991211 0V5H2.99121V2H5.99121V0H0.991211Z" fill="#7ED0FF"/>
</svg>
