<svg width="21" height="20" viewBox="0 0 21 20" fill="none" xmlns="http://www.w3.org/2000/svg">
<path d="M8.49219 4.5V7.5H5.49219V4.5H8.49219ZM9.99219 3H3.99219V9H9.99219V3ZM8.49219 12.5V15.5H5.49219V12.5H8.49219ZM9.99219 11H3.99219V17H9.99219V11ZM16.4922 4.5V7.5H13.4922V4.5H16.4922ZM17.9922 3H11.9922V9H17.9922V3ZM11.9922 11H13.4922V12.5H11.9922V11ZM13.4922 12.5H14.9922V14H13.4922V12.5ZM14.9922 11H16.4922V12.5H14.9922V11ZM11.9922 14H13.4922V15.5H11.9922V14ZM13.4922 15.5H14.9922V17H13.4922V15.5ZM14.9922 14H16.4922V15.5H14.9922V14ZM16.4922 12.5H17.9922V14H16.4922V12.5ZM16.4922 15.5H17.9922V17H16.4922V15.5ZM20.9922 5H18.9922V2H15.9922V0H20.9922V5ZM20.9922 20V15H18.9922V18H15.9922V20H20.9922ZM0.992188 20H5.99219V18H2.99219V15H0.992188V20ZM0.992188 0V5H2.99219V2H5.99219V0H0.992188Z" fill="#00658D"/>
</svg>
