<svg width="16" height="17" viewBox="0 0 16 17" fill="none" xmlns="http://www.w3.org/2000/svg">
<path fill-rule="evenodd" clip-rule="evenodd" d="M0 0H2H14V1H15.0088V5H14V7H15.0088V11H14V16C14 16.5523 13.5523 17 13 17H2C1.82735 17 1.65981 16.9781 1.5 16.937C0.637386 16.715 0 15.9319 0 15V0ZM14 1.5V4.5H14.5088V1.5H14ZM1.5 0.5V16.4146C0.917404 16.2087 0.5 15.6531 0.5 15V0.5H1.5ZM12 2H4V15H12V2ZM14.5088 10.5H14V7.5H14.5088V10.5ZM6.50879 5.5H9.50879V7.5H6.50879V5.5ZM6.00879 8V5H10.0088V8H6.00879Z" fill="#00658D"/>
</svg>
