<?xml version="1.0" encoding="UTF-8"?>
<svg width="84px" height="84px" viewBox="0 0 84 84" version="1.1" xmlns="http://www.w3.org/2000/svg" xmlns:xlink="http://www.w3.org/1999/xlink">
    <!-- Generator: Sketch 50.2 (55047) - http://www.bohemiancoding.com/sketch -->
    <title>app-icon-flat</title>
    <desc>Created with Sketch.</desc>
    <defs></defs>
    <g id="Initial" stroke="none" stroke-width="1" fill="none" fill-rule="evenodd">
        <g id="0.9---Unlock" transform="translate(-146.000000, -249.000000)">
            <g id="app-icon-flat" transform="translate(146.000000, 249.000000)">
                <path d="M42,84 C65.1959595,84 84,65.1959595 84,42 C84,18.8040405 65.1959595,0 42,0 C18.8040405,0 0,18.8040405 0,42 C0,65.1959595 18.8040405,84 42,84 Z" id="Oval-240" fill="#1A3A8B"></path>
                <path d="M45.7271027,32.500956 C47.6154722,32.500956 49.2790357,32.8680688 50.6728322,33.5564054 C52.0666287,34.2447419 53.1906581,35.1625239 54.1348429,36.3556405 C55.0340664,37.5487572 55.7084841,38.9254302 56.1580958,40.4856597 C56.6077076,42.0458891 56.8325135,43.7437859 56.8325135,45.5793499 C56.8325135,48.3785851 56.3379405,50.9942639 55.3038335,53.5181644 C54.2697264,55.9961759 52.9208911,58.1988528 51.1674052,60.0344168 C49.4139193,61.8699809 47.3457051,63.3384321 44.9627627,64.3938815 C42.5798203,65.4493308 40.0170332,66 37.2294402,66 C36.8697508,66 36.2402943,66 35.3410708,65.9541109 C34.4418472,65.9541109 33.4077401,65.8623327 32.2837107,65.6787763 C31.1147201,65.4952199 29.9007683,65.2657744 28.6418554,64.9445507 C27.3379812,64.623327 26.1240294,64.1644359 25,63.6137667 L35.2961096,19.4684512 L44.5131509,18 L40.8712956,33.6481836 C41.6805968,33.2810707 42.3999756,33.0057361 43.2092768,32.8221797 C43.9736168,32.5927342 44.8278792,32.500956 45.7271027,32.500956 L45.7271027,32.500956 Z M37.9937802,58.4741874 C39.3875767,58.4741874 40.6914509,58.1529637 41.9054026,57.418738 C43.1193544,56.7304015 44.1984227,55.8126195 45.0976462,54.665392 C45.9968698,53.5181644 46.7162486,52.1873805 47.2108216,50.7648184 C47.7053945,49.2963671 47.9751616,47.7820268 47.9751616,46.2217973 C47.9751616,44.2944551 47.6604333,42.7801147 47.0309769,41.6787763 C46.4015204,40.5774379 45.0976462,40.0726577 43.3891215,40.0726577 C42.8495874,40.0726577 42.2650921,40.1185468 41.3658685,40.3479924 C40.466645,40.5315488 39.702305,40.9904398 38.9829261,41.6328872 L35.1162649,58.290631 C36.2852555,58.4741874 36.6449449,58.5200765 36.9596732,58.5200765 C37.184479,58.4741874 37.5441685,58.4741874 37.9937802,58.4741874 L37.9937802,58.4741874 Z" id="b_2_" fill="#FFFFFF"></path>
            </g>
        </g>
    </g>
</svg>