<svg xmlns="http://www.w3.org/2000/svg" viewBox="116.6 16.8 86.8 30.5"><path d="M203.4 24h-4.5l-2.6 11-.4 1.5c-.3.1-.5.1-.8.2-.5.1-.9.1-1.4.1-.6 0-1-.1-1.4-.3-.3-.2-.6-.4-.7-.7-.1-.3-.2-.7-.2-1.1 0-.4.1-.9.2-1.3l1.4-5.7.9-3.8h-4.6l-2.1 8.8c-.3 1.1-.4 2.1-.4 3 0 1 .1 1.8.4 2.5.3.7.9 1.3 1.7 1.7.8.4 1.9.6 3.3.6 1 0 1.9-.1 2.6-.3h.1c-.2.9-.6 1.6-1.3 2.2-.7.6-1.6.9-2.9.9-.5 0-1.1 0-1.5-.1l-.9 3.7c.6.1 1.3.1 2 .1 1.4 0 2.6-.2 3.6-.5s1.9-.8 2.7-1.4c.7-.6 1.4-1.4 1.9-2.4s.9-2.1 1.2-3.4l3.1-13.1.6-2.2zm-18.9 9.4c-.3 1.1-.4 2.3-.3 3.5.1 1.2.6 2.9 1 3.8h-4.4c-.5-.9-.5-1.3-.6-1.6-.6.5-1.2.8-1.9 1.1-.7.3-1.4.5-2.3.5-1 0-1.9-.2-2.6-.5-.7-.3-1.3-.8-1.8-1.4-.5-.6-.8-1.3-1-2.1-.2-.8-.3-1.6-.3-2.6 0-1.4.3-2.7.7-3.9.5-1.2 1.2-2.3 2.1-3.2.9-.9 3-3 6.5-3h7l-2.1 9.4zm-3.2-5.6c-2.1 0-2.5 0-3.4.4-.6.3-1.1.8-1.6 1.4-.4.5-.8 1.2-1.1 1.9-.3.7-.4 1.5-.4 2.3 0 1 .2 1.7.5 2.3s.9.8 1.8.8c.5 0 .9-.1 1.3-.3.4-.2.8-.5 1.2-.9 0-.5.1-1 .2-1.6s.2-1.1.3-1.5l1.2-4.8m-12.1 2.8c0 1.5-.3 2.8-.7 4.1-.5 1.2-1.2 2.3-2 3.2-.9.9-1.9 1.6-3.1 2.1-1.2.5-2.5.8-3.9.8-.7 0-1.4-.1-2.1-.2l-1.4 5.5h-4.5l5.2-22h6c1.1 0 2.1.2 2.9.5.8.3 1.5.8 2 1.4.5.6.9 1.3 1.2 2.1.3.7.4 1.6.4 2.5zm-11.1 6.2c.3.1.8.1 1.3.1.8 0 1.5-.1 2.2-.4.6-.3 1.2-.7 1.7-1.2s.8-1.2 1.1-1.9c.3-.7.4-1.6.4-2.5 0-.9-.2-1.6-.6-2.2-.4-.6-1.1-.9-2-.9h-1.8l-2.3 9zm-9.4 0c-.6 0-1-.1-1.4-.3-.3-.2-.6-.4-.7-.7-.1-.3-.2-.7-.2-1.1s.1-.9.2-1.3l1.4-5.7h5.1l.9-3.8h-5.2l1.2-4.8-4.8.8-3 12.9c-.3 1.1-.4 2.1-.4 3 0 1 .1 1.8.4 2.5.3.7.9 1.3 1.7 1.7.8.4 1.9.6 3.3.6 1 0 1.9-.1 2.6-.3.1 0 .2 0 .3-.1l.9-3.9c-.3.1-.6.2-.9.2-.5.3-.9.3-1.4.3zM137.2 24l-4 16.7h4.5l4-16.7zm4.9-2l.7-2.9h-4.5l-.7 2.9zm-14.9 2c1 0 1.8.2 2.5.5s1.3.8 1.8 1.4c.5.6.8 1.3 1 2.1s.3 1.6.3 2.5c0 1.4-.3 2.7-.8 4-.5 1.2-1.2 2.3-2.1 3.3s-1.9 1.6-3.2 2.2c-1.2.5-2.5.8-3.9.8h-1c-.5 0-1 0-1.6-.1-.6-.1-1.2-.2-1.9-.4s-1.3-.4-1.9-.7l5.2-22 4.7-.7-1.9 7.8c.4-.2.8-.3 1.2-.4.7-.3 1.1-.3 1.6-.3zm-4 13c.7 0 1.4-.2 2-.5.6-.3 1.2-.8 1.6-1.4.5-.6.8-1.2 1.1-1.9.3-.7.4-1.5.4-2.3 0-1-.2-1.7-.5-2.3-.3-.5-1-.8-1.9-.8-.3 0-.6 0-1 .1-.5.1-.8.3-1.2.6l-2 8.3c.6.1.8.1.9.1.2.1.4.1.6.1z" fill="#FFF"/></svg>