<svg height="400" viewBox="0 0 400 400" width="400" xmlns="http://www.w3.org/2000/svg"><g fill-rule="evenodd"><path d="m159.167 50.885c-3.478 1.826-5.06 4.471-7.146 11.948-5.05 18.105-6.303 36.559-3.71 54.634.392 2.731 1.007 6.481 1.367 8.333.359 1.852.654 3.821.654 4.376.002 1.448 3.1 13.716 4.459 17.657 4.916 14.254 10.822 21.505 17.986 22.08 2.119.17 5.556-.393 5.556-.91 0-.265 1.616-.827 2.084-.724.137.03.217-.058.176-.196-.04-.137.414-.775 1.01-1.416 3.78-4.068 3.552-8.531-.365-7.166-1.932.673-1.782.718-4.573-1.368-4.723-3.528-5.797-4.972-8.157-10.966-.867-2.2-1.718-4.174-1.891-4.387-.856-1.05-5.162-15.283-5.934-19.613-2.164-12.151-2.575-15.245-3.021-22.762-.592-9.97.631-24.795 2.708-32.826l.325-1.255 1.266 1.018c1.42 1.141 7.817 8.086 11.2 12.158 7.676 9.242 18.878 25.877 24.68 36.652l1.248 2.318-.709 3.682c-4.848 25.177-4.325 35.623 1.953 39.001 2.909 1.565 4.658 1.427 9.028-.715 12.832-6.289 13.717-21.332 2.64-44.915l-1.711-3.643 1.218-4.523c4.064-15.101 10.402-26.928 20.818-38.849 3.393-3.883 2.99-3.95 4.452.742 4.933 15.826 7.951 36.799 8.29 57.613.114 6.959.643 5.631-4.531 11.358-17.827 19.727-21.996 35.043-10.024 36.823 13.266 1.974 22.227-11.396 24.675-36.816l.52-5.395 3.896-3.796c9.473-9.232 19.888-16.095 31.094-20.489 4.127-1.619 10.904-3.724 11.161-3.467.246.247-1.753 9.476-2.861 13.204-3.984 13.413-16.317 35.237-26.872 47.552-2.755 3.214-2.761 3.25-.389 2.326 1.153-.448 4.06-1.441 6.46-2.206l4.363-1.391 3.342-4.7c15.699-22.074 24.223-41.623 27.148-62.256.628-4.433-.222-4.902-6.236-3.44-17.207 4.184-32.15 12.074-46.838 24.73l-3.857 3.324-.398-8.862c-1.038-23.117-4.716-43.289-10.757-59.005-1.759-4.577-4.076-4.29-10.1 1.248-12.877 11.838-24.484 28.602-29.699 42.895-.335.917-.698 1.773-.807 1.903s-1.24-1.52-2.514-3.666c-10.683-17.999-24.582-34.735-37.786-45.5-1.294-1.054-3.281-1.197-4.891-.352m48.104 86.782c1.747 5.471 2.61 12.555 1.648 13.524-.4.403-1.628-.905-2.37-2.524-.746-1.629-1.202-9.704-.727-12.873.282-1.882.229-1.951 1.449 1.873m36.926 9.895c-1.096 10.7-3.523 16.771-6.704 16.771-4.25 0-2.377-6.993 4.239-15.829 2.828-3.776 2.752-3.747 2.465-.942" fill="#d293b0"/><path d="m90.233 92.815c-2.985 1.064-5.455 3.628-6.215 6.452-1.769 6.568 15.553 47.748 24.043 57.159 1.758 1.948 8.316 11.244 8.567 12.143.719 2.572 13.311 16.065 18.806 20.15 11.473 8.531 20.718 9.299 27.601 2.292 3.24-3.298 4.288-5.419 3.466-7.01-.962-1.86-3.499-1.648-6.354.531l-1.546 1.181-1.307-.523c-.719-.288-1.792-.527-2.384-.531-2.366-.018-9.576-4.493-18.597-11.543-1.02-.797-2.023-1.449-2.228-1.449-1.186 0-8.776-10.361-9.28-12.667-.268-1.226-.868-2.265-4.814-8.333-9.058-13.931-16.027-27.548-20.961-40.957-.767-2.085-1.34-3.844-1.274-3.91.22-.22 8.804 2.496 13.638 4.315 12.014 4.521 26.615 11.964 36.533 18.623 2.164 1.453 2.408 1.547 2.243.863-.542-2.249-1.52-8.027-2.039-12.048l-.59-4.565-3.52-1.955c-19.011-10.561-47.861-20.333-53.788-18.218m70.434 29.081c0 1.208 2.401 10.055 4.192 15.445l1.831 5.508 2.376 2.483c4.671 4.879 7.732 9.232 8.628 12.271.551 1.871 1.238 2.228 3.277 1.706 3.897-.999 4.841 1.604 2.125 5.858l-.851 1.333 1.058-.992c6.905-6.475 6.173-16.754-1.897-26.621-4.523-5.532-20.739-18.817-20.739-16.991" fill="#640c34"/><path d="m81.833 156.206c-16.144 1.297-27.418 4.449-31.173 8.714-2.818 3.201-2.636 4.662 1.1 8.834 13.39 14.952 31.39 28.638 47.545 36.149l3.138 1.46-3.543 3.568c-10.449 10.525-14.764 18.986-19.91 39.037l-.377 1.469-6.223-.213c-25.727-.881-49.23-9.899-54.874-21.055-3.243-6.409.657-9.903 9.315-8.345 1.766.318 3.271.518 3.345.444.214-.213-5.806-4.119-8.009-5.197-14.003-6.849-24.966 2.108-18.522 15.134 7.068 14.29 30.922 22.806 64.211 22.926l10.023.036-.583 3.191c-.936 5.127-2.202 13.557-3.295 21.93-.559 4.283-1.451 9.841-1.983 12.349-1.83 8.632-3.736 16.03-4.13 16.029-.213 0-2.788-.438-5.721-.974-32.923-6.017-55.028 2.832-40.64 16.268 13.543 12.648 49.235 12.364 63.48-.506l1.2-1.084 21.147 5.999c39.274 11.143 54.699 14.606 76.479 17.168 29.71 3.495 57.528-1.454 62.178-11.06 1.65-3.409-.658-4.202-7.767-2.67-8.09 1.744-21.983 2.268-33.077 1.249-17.956-1.65-35.798-4.273-59.167-8.696-8.996-1.702-52.706-10.621-52.873-10.788-.05-.051.418-1.363 1.04-2.915 1.708-4.264 2.553-7.734 4.987-20.49 3.314-17.366 7.971-37.069 9.006-38.105.071-.07 2.351-.548 5.068-1.062 33.109-6.255 53.772-18.081 55.66-31.855.16-1.165.357-1.518.908-1.623.387-.073 2.811-.518 5.386-.988 14.682-2.681 26.034-7.446 53.818-22.591 41.047-22.375 55.592-27.276 80.937-27.276 8.289 0 25.828 1.658 26.697 2.524.468.465-9.13 12.032-14.593 17.588-8.294 8.436-16.003 13.992-25.058 18.062-17.466 7.85-40.73 9.424-56.785 3.843-3.969-1.379-8.135.836-10.224 5.437-1.399 3.08-.728 4.059 3.768 5.5 24.667 7.901 59.127.864 81.398-16.623 13.459-10.568 34.86-35.973 34.86-41.383 0-2.061.099-2.017-7.35-3.259-33.98-5.661-58.515-1.628-91.983 15.12-4.125 2.065-13.35 6.95-20.5 10.858-30.539 16.688-40.156 20.596-56.657 23.024-6.25.919-5.794 1.015-8.587-1.804-8.555-8.636-27.934-11.382-45.924-6.506l-2.501.678-3.02-1.329c-16.038-7.057-30.91-17.12-43.905-29.706-2.904-2.813-4.138-4.217-3.842-4.373 1.932-1.021 17.121-1.769 26.933-1.325 8.023.362 23.219 1.562 23.722 1.873.773.477.097-.964-1.424-3.04-.938-1.279-2.814-3.923-4.168-5.874-1.871-2.696-2.642-3.551-3.211-3.562-9.734-.18-24.488-.285-25.75-.184m42.834 2.557c0 1.935 8.604 13.393 9.597 12.78.992-.613 12.805 3.443 16.403 5.633 3.197 1.945 6.288 5.685 5.906 7.145-.358 1.372 1.888 1.498 3.586.202 2.791-2.131 5.368-2.377 6.307-.602.72 1.361 1.039.279 1.011-3.421-.086-11.104-11.873-17.964-36.902-21.478-5.773-.811-5.908-.817-5.908-.259m22.25 48.641c3.917 1.441 6.791 4.599 4.178 4.591-3.099-.01-16.428-2.217-17.03-2.819-.091-.091.807-.619 1.995-1.175 3.632-1.7 7.31-1.902 10.857-.597m-17.561 12.754c5.806 1.226 13.6 2.159 20.075 2.403l5.615.212-.21.864c-2.061 8.512-19.882 19.277-42.753 25.826-2.156.617-2.188 1.032.461-5.87 5.077-13.229 10.991-24.971 12.321-24.46.245.094 2.266.555 4.491 1.025m83.808 14.592c-.082.229-.685 2.742-1.34 5.583-.655 2.842-1.272 5.44-1.37 5.773-.19.638-4.925.698-6.673.085-.965-.339-2.114.812-2.114 2.118 0 1.697 2.714 3.024 6.183 3.024 1.422 0 1.422-.207.009 5.717-2.179 9.131-4.116 20.115-4.702 26.655l-.227 2.538-2.597 1.57c-5.856 3.54-11.814 4.512-15.759 2.57-3.265-1.608-3.298-3.133-.202-9.22 2.702-5.312 2.934-7.174 1.266-10.142-3.243-5.771-13.52-4.569-16.446 1.923l-.551 1.223-7.206-.108c-4.061-.061-8.417.053-9.978.261-29.087 3.871-36.438 35.052-10.624 45.06 17.936 6.953 37.101-3.005 40.932-21.268.33-1.575.47-1.793 1.058-1.649 6.571 1.605 12.499 1.011 19.193-1.923.444-.195.574.468.924 4.7.809 9.767 2.748 13.84 8.366 17.575 13.669 9.088 29.628 3.146 44.505-16.569 1.627-2.157 3.017-3.863 3.088-3.792.071.072-.188 3.63-.575 7.908-.971 10.71-.342 12.805 4.586 15.272 8.382 4.197 19.802.781 29.211-8.737l2.62-2.651-.23 1.671c-.607 4.414 3.395 8.357 9.813 9.67 12.06 2.467 30.104-9.209 40.015-25.892 1.714-2.884 1.613-2.948 3.258 2.049 2.423 7.364 2.787 8.928 2.133 9.151-6.56 2.236-10.907 4.909-12.198 7.499-3.628 7.282 5.007 13.965 16.342 12.648 12.482-1.451 17.773-7.006 16.442-17.262-.186-1.437-.371-2.901-.411-3.252-.058-.518.85-1.065 4.806-2.896 17.962-8.31 27.024-16.764 22.263-20.769-2.316-1.949-4.369-1.096-6.1 2.535-1.293 2.712-4.849 5.914-9.486 8.543-3.298 1.87-12.285 6.059-12.998 6.059-.245 0-4.106-11.66-5.078-15.333-1.336-5.053.929-10.839 4.893-12.495 3.046-1.273-.206-4.829-4.422-4.837-2.047-.003-8.896 1.347-11.849 2.336-8.37 2.804-11.522 7.484-9.487 14.082l.49 1.587-1.385 2.133c-.762 1.173-2.313 3.609-3.446 5.413-6.035 9.605-15.841 19.012-22.362 21.452-4.026 1.507-3.894-1.276.895-18.824 3.043-11.152 3.008-11.593-1.191-15.013-6.983-5.689-14.113-7.55-14.116-3.684-.003 4.222-2.931 16.731-4.776 20.404-4.249 8.461-9.726 14.619-15.673 17.622-5.346 2.7-5.42 2.585-4.421-6.78.28-2.624.769-8.64 1.087-13.368l.577-8.597-.925-1.89c-1.847-3.776-9.648-8.719-14.416-9.135-2.065-.18-1.977-.368-2.29 4.907-.283 4.78-.084 4.316-4.618 10.767-22.952 32.666-34.128 34.159-33.118 4.425.235-6.916 1.234-12.557 4.223-23.863 2.235-8.452 3.685-15.452 3.685-17.792v-1.083l3.583-.214c13.428-.8 21.165-.555 26.318.833 3.636.979 4.137.967 4.502-.112.514-1.517-.245-3.576-1.514-4.106-2.95-1.232-14.941-2.324-21.754-1.979-1.449.073-4.45.195-6.668.271l-4.034.139-.553-1.758c-1.623-5.148-8.301-9.148-15.307-9.169-1.245-.004-1.98.142-2.076.411m-45.222 47.229c.618 2.991 2.791 7.026 5.077 9.429 2.259 2.374 2.306 2.6 1.292 6.26-1.491 5.379-4.386 9.12-9.738 12.582-11.043 7.144-18.676-.131-14.951-14.25 2.494-9.45 9.133-15.79 16.728-15.972 1.182-.028 1.184-.026 1.592 1.951m183.215 31.438c-.543 3.268-1.804 4.354-5.095 4.391-3.743.043-2.864-1.952 1.946-4.418 3.381-1.734 3.441-1.734 3.149.027m-302.815 3.591c4.161.503 16.046 3.016 16.608 3.511.283.25-1.926 3.761-3.349 5.32-7.145 7.831-26.197 5.765-27.179-2.947-.552-4.898 4.48-7.025 13.92-5.884" fill="#040404"/><path d="m163.5 69c.716.733 1.377 1.333 1.469 1.333.091 0-.42-.6-1.136-1.333s-1.377-1.333-1.468-1.333c-.092 0 .419.6 1.135 1.333m-15.756 45.333c0 .642.069.904.152.584.084-.321.084-.846 0-1.167-.083-.321-.152-.058-.152.583m.333 2.667c0 .642.069.904.153.583.084-.32.084-.846 0-1.166-.084-.321-.153-.059-.153.583m30.403 42.482c.745.596 1.472.653 2.187.169.374-.253.277-.286-.386-.133-.487.113-1.237.034-1.667-.175-.744-.362-.75-.355-.134.139m5.743 1.018c.253 1.648.445 1.928.439.639-.003-.535-.149-1.197-.324-1.472-.217-.341-.254-.075-.115.833m-1.044 4.02c-.843 1.565-2.725 3.458-3.983 4.006-.566.246-.789.454-.496.461 1.281.031 5.915-4.816 5.245-5.487-.078-.077-.422.382-.766 1.02" fill="#863456"/></g></svg>