<svg xmlns="http://www.w3.org/2000/svg" viewBox="252.5 17 185 64"><path d="M437.6 32.1H428l-5.6 23.4-.8 3.1c-.6.2-1 .2-1.7.4-1 .2-1.9.2-2.9.2-1.3 0-2.1-.2-2.9-.6-.6-.4-1.3-.8-1.5-1.5-.2-.6-.4-1.5-.4-2.3s.2-1.9.4-2.7l2.9-12.2 1.9-8.1h-9.8l-4.5 18.7c-.6 2.3-.8 4.5-.8 6.4 0 2.1.2 3.8.8 5.3.6 1.5 1.9 2.7 3.6 3.6 1.7.8 4.1 1.3 7 1.3 2.1 0 4.1-.2 5.6-.6h.2c-.4 1.9-1.3 3.4-2.7 4.7-1.5 1.3-3.4 1.9-6.2 1.9-1 0-2.3 0-3.1-.2l-2 7.9c1.3.2 2.7.2 4.3.2 2.9 0 5.6-.4 7.7-1 2.1-.6 4.1-1.7 5.8-2.9 1.5-1.3 2.9-2.9 4.1-5.1 1-2.1 1.9-4.5 2.5-7.2l6.6-27.8 1.1-4.9zM397.4 52c-.6 2.3-.8 4.9-.6 7.4.2 2.5 1.3 6.2 2.1 8.1h-9.3c-1-1.9-1-2.7-1.3-3.4-1.3 1-2.5 1.7-4.1 2.3-1.5.6-2.9 1-4.9 1-2.1 0-4.1-.4-5.6-1s-2.7-1.7-3.8-2.9c-1-1.3-1.7-2.7-2.1-4.5s-.6-3.4-.6-5.6c0-2.9.6-5.8 1.5-8.3 1-2.5 2.5-4.9 4.5-6.8 1.9-1.9 6.4-6.4 13.8-6.4h14.9L397.4 52zm-6.8-11.8c-4.5 0-5.3 0-7.2.8-1.3.6-2.3 1.7-3.4 2.9-.8 1-1.7 2.5-2.3 4.1-.6 1.5-.8 3.1-.8 4.9 0 2.1.4 3.6 1 4.9.6 1.2 1.9 1.7 3.8 1.7 1 0 1.9-.2 2.7-.6.8-.4 1.7-1 2.5-1.9 0-1 .2-2.1.4-3.4.2-1.3.4-2.3.6-3.1l2.7-10.3m-25.8 6c0 3.1-.6 6-1.5 8.7-1 2.5-2.5 4.9-4.3 6.8-1.9 1.9-4.1 3.4-6.6 4.5s-5.3 1.7-8.3 1.7c-1.5 0-2.9-.2-4.5-.4l-2.9 11.6h-9.5l11-46.8H351c2.3 0 4.5.4 6.2 1s3.1 1.7 4.3 2.9c1 1.3 1.9 2.7 2.5 4.5.6 1.6.8 3.5.8 5.5zm-23.5 13.1c.6.2 1.7.2 2.7.2 1.7 0 3.1-.2 4.7-.8 1.3-.6 2.5-1.5 3.6-2.5 1-1 1.7-2.5 2.3-4.1.6-1.5.8-3.4.8-5.3s-.4-3.4-1.3-4.7c-.8-1.3-2.3-1.9-4.3-1.9H346l-4.7 19.1zm-20 0c-1.3 0-2.1-.2-2.9-.6-.6-.4-1.3-.8-1.5-1.5-.2-.6-.4-1.5-.4-2.3 0-.8.2-1.9.4-2.7l2.9-12.2h10.8l1.9-8.1h-11l2.5-10.2-10.2 1.7-6.4 27.4c-.6 2.3-.8 4.5-.8 6.4 0 2.1.2 3.8.8 5.3.6 1.5 1.9 2.7 3.6 3.6 1.7.9 4.1 1.3 7 1.3 2.1 0 4.1-.2 5.6-.6.2 0 .4 0 .6-.2l1.9-8.3c-.6.2-1.3.4-1.9.4-1 .6-1.9.6-2.9.6zm-24.4-27.2l-8.5 35.5h9.5l8.5-35.5zm10.3-4.3l1.5-6.1h-9.5l-1.5 6.1zm-31.6 4.3c2.1 0 3.8.4 5.3 1s2.7 1.7 3.8 2.9c1 1.3 1.7 2.7 2.1 4.5s.6 3.4.6 5.3c0 2.9-.6 5.8-1.7 8.5-1 2.5-2.5 4.9-4.5 7-1.9 2.1-4.1 3.4-6.8 4.7-2.5 1-5.3 1.7-8.3 1.7H264c-1.1 0-2.1 0-3.4-.2-1.3-.2-2.5-.4-4.1-.8-1.5-.4-2.7-.8-4.1-1.5l11.1-46.6 10-1.5-4.1 16.6c.8-.4 1.7-.6 2.5-.8 1.8-.8 2.6-.8 3.7-.8zm-8.5 27.6c1.5 0 2.9-.4 4.3-1s2.5-1.7 3.4-2.9c1-1.3 1.7-2.5 2.3-4.1s.8-3.1.8-4.9c0-2.1-.4-3.6-1-4.9-.6-1-2.1-1.7-4.1-1.7-.6 0-1.3 0-2.1.2-1 .2-1.7.6-2.5 1.3L264 59.4c1.3.2 1.7.2 1.9.2.3.1.8.1 1.2.1z" fill="#002855"/></svg>