<?xml version="1.0" encoding="UTF-8"?>
<svg width="72px" height="26px" viewBox="0 0 72 26" version="1.1" xmlns="http://www.w3.org/2000/svg" xmlns:xlink="http://www.w3.org/1999/xlink">
    <!-- Generator: Sketch 54.1 (76490) - https://sketchapp.com -->
    <title>logo/bitpay-logo-blue </title>
    <desc>Created with Sketch.</desc>
    <g id="Symbols" stroke="none" stroke-width="1" fill="none" fill-rule="evenodd">
        <g id="Header/Activity-(No-vaults)" transform="translate(-152.000000, -50.000000)" fill="#2A3F90">
            <g id="Logo/bitpay-logo-blue-" transform="translate(152.000000, 50.000000)">
                <g id="Group">
                    <path d="M71.9649599,6.16596017 L68.2227378,6.16596017 L66.057188,15.5514882 L65.7532512,16.8393153 C65.5442946,16.8978529 65.3353381,16.9563905 65.1263815,16.9954155 C64.7464605,17.0734657 64.3475434,17.1124907 63.9296303,17.1124907 C63.454729,17.1124907 63.074808,17.0344406 62.7898672,16.8978529 C62.5239225,16.7612652 62.314966,16.5661398 62.2009897,16.2929644 C62.0870134,16.0393015 62.0490213,15.7271009 62.0680173,15.3758754 C62.0870134,15.0246498 62.1629976,14.6343991 62.2579778,14.2441485 L63.3977409,9.36601545 L64.1385869,6.12693511 L60.3203806,6.12693511 L58.59174,13.6197475 C58.3827834,14.5173239 58.2688071,15.3758754 58.230815,16.1954017 C58.1928229,17.0149281 58.3257952,17.7173792 58.59174,18.3612928 C58.8576847,18.9856938 59.332586,19.4735071 59.9784517,19.8442452 C60.6243174,20.2149833 61.5551239,20.3905961 62.7328791,20.3905961 C63.5497093,20.3905961 64.2715592,20.312546 64.8794329,20.1759583 C64.8984289,20.1759583 64.936421,20.1564458 64.9554171,20.1564458 L64.9554171,20.1564458 C64.7844526,20.936947 64.4425237,21.5613481 63.9106343,22.0491614 C63.3597488,22.5369747 62.5619146,22.7906376 61.4981358,22.7906376 C61.0422305,22.7906376 60.6243174,22.7711251 60.2443964,22.7125875 L59.5035504,25.8931302 C59.9974477,25.9516678 60.5483332,25.9906929 61.1562069,25.9906929 C62.2959699,25.9906929 63.2837646,25.8541052 64.1385869,25.6004422 C64.9934092,25.3272668 65.7152591,24.9370161 66.3421288,24.3906652 C66.9500024,23.8443143 67.4628958,23.1613757 67.8808089,22.3613619 C68.298722,21.5418355 68.6216549,20.5857215 68.8686036,19.4539946 L71.4520665,8.29282618 L71.4520665,8.29282618 L71.9649599,6.16596017 L71.9649599,6.16596017 Z" id="y_2_"></path>
                    <path d="M56.2932178,14.1856109 C56.0652652,15.1612375 55.989281,16.1563767 56.0842612,17.1320033 C56.1792415,18.1271424 56.5591625,19.6296074 56.9200875,20.3905961 L53.3108378,20.3905961 C52.8739286,19.6296074 52.8929247,19.2588693 52.7979444,19.0247189 C52.3230431,19.4149695 51.8101497,19.7466826 51.2402682,20.0003455 C50.6703867,20.2540084 50.043517,20.3905961 49.3216671,20.3905961 C48.4858408,20.3905961 47.7639909,20.2344959 47.1751133,19.9418079 C46.5862357,19.6491199 46.0923384,19.2393567 45.7124174,18.7320309 C45.3324963,18.2247051 45.0665516,17.6393291 44.8955872,16.9563905 C44.7246227,16.2734518 44.6486385,15.5514882 44.6486385,14.7709869 C44.6486385,13.5807224 44.8575951,12.4685081 45.2565121,11.4148313 C45.6744253,10.3611546 46.2443068,9.44406558 46.9661567,8.66356429 C47.6880067,7.883063 49.4546394,6.14644764 52.3420392,6.14644764 L58.1358347,6.14644764 L56.2932178,14.1856109 L56.2932178,14.1856109 Z M53.6527667,9.40504052 C51.90513,9.40504052 51.5821971,9.40504052 50.8603472,9.77577863 C50.3474538,10.0489541 49.9295407,10.4587173 49.5686157,10.927018 C49.2076908,11.3953188 48.9037539,11.9416697 48.6947974,12.5660707 C48.4858408,13.1904718 48.3718645,13.8343853 48.3718645,14.4978114 C48.3718645,15.3173378 48.5048369,15.9807639 48.7707816,16.4685772 C49.0367263,16.9563905 49.5306236,17.1905409 50.2524736,17.1905409 C50.6323946,17.1905409 50.9933196,17.1124907 51.2972564,16.9563905 C51.6011932,16.8002902 51.9431221,16.5466273 52.285051,16.1758892 C52.3230431,15.7466135 52.3800313,15.2978252 52.4560155,14.8295245 C52.5319997,14.3612237 52.6269799,13.9124355 52.7029641,13.5221848 L53.6527667,9.40504052 L53.6527667,9.40504052 Z" id="a_2_"></path>
                    <path d="M43.6228518,11.805082 C43.6228518,13.0733966 43.4138952,14.224636 43.0149781,15.2783127 C42.616061,16.3319894 42.0461795,17.2295659 41.3243296,17.9905547 C40.6024796,18.7515434 39.7476573,19.3369194 38.7408666,19.7661951 C37.7340759,20.1954708 36.651301,20.4101087 35.4735459,20.4101087 C34.9036643,20.4101087 34.3337828,20.3515711 33.7449052,20.2540084 L32.6051422,24.9565287 L28.8629201,24.9565287 L33.2130158,6.1854727 L38.2089772,6.1854727 C39.1587798,6.1854727 39.97561,6.34157296 40.6404717,6.63426094 C41.3243296,6.92694893 41.8752151,7.3367121 42.3311203,7.84403794 C42.7680295,8.35136378 43.0909623,8.95625228 43.2999189,9.6391909 C43.5278715,10.302617 43.6228518,11.0245807 43.6228518,11.805082 L43.6228518,11.805082 Z M34.4477591,17.1320033 C34.7326999,17.2100534 35.0936248,17.2295659 35.511538,17.2295659 C36.1763997,17.2295659 36.7652773,17.1124907 37.3161628,16.8588278 C37.8480522,16.6051649 38.3229535,16.2539393 38.7028745,15.8051511 C39.0827956,15.3563628 39.3677363,14.8100119 39.5956889,14.1856109 C39.8046455,13.5612099 39.9186218,12.8587587 39.9186218,12.09777 C39.9186218,11.3562937 39.7666534,10.7123802 39.4437205,10.2050543 C39.1207877,9.67821597 38.5699022,9.40504052 37.772068,9.40504052 L36.2903761,9.40504052 L34.4477591,17.1320033 L34.4477591,17.1320033 Z" id="p_2_"></path>
                    <path d="M26.583394,17.1320033 C26.1084927,17.1320033 25.7285717,17.0539531 25.4436309,16.9173654 C25.1776862,16.7807777 24.9687296,16.5856524 24.8547533,16.3124769 C24.740777,16.058814 24.7027849,15.7466135 24.721781,15.3953879 C24.740777,15.0441623 24.8167612,14.6539117 24.9117415,14.263661 L26.0515045,9.38552798 L30.30662,9.38552798 L31.0854581,6.14644764 L26.8113466,6.14644764 L27.7991412,2.04881588 L23.8099705,2.69272944 L21.2834957,13.6587725 C21.0745392,14.556349 20.9605629,15.4149004 20.9225708,16.2344268 C20.8845787,17.0539531 21.017551,17.7564043 21.2834957,18.4003179 C21.5494405,19.0247189 22.0243417,19.5125322 22.6702075,19.8832703 C23.3160732,20.2540084 24.2468797,20.4296212 25.4246349,20.4296212 C26.2414651,20.4296212 26.963315,20.3515711 27.5711886,20.2149833 C27.6281768,20.1954708 27.723157,20.1759583 27.7801452,20.1564458 L28.5589833,16.8198027 C28.2930386,16.9173654 28.0270939,16.975903 27.7801452,17.0149281 C27.4002242,17.0929782 27.0013071,17.1320033 26.583394,17.1320033 L26.583394,17.1320033 Z" id="t_2_"></path>
                    <polygon id="i_bottom_6_" points="17.0663724 6.16596017 13.7610595 20.4101087 17.5032816 20.4101087 20.7895984 6.16596017"></polygon>
                    <polygon id="i_top_2_" points="21.1885155 4.52690747 21.758397 2.04881588 18.016175 2.04881588 17.4462934 4.52690747"></polygon>
                    <path d="M8.78409416,6.1854727 C9.58192831,6.1854727 10.2847822,6.34157296 10.8736598,6.63426094 C11.4625374,6.92694893 11.9374386,7.31719957 12.3363557,7.82452541 C12.7162767,8.33185125 13.0012175,8.91722721 13.191178,9.58065331 C13.3811385,10.2440794 13.4761188,10.9660431 13.4761188,11.7465444 C13.4761188,12.9368088 13.2671622,14.0490232 12.830253,15.1222124 C12.3933439,16.1758892 11.8234623,17.1124907 11.0826163,17.892992 C10.3417703,18.6734933 9.467952,19.2978943 8.46116129,19.7466826 C7.45437059,20.1954708 6.37159568,20.4296212 5.19384052,20.4296212 C5.04187211,20.4296212 4.77592739,20.4296212 4.39600637,20.4101087 C4.01608535,20.4101087 3.57917618,20.3710836 3.1042749,20.2930335 C2.61037758,20.2149833 2.0974842,20.1174207 1.56559477,19.980833 C1.01470929,19.8442452 0.501815913,19.6491199 0.0269146375,19.4149695 L4.37701032,0.643913562 L8.27120078,0.0195125322 L6.73252065,6.67328601 C7.07444957,6.51718575 7.37838639,6.40011056 7.7203153,6.32206043 C8.04324817,6.22449777 8.40417314,6.1854727 8.78409416,6.1854727 L8.78409416,6.1854727 Z M5.51677339,17.2295659 C6.10565097,17.2295659 6.65653645,17.0929782 7.16942982,16.7807777 C7.6823232,16.4880897 8.13822843,16.0978391 8.51814945,15.6100258 C8.89807047,15.1222124 9.20200728,14.556349 9.41096385,13.9514605 C9.61992041,13.3270595 9.73389671,12.6831459 9.73389671,12.0197198 C9.73389671,11.2001935 9.60092436,10.5562799 9.33497964,10.0879791 C9.06903493,9.61967837 8.51814945,9.40504052 7.79629951,9.40504052 C7.5683469,9.40504052 7.32139823,9.42455305 6.94147721,9.52211571 C6.56155619,9.60016584 6.23862332,9.79529116 5.93468651,10.0684666 L4.30102612,17.1515158 C4.79492345,17.2295659 4.94689185,17.2490785 5.07986421,17.2490785 C5.17484447,17.2295659 5.32681287,17.2295659 5.51677339,17.2295659 L5.51677339,17.2295659 Z" id="b_2_"></path>
                </g>
            </g>
        </g>
    </g>
</svg>