<?xml version="1.0" encoding="UTF-8" standalone="no"?><!DOCTYPE svg PUBLIC "-//W3C//DTD SVG 1.1//EN" "http://www.w3.org/Graphics/SVG/1.1/DTD/svg11.dtd"><svg width="100%" height="100%" viewBox="0 0 24 36" version="1.1" xmlns="http://www.w3.org/2000/svg" xmlns:xlink="http://www.w3.org/1999/xlink" xml:space="preserve" xmlns:serif="http://www.serif.com/" style="fill-rule:evenodd;clip-rule:evenodd;stroke-linejoin:round;stroke-miterlimit:2;"><path id="b_2_" d="M15.545,10.876c1.417,0 2.664,0.275 3.71,0.791c1.045,0.517 1.888,1.205 2.596,2.1c0.675,0.895 1.18,1.927 1.518,3.097c0.337,1.17 0.505,2.444 0.505,3.821c0,2.099 -0.371,4.061 -1.146,5.954c-0.776,1.858 -1.787,3.51 -3.102,4.887c-1.316,1.376 -2.867,2.478 -4.654,3.269c-1.787,0.792 -3.709,1.205 -5.8,1.205c-0.27,0 -0.742,0 -1.416,-0.034c-0.675,0 -1.45,-0.069 -2.293,-0.207c-0.877,-0.138 -1.787,-0.31 -2.732,-0.551c-0.978,-0.241 -1.888,-0.585 -2.731,-0.998l7.722,-33.109l6.913,-1.101l-2.732,11.736c0.607,-0.275 1.147,-0.482 1.754,-0.619c0.573,-0.172 1.214,-0.241 1.888,-0.241Zm-5.8,19.48c1.046,0 2.024,-0.241 2.934,-0.792c0.911,-0.516 1.72,-1.205 2.394,-2.065c0.675,-0.86 1.214,-1.858 1.585,-2.925c0.371,-1.102 0.573,-2.237 0.573,-3.408c0,-1.445 -0.236,-2.581 -0.708,-3.407c-0.472,-0.826 -1.45,-1.205 -2.731,-1.205c-0.405,0 -0.843,0.035 -1.518,0.207c-0.674,0.138 -1.247,0.482 -1.787,0.964l-2.9,12.493c0.877,0.138 1.147,0.172 1.383,0.172c0.168,-0.034 0.438,-0.034 0.775,-0.034Z" style="fill:#fff;"/></svg>