<svg width="400" height="400" viewBox="0 0 400 400" fill="none" xmlns="http://www.w3.org/2000/svg">
<path fill-rule="evenodd" clip-rule="evenodd" d="M159.167 50.8851C155.689 52.7111 154.107 55.3561 152.021 62.8331C146.971 80.9381 145.718 99.3921 148.311 117.467C148.703 120.198 149.318 123.948 149.678 125.8C150.037 127.652 150.332 129.621 150.332 130.176C150.334 131.624 153.432 143.892 154.791 147.833C159.707 162.087 165.613 169.338 172.777 169.913C174.896 170.083 178.333 169.52 178.333 169.003C178.333 168.738 179.949 168.176 180.417 168.279C180.554 168.309 180.634 168.221 180.593 168.083C180.553 167.946 181.007 167.308 181.603 166.667C185.383 162.599 185.155 158.136 181.238 159.501C179.306 160.174 179.456 160.219 176.665 158.133C171.942 154.605 170.868 153.161 168.508 147.167C167.641 144.967 166.79 142.993 166.617 142.78C165.761 141.73 161.455 127.497 160.683 123.167C158.519 111.016 158.108 107.922 157.662 100.405C157.07 90.4351 158.293 75.6101 160.37 67.5791L160.695 66.3241L161.961 67.3421C163.381 68.4831 169.778 75.4281 173.161 79.5001C180.837 88.7421 192.039 105.377 197.841 116.152L199.089 118.47L198.38 122.152C193.532 147.329 194.055 157.775 200.333 161.153C203.242 162.718 204.991 162.58 209.361 160.438C222.193 154.149 223.078 139.106 212.001 115.523L210.29 111.88L211.508 107.357C215.572 92.2561 221.91 80.4291 232.326 68.5081C235.719 64.6251 235.316 64.5581 236.778 69.2501C241.711 85.0761 244.729 106.049 245.068 126.863C245.182 133.822 245.711 132.494 240.537 138.221C222.71 157.948 218.541 173.264 230.513 175.044C243.779 177.018 252.74 163.648 255.188 138.228L255.708 132.833L259.604 129.037C269.077 119.805 279.492 112.942 290.698 108.548C294.825 106.929 301.602 104.824 301.859 105.081C302.105 105.328 300.106 114.557 298.998 118.285C295.014 131.698 282.681 153.522 272.126 165.837C269.371 169.051 269.365 169.087 271.737 168.163C272.89 167.715 275.797 166.722 278.197 165.957L282.56 164.566L285.902 159.866C301.601 137.792 310.125 118.243 313.05 97.6101C313.678 93.1771 312.828 92.7081 306.814 94.1701C289.607 98.3541 274.664 106.244 259.976 118.9L256.119 122.224L255.721 113.362C254.683 90.2451 251.005 70.0731 244.964 54.3571C243.205 49.7801 240.888 50.0671 234.864 55.6051C221.987 67.4431 210.38 84.2071 205.165 98.5001C204.83 99.4171 204.467 100.273 204.358 100.403C204.249 100.533 203.118 98.8831 201.844 96.7371C191.161 78.7381 177.262 62.0021 164.058 51.2371C162.764 50.1831 160.777 50.0401 159.167 50.8851ZM207.271 137.667C209.018 143.138 209.881 150.222 208.919 151.191C208.519 151.594 207.291 150.286 206.549 148.667C205.803 147.038 205.347 138.963 205.822 135.794C206.104 133.912 206.051 133.843 207.271 137.667ZM244.197 147.562C243.101 158.262 240.674 164.333 237.493 164.333C233.243 164.333 235.116 157.34 241.732 148.504C244.56 144.728 244.484 144.757 244.197 147.562Z" fill="#D293B0"/>
<path fill-rule="evenodd" clip-rule="evenodd" d="M90.2325 92.815C87.2475 93.879 84.7775 96.443 84.0175 99.267C82.2485 105.835 99.5705 147.015 108.06 156.426C109.818 158.374 116.376 167.67 116.627 168.569C117.346 171.141 129.938 184.634 135.433 188.719C146.906 197.25 156.151 198.018 163.034 191.011C166.274 187.713 167.322 185.592 166.5 184.001C165.538 182.141 163.001 182.353 160.146 184.532L158.6 185.713L157.293 185.19C156.574 184.902 155.501 184.663 154.909 184.659C152.543 184.641 145.333 180.166 136.312 173.116C135.292 172.319 134.289 171.667 134.084 171.667C132.898 171.667 125.308 161.306 124.804 159C124.536 157.774 123.936 156.735 119.99 150.667C110.932 136.736 103.963 123.119 99.0295 109.71C98.2625 107.625 97.6895 105.866 97.7555 105.8C97.9755 105.58 106.559 108.296 111.393 110.115C123.407 114.636 138.008 122.079 147.926 128.738C150.09 130.191 150.334 130.285 150.169 129.601C149.627 127.352 148.649 121.574 148.13 117.553L147.54 112.988L144.02 111.033C125.009 100.472 96.1595 90.7 90.2325 92.815ZM160.666 121.896C160.666 123.104 163.067 131.951 164.858 137.341L166.689 142.849L169.065 145.332C173.736 150.211 176.797 154.564 177.693 157.603C178.244 159.474 178.931 159.831 180.97 159.309C184.867 158.31 185.811 160.913 183.095 165.167L182.244 166.5L183.302 165.508C190.207 159.033 189.475 148.754 181.405 138.887C176.882 133.355 160.666 120.07 160.666 121.896Z" fill="#640C34"/>
<path fill-rule="evenodd" clip-rule="evenodd" d="M81.8326 156.206C65.6886 157.503 54.4146 160.655 50.6596 164.92C47.8416 168.121 48.0236 169.582 51.7596 173.754C65.1496 188.706 83.1496 202.392 99.3046 209.903L102.443 211.363L98.8996 214.931C88.4506 225.456 84.1356 233.917 78.9896 253.968L78.6126 255.437L72.3896 255.224C46.6626 254.343 23.1596 245.325 17.5156 234.169C14.2726 227.76 18.1726 224.266 26.8306 225.824C28.5966 226.142 30.1016 226.342 30.1756 226.268C30.3896 226.055 24.3696 222.149 22.1666 221.071C8.16361 214.222 -2.79939 223.179 3.64461 236.205C10.7126 250.495 34.5666 259.011 67.8556 259.131L77.8786 259.167L77.2956 262.358C76.3596 267.485 75.0936 275.915 74.0006 284.288C73.4416 288.571 72.5496 294.129 72.0176 296.637C70.1876 305.269 68.2816 312.667 67.8876 312.666C67.6746 312.666 65.0996 312.228 62.1666 311.692C29.2436 305.675 7.13861 314.524 21.5266 327.96C35.0696 340.608 70.7616 340.324 85.0066 327.454L86.2066 326.37L107.354 332.369C146.628 343.512 162.053 346.975 183.833 349.537C213.543 353.032 241.361 348.083 246.011 338.477C247.661 335.068 245.353 334.275 238.244 335.807C230.154 337.551 216.261 338.075 205.167 337.056C187.211 335.406 169.369 332.783 146 328.36C137.004 326.658 93.2936 317.739 93.1266 317.572C93.0766 317.521 93.5446 316.209 94.1666 314.657C95.8746 310.393 96.7196 306.923 99.1536 294.167C102.468 276.801 107.125 257.098 108.16 256.062C108.231 255.992 110.511 255.514 113.228 255C146.337 248.745 167 236.919 168.888 223.145C169.048 221.98 169.245 221.627 169.796 221.522C170.183 221.449 172.607 221.004 175.182 220.534C189.864 217.853 201.216 213.088 229 197.943C270.047 175.568 284.592 170.667 309.937 170.667C318.226 170.667 335.765 172.325 336.634 173.191C337.102 173.656 327.504 185.223 322.041 190.779C313.747 199.215 306.038 204.771 296.983 208.841C279.517 216.691 256.253 218.265 240.198 212.684C236.229 211.305 232.063 213.52 229.974 218.121C228.575 221.201 229.246 222.18 233.742 223.621C258.409 231.522 292.869 224.485 315.14 206.998C328.599 196.43 350 171.025 350 165.615C350 163.554 350.099 163.598 342.65 162.356C308.67 156.695 284.135 160.728 250.667 177.476C246.542 179.541 237.317 184.426 230.167 188.334C199.628 205.022 190.011 208.93 173.51 211.358C167.26 212.277 167.716 212.373 164.923 209.554C156.368 200.918 136.989 198.172 118.999 203.048L116.498 203.726L113.478 202.397C97.4396 195.34 82.5676 185.277 69.5726 172.691C66.6686 169.878 65.4346 168.474 65.7306 168.318C67.6626 167.297 82.8516 166.549 92.6636 166.993C100.687 167.355 115.883 168.555 116.386 168.866C117.159 169.343 116.483 167.902 114.962 165.826C114.024 164.547 112.148 161.903 110.794 159.952C108.923 157.256 108.152 156.401 107.583 156.39C97.8486 156.21 83.0946 156.105 81.8326 156.206ZM124.667 158.763C124.667 160.698 133.271 172.156 134.264 171.543C135.256 170.93 147.069 174.986 150.667 177.176C153.864 179.121 156.955 182.861 156.573 184.321C156.215 185.693 158.461 185.819 160.159 184.523C162.95 182.392 165.527 182.146 166.466 183.921C167.186 185.282 167.505 184.2 167.477 180.5C167.391 169.396 155.604 162.536 130.575 159.022C124.802 158.211 124.667 158.205 124.667 158.763ZM146.917 207.404C150.834 208.845 153.708 212.003 151.095 211.995C147.996 211.985 134.667 209.778 134.065 209.176C133.974 209.085 134.872 208.557 136.06 208.001C139.692 206.301 143.37 206.099 146.917 207.404ZM129.356 220.158C135.162 221.384 142.956 222.317 149.431 222.561L155.046 222.773L154.836 223.637C152.775 232.149 134.954 242.914 112.083 249.463C109.927 250.08 109.895 250.495 112.544 243.593C117.621 230.364 123.535 218.622 124.865 219.133C125.11 219.227 127.131 219.688 129.356 220.158ZM213.164 234.75C213.082 234.979 212.479 237.492 211.824 240.333C211.169 243.175 210.552 245.773 210.454 246.106C210.264 246.744 205.529 246.804 203.781 246.191C202.816 245.852 201.667 247.003 201.667 248.309C201.667 250.006 204.381 251.333 207.85 251.333C209.272 251.333 209.272 251.126 207.859 257.05C205.68 266.181 203.743 277.165 203.157 283.705L202.93 286.243L200.333 287.813C194.477 291.353 188.519 292.325 184.574 290.383C181.309 288.775 181.276 287.25 184.372 281.163C187.074 275.851 187.306 273.989 185.638 271.021C182.395 265.25 172.118 266.452 169.192 272.944L168.641 274.167L161.435 274.059C157.374 273.998 153.018 274.112 151.457 274.32C122.37 278.191 115.019 309.372 140.833 319.38C158.769 326.333 177.934 316.375 181.765 298.112C182.095 296.537 182.235 296.319 182.823 296.463C189.394 298.068 195.322 297.474 202.016 294.54C202.46 294.345 202.59 295.008 202.94 299.24C203.749 309.007 205.688 313.08 211.306 316.815C224.975 325.903 240.934 319.961 255.811 300.246C257.438 298.089 258.828 296.383 258.899 296.454C258.97 296.526 258.711 300.084 258.324 304.362C257.353 315.072 257.982 317.167 262.91 319.634C271.292 323.831 282.712 320.415 292.121 310.897L294.741 308.246L294.511 309.917C293.904 314.331 297.906 318.274 304.324 319.587C316.384 322.054 334.428 310.378 344.339 293.695C346.053 290.811 345.952 290.747 347.597 295.744C350.02 303.108 350.384 304.672 349.73 304.895C343.17 307.131 338.823 309.804 337.532 312.394C333.904 319.676 342.539 326.359 353.874 325.042C366.356 323.591 371.647 318.036 370.316 307.78C370.13 306.343 369.945 304.879 369.905 304.528C369.847 304.01 370.755 303.463 374.711 301.632C392.673 293.322 401.735 284.868 396.974 280.863C394.658 278.914 392.605 279.767 390.874 283.398C389.581 286.11 386.025 289.312 381.388 291.941C378.09 293.811 369.103 298 368.39 298C368.145 298 364.284 286.34 363.312 282.667C361.976 277.614 364.241 271.828 368.205 270.172C371.251 268.899 367.999 265.343 363.783 265.335C361.736 265.332 354.887 266.682 351.934 267.671C343.564 270.475 340.412 275.155 342.447 281.753L342.937 283.34L341.552 285.473C340.79 286.646 339.239 289.082 338.106 290.886C332.071 300.491 322.265 309.898 315.744 312.338C311.718 313.845 311.85 311.062 316.639 293.514C319.682 282.362 319.647 281.921 315.448 278.501C308.465 272.812 301.335 270.951 301.332 274.817C301.329 279.039 298.401 291.548 296.556 295.221C292.307 303.682 286.83 309.84 280.883 312.843C275.537 315.543 275.463 315.428 276.462 306.063C276.742 303.439 277.231 297.423 277.549 292.695L278.126 284.098L277.201 282.208C275.354 278.432 267.553 273.489 262.785 273.073C260.72 272.893 260.808 272.705 260.495 277.98C260.212 282.76 260.411 282.296 255.877 288.747C232.925 321.413 221.749 322.906 222.759 293.172C222.994 286.256 223.993 280.615 226.982 269.309C229.217 260.857 230.667 253.857 230.667 251.517V250.434L234.25 250.22C247.678 249.42 255.415 249.665 260.568 251.053C264.204 252.032 264.705 252.02 265.07 250.941C265.584 249.424 264.825 247.365 263.556 246.835C260.606 245.603 248.615 244.511 241.802 244.856C240.353 244.929 237.352 245.051 235.134 245.127L231.1 245.266L230.547 243.508C228.924 238.36 222.246 234.36 215.24 234.339C213.995 234.335 213.26 234.481 213.164 234.75ZM167.942 281.979C168.56 284.97 170.733 289.005 173.019 291.408C175.278 293.782 175.325 294.008 174.311 297.668C172.82 303.047 169.925 306.788 164.573 310.25C153.53 317.394 145.897 310.119 149.622 296C152.116 286.55 158.755 280.21 166.35 280.028C167.532 280 167.534 280.002 167.942 281.979ZM351.157 313.417C350.614 316.685 349.353 317.771 346.062 317.808C342.319 317.851 343.198 315.856 348.008 313.39C351.389 311.656 351.449 311.656 351.157 313.417ZM48.3416 317.008C52.5026 317.511 64.3876 320.024 64.9496 320.519C65.2326 320.769 63.0236 324.28 61.6006 325.839C54.4556 333.67 35.4036 331.604 34.4216 322.892C33.8696 317.994 38.9016 315.867 48.3416 317.008Z" fill="white"/>
<path fill-rule="evenodd" clip-rule="evenodd" d="M163.499 69C164.215 69.733 164.876 70.333 164.968 70.333C165.059 70.333 164.548 69.733 163.832 69C163.116 68.267 162.455 67.667 162.364 67.667C162.272 67.667 162.783 68.267 163.499 69ZM147.743 114.333C147.743 114.975 147.812 115.237 147.895 114.917C147.979 114.596 147.979 114.071 147.895 113.75C147.812 113.429 147.743 113.692 147.743 114.333ZM148.076 117C148.076 117.642 148.145 117.904 148.229 117.583C148.313 117.263 148.313 116.737 148.229 116.417C148.145 116.096 148.076 116.358 148.076 117ZM178.479 159.482C179.224 160.078 179.951 160.135 180.666 159.651C181.04 159.398 180.943 159.365 180.28 159.518C179.793 159.631 179.043 159.552 178.613 159.343C177.869 158.981 177.863 158.988 178.479 159.482ZM184.222 160.5C184.475 162.148 184.667 162.428 184.661 161.139C184.658 160.604 184.512 159.942 184.337 159.667C184.12 159.326 184.083 159.592 184.222 160.5ZM183.178 164.52C182.335 166.085 180.453 167.978 179.195 168.526C178.629 168.772 178.406 168.98 178.699 168.987C179.98 169.018 184.614 164.171 183.944 163.5C183.866 163.423 183.522 163.882 183.178 164.52Z" fill="#863456"/>
</svg>
