<?xml version="1.0" encoding="utf-8"?>
<!-- Generator: Adobe Illustrator 21.0.0, SVG Export Plug-In . SVG Version: 6.00 Build 0)  -->
<svg version="1.1" xmlns="http://www.w3.org/2000/svg" xmlns:xlink="http://www.w3.org/1999/xlink" x="0px" y="0px"
	 viewBox="0 0 92.8 92.8" style="enable-background:new 0 0 92.8 92.8;" xml:space="preserve">
<style type="text/css">
	.st0{fill:#DD4B39;}
</style>
<path class="st0" d="M46.4,0C20.8,0,0,20.8,0,46.4C0,72,20.8,92.8,46.4,92.8C72,92.8,92.8,72,92.8,46.4C92.8,20.8,72,0,46.4,0z
	 M39.8,64.5c-9.9,0-18-8.1-18-18.1c0-10,8.1-18.1,18-18.1c4.7,0,8.9,1.8,12.1,4.7c-3.8,3.6-3.6,3.8-5.1,5.3c-1.8-1.5-3.9-2.6-7-2.6
	c-5.9,0-10.5,4.8-10.5,10.8c0,5.9,4.6,10.8,10.5,10.8c5.8,0,8.2-2.5,9.7-7.2c-2.8,0-9.7,0-9.7,0v-7.2h17.3
	C58.3,51.5,54.7,64.5,39.8,64.5z M78.5,47.7h-6.2v6.5h-4.5v-6.5h-6.4v-4.5h6.4v-6.3h4.5v6.3h6.2V47.7z"/>
</svg>
