<?xml version="1.0" encoding="utf-8"?>
<!-- Generator: Adobe Illustrator 21.0.0, SVG Export Plug-In . SVG Version: 6.00 Build 0)  -->
<svg version="1.1" xmlns="http://www.w3.org/2000/svg" xmlns:xlink="http://www.w3.org/1999/xlink" x="0px" y="0px"
	 viewBox="0 0 92.8 92.8" style="enable-background:new 0 0 92.8 92.8;" xml:space="preserve">
<style type="text/css">
	.st0{fill:#4A90E2;}
	.st1{fill:#93C8F4;}
	.st2{fill:#FFFFFF;}
</style>
<circle class="st0" cx="46.4" cy="46.4" r="46.4"/>
<path class="st1" d="M68.2,52.2c0-7.3-7.9-13.3-17.7-13.3c-9.7,0-17.7,6-17.7,13.3s7.9,13.3,17.7,13.3c1.2,0,2.3-0.1,3.4-0.3
	l8.6,4.2c0.1,0.1,0.3,0.1,0.5,0.1c0.2,0,0.4-0.1,0.5-0.2c0.3-0.2,0.5-0.5,0.5-0.9v-7.8C66.7,58.4,68.2,55.5,68.2,52.2z"/>
<path class="st2" d="M42.3,24.6c-12,0-21.8,7.8-21.8,17.4c0,3.7,1.4,7.2,4.2,10.2v10.3c0,0.4,0.2,0.7,0.5,0.9
	c0.2,0.1,0.4,0.2,0.5,0.2c0.2,0,0.3,0,0.5-0.1l9.7-4.8c2.1,0.5,4.3,0.8,6.5,0.8c12,0,21.8-7.8,21.8-17.4
	C64.1,32.4,54.3,24.6,42.3,24.6z"/>
</svg>
