<?xml version="1.0" encoding="utf-8"?>
<!-- Generator: Adobe Illustrator 21.0.0, SVG Export Plug-In . SVG Version: 6.00 Build 0)  -->
<svg version="1.1" xmlns="http://www.w3.org/2000/svg" xmlns:xlink="http://www.w3.org/1999/xlink" x="0px" y="0px"
	 viewBox="0 0 92.8 92.8" style="enable-background:new 0 0 92.8 92.8;" xml:space="preserve">
<style type="text/css">
	.st0{fill:#3ACE01;}
</style>
<g>
	<path class="st0" d="M47.8,26.5c-10.9,0-19.8,8.9-19.8,19.7c0,3.7,1,7.4,3,10.5l0.5,0.7l-2,7.3l7.5-2l0.7,0.4
		c3,1.8,6.5,2.8,10.1,2.8h0c10.9,0,19.7-8.9,19.8-19.7c0-5.3-2.1-10.2-5.8-14C58.1,28.6,53.1,26.6,47.8,26.5z M59.5,54.8
		c-0.5,1.4-2.9,2.7-4,2.8c-1,0.2-2.3,0.2-3.7-0.2c-0.9-0.3-2-0.6-3.4-1.3c-6-2.6-9.8-8.6-10.1-9c-0.3-0.4-2.4-3.2-2.4-6.1
		c0-2.9,1.5-4.4,2.1-5c0.5-0.6,1.2-0.7,1.6-0.7c0.4,0,0.8,0,1.1,0c0.4,0,0.9-0.1,1.3,1c0.5,1.2,1.7,4.1,1.8,4.4
		c0.1,0.3,0.2,0.6,0.1,1c-0.2,0.4-0.3,0.6-0.6,1c-0.3,0.3-0.6,0.8-0.9,1C42,44.1,41.7,44.5,42,45c0.3,0.6,1.5,2.5,3.3,4.1
		c2.3,2,4.2,2.6,4.8,2.9s0.9,0.2,1.3-0.1c0.3-0.4,1.5-1.7,1.9-2.3c0.4-0.6,0.8-0.5,1.3-0.3c0.5,0.2,3.5,1.6,4.1,1.9
		c0.6,0.3,1,0.4,1.1,0.7C59.9,52.2,59.9,53.4,59.5,54.8z"/>
	<path class="st0" d="M46.4,0C20.8,0,0,20.8,0,46.4C0,72,20.8,92.8,46.4,92.8S92.8,72,92.8,46.4C92.8,20.8,72,0,46.4,0z M47.8,70.1
		L47.8,70.1c-4,0-7.9-1-11.4-2.9l-12.6,3.3l3.4-12.3c-2.1-3.6-3.2-7.7-3.2-11.9c0-13.1,10.7-23.8,23.8-23.8c6.4,0,12.3,2.5,16.8,7
		c4.5,4.5,7,10.5,7,16.8C71.6,59.4,60.9,70.1,47.8,70.1z"/>
</g>
</svg>
