<?xml version="1.0" encoding="utf-8"?>
<!-- Generator: Adobe Illustrator 21.0.0, SVG Export Plug-In . SVG Version: 6.00 Build 0)  -->
<svg version="1.1" xmlns="http://www.w3.org/2000/svg" xmlns:xlink="http://www.w3.org/1999/xlink" x="0px" y="0px"
	 viewBox="0 0 92.8 92.8" style="enable-background:new 0 0 92.8 92.8;" xml:space="preserve">
<style type="text/css">
	.st0{fill:#1DA1F2;}
</style>
<path class="st0" d="M46.4,0C20.8,0,0,20.8,0,46.4s20.8,46.4,46.4,46.4S92.8,72,92.8,46.4S72,0,46.4,0z M64.3,37.2v1.2
	c0,12.2-9.3,26.3-26.3,26.3c-5.2,0-10.1-1.1-14.2-3.8c0.7,0.1,1.5,0.2,2.2,0.2c4.3,0,8.3-1.9,11.5-4.4c-4,0-7.5-2.8-8.6-6.4
	c0.6,0.1,1.1,0.2,1.7,0.2c0.8,0,1.7-0.1,2.5-0.3c-4.2-0.8-7.4-4.6-7.4-9.1V41c1.3,0.7,2.7,1.1,4.2,1.1c-2.5-1.7-4.1-4.5-4.1-7.7
	c0-1.7,0.5-3.1,1.3-4.5c4.6,5.6,11.4,9.1,19,9.5c-0.2-0.7-0.2-1.4-0.2-2.1c0-5.1,4.1-9.2,9.2-9.2c2.7,0,5.1,1.1,6.8,2.9
	c2.1-0.4,4.1-1.2,5.8-2.2c-0.7,2.2-2.1,4-4.1,5.1c1.9-0.2,3.6-0.7,5.3-1.5C67.7,34.3,66.1,35.9,64.3,37.2z"/>
</svg>
