<?xml version="1.0" encoding="UTF-8"?>
<svg width="15px" height="24px" viewBox="0 0 15 24" version="1.1" xmlns="http://www.w3.org/2000/svg" xmlns:xlink="http://www.w3.org/1999/xlink">
    <title>Group 4</title>
    <g id="Transact" stroke="none" stroke-width="1" fill="none" fill-rule="evenodd">
        <g id="Settings---Logged-In" transform="translate(-22.000000, -489.000000)" fill="#9BA3AE" fill-rule="nonzero">
            <g id="Group-4" transform="translate(22.000000, 489.000000)">
                <path d="M13.5409305,12.4731508 C12.8028045,12.5073561 12.4369089,12.9728521 12.2727973,13.2879839 C12.2374272,13.3558922 12.1402321,13.3361357 12.1253299,13.2609433 C11.9977825,12.6167332 11.4907624,12.062893 10.8340093,12.062893 C9.94781891,12.062893 9.55868672,12.655859 9.39774448,13.0511656 C9.367245,13.1261109 9.25856656,13.113445 9.24216767,13.0341515 C9.13611061,12.5215825 8.81894133,11.6472865 7.88946772,11.6472865 C7.16145101,11.6472865 6.77291589,12.1246948 6.58441861,12.4910461 C6.54487725,12.5678237 6.43118099,12.542739 6.43118099,12.4562355 C6.43118099,11.1634875 6.43118099,7.39248778 6.43118099,5.75623739 C6.43118099,4.97586073 5.85082792,4.27816645 5.07683297,4.23732762 C4.25139622,4.19379584 3.56853167,4.85484718 3.56853167,5.6764662 L3.56853167,15.7647039 C3.56853167,15.992101 3.38542435,16.1764687 3.15958177,16.1764687 C2.93373919,16.1764687 2.75063187,15.992101 2.75063187,15.7647039 L2.75063187,14.1176447 L1.93273206,14.1176447 C1.25515933,14.1176447 0.705882353,14.6707025 0.705882353,15.3529391 L0.705882353,18.2352941 C0.705882353,20.1568467 3.56853167,22.4215532 3.56853167,24 L13.3833293,24 L14.8104623,13.9413188 C14.9206865,13.164508 14.3194402,12.4370596 13.5409305,12.4731508 Z" id="Path"></path>
                <path d="M2.76705882,9.88235294 L2.76705882,6.03998515 C2.76705882,4.77670768 3.74255379,3.7489563 4.94137016,3.7489563 C4.97978089,3.7489563 5.01819162,3.74997268 5.05698579,3.75220956 C6.21121299,3.815871 7.11529412,4.85623137 7.11529412,6.1207335 L7.11529412,9.88235294 C8.79483558,9.01930155 9.88235294,7.22523851 9.88235294,5.20688791 C9.88235294,2.33577473 7.6657728,5.41788836e-14 4.94117647,5.41788836e-14 C2.21658014,5.41788836e-14 5.32907052e-14,2.33577473 5.32907052e-14,5.20688375 C5.32907052e-14,7.22483029 1.08758852,9.01914742 2.76705882,9.88235294 Z" id="Path"></path>
            </g>
        </g>
    </g>
</svg>