<?xml version="1.0" encoding="UTF-8"?>
<svg width="20px" height="20px" viewBox="0 0 20 20" version="1.1" xmlns="http://www.w3.org/2000/svg" xmlns:xlink="http://www.w3.org/1999/xlink">
    <!-- Generator: Sketch 54.1 (76490) - https://sketchapp.com -->
    <title>Oval 5</title>
    <desc>Created with Sketch.</desc>
    <g id="Page-1" stroke="none" stroke-width="1" fill="none" fill-rule="evenodd">
        <g id="Wallet/Small/Network-" fill="#9BA3AE">
            <g id="hierarchy-55">
                <path d="M10,5 C8.61928813,5 7.5,3.88071187 7.5,2.5 C7.5,1.11928813 8.61928813,0 10,0 C11.3807119,0 12.5,1.11928813 12.5,2.5 C12.5,3.88071187 11.3807119,5 10,5 Z M2.5,20 C1.11928813,20 0,18.8807119 0,17.5 C0,16.1192881 1.11928813,15 2.5,15 C3.88071187,15 5,16.1192881 5,17.5 C5,18.8807119 3.88071187,20 2.5,20 Z M10,20 C8.61928813,20 7.5,18.8807119 7.5,17.5 C7.5,16.1192881 8.61928813,15 10,15 C11.3807119,15 12.5,16.1192881 12.5,17.5 C12.5,18.8807119 11.3807119,20 10,20 Z M17.5,20 C16.1192881,20 15,18.8807119 15,17.5 C15,16.1192881 16.1192881,15 17.5,15 C18.8807119,15 20,16.1192881 20,17.5 C20,18.8807119 18.8807119,20 17.5,20 Z M3.33333333,10.8333333 L3.33333333,13.3333333 L1.66666667,13.3333333 L1.66666667,10 C1.66666667,9.53916667 2.04,9.16666667 2.5,9.16666667 L9.16666667,9.16666667 L9.16666667,6.66666667 L10.8333333,6.66666667 L10.8333333,9.16666667 L17.5,9.16666667 C17.96,9.16666667 18.3333333,9.53916667 18.3333333,10 L18.3333333,13.3333333 L16.6666667,13.3333333 L16.6666667,10.8333333 L10.8333333,10.8333333 L10.8333333,13.3333333 L9.16666667,13.3333333 L9.16666667,10.8333333 L3.33333333,10.8333333 Z" id="Oval-5"></path>
            </g>
        </g>
    </g>
</svg>