<?xml version="1.0" encoding="UTF-8"?>
<svg width="20px" height="20px" viewBox="0 0 20 20" version="1.1" xmlns="http://www.w3.org/2000/svg" xmlns:xlink="http://www.w3.org/1999/xlink">
    <!-- Generator: Sketch 54.1 (76490) - https://sketchapp.com -->
    <title>Wallet/Small/Currency </title>
    <desc>Created with Sketch.</desc>
    <g id="Wallet/Small/Currency-" stroke="none" stroke-width="1" fill="none" fill-rule="evenodd">
        <g id="round-dollar" fill="#9BA3AE">
            <path d="M10,0 C4.48583333,0 0,4.48583333 0,10 C0,15.5141667 4.48583333,20 10,20 C15.5141667,20 20,15.5141667 20,10 C20,4.48583333 15.5141667,0 10,0 Z M13.4433333,11.9591667 C13.4433333,13.25 12.8133333,13.9633333 12.2841667,14.335 C11.87,14.6258333 11.3708333,14.7991667 10.8333333,14.8991667 L10.8333333,16.6666667 L9.16666667,16.6666667 L9.16666667,14.9691667 C8.2075,14.8966667 7.22916667,14.6683333 6.38333333,14.3633333 L5.6,14.0808333 L6.16583333,12.5133333 L6.95,12.7966667 C7.71666667,13.0733333 8.47833333,13.2383333 9.16666667,13.3016667 L9.16666667,10.3775 C7.8425,9.9025 6.37333333,9.16083333 6.37333333,7.27583333 C6.37333333,6.33583333 6.80916667,5.56 7.60166667,5.09166667 C8.05333333,4.825 8.59666667,4.68083333 9.16666667,4.61333333 L9.16666667,3.33333333 L10.8333333,3.33333333 L10.8333333,4.62583333 C11.8141667,4.74 12.7125,5.00916667 13.2133333,5.28583333 L13.9441667,5.68666667 L13.1416667,7.1475 L12.4116667,6.74583333 C12.0508333,6.5475 11.4616667,6.38583333 10.8333333,6.29833333 L10.8333333,9.185 C12.1066667,9.635 13.4433333,10.2866667 13.4433333,11.9591667 Z M8.45083333,6.5275 C8.16333333,6.6975 8.04,6.92083333 8.04,7.27583333 C8.04,7.90666667 8.3975,8.25083333 9.16666667,8.585 L9.16666667,6.29666667 C8.89333333,6.34416667 8.64166667,6.41416667 8.45083333,6.5275 Z M11.3266667,12.97 C11.52,12.8341667 11.7766667,12.5825 11.7766667,11.9583333 C11.7766667,11.515 11.4758333,11.2491667 10.8333333,10.9741667 L10.8333333,13.19 C11.0208333,13.1325 11.1933333,13.0641667 11.3266667,12.97 Z" id="Shape"></path>
        </g>
    </g>
</svg>