<?xml version="1.0" encoding="UTF-8"?>
<svg width="20px" height="20px" viewBox="0 0 20 20" version="1.1" xmlns="http://www.w3.org/2000/svg" xmlns:xlink="http://www.w3.org/1999/xlink">
    <!-- Generator: Sketch 54.1 (76490) - https://sketchapp.com -->
    <title>Generic/Small/Language </title>
    <desc>Created with Sketch.</desc>
    <g id="Generic/Small/Language-" stroke="none" stroke-width="1" fill="none" fill-rule="evenodd">
        <g id="translation" transform="translate(0.000000, 1.000000)" fill="#9BA3AE">
            <path d="M14.1666667,9.95 C14.0777778,10.2977778 13.8216667,11.1563889 13.3983333,12.5258333 L14.9483333,12.5258333 C14.5488889,11.2430556 14.3244444,10.5175 14.275,10.3491667 C14.2266667,10.1816667 14.19,10.0483333 14.1666667,9.95 Z" id="Path"></path>
            <path d="M18.3333333,6.66666667 L10,6.66666667 C9.07952542,6.66666667 8.33333333,7.41285875 8.33333333,8.33333333 L8.33333333,15.8333333 C8.33333333,16.7538079 9.07952542,17.5 10,17.5 L15,17.5 L18.3333333,20 L18.3333333,17.5 C19.2538079,17.5 20,16.7538079 20,15.8333333 L20,8.33333333 C20,7.41285875 19.2538079,6.66666667 18.3333333,6.66666667 Z M15.6825,15 L15.25,13.5833333 L13.0833333,13.5833333 L12.6508333,15 L11.2916667,15 L13.3916667,9.02666667 L14.9333333,9.02666667 L17.0416667,15 L15.6825,15 Z" id="Shape"></path>
            <path d="M10,0 L1.66666667,0 C0.746192084,-5.63628126e-17 1.12725625e-16,0.746192084 0,1.66666667 L0,9.16666667 C1.12725625e-16,10.0871412 0.746192084,10.8333333 1.66666667,10.8333333 L1.66666667,13.3333333 L5,10.8333333 L7.5,10.8333333 L7.5,8.33333333 C7.50346371,8.22352314 7.51460199,8.11408957 7.53333333,8.00583333 C6.94753428,7.77518101 6.3922694,7.47347963 5.88,7.1075 C5.07291263,7.66508843 4.17595454,8.07974128 3.22833333,8.33333333 C3.08545237,7.90593886 2.86884926,7.50685891 2.58833333,7.15416667 C3.42162054,7.00340801 4.22205327,6.7078289 4.95333333,6.28083333 C4.61595675,5.9128819 4.32720824,5.50314468 4.09416667,5.06166667 C3.90159276,4.69899429 3.74742314,4.31720107 3.63416667,3.9225 C3.24166667,3.9225 3.015,3.93583333 2.68166667,3.9625 L2.68166667,2.75666667 C3.00241481,2.79118229 3.32491835,2.80676486 3.6475,2.80333333 L5.12083333,2.80333333 L5.12083333,2.40333333 C5.1216244,2.26344915 5.10822245,2.12384555 5.08083333,1.98666667 L6.41666667,1.98666667 C6.38979509,2.12026637 6.37639465,2.25622495 6.37666667,2.3925 L6.37666667,2.79916667 L7.96,2.79916667 C8.28258453,2.80275204 8.60509716,2.78716903 8.92583333,2.7525 L8.92583333,3.9625 C8.6325,3.93583333 8.3725,3.9225 7.98,3.9225 C7.88747865,4.36877367 7.73703841,4.80104422 7.5325,5.20833333 C7.33512932,5.60075878 7.08626557,5.96508634 6.7925,6.29166667 C7.17748501,6.51870269 7.58742921,6.70046513 8.01416667,6.83333333 C8.48218843,6.20645924 9.21769064,5.83608465 10,5.83333333 L11.6666667,5.83333333 L11.6666667,1.66666667 C11.6666667,0.746192084 10.9204746,5.63628126e-17 10,0 Z" id="Path"></path>
            <path d="M5.84666667,5.535 C6.25201586,5.07365713 6.53813752,4.52001172 6.68,3.9225 L4.91666667,3.9225 C5.08825154,4.52876262 5.40783124,5.08287258 5.84666667,5.535 Z" id="Path"></path>
        </g>
    </g>
</svg>