<?xml version="1.0" encoding="UTF-8"?>
<svg width="20px" height="20px" viewBox="0 0 20 20" version="1.1" xmlns="http://www.w3.org/2000/svg" xmlns:xlink="http://www.w3.org/1999/xlink">
    <!-- Generator: Sketch 54.1 (76490) - https://sketchapp.com -->
    <title>Wallet/Small/Notifications </title>
    <desc>Created with Sketch.</desc>
    <g id="Wallet/Small/Notifications-" stroke="none" stroke-width="1" fill="none" fill-rule="evenodd">
        <g id="alarm" transform="translate(1.000000, 0.000000)" fill="#9BA3AE">
            <path d="M9.3908351,19.8253242 C8.72779447,20.0933408 7.99804853,20.0515993 7.36214008,19.7092827 C6.72623162,19.3669661 6.2362535,18.7521166 6,18 L11,18 C10.7324666,18.8516712 10.1416493,19.521853 9.3908351,19.8253242 Z M16.8770687,15.7093128 C17.0359948,15.9718184 17.0411664,16.2996182 16.8906003,16.5670091 C16.7400342,16.8344 16.4570981,16.9998832 16.150291,17 L0.849708969,17 C0.542901898,16.9998832 0.259965833,16.8344 0.109399735,16.5670091 C-0.0411663622,16.2996182 -0.035994775,15.9718184 0.122931321,15.7093128 C1.13129034,14.0423324 1.67569467,12.1359776 1.69974131,10.1877563 L1.69974131,6.80204061 C1.69974131,3.04537731 4.74432083,-2.30093361e-16 8.5,0 C12.2556792,2.30093361e-16 15.3002587,3.04537731 15.3002587,6.80204061 L15.3002587,10.1928579 C15.3251708,12.1393488 15.8695449,14.0438364 16.8770687,15.7093128 Z" id="Path-2"></path>
        </g>
    </g>
</svg>