<?xml version="1.0" encoding="UTF-8"?>
<svg width="20px" height="20px" viewBox="0 0 20 20" version="1.1" xmlns="http://www.w3.org/2000/svg" xmlns:xlink="http://www.w3.org/1999/xlink">
    <!-- Generator: Sketch 54.1 (76490) - https://sketchapp.com -->
    <title>Wallet/Small/Help </title>
    <desc>Created with Sketch.</desc>
    <g id="Wallet/Small/Help-" stroke="none" stroke-width="1" fill="none" fill-rule="evenodd">
        <g id="contacts-2" transform="translate(16.000000, 9.000000)"></g>
        <path d="M13.3333333,0 L0,0 L0,20 L13.3333333,20 C14.7116667,20 15.8333333,18.8783333 15.8333333,17.5 L15.8333333,2.5 C15.8333333,1.12166667 14.7116667,0 13.3333333,0 Z M7.91666667,5 C9.0675,5 10,5.9325 10,7.08333333 C10,8.23416667 9.0675,9.16666667 7.91666667,9.16666667 C6.76583333,9.16666667 5.83333333,8.23416667 5.83333333,7.08333333 C5.83333333,5.9325 6.76583333,5 7.91666667,5 Z M11.6666667,14.1666667 L4.16666667,14.1666667 L4.16666667,12.8158333 C4.16666667,12.0733333 4.65416667,11.4241667 5.36666667,11.2141667 C6.02916667,11.0183333 6.91916667,10.8333333 7.91666667,10.8333333 C8.91416667,10.8333333 9.80416667,11.0183333 10.4666667,11.2141667 C11.1791667,11.4241667 11.6666667,12.0733333 11.6666667,12.8158333 L11.6666667,14.1666667 Z M16.6666667,3.33333333 L19.1666667,3.33333333 L19.1666667,7.5 L16.6666667,7.5 L16.6666667,3.33333333 Z M16.6666667,9.16666667 L19.1666667,9.16666667 L19.1666667,13.3333333 L16.6666667,13.3333333 L16.6666667,9.16666667 Z" id="Shape" fill="#9BA3AE"></path>
    </g>
</svg>