<?xml version="1.0" encoding="UTF-8"?>
<svg width="20px" height="20px" viewBox="0 0 20 20" version="1.1" xmlns="http://www.w3.org/2000/svg" xmlns:xlink="http://www.w3.org/1999/xlink">
    <!-- Generator: Sketch 54.1 (76490) - https://sketchapp.com -->
    <title>Generic/Small/Info </title>
    <desc>Created with Sketch.</desc>
    <g id="Generic/Small/Info-" stroke="none" stroke-width="1" fill="none" fill-rule="evenodd">
        <g id="c-info" fill="#9BA3AE">
            <path d="M10,0 C4.48583333,0 0,4.48583333 0,10 C0,15.5141667 4.48583333,20 10,20 C15.5141667,20 20,15.5141667 20,10 C20,4.48583333 15.5141667,0 10,0 Z M12.215,15.2366667 C11.6641667,15.4533333 9.755,16.365 8.655,15.3958333 C8.32666667,15.1075 8.16333333,14.7416667 8.16333333,14.2975 C8.16333333,13.4658333 8.43666667,12.7408333 8.92916667,11 C9.01583333,10.6708333 9.12166667,10.2441667 9.12166667,9.90583333 C9.12166667,9.32166667 8.9,9.16666667 8.29916667,9.16666667 C8.00583333,9.16666667 7.68083333,9.27083333 7.38666667,9.38083333 L7.54916667,8.715 C8.205,8.44833333 9.02833333,8.12333333 9.73333333,8.12333333 C10.7908333,8.12333333 11.5691667,8.65083333 11.5691667,9.65416667 C11.5691667,9.94333333 11.5191667,10.45 11.4141667,10.8 L10.8058333,12.9516667 C10.68,13.3866667 10.4525,14.3458333 10.805,14.63 C11.1516667,14.9108333 11.9725,14.7616667 12.3775,14.5708333 L12.215,15.2366667 Z M11.21,6.66666667 C10.52,6.66666667 9.96,6.10666667 9.96,5.41666667 C9.96,4.72666667 10.52,4.16666667 11.21,4.16666667 C11.9,4.16666667 12.46,4.72666667 12.46,5.41666667 C12.46,6.10666667 11.9,6.66666667 11.21,6.66666667 Z" id="Shape"></path>
        </g>
    </g>
</svg>