<?xml version="1.0" encoding="UTF-8"?>
<svg width="21px" height="21px" viewBox="0 0 21 21" version="1.1" xmlns="http://www.w3.org/2000/svg" xmlns:xlink="http://www.w3.org/1999/xlink">
    <!-- Generator: Sketch 58 (84663) - https://sketch.com -->
    <title>Artboard Copy 5</title>
    <desc>Created with Sketch.</desc>
    <g id="Artboard-Copy-5" stroke="none" stroke-width="1" fill="none" fill-rule="evenodd">
        <circle id="Oval" stroke="#CDD1D7" cx="10.5" cy="10.5" r="10"></circle>
        <g id="key" transform="translate(4.475945, 4.671714)" fill="#CDD1D7">
            <path d="M11.800061,0 L9.40079276,0 C9.34831236,0.000274069846 9.29804384,0.0211716817 9.26083545,0.0581830101 L4.44630389,4.85198318 C2.87114776,4.48359046 1.24269967,5.20453432 0.456530215,6.61832922 C-0.329639237,8.03212412 -0.082847983,9.79586011 1.06118028,10.9395645 C2.20520855,12.083269 3.96899462,12.3295412 5.38253831,11.5429429 C6.79608201,10.7563447 7.51653429,9.12766202 7.14767996,7.55259458 L7.94423701,6.7378325 C7.98080851,6.7004301 8.00126541,6.65018442 8.00121963,6.59787337 L8.00121963,5.19828206 L9.40079276,5.19828206 C9.51121603,5.19828206 9.60073178,5.10876515 9.60073178,4.99834044 L9.60073178,3.59874914 L11.0003049,3.59874914 C11.0533277,3.59873781 11.1041747,3.57766517 11.1416618,3.54016624 L11.9414179,2.74039978 C11.9789163,2.70291218 12,2.65206454 12,2.59904106 L12,0.199741674 C12,0.0893950589 11.9104062,0 11.800061,0 Z M3.3026527,9.79713915 C2.69532471,9.79713915 2.2029881,9.30479615 2.2029881,8.69746027 C2.2029881,8.09012439 2.69532471,7.59778138 3.3026527,7.59778138 C3.90998069,7.59778138 4.4023173,8.09012439 4.4023173,8.69746027 C4.4023173,9.30479615 3.90998069,9.79713915 3.3026527,9.79713915 L3.3026527,9.79713915 Z" id="Shape"></path>
        </g>
        <path d="M3.5,3.5 L7.5,7.5" id="Line-5" stroke="#CDD1D7" stroke-linecap="square"></path>
        <path d="M13.5,13.5 L17.5,17.5" id="Line-5" stroke="#CDD1D7" stroke-linecap="square"></path>
    </g>
</svg>