<svg width="45" height="43" viewBox="0 0 45 43" xmlns="http://www.w3.org/2000/svg"><g class="nc-icon-wrapper" fill="#444444"><title>art</title><g transform="translate(-140 -203) translate(140 203) translate(.5 .5)" stroke="#444444" stroke-width="1" fill="none" fill-rule="evenodd"><path d="M0 20C0 12.6 3.7 6 9.3 2 11.4.6 14.6.3 16 2c1.9 2.5-1.5 6 0 8 3.9 4.8 12.2-4.7 22 0 7 3.5 6 12.7 5.2 16-2.6 9.2-11.1 16-21.2 16C9.8 42 0 32.2 0 20z"></path><circle cx="32" cy="20" r="4"></circle><circle cx="8" cy="20" r="2"></circle><circle cx="13" cy="30" r="2"></circle><circle cx="24" cy="34" r="2"></circle></g></g></svg>