<?xml version="1.0" encoding="UTF-8" standalone="no"?>
<svg width="45px" height="43px" viewBox="0 0 45 43" version="1.1" xmlns="http://www.w3.org/2000/svg" xmlns:xlink="http://www.w3.org/1999/xlink">
    <!-- Generator: Sketch 3.7.2 (28276) - http://www.bohemiancoding.com/sketch -->
    <title>art</title>
    <desc>Created with Sketch.</desc>
    <defs></defs>
    <g id="Page-1" stroke="none" stroke-width="1" fill="none" fill-rule="evenodd">
        <g id="-Transaction-icons" transform="translate(-140.000000, -203.000000)" stroke="#9B9BAB">
            <g id="art" transform="translate(140.000000, 203.000000)">
                <g id="Group" transform="translate(0.500000, 0.500000)">
                    <path d="M0,20 C0,12.6 3.7,6 9.3,2 C11.4,0.6 14.6,0.3 16,2 C17.9,4.5 14.5,8 16,10 C19.9,14.8 28.2,5.3 38,10 C45,13.5 44,22.7 43.2,26 C40.6,35.2 32.1,42 22,42 C9.8,42 0,32.2 0,20 L0,20 Z" id="Shape"></path>
                    <circle id="Oval" cx="32" cy="20" r="4"></circle>
                    <circle id="Oval" cx="8" cy="20" r="2"></circle>
                    <circle id="Oval" cx="13" cy="30" r="2"></circle>
                    <circle id="Oval" cx="24" cy="34" r="2"></circle>
                </g>
            </g>
        </g>
    </g>
</svg>