<?xml version="1.0" encoding="UTF-8" standalone="no"?>
<svg width="41px" height="41px" viewBox="0 0 41 41" version="1.1" xmlns="http://www.w3.org/2000/svg" xmlns:xlink="http://www.w3.org/1999/xlink">
    <!-- Generator: Sketch 3.7.2 (28276) - http://www.bohemiancoding.com/sketch -->
    <title>bitcoin-topup</title>
    <desc>Created with Sketch.</desc>
    <defs></defs>
    <g id="Page-1" stroke="none" stroke-width="1" fill="none" fill-rule="evenodd">
        <g id="-Transaction-icons" transform="translate(-1113.000000, -1082.000000)" stroke="#9B9BAB">
            <g id="bitcoin-topup" transform="translate(1113.000000, 1082.000000)">
                <g id="Group" transform="translate(0.500000, 0.500000)">
                    <path d="M40,20 C40,31 31,40 20,40 C9,40 0,31 0,20 C0,9 9,0 20,0 C27.9,0 34.8,4.6 38,11.3" id="Shape"></path>
                    <polyline id="Shape" points="39 4 38 11.2 32 10.4"></polyline>
                </g>
                <g id="top-up" transform="translate(8.000000, 6.000000)">
                    <g id="shopping-48px-outline_bitcoin" transform="translate(4.000000, 2.000000)">
                        <g id="Group" transform="translate(0.285714, 0.288889)">
                            <path d="M5.71428571,0 L5.71428571,3.46666667" id="Shape"></path>
                            <path d="M8,0 L8,3.46666667" id="Shape"></path>
                            <path d="M5.71428571,21.9555556 L5.71428571,25.4222222" id="Shape"></path>
                            <path d="M8,21.9555556 L8,25.4222222" id="Shape"></path>
                            <path d="M0,21.9555556 L3.42857143,21.9555556" id="Shape-Copy"></path>
                            <path d="M0,3.46666667 L3.42857143,3.46666667" id="Shape-Copy-2"></path>
                            <path d="M3.42857143,11.5555556 L3.42857143,3.46666667 L10.0634921,3.46666667 C12.415873,3.46666667 14.2857143,5.25777778 14.2857143,7.51111111 C14.2857143,9.76444444 12.415873,11.5555556 10.0634921,11.5555556" id="Shape"></path>
                            <path d="M3.42857143,21.9555556 L3.42857143,11.5555556 L10.9285714,11.5555556 C13.4285714,11.5555556 15.4285714,13.8666667 15.4285714,16.7555556 C15.4285714,19.6444444 13.4285714,21.9555556 10.9285714,21.9555556 L3.42857143,21.9555556 Z" id="Shape"></path>
                        </g>
                    </g>
                </g>
            </g>
        </g>
    </g>
</svg>