<svg width="46" height="39" viewBox="0 0 46 39" xmlns="http://www.w3.org/2000/svg"><g class="nc-icon-wrapper" fill="#444444"><title>car</title><g stroke="#444444" stroke-width="1" fill="none" fill-rule="evenodd"><path d="M39.21 14.654l-1.291-8.683A7 7 0 0 0 30.995 0H12.571a7 7 0 0 0-6.924 5.97l-1.29 8.684" transform="translate(1 1)"></path><path d="M10.892 29.308v2.97a4.357 4.357 0 1 1-8.713 0v-2.97" stroke-linecap="square" transform="translate(1 1)"></path><path d="M40.821 29.308v2.97a4.357 4.357 0 0 1-8.713 0v-2.97" stroke-linecap="square" transform="translate(1 1)"></path><path d="M43.566 29.308H0v-7.265a8 8 0 0 1 2.851-6.123l1.506-1.266H39.21l1.505 1.266a8 8 0 0 1 2.851 6.123v7.265z" stroke-linecap="square" transform="translate(1 1)"></path><path d="M8.713 21h4.357" stroke-linecap="square" transform="translate(1 1)"></path><path d="M30.496 21h4.357" stroke-linecap="square" transform="translate(1 1)"></path></g></g></svg>