<?xml version="1.0" encoding="UTF-8" standalone="no"?>
<svg width="46px" height="41px" viewBox="0 0 46 41" version="1.1" xmlns="http://www.w3.org/2000/svg" xmlns:xlink="http://www.w3.org/1999/xlink">
    <!-- Generator: Sketch 3.7.2 (28276) - http://www.bohemiancoding.com/sketch -->
    <title>car</title>
    <desc>Created with Sketch.</desc>
    <defs></defs>
    <g id="Page-1" stroke="none" stroke-width="1" fill="none" fill-rule="evenodd">
        <g id="-Transaction-icons" transform="translate(-139.000000, -719.000000)" stroke="#FFFFFF" stroke-width="0.8" fill="#9B9BAB">
            <g id="car" transform="translate(140.000000, 720.000000)">
                <path d="M42.4316406,17.2734375 C40.8632812,1.56835938 33,0 31.4316406,0 L12.5683594,0 C11,0 3.13671875,1.56835938 1.56835938,17.2734375 C0.708984375,17.2734375 0,17.9824219 0,18.8417969 L0,35.3417969 C0,37.5117188 1.76171875,39.2734375 3.93164062,39.2734375 C6.1015625,39.2734375 7.86328125,37.5117188 7.86328125,35.3417969 L7.86328125,33 L36.1367188,33 L36.1367188,35.3417969 C36.1367188,37.5117188 37.8984375,39.2734375 40.0683594,39.2734375 C42.2382812,39.2734375 44,37.5117188 44,35.3417969 L44,18.8417969 C44,17.9824219 43.2910156,17.2734375 42.4316406,17.2734375 L42.4316406,17.2734375 Z M12.5683594,1.56835938 L31.4316406,1.56835938 C32.2050781,1.56835938 39.2949219,3.13671875 40.8632812,17.2734375 L3.13671875,17.2734375 C4.70507812,3.13671875 11.7949219,1.56835938 12.5683594,1.56835938 L12.5683594,1.56835938 Z M42.4316406,31.4101562 L1.56835938,31.4101562 L1.56835938,18.8417969 L42.4316406,18.8417969 L42.4316406,31.4101562 Z M36.1367188,28.2734375 C37.8769531,28.2734375 39.2949219,26.8769531 39.2949219,25.1367188 C39.2949219,23.3964844 37.8769531,22 36.1367188,22 C34.3964844,22 33,23.3964844 33,25.1367188 C33,26.8769531 34.3964844,28.2734375 36.1367188,28.2734375 L36.1367188,28.2734375 Z M7.86328125,28.2734375 C9.60351562,28.2734375 11,26.8769531 11,25.1367188 C11,23.3964844 9.60351562,22 7.86328125,22 C6.12304688,22 4.70507812,23.3964844 4.70507812,25.1367188 C4.70507812,26.8769531 6.12304688,28.2734375 7.86328125,28.2734375 L7.86328125,28.2734375 Z M36.1367188,23.5683594 C37.0175781,23.5683594 37.7050781,24.2773438 37.7050781,25.1367188 C37.7050781,25.9960938 37.0175781,26.7050781 36.1367188,26.7050781 C35.2773438,26.7050781 34.5683594,25.9960938 34.5683594,25.1367188 C34.5683594,24.2773438 35.2773438,23.5683594 36.1367188,23.5683594 L36.1367188,23.5683594 Z M7.86328125,23.5683594 C8.72265625,23.5683594 9.43164062,24.2773438 9.43164062,25.1367188 C9.43164062,25.9960938 8.72265625,26.7050781 7.86328125,26.7050781 C6.98242188,26.7050781 6.29492188,25.9960938 6.29492188,25.1367188 C6.29492188,24.2773438 6.98242188,23.5683594 7.86328125,23.5683594 L7.86328125,23.5683594 Z M14.9316406,26.7050781 L29.0683594,26.7050781 C29.4980469,26.7050781 29.8632812,26.3613281 29.8632812,25.9101562 C29.8632812,25.4804688 29.4980469,25.1367188 29.0683594,25.1367188 L14.9316406,25.1367188 C14.5019531,25.1367188 14.1367188,25.4804688 14.1367188,25.9101562 C14.1367188,26.3613281 14.5019531,26.7050781 14.9316406,26.7050781 L14.9316406,26.7050781 Z M42.4316406,35.3417969 C42.4316406,36.6523438 41.3789062,37.7050781 40.0683594,37.7050781 C38.7792969,37.7050781 37.7050781,36.6523438 37.7050781,35.3417969 L37.7050781,33 L42.4316406,33 L42.4316406,35.3417969 Z M6.29492188,35.3417969 C6.29492188,36.6523438 5.22070312,37.7050781 3.93164062,37.7050781 C2.62109375,37.7050781 1.56835938,36.6523438 1.56835938,35.3417969 L1.56835938,33 L6.29492188,33 L6.29492188,35.3417969 Z" id="Shape"></path>
            </g>
        </g>
    </g>
</svg>