<?xml version="1.0" encoding="UTF-8" standalone="no"?>
<svg width="42px" height="46px" viewBox="0 0 42 46" version="1.1" xmlns="http://www.w3.org/2000/svg" xmlns:xlink="http://www.w3.org/1999/xlink">
    <!-- Generator: Sketch 3.7.2 (28276) - http://www.bohemiancoding.com/sketch -->
    <title>cocktail</title>
    <desc>Created with Sketch.</desc>
    <defs></defs>
    <g id="Page-1" stroke="none" stroke-width="1" fill="none" fill-rule="evenodd">
        <g id="-Transaction-icons" transform="translate(-141.000000, -929.000000)" stroke="#FFFFFF" stroke-width="0.8" fill="#9B9BAB">
            <g id="cocktail" transform="translate(141.000000, 930.000000)">
                <path d="M32.7949219,44 C33.2246094,44 33.5683594,43.65625 33.5683594,43.2050781 C33.5683594,42.7753906 33.2246094,42.4316406 32.7949219,42.4316406 L21.7949219,42.4316406 L21.7949219,23.1171875 L41.1953125,4.49023438 C41.3242188,4.33984375 41.4316406,4.14648438 41.4316406,3.93164062 C41.4316406,3.50195312 41.0664062,3.13671875 40.6367188,3.13671875 L29.0136719,3.13671875 L30.3027344,1.22460938 L30.28125,1.203125 C30.3671875,1.09570312 30.4316406,0.9453125 30.4316406,0.794921875 C30.4316406,0.34375 30.0664062,0 29.6367188,0 C29.3789062,0 29.1425781,0.150390625 28.9921875,0.365234375 L28.9921875,0.34375 L27.1230469,3.13671875 L1.36328125,3.13671875 C0.93359375,3.13671875 0.568359375,3.50195312 0.568359375,3.93164062 C0.568359375,4.14648438 0.67578125,4.33984375 0.8046875,4.49023438 L20.2050781,23.1171875 L20.2050781,42.4316406 L9.20507812,42.4316406 C8.77539062,42.4316406 8.43164062,42.7753906 8.43164062,43.2050781 C8.43164062,43.65625 8.77539062,44 9.20507812,44 L32.7949219,44 Z M27.9609375,4.70507812 L38.6816406,4.70507812 L33.1171875,10.0546875 C32.4726562,10.2695312 28.4765625,11.4296875 24.4160156,10.8496094 C24.3300781,10.7207031 24.2226562,10.6132812 24.1152344,10.5058594 L27.9609375,4.70507812 Z M26.0703125,4.70507812 L22.8046875,9.625 C22.4824219,9.51757812 22.1386719,9.43164062 21.7949219,9.43164062 C21.34375,9.43164062 20.9140625,9.51757812 20.5273438,9.68945312 C18.5507812,8.91601562 16.703125,8.63671875 15.0703125,8.63671875 C11.5253906,8.63671875 9.07617188,9.94726562 8.90429688,10.0117188 L3.31835938,4.70507812 L26.0703125,4.70507812 Z M21,21.6992188 L10.0644531,11.1933594 C10.9238281,10.8496094 12.7714844,10.2265625 15.1132812,10.2265625 C16.3378906,10.2265625 17.7128906,10.3769531 19.1523438,10.8496094 C18.8300781,11.34375 18.6367188,11.9453125 18.6367188,12.5683594 C18.6367188,13.40625 18.9589844,14.1367188 19.4960938,14.6953125 L18.6367188,17.2734375 L20.6992188,15.5117188 C21.0429688,15.640625 21.4082031,15.7050781 21.7949219,15.7050781 C23.5566406,15.7050781 24.9101562,14.2226562 24.9101562,12.4394531 C26.7792969,12.6328125 28.8417969,12.5898438 30.8613281,12.2246094 L21,21.6992188 Z M23.3632812,12.5683594 C23.3632812,13.4492188 22.6542969,14.1367188 21.7949219,14.1367188 C20.9140625,14.1367188 20.2050781,13.4492188 20.2050781,12.5683594 C20.2050781,11.7089844 20.9140625,11 21.7949219,11 C22.6542969,11 23.3632812,11.7089844 23.3632812,12.5683594 L23.3632812,12.5683594 Z" id="Shape"></path>
            </g>
        </g>
    </g>
</svg>