<svg width="29" height="41" viewBox="0 0 29 41" xmlns="http://www.w3.org/2000/svg"><g class="nc-icon-wrapper" fill="#444444"><title>coins</title><g transform="translate(-148 -999) translate(148 999) translate(.5 .5)" stroke="#444444" stroke-width="1" fill="none" fill-rule="evenodd"><path d="M12.5 32.3c-1.3.4-2.8.7-4.5.7-4.4 0-8-1.8-8-4 0-1 .7-1.8 1.8-2.5"></path><path d="M12.5 27.3c-1.3.4-2.8.7-4.5.7-4.4 0-8-1.8-8-4 0-.9.6-1.8 1.7-2.5"></path><path d="M12.5 22.3c-1.3.4-2.8.7-4.5.7-4.4 0-8-1.8-8-4 0-1 .7-1.8 1.8-2.5"></path><path d="M12.5 17.3c-1.3.4-2.8.7-4.5.7-4.4 0-8-1.8-8-4 0-.9.7-1.8 1.8-2.5"></path><path d="M14.2 11.5c.6.3 1 .7 1.3 1.2"></path><path d="M14.3 6.5C15.4 7.2 16 8 16 9c0 2.2-3.6 4-8 4s-8-1.8-8-4c0-1 .7-1.8 1.8-2.5"></path><ellipse cx="8" cy="4" rx="8" ry="4"></ellipse><path d="M26.2 33.5c1.1.7 1.8 1.5 1.8 2.5 0 2.2-3.6 4-8 4s-8-1.8-8-4c0-.9.7-1.8 1.8-2.5"></path><path d="M26.2 28.5c1.1.7 1.8 1.5 1.8 2.5 0 2.2-3.6 4-8 4s-8-1.8-8-4c0-1 .7-1.8 1.8-2.5"></path><path d="M26.2 23.4c1.1.7 1.8 1.6 1.8 2.6 0 2.2-3.6 4-8 4s-8-1.8-8-4c0-.9.7-1.8 1.7-2.5"></path><path d="M26.2 18.5c1.1.7 1.8 1.5 1.8 2.5 0 2.2-3.6 4-8 4s-8-1.8-8-4c0-1 .7-1.8 1.8-2.5"></path><ellipse cx="20" cy="16" rx="8" ry="4"></ellipse></g></g></svg>