<?xml version="1.0" encoding="UTF-8" standalone="no"?>
<svg width="45px" height="45px" viewBox="0 0 45 45" version="1.1" xmlns="http://www.w3.org/2000/svg" xmlns:xlink="http://www.w3.org/1999/xlink">
    <!-- Generator: Sketch 3.7.2 (28276) - http://www.bohemiancoding.com/sketch -->
    <title>computer</title>
    <desc>Created with Sketch.</desc>
    <defs></defs>
    <g id="Page-1" stroke="none" stroke-width="1" fill="none" fill-rule="evenodd">
        <g id="-Transaction-icons" transform="translate(-140.000000, -1066.000000)" stroke="#9B9BAB">
            <g id="computer" transform="translate(140.000000, 1066.000000)">
                <g id="Group" transform="translate(0.500000, 0.500000)">
                    <path d="M28,36 L28,44" id="Shape"></path>
                    <path d="M16,44 L16,36" id="Shape"></path>
                    <path d="M10,44 L34,44" id="Shape"></path>
                    <path d="M20,6 L24,6" id="Shape"></path>
                    <path d="M40,36 L4,36 C1.8,36 0,34.2 0,32 L0,4 C0,1.8 1.8,0 4,0 L40,0 C42.2,0 44,1.8 44,4 L44,32 C44,34.2 42.2,36 40,36 L40,36 Z" id="Shape"></path>
                    <path d="M0,28 L44,28" id="Shape"></path>
                </g>
            </g>
        </g>
    </g>
</svg>