<?xml version="1.0" encoding="UTF-8" standalone="no"?>
<svg width="46px" height="34px" viewBox="0 0 46 34" version="1.1" xmlns="http://www.w3.org/2000/svg" xmlns:xlink="http://www.w3.org/1999/xlink">
    <!-- Generator: Sketch 3.7.2 (28276) - http://www.bohemiancoding.com/sketch -->
    <title>default</title>
    <desc>Created with Sketch.</desc>
    <defs></defs>
    <g id="Page-1" stroke="none" stroke-width="1" fill="none" fill-rule="evenodd">
        <g id="-Transaction-icons" transform="translate(-139.000000, -1136.000000)" stroke="#9B9BAB">
            <g id="default" transform="translate(140.000000, 1137.000000)">
                <g id="Group">
                    <path d="M0,8 L44,8" id="Shape"></path>
                    <path d="M0,16 L44,16" id="Shape"></path>
                    <path d="M41,32 L3,32 C1.3,32 0,30.7 0,29 L0,3 C0,1.3 1.3,0 3,0 L30,0 L41,0 C42.7,0 44,1.3 44,3 L44,29 C44,30.7 42.7,32 41,32 L41,32 Z" id="Shape"></path>
                    <path d="M8,24 L18,24" id="Shape"></path>
                    <path d="M33,24 L36,24" id="Shape"></path>
                </g>
            </g>
        </g>
    </g>
</svg>