<?xml version="1.0" encoding="UTF-8" standalone="no"?>
<svg width="41px" height="41px" viewBox="0 0 41 41" version="1.1" xmlns="http://www.w3.org/2000/svg" xmlns:xlink="http://www.w3.org/1999/xlink">
    <!-- Generator: Sketch 3.7.2 (28276) - http://www.bohemiancoding.com/sketch -->
    <title>dollar-topup</title>
    <desc>Created with Sketch.</desc>
    <defs></defs>
    <g id="Page-1" stroke="none" stroke-width="1" fill="none" fill-rule="evenodd">
        <g id="-Transaction-icons" transform="translate(-269.000000, -20.000000)" stroke="#9B9BAB">
            <g id="dollar-topup" transform="translate(269.000000, 20.000000)">
                <g id="Group" transform="translate(0.500000, 0.500000)">
                    <path d="M40,20 C40,31 31,40 20,40 C9,40 0,31 0,20 C0,9 9,0 20,0 C27.9,0 34.8,4.6 38,11.3" id="Shape"></path>
                    <polyline id="Shape" points="39 4 38 11.2 32 10.4"></polyline>
                </g>
                <g id="Group" transform="translate(14.500000, 8.500000)">
                    <path d="M0,17 L0,17 C0,19.8 2.2,22 5,22 L7,22 C9.8,22 12,19.8 12,17 L12,17 C12,10 0,14 0,7 L0,7 C0,4.2 2.2,2 5,2 L7,2 C9.8,2 12,4.2 12,7" id="Shape"></path>
                    <path d="M6,0 L6,24" id="Shape"></path>
                </g>
            </g>
        </g>
    </g>
</svg>