<?xml version="1.0" encoding="UTF-8" standalone="no"?>
<svg width="41px" height="41px" viewBox="0 0 41 41" version="1.1" xmlns="http://www.w3.org/2000/svg" xmlns:xlink="http://www.w3.org/1999/xlink">
    <!-- Generator: Sketch 3.7.2 (28276) - http://www.bohemiancoding.com/sketch -->
    <title>euro-topup</title>
    <desc>Created with Sketch.</desc>
    <defs></defs>
    <g id="Page-1" stroke="none" stroke-width="1" fill="none" fill-rule="evenodd">
        <g id="-Transaction-icons" transform="translate(-319.000000, -20.000000)" stroke="#9B9BAB">
            <g id="euro-topup" transform="translate(319.000000, 20.000000)">
                <g id="Group" transform="translate(0.500000, 0.500000)">
                    <path d="M40,20 C40,31 31,40 20,40 C9,40 0,31 0,20 C0,9 9,0 20,0 C27.9,0 34.8,4.6 38,11.3" id="Shape"></path>
                    <polyline id="Shape" points="39 4 38 11.2 32 10.4"></polyline>
                </g>
                <g id="business-48px-outline_round-euro" transform="translate(10.000000, 10.000000)">
                    <g id="Group" transform="translate(0.500000, 0.500000)">
                        <path d="M18,18 C16.3,19.3 14.3,20 12,20 C6.5,20 2,15.5 2,10 C2,4.5 6.5,0 12,0 C14.3,0 16.3,0.7 18,2" id="Shape"></path>
                        <path d="M0,6 L12,6" id="Shape"></path>
                        <path d="M0,12 L12,12" id="Shape"></path>
                    </g>
                </g>
            </g>
        </g>
    </g>
</svg>