<svg width="41" height="41" viewBox="0 0 41 41" xmlns="http://www.w3.org/2000/svg"><g class="nc-icon-wrapper" fill="#444444"><title>euro-topup</title><g stroke="#444444" stroke-width="1" fill="none" fill-rule="evenodd"><g transform="translate(-319 -20) translate(319 20) translate(.5 .5)"><path d="M40 20c0 11-9 20-20 20S0 31 0 20 9 0 20 0c7.9 0 14.8 4.6 18 11.3"></path><path d="M39 4L38 11.2 32 10.4"></path></g><path d="M18 18c-1.7 1.3-3.7 2-6 2-5.5 0-10-4.5-10-10S6.5 0 12 0c2.3 0 4.3.7 6 2" transform="translate(-319 -20) translate(319 20) translate(10 10) translate(.5 .5)"></path><path d="M0 6h12" transform="translate(-319 -20) translate(319 20) translate(10 10) translate(.5 .5)"></path><path d="M0 12h12" transform="translate(-319 -20) translate(319 20) translate(10 10) translate(.5 .5)"></path></g></g></svg>