<?xml version="1.0" encoding="UTF-8" standalone="no"?>
<svg width="43px" height="43px" viewBox="0 0 43 43" version="1.1" xmlns="http://www.w3.org/2000/svg" xmlns:xlink="http://www.w3.org/1999/xlink">
    <!-- Generator: Sketch 3.7.2 (28276) - http://www.bohemiancoding.com/sketch -->
    <title>food</title>
    <desc>Created with Sketch.</desc>
    <defs></defs>
    <g id="Page-1" stroke="none" stroke-width="1" fill="none" fill-rule="evenodd">
        <g id="-Transaction-icons" transform="translate(-630.000000, -273.000000)">
            <g id="food" transform="translate(631.000000, 274.000000)">
                <g id="food-48px-outline_cheeseburger" transform="translate(15.000000, 18.000000)" stroke="#9B9BAB">
                    <g id="Group" transform="translate(0.288889, 0.294872)">
                        <path d="M2.31111111,17.6333333 L2.31111111,17.6333333 C2.31111111,20.2871795 4.39111111,22.4102564 6.99111111,22.4102564 L18.4311111,22.4102564 C21.0311111,22.4102564 23.1111111,20.2871795 23.1111111,17.6333333 L23.1111111,17.6333333" id="Shape"></path>
                        <path d="M2.31111111,8.25641026 C2.31111111,3.71538462 5.95111111,0 10.4,0 L15.0222222,0 C19.4711111,0 23.1111111,3.71538462 23.1111111,8.25641026 L23.1111111,8.25641026" id="Shape"></path>
                        <polygon id="Shape" points="13.8666667 11.7948718 0 11.7948718 0 8.25641026 25.4222222 8.25641026 25.4222222 11.7948718 20.8 11.7948718 17.3333333 14.1538462"></polygon>
                        <path d="M22.5333333,11.7948718 C24.1511111,11.7948718 25.4222222,13.0923077 25.4222222,14.7435897 L25.4222222,14.7435897 C25.4222222,16.3948718 24.1511111,17.6923077 22.5333333,17.6923077 L2.88888889,17.6923077 C1.27111111,17.6923077 0,16.3948718 0,14.7435897 L0,14.7435897 C0,13.0923077 1.27111111,11.7948718 2.88888889,11.7948718" id="Shape"></path>
                    </g>
                </g>
                <path d="M2.02079504,9.4359375 L13.3424288,9.4359375 L11.5029871,18.15 C9.19720818,17.2734375 7.046875,16.9640625 5.18152574,16.9640625 C4.37838925,16.9640625 3.62706801,17.015625 2.92756204,17.11875 L2.02079504,9.4359375 Z M21.3997013,19.6710937 C19.0680147,19.9289062 16.1404527,19.8773437 13.2906135,18.8460937 L15.2855009,9.4359375 L22.6173598,9.4359375 L21.3997013,19.6710937 Z M5.57014017,39.6 L3.13482307,19.0007813 C3.78251379,18.9234375 4.50792739,18.871875 5.23334099,18.871875 C7.02096737,18.871875 9.01585478,19.1554688 11.1143727,20.00625 L7.5909352,36.5835938 L7.61684283,36.5835938 C7.61684283,36.6609375 7.5909352,36.7125 7.5909352,36.7898438 C7.5909352,37.3054688 8.00545726,37.7179688 8.52360983,37.7179688 C8.98994715,37.7179688 9.35265395,37.4085938 9.43037684,36.9703125 L9.45628447,36.9703125 L12.9019991,20.7023438 C15.1818704,21.4757813 18.1094324,21.8367188 21.1924403,21.5789063 L19.0421071,39.6 L5.57014017,39.6 Z M19.8970588,41.5078125 C20.3893038,41.5078125 20.7779182,41.1210938 20.8297335,40.6570313 L24.6381549,8.5078125 C24.6381549,7.96640625 24.1977252,7.55390625 23.6795726,7.55390625 L15.6741153,7.55390625 L16.8658663,1.9078125 L27.487994,1.9078125 C28.0061466,1.9078125 28.4206687,1.46953125 28.4206687,0.95390625 C28.4206687,0.43828125 28.0061466,0 27.487994,0 L16.114545,0 C15.6482077,0 15.2855009,0.33515625 15.207778,0.7734375 L15.1818704,0.74765625 L13.7310432,7.55390625 L0.958582261,7.55390625 C0.414522059,7.55390625 0,7.96640625 0,8.5078125 L3.80842142,40.6570313 C3.86023667,41.1210938 4.2488511,41.5078125 4.74109605,41.5078125 L19.8970588,41.5078125 Z" id="Path" stroke="#FFFFFF" stroke-width="0.8" fill="#9B9BAB"></path>
                <path d="M5.57014017,39.6 L3.13482307,19.0007813 C3.78251379,18.9234375 4.50792739,18.871875 5.23334099,18.871875 C7.02096737,18.871875 9.01585478,19.1554688 11.1143727,20.00625 L7.5909352,36.5835938 L7.61684283,36.5835938 C7.61684283,36.6609375 7.5909352,36.7125 7.5909352,36.7898438 C7.5909352,37.3054688 8.00545726,37.7179688 8.52360983,37.7179688 C8.98994715,37.7179688 9.35265395,37.4085938 9.43037684,36.9703125 L9.45628447,36.9703125 L12.9019991,20.7023438 C15.1818704,21.4757813 18.1094324,21.8367188 21.1924403,21.5789063 L19.0421071,39.6 L5.57014017,39.6 Z" id="Path-Copy" stroke="#FFFFFF" stroke-width="0.8" fill="#FFFFFF"></path>
            </g>
        </g>
    </g>
</svg>