<svg width="49" height="47" viewBox="0 0 49 47" xmlns="http://www.w3.org/2000/svg"><g class="nc-icon-wrapper" fill="#444444"><title>food</title><g transform="translate(0 1)" stroke="#444444" stroke-width=".8" fill="none" fill-rule="evenodd"><path d="M22.859 43.827a5.277 5.277 0 0 0 3.747 1.55H39.68c2.971 0 5.349-2.426 5.349-5.46"></path><path d="M25.499 21.277a9.04 9.04 0 0 1 5.003-1.511h5.282c5.085 0 9.245 4.246 9.245 9.435"></path><path d="M34.4634922 33.2454215L24 33.2454215 24.5142857 29.2014654 47.6698414 29.2014654 47.6698414 33.2454215 42.3873017 33.2454215 38.4253969 35.9413922z"></path><path d="M44.368 33.245c1.85 0 3.302 1.483 3.302 3.37 0 1.888-1.453 3.37-3.302 3.37H22.914"></path><path d="M2.857 21.143c3.197-.254 6.689.508 10.475 2.286 3.785 1.777 7.76 1.61 11.925-.5" stroke-linecap="round" stroke-linejoin="round"></path><path stroke-linecap="round" stroke-linejoin="round" d="M22.465772 45.3169908L26.9665364 8.93581196 1.08714116 8.93581196 5.58790555 45.3169908z"></path><path stroke-linecap="round" stroke-linejoin="round" d="M10.8571429 41.7142857L19.6079497 0.0593043995 32.610158 0.0593043995"></path></g></g></svg>