<?xml version="1.0" encoding="UTF-8" standalone="no"?>
<svg width="45px" height="39px" viewBox="0 0 45 39" version="1.1" xmlns="http://www.w3.org/2000/svg" xmlns:xlink="http://www.w3.org/1999/xlink">
    <!-- Generator: Sketch 3.7.2 (28276) - http://www.bohemiancoding.com/sketch -->
    <title>game</title>
    <desc>Created with Sketch.</desc>
    <defs></defs>
    <g id="Page-1" stroke="none" stroke-width="1" fill="none" fill-rule="evenodd">
        <g id="-Transaction-icons" transform="translate(-140.000000, -1531.000000)" stroke="#9B9BAB">
            <g id="game" transform="translate(140.000000, 1531.000000)">
                <g id="Group" transform="translate(0.500000, 0.500000)">
                    <path d="M32,38 L12,38 C5.4,38 0,32.6 0,26 L0,26 C0,19.4 5.4,14 12,14 L32,14 C38.6,14 44,19.4 44,26 L44,26 C44,32.6 38.6,38 32,38 L32,38 Z" id="Shape"></path>
                    <path d="M12,22 L12,30" id="Shape"></path>
                    <path d="M8,26 L16,26" id="Shape"></path>
                    <path d="M30,24 L32,22" id="Shape"></path>
                    <path d="M34,30 L36,28" id="Shape"></path>
                    <path d="M22,6 L22,0" id="Shape"></path>
                </g>
            </g>
        </g>
    </g>
</svg>