<?xml version="1.0" encoding="UTF-8" standalone="no"?>
<svg width="46px" height="40px" viewBox="0 0 46 40" version="1.1" xmlns="http://www.w3.org/2000/svg" xmlns:xlink="http://www.w3.org/1999/xlink">
    <!-- Generator: Sketch 3.7.2 (28276) - http://www.bohemiancoding.com/sketch -->
    <title>gas</title>
    <desc>Created with Sketch.</desc>
    <defs></defs>
    <g id="Page-1" stroke="none" stroke-width="1" fill="none" fill-rule="evenodd">
        <g id="-Transaction-icons" transform="translate(-139.000000, -1594.000000)" stroke="#FFFFFF" stroke-width="0.8" fill="#9B9BAB">
            <g id="gas" transform="translate(140.000000, 1595.000000)">
                <path d="M23.5683594,36.1582031 L4.70507812,36.1582031 L4.70507812,1.56835938 L23.5683594,1.56835938 L23.5683594,36.1582031 Z M22,3.15820313 L6.29492188,3.15820313 L6.29492188,15.7265625 L22,15.7265625 L22,3.15820313 Z M20.4316406,14.1582031 L7.86328125,14.1582031 L7.86328125,4.7265625 L20.4316406,4.7265625 L20.4316406,14.1582031 Z M43.0546875,27.4570312 C42.4101562,26.1035156 41.6582031,24.5566406 41.6582031,21.9570312 C41.6582031,17.9824219 42.4316406,18.8847656 42.4316406,16.4570312 C42.4316406,14.3300781 41.25,12.8261719 39.0585938,11.3652344 C40.3691406,8.37890625 35.0625,6.875 35.0625,6.875 C31.9472656,6.1015625 30.3789062,6.1015625 29.5839844,6.875 C28.8105469,7.6484375 28.8105469,8.421875 30.3789062,8.421875 C31.796875,8.421875 35.4277344,15.5761719 38.1992188,12.6757812 C40.3691406,14.1152344 40.8632812,15.2109375 40.8632812,16.4570312 C40.8632812,18.6269531 40.0898438,17.9609375 40.0898438,21.9570312 C40.0898438,24.9003906 40.9492188,26.7050781 41.6367188,28.1445312 C42.0878906,29.0683594 42.4316406,29.8203125 42.4316406,30.6152344 C42.4316406,33.2578125 41.2070312,36.1152344 37.7265625,36.1152344 C35.75,36.1152344 34.3320312,35.6425781 33.4296875,34.6542969 C31.625,32.7636719 31.8613281,29.046875 32.0761719,25.4589844 C32.1621094,24.2988281 32.2265625,23.2890625 32.2265625,22.171875 C32.2265625,20.2167969 31.6035156,18.7128906 30.3789062,17.7460938 C28.7246094,16.4140625 26.4257812,16.4140625 25.1367188,16.5429688 L25.1367188,1.56835938 C25.1367188,0.708984375 24.4492188,0 23.5683594,0 L4.70507812,0 C3.84570312,0 3.13671875,0.708984375 3.13671875,1.56835938 L3.13671875,36.1582031 L0.794921875,36.1582031 C0.34375,36.1582031 0,36.5019531 0,36.9316406 C0,37.3613281 0.34375,37.7265625 0.794921875,37.7265625 L27.5,37.7265625 C27.9296875,37.7265625 28.2949219,37.3613281 28.2949219,36.9316406 C28.2949219,36.5019531 27.9296875,36.1582031 27.5,36.1582031 L25.1367188,36.1582031 L25.1367188,18.1113281 C26.2753906,17.9824219 28.1875,18.0039062 29.390625,18.9707031 C30.2285156,19.6367188 30.6582031,20.7109375 30.6582031,22.171875 C30.6582031,23.2246094 30.59375,24.1699219 30.5078125,25.3730469 C30.2714844,29.2832031 30.0136719,33.34375 32.2695312,35.7285156 C33.515625,37.0390625 35.2773438,37.6835938 37.7265625,37.6835938 C42.3671875,37.6835938 44.0214844,33.859375 44.0214844,30.6152344 C44.0214844,29.4550781 43.5488281,28.4882812 43.0546875,27.4570312 L43.0546875,27.4570312 Z" id="Shape"></path>
            </g>
        </g>
    </g>
</svg>