<?xml version="1.0" encoding="UTF-8" standalone="no"?>
<svg width="41px" height="45px" viewBox="0 0 41 45" version="1.1" xmlns="http://www.w3.org/2000/svg" xmlns:xlink="http://www.w3.org/1999/xlink">
    <!-- Generator: Sketch 3.7.2 (28276) - http://www.bohemiancoding.com/sketch -->
    <title>golf</title>
    <desc>Created with Sketch.</desc>
    <defs></defs>
    <g id="Page-1" stroke="none" stroke-width="1" fill="none" fill-rule="evenodd">
        <g id="-Transaction-icons" transform="translate(-142.000000, -1661.000000)" stroke="#9B9BAB">
            <g id="golf" transform="translate(142.000000, 1661.000000)">
                <g id="Group" transform="translate(0.500000, 0.500000)">
                    <path d="M36,14 L22,14 L22,10.3536139 C22,8.9009448 22.7875671,7.5624629 24.0574284,6.8569842 L34.0574265,1.3014289 C36.7235527,-0.1797516 40,1.7481208 40,4.798058 L40,10 C40,12.2091389 38.2091408,14 36,14 L36,14 Z" id="Shape"></path>
                    <path d="M22,14 L22,26" id="Shape"></path>
                    <path d="M2,18 L14,18 L14,13.3187923 C14,12.5187358 13.5232067,11.79566 12.787838,11.4805021 L2.787838,7.194788 C1.468102,6.6291866 0,7.5972471 0,9.0330782 L0,16 C0,17.1045704 0.8954306,18 2,18 L2,18 Z" id="Shape"></path>
                    <path d="M14,18 L14,26" id="Shape"></path>
                    <rect id="Rectangle-path" x="4" y="26" width="28" height="8"></rect>
                    <path d="M28,34 L28,44" id="Shape"></path>
                    <path d="M8,44 L8,34" id="Shape"></path>
                </g>
            </g>
        </g>
    </g>
</svg>