<?xml version="1.0" encoding="UTF-8" standalone="no"?>
<svg width="45px" height="45px" viewBox="0 0 45 45" version="1.1" xmlns="http://www.w3.org/2000/svg" xmlns:xlink="http://www.w3.org/1999/xlink">
    <!-- Generator: Sketch 3.7.2 (28276) - http://www.bohemiancoding.com/sketch -->
    <title>hotel</title>
    <desc>Created with Sketch.</desc>
    <defs></defs>
    <g id="Page-1" stroke="none" stroke-width="1" fill="none" fill-rule="evenodd">
        <g id="-Transaction-icons" transform="translate(-140.000000, -1732.000000)" stroke="#9B9BAB">
            <g id="hotel" transform="translate(140.000000, 1732.000000)">
                <g id="Group" transform="translate(0.500000, 0.500000)">
                    <polyline id="Shape" points="8 44 0 44 0 26 8 26"></polyline>
                    <polyline id="Shape" points="36 44 44 44 44 26 36 26"></polyline>
                    <polyline id="Shape" points="18 0 18 2 18 8"></polyline>
                    <path d="M26,8 L26,0" id="Shape"></path>
                    <path d="M26,3 L18,3" id="Shape"></path>
                    <rect id="Rectangle-path" x="8" y="8" width="28" height="36"></rect>
                    <path d="M16,14 L18,14" id="Shape"></path>
                    <path d="M26,14 L28,14" id="Shape"></path>
                    <path d="M16,20 L18,20" id="Shape"></path>
                    <path d="M26,20 L28,20" id="Shape"></path>
                    <path d="M16,26 L18,26" id="Shape"></path>
                    <path d="M26,26 L28,26" id="Shape"></path>
                    <path d="M16,32 L18,32" id="Shape"></path>
                    <path d="M26,32 L28,32" id="Shape"></path>
                    <polyline id="Shape" points="25 44 25 38 19 38 19 44"></polyline>
                </g>
            </g>
        </g>
    </g>
</svg>