<svg width="45" height="45" viewBox="0 0 45 45" xmlns="http://www.w3.org/2000/svg"><g class="nc-icon-wrapper" fill="#444444"><title>hotel</title><g transform="translate(-140 -1732) translate(140 1732) translate(.5 .5)" stroke="#444444" stroke-width="1" fill="none" fill-rule="evenodd"><path d="M8 44L0 44 0 26 8 26"></path><path d="M36 44L44 44 44 26 36 26"></path><path d="M18 0L18 2 18 8"></path><path d="M26 8V0"></path><path d="M26 3h-8"></path><path d="M8 8H36V44H8z"></path><path d="M16 14h2"></path><path d="M26 14h2"></path><path d="M16 20h2"></path><path d="M26 20h2"></path><path d="M16 26h2"></path><path d="M26 26h2"></path><path d="M16 32h2"></path><path d="M26 32h2"></path><path d="M25 44L25 38 19 38 19 44"></path></g></g></svg>