<svg width="45" height="45" viewBox="0 0 45 45" xmlns="http://www.w3.org/2000/svg"><g class="nc-icon-wrapper" fill="#444444"><title>medical</title><g transform="translate(-140 -1871) translate(140 1871) translate(.5 .5)" stroke="#444444" stroke-width="1" fill="none" fill-rule="evenodd"><path d="M14 30v2c0 6.6 5.4 12 12 12s12-5.4 12-12"></path><circle cx="38" cy="26" r="6"></circle><path d="M20 2h5.7c1.2 0 2.2 1.1 2 2.3l-3.2 22.3c-.3 2-2 3.4-4 3.4h-13c-2 0-3.7-1.5-4-3.4L.3 4.3C.2 3.1 1.1 2 2.3 2H8"></path><path d="M8 0v4"></path><path d="M20 0v4"></path></g></g></svg>