<?xml version="1.0" encoding="UTF-8" standalone="no"?>
<svg width="45px" height="45px" viewBox="0 0 45 45" version="1.1" xmlns="http://www.w3.org/2000/svg" xmlns:xlink="http://www.w3.org/1999/xlink">
    <!-- Generator: Sketch 3.7.2 (28276) - http://www.bohemiancoding.com/sketch -->
    <title>motorcycle</title>
    <desc>Created with Sketch.</desc>
    <defs></defs>
    <g id="Page-1" stroke="none" stroke-width="1" fill="none" fill-rule="evenodd">
        <g id="-Transaction-icons" transform="translate(-140.000000, -1942.000000)" stroke="#9B9BAB">
            <g id="motorcycle" transform="translate(140.000000, 1942.000000)">
                <g id="Group" transform="translate(0.500000, 0.500000)">
                    <path d="M-1.77635684e-15,34 L21.1169434,34 C22.8387452,34 24.3671875,32.8981934 24.9117432,31.2648926 L28.2449952,21.2648926 C29.1083984,18.6748047 27.180542,16 24.4503174,16 L0.8271484,16" id="Shape"></path>
                    <path d="M21.587904,0.003793 C9.4766874,0.2253742 -4.4e-06,9.8867579 0,22 L0,34 C1.9e-06,39.5228462 4.4771504,44 9.9999962,44 L28,44 C36.8365555,44 44,36.8365555 44,28 L44,22 C44,9.7126541 33.9267693,-0.2219533 21.587904,0.003793 L21.587904,0.003793 Z" id="Shape"></path>
                </g>
            </g>
        </g>
    </g>
</svg>