<?xml version="1.0" encoding="UTF-8" standalone="no"?>
<svg width="46px" height="36px" viewBox="0 0 46 36" version="1.1" xmlns="http://www.w3.org/2000/svg" xmlns:xlink="http://www.w3.org/1999/xlink">
    <!-- Generator: Sketch 3.7.2 (28276) - http://www.bohemiancoding.com/sketch -->
    <title>newspaper</title>
    <desc>Created with Sketch.</desc>
    <defs></defs>
    <g id="Page-1" stroke="none" stroke-width="1" fill="none" fill-rule="evenodd">
        <g id="-Transaction-icons" transform="translate(-139.000000, -2137.000000)" stroke="#FFFFFF" stroke-width="0.8" fill="#9B9BAB">
            <g id="newspaper" transform="translate(140.000000, 2138.000000)">
                <path d="M42.4316406,0 L7.86328125,0 C6.98242188,0 6.29492188,0.708984375 6.29492188,1.56835938 L6.29492188,6.29492188 L1.56835938,6.29492188 C0.708984375,6.29492188 0,7.00390625 0,7.86328125 L0,29.8632812 C0,32.4628906 2.10546875,34.5683594 4.70507812,34.5683594 L42.4316406,34.5683594 C43.2910156,34.5683594 44,33.8808594 44,33 L44,1.56835938 C44,0.708984375 43.2910156,0 42.4316406,0 L42.4316406,0 Z M27.5,6.29492188 L38.5,6.29492188 C38.9296875,6.29492188 39.2949219,5.95117188 39.2949219,5.5 C39.2949219,5.0703125 38.9296875,4.7265625 38.5,4.7265625 L27.5,4.7265625 C27.0703125,4.7265625 26.7050781,5.0703125 26.7050781,5.5 C26.7050781,5.95117188 27.0703125,6.29492188 27.5,6.29492188 L27.5,6.29492188 Z M11.7949219,20.4316406 L22.7949219,20.4316406 C23.2246094,20.4316406 23.5683594,20.0878906 23.5683594,19.6582031 L23.5683594,5.5 C23.5683594,5.0703125 23.2246094,4.7265625 22.7949219,4.7265625 L11.7949219,4.7265625 C11.34375,4.7265625 11,5.0703125 11,5.5 L11,19.6582031 C11,20.0878906 11.34375,20.4316406 11.7949219,20.4316406 L11.7949219,20.4316406 Z M12.5683594,6.29492188 L22,6.29492188 L22,18.8632812 L12.5683594,18.8632812 L12.5683594,6.29492188 Z M42.4316406,33 L4.70507812,33 C2.98632812,33 1.56835938,31.6035156 1.56835938,29.8632812 L1.56835938,7.86328125 L6.29492188,7.86328125 L6.29492188,29.0683594 C6.29492188,29.5195312 6.63867188,29.8632812 7.06835938,29.8632812 C7.49804688,29.8632812 7.86328125,29.5195312 7.86328125,29.0683594 L7.86328125,1.56835938 L42.4316406,1.56835938 L42.4316406,33 Z M27.5,11 L38.5,11 C38.9296875,11 39.2949219,10.65625 39.2949219,10.2265625 C39.2949219,9.796875 38.9296875,9.43164062 38.5,9.43164062 L27.5,9.43164062 C27.0703125,9.43164062 26.7050781,9.796875 26.7050781,10.2265625 C26.7050781,10.65625 27.0703125,11 27.5,11 L27.5,11 Z M27.5,15.7265625 L38.5,15.7265625 C38.9296875,15.7265625 39.2949219,15.3613281 39.2949219,14.9316406 C39.2949219,14.5019531 38.9296875,14.1582031 38.5,14.1582031 L27.5,14.1582031 C27.0703125,14.1582031 26.7050781,14.5019531 26.7050781,14.9316406 C26.7050781,15.3613281 27.0703125,15.7265625 27.5,15.7265625 L27.5,15.7265625 Z M27.5,20.4316406 L38.5,20.4316406 C38.9296875,20.4316406 39.2949219,20.0878906 39.2949219,19.6582031 C39.2949219,19.2070312 38.9296875,18.8632812 38.5,18.8632812 L27.5,18.8632812 C27.0703125,18.8632812 26.7050781,19.2070312 26.7050781,19.6582031 C26.7050781,20.0878906 27.0703125,20.4316406 27.5,20.4316406 L27.5,20.4316406 Z M11.7949219,25.1582031 L38.5,25.1582031 C38.9296875,25.1582031 39.2949219,24.7929688 39.2949219,24.3632812 C39.2949219,23.9335938 38.9296875,23.5683594 38.5,23.5683594 L11.7949219,23.5683594 C11.34375,23.5683594 11,23.9335938 11,24.3632812 C11,24.7929688 11.34375,25.1582031 11.7949219,25.1582031 L11.7949219,25.1582031 Z M11.7949219,29.8632812 L38.5,29.8632812 C38.9296875,29.8632812 39.2949219,29.5195312 39.2949219,29.0683594 C39.2949219,28.6386719 38.9296875,28.2949219 38.5,28.2949219 L11.7949219,28.2949219 C11.34375,28.2949219 11,28.6386719 11,29.0683594 C11,29.5195312 11.34375,29.8632812 11.7949219,29.8632812 L11.7949219,29.8632812 Z" id="news"></path>
            </g>
        </g>
    </g>
</svg>