<?xml version="1.0" encoding="UTF-8" standalone="no"?>
<svg width="33px" height="43px" viewBox="0 0 33 43" version="1.1" xmlns="http://www.w3.org/2000/svg" xmlns:xlink="http://www.w3.org/1999/xlink">
    <!-- Generator: Sketch 3.7.2 (28276) - http://www.bohemiancoding.com/sketch -->
    <title>people</title>
    <desc>Created with Sketch.</desc>
    <defs></defs>
    <g id="Page-1" stroke="none" stroke-width="1" fill="none" fill-rule="evenodd">
        <g id="-Transaction-icons" transform="translate(-146.000000, -2406.000000)" stroke="#9B9BAB">
            <g id="people" transform="translate(146.000000, 2406.000000)">
                <g id="Group" transform="translate(0.500000, 0.500000)">
                    <path d="M16,24 L16,24 C10.5,24 6,19.5 6,14 L6,10 C6,4.5 10.5,0 16,0 L16,0 C21.5,0 26,4.5 26,10 L26,14 C26,19.5 21.5,24 16,24 L16,24 Z" id="Shape"></path>
                    <path d="M24,30 L8,30 C3.6,30 0,33.6 0,38 L0,42 L32,42 L32,38 C32,33.6 28.4,30 24,30 L24,30 Z" id="Shape"></path>
                </g>
            </g>
        </g>
    </g>
</svg>