<?xml version="1.0" encoding="UTF-8" standalone="no"?>
<svg width="45px" height="41px" viewBox="0 0 45 41" version="1.1" xmlns="http://www.w3.org/2000/svg" xmlns:xlink="http://www.w3.org/1999/xlink">
    <!-- Generator: Sketch 3.7.2 (28276) - http://www.bohemiancoding.com/sketch -->
    <title>pet</title>
    <desc>Created with Sketch.</desc>
    <defs></defs>
    <g id="Page-1" stroke="none" stroke-width="1" fill="none" fill-rule="evenodd">
        <g id="-Transaction-icons" transform="translate(-140.000000, -2340.000000)" stroke="#9B9BAB">
            <g id="pet" transform="translate(138.000000, 2339.000000)">
                <g id="Group" transform="translate(0.500000, 0.500000)">
                    <ellipse id="Oval" stroke-width="1.0000012" transform="translate(16.666687, 7.064971) rotate(-3.000802) translate(-16.666687, -7.064971) " cx="16.6666868" cy="7.06497084" rx="4.40000528" ry="5.86667704"></ellipse>
                    <ellipse id="Oval" stroke-width="1.00000217" transform="translate(5.816910, 18.173786) rotate(-17.102940) translate(-5.816910, -18.173786) " cx="5.81691012" cy="18.1737864" rx="3.66667795" ry="5.13334113"></ellipse>
                    <ellipse id="Oval" stroke-width="1.00000217" transform="translate(42.183220, 18.173594) rotate(197.102940) translate(-42.183220, -18.173594) " cx="42.1832201" cy="18.1735936" rx="3.66667795" ry="5.13334113"></ellipse>
                    <ellipse id="Oval" stroke-width="0.999997733" transform="translate(31.333232, 7.064988) rotate(3.104666) translate(-31.333232, -7.064988) " cx="31.3332323" cy="7.06498768" rx="4.39999003" ry="5.8666567"></ellipse>
                    <path d="M15.75203,21.99111 L11.93886,29.47201 C8.75918,35.7101 14.2029,43.05885 20.08191,40.46472 C22.84626,39.24494 25.15233,39.24433 27.91808,40.46472 C33.79709,43.05885 39.24081,35.7101 36.06113,29.47201 L32.24796,21.99111 C28.27912,15.3363 19.72088,15.3363 15.75203,21.99111 L15.75203,21.99111 Z" id="Shape"></path>
                </g>
            </g>
        </g>
    </g>
</svg>