<svg width="25" height="43" viewBox="0 0 25 43" xmlns="http://www.w3.org/2000/svg"><g class="nc-icon-wrapper" fill="#444444"><title>plant</title><g stroke="#444444" stroke-width="1" fill="none" fill-rule="evenodd"><path d="M0 24C0 14.125 12 0 12 0s12 14.125 12 24c0 6.627-5.373 10-12 10S0 30.627 0 24z" transform="translate(-150 -2269) translate(150 2269) translate(.5 .5)"></path><path d="M12 15v27" transform="translate(-150 -2269) translate(150 2269) translate(.5 .5)"></path><path d="M2 42h20" transform="translate(-150 -2269) translate(150 2269) translate(.5 .5)"></path><path d="M12 29l5-5" transform="translate(-150 -2269) translate(150 2269) translate(.5 .5)"></path><path d="M7 19l5 5" transform="translate(-150 -2269) translate(150 2269) translate(.5 .5)"></path></g></g></svg>