<?xml version="1.0" encoding="UTF-8" standalone="no"?>
<svg width="45px" height="41px" viewBox="0 0 45 41" version="1.1" xmlns="http://www.w3.org/2000/svg" xmlns:xlink="http://www.w3.org/1999/xlink">
    <!-- Generator: Sketch 3.7.2 (28276) - http://www.bohemiancoding.com/sketch -->
    <title>business-48px-outline_briefcase-25</title>
    <desc>Created with Sketch.</desc>
    <defs></defs>
    <g id="Page-1" stroke="none" stroke-width="1" fill="none" fill-rule="evenodd">
        <g id="-Transaction-icons" transform="translate(-1111.000000, -751.000000)" stroke="#9B9BAB">
            <g id="business-48px-outline_briefcase-25" transform="translate(1111.000000, 751.000000)">
                <g id="Group" transform="translate(0.500000, 0.500000)">
                    <polyline id="Shape" points="14 6 14 0 30 0 30 6"></polyline>
                    <polyline id="Shape" points="44 28 44 40 0 40 0 28"></polyline>
                    <path d="M30,28 L14,28" id="Shape"></path>
                    <polyline id="Shape" points="6 28 0 28 0 6 44 6 44 28 38 28"></polyline>
                    <path d="M10,6 L10,24" id="Shape"></path>
                    <path d="M34,6 L34,24" id="Shape"></path>
                    <path d="M34,32 L34,40" id="Shape"></path>
                    <path d="M10,32 L10,40" id="Shape"></path>
                    <rect id="Rectangle-path" x="6" y="24" width="8" height="8"></rect>
                    <rect id="Rectangle-path" x="30" y="24" width="8" height="8"></rect>
                </g>
            </g>
        </g>
    </g>
</svg>