<?xml version="1.0" encoding="UTF-8" standalone="no"?>
<svg width="46px" height="46px" viewBox="0 0 46 46" version="1.1" xmlns="http://www.w3.org/2000/svg" xmlns:xlink="http://www.w3.org/1999/xlink">
    <!-- Generator: Sketch 3.7.2 (28276) - http://www.bohemiancoding.com/sketch -->
    <title>telephone</title>
    <desc>Created with Sketch.</desc>
    <defs></defs>
    <g id="Page-1" stroke="none" stroke-width="1" fill="none" fill-rule="evenodd">
        <g id="-Transaction-icons" transform="translate(-139.000000, -3009.000000)" stroke="#FFFFFF" stroke-width="0.8" fill="#9B9BAB">
            <g id="telephone" transform="translate(140.000000, 3010.000000)">
                <path d="M37.7480469,28.7272417 C32.4414062,25.2252886 30.9589844,26.1706011 28.9609375,27.9538042 C28.6171875,28.2545854 27.6289062,29.4147417 26.7265625,29.4147417 C26.46875,29.4147417 26.2753906,29.3288042 26.0605469,29.1354448 C22.515625,25.8483354 17.4453125,20.7995073 15.0605469,18.0709917 C14.8242187,17.7916948 14.78125,17.6198198 14.78125,17.4909136 C14.78125,16.8463823 16.0917969,15.8581011 16.4355469,15.6002886 C18.5410156,13.8385698 19.5507812,12.3561479 15.9628906,6.79169481 C13.0195312,2.23700731 11.1933594,0.410835431 9.25976562,0.0670854307 C8.03515625,-0.169242694 6.85351562,0.217476056 5.4140625,1.24872606 C2.921875,2.96747606 0.47265625,4.92255418 0.064453125,8.18817918 C-0.515625,12.9577104 3.48046875,19.7897417 13.0839844,30.4459917 L13.1484375,30.5319292 C22.3222656,39.7057573 29.1328125,44.0026323 34.5039062,44.0026323 C39.8105469,44.0026323 43.9785156,39.0397417 43.9785156,36.6120073 C43.9785156,34.0768511 41.7871094,31.4127886 37.7480469,28.7272417 L37.7480469,28.7272417 Z M34.5039063,42.4772417 C29.6484375,42.4772417 23.2890625,38.4811479 14.2871094,29.4791948 C5.13476563,19.3385698 1.1171875,12.6139604 1.6328125,8.36005418 C1.91210938,5.97528856 3.56640625,4.38544481 6.33789063,2.47333543 C7.41210938,1.69989793 8.22851563,1.42060106 8.95898438,1.54950731 C10.3554688,1.80731981 12.0527344,3.61200731 14.6308594,7.58661668 C17.7675781,12.4635698 16.8867188,13.2155229 15.4042969,14.4401323 C14.3515625,15.2995073 13.234375,16.2663042 13.234375,17.4909136 C13.234375,18.0924761 13.4921875,18.6295854 13.9433594,19.1237261 C16.5,21.9596636 21.3554688,26.9655229 24.9648438,30.2311479 C25.4589844,30.6823198 26.1035156,30.9186479 26.7695313,30.9186479 C28.2734375,30.9186479 29.6269531,29.4362261 30.0351563,29.0709917 C31.5605469,27.6959917 32.3339844,27.0084917 36.8671875,29.9948198 C40.390625,32.2936479 42.4101563,34.6354448 42.4101563,36.5905229 C42.4101563,38.3307573 38.8222656,42.4772417 34.5039063,42.4772417 L34.5039063,42.4772417 Z" id="phone"></path>
            </g>
        </g>
    </g>
</svg>