<?xml version="1.0" encoding="UTF-8" standalone="no"?>
<svg width="52px" height="37px" viewBox="0 0 52 37" version="1.1" xmlns="http://www.w3.org/2000/svg" xmlns:xlink="http://www.w3.org/1999/xlink">
    <!-- Generator: Sketch 3.7.2 (28276) - http://www.bohemiancoding.com/sketch -->
    <title>truck</title>
    <desc>Created with Sketch.</desc>
    <defs></defs>
    <g id="Page-1" stroke="none" stroke-width="1" fill="none" fill-rule="evenodd">
        <g id="-Transaction-icons" transform="translate(-1108.000000, -1350.000000)" stroke="#9B9BAB">
            <g id="truck" transform="translate(1108.000000, 1350.000000)">
                <g id="Group" transform="translate(0.500000, 0.500000)">
                    <polyline id="Shape" points="39 10 39 18 45 18"></polyline>
                    <path d="M37.1,30 L20.9,30" id="Shape"></path>
                    <path d="M11.1,30 L7,30 L7,18 L33,18 L33,4 L40,4 C42.2,4 51,16 51,16 L51,30 L46.9,30" id="Shape"></path>
                    <circle id="Oval" cx="16" cy="31" r="5"></circle>
                    <circle id="Oval" cx="42" cy="31" r="5"></circle>
                    <rect id="Rectangle-path" x="0" y="0" width="33" height="18"></rect>
                </g>
                <path d="M2.5,3.5 L30.5,3.5" id="Line" stroke-linecap="square"></path>
                <path d="M2.5,6.5 L30.5,6.5" id="Line-Copy" stroke-linecap="square"></path>
                <path d="M2.5,9.5 L30.5,9.5" id="Line-Copy-2" stroke-linecap="square"></path>
            </g>
        </g>
    </g>
</svg>