<?xml version="1.0" encoding="UTF-8"?>
<svg width="52px" height="52px" viewBox="0 0 52 52" version="1.1" xmlns="http://www.w3.org/2000/svg" xmlns:xlink="http://www.w3.org/1999/xlink">
    <!-- Generator: Sketch 52.5 (67469) - http://www.bohemiancoding.com/sketch -->
    <title>HomeDepot_logo 2</title>
    <desc>Created with Sketch.</desc>
    <defs>
        <polygon id="path-1" points="0 0 49.97125 0 49.97125 49.9916667 0 49.9916667"></polygon>
    </defs>
    <g id="Symbols" stroke="none" stroke-width="1" fill="none" fill-rule="evenodd">
        <g id="Brand/Card/Small/HomeDepot" transform="translate(-19.000000, -13.000000)">
            <g id="HomeDepot_logo-2" transform="translate(20.000000, 14.000000)">
                <g id="HomeDepot_logo">
                    <g id="Group-6">
                        <mask id="mask-2" fill="white">
                            <use xlink:href="#path-1"></use>
                        </mask>
                        <use id="Clip-2" stroke="#FFFFFF" xlink:href="#path-1"></use>
                        <polygon id="Fill-1" fill="#E17232" mask="url(#mask-2)" points="0 50 49.97125 50 49.97125 0 0 0"></polygon>
                        <path d="M11.0248611,50 L9.30625,50 L9.32152778,49.97125 L9.33430556,49.9438889 L9.39666667,49.8275 L9.44666667,49.7215278 L9.46861111,49.6719444 L9.48722222,49.6248611 L9.50291667,49.5804167 L9.51861111,49.5398611 L9.52777778,49.4994444 L9.53430556,49.4588889 L9.54055556,49.4248611 L9.54347222,49.3869444 L9.54347222,49.3529167 L9.54055556,49.3215278 L9.53430556,49.2876389 L9.52486111,49.2563889 L9.51527778,49.2248611 L9.49958333,49.1933333 L9.48402778,49.1620833 L9.46527778,49.1306944 L9.44347222,49.0966667 L9.41861111,49.0654167 L9.39055556,49.0313889 L9.3625,48.9959722 L9.29347222,48.9280556 L9.21861111,48.8497222 L9.12805556,48.7645833 L9.03097222,48.6719444 L1.30291667,40.9398611 L1.20291667,40.8431944 L1.11527778,40.7555556 L1.03430556,40.6784722 L0.9625,40.6091667 L0.893888889,40.5529167 L0.828055556,40.5059722 L0.796805556,40.4876389 L0.765694444,40.4718056 L0.734305556,40.4588889 L0.702916667,40.4470833 L0.671527778,40.4379167 L0.637222222,40.4338889 L0.602916667,40.43125 L0.568611111,40.4275 L0.534305556,40.43125 L0.496666667,40.4379167 L0.459166667,40.4430556 L0.418611111,40.4561111 L0.374861111,40.4679167 L0.330972222,40.4836111 L0.280972222,40.5033333 L0.231111111,40.5240278 L0.121527778,40.5751389 L0,40.6379167 L0,38.9463889 L3.54680556,35.4025 L3.58736111,35.3659722 L3.66541667,35.3033333 L3.71861111,35.2693056 L3.77486111,35.2340278 L3.84055556,35.2026389 L3.90916667,35.17125 L3.94347222,35.1620833 L3.98111111,35.1502778 L4.02180556,35.14375 L4.05916667,35.1347222 L4.1,35.1306944 L4.17805556,35.1306944 L4.21861111,35.1372222 L4.25902778,35.1463889 L4.3,35.1555556 L4.34041667,35.17125 L4.38430556,35.1936111 L4.42152778,35.2183333 L4.46236111,35.2470833 L4.50291667,35.2809722 L4.54375,35.3188889 L4.58097222,35.3555556 L4.61569444,35.3934722 L4.64375,35.4338889 L4.66861111,35.4745833 L4.68722222,35.515 L4.70291667,35.5555556 L4.7125,35.5998611 L4.71861111,35.6431944 L4.72194444,35.6875 L4.71861111,35.7345833 L4.7125,35.7777778 L4.70291667,35.8247222 L4.68722222,35.8718056 L4.67152778,35.9190278 L4.65,35.9659722 L4.62486111,36.0118056 L4.5625,36.1345833 L4.51236111,36.2431944 L4.49055556,36.2968056 L4.47194444,36.3438889 L4.45625,36.3908333 L4.44375,36.4340278 L4.43097222,36.4744444 L4.42486111,36.515 L4.41861111,36.5530556 L4.41527778,36.5869444 L4.41527778,36.6247222 L4.41861111,36.6588889 L4.42486111,36.6902778 L4.43097222,36.7254167 L4.44375,36.7555556 L4.45625,36.7869444 L4.47194444,36.8222222 L4.49055556,36.8536111 L4.50944444,36.8836111 L4.53430556,36.9188889 L4.55916667,36.9502778 L4.58722222,36.9843056 L4.65,37.05625 L4.72486111,37.1347222 L4.80916667,37.2183333 L4.90291667,37.3123611 L12.6591667,45.0679167 L12.7529167,45.1620833 L12.8372222,45.2470833 L12.9154167,45.3215278 L12.9872222,45.3844444 L13.0215278,45.4118056 L13.0529167,45.4405556 L13.0872222,45.4626389 L13.1186111,45.4836111 L13.1497222,45.5033333 L13.1809722,45.515 L13.2120833,45.5306944 L13.2434722,45.5398611 L13.2748611,45.5463889 L13.3091667,45.5529167 L13.3401389,45.5555556 L13.3777778,45.5555556 L13.4120833,45.5529167 L13.4872222,45.5398611 L13.5277778,45.5281944 L13.5686111,45.515 L13.6120833,45.4993056 L13.6591667,45.4811111 L13.7091667,45.4588889 L13.8154167,45.4090278 L13.9340278,45.3463889 L13.9811111,45.3280556 L14.0277778,45.3086111 L14.0748611,45.2966667 L14.1248611,45.28375 L14.1715278,45.2784722 L14.2216667,45.2719444 L14.2686111,45.2719444 L14.3186111,45.2745833 L14.3654167,45.2784722 L14.4120833,45.2875 L14.4591667,45.3033333 L14.5058333,45.3188889 L14.5495833,45.3398611 L14.5968056,45.3659722 L14.6372222,45.3961111 L14.6811111,45.4275 L14.7183333,45.4679167 L14.7497222,45.5084722 L14.7748611,45.5504167 L14.7963889,45.5908333 L14.8152778,45.6313889 L14.8311111,45.6719444 L14.8405556,45.7123611 L14.8466667,45.7530556 L14.8495833,45.7934722 L14.8495833,45.8745833 L14.8434722,45.9123611 L14.8373611,45.9529167 L14.8277778,45.9908333 L14.8186111,46.0273611 L14.80625,46.0627778 L14.7777778,46.1308333 L14.7468056,46.1959722 L14.7120833,46.2561111 L14.6811111,46.3058333 L14.6244444,46.3843056 L14.5968056,46.4273611 L11.0248611,50 Z M11.0811111,39.5843056 L9.77805556,40.8876389 L8.91861111,40 L10.2219444,38.6966667 L6.86861111,35.3463889 L6.77152778,35.2536111 L6.68430556,35.1686111 L6.60291667,35.0966667 L6.53097222,35.0338889 L6.49347222,35.0065278 L6.46236111,34.9818056 L6.42777778,34.9595833 L6.39680556,34.9398611 L6.36555556,34.9216667 L6.33430556,34.9098611 L6.30291667,34.8966667 L6.27180556,34.8875 L6.23722222,34.8784722 L6.20625,34.8744444 L6.17152778,34.8719444 L6.13736111,34.8719444 L6.10291667,34.8744444 L6.06527778,34.8811111 L6.02486111,34.8875 L5.98430556,34.8993056 L5.89666667,34.9255556 L5.79958333,34.9659722 L5.69055556,35.0118056 L5.56861111,35.0693056 L5.52152778,35.0941667 L5.47194444,35.115 L5.42486111,35.1306944 L5.37805556,35.1463889 L5.32805556,35.1555556 L5.28097222,35.1620833 L5.23430556,35.1659722 L5.18722222,35.1620833 L5.14055556,35.1555556 L5.09375,35.1463889 L5.04972222,35.1306944 L5.00611111,35.1125 L4.96527778,35.0876389 L4.92486111,35.0588889 L4.88430556,35.0248611 L4.84666667,34.9868056 L4.77805556,34.9059722 L4.75291667,34.8694444 L4.72805556,34.8248611 L4.70916667,34.7841667 L4.69680556,34.74375 L4.68430556,34.7033333 L4.67819444,34.6626389 L4.67152778,34.6222222 L4.67152778,34.5438889 L4.67819444,34.5033333 L4.68138889,34.4652778 L4.69055556,34.4248611 L4.69958333,34.3869444 L4.7125,34.3529167 L4.74055556,34.2836111 L4.76861111,34.2181944 L4.80291667,34.1620833 L4.83430556,34.1098611 L4.89375,34.0313889 L4.93097222,33.9869444 L9.11208333,29.8340278 L9.12805556,29.8156944 L9.15611111,29.7869444 L9.19041667,29.7569444 L9.23430556,29.7254167 L9.28402778,29.6876389 L9.34347222,29.6536111 L9.40625,29.6222222 L9.47777778,29.5934722 L9.51236111,29.5843056 L9.54958333,29.5751389 L9.58722222,29.5661111 L9.62777778,29.5594444 L9.66527778,29.5569444 L9.70625,29.5569444 L9.74680556,29.5594444 L9.78722222,29.5661111 L9.82777778,29.5751389 L9.86833333,29.5868056 L9.90916667,29.6026389 L9.95,29.6248611 L9.99055556,29.6497222 L10.0311111,29.6784722 L10.0716667,29.7125 L10.1091667,29.7502778 L10.1497222,29.7869444 L10.1840278,29.82875 L10.2120833,29.8694444 L10.2372222,29.9098611 L10.2558333,29.9529167 L10.2716667,30 L10.2809722,30.0431944 L10.2872222,30.0901389 L10.2872222,30.1843056 L10.2809722,30.2340278 L10.2716667,30.2809722 L10.2558333,30.3280556 L10.2372222,30.3777778 L10.2186111,30.4248611 L10.1934722,30.4718056 L10.1311111,30.5908333 L10.0809722,30.6941667 L10.0591667,30.7436111 L10.0402778,30.7908333 L10.0248611,30.8338889 L10.0120833,30.8783333 L9.99972222,30.915 L9.99347222,30.9555556 L9.98722222,30.9934722 L9.98430556,31.0273611 L9.98430556,31.0627778 L9.98722222,31.0966667 L9.99055556,31.1280556 L9.99972222,31.1595833 L10.0091667,31.1908333 L10.0218056,31.2222222 L10.0373611,31.2561111 L10.0561111,31.2876389 L10.0777778,31.3190278 L10.0997222,31.3504167 L10.1248611,31.3843056 L10.1561111,31.4183333 L10.2186111,31.4901389 L10.2934722,31.5659722 L10.3777778,31.6536111 L10.4715278,31.7438889 L18.2277778,39.4994444 L18.3215278,39.5961111 L18.4058333,39.6784722 L18.4806944,39.7529167 L18.5526389,39.8181944 L18.5873611,39.8470833 L18.6215278,39.8718056 L18.6526389,39.8940278 L18.6872222,39.9151389 L18.7181944,39.9345833 L18.7497222,39.9502778 L18.7811111,39.9622222 L18.8120833,39.97125 L18.8434722,39.9816667 L18.8777778,39.9843056 L18.9091667,39.9868056 L18.9434722,39.9868056 L18.9811111,39.9843056 L19.0154167,39.9816667 L19.0559722,39.97125 L19.0963889,39.9622222 L19.1369444,39.9463889 L19.1811111,39.9306944 L19.2277778,39.9123611 L19.2777778,39.8901389 L19.3840278,39.8405556 L19.4995833,39.7777778 L19.5526389,39.7595833 L19.6030556,39.74375 L19.6526389,39.7280556 L19.7029167,39.7190278 L19.7526389,39.7098611 L19.7997222,39.7058333 L19.8463889,39.7033333 L19.8934722,39.7058333 L19.9372222,39.7125 L19.9811111,39.7215278 L20.0244444,39.7347222 L20.065,39.7502778 L20.1059722,39.7713889 L20.1468056,39.7961111 L20.1840278,39.8275 L20.2215278,39.8627778 L20.2558333,39.8993056 L20.2901389,39.9398611 L20.3154167,39.9816667 L20.3401389,40.0222222 L20.3559722,40.0626389 L20.3715278,40.1033333 L20.3840278,40.14375 L20.3902778,40.1843056 L20.3963889,40.2248611 L20.3963889,40.3058333 L20.3902778,40.3438889 L20.3840278,40.3844444 L20.3777778,40.4222222 L20.3681944,40.4588889 L20.3559722,40.4941667 L20.3277778,40.5659722 L20.2963889,40.6275 L20.2654167,40.6875 L20.2340278,40.7373611 L20.1748611,40.8156944 L20.1369444,40.8588889 L15.9558333,45.0118056 L15.9433333,45.0338889 L15.9215278,45.0588889 L15.8902778,45.0901389 L15.8497222,45.1241667 L15.7995833,45.1594444 L15.7434722,45.1936111 L15.7120833,45.2116667 L15.6809722,45.2275 L15.6466667,45.2430556 L15.6120833,45.25625 L15.5748611,45.2679167 L15.5372222,45.2784722 L15.4997222,45.2875 L15.4623611,45.2941667 L15.4215278,45.2993056 L15.3372222,45.2993056 L15.2966667,45.2941667 L15.2558333,45.2875 L15.2120833,45.2745833 L15.1681944,45.2627778 L15.1277778,45.2430556 L15.0843056,45.2222222 L15.0402778,45.1936111 L14.9997222,45.1620833 L14.9591667,45.1241667 L14.9248611,45.0811111 L14.8934722,45.0404167 L14.8683333,44.9934722 L14.8466667,44.9502778 L14.8311111,44.9033333 L14.8186111,44.85625 L14.8091667,44.8091667 L14.80625,44.7619444 L14.80625,44.7125 L14.8091667,44.6654167 L14.8152778,44.6155556 L14.8244444,44.56875 L14.8405556,44.5188889 L14.8558333,44.4718056 L14.8777778,44.4248611 L14.9029167,44.3779167 L14.9652778,44.2588889 L15.0154167,44.1529167 L15.0373611,44.1031944 L15.0558333,44.0588889 L15.0716667,44.0118056 L15.0843056,43.97125 L15.0963889,43.9306944 L15.1026389,43.8941667 L15.1091667,43.85625 L15.1091667,43.7869444 L15.1058333,43.7529167 L15.1026389,43.7188889 L15.0934722,43.6876389 L15.0809722,43.6561111 L15.0683333,43.6248611 L15.0529167,43.5934722 L15.0340278,43.5620833 L14.9872222,43.4968056 L14.9309722,43.4313889 L14.8620833,43.3594444 L14.7840278,43.2809722 L14.6963889,43.1961111 L14.5968056,43.1033333 L11.0811111,39.5843056 Z" id="Fill-3" fill="#FFFFFE" mask="url(#mask-2)"></path>
                        <path d="M49.97125,8.53208333 L49.97125,11.0248611 L47.8365278,13.1594444 L47.0091667,12.2993056 L47.0993056,12.1751389 L47.1868056,12.0470833 L47.2705556,11.9151389 L47.3463889,11.7843056 L47.4183333,11.6495833 L47.48375,11.515 L47.5463889,11.3777778 L47.59875,11.2379167 L47.6497222,11.0966667 L47.6927778,10.9569444 L47.7334722,10.8130556 L47.7673611,10.6693056 L47.7961111,10.5215278 L47.8183333,10.3751389 L47.8365278,10.2286111 L47.8497222,10.0783333 L47.8561111,9.93069444 L47.8561111,9.78166667 L47.8523611,9.63138889 L47.8458333,9.48111111 L47.8301389,9.32805556 L47.8116667,9.17777778 L47.7869444,9.02875 L47.7580556,8.87444444 L47.7240278,8.72541667 L47.6836111,8.57263889 L47.6391667,8.42222222 L47.5895833,8.27194444 L47.5333333,8.12152778 L47.4745833,7.9725 L47.4091667,7.82222222 L47.34,7.67194444 L47.2966667,7.55027778 L47.2588889,7.42486111 L47.2404167,7.36597222 L47.2248611,7.30333333 L47.2118056,7.24444444 L47.2052778,7.18430556 L47.19875,7.12805556 L47.19875,7.07180556 L47.2026389,7.04458333 L47.2052778,7.01569444 L47.2118056,6.98819444 L47.2184722,6.95930556 L47.2275,6.93472222 L47.2366667,6.90986111 L47.2497222,6.88111111 L47.2613889,6.85625 L47.2770833,6.83125 L47.2966667,6.80652778 L47.3177778,6.78430556 L47.34,6.75944444 L47.3869444,6.71902778 L47.4301389,6.68097222 L47.4745833,6.64958333 L47.5176389,6.62472222 L47.5620833,6.60388889 L47.6052778,6.58430556 L47.6456944,6.5725 L47.6836111,6.56208333 L47.7240278,6.55680556 L47.7622222,6.55305556 L47.7986111,6.55305556 L47.8338889,6.55680556 L47.8679167,6.56208333 L47.9020833,6.5725 L47.9333333,6.58166667 L47.9647222,6.59347222 L48.0247222,6.62236111 L48.0770833,6.65625 L48.1268056,6.69027778 L48.1684722,6.72805556 L48.2365278,6.79736111 L48.2809722,6.84055556 L49.97125,8.53208333 Z M38.9176389,0 L41.2458333,0 L43.0745833,1.82875 L43.0901389,1.84708333 L43.1123611,1.86930556 L43.1334722,1.89666667 L43.1581944,1.93069444 L43.1802778,1.96875 L43.1986111,2.01291667 L43.2183333,2.06013889 L43.2301389,2.10972222 L43.2340278,2.13736111 L43.2340278,2.22486111 L43.2301389,2.25625 L43.2248611,2.28763889 L43.2145833,2.31888889 L43.2026389,2.35291667 L43.1869444,2.39097222 L43.1684722,2.42486111 L43.1490278,2.46263889 L43.1241667,2.50069444 L43.0968056,2.53736111 L43.0654167,2.57777778 L43.03,2.61833333 L42.9895833,2.66 L42.9426389,2.70333333 L42.8994444,2.73722222 L42.8523611,2.76597222 L42.8051389,2.78819444 L42.7622222,2.80388889 L42.715,2.81569444 L42.6679167,2.81833333 L42.6247222,2.81833333 L42.5777778,2.81569444 L42.5281944,2.80652778 L42.4809722,2.79347222 L42.4301389,2.775 L42.3241667,2.73722222 L42.2143056,2.68763889 L42.0680556,2.61305556 L41.9215278,2.54111111 L41.7738889,2.47847222 L41.6275,2.41819444 L41.4811111,2.36347222 L41.3372222,2.31638889 L41.1934722,2.27180556 L41.0497222,2.23125 L40.9058333,2.2 L40.7620833,2.17263889 L40.6209722,2.15027778 L40.4772222,2.13472222 L40.3372222,2.12152778 L40.1936111,2.11625 L40.0523611,2.11625 L39.9123611,2.12152778 L39.7713889,2.13472222 L39.6301389,2.15027778 L39.4901389,2.17513889 L39.3490278,2.20388889 L39.2091667,2.23402778 L39.0718056,2.27444444 L38.9306944,2.32152778 L38.7895833,2.3725 L38.6495833,2.42875 L38.5123611,2.49027778 L38.3711111,2.55958333 L38.2301389,2.63402778 L38.0927778,2.71638889 L37.9530556,2.8 L37.8116667,2.89416667 L37.6719444,2.99083333 L36.7868056,2.13472222 L38.9176389,0 Z M32.2430556,6.67458333 L36.1215278,2.79736111 L47.1738889,13.8220833 L43.2966667,17.6993056 L43.2809722,17.7215278 L43.2522222,17.7463889 L43.2183333,17.7777778 L43.1738889,17.8116667 L43.1216667,17.8470833 L43.0654167,17.8809722 L43,17.915 L42.9308333,17.94375 L42.8966667,17.9569444 L42.85875,17.9659722 L42.8209722,17.9751389 L42.7804167,17.9818056 L42.7425,17.9843056 L42.7019444,17.9869444 L42.6613889,17.9869444 L42.6209722,17.9818056 L42.5804167,17.9751389 L42.5398611,17.9620833 L42.4993056,17.9463889 L42.45875,17.9281944 L42.4183333,17.9059722 L42.3777778,17.8809722 L42.3372222,17.8470833 L42.2993056,17.8116667 L42.2588889,17.76875 L42.2248611,17.7281944 L42.19625,17.685 L42.17125,17.6405556 L42.1529167,17.5973611 L42.1373611,17.5529167 L42.1268056,17.5059722 L42.1215278,17.4626389 L42.1176389,17.4158333 L42.1215278,17.37125 L42.1268056,17.3254167 L42.1373611,17.2784722 L42.1529167,17.23125 L42.1686111,17.1843056 L42.1895833,17.1373611 L42.2143056,17.0902778 L42.2770833,16.96875 L42.3268056,16.8588889 L42.3490278,16.8091667 L42.36875,16.7594444 L42.3844444,16.7125 L42.3961111,16.6693056 L42.4091667,16.6288889 L42.4158333,16.5869444 L42.4209722,16.5502778 L42.4209722,16.4784722 L42.4183333,16.4431944 L42.4158333,16.4130556 L42.4051389,16.3777778 L42.3934722,16.3463889 L42.3804167,16.315 L42.3647222,16.2811111 L42.3463889,16.2495833 L42.3241667,16.2181944 L42.2993056,16.1843056 L42.2705556,16.1530556 L42.2430556,16.1190278 L42.1738889,16.0470833 L42.0968056,15.9686111 L42.0091667,15.8836111 L41.9125,15.7908333 L34.1804167,8.03402778 L33.9959722,7.85611111 L33.8431944,7.71888889 L33.7738889,7.66277778 L33.7084722,7.61833333 L33.6772222,7.60263889 L33.6458333,7.58680556 L33.6143056,7.5725 L33.5843056,7.56208333 L33.5490278,7.55680556 L33.5176389,7.55027778 L33.4836111,7.54638889 L33.4497222,7.54638889 L33.4156944,7.55027778 L33.3777778,7.55680556 L33.3372222,7.56208333 L33.2966667,7.57513889 L33.2561111,7.58680556 L33.2091667,7.60263889 L33.1620833,7.62222222 L33.1123611,7.64444444 L33.0025,7.69402778 L32.8809722,7.75694444 L32.8338889,7.775 L32.7843056,7.79347222 L32.7372222,7.80652778 L32.6901389,7.81833333 L32.6406944,7.82486111 L32.5934722,7.83138889 L32.5463889,7.83138889 L32.4993056,7.82861111 L32.4522222,7.82486111 L32.4051389,7.81305556 L32.3622222,7.8 L32.3177778,7.78444444 L32.2770833,7.76222222 L32.2366667,7.73722222 L32.19625,7.70583333 L32.1595833,7.67194444 L32.1241667,7.63402778 L32.0902778,7.59347222 L32.0652778,7.55291667 L32.0404167,7.5125 L32.0208333,7.47194444 L32.0091667,7.43138889 L31.9961111,7.39097222 L31.9894444,7.35027778 L31.9843056,7.30986111 L31.9843056,7.22875 L31.9894444,7.19083333 L31.9936111,7.15027778 L32.0026389,7.1125 L32.0116667,7.07444444 L32.0248611,7.04041667 L32.0523611,6.9725 L32.08375,6.90583333 L32.1151389,6.84708333 L32.1490278,6.79736111 L32.1777778,6.75291667 L32.2052778,6.71902778 L32.2275,6.69027778 L32.2430556,6.67458333 Z" id="Fill-4" fill="#FFFFFE" mask="url(#mask-2)"></path>
                        <polyline id="Fill-5" fill="#FFFFFE" mask="url(#mask-2)" points="28.0340278 48.17125 26.2052778 50 25.2340278 50 25.25625 49.9529167 25.2809722 49.9033333 25.2927778 49.8784722 25.3086111 49.8523611 25.3241667 49.8275 25.3463889 49.8063889 25.3530556 49.7869444 25.3595833 49.7686111 25.3620833 49.7502778 25.3620833 49.6966667 25.3555556 49.6561111 25.3463889 49.6209722 25.3308333 49.5843056 25.3123611 49.5463889 25.2901389 49.5123611 25.2652778 49.4770833 25.2405556 49.4430556 25.2116667 49.4118056 25.1804167 49.3804167 25.1241667 49.3280556 25.0679167 49.2809722 20.7183333 44.9306944 20.6744444 44.8744444 20.6183333 44.8118056 20.5872222 44.7841667 20.5558333 44.7529167 20.5215278 44.7241667 20.4872222 44.6993056 20.4526389 44.6744444 20.4154167 44.6561111 20.3777778 44.6404167 20.3401389 44.6313889 20.3026389 44.6275 20.2683333 44.6275 20.2497222 44.6313889 20.2306944 44.6379167 20.2120833 44.6431944 20.1934722 44.6522222 20.1120833 44.6966667 20.0306944 44.7372222 19.9934722 44.7555556 19.9526389 44.7713889 19.9120833 44.7841667 19.8748611 44.7961111 19.8340278 44.8026389 19.7963889 44.8063889 19.7558333 44.8063889 19.7183333 44.7961111 19.6963889 44.7936111 19.6777778 44.7841667 19.6591667 44.7777778 19.6372222 44.7647222 19.6183333 44.7555556 19.5968056 44.74 19.5777778 44.7241667 19.5558333 44.7098611 19.5401389 44.6876389 19.5248611 44.6679167 19.5088889 44.6470833 19.4995833 44.6248611 19.4905556 44.6065278 19.4840278 44.5843056 19.4777778 44.5661111 19.4715278 44.5438889 19.4683333 44.5031944 19.4715278 44.4627778 19.4777778 44.4222222 19.4905556 44.3841667 19.5058333 44.34375 19.5277778 44.3058333 19.5495833 44.2719444 19.5745833 44.2340278 19.6340278 44.1661111 19.6933333 44.0994444 21.8277778 41.9659722 28.0340278 48.17125"></polyline>
                    </g>
                    <polyline id="Fill-7" fill="#FFFFFE" points="47.4772222 20.1659722 47.4954167 20.1936111 47.5215278 20.2380556 47.5463889 20.2901389 47.5581944 20.3215278 47.5673611 20.3555556 47.5738889 20.3934722 47.5738889 20.43125 47.57125 20.4718056 47.5647222 20.5123611 47.5554167 20.5347222 47.5463889 20.5555556 47.5373611 20.5776389 47.5241667 20.5998611 47.5086111 20.6248611 47.4927778 20.6470833 47.4705556 20.6679167 47.4497222 20.6941667 47.4275 20.7123611 47.4026389 20.7308333 47.3804167 20.7463889 47.3555556 20.7595833 47.3333333 20.7686111 47.3086111 20.7777778 47.2863889 20.7869444 47.2654167 20.7934722 47.2404167 20.7973611 47.2184722 20.8 47.17125 20.8 47.1241667 20.7934722 47.0809722 20.7818056 47.0340278 20.7686111 46.9894444 20.7502778 46.9465278 20.7255556 46.9019444 20.6994444 46.8143056 20.6431944 46.7306944 20.5816667 46.6340278 20.5123611 46.5372222 20.4470833 46.4340278 20.3777778 46.3269444 20.3097222 46.2144444 20.2470833 46.1020833 20.1843056 45.9868056 20.1255556 45.8680556 20.0720833 45.8051389 20.0470833 45.7463889 20.0248611 45.6836111 20.0026389 45.6209722 19.9843056 45.5555556 19.9661111 45.4927778 19.9502778 45.4273611 19.9345833 45.3620833 19.9216667 45.2968056 19.9123611 45.23 19.9059722 45.1620833 19.9033333 45.0968056 19.8993056 45.0275 19.8993056 44.9580556 19.9033333 44.8901389 19.9098611 44.8183333 19.9151389 44.3490278 19.4470833 45.5398611 18.2561111 47.4772222 20.1659722"></polyline>
                    <polyline id="Fill-8" fill="#FFFFFE" points="42.4652778 25.2340278 42.48375 25.2536111 42.5241667 25.2784722 42.5490278 25.2901389 42.5777778 25.3058333 42.6090278 25.31625 42.6431944 25.3255556 42.6811111 25.3308333 42.7215278 25.3345833 42.7622222 25.3308333 42.8051389 25.3215278 42.8273611 25.31625 42.8523611 25.3058333 42.8744444 25.2941667 42.8966667 25.2809722 42.9215278 25.2652778 42.9426389 25.2497222 42.9686111 25.2313889 42.9895833 25.2063889 43.0091667 25.1869444 43.0275 25.1659722 43.0431944 25.14375 43.0548611 25.1215278 43.0680556 25.0993056 43.0770833 25.0783333 43.0901389 25.0338889 43.0927778 25.0131944 43.0968056 24.9868056 43.0968056 24.9438889 43.0901389 24.8966667 43.0811111 24.8497222 43.0654167 24.8063889 43.0458333 24.7619444 43.0247222 24.7190278 43 24.6744444 42.97125 24.6313889 42.9398611 24.5909722 42.9125 24.5529167 42.8809722 24.5151389 42.8116667 24.4156944 42.7425 24.3125 42.6745833 24.2065278 42.6090278 24.0966667 42.5425 23.9844444 42.4809722 23.8680556 42.4248611 23.7529167 42.37125 23.6313889 42.3463889 23.57125 42.3241667 23.5098611 42.3019444 23.4497222 42.2811111 23.3869444 42.2613889 23.3241667 42.2456944 23.25875 42.2340278 23.1973611 42.2208333 23.1306944 42.2118056 23.0693056 42.2026389 23.0026389 42.19875 22.9372222 42.19625 22.8719444 42.19625 22.8065278 42.19875 22.7372222 42.2052778 22.6719444 42.2143056 22.6026389 41.7151389 22.1058333 40.5240278 23.2966667 42.4652778 25.2340278"></polyline>
                    <polyline id="Fill-9" fill="#FFFFFE" points="41.9372222 21.85625 43.9869444 19.8063889 49.2522222 25.0966667 49.3529167 25.1998611 49.4365278 25.2784722 49.4744444 25.3097222 49.5084722 25.3345833 49.5463889 25.3529167 49.5804167 25.3659722 49.5961111 25.37125 49.6144444 25.3751389 49.6523611 25.3751389 49.6927778 25.37125 49.7372222 25.3620833 49.7869444 25.3463889 49.8393056 25.3255556 49.9019444 25.2966667 49.97125 25.2627778 49.97125 26.2313889 48.0052778 28.2 47.9738889 28.2273611 47.9241667 28.2654167 47.8966667 28.2875 47.8615278 28.3059722 47.8248611 28.3254167 47.7869444 28.3411111 47.7463889 28.3530556 47.7019444 28.3620833 47.6340278 28.3620833 47.6118056 28.3594444 47.5869444 28.3530556 47.5647222 28.3463889 47.5398611 28.3372222 47.5176389 28.3281944 47.4927778 28.3125 47.4680556 28.2966667 47.4456944 28.2783333 47.4209722 28.2561111 47.4026389 28.2338889 47.3869444 28.2130556 47.37125 28.1908333 47.3581944 28.1686111 47.3490278 28.14375 47.3425 28.1215278 47.3372222 28.0968056 47.3333333 28.0719444 47.3306944 28.0469444 47.3306944 28.0222222 47.3333333 27.9973611 47.3372222 27.9725 47.3490278 27.9188889 47.36875 27.8652778 47.4051389 27.7973611 47.4365278 27.7372222 47.4615278 27.6811111 47.4809722 27.62875 47.4927778 27.5841667 47.4993056 27.5411111 47.4993056 27.4993056 47.4954167 27.4809722 47.4927778 27.4626389 47.4772222 27.4248611 47.45875 27.3869444 47.4301389 27.3502778 47.39875 27.3098611 47.3581944 27.2693056 47.3123611 27.2222222 47.2588889 27.1751389 47.2026389 27.1190278 41.9372222 21.85625"></polyline>
                    <path d="M47.1463889,48.3659722 L46.8966667,48.3659722 L46.8966667,46.7306944 L47.5059722,46.7306944 L47.5738889,46.7345833 L47.6431944,46.7372222 L47.7019444,46.7463889 L47.7580556,46.7594444 L47.8116667,46.7751389 L47.85875,46.7933333 L47.9020833,46.8155556 L47.9426389,46.8405556 L47.9776389,46.8719444 L48.0052778,46.9058333 L48.03,46.9465278 L48.0523611,46.9869444 L48.0680556,47.0340278 L48.0770833,47.0875 L48.0836111,47.1438889 L48.08625,47.2026389 L48.08625,47.2522222 L48.0811111,47.2993056 L48.0704167,47.34375 L48.05875,47.3843056 L48.0405556,47.4222222 L48.0209722,47.45625 L47.99875,47.4875 L47.9738889,47.5190278 L47.9426389,47.54375 L47.9111111,47.5661111 L47.8772222,47.5869444 L47.8431944,47.6026389 L47.8026389,47.6184722 L47.7622222,47.63125 L47.7176389,47.6405556 L47.6706944,47.6470833 L48.115,48.3659722 L47.8365278,48.3659722 L47.4209722,47.6470833 L47.1463889,47.6470833 L47.1463889,48.3659722 L47.4209722,47.4497222 L47.5059722,47.4497222 L47.5804167,47.4470833 L47.6183333,47.4430556 L47.6523611,47.4366667 L47.6836111,47.4313889 L47.715,47.4222222 L47.74,47.4065278 L47.7647222,47.3909722 L47.7869444,47.37125 L47.8051389,47.3465278 L47.8183333,47.3188889 L47.8301389,47.2836111 L47.8365278,47.2472222 L47.8365278,47.1619444 L47.8301389,47.1280556 L47.8183333,47.0940278 L47.8051389,47.0652778 L47.7869444,47.0404167 L47.7673611,47.0181944 L47.7463889,46.9959722 L47.7215278,46.9816667 L47.6927778,46.9647222 L47.6652778,46.9555556 L47.6340278,46.94375 L47.6052778,46.9372222 L47.57125,46.9306944 L47.5398611,46.9280556 L47.5086111,46.9241667 L47.1463889,46.9241667 L47.1463889,47.4497222 L47.4209722,47.4497222 L47.1463889,48.3659722 Z M47.4497222,48.7241667 L47.5086111,48.7241667 L47.5673611,48.7188889 L47.6247222,48.7123611 L47.6811111,48.7031944 L47.7372222,48.6901389 L47.7895833,48.6744444 L47.8431944,48.6561111 L47.8966667,48.6379167 L47.9463889,48.6156944 L47.9959722,48.5908333 L48.0431944,48.5620833 L48.0901389,48.5306944 L48.1334722,48.4993056 L48.1779167,48.4654167 L48.2183333,48.4275 L48.255,48.3908333 L48.2927778,48.3504167 L48.3306944,48.3059722 L48.3620833,48.2627778 L48.3934722,48.2156944 L48.4247222,48.1686111 L48.4497222,48.1188889 L48.4745833,48.0652778 L48.4993056,48.0118056 L48.5176389,47.9595833 L48.5372222,47.9031944 L48.5490278,47.8430556 L48.5620833,47.7844444 L48.57375,47.7241667 L48.5804167,47.6627778 L48.5843056,47.6 L48.5869444,47.5347222 L48.5843056,47.4719444 L48.5804167,47.4116667 L48.57375,47.3529167 L48.5620833,47.2941667 L48.5490278,47.2366667 L48.5372222,47.1804167 L48.5176389,47.1241667 L48.4993056,47.0718056 L48.4745833,47.0223611 L48.4497222,46.97125 L48.4247222,46.9215278 L48.3934722,46.8744444 L48.3620833,46.8273611 L48.3306944,46.7843056 L48.2927778,46.7438889 L48.255,46.7033333 L48.2183333,46.6652778 L48.1779167,46.6313889 L48.1334722,46.5959722 L48.0901389,46.5659722 L48.0431944,46.5345833 L47.9959722,46.5058333 L47.9463889,46.4809722 L47.8966667,46.45875 L47.8431944,46.4405556 L47.7895833,46.4220833 L47.7372222,46.4065278 L47.6811111,46.3933333 L47.6247222,46.3843056 L47.5673611,46.3777778 L47.5086111,46.37125 L47.3894444,46.37125 L47.3268056,46.3777778 L47.2679167,46.3843056 L47.2090278,46.3933333 L47.1529167,46.4065278 L47.0968056,46.4220833 L47.0404167,46.4405556 L46.9869444,46.45875 L46.9372222,46.4809722 L46.8863889,46.5058333 L46.8366667,46.5345833 L46.7895833,46.5659722 L46.7425,46.5959722 L46.6993056,46.6313889 L46.6588889,46.6652778 L46.6181944,46.7033333 L46.5804167,46.7438889 L46.5465278,46.7843056 L46.5125,46.8273611 L46.4497222,46.9215278 L46.4208333,46.97125 L46.3961111,47.0223611 L46.3738889,47.0718056 L46.3555556,47.1241667 L46.3372222,47.1804167 L46.3216667,47.2366667 L46.3084722,47.2941667 L46.2993056,47.3529167 L46.2929167,47.4116667 L46.28625,47.4719444 L46.28625,47.6 L46.2929167,47.6627778 L46.2993056,47.7241667 L46.3084722,47.7844444 L46.3216667,47.8430556 L46.3372222,47.9031944 L46.3555556,47.9595833 L46.3738889,48.0118056 L46.3961111,48.0652778 L46.4208333,48.1188889 L46.4497222,48.1686111 L46.5125,48.2627778 L46.5465278,48.3059722 L46.5804167,48.3504167 L46.6181944,48.3908333 L46.6588889,48.4275 L46.6993056,48.4654167 L46.7425,48.4993056 L46.8366667,48.5620833 L46.8863889,48.5908333 L46.9372222,48.6156944 L46.9869444,48.6379167 L47.0404167,48.6561111 L47.0968056,48.6744444 L47.1529167,48.6901389 L47.2090278,48.7031944 L47.2679167,48.7123611 L47.3268056,48.7188889 L47.3894444,48.7241667 L47.4497222,48.7241667 Z M46.0093056,47.5347222 L46.0118056,47.4588889 L46.0183333,47.3869444 L46.0273611,47.3151389 L46.0405556,47.2430556 L46.055,47.1751389 L46.0744444,47.1084722 L46.0966667,47.0431944 L46.1215278,46.9777778 L46.1490278,46.9188889 L46.1804167,46.8588889 L46.2144444,46.8 L46.2523611,46.7438889 L46.2929167,46.6902778 L46.3372222,46.6379167 L46.3804167,46.5869444 L46.4273611,46.5398611 L46.4770833,46.4966667 L46.5306944,46.4522222 L46.5843056,46.4118056 L46.6393056,46.3751389 L46.6993056,46.3397222 L46.7581944,46.3084722 L46.8208333,46.2811111 L46.8863889,46.2523611 L46.9529167,46.2275 L47.0181944,46.2091667 L47.08625,46.1908333 L47.1581944,46.1752778 L47.2275,46.1659722 L47.3019444,46.1555556 L47.3738889,46.1502778 L47.5215278,46.1502778 L47.5895833,46.1555556 L47.6588889,46.1659722 L47.7240278,46.1752778 L47.7934722,46.1908333 L47.85875,46.2091667 L47.9215278,46.2275 L47.9869444,46.2523611 L48.0497222,46.2811111 L48.1084722,46.3084722 L48.1684722,46.3397222 L48.2248611,46.3751389 L48.2809722,46.4118056 L48.3333333,46.4522222 L48.3869444,46.4966667 L48.4366667,46.5398611 L48.4836111,46.5869444 L48.5306944,46.6379167 L48.57125,46.6902778 L48.6118056,46.7438889 L48.6495833,46.8 L48.68625,46.8588889 L48.7176389,46.9188889 L48.7465278,46.9777778 L48.7738889,47.0431944 L48.7959722,47.1084722 L48.8144444,47.1751389 L48.8340278,47.2430556 L48.8456944,47.3151389 L48.85625,47.3869444 L48.8615278,47.4588889 L48.8615278,47.6118056 L48.85625,47.6876389 L48.8456944,47.7622222 L48.8340278,47.8338889 L48.8144444,47.9059722 L48.7959722,47.9751389 L48.7738889,48.0406944 L48.7465278,48.1058333 L48.7176389,48.1686111 L48.68625,48.2313889 L48.6495833,48.2901389 L48.6118056,48.3463889 L48.57125,48.4025 L48.5306944,48.4522222 L48.4836111,48.5058333 L48.4366667,48.5529167 L48.3869444,48.5961111 L48.3333333,48.6405556 L48.2809722,48.6809722 L48.2248611,48.7188889 L48.1684722,48.7555556 L48.1084722,48.7869444 L48.0497222,48.8156944 L47.9869444,48.8431944 L47.9215278,48.8680556 L47.85875,48.8876389 L47.7934722,48.9058333 L47.7240278,48.9215278 L47.6588889,48.9306944 L47.5895833,48.9398611 L47.5215278,48.9463889 L47.3738889,48.9463889 L47.3019444,48.9398611 L47.2275,48.9306944 L47.1581944,48.9215278 L47.08625,48.9058333 L47.0181944,48.8876389 L46.9529167,48.8680556 L46.8863889,48.8431944 L46.8208333,48.8156944 L46.7581944,48.7869444 L46.6993056,48.7555556 L46.6393056,48.7188889 L46.5843056,48.6809722 L46.5306944,48.6405556 L46.4770833,48.5961111 L46.4273611,48.5529167 L46.3804167,48.5058333 L46.3372222,48.4522222 L46.2929167,48.4025 L46.2523611,48.3463889 L46.2144444,48.2901389 L46.1804167,48.2313889 L46.1490278,48.1686111 L46.1215278,48.1058333 L46.0966667,48.0406944 L46.0744444,47.9751389 L46.055,47.9059722 L46.0405556,47.8338889 L46.0273611,47.7622222 L46.0183333,47.6876389 L46.0118056,47.6118056 L46.0093056,47.5347222 Z" id="Fill-10" fill="#FFFFFE"></path>
                    <path d="M25.4836111,34.2654167 L25.5240278,34.1777778 L25.5594444,34.0941667 L25.5870833,34.0118056 L25.6118056,33.9345833 L25.6338889,33.85625 L25.6497222,33.7818056 L25.6654167,33.7097222 L25.6744444,33.6379167 L25.6772222,33.5684722 L25.6809722,33.5033333 L25.6809722,33.4405556 L25.6744444,33.3776389 L25.6680556,33.3188889 L25.65875,33.25875 L25.6470833,33.2026389 L25.6313889,33.1463889 L25.6118056,33.0941667 L25.5895833,33.0431944 L25.5686111,32.9934722 L25.54375,32.94375 L25.5176389,32.8993056 L25.4901389,32.8536111 L25.4588889,32.8091667 L25.43125,32.7659722 L25.3647222,32.6848611 L25.2968056,32.6065278 L25.2248611,32.5347222 L25.1529167,32.4652778 L17.5058333,24.8181944 L17.4372222,24.7463889 L17.3654167,24.6784722 L17.2872222,24.6091667 L17.2058333,24.5463889 L17.1620833,24.5151389 L17.1186111,24.4876389 L17.0748611,24.4588889 L17.0277778,24.4340278 L16.9777778,24.4118056 L16.9277778,24.3908333 L16.8777778,24.3686111 L16.8245833,24.3529167 L16.7686111,24.3372222 L16.7120833,24.3241667 L16.6558333,24.315 L16.5934722,24.3098611 L16.5309722,24.3031944 L16.4029167,24.3031944 L16.3338889,24.3098611 L16.2620833,24.3190278 L16.1905556,24.3306944 L16.1154167,24.3463889 L16.0372222,24.3661111 L15.9591667,24.3908333 L15.8777778,24.4183333 L15.7934722,24.4495833 L15.7059722,24.4876389 L14.8466667,23.6561111 L15.1681944,23.3998611 L15.4934722,23.1659722 L15.8183333,22.9569444 L16.1495833,22.7659722 L16.4806944,22.5961111 L16.8154167,22.4497222 L17.1497222,22.3241667 L17.4838889,22.2183333 L17.8215278,22.1306944 L18.1620833,22.0652778 L18.4997222,22.0181944 L18.8372222,21.9869444 L19.1748611,21.9777778 L19.5152778,21.9843056 L19.8495833,22.0116667 L20.1872222,22.0536111 L20.5215278,22.1125 L20.8526389,22.1908333 L21.1838889,22.2811111 L21.5120833,22.3909722 L21.8372222,22.515 L22.1588889,22.6534722 L22.4777778,22.8065278 L22.7934722,22.9751389 L23.1058333,23.1555556 L23.4120833,23.3530556 L23.7151389,23.5620833 L24.0120833,23.7843056 L24.3058333,24.0183333 L24.5934722,24.2654167 L24.8744444,24.5216667 L25.1529167,24.7908333 L25.4209722,25.0720833 L25.6809722,25.3595833 L25.9281944,25.6497222 L26.1620833,25.94625 L26.3843056,26.2495833 L26.5934722,26.5530556 L26.7895833,26.8654167 L26.9738889,27.1777778 L27.1438889,27.4940278 L27.2966667,27.8156944 L27.4365278,28.1411111 L27.5620833,28.4654167 L27.6745833,28.7934722 L27.7686111,29.1254167 L27.8470833,29.4588889 L27.9084722,29.7936111 L27.9530556,30.1281944 L27.9802778,30.4654167 L27.9895833,30.8025 L27.9802778,31.14125 L27.9555556,31.4784722 L27.9084722,31.8155556 L27.8470833,32.1529167 L27.7622222,32.4902778 L27.65625,32.8248611 L27.5333333,33.1594444 L27.3894444,33.4941667 L27.2248611,33.8247222 L27.0366667,34.1529167 L26.8275,34.4811111 L26.5959722,34.8026389 L26.3438889,35.1255556 L25.4836111,34.2654167 Z M15.0402778,25.1529167 L15.0029167,25.2404167 L14.9681944,25.3255556 L14.9372222,25.4065278 L14.9123611,25.4876389 L14.8901389,25.5659722 L14.8748611,25.6405556 L14.8591667,25.7123611 L14.8495833,25.7843056 L14.8434722,25.8536111 L14.8434722,25.9869444 L14.8466667,26.0497222 L14.8558333,26.1123611 L14.8654167,26.1725 L14.8777778,26.2273611 L14.8934722,26.285 L14.9091667,26.34125 L14.9277778,26.3908333 L14.9495833,26.4431944 L14.9748611,26.4941667 L14.9997222,26.54125 L15.0248611,26.5869444 L15.0529167,26.6313889 L15.0843056,26.6745833 L15.1154167,26.7190278 L15.1468056,26.7594444 L15.1777778,26.8 L15.2120833,26.8377778 L15.2777778,26.9125 L15.3463889,26.9816667 L23.065,34.6719444 L23.1434722,34.74375 L23.2215278,34.8118056 L23.3088889,34.8744444 L23.3530556,34.9059722 L23.3963889,34.9373611 L23.4433333,34.9659722 L23.4901389,34.9909722 L23.5401389,35.0156944 L23.5901389,35.0379167 L23.6430556,35.0588889 L23.6963889,35.0745833 L23.7526389,35.0941667 L23.80875,35.1059722 L23.8683333,35.115 L23.9277778,35.1215278 L23.9901389,35.1281944 L24.0559722,35.1281944 L24.1215278,35.1255556 L24.1901389,35.1215278 L24.2620833,35.1125 L24.3340278,35.0966667 L24.4088889,35.0811111 L24.4872222,35.0588889 L24.5654167,35.0338889 L24.6463889,35.0026389 L24.7311111,34.9686111 L24.8183333,34.9306944 L25.6772222,35.7908333 L25.3555556,36.0431944 L25.0338889,36.2745833 L24.7058333,36.4836111 L24.3745833,36.6718056 L24.0434722,36.8377778 L23.7120833,36.9843056 L23.3744444,37.1097222 L23.0402778,37.2118056 L22.7026389,37.2966667 L22.3620833,37.3620833 L22.0245833,37.4091667 L21.6840278,37.4379167 L21.3466667,37.4470833 L21.0091667,37.4379167 L20.6715278,37.4116667 L20.3340278,37.36875 L19.9997222,37.3098611 L19.6652778,37.23125 L19.3340278,37.1373611 L19.0058333,37.0313889 L18.6806944,36.9058333 L18.3558333,36.7661111 L18.0372222,36.6130556 L17.7183333,36.4431944 L17.4058333,36.2627778 L17.0963889,36.0654167 L16.7934722,35.8561111 L16.4934722,35.6338889 L16.1968056,35.4 L15.9090278,35.1529167 L15.6245833,34.8966667 L15.3463889,34.6248611 L15.0748611,34.3463889 L14.8186111,34.0627778 L14.5715278,33.7752778 L14.3372222,33.4784722 L14.1152778,33.1777778 L13.90625,32.8745833 L13.7091667,32.5661111 L13.5277778,32.2536111 L13.3590278,31.9372222 L13.2058333,31.6156944 L13.0654167,31.2940278 L12.9434722,30.9659722 L12.8340278,30.6379167 L12.7405556,30.3058333 L12.6620833,29.9751389 L12.6029167,29.6404167 L12.5591667,29.3031944 L12.5343056,28.9684722 L12.5244444,28.6313889 L12.5343056,28.2941667 L12.5623611,27.9554167 L12.6091667,27.6184722 L12.6748611,27.2811111 L12.7591667,26.94375 L12.8620833,26.6091667 L12.9904167,26.2745833 L13.1340278,25.94375 L13.2995833,25.6158333 L13.4872222,25.2875 L13.6963889,24.9622222 L13.9277778,24.6404167 L14.1840278,24.3215278 L15.0402778,25.1529167 Z" id="Fill-11" fill="#FFFFFE"></path>
                    <polyline id="Fill-12" fill="#FFFFFE" points="41.7425 18.3372222 41.7058333 18.3031944 41.6680556 18.2745833 41.6275 18.2495833 41.5843056 18.2273611 41.5398611 18.2130556 41.4966667 18.2 41.4522222 18.1908333 41.4052778 18.1844444 41.3581944 18.1844444 41.3084722 18.1869444 41.2613889 18.1973611 41.2144444 18.2066667 41.1647222 18.2183333 41.1176389 18.2379167 41.0719444 18.25875 41.0248611 18.2809722 40.9058333 18.3411111 40.8 18.3869444 40.7490278 18.4091667 40.7058333 18.4247222 40.65875 18.4405556 40.6183333 18.4534722 40.5777778 18.4627778 40.5398611 18.4719444 40.5019444 18.4745833 40.4655556 18.4784722 40.4301389 18.4784722 40.3961111 18.4745833 40.3647222 18.4719444 40.3308333 18.4627778 40.2994444 18.4534722 40.2679167 18.4405556 40.2340278 18.4247222 40.2026389 18.4065278 40.1686111 18.3843056 40.1334722 18.3620833 40.0993056 18.3347222 40.0652778 18.3059722 39.9894444 18.2405556 39.9086111 18.1622222 39.8209722 18.0784722 39.7215278 17.9776389 31.9936111 10.2497222 31.8966667 10.1502778 31.8090278 10.0626389 31.7306944 9.98430556 31.6652778 9.90986111 31.6365278 9.87444444 31.6091667 9.84055556 31.5647222 9.77777778 31.5465278 9.74375 31.5306944 9.7125 31.5177778 9.68111111 31.5084722 9.64958333 31.4993056 9.61819444 31.4966667 9.58430556 31.4929167 9.55291667 31.4929167 9.51888889 31.4966667 9.48111111 31.4993056 9.44305556 31.5084722 9.40652778 31.5177778 9.36597222 31.5306944 9.32152778 31.5465278 9.27847222 31.5620833 9.23138889 31.5843056 9.17777778 31.6313889 9.06930556 31.6902778 8.94638889 31.7125 8.90055556 31.7331944 8.85361111 31.7529167 8.80652778 31.7647222 8.75680556 31.7751389 8.70972222 31.7804167 8.66277778 31.7843056 8.61305556 31.7843056 8.56597222 31.7777778 8.51902778 31.7647222 8.47458333 31.7490278 8.43138889 31.7306944 8.38819444 31.7084722 8.34375 31.6770833 8.30319444 31.6430556 8.26541667 31.6052778 8.22875 31.5647222 8.18819444 31.5280556 8.15680556 31.4876389 8.12555556 31.4456944 8.10055556 31.4052778 8.08111111 31.3645833 8.06527778 31.3281944 8.05347222 31.2876389 8.04694444 31.2458333 8.04069444 31.1686111 8.04069444 31.1308333 8.04444444 31.0902778 8.04972222 31.05625 8.05875 31.0183333 8.06930556 30.9843056 8.08111111 30.915 8.10986111 30.8495833 8.14375 30.7934722 8.17777778 30.7398611 8.21305556 30.65875 8.27194444 30.6091667 8.30972222 26.7306944 12.1869444 29.9151389 18.0875 29.8875 18.115 23.7654167 15.1529167 20.0277778 18.8902778 19.9526389 18.9751389 19.8683333 19.0744444 19.8244444 19.1345833 19.7840278 19.1933333 19.7654167 19.2275 19.7463889 19.2588889 19.7309722 19.2941667 19.7152778 19.3280556 19.7029167 19.3620833 19.6902778 19.4001389 19.6806944 19.4379167 19.6745833 19.4744444 19.6715278 19.5123611 19.6686111 19.5529167 19.6715278 19.5934722 19.6777778 19.6313889 19.6840278 19.6719444 19.6963889 19.715 19.7120833 19.7569444 19.7338889 19.8001389 19.7591667 19.8405556 19.7869444 19.88375 19.8215278 19.9279167 19.8620833 19.97125 19.8934722 20.0026389 19.9277778 20.0313889 19.9620833 20.0561111 19.9963889 20.0744444 20.0340278 20.0901389 20.0683333 20.1059722 20.1026389 20.115 20.1369444 20.1215278 20.1715278 20.1255556 20.2058333 20.1281944 20.2401389 20.1255556 20.2744444 20.1215278 20.30875 20.115 20.3434722 20.1098611 20.3777778 20.0966667 20.4120833 20.0876389 20.4777778 20.0588889 20.5402778 20.02875 20.5997222 19.9909722 20.6591667 19.9529167 20.7652778 19.8744444 20.8591667 19.8063889 20.9058333 19.7619444 20.9526389 19.7280556 20.9997222 19.7033333 21.0463889 19.6811111 21.0934722 19.6654167 21.1434722 19.6561111 21.1934722 19.6536111 21.2434722 19.6536111 21.2934722 19.6588889 21.3466667 19.6654167 21.3997222 19.6784722 21.4529167 19.6902778 21.5683333 19.7190278 21.6901389 19.7502778 21.7497222 19.7686111 21.8120833 19.7841667 21.8715278 19.8063889 21.9277778 19.82875 22.0434722 19.8744444 22.1558333 19.9255556 22.2683333 19.9777778 22.3777778 20.0313889 22.4901389 20.08375 22.6026389 20.1372222 34.8183333 26.2066667 35.2340278 25.7908333 29.2522222 14.7372222 36.1215278 21.5777778 36.2181944 21.6784722 36.3058333 21.7661111 36.3843056 21.8470833 36.4497222 21.9215278 36.5019444 21.9934722 36.5490278 22.0588889 36.5647222 22.0902778 36.5804167 22.1254167 36.5959722 22.1555556 36.6052778 22.1869444 36.6116667 22.2222222 36.6181944 22.2536111 36.6208333 22.2876389 36.6208333 22.3215278 36.6181944 22.3594444 36.6144444 22.3973611 36.6052778 22.4338889 36.5959722 22.4744444 36.5843056 22.5190278 36.56875 22.5620833 36.5490278 22.6090278 36.5306944 22.65625 36.4836111 22.7622222 36.4248611 22.8809722 36.4027778 22.9281944 36.3804167 22.9751389 36.3620833 23.0247222 36.3490278 23.0719444 36.3397222 23.1188889 36.3333333 23.1686111 36.3306944 23.2156944 36.3306944 23.2627778 36.3372222 23.3097222 36.3490278 23.3530556 36.3620833 23.3998611 36.3843056 23.4405556 36.4052778 23.4836111 36.4366667 23.5255556 36.4679167 23.5659722 36.5084722 23.6 36.5490278 23.6379167 36.5869444 23.6680556 36.6275 23.6966667 36.6680556 23.7188889 36.7084722 23.7372222 36.7463889 23.7529167 36.7868056 23.7620833 36.8275 23.7711111 36.8679167 23.7752778 36.9059722 23.7777778 36.9465278 23.7752778 36.9843056 23.7711111 37.0208333 23.7659722 37.05875 23.7594444 37.0968056 23.7463889 37.1306944 23.7372222 37.19875 23.7097222 37.2613889 23.6783333 37.3215278 23.6470833 37.3738889 23.6130556 37.45625 23.5529167 37.5059722 23.5190278 41.6615278 19.3347222 41.6745833 19.3255556 41.6993056 19.3031944 41.7280556 19.2719444 41.7581944 19.2313889 41.7934722 19.1816667 41.8275 19.1254167 41.8613889 19.0627778 41.8901389 18.9934722 41.9019444 18.9568056 41.9125 18.9190278 41.9215278 18.8809722 41.9280556 18.8404167 41.9306944 18.8 41.9306944 18.7188889 41.9241667 18.6783333 41.9177778 18.6340278 41.9059722 18.5934722 41.8901389 18.5504167 41.8719444 18.5058333 41.8456944 18.4654167 41.8143056 18.4222222 41.7830556 18.3818056 41.7425 18.3372222"></polyline>
                    <polyline id="Fill-13" fill="#FFFFFE" points="30.2209722 26.1215278 27.6719444 23.6 24.4026389 21.9659722 24.3777778 22.0223611 29.3619444 26.9816667 29.5033333 27.1726389 29.6273611 27.3502778 29.7372222 27.5215278 29.8275 27.685 29.9058333 27.8380556 29.97125 27.9818056 30.0209722 28.1188889 30.0613889 28.2495833 30.0927778 28.3711111 30.1125 28.4875 30.1241667 28.5973611 30.1281944 28.7006944 30.1241667 28.7975 30.115 28.8902778 30.1018056 28.9779167 30.0876389 29.0627778 30.0652778 29.1411111 30.0431944 29.2156944 30.0209722 29.2876389 29.9961111 29.3568056 29.9738889 29.4248611 29.9555556 29.4876389 29.9398611 29.5502778 29.9280556 29.6091667 29.9176389 29.6691667 29.9176389 29.7280556 29.9216667 29.7869444 29.9333333 29.8430556 29.9555556 29.9033333 29.9869444 29.9622222 30.0275 30.0222222 30.08375 30.08375 30.1281944 30.1215278 30.1711111 30.1529167 30.2156944 30.1818056 30.2613889 30.2026389 30.3058333 30.2183333 30.3530556 30.2275 30.4 30.2340278 30.4430556 30.2380556 30.4875 30.2340278 30.5333333 30.2313889 30.5777778 30.2222222 30.6209722 30.2091667 30.6654167 30.1936111 30.7086111 30.1751389 30.7490278 30.1529167 30.7934722 30.1305556 30.8301389 30.1059722 30.8718056 30.0811111 30.9084722 30.0561111 30.9463889 30.0275 31.0183333 29.9686111 31.0836111 29.9123611 31.1934722 29.8026389 32.9372222 28.05875 33.0156944 27.9818056 33.1241667 27.8652778 33.1802778 27.8 33.2405556 27.7281944 33.2654167 27.6901389 33.2927778 27.6497222 33.3176389 27.6090278 33.3423611 27.5686111 33.3647222 27.5280556 33.3869444 27.485 33.4052778 27.4404167 33.4209722 27.3973611 33.4313889 27.3529167 33.4404167 27.3098611 33.4458333 27.2654167 33.4497222 27.2183333 33.4458333 27.1751389 33.4404167 27.1306944 33.4313889 27.0875 33.4156944 27.0404167 33.3934722 26.9973611 33.3647222 26.9555556 33.3333333 26.9125 33.2966667 26.8693056 33.2365278 26.8155556 33.1779167 26.7751389 33.1216667 26.7438889 33.0654167 26.7216667 33.0091667 26.7098611 32.9530556 26.7058333 32.8966667 26.7058333 32.8365278 26.7151389 32.7777778 26.7280556 32.7176389 26.7438889 32.65625 26.7620833 32.5895833 26.7843056 32.5215278 26.8065278 32.4522222 26.82875 32.3777778 26.8495833 32.2993056 26.8693056 32.2156944 26.8876389 32.1280556 26.9006944 32.0366667 26.9058333 31.9372222 26.9098611 31.8340278 26.9031944 31.7241667 26.8901389 31.6091667 26.8693056 31.4876389 26.8377778 31.3594444 26.7973611 31.2209722 26.7438889 31.0744444 26.6784722 30.9241667 26.5975 30.7620833 26.5031944 30.5895833 26.3933333 30.4091667 26.2654167 30.2209722 26.1215278"></polyline>
                    <polyline id="Fill-14" fill="#FFFFFE" points="22.1872222 41.5777778 22.3215278 41.4497222 22.4620833 41.3281944 22.6026389 41.2156944 22.7497222 41.1058333 22.9029167 41.0093056 23.0558333 40.9190278 23.2152778 40.8338889 23.3777778 40.7595833 23.5401389 40.6941667 23.7088889 40.6379167 23.8806944 40.5870833 24.0559722 40.5504167 24.2340278 40.5188889 24.4120833 40.4993056 24.5963889 40.4876389 24.7806944 40.4876389 24.9681944 40.4968056 25.1594444 40.5188889 25.3490278 40.5504167 25.54375 40.5908333 25.7398611 40.6431944 25.9372222 40.7058333 26.1372222 40.7816667 26.3372222 40.8654167 26.5372222 40.9659722 26.7398611 41.0744444 26.94375 41.1975 27.1490278 41.3306944 27.3555556 41.4784722 27.5620833 41.6379167 27.7686111 41.8091667 27.9776389 41.9934722 28.1620833 42.17125 28.3333333 42.3502778 28.4927778 42.5347222 28.6405556 42.7215278 28.7752778 42.9097222 28.8968056 43.1033333 29.0052778 43.2966667 29.1019444 43.4901389 29.1869444 43.6876389 29.2588889 43.8876389 29.3215278 44.0836111 29.3738889 44.2836111 29.4156944 44.4836111 29.4430556 44.6811111 29.4652778 44.8811111 29.4718056 45.0744444 29.4718056 45.2719444 29.4613889 45.4654167 29.4405556 45.65625 29.4091667 45.8431944 29.3713889 46.0315278 29.3215278 46.2118056 29.2654167 46.3933333 29.2 46.5686111 29.1241667 46.7372222 29.0430556 46.9058333 28.9529167 47.0652778 28.85625 47.2222222 28.7490278 47.37125 28.6366667 47.515 28.5176389 47.6523611 28.3934722 47.7844444 27.9215278 47.3123611 27.9595833 47.2588889 27.9934722 47.2065278 28.0247222 47.1529167 28.0497222 47.0993056 28.0680556 47.0470833 28.0836111 46.9959722 28.0968056 46.94375 28.1020833 46.8929167 28.1058333 46.8431944 28.1084722 46.7961111 28.1058333 46.7463889 28.0993056 46.6993056 28.0901389 46.6522222 28.0770833 46.6065278 28.0613889 46.5620833 28.0469444 46.515 28.0275 46.4719444 28.0052778 46.4315278 27.9802778 46.3869444 27.9555556 46.3463889 27.9020833 46.2680556 27.8431944 46.1908333 27.7804167 46.1190278 27.7176389 46.0497222 27.6523611 45.9869444 27.5895833 45.9281944 24.0715278 42.3804167 24.0058333 42.3241667 23.9401389 42.2627778 23.8683333 42.2026389 23.7934722 42.1438889 23.7151389 42.0875 23.6340278 42.0340278 23.5901389 42.0116667 23.5497222 41.9869444 23.5058333 41.96875 23.4620833 41.9502778 23.4183333 41.9347222 23.3715278 41.9188889 23.3277778 41.9098611 23.2809722 41.8993056 23.2340278 41.8941667 23.1872222 41.8901389 23.1369444 41.8901389 23.0902778 41.8966667 23.0402778 41.9031944 22.9902778 41.9151389 22.9401389 41.9306944 22.8902778 41.9502778 22.8402778 41.9752778 22.7901389 42.0065278 22.7372222 42.0366667 22.6872222 42.0784722 22.1872222 41.5777778"></polyline>
                    <path d="M33.57125,41.6627778 L33.6248611,41.5908333 L33.6744444,41.5190278 L33.7216667,41.4470833 L33.76875,41.37125 L33.8091667,41.2940278 L33.8456944,41.2181944 L33.8809722,41.1398611 L33.915,41.05875 L33.9438889,40.9816667 L33.9713889,40.8994444 L33.9934722,40.8183333 L34.0118056,40.7345833 L34.0301389,40.6536111 L34.0470833,40.5686111 L34.05625,40.4836111 L34.0654167,40.3961111 L34.0679167,40.3123611 L34.0718056,40.2275 L34.0679167,40.14 L34.0654167,40.0561111 L34.0588889,39.9686111 L34.0470833,39.88375 L34.0340278,39.7961111 L34.0156944,39.7098611 L33.9959722,39.6248611 L33.97375,39.5373611 L33.9463889,39.4522222 L33.9176389,39.3686111 L33.8836111,39.2809722 L33.8497222,39.1975 L33.8091667,39.115 L33.7645833,39.0313889 L33.7529167,38.9661111 L33.7333333,38.9033333 L33.7176389,38.8379167 L33.7031944,38.7711111 L33.6994444,38.7372222 L33.6994444,38.6744444 L33.7031944,38.6430556 L33.7123611,38.6156944 L33.7241667,38.5869444 L33.7438889,38.5594444 L33.7645833,38.5306944 L33.7934722,38.5058333 L33.8181944,38.4875 L33.8431944,38.4680556 L33.8680556,38.4534722 L33.8927778,38.4405556 L33.9176389,38.4275 L33.9438889,38.4222222 L33.9647222,38.4156944 L33.9895833,38.4118056 L34.05625,38.4118056 L34.0966667,38.4222222 L34.1373611,38.4340278 L34.17125,38.4534722 L34.2052778,38.4719444 L34.2338889,38.4941667 L34.2615278,38.515 L34.28375,38.5372222 L34.2993056,38.5556944 L34.3125,38.5751389 L34.3215278,38.5869444 L35.9555556,40.2222222 L34.0718056,42.1347222 L33.57125,41.6627778 L30.6365278,38.6966667 L30.65875,38.6561111 L30.6772222,38.6156944 L30.6968056,38.57125 L30.7123611,38.5306944 L30.7243056,38.4901389 L30.7333333,38.4469444 L30.74375,38.4065278 L30.7490278,38.3620833 L30.7555556,38.3215278 L30.7581944,38.2783333 L30.7581944,38.1934722 L30.7530556,38.1098611 L30.7398611,38.0247222 L30.7215278,37.94375 L30.6968056,37.8626389 L30.6680556,37.7816667 L30.6365278,37.6993056 L30.5998611,37.6222222 L30.5594444,37.5463889 L30.515,37.4680556 L30.4718056,37.3961111 L30.4405556,37.3241667 L30.4118056,37.25625 L30.4,37.2222222 L30.3897222,37.1869444 L30.3802778,37.1529167 L30.3777778,37.1190278 L30.37375,37.08375 L30.37375,37.0536111 L30.3802778,37.0181944 L30.3869444,36.9843056 L30.4025,36.9502778 L30.4183333,36.9125 L30.4430556,36.8784722 L30.4718056,36.8405556 L30.4927778,36.8222222 L30.515,36.8026389 L30.5398611,36.7869444 L30.5620833,36.7751389 L30.5870833,36.7661111 L30.6091667,36.7594444 L30.6315278,36.7529167 L30.65625,36.7504167 L30.6772222,36.7504167 L30.6993056,36.7529167 L30.7215278,36.7555556 L30.7398611,36.7620833 L30.7843056,36.7777778 L30.8247222,36.7973611 L30.8613889,36.8222222 L30.8968056,36.8470833 L30.9306944,36.8744444 L30.9620833,36.8993056 L31.0118056,36.9502778 L31.0522222,36.9816667 L32.8523611,38.7818056 L32.88375,38.8183333 L32.9333333,38.8719444 L32.9581944,38.9033333 L32.9869444,38.9372222 L33.0119444,38.97125 L33.0365278,39.0091667 L33.0561111,39.0495833 L33.0719444,39.0902778 L33.0770833,39.1123611 L33.0811111,39.1345833 L33.0811111,39.2 L33.0745833,39.2248611 L33.0680556,39.2469444 L33.05875,39.2691667 L33.0469444,39.2941667 L33.03,39.315 L33.0119444,39.3398611 L32.9895833,39.3620833 L32.9581944,39.3908333 L32.9281944,39.4156944 L32.8927778,39.4313889 L32.8615278,39.4430556 L32.8273611,39.4522222 L32.7934722,39.4588889 L32.7580556,39.4588889 L32.7240278,39.45625 L32.6863889,39.4495833 L32.6523611,39.4430556 L32.6183333,39.4340278 L32.5804167,39.4222222 L32.5086111,39.3934722 L32.4365278,39.3620833 L32.36875,39.3190278 L32.2966667,39.2744444 L32.2208333,39.2340278 L32.1438889,39.1975 L32.0652778,39.1661111 L31.9843056,39.1345833 L31.8993056,39.1123611 L31.8183333,39.0941667 L31.7751389,39.0876389 L31.7306944,39.0809722 L31.6902778,39.0783333 L31.6458333,39.0744444 L31.5620833,39.0744444 L31.5177778,39.0783333 L31.4744444,39.0809722 L31.4313889,39.0902778 L31.3895833,39.0994444 L31.3463889,39.1098611 L31.3019444,39.1216667 L31.2613889,39.1372222 L31.2181944,39.1555556 L31.1777778,39.1752778 L31.1333333,39.1975 L30.6365278,38.6966667 L33.57125,41.6627778 Z M27.8405556,35.9281944 L29.6927778,34.0718056 L31.3843056,35.7620833 L31.4091667,35.7869444 L31.4340278,35.8247222 L31.4456944,35.8470833 L31.45625,35.8679167 L31.4654167,35.8968056 L31.4719444,35.9255556 L31.4719444,35.9869444 L31.4613889,36.0248611 L31.4497222,36.0627778 L31.4313889,36.1031944 L31.4052778,36.14375 L31.37125,36.1869444 L31.3281944,36.2313889 L31.3019444,36.2561111 L31.2770833,36.2745833 L31.2495833,36.2902778 L31.2247222,36.3033333 L31.1959722,36.3123611 L31.17125,36.315 L31.14375,36.3190278 L31.1190278,36.315 L31.0902778,36.3123611 L31.0613889,36.3058333 L31.0340278,36.2968056 L31.0051389,36.2876389 L30.9463889,36.2627778 L30.8876389,36.2313889 L30.8051389,36.1908333 L30.7243056,36.1502778 L30.6431944,36.1123611 L30.5620833,36.0809722 L30.4836111,36.0497222 L30.4025,36.0220833 L30.3213889,35.9973611 L30.2431944,35.9751389 L30.1620833,35.9556944 L30.0811111,35.9398611 L30,35.9281944 L29.9216667,35.9190278 L29.8405556,35.9123611 L29.7620833,35.9097222 L29.6,35.9097222 L29.5215278,35.915 L29.4405556,35.9255556 L29.3619444,35.9372222 L29.2811111,35.9529167 L29.2026389,35.9751389 L29.1241667,35.9973611 L29.0430556,36.0220833 L28.9647222,36.0497222 L28.8876389,36.0809722 L28.8052778,36.115 L28.7281944,36.1555556 L28.6495833,36.1975 L28.57125,36.2431944 L28.4927778,36.2902778 L28.4156944,36.3438889 L28.3372222,36.4 L27.8405556,35.9281944 Z M25.2901389,38.4745833 L27.4772222,36.315 L33.6836111,42.4940278 L31.4966667,44.7098611 L31.4744444,44.7215278 L31.4313889,44.7502778 L31.4052778,44.7647222 L31.3738889,44.7841667 L31.3372222,44.8026389 L31.3019444,44.8181944 L31.2613889,44.8340278 L31.2181944,44.8430556 L31.1959722,44.8470833 L31.17375,44.8497222 L31.1280556,44.8497222 L31.1058333,44.8470833 L31.0809722,44.8405556 L31.05875,44.8340278 L31.0340278,44.8248611 L31.0118056,44.8156944 L30.9868056,44.8001389 L30.9647222,44.7841667 L30.9398611,44.7647222 L30.915,44.7372222 L30.8968056,44.7125 L30.8770833,44.6876389 L30.8613889,44.6588889 L30.8495833,44.6340278 L30.8405556,44.6091667 L30.8340278,44.5843056 L30.8301389,44.5555556 L30.8273611,44.5306944 L30.8301389,44.5058333 L30.8340278,44.4784722 L30.8405556,44.4522222 L30.8470833,44.4275 L30.8588889,44.4001389 L30.8718056,44.3751389 L30.8876389,44.3502778 L30.9241667,44.2809722 L30.9555556,44.2181944 L30.9777778,44.1661111 L30.9961111,44.115 L31.0051389,44.0718056 L31.0118056,44.0313889 L31.0093056,44.0091667 L31.0093056,43.9906944 L31.0051389,43.97125 L31,43.9529167 L30.9843056,43.9190278 L30.9647222,43.8809722 L30.9372222,43.8431944 L30.9058333,43.8025 L30.8247222,43.7123611 L30.7176389,43.6 L26.37125,39.2522222 L26.2680556,39.1502778 L26.1843056,39.0718056 L26.1465278,39.0405556 L26.1125,39.0156944 L26.0744444,38.9973611 L26.0405556,38.9816667 L26.0051389,38.9751389 L25.9686111,38.97125 L25.9281944,38.9779167 L25.8836111,38.9869444 L25.8340278,39.0026389 L25.7804167,39.0248611 L25.7190278,39.05375 L25.6497222,39.0836111 L25.6248611,39.0994444 L25.5998611,39.1123611 L25.57125,39.1254167 L25.5463889,39.1306944 L25.5215278,39.1398611 L25.4968056,39.1438889 L25.4718056,39.1463889 L25.4470833,39.1438889 L25.4209722,39.1438889 L25.3961111,39.1372222 L25.3751389,39.1306944 L25.3490278,39.1216667 L25.3280556,39.1098611 L25.3058333,39.0941667 L25.2836111,39.0783333 L25.2627778,39.0588889 L25.2365278,39.0379167 L25.2156944,39.0156944 L25.1998611,38.9934722 L25.1843056,38.97125 L25.1686111,38.9502778 L25.1594444,38.9280556 L25.1529167,38.9033333 L25.1463889,38.8809722 L25.14375,38.85875 L25.1398611,38.8379167 L25.1398611,38.8156944 L25.14375,38.7908333 L25.1490278,38.7463889 L25.1620833,38.7059722 L25.1776389,38.6654167 L25.1961111,38.6273611 L25.2156944,38.5908333 L25.2340278,38.5594444 L25.2679167,38.5098611 L25.2901389,38.4745833 Z" id="Fill-15" fill="#FFFFFE"></path>
                    <path d="M31.4405556,34.2091667 L31.3372222,34.1098611 L31.2495833,34.0273611 L31.2091667,33.9973611 L31.17125,33.97125 L31.1333333,33.9529167 L31.0966667,33.9398611 L31.05875,33.9345833 L31.0183333,33.9306944 L30.9738889,33.9372222 L30.9306944,33.9463889 L30.8770833,33.9620833 L30.8208333,33.9844444 L30.7581944,34.0118056 L30.6927778,34.0430556 L30.6654167,34.0588889 L30.6405556,34.0718056 L30.6156944,34.0809722 L30.5870833,34.0902778 L30.5620833,34.0966667 L30.5372222,34.1031944 L30.4875,34.1031944 L30.4613889,34.1005556 L30.4366667,34.0966667 L30.4143056,34.0902778 L30.3897222,34.0783333 L30.3686111,34.0693056 L30.3463889,34.05375 L30.3241667,34.0379167 L30.3019444,34.0156944 L30.2809722,33.9934722 L30.2613889,33.9684722 L30.2458333,33.9463889 L30.23125,33.9215278 L30.2209722,33.8968056 L30.2116667,33.8719444 L30.2052778,33.8497222 L30.1998611,33.8247222 L30.1961111,33.8 L30.1961111,33.7306944 L30.2052778,33.685 L30.2183333,33.6430556 L30.2340278,33.6025 L30.2522222,33.5659722 L30.2719444,33.5306944 L30.2927778,33.5033333 L30.3123611,33.4784722 L30.3308333,33.45625 L30.3463889,33.4431944 L30.3595833,33.4340278 L32.5215278,31.2470833 L37.915,36.6405556 L38.0025,36.7190278 L38.0405556,36.7504167 L38.0770833,36.7751389 L38.115,36.7933333 L38.1529167,36.8065278 L38.17125,36.8118056 L38.1895833,36.8155556 L38.2301389,36.8155556 L38.2744444,36.8118056 L38.3216667,36.8026389 L38.3711111,36.7869444 L38.4275,36.7661111 L38.4902778,36.7372222 L38.5594444,36.7033333 L38.5804167,36.6902778 L38.6026389,36.6784722 L38.6248611,36.6652778 L38.6495833,36.65625 L38.6744444,36.6495833 L38.6994444,36.6469444 L38.7281944,36.6431944 L38.7529167,36.6431944 L38.7777778,36.6469444 L38.8026389,36.6536111 L38.83,36.6588889 L38.85625,36.6680556 L38.8770833,36.6811111 L38.9019444,36.6940278 L38.9241667,36.7125 L38.9463889,36.7306944 L38.9686111,36.7555556 L38.9869444,36.7777778 L39.0026389,36.8026389 L39.0143056,36.825 L39.0275,36.8495833 L39.0365278,36.8719444 L39.0430556,36.8966667 L39.0458333,36.9188889 L39.0495833,36.94375 L39.0495833,36.9869444 L39.0458333,37.0091667 L39.0365278,37.0495833 L39.0208333,37.0902778 L39.0052778,37.1280556 L38.9869444,37.1619444 L38.9647222,37.1934722 L38.9463889,37.2222222 L38.9125,37.2627778 L38.8902778,37.2836111 L36.5372222,39.6404167 L36.5177778,39.6561111 L36.4811111,39.68375 L36.4588889,39.6966667 L36.43,39.7098611 L36.4027778,39.7215278 L36.37125,39.7347222 L36.3333333,39.74 L36.2968056,39.74375 L36.25875,39.74375 L36.2181944,39.7372222 L36.1959722,39.7306944 L36.17375,39.7241667 L36.1529167,39.715 L36.1308333,39.7058333 L36.1058333,39.6902778 L36.0836111,39.6784722 L36.0613889,39.6588889 L36.0366667,39.6404167 L36,39.5909722 L35.9711111,39.5411111 L35.9581944,39.5151389 L35.9490278,39.4940278 L35.9438889,39.4680556 L35.9372222,39.4470833 L35.9334722,39.4222222 L35.9334722,39.4001389 L35.9372222,39.3751389 L35.9398611,39.3529167 L35.9463889,39.3280556 L35.9555556,39.3031944 L35.9686111,39.2784722 L35.9843056,39.2522222 L36.0209722,39.1843056 L36.0497222,39.1254167 L36.0719444,39.0718056 L36.0876389,39.0222222 L36.0927778,39.0026389 L36.0966667,38.9816667 L36.0993056,38.9620833 L36.0993056,38.9438889 L36.0966667,38.9255556 L36.0927778,38.9084722 L36.0902778,38.8902778 L36.0836111,38.8744444 L36.0654167,38.8431944 L36.0431944,38.8091667 L36.0118056,38.7777778 L35.9777778,38.7398611 L35.8927778,38.65875 L35.7895833,38.5594444 L31.4405556,34.2091667 Z M32.9084722,30.8876389 L33.0497222,30.7411111 L33.1895833,30.6026389 L33.3216667,30.4783333 L33.4522222,30.3595833 L33.5779167,30.2497222 L33.7031944,30.1463889 L33.8248611,30.0561111 L33.9438889,29.9686111 L34.0588889,29.8901389 L34.1777778,29.8181944 L34.2927778,29.7569444 L34.4091667,29.6993056 L34.5215278,29.6470833 L34.6404167,29.6026389 L34.7555556,29.5620833 L34.8745833,29.5281944 L34.9647222,29.5058333 L35.0523611,29.4876389 L35.14375,29.4744444 L35.2275,29.4627778 L35.3151389,29.4536111 L35.4,29.4470833 L35.4836111,29.4430556 L35.5686111,29.4430556 L35.6497222,29.4470833 L35.7308333,29.4536111 L35.8118056,29.4627778 L35.8902778,29.4744444 L35.9686111,29.4901389 L36.0456944,29.5098611 L36.1243056,29.5306944 L36.19875,29.5529167 L36.2745833,29.5816667 L36.3490278,29.6091667 L36.4248611,29.6431944 L36.4993056,29.6784722 L36.57125,29.715 L36.6430556,29.7569444 L36.7151389,29.8001389 L36.7868056,29.8430556 L36.85625,29.8940278 L36.9280556,29.9438889 L36.9961111,30 L37.0652778,30.0536111 L37.1331944,30.1125 L37.2026389,30.1751389 L37.2705556,30.2380556 L37.34,30.3033333 L37.4026389,30.3686111 L37.45875,30.4338889 L37.5176389,30.5033333 L37.57125,30.5686111 L37.6247222,30.6379167 L37.6770833,30.7031944 L37.7240278,30.77125 L37.77125,30.8405556 L37.8143056,30.9123611 L37.85875,30.9843056 L37.8966667,31.0536111 L37.9333333,31.1255556 L37.9686111,31.2 L38,31.2718056 L38.03,31.3463889 L38.0561111,31.4220833 L38.0811111,31.4993056 L38.1020833,31.5777778 L38.1216667,31.65625 L38.1372222,31.7345833 L38.1490278,31.8155556 L38.1581944,31.8966667 L38.1647222,31.9777778 L38.1684722,32.0627778 L38.17125,32.1463889 L38.1684722,32.23125 L38.1620833,32.3188889 L38.1529167,32.4065278 L38.14375,32.4968056 L38.1268056,32.5869444 L38.1084722,32.6784722 L38.08625,32.76875 L38.0523611,32.88375 L38.0156944,32.9973611 L37.9686111,33.1098611 L37.9176389,33.2222222 L37.8615278,33.3345833 L37.8,33.4469444 L37.7281944,33.5620833 L37.6523611,33.6783333 L37.5686111,33.7975 L37.4745833,33.915 L37.3777778,34.0379167 L37.2679167,34.1661111 L37.1555556,34.2941667 L37.0301389,34.4275 L36.8993056,34.5661111 L36.7581944,34.7098611 L36.25875,34.2379167 L36.2968056,34.1816667 L36.3281944,34.1281944 L36.3555556,34.0744444 L36.3804167,34.0222222 L36.4027778,33.9684722 L36.4183333,33.9190278 L36.43,33.8719444 L36.4405556,33.8247222 L36.4456944,33.7777778 L36.4497222,33.7306944 L36.4497222,33.6876389 L36.4456944,33.6430556 L36.4405556,33.6 L36.43,33.5594444 L36.4183333,33.5190278 L36.4052778,33.4745833 L36.3869444,33.4379167 L36.3686111,33.3961111 L36.3463889,33.3594444 L36.3241667,33.3215278 L36.2705556,33.2431944 L36.2118056,33.17125 L36.1465278,33.0968056 L36.0770833,33.0247222 L36.0026389,32.9529167 L35.9281944,32.8809722 L34.6811111,31.6340278 L34.6116667,31.5620833 L34.5438889,31.4966667 L34.4718056,31.4315278 L34.4,31.37125 L34.3619444,31.3463889 L34.3241667,31.3216667 L34.2876389,31.2968056 L34.2497222,31.2745833 L34.2118056,31.2536111 L34.1738889,31.2340278 L34.1333333,31.2181944 L34.0966667,31.2066667 L34.05625,31.1934722 L34.0156944,31.1843056 L33.97375,31.1777778 L33.9333333,31.1725 L33.8497222,31.1725 L33.8091667,31.1752778 L33.7645833,31.1816667 L33.7216667,31.1934722 L33.6772222,31.2066667 L33.6340278,31.2222222 L33.5895833,31.2431944 L33.5438889,31.2654167 L33.4993056,31.2940278 L33.4522222,31.3216667 L33.4052778,31.3555556 L32.9084722,30.8876389 Z" id="Fill-16" fill="#FFFFFE"></path>
                    <path d="M44.0143056,31.4405556 L44.0365278,31.3908333 L44.0548611,31.3438889 L44.0744444,31.2993056 L44.0901389,31.2536111 L44.1019444,31.2130556 L44.1123611,31.1686111 L44.1176389,31.1280556 L44.1241667,31.0901389 L44.1306944,31.0497222 L44.1306944,30.94375 L44.1268056,30.9097222 L44.1216667,30.8783333 L44.1151389,30.8431944 L44.1084722,30.8118056 L44.0901389,30.7530556 L44.0654167,30.6994444 L44.0365278,30.6470833 L44.0026389,30.5973611 L43.9686111,30.5463889 L43.9306944,30.5033333 L43.8902778,30.4588889 L43.8497222,30.4156944 L39.5555556,26.1215278 L39.4705556,26.0497222 L39.3804167,25.9777778 L39.3306944,25.94625 L39.2811111,25.9190278 L39.2275,25.8941667 L39.17125,25.8718056 L39.14375,25.8654167 L39.1123611,25.8561111 L39.0811111,25.8536111 L39.0458333,25.8470833 L39.0118056,25.8470833 L38.9777778,25.8431944 L38.9438889,25.8470833 L38.9058333,25.8495833 L38.8654167,25.8561111 L38.8275,25.8627778 L38.7869444,25.8718056 L38.7423611,25.885 L38.6994444,25.8968056 L38.6522222,25.915 L38.6051389,25.9345833 L38.5594444,25.9555556 L38.05875,25.4848611 L38.2405556,25.3411111 L38.4209722,25.2091667 L38.6051389,25.0901389 L38.7895833,24.9843056 L38.9777778,24.8901389 L39.1645833,24.8063889 L39.3529167,24.7372222 L39.54,24.6784722 L39.7306944,24.6275 L39.9216667,24.5909722 L40.1084722,24.5661111 L40.2994444,24.5502778 L40.4901389,24.5438889 L40.6809722,24.5502778 L40.8680556,24.5620833 L41.05875,24.5868056 L41.2458333,24.6222222 L41.4340278,24.6654167 L41.6181944,24.7190278 L41.8026389,24.7777778 L41.9869444,24.8497222 L42.1686111,24.9255556 L42.3463889,25.0131944 L42.5241667,25.1059722 L42.6994444,25.2091667 L42.8705556,25.3188889 L43.0431944,25.4338889 L43.2091667,25.5594444 L43.3738889,25.6901389 L43.5372222,25.8288889 L43.6929167,25.9726389 L43.8497222,26.1215278 L44.0026389,26.2783333 L44.1490278,26.4405556 L44.28625,26.6026389 L44.4208333,26.7686111 L44.5463889,26.9372222 L44.6654167,27.1097222 L44.7776389,27.2848611 L44.8811111,27.4588889 L44.9738889,27.6379167 L45.0613889,27.8156944 L45.1425,27.9973611 L45.2143056,28.1816667 L45.2745833,28.3659722 L45.3268056,28.5504167 L45.37125,28.7372222 L45.4091667,28.9215278 L45.4338889,29.1123611 L45.4458333,29.2993056 L45.4523611,29.4901389 L45.4495833,29.6784722 L45.4338889,29.8694444 L45.4052778,30.0561111 L45.3686111,30.2470833 L45.3213889,30.4338889 L45.2613889,30.6220833 L45.1895833,30.8091667 L45.1084722,30.9973611 L45.0144444,31.1816667 L44.9086111,31.3659722 L44.7894444,31.5502778 L44.6588889,31.7306944 L44.5151389,31.9125 L44.0143056,31.4405556 Z M38.17125,26.3163889 L38.1268056,26.4155556 L38.1123611,26.4654167 L38.0968056,26.5125 L38.0836111,26.5568056 L38.0745833,26.6001389 L38.0654167,26.6405556 L38.0613889,26.6811111 L38.0561111,26.7216667 L38.0523611,26.7594444 L38.0523611,26.7973611 L38.0561111,26.8340278 L38.05875,26.8693056 L38.0613889,26.9006944 L38.0680556,26.9306944 L38.0770833,26.9620833 L38.08625,26.9934722 L38.0968056,27.0223611 L38.1084722,27.0495833 L38.1216667,27.0784722 L38.1490278,27.1280556 L38.1844444,27.1777778 L38.2183333,27.2222222 L38.2561111,27.2627778 L38.2966667,27.3033333 L38.3372222,27.3411111 L42.6588889,31.6340278 L42.6968056,31.6745833 L42.7334722,31.7151389 L42.7777778,31.7568056 L42.8209722,31.7933333 L42.8679167,31.82875 L42.9215278,31.8588889 L42.9738889,31.8876389 L43.03,31.9098611 L43.0613889,31.9188889 L43.0927778,31.9254167 L43.1268056,31.9306944 L43.1581944,31.9347222 L43.1934722,31.9372222 L43.2679167,31.9372222 L43.3059722,31.9347222 L43.3423611,31.9280556 L43.3843056,31.9215278 L43.4275,31.9125 L43.4680556,31.8993056 L43.515,31.8876389 L43.5581944,31.8693056 L43.6051389,31.8495833 L43.65625,31.82875 L44.1555556,32.2993056 L43.9713889,32.4430556 L43.7869444,32.5751389 L43.6026389,32.6940278 L43.4144444,32.8 L43.2248611,32.8941667 L43.0365278,32.9776389 L42.8458333,33.0469444 L42.65625,33.1058333 L42.4652778,33.1555556 L42.2745833,33.1934722 L42.08375,33.2183333 L41.8927778,33.2338889 L41.6993056,33.2405556 L41.5084722,33.2338889 L41.3216667,33.2222222 L41.1308333,33.1973611 L40.9425,33.1622222 L40.7555556,33.1188889 L40.5686111,33.0652778 L40.3844444,33.0065278 L40.2026389,32.9372222 L40.0183333,32.8588889 L39.8405556,32.77125 L39.6615278,32.6784722 L39.4876389,32.5751389 L39.315,32.4652778 L39.14375,32.3502778 L38.9777778,32.225 L38.8116667,32.0940278 L38.6495833,31.9555556 L38.4927778,31.8118056 L38.3372222,31.6627778 L38.1844444,31.5058333 L38.0365278,31.3438889 L37.8994444,31.1816667 L37.7647222,31.0130556 L37.6406944,30.8431944 L37.5241667,30.6719444 L37.4116667,30.4968056 L37.3086111,30.3215278 L37.2156944,30.14375 L37.1280556,29.9622222 L37.0497222,29.7777778 L36.9804167,29.5934722 L36.9177778,29.4091667 L36.8654167,29.2222222 L36.825,29.0340278 L36.7895833,28.8469444 L36.7647222,28.65875 L36.7490278,28.4693056 L36.7463889,28.2783333 L36.7490278,28.0875 L36.7647222,27.8966667 L36.7934722,27.7058333 L36.8275,27.515 L36.8770833,27.3280556 L36.9333333,27.1373611 L37.0052778,26.9502778 L37.08625,26.7620833 L37.1777778,26.5752778 L37.2836111,26.3908333 L37.4026389,26.2066667 L37.5308333,26.0248611 L37.6719444,25.8431944 L38.17125,26.3163889 Z" id="Fill-17" fill="#FFFFFE"></path>
                    <path d="M4.51569444,20.3869444 L5.62152778,19.2809722 L6.06527778,19.7215278 L6.05625,19.7869444 L6.05291667,19.8536111 L6.04972222,19.9151389 L6.04680556,19.9816667 L6.04972222,20.0431944 L6.05625,20.1059722 L6.06236111,20.1686111 L6.07152778,20.2313889 L6.08402778,20.2901389 L6.09666667,20.3529167 L6.11236111,20.4131944 L6.13111111,20.4718056 L6.14958333,20.5306944 L6.17152778,20.5908333 L6.19375,20.6497222 L6.21861111,20.7058333 L6.27180556,20.8183333 L6.32486111,20.9306944 L6.38722222,21.0379167 L6.44680556,21.14125 L6.51236111,21.2431944 L6.57486111,21.34125 L6.64041667,21.4340278 L6.70291667,21.5254167 L6.75625,21.6001389 L6.80583333,21.6784722 L6.82819444,21.7190278 L6.85,21.7620833 L6.86861111,21.8026389 L6.88430556,21.8470833 L6.89347222,21.8876389 L6.89972222,21.9306944 L6.90291667,21.9752778 L6.89666667,22.0181944 L6.89347222,22.0404167 L6.88722222,22.0627778 L6.88111111,22.08375 L6.87152778,22.1033333 L6.85916667,22.1254167 L6.84666667,22.1463889 L6.83111111,22.1686111 L6.81541667,22.1869444 L6.79055556,22.2090278 L6.76861111,22.23125 L6.74347222,22.2472222 L6.72152778,22.2627778 L6.69972222,22.2744444 L6.67805556,22.2876389 L6.65611111,22.2941667 L6.63430556,22.3033333 L6.59347222,22.3123611 L6.55291667,22.315 L6.51541667,22.3123611 L6.48111111,22.3059722 L6.44972222,22.2966667 L6.41861111,22.2836111 L6.39347222,22.2718056 L6.36861111,22.2588889 L6.33430556,22.2340278 L6.31541667,22.2155556 L4.51569444,20.3869444 Z M11.1905556,17.36875 L11.1995833,17.3869444 L11.2186111,17.4222222 L11.2280556,17.4470833 L11.2401389,17.4719444 L11.2497222,17.4993056 L11.2591667,17.5306944 L11.2654167,17.5661111 L11.2686111,17.6 L11.2686111,17.6379167 L11.2623611,17.6745833 L11.2468056,17.715 L11.2280556,17.7569444 L11.2152778,17.7777778 L11.1995833,17.7973611 L11.1838889,17.8183333 L11.1623611,17.8405556 L11.1434722,17.85875 L11.1219444,17.8784722 L11.0995833,17.8941667 L11.0777778,17.9059722 L11.05625,17.915 L11.0340278,17.9254167 L11.0152778,17.9347222 L10.9934722,17.9411111 L10.9715278,17.94375 L10.95,17.9463889 L10.9058333,17.9463889 L10.8620833,17.94375 L10.8215278,17.9347222 L10.7780556,17.9188889 L10.7343056,17.9031944 L10.6934722,17.8809722 L10.6529167,17.85875 L10.5748611,17.8091667 L10.4997222,17.7569444 L10.3059722,17.62875 L10.1029167,17.4993056 L9.99972222,17.4404167 L9.89055556,17.3777778 L9.78111111,17.3254167 L9.67152778,17.2718056 L9.55583333,17.225 L9.44055556,17.1843056 L9.38097222,17.1661111 L9.32152778,17.1502778 L9.26236111,17.1373611 L9.2,17.1254167 L9.14041667,17.1151389 L9.07777778,17.1097222 L9.01541667,17.1033333 L8.95291667,17.1006944 L8.89055556,17.1006944 L8.82777778,17.1033333 L8.76208333,17.1097222 L8.69680556,17.1190278 L8.22805556,16.6469444 L9.3625,15.5411111 L11.1905556,17.36875 Z M5.98430556,18.9190278 L7.89347222,17.0091667 L12.8529167,21.9659722 L12.9466667,22.0691667 L13.0248611,22.1502778 L13.0591667,22.1816667 L13.0904167,22.2065278 L13.1247222,22.225 L13.15625,22.2377778 L13.1748611,22.2405556 L13.1905556,22.2430556 L13.2091667,22.2472222 L13.2277778,22.2472222 L13.2686111,22.2405556 L13.3120833,22.23125 L13.3623611,22.2155556 L13.4152778,22.1934722 L13.4777778,22.1661111 L13.5468056,22.1347222 L13.5652778,22.1190278 L13.5873611,22.1058333 L13.6091667,22.0968056 L13.6343056,22.0875 L13.6558333,22.0811111 L13.6777778,22.0784722 L13.7244444,22.0784722 L13.7497222,22.0811111 L13.7716667,22.0875 L13.7934722,22.0968056 L13.8186111,22.1097222 L13.8405556,22.1254167 L13.8620833,22.1438889 L13.8838889,22.1661111 L13.90625,22.1869444 L13.9248611,22.2065278 L13.9401389,22.225 L13.9558333,22.2472222 L13.9683333,22.2654167 L13.9777778,22.2876389 L13.9872222,22.3059722 L13.9934722,22.3280556 L13.9997222,22.3465278 L14.0029167,22.3909722 L13.9997222,22.4313889 L13.9934722,22.4719444 L13.9843056,22.5097222 L13.9715278,22.5463889 L13.9558333,22.5818056 L13.9401389,22.6090278 L13.9248611,22.6379167 L13.9091667,22.6588889 L13.8963889,22.6745833 L13.8838889,22.685 L13.8780556,22.6876389 L11.6620833,24.9033333 L11.6404167,24.9216667 L11.5997222,24.9568056 L11.5715278,24.9725 L11.5405556,24.9909722 L11.5091667,25.0090278 L11.4715278,25.0248611 L11.4311111,25.0377778 L11.3905556,25.0470833 L11.3715278,25.0497222 L11.3277778,25.0497222 L11.3058333,25.0470833 L11.2840278,25.0444444 L11.2623611,25.0377778 L11.2434722,25.0313889 L11.2218056,25.0222222 L11.1995833,25.0090278 L11.1777778,24.9934722 L11.15625,24.9777778 L11.1340278,24.9595833 L11.1154167,24.9373611 L11.0995833,24.9151389 L11.0843056,24.8940278 L11.0715278,24.8718056 L11.0623611,24.8470833 L11.05625,24.8248611 L11.05,24.8001389 L11.0468056,24.7751389 L11.0434722,24.7502778 L11.0434722,24.7254167 L11.0468056,24.6993056 L11.05,24.6744444 L11.0623611,24.6222222 L11.0811111,24.57125 L11.1120833,24.5058333 L11.1401389,24.4495833 L11.1623611,24.4001389 L11.1777778,24.3529167 L11.1905556,24.3125 L11.1934722,24.2744444 L11.1934722,24.2404167 L11.1872222,24.2065278 L11.1748611,24.1752778 L11.1591667,24.1438889 L11.1340278,24.1098611 L11.1058333,24.0744444 L11.0340278,24.0001389 L10.9401389,23.9058333 L5.98430556,18.9190278 Z" id="Fill-18" fill="#FFFFFE"></path>
                    <path d="M16.0652778,15.0131944 L15.3744444,15.7058333 L14.9309722,15.2627778 L15.6215278,14.57125 L13.7558333,12.7033333 L13.6748611,12.62875 L13.6405556,12.6 L13.6029167,12.5751389 L13.5686111,12.5568056 L13.5343056,12.5411111 L13.4997222,12.5347222 L13.4625,12.5306944 L13.4215278,12.5373611 L13.3777778,12.5502778 L13.3309722,12.5661111 L13.2777778,12.5908333 L13.2219444,12.6222222 L13.1591667,12.66 L13.1372222,12.6693056 L13.1154167,12.6784722 L13.0934722,12.685 L13.0683333,12.6901389 L13.0466667,12.6940278 L13.0248611,12.6966667 L12.9997222,12.6966667 L12.9777778,12.6940278 L12.9529167,12.6901389 L12.9309722,12.685 L12.9061111,12.6784722 L12.8843056,12.6652778 L12.8620833,12.65625 L12.8405556,12.6405556 L12.8186111,12.6222222 L12.7963889,12.6026389 L12.7748611,12.5841667 L12.7558333,12.5620833 L12.7405556,12.5411111 L12.7248611,12.5190278 L12.7154167,12.4968056 L12.7061111,12.4744444 L12.6963889,12.4536111 L12.6934722,12.4313889 L12.6901389,12.4131944 L12.6872222,12.3909722 L12.6872222,12.36875 L12.6901389,12.3463889 L12.6963889,12.3058333 L12.7061111,12.2693056 L12.7215278,12.23125 L12.7372222,12.1973611 L12.7558333,12.1686111 L12.7748611,12.14125 L12.80625,12.1006944 L12.8248611,12.0784722 L15.0402778,9.86277778 L15.0620833,9.84444444 L15.1026389,9.80916667 L15.1311111,9.79361111 L15.1620833,9.77513889 L15.1934722,9.75694444 L15.2311111,9.74125 L15.2683333,9.72805556 L15.3091667,9.71902778 L15.3529167,9.715 L15.3966667,9.71902778 L15.4183333,9.72152778 L15.4372222,9.72805556 L15.4591667,9.73472222 L15.4809722,9.74375 L15.5029167,9.75694444 L15.5248611,9.76861111 L15.5463889,9.78694444 L15.5686111,9.80638889 L15.5872222,9.82875 L15.6029167,9.84972222 L15.6183333,9.87180556 L15.6309722,9.89402778 L15.6405556,9.91888889 L15.6466667,9.94111111 L15.6497222,9.96611111 L15.6526389,9.99097222 L15.6526389,10.0404167 L15.6466667,10.0654167 L15.6405556,10.0901389 L15.6343056,10.11625 L15.6215278,10.14375 L15.6091667,10.1686111 L15.5966667,10.1936111 L15.5654167,10.25875 L15.5434722,10.31625 L15.5215278,10.3686111 L15.5091667,10.4156944 L15.4997222,10.4601389 L15.4934722,10.4968056 L15.4966667,10.5372222 L15.5029167,10.5725 L15.5120833,10.6065278 L15.5309722,10.6405556 L15.5526389,10.6744444 L15.5840278,10.7123611 L15.6183333,10.7502778 L15.6591667,10.7908333 L15.7059722,10.8379167 L15.7620833,10.8876389 L19.8620833,14.9868056 L19.9558333,15.0811111 L20.0340278,15.1529167 L20.0716667,15.1818056 L20.1059722,15.2026389 L20.1401389,15.2222222 L20.1715278,15.2313889 L20.2058333,15.2380556 L20.2434722,15.2404167 L20.2809722,15.2340278 L20.3215278,15.2248611 L20.3652778,15.2091667 L20.4120833,15.1843056 L20.4654167,15.1594444 L20.5248611,15.1255556 L20.5777778,15.1059722 L20.6277778,15.0940278 L20.6806944,15.0876389 L20.7526389,15.0876389 L20.7777778,15.0940278 L20.8029167,15.0966667 L20.8245833,15.1059722 L20.8497222,15.115 L20.8715278,15.1255556 L20.8934722,15.1372222 L20.9120833,15.1529167 L20.9340278,15.1751389 L20.9558333,15.1998611 L20.9715278,15.2222222 L20.9838889,15.2470833 L20.9963889,15.2693056 L21.0058333,15.2901389 L21.0120833,15.31625 L21.0183333,15.3373611 L21.0215278,15.3595833 L21.0215278,15.4222222 L21.0120833,15.4626389 L20.9997222,15.5033333 L20.9838889,15.5411111 L20.9652778,15.57125 L20.9463889,15.6026389 L20.9245833,15.6313889 L20.8869444,15.6784722 L20.8591667,15.7058333 L18.6686111,17.9215278 L18.6495833,17.9411111 L18.6058333,17.9686111 L18.5806944,17.9869444 L18.5497222,18.0026389 L18.5154167,18.0183333 L18.4806944,18.03125 L18.4402778,18.0406944 L18.3997222,18.0469444 L18.3591667,18.0469444 L18.3154167,18.0431944 L18.2934722,18.0379167 L18.2715278,18.03125 L18.2495833,18.0247222 L18.2277778,18.0130556 L18.2059722,18.0026389 L18.1840278,17.9869444 L18.1654167,17.9686111 L18.1434722,17.9504167 L18.1186111,17.9281944 L18.0963889,17.9059722 L18.0811111,17.88375 L18.0654167,17.8626389 L18.0529167,17.8405556 L18.0434722,17.8156944 L18.0372222,17.7934722 L18.0340278,17.76875 L18.0306944,17.7463889 L18.0340278,17.7255556 L18.0372222,17.6993056 L18.0434722,17.6784722 L18.0497222,17.65625 L18.0620833,17.6340278 L18.0748611,17.6130556 L18.0872222,17.5908333 L18.1215278,17.5215278 L18.1497222,17.4588889 L18.1715278,17.4065278 L18.1872222,17.3555556 L18.1963889,17.3123611 L18.1997222,17.2718056 L18.1997222,17.2340278 L18.1934722,17.2 L18.1777778,17.1661111 L18.1591667,17.1280556 L18.1340278,17.0940278 L18.1026389,17.05625 L18.0245833,16.97125 L17.9215278,16.8693056 L16.0652778,15.0131944 Z M16.8963889,17.9215278 L16.9902778,18.0156944 L17.0715278,18.0875 L17.1058333,18.1188889 L17.1434722,18.1411111 L17.1777778,18.1594444 L17.2120833,18.1726389 L17.2468056,18.1816667 L17.3248611,18.1816667 L17.3683333,18.1726389 L17.4154167,18.1594444 L17.4681944,18.1411111 L17.5248611,18.1188889 L17.5901389,18.0875 L17.6154167,18.0745833 L17.6401389,18.0627778 L17.6654167,18.0497222 L17.6934722,18.0431944 L17.7183333,18.0379167 L17.7434722,18.03125 L17.8183333,18.03125 L17.8434722,18.0379167 L17.8652778,18.0431944 L17.8902778,18.0534722 L17.9120833,18.0652778 L17.9340278,18.0811111 L17.9559722,18.0968056 L17.9777778,18.115 L17.9963889,18.1372222 L18.0277778,18.1816667 L18.0402778,18.2026389 L18.0497222,18.2248611 L18.0558333,18.2431944 L18.0620833,18.2654167 L18.0654167,18.2875 L18.0683333,18.3306944 L18.0654167,18.3711111 L18.0558333,18.4130556 L18.0434722,18.4534722 L18.0277778,18.4901389 L18.0091667,18.5215278 L17.9902778,18.5529167 L17.9747222,18.5816667 L17.9401389,18.6222222 L17.9215278,18.6430556 L15.7059722,20.8588889 L15.6840278,20.8783333 L15.6466667,20.9097222 L15.6215278,20.9281944 L15.5934722,20.94625 L15.5623611,20.9620833 L15.5248611,20.9777778 L15.4872222,20.9869444 L15.4497222,20.9934722 L15.4277778,20.9973611 L15.4058333,20.9973611 L15.3840278,20.9934722 L15.3623611,20.9908333 L15.3402778,20.9869444 L15.3186111,20.9777778 L15.2966667,20.9686111 L15.2716667,20.9594444 L15.2497222,20.94375 L15.2277778,20.9281944 L15.2029167,20.9097222 L15.1811111,20.8876389 L15.1654167,20.8693056 L15.1529167,20.8536111 L15.1401389,20.83125 L15.1311111,20.8091667 L15.1248611,20.7869444 L15.1186111,20.7620833 L15.1154167,20.7398611 L15.1154167,20.7123611 L15.1120833,20.6875 L15.1154167,20.65875 L15.1186111,20.6338889 L15.1215278,20.6065278 L15.1277778,20.5776389 L15.1338889,20.5529167 L15.1434722,20.5255556 L15.1529167,20.4993056 L15.1840278,20.4405556 L15.2120833,20.3869444 L15.2340278,20.3411111 L15.2497222,20.2966667 L15.2591667,20.25875 L15.2654167,20.2222222 L15.2620833,20.1869444 L15.2558333,20.1555556 L15.2434722,20.1255556 L15.2248611,20.0901389 L15.1968056,20.0561111 L15.1681944,20.0183333 L15.0872222,19.9373611 L14.9872222,19.8340278 L10.9152778,15.7345833 L10.8125,15.6405556 L10.7277778,15.5686111 L10.6901389,15.5411111 L10.6558333,15.5188889 L10.6215278,15.4993056 L10.5872222,15.4876389 L10.5529167,15.4811111 L10.5186111,15.4811111 L10.4809722,15.4876389 L10.4372222,15.4968056 L10.3934722,15.5123611 L10.3405556,15.5347222 L10.2840278,15.5620833 L10.2219444,15.5973611 L10.1686111,15.6130556 L10.1186111,15.6248611 L10.0934722,15.6313889 L10.0186111,15.6313889 L9.99347222,15.6286111 L9.96861111,15.6220833 L9.94347222,15.6130556 L9.92152778,15.6026389 L9.89958333,15.5908333 L9.87805556,15.5776389 L9.85625,15.5594444 L9.83402778,15.5411111 L9.81527778,15.5188889 L9.79680556,15.4968056 L9.78430556,15.4783333 L9.77152778,15.4561111 L9.76208333,15.4338889 L9.75291667,15.4131944 L9.75,15.3908333 L9.74347222,15.3686111 L9.74347222,15.3058333 L9.74680556,15.285 L9.75583333,15.2444444 L9.76833333,15.2026389 L9.78430556,15.1686111 L9.79972222,15.1347222 L9.81861111,15.1033333 L9.83736111,15.0783333 L9.86833333,15.0338889 L9.89055556,15.0131944 L12.0777778,12.8248611 L12.0843056,12.8130556 L12.0997222,12.7973611 L12.1186111,12.7816667 L12.1434722,12.7622222 L12.1748611,12.74375 L12.2058333,12.7255556 L12.2434722,12.7098611 L12.2811111,12.6940278 L12.3215278,12.685 L12.3654167,12.6745833 L12.4091667,12.6745833 L12.4558333,12.6784722 L12.4777778,12.6811111 L12.4997222,12.6876389 L12.5216667,12.6966667 L12.5434722,12.7058333 L12.5654167,12.7188889 L12.5872222,12.7345833 L12.6091667,12.7502778 L12.6311111,12.76875 L12.6497222,12.7909722 L12.6686111,12.8130556 L12.6811111,12.8338889 L12.6934722,12.85875 L12.7029167,12.8809722 L12.7091667,12.9059722 L12.7154167,12.9281944 L12.7186111,12.9529167 L12.7186111,12.9776389 L12.7154167,13.0026389 L12.7123611,13.02875 L12.7061111,13.05625 L12.6963889,13.0811111 L12.6872222,13.1058333 L12.6748611,13.1306944 L12.6591667,13.1594444 L12.6244444,13.2222222 L12.5997222,13.2783333 L12.5777778,13.3281944 L12.5654167,13.3752778 L12.5558333,13.4156944 L12.5529167,13.4534722 L12.5529167,13.4719444 L12.5558333,13.4875 L12.5591667,13.5058333 L12.5654167,13.5215278 L12.5809722,13.5529167 L12.5997222,13.5844444 L12.6244444,13.6183333 L12.6559722,13.6536111 L12.7311111,13.7281944 L12.8248611,13.8220833 L16.8963889,17.9215278 Z" id="Fill-19" fill="#FFFFFE"></path>
                    <path d="M23.5715278,12.1058333 L23.6215278,12.0379167 L23.6716667,11.96875 L23.7151389,11.8966667 L23.7558333,11.82875 L23.7934722,11.7568056 L23.8309722,11.6809722 L23.8620833,11.6091667 L23.8901389,11.5345833 L23.9181944,11.4601389 L23.9401389,11.3816667 L23.9620833,11.3058333 L23.9806944,11.2288889 L23.9930556,11.1502778 L24.0058333,11.0719444 L24.0154167,10.9934722 L24.02125,10.915 L24.0277778,10.8338889 L24.0277778,10.7568056 L24.0244444,10.6744444 L24.02125,10.5973611 L24.0154167,10.515 L24.0058333,10.4338889 L23.9930556,10.3568056 L23.9777778,10.2745833 L23.95875,10.1936111 L23.9401389,10.11625 L23.9181944,10.0338889 L23.8931944,9.95680556 L23.8654167,9.87444444 L23.8338889,9.79736111 L23.8026389,9.71902778 L23.7654167,9.64041667 L23.7463889,9.57777778 L23.7244444,9.51513889 L23.7151389,9.485 L23.7058333,9.45361111 L23.6997222,9.42486111 L23.6934722,9.39347222 L23.6901389,9.36597222 L23.6901389,9.33472222 L23.6934722,9.30583333 L23.6997222,9.27847222 L23.7088889,9.24972222 L23.7244444,9.22222222 L23.7434722,9.1975 L23.7654167,9.16875 L23.7902778,9.14638889 L23.8120833,9.12819444 L23.8338889,9.11236111 L23.8559722,9.09666667 L23.8777778,9.08763889 L23.8997222,9.07833333 L23.92125,9.06930556 L23.9401389,9.06527778 L23.9620833,9.06277778 L23.9806944,9.05888889 L23.9997222,9.05888889 L24.0183333,9.06277778 L24.0526389,9.06930556 L24.0840278,9.07833333 L24.1152778,9.09402778 L24.1402778,9.10986111 L24.165,9.12819444 L24.1869444,9.14638889 L24.2183333,9.17777778 L24.2369444,9.1975 L25.8156944,10.7751389 L24.0154167,12.5502778 L23.5715278,12.1058333 L20.7745833,9.33472222 L20.7963889,9.29666667 L20.8183333,9.25625 L20.8338889,9.21819444 L20.8497222,9.17777778 L20.8620833,9.14111111 L20.8748611,9.10055556 L20.8840278,9.05888889 L20.8902778,9.01833333 L20.8934722,8.98166667 L20.8963889,8.94125 L20.8997222,8.90055556 L20.8997222,8.85875 L20.8934722,8.78166667 L20.8811111,8.70055556 L20.8652778,8.62222222 L20.8434722,8.54375 L20.8154167,8.46541667 L20.7869444,8.38819444 L20.7526389,8.3125 L20.7152778,8.23791667 L20.6777778,8.16222222 L20.6372222,8.0875 L20.6058333,8.02472222 L20.5777778,7.96208333 L20.5654167,7.93472222 L20.5558333,7.90319444 L20.5463889,7.87194444 L20.5434722,7.84055556 L20.5402778,7.80916667 L20.5402778,7.77777778 L20.5463889,7.74638889 L20.5558333,7.715 L20.5683333,7.685 L20.5840278,7.65347222 L20.6088889,7.62222222 L20.6372222,7.59083333 L20.6591667,7.56861111 L20.6840278,7.55027778 L20.7059722,7.53472222 L20.7277778,7.52152778 L20.7495833,7.5125 L20.7715278,7.50597222 L20.7934722,7.50069444 L20.8591667,7.50069444 L20.8777778,7.50597222 L20.8997222,7.50972222 L20.9372222,7.52555556 L20.9748611,7.54375 L21.0120833,7.56861111 L21.0434722,7.59347222 L21.0748611,7.62222222 L21.1026389,7.64972222 L21.1529167,7.69666667 L21.1901389,7.72819444 L22.8526389,9.41819444 L22.8931944,9.44708333 L22.9434722,9.49402778 L22.9716667,9.52166667 L22.9997222,9.55291667 L23.0245833,9.58680556 L23.0497222,9.62222222 L23.0683333,9.66263889 L23.0840278,9.70333333 L23.0902778,9.72541667 L23.0931944,9.74375 L23.0963889,9.76597222 L23.0963889,9.81305556 L23.0931944,9.83402778 L23.0869444,9.85625 L23.0777778,9.87847222 L23.0683333,9.90333333 L23.0558333,9.92555556 L23.0372222,9.95027778 L23.0183333,9.9725 L22.9869444,9.99736111 L22.9559722,10.0156944 L22.9245833,10.0313889 L22.8931944,10.0404167 L22.8620833,10.0497222 L22.8309722,10.0536111 L22.7654167,10.0536111 L22.7340278,10.0470833 L22.6997222,10.0377778 L22.6654167,10.02875 L22.6340278,10.0156944 L22.5620833,9.98430556 L22.4934722,9.94388889 L22.4245833,9.90333333 L22.3529167,9.86527778 L22.2811111,9.82875 L22.2091667,9.79361111 L22.1340278,9.76597222 L22.0588889,9.73722222 L21.9809722,9.715 L21.9029167,9.70069444 L21.8245833,9.68763889 L21.7463889,9.68111111 L21.7059722,9.68111111 L21.6683333,9.68486111 L21.6277778,9.68763889 L21.5905556,9.69013889 L21.5497222,9.70069444 L21.50875,9.70583333 L21.4683333,9.71902778 L21.4311111,9.73194444 L21.3901389,9.74638889 L21.3529167,9.76597222 L21.3120833,9.78416667 L21.2744444,9.80638889 L20.7745833,9.33472222 L23.5715278,12.1058333 Z M18.1715278,6.70333333 L19.9154167,4.98819444 L21.4963889,6.56597222 L21.5058333,6.5725 L21.5183333,6.58166667 L21.5309722,6.59347222 L21.5463889,6.61305556 L21.5559722,6.63138889 L21.5683333,6.65361111 L21.5744444,6.67847222 L21.5806944,6.70333333 L21.5840278,6.73458333 L21.5806944,6.76611111 L21.5744444,6.8 L21.5622222,6.83777778 L21.5434722,6.87847222 L21.5154167,6.91888889 L21.4806944,6.96208333 L21.4401389,7.00916667 L21.4186111,7.02875 L21.3963889,7.04458333 L21.3744444,7.05625 L21.3529167,7.06527778 L21.3277778,7.07444444 L21.3058333,7.07847222 L21.2811111,7.08111111 L21.2558333,7.08111111 L21.2306944,7.07847222 L21.2058333,7.07444444 L21.1809722,7.06916667 L21.1558333,7.05888889 L21.1026389,7.03791667 L21.0526389,7.00916667 L20.9748611,6.9725 L20.8963889,6.93472222 L20.8183333,6.90319444 L20.7434722,6.87180556 L20.6654167,6.84444444 L20.5905556,6.81833333 L20.5120833,6.79736111 L20.4372222,6.77777778 L20.3620833,6.75944444 L20.2872222,6.74638889 L20.2120833,6.73458333 L20.1369444,6.72541667 L20.0620833,6.71902778 L19.9872222,6.71625 L19.9120833,6.71625 L19.8372222,6.71902778 L19.7620833,6.72152778 L19.6872222,6.73208333 L19.6120833,6.74388889 L19.5372222,6.75680556 L19.4652778,6.77513889 L19.3904167,6.79333333 L19.3154167,6.81833333 L19.2402778,6.84444444 L19.1654167,6.87583333 L19.0901389,6.90986111 L19.0154167,6.94375 L18.9434722,6.98430556 L18.8683333,7.02486111 L18.7934722,7.07180556 L18.7181944,7.12152778 L18.6434722,7.17513889 L18.1715278,6.70333333 Z M15.7620833,9.14111111 L17.8405556,7.06277778 L23.6558333,12.9097222 L21.6059722,14.9595833 L21.5840278,14.9777778 L21.5434722,15.0090278 L21.5154167,15.02875 L21.4872222,15.0470833 L21.4529167,15.0654167 L21.4154167,15.0811111 L21.3777778,15.0940278 L21.3369444,15.1006944 L21.3154167,15.1033333 L21.2934722,15.1059722 L21.2716667,15.1059722 L21.2529167,15.1033333 L21.2306944,15.1006944 L21.2091667,15.0940278 L21.1872222,15.0876389 L21.165,15.0744444 L21.1434722,15.0654167 L21.1215278,15.0497222 L21.0995833,15.0338889 L21.0811111,15.0131944 L21.0588889,14.9934722 L21.0434722,14.9725 L21.0277778,14.9502778 L21.0154167,14.9255556 L21.0058333,14.9033333 L20.9997222,14.8784722 L20.9931944,14.85625 L20.9901389,14.8313889 L20.9872222,14.8063889 L20.9872222,14.7816667 L20.9901389,14.7569444 L20.9931944,14.7306944 L21.0058333,14.6784722 L21.0244444,14.6248611 L21.0588889,14.5620833 L21.0840278,14.5058333 L21.1058333,14.45625 L21.1244444,14.4091667 L21.1340278,14.3686111 L21.1401389,14.3280556 L21.1369444,14.2941667 L21.1306944,14.2588889 L21.1183333,14.2248611 L21.1026389,14.1908333 L21.0811111,14.1568056 L21.0526389,14.1188889 L20.9777778,14.0379167 L20.8869444,13.9345833 L16.8154167,9.86277778 L16.7091667,9.75958333 L16.6244444,9.68111111 L16.5840278,9.64958333 L16.5463889,9.62486111 L16.5091667,9.60652778 L16.4744444,9.59097222 L16.4372222,9.58430556 L16.3997222,9.58166667 L16.3591667,9.58680556 L16.3154167,9.5975 L16.2681944,9.61305556 L16.2152778,9.63402778 L16.1591667,9.66263889 L16.0934722,9.69416667 L16.0715278,9.70583333 L16.0497222,9.7125 L16.0277778,9.72152778 L16.0058333,9.72541667 L15.9838889,9.73194444 L15.9591667,9.73472222 L15.9123611,9.73472222 L15.8902778,9.73194444 L15.8683333,9.72805556 L15.8434722,9.72152778 L15.8215278,9.715 L15.7995833,9.70583333 L15.7777778,9.69416667 L15.7558333,9.68111111 L15.7340278,9.66916667 L15.7152778,9.64319444 L15.6963889,9.62222222 L15.6809722,9.5975 L15.6686111,9.57513889 L15.6591667,9.55291667 L15.6526389,9.52805556 L15.6434722,9.50583333 L15.6405556,9.485 L15.6372222,9.44055556 L15.6372222,9.40013889 L15.6434722,9.35944444 L15.6526389,9.32152778 L15.6654167,9.28763889 L15.6809722,9.25361111 L15.6963889,9.22486111 L15.7152778,9.2 L15.7434722,9.16208333 L15.7620833,9.14111111 Z" id="Fill-20" fill="#FFFFFE"></path>
                    <polyline id="Fill-21" fill="#FFFFFE" points="42.0497222 6.70333333 42.0902778 6.62875 42.1268056 6.55305556 42.1620833 6.47833333 42.1895833 6.4 42.2143056 6.32555556 42.2366667 6.24694444 42.2523611 6.1725 42.2679167 6.09416667 42.2770833 6.01833333 42.2836111 5.94111111 42.2863889 5.86277778 42.2836111 5.78694444 42.2811111 5.70972222 42.2745833 5.63388889 42.2654167 5.55694444 42.2523611 5.48111111 42.2366667 5.40652778 42.2208333 5.33208333 42.19875 5.25625 42.1777778 5.18180556 42.1529167 5.10597222 42.1268056 5.03138889 42.0993056 4.95958333 42.0680556 4.885 42.0026389 4.74125 41.9306944 4.5975 41.8522222 4.46 41.77125 4.32152778 41.7109722 4.1975 41.65625 4.07180556 41.63 4.00916667 41.6116667 3.94777778 41.5959722 3.885 41.5843056 3.82208333 41.5804167 3.79333333 41.5804167 3.69666667 41.5843056 3.66930556 41.5894444 3.63791667 41.59875 3.60666667 41.6091667 3.57513889 41.6208333 3.54375 41.6340278 3.51236111 41.6495833 3.48097222 41.6680556 3.44972222 41.6902778 3.41833333 41.7151389 3.38819444 41.7425 3.35680556 41.77125 3.32541667 41.8143056 3.28486111 41.85625 3.24958333 41.8966667 3.21958333 41.9372222 3.19722222 41.9804167 3.17777778 42.0208333 3.16597222 42.0615278 3.15680556 42.1019444 3.15291667 42.1438889 3.15291667 42.1843056 3.15944444 42.2248611 3.16597222 42.2613889 3.175 42.3019444 3.19083333 42.34 3.20666667 42.3738889 3.22486111 42.4116667 3.24444444 42.4809722 3.29152778 42.5463889 3.34111111 42.6090278 3.39347222 42.6652778 3.44444444 42.7580556 3.53722222 42.8248611 3.6 46.0927778 6.86930556 46.1555556 6.93472222 46.2458333 7.02875 46.2968056 7.08111111 46.3463889 7.14125 46.3933333 7.20263889 46.4405556 7.27180556 46.4588889 7.30583333 46.4770833 7.34375 46.4929167 7.38152778 46.5058333 7.41819444 46.5177778 7.46013889 46.5243056 7.49680556 46.5268056 7.53736111 46.5306944 7.57777778 46.5243056 7.62222222 46.5177778 7.66277778 46.5058333 7.70583333 46.4901389 7.74638889 46.4679167 7.79097222 46.4405556 7.83388889 46.4091667 7.87847222 46.37125 7.92152778 46.3397222 7.95291667 46.2770833 8.00263889 46.2458333 8.02472222 46.2144444 8.04444444 46.1830556 8.05875 46.1529167 8.07458333 46.1215278 8.0875 46.0902778 8.09680556 46.05875 8.10333333 46.0273611 8.10986111 45.9961111 8.11236111 45.9647222 8.11638889 45.9334722 8.11638889 45.9019444 8.11236111 45.8706944 8.10986111 45.8091667 8.10055556 45.7463889 8.08486111 45.6836111 8.06277778 45.6209722 8.04069444 45.4968056 7.98430556 45.37375 7.92152778 45.2365278 7.84055556 45.0968056 7.76597222 44.9555556 7.69402778 44.8091667 7.62486111 44.7372222 7.59736111 44.6615278 7.56611111 44.5895833 7.54111111 44.5151389 7.515 44.4405556 7.49402778 44.3647222 7.47444444 44.2902778 7.45625 44.2118056 7.44041667 44.1373611 7.42875 44.0588889 7.41819444 43.9830556 7.41319444 43.9084722 7.40916667 43.83 7.40916667 43.7529167 7.41319444 43.6772222 7.41819444 43.5986111 7.42875 43.5241667 7.44041667 43.4458333 7.46013889 43.3711111 7.47847222 43.2927778 7.50319444 43.2183333 7.53472222 43.1398611 7.56611111 43.0654167 7.60263889 42.9895833 7.64444444 42.0497222 6.70333333"></polyline>
                </g>
            </g>
        </g>
    </g>
</svg>