<?xml version="1.0" encoding="UTF-8"?>
<svg width="50px" height="50px" viewBox="0 0 50 50" version="1.1" xmlns="http://www.w3.org/2000/svg" xmlns:xlink="http://www.w3.org/1999/xlink">
    <!-- Generator: Sketch 52.5 (67469) - http://www.bohemiancoding.com/sketch -->
    <title>Brand/Icon/HomeDepot</title>
    <desc>Created with Sketch.</desc>
    <defs>
        <polygon id="path-1" points="0 0 39.977 0 39.977 39.9933333 0 39.9933333"></polygon>
    </defs>
    <g id="Brand/Icon/HomeDepot" stroke="none" stroke-width="1" fill="none" fill-rule="evenodd">
        <rect fill="#E17232" x="0" y="0" width="50" height="50"></rect>
        <g id="HomeDepot_logo-2" transform="translate(5.000000, 5.000000)">
            <g id="HomeDepot_logo">
                <g id="Group-6">
                    <mask id="mask-2" fill="white">
                        <use xlink:href="#path-1"></use>
                    </mask>
                    <g id="Clip-2"></g>
                    <polygon id="Fill-1" fill="#E17232" mask="url(#mask-2)" points="0 40 39.977 40 39.977 0 0 0"></polygon>
                    <path d="M8.81988889,40 L7.445,40 L7.45722222,39.977 L7.46744444,39.9551111 L7.51733333,39.862 L7.55733333,39.7772222 L7.57488889,39.7375556 L7.58977778,39.6998889 L7.60233333,39.6643333 L7.61488889,39.6318889 L7.62222222,39.5995556 L7.62744444,39.5671111 L7.63244444,39.5398889 L7.63477778,39.5095556 L7.63477778,39.4823333 L7.63244444,39.4572222 L7.62744444,39.4301111 L7.61988889,39.4051111 L7.61222222,39.3798889 L7.59966667,39.3546667 L7.58722222,39.3296667 L7.57222222,39.3045556 L7.55477778,39.2773333 L7.53488889,39.2523333 L7.51244444,39.2251111 L7.49,39.1967778 L7.43477778,39.1424444 L7.37488889,39.0797778 L7.30244444,39.0116667 L7.22477778,38.9375556 L1.04233333,32.7518889 L0.962333333,32.6745556 L0.892222222,32.6044444 L0.827444444,32.5427778 L0.77,32.4873333 L0.715111111,32.4423333 L0.662444444,32.4047778 L0.637444444,32.3901111 L0.612555556,32.3774444 L0.587444444,32.3671111 L0.562333333,32.3576667 L0.537222222,32.3503333 L0.509777778,32.3471111 L0.482333333,32.345 L0.454888889,32.342 L0.427444444,32.345 L0.397333333,32.3503333 L0.367333333,32.3544444 L0.334888889,32.3648889 L0.299888889,32.3743333 L0.264777778,32.3868889 L0.224777778,32.4026667 L0.184888889,32.4192222 L0.0972222222,32.4601111 L0,32.5103333 L0,31.1571111 L2.83744444,28.322 L2.86988889,28.2927778 L2.93233333,28.2426667 L2.97488889,28.2154444 L3.01988889,28.1872222 L3.07244444,28.1621111 L3.12733333,28.137 L3.15477778,28.1296667 L3.18488889,28.1202222 L3.21744444,28.115 L3.24733333,28.1077778 L3.28,28.1045556 L3.34244444,28.1045556 L3.37488889,28.1097778 L3.40722222,28.1171111 L3.44,28.1244444 L3.47233333,28.137 L3.50744444,28.1548889 L3.53722222,28.1746667 L3.56988889,28.1976667 L3.60233333,28.2247778 L3.635,28.2551111 L3.66477778,28.2844444 L3.69255556,28.3147778 L3.715,28.3471111 L3.73488889,28.3796667 L3.74977778,28.412 L3.76233333,28.4444444 L3.77,28.4798889 L3.77488889,28.5145556 L3.77755556,28.55 L3.77488889,28.5876667 L3.77,28.6222222 L3.76233333,28.6597778 L3.74977778,28.6974444 L3.73722222,28.7352222 L3.72,28.7727778 L3.69988889,28.8094444 L3.65,28.9076667 L3.60988889,28.9945556 L3.59244444,29.0374444 L3.57755556,29.0751111 L3.565,29.1126667 L3.555,29.1472222 L3.54477778,29.1795556 L3.53988889,29.212 L3.53488889,29.2424444 L3.53222222,29.2695556 L3.53222222,29.2997778 L3.53488889,29.3271111 L3.53988889,29.3522222 L3.54477778,29.3803333 L3.555,29.4044444 L3.565,29.4295556 L3.57755556,29.4577778 L3.59244444,29.4828889 L3.60755556,29.5068889 L3.62744444,29.5351111 L3.64733333,29.5602222 L3.66977778,29.5874444 L3.72,29.645 L3.77988889,29.7077778 L3.84733333,29.7746667 L3.92233333,29.8498889 L10.1273333,36.0543333 L10.2023333,36.1296667 L10.2697778,36.1976667 L10.3323333,36.2572222 L10.3897778,36.3075556 L10.4172222,36.3294444 L10.4423333,36.3524444 L10.4697778,36.3701111 L10.4948889,36.3868889 L10.5197778,36.4026667 L10.5447778,36.412 L10.5696667,36.4245556 L10.5947778,36.4318889 L10.6198889,36.4371111 L10.6473333,36.4423333 L10.6721111,36.4444444 L10.7022222,36.4444444 L10.7296667,36.4423333 L10.7897778,36.4318889 L10.8222222,36.4225556 L10.8548889,36.412 L10.8896667,36.3994444 L10.9273333,36.3848889 L10.9673333,36.3671111 L11.0523333,36.3272222 L11.1472222,36.2771111 L11.1848889,36.2624444 L11.2222222,36.2468889 L11.2598889,36.2373333 L11.2998889,36.227 L11.3372222,36.2227778 L11.3773333,36.2175556 L11.4148889,36.2175556 L11.4548889,36.2196667 L11.4923333,36.2227778 L11.5296667,36.23 L11.5673333,36.2426667 L11.6046667,36.2551111 L11.6396667,36.2718889 L11.6774444,36.2927778 L11.7097778,36.3168889 L11.7448889,36.342 L11.7746667,36.3743333 L11.7997778,36.4067778 L11.8198889,36.4403333 L11.8371111,36.4726667 L11.8522222,36.5051111 L11.8648889,36.5375556 L11.8724444,36.5698889 L11.8773333,36.6024444 L11.8796667,36.6347778 L11.8796667,36.6996667 L11.8747778,36.7298889 L11.8698889,36.7623333 L11.8622222,36.7926667 L11.8548889,36.8218889 L11.845,36.8502222 L11.8222222,36.9046667 L11.7974444,36.9567778 L11.7696667,37.0048889 L11.7448889,37.0446667 L11.6995556,37.1074444 L11.6774444,37.1418889 L8.81988889,40 Z M8.86488889,31.6674444 L7.82244444,32.7101111 L7.13488889,32 L8.17755556,30.9573333 L5.49488889,28.2771111 L5.41722222,28.2028889 L5.34744444,28.1348889 L5.28233333,28.0773333 L5.22477778,28.0271111 L5.19477778,28.0052222 L5.16988889,27.9854444 L5.14222222,27.9676667 L5.11744444,27.9518889 L5.09244444,27.9373333 L5.06744444,27.9278889 L5.04233333,27.9173333 L5.01744444,27.91 L4.98977778,27.9027778 L4.965,27.8995556 L4.93722222,27.8975556 L4.90988889,27.8975556 L4.88233333,27.8995556 L4.85222222,27.9048889 L4.81988889,27.91 L4.78744444,27.9194444 L4.71733333,27.9404444 L4.63966667,27.9727778 L4.55244444,28.0094444 L4.45488889,28.0554444 L4.41722222,28.0753333 L4.37755556,28.092 L4.33988889,28.1045556 L4.30244444,28.1171111 L4.26244444,28.1244444 L4.22477778,28.1296667 L4.18744444,28.1327778 L4.14977778,28.1296667 L4.11244444,28.1244444 L4.075,28.1171111 L4.03977778,28.1045556 L4.00488889,28.09 L3.97222222,28.0701111 L3.93988889,28.0471111 L3.90744444,28.0198889 L3.87733333,27.9894444 L3.82244444,27.9247778 L3.80233333,27.8955556 L3.78244444,27.8598889 L3.76733333,27.8273333 L3.75744444,27.795 L3.74744444,27.7626667 L3.74255556,27.7301111 L3.73722222,27.6977778 L3.73722222,27.6351111 L3.74255556,27.6026667 L3.74511111,27.5722222 L3.75244444,27.5398889 L3.75966667,27.5095556 L3.77,27.4823333 L3.79244444,27.4268889 L3.81488889,27.3745556 L3.84233333,27.3296667 L3.86744444,27.2878889 L3.915,27.2251111 L3.94477778,27.1895556 L7.28966667,23.8672222 L7.30244444,23.8525556 L7.32488889,23.8295556 L7.35233333,23.8055556 L7.38744444,23.7803333 L7.42722222,23.7501111 L7.47477778,23.7228889 L7.525,23.6977778 L7.58222222,23.6747778 L7.60988889,23.6674444 L7.63966667,23.6601111 L7.66977778,23.6528889 L7.70222222,23.6475556 L7.73222222,23.6455556 L7.765,23.6455556 L7.79744444,23.6475556 L7.82977778,23.6528889 L7.86222222,23.6601111 L7.89466667,23.6694444 L7.92733333,23.6821111 L7.96,23.6998889 L7.99244444,23.7197778 L8.02488889,23.7427778 L8.05733333,23.77 L8.08733333,23.8002222 L8.11977778,23.8295556 L8.14722222,23.863 L8.16966667,23.8955556 L8.18977778,23.9278889 L8.20466667,23.9623333 L8.21733333,24 L8.22477778,24.0345556 L8.22977778,24.0721111 L8.22977778,24.1474444 L8.22477778,24.1872222 L8.21733333,24.2247778 L8.20466667,24.2624444 L8.18977778,24.3022222 L8.17488889,24.3398889 L8.15477778,24.3774444 L8.10488889,24.4726667 L8.06477778,24.5553333 L8.04733333,24.5948889 L8.03222222,24.6326667 L8.01988889,24.6671111 L8.00966667,24.7026667 L7.99977778,24.732 L7.99477778,24.7644444 L7.98977778,24.7947778 L7.98744444,24.8218889 L7.98744444,24.8502222 L7.98977778,24.8773333 L7.99244444,24.9024444 L7.99977778,24.9276667 L8.00733333,24.9526667 L8.01744444,24.9777778 L8.02988889,25.0048889 L8.04488889,25.0301111 L8.06222222,25.0552222 L8.07977778,25.0803333 L8.09988889,25.1074444 L8.12488889,25.1346667 L8.17488889,25.1921111 L8.23477778,25.2527778 L8.30222222,25.3228889 L8.37722222,25.3951111 L14.5822222,31.5995556 L14.6572222,31.6768889 L14.7246667,31.7427778 L14.7845556,31.8023333 L14.8421111,31.8545556 L14.8698889,31.8776667 L14.8972222,31.8974444 L14.9221111,31.9152222 L14.9497778,31.9321111 L14.9745556,31.9476667 L14.9997778,31.9602222 L15.0248889,31.9697778 L15.0496667,31.977 L15.0747778,31.9853333 L15.1022222,31.9874444 L15.1273333,31.9894444 L15.1547778,31.9894444 L15.1848889,31.9874444 L15.2123333,31.9853333 L15.2447778,31.977 L15.2771111,31.9697778 L15.3095556,31.9571111 L15.3448889,31.9445556 L15.3822222,31.9298889 L15.4222222,31.9121111 L15.5072222,31.8724444 L15.5996667,31.8222222 L15.6421111,31.8076667 L15.6824444,31.795 L15.7221111,31.7824444 L15.7623333,31.7752222 L15.8021111,31.7678889 L15.8397778,31.7646667 L15.8771111,31.7626667 L15.9147778,31.7646667 L15.9497778,31.77 L15.9848889,31.7772222 L16.0195556,31.7877778 L16.052,31.8002222 L16.0847778,31.8171111 L16.1174444,31.8368889 L16.1472222,31.862 L16.1772222,31.8902222 L16.2046667,31.9194444 L16.2321111,31.9518889 L16.2523333,31.9853333 L16.2721111,32.0177778 L16.2847778,32.0501111 L16.2972222,32.0826667 L16.3072222,32.115 L16.3122222,32.1474444 L16.3171111,32.1798889 L16.3171111,32.2446667 L16.3122222,32.2751111 L16.3072222,32.3075556 L16.3022222,32.3377778 L16.2945556,32.3671111 L16.2847778,32.3953333 L16.2622222,32.4527778 L16.2371111,32.502 L16.2123333,32.55 L16.1872222,32.5898889 L16.1398889,32.6525556 L16.1095556,32.6871111 L12.7646667,36.0094444 L12.7546667,36.0271111 L12.7372222,36.0471111 L12.7122222,36.0721111 L12.6797778,36.0993333 L12.6396667,36.1275556 L12.5947778,36.1548889 L12.5696667,36.1693333 L12.5447778,36.182 L12.5173333,36.1944444 L12.4896667,36.205 L12.4598889,36.2143333 L12.4297778,36.2227778 L12.3997778,36.23 L12.3698889,36.2353333 L12.3372222,36.2394444 L12.2697778,36.2394444 L12.2373333,36.2353333 L12.2046667,36.23 L12.1696667,36.2196667 L12.1345556,36.2102222 L12.1022222,36.1944444 L12.0674444,36.1777778 L12.0322222,36.1548889 L11.9997778,36.1296667 L11.9673333,36.0993333 L11.9398889,36.0648889 L11.9147778,36.0323333 L11.8946667,35.9947778 L11.8773333,35.9602222 L11.8648889,35.9226667 L11.8548889,35.885 L11.8473333,35.8473333 L11.845,35.8095556 L11.845,35.77 L11.8473333,35.7323333 L11.8522222,35.6924444 L11.8595556,35.655 L11.8724444,35.6151111 L11.8846667,35.5774444 L11.9022222,35.5398889 L11.9223333,35.5023333 L11.9722222,35.4071111 L12.0123333,35.3223333 L12.0298889,35.2825556 L12.0446667,35.2471111 L12.0573333,35.2094444 L12.0674444,35.177 L12.0771111,35.1445556 L12.0821111,35.1153333 L12.0873333,35.085 L12.0873333,35.0295556 L12.0846667,35.0023333 L12.0821111,34.9751111 L12.0747778,34.9501111 L12.0647778,34.9248889 L12.0546667,34.8998889 L12.0423333,34.8747778 L12.0272222,34.8496667 L11.9897778,34.7974444 L11.9447778,34.7451111 L11.8896667,34.6875556 L11.8272222,34.6247778 L11.7571111,34.5568889 L11.6774444,34.4826667 L8.86488889,31.6674444 Z" id="Fill-3" fill="#FFFFFE" mask="url(#mask-2)"></path>
                    <path d="M39.977,6.82566667 L39.977,8.81988889 L38.2692222,10.5275556 L37.6073333,9.83944444 L37.6794444,9.74011111 L37.7494444,9.63766667 L37.8164444,9.53211111 L37.8771111,9.42744444 L37.9346667,9.31966667 L37.987,9.212 L38.0371111,9.10222222 L38.079,8.99033333 L38.1197778,8.87733333 L38.1542222,8.76555556 L38.1867778,8.65044444 L38.2138889,8.53544444 L38.2368889,8.41722222 L38.2546667,8.30011111 L38.2692222,8.18288889 L38.2797778,8.06266667 L38.2848889,7.94455556 L38.2848889,7.82533333 L38.2818889,7.70511111 L38.2766667,7.58488889 L38.2641111,7.46244444 L38.2493333,7.34222222 L38.2295556,7.223 L38.2064444,7.09955556 L38.1792222,6.98033333 L38.1468889,6.85811111 L38.1113333,6.73777778 L38.0716667,6.61755556 L38.0266667,6.49722222 L37.9796667,6.378 L37.9273333,6.25777778 L37.872,6.13755556 L37.8373333,6.04022222 L37.8071111,5.93988889 L37.7923333,5.89277778 L37.7798889,5.84266667 L37.7694444,5.79555556 L37.7642222,5.74744444 L37.759,5.70244444 L37.759,5.65744444 L37.7621111,5.63566667 L37.7642222,5.61255556 L37.7694444,5.59055556 L37.7747778,5.56744444 L37.782,5.54777778 L37.7893333,5.52788889 L37.7997778,5.50488889 L37.8091111,5.485 L37.8216667,5.465 L37.8373333,5.44522222 L37.8542222,5.42744444 L37.872,5.40755556 L37.9095556,5.37522222 L37.9441111,5.34477778 L37.9796667,5.31966667 L38.0141111,5.29977778 L38.0496667,5.28311111 L38.0842222,5.26744444 L38.1165556,5.258 L38.1468889,5.24966667 L38.1792222,5.24544444 L38.2097778,5.24244444 L38.2388889,5.24244444 L38.2671111,5.24544444 L38.2943333,5.24966667 L38.3216667,5.258 L38.3466667,5.26533333 L38.3717778,5.27477778 L38.4197778,5.29788889 L38.4616667,5.325 L38.5014444,5.35222222 L38.5347778,5.38244444 L38.5892222,5.43788889 L38.6247778,5.47244444 L39.977,6.82566667 Z M31.1341111,0 L32.9966667,0 L34.4596667,1.463 L34.4721111,1.47766667 L34.4898889,1.49544444 L34.5067778,1.51733333 L34.5265556,1.54455556 L34.5442222,1.575 L34.5588889,1.61033333 L34.5746667,1.64811111 L34.5841111,1.68777778 L34.5872222,1.70988889 L34.5872222,1.77988889 L34.5841111,1.805 L34.5798889,1.83011111 L34.5716667,1.85511111 L34.5621111,1.88233333 L34.5495556,1.91277778 L34.5347778,1.93988889 L34.5192222,1.97011111 L34.4993333,2.00055556 L34.4774444,2.02988889 L34.4523333,2.06222222 L34.424,2.09466667 L34.3916667,2.128 L34.3541111,2.16266667 L34.3195556,2.18977778 L34.2818889,2.21277778 L34.2441111,2.23055556 L34.2097778,2.24311111 L34.172,2.25255556 L34.1343333,2.25466667 L34.0997778,2.25466667 L34.0622222,2.25255556 L34.0225556,2.24522222 L33.9847778,2.23477778 L33.9441111,2.22 L33.8593333,2.18977778 L33.7714444,2.15011111 L33.6544444,2.09044444 L33.5372222,2.03288889 L33.4191111,1.98277778 L33.302,1.93455556 L33.1848889,1.89077778 L33.0697778,1.85311111 L32.9547778,1.81744444 L32.8397778,1.785 L32.7246667,1.76 L32.6096667,1.73811111 L32.4967778,1.72022222 L32.3817778,1.70777778 L32.2697778,1.69722222 L32.1548889,1.693 L32.0418889,1.693 L31.9298889,1.69722222 L31.8171111,1.70777778 L31.7041111,1.72022222 L31.5921111,1.74011111 L31.4792222,1.76311111 L31.3673333,1.78722222 L31.2574444,1.81955556 L31.1445556,1.85722222 L31.0316667,1.898 L30.9196667,1.943 L30.8098889,1.99222222 L30.6968889,2.04766667 L30.5841111,2.10722222 L30.4742222,2.17311111 L30.3624444,2.24 L30.2493333,2.31533333 L30.1375556,2.39266667 L29.4294444,1.70777778 L31.1341111,0 Z M25.7944444,5.33966667 L28.8972222,2.23788889 L37.7391111,11.0576667 L34.6373333,14.1594444 L34.6247778,14.1772222 L34.6017778,14.1971111 L34.5746667,14.2222222 L34.5391111,14.2493333 L34.4973333,14.2776667 L34.4523333,14.3047778 L34.4,14.332 L34.3446667,14.355 L34.3173333,14.3655556 L34.287,14.3727778 L34.2567778,14.3801111 L34.2243333,14.3854444 L34.194,14.3874444 L34.1615556,14.3895556 L34.1291111,14.3895556 L34.0967778,14.3854444 L34.0643333,14.3801111 L34.0318889,14.3696667 L33.9994444,14.3571111 L33.967,14.3425556 L33.9346667,14.3247778 L33.9022222,14.3047778 L33.8697778,14.2776667 L33.8394444,14.2493333 L33.8071111,14.215 L33.7798889,14.1825556 L33.757,14.148 L33.737,14.1124444 L33.7223333,14.0778889 L33.7098889,14.0423333 L33.7014444,14.0047778 L33.6972222,13.9701111 L33.6941111,13.9326667 L33.6972222,13.897 L33.7014444,13.8603333 L33.7098889,13.8227778 L33.7223333,13.785 L33.7348889,13.7474444 L33.7516667,13.7098889 L33.7714444,13.6722222 L33.8216667,13.575 L33.8614444,13.4871111 L33.8792222,13.4473333 L33.895,13.4075556 L33.9075556,13.37 L33.9168889,13.3354444 L33.9273333,13.3031111 L33.9326667,13.2695556 L33.9367778,13.2402222 L33.9367778,13.1827778 L33.9346667,13.1545556 L33.9326667,13.1304444 L33.9241111,13.1022222 L33.9147778,13.0771111 L33.9043333,13.052 L33.8917778,13.0248889 L33.8771111,12.9996667 L33.8593333,12.9745556 L33.8394444,12.9474444 L33.8164444,12.9224444 L33.7944444,12.8952222 L33.7391111,12.8376667 L33.6774444,12.7748889 L33.6073333,12.7068889 L33.53,12.6326667 L27.3443333,6.42722222 L27.1967778,6.28488889 L27.0745556,6.17511111 L27.0191111,6.13022222 L26.9667778,6.09466667 L26.9417778,6.08211111 L26.9166667,6.06944444 L26.8914444,6.058 L26.8674444,6.04966667 L26.8392222,6.04544444 L26.8141111,6.04022222 L26.7868889,6.03711111 L26.7597778,6.03711111 L26.7325556,6.04022222 L26.7022222,6.04544444 L26.6697778,6.04966667 L26.6373333,6.06011111 L26.6048889,6.06944444 L26.5673333,6.08211111 L26.5296667,6.09777778 L26.4898889,6.11555556 L26.402,6.15522222 L26.3047778,6.20555556 L26.2671111,6.22 L26.2274444,6.23477778 L26.1897778,6.24522222 L26.1521111,6.25466667 L26.1125556,6.25988889 L26.0747778,6.26511111 L26.0371111,6.26511111 L25.9994444,6.26288889 L25.9617778,6.25988889 L25.9241111,6.25044444 L25.8897778,6.24 L25.8542222,6.22755556 L25.8216667,6.20977778 L25.7893333,6.18977778 L25.757,6.16466667 L25.7276667,6.13755556 L25.6993333,6.10722222 L25.6722222,6.07477778 L25.6522222,6.04233333 L25.6323333,6.01 L25.6166667,5.97755556 L25.6073333,5.94511111 L25.5968889,5.91277778 L25.5915556,5.88022222 L25.5874444,5.84788889 L25.5874444,5.783 L25.5915556,5.75266667 L25.5948889,5.72022222 L25.6021111,5.69 L25.6093333,5.65955556 L25.6198889,5.63233333 L25.6418889,5.578 L25.667,5.52466667 L25.6921111,5.47766667 L25.7192222,5.43788889 L25.7422222,5.40233333 L25.7642222,5.37522222 L25.782,5.35222222 L25.7944444,5.33966667 Z" id="Fill-4" fill="#FFFFFE" mask="url(#mask-2)"></path>
                    <polyline id="Fill-5" fill="#FFFFFE" mask="url(#mask-2)" points="22.4272222 38.537 20.9642222 40 20.1872222 40 20.205 39.9623333 20.2247778 39.9226667 20.2342222 39.9027778 20.2468889 39.8818889 20.2593333 39.862 20.2771111 39.8451111 20.2824444 39.8295556 20.2876667 39.8148889 20.2896667 39.8002222 20.2896667 39.7573333 20.2844444 39.7248889 20.2771111 39.6967778 20.2646667 39.6674444 20.2498889 39.6371111 20.2321111 39.6098889 20.2122222 39.5816667 20.1924444 39.5544444 20.1693333 39.5294444 20.1443333 39.5043333 20.0993333 39.4624444 20.0543333 39.4247778 16.5746667 35.9445556 16.5395556 35.8995556 16.4946667 35.8494444 16.4697778 35.8273333 16.4446667 35.8023333 16.4172222 35.7793333 16.3897778 35.7594444 16.3621111 35.7395556 16.3323333 35.7248889 16.3022222 35.7123333 16.2721111 35.7051111 16.2421111 35.702 16.2146667 35.702 16.1997778 35.7051111 16.1845556 35.7103333 16.1696667 35.7145556 16.1547778 35.7217778 16.0896667 35.7573333 16.0245556 35.7897778 15.9947778 35.8044444 15.9621111 35.8171111 15.9296667 35.8273333 15.8998889 35.8368889 15.8672222 35.8421111 15.8371111 35.8451111 15.8046667 35.8451111 15.7746667 35.8368889 15.7571111 35.8348889 15.7422222 35.8273333 15.7273333 35.8222222 15.7097778 35.8117778 15.6946667 35.8044444 15.6774444 35.792 15.6622222 35.7793333 15.6446667 35.7678889 15.6321111 35.7501111 15.6198889 35.7343333 15.6071111 35.7176667 15.5996667 35.6998889 15.5924444 35.6852222 15.5872222 35.6674444 15.5822222 35.6528889 15.5772222 35.6351111 15.5746667 35.6025556 15.5772222 35.5702222 15.5822222 35.5377778 15.5924444 35.5073333 15.6046667 35.475 15.6222222 35.4446667 15.6396667 35.4175556 15.6596667 35.3872222 15.7072222 35.3328889 15.7546667 35.2795556 17.4622222 33.5727778 22.4272222 38.537"></polyline>
                </g>
                <polyline id="Fill-7" fill="#FFFFFE" points="37.9817778 16.1327778 37.9963333 16.1548889 38.0172222 16.1904444 38.0371111 16.2321111 38.0465556 16.2572222 38.0538889 16.2844444 38.0591111 16.3147778 38.0591111 16.345 38.057 16.3774444 38.0517778 16.4098889 38.0443333 16.4277778 38.0371111 16.4444444 38.0298889 16.4621111 38.0193333 16.4798889 38.0068889 16.4998889 37.9942222 16.5176667 37.9764444 16.5343333 37.9597778 16.5553333 37.942 16.5698889 37.9221111 16.5846667 37.9043333 16.5971111 37.8844444 16.6076667 37.8666667 16.6148889 37.8468889 16.6222222 37.8291111 16.6295556 37.8123333 16.6347778 37.7923333 16.6378889 37.7747778 16.64 37.737 16.64 37.6993333 16.6347778 37.6647778 16.6254444 37.6272222 16.6148889 37.5915556 16.6002222 37.5572222 16.5804444 37.5215556 16.5595556 37.4514444 16.5145556 37.3845556 16.4653333 37.3072222 16.4098889 37.2297778 16.3576667 37.1472222 16.3022222 37.0615556 16.2477778 36.9715556 16.1976667 36.8816667 16.1474444 36.7894444 16.1004444 36.6944444 16.0576667 36.6441111 16.0376667 36.5971111 16.0198889 36.5468889 16.0021111 36.4967778 15.9874444 36.4444444 15.9728889 36.3942222 15.9602222 36.3418889 15.9476667 36.2896667 15.9373333 36.2374444 15.9298889 36.184 15.9247778 36.1296667 15.9226667 36.0774444 15.9194444 36.022 15.9194444 35.9664444 15.9226667 35.9121111 15.9278889 35.8546667 15.9321111 35.4792222 15.5576667 36.4318889 14.6048889 37.9817778 16.1327778"></polyline>
                <polyline id="Fill-8" fill="#FFFFFE" points="33.9722222 20.1872222 33.987 20.2028889 34.0193333 20.2227778 34.0392222 20.2321111 34.0622222 20.2446667 34.0872222 20.253 34.1145556 20.2604444 34.1448889 20.2646667 34.1772222 20.2676667 34.2097778 20.2646667 34.2441111 20.2572222 34.2618889 20.253 34.2818889 20.2446667 34.2995556 20.2353333 34.3173333 20.2247778 34.3372222 20.2122222 34.3541111 20.1997778 34.3748889 20.1851111 34.3916667 20.1651111 34.4073333 20.1495556 34.422 20.1327778 34.4345556 20.115 34.4438889 20.0972222 34.4544444 20.0794444 34.4616667 20.0626667 34.4721111 20.0271111 34.4742222 20.0105556 34.4774444 19.9894444 34.4774444 19.9551111 34.4721111 19.9173333 34.4648889 19.8797778 34.4523333 19.8451111 34.4366667 19.8095556 34.4197778 19.7752222 34.4 19.7395556 34.377 19.7051111 34.3518889 19.6727778 34.33 19.6423333 34.3047778 19.6121111 34.2493333 19.5325556 34.194 19.45 34.1396667 19.3652222 34.0872222 19.2773333 34.034 19.1875556 33.9847778 19.0944444 33.9398889 19.0023333 33.897 18.9051111 33.8771111 18.857 33.8593333 18.8078889 33.8415556 18.7597778 33.8248889 18.7095556 33.8091111 18.6593333 33.7965556 18.607 33.7872222 18.5578889 33.7766667 18.5045556 33.7694444 18.4554444 33.7621111 18.4021111 33.759 18.3497778 33.757 18.2975556 33.757 18.2452222 33.759 18.1897778 33.7642222 18.1375556 33.7714444 18.0821111 33.3721111 17.6846667 32.4192222 18.6373333 33.9722222 20.1872222"></polyline>
                <polyline id="Fill-9" fill="#FFFFFE" points="33.5497778 17.485 35.1895556 15.8451111 39.4017778 20.0773333 39.4823333 20.1598889 39.5492222 20.2227778 39.5795556 20.2477778 39.6067778 20.2676667 39.6371111 20.2823333 39.6643333 20.2927778 39.6768889 20.297 39.6915556 20.3001111 39.7218889 20.3001111 39.7542222 20.297 39.7897778 20.2896667 39.8295556 20.2771111 39.8714444 20.2604444 39.9215556 20.2373333 39.977 20.2102222 39.977 20.9851111 38.4042222 22.56 38.3791111 22.5818889 38.3393333 22.6123333 38.3173333 22.63 38.2892222 22.6447778 38.2598889 22.6603333 38.2295556 22.6728889 38.1971111 22.6824444 38.1615556 22.6896667 38.1072222 22.6896667 38.0894444 22.6875556 38.0695556 22.6824444 38.0517778 22.6771111 38.0318889 22.6697778 38.0141111 22.6625556 37.9942222 22.65 37.9744444 22.6373333 37.9565556 22.6226667 37.9367778 22.6048889 37.9221111 22.5871111 37.9095556 22.5704444 37.897 22.5526667 37.8865556 22.5348889 37.8792222 22.515 37.874 22.4972222 37.8697778 22.4774444 37.8666667 22.4575556 37.8645556 22.4375556 37.8645556 22.4177778 37.8666667 22.3978889 37.8697778 22.378 37.8792222 22.3351111 37.895 22.2922222 37.9241111 22.2378889 37.9492222 22.1897778 37.9692222 22.1448889 37.9847778 22.103 37.9942222 22.0673333 37.9994444 22.0328889 37.9994444 21.9994444 37.9963333 21.9847778 37.9942222 21.9701111 37.9817778 21.9398889 37.967 21.9095556 37.9441111 21.8802222 37.919 21.8478889 37.8865556 21.8154444 37.8498889 21.7777778 37.8071111 21.7401111 37.7621111 21.6952222 33.5497778 17.485"></polyline>
                <path d="M37.7171111,38.6927778 L37.5173333,38.6927778 L37.5173333,37.3845556 L38.0047778,37.3845556 L38.0591111,37.3876667 L38.1145556,37.3897778 L38.1615556,37.3971111 L38.2064444,37.4075556 L38.2493333,37.4201111 L38.287,37.4346667 L38.3216667,37.4524444 L38.3541111,37.4724444 L38.3821111,37.4975556 L38.4042222,37.5246667 L38.424,37.5572222 L38.4418889,37.5895556 L38.4544444,37.6272222 L38.4616667,37.67 L38.4668889,37.7151111 L38.469,37.7621111 L38.469,37.8017778 L38.4648889,37.8394444 L38.4563333,37.875 L38.447,37.9074444 L38.4324444,37.9377778 L38.4167778,37.965 L38.399,37.99 L38.3791111,38.0152222 L38.3541111,38.035 L38.3288889,38.0528889 L38.3017778,38.0695556 L38.2745556,38.0821111 L38.2421111,38.0947778 L38.2097778,38.105 L38.1741111,38.1124444 L38.1365556,38.1176667 L38.492,38.6927778 L38.2692222,38.6927778 L37.9367778,38.1176667 L37.7171111,38.1176667 L37.7171111,38.6927778 L37.9367778,37.9597778 L38.0047778,37.9597778 L38.0643333,37.9576667 L38.0946667,37.9544444 L38.1218889,37.9493333 L38.1468889,37.9451111 L38.172,37.9377778 L38.192,37.9252222 L38.2117778,37.9127778 L38.2295556,37.897 L38.2441111,37.8772222 L38.2546667,37.8551111 L38.2641111,37.8268889 L38.2692222,37.7977778 L38.2692222,37.7295556 L38.2641111,37.7024444 L38.2546667,37.6752222 L38.2441111,37.6522222 L38.2295556,37.6323333 L38.2138889,37.6145556 L38.1971111,37.5967778 L38.1772222,37.5853333 L38.1542222,37.5717778 L38.1322222,37.5644444 L38.1072222,37.555 L38.0842222,37.5497778 L38.057,37.5445556 L38.0318889,37.5424444 L38.0068889,37.5393333 L37.7171111,37.5393333 L37.7171111,37.9597778 L37.9367778,37.9597778 L37.7171111,38.6927778 Z M37.9597778,38.9793333 L38.0068889,38.9793333 L38.0538889,38.9751111 L38.0997778,38.9698889 L38.1448889,38.9625556 L38.1897778,38.9521111 L38.2316667,38.9395556 L38.2745556,38.9248889 L38.3173333,38.9103333 L38.3571111,38.8925556 L38.3967778,38.8726667 L38.4345556,38.8496667 L38.4721111,38.8245556 L38.5067778,38.7994444 L38.5423333,38.7723333 L38.5746667,38.742 L38.604,38.7126667 L38.6342222,38.6803333 L38.6645556,38.6447778 L38.6896667,38.6102222 L38.7147778,38.5725556 L38.7397778,38.5348889 L38.7597778,38.4951111 L38.7796667,38.4522222 L38.7994444,38.4094444 L38.8141111,38.3676667 L38.8297778,38.3225556 L38.8392222,38.2744444 L38.8496667,38.2275556 L38.859,38.1793333 L38.8643333,38.1302222 L38.8674444,38.08 L38.8695556,38.0277778 L38.8674444,37.9775556 L38.8643333,37.9293333 L38.859,37.8823333 L38.8496667,37.8353333 L38.8392222,37.7893333 L38.8297778,37.7443333 L38.8141111,37.6993333 L38.7994444,37.6574444 L38.7796667,37.6178889 L38.7597778,37.577 L38.7397778,37.5372222 L38.7147778,37.4995556 L38.6896667,37.4618889 L38.6645556,37.4274444 L38.6342222,37.3951111 L38.604,37.3626667 L38.5746667,37.3322222 L38.5423333,37.3051111 L38.5067778,37.2767778 L38.4721111,37.2527778 L38.4345556,37.2276667 L38.3967778,37.2046667 L38.3571111,37.1847778 L38.3173333,37.167 L38.2745556,37.1524444 L38.2316667,37.1376667 L38.1897778,37.1252222 L38.1448889,37.1146667 L38.0997778,37.1074444 L38.0538889,37.1022222 L38.0068889,37.097 L37.9115556,37.097 L37.8614444,37.1022222 L37.8143333,37.1074444 L37.7672222,37.1146667 L37.7223333,37.1252222 L37.6774444,37.1376667 L37.6323333,37.1524444 L37.5895556,37.167 L37.5497778,37.1847778 L37.5091111,37.2046667 L37.4693333,37.2276667 L37.4316667,37.2527778 L37.394,37.2767778 L37.3594444,37.3051111 L37.3271111,37.3322222 L37.2945556,37.3626667 L37.2643333,37.3951111 L37.2372222,37.4274444 L37.21,37.4618889 L37.1597778,37.5372222 L37.1366667,37.577 L37.1168889,37.6178889 L37.0991111,37.6574444 L37.0844444,37.6993333 L37.0697778,37.7443333 L37.0573333,37.7893333 L37.0467778,37.8353333 L37.0394444,37.8823333 L37.0343333,37.9293333 L37.029,37.9775556 L37.029,38.08 L37.0343333,38.1302222 L37.0394444,38.1793333 L37.0467778,38.2275556 L37.0573333,38.2744444 L37.0697778,38.3225556 L37.0844444,38.3676667 L37.0991111,38.4094444 L37.1168889,38.4522222 L37.1366667,38.4951111 L37.1597778,38.5348889 L37.21,38.6102222 L37.2372222,38.6447778 L37.2643333,38.6803333 L37.2945556,38.7126667 L37.3271111,38.742 L37.3594444,38.7723333 L37.394,38.7994444 L37.4693333,38.8496667 L37.5091111,38.8726667 L37.5497778,38.8925556 L37.5895556,38.9103333 L37.6323333,38.9248889 L37.6774444,38.9395556 L37.7223333,38.9521111 L37.7672222,38.9625556 L37.8143333,38.9698889 L37.8614444,38.9751111 L37.9115556,38.9793333 L37.9597778,38.9793333 Z M36.8074444,38.0277778 L36.8094444,37.9671111 L36.8146667,37.9095556 L36.8218889,37.8521111 L36.8324444,37.7944444 L36.844,37.7401111 L36.8595556,37.6867778 L36.8773333,37.6345556 L36.8972222,37.5822222 L36.9192222,37.5351111 L36.9443333,37.4871111 L36.9715556,37.44 L37.0018889,37.3951111 L37.0343333,37.3522222 L37.0697778,37.3103333 L37.1043333,37.2695556 L37.1418889,37.2318889 L37.1816667,37.1973333 L37.2245556,37.1617778 L37.2674444,37.1294444 L37.3114444,37.1001111 L37.3594444,37.0717778 L37.4065556,37.0467778 L37.4566667,37.0248889 L37.5091111,37.0018889 L37.5623333,36.982 L37.6145556,36.9673333 L37.669,36.9526667 L37.7265556,36.9402222 L37.782,36.9327778 L37.8415556,36.9244444 L37.8991111,36.9202222 L38.0172222,36.9202222 L38.0716667,36.9244444 L38.1271111,36.9327778 L38.1792222,36.9402222 L38.2347778,36.9526667 L38.287,36.9673333 L38.3372222,36.982 L38.3895556,37.0018889 L38.4397778,37.0248889 L38.4867778,37.0467778 L38.5347778,37.0717778 L38.5798889,37.1001111 L38.6247778,37.1294444 L38.6666667,37.1617778 L38.7095556,37.1973333 L38.7493333,37.2318889 L38.7868889,37.2695556 L38.8245556,37.3103333 L38.857,37.3522222 L38.8894444,37.3951111 L38.9196667,37.44 L38.949,37.4871111 L38.9741111,37.5351111 L38.9972222,37.5822222 L39.0191111,37.6345556 L39.0367778,37.6867778 L39.0515556,37.7401111 L39.0672222,37.7944444 L39.0765556,37.8521111 L39.085,37.9095556 L39.0892222,37.9671111 L39.0892222,38.0894444 L39.085,38.1501111 L39.0765556,38.2097778 L39.0672222,38.2671111 L39.0515556,38.3247778 L39.0367778,38.3801111 L39.0191111,38.4325556 L38.9972222,38.4846667 L38.9741111,38.5348889 L38.949,38.5851111 L38.9196667,38.6321111 L38.8894444,38.6771111 L38.857,38.722 L38.8245556,38.7617778 L38.7868889,38.8046667 L38.7493333,38.8423333 L38.7095556,38.8768889 L38.6666667,38.9124444 L38.6247778,38.9447778 L38.5798889,38.9751111 L38.5347778,39.0044444 L38.4867778,39.0295556 L38.4397778,39.0525556 L38.3895556,39.0745556 L38.3372222,39.0944444 L38.287,39.1101111 L38.2347778,39.1246667 L38.1792222,39.1372222 L38.1271111,39.1445556 L38.0716667,39.1518889 L38.0172222,39.1571111 L37.8991111,39.1571111 L37.8415556,39.1518889 L37.782,39.1445556 L37.7265556,39.1372222 L37.669,39.1246667 L37.6145556,39.1101111 L37.5623333,39.0944444 L37.5091111,39.0745556 L37.4566667,39.0525556 L37.4065556,39.0295556 L37.3594444,39.0044444 L37.3114444,38.9751111 L37.2674444,38.9447778 L37.2245556,38.9124444 L37.1816667,38.8768889 L37.1418889,38.8423333 L37.1043333,38.8046667 L37.0697778,38.7617778 L37.0343333,38.722 L37.0018889,38.6771111 L36.9715556,38.6321111 L36.9443333,38.5851111 L36.9192222,38.5348889 L36.8972222,38.4846667 L36.8773333,38.4325556 L36.8595556,38.3801111 L36.844,38.3247778 L36.8324444,38.2671111 L36.8218889,38.2097778 L36.8146667,38.1501111 L36.8094444,38.0894444 L36.8074444,38.0277778 Z" id="Fill-10" fill="#FFFFFE"></path>
                <path d="M20.3868889,27.4123333 L20.4192222,27.3422222 L20.4475556,27.2753333 L20.4696667,27.2094444 L20.4894444,27.1476667 L20.5071111,27.085 L20.5197778,27.0254444 L20.5323333,26.9677778 L20.5395556,26.9103333 L20.5417778,26.8547778 L20.5447778,26.8026667 L20.5447778,26.7524444 L20.5395556,26.7021111 L20.5344444,26.6551111 L20.527,26.607 L20.5176667,26.5621111 L20.5051111,26.5171111 L20.4894444,26.4753333 L20.4716667,26.4345556 L20.4548889,26.3947778 L20.435,26.355 L20.4141111,26.3194444 L20.3921111,26.2828889 L20.3671111,26.2473333 L20.345,26.2127778 L20.2917778,26.1478889 L20.2374444,26.0852222 L20.1798889,26.0277778 L20.1223333,25.9722222 L14.0046667,19.8545556 L13.9497778,19.7971111 L13.8923333,19.7427778 L13.8297778,19.6873333 L13.7646667,19.6371111 L13.7296667,19.6121111 L13.6948889,19.5901111 L13.6598889,19.5671111 L13.6222222,19.5472222 L13.5822222,19.5294444 L13.5422222,19.5126667 L13.5022222,19.4948889 L13.4596667,19.4823333 L13.4148889,19.4697778 L13.3696667,19.4593333 L13.3246667,19.452 L13.2747778,19.4478889 L13.2247778,19.4425556 L13.1223333,19.4425556 L13.0671111,19.4478889 L13.0096667,19.4552222 L12.9524444,19.4645556 L12.8923333,19.4771111 L12.8297778,19.4928889 L12.7673333,19.5126667 L12.7022222,19.5346667 L12.6347778,19.5596667 L12.5647778,19.5901111 L11.8773333,18.9248889 L12.1345556,18.7198889 L12.3947778,18.5327778 L12.6546667,18.3655556 L12.9196667,18.2127778 L13.1845556,18.0768889 L13.4523333,17.9597778 L13.7197778,17.8593333 L13.9871111,17.7746667 L14.2572222,17.7045556 L14.5296667,17.6522222 L14.7997778,17.6145556 L15.0697778,17.5895556 L15.3398889,17.5822222 L15.6122222,17.5874444 L15.8796667,17.6093333 L16.1497778,17.6428889 L16.4172222,17.69 L16.6821111,17.7526667 L16.9471111,17.8248889 L17.2096667,17.9127778 L17.4697778,18.012 L17.7271111,18.1227778 L17.9822222,18.2452222 L18.2347778,18.3801111 L18.4846667,18.5244444 L18.7296667,18.6824444 L18.9721111,18.8496667 L19.2096667,19.0274444 L19.4446667,19.2146667 L19.6747778,19.4123333 L19.8995556,19.6173333 L20.1223333,19.8326667 L20.3367778,20.0576667 L20.5447778,20.2876667 L20.7425556,20.5197778 L20.9296667,20.757 L21.1074444,20.9996667 L21.2747778,21.2424444 L21.4316667,21.4923333 L21.5791111,21.7422222 L21.7151111,21.9952222 L21.8373333,22.2525556 L21.9492222,22.5128889 L22.0496667,22.7723333 L22.1396667,23.0347778 L22.2148889,23.3003333 L22.2776667,23.5671111 L22.3267778,23.8348889 L22.3624444,24.1025556 L22.3842222,24.3723333 L22.3916667,24.642 L22.3842222,24.913 L22.3644444,25.1827778 L22.3267778,25.4524444 L22.2776667,25.7223333 L22.2097778,25.9922222 L22.125,26.2598889 L22.0266667,26.5275556 L21.9115556,26.7953333 L21.7798889,27.0597778 L21.6293333,27.3223333 L21.462,27.5848889 L21.2767778,27.8421111 L21.0751111,28.1004444 L20.3868889,27.4123333 Z M12.0322222,20.1223333 L12.0023333,20.1923333 L11.9745556,20.2604444 L11.9497778,20.3252222 L11.9298889,20.3901111 L11.9121111,20.4527778 L11.8998889,20.5124444 L11.8873333,20.5698889 L11.8796667,20.6274444 L11.8747778,20.6828889 L11.8747778,20.7895556 L11.8773333,20.8397778 L11.8846667,20.8898889 L11.8923333,20.938 L11.9022222,20.9818889 L11.9147778,21.028 L11.9273333,21.073 L11.9422222,21.1126667 L11.9596667,21.1545556 L11.9798889,21.1953333 L11.9997778,21.233 L12.0198889,21.2695556 L12.0423333,21.3051111 L12.0674444,21.3396667 L12.0923333,21.3752222 L12.1174444,21.4075556 L12.1422222,21.44 L12.1696667,21.4702222 L12.2222222,21.53 L12.2771111,21.5853333 L18.452,27.7375556 L18.5147778,27.795 L18.5772222,27.8494444 L18.6471111,27.8995556 L18.6824444,27.9247778 L18.7171111,27.9498889 L18.7546667,27.9727778 L18.7921111,27.9927778 L18.8321111,28.0125556 L18.8721111,28.0303333 L18.9144444,28.0471111 L18.9571111,28.0596667 L19.0021111,28.0753333 L19.047,28.0847778 L19.0946667,28.092 L19.1422222,28.0972222 L19.1921111,28.1025556 L19.2447778,28.1025556 L19.2972222,28.1004444 L19.3521111,28.0972222 L19.4096667,28.09 L19.4672222,28.0773333 L19.5271111,28.0648889 L19.5897778,28.0471111 L19.6523333,28.0271111 L19.7171111,28.0021111 L19.7848889,27.9748889 L19.8546667,27.9445556 L20.5417778,28.6326667 L20.2844444,28.8345556 L20.0271111,29.0196667 L19.7646667,29.1868889 L19.4996667,29.3374444 L19.2347778,29.4702222 L18.9696667,29.5874444 L18.6995556,29.6877778 L18.4322222,29.7694444 L18.1621111,29.8373333 L17.8896667,29.8896667 L17.6196667,29.9273333 L17.3472222,29.9503333 L17.0773333,29.9576667 L16.8073333,29.9503333 L16.5372222,29.9293333 L16.2672222,29.895 L15.9997778,29.8478889 L15.7322222,29.785 L15.4672222,29.7098889 L15.2046667,29.6251111 L14.9445556,29.5246667 L14.6846667,29.4128889 L14.4297778,29.2904444 L14.1746667,29.1545556 L13.9246667,29.0102222 L13.6771111,28.8523333 L13.4347778,28.6848889 L13.1947778,28.5071111 L12.9574444,28.32 L12.7272222,28.1223333 L12.4996667,27.9173333 L12.2771111,27.6998889 L12.0598889,27.4771111 L11.8548889,27.2502222 L11.6572222,27.0202222 L11.4697778,26.7827778 L11.2922222,26.5422222 L11.125,26.2996667 L10.9673333,26.0528889 L10.8222222,25.8028889 L10.6872222,25.5497778 L10.5646667,25.2925556 L10.4523333,25.0352222 L10.3547778,24.7727778 L10.2672222,24.5103333 L10.1924444,24.2446667 L10.1296667,23.9801111 L10.0823333,23.7123333 L10.0473333,23.4425556 L10.0274444,23.1747778 L10.0195556,22.9051111 L10.0274444,22.6353333 L10.0498889,22.3643333 L10.0873333,22.0947778 L10.1398889,21.8248889 L10.2073333,21.555 L10.2896667,21.2873333 L10.3923333,21.0196667 L10.5072222,20.755 L10.6396667,20.4926667 L10.7897778,20.23 L10.9571111,19.9697778 L11.1422222,19.7123333 L11.3472222,19.4572222 L12.0322222,20.1223333 Z" id="Fill-11" fill="#FFFFFE"></path>
                <polyline id="Fill-12" fill="#FFFFFE" points="33.394 14.6697778 33.3646667 14.6425556 33.3344444 14.6196667 33.302 14.5996667 33.2674444 14.5818889 33.2318889 14.5704444 33.1973333 14.56 33.1617778 14.5526667 33.1242222 14.5475556 33.0865556 14.5475556 33.0467778 14.5495556 33.0091111 14.5578889 32.9715556 14.5653333 32.9317778 14.5746667 32.8941111 14.5903333 32.8575556 14.607 32.8198889 14.6247778 32.7246667 14.6728889 32.64 14.7095556 32.5992222 14.7273333 32.5646667 14.7397778 32.527 14.7524444 32.4946667 14.7627778 32.4622222 14.7702222 32.4318889 14.7775556 32.4015556 14.7796667 32.3724444 14.7827778 32.3441111 14.7827778 32.3168889 14.7796667 32.2917778 14.7775556 32.2646667 14.7702222 32.2395556 14.7627778 32.2143333 14.7524444 32.1872222 14.7397778 32.1621111 14.7252222 32.1348889 14.7074444 32.1067778 14.6896667 32.0794444 14.6677778 32.0522222 14.6447778 31.9915556 14.5924444 31.9268889 14.5297778 31.8567778 14.4627778 31.7772222 14.3821111 25.5948889 8.19977778 25.5173333 8.12022222 25.4472222 8.05011111 25.3845556 7.98744444 25.3322222 7.92788889 25.3092222 7.89955556 25.2873333 7.87244444 25.2517778 7.82222222 25.2372222 7.795 25.2245556 7.77 25.2142222 7.74488889 25.2067778 7.71966667 25.1994444 7.69455556 25.1973333 7.66744444 25.1943333 7.64233333 25.1943333 7.61511111 25.1973333 7.58488889 25.1994444 7.55444444 25.2067778 7.52522222 25.2142222 7.49277778 25.2245556 7.45722222 25.2372222 7.42277778 25.2496667 7.38511111 25.2674444 7.34222222 25.3051111 7.25544444 25.3522222 7.15711111 25.37 7.12044444 25.3865556 7.08288889 25.4023333 7.04522222 25.4117778 7.00544444 25.4201111 6.96777778 25.4243333 6.93022222 25.4274444 6.89044444 25.4274444 6.85277778 25.4222222 6.81522222 25.4117778 6.77966667 25.3992222 6.74511111 25.3845556 6.71055556 25.3667778 6.675 25.3416667 6.64255556 25.3144444 6.61233333 25.2842222 6.583 25.2517778 6.55055556 25.2224444 6.52544444 25.1901111 6.50044444 25.1565556 6.48044444 25.1242222 6.46488889 25.0916667 6.45222222 25.0625556 6.44277778 25.0301111 6.43755556 24.9966667 6.43255556 24.9348889 6.43255556 24.9046667 6.43555556 24.8722222 6.43977778 24.845 6.447 24.8146667 6.45544444 24.7874444 6.46488889 24.732 6.48788889 24.6796667 6.515 24.6347778 6.54222222 24.5918889 6.57044444 24.527 6.61755556 24.4873333 6.64777778 21.3845556 9.74955556 23.9321111 14.47 23.91 14.492 19.0123333 12.1223333 16.0222222 15.1122222 15.9621111 15.1801111 15.8946667 15.2595556 15.8595556 15.3076667 15.8272222 15.3546667 15.8123333 15.382 15.7971111 15.4071111 15.7847778 15.4353333 15.7722222 15.4624444 15.7623333 15.4896667 15.7522222 15.5201111 15.7445556 15.5503333 15.7396667 15.5795556 15.7372222 15.6098889 15.7348889 15.6423333 15.7372222 15.6747778 15.7422222 15.7051111 15.7472222 15.7375556 15.7571111 15.772 15.7696667 15.8055556 15.7871111 15.8401111 15.8073333 15.8724444 15.8295556 15.907 15.8572222 15.9423333 15.8896667 15.977 15.9147778 16.0021111 15.9422222 16.0251111 15.9696667 16.0448889 15.9971111 16.0595556 16.0272222 16.0721111 16.0546667 16.0847778 16.0821111 16.092 16.1095556 16.0972222 16.1372222 16.1004444 16.1646667 16.1025556 16.1921111 16.1004444 16.2195556 16.0972222 16.247 16.092 16.2747778 16.0878889 16.3022222 16.0773333 16.3296667 16.0701111 16.3822222 16.0471111 16.4322222 16.023 16.4797778 15.9927778 16.5273333 15.9623333 16.6122222 15.8995556 16.6873333 15.8451111 16.7246667 15.8095556 16.7621111 15.7824444 16.7997778 15.7626667 16.8371111 15.7448889 16.8747778 15.7323333 16.9147778 15.7248889 16.9547778 15.7228889 16.9947778 15.7228889 17.0347778 15.7271111 17.0773333 15.7323333 17.1197778 15.7427778 17.1623333 15.7522222 17.2546667 15.7752222 17.3521111 15.8002222 17.3997778 15.8148889 17.4496667 15.8273333 17.4972222 15.8451111 17.5422222 15.863 17.6347778 15.8995556 17.7246667 15.9404444 17.8146667 15.9822222 17.9022222 16.0251111 17.9921111 16.067 18.0821111 16.1097778 27.8546667 20.9653333 28.1872222 20.6326667 23.4017778 11.7897778 28.8972222 17.2622222 28.9745556 17.3427778 29.0446667 17.4128889 29.1074444 17.4776667 29.1597778 17.5372222 29.2015556 17.5947778 29.2392222 17.6471111 29.2517778 17.6722222 29.2643333 17.7003333 29.2767778 17.7244444 29.2842222 17.7495556 29.2893333 17.7777778 29.2945556 17.8028889 29.2966667 17.8301111 29.2966667 17.8572222 29.2945556 17.8875556 29.2915556 17.9178889 29.2842222 17.9471111 29.2767778 17.9795556 29.2674444 18.0152222 29.255 18.0496667 29.2392222 18.0872222 29.2245556 18.125 29.1868889 18.2097778 29.1398889 18.3047778 29.1222222 18.3425556 29.1043333 18.3801111 29.0896667 18.4197778 29.0792222 18.4575556 29.0717778 18.4951111 29.0666667 18.5348889 29.0645556 18.5725556 29.0645556 18.6102222 29.0697778 18.6477778 29.0792222 18.6824444 29.0896667 18.7198889 29.1074444 18.7524444 29.1242222 18.7868889 29.1493333 18.8204444 29.1743333 18.8527778 29.2067778 18.88 29.2392222 18.9103333 29.2695556 18.9344444 29.302 18.9573333 29.3344444 18.9751111 29.3667778 18.9897778 29.3971111 19.0023333 29.4294444 19.0096667 29.462 19.0168889 29.4943333 19.0202222 29.5247778 19.0222222 29.5572222 19.0202222 29.5874444 19.0168889 29.6166667 19.0127778 29.647 19.0075556 29.6774444 18.9971111 29.7045556 18.9897778 29.759 18.9677778 29.8091111 18.9426667 29.8572222 18.9176667 29.8991111 18.8904444 29.965 18.8423333 30.0047778 18.8152222 33.3292222 15.4677778 33.3396667 15.4604444 33.3594444 15.4425556 33.3824444 15.4175556 33.4065556 15.3851111 33.4347778 15.3453333 33.462 15.3003333 33.4891111 15.2502222 33.5121111 15.1947778 33.5215556 15.1654444 33.53 15.1352222 33.5372222 15.1047778 33.5424444 15.0723333 33.5445556 15.04 33.5445556 14.9751111 33.5393333 14.9426667 33.5342222 14.9072222 33.5247778 14.8747778 33.5121111 14.8403333 33.4975556 14.8046667 33.4765556 14.7723333 33.4514444 14.7377778 33.4264444 14.7054444 33.394 14.6697778"></polyline>
                <polyline id="Fill-13" fill="#FFFFFE" points="24.1767778 20.8972222 22.1375556 18.88 19.5221111 17.5727778 19.5022222 17.6178889 23.4895556 21.5853333 23.6026667 21.7381111 23.7018889 21.8802222 23.7897778 22.0172222 23.862 22.148 23.9246667 22.2704444 23.977 22.3854444 24.0167778 22.4951111 24.0491111 22.5996667 24.0742222 22.6968889 24.09 22.79 24.0993333 22.8778889 24.1025556 22.9605556 24.0993333 23.038 24.092 23.1122222 24.0814444 23.1823333 24.0701111 23.2502222 24.0522222 23.3128889 24.0345556 23.3725556 24.0167778 23.4301111 23.9968889 23.4854444 23.9791111 23.5398889 23.9644444 23.5901111 23.9518889 23.6402222 23.9424444 23.6873333 23.9341111 23.7353333 23.9341111 23.7824444 23.9373333 23.8295556 23.9466667 23.8744444 23.9644444 23.9226667 23.9895556 23.9697778 24.022 24.0177778 24.067 24.067 24.1025556 24.0972222 24.1368889 24.1223333 24.1725556 24.1454444 24.2091111 24.1621111 24.2446667 24.1746667 24.2824444 24.182 24.32 24.1872222 24.3544444 24.1904444 24.39 24.1872222 24.4266667 24.1851111 24.4622222 24.1777778 24.4967778 24.1673333 24.5323333 24.1548889 24.5668889 24.1401111 24.5992222 24.1223333 24.6347778 24.1044444 24.6641111 24.0847778 24.6974444 24.0648889 24.7267778 24.0448889 24.7571111 24.022 24.8146667 23.9748889 24.8668889 23.9298889 24.9547778 23.8421111 26.3497778 22.447 26.4125556 22.3854444 26.4993333 22.2922222 26.5442222 22.24 26.5924444 22.1825556 26.6123333 22.1521111 26.6342222 22.1197778 26.6541111 22.0872222 26.6738889 22.0548889 26.6917778 22.0224444 26.7095556 21.988 26.7242222 21.9523333 26.7367778 21.9178889 26.7451111 21.8823333 26.7523333 21.8478889 26.7566667 21.8123333 26.7597778 21.7746667 26.7566667 21.7401111 26.7523333 21.7045556 26.7451111 21.67 26.7325556 21.6323333 26.7147778 21.5978889 26.6917778 21.5644444 26.6666667 21.53 26.6373333 21.4954444 26.5892222 21.4524444 26.5423333 21.4201111 26.4973333 21.3951111 26.4523333 21.3773333 26.4073333 21.3678889 26.3624444 21.3646667 26.3173333 21.3646667 26.2692222 21.3721111 26.2222222 21.3824444 26.1741111 21.3951111 26.125 21.4096667 26.0716667 21.4274444 26.0172222 21.4452222 25.9617778 21.463 25.9022222 21.4796667 25.8394444 21.4954444 25.7725556 21.5101111 25.7024444 21.5205556 25.6293333 21.5246667 25.5497778 21.5278889 25.4672222 21.5225556 25.3793333 21.5121111 25.2873333 21.4954444 25.1901111 21.4702222 25.0875556 21.4378889 24.9767778 21.3951111 24.8595556 21.3427778 24.7393333 21.278 24.6096667 21.2025556 24.4716667 21.1146667 24.3273333 21.0123333 24.1767778 20.8972222"></polyline>
                <polyline id="Fill-14" fill="#FFFFFE" points="17.7497778 33.2622222 17.8572222 33.1597778 17.9696667 33.0625556 18.0821111 32.9725556 18.1997778 32.8846667 18.3223333 32.8074444 18.4446667 32.7352222 18.5722222 32.6671111 18.7022222 32.6076667 18.8321111 32.5553333 18.9671111 32.5103333 19.1045556 32.4696667 19.2447778 32.4403333 19.3872222 32.4151111 19.5296667 32.3994444 19.6771111 32.3901111 19.8245556 32.3901111 19.9745556 32.3974444 20.1275556 32.4151111 20.2792222 32.4403333 20.435 32.4726667 20.5918889 32.5145556 20.7497778 32.5646667 20.9097778 32.6253333 21.0697778 32.6923333 21.2297778 32.7727778 21.3918889 32.8595556 21.555 32.958 21.7192222 33.0645556 21.8844444 33.1827778 22.0496667 33.3103333 22.2148889 33.4473333 22.3821111 33.5947778 22.5296667 33.737 22.6666667 33.8802222 22.7942222 34.0277778 22.9124444 34.1772222 23.0202222 34.3277778 23.1174444 34.4826667 23.2042222 34.6373333 23.2815556 34.7921111 23.3495556 34.9501111 23.4071111 35.1101111 23.4572222 35.2668889 23.4991111 35.4268889 23.5325556 35.5868889 23.5544444 35.7448889 23.5722222 35.9048889 23.5774444 36.0595556 23.5774444 36.2175556 23.5691111 36.3723333 23.5524444 36.525 23.5273333 36.6745556 23.4971111 36.8252222 23.4572222 36.9694444 23.4123333 37.1146667 23.36 37.2548889 23.2993333 37.3897778 23.2344444 37.5246667 23.1623333 37.6522222 23.085 37.7777778 22.9992222 37.897 22.9093333 38.012 22.8141111 38.1218889 22.7147778 38.2275556 22.3372222 37.8498889 22.3676667 37.8071111 22.3947778 37.7652222 22.4197778 37.7223333 22.4397778 37.6794444 22.4544444 37.6376667 22.4668889 37.5967778 22.4774444 37.555 22.4816667 37.5143333 22.4846667 37.4745556 22.4867778 37.4368889 22.4846667 37.3971111 22.4794444 37.3594444 22.4721111 37.3217778 22.4616667 37.2852222 22.4491111 37.2496667 22.4375556 37.212 22.422 37.1775556 22.4042222 37.1452222 22.3842222 37.1095556 22.3644444 37.0771111 22.3216667 37.0144444 22.2745556 36.9526667 22.2243333 36.8952222 22.1741111 36.8397778 22.1218889 36.7895556 22.0716667 36.7425556 19.2572222 33.9043333 19.2046667 33.8593333 19.1521111 33.8102222 19.0946667 33.7621111 19.0347778 33.7151111 18.9721111 33.67 18.9072222 33.6272222 18.8721111 33.6093333 18.8397778 33.5895556 18.8046667 33.575 18.7696667 33.5602222 18.7346667 33.5477778 18.6972222 33.5351111 18.6622222 33.5278889 18.6247778 33.5194444 18.5872222 33.5153333 18.5497778 33.5121111 18.5095556 33.5121111 18.4722222 33.5173333 18.4322222 33.5225556 18.3922222 33.5321111 18.3521111 33.5445556 18.3122222 33.5602222 18.2722222 33.5802222 18.2321111 33.6052222 18.1897778 33.6293333 18.1497778 33.6627778 17.7497778 33.2622222"></polyline>
                <path d="M26.857,33.3302222 L26.8998889,33.2726667 L26.9395556,33.2152222 L26.9773333,33.1576667 L27.015,33.097 L27.0473333,33.0352222 L27.0765556,32.9745556 L27.1047778,32.9118889 L27.132,32.847 L27.1551111,32.7853333 L27.1771111,32.7195556 L27.1947778,32.6546667 L27.2094444,32.5876667 L27.2241111,32.5228889 L27.2376667,32.4548889 L27.245,32.3868889 L27.2523333,32.3168889 L27.2543333,32.2498889 L27.2574444,32.182 L27.2543333,32.112 L27.2523333,32.0448889 L27.2471111,31.9748889 L27.2376667,31.907 L27.2272222,31.8368889 L27.2125556,31.7678889 L27.1967778,31.6998889 L27.179,31.6298889 L27.1571111,31.5617778 L27.1341111,31.4948889 L27.1068889,31.4247778 L27.0797778,31.358 L27.0473333,31.292 L27.0116667,31.2251111 L27.0023333,31.1728889 L26.9866667,31.1226667 L26.9741111,31.0703333 L26.9625556,31.0168889 L26.9595556,30.9897778 L26.9595556,30.9395556 L26.9625556,30.9144444 L26.9698889,30.8925556 L26.9793333,30.8695556 L26.9951111,30.8475556 L27.0116667,30.8245556 L27.0347778,30.8046667 L27.0545556,30.79 L27.0745556,30.7744444 L27.0944444,30.7627778 L27.1142222,30.7524444 L27.1341111,30.742 L27.1551111,30.7377778 L27.1717778,30.7325556 L27.1916667,30.7294444 L27.245,30.7294444 L27.2773333,30.7377778 L27.3098889,30.7472222 L27.337,30.7627778 L27.3642222,30.7775556 L27.3871111,30.7953333 L27.4092222,30.812 L27.427,30.8297778 L27.4394444,30.8445556 L27.45,30.8601111 L27.4572222,30.8695556 L28.7644444,32.1777778 L27.2574444,33.7077778 L26.857,33.3302222 L24.5092222,30.9573333 L24.527,30.9248889 L24.5417778,30.8925556 L24.5574444,30.857 L24.5698889,30.8245556 L24.5794444,30.7921111 L24.5866667,30.7575556 L24.595,30.7252222 L24.5992222,30.6896667 L24.6044444,30.6572222 L24.6065556,30.6226667 L24.6065556,30.5547778 L24.6024444,30.4878889 L24.5918889,30.4197778 L24.5772222,30.355 L24.5574444,30.2901111 L24.5344444,30.2253333 L24.5092222,30.1594444 L24.4798889,30.0977778 L24.4475556,30.0371111 L24.412,29.9744444 L24.3774444,29.9168889 L24.3524444,29.8593333 L24.3294444,29.805 L24.32,29.7777778 L24.3117778,29.7495556 L24.3042222,29.7223333 L24.3022222,29.6952222 L24.299,29.667 L24.299,29.6428889 L24.3042222,29.6145556 L24.3095556,29.5874444 L24.322,29.5602222 L24.3346667,29.53 L24.3544444,29.5027778 L24.3774444,29.4724444 L24.3942222,29.4577778 L24.412,29.4421111 L24.4318889,29.4295556 L24.4496667,29.4201111 L24.4696667,29.4128889 L24.4873333,29.4075556 L24.5052222,29.4023333 L24.525,29.4003333 L24.5417778,29.4003333 L24.5594444,29.4023333 L24.5772222,29.4044444 L24.5918889,29.4096667 L24.6274444,29.4222222 L24.6597778,29.4378889 L24.6891111,29.4577778 L24.7174444,29.4776667 L24.7445556,29.4995556 L24.7696667,29.5194444 L24.8094444,29.5602222 L24.8417778,29.5853333 L26.2818889,31.0254444 L26.307,31.0546667 L26.3466667,31.0975556 L26.3665556,31.1226667 L26.3895556,31.1497778 L26.4095556,31.177 L26.4292222,31.2073333 L26.4448889,31.2396667 L26.4575556,31.2722222 L26.4616667,31.2898889 L26.4648889,31.3076667 L26.4648889,31.36 L26.4596667,31.3798889 L26.4544444,31.3975556 L26.447,31.4153333 L26.4375556,31.4353333 L26.424,31.452 L26.4095556,31.4718889 L26.3916667,31.4896667 L26.3665556,31.5126667 L26.3425556,31.5325556 L26.3142222,31.5451111 L26.2892222,31.5544444 L26.2618889,31.5617778 L26.2347778,31.5671111 L26.2064444,31.5671111 L26.1792222,31.565 L26.1491111,31.5596667 L26.1218889,31.5544444 L26.0946667,31.5472222 L26.0643333,31.5377778 L26.0068889,31.5147778 L25.9492222,31.4896667 L25.895,31.4552222 L25.8373333,31.4195556 L25.7766667,31.3872222 L25.7151111,31.358 L25.6522222,31.3328889 L25.5874444,31.3076667 L25.5194444,31.2898889 L25.4546667,31.2753333 L25.4201111,31.2701111 L25.3845556,31.2647778 L25.3522222,31.2626667 L25.3166667,31.2595556 L25.2496667,31.2595556 L25.2142222,31.2626667 L25.1795556,31.2647778 L25.1451111,31.2722222 L25.1116667,31.2795556 L25.0771111,31.2878889 L25.0415556,31.2973333 L25.0091111,31.3097778 L24.9745556,31.3244444 L24.9422222,31.3402222 L24.9066667,31.358 L24.5092222,30.9573333 L26.857,33.3302222 Z M22.2724444,28.7425556 L23.7542222,27.2574444 L25.1074444,28.6096667 L25.1273333,28.6295556 L25.1472222,28.6597778 L25.1565556,28.6776667 L25.165,28.6943333 L25.1723333,28.7174444 L25.1775556,28.7404444 L25.1775556,28.7895556 L25.1691111,28.8198889 L25.1597778,28.8502222 L25.1451111,28.8825556 L25.1242222,28.915 L25.097,28.9495556 L25.0625556,28.9851111 L25.0415556,29.0048889 L25.0216667,29.0196667 L24.9996667,29.0322222 L24.9797778,29.0426667 L24.9567778,29.0498889 L24.937,29.052 L24.915,29.0552222 L24.8952222,29.052 L24.8722222,29.0498889 L24.8491111,29.0446667 L24.8272222,29.0374444 L24.8041111,29.0301111 L24.7571111,29.0102222 L24.7101111,28.9851111 L24.6441111,28.9526667 L24.5794444,28.9202222 L24.5145556,28.8898889 L24.4496667,28.8647778 L24.3868889,28.8397778 L24.322,28.8176667 L24.2571111,28.7978889 L24.1945556,28.7801111 L24.1296667,28.7645556 L24.0648889,28.7518889 L24,28.7425556 L23.9373333,28.7352222 L23.8724444,28.7298889 L23.8096667,28.7277778 L23.68,28.7277778 L23.6172222,28.732 L23.5524444,28.7404444 L23.4895556,28.7497778 L23.4248889,28.7623333 L23.3621111,28.7801111 L23.2993333,28.7978889 L23.2344444,28.8176667 L23.1717778,28.8397778 L23.1101111,28.8647778 L23.0442222,28.892 L22.9825556,28.9244444 L22.9196667,28.958 L22.857,28.9945556 L22.7942222,29.0322222 L22.7325556,29.0751111 L22.6697778,29.12 L22.2724444,28.7425556 Z M20.2321111,30.7796667 L21.9817778,29.052 L26.9468889,33.9952222 L25.1973333,35.7678889 L25.1795556,35.7772222 L25.1451111,35.8002222 L25.1242222,35.8117778 L25.0991111,35.8273333 L25.0697778,35.8421111 L25.0415556,35.8545556 L25.0091111,35.8672222 L24.9745556,35.8744444 L24.9567778,35.8776667 L24.939,35.8797778 L24.9024444,35.8797778 L24.8846667,35.8776667 L24.8647778,35.8724444 L24.847,35.8672222 L24.8272222,35.8598889 L24.8094444,35.8525556 L24.7894444,35.8401111 L24.7717778,35.8273333 L24.7518889,35.8117778 L24.732,35.7897778 L24.7174444,35.77 L24.7016667,35.7501111 L24.6891111,35.7271111 L24.6796667,35.7072222 L24.6724444,35.6873333 L24.6672222,35.6674444 L24.6641111,35.6444444 L24.6618889,35.6245556 L24.6641111,35.6046667 L24.6672222,35.5827778 L24.6724444,35.5617778 L24.6776667,35.542 L24.6871111,35.5201111 L24.6974444,35.5001111 L24.7101111,35.4802222 L24.7393333,35.4247778 L24.7644444,35.3745556 L24.7822222,35.3328889 L24.7968889,35.292 L24.8041111,35.2574444 L24.8094444,35.2251111 L24.8074444,35.2073333 L24.8074444,35.1925556 L24.8041111,35.177 L24.8,35.1623333 L24.7874444,35.1352222 L24.7717778,35.1047778 L24.7497778,35.0745556 L24.7246667,35.042 L24.6597778,34.9698889 L24.5741111,34.88 L21.097,31.4017778 L21.0144444,31.3202222 L20.9474444,31.2574444 L20.9172222,31.2324444 L20.89,31.2125556 L20.8595556,31.1978889 L20.8324444,31.1853333 L20.8041111,31.1801111 L20.7748889,31.177 L20.7425556,31.1823333 L20.7068889,31.1895556 L20.6672222,31.2021111 L20.6243333,31.2198889 L20.5752222,31.243 L20.5197778,31.2668889 L20.4998889,31.2795556 L20.4798889,31.2898889 L20.457,31.3003333 L20.4371111,31.3045556 L20.4172222,31.3118889 L20.3974444,31.3151111 L20.3774444,31.3171111 L20.3576667,31.3151111 L20.3367778,31.3151111 L20.3168889,31.3097778 L20.3001111,31.3045556 L20.2792222,31.2973333 L20.2624444,31.2878889 L20.2446667,31.2753333 L20.2268889,31.2626667 L20.2102222,31.2471111 L20.1892222,31.2303333 L20.1725556,31.2125556 L20.1598889,31.1947778 L20.1474444,31.177 L20.1348889,31.1602222 L20.1275556,31.1424444 L20.1223333,31.1226667 L20.1171111,31.1047778 L20.115,31.087 L20.1118889,31.0703333 L20.1118889,31.0525556 L20.115,31.0326667 L20.1192222,30.9971111 L20.1296667,30.9647778 L20.1421111,30.9323333 L20.1568889,30.9018889 L20.1725556,30.8726667 L20.1872222,30.8475556 L20.2143333,30.8078889 L20.2321111,30.7796667 Z" id="Fill-15" fill="#FFFFFE"></path>
                <path d="M25.1524444,27.3673333 L25.0697778,27.2878889 L24.9996667,27.2218889 L24.9673333,27.1978889 L24.937,27.177 L24.9066667,27.1623333 L24.8773333,27.1518889 L24.847,27.1476667 L24.8146667,27.1445556 L24.7791111,27.1497778 L24.7445556,27.1571111 L24.7016667,27.1696667 L24.6566667,27.1875556 L24.6065556,27.2094444 L24.5542222,27.2344444 L24.5323333,27.2471111 L24.5124444,27.2574444 L24.4925556,27.2647778 L24.4696667,27.2722222 L24.4496667,27.2773333 L24.4297778,27.2825556 L24.39,27.2825556 L24.3691111,27.2804444 L24.3493333,27.2773333 L24.3314444,27.2722222 L24.3117778,27.2626667 L24.2948889,27.2554444 L24.2771111,27.243 L24.2593333,27.2303333 L24.2415556,27.2125556 L24.2247778,27.1947778 L24.2091111,27.1747778 L24.1966667,27.1571111 L24.185,27.1372222 L24.1767778,27.1174444 L24.1693333,27.0975556 L24.1642222,27.0797778 L24.1598889,27.0597778 L24.1568889,27.04 L24.1568889,26.9845556 L24.1642222,26.948 L24.1746667,26.9144444 L24.1872222,26.882 L24.2017778,26.8527778 L24.2175556,26.8245556 L24.2342222,26.8026667 L24.2498889,26.7827778 L24.2646667,26.765 L24.2771111,26.7545556 L24.2876667,26.7472222 L26.0172222,24.9976667 L30.332,29.3124444 L30.402,29.3752222 L30.4324444,29.4003333 L30.4616667,29.4201111 L30.492,29.4346667 L30.5223333,29.4452222 L30.537,29.4494444 L30.5516667,29.4524444 L30.5841111,29.4524444 L30.6195556,29.4494444 L30.6573333,29.4421111 L30.6968889,29.4295556 L30.742,29.4128889 L30.7922222,29.3897778 L30.8475556,29.3626667 L30.8643333,29.3522222 L30.8821111,29.3427778 L30.8998889,29.3322222 L30.9196667,29.325 L30.9395556,29.3196667 L30.9595556,29.3175556 L30.9825556,29.3145556 L31.0023333,29.3145556 L31.0222222,29.3175556 L31.0421111,29.3228889 L31.064,29.3271111 L31.085,29.3344444 L31.1016667,29.3448889 L31.1215556,29.3552222 L31.1393333,29.37 L31.1571111,29.3845556 L31.1748889,29.4044444 L31.1895556,29.4222222 L31.2021111,29.4421111 L31.2114444,29.46 L31.222,29.4796667 L31.2292222,29.4975556 L31.2344444,29.5173333 L31.2366667,29.5351111 L31.2396667,29.555 L31.2396667,29.5895556 L31.2366667,29.6073333 L31.2292222,29.6396667 L31.2166667,29.6722222 L31.2042222,29.7024444 L31.1895556,29.7295556 L31.1717778,29.7547778 L31.1571111,29.7777778 L31.13,29.8102222 L31.1122222,29.8268889 L29.2297778,31.7123333 L29.2142222,31.7248889 L29.1848889,31.747 L29.1671111,31.7573333 L29.144,31.7678889 L29.1222222,31.7772222 L29.097,31.7877778 L29.0666667,31.792 L29.0374444,31.795 L29.007,31.795 L28.9745556,31.7897778 L28.9567778,31.7845556 L28.939,31.7793333 L28.9223333,31.772 L28.9046667,31.7646667 L28.8846667,31.7522222 L28.8668889,31.7427778 L28.8491111,31.7271111 L28.8293333,31.7123333 L28.8,31.6727778 L28.7768889,31.6328889 L28.7665556,31.6121111 L28.7592222,31.5952222 L28.7551111,31.5744444 L28.7497778,31.5576667 L28.7467778,31.5377778 L28.7467778,31.5201111 L28.7497778,31.5001111 L28.7518889,31.4823333 L28.7571111,31.4624444 L28.7644444,31.4425556 L28.7748889,31.4227778 L28.7874444,31.4017778 L28.8167778,31.3474444 L28.8397778,31.3003333 L28.8575556,31.2574444 L28.8701111,31.2177778 L28.8742222,31.2021111 L28.8773333,31.1853333 L28.8794444,31.1696667 L28.8794444,31.1551111 L28.8773333,31.1404444 L28.8742222,31.1267778 L28.8722222,31.1122222 L28.8668889,31.0995556 L28.8523333,31.0745556 L28.8345556,31.0473333 L28.8094444,31.0222222 L28.7822222,30.9918889 L28.7142222,30.927 L28.6316667,30.8475556 L25.1524444,27.3673333 Z M26.3267778,24.7101111 L26.4397778,24.5928889 L26.5516667,24.4821111 L26.6573333,24.3826667 L26.7617778,24.2876667 L26.8623333,24.1997778 L26.9625556,24.1171111 L27.0598889,24.0448889 L27.1551111,23.9748889 L27.2471111,23.9121111 L27.3422222,23.8545556 L27.4342222,23.8055556 L27.5273333,23.7594444 L27.6172222,23.7176667 L27.7123333,23.6821111 L27.8044444,23.6496667 L27.8996667,23.6225556 L27.9717778,23.6046667 L28.0418889,23.5901111 L28.115,23.5795556 L28.182,23.5702222 L28.2521111,23.5628889 L28.32,23.5576667 L28.3868889,23.5544444 L28.4548889,23.5544444 L28.5197778,23.5576667 L28.5846667,23.5628889 L28.6494444,23.5702222 L28.7122222,23.5795556 L28.7748889,23.5921111 L28.8365556,23.6078889 L28.8994444,23.6245556 L28.959,23.6423333 L29.0196667,23.6653333 L29.0792222,23.6873333 L29.1398889,23.7145556 L29.1994444,23.7427778 L29.257,23.772 L29.3144444,23.8055556 L29.3721111,23.8401111 L29.4294444,23.8744444 L29.485,23.9152222 L29.5424444,23.9551111 L29.5968889,24 L29.6522222,24.0428889 L29.7065556,24.09 L29.7621111,24.1401111 L29.8164444,24.1904444 L29.872,24.2426667 L29.9221111,24.2948889 L29.967,24.3471111 L30.0141111,24.4026667 L30.057,24.4548889 L30.0997778,24.5103333 L30.1416667,24.5625556 L30.1792222,24.617 L30.217,24.6724444 L30.2514444,24.7298889 L30.287,24.7874444 L30.3173333,24.8428889 L30.3466667,24.9004444 L30.3748889,24.96 L30.4,25.0174444 L30.424,25.0771111 L30.4448889,25.1376667 L30.4648889,25.1994444 L30.4816667,25.2622222 L30.4973333,25.325 L30.5097778,25.3876667 L30.5192222,25.4524444 L30.5265556,25.5173333 L30.5317778,25.5822222 L30.5347778,25.6502222 L30.537,25.7171111 L30.5347778,25.785 L30.5296667,25.8551111 L30.5223333,25.9252222 L30.515,25.9974444 L30.5014444,26.0695556 L30.4867778,26.1427778 L30.469,26.215 L30.4418889,26.307 L30.4125556,26.3978889 L30.3748889,26.4878889 L30.3341111,26.5777778 L30.2892222,26.6676667 L30.24,26.7575556 L30.1825556,26.8496667 L30.1218889,26.9426667 L30.0548889,27.038 L29.9796667,27.132 L29.9022222,27.2303333 L29.8143333,27.3328889 L29.7244444,27.4353333 L29.6241111,27.542 L29.5194444,27.6528889 L29.4065556,27.7678889 L29.007,27.3903333 L29.0374444,27.3453333 L29.0625556,27.3025556 L29.0844444,27.2595556 L29.1043333,27.2177778 L29.1222222,27.1747778 L29.1346667,27.1352222 L29.144,27.0975556 L29.1524444,27.0597778 L29.1565556,27.0222222 L29.1597778,26.9845556 L29.1597778,26.9501111 L29.1565556,26.9144444 L29.1524444,26.88 L29.144,26.8475556 L29.1346667,26.8152222 L29.1242222,26.7796667 L29.1095556,26.7503333 L29.0948889,26.7168889 L29.0771111,26.6875556 L29.0593333,26.6572222 L29.0164444,26.5945556 L28.9694444,26.537 L28.9172222,26.4774444 L28.8616667,26.4197778 L28.8021111,26.3623333 L28.7425556,26.3047778 L27.7448889,25.3072222 L27.6893333,25.2496667 L27.6351111,25.1973333 L27.5774444,25.1452222 L27.52,25.097 L27.4895556,25.0771111 L27.4593333,25.0573333 L27.4301111,25.0374444 L27.3997778,25.0196667 L27.3694444,25.0028889 L27.3391111,24.9872222 L27.3066667,24.9745556 L27.2773333,24.9653333 L27.245,24.9547778 L27.2125556,24.9474444 L27.179,24.9422222 L27.1466667,24.938 L27.0797778,24.938 L27.0473333,24.9402222 L27.0116667,24.9453333 L26.9773333,24.9547778 L26.9417778,24.9653333 L26.9072222,24.9777778 L26.8716667,24.9945556 L26.8351111,25.0123333 L26.7994444,25.0352222 L26.7617778,25.0573333 L26.7242222,25.0844444 L26.3267778,24.7101111 Z" id="Fill-16" fill="#FFFFFE"></path>
                <path d="M35.2114444,25.1524444 L35.2292222,25.1126667 L35.2438889,25.0751111 L35.2595556,25.0394444 L35.2721111,25.0028889 L35.2815556,24.9704444 L35.2898889,24.9348889 L35.2941111,24.9024444 L35.2993333,24.8721111 L35.3045556,24.8397778 L35.3045556,24.755 L35.3014444,24.7277778 L35.2973333,24.7026667 L35.2921111,24.6745556 L35.2867778,24.6494444 L35.2721111,24.6024444 L35.2523333,24.5595556 L35.2292222,24.5176667 L35.2021111,24.4778889 L35.1748889,24.4371111 L35.1445556,24.4026667 L35.1122222,24.3671111 L35.0797778,24.3325556 L31.6444444,20.8972222 L31.5764444,20.8397778 L31.5043333,20.7822222 L31.4645556,20.757 L31.4248889,20.7352222 L31.382,20.7153333 L31.337,20.6974444 L31.315,20.6923333 L31.2898889,20.6848889 L31.2648889,20.6828889 L31.2366667,20.6776667 L31.2094444,20.6776667 L31.1822222,20.6745556 L31.1551111,20.6776667 L31.1246667,20.6796667 L31.0923333,20.6848889 L31.062,20.6902222 L31.0295556,20.6974444 L30.9938889,20.708 L30.9595556,20.7174444 L30.9217778,20.732 L30.8841111,20.7476667 L30.8475556,20.7644444 L30.447,20.3878889 L30.5924444,20.2728889 L30.7367778,20.1673333 L30.8841111,20.0721111 L31.0316667,19.9874444 L31.1822222,19.9121111 L31.3316667,19.8451111 L31.4823333,19.7897778 L31.632,19.7427778 L31.7845556,19.702 L31.9373333,19.6727778 L32.0867778,19.6528889 L32.2395556,19.6402222 L32.3921111,19.6351111 L32.5447778,19.6402222 L32.6944444,19.6496667 L32.847,19.6694444 L32.9966667,19.6977778 L33.1472222,19.7323333 L33.2945556,19.7752222 L33.4421111,19.8222222 L33.5895556,19.8797778 L33.7348889,19.9404444 L33.8771111,20.0105556 L34.0193333,20.0847778 L34.1595556,20.1673333 L34.2964444,20.2551111 L34.4345556,20.3471111 L34.5673333,20.4475556 L34.6991111,20.5521111 L34.8297778,20.6631111 L34.9543333,20.7781111 L35.0797778,20.8972222 L35.2021111,21.0226667 L35.3192222,21.1524444 L35.429,21.2821111 L35.5366667,21.4148889 L35.6371111,21.5497778 L35.7323333,21.6877778 L35.8221111,21.8278889 L35.9048889,21.9671111 L35.9791111,22.1103333 L36.0491111,22.2525556 L36.114,22.3978889 L36.1714444,22.5453333 L36.2196667,22.6927778 L36.2614444,22.8403333 L36.297,22.9897778 L36.3273333,23.1372222 L36.3471111,23.2898889 L36.3566667,23.4394444 L36.3618889,23.5921111 L36.3596667,23.7427778 L36.3471111,23.8955556 L36.3242222,24.0448889 L36.2948889,24.1976667 L36.2571111,24.3471111 L36.2091111,24.4976667 L36.1516667,24.6473333 L36.0867778,24.7978889 L36.0115556,24.9453333 L35.9268889,25.0927778 L35.8315556,25.2402222 L35.7271111,25.3845556 L35.6121111,25.53 L35.2114444,25.1524444 Z M30.537,21.0531111 L30.5014444,21.1324444 L30.4898889,21.1723333 L30.4774444,21.21 L30.4668889,21.2454444 L30.4596667,21.2801111 L30.4523333,21.3124444 L30.4491111,21.3448889 L30.4448889,21.3773333 L30.4418889,21.4075556 L30.4418889,21.4378889 L30.4448889,21.4672222 L30.447,21.4954444 L30.4491111,21.5205556 L30.4544444,21.5445556 L30.4616667,21.5696667 L30.469,21.5947778 L30.4774444,21.6178889 L30.4867778,21.6396667 L30.4973333,21.6627778 L30.5192222,21.7024444 L30.5475556,21.7422222 L30.5746667,21.7777778 L30.6048889,21.8102222 L30.6373333,21.8426667 L30.6697778,21.8728889 L34.1271111,25.3072222 L34.1574444,25.3396667 L34.1867778,25.3721111 L34.2222222,25.4054444 L34.2567778,25.4346667 L34.2943333,25.463 L34.3372222,25.4871111 L34.3791111,25.5101111 L34.424,25.5278889 L34.4491111,25.5351111 L34.4742222,25.5403333 L34.5014444,25.5445556 L34.5265556,25.5477778 L34.5547778,25.5497778 L34.6143333,25.5497778 L34.6447778,25.5477778 L34.6738889,25.5424444 L34.7074444,25.5372222 L34.742,25.53 L34.7744444,25.5194444 L34.812,25.5101111 L34.8465556,25.4954444 L34.8841111,25.4796667 L34.925,25.463 L35.3244444,25.8394444 L35.1771111,25.9544444 L35.0295556,26.0601111 L34.8821111,26.1552222 L34.7315556,26.24 L34.5798889,26.3153333 L34.4292222,26.3821111 L34.2766667,26.4375556 L34.125,26.4846667 L33.9722222,26.5244444 L33.8196667,26.5547778 L33.667,26.5746667 L33.5142222,26.5871111 L33.3594444,26.5924444 L33.2067778,26.5871111 L33.0573333,26.5777778 L32.9046667,26.5578889 L32.754,26.5297778 L32.6044444,26.4951111 L32.4548889,26.4522222 L32.3075556,26.4052222 L32.1621111,26.3497778 L32.0146667,26.2871111 L31.8724444,26.217 L31.7292222,26.1427778 L31.5901111,26.0601111 L31.452,25.9722222 L31.315,25.8802222 L31.1822222,25.78 L31.0493333,25.6752222 L30.9196667,25.5644444 L30.7942222,25.4494444 L30.6697778,25.3302222 L30.5475556,25.2046667 L30.4292222,25.0751111 L30.3195556,24.9453333 L30.2117778,24.8104444 L30.1125556,24.6745556 L30.0193333,24.5375556 L29.9293333,24.3974444 L29.8468889,24.2572222 L29.7725556,24.115 L29.7024444,23.9697778 L29.6397778,23.8222222 L29.5843333,23.6747778 L29.5342222,23.5273333 L29.4923333,23.3777778 L29.46,23.2272222 L29.4316667,23.0775556 L29.4117778,22.927 L29.3992222,22.7754444 L29.3971111,22.6226667 L29.3992222,22.47 L29.4117778,22.3173333 L29.4347778,22.1646667 L29.462,22.012 L29.5016667,21.8624444 L29.5466667,21.7098889 L29.6042222,21.5602222 L29.669,21.4096667 L29.7422222,21.2602222 L29.8268889,21.1126667 L29.9221111,20.9653333 L30.0246667,20.8198889 L30.1375556,20.6745556 L30.537,21.0531111 Z" id="Fill-17" fill="#FFFFFE"></path>
                <path d="M3.61255556,16.3095556 L4.49722222,15.4247778 L4.85222222,15.7772222 L4.845,15.8295556 L4.84233333,15.8828889 L4.83977778,15.9321111 L4.83744444,15.9853333 L4.83977778,16.0345556 L4.845,16.0847778 L4.84988889,16.1348889 L4.85722222,16.1851111 L4.86722222,16.2321111 L4.87733333,16.2823333 L4.88988889,16.3305556 L4.90488889,16.3774444 L4.91966667,16.4245556 L4.93722222,16.4726667 L4.955,16.5197778 L4.97488889,16.5646667 L5.01744444,16.6546667 L5.05988889,16.7445556 L5.10977778,16.8303333 L5.15744444,16.913 L5.20988889,16.9945556 L5.25988889,17.073 L5.31233333,17.1472222 L5.36233333,17.2203333 L5.405,17.2801111 L5.44466667,17.3427778 L5.46255556,17.3752222 L5.48,17.4096667 L5.49488889,17.4421111 L5.50744444,17.4776667 L5.51477778,17.5101111 L5.51977778,17.5445556 L5.52233333,17.5802222 L5.51733333,17.6145556 L5.51477778,17.6323333 L5.50977778,17.6502222 L5.50488889,17.667 L5.49722222,17.6826667 L5.48733333,17.7003333 L5.47733333,17.7171111 L5.46488889,17.7348889 L5.45233333,17.7495556 L5.43244444,17.7672222 L5.41488889,17.785 L5.39477778,17.7977778 L5.37722222,17.8102222 L5.35977778,17.8195556 L5.34244444,17.8301111 L5.32488889,17.8353333 L5.30744444,17.8426667 L5.27477778,17.8498889 L5.24233333,17.852 L5.21233333,17.8498889 L5.18488889,17.8447778 L5.15977778,17.8373333 L5.13488889,17.8268889 L5.11477778,17.8174444 L5.09488889,17.8071111 L5.06744444,17.7872222 L5.05233333,17.7724444 L3.61255556,16.3095556 Z M8.95244444,13.895 L8.95966667,13.9095556 L8.97488889,13.9377778 L8.98244444,13.9576667 L8.99211111,13.9775556 L8.99977778,13.9994444 L9.00733333,14.0245556 L9.01233333,14.0528889 L9.01488889,14.08 L9.01488889,14.1103333 L9.00988889,14.1396667 L8.99744444,14.172 L8.98244444,14.2055556 L8.97222222,14.2222222 L8.95966667,14.2378889 L8.94711111,14.2546667 L8.92988889,14.2724444 L8.91477778,14.287 L8.89755556,14.3027778 L8.87966667,14.3153333 L8.86222222,14.3247778 L8.845,14.332 L8.82722222,14.3403333 L8.81222222,14.3477778 L8.79477778,14.3528889 L8.77722222,14.355 L8.76,14.3571111 L8.72466667,14.3571111 L8.68966667,14.355 L8.65722222,14.3477778 L8.62244444,14.3351111 L8.58744444,14.3225556 L8.55477778,14.3047778 L8.52233333,14.287 L8.45988889,14.2473333 L8.39977778,14.2055556 L8.24477778,14.103 L8.08233333,13.9994444 L7.99977778,13.9523333 L7.91244444,13.9022222 L7.82488889,13.8603333 L7.73722222,13.8174444 L7.64466667,13.78 L7.55244444,13.7474444 L7.50477778,13.7328889 L7.45722222,13.7202222 L7.40988889,13.7098889 L7.36,13.7003333 L7.31233333,13.6921111 L7.26222222,13.6877778 L7.21233333,13.6826667 L7.16233333,13.6805556 L7.11244444,13.6805556 L7.06222222,13.6826667 L7.00966667,13.6877778 L6.95744444,13.6952222 L6.58244444,13.3175556 L7.49,12.4328889 L8.95244444,13.895 Z M4.78744444,15.1352222 L6.31477778,13.6073333 L10.2823333,17.5727778 L10.3573333,17.6553333 L10.4198889,17.7202222 L10.4473333,17.7453333 L10.4723333,17.7652222 L10.4997778,17.78 L10.525,17.7902222 L10.5398889,17.7924444 L10.5524444,17.7944444 L10.5673333,17.7977778 L10.5822222,17.7977778 L10.6148889,17.7924444 L10.6496667,17.785 L10.6898889,17.7724444 L10.7322222,17.7547778 L10.7822222,17.7328889 L10.8374444,17.7077778 L10.8522222,17.6952222 L10.8698889,17.6846667 L10.8873333,17.6774444 L10.9074444,17.67 L10.9246667,17.6648889 L10.9422222,17.6627778 L10.9795556,17.6627778 L10.9997778,17.6648889 L11.0173333,17.67 L11.0347778,17.6774444 L11.0548889,17.6877778 L11.0724444,17.7003333 L11.0896667,17.7151111 L11.1071111,17.7328889 L11.125,17.7495556 L11.1398889,17.7652222 L11.1521111,17.78 L11.1646667,17.7977778 L11.1746667,17.8123333 L11.1822222,17.8301111 L11.1897778,17.8447778 L11.1947778,17.8624444 L11.1997778,17.8772222 L11.2023333,17.9127778 L11.1997778,17.9451111 L11.1947778,17.9775556 L11.1874444,18.0077778 L11.1772222,18.0371111 L11.1646667,18.0654444 L11.1521111,18.0872222 L11.1398889,18.1103333 L11.1273333,18.1271111 L11.1171111,18.1396667 L11.1071111,18.148 L11.1024444,18.1501111 L9.32966667,19.9226667 L9.31233333,19.9373333 L9.27977778,19.9654444 L9.25722222,19.978 L9.23244444,19.9927778 L9.20733333,20.0072222 L9.17722222,20.0198889 L9.14488889,20.0302222 L9.11244444,20.0376667 L9.09722222,20.0397778 L9.06222222,20.0397778 L9.04466667,20.0376667 L9.02722222,20.0355556 L9.00988889,20.0302222 L8.99477778,20.0251111 L8.97744444,20.0177778 L8.95966667,20.0072222 L8.94222222,19.9947778 L8.925,19.9822222 L8.90722222,19.9676667 L8.89233333,19.9498889 L8.87966667,19.9321111 L8.86744444,19.9152222 L8.85722222,19.8974444 L8.84988889,19.8776667 L8.845,19.8598889 L8.84,19.8401111 L8.83744444,19.8201111 L8.83477778,19.8002222 L8.83477778,19.7803333 L8.83744444,19.7594444 L8.84,19.7395556 L8.84988889,19.6977778 L8.86488889,19.657 L8.88966667,19.6046667 L8.91211111,19.5596667 L8.92988889,19.5201111 L8.94222222,19.4823333 L8.95244444,19.45 L8.95477778,19.4195556 L8.95477778,19.3923333 L8.94977778,19.3652222 L8.93988889,19.3402222 L8.92733333,19.3151111 L8.90722222,19.2878889 L8.88466667,19.2595556 L8.82722222,19.2001111 L8.75211111,19.1246667 L4.78744444,15.1352222 Z" id="Fill-18" fill="#FFFFFE"></path>
                <path d="M12.8522222,12.0105556 L12.2995556,12.5646667 L11.9447778,12.2102222 L12.4972222,11.657 L11.0046667,10.1626667 L10.9398889,10.103 L10.9124444,10.08 L10.8823333,10.0601111 L10.8548889,10.0454444 L10.8274444,10.0328889 L10.7997778,10.0277778 L10.77,10.0245556 L10.7372222,10.0298889 L10.7022222,10.0402222 L10.6647778,10.0528889 L10.6222222,10.0726667 L10.5775556,10.0977778 L10.5273333,10.128 L10.5097778,10.1354444 L10.4923333,10.1427778 L10.4747778,10.148 L10.4546667,10.1521111 L10.4373333,10.1552222 L10.4198889,10.1573333 L10.3997778,10.1573333 L10.3822222,10.1552222 L10.3623333,10.1521111 L10.3447778,10.148 L10.3248889,10.1427778 L10.3074444,10.1322222 L10.2896667,10.125 L10.2724444,10.1124444 L10.2548889,10.0977778 L10.2371111,10.0821111 L10.2198889,10.0673333 L10.2046667,10.0496667 L10.1924444,10.0328889 L10.1798889,10.0152222 L10.1723333,9.99744444 L10.1648889,9.97955556 L10.1571111,9.96288889 L10.1547778,9.94511111 L10.1521111,9.93055556 L10.1497778,9.91277778 L10.1497778,9.895 L10.1521111,9.87711111 L10.1571111,9.84466667 L10.1648889,9.81544444 L10.1772222,9.785 L10.1897778,9.75788889 L10.2046667,9.73488889 L10.2198889,9.713 L10.245,9.68055556 L10.2598889,9.66277778 L12.0322222,7.89022222 L12.0496667,7.87555556 L12.0821111,7.84733333 L12.1048889,7.83488889 L12.1296667,7.82011111 L12.1547778,7.80555556 L12.1848889,7.793 L12.2146667,7.78244444 L12.2473333,7.77522222 L12.2823333,7.772 L12.3173333,7.77522222 L12.3346667,7.77722222 L12.3497778,7.78244444 L12.3673333,7.78777778 L12.3847778,7.795 L12.4023333,7.80555556 L12.4198889,7.81488889 L12.4371111,7.82955556 L12.4548889,7.84511111 L12.4697778,7.863 L12.4823333,7.87977778 L12.4946667,7.89744444 L12.5047778,7.91522222 L12.5124444,7.93511111 L12.5173333,7.95288889 L12.5197778,7.97288889 L12.5221111,7.99277778 L12.5221111,8.03233333 L12.5173333,8.05233333 L12.5124444,8.07211111 L12.5074444,8.093 L12.4972222,8.115 L12.4873333,8.13488889 L12.4773333,8.15488889 L12.4523333,8.207 L12.4347778,8.253 L12.4172222,8.29488889 L12.4073333,8.33255556 L12.3997778,8.36811111 L12.3947778,8.39744444 L12.3973333,8.42977778 L12.4023333,8.458 L12.4096667,8.48522222 L12.4247778,8.51244444 L12.4421111,8.53955556 L12.4672222,8.56988889 L12.4946667,8.60022222 L12.5273333,8.63266667 L12.5647778,8.67033333 L12.6096667,8.71011111 L15.8896667,11.9894444 L15.9646667,12.0648889 L16.0272222,12.1223333 L16.0573333,12.1454444 L16.0847778,12.1621111 L16.1121111,12.1777778 L16.1372222,12.1851111 L16.1646667,12.1904444 L16.1947778,12.1923333 L16.2247778,12.1872222 L16.2572222,12.1798889 L16.2922222,12.1673333 L16.3296667,12.1474444 L16.3723333,12.1275556 L16.4198889,12.1004444 L16.4622222,12.0847778 L16.5022222,12.0752222 L16.5445556,12.0701111 L16.6021111,12.0701111 L16.6222222,12.0752222 L16.6423333,12.0773333 L16.6596667,12.0847778 L16.6797778,12.092 L16.6972222,12.1004444 L16.7147778,12.1097778 L16.7296667,12.1223333 L16.7472222,12.1401111 L16.7646667,12.1598889 L16.7772222,12.1777778 L16.7871111,12.1976667 L16.7971111,12.2154444 L16.8046667,12.2321111 L16.8096667,12.253 L16.8146667,12.2698889 L16.8172222,12.2876667 L16.8172222,12.3377778 L16.8096667,12.3701111 L16.7997778,12.4026667 L16.7871111,12.4328889 L16.7722222,12.457 L16.7571111,12.4821111 L16.7396667,12.5051111 L16.7095556,12.5427778 L16.6873333,12.5646667 L14.9348889,14.3372222 L14.9196667,14.3528889 L14.8846667,14.3748889 L14.8645556,14.3895556 L14.8397778,14.4021111 L14.8123333,14.4146667 L14.7845556,14.425 L14.7522222,14.4325556 L14.7197778,14.4375556 L14.6873333,14.4375556 L14.6523333,14.4345556 L14.6347778,14.4303333 L14.6172222,14.425 L14.5996667,14.4197778 L14.5822222,14.4104444 L14.5647778,14.4021111 L14.5472222,14.3895556 L14.5323333,14.3748889 L14.5147778,14.3603333 L14.4948889,14.3425556 L14.4771111,14.3247778 L14.4648889,14.307 L14.4523333,14.2901111 L14.4423333,14.2724444 L14.4347778,14.2525556 L14.4297778,14.2347778 L14.4272222,14.215 L14.4245556,14.1971111 L14.4272222,14.1804444 L14.4297778,14.1594444 L14.4347778,14.1427778 L14.4397778,14.125 L14.4496667,14.1072222 L14.4598889,14.0904444 L14.4697778,14.0726667 L14.4972222,14.0172222 L14.5197778,13.9671111 L14.5372222,13.9252222 L14.5497778,13.8844444 L14.5571111,13.8498889 L14.5597778,13.8174444 L14.5597778,13.7872222 L14.5547778,13.76 L14.5422222,13.7328889 L14.5273333,13.7024444 L14.5072222,13.6752222 L14.4821111,13.645 L14.4196667,13.577 L14.3372222,13.4954444 L12.8522222,12.0105556 Z M13.5171111,14.3372222 L13.5922222,14.4125556 L13.6572222,14.47 L13.6846667,14.4951111 L13.7147778,14.5128889 L13.7422222,14.5275556 L13.7696667,14.5381111 L13.7974444,14.5453333 L13.8598889,14.5453333 L13.8946667,14.5381111 L13.9323333,14.5275556 L13.9745556,14.5128889 L14.0198889,14.4951111 L14.0721111,14.47 L14.0923333,14.4596667 L14.1121111,14.4502222 L14.1323333,14.4397778 L14.1547778,14.4345556 L14.1746667,14.4303333 L14.1947778,14.425 L14.2546667,14.425 L14.2747778,14.4303333 L14.2922222,14.4345556 L14.3122222,14.4427778 L14.3296667,14.4522222 L14.3472222,14.4648889 L14.3647778,14.4774444 L14.3822222,14.492 L14.3971111,14.5097778 L14.4222222,14.5453333 L14.4322222,14.5621111 L14.4397778,14.5798889 L14.4446667,14.5945556 L14.4496667,14.6123333 L14.4523333,14.63 L14.4546667,14.6645556 L14.4523333,14.6968889 L14.4446667,14.7304444 L14.4347778,14.7627778 L14.4222222,14.7921111 L14.4073333,14.8172222 L14.3922222,14.8423333 L14.3797778,14.8653333 L14.3521111,14.8977778 L14.3372222,14.9144444 L12.5647778,16.6871111 L12.5472222,16.7026667 L12.5173333,16.7277778 L12.4972222,16.7425556 L12.4747778,16.757 L12.4498889,16.7696667 L12.4198889,16.7822222 L12.3897778,16.7895556 L12.3597778,16.7947778 L12.3422222,16.7978889 L12.3246667,16.7978889 L12.3072222,16.7947778 L12.2898889,16.7926667 L12.2722222,16.7895556 L12.2548889,16.7822222 L12.2373333,16.7748889 L12.2173333,16.7675556 L12.1997778,16.755 L12.1822222,16.7425556 L12.1623333,16.7277778 L12.1448889,16.7101111 L12.1323333,16.6954444 L12.1223333,16.6828889 L12.1121111,16.665 L12.1048889,16.6473333 L12.0998889,16.6295556 L12.0948889,16.6096667 L12.0923333,16.5918889 L12.0923333,16.5698889 L12.0896667,16.55 L12.0923333,16.527 L12.0948889,16.5071111 L12.0972222,16.4852222 L12.1022222,16.4621111 L12.1071111,16.4423333 L12.1147778,16.4204444 L12.1223333,16.3994444 L12.1472222,16.3524444 L12.1696667,16.3095556 L12.1872222,16.2728889 L12.1997778,16.2373333 L12.2073333,16.207 L12.2123333,16.1777778 L12.2096667,16.1495556 L12.2046667,16.1244444 L12.1947778,16.1004444 L12.1798889,16.0721111 L12.1574444,16.0448889 L12.1345556,16.0146667 L12.0697778,15.9498889 L11.9897778,15.8672222 L8.73222222,12.5876667 L8.65,12.5124444 L8.58222222,12.4548889 L8.55211111,12.4328889 L8.52466667,12.4151111 L8.49722222,12.3994444 L8.46977778,12.3901111 L8.44233333,12.3848889 L8.41488889,12.3848889 L8.38477778,12.3901111 L8.34977778,12.3974444 L8.31477778,12.4098889 L8.27244444,12.4277778 L8.22722222,12.4496667 L8.17755556,12.4778889 L8.13488889,12.4904444 L8.09488889,12.4998889 L8.07477778,12.5051111 L8.01488889,12.5051111 L7.99477778,12.5028889 L7.97488889,12.4976667 L7.95477778,12.4904444 L7.93722222,12.4821111 L7.91966667,12.4726667 L7.90244444,12.4621111 L7.885,12.4475556 L7.86722222,12.4328889 L7.85222222,12.4151111 L7.83744444,12.3974444 L7.82744444,12.3826667 L7.81722222,12.3648889 L7.80966667,12.3471111 L7.80233333,12.3305556 L7.8,12.3126667 L7.79477778,12.2948889 L7.79477778,12.2446667 L7.79744444,12.228 L7.80466667,12.1955556 L7.81466667,12.1621111 L7.82744444,12.1348889 L7.83977778,12.1077778 L7.85488889,12.0826667 L7.86988889,12.0626667 L7.89466667,12.0271111 L7.91244444,12.0105556 L9.66222222,10.2598889 L9.66744444,10.2504444 L9.67977778,10.2378889 L9.69488889,10.2253333 L9.71477778,10.2097778 L9.73988889,10.195 L9.76466667,10.1804444 L9.79477778,10.1678889 L9.82488889,10.1552222 L9.85722222,10.148 L9.89233333,10.1396667 L9.92733333,10.1396667 L9.96466667,10.1427778 L9.98222222,10.1448889 L9.99977778,10.1501111 L10.0173333,10.1573333 L10.0347778,10.1646667 L10.0523333,10.1751111 L10.0697778,10.1876667 L10.0873333,10.2002222 L10.1048889,10.215 L10.1197778,10.2327778 L10.1348889,10.2504444 L10.1448889,10.2671111 L10.1547778,10.287 L10.1623333,10.3047778 L10.1673333,10.3247778 L10.1723333,10.3425556 L10.1748889,10.3623333 L10.1748889,10.3821111 L10.1723333,10.4021111 L10.1698889,10.423 L10.1648889,10.445 L10.1571111,10.4648889 L10.1497778,10.4846667 L10.1398889,10.5045556 L10.1273333,10.5275556 L10.0995556,10.5777778 L10.0797778,10.6226667 L10.0622222,10.6625556 L10.0523333,10.7002222 L10.0446667,10.7325556 L10.0423333,10.7627778 L10.0423333,10.7775556 L10.0446667,10.79 L10.0473333,10.8046667 L10.0523333,10.8172222 L10.0647778,10.8423333 L10.0797778,10.8675556 L10.0995556,10.8946667 L10.1247778,10.9228889 L10.1848889,10.9825556 L10.2598889,11.0576667 L13.5171111,14.3372222 Z" id="Fill-19" fill="#FFFFFE"></path>
                <path d="M18.8572222,9.68466667 L18.8972222,9.63033333 L18.9373333,9.575 L18.9721111,9.51733333 L19.0046667,9.463 L19.0347778,9.40544444 L19.0647778,9.34477778 L19.0896667,9.28733333 L19.1121111,9.22766667 L19.1345556,9.16811111 L19.1521111,9.10533333 L19.1696667,9.04466667 L19.1845556,8.98311111 L19.1944444,8.92022222 L19.2046667,8.85755556 L19.2123333,8.79477778 L19.217,8.732 L19.2222222,8.66711111 L19.2222222,8.60544444 L19.2195556,8.53955556 L19.217,8.47788889 L19.2123333,8.412 L19.2046667,8.34711111 L19.1944444,8.28544444 L19.1822222,8.21966667 L19.167,8.15488889 L19.1521111,8.093 L19.1345556,8.02711111 L19.1145556,7.96544444 L19.0923333,7.89955556 L19.0671111,7.83788889 L19.0421111,7.77522222 L19.0123333,7.71233333 L18.9971111,7.66222222 L18.9795556,7.61211111 L18.9721111,7.588 L18.9646667,7.56288889 L18.9597778,7.53988889 L18.9547778,7.51477778 L18.9521111,7.49277778 L18.9521111,7.46777778 L18.9547778,7.44466667 L18.9597778,7.42277778 L18.9671111,7.39977778 L18.9795556,7.37777778 L18.9947778,7.358 L19.0123333,7.335 L19.0322222,7.31711111 L19.0496667,7.30255556 L19.0671111,7.28988889 L19.0847778,7.27733333 L19.1022222,7.27011111 L19.1197778,7.26266667 L19.137,7.25544444 L19.1521111,7.25222222 L19.1696667,7.25022222 L19.1845556,7.24711111 L19.1997778,7.24711111 L19.2146667,7.25022222 L19.2421111,7.25544444 L19.2672222,7.26266667 L19.2922222,7.27522222 L19.3122222,7.28788889 L19.332,7.30255556 L19.3495556,7.31711111 L19.3746667,7.34222222 L19.3895556,7.358 L20.6525556,8.62011111 L19.2123333,10.0402222 L18.8572222,9.68466667 L16.6196667,7.46777778 L16.6371111,7.43733333 L16.6546667,7.405 L16.6671111,7.37455556 L16.6797778,7.34222222 L16.6896667,7.31288889 L16.6998889,7.28044444 L16.7072222,7.24711111 L16.7122222,7.21466667 L16.7147778,7.18533333 L16.7171111,7.153 L16.7197778,7.12044444 L16.7197778,7.087 L16.7147778,7.02533333 L16.7048889,6.96044444 L16.6922222,6.89777778 L16.6747778,6.835 L16.6523333,6.77233333 L16.6295556,6.71055556 L16.6021111,6.65 L16.5722222,6.59033333 L16.5422222,6.52977778 L16.5097778,6.47 L16.4846667,6.41977778 L16.4622222,6.36966667 L16.4523333,6.34777778 L16.4446667,6.32255556 L16.4371111,6.29755556 L16.4347778,6.27244444 L16.4322222,6.24733333 L16.4322222,6.22222222 L16.4371111,6.19711111 L16.4446667,6.172 L16.4546667,6.148 L16.4672222,6.12277778 L16.4871111,6.09777778 L16.5097778,6.07266667 L16.5273333,6.05488889 L16.5472222,6.04022222 L16.5647778,6.02777778 L16.5822222,6.01722222 L16.5996667,6.01 L16.6172222,6.00477778 L16.6347778,6.00055556 L16.6873333,6.00055556 L16.7022222,6.00477778 L16.7197778,6.00777778 L16.7497778,6.02044444 L16.7798889,6.035 L16.8096667,6.05488889 L16.8347778,6.07477778 L16.8598889,6.09777778 L16.8821111,6.11977778 L16.9223333,6.15733333 L16.9521111,6.18255556 L18.2821111,7.53455556 L18.3145556,7.55766667 L18.3547778,7.59522222 L18.3773333,7.61733333 L18.3997778,7.64233333 L18.4196667,7.66944444 L18.4397778,7.69777778 L18.4546667,7.73011111 L18.4672222,7.76266667 L18.4722222,7.78033333 L18.4745556,7.795 L18.4771111,7.81277778 L18.4771111,7.85044444 L18.4745556,7.86722222 L18.4695556,7.885 L18.4622222,7.90277778 L18.4546667,7.92266667 L18.4446667,7.94044444 L18.4297778,7.96022222 L18.4146667,7.978 L18.3895556,7.99788889 L18.3647778,8.01255556 L18.3396667,8.02511111 L18.3145556,8.03233333 L18.2896667,8.03977778 L18.2647778,8.04288889 L18.2123333,8.04288889 L18.1872222,8.03766667 L18.1597778,8.03022222 L18.1323333,8.023 L18.1072222,8.01255556 L18.0496667,7.98744444 L17.9947778,7.95511111 L17.9396667,7.92266667 L17.8823333,7.89222222 L17.8248889,7.863 L17.7673333,7.83488889 L17.7072222,7.81277778 L17.6471111,7.78977778 L17.5847778,7.772 L17.5223333,7.76055556 L17.4596667,7.75011111 L17.3971111,7.74488889 L17.3647778,7.74488889 L17.3346667,7.74788889 L17.3022222,7.75011111 L17.2724444,7.75211111 L17.2397778,7.76055556 L17.207,7.76466667 L17.1746667,7.77522222 L17.1448889,7.78555556 L17.1121111,7.79711111 L17.0823333,7.81277778 L17.0496667,7.82733333 L17.0195556,7.84511111 L16.6196667,7.46777778 L18.8572222,9.68466667 Z M14.5372222,5.36266667 L15.9323333,3.99055556 L17.1971111,5.25277778 L17.2046667,5.258 L17.2146667,5.26533333 L17.2247778,5.27477778 L17.2371111,5.29044444 L17.2447778,5.30511111 L17.2546667,5.32288889 L17.2595556,5.34277778 L17.2645556,5.36266667 L17.2672222,5.38766667 L17.2645556,5.41288889 L17.2595556,5.44 L17.2497778,5.47022222 L17.2347778,5.50277778 L17.2123333,5.53511111 L17.1845556,5.56966667 L17.1521111,5.60733333 L17.1348889,5.623 L17.1171111,5.63566667 L17.0995556,5.645 L17.0823333,5.65222222 L17.0622222,5.65955556 L17.0446667,5.66277778 L17.0248889,5.66488889 L17.0046667,5.66488889 L16.9845556,5.66277778 L16.9646667,5.65955556 L16.9447778,5.65533333 L16.9246667,5.64711111 L16.8821111,5.63033333 L16.8421111,5.60733333 L16.7798889,5.578 L16.7171111,5.54777778 L16.6546667,5.52255556 L16.5947778,5.49744444 L16.5323333,5.47555556 L16.4724444,5.45466667 L16.4096667,5.43788889 L16.3497778,5.42222222 L16.2896667,5.40755556 L16.2297778,5.39711111 L16.1696667,5.38766667 L16.1095556,5.38033333 L16.0496667,5.37522222 L15.9897778,5.373 L15.9296667,5.373 L15.8697778,5.37522222 L15.8096667,5.37722222 L15.7497778,5.38566667 L15.6896667,5.39511111 L15.6297778,5.40544444 L15.5722222,5.42011111 L15.5123333,5.43466667 L15.4523333,5.45466667 L15.3922222,5.47555556 L15.3323333,5.50066667 L15.2721111,5.52788889 L15.2123333,5.555 L15.1547778,5.58744444 L15.0946667,5.61988889 L15.0347778,5.65744444 L14.9745556,5.69722222 L14.9147778,5.74011111 L14.5372222,5.36266667 Z M12.6096667,7.31288889 L14.2724444,5.65022222 L18.9246667,10.3277778 L17.2847778,11.9676667 L17.2672222,11.9822222 L17.2347778,12.0072222 L17.2123333,12.023 L17.1897778,12.0376667 L17.1623333,12.0523333 L17.1323333,12.0648889 L17.1022222,12.0752222 L17.0695556,12.0805556 L17.0523333,12.0826667 L17.0347778,12.0847778 L17.0173333,12.0847778 L17.0023333,12.0826667 L16.9845556,12.0805556 L16.9673333,12.0752222 L16.9497778,12.0701111 L16.932,12.0595556 L16.9147778,12.0523333 L16.8972222,12.0397778 L16.8796667,12.0271111 L16.8648889,12.0105556 L16.8471111,11.9947778 L16.8347778,11.978 L16.8222222,11.9602222 L16.8123333,11.9404444 L16.8046667,11.9226667 L16.7997778,11.9027778 L16.7945556,11.885 L16.7921111,11.8651111 L16.7897778,11.8451111 L16.7897778,11.8253333 L16.7921111,11.8055556 L16.7945556,11.7845556 L16.8046667,11.7427778 L16.8195556,11.6998889 L16.8471111,11.6496667 L16.8672222,11.6046667 L16.8846667,11.565 L16.8995556,11.5273333 L16.9072222,11.4948889 L16.9121111,11.4624444 L16.9095556,11.4353333 L16.9045556,11.4071111 L16.8946667,11.3798889 L16.8821111,11.3526667 L16.8648889,11.3254444 L16.8421111,11.2951111 L16.7822222,11.2303333 L16.7095556,11.1476667 L13.4523333,7.89022222 L13.3673333,7.80766667 L13.2995556,7.74488889 L13.2672222,7.71966667 L13.2371111,7.69988889 L13.2073333,7.68522222 L13.1795556,7.67277778 L13.1497778,7.66744444 L13.1197778,7.66533333 L13.0873333,7.66944444 L13.0523333,7.678 L13.0145556,7.69044444 L12.9722222,7.70722222 L12.9273333,7.73011111 L12.8747778,7.75533333 L12.8572222,7.76466667 L12.8397778,7.77 L12.8222222,7.77722222 L12.8046667,7.78033333 L12.7871111,7.78555556 L12.7673333,7.78777778 L12.7298889,7.78777778 L12.7122222,7.78555556 L12.6946667,7.78244444 L12.6747778,7.77722222 L12.6572222,7.772 L12.6396667,7.76466667 L12.6222222,7.75533333 L12.6046667,7.74488889 L12.5872222,7.73533333 L12.5722222,7.71455556 L12.5571111,7.69777778 L12.5447778,7.678 L12.5348889,7.66011111 L12.5273333,7.64233333 L12.5221111,7.62244444 L12.5147778,7.60466667 L12.5124444,7.588 L12.5097778,7.55244444 L12.5097778,7.52011111 L12.5147778,7.48755556 L12.5221111,7.45722222 L12.5323333,7.43011111 L12.5447778,7.40288889 L12.5571111,7.37988889 L12.5722222,7.36 L12.5947778,7.32966667 L12.6096667,7.31288889 Z" id="Fill-20" fill="#FFFFFE"></path>
                <polyline id="Fill-21" fill="#FFFFFE" points="33.6397778 5.36266667 33.6722222 5.303 33.7014444 5.24244444 33.7296667 5.18266667 33.7516667 5.12 33.7714444 5.06044444 33.7893333 4.99755556 33.8018889 4.938 33.8143333 4.87533333 33.8216667 4.81466667 33.8268889 4.75288889 33.8291111 4.69022222 33.8268889 4.62955556 33.8248889 4.56777778 33.8196667 4.50711111 33.8123333 4.44555556 33.8018889 4.38488889 33.7893333 4.32522222 33.7766667 4.26566667 33.759 4.205 33.7422222 4.14544444 33.7223333 4.08477778 33.7014444 4.02511111 33.6794444 3.96766667 33.6544444 3.908 33.6021111 3.793 33.5445556 3.678 33.4817778 3.568 33.417 3.45722222 33.3687778 3.358 33.325 3.25744444 33.304 3.20733333 33.2893333 3.15822222 33.2767778 3.108 33.2674444 3.05766667 33.2643333 3.03466667 33.2643333 2.95733333 33.2674444 2.93544444 33.2715556 2.91033333 33.279 2.88533333 33.2873333 2.86011111 33.2966667 2.835 33.3072222 2.80988889 33.3196667 2.78477778 33.3344444 2.75977778 33.3522222 2.73466667 33.3721111 2.71055556 33.394 2.68544444 33.417 2.66033333 33.4514444 2.62788889 33.485 2.59966667 33.5173333 2.57566667 33.5497778 2.55777778 33.5843333 2.54222222 33.6166667 2.53277778 33.6492222 2.52544444 33.6815556 2.52233333 33.7151111 2.52233333 33.7474444 2.52755556 33.7798889 2.53277778 33.8091111 2.54 33.8415556 2.55266667 33.872 2.56533333 33.8991111 2.57988889 33.9293333 2.59555556 33.9847778 2.63322222 34.0371111 2.67288889 34.0872222 2.71477778 34.1322222 2.75555556 34.2064444 2.82977778 34.2598889 2.88 36.8742222 5.49544444 36.9244444 5.54777778 36.9966667 5.623 37.0374444 5.66488889 37.0771111 5.713 37.1146667 5.76211111 37.1524444 5.81744444 37.1671111 5.84466667 37.1816667 5.875 37.1943333 5.90522222 37.2046667 5.93455556 37.2142222 5.96811111 37.2194444 5.99744444 37.2214444 6.02988889 37.2245556 6.06222222 37.2194444 6.09777778 37.2142222 6.13022222 37.2046667 6.16466667 37.1921111 6.19711111 37.1743333 6.23277778 37.1524444 6.26711111 37.1273333 6.30277778 37.097 6.33722222 37.0717778 6.36233333 37.0216667 6.40211111 36.9966667 6.41977778 36.9715556 6.43555556 36.9464444 6.447 36.9223333 6.45966667 36.8972222 6.47 36.8722222 6.47744444 36.847 6.48266667 36.8218889 6.48788889 36.7968889 6.48988889 36.7717778 6.49311111 36.7467778 6.49311111 36.7215556 6.48988889 36.6965556 6.48788889 36.6473333 6.48044444 36.5971111 6.46788889 36.5468889 6.45022222 36.4967778 6.43255556 36.3974444 6.38744444 36.299 6.33722222 36.1892222 6.27244444 36.0774444 6.21277778 35.9644444 6.15522222 35.8473333 6.09988889 35.7897778 6.07788889 35.7292222 6.05288889 35.6716667 6.03288889 35.6121111 6.012 35.5524444 5.99522222 35.4917778 5.97955556 35.4322222 5.965 35.3694444 5.95233333 35.3098889 5.943 35.2471111 5.93455556 35.1864444 5.93055556 35.1267778 5.92733333 35.064 5.92733333 35.0023333 5.93055556 34.9417778 5.93455556 34.8788889 5.943 34.8193333 5.95233333 34.7566667 5.96811111 34.6968889 5.98277778 34.6342222 6.00255556 34.5746667 6.02777778 34.5118889 6.05288889 34.4523333 6.08211111 34.3916667 6.11555556 33.6397778 5.36266667"></polyline>
            </g>
        </g>
    </g>
</svg>