<?xml version="1.0" encoding="utf-8"?>
<!-- Generator: Adobe Illustrator 16.0.0, SVG Export Plug-In . SVG Version: 6.00 Build 0)  -->
<!DOCTYPE svg PUBLIC "-//W3C//DTD SVG 1.1//EN" "http://www.w3.org/Graphics/SVG/1.1/DTD/svg11.dtd">
<svg version="1.1" id="Layer_1" xmlns:sketch="http://www.bohemiancoding.com/sketch/ns"
	 xmlns="http://www.w3.org/2000/svg" xmlns:xlink="http://www.w3.org/1999/xlink" x="0px" y="0px" width="356px" height="156px"
	 viewBox="0 0 356 156" enable-background="new 0 0 356 156" xml:space="preserve">
<title>Artboard 1</title>
<desc>Created with Sketch.</desc>
<g>
	<g>
		<g>
			<path fill="#FFFFFF" d="M140.475,118.701l-22.434-0.013l-0.05-58.799l-19.349-0.013l0.044-22.454h82.312l-0.33,58.789h13.59
				l0.575,1.36c2.286,5.264,5.375,10.019,8.257,12.705l0.713,0.625v7.774h-45.295l0.04-58.787h-18.046L140.475,118.701z
				 M121.295,115.432l15.924,0.01l0.027-58.809h24.562l-0.04,58.787h38.776v-3.068c-4.134-4.027-7.11-9.94-8.435-12.881h-14.718
				l0.329-58.789h-75.782l-0.032,15.939l19.34,0.013L121.295,115.432z"/>
		</g>
	</g>
	<g>
		<g>
			<path fill="#FFFFFF" d="M92.268,118.625H69.804V37.372h22.464V118.625z M73.062,115.367H89.01V40.629H73.062V115.367z"/>
		</g>
	</g>
	<g>
		<path fill="#FFFFFF" d="M238.527,118.145c-13.102,0-23.564-5.122-30.256-14.813c-6.95-10.065-7.7-21.484-7.7-25.927
			c0-4.376,0.751-15.626,7.707-25.539c6.692-9.535,17.151-14.575,30.249-14.575c13.232,0,23.8,5.037,30.562,14.568
			c7.033,9.914,7.793,21.167,7.793,25.545C276.882,107.476,256.221,118.145,238.527,118.145z M238.527,40.548
			c-27.39,0-34.698,23.167-34.698,36.856c0,13.922,7.309,37.482,34.698,37.482c25.904,0,35.097-20.191,35.097-37.482
			C273.624,63.715,266.232,40.548,238.527,40.548z M249.724,99.554h-23.102l4.285-19.546c-3.76-2.777-5.988-6.582-5.988-10.276
			c0-7.217,5.907-13.088,13.168-13.088c7.26,0,13.168,5.871,13.168,13.088c0,4.262-2.922,8.017-5.821,10.256L249.724,99.554z
			 M230.673,96.296h15L241.795,78.6l1.259-0.901c2.39-1.711,4.942-4.702,4.942-7.967c0-5.42-4.445-9.83-9.909-9.83
			c-5.465,0-9.91,4.41-9.91,9.83c0,2.783,1.898,5.754,5.079,7.95l1.299,0.9L230.673,96.296z"/>
	</g>
	<g>
		<path fill="#FFFFFF" d="M352.221,118.573h-26.497l-13.575-21.614l-13.575,21.614h-26.497l25.521-40.611l-25.495-40.571h26.497
			l13.575,21.615l13.575-21.615h26.497l-25.521,40.612L352.221,118.573z M327.524,115.314h18.801l-23.447-37.312l23.473-37.354
			H327.55l-15.376,24.483l-15.376-24.483h-18.801l23.447,37.313l-23.473,37.353h18.801l15.376-24.482L327.524,115.314z"/>
	</g>
	<g>
		<path fill="#FFFFFF" d="M44.454,128.231H21.99l0.012-9.557l-16.409,0.001c-1.014,0-1.839-0.824-1.839-1.838V39.194
			c0-1.013,0.825-1.838,1.839-1.838h16.404l-0.037-9.587h22.465l0.038,10.676c12.035,2.692,18.641,10.936,18.641,23.34
			c0,4.687-3.387,12.832-8.903,15.452l-0.489,0.239l0.556,0.248c5.894,2.5,9.088,10.047,9.088,15.871
			c0,9.354-4.993,20.377-18.889,23.873L44.454,128.231z M25.252,124.974h15.947l0.012-10.126l1.293-0.271
			c12.971-2.722,17.593-12.622,17.593-20.982c0-4.847-2.666-10.99-7.128-12.884l-6.971-3.1l6.79-3.31
			c4.248-2.018,7.058-8.867,7.058-12.516c0-11.427-5.821-18.292-17.303-20.407l-1.329-0.245l-0.036-10.106H25.231l0.036,9.671
			l-2.14-0.085L7.013,40.614v74.804l16.549-0.018l1.701-0.073L25.252,124.974z M35.316,101.276H21.982V84.438h13.722
			c6.416,0.182,8.686,4.638,8.686,8.747C44.39,96.313,41.926,101.276,35.316,101.276z M25.24,98.019h10.076
			c5.748,0,5.814-4.786,5.814-4.834c0-1.992-0.711-5.354-5.473-5.489L25.24,87.696V98.019z M23.611,71.594h-1.629V54.596h13.334
			c7.443,0,9.073,5.6,9.073,7.758c0,4.347-2.267,9.057-8.627,9.238L23.611,71.594z M25.24,68.336h10.476
			c4.706-0.136,5.415-3.806,5.415-5.981c-0.015-0.43-0.308-4.5-5.814-4.5H25.24V68.336z"/>
	</g>
</g>
</svg>
