<?xml version="1.0" encoding="utf-8"?>
<!-- Generator: Adobe Illustrator 16.0.0, SVG Export Plug-In . SVG Version: 6.00 Build 0)  -->
<!DOCTYPE svg PUBLIC "-//W3C//DTD SVG 1.1//EN" "http://www.w3.org/Graphics/SVG/1.1/DTD/svg11.dtd">
<svg version="1.1" id="Capa_1" xmlns:sketch="http://www.bohemiancoding.com/sketch/ns"
	 xmlns="http://www.w3.org/2000/svg" xmlns:xlink="http://www.w3.org/1999/xlink" x="0px" y="0px" width="960px" height="560px"
	 viewBox="0 0 960 560" enable-background="new 0 0 960 560" xml:space="preserve">
<title>download 3</title>
<desc>Created with Sketch.</desc>
<g>
	<g>
		<g>
			<path fill="#231F20" d="M376.831,391.898l-61.68-0.035l-0.136-161.655l-53.195-0.035l0.123-61.731H488.24l-0.907,161.627h37.361
				l1.584,3.741c6.284,14.471,14.776,27.543,22.698,34.93l1.96,1.717v21.377H426.407l0.112-161.624h-49.613L376.831,391.898z
				 M324.102,382.911l43.777,0.026l0.074-161.684h67.529l-0.111,161.623h106.608v-8.437c-11.365-11.072-19.551-27.328-23.189-35.413
				h-40.463l0.905-161.627h-208.35l-0.088,43.822l53.172,0.035L324.102,382.911z"/>
		</g>
	</g>
	<g>
		<g>
			<path fill="#231F20" d="M244.296,391.691h-61.761V168.3h61.761V391.691z M191.493,382.734h43.845V177.257h-43.845V382.734z"/>
		</g>
	</g>
	<g>
		<path fill="#231F20" d="M646.406,390.37c-36.021,0-64.784-14.083-83.183-40.728c-19.108-27.674-21.17-59.067-21.17-71.281
			c0-12.032,2.064-42.96,21.19-70.214c18.397-26.215,47.154-40.071,83.162-40.071c36.38,0,65.434,13.849,84.023,40.054
			c19.336,27.256,21.424,58.195,21.424,70.231C751.854,361.037,695.05,390.37,646.406,390.37z M646.406,177.034
			c-75.303,0-95.396,63.693-95.396,101.328c0,38.276,20.093,103.051,95.396,103.051c71.22,0,96.49-55.513,96.49-103.051
			C742.896,240.727,722.575,177.034,646.406,177.034z M677.188,339.258h-63.512l11.78-53.738
			c-10.337-7.634-16.464-18.096-16.464-28.251c0-19.841,16.241-35.982,36.202-35.982s36.203,16.141,36.203,35.982
			c0,11.717-8.032,22.041-16.003,28.197L677.188,339.258z M624.812,330.301h41.241l-10.663-48.652l3.462-2.478
			c6.568-4.704,13.588-12.926,13.588-21.903c0-14.901-12.222-27.025-27.245-27.025s-27.245,12.124-27.245,27.025
			c0,7.651,5.22,15.821,13.965,21.857l3.571,2.476L624.812,330.301z"/>
	</g>
	<g>
		<path fill="#231F20" d="M958.984,391.547h-72.85l-37.322-59.424l-37.322,59.424h-72.849l70.163-111.652l-70.094-111.542h72.85
			l37.322,59.426l37.322-59.426h72.85l-70.164,111.654L958.984,391.547z M891.086,382.59h51.689l-64.465-102.583l64.535-102.697
			h-51.689l-42.273,67.312l-42.273-67.312H754.92l64.465,102.585L754.85,382.59h51.689l42.273-67.311L891.086,382.59z"/>
	</g>
	<g>
		<path fill="#231F20" d="M112.842,418.102H51.081l0.03-26.275l-45.112,0.005c-2.787,0-5.054-2.268-5.054-5.054V173.31
			c0-2.786,2.267-5.054,5.054-5.054H51.1l-0.101-26.357h61.762l0.104,29.352c33.088,7.402,51.249,30.064,51.249,64.169
			c0,12.885-9.312,35.28-24.479,42.481l-1.345,0.656l1.528,0.68c16.204,6.873,24.986,27.619,24.986,43.635
			c0,25.715-13.729,56.022-51.931,65.633L112.842,418.102z M60.049,409.145h43.845l0.03-27.841l3.555-0.745
			c35.663-7.481,48.369-34.703,48.369-57.687c0-13.324-7.33-30.218-19.598-35.422l-19.166-8.522l18.667-9.099
			c11.682-5.548,19.404-24.379,19.404-34.41c0-31.416-16.004-50.292-47.568-56.105l-3.654-0.673l-0.098-27.786H59.991l0.101,26.587
			l-5.883-0.234l-44.307,0.004v205.661l45.499-0.048l4.679-0.203L60.049,409.145z M87.72,343.994H51.061V297.7h37.725
			c17.639,0.498,23.878,12.749,23.878,24.046C112.663,330.35,105.892,343.994,87.72,343.994z M60.018,335.037H87.72
			c15.803,0,15.985-13.158,15.985-13.291c0-5.476-1.955-14.72-15.047-15.092l-28.641,0.003V335.037z M55.539,262.387h-4.479v-46.732
			H87.72c20.349,0,24.904,15.375,24.943,21.302c0,11.979-6.23,24.927-23.718,25.428L55.539,262.387z M60.018,253.43h28.799
			c12.938-0.374,14.889-10.464,14.889-16.445c-0.04-1.179-0.846-12.373-15.985-12.373H60.018V253.43z"/>
	</g>
</g>
</svg>
