<?xml version="1.0" encoding="UTF-8"?>
<svg width="50px" height="50px" viewBox="0 0 50 50" version="1.1" xmlns="http://www.w3.org/2000/svg" xmlns:xlink="http://www.w3.org/1999/xlink">
    <!-- Generator: Sketch 52.6 (67491) - http://www.bohemiancoding.com/sketch -->
    <title>Brand/Icon/PotteryBarn</title>
    <desc>Created with Sketch.</desc>
    <g id="Brand/Icon/PotteryBarn" stroke="none" stroke-width="1" fill="none" fill-rule="evenodd">
        <rect id="Rectangle" fill="#1E355E" x="0" y="0" width="50" height="50"></rect>
        <g id="PotteryBarn_logo" transform="translate(11.000000, 14.000000)" fill="#FFFFFF">
            <path d="M19.697803,0.493546798 L19.697803,10.4915764 L21.681734,10.4915764 C21.7499409,10.4915764 22.1617241,10.5106404 22.4104039,10.2450148 C22.6357833,9.9984532 22.5709655,9.63708374 22.5709655,9.446867 L22.5709655,1.78735961 C22.5709655,1.71025616 22.6167192,0.987940887 22.4104039,0.74137931 C22.2074778,0.493546798 21.3385813,0.493546798 21.3157044,0.493546798 L19.697803,0.493546798 Z M19.697803,21.2890246 L21.7257931,21.2890246 C21.7961182,21.2890246 22.4798818,21.2890246 22.8209163,21.023399 C23.1852512,20.7183744 23.3225123,20.395133 23.3225123,19.9583547 L23.3225123,12.258601 C23.3225123,11.9366305 23.2983645,11.6701576 23.0945911,11.4223251 C22.8670936,11.1566995 22.4798818,11.0825616 22.046069,11.0825616 L19.697803,11.0825616 L19.697803,21.2890246 Z M27.106936,13.7049261 L27.106936,18.6086207 C27.106936,19.4461675 27.0645714,20.0524039 26.4689261,20.7183744 C25.650867,21.6118424 23.9384926,21.7825714 23.2102463,21.7825714 L15,21.7825714 L15,21.2890246 L15.912532,21.2890246 L15.912532,0.493546798 L15,0.493546798 L15,0 L22.8209163,0 C23.8020788,0 24.5320197,0.170305419 25.2623842,0.72146798 C26.4689261,1.63484729 26.3562365,2.75581281 26.3562365,2.77614778 L26.3562365,8.00181281 C26.3562365,8.02172414 26.4007192,9.06812808 25.624601,9.71376355 C24.6222562,10.5504631 23.8474089,10.5881675 23.8702857,10.6822167 C23.8702857,10.8338818 25.2623842,10.8148177 26.2638818,11.6701576 C26.8561379,12.1831921 27.106936,12.7140197 27.106936,13.7049261 Z" id="Fill-10"></path>
            <path d="M7.27399015,1.92580507 C7.27399015,1.50554891 7.29771429,1.18442576 7.04606897,0.87940113 C6.77239409,0.556159751 6.38475862,0.498967633 5.83783251,0.498967633 L4.69780296,0.498967633 L4.69780296,10.8592139 L6.0649064,10.8592139 C6.49914286,10.8592139 6.84060099,10.706278 7.06809852,10.441076 C7.34219704,10.1178346 7.27399015,9.60480014 7.27399015,9.3370563 L7.27399015,1.92580507 Z M4.69780296,11.3324258 L4.69780296,21.2944455 L5.63194089,21.2944455 L5.63194089,21.7879923 L0,21.7879923 L0,21.2944455 L0.912108374,21.2944455 L0.912108374,0.498967633 L0,0.498967633 L0,0.00542083463 L6.61310345,0.00542083463 C7.06809852,0.00542083463 8.75759606,-0.0898993624 9.71376355,0.518878963 C10.7627094,1.18442576 11.0596847,2.07619916 11.0596847,3.18021886 L11.0596847,8.35038635 C11.0596847,8.90112527 10.9228473,9.87000212 9.89677833,10.5558839 C8.91603941,11.2006721 7.29771429,11.3324258 5.97424631,11.3324258 L4.69780296,11.3324258 Z" id="Fill-1"></path>
        </g>
    </g>
</svg>