<?xml version="1.0" encoding="UTF-8"?>
<svg width="210px" height="73px" viewBox="0 0 210 73" version="1.1" xmlns="http://www.w3.org/2000/svg" xmlns:xlink="http://www.w3.org/1999/xlink">
    <!-- Generator: Sketch 52.6 (67491) - http://www.bohemiancoding.com/sketch -->
    <title>Brand/Card/Small/BassPro</title>
    <desc>Created with Sketch.</desc>
    <defs>
        <polygon id="path-1" points="0.0175862069 0.0364047112 22.3878276 0.0364047112 22.3878276 15.2413793 0.0175862069 15.2413793"></polygon>
    </defs>
    <g id="Symbols" stroke="none" stroke-width="1" fill="none" fill-rule="evenodd">
        <g id="Brand/Card/Small/PotteryBarn">
            <g id="Mask"></g>
            <g id="Component/amount-dark" transform="translate(209.000000, 0.000000)">
                <text id="$50.00" font-family="Helvetica" font-size="16" font-weight="normal" fill="#FFFFFF">
                    <tspan x="38.0625" y="44">$50.00</tspan>
                </text>
                <g id="Icons/Small-(20px)/Controls/Right-(White)" opacity="0.5" transform="translate(107.000000, 28.000000)" fill-rule="evenodd" stroke="#FFFFFF" stroke-linecap="round" stroke-linejoin="round" stroke-width="1">
                    <g id="small-right" transform="translate(4.000000, 1.000000)">
                        <polyline id="Shape" points="0 0 10 9 0 18"></polyline>
                    </g>
                </g>
            </g>
            <g id="PotteryBarn_logo" transform="translate(20.000000, 29.000000)">
                <g id="Group-4">
                    <mask id="mask-2" fill="white">
                        <use xlink:href="#path-1"></use>
                    </mask>
                    <g id="Clip-2"></g>
                    <path d="M5.03258621,1.3687931 C5.03258621,1.07803448 5.049,0.855862069 4.87489655,0.644827586 C4.68555172,0.421189655 4.41736207,0.38162069 4.03896552,0.38162069 L3.25022414,0.38162069 L3.25022414,7.54946552 L4.19606897,7.54946552 C4.4965,7.54946552 4.73274138,7.44365517 4.89013793,7.26017241 C5.07977586,7.03653448 5.03258621,6.68158621 5.03258621,6.49634483 L5.03258621,1.3687931 Z M3.25022414,7.87686207 L3.25022414,14.7691897 L3.89651724,14.7691897 L3.89651724,15.1106552 L0,15.1106552 L0,14.7691897 L0.631051724,14.7691897 L0.631051724,0.38162069 L0,0.38162069 L0,0.0401551724 L4.57534483,0.0401551724 C4.89013793,0.0401551724 6.05903448,-0.0257931034 6.72056897,0.395396552 C7.4462931,0.855862069 7.65175862,1.47284483 7.65175862,2.23667241 L7.65175862,5.8137069 C7.65175862,6.19474138 7.55708621,6.86506897 6.84718966,7.33960345 C6.16865517,7.7857069 5.049,7.87686207 4.13334483,7.87686207 L3.25022414,7.87686207 Z" id="Fill-1" fill="#FFFFFF" mask="url(#mask-2)"></path>
                    <path d="M20.0301034,2.7452069 C20.0301034,1.98841379 19.7466724,1.67977586 19.1639828,1.69208621 C18.5390862,1.69208621 18.1841379,1.96496552 18.1841379,2.7452069 L18.1841379,13.9637414 C18.1841379,14.5311897 18.3687931,14.9679138 19.0786897,14.9679138 C19.7751034,14.9679138 20.0301034,14.6856552 20.0301034,13.9637414 L20.0301034,2.7452069 Z M22.3878276,13.0161379 C22.3878276,14.3770172 21.493569,15.2516379 19.0930517,15.2413793 C16.5219483,15.2413793 15.8272931,14.3770172 15.8272931,13.0161379 L15.8272931,3.90501724 C15.8272931,2.28532759 16.9621897,1.45496552 19.1639828,1.44412069 C21.2804828,1.43181034 22.3878276,2.49753448 22.3878276,3.90501724 L22.3878276,13.0161379 Z" id="Fill-3" fill="#FFFFFF" mask="url(#mask-2)"></path>
                </g>
                <polyline id="Fill-5" fill="#FFFFFF" points="38.3988966 1.55110345 38.3988966 4.28341379 38.0427759 4.28341379 38.0427759 2.15313793 36.0411724 2.15313793 36.0411724 14.8034828 36.6229828 14.8034828 36.6229828 15.1106552 33.1145345 15.1106552 33.1145345 14.8034828 33.6831552 14.8034828 33.6831552 2.15313793 31.6944483 2.15313793 31.6944483 4.28341379 31.3395 4.28341379 31.3395 1.55110345 38.3988966 1.55110345"></polyline>
                <polyline id="Fill-6" fill="#FFFFFF" points="54.4108448 1.55110345 54.4108448 4.28341379 54.0561897 4.28341379 54.0561897 2.15313793 52.0531207 2.15313793 52.0531207 14.8034828 52.6358103 14.8034828 52.6358103 15.1106552 49.127069 15.1106552 49.127069 14.8034828 49.6959828 14.8034828 49.6959828 2.15313793 47.7069828 2.15313793 47.7069828 4.28341379 47.3523276 4.28341379 47.3523276 1.55110345 54.4108448 1.55110345"></polyline>
                <polyline id="Fill-7" fill="#FFFFFF" points="66.2337586 7.90587931 68.8327069 7.90587931 68.8327069 6.72144828 69.1879483 6.72144828 69.1879483 9.70260345 68.8327069 9.70260345 68.8327069 8.5082069 66.2337586 8.5082069 66.2337586 14.5071552 68.8327069 14.5071552 68.8327069 12.4604138 69.1879483 12.4604138 69.1879483 15.1106552 63.2933448 15.1106552 63.2933448 14.8034828 63.8760345 14.8034828 63.8760345 1.85827586 63.2933448 1.85827586 63.2933448 1.55110345 69.1879483 1.55110345 69.1879483 4.20193103 68.8327069 4.20193103 68.8327069 2.15313793 66.2337586 2.15313793 66.2337586 7.90587931"></polyline>
                <path d="M82.5862931,2.7452069 C82.5862931,2.48493103 82.6282069,2.29558621 82.4426724,2.09451724 C82.2442414,1.88143103 81.9458621,1.85827586 81.7187069,1.85827586 L80.9944483,1.85827586 L80.9944483,8.177 L81.8465,8.177 C82.115569,8.177 82.3295345,8.08262069 82.4719828,7.91672414 C82.642569,7.71506897 82.5862931,7.39558621 82.5862931,7.22998276 L82.5862931,2.7452069 Z M83.3381034,8.16468966 C83.3381034,8.24734483 84.2042241,8.31768966 84.8012759,8.72158621 C85.4121034,9.13427586 85.4695517,9.57217241 85.4695517,10.1762586 L85.4695517,14.8034828 L86.0507759,14.8034828 L86.0507759,15.1106552 L83.1094828,15.1106552 L83.1094828,9.69205172 C83.1094828,9.26441379 83.2097241,8.85172414 82.7985,8.6022931 C82.5420345,8.43639655 82.0598793,8.47274138 81.7893448,8.47274138 L80.9944483,8.47274138 L80.9944483,14.8034828 L81.5624828,14.8034828 L81.5624828,15.1106552 L78.0543276,15.1106552 L78.0543276,14.8034828 L78.636431,14.8034828 L78.636431,1.85827586 L78.0543276,1.85827586 L78.0543276,1.55110345 L82.1733103,1.55110345 C82.4567414,1.55110345 83.5075172,1.49072414 84.1054483,1.87058621 C84.7584828,2.28532759 84.9431379,2.83958621 84.9431379,3.52603448 L84.9431379,6.41427586 C84.9431379,6.55525862 84.9862241,7.20594828 84.4601034,7.65468966 C83.9779483,8.08262069 83.3381034,8.10518966 83.3381034,8.16468966 Z" id="Fill-8" fill="#FFFFFF"></path>
                <polyline id="Fill-9" fill="#FFFFFF" points="96.254 10.270931 93.7966207 1.85827586 93.2136379 1.85827586 93.2136379 1.55110345 96.7223793 1.55110345 96.7223793 1.85827586 96.154931 1.85827586 98.2277586 8.99417241 100.061707 1.85827586 99.4787241 1.85827586 99.4787241 1.55110345 101.395034 1.55110345 101.395034 1.85827586 100.827293 1.85827586 98.611431 10.2940862 98.611431 14.8034828 99.1785862 14.8034828 99.1785862 15.1106552 95.6713103 15.1106552 95.6713103 14.8034828 96.254 14.8034828 96.254 10.270931"></polyline>
                <path d="M114.041276,0.38162069 L114.041276,7.29886207 L115.413879,7.29886207 C115.461069,7.29886207 115.745966,7.31205172 115.918017,7.12827586 C116.073948,6.95768966 116.029103,6.70767241 116.029103,6.57606897 L116.029103,1.27675862 C116.029103,1.22341379 116.060759,0.723672414 115.918017,0.553086207 C115.777621,0.38162069 115.176466,0.38162069 115.160638,0.38162069 L114.041276,0.38162069 Z M114.041276,14.7691897 L115.444362,14.7691897 C115.493017,14.7691897 115.966086,14.7691897 116.202034,14.5854138 C116.454103,14.3743793 116.549069,14.1507414 116.549069,13.8485517 L116.549069,8.52139655 C116.549069,8.29863793 116.532362,8.11427586 116.391379,7.94281034 C116.233983,7.75903448 115.966086,7.70774138 115.665948,7.70774138 L114.041276,7.70774138 L114.041276,14.7691897 Z M119.167362,9.52205172 L119.167362,12.9147241 C119.167362,13.4941897 119.138052,13.9136207 118.725948,14.3743793 C118.159966,14.9925345 116.975241,15.1106552 116.471397,15.1106552 L110.791052,15.1106552 L110.791052,14.7691897 L111.422397,14.7691897 L111.422397,0.38162069 L110.791052,0.38162069 L110.791052,0.0401551724 L116.202034,0.0401551724 C116.880862,0.0401551724 117.385879,0.157982759 117.89119,0.539310345 C118.725948,1.17124138 118.647983,1.9467931 118.647983,1.96086207 L118.647983,5.5762931 C118.647983,5.59006897 118.678759,6.31403448 118.141793,6.76072414 C117.44831,7.33960345 116.912224,7.36568966 116.928052,7.43075862 C116.928052,7.53568966 117.89119,7.5225 118.584086,8.11427586 C118.993845,8.46922414 119.167362,8.83648276 119.167362,9.52205172 Z" id="Fill-10" fill="#FFFFFF"></path>
                <path d="M130.632397,10.4969138 L133.303741,10.4969138 L132.053069,3.12360345 L130.632397,10.4969138 Z M131.726845,1.85827586 L131.145621,1.85827586 L131.145621,1.55110345 L134.767793,1.55110345 L134.767793,1.85827586 L134.113293,1.85827586 L136.470431,14.8034828 L137.053414,14.8034828 L137.053414,15.1106552 L133.502466,15.1106552 L133.502466,14.8034828 L134.000155,14.8034828 L133.430948,11.0154138 L130.54769,11.0154138 L129.765397,14.8034828 L130.349845,14.8034828 L130.349845,15.1106552 L128.504466,15.1106552 L128.504466,14.8034828 L129.013586,14.8034828 L131.726845,1.85827586 Z" id="Fill-11" fill="#FFFFFF"></path>
                <path d="M150.440328,2.7452069 C150.440328,2.48493103 150.482534,2.29558621 150.297586,2.09451724 C150.098862,1.88143103 149.799897,1.85827586 149.572448,1.85827586 L148.849069,1.85827586 L148.849069,8.177 L149.701121,8.177 C149.968431,8.177 150.184448,8.08262069 150.32631,7.91672414 C150.495724,7.71506897 150.440328,7.39558621 150.440328,7.22998276 L150.440328,2.7452069 Z M151.191552,8.16468966 C151.191552,8.24734483 152.057966,8.31768966 152.655603,8.72158621 C153.264379,9.13427586 153.323,9.57217241 153.323,10.1762586 L153.323,14.8034828 L153.906276,14.8034828 L153.906276,15.1106552 L150.966155,15.1106552 L150.966155,9.69205172 C150.966155,9.26441379 151.063466,8.85172414 150.651948,8.6022931 C150.395483,8.43639655 149.915086,8.47274138 149.642793,8.47274138 L148.849069,8.47274138 L148.849069,14.8034828 L149.417983,14.8034828 L149.417983,15.1106552 L145.908948,15.1106552 L145.908948,14.8034828 L146.490759,14.8034828 L146.490759,1.85827586 L145.908948,1.85827586 L145.908948,1.55110345 L150.026759,1.55110345 C150.311362,1.55110345 151.363603,1.49072414 151.958603,1.87058621 C152.613397,2.28532759 152.796293,2.83958621 152.796293,3.52603448 L152.796293,6.41427586 C152.796293,6.55525862 152.839379,7.20594828 152.314431,7.65468966 C151.831103,8.08262069 151.191552,8.10518966 151.191552,8.16468966 Z" id="Fill-12" fill="#FFFFFF"></path>
                <polyline id="Fill-13" fill="#FFFFFF" points="166.932379 15.1106552 164.077259 3.84551724 164.077259 14.8034828 164.659069 14.8034828 164.659069 15.1106552 162.81281 15.1106552 162.81281 14.8034828 163.381431 14.8034828 163.381431 1.85827586 162.81281 1.85827586 162.81281 1.55110345 165.751759 1.55110345 168.720897 13.3007414 168.720897 1.85827586 168.153741 1.85827586 168.153741 1.55110345 170 1.55110345 170 1.85827586 169.41731 1.85827586 169.41731 15.1106552 166.932379 15.1106552"></polyline>
            </g>
        </g>
    </g>
</svg>