<?xml version="1.0" encoding="UTF-8"?>
<svg width="141px" height="27px" viewBox="0 0 141 27" version="1.1" xmlns="http://www.w3.org/2000/svg" xmlns:xlink="http://www.w3.org/1999/xlink">
    <!-- Generator: Sketch 51.2 (57519) - http://www.bohemiancoding.com/sketch -->
    <title>Logo/Google-play@2x</title>
    <desc>Created with Sketch.</desc>
    <defs>
        <linearGradient x1="91.4895098%" y1="4.9604069%" x2="-38.3173161%" y2="71.909245%" id="linearGradient-1">
            <stop stop-color="#00A0FF" offset="0%"></stop>
            <stop stop-color="#00A1FF" offset="0.66%"></stop>
            <stop stop-color="#00BEFF" offset="26.01%"></stop>
            <stop stop-color="#00D2FF" offset="51.22%"></stop>
            <stop stop-color="#00DFFF" offset="76.04%"></stop>
            <stop stop-color="#00E3FF" offset="100%"></stop>
        </linearGradient>
        <linearGradient x1="107.585647%" y1="50.0163647%" x2="-130.492257%" y2="50.0163647%" id="linearGradient-2">
            <stop stop-color="#FFE000" offset="0%"></stop>
            <stop stop-color="#FFBD00" offset="40.87%"></stop>
            <stop stop-color="#FFA500" offset="77.54%"></stop>
            <stop stop-color="#FF9C00" offset="100%"></stop>
        </linearGradient>
        <linearGradient x1="86.237735%" y1="117.851014%" x2="-50.1313759%" y2="294.785269%" id="linearGradient-3">
            <stop stop-color="#FF3A44" offset="0%"></stop>
            <stop stop-color="#C31162" offset="100%"></stop>
        </linearGradient>
        <linearGradient x1="-18.8012883%" y1="-154.171052%" x2="42.0936259%" y2="-75.1365546%" id="linearGradient-4">
            <stop stop-color="#32A071" offset="0%"></stop>
            <stop stop-color="#2DA771" offset="6.85%"></stop>
            <stop stop-color="#15CF74" offset="47.62%"></stop>
            <stop stop-color="#06E775" offset="80.09%"></stop>
            <stop stop-color="#00F076" offset="100%"></stop>
        </linearGradient>
    </defs>
    <g id="Logo/Google-play" stroke="none" stroke-width="1" fill="none" fill-rule="evenodd">
        <g id="Logo-Google-Play" fill-rule="nonzero">
            <g id="Group" transform="translate(11.500000, 13.000000) scale(1, -1) translate(-11.500000, -13.000000) ">
                <g id="g48" transform="translate(0.006570, 0.094358)" fill="url(#linearGradient-1)">
                    <path d="M0.848603658,23.9016804 C0.571321241,23.6123624 0.410851416,23.1619201 0.410851416,22.5785797 L0.410851416,1.77120434 C0.410851416,1.18786395 0.571321241,0.737421669 0.848603658,0.448103653 L0.917039318,0.38459482 L12.6148175,12.0396417 L12.6148175,12.3148467 L0.917039318,23.9698936 L0.848603658,23.9016804 Z" id="path64"></path>
                </g>
                <g id="g66" transform="translate(12.243811, 8.210102)" fill="url(#linearGradient-2)">
                    <path d="M4.27250907,0.036922586 L0.377576057,3.92389837 L0.377576057,4.19910331 L4.27722878,8.0860791 L4.36454324,8.03550725 L8.98277039,5.41635594 C10.3007468,4.67306738 10.3007468,3.4499343 8.98277039,2.70194138 L4.36454324,0.0874944343 L4.27250907,0.036922586 Z" id="path78"></path>
                </g>
                <g id="g80" transform="translate(0.444560, 0.094358)" fill="url(#linearGradient-3)">
                    <path d="M16.163795,8.20323779 L12.1768279,12.1772442 L0.410613962,0.448103653 C0.848366204,-0.0105712506 1.56222094,-0.065847457 2.37400946,0.392827447 L16.163795,8.20323779" id="path88"></path>
                </g>
                <g id="g90" transform="translate(0.444560, 12.271602)" fill="url(#linearGradient-4)">
                    <path d="M16.163795,3.97400641 L2.37400946,11.7844168 C1.56222094,12.2383873 0.848366204,12.1831111 0.410613962,11.7244362 L12.1768279,0 L16.163795,3.97400641 Z" id="path104"></path>
                </g>
            </g>
            <g id="Group-2" transform="translate(30.000000, 4.000000)" fill="#666666">
                <path d="M35.4746992,16.6444037 C32.3995488,16.6444037 29.887385,14.2304587 29.887385,10.8998899 C29.887385,7.59633028 32.3995488,5.15706422 35.4746992,5.15706422 C38.556396,5.15706422 41.0685598,7.59633028 41.0685598,10.8998899 C41.0685598,14.2304587 38.556396,16.6444037 35.4746992,16.6444037 Z M35.4746992,7.41908257 C33.7873762,7.41908257 32.3357219,8.85563303 32.3357219,10.8998899 C32.3357219,12.971156 33.7873762,14.3823853 35.4746992,14.3823853 C37.1620223,14.3823853 38.6202229,12.971156 38.6202229,10.8998899 C38.6202229,8.85563303 37.1620223,7.41908257 35.4746992,7.41908257 Z M23.2837491,16.6444037 C20.2020524,16.6444037 17.6964349,14.2304587 17.6964349,10.8998899 C17.6964349,7.59633028 20.2020524,5.15706422 23.2837491,5.15706422 C26.3638093,5.15706422 28.8710633,7.59633028 28.8710633,10.8998899 C28.8710633,14.2304587 26.3638093,16.6444037 23.2837491,16.6444037 Z M23.2837491,7.41908257 C21.5947895,7.41908257 20.1382254,8.85563303 20.1382254,10.8998899 C20.1382254,12.971156 21.5947895,14.3823853 23.2837491,14.3823853 C24.9710722,14.3823853 26.4227265,12.971156 26.4227265,10.8998899 C26.4227265,8.85563303 24.9710722,7.41908257 23.2837491,7.41908257 Z M8.77702583,14.8837431 L8.77702583,12.442789 L14.428167,12.442789 C14.2628715,11.0788257 13.8209926,10.0761101 13.1434448,9.37724771 C12.318604,8.53321101 11.0338818,7.59633028 8.77702583,7.59633028 C5.29927459,7.59633028 2.5759908,10.4913761 2.5759908,14.0785321 C2.5759908,17.6656881 5.29927459,20.5607339 8.77702583,20.5607339 C10.6574664,20.5607339 12.0256546,19.802789 13.0354299,18.8203303 L14.7031139,20.5404771 C13.2907378,21.9314495 11.4119338,23 8.77702583,23 C4.00800602,23 0,18.997578 0,14.0785321 C0,9.15948624 4.00800602,5.15706422 8.77702583,5.15706422 C11.3546532,5.15706422 13.2907378,6.02811009 14.8127654,7.66216514 C16.3724345,9.27089908 16.8585014,11.5329174 16.8585014,13.3594128 C16.8585014,13.9266055 16.8126769,14.4482202 16.7308475,14.8837431 L8.77702583,14.8837431 Z M68.0968241,12.9914128 C67.6369427,14.2760367 66.2180202,16.6444037 63.3278043,16.6444037 C60.4637739,16.6444037 58.079264,14.3165505 58.079264,10.8998899 C58.079264,7.68242202 60.4392251,5.15706422 63.6027512,5.15706422 C66.1607396,5.15706422 67.6369427,6.76579817 68.2441171,7.7026789 L66.3456741,9.00755963 C65.7123142,8.05211009 64.8498319,7.41908257 63.6027512,7.41908257 C62.3638535,7.41908257 61.4751858,8.00484404 60.9056529,9.15948624 L68.3537686,12.3381284 L68.0968241,12.9914128 Z M60.503052,11.0788257 C60.4392251,13.293578 62.170736,14.4279633 63.4112703,14.4279633 C64.3834041,14.4279633 65.2082449,13.9266055 65.4831918,13.2091743 L60.503052,11.0788257 Z M54.44931,5.50649541 L56.8976469,5.50649541 L56.8976469,22.3872294 L54.44931,22.3872294 L54.44931,5.50649541 Z M50.4396674,15.364844 L50.3578379,15.364844 C49.8079441,16.0366972 48.7588907,16.6444037 47.4299805,16.6444037 C44.6412332,16.6444037 42.0914278,14.1190459 42.0914278,10.8813211 C42.0914278,7.66216514 44.6412332,5.15706422 47.4299805,5.15706422 C48.7588907,5.15706422 49.8079441,5.76983486 50.3578379,6.46194495 L50.4396674,6.46194495 L50.4396674,5.63816514 C50.4396674,3.44198165 49.3022381,2.26201835 47.4676221,2.26201835 C45.9717799,2.26201835 45.043834,3.37614679 44.6608723,4.31302752 L42.5316702,3.39640367 C43.145391,1.87376147 44.7705237,0 47.4676221,0 C50.3381989,0 52.7603503,1.74209174 52.7603503,5.98084404 L52.7603503,16.2949725 L50.4396674,16.2949725 L50.4396674,15.364844 Z M47.6394639,7.41908257 C45.9521408,7.41908257 44.5397647,8.87588991 44.5397647,10.8813211 C44.5397647,12.9053211 45.9521408,14.3823853 47.6394639,14.3823853 C49.3022381,14.3823853 50.6131458,12.9053211 50.6131458,10.8813211 C50.6131458,8.87588991 49.3022381,7.41908257 47.6394639,7.41908257 Z M79.5594922,22.3872294 L73.7037774,22.3872294 L73.7037774,5.50649541 L76.1455679,5.50649541 L76.1455679,11.9026055 L79.5594922,11.9026055 C82.2713199,11.9026055 84.9307767,13.9266055 84.9307767,17.1457615 C84.9307767,20.3632294 82.2647735,22.3872294 79.5594922,22.3872294 Z M79.6233192,14.2507156 L76.1455679,14.2507156 L76.1455679,20.0391193 L79.6233192,20.0391193 C81.4464791,20.0391193 82.4873496,18.4776514 82.4873496,17.1457615 C82.4873496,15.8391927 81.4464791,14.2507156 79.6233192,14.2507156 Z M94.7175778,16.6764771 C92.9533351,16.6764771 91.118719,15.8729541 90.3642516,14.0920367 L92.5310952,13.155156 C92.997523,14.0920367 93.8550955,14.3958899 94.7617657,14.3958899 C96.0284855,14.3958899 97.3132077,13.6109358 97.3328468,12.2250275 L97.3328468,12.0477798 C96.8909678,12.3111193 95.9450195,12.7010642 94.7814048,12.7010642 C92.4476292,12.7010642 90.0696656,11.3759266 90.0696656,8.90289908 C90.0696656,6.64088073 91.9812013,5.18407339 94.1300425,5.18407339 C95.7731776,5.18407339 96.6798478,5.94877064 97.2493808,6.83838532 L97.3328468,6.83838532 L97.3328468,5.53350459 L99.6911713,5.53350459 L99.6911713,12.0089541 C99.6911713,15.0019083 97.5243277,16.6764771 94.7175778,16.6764771 Z M94.4229919,7.42583486 C93.6243365,7.42583486 92.5114561,7.83434862 92.5114561,8.85563303 C92.5114561,10.1622018 93.8992834,10.6635596 95.1005396,10.6635596 C96.1757785,10.6635596 96.6798478,10.418789 97.3328468,10.096367 C97.1413659,8.53321101 95.8370046,7.42583486 94.4229919,7.42583486 Z M108.283263,16.306789 L105.476513,8.98899083 L105.393047,8.98899083 L102.491375,16.306789 L99.8581033,16.306789 L104.217976,6.08044037 L101.730361,0.389944954 L104.281803,0.389944954 L111,16.306789 L108.283263,16.306789 Z M86.2727795,5.50649541 L88.7211164,5.50649541 L88.7211164,22.3872294 L86.2727795,22.3872294 L86.2727795,5.50649541 Z" id="path46" transform="translate(55.500000, 11.500000) scale(1, -1) translate(-55.500000, -11.500000) "></path>
            </g>
        </g>
    </g>
</svg>