<?xml version="1.0" encoding="UTF-8"?>
<svg width="120px" height="27px" viewBox="0 0 120 27" version="1.1" xmlns="http://www.w3.org/2000/svg" xmlns:xlink="http://www.w3.org/1999/xlink">
    <!-- Generator: Sketch 52.1 (67048) - http://www.bohemiancoding.com/sketch -->
    <title>Logo/Hotels.com</title>
    <desc>Created with Sketch.</desc>
    <defs>
        <polygon id="path-1" points="0 0 352 0 352 81 0 81"></polygon>
    </defs>
    <g id="Logo/Hotels.com" stroke="none" stroke-width="1" fill="none" fill-rule="evenodd">
        <g id="Bitmap">
            <mask id="mask-2" fill="white">
                <use xlink:href="#path-1"></use>
            </mask>
            <g id="Mask"></g>
        </g>
        <g id="Hotels.com_logo" transform="translate(3.000000, 4.000000)" fill="#FFFFFF">
            <path d="M105.049295,6.43127195 C104.950751,6.43127195 104.87221,6.34914695 104.87221,6.25389695 L104.87221,5.06327195 L104.530042,5.06327195 C104.446141,5.06327195 104.374281,4.99314695 104.374281,4.90839695 C104.374281,4.82102195 104.446179,4.75239695 104.530042,4.75239695 L105.567243,4.75239695 C105.649784,4.75239695 105.721683,4.82102195 105.721683,4.90839695 C105.721683,4.99314695 105.649784,5.06327195 105.567243,5.06327195 L105.223716,5.06327195 L105.223716,6.25389695 C105.223716,6.34914695 105.145175,6.43127195 105.04931,6.43127195 M107.612354,6.43127195 C107.516489,6.43127195 107.437948,6.34914695 107.437948,6.25389695 L107.437948,5.21803445 L106.991914,6.36632195 C106.977195,6.40382195 106.939981,6.43119695 106.897371,6.43119695 C106.856081,6.43119695 106.81883,6.40494695 106.804148,6.36632195 L106.358114,5.21803445 L106.358114,6.25389695 C106.358114,6.34914695 106.282215,6.43127195 106.18635,6.43127195 C106.087844,6.43127195 106.007944,6.34914695 106.007944,6.25389695 L106.007944,5.02355945 C106.007944,4.86343445 106.137097,4.73405945 106.294217,4.73405945 C106.418048,4.73405945 106.520555,4.81205945 106.563166,4.92193445 L106.897371,5.78844695 L107.235538,4.92193445 C107.274148,4.81205945 107.380656,4.73405945 107.501845,4.73405945 C107.661607,4.73405945 107.789439,4.86380945 107.789439,5.02355945 L107.789439,6.25389695 C107.789439,6.34914695 107.710898,6.43127195 107.612354,6.43127195" id="path3013" fill-rule="nonzero"></path>
            <path d="M13.8718519,4.22859695 C13.8718519,3.63328445 14.0582593,3.08162195 14.3738083,2.62389695 C13.4244854,2.90177195 12.7268031,3.76427195 12.7268031,4.79743445 L12.7268031,6.61779695 L13.8718519,6.67479695 L13.8718519,4.22859695 Z" id="path3017"></path>
            <path d="M12.7265691,16.746172 C12.7265691,17.779372 13.4242514,18.6419094 14.3749066,18.9197095 C14.0580253,18.4619845 13.8716179,17.910322 13.8716179,17.3150095 L13.8716179,13.900597 L12.7265691,13.900597 L12.7265691,16.746172 Z" id="path3021"></path>
            <path d="M15.5898233,13.9012345 L14.4447745,13.9012345 L14.4447745,17.3156845 C14.4447745,18.3488845 15.1424568,19.211422 16.0917797,19.489222 C15.7762194,19.031497 15.5898233,18.4798345 15.5898233,17.884522 L15.5898233,13.9012345 Z" id="path3025"></path>
            <path d="M15.5898233,3.65949695 C15.5898233,3.06418445 15.7762307,2.51252195 16.0917797,2.05479695 C15.1424568,2.33267195 14.4447745,3.19517195 14.4447745,4.22833445 L14.4447745,6.70352195 L15.5898233,6.76052195 L15.5898233,3.65949695 Z" id="path3029"></path>
            <path d="M2.67817127,2.93068445 C1.84068905,3.42677195 1.27348814,4.32767195 1.27348814,5.36615945 L1.27348814,16.1770345 C1.27348814,17.216872 1.84068905,18.1164595 2.67817127,18.612547 C2.51172934,18.213022 2.4185445,17.7751345 2.4185445,17.314747 L2.4185445,4.22844695 C2.4185445,3.76940945 2.51172934,3.33152195 2.67817127,2.93068445" id="path3033"></path>
            <path d="M4.13670837,3.09062195 C4.13670837,2.63158445 4.22989321,2.19369695 4.39633514,1.79285945 C3.55884914,2.28894695 2.99165201,3.18853445 2.99165201,4.22833445 L2.99165201,17.315947 C2.99165201,18.5383345 3.7718835,19.5715345 4.86234237,19.9736845 C4.40964672,19.3955845 4.13670082,18.671947 4.13670082,17.8847845 L4.13670837,3.09062195 Z" id="path3037"></path>
            <path d="M18.4530775,1.38365945 C17.188198,1.38365945 16.1629799,2.40230945 16.1629799,3.65908445 L16.1629799,7.35793445 L10.4364073,7.07368445 L10.4364073,3.09035945 C10.4364073,1.52008445 9.1542194,0.24609695 7.57245488,0.24609695 C5.99069037,0.24609695 4.70983476,1.52008445 4.70983476,3.09035945 L4.70983476,17.8845595 C4.70983476,19.4561845 5.99069037,20.728822 7.57245488,20.728822 C9.1542194,20.728822 10.4364073,19.4561845 10.4364073,17.8845595 L10.4364073,13.332397 L16.1629799,13.332397 L16.1629799,17.8845595 C16.1629799,19.1413345 17.188198,20.159947 18.4530775,20.159947 C19.7179569,20.159947 20.7431751,19.1413345 20.7431751,17.8845595 L20.7431751,3.65923445 C20.7431751,2.40245945 19.7179569,1.38380945 18.4530775,1.38380945" id="path3041"></path>
            <path d="M38.2256321,15.240697 L38.2256321,11.027197 L32.0397062,11.027197 L32.0397062,15.240697 C32.0397062,15.690472 31.670892,16.072822 31.2182039,16.072822 C30.7495321,16.072822 30.3634095,15.690472 30.3634095,15.240697 L30.3634095,5.62970945 C30.3634095,5.17993445 30.7495321,4.79758445 31.202224,4.79758445 C31.6708958,4.79758445 32.0397062,5.17993445 32.0397062,5.62970945 L32.0397062,9.54422195 L38.2256321,9.54422195 L38.2256321,5.62970945 C38.2256321,5.17993445 38.5944463,4.79758445 39.0644466,4.79758445 C39.5331184,4.79758445 39.9019289,5.17993445 39.9019289,5.62970945 L39.9019289,15.240697 C39.9019289,15.690472 39.5331147,16.072822 39.0644466,16.072822 C38.5944425,16.072822 38.2256321,15.690472 38.2256321,15.240697" id="path3045"></path>
            <path d="M41.0865878,11.9591844 C41.0865878,9.64408445 42.6630269,7.74568445 45.1768059,7.74568445 C47.7078971,7.74568445 49.2670278,9.64408445 49.2670278,11.9591844 C49.2670278,14.2914969 47.7078971,16.1898594 45.1768059,16.1898594 C42.6630269,16.1898594 41.0865878,14.2914969 41.0865878,11.9591844 M47.6919209,11.9591844 C47.6919209,10.4431344 46.8025096,9.07787195 45.1768059,9.07787195 C43.5670822,9.07787195 42.6630269,10.4431344 42.6630269,11.9591844 C42.6630269,13.4911345 43.5670822,14.8577095 45.1768059,14.8577095 C46.8025096,14.8577095 47.6919209,13.4911345 47.6919209,11.9591844" id="path3049" fill-rule="nonzero"></path>
            <path d="M58.0365326,7.74545945 C60.4677624,7.74545945 61.9762962,9.62795945 61.9762962,11.7432969 C61.9762962,12.1931094 61.6567352,12.4590219 61.0868886,12.4590219 L55.5720144,12.4590219 C55.6892031,13.8242469 56.6957616,14.9579844 58.3214615,14.9579844 C59.0084931,14.9579844 59.7301378,14.7408595 60.3332879,14.3071344 C60.4171882,14.2411344 60.5343391,14.2250094 60.6688137,14.2250094 C61.0043395,14.2250094 61.27196,14.4908844 61.27196,14.8242594 C61.27196,15.0398844 61.1707739,15.2066094 61.0043319,15.3243219 C60.198802,15.9064344 59.2428214,16.1895219 58.1710033,16.1895219 C55.7570782,16.1895219 53.9795915,14.4908844 53.9795915,11.9588469 C53.9795915,9.62784695 55.6731967,7.74534695 58.036525,7.74534695 M55.5560307,11.3767344 L60.5010432,11.3767344 C60.4678303,10.3104969 59.7461101,8.97830945 58.036525,8.97830945 C56.4108213,8.97830945 55.6385798,10.2774219 55.5560307,11.3767344" id="path3053" fill-rule="nonzero"></path>
            <path d="M62.9363076,15.3237594 L62.9363076,5.54608445 C62.9363076,5.13069695 63.2718334,4.79732195 63.6912407,4.79732195 C64.0933395,4.79732195 64.4448415,5.13069695 64.4448415,5.54608445 L64.4448415,15.3237594 C64.4448415,15.7404594 64.0933508,16.0738344 63.6912407,16.0738344 C63.2718334,16.0738344 62.9363076,15.7404594 62.9363076,15.3237594" id="path3057"></path>
            <path d="M65.4151036,14.7574345 C65.4151036,14.3910595 65.7000175,14.1078969 66.0688468,14.1078969 C66.2033213,14.1078969 66.3364748,14.1581469 66.4376609,14.2241469 C67.0581195,14.6739594 67.8623171,14.990122 68.7171078,14.990122 C69.8568312,14.990122 70.4599775,14.524447 70.4599775,13.840522 C70.4599775,13.041472 69.5386139,12.7755595 68.498748,12.542722 C67.1246925,12.225097 65.5162973,11.8587595 65.5162973,10.1270845 C65.5162973,8.84518445 66.6214038,7.74583445 68.5999379,7.74583445 C69.7236852,7.74583445 70.6117643,8.07770945 71.298792,8.57795945 C71.4492314,8.69420945 71.5664201,8.86108445 71.5664201,9.07802195 C71.5664201,9.40989695 71.2815062,9.69317195 70.9472976,9.69317195 C70.8301089,9.69317195 70.6956344,9.64404695 70.6117718,9.57692195 C70.0925032,9.19460945 69.3881669,8.96177195 68.6172577,8.96177195 C67.5947004,8.96177195 66.9569371,9.36129695 66.9569371,10.0108345 C66.9569371,10.7106595 67.8290363,10.943497 68.8342814,11.1763345 C70.2429576,11.4924595 71.9192544,11.8761595 71.9192544,13.724272 C71.9192544,15.1067095 70.7795347,16.190197 68.6505423,16.190197 C67.5267989,16.190197 66.5215499,15.907072 65.7000439,15.2906095 C65.532281,15.1743595 65.41513,14.9744845 65.41513,14.757472" id="path3061"></path>
            <path d="M73.898415,14.0912095 C74.4682768,14.0912095 74.954257,14.5581969 74.954257,15.1244095 C74.954257,15.690622 74.4682768,16.173472 73.898415,16.173472 C73.3285533,16.173472 72.858553,15.690622 72.858553,15.1244095 C72.858553,14.5581969 73.3285533,14.0912095 73.898415,14.0912095" id="path3065"></path>
            <path d="M82.7867541,11.9591844 C82.7867541,9.64408445 84.3618609,7.74568445 86.8769722,7.74568445 C89.4080634,7.74568445 90.967194,9.64408445 90.967194,11.9591844 C90.967194,14.2914969 89.4080634,16.1898594 86.8769722,16.1898594 C84.3618609,16.1898594 82.7867541,14.2914969 82.7867541,11.9591844 M89.3920872,11.9591844 C89.3920872,10.4431344 88.5026759,9.07787195 86.8769722,9.07787195 C85.2672484,9.07787195 84.3618609,10.4431344 84.3618609,11.9591844 C84.3618609,13.4911345 85.2672484,14.8577095 86.8769722,14.8577095 C88.5026759,14.8577095 89.3920872,13.4911345 89.3920872,11.9591844" id="path3069" fill-rule="nonzero"></path>
            <path d="M103.449154,10.1769595 L103.449154,15.3244345 C103.449154,15.739822 103.096305,16.0731969 102.678245,16.0731969 C102.276146,16.0731969 101.94062,15.739822 101.94062,15.3244345 L101.94062,10.6267344 C101.94062,9.69410945 101.521213,9.24429695 100.531944,9.24429695 C99.710438,9.24429695 98.9062404,10.1624094 98.5201215,10.7457969 L98.5201215,15.3244344 C98.5201215,15.7398219 98.1859167,16.0731969 97.7665169,16.0731969 C97.3644219,16.0731969 97.0115839,15.7398219 97.0115839,15.3244344 L97.0115839,10.6267344 C97.0115839,9.69410945 96.6094889,9.24429695 95.5869315,9.24429695 C94.7987138,9.24429695 94.0118247,10.2179844 93.6083973,10.8000594 L93.6083973,15.3244344 C93.6083973,15.7398219 93.2569067,16.0731969 92.8547928,16.0731969 C92.4353855,16.0731969 92.0998597,15.7398219 92.0998597,15.3244344 L92.0998597,8.61193445 C92.0998597,8.19523445 92.4353855,7.86185945 92.8374843,7.86185945 C93.2568916,7.86185945 93.6083973,8.19523445 93.6083973,8.61193445 L93.6083973,9.07760945 C93.9439231,8.57754695 95.0170698,7.74542195 96.2233662,7.74542195 C97.4483034,7.74542195 98.1686158,8.37778445 98.4202601,9.24429695 C98.8889319,8.49422195 99.9847162,7.74542195 101.175036,7.74542195 C102.66759,7.74542195 103.449154,8.56168445 103.449154,10.1769594" id="path3073"></path>
            <path d="M79.4758315,7.74545945 C80.6328633,7.74545945 81.4370609,8.11183445 82.0575157,8.67812195 C82.1906693,8.79437195 82.2918554,8.99424695 82.2918554,9.17818445 C82.2918554,9.56049695 81.989618,9.86079695 81.6221361,9.86079695 C81.4370496,9.86079695 81.2866103,9.79329695 81.1681119,9.69392195 C80.6994401,9.26132195 80.1801715,9.07745945 79.5424082,9.07745945 C77.9499929,9.07745945 76.9274356,10.2932094 76.9274356,11.9587719 C76.9274356,13.6242969 77.9513215,14.8043469 79.5424082,14.8572594 C80.6168909,14.8947594 81.6993599,14.1177594 82.5687982,12.7538469 C82.6766646,12.5843469 82.8350675,12.2696469 82.9655716,12.1056219 C83.2118755,11.7962469 83.3876397,11.9443719 83.5327687,12.094372 C83.7990381,12.370747 83.7963961,13.0270345 83.6233116,13.3498345 C83.1346668,14.256022 82.7232495,14.6780469 82.25591,15.131797 C81.6048314,15.7588719 80.6328709,16.1888095 79.475839,16.1888095 C77.0286293,16.1888095 75.3523325,14.3737719 75.3523325,11.9581345 C75.3523325,9.54380945 77.0286293,7.74463445 79.475839,7.74463445" id="path3077"></path>
            <path d="M55.0571427,14.756647 C55.0571427,15.039772 54.240962,15.6734095 53.6537918,15.9565345 C53.319587,16.1177845 52.9827402,16.1894095 52.4967599,16.1894095 C51.222562,16.1894095 50.5688189,15.4737219 50.5688189,14.2076845 L50.5688189,9.26128445 L49.7979096,9.26128445 C49.446419,9.26128445 49.126858,8.96090945 49.126858,8.59453445 C49.126858,8.24540945 49.446419,7.94499695 49.7979096,7.94499695 L50.5688189,7.94499695 L50.5688189,6.41304695 C50.5688189,5.99634695 50.9043447,5.66297195 51.3237519,5.66297195 C51.7258507,5.66297195 52.0773527,5.99634695 52.0773527,6.41304695 L52.0773527,7.94499695 L53.1345269,7.94499695 C53.5020202,7.94499695 53.8042463,8.24537195 53.8042463,8.59453445 C53.8042463,8.96090945 53.5020089,9.26128445 53.1345269,9.26128445 L52.0773527,9.26128445 L52.0773527,13.8743095 C52.0773527,14.440522 52.3463017,14.857222 52.8655741,14.857222 C53.7882701,14.857222 54.5139117,13.4337595 54.9226644,13.4337595 C55.3074547,13.4337595 55.0571389,14.3902344 55.0571389,14.7566845" id="path3081"></path>
        </g>
    </g>
</svg>