<svg width="1070" height="420" viewBox="0 0 1070 420" fill="none" xmlns="http://www.w3.org/2000/svg">
  <path d="M470 116H510V276H550V76H510C488 76 470 94 470 116Z" fill="#1B314F"/>
  <path d="M590 276H630V196C630 174 612 156 590 156V276Z" fill="#1B314F"/>
  <path d="M670 156V276H710V196H750V236C750 258 768 276 790 276V196C790 174 772 156 750 156H670Z" fill="#1B314F"/>
  <path d="M1030 156H990V116C990 94 972 76 950 76V236H870V196H910V156H870C848 156 830 174 830 196V236C830 258 848 276 870 276H990V196H1030V236C1030 258 1048 276 1070 276V196C1070 174 1052 156 1030 156Z" fill="#1B314F"/>
  <path d="M590 116H630C630 94 612 76 590 76V116Z" fill="#1B314F"/>
  <path fill-rule="evenodd" clip-rule="evenodd" d="M532.363 316V342.177H528.698L514.301 324.04V342.177H510V316H513.665L528.062 334.212V316H532.363ZM613.729 342.177H598.21V316H613.356V320.301H602.81V326.807H612.234V331.108H602.81V337.877H613.729V342.177ZM679.577 320.301H688.066V342.177H692.665V320.301H701.154V316H679.577V320.301ZM799.05 316H803.463L795.983 342.177H791.683L785.363 323.255L779.155 342.177H774.817L767.001 316H772.162L777.435 334.661L783.269 316H787.831L793.814 334.698L799.05 316ZM873.124 319.889C870.581 322.482 869.31 325.686 869.31 329.5C869.31 333.514 870.594 336.767 873.162 339.26C875.729 341.753 878.983 343 882.922 343C886.836 343 890.09 341.729 892.682 339.186C895.275 336.643 896.572 333.414 896.572 329.5C896.572 325.511 895.275 322.258 892.682 319.74C890.115 317.247 886.861 316 882.922 316C878.983 316 875.717 317.296 873.124 319.889ZM876.677 336.082C875.007 334.337 874.171 332.143 874.171 329.5C874.171 326.807 874.994 324.601 876.639 322.881C878.31 321.161 880.404 320.301 882.922 320.301C885.39 320.301 887.472 321.161 889.167 322.881C890.862 324.626 891.71 326.832 891.71 329.5C891.71 332.143 890.912 334.337 889.317 336.082C887.746 337.827 885.615 338.699 882.922 338.699C880.429 338.699 878.347 337.827 876.677 336.082ZM967.018 332.454V342.252H962.419V316.075C963.715 316.075 965.124 316.062 966.644 316.037C968.165 316.012 969.412 316 970.384 316C976.716 316 979.883 318.693 979.883 324.078C979.883 326.072 979.372 327.717 978.349 329.014C977.327 330.26 976.156 331.108 974.834 331.557L983.024 342.252H977.452L970.234 332.454H967.018ZM970.16 320.301C970.035 320.301 969.836 320.313 969.561 320.338C969.287 320.338 968.901 320.35 968.402 320.375H967.018V328.154H970.01C971.481 328.154 972.678 327.792 973.6 327.069C974.548 326.346 975.021 325.361 975.021 324.115C975.021 321.572 973.401 320.301 970.16 320.301ZM1048.87 342.177H1053.47V328.677L1064.17 342.177H1070L1058.56 328.191L1069.33 316H1063.79L1053.47 328.416V316H1048.87V342.177Z" fill="#2F7AEA"/>
  <path d="M104.449 229.147L114.949 150.069L23.73 86.7412L107.074 114.96L126.761 84.7725L198.621 40.1475L357.105 127.429L365.308 260.647L294.761 358.757L238.98 367.288L267.855 314.46V263.601L246.855 223.897L225.527 209.788L192.714 243.585V279.351L167.121 303.304L134.636 307.241L120.199 315.444L96.5737 307.897L86.73 272.46L104.449 247.522V229.147Z" fill="white"/>
  <path d="M250.136 86.0848C232.746 82.4754 213.715 83.4598 213.715 83.4598C213.715 83.4598 207.48 112.335 168.761 119.882C169.09 119.882 219.949 137.272 250.136 86.0848Z" fill="#94A6C3"/>
  <path d="M265.886 347.929C286.886 331.523 302.636 308.882 309.855 283.288C310.183 282.304 313.136 280.663 315.105 279.351C318.386 277.382 321.667 275.741 322.324 273.116C323.636 265.569 324.292 257.694 324.292 249.819C324.292 246.866 321.339 243.913 318.386 240.96C316.089 238.991 313.792 236.694 313.792 235.054C310.511 205.194 296.73 177.304 274.746 156.96L272.449 159.257C293.777 179.273 307.558 206.507 310.511 235.382C310.839 238.007 313.464 240.632 316.089 243.257C318.386 245.226 321.011 248.179 321.011 249.491C321.011 257.038 320.355 264.585 319.042 272.132C318.714 273.444 315.761 274.757 313.464 276.069C310.183 277.71 307.23 279.351 306.574 281.976C298.699 309.866 280.652 334.148 256.699 349.898C260.964 340.71 274.417 310.851 281.636 295.757L280.324 247.194L238.652 206.835L215.027 210.116L189.105 252.116C189.105 252.116 201.246 267.538 184.183 285.585C167.449 303.304 154.324 307.241 154.324 307.241L142.183 300.679C145.792 296.085 153.011 289.194 158.589 284.601C168.105 276.726 177.621 276.069 177.621 267.538C177.949 249.819 158.917 254.741 158.917 254.741L152.027 261.304L149.074 285.585L134.636 303.632L132.996 303.304L109.371 298.054C109.371 298.054 123.808 290.507 126.105 281.976C128.402 273.773 121.511 246.538 121.183 244.898C121.511 245.226 128.074 250.804 131.027 259.991C136.277 245.554 143.167 231.773 145.136 230.46C147.105 229.148 173.683 215.038 173.683 215.038L164.824 238.335L171.386 234.726L187.136 196.007C187.136 196.007 202.558 188.46 214.042 188.46C234.714 188.132 265.23 162.866 251.449 117.585C255.386 119.226 323.636 153.351 335.449 220.288C344.308 271.804 315.105 320.038 265.886 347.929Z" fill="#94A6C3"/>
  <path d="M187.793 93.3039C195.34 84.4445 192.386 71.3195 192.386 71.3195L170.402 103.804C170.074 103.804 178.277 104.132 187.793 93.3039Z" fill="#1B314F"/>
  <path d="M113.964 270.82L116.589 257.695C116.589 257.695 105.761 276.726 104.777 279.351C103.793 282.305 105.433 287.555 109.699 287.226C113.964 286.898 119.214 280.664 119.214 276.07C119.214 270.164 113.964 270.82 113.964 270.82Z" fill="#1B314F"/>
  <path d="M308.871 62.1324C308.871 62.1324 325.277 62.7886 342.339 64.7574C303.949 34.5699 267.527 25.7105 237.996 25.7105C197.308 25.7105 169.746 42.4449 168.105 43.4292L180.902 23.0855C180.902 23.0855 129.714 18.1636 111.667 72.3042C107.074 60.8199 102.808 44.0855 102.808 44.0855C102.808 44.0855 76.23 67.3824 88.6987 106.101C58.1831 94.9449 14.5425 79.523 12.9019 79.1949C10.605 78.8667 9.94875 79.8511 9.94875 79.8511C9.94875 79.8511 9.2925 80.8355 11.2613 82.4761C14.8706 85.4292 83.7769 136.289 98.8706 146.132C95.5894 157.945 95.5894 163.523 98.8706 169.101C103.464 176.648 103.792 180.585 103.136 186.164C102.48 191.742 96.5737 239.976 95.2612 245.882C93.9487 251.789 80.1675 272.789 80.8238 279.023C81.48 285.257 90.0113 311.835 97.5581 314.789C103.136 316.757 116.918 321.023 126.105 321.023C129.386 321.023 132.339 320.367 133.652 319.054C139.23 314.132 140.871 313.148 144.808 313.148C145.136 313.148 145.464 313.148 145.793 313.148C147.433 313.148 149.402 313.476 151.699 313.476C156.949 313.476 163.839 312.492 168.761 307.898C175.98 300.679 188.449 290.835 192.386 286.242C197.308 280.007 199.933 271.476 198.621 262.945C197.636 255.07 201.902 248.179 206.824 241.289C213.058 233.085 224.542 218.32 224.542 218.32C247.183 235.382 261.292 261.304 261.292 290.179C261.292 341.367 216.668 382.71 161.543 382.71C153.011 382.71 144.808 381.726 136.605 379.757C161.871 388.617 183.199 391.57 200.589 391.57C237.667 391.57 257.355 378.117 257.355 378.117C257.355 378.117 250.464 386.976 239.308 397.148C239.636 397.148 239.636 397.148 239.636 397.148C300.996 388.617 330.855 338.085 330.855 338.085C330.855 338.085 328.558 354.492 325.605 365.648C407.308 304.289 393.527 227.507 393.199 224.882C393.855 225.867 402.058 235.71 406.324 240.96C419.449 105.773 308.871 62.1324 308.871 62.1324ZM183.199 278.039C181.886 279.679 176.308 284.601 172.371 288.21C168.433 291.82 164.168 295.429 160.886 298.71C159.574 300.023 156.949 300.679 153.011 300.679C151.699 300.679 150.386 300.679 149.402 300.679C148.746 300.679 148.089 300.679 147.433 300.679C146.777 300.679 146.449 300.679 146.121 300.679C145.136 300.679 144.152 300.679 143.167 300.679C148.089 294.117 162.527 279.023 167.449 275.742C173.355 271.804 176.308 267.867 172.699 260.976C169.089 254.085 159.574 255.726 159.574 255.726C159.574 255.726 165.152 253.429 170.074 253.429C163.839 251.789 155.964 253.429 152.355 257.039C148.418 260.648 149.074 273.445 147.433 281.648C145.793 290.179 140.214 294.445 131.683 302.32C127.089 306.585 123.808 307.898 121.183 307.898C115.605 306.914 109.042 305.273 104.449 303.632C101.167 299.367 96.2456 285.257 94.9331 279.351C95.9175 276.07 99.855 269.179 101.824 265.242C105.761 257.695 108.058 253.429 108.714 249.492C110.027 243.914 114.293 209.46 115.933 195.023C120.199 200.601 126.105 209.789 124.793 215.695C134.308 202.242 127.418 189.117 124.136 183.867C121.183 178.617 117.246 168.117 120.527 156.96C123.808 145.804 135.621 114.96 135.621 114.96C135.621 114.96 139.558 121.851 145.136 120.539C150.714 119.226 195.667 51.6324 195.667 51.6324C195.667 51.6324 207.808 78.2105 195.011 97.5699C181.886 116.929 169.089 120.539 169.089 120.539C169.089 120.539 187.136 123.82 203.871 111.679C210.761 127.757 217.324 144.492 217.652 146.789C216.667 149.085 203.542 180.585 202.23 182.554C201.574 183.21 196.98 184.523 193.699 185.179C188.121 186.82 184.839 187.804 183.527 188.789C181.23 190.757 170.73 219.632 165.808 233.742C159.902 235.382 153.996 238.664 149.73 245.226C152.027 243.585 159.246 242.601 164.496 241.945C169.089 241.617 183.199 249.164 186.808 263.273C186.808 263.601 186.808 263.601 186.808 263.929C187.464 269.179 185.824 274.101 183.199 278.039ZM152.355 281.976C155.308 277.71 154.98 270.492 155.308 268.195C155.636 265.898 156.293 261.632 158.918 260.976C161.543 260.32 167.777 261.304 167.777 265.898C167.777 270.164 163.183 271.148 159.902 274.101C157.605 276.398 153.011 281.32 152.355 281.976ZM283.277 219.304C286.558 202.57 286.886 188.132 285.902 176.32C298.699 193.382 306.574 214.054 308.871 235.382C309.199 238.007 311.824 240.632 314.449 243.257C316.746 245.226 319.371 247.851 319.371 249.492C319.371 257.039 318.714 264.585 317.402 272.132C317.074 273.117 314.121 274.757 311.824 276.07C308.542 277.71 305.589 279.351 304.933 281.976C297.714 307.242 282.292 329.554 261.621 345.304C292.136 313.476 306.902 260.976 283.277 219.304ZM262.605 348.257C283.933 331.851 300.339 308.882 307.558 282.96C307.886 281.976 310.839 280.335 312.808 279.023C316.089 277.382 319.371 275.414 320.027 272.789C321.339 265.242 321.996 257.367 321.996 249.492C321.996 246.539 319.043 243.585 316.089 240.632C314.449 238.664 311.824 236.367 311.824 234.726C309.199 210.773 299.683 188.132 284.918 169.429C278.355 130.054 252.105 117.914 251.449 117.585C252.105 118.57 269.168 143.179 257.355 172.054C245.214 201.257 214.043 196.664 211.418 196.992C208.793 196.992 198.621 210.117 185.824 234.398C184.183 233.742 177.292 232.101 169.417 233.414C175.324 217.007 184.183 193.71 185.824 191.742C186.48 191.085 191.402 189.773 194.683 188.789C200.917 187.148 203.871 186.164 204.855 184.851C205.511 183.867 208.792 176.32 212.074 168.445C215.027 168.445 222.574 167.789 223.23 167.46C223.886 166.804 230.121 150.726 230.121 148.757C230.121 147.117 217.324 115.289 212.402 103.148C214.699 100.523 216.996 97.2417 219.292 93.6324C286.558 100.851 339.058 157.945 339.058 227.179C339.058 280.335 307.886 326.601 262.605 348.257Z" fill="#1B314F"/>
  <path d="M175.324 171.07C181.558 163.851 178.277 150.398 166.793 148.101C169.746 141.21 174.011 127.429 174.011 127.429C174.011 127.429 140.543 179.929 137.589 180.913C134.636 181.898 131.683 170.413 131.683 170.413C125.449 194.367 142.183 197.648 144.152 190.101C153.339 187.804 169.089 177.96 175.324 171.07Z" fill="#1B314F"/>
  <path d="M146.777 183.867L163.839 154.664C163.839 154.664 173.683 159.586 168.761 167.461C162.527 176.648 146.777 183.867 146.777 183.867Z" fill="#FFD923"/>
  <path d="M357.761 319.054C352.839 325.617 347.261 332.507 340.699 339.07C383.027 257.695 342.668 183.21 341.027 180.257C343.98 183.21 346.933 186.492 349.558 189.445C382.043 225.539 385.98 279.679 357.761 319.054Z" fill="#D82122"/>
  <path d="M397.136 214.382C382.371 174.679 361.371 140.882 315.105 110.367C270.48 80.8353 222.574 83.1322 219.949 83.4603C219.621 83.4603 219.293 83.4603 219.293 83.4603C220.933 82.8041 222.574 82.476 224.214 82.1478C234.386 78.8666 247.511 76.2416 260.636 74.601C295.418 69.6791 330.527 81.4916 354.48 106.757C354.808 107.085 354.808 107.085 355.136 107.413C382.371 136.288 396.48 172.382 397.136 214.382Z" fill="#D82122"/>
  <path d="M304.605 51.9612C255.714 42.7737 224.214 47.3674 201.574 55.8987C200.918 53.2737 198.621 48.0237 196.652 43.758C189.761 51.9612 182.543 61.8049 177.949 68.0393C165.48 76.5705 160.23 84.7737 160.23 84.7737C167.449 60.1643 188.449 41.7893 214.043 37.1956C221.261 35.8831 229.136 35.2268 237.668 35.2268C260.308 35.5549 282.949 41.1331 304.605 51.9612Z" fill="#D82122"/>
  <path d="M123.808 114.961C85.4177 113.649 98.2145 69.0237 98.8708 66.3987C98.8708 66.7268 101.496 101.508 123.808 114.961Z" fill="#D82122"/>
  <path d="M161.543 34.5701C132.011 52.2888 137.918 94.6169 137.918 94.6169C109.699 51.6326 159.246 35.5544 161.543 34.5701Z" fill="#D82122"/>
  <path d="M112.98 126.773C114.949 128.414 116.918 131.367 114.621 135.632C113.308 137.929 111.34 137.601 108.386 136.289C104.449 134.32 80.824 120.539 59.4958 106.429C83.7771 114.96 108.386 124.148 112.324 126.117C112.324 126.117 112.652 126.445 112.98 126.773Z" fill="white"/>
</svg>