<svg width="398" height="375" viewBox="0 0 398 375" fill="none" xmlns="http://www.w3.org/2000/svg">
  <path d="M94.6052 206.178L105.105 127.1L13.8862 63.7719L97.2302 91.9907L116.917 61.8032L188.777 17.1782L347.261 104.46L355.464 237.678L284.917 335.788L229.136 344.319L258.011 291.491V240.632L237.011 200.928L215.683 186.819L182.87 220.616V256.382L157.277 280.335L124.792 284.272L110.355 292.475L86.7299 284.928L76.8862 249.491L94.6052 224.553V206.178Z" fill="white"/>
  <path d="M240.292 63.1158C222.902 59.5064 203.871 60.4908 203.871 60.4908C203.871 60.4908 197.636 89.366 158.917 96.913C159.246 96.913 210.105 114.303 240.292 63.1158Z" fill="#94A6C3"/>
  <path d="M256.042 324.96C277.042 308.554 292.792 285.913 300.011 260.319C300.339 259.335 303.292 257.694 305.261 256.382C308.542 254.413 311.823 252.772 312.48 250.147C313.792 242.6 314.448 234.725 314.448 226.85C314.448 223.897 311.495 220.944 308.542 217.991C306.245 216.022 303.948 213.725 303.948 212.085C300.667 182.225 286.886 154.335 264.902 133.991L262.605 136.288C283.933 156.304 297.714 183.538 300.667 212.413C300.995 215.038 303.62 217.663 306.245 220.288C308.542 222.257 311.167 225.21 311.167 226.522C311.167 234.069 310.511 241.616 309.198 249.163C308.87 250.475 305.917 251.788 303.62 253.1C300.339 254.741 297.386 256.382 296.73 259.007C288.855 286.897 270.808 311.179 246.855 326.929C251.12 317.741 264.573 287.882 271.792 272.788L270.48 224.225L228.808 183.866L205.183 187.147L179.261 229.147C179.261 229.147 191.402 244.569 174.339 262.616C157.605 280.335 144.48 284.272 144.48 284.272L132.339 277.71C135.948 273.116 143.167 266.225 148.745 261.632C158.261 253.757 167.777 253.1 167.777 244.569C168.105 226.85 149.073 231.772 149.073 231.772L142.183 238.335L139.23 262.616L124.792 280.663L123.152 280.335L99.5273 275.085C99.5273 275.085 113.964 267.538 116.261 259.007C118.558 250.804 111.667 223.569 111.339 221.929C111.667 222.257 118.23 227.835 121.183 237.022C126.433 222.585 133.323 208.804 135.292 207.491C137.261 206.179 163.839 192.069 163.839 192.069L154.98 215.366L161.542 211.757L177.292 173.038C177.292 173.038 192.714 165.491 204.198 165.491C224.87 165.163 255.386 139.897 241.605 94.6157C245.542 96.2567 313.792 130.382 325.605 197.319C334.464 248.835 305.261 297.069 256.042 324.96Z" fill="#94A6C3"/>
  <path d="M177.949 70.3345C185.496 61.4751 182.542 48.3501 182.542 48.3501L160.558 80.8346C160.23 80.8346 168.433 81.1626 177.949 70.3345Z" fill="#1B314F"/>
  <path d="M104.12 247.851L106.745 234.726C106.745 234.726 95.9172 253.757 94.9332 256.382C93.9492 259.336 95.5892 264.586 99.8552 264.257C104.12 263.929 109.37 257.695 109.37 253.101C109.37 247.195 104.12 247.851 104.12 247.851Z" fill="#1B314F"/>
  <path d="M299.027 39.1634C299.027 39.1634 315.433 39.8196 332.495 41.7884C294.105 11.6009 257.683 2.7415 228.152 2.7415C187.464 2.7415 159.902 19.4759 158.261 20.4602L171.058 0.116496C171.058 0.116496 119.87 -4.8054 101.823 49.3352C97.2302 37.8509 92.9642 21.1165 92.9642 21.1165C92.9642 21.1165 66.3862 44.4134 78.8549 83.132C48.3393 71.9759 4.69875 56.554 3.05815 56.2259C0.761247 55.8977 0.104997 56.8821 0.104997 56.8821C0.104997 56.8821 -0.551253 57.8665 1.41755 59.5071C5.02685 62.4602 73.9331 113.32 89.0268 123.163C85.7456 134.976 85.7456 140.554 89.0268 146.132C93.6202 153.679 93.9483 157.616 93.2923 163.195C92.6363 168.773 86.7299 217.007 85.4174 222.913C84.1049 228.82 70.3237 249.82 70.98 256.054C71.6362 262.288 80.1675 288.866 87.7143 291.82C93.2922 293.788 107.074 298.054 116.261 298.054C119.542 298.054 122.495 297.398 123.808 296.085C129.386 291.163 131.027 290.179 134.964 290.179C135.292 290.179 135.62 290.179 135.949 290.179C137.589 290.179 139.558 290.507 141.855 290.507C147.105 290.507 153.995 289.523 158.917 284.929C166.136 277.71 178.605 267.866 182.542 263.273C187.464 257.038 190.089 248.507 188.777 239.976C187.792 232.101 192.058 225.21 196.98 218.32C203.214 210.116 214.698 195.351 214.698 195.351C237.339 212.413 251.448 238.335 251.448 267.21C251.448 318.398 206.824 359.741 151.699 359.741C143.167 359.741 134.964 358.757 126.761 356.788C152.027 365.648 173.355 368.601 190.745 368.601C227.823 368.601 247.511 355.148 247.511 355.148C247.511 355.148 240.62 364.007 229.464 374.179C229.792 374.179 229.792 374.179 229.792 374.179C291.152 365.648 321.011 315.116 321.011 315.116C321.011 315.116 318.714 331.523 315.761 342.679C397.464 281.32 383.683 204.538 383.355 201.913C384.011 202.898 392.214 212.741 396.48 217.991C409.605 82.804 299.027 39.1634 299.027 39.1634ZM173.355 255.07C172.042 256.71 166.464 261.632 162.527 265.241C158.589 268.851 154.324 272.46 151.042 275.741C149.73 277.054 147.105 277.71 143.167 277.71C141.855 277.71 140.542 277.71 139.558 277.71C138.902 277.71 138.245 277.71 137.589 277.71C136.933 277.71 136.605 277.71 136.277 277.71C135.292 277.71 134.308 277.71 133.323 277.71C138.245 271.148 152.683 256.054 157.605 252.773C163.511 248.835 166.464 244.898 162.855 238.007C159.245 231.116 149.73 232.757 149.73 232.757C149.73 232.757 155.308 230.46 160.23 230.46C153.995 228.82 146.12 230.46 142.511 234.07C138.574 237.679 139.23 250.476 137.589 258.679C135.949 267.21 130.37 271.476 121.839 279.351C117.245 283.616 113.964 284.929 111.339 284.929C105.761 283.945 99.1982 282.304 94.6052 280.663C91.3232 276.398 86.4018 262.288 85.0893 256.382C86.0737 253.101 90.0112 246.21 91.9802 242.273C95.9172 234.726 98.2142 230.46 98.8702 226.523C100.183 220.945 104.449 186.491 106.089 172.054C110.355 177.632 116.261 186.82 114.949 192.726C124.464 179.273 117.574 166.148 114.292 160.898C111.339 155.648 107.402 145.148 110.683 133.991C113.964 122.835 125.777 91.991 125.777 91.991C125.777 91.991 129.714 98.882 135.292 97.57C140.87 96.257 185.823 28.6634 185.823 28.6634C185.823 28.6634 197.964 55.2415 185.167 74.6009C172.042 93.96 159.245 97.57 159.245 97.57C159.245 97.57 177.292 100.851 194.027 88.71C200.917 104.788 207.48 121.523 207.808 123.82C206.823 126.116 193.698 157.616 192.386 159.585C191.73 160.241 187.136 161.554 183.855 162.21C178.277 163.851 174.995 164.835 173.683 165.82C171.386 167.788 160.886 196.663 155.964 210.773C150.058 212.413 144.152 215.695 139.886 222.257C142.183 220.616 149.402 219.632 154.652 218.976C159.245 218.648 173.355 226.195 176.964 240.304C176.964 240.632 176.964 240.632 176.964 240.96C177.62 246.21 175.98 251.132 173.355 255.07ZM142.511 259.007C145.464 254.741 145.136 247.523 145.464 245.226C145.792 242.929 146.449 238.663 149.074 238.007C151.699 237.351 157.933 238.335 157.933 242.929C157.933 247.195 153.339 248.179 150.058 251.132C147.761 253.429 143.167 258.351 142.511 259.007ZM273.433 196.335C276.714 179.601 277.042 165.163 276.058 153.351C288.855 170.413 296.73 191.085 299.027 212.413C299.355 215.038 301.98 217.663 304.605 220.288C306.902 222.257 309.527 224.882 309.527 226.523C309.527 234.07 308.87 241.616 307.558 249.163C307.23 250.148 304.277 251.788 301.98 253.101C298.698 254.741 295.745 256.382 295.089 259.007C287.87 284.273 272.448 306.585 251.777 322.335C282.292 290.507 297.058 238.007 273.433 196.335ZM252.761 325.288C274.089 308.882 290.495 285.913 297.714 259.991C298.042 259.007 300.995 257.366 302.964 256.054C306.245 254.413 309.527 252.445 310.183 249.82C311.495 242.273 312.152 234.398 312.152 226.523C312.152 223.57 309.199 220.616 306.245 217.663C304.605 215.695 301.98 213.398 301.98 211.757C299.355 187.804 289.839 165.163 275.074 146.46C268.511 107.085 242.261 94.945 241.605 94.616C242.261 95.601 259.324 120.21 247.511 149.085C235.37 178.288 204.199 173.695 201.574 174.023C198.949 174.023 188.777 187.148 175.98 211.429C174.339 210.773 167.448 209.132 159.573 210.445C165.48 194.038 174.339 170.741 175.98 168.773C176.636 168.116 181.558 166.804 184.839 165.82C191.073 164.179 194.027 163.195 195.011 161.882C195.667 160.898 198.948 153.351 202.23 145.476C205.183 145.476 212.73 144.82 213.386 144.491C214.042 143.835 220.277 127.757 220.277 125.788C220.277 124.148 207.48 92.32 202.558 80.179C204.855 77.554 207.152 74.2727 209.448 70.6634C276.714 77.882 329.214 134.976 329.214 204.21C329.214 257.366 298.042 303.632 252.761 325.288Z" fill="#1B314F"/>
  <path d="M165.48 148.101C171.714 140.882 168.433 127.429 156.949 125.132C159.902 118.241 164.167 104.46 164.167 104.46C164.167 104.46 130.699 156.96 127.745 157.944C124.792 158.929 121.839 147.444 121.839 147.444C115.605 171.398 132.339 174.679 134.308 167.132C143.495 164.835 159.245 154.991 165.48 148.101Z" fill="#1B314F"/>
  <path d="M136.933 160.898L153.995 131.695C153.995 131.695 163.839 136.617 158.917 144.492C152.683 153.679 136.933 160.898 136.933 160.898Z" fill="#FFD923"/>
  <path d="M347.917 296.085C342.995 302.648 337.417 309.538 330.855 316.101C373.183 234.726 332.824 160.241 331.183 157.288C334.136 160.241 337.089 163.523 339.714 166.476C372.199 202.57 376.136 256.71 347.917 296.085Z" fill="#D82122"/>
  <path d="M387.292 191.413C372.527 151.71 351.527 117.913 305.261 87.3975C260.636 57.8658 212.73 60.1627 210.105 60.4908C209.777 60.4908 209.449 60.4908 209.449 60.4908C211.089 59.8346 212.73 59.5065 214.37 59.1783C224.542 55.8971 237.667 53.2721 250.792 51.6315C285.574 46.7096 320.683 58.5221 344.636 83.7875C344.964 84.1155 344.964 84.1155 345.292 84.4435C372.527 113.319 386.636 149.413 387.292 191.413Z" fill="#D82122"/>
  <path d="M294.761 28.9917C245.87 19.8042 214.37 24.3979 191.73 32.9292C191.074 30.3042 188.777 25.0542 186.808 20.7885C179.917 28.9917 172.699 38.8354 168.105 45.0698C155.636 53.601 150.386 61.8042 150.386 61.8042C157.605 37.1948 178.605 18.8198 204.199 14.2261C211.417 12.9136 219.292 12.2573 227.824 12.2573C250.464 12.5854 273.105 18.1636 294.761 28.9917Z" fill="#D82122"/>
  <path d="M113.964 91.992C75.574 90.68 88.3708 46.0547 89.0271 43.4297C89.0271 43.7578 91.6523 78.539 113.964 91.992Z" fill="#D82122"/>
  <path d="M151.699 11.6011C122.167 29.3198 128.074 71.6479 128.074 71.6479C99.8553 28.6636 149.402 12.5854 151.699 11.6011Z" fill="#D82122"/>
  <path d="M103.136 103.804C105.105 105.445 107.074 108.398 104.777 112.663C103.464 114.96 101.496 114.632 98.5423 113.32C94.6053 111.351 70.9803 97.57 49.6521 83.46C73.9334 91.991 98.5423 101.179 102.48 103.148C102.48 103.148 102.808 103.476 103.136 103.804Z" fill="white"/>
</svg>