<?xml version="1.0" encoding="UTF-8"?>
<svg width="106px" height="25px" viewBox="0 0 106 25" version="1.1" xmlns="http://www.w3.org/2000/svg" xmlns:xlink="http://www.w3.org/1999/xlink">
    <title>changelly-vector-logo</title>
    <g id="V2" stroke="none" stroke-width="1" fill="none" fill-rule="evenodd">
        <g id="Choose-Exchange-Type-Filled-2---v2" transform="translate(-176.000000, -666.000000)" fill-rule="nonzero">
            <g id="Group-2" transform="translate(93.000000, 666.000000)">
                <g id="changelly-vector-logo" transform="translate(83.000000, 0.000000)">
                    <path d="M30,12.1238851 C30,9.51164021 31.9786146,7.28034769 34.6285449,7.28034769 C36.3421664,7.28034769 37.4021385,8.02411187 38.23245,8.93114135 L37.3844723,9.85631141 C36.6778243,9.07626606 35.8298466,8.4957672 34.6108787,8.4957672 C32.7735937,8.4957672 31.3779637,10.0921391 31.3779637,12.1238851 C31.3779637,14.1374906 32.8089261,15.7338624 34.6815435,15.7338624 C35.8298466,15.7338624 36.6778243,15.1170824 37.4021385,14.337037 L38.2854486,15.1715042 C37.3844723,16.2055178 36.306834,16.9674225 34.6108787,16.9674225 C31.9962808,16.9674225 30,14.7542706 30,12.1238851 M39.804742,4.34157218 L41.1473733,3.67037037 L41.1473733,9.11254724 C41.7480242,8.11481481 42.6843329,7.29848828 44.2389586,7.29848828 C46.4119014,7.29848828 47.683868,8.80415722 47.683868,11.0173091 L47.683868,16.767876 L46.3412366,16.767876 L46.3412366,11.3256992 C46.3412366,9.60234316 45.4402603,8.53204837 43.8503022,8.53204837 C42.2956764,8.53204837 41.1473733,9.69304611 41.1473733,11.4345427 L41.1473733,16.7497354 L39.804742,16.7497354 C39.804742,16.7497354 39.804742,4.34157218 39.804742,4.34157218 Z M55.8809856,13.3393046 L55.8809856,12.4866969 C55.0330079,12.2327286 54.1320316,12.0876039 53.2487215,12.0876039 C51.5704324,12.0876039 50.6164575,12.8495087 50.6164575,13.9923658 C50.6164575,15.1533636 51.6587634,15.842706 52.8777313,15.842706 C54.5383543,15.8245654 55.8809856,14.8086924 55.8809856,13.3393046 M49.2561599,14.028647 C49.2561599,12.0331822 50.8284519,10.9991686 53.1073919,10.9991686 C54.255695,10.9991686 55.0683403,11.1624339 55.8633194,11.3982615 L55.8633194,11.1080121 C55.8633194,9.45721844 54.8916783,8.60461073 53.1957229,8.60461073 C52.1357508,8.60461073 51.2877731,8.87671958 50.4574616,9.27581255 L50.051139,8.15109599 C51.0404463,7.67944067 52.0120874,7.35291005 53.3370525,7.35291005 C54.6090191,7.35291005 55.5983264,7.71572184 56.2519758,8.36878307 C56.8879591,9.02184429 57.1882845,9.91073318 57.1882845,11.0898715 L57.1882845,16.7497354 L55.8633194,16.7497354 L55.8633194,15.3710506 C55.2273361,16.1873772 54.2026964,16.9492819 52.6127383,16.9492819 C50.9344491,16.9492819 49.2561599,15.9515495 49.2561599,14.028647 M59.4672245,7.47989418 L60.8098559,7.47989418 L60.8098559,9.09440665 C61.4105067,8.09667423 62.3468154,7.28034769 63.9014412,7.28034769 C66.074384,7.28034769 67.3463505,8.78601663 67.3463505,10.9991686 L67.3463505,16.7497354 L66.0037192,16.7497354 L66.0037192,11.3256992 C66.0037192,9.60234316 65.1027429,8.53204837 63.5127848,8.53204837 C61.958159,8.53204837 60.8098559,9.69304611 60.8098559,11.4345427 L60.8098559,16.7497354 L59.4672245,16.7497354 L59.4672245,7.47989418 L59.4672245,7.47989418 Z M76.8331009,11.6340892 C76.8331009,9.72932729 75.2254765,8.4957672 73.511855,8.4957672 C71.7982334,8.4957672 70.3849372,9.7111867 70.3849372,11.6522298 C70.3849372,13.5207105 71.8335658,14.8086924 73.511855,14.8086924 C75.2254765,14.8086924 76.8331009,13.5388511 76.8331009,11.6340892 M69.4309623,18.3642479 L70.0492794,17.2939531 C71.0739191,18.0739985 72.2222222,18.4730915 73.511855,18.4730915 C75.4904695,18.4730915 76.7977685,17.3483749 76.7977685,15.1715042 L76.7977685,14.0830688 C76.0204556,15.1533636 74.9074849,16.0422525 73.2645281,16.0422525 C71.1092515,16.0422525 69.0246397,14.3733182 69.0246397,11.6703704 C69.0246397,8.96742252 71.1092515,7.29848828 73.2645281,7.29848828 C74.9604835,7.29848828 76.055788,8.15109599 76.7801023,9.16696901 L76.7801023,7.49803477 L78.1227336,7.49803477 L78.1227336,15.135223 C78.1227336,16.5683296 77.6987448,17.6567649 76.9744305,18.4186697 C76.1794514,19.2531368 74.9781497,19.6522298 73.5471874,19.6522298 C72.027894,19.6522298 70.6499303,19.2168556 69.4309623,18.3642479 M87.1324965,11.5615268 C86.9735007,9.874452 86.037192,8.44134543 84.2529056,8.44134543 C82.6982799,8.44134543 81.5146444,9.76560847 81.3203161,11.5615268 L87.1324965,11.5615268 L87.1324965,11.5615268 Z M84.5002325,15.752003 C85.7368666,15.752003 86.6025105,15.2259259 87.3444909,14.4458806 L88.1748024,15.2259259 C87.2738261,16.2599395 86.1608554,16.9674225 84.4649,16.9674225 C81.9916318,16.9674225 79.9600186,15.0082389 79.9600186,12.1238851 C79.9600186,9.43907785 81.7973036,7.28034769 84.288238,7.28034769 C86.9558345,7.28034769 88.492794,9.47535903 88.492794,12.1964475 C88.492794,12.3234316 88.492794,12.4685563 88.4751278,12.6862434 L81.3203161,12.6862434 C81.5146444,14.6272865 82.9102743,15.752003 84.5002325,15.752003 L84.5002325,15.752003 Z M90.3654114,4.92207105 L91.7080428,4.23272865 L91.7080428,16.7315949 L90.3654114,16.7315949 L90.3654114,4.92207105 Z M94.1636448,4.34157218 L95.5062762,3.67037037 L95.5062762,16.767876 L94.1636448,16.767876 L94.1636448,4.34157218 Z M97.2905625,19.198715 L97.7498838,18.1102797 C98.1915388,18.3461073 98.5801953,18.4549509 99.1631799,18.4549509 C99.958159,18.4549509 100.470479,18.0195767 101.018131,16.7134543 L96.9195723,7.47989418 L98.4035332,7.47989418 L101.671781,15.2077853 L104.569038,7.47989418 L106,7.47989418 L102.219433,17.0581255 C101.459786,18.981028 100.576476,19.6703704 99.2161785,19.6703704 C98.4565318,19.6703704 97.8912134,19.5071051 97.2905625,19.198715" id="Shape" fill="#000000"></path>
                    <path d="M12.7509908,20.9410245 C12.5548217,21.1314405 12.340819,21.304546 12.1089828,21.460341 C11.663144,21.7892414 11.1994716,22.0662102 10.7001321,22.3258685 C9.71928666,22.8105639 8.68494055,23.1740854 7.59709379,23.381812 C7.32959049,23.4337437 7.06208719,23.4856753 6.79458388,23.5202964 L6.38441215,23.5722281 L6.18824306,23.5895386 L5.99207398,23.6068492 L5.58190225,23.6414703 L5.17173052,23.6587808 C4.90422721,23.6760914 4.61889036,23.6760914 4.35138705,23.6934019 C3.54887715,23.6934019 2.74636724,23.6587808 1.94385733,23.5895386 C2.0330251,23.4683648 2.12219287,23.3298804 2.21136063,23.191396 C2.46103038,22.8105639 2.69286658,22.3951107 2.90686922,21.9796575 C3.2992074,21.1487511 3.60237781,20.2832236 3.85204756,19.4176961 C4.08388375,18.5694791 4.36922061,17.7558833 4.69022457,16.9249769 C5.01122853,16.0940705 5.38573316,15.2977852 5.81373844,14.5188104 C5.51056803,14.8477109 5.24306473,15.2112324 4.99339498,15.5920645 C4.74372523,15.9555861 4.49405548,16.3537287 4.28005284,16.7345608 C3.834214,17.5135356 3.44187583,18.344442 3.13870542,19.1753484 C2.81770145,19.9889442 2.47886394,20.8025401 2.06869221,21.5468937 C1.65852048,22.2912474 1.15918098,22.9836694 0.588507266,23.6414703 L0,24.3338923 L0.927344782,24.4550661 C2.06869221,24.6108611 3.22787318,24.6974138 4.38705416,24.6627927 C4.67239102,24.6454822 4.97556143,24.6454822 5.26089828,24.6108611 L5.68890357,24.57624 L6.11690885,24.5243083 C6.40224571,24.4896872 6.68758256,24.420445 6.97291942,24.3858239 C7.25825627,24.3165817 7.54359313,24.2646501 7.82892999,24.1780973 C8.11426684,24.1088551 8.38177015,24.0049918 8.667107,23.9184391 C8.9346103,23.8145758 9.21994716,23.7107125 9.48745046,23.5895386 C10.0224571,23.3645015 10.5396301,23.0702221 11.0211361,22.7586322 C11.502642,22.4470423 11.9484808,22.0835208 12.3586526,21.6680676 C12.7509908,21.2526144 13.1076618,20.8198506 13.3573316,20.3178447 C13.1611625,20.5601924 12.9649934,20.767919 12.7509908,20.9410245 M19.1354029,6.00201979 C19.4564069,5.69042989 19.8844122,5.51732439 20.3480845,5.51732439 C20.7939234,5.51732439 21.2219287,5.67311934 21.5607662,6.00201979 C22.2206077,6.65982069 22.2206077,7.69845369 21.5607662,8.3562546 C20.9009247,8.99674495 19.8130779,8.99674495 19.1354029,8.3562546 C18.8143989,8.04466469 18.6360634,7.62921149 18.6360634,7.17913719 C18.6360634,6.72906289 18.8143989,6.31360969 19.1354029,6.00201979 M20.3480845,9.8449619 C21.0614267,9.8449619 21.7569353,9.58530365 22.2919419,9.06598715 C23.3619551,8.01004359 23.3619551,6.33092024 22.2919419,5.27497669 C21.2219287,4.23634368 19.4742404,4.23634368 18.4042272,5.27497669 C17.8870542,5.77698264 17.6017173,6.45209409 17.6017173,7.16182664 C17.6017173,7.87155919 17.8870542,8.54667065 18.4042272,9.0486766 C18.9214003,9.5679931 19.6169089,9.8449619 20.3480845,9.8449619 M21.1505945,13.687904 C17.2093791,17.0634613 15.5686922,17.3750512 13.9280053,16.6480081 L15.7113606,14.4668788 C15.9788639,14.1552889 16.1571995,13.7744568 16.2642008,13.3763141 L16.9775429,10.4508312 L13.9815059,11.1432532 C13.5713342,11.2471165 13.178996,11.420222 12.8579921,11.6798802 L10.6109643,13.4109352 C9.84412153,11.8183646 10.182959,10.225794 13.6426684,6.40016244 C16.9240423,2.78225748 23.843461,1.95135107 25.8943197,1.77824557 C25.7338177,3.76895883 24.8778071,10.5027628 21.1505945,13.687904 L21.1505945,13.687904 Z M18.5290621,18.9156901 C18.493395,19.0714851 18.4042272,19.22728 18.2615588,19.3138328 C17.8513871,19.5908016 17.2093791,19.9716337 16.6387054,20.3178447 L16.6743725,20.2139814 C16.9418758,19.1580378 16.9418758,18.344442 16.6743725,17.7905044 C17.4233818,17.5654672 18.2258917,17.1673246 19.1354029,16.5614553 C18.9035667,17.3750512 18.653897,18.344442 18.5290621,18.9156901 Z M12.3051519,17.0288402 C12.0733157,17.3231195 11.6988111,17.4789145 11.3243065,17.4616039 L11.3064729,17.4616039 L10.4147952,17.4616039 L13.5178336,13.8263884 L9.77278732,16.8384241 L9.77278732,15.9902072 L9.77278732,15.9555861 C9.75495376,15.5920645 9.91545575,15.228543 10.2186262,15.0035058 L13.5,12.4761655 C13.7140026,12.3203706 13.9636724,12.1991967 14.2133421,12.1299545 L15.5508587,11.8183646 L15.2298547,13.1166559 C15.1585205,13.3763141 15.0515192,13.6186618 14.8731836,13.8263884 L12.3051519,17.0288402 L12.3051519,17.0288402 Z M6.95508587,10.7624211 L6.84808454,10.7970422 C7.18692206,10.2431046 7.57926024,9.61992475 7.86459709,9.2217821 C7.95376486,9.0832977 8.11426684,8.99674495 8.27476882,8.96212385 C8.86327609,8.84095 9.86195509,8.5986023 10.7001321,8.3908757 C10.0759577,9.27371375 9.665786,10.0699991 9.4339498,10.7970422 C8.88110964,10.4854523 8.04293263,10.4854523 6.95508587,10.7624211 L6.95508587,10.7624211 Z M26.4471598,0.722302021 C26.0726552,0.739612571 17.01321,1.13775522 12.8579921,5.72505099 C12.4656539,6.15781474 12.0911493,6.60788904 11.7166446,7.05796334 C11.1103038,7.21375829 9.00594452,7.76769589 8.07859974,7.95811194 C7.65059445,8.04466469 7.25825627,8.2870124 7.00858653,8.65053395 C6.3665786,9.55068255 5.26089828,11.4029114 5.22523118,11.4721536 L4.42272127,12.805066 L5.88507266,12.1818862 C6.84808454,11.7837435 8.45310436,11.3682903 9.02377807,11.6971908 C9.11294584,11.7491224 9.21994716,11.8529857 9.23778071,12.112644 L9.23778071,12.112644 C9.25561427,12.7704449 9.4339498,13.4109352 9.77278732,14.0514256 L9.57661823,14.2072205 C9.02377807,14.6399843 8.70277411,15.2977852 8.73844122,15.9902072 L8.73844122,18.4656158 L11.2886394,18.4656158 C12.0019815,18.5002369 12.6796565,18.188647 13.1254954,17.65202 L13.2859974,17.4616039 C13.9458388,17.7905044 14.6056803,17.9809204 15.2833554,17.9809204 L15.2833554,17.9809204 C15.5508587,17.998231 15.6400264,18.0847837 15.7113606,18.188647 C16.0680317,18.7425846 15.6400264,20.3178447 15.2120211,21.2526144 L14.5700132,22.6720795 L15.9431968,21.8931047 C16.0323646,21.8411731 17.9227213,20.767919 18.8500661,20.1447392 C19.2067371,19.9023915 19.4564069,19.5388699 19.5455746,19.1061062 C19.7417437,18.2059576 20.3124174,16.1460021 20.4729194,15.5574434 C20.9009247,15.228543 21.3467635,14.8477109 21.8282695,14.4322577 C26.5363276,10.3988995 26.9643329,1.58782952 26.9821664,1.22430797 L27,0.67037037 L26.4471598,0.722302021 Z" id="Shape" fill="#10D078"></path>
                </g>
            </g>
        </g>
    </g>
</svg>