<?xml version="1.0" encoding="UTF-8"?>
<svg class="logo-svg" width="34" height="32" viewBox="-6 -7 54 54" fill="none" xmlns="http://www.w3.org/2000/svg">
  <path d="m37.705 0.058847c-0.1471 0-3.4131 0.14712-7.4736 1.1181-5.5022 1.2946-9.6215 3.4426-12.152 6.3555-0.5591 0.64732-1.0887 1.2652-1.5595 1.8537-1.0004 0.26481-3.7662 1.0298-5.0314 1.2652-0.7356 0.1471-1.3535 0.5591-1.7948 1.177-0.91213 1.324-2.501 4.031-2.5598 4.1487l-1.8243 3.1189 3.3249-1.4418c1.4418-0.6473 3.472-1.0886 4.0605-0.7356 0.0294 0.0295 0.0588 0.0295 0.0882 0.206 0 0.9416 0.2354 1.8537 0.6768 2.7658-0.9121 0.7062-1.4123 1.8243-1.3535 2.9718v4.0605h4.0604c1.1476 0.0588 2.2362-0.4708 2.9718-1.3535 0.9122 0.4413 1.8243 0.6473 2.7658 0.6767 0.1472 0.0294 0.1766 0.0589 0.1766 0.0883 0.3531 0.5885-0.0883 2.6187-0.7356 4.0604l-1.4418 3.2955 3.1189-1.8243c0.1177-0.0588 2.8247-1.6477 4.1488-2.5598 0.6179-0.412 1.0298-1.0593 1.1769-1.7949 0.2648-1.2652 1.0004-4.031 1.2652-5.0314 0.5885-0.4708 1.2064-1.0004 1.8537-1.5595 6.8263-6.0318 7.4442-19.096 7.4736-19.655l0.0588-1.2652-1.2946 0.058847zm-24.451 14.565c-0.765-0.2354-1.6477-0.206-2.501-0.0588 0.3237-0.5297 0.6473-1.0299 0.9121-1.4124 0.0589-0.1177 0.1766-0.1765 0.3237-0.2059 0.5885-0.1177 1.5006-0.3531 2.4127-0.5591-0.5296 0.7945-0.8827 1.53-1.1475 2.2362zm4.0016 9.445c-0.2354 0.3236-0.6473 0.5002-1.0298 0.4707h-0.3825l2.4421-3.825-3.825 2.4716v-0.412c-0.0294-0.4119 0.1471-0.7944 0.4708-1.0298l4.6783-3.7074c0.2354-0.2059 0.5591-0.353 0.8533-0.4119l1.2358-0.2942-0.2943 1.2358c-0.0882 0.3236-0.2059 0.6179-0.4119 0.8532l-3.7368 4.649zm8.7682 2.9717c-0.0294 0.1177-0.0882 0.2354-0.2059 0.3237-0.3825 0.2648-0.8827 0.5885-1.4124 0.9121 0.1472-0.8532 0.1766-1.736-0.0588-2.501 0.7062-0.2648 1.4418-0.6179 2.2362-1.1181-0.206 0.8827-0.4414 1.7654-0.5591 2.3833zm3.8839-7.8855c-4.0604 3.5897-6.2966 4.649-7.9149 4.7078h-0.0588c-0.5002 0-0.9122-0.0883-1.3241-0.2354l2.1773-2.7658c0.412-0.5296 0.7062-1.1181 0.8828-1.7654l1.1769-4.9432-4.9432 1.177c-0.6473 0.1471-1.2652 0.4413-1.7654 0.8533l-2.7658 2.1773c-0.1471-0.4119-0.2354-0.8239-0.2354-1.3241v-0.0588c0.0294-1.5889 1.1181-3.8545 4.7078-7.915 4.3253-4.9137 13.27-6.2378 16.624-6.5614-0.3237 3.3837-1.6477 12.328-6.5615 16.654z" fill="#10D078"></path>
  <path d="m11.622 32.736c-1.5006 0.2942-3.0306 0.3825-4.5606 0.4119-0.8827 0-1.7654-0.0294-2.6775-0.1177 0.35308-0.5885 0.67674-1.1769 0.97098-1.7948 0.55904-1.2653 0.97097-2.5305 1.2946-3.8251 0.29424-1.2358 0.64732-2.4422 1.0887-3.6485 0.41193-1.2064 0.88271-2.4128 1.4123-3.6191-0.47077 0.4708-0.8827 0.971-1.2652 1.5006-0.3825 0.5296-0.76501 1.0887-1.1181 1.6477-0.67675 1.1181-1.2652 2.3539-1.7654 3.5602-0.47077 1.177-0.97097 2.3539-1.5594 3.4132-0.58848 1.0592-1.2652 2.0302-2.0891 2.9718l-1.3535 1.5888 2.0891 0.2943c1.6477 0.2354 3.3249 0.3531 5.002 0.2942 0.85328-0.0294 1.6771-0.0883 2.5304-0.2354 0.8239-0.1177 1.6771-0.3236 2.4716-0.559 1.6183-0.4708 3.1777-1.2358 4.5606-2.2068 0.6768-0.5002 1.3241-1.0592 1.8537-1.7066 0.5296-0.6473 1.0298-1.324 1.3535-2.089-1.1181 1.1769-2.4716 2.0302-3.8545 2.7069-1.4123 0.6768-2.8835 1.1181-4.3841 1.4124z" fill="#10D078"></path>
  <path d="m29.055 14.065c1.0593 0 2.1185-0.4119 2.9424-1.2064 1.6183-1.6183 1.6183-4.237 0-5.8553-0.7945-0.79444-1.8243-1.2064-2.9424-1.2064s-2.1479 0.44135-2.9424 1.2064c-1.6182 1.6183-1.6182 4.237 0 5.8553 0.7945 0.7945 1.8537 1.2064 2.9424 1.2064zm-1.2946-5.4139c0.353-0.35308 0.7944-0.52962 1.2652-0.52962s0.9415 0.17654 1.2652 0.52962c0.7062 0.70616 0.7062 1.8242 0 2.5304-0.7062 0.7061-1.8243 0.7061-2.5304 0-0.6768-0.6768-0.6768-1.8243 0-2.5304z" fill="#10D078"></path>
</svg>