<?xml version="1.0" encoding="UTF-8"?>
<svg width="20px" height="21px" viewBox="0 0 20 21" version="1.1" xmlns="http://www.w3.org/2000/svg" xmlns:xlink="http://www.w3.org/1999/xlink">
    <title>Group 2</title>
    <g id="Setttings" stroke="none" stroke-width="1" fill="none" fill-rule="evenodd">
        <g id="Template/Settings-(Default)" transform="translate(-20.000000, -502.000000)" fill="#9BA3AE" fill-rule="nonzero">
            <g id="Group-2" transform="translate(20.000000, 502.781638)">
                <path d="M1.31219442,10.067352 C1.31219442,5.25650006 5.13855334,1.3423136 9.84145814,1.3423136 C11.9239107,1.3423136 13.9063084,2.10911024 15.462899,3.50679428 L13.2180624,5.80315727 C13.1291613,5.89409902 13.0989808,6.02900154 13.1399869,6.15048092 C13.181321,6.2719603 13.2866246,6.35853952 13.4116111,6.37364055 L18.9884374,7.04479735 C19.0012313,7.04647525 19.0140252,7.0471464 19.0268191,7.0471464 C19.1134239,7.0471464 19.1970763,7.01224625 19.2587494,6.94882193 C19.3296079,6.876337 19.3643811,6.77432116 19.3525713,6.67230533 L18.6964741,0.967472527 C18.6817119,0.839617157 18.5970754,0.731896491 18.4783218,0.689613612 C18.3595682,0.647666312 18.2273646,0.678203947 18.1387915,0.769481271 L16.3916046,2.55677183 C14.5856971,0.907068415 12.2729544,-7.61295788e-15 9.84145814,-7.61295788e-15 C4.41487812,-7.61295788e-15 -3.04518315e-14,4.51621411 -3.04518315e-14,10.067352 C-3.04518315e-14,10.4378306 0.29393155,10.7385088 0.65609721,10.7385088 C1.01826287,10.7385088 1.31219442,10.4378306 1.31219442,10.067352 Z" id="Path"></path>
                <path d="M19.3439028,8.7250384 C18.9817371,8.7250384 18.6878056,9.02571665 18.6878056,9.3961952 C18.6878056,14.2073827 14.8614467,18.1212336 10.1585419,18.1212336 C8.07608931,18.1212336 6.0936916,17.354437 4.53742901,15.9564173 L6.78193757,13.6603899 C6.87083874,13.5694482 6.90101921,13.4345457 6.86001314,13.3130663 C6.81867901,13.1915869 6.71337541,13.1050077 6.58838889,13.0899067 L1.01156261,12.4187499 C0.911179738,12.406669 0.812109059,12.4422403 0.74125056,12.5147253 C0.670392062,12.5875458 0.63561891,12.689226 0.647428659,12.7912419 L1.30352587,18.4960747 C1.31828806,18.6235945 1.4029246,18.7316507 1.52167819,18.773598 C1.55677939,18.7860144 1.59319279,18.7923904 1.62927813,18.7923904 C1.71489882,18.7923904 1.79887926,18.7578258 1.8612085,18.6940659 L3.60839537,16.9067754 C5.41430294,18.5564788 7.72671755,19.4635472 10.1585419,19.4635472 C15.5851219,19.4635472 20,14.9473331 20,9.3961952 C20,9.02571665 19.7060685,8.7250384 19.3439028,8.7250384 Z" id="Path"></path>
            </g>
        </g>
    </g>
</svg>