<svg width="72" height="72" viewBox="0 0 72 72" fill="none" xmlns="http://www.w3.org/2000/svg">
<circle cx="36" cy="36" r="36" fill="#214497"/>
<mask id="mask0" mask-type="alpha" maskUnits="userSpaceOnUse" x="0" y="0" width="72" height="72">
<circle cx="36" cy="36" r="36" fill="white"/>
</mask>
<g mask="url(#mask0)">
<circle r="6.96774" transform="matrix(-1 0 0 1 25.2581 34.8711)" fill="#FDB455"/>
<ellipse rx="6.96774" ry="6.96774" transform="matrix(-1 0 0 1 38.5161 16.2583)" fill="#FDB455"/>
<path d="M37.3547 13.9357L37.3547 18.5809C37.3547 19.2228 37.8741 19.7422 38.516 19.7422C39.1578 19.7422 39.6772 19.2228 39.6772 18.5809L39.6772 13.9357C39.6772 13.2939 39.1578 12.7744 38.516 12.7744C37.8741 12.7744 37.3547 13.2939 37.3547 13.9357Z" fill="#D7851B"/>
<path d="M24.0966 32.5485L24.0966 37.1937C24.0966 37.8356 24.616 38.355 25.2579 38.355C25.8998 38.355 26.4192 37.8356 26.4192 37.1937L26.4192 32.5485C26.4192 31.9067 25.8998 31.3872 25.2579 31.3872C24.616 31.3872 24.0966 31.9067 24.0966 32.5485Z" fill="#D7851B"/>
<path d="M22.4701 49.0763L42.8167 50.8455C44.7004 51.0093 46.5892 50.5945 48.2308 49.6564L53.8386 46.4519H40.7536C39.0012 46.4519 37.5806 45.0313 37.5806 43.2789V43.2789C37.5806 41.752 38.6681 40.4416 40.1688 40.1602L51.9179 37.9572C54.7407 37.428 57.6065 37.1616 60.4784 37.1616H70.0967V53.9759L50.9944 61.9394C48.8799 62.7321 46.5405 62.7209 44.3884 62.1776L18.9999 52.2584V52.2578C18.9999 50.3849 20.6042 48.914 22.4701 49.0763Z" fill="#BADEFC"/>
<path d="M65.4516 59.226H71.258C71.8994 59.226 72.4193 58.706 72.4193 58.0647V36.0002C72.4193 35.3588 71.8994 34.8389 71.258 34.8389H65.4516C64.8102 34.8389 64.2903 35.3588 64.2903 36.0002V58.0647C64.2903 58.706 64.8102 59.226 65.4516 59.226Z" fill="#5A7A84"/>
</g>
</svg>
