<svg width="22" height="18" viewBox="0 0 22 18" fill="none" xmlns="http://www.w3.org/2000/svg">
<path fill-rule="evenodd" clip-rule="evenodd" d="M12.0088 0C7.03879 0 3.00879 4.03 3.00879 9H0.00878906L3.89879 12.89L3.96879 13.03L8.00879 9H5.00879C5.00879 5.13 8.13879 2 12.0088 2C15.8788 2 19.0088 5.13 19.0088 9C19.0088 10.704 18.402 12.2646 17.3923 13.4776L18.8095 14.8948C20.1795 13.3155 21.0088 11.2545 21.0088 9C21.0088 4.03 16.9788 0 12.0088 0ZM15.9049 14.8186C15.5101 15.0833 15.0868 15.3088 14.6405 15.4897L15.161 17.4324C15.9445 17.1393 16.6762 16.7402 17.3387 16.2524L15.9049 14.8186ZM12.0088 16C11.7707 16 11.5353 15.988 11.3033 15.9645L10.7802 17.9168C11.1816 17.9717 11.5917 18 12.0088 18C12.4198 18 12.8244 17.9724 13.2209 17.9191L12.6977 15.9666C12.4711 15.9887 12.2413 16 12.0088 16ZM9.36314 15.4779C8.92077 15.2956 8.50124 15.0691 8.11019 14.804L6.67214 16.2421C7.33225 16.7306 8.06071 17.1309 8.84129 17.4255L9.36314 15.4779ZM11.0088 10V5H12.5088V9.15L16.0288 11.24L15.2588 12.52L11.0088 10Z" fill="#B6C9D8"/>
</svg>
