<svg width="24" height="24" viewBox="0 0 24 24" fill="none" xmlns="http://www.w3.org/2000/svg">
<path fill-rule="evenodd" clip-rule="evenodd" d="M12.0078 3C7.03781 3 3.00781 7.03 3.00781 12H0.0078125L3.89781 15.89L3.96781 16.03L8.00781 12H5.00781C5.00781 8.13 8.13781 5 12.0078 5C15.8778 5 19.0078 8.13 19.0078 12C19.0078 13.704 18.401 15.2646 17.3913 16.4776L18.8085 17.8948C20.1786 16.3155 21.0078 14.2545 21.0078 12C21.0078 7.03 16.9778 3 12.0078 3ZM15.9039 17.8186C15.5091 18.0833 15.0858 18.3088 14.6395 18.4897L15.1601 20.4324C15.9435 20.1393 16.6752 19.7402 17.3377 19.2524L15.9039 17.8186ZM12.0078 19C11.7697 19 11.5344 18.988 11.3023 18.9645L10.7792 20.9168C11.1806 20.9717 11.5907 21 12.0078 21C12.4189 21 12.8235 20.9724 13.2199 20.9191L12.6968 18.9666C12.4701 18.9887 12.2403 19 12.0078 19ZM9.36216 18.4779C8.9198 18.2956 8.50027 18.0691 8.10921 17.804L6.67116 19.2421C7.33127 19.7306 8.05973 20.1309 8.84031 20.4255L9.36216 18.4779ZM11.0078 13V8H12.5078V12.15L16.0278 14.24L15.2578 15.52L11.0078 13Z" fill="#1C3745" fill-opacity="0.38"/>
</svg>
