<?xml version="1.0" encoding="UTF-8"?>
<svg width="49px" height="33px" viewBox="0 0 49 33" version="1.1" xmlns="http://www.w3.org/2000/svg" xmlns:xlink="http://www.w3.org/1999/xlink">
    <!-- Generator: Sketch 46.2 (44496) - http://www.bohemiancoding.com/sketch -->
    <title>Group 4</title>
    <desc>Created with Sketch.</desc>
    <defs></defs>
    <g id="Home/Overview" stroke="none" stroke-width="1" fill="none" fill-rule="evenodd">
        <g id="Group-4" transform="translate(0.000000, -6.000000)" fill-rule="nonzero">
            <g id="element-icon-bitcoin" transform="translate(24.500000, 22.000000) rotate(-26.000000) translate(-24.500000, -22.000000) translate(8.000000, 6.000000)">
                <g id="bitcoin" transform="translate(0.000000, -0.000000)">
                    <path d="M32.1867932,19.8608311 C30.0167764,28.4289206 21.2022608,33.6584288 12.4778868,31.5222983 C3.77643011,29.3856664 -1.5352984,20.7067588 0.634718392,12.1386692 C2.80422591,3.57108109 11.6192507,-1.65842708 20.3207074,0.477703406 C29.0450815,2.59177057 34.3563007,11.2932429 32.1867932,19.8608311" id="Shape" fill="#09C286"></path>
                    <path d="M20.8680125,13.6901518 C20.3834958,15.7120375 17.1993056,14.7348781 16.1611297,14.4850856 L17.0381466,10.8958545 C18.0529285,11.1456469 21.3754035,11.5776651 20.8680125,13.6901518 L20.8680125,13.6901518 Z M20.3601017,19.4829825 C19.8298366,21.7091043 15.9994508,20.5507429 14.7767218,20.255394 L15.7228811,16.3027353 C16.9684843,16.5980842 20.9137609,17.1432255 20.3601017,19.4829825 Z M24.4670572,13.6901518 C24.7670209,11.5090745 23.0826493,10.3732354 20.7754761,9.60082384 L21.4908141,6.64784689 L19.6681577,6.21634063 L18.9762137,9.1012389 C18.4916969,8.98760381 18.0071801,8.87396871 17.5226634,8.78336775 L18.2146074,5.89795761 L16.3690768,5.46645136 L15.6537387,8.41994018 C15.2612385,8.32882735 14.8692582,8.26074867 14.4767581,8.16963584 L11.9621576,7.57944995 L11.500515,9.48770061 C11.500515,9.48770061 12.8620487,9.78253763 12.8157805,9.80557177 C13.5539927,9.98728555 13.6922776,10.4643482 13.6694034,10.8277758 L12.8620487,14.1897367 C12.9077971,14.2127709 12.9774594,14.2127709 13.0466018,14.2578154 C12.9774594,14.2352931 12.9311911,14.2352931 12.8620487,14.2127709 L11.7542105,18.914807 C11.6621939,19.1420772 11.4313726,19.4599483 10.9239817,19.3468251 C10.9468558,19.3693474 9.58584199,19.0284421 9.58584199,19.0284421 L8.70882504,21.0958842 L11.0851407,21.6410256 C11.5239091,21.7546607 11.9621576,21.8452617 12.377532,21.9588968 L11.6621939,24.9349079 L13.4848503,25.3664141 L14.2001884,22.4134371 C14.7075794,22.5495945 15.1920961,22.6632296 15.6537387,22.7768647 L14.9384006,25.7073194 L16.7610571,26.1388257 L17.4763951,23.1633264 C20.590923,23.7084678 22.9209704,23.4581634 23.8671298,20.664378 C24.6287361,18.4377443 23.7979873,17.1657478 22.1370098,16.3252576 C23.3597388,16.052431 24.2362359,15.2805313 24.4670572,13.6901518 L24.4670572,13.6901518 Z" id="Shape" fill="#FFFFFF"></path>
                </g>
            </g>
            <path d="M15.921528,5.99999821 L0,5.99999821 L0,37.9999982 L15.913948,37.9999982 C8.54220902,34.2663545 4.45416261,25.9154102 6.54600075,17.6560011 C7.87168946,12.4207324 11.4030305,8.29337503 15.921528,5.99999821 Z M32.6737493,5.99999821 L49,5.99999821 L49,37.9999982 L32.6621291,37.9999982 C37.1847176,35.7065678 40.716075,31.5790477 42.0420849,26.3434332 C44.1319349,18.09042 40.0515857,9.72697744 32.6737493,5.99999821 Z" id="Combined-Shape" fill="#09C286"></path>
        </g>
    </g>
</svg>