<?xml version="1.0" encoding="utf-8"?>
<!-- Generator: Adobe Illustrator 18.1.1, SVG Export Plug-In . SVG Version: 6.00 Build 0)  -->
<svg version="1.1" id="Capa_1" xmlns:sketch="http://www.bohemiancoding.com/sketch/ns"
	 xmlns="http://www.w3.org/2000/svg" xmlns:xlink="http://www.w3.org/1999/xlink" x="0px" y="0px" viewBox="-264 387.9 66 66"
	 enable-background="new -264 387.9 66 66" xml:space="preserve">
<title>Oval 356 + ios7-redo</title>
<desc>Created with Sketch.</desc>
<g id="Page-1" sketch:type="MSPage">
	<g id="Copay-v1-Buy-_x2013_-Main" transform="translate(-36.000000, -736.000000)" sketch:type="MSArtboardGroup">
		<g id="Oval-356-_x2B_-ios7-redo" transform="translate(37.000000, 737.000000)" sketch:type="MSLayerGroup">
			<path fill="#1ABC9C" d="M-232,452.9c-18.2,0-33-14.8-33-33c0-18.2,14.8-33,33-33s33,14.8,33,33C-199,438.1-213.8,452.9-232,452.9
				z M-232,388.9c-17.1,0-31,13.9-31,31s13.9,31,31,31c17.1,0,31-13.9,31-31S-214.9,388.9-232,388.9z"/>
			<g id="plus-round" transform="translate(14.933333, 14.933333)" sketch:type="MSShapeGroup">
				<path id="Shape" fill="#1ABC9C" d="M-244.1,402.2v-11.5c0-1.5-1.3-2.7-2.8-2.7s-2.8,1.2-2.8,2.7v11.5h-11.5
					c-1.5,0-2.7,1.3-2.7,2.8s1.2,2.8,2.7,2.8h11.5v11.5c0,1.5,1.3,2.7,2.8,2.7s2.8-1.2,2.8-2.7v-11.5h11.5c1.5,0,2.7-1.3,2.7-2.8
					s-1.2-2.8-2.7-2.8H-244.1z"/>
			</g>
		</g>
	</g>
</g>
</svg>
