<?xml version="1.0" encoding="utf-8"?>
<!-- Generator: Adobe Illustrator 16.0.0, SVG Export Plug-In . SVG Version: 6.00 Build 0)  -->
<!DOCTYPE svg PUBLIC "-//W3C//DTD SVG 1.1//EN" "http://www.w3.org/Graphics/SVG/1.1/DTD/svg11.dtd">
<svg version="1.1"
	 id="Layer_2" xmlns:svg="http://www.w3.org/2000/svg" xmlns:rdf="http://www.w3.org/1999/02/22-rdf-syntax-ns#" xmlns:osb="http://www.openswatchbook.org/uri/2009/osb" xmlns:dc="http://purl.org/dc/elements/1.1/" xmlns:inkscape="http://www.inkscape.org/namespaces/inkscape" xmlns:cc="http://creativecommons.org/ns#" xmlns:sodipodi="http://sodipodi.sourceforge.net/DTD/sodipodi-0.dtd" inkscape:version="0.92.1 r15371" sodipodi:docname="deuscoin-Edited.svg"
	 xmlns="http://www.w3.org/2000/svg" xmlns:xlink="http://www.w3.org/1999/xlink" x="0px" y="0px" width="128px" height="128px"
	 viewBox="0 0 128 128" enable-background="new 0 0 128 128" xml:space="preserve">
<path id="path4600" inkscape:connector-curvature="0" fill="#FFFFFF" d="M14.014,90.371c1.835-1.479,3.67-2.969,5.517-4.422
	c0.339-0.273,0.164-0.509,0.058-0.77c-2.863-6.595-4.383-13.524-4.512-20.777c-0.222-12.481,3.296-23.646,10.438-33.543
	c0.117-0.162,0.257-0.323,0.386-0.484c0.059,0.025,0.117,0.049,0.187,0.062v50.396c9.316-6.831,19.053-12.481,29.409-16.877
	c10.356-4.384,21.051-7.315,32.12-8.842c11.117-1.528,22.174-0.633,33.254,0.596C119.107,37.031,106.67,15,83.445,6.344
	C60.29-2.288,34.247,5.623,19.063,27.22C4.242,48.32,5.785,74.102,14.014,90.371 M81.434,53.474
	c-4.021,0.46-8.064,0.808-12.063,1.416c-8.287,1.254-16.387,3.428-24.289,6.358c-0.339,0.125-0.678,0.236-1.087,0.373v-32.96h0.795
	c4.477,0,8.965-0.025,13.442,0.012c3.74,0.025,7.445,0.435,10.999,1.751c6.136,2.273,9.701,6.992,11.454,13.487
	c0.783,2.918,1.182,5.899,1.415,8.917C82.146,53.437,81.82,53.437,81.434,53.474"/>
<path id="path4604" inkscape:connector-curvature="0" fill="#FFFFFF" d="M64.498,123.566c9.935,0,19.286-2.732,27.421-7.5
	c19.485-11.252,29.55-32.836,29.421-52.049l-0.012,0.013c0-0.286,0.012-0.571,0.012-0.857h-7.318
	c0,28.651-21.67,52.024-48.508,52.606c-2.723-0.012-5.458-0.211-8.228-0.607c-7.493-1.08-14.331-4.037-20.584-8.533
	c-0.187-0.135-0.351-0.285-0.666-0.533h0.818c8.837,0,17.673,0.012,26.51,0c3.261-0.012,6.499-0.422,9.655-1.341
	c10.823-3.154,18.327-10.457,23.12-21.05c3.447-7.626,4.804-15.76,4.955-24.156c0.023-1.44,0-2.124,0-3.626
	c-6.486,0.609-12.717,1.118-18.924,3.006c0,0.931,0,2.384-0.012,2.869c-0.163,4.644-0.701,9.214-2.127,13.636
	c-1.52,4.694-3.928,8.693-7.971,11.389c-3.52,2.347-7.435,3.254-11.526,3.315c-5.341,0.087-10.683,0.037-16.037,0.05
	c-0.164,0-0.327-0.037-0.538-0.074c0-1.9,0.012-3.751-0.012-5.602l0.175-7.066c-8.019,5.663-16.025,12.543-23.167,19.448
	l-2.314,1.913C28.987,113.806,45.69,123.566,64.498,123.566"/>
</svg>
