<?xml version="1.0" encoding="utf-8"?>
<!-- Generator: Adobe Illustrator 21.0.2, SVG Export Plug-In . SVG Version: 6.00 Build 0)  -->
<svg version="1.1" id="Layer_2" xmlns="http://www.w3.org/2000/svg" xmlns:xlink="http://www.w3.org/1999/xlink" x="0px" y="0px"
	 viewBox="0 0 1024 1024" style="enable-background:new 0 0 1024 1024;" xml:space="preserve">
<style type="text/css">
	.st0{clip-path:url(#SVGID_2_);fill:#FFFFFF;}
	.st1{clip-path:url(#SVGID_2_);fill:#031923;}
	.st2{clip-path:url(#SVGID_2_);fill:#FF0000;}
</style>
<g>
	<defs>
		<rect id="SVGID_1_" width="1024" height="1024"/>
	</defs>
	<clipPath id="SVGID_2_">
		<use xlink:href="#SVGID_1_"  style="overflow:visible;"/>
	</clipPath>
	<path class="st0" d="M649,353.9c-14.9-52.2-45.5-90.3-98-108.6c-30.5-10.6-62.1-13.9-94.1-14.1c-38.3-0.3-76.7-0.1-115-0.1h-6.8
		v265.4c3.5-1.1,6.4-2,9.3-3c67.7-23.6,136.9-41.1,207.8-51.2c34.3-4.9,68.8-7.7,103.2-11.4c3.3-0.4,6-0.3,5.6-5.2
		C659.1,401.4,655.7,377.4,649,353.9"/>
	<path class="st0" d="M512,0C229.7,0,0,229.7,0,512c0,282.3,229.7,512,512,512c282.3,0,512-229.7,512-512C1024,229.7,794.3,0,512,0
		 M121.9,219.5C251.7,45.6,474.5-18.2,672.6,51.4C871.3,121.1,977.7,298.5,992.8,449c-94.8-9.9-189.5-17.1-284.5-4.8
		c-94.6,12.3-186.2,35.9-274.8,71.2c-88.7,35.4-172,80.8-251.6,135.9V245.4c-0.5-0.2-1-0.4-1.6-0.5c-1.1,1.3-2.2,2.5-3.3,3.9
		c-61.1,79.7-91.2,169.6-89.3,270.1c1.1,58.5,14.1,114.2,38.6,167.3c1,2.1,2.5,4-0.5,6.2C110,704.1,94.4,716.1,78.6,728
		C8.2,597-5,389.4,121.9,219.5 M118.2,796l19.9-15.6c61.1-55.5,129.5-110.9,198.2-156.5l-1.5,56.9c0.2,14.9,0.1,29.8,0.1,45.1
		c1.8,0.2,3.2,0.6,4.6,0.6c45.7,0,91.4,0.4,137.2-0.4c34.9-0.6,68.4-7.9,98.6-26.7c34.6-21.7,55.3-53.9,68.2-91.7
		c12.2-35.5,16.8-72.4,18.2-109.8c0.1-3.9,0.1-15.6,0.1-23.1l-0.1,0c0-10.6,0-7.2,0.1,0c53.1-15.2,106.5-19.3,161.9-24.2
		c0,12.1,0.2,17.7,0,29.2c-1.2,67.6-12.8,133.2-42.4,194.5c-41.1,85.3-105.3,144.1-197.8,169.5c-27,7.4-54.6,10.7-82.6,10.8
		c-75.6,0.1-151.2,0-226.8,0h-7c2.7,2,4.1,3.3,5.7,4.3c53.5,36.3,112,60.1,176.1,68.7c23.7,3.2,47.1,4.8,70.4,4.9
		c229.6-4.7,415-192.9,415-423.6h62.6c0,2.3-0.1,4.6-0.1,6.9c0,0,0.1-0.1,0.1-0.1c1.1,154.7-85.1,328.5-251.7,419.1
		c-69.6,38.5-149.6,60.4-234.6,60.4C349.6,995.3,206.7,916.7,118.2,796"/>
	<path class="st1" d="M78.6,728c15.7-11.9,31.4-23.9,47.2-35.6c2.9-2.2,1.4-4.1,0.5-6.2c-24.5-53.1-37.5-108.9-38.6-167.3
		c-1.9-100.5,28.2-190.4,89.3-270.1c1-1.3,2.2-2.6,3.3-3.9c0.5,0.2,1,0.4,1.6,0.5v405.8c79.7-55,163-100.5,251.6-135.9
		c88.6-35.3,180.1-58.9,274.8-71.2c95.1-12.3,189.7-5.1,284.5,4.8C977.7,298.5,871.3,121.1,672.6,51.4
		c-198.1-69.5-420.9-5.8-550.8,168.1C-5,389.4,8.2,597,78.6,728 M655.4,430.9c-34.4,3.7-69,6.5-103.2,11.4
		c-70.9,10.1-140.2,27.6-207.8,51.2c-2.9,1-5.8,1.9-9.3,3V231.1h6.8c38.3,0,76.7-0.2,115,0.1c32,0.2,63.7,3.5,94.1,14.1
		c52.5,18.3,83,56.3,98,108.6c6.7,23.5,10.1,47.5,12.1,71.8C661.5,430.6,658.7,430.6,655.4,430.9"/>
	<path class="st2" d="M661.6,474.7L661.6,474.7C661.6,467.5,661.6,464.1,661.6,474.7"/>
	<path class="st2" d="M510.5,995.3c85,0,165-22,234.6-60.4c166.7-90.6,252.8-264.4,251.7-419.1c0,0-0.1,0.1-0.1,0.1
		c0-2.3,0.1-4.6,0.1-6.9h-62.6c0,230.7-185.4,418.9-415,423.6c-23.3-0.1-46.7-1.7-70.4-4.9c-64.1-8.7-122.6-32.5-176.1-68.7
		c-1.6-1.1-3-2.3-5.7-4.3h7c75.6,0,151.2,0.1,226.8,0c27.9-0.1,55.6-3.4,82.6-10.8c92.6-25.4,156.8-84.2,197.8-169.5
		c29.5-61.4,41.1-126.9,42.4-194.5c0.2-11.6,0-17.1,0-29.2c-55.5,4.9-108.8,9-161.9,24.2c0,7.5,0,19.2-0.1,23.1
		c-1.4,37.4-6,74.2-18.2,109.8c-13,37.8-33.6,70-68.2,91.7c-30.1,18.9-63.6,26.2-98.6,26.7c-45.7,0.7-91.4,0.3-137.2,0.4
		c-1.4,0-2.8-0.3-4.6-0.6c0-15.3,0.1-30.2-0.1-45.1l1.5-56.9c-68.6,45.6-137.1,101-198.2,156.6L118.2,796
		C206.7,916.7,349.6,995.3,510.5,995.3"/>
</g>
</svg>
