<?xml version="1.0" encoding="UTF-8" standalone="no"?>
<!-- Generator: Adobe Illustrator 21.0.2, SVG Export Plug-In . SVG Version: 6.00 Build 0)  -->

<svg
   xmlns:osb="http://www.openswatchbook.org/uri/2009/osb"
   xmlns:dc="http://purl.org/dc/elements/1.1/"
   xmlns:cc="http://creativecommons.org/ns#"
   xmlns:rdf="http://www.w3.org/1999/02/22-rdf-syntax-ns#"
   xmlns:svg="http://www.w3.org/2000/svg"
   xmlns="http://www.w3.org/2000/svg"
   xmlns:xlink="http://www.w3.org/1999/xlink"
   xmlns:sodipodi="http://sodipodi.sourceforge.net/DTD/sodipodi-0.dtd"
   xmlns:inkscape="http://www.inkscape.org/namespaces/inkscape"
   version="1.1"
   id="Layer_2"
   x="0px"
   y="0px"
   viewBox="0 0 128 128"
   xml:space="preserve"
   sodipodi:docname="deuscoin-Edited.svg"
   width="128"
   height="128"
   inkscape:version="0.92.1 r15371"><metadata
   id="metadata4613"><rdf:RDF><cc:Work
       rdf:about=""><dc:format>image/svg+xml</dc:format><dc:type
         rdf:resource="http://purl.org/dc/dcmitype/StillImage" /><dc:title></dc:title></cc:Work></rdf:RDF></metadata><defs
   id="defs4611"><linearGradient
     id="linearGradient5166"
     osb:paint="solid"><stop
       style="stop-color:#110c0c;stop-opacity:1;"
       offset="0"
       id="stop5164" /></linearGradient><linearGradient
     id="linearGradient5160"
     osb:paint="solid"><stop
       style="stop-color:#110c0c;stop-opacity:1;"
       offset="0"
       id="stop5158" /></linearGradient><linearGradient
     inkscape:collect="always"
     xlink:href="#linearGradient5160"
     id="linearGradient5162"
     x1="25.817467"
     y1="375.8899"
     x2="992.8"
     y2="375.8899"
     gradientUnits="userSpaceOnUse" /><linearGradient
     inkscape:collect="always"
     xlink:href="#linearGradient5166"
     id="linearGradient5168"
     x1="118.2"
     y1="723"
     x2="996.81041"
     y2="723"
     gradientUnits="userSpaceOnUse" /></defs><sodipodi:namedview
   pagecolor="#ffffff"
   bordercolor="#666666"
   borderopacity="1"
   objecttolerance="10"
   gridtolerance="10"
   guidetolerance="10"
   inkscape:pageopacity="0"
   inkscape:pageshadow="2"
   inkscape:window-width="1600"
   inkscape:window-height="838"
   id="namedview4609"
   showgrid="false"
   inkscape:zoom="3.6875"
   inkscape:cx="66.23513"
   inkscape:cy="43.776792"
   inkscape:window-x="-8"
   inkscape:window-y="-8"
   inkscape:window-maximized="1"
   inkscape:current-layer="g4606"
   inkscape:showpageshadow="true"
   inkscape:pagecheckerboard="true" />
<style
   type="text/css"
   id="style4588">
	.st0{clip-path:url(#SVGID_2_);fill:#FFFFFF;}
	.st1{clip-path:url(#SVGID_2_);fill:#031923;}
	.st2{clip-path:url(#SVGID_2_);fill:#FF0000;}
</style>
<g
   id="g4606"
   transform="matrix(0.11688638,0,0,0.12419064,4.8268463,-0.0399422)">
	<defs
   id="defs4591">
		<rect
   id="SVGID_1_"
   width="1024"
   height="1024"
   x="0"
   y="0" />
	</defs>
	<clipPath
   id="SVGID_2_">
		<use
   xlink:href="#SVGID_1_"
   style="overflow:visible"
   id="use4593"
   x="0"
   y="0"
   width="100%"
   height="100%" />
	</clipPath>
	
	<path
   class="st0"
   d="M 512,0 C 229.7,0 0,229.7 0,512 c 0,282.3 229.7,512 512,512 282.3,0 512,-229.7 512,-512 C 1024,229.7 794.3,0 512,0 M 121.9,219.5 C 251.7,45.6 474.5,-18.2 672.6,51.4 871.3,121.1 977.7,298.5 992.8,449 898,439.1 803.3,431.9 708.3,444.2 c -94.6,12.3 -186.2,35.9 -274.8,71.2 -88.7,35.4 -172,80.8 -251.6,135.9 V 245.4 c -0.5,-0.2 -1,-0.4 -1.6,-0.5 -1.1,1.3 -2.2,2.5 -3.3,3.9 -61.1,79.7 -91.2,169.6 -89.3,270.1 1.1,58.5 14.1,114.2 38.6,167.3 1,2.1 2.5,4 -0.5,6.2 C 110,704.1 94.4,716.1 78.6,728 8.2,597 -5,389.4 121.9,219.5 M 118.2,796 138.1,780.4 C 199.2,724.9 267.6,669.5 336.3,623.9 l -1.5,56.9 c 0.2,14.9 0.1,29.8 0.1,45.1 1.8,0.2 3.2,0.6 4.6,0.6 45.7,0 91.4,0.4 137.2,-0.4 34.9,-0.6 68.4,-7.9 98.6,-26.7 34.6,-21.7 55.3,-53.9 68.2,-91.7 12.2,-35.5 16.8,-72.4 18.2,-109.8 0.1,-3.9 0.1,-15.6 0.1,-23.1 h -0.1 c 0,-10.6 0,-7.2 0.1,0 53.1,-15.2 106.5,-19.3 161.9,-24.2 0,12.1 0.2,17.7 0,29.2 -1.2,67.6 -12.8,133.2 -42.4,194.5 -41.1,85.3 -105.3,144.1 -197.8,169.5 -27,7.4 -54.6,10.7 -82.6,10.8 -75.6,0.1 -151.2,0 -226.8,0 h -7 c 2.7,2 4.1,3.3 5.7,4.3 53.5,36.3 112,60.1 176.1,68.7 23.7,3.2 47.1,4.8 70.4,4.9 229.6,-4.7 415,-192.9 415,-423.6 h 62.6 c 0,2.3 -0.1,4.6 -0.1,6.9 0,0 0.1,-0.1 0.1,-0.1 1.1,154.7 -85.1,328.5 -251.7,419.1 -69.6,38.5 -149.6,60.4 -234.6,60.4 -161,0.1 -303.9,-78.5 -392.4,-199.2"
   clip-path="url(#SVGID_2_)"
   id="path4598"
   inkscape:connector-curvature="0"
   style="fill:#ffffff;opacity:0" />
	<path
   class="st1"
   d="m 78.6,728 c 15.7,-11.9 31.4,-23.9 47.2,-35.6 2.9,-2.2 1.4,-4.1 0.5,-6.2 C 101.8,633.1 88.8,577.3 87.7,518.9 85.8,418.4 115.9,328.5 177,248.8 c 1,-1.3 2.2,-2.6 3.3,-3.9 0.5,0.2 1,0.4 1.6,0.5 v 405.8 c 79.7,-55 163,-100.5 251.6,-135.9 C 522.1,480 613.6,456.4 708.3,444.1 803.4,431.8 898,439 992.8,448.9 977.7,298.5 871.3,121.1 672.6,51.4 474.5,-18.1 251.7,45.6 121.8,219.5 -5,389.4 8.2,597 78.6,728 M 655.4,430.9 c -34.4,3.7 -69,6.5 -103.2,11.4 -70.9,10.1 -140.2,27.6 -207.8,51.2 -2.9,1 -5.8,1.9 -9.3,3 V 231.1 h 6.8 c 38.3,0 76.7,-0.2 115,0.1 32,0.2 63.7,3.5 94.1,14.1 52.5,18.3 83,56.3 98,108.6 6.7,23.5 10.1,47.5 12.1,71.8 0.4,4.9 -2.4,4.9 -5.7,5.2"
   clip-path="url(#SVGID_2_)"
   id="path4600"
   inkscape:connector-curvature="0"
   style="fill:#f9f9f9;stroke:url(#linearGradient5162);stroke-width:8.29991436;stroke-miterlimit:4;stroke-dasharray:none" />
	<path
   class="st2"
   d="m 661.6,474.7 v 0 c 0,-7.2 0,-10.6 0,0"
   clip-path="url(#SVGID_2_)"
   id="path4602"
   inkscape:connector-curvature="0"
   style="fill:#ff0000" />
	<path
   class="st2"
   d="m 510.5,995.3 c 85,0 165,-22 234.6,-60.4 166.7,-90.6 252.8,-264.4 251.7,-419.1 0,0 -0.1,0.1 -0.1,0.1 0,-2.3 0.1,-4.6 0.1,-6.9 h -62.6 c 0,230.7 -185.4,418.9 -415,423.6 -23.3,-0.1 -46.7,-1.7 -70.4,-4.9 C 384.7,919 326.2,895.2 272.7,859 c -1.6,-1.1 -3,-2.3 -5.7,-4.3 h 7 c 75.6,0 151.2,0.1 226.8,0 27.9,-0.1 55.6,-3.4 82.6,-10.8 92.6,-25.4 156.8,-84.2 197.8,-169.5 29.5,-61.4 41.1,-126.9 42.4,-194.5 0.2,-11.6 0,-17.1 0,-29.2 -55.5,4.9 -108.8,9 -161.9,24.2 0,7.5 0,19.2 -0.1,23.1 -1.4,37.4 -6,74.2 -18.2,109.8 -13,37.8 -33.6,70 -68.2,91.7 -30.1,18.9 -63.6,26.2 -98.6,26.7 -45.7,0.7 -91.4,0.3 -137.2,0.4 -1.4,0 -2.8,-0.3 -4.6,-0.6 0,-15.3 0.1,-30.2 -0.1,-45.1 L 336.2,624 C 267.6,669.6 199.1,725 138,780.6 L 118.2,796 c 88.5,120.7 231.4,199.3 392.3,199.3"
   clip-path="url(#SVGID_2_)"
   id="path4604"
   inkscape:connector-curvature="0"
   style="fill:#f9f9f9;stroke:url(#linearGradient5168);stroke-width:8.29991436;stroke-miterlimit:4;stroke-dasharray:none" />
</g>
</svg>