<?xml version="1.0" encoding="UTF-8"?>
<svg width="980px" height="980px" viewBox="0 0 980 980" version="1.1" xmlns="http://www.w3.org/2000/svg" xmlns:xlink="http://www.w3.org/1999/xlink">
    <!-- Generator: Sketch 41.2 (35397) - http://www.bohemiancoding.com/sketch -->
    <title>icon-payroll</title>
    <desc>Created with Sketch.</desc>
    <defs></defs>
    <g id="Page-1" stroke="none" stroke-width="1" fill="none" fill-rule="evenodd">
        <g id="icon-payroll">
            <g id="Page-1">
                <g id="Group">
                    <path d="M890.9,89.1 L801.8,89.1 L801.8,22.3 C801.8,8.9 792.9,-3.55271368e-15 779.5,-3.55271368e-15 C766.1,-3.55271368e-15 757.2,8.9 757.2,22.3 L757.2,89.1 L222.7,89.1 L222.7,22.3 C222.7,8.9 213.8,-3.55271368e-15 200.4,-3.55271368e-15 C187,-3.55271368e-15 178.1,8.9 178.1,22.3 L178.1,89.1 L89.1,89.1 C40.1,89.1 0,129.2 0,178.2 L0,311.8 L0,356.3 L0,890.8 C0,939.8 40.1,979.9 89.1,979.9 L890.9,979.9 C939.9,979.9 980,939.8 980,890.8 L980,356.4 L980,311.9 L980,178.2 C980,129.2 939.9,89.1 890.9,89.1 Z M935.5,890.9 C935.5,915.4 915.5,935.4 891,935.4 L89.1,935.4 C64.6,935.4 44.6,915.4 44.6,890.9 L44.6,356.4 L935.5,356.4 L935.5,890.9 Z M935.5,311.8 L44.5,311.8 L44.5,178.2 C44.5,153.7 64.5,133.7 89,133.7 L178.1,133.7 L178.1,200.5 C178.1,213.9 187,222.8 200.4,222.8 C213.8,222.8 222.7,213.9 222.7,200.5 L222.7,133.7 L757.2,133.7 L757.2,200.5 C757.2,213.9 766.1,222.8 779.5,222.8 C792.9,222.8 801.8,213.9 801.8,200.5 L801.8,133.7 L890.9,133.7 C915.4,133.7 935.4,153.7 935.4,178.2 L935.4,311.8 L935.5,311.8 Z" id="Shape" fill="#647CE8"></path>
                    <path d="M588.409055,725.987274 C588.409055,788.444983 480.843,781.505237 446.144273,781.505237 L446.144273,670.46931 C480.843,670.46931 588.409055,660.059692 588.409055,725.987274 L588.409055,725.987274 Z M567.589819,569.843 C567.589819,625.360964 477.373128,618.421219 449.614146,618.421219 L449.614146,517.794909 C477.373128,521.264782 567.589819,510.855164 567.589819,569.843 L567.589819,569.843 Z M539.830837,462.276946 L539.830837,379 L491.252619,382.469873 L491.252619,462.276946 L449.614146,462.276946 L449.614146,382.469873 L397.566055,382.469873 L397.566055,465.746818 L366.3372,465.746818 L296.939745,465.746818 L296.939745,517.794909 L331.638473,517.794909 C352.457709,517.794909 359.397455,528.204528 359.397455,538.614146 L359.397455,764.155874 C359.397455,771.095619 352.457709,781.505237 338.578218,781.505237 L300.409618,781.505237 L290,840.493074 L355.927582,840.493074 L390.626309,840.493074 L390.626309,923.77002 L442.6744,923.77002 L442.6744,840.493074 L484.312873,840.493074 L484.312873,920.300147 L536.360964,920.300147 L536.360964,837.023201 C623.107783,833.553328 682.095619,812.734092 689.035365,732.927019 C695.97511,670.46931 664.746255,642.710328 616.168037,628.830837 C647.396892,618.421219 664.746255,590.662237 661.276383,549.023764 C654.336637,490.035928 605.758419,469.216691 539.830837,462.276946 Z" id="Shape" fill="#B2C1F7" transform="translate(489.998974, 651.385010) rotate(13.000000) translate(-489.998974, -651.385010) "></path>
                </g>
            </g>
        </g>
    </g>
</svg>