<?xml version="1.0" encoding="UTF-8"?>
<svg width="33px" height="33px" viewBox="0 0 33 33" version="1.1" xmlns="http://www.w3.org/2000/svg" xmlns:xlink="http://www.w3.org/1999/xlink">
    <!-- Generator: Sketch 40.1 (33804) - http://www.bohemiancoding.com/sketch -->
    <title>Group</title>
    <desc>Created with Sketch.</desc>
    <defs></defs>
    <g id="Symbols" stroke="none" stroke-width="1" fill="none" fill-rule="evenodd">
        <g id="Icons/Transaction/Pending" transform="translate(-8.000000, -8.000000)">
            <g id="Icons/Send">
                <g id="icons/received">
                    <g id="users-24px-outline-2_a-check" transform="translate(8.000000, 8.000000)">
                        <g id="Group">
                            <path d="M16.5,33 C25.6126984,33 33,25.6126984 33,16.5 C33,7.38730163 25.6126984,0 16.5,0 C7.38730163,0 0,7.38730163 0,16.5 C0,25.6126984 7.38730163,33 16.5,33 Z" id="Oval-204" fill="#FFF6EF"></path>
                            <path d="M15.7275949,17.3034598 C13.3028473,17.3034598 11.1520001,17.8512604 9.73870884,18.3277955 C8.69548354,18.680689 8,19.6638107 8,20.7654223 L8,24.172433 L14.8689732,24.172433" id="Shape" stroke="#F6A623"></path>
                            <path d="M15.7275949,17.3034598 L15.7275949,17.3034598 C13.3569405,17.3034598 11.4344866,14.5223843 11.4344866,12.1517299 L11.4344866,11.2931083 C11.4344866,8.92245388 13.3569405,7 15.7275949,7 L15.7275949,7 C18.0982492,7 20.0207031,8.92245388 20.0207031,11.2931083 L20.0207031,12.1517299 C20.0207031,14.5223843 18.0982492,17.3034598 15.7275949,17.3034598 L15.7275949,17.3034598 Z" id="Shape" stroke="#F6A623"></path>
                            <polyline id="Shape" stroke="#F6A623" points="19.1620815 23.3138114 20.8793248 25.0310547 25.172433 20.7379464"></polyline>
                        </g>
                    </g>
                </g>
            </g>
        </g>
    </g>
</svg>