<?xml version="1.0" encoding="UTF-8"?>
<svg width="18px" height="19px" viewBox="0 0 18 19" version="1.1" xmlns="http://www.w3.org/2000/svg" xmlns:xlink="http://www.w3.org/1999/xlink">
    <!-- Generator: sketchtool 40.1 (33804) - http://www.bohemiancoding.com/sketch -->
    <title>497EDE1E-1EB6-4FBF-8440-97D248EFDC4C</title>
    <desc>Created with sketchtool.</desc>
    <defs></defs>
    <g id="Page-1" stroke="none" stroke-width="1" fill="none" fill-rule="evenodd">
        <g id="Icons" transform="translate(-185.000000, -769.000000)" stroke="#9b9bab">
            <g id="icons/list-items/sync" transform="translate(186.000000, 770.000000)">
                <g id="Group" transform="translate(0.386364, 0.370709)">
                    <path d="M0,16.3112128 L0,-1.77635684e-15 L12.3636364,-1.77635684e-15 C13.2136364,-1.77635684e-15 13.9090909,0.667276888 13.9090909,1.48283753 L13.9090909,14.8283753 C13.9090909,15.6439359 13.2136364,16.3112128 12.3636364,16.3112128 L0,16.3112128 L0,16.3112128 Z" id="Shape"></path>
                    <path d="M15.4545455,2.22425629 L15.4545455,3.70709382" id="Shape"></path>
                    <path d="M15.4545455,5.93135011 L15.4545455,7.41418764" id="Shape"></path>
                    <path d="M7.72727273,7.93318078 L9.42727273,9.19359268 C9.81363636,9.49016018 10.0454545,9.93501144 10.0454545,10.3798627 L10.0454545,11.1212815 L3.86363636,11.1212815 L3.86363636,10.3798627 C3.86363636,9.93501144 4.09545455,9.49016018 4.48181818,9.19359268 L6.18181818,8.00732265" id="Shape"></path>
                    <path d="M6.95454545,8.15560641 L6.95454545,8.15560641 C6.10454545,8.15560641 5.40909091,7.48832952 5.40909091,6.67276888 L5.40909091,5.93135011 C5.40909091,5.11578947 6.10454545,4.44851259 6.95454545,4.44851259 L6.95454545,4.44851259 C7.80454545,4.44851259 8.5,5.11578947 8.5,5.93135011 L8.5,6.67276888 C8.5,7.48832952 7.80454545,8.15560641 6.95454545,8.15560641 L6.95454545,8.15560641 Z" id="Shape"></path>
                </g>
            </g>
        </g>
    </g>
</svg>
