<?xml version="1.0" encoding="UTF-8"?>
<svg width="1200px" height="1200px" viewBox="0 0 1200 1200" version="1.1" xmlns="http://www.w3.org/2000/svg" xmlns:xlink="http://www.w3.org/1999/xlink">
    <!-- Generator: Sketch 42 (36781) - http://www.bohemiancoding.com/sketch -->
    <title>icon-account-link</title>
    <desc>Created with Sketch.</desc>
    <defs></defs>
    <g id="Page-1" stroke="none" stroke-width="1" fill="none" fill-rule="evenodd">
        <g id="icon-account-link" fill-rule="nonzero" fill="#FFFFFF">
            <g transform="translate(182.000000, 103.000000)" id="Page-1">
                <g>
                    <g id="Group">
                        <path d="M412.2,529.7 C266.2,529.7 147.3,410.9 147.3,264.8 C147.3,118.8 266.1,5.68434189e-14 412.2,5.68434189e-14 C558.2,0 677,118.8 677,264.8 C677,410.9 558.2,529.7 412.2,529.7 Z M412.2,59 C298.7,59 206.4,151.3 206.4,264.8 C206.4,378.3 298.7,470.6 412.2,470.6 C525.7,470.6 618,378.3 618,264.8 C618,151.4 525.7,59 412.2,59 Z" id="Shape"></path>
                        <path d="M151.9,976.1 C131.7,976.1 73.9,972.9 38.3,939.7 C-2.2,902 -0.4,839.9 1.1,821.7 C16.3,640.2 202.7,486.9 408.1,486.9 C492.4,486.9 573.6,512.1 642.8,559.6 C655.4,569.9 661.877654,589.748858 651.677654,602.348858 C641.377654,614.948858 622.1,618.4 609.5,608.2 C550.1,567.4 480.5,545.8 408.2,545.8 C232.2,545.8 72.8,674.4 60,826.5 C58,850.8 62.9,881.9 78.6,896.4 C98.7,915.2 143.4,917.5 157.3,916.8 L510.8373,916.8 C527.1373,916.8 542.483665,930.36091 542.483665,946.66091 C542.483665,962.96091 527.1373,976.1 510.8373,976.1 L158.6,976 C157.7,976.1 155.3,976.1 151.9,976.1 Z" id="Shape"></path>
                        <path d="M833.815035,850.023436 C824.349834,840.501748 824.431861,823.070281 833.897062,813.548594 L849.364814,798.080842 C868.856756,778.615943 879.707706,752.133792 879.478159,724.588095 C879.248611,697.042399 867.957829,670.744762 848.144202,651.607409 C828.63929,632.313838 802.34235,621.444435 774.907486,621.336233 C746.709885,621.524467 720.342062,632.730792 701.060463,652.461837 L686.935384,666.586916 C676.703051,676.819248 661.481235,677.689636 651.838619,668.04702 C642.346515,658.554916 642.926865,641.565286 652.392066,632.043598 L666.273023,618.162642 C694.774842,589.39013 733.553781,573.140745 774.053057,573 C815.247531,573.099062 853.94168,589.006169 882.68752,617.308213 C911.600315,645.404306 928.065225,683.903658 928.409202,724.217698 C928.753178,764.531738 912.947603,803.306434 884.518438,831.891793 L868.379349,848.030881 C858.12492,858.285311 838.521807,854.564388 833.815035,850.023436 Z" id="Shape"></path>
                        <path d="M710.815035,971.023436 C701.349834,961.501748 701.431861,944.070281 710.897062,934.548594 L726.364814,919.080842 C745.856756,899.615943 756.707706,873.133792 756.478159,845.588095 C756.248611,818.042399 744.957829,791.744762 725.144202,772.607409 C705.63929,753.313838 679.34235,742.444435 651.907486,742.336233 C623.709885,742.524467 597.342062,753.730792 578.060463,773.461837 L563.935384,787.586916 C553.703051,797.819248 538.481235,798.689636 528.838619,789.04702 C519.346515,779.554916 519.926865,762.565286 529.392066,753.043598 L543.273023,739.162642 C571.774842,710.39013 610.553781,694.140745 651.053057,694 C692.247531,694.099062 730.94168,710.006169 759.68752,738.308213 C788.600315,766.404306 805.065225,804.903658 805.409202,845.217698 C805.753178,885.531738 789.947603,924.306434 761.518438,952.891793 L745.379349,969.030881 C735.12492,979.285311 715.521807,975.564388 710.815035,971.023436 Z" id="Shape-Copy" transform="translate(663.707350, 834.797020) rotate(180.000000) translate(-663.707350, -834.797020) "></path>
                        <path d="M821.680751,748.167038 C829.257193,748.167038 835.461523,758.467038 835.461523,771.267038 C835.461523,783.967038 829.31685,794.367038 821.680751,794.367038 L634.536672,794.367038 C626.96023,794.367038 620.7559,784.067038 620.7559,771.267038 C620.7559,758.567038 626.900573,748.167038 634.536672,748.167038 L821.680751,748.167038 Z" id="Shape" transform="translate(728.108712, 771.267038) rotate(-45.000000) translate(-728.108712, -771.267038) "></path>
                        <path d="M821.303416,801.746002 L634.159338,801.746002 C624.136958,801.746002 603.83339,785.925405 603.83339,769.225405 C603.83339,752.425405 624.196615,740.946002 634.159338,740.946002 L821.303416,740.946002 C831.325796,740.946002 851.629363,756.766599 851.629363,773.466599 C851.629363,790.166599 831.325796,801.746002 821.303416,801.746002 Z M634.159338,755.546002 C629.028834,755.546002 624.793185,762.546002 624.793185,771.246002 C624.793185,779.846002 628.969177,786.946002 634.159338,786.946002 L821.303416,786.946002 C826.43392,786.946002 830.669569,779.946002 830.669569,771.246002 C830.669569,762.546002 826.493577,755.546002 821.303416,755.546002 L634.159338,755.546002 Z" id="Shape" transform="translate(727.731376, 771.346002) rotate(-45.000000) translate(-727.731376, -771.346002) "></path>
                    </g>
                </g>
            </g>
        </g>
    </g>
</svg>