<?xml version="1.0" encoding="UTF-8" standalone="no"?>
<!DOCTYPE svg PUBLIC "-//W3C//DTD SVG 1.1//EN" "http://www.w3.org/Graphics/SVG/1.1/DTD/svg11.dtd">
<svg width="100%" height="100%" viewBox="0 0 40 40" version="1.1" xmlns="http://www.w3.org/2000/svg" xmlns:xlink="http://www.w3.org/1999/xlink" xml:space="preserve" style="fill-rule:evenodd;clip-rule:evenodd;stroke-linejoin:round;stroke-miterlimit:1.41421;">
    <g id="flask" transform="matrix(1.27778,0,0,1.27778,7.86111,8)">
        <path d="M13.358,7.26C13.563,7.465 13.78,7.69 14.009,7.937C14.237,8.183 14.571,8.552 15.011,9.044C15.45,9.536 15.854,10.034 16.224,10.538C16.593,11.042 16.959,11.58 17.322,12.151C17.686,12.722 17.973,13.295 18.184,13.869C18.395,14.443 18.5,14.962 18.5,15.425C18.5,16.134 18.248,16.74 17.744,17.244C17.24,17.748 16.634,18 15.925,18L3.075,18C2.366,18 1.76,17.748 1.256,17.244C0.752,16.74 0.5,16.134 0.5,15.425C0.5,14.962 0.605,14.443 0.816,13.869C1.027,13.295 1.314,12.722 1.678,12.151C2.041,11.58 2.407,11.042 2.776,10.538C3.146,10.034 3.55,9.536 3.989,9.044C4.429,8.552 4.763,8.183 4.991,7.937C5.22,7.69 5.437,7.465 5.642,7.26L5.642,1.925L4.675,1.925C4.587,1.925 4.512,1.894 4.451,1.833C4.389,1.771 4.358,1.696 4.358,1.608L4.358,0.316C4.358,0.229 4.389,0.154 4.451,0.092C4.512,0.031 4.587,0 4.675,0L14.325,0C14.413,0 14.488,0.031 14.549,0.092C14.611,0.154 14.642,0.229 14.642,0.316L14.642,1.608C14.642,1.696 14.611,1.771 14.549,1.833C14.488,1.894 14.413,1.925 14.325,1.925L13.358,1.925L13.358,7.26ZM5,1.283L14,1.283L14,0.642L5,0.642L5,1.283ZM12.717,1.925L6.283,1.925L6.283,4.14C6.705,4.011 7.105,3.926 7.483,3.885C7.861,3.844 8.168,3.838 8.406,3.867C8.643,3.896 8.863,3.948 9.065,4.021C9.267,4.094 9.408,4.156 9.487,4.206C9.566,4.255 9.632,4.304 9.685,4.351C9.737,4.392 9.806,4.437 9.891,4.487C9.976,4.537 10.124,4.601 10.335,4.68C10.546,4.759 10.763,4.811 10.985,4.834C11.208,4.857 11.478,4.835 11.794,4.768C12.11,4.701 12.418,4.576 12.717,4.395L12.717,1.925ZM15.925,17.358C16.458,17.358 16.914,17.169 17.292,16.792C17.669,16.414 17.858,15.958 17.858,15.425C17.858,14.897 17.688,14.273 17.349,13.553C17.009,12.832 16.615,12.161 16.167,11.54C15.718,10.919 15.228,10.295 14.694,9.668C14.161,9.041 13.747,8.574 13.451,8.266C13.155,7.958 12.942,7.746 12.813,7.629C12.749,7.564 12.717,7.485 12.717,7.392L12.717,5.124C12.242,5.353 11.753,5.467 11.249,5.467C10.903,5.467 10.566,5.413 10.238,5.304C9.91,5.196 9.679,5.101 9.544,5.019C9.409,4.937 9.321,4.875 9.28,4.834C9.233,4.799 9.192,4.77 9.157,4.746C9.122,4.723 9.012,4.679 8.828,4.614C8.643,4.55 8.45,4.51 8.248,4.496C8.045,4.481 7.767,4.496 7.413,4.54C7.058,4.583 6.682,4.673 6.283,4.808L6.283,7.392C6.283,7.485 6.251,7.564 6.187,7.629C6.058,7.746 5.845,7.958 5.549,8.266C5.253,8.574 4.839,9.041 4.306,9.668C3.772,10.295 3.282,10.919 2.833,11.54C2.385,12.161 1.991,12.832 1.651,13.553C1.312,14.273 1.142,14.897 1.142,15.425C1.142,15.958 1.331,16.414 1.708,16.792C2.086,17.169 2.542,17.358 3.075,17.358L15.925,17.358ZM9.825,6.425C10.358,6.425 10.812,6.614 11.187,6.992C11.563,7.37 11.75,7.825 11.75,8.358C11.75,8.892 11.563,9.346 11.187,9.721C10.812,10.096 10.358,10.283 9.825,10.283C9.292,10.283 8.836,10.096 8.458,9.721C8.081,9.346 7.892,8.892 7.892,8.358C7.892,7.825 8.081,7.37 8.458,6.992C8.836,6.614 9.292,6.425 9.825,6.425ZM9.825,9.642C10.177,9.642 10.479,9.517 10.73,9.268C10.982,9.019 11.108,8.716 11.108,8.358C11.108,8.001 10.982,7.696 10.73,7.444C10.479,7.192 10.177,7.066 9.825,7.066C9.468,7.066 9.163,7.192 8.911,7.444C8.659,7.696 8.533,8.001 8.533,8.358C8.533,8.716 8.659,9.019 8.911,9.268C9.163,9.517 9.468,9.642 9.825,9.642ZM7.892,10.925C8.249,10.925 8.552,11.051 8.801,11.303C9.05,11.555 9.175,11.859 9.175,12.217C9.175,12.568 9.05,12.87 8.801,13.122C8.552,13.374 8.249,13.5 7.892,13.5C7.534,13.5 7.231,13.374 6.982,13.122C6.733,12.87 6.608,12.568 6.608,12.217C6.608,11.859 6.733,11.555 6.982,11.303C7.231,11.051 7.534,10.925 7.892,10.925ZM7.892,12.858C8.073,12.858 8.226,12.795 8.349,12.669C8.472,12.543 8.533,12.393 8.533,12.217C8.533,12.035 8.472,11.881 8.349,11.755C8.226,11.629 8.073,11.566 7.892,11.566C7.716,11.566 7.565,11.629 7.439,11.755C7.313,11.881 7.25,12.035 7.25,12.217C7.25,12.393 7.313,12.543 7.439,12.669C7.565,12.795 7.716,12.858 7.892,12.858ZM10.783,13.5C11.053,13.5 11.281,13.594 11.469,13.781C11.656,13.969 11.75,14.197 11.75,14.467C11.75,14.73 11.656,14.956 11.469,15.144C11.281,15.331 11.053,15.425 10.783,15.425C10.52,15.425 10.294,15.331 10.106,15.144C9.919,14.956 9.825,14.73 9.825,14.467C9.825,14.197 9.919,13.969 10.106,13.781C10.294,13.594 10.52,13.5 10.783,13.5ZM10.783,14.783C10.871,14.783 10.947,14.752 11.012,14.691C11.076,14.629 11.108,14.555 11.108,14.467C11.108,14.373 11.076,14.295 11.012,14.234C10.947,14.172 10.871,14.142 10.783,14.142C10.695,14.142 10.621,14.172 10.559,14.234C10.498,14.295 10.467,14.373 10.467,14.467C10.467,14.555 10.498,14.629 10.559,14.691C10.621,14.752 10.695,14.783 10.783,14.783Z" style="fill:white;"/>
    </g>
</svg>
