<?xml version="1.0" standalone="no"?>
<!DOCTYPE svg PUBLIC "-//W3C//DTD SVG 1.1//EN" "http://www.w3.org/Graphics/SVG/1.1/DTD/svg11.dtd">
<svg width="100%" height="100%" viewBox="0 0 19 18" version="1.1" xmlns="http://www.w3.org/2000/svg" xmlns:xlink="http://www.w3.org/1999/xlink" xml:space="preserve" style="fill-rule:evenodd;clip-rule:evenodd;stroke-linejoin:round;stroke-miterlimit:1.41421;">
    <path id="sync" d="M9.401,0.642C8.27,0.642 7.188,0.863 6.153,1.305C5.119,1.748 4.23,2.341 3.486,3.085C2.742,3.829 2.149,4.718 1.706,5.752C1.264,6.787 1.043,7.869 1.043,9C1.043,9.088 1.012,9.163 0.95,9.224C0.889,9.286 0.814,9.316 0.726,9.316C0.632,9.316 0.555,9.286 0.493,9.224C0.432,9.163 0.401,9.088 0.401,9C0.401,7.775 0.638,6.608 1.113,5.498C1.587,4.387 2.226,3.431 3.029,2.628C3.832,1.825 4.788,1.187 5.899,0.712C7.009,0.237 8.176,0 9.401,0C11.018,0 12.508,0.397 13.87,1.191C15.233,1.985 16.315,3.053 17.118,4.395L17.118,0.967C17.118,0.873 17.149,0.795 17.21,0.734C17.272,0.672 17.346,0.642 17.434,0.642C17.522,0.642 17.598,0.672 17.663,0.734C17.727,0.795 17.759,0.873 17.759,0.967L17.759,5.467C17.759,5.555 17.727,5.629 17.663,5.691C17.598,5.752 17.522,5.783 17.434,5.783L12.934,5.783C12.846,5.783 12.772,5.752 12.71,5.691C12.649,5.629 12.618,5.555 12.618,5.467C12.618,5.373 12.649,5.295 12.71,5.234C12.772,5.172 12.846,5.142 12.934,5.142L16.81,5.142C16.101,3.782 15.086,2.692 13.765,1.872C12.443,1.052 10.989,0.642 9.401,0.642L9.401,0.642ZM9.401,18C7.784,18 6.294,17.603 4.932,16.809C3.569,16.015 2.487,14.947 1.684,13.605L1.684,17.033C1.684,17.121 1.653,17.197 1.592,17.262C1.53,17.326 1.456,17.358 1.368,17.358C1.28,17.358 1.204,17.326 1.139,17.262C1.075,17.197 1.043,17.121 1.043,17.033L1.043,12.533C1.043,12.445 1.075,12.371 1.139,12.309C1.204,12.248 1.28,12.217 1.368,12.217L5.868,12.217C5.956,12.217 6.03,12.248 6.092,12.309C6.153,12.371 6.184,12.445 6.184,12.533C6.184,12.621 6.153,12.697 6.092,12.762C6.03,12.826 5.956,12.858 5.868,12.858L1.992,12.858C2.701,14.218 3.716,15.308 5.037,16.128C6.358,16.948 7.813,17.358 9.401,17.358C10.532,17.358 11.614,17.137 12.649,16.695C13.683,16.252 14.572,15.659 15.316,14.915C16.06,14.171 16.653,13.282 17.096,12.248C17.538,11.213 17.759,10.131 17.759,9C17.759,8.912 17.79,8.836 17.852,8.771C17.913,8.707 17.988,8.675 18.076,8.675C18.17,8.675 18.247,8.707 18.309,8.771C18.37,8.836 18.401,8.912 18.401,9C18.401,10.219 18.164,11.383 17.689,12.494C17.214,13.604 16.576,14.562 15.773,15.368C14.97,16.173 14.012,16.813 12.899,17.288C11.786,17.763 10.62,18 9.401,18Z" style="fill:white;"/>
</svg>
