<?xml version="1.0" encoding="utf-8"?>
<!-- Generator: Adobe Illustrator 16.0.0, SVG Export Plug-In . SVG Version: 6.00 Build 0)  -->
<!DOCTYPE svg PUBLIC "-//W3C//DTD SVG 1.1//EN" "http://www.w3.org/Graphics/SVG/1.1/DTD/svg11.dtd">
<svg version="1.1" id="Layer_2" xmlns="http://www.w3.org/2000/svg" xmlns:xlink="http://www.w3.org/1999/xlink" x="0px" y="0px"
	 width="128px" height="128px" viewBox="0 0 128 128" enable-background="new 0 0 128 128" xml:space="preserve">
<g>
	<path fill="#FFFFFF" d="M104.106,77.705c-0.611-12.348-5.462-16.941-14.313-19.387c5.16-3.97,8.336-10.063,6.352-19.193
		c-2.382-11.909-13.1-15.084-25.803-15.481l-1.984-15.97l-9.925,0.091l1.985,16.673c-2.779,0.397-5.16,0.397-7.939,0.794
		L50.494,8.558l-9.924,0.794l1.985,17.394c-1.985,0-3.286,0.289-6.352,0.47l-3.835,0.432l-8.473,0.327l0.002,11.547
		c0,0,6.227-0.309,7.901-0.289c3.765,0.748,4.381,1.883,5.198,3.861l1.985,19.451l3.176,26.994c0,1.191-0.794,3.572-3.176,3.572
		l-7.146,0.795l-0.397,12.307l12.703-1.191c2.382,0,4.764-0.396,7.146-0.396l1.765,15.646l2.161,0.041l8.174,0.014l-2.176-16.496
		c2.779,0,5.558-0.396,7.939-0.396l1.916,16.357l9.994-0.479l-1.985-17.07C95.748,99.861,103.539,93.445,104.106,77.705z
		 M54.463,37.14c5.557-0.397,23.024-3.97,24.214,8.336c0.795,11.512-16.672,11.909-22.229,12.307L54.463,37.14z M59.624,91.127
		L57.242,68.5c7.145-0.793,27.787-4.763,28.979,8.734C87.809,89.936,66.372,90.334,59.624,91.127z"/>
</g>
</svg>
