<?xml version="1.0" encoding="UTF-8" ?>
<!DOCTYPE svg PUBLIC "-//W3C//DTD SVG 1.1//EN" "http://www.w3.org/Graphics/SVG/1.1/DTD/svg11.dtd">
<svg width="972pt" height="724pt" viewBox="0 0 972 724" version="1.1" xmlns="http://www.w3.org/2000/svg">
<g id="#1414143a">
<path fill="#141414" opacity="0.23" d=" M 176.33 106.00 C 176.48 102.63 175.68 99.12 176.88 95.88 C 177.05 209.98 176.93 324.08 176.94 438.18 C 176.61 437.14 176.39 436.08 176.28 435.01 C 176.39 325.34 176.29 215.67 176.33 106.00 Z" />
<path fill="#141414" opacity="0.23" d=" M 730.19 156.99 C 730.31 157.51 730.57 158.56 730.70 159.08 C 730.65 191.38 730.68 223.69 730.68 256.00 C 730.71 263.33 730.52 270.66 730.91 277.99 L 729.95 277.98 C 730.26 237.66 729.79 197.32 730.19 156.99 Z" />
</g>
<g id="#ffffffff">
<path fill="#ffffff" opacity="1.00" d=" M 176.88 95.88 C 316.49 96.11 456.12 95.76 595.73 96.05 C 595.64 116.41 595.70 136.77 595.70 157.13 C 640.53 157.03 685.36 157.31 730.19 156.99 C 729.79 197.32 730.26 237.66 729.95 277.98 L 730.91 277.99 C 760.67 278.02 790.43 277.99 820.18 278.00 C 820.20 358.67 820.18 439.33 820.19 520.00 C 820.10 534.35 820.40 548.72 819.99 563.07 C 819.09 574.58 815.22 585.95 808.25 595.22 C 797.68 609.63 781.46 619.69 763.87 622.84 C 759.30 623.26 754.78 624.16 750.18 624.07 C 612.06 624.00 473.95 624.01 335.83 624.06 C 313.89 624.28 292.15 613.54 279.24 595.74 C 271.05 585.01 266.70 571.45 266.86 557.97 C 266.76 539.67 266.80 521.36 266.84 503.06 C 252.16 502.85 236.95 504.26 222.90 499.09 C 197.10 490.79 176.98 465.67 176.94 438.18 C 176.93 324.08 177.05 209.98 176.88 95.88 M 196.21 115.27 C 196.11 129.21 196.20 143.16 196.16 157.11 C 322.87 157.15 449.57 157.11 576.27 157.13 C 576.23 143.16 576.39 129.18 576.19 115.21 C 449.53 115.29 322.87 115.17 196.21 115.27 M 196.16 176.89 C 196.18 263.27 196.15 349.64 196.18 436.02 C 196.05 448.04 200.82 460.10 209.55 468.44 C 218.27 477.34 230.52 482.70 242.96 483.20 C 250.87 484.54 258.94 483.57 266.93 483.90 C 266.96 394.94 266.90 305.98 266.96 217.01 C 406.57 216.98 546.18 217.01 685.79 217.00 C 686.05 237.33 685.74 257.67 685.94 278.01 C 694.24 277.98 702.55 278.03 710.85 277.98 C 710.79 244.29 710.84 210.59 710.83 176.89 C 539.28 176.86 367.72 176.86 196.16 176.89 M 286.22 236.27 C 286.10 250.21 286.20 264.16 286.16 278.11 C 412.87 278.15 539.57 278.10 666.27 278.13 C 666.23 264.16 666.39 250.18 666.19 236.21 C 539.53 236.29 412.87 236.18 286.22 236.27 M 286.16 297.89 C 286.18 384.27 286.15 470.64 286.18 557.02 C 286.01 569.77 291.46 582.48 301.08 590.90 C 311.11 600.63 325.32 604.57 339.01 604.76 C 471.67 604.77 604.34 604.76 737.00 604.76 C 746.74 604.66 756.79 605.41 766.18 602.23 C 781.70 597.74 795.20 585.22 799.24 569.36 C 801.16 562.41 800.81 555.14 800.83 548.00 C 800.83 464.63 800.82 381.26 800.83 297.89 C 629.28 297.86 457.72 297.86 286.16 297.89 Z" />
<path fill="#ffffff" opacity="1.00" d=" M 702.31 433.37 C 711.47 432.02 721.21 432.30 729.76 436.17 C 739.86 440.29 748.16 448.71 752.13 458.86 C 755.05 467.56 755.88 477.21 753.01 486.04 C 749.15 498.78 738.22 508.36 726.03 512.96 C 716.93 515.90 706.94 515.90 697.75 513.41 C 682.28 509.08 668.80 495.28 668.21 478.70 C 667.95 467.56 670.17 455.46 678.25 447.21 C 684.27 439.86 693.09 435.27 702.31 433.37 M 706.41 452.56 C 698.03 453.53 690.28 459.81 688.39 468.16 C 687.37 473.77 686.65 480.08 689.74 485.21 C 698.04 497.16 716.86 499.56 727.75 489.80 C 737.65 482.51 737.96 466.15 728.82 458.15 C 722.92 452.59 714.15 451.32 706.41 452.56 Z" />
</g>
<g id="#26262656">
<path fill="#262626" opacity="0.34" d=" M 266.31 216.33 C 406.16 216.37 546.02 216.43 685.88 216.30 C 686.22 236.86 686.07 257.44 685.94 278.01 C 685.74 257.67 686.05 237.33 685.79 217.00 C 546.18 217.01 406.57 216.98 266.96 217.01 C 266.90 305.98 266.96 394.94 266.93 483.90 C 258.94 483.57 250.87 484.54 242.96 483.20 C 250.68 483.29 258.41 483.57 266.13 483.13 C 266.51 476.09 266.25 469.04 266.31 462.00 C 266.31 380.11 266.31 298.22 266.31 216.33 Z" />
</g>
<g id="#0d0d0d35">
<path fill="#0d0d0d" opacity="0.21" d=" M 335.83 624.06 C 473.95 624.01 612.06 624.00 750.18 624.07 C 746.56 625.25 742.72 624.56 739.00 624.67 C 605.66 624.71 472.32 624.62 338.99 624.71 C 337.91 624.60 336.86 624.38 335.83 624.06 Z" />
</g>
</svg>
