<?xml version="1.0" encoding="UTF-8"?>
<svg width="1200px" height="1200px" viewBox="0 0 1200 1200" version="1.1" xmlns="http://www.w3.org/2000/svg" xmlns:xlink="http://www.w3.org/1999/xlink">
    <!-- Generator: Sketch 41.2 (35397) - http://www.bohemiancoding.com/sketch -->
    <title>Untitled</title>
    <desc>Created with Sketch.</desc>
    <defs></defs>
    <g id="Page-1" stroke="none" stroke-width="1" fill="none" fill-rule="evenodd">
        <g id="Group" transform="translate(196.000000, 110.000000)" fill="#FFFFFF">
            <path d="M412.2,529.7 C266.2,529.7 147.3,410.9 147.3,264.8 C147.3,118.8 266.1,5.68434189e-14 412.2,5.68434189e-14 C558.2,0 677,118.8 677,264.8 C677,410.9 558.2,529.7 412.2,529.7 Z M412.2,59 C298.7,59 206.4,151.3 206.4,264.8 C206.4,378.3 298.7,470.6 412.2,470.6 C525.7,470.6 618,378.3 618,264.8 C618,151.4 525.7,59 412.2,59 Z" id="Shape"></path>
            <path d="M151.9,976.1 C131.7,976.1 73.9,972.9 38.3,939.7 C-2.2,902 -0.4,839.9 1.1,821.7 C16.3,640.2 202.7,486.9 408.1,486.9 C492.4,486.9 573.6,512.1 642.8,559.6 C652.1,566 661.2,572.8 670,579.9 C682.6,590.2 684.5,608.8 674.3,621.4 C664,634 645.4,635.9 632.8,625.7 C625.3,619.6 617.4,613.7 609.5,608.2 C550.1,567.4 480.5,545.8 408.2,545.8 C232.2,545.8 72.8,674.4 60,826.5 C58,850.8 62.9,881.9 78.6,896.4 C98.7,915.2 143.4,917.5 157.3,916.8 L647,916.8 C663.3,916.8 676.5,930 676.5,946.3 C676.5,962.6 663.2,976 646.9,976 L158.6,976 C157.7,976.1 155.3,976.1 151.9,976.1 Z" id="Shape"></path>
            <path d="M773.3,949.6 C773.3,962.3 763,972.7 750.2,972.7 L750.2,972.7 C737.5,972.7 727.1,962.4 727.1,949.6 L727.1,635.9 C727.1,623.2 737.4,612.8 750.2,612.8 L750.2,612.8 C762.9,612.8 773.3,623.1 773.3,635.9 L773.3,949.6 Z" id="Shape"></path>
            <path d="M750.2,980 C733.4,980 719.8,966.3 719.8,949.6 L719.8,635.9 C719.8,619.1 733.5,605.5 750.2,605.5 C767,605.5 780.6,619.2 780.6,635.9 L780.6,949.6 C780.7,966.3 767,980 750.2,980 Z M750.2,620.2 C741.5,620.2 734.5,627.2 734.5,635.9 L734.5,949.6 C734.5,958.2 741.5,965.3 750.2,965.3 C758.8,965.3 765.9,958.3 765.9,949.6 L765.9,635.9 C765.9,627.2 758.9,620.2 750.2,620.2 Z" id="Shape"></path>
            <path d="M907.1,769.7 C919.8,769.7 930.2,780 930.2,792.8 L930.2,792.8 C930.2,805.5 919.9,815.9 907.1,815.9 L593.4,815.9 C580.7,815.9 570.3,805.6 570.3,792.8 L570.3,792.8 C570.3,780.1 580.6,769.7 593.4,769.7 L907.1,769.7 Z" id="Shape"></path>
            <path d="M907.1,823.2 L593.4,823.2 C576.6,823.2 563,809.5 563,792.8 C563,776 576.7,762.4 593.4,762.4 L907.1,762.4 C923.9,762.4 937.5,776.1 937.5,792.8 C937.5,809.5 923.9,823.2 907.1,823.2 Z M593.4,777 C584.8,777 577.7,784 577.7,792.7 C577.7,801.3 584.7,808.4 593.4,808.4 L907.1,808.4 C915.7,808.4 922.8,801.4 922.8,792.7 C922.8,784 915.8,777 907.1,777 L593.4,777 Z" id="Shape"></path>
        </g>
    </g>
</svg>