<?xml version="1.0" encoding="UTF-8" standalone="no"?>
<svg width="61px" height="61px" viewBox="0 0 61 61" version="1.1" xmlns="http://www.w3.org/2000/svg" xmlns:xlink="http://www.w3.org/1999/xlink" xmlns:sketch="http://www.bohemiancoding.com/sketch/ns">
    <!-- Generator: Sketch 3.4.2 (15855) - http://www.bohemiancoding.com/sketch -->
    <title>Oval 145 Copy 7 + send copy</title>
    <desc>Created with Sketch.</desc>
    <defs>
        <circle id="path-1" cx="26.25" cy="26.25" r="26.25"></circle>
    </defs>
    <g id="Page-1" stroke="none" stroke-width="1" fill="none" fill-rule="evenodd" sketch:type="MSPage">
        <g id="Wallet-1of1" sketch:type="MSArtboardGroup" transform="translate(-28.000000, -553.000000)">
            <g id="Group-Copy" sketch:type="MSLayerGroup" transform="translate(0.000000, 527.000000)">
                <g id="Oval-145-Copy-7-+-send-copy" transform="translate(32.000000, 30.000000)">
                    <g id="Oval-145-Copy-7">
                        <use stroke="#EE4A43" stroke-width="1.09090909" fill="#FFFFFF" fill-rule="evenodd" sketch:type="MSShapeGroup" xlink:href="#path-1"></use>
                        <use stroke-opacity="0.15" stroke="#ED4A43" stroke-width="4" fill="none" xlink:href="#path-1"></use>
                    </g>
                    <path d="M28.2822266,38 C28.0869131,38 27.9526371,37.9064137 27.8793945,37.7192383 L27.8671875,37.7192383 L23.9243164,28.0756836 L14.2807617,24.1206055 C14.0935863,24.055501 14,23.921225 14,23.7177734 C14,23.52246 14.0895173,23.384115 14.2685547,23.3027344 L38.3774414,13.0366211 C38.4262698,13.0122069 38.4832354,13 38.5483398,13 C38.6785488,13 38.7863765,13.0427242 38.8718262,13.1281738 C38.9572758,13.2136235 39,13.3173822 39,13.4394531 C39,13.5045576 38.9877931,13.5655922 38.9633789,13.6225586 L28.6972656,37.7314453 C28.615885,37.9104827 28.47754,38 28.2822266,38 L28.2822266,38 Z M15.5991211,23.7055664 L24.168457,27.2089844 L36.6074219,14.7578125 L15.5991211,23.7055664 Z M28.2944336,36.3886719 L37.2421875,15.3925781 L24.7910156,27.831543 L28.2944336,36.3886719 Z" id="send-copy" fill="#EE4A43" sketch:type="MSShapeGroup"></path>
                </g>
            </g>
        </g>
    </g>
</svg>