<?xml version="1.0" encoding="utf-8"?>
<!-- Generator: Adobe Illustrator 13.0.0, SVG Export Plug-In . SVG Version: 6.00 Build 14948)  -->
<!DOCTYPE svg PUBLIC "-//W3C//DTD SVG 1.1//EN" "http://www.w3.org/Graphics/SVG/1.1/DTD/svg11.dtd">
<svg version="1.1" id="Layer_1" xmlns="http://www.w3.org/2000/svg" xmlns:xlink="http://www.w3.org/1999/xlink" x="0px" y="0px"
	 width="612px" height="792px" viewBox="0 0 612 792" enable-background="new 0 0 612 792" xml:space="preserve">
<path display="none" fill="none" stroke="#BEBEBE" stroke-width="1.5" stroke-linecap="round" stroke-linejoin="round" d="
	M408.6,394.2H199.8 M324,484.2l88.2-90L325.8,306"/>
<g id="icon">
	<path fill="#FFFFFF" d="M336.133,490.854h-66.559c-0.204-9.754-0.354-15.447-0.354-17.703c0-21.549,3.588-39.316,10.753-53.281
		c7.176-13.986,21.538-29.53,42.915-46.954c21.495-17.51,34.354-28.886,38.221-34.348c6.714-8.492,9.818-17.945,9.818-28.183
		c0-14.195-5.683-26.469-17.069-36.695c-11.354-10.199-26.823-15.297-46.095-15.297c-18.702,0-34.364,5.328-46.89,15.92
		c-12.472,10.721-21.162,26.851-25.889,48.705l-67.3-8.459c1.762-31.201,15.141-57.675,39.725-79.423
		c24.739-21.742,57.062-32.672,97.152-32.672c42.152,0,75.754,11.112,100.729,33.08c24.922,22.081,37.394,47.642,37.394,76.946
		c0,16.221-4.823,31.539-13.911,46.068c-9.12,14.384-28.725,34.058-58.609,58.979c-15.522,12.891-25.276,23.386-28.789,31.066
		C337.594,456.5,335.768,470.497,336.133,490.854z M269.574,589.574v-73.358h73.369v73.358H269.574z"/>
</g>
</svg>
