<?xml version="1.0" encoding="UTF-8" standalone="no"?>
<svg width="21px" height="18px" viewBox="0 0 21 18" version="1.1" xmlns="http://www.w3.org/2000/svg" xmlns:xlink="http://www.w3.org/1999/xlink" xmlns:sketch="http://www.bohemiancoding.com/sketch/ns">
    <!-- Generator: Sketch 3.4.2 (15855) - http://www.bohemiancoding.com/sketch -->
    <title>downloadbox</title>
    <desc>Created with Sketch.</desc>
    <defs></defs>
    <g id="Page-1" stroke="none" stroke-width="1" fill="none" fill-rule="evenodd" sketch:type="MSPage">
        <g id="Wallet-Multisign" sketch:type="MSArtboardGroup" transform="translate(-56.000000, -614.000000)" fill="#7A8C9E">
            <g id="Navigation-/-Send-Copy-2" sketch:type="MSLayerGroup" transform="translate(0.000000, 594.000000)">
                <g id="receive" transform="translate(43.359375, 17.992188)" sketch:type="MSShapeGroup">
                    <path d="M33.1875903,5.56013203 C33.258401,5.6309427 33.2938058,5.71462678 33.2938058,5.81118679 L33.2938058,18.8756905 C33.2938058,19.0752478 33.2246055,19.2442253 33.0862028,19.382628 C32.9478001,19.5210306 32.7820413,19.5902309 32.5889213,19.5902309 L14.2232997,19.5902309 C14.0301797,19.5902309 13.8644208,19.5210306 13.7260182,19.382628 C13.5876155,19.2442253 13.5184152,19.0752478 13.5184152,18.8756905 L13.5184152,5.81118679 C13.5184152,5.71462678 13.55382,5.6309427 13.6246307,5.56013203 L16.4441688,2.74059391 C16.5149794,2.66978324 16.5986635,2.63437843 16.6952235,2.63437843 L30.1169974,2.63437843 C30.2135575,2.63437843 30.2972415,2.66978324 30.3680522,2.74059391 L33.1875903,5.56013203 Z M16.8400628,3.33926296 L14.7254092,5.4635725 L32.0868117,5.4635725 L29.9721582,3.33926296 L16.8400628,3.33926296 Z M32.5889213,18.8756905 L32.5889213,6.16845703 L14.2232997,6.16845703 L14.2232997,18.8756905 L32.5889213,18.8756905 Z M23.1550557,16.6548214 L20.3355176,13.8352833 C20.2647069,13.7644726 20.2293021,13.6807885 20.2293021,13.5842285 C20.2293021,13.4876685 20.2630976,13.4039844 20.3306896,13.3331738 C20.3982816,13.2623631 20.4803564,13.2269583 20.5769164,13.2269583 C20.6863511,13.2269583 20.7700352,13.2623631 20.8279712,13.3331738 L23.0488403,15.5540428 L23.0488403,8.64038086 C23.0488403,8.54382085 23.0842451,8.46013677 23.1550557,8.3893261 C23.2258664,8.31851542 23.3095505,8.28311062 23.4061105,8.28311062 C23.5026705,8.28311062 23.5863546,8.31851542 23.6571653,8.3893261 C23.7279759,8.46013677 23.7633807,8.54382085 23.7633807,8.64038086 L23.7633807,15.5540428 L25.9842498,13.3331738 C26.0421858,13.2623631 26.1258699,13.2269583 26.2353046,13.2269583 C26.3318646,13.2269583 26.4139393,13.2623631 26.4815313,13.3331738 C26.5491234,13.4039844 26.5829188,13.4876685 26.5829188,13.5842285 C26.5829188,13.6807885 26.547514,13.7644726 26.4767034,13.8352833 L23.6571653,16.6548214 C23.5863546,16.7256321 23.5026705,16.7610369 23.4061105,16.7610369 C23.3095505,16.7610369 23.2258664,16.7256321 23.1550557,16.6548214 L23.1550557,16.6548214 Z" id="downloadbox"></path>
                </g>
            </g>
        </g>
    </g>
</svg>