<?xml version="1.0" encoding="utf-8"?>
<!-- Generator: Adobe Illustrator 16.0.3, SVG Export Plug-In . SVG Version: 6.00 Build 0)  -->
<!DOCTYPE svg PUBLIC "-//W3C//DTD SVG 1.1//EN" "http://www.w3.org/Graphics/SVG/1.1/DTD/svg11.dtd">
<svg version="1.1" id="Layer_1" xmlns:sketch="http://www.bohemiancoding.com/sketch/ns"
	 xmlns="http://www.w3.org/2000/svg" xmlns:xlink="http://www.w3.org/1999/xlink" x="0px" y="0px" width="28.522px" height="19px"
	 viewBox="0 0 28.522 19" enable-background="new 0 0 28.522 19" xml:space="preserve">
<title>Group</title>
<desc>Created with Sketch.</desc>
<path fill="none" stroke="#FFFFFF" stroke-width="0.2452" stroke-miterlimit="10" d="M-71.273,58.077"/>
<path fill="none" stroke="#FFFFFF" stroke-width="0.2452" stroke-miterlimit="10" d="M-31.824,66.181"/>
<path fill="none" stroke="#FFFFFF" stroke-width="0.2452" stroke-miterlimit="10" d="M7.625,58.077"/>
<path fill="none" stroke="#FFFFFF" stroke-width="0.2452" stroke-miterlimit="10" d="M47.074,66.181"/>
<path fill="none" stroke="#FFFFFF" stroke-width="0.2452" stroke-miterlimit="10" d="M86.522,58.077"/>
<path fill="none" stroke="#FFFFFF" stroke-width="0.2452" stroke-miterlimit="10" d="M-71.273,58.077"/>
<path fill="none" stroke="#FFFFFF" stroke-width="0.2452" stroke-miterlimit="10" d="M-31.824,66.181"/>
<path fill="none" stroke="#FFFFFF" stroke-width="0.2452" stroke-miterlimit="10" d="M7.625,58.077"/>
<g>
	<path fill="none" stroke="#FFFFFF" stroke-width="0.72" stroke-miterlimit="10" d="M27.881,17.341c0,0.447-0.349,0.81-0.777,0.81
		H1.419c-0.429,0-0.777-0.362-0.777-0.81V1.659c0-0.447,0.349-0.81,0.777-0.81h25.685c0.429,0,0.777,0.362,0.777,0.81V17.341z"/>
	<path fill="none" stroke="#FFFFFF" stroke-width="0.72" stroke-miterlimit="10" d="M4.695,13.606v-0.655
		c0-0.517,0.349-0.936,0.777-0.936h1.634c0.43,0,0.777,0.419,0.777,0.936v0.655 M7.884,13.606c0,0.517,0.349,0.936,0.778,0.936
		 M10.295,14.542c0.43,0,0.777-0.419,0.777-0.936v-0.655 M14.262,13.606v-0.655c0-0.517-0.349-0.936-0.778-0.936h-1.633
		c-0.43,0-0.778,0.419-0.778,0.936 M14.262,13.606c0,0.517,0.348,0.936,0.777,0.936 M16.672,14.542c0.43,0,0.778-0.419,0.778-0.936
		v-0.655 M20.639,13.606v-0.655c0-0.517-0.349-0.936-0.778-0.936h-1.633c-0.43,0-0.777,0.419-0.777,0.936 M20.639,13.606
		c0,0.517,0.348,0.936,0.777,0.936 M8.662,14.542h1.633 M15.039,14.542h1.633 M21.416,14.542h1.634 M4.695,13.606v0.565
		 M23.05,14.542c0.429,0,0.777-0.419,0.777-0.936v-0.655 M23.827,12.951v-0.565"/>
	<path fill="none" stroke="#FFFFFF" stroke-width="0.72" stroke-miterlimit="10" d="M4.695,16.193v-0.655
		c0-0.517,0.349-0.936,0.777-0.936h1.634c0.43,0,0.777,0.419,0.777,0.936v0.655 M7.884,16.193c0,0.517,0.349,0.936,0.778,0.936
		 M10.295,17.129c0.43,0,0.777-0.419,0.777-0.936v-0.655 M14.262,16.193v-0.655c0-0.517-0.349-0.936-0.778-0.936h-1.633
		c-0.43,0-0.778,0.419-0.778,0.936 M14.262,16.193c0,0.517,0.348,0.936,0.777,0.936 M16.672,17.129c0.43,0,0.778-0.419,0.778-0.936
		v-0.655 M20.639,16.193v-0.655c0-0.517-0.349-0.936-0.778-0.936h-1.633c-0.43,0-0.777,0.419-0.777,0.936 M20.639,16.193
		c0,0.517,0.348,0.936,0.777,0.936 M8.662,17.129h1.633 M15.039,17.129h1.633 M21.416,17.129h1.634 M4.695,16.193v0.565
		 M23.05,17.129c0.429,0,0.777-0.419,0.777-0.936v-0.655 M23.827,15.538v-0.565"/>
	
		<rect x="6.445" y="2.791" fill="none" stroke="#FFFFFF" stroke-width="0.72" stroke-miterlimit="10" width="15.554" height="7.841"/>
</g>
</svg>
