<?xml version="1.0" encoding="UTF-8" standalone="no"?>
<svg width="26px" height="19px" viewBox="0 0 26 19" version="1.1" xmlns="http://www.w3.org/2000/svg" xmlns:xlink="http://www.w3.org/1999/xlink" xmlns:sketch="http://www.bohemiancoding.com/sketch/ns">
    <!-- Generator: Sketch 3.3.3 (12072) - http://www.bohemiancoding.com/sketch -->
    <title>Group</title>
    <desc>Created with Sketch.</desc>
    <defs></defs>
    <g id="WALLET-2-of-3" stroke="none" stroke-width="1" fill="none" fill-rule="evenodd" sketch:type="MSPage">
        <g id="Home-with-funds-Copy-2" sketch:type="MSArtboardGroup" transform="translate(-387.500000, -486.000000)">
            <g id="Group" sketch:type="MSLayerGroup" transform="translate(388.000000, 486.643311)">
                <path d="M6.06124777e-16,8.10123119 L7.9519043,0 L23.8677979,1.99840144e-15 C24.1094983,1.99840144e-15 24.3169547,0.0861824487 24.4901733,0.258549932 C24.663392,0.430917415 24.75,0.644321573 24.75,0.89876881 L24.75,17.1012312 C24.75,17.3556784 24.663392,17.5690826 24.4901733,17.7414501 C24.3169547,17.9138176 24.1094983,18 23.8677979,18 L0.882202148,18 C0.640501721,18 0.4330453,17.9138176 0.25982666,17.7414501 C0.0866080206,17.5690826 3.94533176e-17,17.3556784 5.50337173e-17,17.1012312 L6.06124777e-16,8.10123119 L6.06124777e-16,8.10123119 Z M23.8677979,0.89876881 L8.27648002,0.709412114 L0.882202148,8.48632788 L0.882202148,17.1012312 L23.8677979,17.1012312 L23.8677979,0.89876881 L23.8677979,0.89876881 Z" id="file" fill="#7A8C9E" sketch:type="MSShapeGroup"></path>
                <rect id="Rectangle" stroke="#7A8C9E" stroke-width="0.8" sketch:type="MSShapeGroup" x="10.8776349" y="2.59963989" width="11.25" height="12.375" rx="1"></rect>
                <path d="M11.25,10.6875 L21.375,10.6875" id="Line" stroke="#7A8C9E" stroke-linecap="square" sketch:type="MSShapeGroup"></path>
                <path d="M11.25,6.1875 L21.375,6.1875" id="Line" stroke="#7A8C9E" stroke-linecap="square" sketch:type="MSShapeGroup"></path>
                <path d="M19.125,2.8125 L19.125,14.0625" id="Line" stroke="#7A8C9E" stroke-linecap="square" sketch:type="MSShapeGroup"></path>
            </g>
        </g>
    </g>
</svg>