<?xml version="1.0" encoding="UTF-8" standalone="no"?>
<svg width="23px" height="13px" viewBox="0 0 23 13" version="1.1" xmlns="http://www.w3.org/2000/svg" xmlns:xlink="http://www.w3.org/1999/xlink" xmlns:sketch="http://www.bohemiancoding.com/sketch/ns">
    <!-- Generator: Sketch 3.3.3 (12072) - http://www.bohemiancoding.com/sketch -->
    <title>view</title>
    <desc>Created with Sketch.</desc>
    <defs></defs>
    <g id="WALLET-2-of-3" stroke="none" stroke-width="1" fill="none" fill-rule="evenodd" sketch:type="MSPage">
        <g id="Home-with-funds-Copy-2" sketch:type="MSArtboardGroup" transform="translate(-324.500000, -490.000000)" fill="#7A8C9E">
            <path d="M336.450478,490.256592 C337.27405,490.256592 338.138787,490.365803 339.044716,490.584229 C339.950645,490.802654 340.799269,491.085529 341.590614,491.432861 C342.38196,491.780194 343.142857,492.17228 343.873329,492.609131 C344.603802,493.045982 345.228633,493.481036 345.747841,493.914307 C346.267049,494.347577 346.680619,494.762937 346.988564,495.1604 C347.296508,495.557863 347.450478,495.889077 347.450478,496.154053 C347.450478,496.469158 347.237427,496.875567 346.811318,497.373291 C346.385209,497.871015 345.794394,498.386635 345.038857,498.920166 C344.283319,499.453697 343.450808,499.954994 342.541298,500.424072 C341.631788,500.89315 340.632775,501.279865 339.544228,501.584229 C338.455681,501.888592 337.424441,502.040771 336.450478,502.040771 C335.476515,502.040771 334.445275,501.888592 333.356728,501.584229 C332.268181,501.279865 331.269167,500.89315 330.359657,500.424072 C329.450148,499.954994 328.617637,499.453697 327.862099,498.920166 C327.106561,498.386635 326.515747,497.871015 326.089638,497.373291 C325.663529,496.875567 325.450478,496.469158 325.450478,496.154053 C325.450478,495.889077 325.604448,495.557863 325.912392,495.1604 C326.220336,494.762937 326.633906,494.347577 327.153114,493.914307 C327.672323,493.481036 328.297154,493.045982 329.027626,492.609131 C329.758099,492.17228 330.518996,491.780194 331.310341,491.432861 C332.101686,491.085529 332.95031,490.802654 333.856239,490.584229 C334.762169,490.365803 335.626906,490.256592 336.450478,490.256592 L336.450478,490.256592 Z M332.357704,491.857178 C331.942338,492.573327 331.734657,493.350338 331.734657,494.188232 C331.734657,495.484463 332.194777,496.594478 333.115029,497.518311 C334.035281,498.442143 335.147086,498.904053 336.450478,498.904053 C337.75387,498.904053 338.865675,498.442143 339.785927,497.518311 C340.706179,496.594478 341.166298,495.484463 341.166298,494.188232 C341.166298,493.350338 340.958618,492.573327 340.543251,491.857178 C339.05366,491.312904 337.689416,491.040771 336.450478,491.040771 C335.211539,491.040771 333.847295,491.312904 332.357704,491.857178 L332.357704,491.857178 Z M336.450478,496.154053 C335.906204,496.154053 335.442504,495.962486 335.059364,495.579346 C334.676225,495.196206 334.484657,494.732506 334.484657,494.188232 C334.484657,493.643959 334.676225,493.180259 335.059364,492.797119 C335.442504,492.413979 335.906204,492.222412 336.450478,492.222412 C336.994751,492.222412 337.458451,492.413979 337.841591,492.797119 C338.224731,493.180259 338.416298,493.643959 338.416298,494.188232 C338.416298,494.732506 338.224731,495.196206 337.841591,495.579346 C337.458451,495.962486 336.994751,496.154053 336.450478,496.154053 L336.450478,496.154053 Z M336.450478,501.256592 C337.345665,501.256592 338.296339,501.118735 339.302529,500.843018 C340.308718,500.5673 341.230747,500.218182 342.068642,499.795654 C342.906537,499.373126 343.672805,498.92912 344.36747,498.463623 C345.062135,497.998126 345.6064,497.55591 346.000282,497.136963 C346.394165,496.718015 346.591103,496.390382 346.591103,496.154053 C346.591103,495.760171 346.096967,495.167566 345.108681,494.376221 C344.120395,493.584876 342.949508,492.888431 341.595986,492.286865 C341.832315,492.938561 341.950478,493.572344 341.950478,494.188232 C341.950478,495.706469 341.413374,497.00268 340.33915,498.076904 C339.264926,499.151128 337.968715,499.688232 336.450478,499.688232 C334.932241,499.688232 333.63603,499.151128 332.561806,498.076904 C331.487582,497.00268 330.950478,495.706469 330.950478,494.188232 C330.950478,493.572344 331.068641,492.938561 331.30497,492.286865 C329.958609,492.888431 328.789513,493.584876 327.797646,494.376221 C326.805779,495.167566 326.309853,495.760171 326.309853,496.154053 C326.309853,496.390382 326.506791,496.718015 326.900673,497.136963 C327.294555,497.55591 327.838821,497.998126 328.533486,498.463623 C329.228151,498.92912 329.994419,499.373126 330.832314,499.795654 C331.670209,500.218182 332.592237,500.5673 333.598427,500.843018 C334.604617,501.118735 335.555291,501.256592 336.450478,501.256592 L336.450478,501.256592 Z" id="view" sketch:type="MSShapeGroup"></path>
        </g>
    </g>
</svg>