<?xml version="1.0" encoding="UTF-8" standalone="no"?>
<svg width="19px" height="18px" viewBox="0 0 19 18" version="1.1" xmlns="http://www.w3.org/2000/svg" xmlns:xlink="http://www.w3.org/1999/xlink" xmlns:sketch="http://www.bohemiancoding.com/sketch/ns">
    <!-- Generator: Sketch 3.3.3 (12072) - http://www.bohemiancoding.com/sketch -->
    <title>sync</title>
    <desc>Created with Sketch.</desc>
    <defs></defs>
    <g id="WALLET-2-of-3" stroke="none" stroke-width="1" fill="none" fill-rule="evenodd" sketch:type="MSPage">
        <g id="Home-with-funds-Copy-2" sketch:type="MSArtboardGroup" transform="translate(-357.500000, -487.000000)" fill="#7A8C9E">
            <path d="M366.900956,487.641602 C365.770091,487.641602 364.687582,487.862791 363.653397,488.305176 C362.619212,488.747561 361.730061,489.340817 360.985916,490.084961 C360.241772,490.829105 359.648516,491.718257 359.206131,492.752441 C358.763746,493.786626 358.542557,494.869135 358.542557,496 C358.542557,496.087891 358.511796,496.162597 358.450272,496.224121 C358.388748,496.285645 358.314042,496.316406 358.226151,496.316406 C358.1324,496.316406 358.054764,496.285645 357.993241,496.224121 C357.931717,496.162597 357.900956,496.087891 357.900956,496 C357.900956,494.775385 358.138258,493.607916 358.61287,492.497559 C359.087481,491.387201 359.726147,490.430668 360.528885,489.62793 C361.331624,488.825191 362.288157,488.186526 363.398514,487.711914 C364.508871,487.237302 365.67634,487 366.900956,487 C368.518151,487 370.007882,487.396969 371.370194,488.190918 C372.732505,488.984867 373.815014,490.052728 374.617752,491.394531 L374.617752,487.966797 C374.617752,487.873046 374.648514,487.79541 374.710038,487.733887 C374.771561,487.672363 374.846268,487.641602 374.934159,487.641602 C375.02205,487.641602 375.098221,487.672363 375.162674,487.733887 C375.227128,487.79541 375.259354,487.873046 375.259354,487.966797 L375.259354,492.466797 C375.259354,492.554688 375.227128,492.629394 375.162674,492.690918 C375.098221,492.752442 375.02205,492.783203 374.934159,492.783203 L370.434159,492.783203 C370.346268,492.783203 370.271561,492.752442 370.210038,492.690918 C370.148514,492.629394 370.117752,492.554688 370.117752,492.466797 C370.117752,492.373046 370.148514,492.29541 370.210038,492.233887 C370.271561,492.172363 370.346268,492.141602 370.434159,492.141602 L374.310135,492.141602 C373.601147,490.78222 372.586021,489.692387 371.264725,488.87207 C369.943429,488.051754 368.488854,487.641602 366.900956,487.641602 L366.900956,487.641602 Z M366.900956,505 C365.28376,505 363.794029,504.603031 362.431717,503.809082 C361.069406,503.015133 359.986897,501.947272 359.184159,500.605469 L359.184159,504.033203 C359.184159,504.121094 359.153397,504.197265 359.091874,504.261719 C359.03035,504.326172 358.955644,504.358398 358.867752,504.358398 C358.779861,504.358398 358.70369,504.326172 358.639237,504.261719 C358.574783,504.197265 358.542557,504.121094 358.542557,504.033203 L358.542557,499.533203 C358.542557,499.445312 358.574783,499.370606 358.639237,499.309082 C358.70369,499.247558 358.779861,499.216797 358.867752,499.216797 L363.367752,499.216797 C363.455644,499.216797 363.53035,499.247558 363.591874,499.309082 C363.653397,499.370606 363.684159,499.445312 363.684159,499.533203 C363.684159,499.621094 363.653397,499.697265 363.591874,499.761719 C363.53035,499.826172 363.455644,499.858398 363.367752,499.858398 L359.491776,499.858398 C360.200764,501.21778 361.21589,502.307613 362.537186,503.12793 C363.858482,503.948246 365.313057,504.358398 366.900956,504.358398 C368.031821,504.358398 369.114329,504.137209 370.148514,503.694824 C371.182699,503.252439 372.07185,502.659183 372.815995,501.915039 C373.560139,501.170895 374.153395,500.281743 374.59578,499.247559 C375.038165,498.213374 375.259354,497.130865 375.259354,496 C375.259354,495.912109 375.290115,495.835938 375.351639,495.771484 C375.413163,495.707031 375.487869,495.674805 375.57576,495.674805 C375.669511,495.674805 375.747147,495.707031 375.80867,495.771484 C375.870194,495.835938 375.900956,495.912109 375.900956,496 C375.900956,497.218756 375.663653,498.383295 375.189041,499.493652 C374.71443,500.604009 374.075764,501.562008 373.273026,502.367676 C372.470287,503.173344 371.512289,503.813474 370.399002,504.288086 C369.285716,504.762698 368.119712,505 366.900956,505 L366.900956,505 Z" id="sync" sketch:type="MSShapeGroup"></path>
        </g>
    </g>
</svg>