<?xml version="1.0" encoding="UTF-8"?>
<svg width="1200px" height="1200px" viewBox="0 0 1200 1200" version="1.1" xmlns="http://www.w3.org/2000/svg" xmlns:xlink="http://www.w3.org/1999/xlink">
    <!-- Generator: Sketch 41.2 (35397) - http://www.bohemiancoding.com/sketch -->
    <title>Untitled</title>
    <desc>Created with Sketch.</desc>
    <defs></defs>
    <g id="Page-1" stroke="none" stroke-width="1" fill="none" fill-rule="evenodd">
        <g id="Group" transform="translate(196.000000, 110.000000)" fill="#FFFFFF">
            <path d="M412.2,529.7 C266.2,529.7 147.3,410.9 147.3,264.8 C147.3,118.8 266.1,5.68434189e-14 412.2,5.68434189e-14 C558.2,0 677,118.8 677,264.8 C677,410.9 558.2,529.7 412.2,529.7 Z M412.2,59 C298.7,59 206.4,151.3 206.4,264.8 C206.4,378.3 298.7,470.6 412.2,470.6 C525.7,470.6 618,378.3 618,264.8 C618,151.4 525.7,59 412.2,59 Z" id="Shape"></path>
            <path d="M151.9,976.1 C131.7,976.1 73.9,972.9 38.3,939.7 C-2.2,902 -0.4,839.9 1.1,821.7 C16.3,640.2 202.7,486.9 408.1,486.9 C492.4,486.9 573.6,512.1 642.8,559.6 C652.1,566 661.2,572.8 670,579.9 C682.6,590.2 684.5,608.8 674.3,621.4 C664,634 645.4,635.9 632.8,625.7 C625.3,619.6 617.4,613.7 609.5,608.2 C550.1,567.4 480.5,545.8 408.2,545.8 C232.2,545.8 72.8,674.4 60,826.5 C58,850.8 62.9,881.9 78.6,896.4 C98.7,915.2 143.4,917.5 157.3,916.8 L647,916.8 C663.3,916.8 676.5,930 676.5,946.3 C676.5,962.6 663.2,976 646.9,976 L158.6,976 C157.7,976.1 155.3,976.1 151.9,976.1 Z" id="Shape"></path>
            <path d="M280.9,976.1 C260.7,976.1 202.9,972.9 167.3,939.7 C126.8,902 128.6,839.9 130.1,821.7 C145.3,640.2 331.7,486.9 537.1,486.9 C621.4,486.9 702.6,512.1 771.8,559.6 C781.1,566 790.2,572.8 799,579.9 C811.6,590.2 813.5,608.8 803.3,621.4 C793,634 774.4,635.9 761.8,625.7 C754.3,619.6 746.4,613.7 738.5,608.2 C679.1,567.4 609.5,545.8 537.2,545.8 C361.2,545.8 201.8,674.4 189,826.5 C187,850.8 191.9,881.9 207.6,896.4 C227.7,915.2 272.4,917.5 286.3,916.8 L776,916.8 C792.3,916.8 805.5,930 805.5,946.3 C805.5,962.6 792.2,976 775.9,976 L287.6,976 C286.7,976.1 284.3,976.1 280.9,976.1 Z" id="Shape-Copy" transform="translate(469.680886, 731.500000) scale(-1, 1) translate(-469.680886, -731.500000) "></path>
        </g>
    </g>
</svg>