<?xml version="1.0" encoding="utf-8"?>
<!-- Generator: Adobe Illustrator 13.0.0, SVG Export Plug-In . SVG Version: 6.00 Build 14948)  -->
<!DOCTYPE svg PUBLIC "-//W3C//DTD SVG 1.1//EN" "http://www.w3.org/Graphics/SVG/1.1/DTD/svg11.dtd">
<svg version="1.1" id="Layer_1" xmlns="http://www.w3.org/2000/svg" xmlns:xlink="http://www.w3.org/1999/xlink" x="0px" y="0px"
	 width="100px" height="100px" viewBox="0 0 100 100" enable-background="new 0 0 100 100" xml:space="preserve">
<path fill="#9B9BAB" d="M50,0C22.41,0,0,22.409,0,50s22.41,50,50,50c27.59,0,50-22.409,50-50S77.59,0,50,0z M50,4
	c25.429,0,46,20.571,46,46S75.429,96,50,96S4,75.429,4,50S24.571,4,50,4z M47.562,25.812c-0.43,0-0.688,0.257-0.688,0.688v5.25
	c0,0.43,0.255,0.75,0.688,0.75h4.875c0.428,0,0.688-0.32,0.688-0.75V26.5c0-0.43-0.258-0.688-0.688-0.688H47.562z M47.438,40.25
	C47.176,40.351,47,40.615,47,40.938v32.938c0,0.43,0.257,0.688,0.688,0.688h4.625c0.43,0,0.688-0.256,0.688-0.688V40.938
	c0-0.43-0.256-0.688-0.688-0.688h-4.625C47.581,40.25,47.525,40.216,47.438,40.25z"/>
</svg>
