<svg xmlns="http://www.w3.org/2000/svg" xmlns:xlink="http://www.w3.org/1999/xlink" version="1.1" xml:space="preserve" width="40" height="40"><rect id="backgroundrect" width="100%" height="100%" x="0" y="0" fill="none" stroke="none"/>
<style type="text/css">
	.st0{fill:none;stroke:#FFFFFF;}
</style>

<g class="currentLayer"><title>Layer 1</title><path id="Icon" class="st0" d="M6.5,26.9c0,1.6,1.3,2.9,3.1,2.9h20.8c1.7,0,3.1-1.2,3.1-2.9V13.3H6.5V26.9L6.5,26.9z M26.7,13.3  v-3.1H6.5v3.1H26.7z M28.5,24.3c0.9,0,1.7-0.7,1.7-1.6c0-0.9-0.7-1.6-1.7-1.6s-1.7,0.7-1.7,1.6C26.7,23.6,27.5,24.3,28.5,24.3z"/><path fill="#4a90d6" fill-opacity="1" stroke="#ffffff" stroke-opacity="1" stroke-width="1" stroke-dasharray="none" stroke-linejoin="round" stroke-linecap="butt" stroke-dashoffset="" fill-rule="nonzero" opacity="1" marker-start="" marker-mid="" marker-end="" d="M19.823990461891785,18.775510857163763 L33.408276323475434,5.142857994071839 " id="svg_1" class=""/><path fill="#4a90d6" fill-opacity="1" stroke="#ffffff" stroke-opacity="1" stroke-width="1" stroke-dasharray="none" stroke-linejoin="round" stroke-linecap="butt" stroke-dashoffset="" fill-rule="nonzero" opacity="1" marker-start="" marker-mid="" marker-end="" d="M33.30612244897958,5.061224477479653 L33.30612244897958,11.102041426817982 " id="svg_3" class=""/><path fill="#4a90d6" fill-opacity="1" stroke="#ffffff" stroke-opacity="1" stroke-width="1" stroke-dasharray="none" stroke-linejoin="round" stroke-linecap="butt" stroke-dashoffset="" fill-rule="nonzero" opacity="1" marker-start="" marker-mid="" marker-end="" d="M30.44897930765029,2.285715038070877 L30.44897930765029,8.326531987409206 " class="" id="svg_6" transform="rotate(-89.99999237060547 30.448978424072266,5.306123256683349) "/></g></svg>