<?xml version="1.0" encoding="UTF-8"?>
<svg width="22px" height="32px" viewBox="0 0 22 32" version="1.1" xmlns="http://www.w3.org/2000/svg" xmlns:xlink="http://www.w3.org/1999/xlink">
    <!-- Generator: Sketch 40.1 (33804) - http://www.bohemiancoding.com/sketch -->
    <title>Imported Layers</title>
    <desc>Created with Sketch.</desc>
    <defs></defs>
    <g id="Symbols" stroke="none" stroke-width="1" fill="none" fill-rule="evenodd" opacity="0.229999989">
        <g id="Button/Slide-to-complete" transform="translate(-21.000000, -30.000000)" fill="#FFFFFF">
            <g id="Imported-Layers-+-Imported-Layers" transform="translate(29.296522, 45.671231) rotate(-13.000000) translate(-29.296522, -45.671231) translate(5.796522, 21.671231)">
                <path d="M33.836573,25.7756997 C34.7704654,25.0754201 35.4853422,24.0606858 35.7717349,22.8201828 C36.673248,18.9153006 34.9235595,16.0435455 31.105899,15.1621691 L31.1083424,15.1627332 L32.1877147,10.4763105 C32.2275616,10.3037147 32.2072923,10.361553 32.2545315,10.1569372 L30.1219459,9.67034919 C29.9573284,9.63234424 29.8275684,9.59662857 29.8275684,9.59662857 L28.6650396,14.5986523 L26.2217369,14.0345715 L27.3011093,9.34814878 C27.3409562,9.17555298 27.3311499,9.21524176 27.3738817,9.03015035 L24.9336331,8.46677457 C24.8693732,8.74511457 24.9080695,8.60746054 24.8630626,8.77244875 L23.7784342,13.4704906 L18.2691133,12.1942861 C18.2691133,12.1942861 18.2452251,12.3409526 18.2048311,12.5124349 L17.6912795,14.6971594 L18.311573,14.8403654 C19.6608869,15.1518791 20.4965381,16.5234293 20.1779073,17.9035709 L17.8733934,27.9008449 C17.5718192,29.207106 17.2972414,30.3330336 15.693824,29.9628555 C15.5637181,29.9328182 14.6597278,29.7295447 14.242992,29.6333337 L13.7475204,31.7794569 C13.7159762,31.9049424 13.6506979,32.1988413 13.6506979,32.1988413 C13.6506979,32.1988413 13.960357,32.2621057 14.0544242,32.2838228 L19.1627593,33.4631749 L18.0063793,38.46086 L20.449682,39.0249409 L20.5218031,38.7125503 L21.6060621,34.0272558 L24.0493648,34.5913367 L22.8953655,39.6232981 L25.0088224,40.1112281 L25.3223287,40.1836067 L26.4926675,35.1554175 L27.7118755,35.4368939 C31.529536,36.3182703 34.3610402,34.5041668 35.2625533,30.5992846 C35.684858,28.7700816 35.0727322,26.9723687 33.836573,25.7756997 L33.836573,25.7756997 Z M25.3513718,17.7831539 L29.0163259,18.6292752 C30.3656398,18.9407888 31.201291,20.3123391 30.8826602,21.6924806 C30.5640294,23.0726222 29.211703,23.939038 27.8623891,23.6275243 L24.197435,22.781403 L25.3513718,17.7831539 L25.3513718,17.7831539 Z M27.3581643,31.4071903 L22.4715589,30.2790286 L23.6254956,25.2807794 L28.512101,26.4089411 C29.861415,26.7204548 30.6970662,28.0920051 30.3784354,29.4721466 C30.0598046,30.8522882 28.7074782,31.718704 27.3581643,31.4071903 L27.3581643,31.4071903 Z" id="Imported-Layers"></path>
            </g>
        </g>
    </g>
</svg>