<?xml version="1.0" encoding="UTF-8" standalone="no"?>
<svg width="18px" height="18px" viewBox="0 0 18 18" version="1.1" xmlns="http://www.w3.org/2000/svg" xmlns:xlink="http://www.w3.org/1999/xlink" xmlns:sketch="http://www.bohemiancoding.com/sketch/ns">
    <!-- Generator: Sketch 3.3.3 (12072) - http://www.bohemiancoding.com/sketch -->
    <title>users</title>
    <desc>Created with Sketch.</desc>
    <defs></defs>
    <g id="WALLET-2-of-3" stroke="none" stroke-width="1" fill="none" fill-rule="evenodd" sketch:type="MSPage">
        <g id="Home-with-funds-Copy-2" sketch:type="MSArtboardGroup" transform="translate(-236.500000, -487.000000)" fill="#7A8C9E">
            <path d="M250.836864,501.064407 C251.080933,501.172882 251.267372,501.257627 251.396186,501.318644 C251.525001,501.379661 251.709745,501.47966 251.950424,501.618644 C252.191103,501.757628 252.380932,501.884745 252.519915,502 C252.658899,502.115255 252.819914,502.267796 253.002966,502.457627 C253.186018,502.647459 253.326694,502.840677 253.425,503.037288 C253.523306,503.233899 253.609745,503.46949 253.684322,503.744068 C253.758899,504.018645 253.799576,504.308473 253.806356,504.613559 L253.806356,505 L237.443644,505 L237.443644,504.623729 C237.443644,504.244066 237.496186,503.886442 237.601271,503.550847 C237.706356,503.215253 237.830084,502.928815 237.972458,502.691525 C238.114831,502.454236 238.313134,502.225425 238.567373,502.005085 C238.821611,501.784745 239.043643,501.611865 239.233475,501.486441 C239.423306,501.361016 239.670761,501.228814 239.975847,501.089831 C240.280934,500.950847 240.506355,500.855932 240.652119,500.805085 C240.797882,500.754237 241.002965,500.684746 241.267373,500.59661 C241.565679,500.508474 241.80466,500.430509 241.984322,500.362712 C242.163984,500.294915 242.353813,500.201696 242.553814,500.083051 C242.753815,499.964406 242.90805,499.830509 243.016525,499.681356 C243.125001,499.532203 243.21483,499.340679 243.286017,499.10678 C243.357204,498.87288 243.392797,498.603391 243.392797,498.298305 C243.392797,498.101694 243.374153,497.906781 243.336864,497.713559 C243.299576,497.520338 243.250424,497.347458 243.189407,497.194915 C243.12839,497.042372 243.055509,496.889831 242.970763,496.737288 C242.886017,496.584745 242.802967,496.454238 242.72161,496.345763 C242.640254,496.237288 242.555509,496.132204 242.467373,496.030508 C242.379237,495.928813 242.304661,495.849153 242.243644,495.791525 C242.182627,495.733898 242.12161,495.677966 242.060593,495.623729 L241.969068,495.542373 C241.948729,495.508474 241.926695,495.471187 241.902966,495.430508 C241.879237,495.38983 241.840255,495.296611 241.786017,495.150847 C241.731779,495.005084 241.696187,494.857628 241.679237,494.708475 C241.662288,494.559321 241.665678,494.371188 241.689407,494.144068 C241.713136,493.916948 241.772457,493.688137 241.867373,493.457627 C241.758898,493.186439 241.663983,492.893222 241.582627,492.577966 C241.501271,492.26271 241.457203,491.816952 241.450424,491.240678 C241.443644,490.664404 241.535169,490.142375 241.725,489.674576 C242.111443,488.71186 242.867367,488.000002 243.992797,487.538983 C244.074153,487.498305 244.189406,487.447458 244.338559,487.386441 C244.487713,487.325423 244.762286,487.245763 245.162288,487.147458 C245.56229,487.049152 245.941947,487 246.301271,487 C246.586018,487 246.860592,487.032203 247.125,487.09661 C247.389408,487.161017 247.662287,487.267796 247.943644,487.416949 C248.225001,487.566102 248.484321,487.791524 248.72161,488.09322 C248.958899,488.394917 249.152118,488.76271 249.301271,489.19661 C249.382628,489.305085 249.463983,489.428813 249.545339,489.567797 C249.626695,489.70678 249.726694,489.925422 249.845339,490.223729 C249.963984,490.522035 250.047034,490.825422 250.094492,491.133898 C250.141949,491.442374 250.143644,491.806778 250.099576,492.227119 C250.055508,492.64746 249.94195,493.061015 249.758898,493.467797 C250.036866,494.138986 250.009747,494.813556 249.677542,495.491525 C249.670763,495.511865 249.584323,495.606779 249.41822,495.776271 C249.252118,495.945764 249.084323,496.132202 248.914831,496.335593 C248.745338,496.538984 248.587713,496.822032 248.441949,497.184746 C248.296186,497.547459 248.223305,497.918642 248.223305,498.298305 C248.223305,498.555933 248.240254,498.777965 248.274153,498.964407 C248.308051,499.150848 248.345339,499.299999 248.386017,499.411864 C248.426695,499.523729 248.502966,499.633898 248.614831,499.742373 C248.726695,499.850848 248.823305,499.930508 248.904661,499.981356 C248.986017,500.032204 249.121609,500.115254 249.311441,500.230508 C249.399577,500.277966 249.530084,500.354237 249.702966,500.459322 C249.875848,500.564407 250.057202,500.667796 250.247034,500.769492 C250.436865,500.871187 250.633474,500.969491 250.836864,501.064407 L250.836864,501.064407 Z M238.206356,504.247458 L253.033475,504.247458 C252.992796,503.96949 252.909746,503.710171 252.784322,503.469492 C252.658898,503.228812 252.526696,503.030509 252.387712,502.874576 C252.248728,502.718643 252.05551,502.561018 251.808051,502.401695 C251.560592,502.242372 251.355509,502.123729 251.192797,502.045763 C251.030084,501.967796 250.806357,501.864407 250.52161,501.735593 C250.209744,501.59322 249.684326,501.305087 248.945339,500.871186 C248.674151,500.715253 248.467374,500.581356 248.325,500.469492 C248.182626,500.357627 248.036865,500.205086 247.887712,500.011864 C247.738559,499.818643 247.633475,499.584747 247.572458,499.310169 C247.51144,499.035592 247.480932,498.698307 247.480932,498.298305 C247.480932,497.884744 247.543643,497.486443 247.669068,497.10339 C247.794492,496.720337 247.955507,496.391527 248.152119,496.116949 C248.34873,495.842372 248.51483,495.630509 248.650424,495.481356 C248.786018,495.332203 248.91483,495.20339 249.036864,495.094915 C249.077543,495.006779 249.109746,494.918645 249.133475,494.830508 C249.157204,494.742372 249.174152,494.661017 249.184322,494.586441 C249.194492,494.511864 249.199576,494.437289 249.199576,494.362712 C249.199576,494.288135 249.194492,494.222034 249.184322,494.164407 C249.174152,494.106779 249.162288,494.050848 249.148729,493.99661 C249.135169,493.942373 249.12161,493.894915 249.108051,493.854237 C249.094491,493.813559 249.080932,493.779661 249.067373,493.752542 C249.053813,493.725424 249.043644,493.701695 249.036864,493.681356 L249.026695,493.661017 L248.914831,493.488136 L249.006356,493.305085 C249.14195,493.033897 249.238559,492.754239 249.296186,492.466102 C249.353814,492.177965 249.382627,491.92373 249.382627,491.70339 C249.382627,491.48305 249.352119,491.249154 249.291102,491.001695 C249.230084,490.754236 249.175848,490.564407 249.12839,490.432203 C249.080932,490.299999 249.006356,490.145764 248.904661,489.969492 C248.802966,489.793219 248.745339,489.69661 248.73178,489.679661 C248.71822,489.662712 248.687712,489.620339 248.640254,489.552542 C248.233473,488.345757 247.453819,487.742373 246.301271,487.742373 C246.158898,487.742373 246.014831,487.750847 245.869068,487.767797 C245.723304,487.784746 245.586018,487.80678 245.457203,487.833898 C245.328389,487.861017 245.204662,487.89322 245.086017,487.930508 C244.967372,487.967797 244.860594,488.00339 244.765678,488.037288 C244.670762,488.071187 244.589407,488.101695 244.52161,488.128814 C244.453813,488.155932 244.399576,488.176271 244.358898,488.189831 L244.297881,488.220339 C243.348724,488.606782 242.721612,489.183047 242.416525,489.949153 C242.348728,490.111865 242.296187,490.284745 242.258898,490.467797 C242.22161,490.650848 242.199576,490.825423 242.192797,490.991525 C242.186017,491.157628 242.186017,491.325423 242.192797,491.494915 C242.199576,491.664408 242.216525,491.825423 242.243644,491.977966 C242.270763,492.130509 242.297881,492.274576 242.325,492.410169 C242.352119,492.545763 242.384322,492.667796 242.42161,492.776271 C242.458898,492.884746 242.491102,492.977966 242.51822,493.055932 C242.545339,493.133899 242.569068,493.19661 242.589407,493.244068 L242.609746,493.315254 L242.680932,493.467797 L242.609746,493.630508 C242.345338,494.186443 242.328389,494.667795 242.558898,495.074576 C242.680933,495.176272 242.80805,495.299999 242.940254,495.445763 C243.072458,495.591526 243.240253,495.801694 243.443644,496.076271 C243.647035,496.350849 243.813135,496.684744 243.941949,497.077966 C244.070763,497.471188 244.135169,497.877964 244.135169,498.298305 C244.135169,498.535594 244.116526,498.755931 244.079237,498.959322 C244.041949,499.162713 243.999577,499.342372 243.952119,499.498305 C243.904661,499.654238 243.830085,499.803389 243.72839,499.945763 C243.626694,500.088136 243.536865,500.206779 243.458898,500.301695 C243.380932,500.396611 243.265679,500.49322 243.113136,500.591525 C242.960592,500.689831 242.83856,500.766101 242.747034,500.820339 C242.655508,500.874577 242.516526,500.937288 242.330085,501.008475 C242.143643,501.079661 242.008051,501.130508 241.923305,501.161017 C241.838559,501.191526 241.697882,501.240678 241.501271,501.308475 C241.284321,501.383051 241.111441,501.442373 240.982627,501.486441 C240.853813,501.530509 240.665679,501.605084 240.41822,501.710169 C240.170761,501.815255 239.967374,501.915254 239.808051,502.010169 C239.648728,502.105085 239.465679,502.232203 239.258898,502.391525 C239.052118,502.550848 238.884323,502.715253 238.755508,502.884746 C238.626694,503.054238 238.511441,503.257626 238.409746,503.494915 C238.30805,503.732205 238.240254,503.98305 238.206356,504.247458 L238.206356,504.247458 Z" id="users" sketch:type="MSShapeGroup"></path>
        </g>
    </g>
</svg>