<?xml version="1.0" encoding="utf-8"?>
<!-- Generator: Adobe Illustrator 20.1.0, SVG Export Plug-In . SVG Version: 6.00 Build 0)  -->
<svg version="1.1" id="Layer_1" xmlns="http://www.w3.org/2000/svg" xmlns:xlink="http://www.w3.org/1999/xlink" x="0px" y="0px"
	 viewBox="0 0 375 257" style="enable-background:new 0 0 375 257;" xml:space="preserve">
<style type="text/css">
	.st0{opacity:6.325793e-02;fill:url(#Line-Copy_1_);enable-background:new    ;}
	.st1{fill:none;stroke:#13E5B6;stroke-width:2;stroke-linecap:round;stroke-linejoin:round;}
	
		.st2{opacity:0.3335;fill:none;stroke:#FFFFFF;stroke-width:0.5;stroke-linecap:square;stroke-dasharray:4;enable-background:new    ;}
	.st3{opacity:0.3;fill:url(#Oval-2_1_);enable-background:new    ;}
	.st4{opacity:0.64;fill:none;stroke:#9012FE;stroke-width:2;stroke-linecap:square;enable-background:new    ;}
	.st5{fill:#1A2A71;stroke:#FFFFFF;stroke-width:3;}
</style>
<g id="Onboarding">
	<g id="_x30_.2.2---Tour-2" transform="translate(0.000000, -200.000000)">
		<g id="bitcoin-currency" transform="translate(0.000000, 206.000000)">
			<g id="bg-2" transform="translate(0.000000, 3.530453)">
				
					<linearGradient id="Line-Copy_1_" gradientUnits="userSpaceOnUse" x1="-117.185" y1="513.6823" x2="-117.185" y2="512.8358" gradientTransform="matrix(374.5743 0 0 -148.6105 44082.1914 76374.0547)">
					<stop  offset="0" style="stop-color:#CDE7FF"/>
					<stop  offset="1" style="stop-color:#FFFFFF"/>
				</linearGradient>
				<polygon id="Line-Copy" class="st0" points="54.3,126.6 98.8,99.6 139.1,120.4 185.5,82.4 222.9,82.4 246.7,49.3 278.8,65.2 
					324.3,56.6 375,35.5 375,185.5 150.1,185.5 0.4,185.5 0.4,135.2 				"/>
				<polyline id="Line" class="st1" points="0,134 54.3,127.8 97.7,98.3 140.1,120.4 184.6,81.2 222.9,81.2 247.7,48 280.8,67.7 
					321.2,56.6 375,35.5 				"/>
				<path id="Line-Copy-2" class="st2" d="M137.2,120.5v63"/>
				<path id="Line-Copy-3" class="st2" d="M77.2,110.5v73.8"/>
				<path id="Line-Copy-4" class="st2" d="M264.2,64.5v119.4"/>
				<path id="Line-Copy-5" class="st2" d="M330.2,57.5v126"/>
				
					<linearGradient id="Oval-2_1_" gradientUnits="userSpaceOnUse" x1="-117.0223" y1="514.3885" x2="-117.0223" y2="513.4939" gradientTransform="matrix(247 0 0 -247 29092 127054.4453)">
					<stop  offset="0" style="stop-color:#3950B5"/>
					<stop  offset="1" style="stop-color:#162360"/>
				</linearGradient>
				<path id="Oval-2" class="st3" d="M187.5,247.5c68.2,0,123.5-55.3,123.5-123.5S255.7,0.5,187.5,0.5S64,55.8,64,124
					S119.3,247.5,187.5,247.5z"/>
			</g>
			<g id="price-" transform="translate(122.000000, 0.000000)">
				<path id="Line_1_" class="st4" d="M67,42.5v146"/>
				<circle id="Oval-5" class="st5" cx="67.5" cy="83.5" r="4.5"/>
			</g>
		</g>
	</g>
</g>
</svg>
