<?xml version="1.0" encoding="UTF-8" standalone="no"?>
<svg width="375px" height="247px" viewBox="0 0 375 247" version="1.1" xmlns="http://www.w3.org/2000/svg" xmlns:xlink="http://www.w3.org/1999/xlink">
    <!-- Generator: Sketch 39.1 (31720) - http://www.bohemiancoding.com/sketch -->
    <title>digital-money</title>
    <desc>Created with Sketch.</desc>
    <defs>
        <linearGradient x1="50%" y1="0%" x2="50%" y2="75.2641068%" id="linearGradient-1">
            <stop stop-color="#3950B5" offset="0%"></stop>
            <stop stop-color="#162360" offset="100%"></stop>
        </linearGradient>
        <path d="M31.8181818,0 L0,0 L0,31.8181818 L31.8181818,31.8181818 L31.8181818,0 L31.8181818,0 Z M27.2727273,27.2727273 L4.54545455,27.2727273 L4.54545455,4.54545455 L27.2727273,4.54545455 L27.2727273,27.2727273 L27.2727273,27.2727273 Z" id="path-2"></path>
        <mask id="mask-3" maskContentUnits="userSpaceOnUse" maskUnits="objectBoundingBox" x="0" y="0" width="31.8181818" height="31.8181818" fill="white">
            <use xlink:href="#path-2"></use>
        </mask>
        <polygon id="path-4" points="65.9090909 90.9090909 61.3636364 90.9090909 61.3636364 100 100 100 100 95.4545455 65.9090909 95.4545455"></polygon>
        <mask id="mask-5" maskContentUnits="userSpaceOnUse" maskUnits="objectBoundingBox" x="0" y="0" width="38.6363636" height="9.09090909" fill="white">
            <use xlink:href="#path-4"></use>
        </mask>
        <rect id="path-6" x="9.09090909" y="9.09090909" width="13.6363636" height="13.6363636"></rect>
        <mask id="mask-7" maskContentUnits="userSpaceOnUse" maskUnits="objectBoundingBox" x="0" y="0" width="13.6363636" height="13.6363636" fill="white">
            <use xlink:href="#path-6"></use>
        </mask>
        <path d="M0,100 L31.8181818,100 L31.8181818,68.1818182 L0,68.1818182 L0,100 L0,100 Z M4.54545455,72.7272727 L27.2727273,72.7272727 L27.2727273,95.4545455 L4.54545455,95.4545455 L4.54545455,72.7272727 L4.54545455,72.7272727 Z" id="path-8"></path>
        <mask id="mask-9" maskContentUnits="userSpaceOnUse" maskUnits="objectBoundingBox" x="0" y="0" width="31.8181818" height="31.8181818" fill="white">
            <use xlink:href="#path-8"></use>
        </mask>
        <rect id="path-10" x="9.09090909" y="77.2727273" width="13.6363636" height="13.6363636"></rect>
        <mask id="mask-11" maskContentUnits="userSpaceOnUse" maskUnits="objectBoundingBox" x="0" y="0" width="13.6363636" height="13.6363636" fill="white">
            <use xlink:href="#path-10"></use>
        </mask>
        <path d="M68.1818182,0 L68.1818182,31.8181818 L100,31.8181818 L100,0 L68.1818182,0 L68.1818182,0 Z M95.4545455,27.2727273 L72.7272727,27.2727273 L72.7272727,4.54545455 L95.4545455,4.54545455 L95.4545455,27.2727273 L95.4545455,27.2727273 Z" id="path-12"></path>
        <mask id="mask-13" maskContentUnits="userSpaceOnUse" maskUnits="objectBoundingBox" x="0" y="0" width="31.8181818" height="31.8181818" fill="white">
            <use xlink:href="#path-12"></use>
        </mask>
        <rect id="path-14" x="77.2727273" y="9.09090909" width="13.6363636" height="13.6363636"></rect>
        <mask id="mask-15" maskContentUnits="userSpaceOnUse" maskUnits="objectBoundingBox" x="0" y="0" width="13.6363636" height="13.6363636" fill="white">
            <use xlink:href="#path-14"></use>
        </mask>
        <rect id="path-16" x="90.9090909" y="36.3636364" width="9.09090909" height="9.09090909"></rect>
        <mask id="mask-17" maskContentUnits="userSpaceOnUse" maskUnits="objectBoundingBox" x="0" y="0" width="9.09090909" height="9.09090909" fill="white">
            <use xlink:href="#path-16"></use>
        </mask>
        <rect id="path-18" x="0" y="54.5454545" width="9.09090909" height="9.09090909"></rect>
        <mask id="mask-19" maskContentUnits="userSpaceOnUse" maskUnits="objectBoundingBox" x="0" y="0" width="9.09090909" height="9.09090909" fill="white">
            <use xlink:href="#path-18"></use>
        </mask>
        <polygon id="path-20" points="47.7272727 36.3636364 29.5454545 36.3636364 29.5454545 40.9090909 52.2727273 40.9090909 52.2727273 31.8181818 52.2727273 27.2727273 56.8181818 27.2727273 56.8181818 18.1818182 52.2727273 18.1818182 47.7272727 18.1818182 43.1818182 18.1818182 43.1818182 9.09090909 47.7272727 9.09090909 47.7272727 13.6363636 63.6363636 13.6363636 63.6363636 0 59.0909091 0 59.0909091 9.09090909 52.2727273 9.09090909 52.2727273 0 50 0 40.9090909 0 38.6363636 0 38.6363636 22.7272727 47.7272727 22.7272727 47.7272727 27.2727273 38.6363636 27.2727273 38.6363636 31.8181818 47.7272727 31.8181818"></polygon>
        <mask id="mask-21" maskContentUnits="userSpaceOnUse" maskUnits="objectBoundingBox" x="0" y="0" width="34.0909091" height="40.9090909" fill="white">
            <use xlink:href="#path-20"></use>
        </mask>
        <polygon id="path-22" points="6.81818182 50 15.9090909 50 20.4545455 50 22.7272727 50 22.7272727 54.5454545 13.6363636 54.5454545 13.6363636 59.0909091 22.7272727 59.0909091 22.7272727 63.6363636 40.9090909 63.6363636 40.9090909 59.0909091 27.2727273 59.0909091 27.2727273 54.5454545 27.2727273 45.4545455 20.4545455 45.4545455 20.4545455 38.6363636 15.9090909 38.6363636 15.9090909 45.4545455 11.3636364 45.4545455 11.3636364 36.3636364 0 36.3636364 0 40.9090909 6.81818182 40.9090909"></polygon>
        <mask id="mask-23" maskContentUnits="userSpaceOnUse" maskUnits="objectBoundingBox" x="0" y="0" width="40.9090909" height="27.2727273" fill="white">
            <use xlink:href="#path-22"></use>
        </mask>
        <polygon id="path-24" points="50 90.9090909 50 79.5454545 40.9090909 79.5454545 40.9090909 70.4545455 36.3636364 70.4545455 36.3636364 84.0909091 45.4545455 84.0909091 45.4545455 90.9090909 36.3636364 90.9090909 36.3636364 95.4545455 45.4545455 95.4545455 45.4545455 100 56.8181818 100 56.8181818 95.4545455 50 95.4545455"></polygon>
        <mask id="mask-25" maskContentUnits="userSpaceOnUse" maskUnits="objectBoundingBox" x="0" y="0" width="20.4545455" height="29.5454545" fill="white">
            <use xlink:href="#path-24"></use>
        </mask>
        <polygon id="path-26" points="72.7272727 45.4545455 63.6363636 45.4545455 63.6363636 34.0909091 59.0909091 34.0909091 59.0909091 50 81.8181818 50 81.8181818 45.4545455 77.2727273 45.4545455 77.2727273 40.9090909 84.0909091 40.9090909 84.0909091 36.3636364 77.2727273 36.3636364 72.7272727 36.3636364 68.1818182 36.3636364 68.1818182 40.9090909 72.7272727 40.9090909"></polygon>
        <mask id="mask-27" maskContentUnits="userSpaceOnUse" maskUnits="objectBoundingBox" x="0" y="0" width="25" height="15.9090909" fill="white">
            <use xlink:href="#path-26"></use>
        </mask>
        <polygon id="path-28" points="68.1818182 86.3636364 75 86.3636364 75 90.9090909 84.0909091 90.9090909 84.0909091 86.3636364 84.0909091 81.8181818 84.0909091 75 75 75 75 81.8181818 68.1818182 81.8181818 68.1818182 75 63.6363636 75 63.6363636 81.8181818 59.0909091 81.8181818 59.0909091 63.6363636 54.5454545 63.6363636 54.5454545 59.0909091 50 59.0909091 50 45.4545455 34.0909091 45.4545455 34.0909091 54.5454545 38.6363636 54.5454545 38.6363636 50 45.4545455 50 45.4545455 59.0909091 45.4545455 68.1818182 54.5454545 68.1818182 54.5454545 81.8181818 54.5454545 86.3636364 59.0909091 86.3636364 63.6363636 86.3636364"></polygon>
        <mask id="mask-29" maskContentUnits="userSpaceOnUse" maskUnits="objectBoundingBox" x="0" y="0" width="50" height="45.4545455" fill="white">
            <use xlink:href="#path-28"></use>
        </mask>
        <polygon id="path-30" points="95.4545455 56.8181818 88.6363636 56.8181818 84.0909091 56.8181818 72.7272727 56.8181818 72.7272727 65.9090909 68.1818182 65.9090909 68.1818182 56.8181818 63.6363636 56.8181818 63.6363636 70.4545455 77.2727273 70.4545455 77.2727273 61.3636364 84.0909091 61.3636364 84.0909091 68.1818182 88.6363636 68.1818182 88.6363636 61.3636364 95.4545455 61.3636364 95.4545455 75 88.6363636 75 88.6363636 88.6363636 100 88.6363636 100 84.0909091 93.1818182 84.0909091 93.1818182 79.5454545 100 79.5454545 100 61.3636364 100 56.8181818 100 50 95.4545455 50"></polygon>
        <mask id="mask-31" maskContentUnits="userSpaceOnUse" maskUnits="objectBoundingBox" x="0" y="0" width="36.3636364" height="38.6363636" fill="white">
            <use xlink:href="#path-30"></use>
        </mask>
    </defs>
    <g id="Onboarding" stroke="none" stroke-width="1" fill="none" fill-rule="evenodd">
        <g id="0.2.1---Tour-1" transform="translate(0.000000, -210.000000)">
            <g id="digital-money" transform="translate(0.000000, 210.000000)">
                <g id="bg-1">
                    <g id="cityscape" opacity="0.15" transform="translate(0.000000, 54.000000)" stroke-width="2" stroke="#FFFFFF">
                        <g id="travel-24px-outline_hotel" transform="translate(0.000000, 47.163934)">
                            <g id="Group">
                                <polyline id="Shape" points="12.9658816 82.4918033 0 82.4918033 0 48.7451565 12.9658816 48.7451565"></polyline>
                                <polyline id="Shape" points="58.3464671 82.4918033 71.3123487 82.4918033 71.3123487 48.7451565 58.3464671 48.7451565"></polyline>
                                <rect id="Rectangle-path" x="12.9658816" y="0" width="45.3805855" height="82.4918033"></rect>
                                <path d="M25.9317632,14.9985097 L29.1732335,14.9985097" id="Shape"></path>
                                <path d="M42.1391151,14.9985097 L45.3805855,14.9985097" id="Shape"></path>
                                <path d="M25.9317632,29.9970194 L29.1732335,29.9970194" id="Shape"></path>
                                <path d="M42.1391151,29.9970194 L45.3805855,29.9970194" id="Shape"></path>
                                <path d="M25.9317632,44.9955291 L29.1732335,44.9955291" id="Shape"></path>
                                <path d="M42.1391151,44.9955291 L45.3805855,44.9955291" id="Shape"></path>
                                <path d="M25.9317632,59.9940387 L29.1732335,59.9940387" id="Shape"></path>
                                <path d="M42.1391151,59.9940387 L45.3805855,59.9940387" id="Shape"></path>
                                <path d="M35.6561743,82.4918033 L35.6561743,74.9925484" id="Shape"></path>
                            </g>
                        </g>
                        <g id="business-24px-outline_building" transform="translate(71.312349, 0.000000)">
                            <g id="Group">
                                <polyline id="Shape" points="71.5050847 59.1304348 71.5050847 29.5652174 61.2900726 29.5652174 61.2900726 11.826087 40.8600484 11.826087 40.8600484 29.5652174 30.6450363 29.5652174 30.6450363 76.8695652"></polyline>
                                <path d="M40.8600484,130.086957 L61.2900726,130.086957" id="Shape"></path>
                                <path d="M51.0750605,0 L51.0750605,11.826087" id="Shape"></path>
                                <rect id="Rectangle-path" x="0" y="76.8695652" width="40.8600484" height="53.2173913"></rect>
                                <rect id="Rectangle-path" x="61.2900726" y="59.1304348" width="40.8600484" height="70.9565217"></rect>
                                <path d="M76.6125908,76.8695652 L86.8276029,76.8695652" id="Shape"></path>
                                <path d="M76.6125908,94.6086957 L86.8276029,94.6086957" id="Shape"></path>
                                <path d="M76.6125908,112.347826 L86.8276029,112.347826" id="Shape"></path>
                                <path d="M15.3225182,94.6086957 L25.5375303,94.6086957" id="Shape"></path>
                                <path d="M15.3225182,112.347826 L25.5375303,112.347826" id="Shape"></path>
                            </g>
                        </g>
                        <g id="travel-24px-outline_hotel-copy" transform="translate(224.537530, 50.163934)">
                            <g id="Group">
                                <polyline id="Shape" points="12.9658816 82.4918033 0 82.4918033 0 48.7451565 12.9658816 48.7451565"></polyline>
                                <polyline id="Shape" points="58.3464671 82.4918033 71.3123487 82.4918033 71.3123487 48.7451565 58.3464671 48.7451565"></polyline>
                                <rect id="Rectangle-path" x="12.9658816" y="0" width="45.3805855" height="82.4918033"></rect>
                                <path d="M25.9317632,14.9985097 L29.1732335,14.9985097" id="Shape"></path>
                                <path d="M42.1391151,14.9985097 L45.3805855,14.9985097" id="Shape"></path>
                                <path d="M25.9317632,29.9970194 L29.1732335,29.9970194" id="Shape"></path>
                                <path d="M42.1391151,29.9970194 L45.3805855,29.9970194" id="Shape"></path>
                                <path d="M25.9317632,44.9955291 L29.1732335,44.9955291" id="Shape"></path>
                                <path d="M42.1391151,44.9955291 L45.3805855,44.9955291" id="Shape"></path>
                                <path d="M25.9317632,59.9940387 L29.1732335,59.9940387" id="Shape"></path>
                                <path d="M42.1391151,59.9940387 L45.3805855,59.9940387" id="Shape"></path>
                                <path d="M35.6561743,82.4918033 L35.6561743,74.9925484" id="Shape"></path>
                            </g>
                        </g>
                        <g id="business-24px-outline_building-copy" transform="translate(295.849879, 3.000000)">
                            <g id="Group">
                                <polyline id="Shape" points="71.5050847 59.1304348 71.5050847 29.5652174 61.2900726 29.5652174 61.2900726 11.826087 40.8600484 11.826087 40.8600484 29.5652174 30.6450363 29.5652174 30.6450363 76.8695652"></polyline>
                                <path d="M40.8600484,130.086957 L61.2900726,130.086957" id="Shape"></path>
                                <path d="M51.0750605,0 L51.0750605,11.826087" id="Shape"></path>
                                <rect id="Rectangle-path" x="0" y="76.8695652" width="40.8600484" height="53.2173913"></rect>
                                <rect id="Rectangle-path" x="61.2900726" y="59.1304348" width="40.8600484" height="70.9565217"></rect>
                                <path d="M76.6125908,76.8695652 L86.8276029,76.8695652" id="Shape"></path>
                                <path d="M76.6125908,94.6086957 L86.8276029,94.6086957" id="Shape"></path>
                                <path d="M76.6125908,112.347826 L86.8276029,112.347826" id="Shape"></path>
                                <path d="M15.3225182,94.6086957 L25.5375303,94.6086957" id="Shape"></path>
                                <path d="M15.3225182,112.347826 L25.5375303,112.347826" id="Shape"></path>
                            </g>
                        </g>
                    </g>
                    <path d="M187.5,247 C255.707167,247 311,191.707167 311,123.5 C311,55.2928334 255.707167,1.42108547e-14 187.5,1.42108547e-14 C119.292833,1.42108547e-14 64,55.2928334 64,123.5 C64,191.707167 119.292833,247 187.5,247 Z" id="Oval-2" fill="url(#linearGradient-1)" opacity="0.300000012"></path>
                </g>
                <g id="phone" transform="translate(133.000000, 32.000000)" stroke-width="2">
                    <rect id="Combined-Shape" stroke="#647CE8" fill-opacity="0.65477808" fill="#223483" x="0" y="0" width="99.8310062" height="183.875349" rx="8"></rect>
                    <path d="M0.519953157,155.972885 L99.311053,155.972885" id="Line" stroke="#647CE8" stroke-linecap="square"></path>
                    <path d="M44.0762994,170.254952 L62.7946131,170.254952" id="Line" stroke="#647CE8" stroke-linecap="square"></path>
                    <g id="qr-code" transform="translate(33.000000, 34.000000)" stroke="#1E307E" fill="#12E5B6">
                        <g id="Group">
                            <use id="Shape" mask="url(#mask-3)" xlink:href="#path-2"></use>
                            <use id="Shape" mask="url(#mask-5)" xlink:href="#path-4"></use>
                            <use id="Rectangle-path" mask="url(#mask-7)" xlink:href="#path-6"></use>
                            <use id="Shape" mask="url(#mask-9)" xlink:href="#path-8"></use>
                            <use id="Rectangle-path" mask="url(#mask-11)" xlink:href="#path-10"></use>
                            <use id="Shape" mask="url(#mask-13)" xlink:href="#path-12"></use>
                            <use id="Rectangle-path" mask="url(#mask-15)" xlink:href="#path-14"></use>
                            <use id="Rectangle-path" mask="url(#mask-17)" xlink:href="#path-16"></use>
                            <use id="Rectangle-path" mask="url(#mask-19)" xlink:href="#path-18"></use>
                            <use id="Shape" mask="url(#mask-21)" xlink:href="#path-20"></use>
                            <use id="Shape" mask="url(#mask-23)" xlink:href="#path-22"></use>
                            <use id="Shape" mask="url(#mask-25)" xlink:href="#path-24"></use>
                            <use id="Shape" mask="url(#mask-27)" xlink:href="#path-26"></use>
                            <use id="Shape" mask="url(#mask-29)" xlink:href="#path-28"></use>
                            <use id="Shape" mask="url(#mask-31)" xlink:href="#path-30"></use>
                        </g>
                    </g>
                </g>
            </g>
        </g>
    </g>
</svg>