<?xml version="1.0" encoding="UTF-8" standalone="no"?>
<svg width="18px" height="18px" viewBox="0 0 18 18" version="1.1" xmlns="http://www.w3.org/2000/svg" xmlns:xlink="http://www.w3.org/1999/xlink">
    <!-- Generator: sketchtool 3.7.2 (28276) - http://www.bohemiancoding.com/sketch -->
    <title>1218C029-D515-4006-B1E3-E919177035E2</title>
    <desc>Created with sketchtool.</desc>
    <defs></defs>
    <g id="Page-1" stroke="none" stroke-width="1" fill="none" fill-rule="evenodd">
        <g id="Dashboard---Activity" transform="translate(-1145.000000, -234.000000)" stroke="#666666" fill="#4A4A4A">
            <g id="Body" transform="translate(-3.000000, 108.000000)">
                <g id="Main-Container" transform="translate(332.000000, 0.000000)">
                    <g id="Transactions" transform="translate(-3.000000, 100.000000)">
                        <path d="M828,27.5703125 C830.867188,27.5703125 833.34375,29.1953125 834.585938,31.5703125 L831.140625,31.5703125 C830.984375,31.5703125 830.859375,31.6953125 830.859375,31.859375 C830.859375,32.015625 830.984375,32.140625 831.140625,32.140625 L835.140625,32.140625 C835.296875,32.140625 835.429688,32.015625 835.429688,31.859375 L835.429688,27.859375 C835.429688,27.6953125 835.296875,27.5703125 835.140625,27.5703125 C834.984375,27.5703125 834.859375,27.6953125 834.859375,27.859375 L834.859375,30.90625 C833.460938,28.5703125 830.921875,27 828,27 C823.578125,27 820,30.578125 820,35 C820,35.15625 820.125,35.28125 820.289062,35.28125 C820.445312,35.28125 820.570312,35.15625 820.570312,35 C820.570312,30.8984375 823.898438,27.5703125 828,27.5703125 L828,27.5703125 Z M828,43 C832.421875,43 836,39.4140625 836,35 C836,34.84375 835.875,34.7109375 835.710938,34.7109375 C835.554688,34.7109375 835.429688,34.84375 835.429688,35 C835.429688,39.1015625 832.101562,42.4296875 828,42.4296875 C825.132812,42.4296875 822.65625,40.8046875 821.414062,38.4296875 L824.859375,38.4296875 C825.015625,38.4296875 825.140625,38.296875 825.140625,38.140625 C825.140625,37.984375 825.015625,37.859375 824.859375,37.859375 L820.859375,37.859375 C820.703125,37.859375 820.570312,37.984375 820.570312,38.140625 L820.570312,42.140625 C820.570312,42.296875 820.703125,42.4296875 820.859375,42.4296875 C821.015625,42.4296875 821.140625,42.296875 821.140625,42.140625 L821.140625,39.09375 C822.539062,41.4296875 825.078125,43 828,43 L828,43 Z" id="sync"></path>
                    </g>
                </g>
            </g>
        </g>
    </g>
</svg>