<?xml version="1.0" encoding="UTF-8" standalone="no"?><!DOCTYPE svg PUBLIC "-//W3C//DTD SVG 1.1//EN" "http://www.w3.org/Graphics/SVG/1.1/DTD/svg11.dtd"><svg width="100%" height="100%" viewBox="0 0 135 28" version="1.1" xmlns="http://www.w3.org/2000/svg" xmlns:xlink="http://www.w3.org/1999/xlink" xml:space="preserve" xmlns:serif="http://www.serif.com/" style="fill-rule:evenodd;clip-rule:evenodd;stroke-linejoin:round;stroke-miterlimit:1.41421;"><path d="M118.928,22.084l1.698,0l0,-10.118l-1.698,0m0,-1.318l1.698,0l0,-1.702l-1.698,0m-78.34,-0.097c-1.844,0 -3.813,0.727 -3.813,2.493c0,1.58 1.803,2.037 3.938,2.39c2.901,0.457 5.761,1.039 5.761,4.322c-0.02,3.261 -3.129,4.321 -5.906,4.321c-2.571,0 -5.016,-0.935 -6.136,-3.366l1.493,-0.873c0.933,1.725 2.881,2.556 4.663,2.556c1.762,0 4.104,-0.561 4.104,-2.701c0.021,-1.808 -2.01,-2.327 -4.187,-2.659c-2.798,-0.437 -5.513,-1.081 -5.513,-4.031c-0.041,-3.034 3.047,-4.073 5.555,-4.073c2.156,0 4.207,0.437 5.492,2.639l-1.368,0.852c-0.787,-1.267 -2.466,-1.849 -4.082,-1.87m8.95,-1.281l0,5.963c0.871,-1.351 2.238,-1.807 3.544,-1.829c2.881,0 4.29,1.912 4.29,4.738l0,5.651l-1.678,0l0,-5.63c0,-2.016 -1.037,-3.159 -2.902,-3.159c-1.866,0 -3.234,1.476 -3.234,3.345l0,5.444l-1.699,0l0,-14.544l1.679,0l0,0.021m14.595,5.707c-2.031,0 -3.668,1.454 -3.668,3.739c0,2.286 1.637,3.761 3.668,3.761c4.933,0 4.933,-7.521 0.021,-7.521l-0.021,0.021Zm3.731,8.851l-0.042,-1.87c-0.808,1.413 -2.362,2.078 -3.772,2.078c-2.943,0 -5.243,-2.037 -5.243,-5.382c0,-3.324 2.342,-5.318 5.264,-5.298c1.534,0 3.047,0.707 3.793,2.037l0.021,-1.871l1.658,0l0,10.264l-1.637,0l-0.042,0.042l0,0Zm12.281,-5.112c0,-2.306 -1.513,-3.677 -3.606,-3.677c-2.135,0 -3.586,1.579 -3.586,3.677c0,2.099 1.513,3.678 3.586,3.699c2.052,0 3.606,-1.392 3.606,-3.698l0,-0.001Zm-9.036,-5.152l1.616,0l0.083,1.974c0.809,-1.372 2.322,-2.161 3.938,-2.161c2.944,0.062 5.099,2.14 5.099,5.298c0,3.241 -2.135,5.34 -5.202,5.34c-1.451,0 -3.068,-0.624 -3.876,-2.078l0,6.69l-1.658,0l0,-15.063Zm20.653,4.342c-0.083,-1.994 -1.451,-3.075 -3.461,-3.075c-1.783,0 -3.337,1.081 -3.627,3.054l7.088,0l0,0.021l0,0Zm0.995,4.239c-1.037,1.226 -2.819,1.828 -4.415,1.828c-3.171,0 -5.388,-2.098 -5.388,-5.36c0,-3.096 2.217,-5.319 5.305,-5.319c3.13,0 5.513,1.932 5.12,6.025l-8.705,0c0.186,1.891 1.741,3.075 3.71,3.075c1.16,0 2.569,-0.457 3.253,-1.288l1.14,1.039l-0.02,0l0,0Zm7.724,-11.594c-1.845,0 -3.813,0.727 -3.813,2.493c0,1.58 1.803,2.037 3.937,2.39c2.902,0.457 5.762,1.039 5.762,4.322c-0.021,3.261 -3.129,4.321 -5.907,4.321c-2.57,0 -5.015,-0.935 -6.135,-3.366l1.493,-0.873c0.932,1.725 2.881,2.556 4.663,2.556c1.762,0 4.104,-0.561 4.104,-2.701c0.02,-1.808 -2.011,-2.327 -4.187,-2.659c-2.798,-0.437 -5.513,-1.081 -5.513,-4.031c-0.042,-3.034 3.047,-4.073 5.554,-4.073c2.156,0 4.208,0.437 5.493,2.639l-1.368,0.852c-0.788,-1.267 -2.466,-1.849 -4.083,-1.87m8.915,-1.288l0,5.963c0.87,-1.351 2.238,-1.807 3.544,-1.828c2.88,0 4.29,1.911 4.29,4.736l0,5.652l-1.679,0l0,-5.63c0,-2.015 -1.036,-3.159 -2.901,-3.159c-1.866,0 -3.233,1.476 -3.233,3.345l0,5.444l-1.7,0l0,-14.544l1.679,0l0,0.021m14.473,14.575l0,-0.021l-0.021,0l0.021,0.021m2.012,-11.001c0,-1.538 0.705,-2.223 1.803,-2.223c0.022,0 0.042,0.002 0.064,0.002l0.383,-1.464c-0.161,-0.021 -0.323,-0.034 -0.488,-0.034c-2.156,0 -3.441,1.371 -3.441,3.719l0,0.81l-2.01,0l0,1.496l2.01,0l0,8.643l1.679,0l0,-8.643l2.034,0l0,-1.496l-2.034,0l0,-0.81m8.662,9.523c-0.134,0.022 -0.267,0.034 -0.394,0.034c-1.223,0 -1.616,-0.769 -1.616,-1.974l0,-5.29l2.181,0l0,-1.476l-2.161,0l0,-3.124l-1.699,0.187l0,2.937l-2.052,0l0,1.476l2.051,0l0,5.29c0,2.265 1.037,3.553 3.234,3.512c0.27,-0.009 0.532,-0.041 0.791,-0.095l-0.335,-1.477m-110.864,-18.171l-1.227,7.375l-4.363,-5.147l5.59,-2.228Zm-1.201,10.547l1.092,4.042l-8.35,2.306l7.258,-6.348Zm-18.177,-2.031l4.477,-5.864l7.774,0l4.97,5.864l-17.221,0l0,0Zm16.645,1.449l-8.094,7.078l-8.246,-7.078l16.34,0Zm-13.667,-7.733l-4.001,5.239l-1.228,-7.443l5.229,2.204l0,0Zm3.175,14.66l-8.43,-2.301l1.155,-3.944l7.275,6.245Zm1.556,1.927l-1.591,1.755c-1.349,-1.284 -2.831,-2.424 -4.414,-3.395l6.005,1.64l0,0Zm7.719,-1.666c-1.583,0.986 -3.062,2.141 -4.402,3.437l-1.625,-1.773l6.027,-1.664l0,0Zm5.797,-19.449l-8.778,3.499l-8.181,0l-8.37,-3.528l1.901,11.52l-1.826,6.235l4.764,2.855c2.255,1.352 4.275,3.043 6.004,5.027l1.856,2.128l1.946,-2.237c1.671,-1.921 3.616,-3.57 5.782,-4.901l4.671,-2.872l-1.682,-6.227l1.913,-11.499Z" style="fill:#fffffe;"/></svg>