<?xml version="1.0" encoding="UTF-8"?>
<svg width="55px" height="37px" viewBox="0 0 55 37" version="1.1" xmlns="http://www.w3.org/2000/svg" xmlns:xlink="http://www.w3.org/1999/xlink">
    <title>Apple_Pay_Mark_RGB_041619 2</title>
    <defs>
        <polygon id="path-1" points="0.0198795181 0.0134579439 54.8412952 0.0134579439 54.8412952 35.6635514 0.0198795181 35.6635514"></polygon>
    </defs>
    <g id="Darkmode" stroke="none" stroke-width="1" fill="none" fill-rule="evenodd">
        <g id="Choose-Payment-Method" transform="translate(-291.000000, -175.000000)">
            <g id="Apple_Pay_Mark_RGB_041619-2" transform="translate(291.000000, 175.000000)">
                <g id="Apple_Pay_Mark_RGB_041619" transform="translate(0.000000, 0.816901)">
                    <g id="Group-3">
                        <mask id="mask-2" fill="white">
                            <use xlink:href="#path-1"></use>
                        </mask>
                        <g id="Clip-2"></g>
                        <path d="M49.9300602,0.0117757009 L4.91123494,0.0117757009 C4.72370482,0.0117757009 4.53584337,0.0117757009 4.34864458,0.0127850467 C4.19060241,0.0141308411 4.03256024,0.0158130841 3.8748494,0.0201869159 C3.53060241,0.0296074766 3.18337349,0.0501308411 2.84376506,0.112373832 C2.49819277,0.17528972 2.17680723,0.278242991 1.86337349,0.440411215 C1.55490964,0.599551402 1.27295181,0.807813084 1.02843373,1.05611215 C0.783584337,1.30474766 0.578493976,1.59072897 0.421777108,1.90396262 C0.262078313,2.22257944 0.160692771,2.54893458 0.0990662651,2.89985047 C0.037439759,3.24538318 0.0172289157,3.59764486 0.00795180723,3.9468785 C0.00364457831,4.10736449 0.00165662651,4.26751402 0.000662650602,4.42766355 C-5.30120482e-05,4.61809346 -5.30120482e-05,4.80852336 -5.30120482e-05,4.99928972 L-5.30120482e-05,30.6763738 C-5.30120482e-05,30.8671402 -5.30120482e-05,31.0568972 0.000662650602,31.248 C0.00165662651,31.4081495 0.00364457831,31.5686355 0.00795180723,31.728785 C0.0172289157,32.0780187 0.037439759,32.4299439 0.0990662651,32.7754766 C0.160692771,33.126729 0.262078313,33.4527477 0.421777108,33.7713645 C0.578493976,34.0845981 0.783584337,34.3709159 1.02843373,34.6188785 C1.27295181,34.8681869 1.55490964,35.0761121 1.86337349,35.2349159 C2.17680723,35.3974206 2.49819277,35.5003738 2.84376506,35.5636262 C3.18337349,35.6251963 3.53060241,35.6460561 3.8748494,35.6554766 C4.03256024,35.6591776 4.19060241,35.6615327 4.34864458,35.6622056 C4.53584337,35.6635514 4.72370482,35.6635514 4.91123494,35.6635514 L49.9300602,35.6635514 C50.117259,35.6635514 50.3051205,35.6635514 50.4923193,35.6622056 C50.6500301,35.6615327 50.8080723,35.6591776 50.9664458,35.6554766 C51.3100301,35.6460561 51.6569277,35.6251963 51.9978614,35.5636262 C52.3427711,35.5003738 52.6641566,35.3974206 52.9775904,35.2349159 C53.2863855,35.0761121 53.5676807,34.8681869 53.8128614,34.6188785 C54.0570482,34.3709159 54.2618072,34.0845981 54.4191867,33.7713645 C54.5788855,33.4527477 54.6806024,33.126729 54.7422289,32.7754766 C54.8035241,32.4299439 54.8234036,32.0780187 54.8326807,31.728785 C54.836988,31.5686355 54.8393072,31.4081495 54.8399699,31.248 C54.8412952,31.0568972 54.8412952,30.8671402 54.8412952,30.6763738 L54.8412952,4.99928972 C54.8412952,4.80852336 54.8412952,4.61809346 54.8399699,4.42766355 C54.8393072,4.26751402 54.836988,4.10736449 54.8326807,3.9468785 C54.8234036,3.59764486 54.8035241,3.24538318 54.7422289,2.89985047 C54.6806024,2.54893458 54.5788855,2.22257944 54.4191867,1.90396262 C54.2618072,1.59072897 54.0570482,1.30474766 53.8128614,1.05611215 C53.5676807,0.807813084 53.2863855,0.599551402 52.9775904,0.440411215 C52.6641566,0.278242991 52.3427711,0.17528972 51.9978614,0.112373832 C51.6569277,0.0501308411 51.3100301,0.0296074766 50.9664458,0.0201869159 C50.8080723,0.0158130841 50.6500301,0.0141308411 50.4923193,0.0127850467 C50.3051205,0.0117757009 50.117259,0.0117757009 49.9300602,0.0117757009" id="Fill-1" fill="#000003" mask="url(#mask-2)"></path>
                    </g>
                    <path d="M49.9300602,1.20011215 L50.4837048,1.2011215 C50.6337952,1.20213084 50.7838855,1.20381308 50.9346386,1.20818692 C51.1970482,1.21525234 51.5041867,1.22971963 51.7904518,1.28186916 C52.0389458,1.32728972 52.2476807,1.39659813 52.4478012,1.49988785 C52.6456024,1.60183178 52.826506,1.73540187 52.9845482,1.89588785 C53.143253,2.05738318 53.2751205,2.24142056 53.3768373,2.44429907 C53.4782229,2.64616822 53.5458133,2.85678505 53.5905422,3.11114019 C53.6415663,3.39880374 53.6554819,3.71136449 53.6631024,3.97917757 C53.6670783,4.13091589 53.6687349,4.28198131 53.6697289,4.43708411 C53.6710542,4.62414953 53.6710542,4.8115514 53.6710542,4.99928972 L53.6710542,30.6763738 C53.6710542,30.8641121 53.6710542,31.0511776 53.6693976,31.2422804 C53.6687349,31.3936822 53.6670783,31.5450841 53.6631024,31.6968224 C53.6554819,31.9646355 53.6415663,32.2765234 53.5898795,32.5675514 C53.5458133,32.8185421 53.4782229,33.0294953 53.376506,33.2320374 C53.2747892,33.4345794 53.143253,33.6186168 52.9852108,33.7787664 C52.8261747,33.9402617 52.6459337,34.0734953 52.4458133,34.1764486 C52.2470181,34.2794019 52.0389458,34.3487103 51.7924398,34.3934579 C51.5005422,34.4466168 51.1811446,34.4610841 50.9399398,34.4674766 C50.7885241,34.4711776 50.6377711,34.4731963 50.4830422,34.4738692 C50.2991566,34.4755514 50.1142771,34.4755514 49.9300602,34.4755514 L4.91123494,34.4755514 C4.90891566,34.4755514 4.90659639,34.4755514 4.90394578,34.4755514 C4.72204819,34.4755514 4.53948795,34.4755514 4.35427711,34.4738692 C4.20319277,34.4731963 4.05210843,34.4711776 3.9063253,34.4678131 C3.6601506,34.4610841 3.34009036,34.4466168 3.05051205,34.3937944 C2.8023494,34.3487103 2.59394578,34.2794019 2.3925,34.1751028 C2.1946988,34.0731589 2.01412651,33.9402617 1.85509036,33.7780935 C1.69737952,33.6182804 1.5661747,33.4349159 1.46478916,33.2320374 C1.36307229,33.0298318 1.2951506,32.8182056 1.25042169,32.5641869 C1.19906627,32.2741682 1.18481928,31.9629533 1.17786145,31.6968224 C1.17355422,31.5447477 1.17189759,31.3923364 1.17090361,31.2409346 L1.17024096,30.7944673 L1.17024096,4.88119626 L1.17090361,4.43540187 C1.17189759,4.2833271 1.17355422,4.13125234 1.17786145,3.97884112 C1.18481928,3.71271028 1.19906627,3.40149533 1.25108434,3.10878505 C1.2951506,2.8571215 1.36307229,2.64583178 1.46512048,2.44228037 C1.56584337,2.24108411 1.69737952,2.05738318 1.85608434,1.8962243 C2.01412651,1.73573832 2.19503012,1.60216822 2.39415663,1.4995514 C2.59328313,1.39659813 2.80201807,1.32728972 3.05051205,1.28186916 C3.33677711,1.22971963 3.64391566,1.21525234 3.90698795,1.20818692 C4.05674699,1.20381308 4.20683735,1.20213084 4.35560241,1.2011215 L4.91123494,1.20011215 L49.9300602,1.20011215" id="Fill-4" fill="#FFFFFE"></path>
                    <path d="M14.9712651,12.0028037 C15.4410843,11.4066168 15.759488,10.6058692 15.6756627,9.78762617 C14.9881627,9.82228037 14.149247,10.2478879 13.6635241,10.8447477 C13.2275,11.3558131 12.8418373,12.1902056 12.9422289,12.9744673 C13.7138855,13.0420935 14.4848795,12.5828411 14.9712651,12.0028037" id="Fill-5" fill="#000003"></path>
                    <path d="M15.6667169,13.127215 C14.5461747,13.0595888 13.5932831,13.7731963 13.0581928,13.7731963 C12.5227711,13.7731963 11.7034036,13.1615327 10.8171084,13.1780187 C9.66343373,13.1951776 8.59292169,13.8576449 8.0078012,14.9110654 C6.80343373,17.018243 7.68972892,20.1445234 8.86096386,21.8607477 C9.42918675,22.7099439 10.1146988,23.6445981 11.0175602,23.6112897 C11.8707229,23.5773084 12.2050301,23.0504299 13.2420783,23.0504299 C14.2784639,23.0504299 14.5796386,23.6112897 15.4828313,23.5944673 C16.419488,23.5773084 17.0049398,22.7445981 17.573494,21.894729 C18.2258735,20.9267664 18.4925904,19.9921121 18.509488,19.9406355 C18.4925904,19.9234766 16.7037651,19.2266916 16.6871988,17.1370093 C16.6699699,15.3871402 18.0916867,14.5547664 18.1586145,14.5032897 C17.3558133,13.2974579 16.101747,13.1615327 15.6667169,13.127215" id="Fill-6" fill="#000003"></path>
                    <path d="M22.6662952,17.4899439 L24.901747,17.4899439 C26.5981325,17.4899439 27.5632831,16.5626916 27.5632831,14.9551402 C27.5632831,13.3475888 26.5981325,12.4287477 24.9103614,12.4287477 L22.6662952,12.4287477 L22.6662952,17.4899439 Z M25.4239157,10.7592897 C27.859488,10.7592897 29.5552108,12.4640748 29.5552108,14.9460561 C29.5552108,17.4371215 27.8243675,19.1509907 25.3626205,19.1509907 L22.6662952,19.1509907 L22.6662952,23.5053084 L20.7177711,23.5053084 L20.7177711,10.7592897 L25.4239157,10.7592897 L25.4239157,10.7592897 Z" id="Fill-7" fill="#000003"></path>
                    <path d="M35.9706627,20.0250841 L35.9706627,19.2922991 L33.7179819,19.4336075 C32.5957831,19.5130093 31.9606325,20.0163364 31.9606325,20.8113645 C31.9606325,21.6238879 32.6219578,22.1537944 33.6308434,22.1537944 C34.9442169,22.1537944 35.9706627,21.2352897 35.9706627,20.0250841 Z M30.0644578,20.8641869 C30.0644578,19.2388037 31.2906928,18.2408972 33.4658434,18.1170841 L35.9706627,17.967028 L35.9706627,17.2517383 C35.9706627,16.2181682 35.283494,15.6001121 34.1354518,15.6001121 C33.0480422,15.6001121 32.369488,16.1296822 32.2041566,16.9600374 L30.4299096,16.9600374 C30.5342771,15.2818318 31.9434036,14.0450467 34.2050301,14.0450467 C36.423253,14.0450467 37.840994,15.237757 37.840994,17.1013458 L37.840994,23.5053084 L36.040241,23.5053084 L36.040241,21.9771589 L35.9971687,21.9771589 C35.4663855,23.010729 34.3093976,23.6644486 33.109006,23.6644486 C31.3171988,23.6644486 30.0644578,22.5336449 30.0644578,20.8641869 L30.0644578,20.8641869 Z" id="Fill-8" fill="#000003"></path>
                    <path d="M39.5410241,26.9239626 L39.5410241,25.3779813 C39.6798494,25.4133084 39.9929518,25.4133084 40.1496687,25.4133084 C41.0193976,25.4133084 41.4892169,25.0422056 41.7761446,24.0883738 C41.7761446,24.0708785 41.9414759,23.5231402 41.9414759,23.5140561 L38.6361747,14.2129346 L40.671506,14.2129346 L42.9854819,21.7742804 L43.0202711,21.7742804 L45.334247,14.2129346 L47.3175602,14.2129346 L43.89,23.9911402 C43.1070783,26.244 42.2025602,26.9680374 40.3063855,26.9680374 C40.1496687,26.9680374 39.6798494,26.9502056 39.5410241,26.9239626" id="Fill-9" fill="#000003"></path>
                </g>
            </g>
        </g>
    </g>
</svg>