<svg id="Artwork" xmlns="http://www.w3.org/2000/svg" viewBox="0 0 165.5 106" width="2500" height="1601"><style>.st0{fill:#fff}</style><path id="XMLID_4_" d="M150.7 0h-139c-1 0-2.1.1-3.1.3-1 .2-2 .5-3 1-.9.4-1.8 1.1-2.5 1.8S1.7 4.7 1.3 5.6c-.5.9-.8 1.9-1 3-.2 1-.2 2.1-.3 3.1v82.5c0 1 .1 2.1.3 3.1.2 1 .5 2 1 3 .5.9 1.1 1.8 1.8 2.5s1.6 1.4 2.5 1.8c.9.5 1.9.8 3 1 1 .2 2.1.2 3.1.3h142.1c1 0 2.1-.1 3.1-.3 1-.2 2-.5 3-1 .9-.5 1.8-1.1 2.5-1.8s1.4-1.6 1.8-2.5c.5-.9.8-1.9 1-3 .2-1 .2-2.1.3-3.1v-1.4-78-1.7-1.4c0-1-.1-2.1-.3-3.1-.2-1-.5-2-1-3-.5-.9-1.1-1.8-1.8-2.5s-1.6-1.4-2.5-1.8c-.9-.5-1.9-.8-3-1-1-.2-2.1-.2-3.1-.3H150.7z"/><path id="XMLID_3_" class="st0" d="M150.7 3.5H153.8c.8 0 1.7.1 2.6.2.8.1 1.4.3 2 .6.6.3 1.1.7 1.6 1.2s.9 1 1.2 1.6c.3.6.5 1.2.6 2 .2.9.2 1.8.2 2.6v82.5c0 .8-.1 1.7-.2 2.6-.1.7-.3 1.4-.6 2-.3.6-.7 1.1-1.2 1.6s-1 .9-1.6 1.2c-.6.3-1.2.5-2 .6-.9.2-1.8.2-2.6.2H11.7c-.7 0-1.7-.1-2.6-.2-.7-.1-1.4-.3-2-.7-.6-.3-1.1-.7-1.6-1.2s-.9-1-1.2-1.6c-.3-.6-.5-1.2-.6-2-.2-.9-.2-1.8-.2-2.6v-81-1.4c0-.8.1-1.7.2-2.6.1-.7.3-1.4.6-2 .3-.6.7-1.1 1.2-1.6s1-.9 1.6-1.2c.6-.3 1.2-.5 2-.6.9-.2 1.8-.2 2.6-.2h139"/><path d="M45.2 35.6c1.4-1.8 2.4-4.2 2.1-6.6-2.1.1-4.6 1.4-6.1 3.1-1.3 1.5-2.5 4-2.2 6.3 2.4.3 4.7-1 6.2-2.8M47.3 39c-3.4-.2-6.3 1.9-7.9 1.9-1.6 0-4.1-1.8-6.8-1.8-3.5.1-6.7 2-8.5 5.2-3.6 6.3-1 15.6 2.6 20.7 1.7 2.5 3.8 5.3 6.5 5.2 2.6-.1 3.6-1.7 6.7-1.7s4 1.7 6.8 1.6c2.8-.1 4.6-2.5 6.3-5.1 2-2.9 2.8-5.7 2.8-5.8-.1-.1-5.5-2.1-5.5-8.3-.1-5.2 4.2-7.7 4.4-7.8-2.3-3.6-6.1-4-7.4-4.1"/><g><path d="M76.7 31.9c7.4 0 12.5 5.1 12.5 12.4 0 7.4-5.2 12.5-12.7 12.5h-8.1v12.9h-5.9V31.9h14.2zm-8.3 20h6.7c5.1 0 8-2.8 8-7.5 0-4.8-2.9-7.5-8-7.5h-6.8v15zM90.7 62c0-4.8 3.7-7.8 10.3-8.2l7.6-.4v-2.1c0-3.1-2.1-4.9-5.5-4.9-3.3 0-5.3 1.6-5.8 4h-5.4c.3-5 4.6-8.7 11.4-8.7 6.7 0 11 3.5 11 9.1v19h-5.4v-4.5h-.1c-1.6 3.1-5.1 5-8.7 5-5.6 0-9.4-3.4-9.4-8.3zm17.9-2.5v-2.2l-6.8.4c-3.4.2-5.3 1.7-5.3 4.1 0 2.4 2 4 5 4 4 0 7.1-2.7 7.1-6.3zM119.3 80v-4.6c.4.1 1.4.1 1.8.1 2.6 0 4-1.1 4.9-3.9 0-.1.5-1.7.5-1.7l-10-27.6h6.1l7 22.5h.1l7-22.5h6l-10.3 29.1c-2.4 6.7-5.1 8.8-10.8 8.8-.4-.1-1.8-.1-2.3-.2z"/></g></svg>