<?xml version="1.0" encoding="UTF-8"?>
<svg width="48px" height="37px" viewBox="0 0 48 37" version="1.1" xmlns="http://www.w3.org/2000/svg" xmlns:xlink="http://www.w3.org/1999/xlink">
    <!-- Generator: sketchtool 64 (101010) - https://sketch.com -->
    <title>BAB196B2-72BA-42A6-83D2-008D85EB0D84</title>
    <desc>Created with sketchtool.</desc>
    <g id="Buy-Crypto" stroke="none" stroke-width="1" fill="none" fill-rule="evenodd">
        <g id="Choose-Payment-Method---US-iPhone" transform="translate(-295.000000, -267.000000)">
            <g id="Icons/Card" transform="translate(295.000000, 267.000000)">
                <g id="credit-card" transform="translate(-0.000000, 0.000000)">
                    <path d="M44.8695652,0 C46.5986087,0 48,1.43325845 48,3.20161978 L48,33.0834044 C48,34.8517657 46.5986087,36.2850242 44.8695652,36.2850242 L3.13043478,36.2850242 C1.4013913,36.2850242 -2.13162821e-14,34.8517657 -2.13162821e-14,33.0834044 L-2.13162821e-14,3.20161978 C-2.13162821e-14,1.43325845 1.4013913,0 3.13043478,0 L44.8695652,0 Z M29.3333333,21.7710145 L6.22222222,21.7710145 L6.22222222,26.3066425 L29.3333333,26.3066425 L29.3333333,21.7710145 Z" id="Shape-2" fill="#E7E7E7"></path>
                    <polygon id="Rectangle-path" fill="#9BA3AE" points="0 6.34987923 48 6.34987923 48 14.5140097 0 14.5140097"></polygon>
                </g>
            </g>
        </g>
    </g>
</svg>