<?xml version="1.0" encoding="UTF-8"?>
<svg width="37px" height="37px" viewBox="0 0 37 37" version="1.1" xmlns="http://www.w3.org/2000/svg" xmlns:xlink="http://www.w3.org/1999/xlink">
    <title>Group 5</title>
    <g id="Page-1" stroke="none" stroke-width="1" fill="none" fill-rule="evenodd">
        <g id="Choose-Payment-Method" transform="translate(-300.000000, -539.000000)" fill-rule="nonzero">
            <g id="Group-5" transform="translate(300.000000, 539.000000)">
                <g id="Group-4">
                    <rect id="Rectangle" fill="#9BA3AE" x="3.46875" y="18.5" width="2.3125" height="11.5625"></rect>
                    <rect id="Rectangle" fill="#9BA3AE" x="12.71875" y="18.5" width="2.3125" height="11.5625"></rect>
                    <rect id="Rectangle" fill="#9BA3AE" x="21.96875" y="18.5" width="2.3125" height="11.5625"></rect>
                    <rect id="Rectangle" fill="#9BA3AE" x="31.21875" y="18.5" width="2.3125" height="11.5625"></rect>
                    <path d="M35.84375,32.375 L1.15625,32.375 C0.518,32.375 0,32.8918437 0,33.53125 L0,35.84375 C0,36.4831563 0.518,37 1.15625,37 L35.84375,37 C36.482,37 37,36.4831563 37,35.84375 L37,33.53125 C37,32.8918437 36.482,32.375 35.84375,32.375 Z" id="Path" fill="#E7E7E7"></path>
                    <path d="M36.3883437,9.38528125 L19.0445938,0.13528125 C18.7046562,-0.04509375 18.2965,-0.04509375 17.9565625,0.13528125 L0.6128125,9.38528125 C0.235875,9.58646875 0,9.97959375 0,10.40625 L0,15.03125 C0,15.6706563 0.518,16.1875 1.15625,16.1875 L35.84375,16.1875 C36.482,16.1875 37,15.6706563 37,15.03125 L37,10.40625 C37,9.97959375 36.764125,9.58646875 36.3883437,9.38528125 Z M18.5,11.5625 C17.2223437,11.5625 16.1875,10.5276562 16.1875,9.25 C16.1875,7.97234375 17.2223437,6.9375 18.5,6.9375 C19.7776562,6.9375 20.8125,7.97234375 20.8125,9.25 C20.8125,10.5276562 19.7776562,11.5625 18.5,11.5625 Z" id="Shape" fill="#E7E7E7"></path>
                </g>
            </g>
        </g>
    </g>
</svg>