<?xml version="1.0" encoding="UTF-8" standalone="no"?>
<svg
   xmlns:dc="http://purl.org/dc/elements/1.1/"
   xmlns:cc="http://creativecommons.org/ns#"
   xmlns:rdf="http://www.w3.org/1999/02/22-rdf-syntax-ns#"
   xmlns:svg="http://www.w3.org/2000/svg"
   xmlns="http://www.w3.org/2000/svg"
   viewBox="0 0 746 233.74667"
   height="233.74667"
   width="746"
   xml:space="preserve"
   id="svg2"
   version="1.1"><metadata
     id="metadata8"><rdf:RDF><cc:Work
         rdf:about=""><dc:format>image/svg+xml</dc:format><dc:type
           rdf:resource="http://purl.org/dc/dcmitype/StillImage" /></cc:Work></rdf:RDF></metadata><defs
     id="defs6" /><g
     transform="matrix(1.3333333,0,0,-1.3333333,0,233.74667)"
     id="g10"><g
       transform="scale(0.1)"
       id="g12"><path
         id="path14"
         style="fill:#65686d;fill-opacity:1;fill-rule:nonzero;stroke:none"
         d="m 2117.98,926.109 c 35.3,-16.652 71.61,-20.566 130.46,-21.582 154.03,-2.89 209.95,-40.175 209.95,-130.449 0,-22.539 -4.93,-43.18 -13.76,-60.789 -8.81,-17.68 -27.46,-36.289 -53.93,-54.969 -26.5,-18.609 -72.6,-27.441 -138.32,-27.441 -93.21,0 -161.86,22.543 -207.97,68.652 -4.88,4.93 -7.87,11.778 -8.82,19.629 0.95,16.649 8.82,24.531 23.53,24.531 7.85,0 13.73,-2.019 18.64,-6.882 34.34,-38.278 96.15,-59.809 171.7,-59.809 102.01,0 158.88,35.289 158.88,98.074 1,28.438 -7.82,47.078 -26.49,56.856 -36.26,19.656 -75.52,24.539 -138.3,25.515 -149.09,2.961 -200.14,36.34 -200.14,119.688 0,88.297 79.49,144.227 202.11,144.227 75.5,0 137.31,-21.61 183.44,-61.81 4.91,-4.94 7.85,-10.82 7.85,-19.6 -0.99,-14.74 -8.85,-23.57 -22.58,-24.54 -7.83,0 -14.7,1.95 -19.64,6.85 -35.29,34.31 -87.28,51.99 -146.15,51.99 -23.53,0 -45.11,-1.96 -63.76,-6.87 -18.64,-4.88 -39.23,-13.71 -59.84,-26.48 -20.61,-12.75 -30.38,-33.34 -31.38,-63.767 -0.95,-25.528 7.83,-42.156 24.52,-51.024" /><path
         id="path16"
         style="fill:#65686d;fill-opacity:1;fill-rule:nonzero;stroke:none"
         d="M 3562.82,911.402 V 664.18 c 0,-17.59 -7.85,-26.418 -24.52,-27.442 -16.7,1.024 -25.53,9.852 -25.53,27.442 v 242.34 c 0,109.84 -46.13,167.73 -135.38,167.73 -90.24,0 -148.12,-71.62 -148.12,-186.375 V 664.18 c 0,-17.59 -7.82,-26.418 -24.52,-27.442 -16.68,1.024 -25.48,9.852 -25.48,27.442 v 242.34 c 0,109.84 -46.14,167.73 -135.4,167.73 -91.23,0 -148.11,-71.62 -148.11,-186.375 V 664.18 c 0,-17.59 -8.85,-26.418 -25.54,-27.442 -15.68,1.024 -23.53,9.852 -24.5,27.442 V 1087 c 0.97,18.66 8.82,27.49 24.5,28.43 16.69,-0.94 25.54,-9.77 25.54,-28.43 v -50.98 h 1.95 c 31.38,54.91 85.32,85.29 154.98,85.29 78.5,0 131.49,-35.29 157.96,-101.01 h 1.95 c 31.37,62.78 88.3,101.01 171.65,101.01 118.71,0 178.57,-73.52 178.57,-209.908" /><path
         id="path18"
         style="fill:#65686d;fill-opacity:1;fill-rule:nonzero;stroke:none"
         d="m 3794.04,1087.02 v -67.67 h 1.98 c 9.81,16.62 21.56,30.38 34.31,43.15 13.71,12.73 33.37,25.51 58.87,38.23 25.5,13.76 60.79,20.63 106.92,20.63 70.62,0 129.49,-24.53 171.68,-67.69 62.76,-70.639 62.76,-127.514 65.7,-177.561 0,-36.308 -4.91,-65.761 -21.61,-111.828 -25.44,-67.711 -111.8,-137.312 -215.77,-133.402 -46.13,0 -81.42,6.812 -106.92,19.621 -51.02,27.441 -73.57,50.039 -93.18,82.359 h -1.98 V 481.77 c 0,-17.668 -7.87,-26.489 -24.55,-27.45 -16.65,0.961 -25.49,9.782 -25.49,27.45 v 605.25 c 0,18.64 8.84,27.47 25.49,28.41 16.68,-0.94 24.55,-9.77 24.55,-28.41 M 4182.5,876.109 c 0,117.696 -77.48,198.171 -193.27,198.171 -114.74,0 -195.19,-80.475 -195.19,-198.171 0,-117.714 80.45,-198.168 195.19,-198.168 115.79,0 193.27,80.454 193.27,198.168" /><path
         id="path20"
         style="fill:#65686d;fill-opacity:1;fill-rule:nonzero;stroke:none"
         d="M 4434.43,1307.74 V 664.211 c 0,-17.641 -8.82,-26.52 -25.47,-27.473 -15.71,0.953 -23.56,9.832 -24.58,27.473 v 643.529 c 1.02,17.65 8.87,26.49 24.58,27.47 16.65,-0.98 25.47,-9.82 25.47,-27.47" /><path
         id="path22"
         style="fill:#65686d;fill-opacity:1;fill-rule:nonzero;stroke:none"
         d="m 5036.38,858.441 h -404.17 c 7.88,-107.921 82.45,-180.5 199.12,-180.5 69.66,0 123.62,28.418 158.93,72.579 4.94,6.878 11.75,9.847 18.65,9.847 16.65,-1.015 25.49,-9.847 25.49,-26.496 0,-5.883 -1.96,-11.742 -6.87,-16.652 -45.14,-53.008 -110.84,-86.36 -196.2,-86.36 -75.52,0 -138.3,24.571 -182.42,67.672 -64.75,70.653 -66.7,127.508 -68.67,177.578 0,36.289 3.92,66.7 22.56,110.84 27.46,68.691 114.75,139.341 223.66,134.381 140.28,0 240.3,-97.12 240.3,-233.455 -0.93,-18.641 -11.77,-28.457 -30.38,-29.434 m -403.2,46.086 h 385.55 c -12.74,102.043 -86.39,169.723 -192.27,169.723 -107.92,0 -180.51,-67.68 -193.28,-169.723" /><path
         id="path24"
         style="fill:#65686d;fill-opacity:1;fill-rule:nonzero;stroke:none"
         d="m 5586.21,682.879 c 5.91,-5.93 8.83,-12.738 8.83,-21.59 -0.98,-15.719 -9.78,-23.551 -26.5,-24.551 -7.85,0 -14.7,3.922 -20.56,10.793 L 5370.4,845.66 5190.88,646.57 c -4.91,-6.91 -11.77,-9.832 -19.6,-9.832 -15.69,1 -23.53,9.832 -24.54,25.5 0,6.883 1.99,12.762 6.89,17.684 l 182.44,198.141 -175.58,191.307 c -5.88,6.88 -8.85,13.75 -8.85,21.58 1,15.71 9.84,23.54 26.48,24.52 7.85,0 14.72,-3.95 20.63,-10.81 l 172.65,-194.254 173.64,195.274 c 5.88,6.84 12.73,9.79 19.57,9.79 15.74,-0.98 23.62,-9.79 24.55,-25.52 0,-6.83 -1.95,-12.75 -6.86,-17.64 L 5405.74,879.027 5586.21,682.879" /><path
         id="path26"
         style="fill:#42b23b;fill-opacity:1;fill-rule:nonzero;stroke:none"
         d="m 1071.52,0 c -33.13,0 -63.92,14.8516 -84.571,40.75 -15.051,18.9297 -23.351,42.4219 -23.511,66.609 l -461.875,105.52 c -7.086,-14.418 -16.993,-26.77 -29.551,-36.738 -19.321,-15.411 -42.578,-23.61 -67.285,-23.61 -33.122,0 -63.934,14.848 -84.567,40.688 -17.988,22.59 -26.156,50.863 -22.875,79.519 3.188,28.403 17.172,53.903 39.41,71.852 L 131.266,771.363 c -7.621,-1.679 -15.45,-2.511 -23.282,-2.511 -33.1207,0 -63.8863,14.796 -84.4332,40.605 -37.1953,46.582 -29.47658,114.707 17.1055,151.906 19.2734,15.313 42.4882,23.438 67.1017,23.438 7.941,0 15.84,-0.86 23.574,-2.578 l 205.637,426.837 c -6.27,5.04 -11.766,10.53 -16.473,16.48 -18.031,22.56 -26.156,50.79 -22.875,79.46 3.215,28.69 17.422,54.42 40,72.4 19.328,15.41 42.629,23.55 67.285,23.55 33.125,0 63.942,-14.81 84.598,-40.67 4.707,-5.89 8.891,-12.54 12.375,-19.74 l 461.809,105.3 c 0.222,32.87 14.929,63.21 40.632,83.71 19.32,15.43 42.58,23.55 67.27,23.55 33.14,0 63.95,-14.84 84.59,-40.7 25.6,-32.17 30.63,-76.29 13.21,-113.39 l 370.43,-295.57 c 19.23,15.07 42.24,23.03 66.6,23.03 33.15,0 63.97,-14.83 84.62,-40.69 37.13,-46.62 29.43,-114.71 -17.15,-151.89 -12.58,-10.04 -26.87,-16.96 -42.56,-20.63 l -0.07,-473.549 c 23.51,-5.531 44.6,-18.883 59.66,-37.781 18.01,-22.559 26.14,-50.789 22.9,-79.481 -3.23,-28.699 -17.47,-54.39 -40.05,-72.41 -19.31,-15.398 -42.57,-23.519 -67.25,-23.519 -24.28,0 -47.9,8.16 -66.82,23.031 L 1169.2,154.18 c 21.25,-44.969 8.78,-99.3597 -30.36,-130.5784 C 1119.48,8.19922 1096.22,0 1071.52,0 M 970.563,156.719 768.574,317.941 516.605,260.43 Z m 170.657,38.82 364.44,290.551 -252.2,-57.578 z m -139.46,0 -76.123,158.211 -94.985,-21.648 z m 94.64,21.59 95,197.262 -94.98,-21.672 z m -49.77,0.043 0.04,164.168 -71.264,-16.27 z m -541.087,91.789 213.258,48.687 -76.063,60.672 z m -31.039,38.93 128.324,102.289 -57.062,45.55 z m -44.84,21.621 76.172,158.066 -76.152,60.742 z m -49.73,0.039 V 628.012 L 177.852,789.281 Z M 780.883,371.789 903.48,399.75 824.727,563.422 682.645,450.141 Z m 172.398,39.32 93.389,21.321 0.05,204.468 -100.954,23.043 -81.125,-64.691 z m 143.169,32.672 122.62,27.957 54.57,113.262 -177.17,40.5 z M 642.758,482.02 802.555,609.441 757.602,702.891 656.648,725.93 567.895,541.738 Z m 638.372,3.839 213.46,48.711 -171.18,39.078 z M 527.984,573.551 606.855,737.328 429.75,777.785 429.727,652.02 Z m 977.696,9.551 -128.37,102.367 -31.75,-65.789 z m 31.01,38.898 -94.95,197.234 -42.3,-87.734 z m -240.87,9.02 41.58,86.339 -159.76,127.422 -81.15,-64.707 -0.02,-103.535 z m -453.336,10.218 41.204,32.84 -64.047,14.672 z m 739.036,2.492 0.04,465.73 -112.22,-232.874 z m -534.8,44.161 v 52.5 L 995.543,699.57 Z m -666.743,3.828 v 97.398 l -171.086,39.051 z m 553.503,22.082 113.28,90.277 V 949.145 L 933.551,1039.49 792.148,1007.24 729.211,876.605 792.055,746.109 Z m -203.503,46.476 -28.372,58.957 -22.804,-47.265 z m 629.593,3.047 54.53,113.262 -54.53,113.234 -142.04,-113.215 z m -730.5,19.981 44.934,93.3 -44.977,93.399 -199.257,-45.43 -0.02,-95.75 z m -249.093,56.906 v 73.008 L 220,876.742 Z m 716.543,3.543 41.2,32.851 -41.2,32.852 z m 81.12,64.641 159.81,127.405 -41.59,86.29 -199.27,-45.43 -0.03,-103.539 z m -968.749,16.851 171.086,39.008 0.046,97.446 z m 1232.849,8.645 94.98,197.109 -137.19,-109.36 z m -740.115,0.05 28.488,59.137 -51.312,-11.715 z m -523.73,30.243 202.128,161.206 0.043,258.46 z m 251.875,11.425 177.128,40.411 -78.796,163.73 -98.305,-78.37 z m 616.99,37.201 0.05,52.49 -51.181,-11.68 z m -390.112,14.52 101.09,23.08 45,93.39 -159.863,127.51 -74.891,-59.74 z m 163.149,37.24 63.98,14.59 -41.132,32.81 z m 557.553,3.06 128.35,102.32 -160.07,-36.51 z m -431.514,25.67 100.974,23.03 0.04,204.45 -93.342,21.31 -88.711,-184.13 z m 150.774,34.39 177.13,40.41 -54.57,113.3 -122.54,28.02 z m -666.77,37.38 76.09,60.71 -76.043,158.07 z m 893.66,14.37 171.09,39.02 -213.34,48.74 z m -498.637,10.34 78.848,163.66 -122.648,28.03 -98.282,-78.35 z m -279.004,67.8 57.106,45.54 -128.324,102.35 z m 959.841,9.44 -364.32,290.63 112.22,-233.08 z m -862.825,67.96 76.129,60.66 -213.258,48.71 z m 548.685,3.77 -94.9,197 -0.03,-175.34 z m -144.71,33.06 0.05,164.12 -71.22,-147.85 z m -120.948,27.65 76.268,158.33 -171.334,-136.61 z m -157.148,35.86 201.992,161.08 -453.891,-103.54 251.899,-57.54" /><path
         id="path28"
         style="fill:#42b23b;fill-opacity:1;fill-rule:nonzero;stroke:none"
         d="m 2748.53,1221.64 c 0,57.87 -46.9,104.74 -104.76,104.74 -57.89,0 -104.79,-46.87 -104.79,-104.74 0,-49.24 34,-90.44 79.77,-101.69 V 664.18 c 1,-17.59 8.83,-26.442 24.53,-27.442 16.68,1 25.49,9.852 25.49,27.442 v 455.77 c 45.78,11.25 79.76,52.45 79.76,101.69" /></g></g></svg>