<?xml version="1.0" encoding="UTF-8"?>
<svg width="50px" height="50px" viewBox="0 0 50 50" version="1.1" xmlns="http://www.w3.org/2000/svg" xmlns:xlink="http://www.w3.org/1999/xlink">
    <!-- Generator: Sketch 52.5 (67469) - http://www.bohemiancoding.com/sketch -->
    <title>Brand/Icon/DSW</title>
    <desc>Created with Sketch.</desc>
    <defs>
        <polygon id="path-1" points="0.00457142857 0.00937142857 20.8555429 0.00937142857 20.8555429 13.0509714 0.00457142857 13.0509714"></polygon>
    </defs>
    <g id="Brand/Icon/DSW" stroke="none" stroke-width="1" fill="none" fill-rule="evenodd">
        <rect id="Rectangle" fill="#000000" x="0" y="0" width="50" height="50"></rect>
        <g id="DSW_logo" transform="translate(5.000000, 18.000000)">
            <g id="Group-4">
                <mask id="mask-2" fill="white">
                    <use xlink:href="#path-1"></use>
                </mask>
                <g id="Clip-2"></g>
                <path d="M1.6791619,5.06582857 C1.6791619,2.53714286 1.6791619,2.07085714 1.6455619,1.53897143 C1.6120381,0.972419048 1.47977143,0.706971429 0.929066667,0.590095238 C0.797866667,0.557028571 0.514209524,0.540190476 0.280228571,0.540190476 C0.0967619048,0.540190476 0,0.507580952 0,0.389638095 C0,0.274209524 0.114971429,0.240761905 0.364647619,0.240761905 C1.24739048,0.240761905 2.29485714,0.28952381 2.76121905,0.28952381 C3.27779048,0.28952381 4.32533333,0.240761905 5.32198095,0.240761905 C7.40175238,0.240761905 10.1823238,0.240761905 11.9966476,2.13691429 C12.8254476,3.00182857 13.6095238,4.38300952 13.6095238,6.36457143 C13.6095238,8.4616381 12.728381,10.0572952 11.7947429,11.0057143 C11.0314667,11.7897143 9.29904762,12.9711238 6.2215619,12.9711238 C5.62514286,12.9711238 4.94064762,12.9206857 4.30910476,12.8713905 C3.67649524,12.8220952 3.09630476,12.7706667 2.67580952,12.7706667 C2.49417143,12.7706667 2.12662857,12.7706667 1.72944762,12.7859048 C1.34651429,12.7859048 0.914361905,12.8220952 0.581790476,12.8220952 C0.364647619,12.8220952 0.247161905,12.7706667 0.247161905,12.6537905 C0.247161905,12.570819 0.314742857,12.5210667 0.514209524,12.5210667 C0.765866667,12.5210667 0.965180952,12.4879238 1.11260952,12.4537905 C1.4472381,12.3878095 1.53005714,12.0211048 1.59527619,11.5401905 C1.6791619,10.8398476 1.6791619,9.52594286 1.6791619,7.99474286 L1.6791619,5.06582857 Z M3.75885714,6.89554286 C3.75885714,8.66049524 3.77462857,9.93980952 3.79344762,10.2582095 C3.81020952,10.6746667 3.84228571,11.3382857 3.97554286,11.5222857 C4.1911619,11.8391619 4.84198095,12.1879619 6.15542857,12.1879619 C7.85333333,12.1879619 8.9832381,11.8568381 9.98194286,10.9899429 C11.0477714,10.0750476 11.3798095,8.5607619 11.3798095,6.8471619 C11.3798095,4.73379048 10.4985143,3.36853333 9.78255238,2.68662857 C8.25295238,1.2216381 6.35428571,1.02232381 5.0576,1.02232381 C4.7239619,1.02232381 4.10674286,1.07314286 3.97554286,1.13965714 C3.82598095,1.20586667 3.77462857,1.28921905 3.77462857,1.4727619 C3.75885714,2.03824762 3.75885714,3.48693333 3.75885714,4.80091429 L3.75885714,6.89554286 Z" id="Fill-1" fill="#FFFFFF" mask="url(#mask-2)"></path>
                <path d="M14.2137143,12.621181 C13.9487238,12.5048381 13.8995048,12.4193524 13.8995048,12.0556952 C13.8995048,11.1398857 13.9655619,10.1422476 13.9833143,9.87527619 C13.9971048,9.62613333 14.0479238,9.4424381 14.1821714,9.4424381 C14.3321905,9.4424381 14.3499429,9.59154286 14.3499429,9.72525714 C14.3499429,9.93942857 14.4150095,10.2917333 14.4984381,10.5755429 C14.8635429,11.8055619 15.8439619,12.255619 16.8781714,12.255619 C18.3752381,12.255619 19.1069714,11.239619 19.1069714,10.3583238 C19.1069714,9.54331429 18.8573714,8.77691429 17.4752,7.69424762 L16.7104,7.09584762 C14.8803048,5.66537143 14.2482286,4.50095238 14.2482286,3.15139048 C14.2482286,1.32281905 15.7798095,0.00937142857 18.0915048,0.00937142857 C19.1740952,0.00937142857 19.8697905,0.172495238 20.3055238,0.28952381 C20.4556952,0.323047619 20.5365333,0.37447619 20.5365333,0.490361905 C20.5365333,0.705980952 20.4694857,1.1895619 20.4694857,2.4872381 C20.4694857,2.85287619 20.4202667,2.98765714 20.288,2.98765714 C20.1728,2.98765714 20.1222095,2.88533333 20.1222095,2.68662857 C20.1222095,2.53714286 20.039619,2.02041905 19.6881524,1.5872 C19.4400762,1.27344762 18.9579429,0.773638095 17.8769524,0.773638095 C16.6432,0.773638095 15.8952381,1.48906667 15.8952381,2.4872381 C15.8952381,3.25158095 16.2781714,3.83580952 17.6613333,4.88281905 L18.1271619,5.23314286 C20.1389714,6.74689524 20.8555429,7.89569524 20.8555429,9.47619048 C20.8555429,10.4408381 20.4878476,11.5883429 19.2905143,12.3705143 C18.4576762,12.9033143 17.527619,13.0509714 16.6432,13.0509714 C15.6786286,13.0509714 14.9306667,12.9364571 14.2137143,12.621181" id="Fill-3" fill="#FFFFFF" mask="url(#mask-2)"></path>
            </g>
            <path d="M22.6784762,1.87154286 C22.4760381,1.25561905 22.2930286,0.856457143 22.0640762,0.689752381 C21.8770286,0.5728 21.5475048,0.53912381 21.3976381,0.53912381 C21.2302476,0.53912381 21.1316571,0.524419048 21.1316571,0.389104762 C21.1316571,0.274742857 21.262781,0.240761905 21.4966857,0.240761905 C22.3626667,0.240761905 23.2753524,0.28952381 23.4275048,0.28952381 C23.576381,0.28952381 24.3077333,0.240761905 25.2739048,0.240761905 C25.505219,0.240761905 25.6221714,0.28952381 25.6221714,0.389104762 C25.6221714,0.524495238 25.489981,0.53912381 25.3241905,0.53912381 C25.190019,0.53912381 25.023619,0.53912381 24.9062095,0.607314286 C24.7551238,0.673980952 24.725181,0.789409524 24.725181,0.971885714 C24.725181,1.18902857 24.8892952,1.75504762 25.0912762,2.50514286 C25.3730286,3.60289524 26.9203048,8.64411429 27.2219429,9.57569524 L27.2722286,9.57569524 L30.4986667,0.905828571 C30.6665143,0.440533333 30.7814095,0.307809524 30.9136762,0.307809524 C31.0982095,0.307809524 31.1795048,0.556038095 31.3961905,1.08990476 L34.8585905,9.45980952 L34.9069714,9.45980952 C35.2083048,8.34514286 36.5391238,3.95230476 37.1222857,2.00579048 C37.2384,1.62179048 37.2882286,1.27192381 37.2882286,1.03847619 C37.2882286,0.773104762 37.1370667,0.53912381 36.4876952,0.53912381 C36.3235048,0.53912381 36.2067048,0.489828571 36.2067048,0.389104762 C36.2067048,0.274742857 36.3398095,0.240761905 36.5880381,0.240761905 C37.4723048,0.240761905 38.1695238,0.28952381 38.3184762,0.28952381 C38.4342857,0.28952381 39.1492571,0.240761905 39.6985905,0.240761905 C39.8825905,0.240761905 40,0.274742857 40,0.374019048 C40,0.489828571 39.9141333,0.53912381 39.7680762,0.53912381 C39.6003048,0.53912381 39.3658667,0.556038095 39.1864381,0.621561905 C38.7842286,0.773104762 38.601219,1.43977143 38.2533333,2.38712381 C37.4870857,4.48365714 35.740419,9.7751619 34.9253333,12.2703238 C34.7411048,12.8535619 34.6592762,13.0509714 34.4422095,13.0509714 C34.2759619,13.0509714 34.1766095,12.8535619 33.9270095,12.238781 L30.4656,3.89980952 L30.4315429,3.89980952 C30.1167238,4.75009524 27.9028571,10.6406095 27.1898667,12.1706667 C26.8705524,12.8535619 26.7871238,13.0509714 26.5878095,13.0509714 C26.4204952,13.0509714 26.3544381,12.8713905 26.2048,12.4375619 L22.6784762,1.87154286" id="Fill-5" fill="#FFFFFF"></path>
        </g>
    </g>
</svg>