<?xml version="1.0" encoding="UTF-8"?>
<svg width="120px" height="73px" viewBox="0 0 120 73" version="1.1" xmlns="http://www.w3.org/2000/svg" xmlns:xlink="http://www.w3.org/1999/xlink">
    <!-- Generator: Sketch 52.5 (67469) - http://www.bohemiancoding.com/sketch -->
    <title>logo-box</title>
    <desc>Created with Sketch.</desc>
    <defs>
        <polygon id="path-1" points="0.00902857143 0.0185085714 41.1896971 0.0185085714 41.1896971 25.7756686 0.00902857143 25.7756686"></polygon>
    </defs>
    <g id="Symbols" stroke="none" stroke-width="1" fill="none" fill-rule="evenodd">
        <g id="Brand/Card/Small/DSW">
            <g id="Mask"></g>
            <g id="DSW_logo" transform="translate(21.000000, 23.000000)">
                <g id="Group-4">
                    <mask id="mask-2" fill="white">
                        <use xlink:href="#path-1"></use>
                    </mask>
                    <g id="Clip-2"></g>
                    <path d="M3.31634476,10.0050114 C3.31634476,5.01085714 3.31634476,4.08994286 3.24998476,3.03946857 C3.18377524,1.92052762 2.92254857,1.39626857 1.83490667,1.1654381 C1.57578667,1.10013143 1.01556381,1.06687619 0.553451429,1.06687619 C0.191104762,1.06687619 0,1.00247238 0,0.769535238 C0,0.54156381 0.227068571,0.475504762 0.720179048,0.475504762 C2.46359619,0.475504762 4.53234286,0.571809524 5.45340762,0.571809524 C6.47363619,0.571809524 8.54253333,0.475504762 10.5109124,0.475504762 C14.618461,0.475504762 20.1100895,0.475504762 23.693379,4.22040571 C25.330259,5.92861143 26.8788095,8.65644381 26.8788095,12.5700286 C26.8788095,16.7117352 25.1385524,19.8631581 23.2946171,21.7362857 C21.7871467,23.2846857 18.365619,25.6179695 12.2875848,25.6179695 C11.1096571,25.6179695 9.75777905,25.5183543 8.5104819,25.4209962 C7.2610781,25.3236381 6.1152019,25.2220667 5.28472381,25.2220667 C4.92598857,25.2220667 4.20009143,25.2220667 3.41565905,25.2521619 C2.65936571,25.2521619 1.80586476,25.3236381 1.14903619,25.3236381 C0.720179048,25.3236381 0.488144762,25.2220667 0.488144762,24.9912362 C0.488144762,24.8273676 0.621617143,24.7291067 1.01556381,24.7291067 C1.51258667,24.7291067 1.90623238,24.6636495 2.19740381,24.5962362 C2.85829524,24.4659238 3.02186286,23.7416819 3.15067048,22.7918762 C3.31634476,21.408699 3.31634476,18.8137371 3.31634476,15.7896171 L3.31634476,10.0050114 Z M7.42374286,13.6186971 C7.42374286,17.1044781 7.45489143,19.6311238 7.49205905,20.2599638 C7.52516381,21.0824667 7.58851429,22.3931143 7.85169714,22.7565143 C8.27754476,23.3823448 9.56291238,24.0712248 12.1569714,24.0712248 C15.5103333,24.0712248 17.7418952,23.4172552 19.7143371,21.7051371 C21.8193486,19.898219 22.4751238,16.9075048 22.4751238,13.5231448 C22.4751238,9.34923619 20.7345657,6.65285333 19.320541,5.30609143 C16.299581,2.41273524 12.5497143,2.01908952 9.98876,2.01908952 C9.32982476,2.01908952 8.11081714,2.11945714 7.85169714,2.25082286 C7.55631238,2.38158667 7.45489143,2.54620762 7.45489143,2.90870476 C7.42374286,4.02553905 7.42374286,6.88669333 7.42374286,9.48180571 L7.42374286,13.6186971 Z" id="Fill-1" fill="#FFFFFF" mask="url(#mask-2)"></path>
                    <path d="M28.0720857,24.9268324 C27.5487295,24.6970552 27.4515219,24.528221 27.4515219,23.8099981 C27.4515219,22.0012743 27.5819848,20.030939 27.6170457,19.5036705 C27.6442819,19.0116133 27.7446495,18.6488152 28.0097886,18.6488152 C28.3060762,18.6488152 28.3411371,18.9432971 28.3411371,19.2073829 C28.3411371,19.6303714 28.4696438,20.3261733 28.6344152,20.8866971 C29.3554971,23.3159848 31.2918248,24.2048476 33.3343886,24.2048476 C36.2910952,24.2048476 37.7362686,22.1982476 37.7362686,20.4576895 C37.7362686,18.8480457 37.2433086,17.3344057 34.51352,15.196139 L33.00304,14.014299 C29.3886019,11.1891086 28.1402514,8.88938095 28.1402514,6.22399619 C28.1402514,2.61256762 31.1651238,0.0185085714 35.7307219,0.0185085714 C37.8688381,0.0185085714 39.2428362,0.340678095 40.1034095,0.571809524 C40.3999981,0.638019048 40.5596533,0.739590476 40.5596533,0.968464762 C40.5596533,1.39431238 40.4272343,2.34938476 40.4272343,4.91229524 C40.4272343,5.63443048 40.3300267,5.90062286 40.0688,5.90062286 C39.84128,5.90062286 39.7413638,5.69853333 39.7413638,5.30609143 C39.7413638,5.01085714 39.5782476,3.99032762 38.884101,3.13472 C38.3941505,2.51505905 37.4419371,1.52793524 35.306981,1.52793524 C32.87032,1.52793524 31.3930952,2.94090667 31.3930952,4.91229524 C31.3930952,6.42187238 32.1493886,7.57572381 34.8811333,9.64356762 L35.8011448,10.3354571 C39.7744686,13.3251181 41.1896971,15.5939981 41.1896971,18.7154762 C41.1896971,20.6206552 40.463499,22.8869771 38.0987657,24.4317657 C36.4539105,25.4840457 34.6170476,25.7756686 32.87032,25.7756686 C30.9652914,25.7756686 29.4880667,25.5495029 28.0720857,24.9268324" id="Fill-3" fill="#FFFFFF" mask="url(#mask-2)"></path>
                </g>
                <path d="M44.7899905,3.69629714 C44.3901752,2.47984762 44.0287314,1.69150286 43.5765505,1.36226095 C43.2071314,1.13128 42.5563219,1.06476952 42.2603352,1.06476952 C41.929739,1.06476952 41.7350229,1.03572762 41.7350229,0.768481905 C41.7350229,0.542617143 41.9939924,0.475504762 42.4559543,0.475504762 C44.1662667,0.475504762 45.968821,0.571809524 46.2693219,0.571809524 C46.5633524,0.571809524 48.0077733,0.475504762 49.9159619,0.475504762 C50.3728076,0.475504762 50.6037886,0.571809524 50.6037886,0.768481905 C50.6037886,1.0358781 50.3427124,1.06476952 50.0152762,1.06476952 C49.7502876,1.06476952 49.4216476,1.06476952 49.1897638,1.19944571 C48.8913695,1.33111238 48.8322324,1.55908381 48.8322324,1.91947429 C48.8322324,2.34833143 49.1563581,3.46621905 49.5552705,4.94765714 C50.1117314,7.1157181 53.1676019,17.0721257 53.7633371,18.9119981 L53.8626514,18.9119981 L60.2348667,1.78901143 C60.5663657,0.870053333 60.7932838,0.60792381 61.0545105,0.60792381 C61.4189638,0.60792381 61.5795219,1.09817524 62.0074762,2.1525619 L68.8457162,18.6831238 L68.9412686,18.6831238 C69.5364019,16.4816571 72.1647695,7.8058019 73.3165143,3.96143619 C73.54584,3.20303619 73.6442514,2.51204952 73.6442514,2.05099048 C73.6442514,1.5268819 73.3457067,1.06476952 72.0631981,1.06476952 C71.7389219,1.06476952 71.5082419,0.967411429 71.5082419,0.768481905 C71.5082419,0.542617143 71.7711238,0.475504762 72.2613752,0.475504762 C74.0078019,0.475504762 75.3848095,0.571809524 75.6789905,0.571809524 C75.9077143,0.571809524 77.3197829,0.475504762 78.4047162,0.475504762 C78.7681162,0.475504762 79,0.542617143 79,0.738687619 C79,0.967411429 78.8304133,1.06476952 78.5419505,1.06476952 C78.2106019,1.06476952 77.7475867,1.09817524 77.3932152,1.22758476 C76.5988514,1.5268819 76.2374076,2.84354857 75.5503333,4.71456952 C74.0369943,8.85522286 70.5873276,19.3059448 68.9775333,24.2338895 C68.6136819,25.3857848 68.4520705,25.7756686 68.0233638,25.7756686 C67.6950248,25.7756686 67.4988038,25.3857848 67.0058438,24.1715924 L60.16956,7.70212381 L60.1022971,7.70212381 C59.4805295,9.3814381 55.1081429,21.0152038 53.6999867,24.0370667 C53.069341,25.3857848 52.9045695,25.7756686 52.5109238,25.7756686 C52.1804781,25.7756686 52.0500152,25.4209962 51.75448,24.5641848 L44.7899905,3.69629714" id="Fill-5" fill="#FFFFFF"></path>
            </g>
        </g>
    </g>
</svg>