<?xml version="1.0" encoding="UTF-8" standalone="no"?>
<svg
   xmlns:dc="http://purl.org/dc/elements/1.1/"
   xmlns:cc="http://creativecommons.org/ns#"
   xmlns:rdf="http://www.w3.org/1999/02/22-rdf-syntax-ns#"
   xmlns:svg="http://www.w3.org/2000/svg"
   xmlns="http://www.w3.org/2000/svg"
   xmlns:xlink="http://www.w3.org/1999/xlink"
   xmlns:sodipodi="http://sodipodi.sourceforge.net/DTD/sodipodi-0.dtd"
   xmlns:inkscape="http://www.inkscape.org/namespaces/inkscape"
   width="247px"
   height="248px"
   viewBox="0 0 247 248"
   version="1.1"
   id="svg2"
   inkscape:version="0.91 r13725"
   sodipodi:docname="push-notifications.svg">
  <metadata
     id="metadata47">
    <rdf:RDF>
      <cc:Work
         rdf:about="">
        <dc:format>image/svg+xml</dc:format>
        <dc:type
           rdf:resource="http://purl.org/dc/dcmitype/StillImage" />
      </cc:Work>
    </rdf:RDF>
  </metadata>
  <sodipodi:namedview
     pagecolor="#ffffff"
     bordercolor="#666666"
     borderopacity="1"
     objecttolerance="10"
     gridtolerance="10"
     guidetolerance="10"
     inkscape:pageopacity="0"
     inkscape:pageshadow="2"
     inkscape:window-width="733"
     inkscape:window-height="480"
     id="namedview45"
     showgrid="false"
     inkscape:zoom="0.9516129"
     inkscape:cx="293.21186"
     inkscape:cy="124"
     inkscape:window-x="0"
     inkscape:window-y="0"
     inkscape:window-maximized="0"
     inkscape:current-layer="svg2" />
  <!-- Generator: Sketch 42 (36781) - http://www.bohemiancoding.com/sketch -->
  <title
     id="title4">push-notifications</title>
  <desc
     id="desc6">Created with Sketch.</desc>
  <defs
     id="defs8">
    <linearGradient
       x1="123.5"
       y1="1.4210855e-14"
       x2="123.5"
       y2="220.98438"
       id="linearGradient-1"
       gradientUnits="userSpaceOnUse"
       gradientTransform="translate(0,1)">
      <stop
         stop-color="#192C3A"
         offset="0%"
         id="stop11" />
      <stop
         stop-color="#192C3A"
         offset="100%"
         id="stop13" />
    </linearGradient>
    <rect
       id="path-2"
       x="0"
       y="0"
       width="122"
       height="34" />
  </defs>
  <g
     id="g3473">
    <path
       d="M 123.5,248 C 191.70717,248 247,192.70717 247,124.5 247,56.292833 191.70717,1 123.5,1 55.292833,1 0,56.292833 0,124.5 0,192.70717 55.292833,248 123.5,248 Z"
       id="Oval-2"
       style="opacity:0.3;fill:url(#linearGradient-1);fill-rule:nonzero;stroke:none;stroke-width:1"
       inkscape:connector-curvature="0" />
    <rect
       style="fill:#192c3a;fill-opacity:0.65;fill-rule:nonzero;stroke:#707d89;stroke-width:2"
       rx="8"
       height="220.46484"
       width="122.16932"
       y="1"
       x="62"
       id="Combined-Shape" />
    <path
       style="fill:none;fill-rule:evenodd;stroke:#707d89;stroke-width:2;stroke-linecap:square"
       inkscape:connector-curvature="0"
       id="Line"
       d="m 62.636299,188 120.896721,0" />
    <ellipse
       id="ellipse27"
       cx="169"
       cy="58.488438"
       rx="47"
       ry="44.488438"
       style="opacity:0.9456157;fill:#192c3a;fill-opacity:0.41907271;fill-rule:nonzero;stroke:#707d89;stroke-width:2" />
  </g>
  <g
     style="fill:none;fill-rule:evenodd;stroke:none;stroke-width:1"
     transform="translate(62,34)"
     id="Group-3">
    <path
       style="stroke:#12e5b6;stroke-width:3;stroke-linecap:square"
       inkscape:connector-curvature="0"
       id="path30"
       d="m 12.710549,19.5 37.780621,0" />
    <path
       style="stroke:#12e5b6;stroke-width:3;stroke-linecap:square"
       inkscape:connector-curvature="0"
       id="path32"
       d="m 21.96,10.416667 21.042641,0" />
    <g
       id="Rectangle-3">
      <g
         id="path-2-Clipped">
        <mask
           fill="white"
           id="mask-3">
          <use
             height="100%"
             width="100%"
             y="0"
             x="0"
             id="use37"
             xlink:href="#path-2" />
        </mask>
        <g
           id="g39" />
        <rect
           style="stroke:#707d89;stroke-width:2"
           height="34"
           width="122"
           y="0"
           x="0"
           mask="url(#mask-3)"
           id="rect41" />
      </g>
    </g>
  </g>
  <g
     style="opacity:0.90000006;fill:#ffffff;fill-rule:nonzero;stroke:none;stroke-width:1"
     transform="translate(144.64241,29)"
     id="android-notifications-none">
    <path
       inkscape:connector-curvature="0"
       id="Shape"
       d="m 24.521884,9.5815024 c 0.981291,0 3.312671,0.5921756 3.312671,0.5921756 6.315978,1.381214 10.761643,6.933041 10.761643,13.201322 l 0,15.125 0,1.746779 1.291347,1.238029 1.078963,1.034291 -33.1663323,0 1.0789629,-1.034291 1.2913474,-1.238029 0,-1.746779 0,-15.125 c 0,-6.268149 4.445665,-11.820108 10.761643,-13.201322 0,0 2.499708,-0.5921756 3.312671,-0.5921756 l 0.277084,0 z M 24.383342,0 c -2.438611,0 -4.302967,1.7872356 -4.302967,4.125 l 0,1.9248678 C 11.904336,7.8377644 5.737151,14.9875 5.737151,23.375 l 0,15.125 L 0,44 l 0,2.75 48.766684,0 0,-2.75 -5.737151,-5.5 0,-15.125 c 0,-8.3875 -6.167323,-15.5372356 -14.343224,-17.3251322 l 0,-1.9248678 C 28.686309,1.7872356 26.821953,0 24.383342,0 l 0,0 0,0 z m 5.737151,49.5 -11.474441,0 c 0,3.025132 2.581448,5.5 5.73729,5.5 3.155842,0 5.737151,-2.474868 5.737151,-5.5 l 0,0 0,0 z" />
  </g>
</svg>
