<?xml version="1.0" encoding="utf-8"?>
<!-- Generator: Adobe Illustrator 21.1.0, SVG Export Plug-In . SVG Version: 6.00 Build 0)  -->
<svg version="1.1" id="Layer_1" xmlns="http://www.w3.org/2000/svg" xmlns:xlink="http://www.w3.org/1999/xlink" x="0px" y="0px"
	 viewBox="0 0 247 247" style="enable-background:new 0 0 247 247;" xml:space="preserve">
<style type="text/css">
	.st0{opacity:0.3;fill:#523971;enable-background:new    ;}
	.st1{fill:#523971;stroke:#7D5AB5;stroke-width:2;}
	.st2{fill:none;stroke:#7D5AB5;stroke-width:2;stroke-linecap:square;}
	.st3{fill:none;stroke:#7D5AB5;stroke-width:2;}
	.st4{fill:#F9F9F9;stroke:#7D5AB5;stroke-width:2;}
	.st5{opacity:0.3;}
	.st6{fill:url(#SVGID_1_);}
</style>
<title>bg-3</title>
<desc>Created with Sketch.</desc>
<g id="Onboarding">
	<g id="_x30_.2.3---Tour-3" transform="translate(-64.000000, -210.000000)">
		<g id="bg-3" transform="translate(64.000000, 210.000000)">
			<path id="Oval-2" class="st0" d="M123.5,247c68.2,0,123.5-55.3,123.5-123.5S191.7,0,123.5,0S0,55.3,0,123.5S55.3,247,123.5,247z"
				/>
			<path id="Combined-Shape" class="st1" d="M70.8,24h83.8c4.4,0,8,3.6,8,8v167.9c0,4.4-3.6,8-8,8H70.8c-4.4,0-8-3.6-8-8V32
				C62.8,27.6,66.4,24,70.8,24z"/>
			<path id="Line" class="st2" d="M63.5,180.6h98.8"/>
			<path id="Line_1_" class="st2" d="M104.1,194.3h18.7"/>
			<g id="Group-3" transform="translate(125.000000, 122.000000)">
				<path id="Rectangle-path" class="st1" d="M4,37.6h66.8c2.2,0,4,1.8,4,4v57.7c0,2.2-1.8,4-4,4H4c-2.2,0-4-1.8-4-4V41.6
					C0,39.4,1.8,37.6,4,37.6z"/>
				<path id="Shape_6_" class="st3" d="M18.7,37.6V18.9c0-10.3,8.4-18.8,18.7-18.8l0,0c10.3,0,18.7,8.4,18.7,18.8v18.8"/>
				<path id="Shape_7_" class="st4" d="M36.6,65.8v9.4"/>
			</g>
		</g>
	</g>
</g>
<polygon class="st5" points="161.5,112.7 161.6,158.6 131.1,158.6 87.9,115.4 104.8,96.4 120.8,111.4 137.5,88.7 "/>
<linearGradient id="SVGID_1_" gradientUnits="userSpaceOnUse" x1="88.4252" y1="102.0332" x2="136.3356" y2="102.0332">
	<stop  offset="0" style="stop-color:#C727B5"/>
	<stop  offset="1" style="stop-color:#44B4EA"/>
</linearGradient>
<polygon class="st6" points="126.7,88.7 119.1,104.9 109.8,88.8 99,88.8 87.9,115.4 98.6,115.4 105.2,99.7 114.1,115.4 124.4,115.4 
	124.8,115.4 137.5,88.7 "/>
</svg>
