<?xml version="1.0" encoding="UTF-8"?>
<svg width="84px" height="84px" viewBox="0 0 84 84" version="1.1" xmlns="http://www.w3.org/2000/svg" xmlns:xlink="http://www.w3.org/1999/xlink">
    <!-- Generator: Sketch 50.2 (55047) - http://www.bohemiancoding.com/sketch -->
    <title>Group</title>
    <desc>Created with Sketch.</desc>
    <defs></defs>
    <g id="Page-1" stroke="none" stroke-width="1" fill="none" fill-rule="evenodd">
        <g id="Artboard" transform="translate(-176.000000, -144.000000)">
            <g id="Group" transform="translate(176.000000, 144.000000)">
                <circle id="Oval" fill="#2C3D51" cx="42" cy="42" r="42"></circle>
                <g id="app-icon" transform="translate(24.000000, 17.000000)" fill="#FFFFFF" fill-rule="nonzero">
                    <path d="M34.3714807,24.9949599 C34.126989,23.3646632 33.7749196,21.818689 33.0471156,23.107304 C31.213328,25.874385 30.9849084,26.9936543 27.7700252,29.9888771 C24.5551419,32.9840998 20.5871375,35.4351832 16.9647237,35.8036553 C11.1546614,36.394583 7.79808976,34.4241466 7.11163243,28.4371543 C6.6680024,24.569235 7.40258211,20.0389499 9.10644002,16.0716118 C10.8104674,12.1042738 13.2953072,9.05295272 16.5040843,6.34470713 C19.7130309,3.6366211 22.7129559,2.61254552 26.3712938,2.2405627 C29.132713,1.95954092 30.5087492,3.31196573 30.5087492,5.1190538 C30.5087492,6.8239406 28.9636566,10.2268285 24.1076513,9.67163563 C23.6661963,10.2268285 23.1676733,12.0868332 24.8801977,12.7807159 C25.1009252,12.8917545 25.9838351,13.2248702 27.418564,12.8917545 C28.9636566,12.7807159 33.47155,10.4827153 34.0403894,6.56255536 C34.4120048,4.00156541 32.5205167,1.8914527 30.9849084,1.15972576 C29.4493003,0.427998808 27.4584415,-0.211231995 24.0691748,0.0661475837 C20.6799083,0.343527163 17.4864386,1.34501775 14.2900316,3.37137462 C11.0936247,5.39789109 8.51521573,7.82926401 6.55463532,10.665653 C4.59405491,13.5022015 3.12472105,16.5098207 2.1468032,19.6886701 C1.16888535,22.8675193 0.839975537,25.8527972 1.16007376,28.6445037 C2.00463147,36.0104337 6.64105676,39.2647647 15.0693496,38.4076563 C18.691594,38.0393439 23.1143776,36.3208935 24.5491064,35.5436235 C31.509101,31.998411 34.4922766,25.8004403 34.3714807,24.9949599 Z" id="Fill-1"></path>
                    <path d="M35.4166667,35.4166667 C23.323789,37.5328301 11.7343876,40.4136863 3.57218395,43.6507596 C0.169272494,45.0002194 -0.649644814,47.5891754 0.471266501,50 C14.3215045,43.9097543 21.2047918,42.1408923 31.350971,39.6369637 C33.1495947,39.1931061 34.5656361,37.9221064 35.12065,36.286549 C35.220431,35.9926988 35.3199004,35.7002473 35.4166667,35.4166667" id="Fill-3"></path>
                </g>
            </g>
        </g>
    </g>
</svg>