<?xml version="1.0" encoding="UTF-8"?>
<svg width="51px" height="51px" viewBox="0 0 51 51" version="1.1" xmlns="http://www.w3.org/2000/svg" xmlns:xlink="http://www.w3.org/1999/xlink">
    <!-- Generator: Sketch 42 (36781) - http://www.bohemiancoding.com/sketch -->
    <title>icon-bitcoin</title>
    <desc>Created with Sketch.</desc>
    <defs></defs>
    <g id="Page-1" stroke="none" stroke-width="1" fill="none" fill-rule="evenodd">
        <g id="icon-bitcoin" fill-rule="nonzero">
            <path d="M25.5,51 C39.6,51 51,39.6 51,25.5 C51,11.4 39.5,0 25.5,0 C11.5,0 0,11.4 0,25.5 C0,39.6 11.4,51 25.5,51 Z" id="coin" fill="#FF9900"></path>
            <path d="M33.5,19.1 C32.9,16.1 30.2,15.3 27,15.2 L26.5,11 L24,11.2 L24.5,15.4 C23.8,15.5 23.2,15.5 22.5,15.6 L22,11.4 L19.5,11.6 L20,15.9 C19.5,15.9 18.9,16 18.4,16.1 L18.4,16.1 L15,16.4 L15.3,19.2 C15.3,19.2 17.1,19 17.1,19.1 C18.1,19 18.5,19.6 18.6,20.1 L19.1,25 L19.4,25 L19.1,25 L19.9,31.8 C19.9,32.1 19.7,32.7 19.1,32.7 L17.3,32.9 L17.2,36 L20.4,35.7 C21,35.7 21.6,35.6 22.2,35.6 L22.7,39.9 L25.2,39.7 L24.7,35.4 C25.4,35.4 26.1,35.3 26.7,35.3 L27.2,39.5 L29.7,39.3 L29.2,35 C33.4,34.4 36.2,33 36.1,28.9 C36,25.6 34.4,24.2 31.9,23.8 C33.2,22.8 34,21.4 33.5,19.1 L33.5,19.1 Z M31,28.7 C31.4,31.9 26,32 24.3,32.2 L23.7,26.5 C25.5,26.3 30.7,25.3 31,28.7 L31,28.7 Z M23.5,23.8 L23,18.6 C24.4,18.5 28.8,17.6 29.1,20.7 C29.3,23.6 24.9,23.7 23.5,23.8 Z" id="BitPay-Bitcoin_Symbol" fill="#FFFFFF"></path>
        </g>
    </g>
</svg>