<?xml version="1.0" encoding="UTF-8" standalone="no"?><!DOCTYPE svg PUBLIC "-//W3C//DTD SVG 1.1//EN" "http://www.w3.org/Graphics/SVG/1.1/DTD/svg11.dtd"><svg width="100%" height="100%" viewBox="0 0 24 36" version="1.1" xmlns="http://www.w3.org/2000/svg" xmlns:xlink="http://www.w3.org/1999/xlink" xml:space="preserve" xmlns:serif="http://www.serif.com/" style="fill-rule:evenodd;clip-rule:evenodd;stroke-linejoin:round;stroke-miterlimit:2;"><g id="app-icon"><path id="Fill-1" d="M22.564,17.996c-0.161,-1.173 -0.392,-2.287 -0.87,-1.359c-1.203,1.993 -1.353,2.798 -3.464,4.955c-2.11,2.157 -4.715,3.921 -7.093,4.187c-3.814,0.425 -6.018,-0.994 -6.468,-5.304c-0.292,-2.785 0.191,-6.047 1.309,-8.903c1.119,-2.857 2.75,-5.054 4.856,-7.004c2.107,-1.95 4.076,-2.687 6.478,-2.955c1.813,-0.202 2.716,0.772 2.716,2.073c0,1.227 -1.014,3.677 -4.202,3.278c-0.29,0.399 -0.617,1.739 0.507,2.238c0.145,0.08 0.725,0.32 1.666,0.08c1.015,-0.08 3.974,-1.734 4.348,-4.557c0.243,-1.844 -0.998,-3.363 -2.006,-3.89c-1.008,-0.527 -2.315,-0.987 -4.54,-0.787c-2.225,0.199 -4.322,0.92 -6.42,2.379c-2.098,1.459 -3.791,3.21 -5.078,5.252c-1.287,2.043 -2.252,4.208 -2.894,6.497c-0.642,2.289 -0.858,4.438 -0.647,6.448c0.554,5.304 3.598,7.647 9.131,7.03c2.377,-0.266 5.281,-1.503 6.223,-2.063c4.569,-2.552 6.527,-7.015 6.448,-7.595Z" style="fill:#fff;fill-rule:nonzero;"/><path id="Fill-3" d="M23.25,25.5c-7.939,1.524 -15.547,3.598 -20.905,5.929c-2.234,0.971 -2.771,2.835 -2.036,4.571c9.093,-4.385 13.611,-5.659 20.272,-7.461c1.181,-0.32 2.11,-1.235 2.475,-2.413c0.065,-0.211 0.13,-0.422 0.194,-0.626" style="fill:#fff;fill-rule:nonzero;"/></g></svg>