<?xml version="1.0" encoding="UTF-8" standalone="no"?>
<svg width="97px" height="24px" viewBox="0 0 97 24" version="1.1" xmlns="http://www.w3.org/2000/svg" xmlns:xlink="http://www.w3.org/1999/xlink">
    <!-- Generator: Sketch 43.2 (39069) - http://www.bohemiancoding.com/sketch -->
    <title>24px</title>
    <desc>Created with Sketch.</desc>
    <defs></defs>
    <g id="Page-1" stroke="none" stroke-width="1" fill="none" fill-rule="evenodd">
        <g id="24px">
            <path d="M35.2768517,24 L1.5231483,24 C0.6817317,24 0,23.3052368 0,22.4477363 L0,1.55226372 C0,0.694763196 0.6817317,0 1.5231483,0 L35.2768517,0 C36.1182683,0 36.8,0.694763196 36.8,1.55226372 L36.8,22.4477363 C36.8,23.3052368 36.1182683,24 35.2768517,24" id="Fill-1405-Copy" fill="#FFD300"></path>
            <polygon id="Fill-1407-Copy-2" fill="#FFFFFF" points="13 24 14 24 14 19 13 19"></polygon>
            <polygon id="Fill-1409-Copy-3" fill="#FFFFFF" points="21 12 37 12 37 11 21 11"></polygon>
            <polygon id="Fill-1409-Copy-4" fill="#FFFFFF" points="0 12 6 12 6 11 0 11"></polygon>
            <polygon id="Fill-1410-Copy-2" fill="#FFFFFF" points="13 4 14 4 14 0 13 0"></polygon>
            <g id="Page-1-Copy" transform="translate(7.000000, 5.000000)" stroke="#FFFFFF">
                <path d="M6.53481299,6.5144013 L3.32448831,6.5144013 C1.55885195,6.5144013 0.114163636,5.06971299 0.114163636,3.30407662 L0.114163636,3.30407662 C0.114163636,1.53844026 1.55885195,0.0937519481 3.32448831,0.0937519481 L3.32448831,0.0937519481 C5.09012468,0.0937519481 6.53481299,1.53844026 6.53481299,3.30407662 L6.53481299,6.5144013 L6.53481299,6.5144013 Z" id="Stroke-1"></path>
                <path d="M6.48250909,6.50511558 L6.48250909,3.29479091 C6.48250909,1.52915455 7.9271974,0.0844662338 9.69283377,0.0844662338 L9.69283377,0.0844662338 C11.4584701,0.0844662338 12.9031584,1.52915455 12.9031584,3.29479091 L12.9031584,3.29479091 C12.9031584,5.06042727 11.4584701,6.50511558 9.69283377,6.50511558 L6.48250909,6.50511558 L6.48250909,6.50511558 Z" id="Stroke-3"></path>
                <path d="M6.49262208,6.5336987 L9.70294675,6.5336987 C11.4685831,6.5336987 12.9132714,7.97838701 12.9132714,9.74402338 L12.9132714,9.74402338 C12.9132714,11.5096597 11.4685831,12.9543481 9.70294675,12.9543481 L9.70294675,12.9543481 C7.93731039,12.9543481 6.49262208,11.5096597 6.49262208,9.74402338 L6.49262208,6.5336987 L6.49262208,6.5336987 Z" id="Stroke-5"></path>
                <path d="M6.5050987,6.53307403 L6.5050987,9.7433987 C6.5050987,11.5090351 5.06041039,12.9537234 3.29477403,12.9537234 L3.29477403,12.9537234 C1.52913766,12.9537234 0.0844493506,11.5090351 0.0844493506,9.7433987 L0.0844493506,9.7433987 C0.0844493506,7.97776234 1.52913766,6.53307403 3.29477403,6.53307403 L6.5050987,6.53307403 L6.5050987,6.53307403 Z" id="Stroke-7"></path>
            </g>
            <path d="M52.466,7.228 L49.793,7.228 C49.8050001,7.0479991 49.8439997,6.8785008 49.91,6.7195 C49.9760003,6.56049921 50.0659994,6.4210006 50.18,6.301 C50.2940006,6.1809994 50.4304992,6.08650035 50.5895,6.0175 C50.7485008,5.94849966 50.926999,5.914 51.125,5.914 C51.317001,5.914 51.4924992,5.94849966 51.6515,6.0175 C51.8105008,6.08650035 51.9484994,6.17949942 52.0655,6.2965 C52.1825006,6.41350059 52.2754996,6.55299919 52.3445,6.715 C52.4135003,6.87700081 52.4539999,7.0479991 52.466,7.228 L52.466,7.228 Z M53.204,8.524 L52.448,8.524 C52.3819997,8.83000153 52.245501,9.05799925 52.0385,9.208 C51.831499,9.35800075 51.5660016,9.433 51.242,9.433 C50.9899987,9.433 50.7710009,9.39100042 50.585,9.307 C50.3989991,9.22299958 50.2460006,9.11050071 50.126,8.9695 C50.0059994,8.8284993 49.9190003,8.66650092 49.865,8.4835 C49.8109997,8.30049909 49.787,8.10700102 49.793,7.903 L53.276,7.903 C53.2880001,7.62099859 53.2625003,7.32400156 53.1995,7.012 C53.1364997,6.69999844 53.0225008,6.41200132 52.8575,6.148 C52.6924992,5.88399868 52.4735014,5.66650086 52.2005,5.4955 C51.9274986,5.32449915 51.5840021,5.239 51.17,5.239 C50.8519984,5.239 50.5595013,5.2989994 50.2925,5.419 C50.0254987,5.5390006 49.794501,5.70699892 49.5995,5.923 C49.404499,6.13900108 49.2530005,6.39399853 49.145,6.688 C49.0369995,6.98200147 48.983,7.30599823 48.983,7.66 C48.9950001,8.01400177 49.0474995,8.3409985 49.1405,8.641 C49.2335005,8.9410015 49.3729991,9.19899892 49.559,9.415 C49.7450009,9.63100108 49.9744986,9.7989994 50.2475,9.919 C50.5205014,10.0390006 50.8429981,10.099 51.215,10.099 C51.7430026,10.099 52.1809983,9.96700132 52.529,9.703 C52.8770017,9.43899868 53.1019995,9.04600261 53.204,8.524 L53.204,8.524 Z M53.861,5.347 L53.861,10 L54.626,10 L54.626,7.93 C54.626,7.6299985 54.6559997,7.36450116 54.716,7.1335 C54.7760003,6.90249885 54.8719993,6.70600081 55.004,6.544 C55.1360006,6.38199919 55.3099989,6.25900042 55.526,6.175 C55.7420011,6.09099958 56.0029985,6.049 56.309,6.049 L56.309,5.239 C55.8949979,5.22699994 55.5530013,5.3109991 55.283,5.491 C55.0129986,5.6710009 54.7850009,5.94999811 54.599,6.328 L54.581,6.328 L54.581,5.347 L53.861,5.347 Z M59.702,6.841 L60.494,6.841 C60.4639998,6.56499862 60.3920005,6.32650101 60.278,6.1255 C60.1639994,5.924499 60.0185009,5.75800066 59.8415,5.626 C59.6644991,5.49399934 59.4605011,5.39650032 59.2295,5.3335 C58.9984988,5.27049969 58.7510013,5.239 58.487,5.239 C58.1209981,5.239 57.8000014,5.30349936 57.524,5.4325 C57.2479986,5.56150065 57.0185009,5.73849888 56.8355,5.9635 C56.6524991,6.18850113 56.5160004,6.45249849 56.426,6.7555 C56.3359995,7.05850152 56.291,7.38399826 56.291,7.732 C56.291,8.08000174 56.3374995,8.39949855 56.4305,8.6905 C56.5235004,8.98150146 56.6614991,9.23199895 56.8445,9.442 C57.0275009,9.65200105 57.2554986,9.81399943 57.5285,9.928 C57.8015013,10.0420006 58.1149982,10.099 58.469,10.099 C59.0630029,10.099 59.5324983,9.94300156 59.8775,9.631 C60.2225017,9.31899844 60.4369996,8.87500288 60.521,8.299 L59.738,8.299 C59.6899997,8.6590018 59.559501,8.93799901 59.3465,9.136 C59.1334989,9.33400099 58.8380019,9.433 58.46,9.433 C58.2199988,9.433 58.0130008,9.38500048 57.839,9.289 C57.6649991,9.19299952 57.5240005,9.0655008 57.416,8.9065 C57.3079994,8.74749921 57.2285002,8.56600102 57.1775,8.362 C57.1264997,8.15799898 57.101,7.94800108 57.101,7.732 C57.101,7.49799883 57.1249997,7.2715011 57.173,7.0525 C57.2210002,6.83349891 57.3004994,6.64000084 57.4115,6.472 C57.5225005,6.30399916 57.670999,6.16900051 57.857,6.067 C58.0430009,5.96499949 58.2739986,5.914 58.55,5.914 C58.8740016,5.914 59.131999,5.99499919 59.324,6.157 C59.5160009,6.31900081 59.6419997,6.54699853 59.702,6.841 L59.702,6.841 Z M65.318,9.982 C65.1859993,10.0600004 65.0030011,10.099 64.769,10.099 C64.570999,10.099 64.4135006,10.0435006 64.2965,9.9325 C64.1794994,9.82149945 64.121,9.64000126 64.121,9.388 C63.9109989,9.64000126 63.6665014,9.82149945 63.3875,9.9325 C63.1084986,10.0435006 62.8070016,10.099 62.483,10.099 C62.2729989,10.099 62.0735009,10.0750002 61.8845,10.027 C61.695499,9.97899976 61.5320007,9.90400051 61.394,9.802 C61.2559993,9.69999949 61.1465004,9.56650083 61.0655,9.4015 C60.9844996,9.23649918 60.944,9.03700117 60.944,8.803 C60.944,8.53899868 60.9889995,8.32300084 61.079,8.155 C61.1690004,7.98699916 61.2874992,7.85050053 61.4345,7.7455 C61.5815007,7.64049948 61.749499,7.56100027 61.9385,7.507 C62.1275009,7.45299973 62.320999,7.40800018 62.519,7.372 C62.729001,7.32999979 62.928499,7.29850011 63.1175,7.2775 C63.3065009,7.2564999 63.4729993,7.2265002 63.617,7.1875 C63.7610007,7.14849981 63.8749996,7.09150038 63.959,7.0165 C64.0430004,6.94149963 64.085,6.83200072 64.085,6.688 C64.085,6.51999916 64.0535003,6.38500051 63.9905,6.283 C63.9274997,6.18099949 63.8465005,6.10300027 63.7475,6.049 C63.6484995,5.99499973 63.5375006,5.95900009 63.4145,5.941 C63.2914994,5.92299991 63.1700006,5.914 63.05,5.914 C62.7259984,5.914 62.4560011,5.97549939 62.24,6.0985 C62.0239989,6.22150062 61.9070001,6.45399829 61.889,6.796 L61.124,6.796 C61.136,6.50799856 61.1959994,6.26500099 61.304,6.067 C61.4120005,5.86899901 61.5559991,5.70850062 61.736,5.5855 C61.9160009,5.46249939 62.1214988,5.37400027 62.3525,5.32 C62.5835011,5.26599973 62.8309987,5.239 63.095,5.239 C63.305001,5.239 63.5134989,5.25399985 63.7205,5.284 C63.927501,5.31400015 64.1149991,5.37549954 64.283,5.4685 C64.4510008,5.56150047 64.5859995,5.69199916 64.688,5.86 C64.7900005,6.02800084 64.841,6.24699865 64.841,6.517 L64.841,8.911 C64.841,9.0910009 64.8514999,9.22299958 64.8725,9.307 C64.8935001,9.39100042 64.9639994,9.433 65.084,9.433 C65.1500003,9.433 65.2279995,9.41800015 65.318,9.388 L65.318,9.982 Z M64.076,7.597 C63.9799995,7.66900036 63.8540008,7.72149984 63.698,7.7545 C63.5419992,7.78750017 63.3785008,7.8144999 63.2075,7.8355 C63.0364991,7.85650011 62.8640008,7.88049987 62.69,7.9075 C62.5159991,7.93450014 62.3600007,7.9779997 62.222,8.038 C62.0839993,8.0980003 61.9715004,8.18349945 61.8845,8.2945 C61.7974995,8.40550056 61.754,8.55699904 61.754,8.749 C61.754,8.87500063 61.7794997,8.98149957 61.8305,9.0685 C61.8815002,9.15550044 61.9474996,9.22599973 62.0285,9.28 C62.1095004,9.33400027 62.2039994,9.37299988 62.312,9.397 C62.4200005,9.42100012 62.5339994,9.433 62.654,9.433 C62.9060012,9.433 63.1219991,9.39850035 63.302,9.3295 C63.4820009,9.26049966 63.6289994,9.17350053 63.743,9.0685 C63.8570005,8.96349948 63.9409997,8.84950062 63.995,8.7265 C64.0490002,8.60349939 64.076,8.48800054 64.076,8.38 L64.076,7.597 Z M66.407,7.714 C66.407,7.48599886 66.4309997,7.26400108 66.479,7.048 C66.5270002,6.83199892 66.6049994,6.64000084 66.713,6.472 C66.8210005,6.30399916 66.9649991,6.16900051 67.145,6.067 C67.3250009,5.96499949 67.5439987,5.914 67.802,5.914 C68.0660013,5.914 68.290999,5.96349951 68.477,6.0625 C68.6630009,6.1615005 68.8144994,6.29199919 68.9315,6.454 C69.0485005,6.61600081 69.1339997,6.80349894 69.188,7.0165 C69.2420002,7.22950107 69.269,7.44999886 69.269,7.678 C69.269,7.89400108 69.2435002,8.10699895 69.1925,8.317 C69.1414997,8.52700105 69.0590005,8.71449918 68.945,8.8795 C68.8309994,9.04450083 68.6840009,9.17799949 68.504,9.28 C68.3239991,9.38200051 68.1050013,9.433 67.847,9.433 C67.6009987,9.433 67.3865009,9.38500048 67.2035,9.289 C67.020499,9.19299952 66.8705005,9.06400081 66.7535,8.902 C66.6364994,8.73999919 66.5495002,8.55550104 66.4925,8.3485 C66.4354997,8.14149897 66.407,7.93000108 66.407,7.714 L66.407,7.714 Z M70.007,10 L70.007,3.574 L69.242,3.574 L69.242,5.968 L69.224,5.968 C69.1399995,5.82999931 69.0365006,5.71450047 68.9135,5.6215 C68.7904993,5.52849954 68.6600007,5.45350029 68.522,5.3965 C68.3839993,5.33949972 68.2460007,5.29900012 68.108,5.275 C67.9699993,5.25099988 67.8410006,5.239 67.721,5.239 C67.3669982,5.239 67.0565013,5.30349936 66.7895,5.4325 C66.5224986,5.56150065 66.3005008,5.73549891 66.1235,5.9545 C65.9464991,6.1735011 65.8145004,6.42999853 65.7275,6.724 C65.6404995,7.01800147 65.597,7.32999835 65.597,7.66 C65.597,7.99000165 65.6419995,8.30199853 65.732,8.596 C65.8220004,8.89000147 65.9554991,9.14799889 66.1325,9.37 C66.3095008,9.59200111 66.5314986,9.76899934 66.7985,9.901 C67.0655013,10.0330007 67.3789982,10.099 67.739,10.099 C68.0630016,10.099 68.3599986,10.0420006 68.63,9.928 C68.9000013,9.81399943 69.0979993,9.62800129 69.224,9.37 L69.242,9.37 L69.242,10 L70.007,10 Z M71.564,7.678 C71.564,7.39599859 71.6014996,7.1455011 71.6765,6.9265 C71.7515003,6.70749891 71.8549993,6.52300075 71.987,6.373 C72.1190006,6.22299925 72.2734991,6.10900039 72.4505,6.031 C72.6275008,5.95299961 72.814999,5.914 73.013,5.914 C73.2110009,5.914 73.3984991,5.95299961 73.5755,6.031 C73.7525008,6.10900039 73.9069993,6.22299925 74.039,6.373 C74.1710006,6.52300075 74.2744996,6.70749891 74.3495,6.9265 C74.4245003,7.1455011 74.462,7.39599859 74.462,7.678 C74.462,7.96000141 74.4245003,8.21049891 74.3495,8.4295 C74.2744996,8.6485011 74.1710006,8.83149927 74.039,8.9785 C73.9069993,9.12550074 73.7525008,9.23799961 73.5755,9.316 C73.3984991,9.39400039 73.2110009,9.433 73.013,9.433 C72.814999,9.433 72.6275008,9.39400039 72.4505,9.316 C72.2734991,9.23799961 72.1190006,9.12550074 71.987,8.9785 C71.8549993,8.83149927 71.7515003,8.6485011 71.6765,8.4295 C71.6014996,8.21049891 71.564,7.96000141 71.564,7.678 L71.564,7.678 Z M70.754,7.678 C70.754,8.02000171 70.8019995,8.33799853 70.898,8.632 C70.9940004,8.92600147 71.137999,9.18249891 71.33,9.4015 C71.5220009,9.6205011 71.7589985,9.79149939 72.041,9.9145 C72.3230014,10.0375006 72.6469981,10.099 73.013,10.099 C73.3850018,10.099 73.7104986,10.0375006 73.9895,9.9145 C74.2685014,9.79149939 74.503999,9.6205011 74.696,9.4015 C74.8880009,9.18249891 75.0319995,8.92600147 75.128,8.632 C75.2240004,8.33799853 75.272,8.02000171 75.272,7.678 C75.272,7.33599829 75.2240004,7.01650149 75.128,6.7195 C75.0319995,6.42249852 74.8880009,6.1645011 74.696,5.9455 C74.503999,5.72649891 74.2685014,5.55400063 73.9895,5.428 C73.7104986,5.30199937 73.3850018,5.239 73.013,5.239 C72.6469981,5.239 72.3230014,5.30199937 72.041,5.428 C71.7589985,5.55400063 71.5220009,5.72649891 71.33,5.9455 C71.137999,6.1645011 70.9940004,6.42249852 70.898,6.7195 C70.8019995,7.01650149 70.754,7.33599829 70.754,7.678 L70.754,7.678 Z M78,3.574 L78,10 L82,10 L82,9.28 L78.8033827,9.28 L78.8033827,3.574 L78,3.574 Z M83.9479999,4.51 L83.9479999,3.574 L83.1829999,3.574 L83.1829999,4.51 L83.9479999,4.51 Z M83.1829999,5.347 L83.1829999,10 L83.9479999,10 L83.9479999,5.347 L83.1829999,5.347 Z M87.0529999,10 L88.7539999,5.347 L87.9529999,5.347 L86.6839999,9.226 L86.6659999,9.226 L85.3609999,5.347 L84.5059999,5.347 L86.2339999,10 L87.0529999,10 Z M89.2489999,5.347 L89.2489999,10 L90.0139999,10 L90.0139999,7.93 C90.0139999,7.6299985 90.0439996,7.36450116 90.1039999,7.1335 C90.1640002,6.90249885 90.2599993,6.70600081 90.3919999,6.544 C90.5240006,6.38199919 90.6979988,6.25900042 90.9139999,6.175 C91.130001,6.09099958 91.3909984,6.049 91.6969999,6.049 L91.6969999,5.239 C91.2829979,5.22699994 90.9410013,5.3109991 90.6709999,5.491 C90.4009986,5.6710009 90.1730009,5.94999811 89.9869999,6.328 L89.9689999,6.328 L89.9689999,5.347 L89.2489999,5.347 Z M45.231,19 L47.517,12.574 L46.626,12.574 L44.772,18.145 L44.754,18.145 L42.918,12.574 L42,12.574 L44.259,19 L45.231,19 Z M51.522,18.982 C51.3899993,19.0600004 51.2070012,19.099 50.973,19.099 C50.774999,19.099 50.6175006,19.0435006 50.5005,18.9325 C50.3834994,18.8214994 50.325,18.6400013 50.325,18.388 C50.1149989,18.6400013 49.8705014,18.8214994 49.5915,18.9325 C49.3124986,19.0435006 49.0110016,19.099 48.687,19.099 C48.4769989,19.099 48.2775009,19.0750002 48.0885,19.027 C47.899499,18.9789998 47.7360007,18.9040005 47.598,18.802 C47.4599993,18.6999995 47.3505004,18.5665008 47.2695,18.4015 C47.1884996,18.2364992 47.148,18.0370012 47.148,17.803 C47.148,17.5389987 47.1929995,17.3230008 47.283,17.155 C47.3730004,16.9869992 47.4914993,16.8505005 47.6385,16.7455 C47.7855007,16.6404995 47.953499,16.5610003 48.1425,16.507 C48.3315009,16.4529997 48.524999,16.4080002 48.723,16.372 C48.933001,16.3299998 49.132499,16.2985001 49.3215,16.2775 C49.5105009,16.2564999 49.6769993,16.2265002 49.821,16.1875 C49.9650007,16.1484998 50.0789996,16.0915004 50.163,16.0165 C50.2470004,15.9414996 50.289,15.8320007 50.289,15.688 C50.289,15.5199992 50.2575003,15.3850005 50.1945,15.283 C50.1314997,15.1809995 50.0505005,15.1030003 49.9515,15.049 C49.8524995,14.9949997 49.7415006,14.9590001 49.6185,14.941 C49.4954994,14.9229999 49.3740006,14.914 49.254,14.914 C48.9299984,14.914 48.6600011,14.9754994 48.444,15.0985 C48.2279989,15.2215006 48.1110001,15.4539983 48.093,15.796 L47.328,15.796 C47.3400001,15.5079986 47.3999995,15.265001 47.508,15.067 C47.6160005,14.868999 47.7599991,14.7085006 47.94,14.5855 C48.1200009,14.4624994 48.3254988,14.3740003 48.5565,14.32 C48.7875011,14.2659997 49.0349987,14.239 49.299,14.239 C49.509001,14.239 49.717499,14.2539999 49.9245,14.284 C50.131501,14.3140002 50.3189992,14.3754995 50.487,14.4685 C50.6550008,14.5615005 50.7899995,14.6919992 50.892,14.86 C50.9940005,15.0280008 51.045,15.2469987 51.045,15.517 L51.045,17.911 C51.045,18.0910009 51.0554999,18.2229996 51.0765,18.307 C51.0975001,18.3910004 51.1679994,18.433 51.288,18.433 C51.3540003,18.433 51.4319995,18.4180002 51.522,18.388 L51.522,18.982 Z M50.28,16.597 C50.1839995,16.6690004 50.0580008,16.7214998 49.902,16.7545 C49.7459992,16.7875002 49.5825008,16.8144999 49.4115,16.8355 C49.2404991,16.8565001 49.0680009,16.8804999 48.894,16.9075 C48.7199991,16.9345001 48.5640007,16.9779997 48.426,17.038 C48.2879993,17.0980003 48.1755004,17.1834994 48.0885,17.2945 C48.0014996,17.4055006 47.958,17.556999 47.958,17.749 C47.958,17.8750006 47.9834997,17.9814996 48.0345,18.0685 C48.0855002,18.1555004 48.1514996,18.2259997 48.2325,18.28 C48.3135004,18.3340003 48.4079995,18.3729999 48.516,18.397 C48.6240005,18.4210001 48.7379994,18.433 48.858,18.433 C49.1100013,18.433 49.3259991,18.3985003 49.506,18.3295 C49.6860009,18.2604997 49.8329994,18.1735005 49.947,18.0685 C50.0610006,17.9634995 50.1449997,17.8495006 50.199,17.7265 C50.2530003,17.6034994 50.28,17.4880005 50.28,17.38 L50.28,16.597 Z M52.098,12.574 L52.098,19 L52.863,19 L52.863,12.574 L52.098,12.574 Z M57.084,17.524 C57.0179996,17.8300015 56.881501,18.0579993 56.6745,18.208 C56.4674989,18.3580008 56.2020016,18.433 55.878,18.433 C55.6259987,18.433 55.4070009,18.3910004 55.221,18.307 C55.034999,18.2229996 54.8820006,18.1105007 54.762,17.9695 C54.6419994,17.8284993 54.5550002,17.6665009 54.501,17.4835 C54.4469997,17.3004991 54.4229999,17.107001 54.429,16.903 L57.912,16.903 C57.924,16.6209986 57.8985003,16.3240016 57.8355,16.012 C57.7724997,15.6999984 57.6585008,15.4120013 57.4935,15.148 C57.3284992,14.8839987 57.1095013,14.6665009 56.8365,14.4955 C56.5634986,14.3244991 56.220002,14.239 55.806,14.239 C55.4879984,14.239 55.1955013,14.2989994 54.9285,14.419 C54.6614986,14.5390006 54.430501,14.7069989 54.2355,14.923 C54.040499,15.1390011 53.8890005,15.3939985 53.781,15.688 C53.6729994,15.9820015 53.619,16.3059982 53.619,16.66 C53.631,17.0140018 53.6834995,17.3409985 53.7765,17.641 C53.8695004,17.9410015 54.008999,18.1989989 54.195,18.415 C54.3810009,18.6310011 54.6104986,18.7989994 54.8835,18.919 C55.1565013,19.0390006 55.4789981,19.099 55.851,19.099 C56.3790026,19.099 56.8169982,18.9670013 57.165,18.703 C57.5130017,18.4389987 57.7379995,18.0460026 57.84,17.524 L57.084,17.524 Z M57.102,16.228 L54.429,16.228 C54.441,16.0479991 54.4799996,15.8785008 54.546,15.7195 C54.6120003,15.5604992 54.7019994,15.4210006 54.816,15.301 C54.9300005,15.1809994 55.0664992,15.0865003 55.2255,15.0175 C55.3845008,14.9484997 55.562999,14.914 55.761,14.914 C55.9530009,14.914 56.1284992,14.9484997 56.2875,15.0175 C56.4465008,15.0865003 56.5844994,15.1794994 56.7015,15.2965 C56.8185006,15.4135006 56.9114996,15.5529992 56.9805,15.715 C57.0495003,15.8770008 57.0899999,16.0479991 57.102,16.228 L57.102,16.228 Z M58.398,16.138 L58.398,16.858 L60.999,16.858 L60.999,16.138 L58.398,16.138 Z M61.971,12.574 L61.971,19 L62.826,19 L62.826,16.372 L64.788,16.372 C65.4360032,16.378 65.9264983,16.2130017 66.2595,15.877 C66.5925016,15.5409983 66.759,15.073003 66.759,14.473 C66.759,13.872997 66.5925016,13.4065017 66.2595,13.0735 C65.9264983,12.7404983 65.4360032,12.574 64.788,12.574 L61.971,12.574 Z M62.826,15.652 L62.826,13.294 L64.5,13.294 C64.9860024,13.294 65.3414988,13.394499 65.5665,13.5955 C65.7915011,13.796501 65.904,14.0889981 65.904,14.473 C65.904,14.8570019 65.7915011,15.150999 65.5665,15.355 C65.3414988,15.559001 64.9860024,15.658 64.5,15.652 L62.826,15.652 Z M67.47,14.347 L67.47,19 L68.235,19 L68.235,16.93 C68.235,16.6299985 68.2649997,16.3645012 68.325,16.1335 C68.3850003,15.9024988 68.4809993,15.7060008 68.613,15.544 C68.7450006,15.3819992 68.9189989,15.2590004 69.135,15.175 C69.351001,15.0909996 69.6119984,15.049 69.918,15.049 L69.918,14.239 C69.5039979,14.2269999 69.1620013,14.3109991 68.892,14.491 C68.6219986,14.6710009 68.3940009,14.9499981 68.208,15.328 L68.19,15.328 L68.19,14.347 L67.47,14.347 Z M74.1209999,17.524 L73.3649999,17.524 C73.2989996,17.8300015 73.162501,18.0579993 72.9554999,18.208 C72.7484989,18.3580008 72.4830016,18.433 72.1589999,18.433 C71.9069987,18.433 71.6880009,18.3910004 71.5019999,18.307 C71.315999,18.2229996 71.1630005,18.1105007 71.0429999,17.9695 C70.9229993,17.8284993 70.8360002,17.6665009 70.7819999,17.4835 C70.7279997,17.3004991 70.7039999,17.107001 70.7099999,16.903 L74.1929999,16.903 C74.205,16.6209986 74.1795003,16.3240016 74.1164999,16.012 C74.0534996,15.6999984 73.9395008,15.4120013 73.7744999,15.148 C73.6094991,14.8839987 73.3905013,14.6665009 73.1174999,14.4955 C72.8444986,14.3244991 72.501002,14.239 72.0869999,14.239 C71.7689984,14.239 71.4765013,14.2989994 71.2094999,14.419 C70.9424986,14.5390006 70.7115009,14.7069989 70.5164999,14.923 C70.321499,15.1390011 70.1700005,15.3939985 70.0619999,15.688 C69.9539994,15.9820015 69.8999999,16.3059982 69.8999999,16.66 C69.912,17.0140018 69.9644995,17.3409985 70.0574999,17.641 C70.1505004,17.9410015 70.289999,18.1989989 70.4759999,18.415 C70.6620009,18.6310011 70.8914986,18.7989994 71.1644999,18.919 C71.4375013,19.0390006 71.7599981,19.099 72.1319999,19.099 C72.6600026,19.099 73.0979982,18.9670013 73.4459999,18.703 C73.7940017,18.4389987 74.0189994,18.0460026 74.1209999,17.524 L74.1209999,17.524 Z M73.3829999,16.228 L70.7099999,16.228 C70.722,16.0479991 70.7609996,15.8785008 70.8269999,15.7195 C70.8930003,15.5604992 70.9829994,15.4210006 71.0969999,15.301 C71.2110005,15.1809994 71.3474992,15.0865003 71.5064999,15.0175 C71.6655007,14.9484997 71.843999,14.914 72.0419999,14.914 C72.2340009,14.914 72.4094992,14.9484997 72.5684999,15.0175 C72.7275007,15.0865003 72.8654994,15.1794994 72.9824999,15.2965 C73.0995005,15.4135006 73.1924996,15.5529992 73.2614999,15.715 C73.3305003,15.8770008 73.3709999,16.0479991 73.3829999,16.228 L73.3829999,16.228 Z M75.2729999,17.533 L74.5079999,17.533 C74.52,17.8210014 74.5799994,18.065499 74.6879999,18.2665 C74.7960005,18.467501 74.939999,18.6294994 75.1199999,18.7525 C75.3000008,18.8755006 75.5069988,18.9639997 75.7409999,19.018 C75.9750011,19.0720003 76.2209987,19.099 76.4789999,19.099 C76.7130011,19.099 76.9484988,19.0765002 77.1854999,19.0315 C77.4225011,18.9864998 77.635499,18.9070006 77.8244999,18.793 C78.0135009,18.6789994 78.1664994,18.5290009 78.2834999,18.343 C78.4005005,18.1569991 78.4589999,17.9230014 78.4589999,17.641 C78.4589999,17.4189989 78.4155004,17.2330008 78.3284999,17.083 C78.2414995,16.9329993 78.1275006,16.8085005 77.9864999,16.7095 C77.8454992,16.6104995 77.6835009,16.5310003 77.5004999,16.471 C77.317499,16.4109997 77.1300009,16.3600002 76.9379999,16.318 C76.757999,16.2759998 76.5780008,16.2355002 76.3979999,16.1965 C76.217999,16.1574998 76.0560007,16.1095003 75.9119999,16.0525 C75.7679992,15.9954997 75.6495004,15.9235004 75.5564999,15.8365 C75.4634995,15.7494996 75.4169999,15.6400007 75.4169999,15.508 C75.4169999,15.3879994 75.4469996,15.2905004 75.5069999,15.2155 C75.5670002,15.1404996 75.6449995,15.0805002 75.7409999,15.0355 C75.8370004,14.9904998 75.9434994,14.9590001 76.0604999,14.941 C76.1775005,14.9229999 76.2929994,14.914 76.4069999,14.914 C76.5330006,14.914 76.6574993,14.9274999 76.7804999,14.9545 C76.9035006,14.9815001 77.0159994,15.0249997 77.1179999,15.085 C77.2200005,15.1450003 77.3039996,15.2244995 77.3699999,15.3235 C77.4360003,15.4225005 77.4749999,15.5469993 77.4869999,15.697 L78.2519999,15.697 C78.2339999,15.4149986 78.1740005,15.1795009 78.0719999,14.9905 C77.9699994,14.8014991 77.8335008,14.6515006 77.6624999,14.5405 C77.4914991,14.4294994 77.2950011,14.3515002 77.0729999,14.3065 C76.8509988,14.2614998 76.6080013,14.239 76.3439999,14.239 C76.1399989,14.239 75.934501,14.2644997 75.7274999,14.3155 C75.5204989,14.3665003 75.3345008,14.4444995 75.1694999,14.5495 C75.0044991,14.6545005 74.8695005,14.7909992 74.7644999,14.959 C74.6594994,15.1270008 74.6069999,15.3279988 74.6069999,15.562 C74.6069999,15.8620015 74.6819992,16.0959992 74.8319999,16.264 C74.9820007,16.4320008 75.1694988,16.5624995 75.3944999,16.6555 C75.6195011,16.7485005 75.8639986,16.8204997 76.1279999,16.8715 C76.3920013,16.9225003 76.6364988,16.9794997 76.8614999,17.0425 C77.0865011,17.1055003 77.2739992,17.1879995 77.4239999,17.29 C77.5740007,17.3920005 77.6489999,17.541999 77.6489999,17.74 C77.6489999,17.8840007 77.6130003,18.0024995 77.5409999,18.0955 C77.4689996,18.1885005 77.3775005,18.2589998 77.2664999,18.307 C77.1554994,18.3550002 77.0340006,18.3879999 76.9019999,18.406 C76.7699993,18.4240001 76.6440005,18.433 76.5239999,18.433 C76.3679992,18.433 76.2165007,18.4180002 76.0694999,18.388 C75.9224992,18.3579999 75.7905005,18.3085003 75.6734999,18.2395 C75.5564994,18.1704997 75.4620003,18.0775006 75.3899999,17.9605 C75.3179996,17.8434994 75.279,17.7010008 75.2729999,17.533 L75.2729999,17.533 Z M83.0939999,17.524 L82.3379999,17.524 C82.2719996,17.8300015 82.135501,18.0579993 81.9284999,18.208 C81.7214989,18.3580008 81.4560016,18.433 81.1319999,18.433 C80.8799987,18.433 80.6610009,18.3910004 80.4749999,18.307 C80.288999,18.2229996 80.1360005,18.1105007 80.0159999,17.9695 C79.8959993,17.8284993 79.8090002,17.6665009 79.7549999,17.4835 C79.7009997,17.3004991 79.6769999,17.107001 79.6829999,16.903 L83.1659999,16.903 C83.178,16.6209986 83.1525003,16.3240016 83.0894999,16.012 C83.0264996,15.6999984 82.9125008,15.4120013 82.7474999,15.148 C82.5824991,14.8839987 82.3635013,14.6665009 82.0904999,14.4955 C81.8174986,14.3244991 81.474002,14.239 81.0599999,14.239 C80.7419983,14.239 80.4495013,14.2989994 80.1824999,14.419 C79.9154986,14.5390006 79.6845009,14.7069989 79.4894999,14.923 C79.294499,15.1390011 79.1430005,15.3939985 79.0349999,15.688 C78.9269994,15.9820015 78.8729999,16.3059982 78.8729999,16.66 C78.885,17.0140018 78.9374995,17.3409985 79.0304999,17.641 C79.1235004,17.9410015 79.262999,18.1989989 79.4489999,18.415 C79.6350009,18.6310011 79.8644986,18.7989994 80.1374999,18.919 C80.4105013,19.0390006 80.7329981,19.099 81.1049999,19.099 C81.6330026,19.099 82.0709982,18.9670013 82.4189999,18.703 C82.7670017,18.4389987 82.9919994,18.0460026 83.0939999,17.524 L83.0939999,17.524 Z M82.3559999,16.228 L79.6829999,16.228 C79.695,16.0479991 79.7339996,15.8785008 79.7999999,15.7195 C79.8660003,15.5604992 79.9559994,15.4210006 80.0699999,15.301 C80.1840005,15.1809994 80.3204991,15.0865003 80.4794999,15.0175 C80.6385007,14.9484997 80.8169989,14.914 81.0149999,14.914 C81.2070009,14.914 81.3824991,14.9484997 81.5414999,15.0175 C81.7005007,15.0865003 81.8384994,15.1794994 81.9554999,15.2965 C82.0725005,15.4135006 82.1654996,15.5529992 82.2344999,15.715 C82.3035003,15.8770008 82.3439999,16.0479991 82.3559999,16.228 L82.3559999,16.228 Z M84,14.347 L84,19 L84.765,19 L84.765,16.372 C84.765,16.161999 84.7934997,15.9685009 84.8505,15.7915 C84.9075003,15.6144991 84.9929994,15.4600007 85.107,15.328 C85.2210006,15.1959993 85.3634991,15.0940004 85.5345,15.022 C85.7055009,14.9499996 85.9079988,14.914 86.142,14.914 C86.4360015,14.914 86.6669992,14.9979992 86.835,15.166 C87.0030008,15.3340008 87.087,15.5619986 87.087,15.85 L87.087,19 L87.852,19 L87.852,15.94 C87.852,15.6879987 87.8265003,15.458501 87.7755,15.2515 C87.7244997,15.044499 87.6360006,14.8660008 87.51,14.716 C87.3839994,14.5659993 87.219001,14.4490004 87.015,14.365 C86.810999,14.2809996 86.5560015,14.239 86.25,14.239 C85.5599965,14.239 85.0560016,14.5209972 84.738,15.085 L84.72,15.085 L84.72,14.347 L84,14.347 Z M89.6639999,14.347 L89.6639999,12.952 L88.8989999,12.952 L88.8989999,14.347 L88.1069999,14.347 L88.1069999,15.022 L88.8989999,15.022 L88.8989999,17.983 C88.8989999,18.1990011 88.9199997,18.3729993 88.9619999,18.505 C89.0040001,18.6370007 89.0684995,18.7389996 89.1554999,18.811 C89.2425004,18.8830004 89.3564992,18.9324999 89.4974999,18.9595 C89.6385006,18.9865001 89.8079989,19 90.0059999,19 L90.5909999,19 L90.5909999,18.325 L90.2399999,18.325 C90.1199993,18.325 90.0225003,18.3205 89.9474999,18.3115 C89.8724995,18.3025 89.8140001,18.2830002 89.7719999,18.253 C89.7299997,18.2229999 89.7015,18.1810003 89.6864999,18.127 C89.6714998,18.0729997 89.6639999,18.0010005 89.6639999,17.911 L89.6639999,15.022 L90.5909999,15.022 L90.5909999,14.347 L89.6639999,14.347 Z M94.4699999,17.524 C94.4039996,17.8300015 94.2675009,18.0579993 94.0604999,18.208 C93.8534989,18.3580008 93.5880015,18.433 93.2639999,18.433 C93.0119987,18.433 92.7930008,18.3910004 92.6069999,18.307 C92.420999,18.2229996 92.2680005,18.1105007 92.1479999,17.9695 C92.0279993,17.8284993 91.9410002,17.6665009 91.8869999,17.4835 C91.8329996,17.3004991 91.8089999,17.107001 91.8149999,16.903 L93.9570312,16.903 L95.2979999,16.903 C95.31,16.6209986 95.2845002,16.3240016 95.2214999,16.012 C95.1584996,15.6999984 95.0445007,15.4120013 94.8794999,15.148 C94.7144991,14.8839987 94.4955013,14.6665009 94.2224999,14.4955 C93.9494985,14.3244991 93.606002,14.239 93.1919999,14.239 C92.8739983,14.239 92.5815012,14.2989994 92.3144999,14.419 C92.0474986,14.5390006 91.8165009,14.7069989 91.6214999,14.923 C91.4264989,15.1390011 91.2750005,15.3939985 91.1669999,15.688 C91.0589994,15.9820015 91.0049999,16.3059982 91.0049999,16.66 C91.017,17.0140018 91.0694994,17.3409985 91.1624999,17.641 C91.2555004,17.9410015 91.394999,18.1989989 91.5809999,18.415 C91.7670008,18.6310011 91.9964985,18.7989994 92.2694999,18.919 C92.5425013,19.0390006 92.8649981,19.099 93.2369999,19.099 C93.7650026,19.099 94.2029982,18.9670013 94.5509999,18.703 C94.8990017,18.4389987 95.1239994,18.0460026 95.2259999,17.524 L94.4699999,17.524 Z M94.4879999,16.228 L91.8149999,16.228 C91.827,16.0479991 91.8659996,15.8785008 91.9319999,15.7195 C91.9980002,15.5604992 92.0879993,15.4210006 92.2019999,15.301 C92.3160005,15.1809994 92.4524991,15.0865003 92.6114999,15.0175 C92.7705007,14.9484997 92.9489989,14.914 93.1469999,14.914 C93.3390009,14.914 93.5144991,14.9484997 93.6734999,15.0175 C93.8325007,15.0865003 93.9704993,15.1794994 94.0874999,15.2965 C94.2045005,15.4135006 94.2974996,15.5529992 94.3664999,15.715 C94.4355003,15.8770008 94.4759999,16.0479991 94.4879999,16.228 L94.4879999,16.228 Z M95.4699999,8.524 C95.4039996,8.83000153 95.2675009,9.05799925 95.0604999,9.208 C94.8534989,9.35800075 94.5880015,9.433 94.2639999,9.433 C94.0119987,9.433 93.7930008,9.39100042 93.6069999,9.307 C93.420999,9.22299958 93.2680005,9.11050071 93.1479999,8.9695 C93.0279993,8.8284993 92.9410002,8.66650092 92.8869999,8.4835 C92.8329996,8.30049909 92.8089999,8.10700102 92.8149999,7.903 L94.9570312,7.903 L96.2979999,7.903 C96.31,7.62099859 96.2845002,7.32400156 96.2214999,7.012 C96.1584996,6.69999844 96.0445007,6.41200132 95.8794999,6.148 C95.7144991,5.88399868 95.4955013,5.66650086 95.2224999,5.4955 C94.9494985,5.32449915 94.606002,5.239 94.1919999,5.239 C93.8739983,5.239 93.5815012,5.2989994 93.3144999,5.419 C93.0474986,5.5390006 92.8165009,5.70699892 92.6214999,5.923 C92.4264989,6.13900108 92.2750005,6.39399853 92.1669999,6.688 C92.0589994,6.98200147 92.0049999,7.30599823 92.0049999,7.66 C92.017,8.01400177 92.0694994,8.3409985 92.1624999,8.641 C92.2555004,8.9410015 92.394999,9.19899892 92.5809999,9.415 C92.7670008,9.63100108 92.9964985,9.7989994 93.2694999,9.919 C93.5425013,10.0390006 93.8649981,10.099 94.2369999,10.099 C94.7650026,10.099 95.2029982,9.96700132 95.5509999,9.703 C95.8990017,9.43899868 96.1239994,9.04600261 96.2259999,8.524 L95.4699999,8.524 Z M95.4879999,7.228 L92.8149999,7.228 C92.827,7.0479991 92.8659996,6.87850079 92.9319999,6.7195 C92.9980002,6.5604992 93.0879993,6.4210006 93.2019999,6.301 C93.3160005,6.1809994 93.4524991,6.08650034 93.6114999,6.0175 C93.7705007,5.94849965 93.9489989,5.914 94.1469999,5.914 C94.3390009,5.914 94.5144991,5.94849965 94.6734999,6.0175 C94.8325007,6.08650034 94.9704993,6.17949941 95.0874999,6.2965 C95.2045005,6.41350058 95.2974996,6.55299919 95.3664999,6.715 C95.4355003,6.87700081 95.4759999,7.0479991 95.4879999,7.228 L95.4879999,7.228 Z" id="Mercado-Livre-Copy" fill="#0D3F90"></path>
            <polygon id="Path" fill="#0D3F90" points="42 4 42 10.426 42.7594937 10.426 42.7594937 5.08 42.7763713 5.08 44.6582278 10.426 45.3417722 10.426 47.2236287 5.08 47.2405063 5.08 47.2405063 10.426 48 10.426 48 4 46.9029536 4 44.9957806 9.4 43.0970464 4"></polygon>
        </g>
    </g>
</svg>