<?xml version="1.0" encoding="UTF-8"?>
<svg width="121px" height="19px" viewBox="0 0 121 19" version="1.1" xmlns="http://www.w3.org/2000/svg" xmlns:xlink="http://www.w3.org/1999/xlink">
    <!-- Generator: Sketch 52.1 (67048) - http://www.bohemiancoding.com/sketch -->
    <title>Logo/Delta</title>
    <desc>Created with Sketch.</desc>
    <defs>
        <polygon id="path-1" points="0 0.0952714286 23.2794444 0.0952714286 23.2794444 18.9837143 0 18.9837143"></polygon>
    </defs>
    <g id="Symbols" stroke="none" stroke-width="1" fill="none" fill-rule="evenodd">
        <g id="Card-Mini/Delta" transform="translate(-19.000000, -27.000000)">
            <g id="Logo/Delta" transform="translate(19.000000, 27.000000)">
                <g id="Delta-Logo">
                    <g id="Group-5" stroke-width="1">
                        <mask id="mask-2" fill="white">
                            <use xlink:href="#path-1"></use>
                        </mask>
                        <g id="Clip-2"></g>
                        <path d="M22.424195,16.9824714 L11.6391882,11.7042714 L11.6391882,0.0952714286 L22.424195,16.9824714 Z M23.2794444,19 L11.6391882,14.0002857 L11.6391882,19 L23.2794444,19 Z" id="Fill-1" fill="#81112C" mask="url(#mask-2)"></path>
                        <polyline id="Fill-3" fill="#D02139" mask="url(#mask-2)" points="0.852846225 16.9824714 11.6391882 0.0952714286 11.6391882 11.7042714 0.852846225 16.9824714"></polyline>
                        <polyline id="Fill-4" fill="#D02139" mask="url(#mask-2)" points="0 19 11.6391882 19 11.6391882 14.0002857 0 19"></polyline>
                    </g>
                    <path d="M24.262594,15.4714286 C24.6844778,15.4714286 25.0270582,15.8210286 25.0270582,16.2507 C25.0270582,16.6795571 24.6844778,17.0299714 24.262594,17.0299714 C23.8399091,17.0299714 23.4973287,16.6795571 23.4973287,16.2507 C23.4973287,15.8210286 23.8399091,15.4714286 24.262594,15.4714286 Z M24.262594,16.9146143 C24.6249334,16.9146143 24.917582,16.6187571 24.917582,16.2507 C24.917582,15.8815571 24.6249334,15.5843429 24.262594,15.5843429 C23.8999875,15.5843429 23.608407,15.8815571 23.608407,16.2507 C23.608407,16.6187571 23.8999875,16.9146143 24.262594,16.9146143 Z M24.0949085,16.6966571 L23.9838302,16.6966571 L23.9838302,15.7982286 L24.3242744,15.7982286 C24.5240017,15.7982286 24.6025042,15.8853571 24.6025042,16.0471286 C24.6025042,16.2118857 24.4994364,16.2816429 24.3795466,16.3028143 L24.6433575,16.6966571 L24.5178604,16.6966571 L24.2537825,16.3028143 L24.0949085,16.3028143 L24.0949085,16.6966571 Z M24.0949085,16.2021143 L24.2374945,16.2021143 C24.3592534,16.2021143 24.4908919,16.1958714 24.4908919,16.0471286 C24.4908919,15.9315 24.3880911,15.8978429 24.2933007,15.8978429 L24.0949085,15.8978429 L24.0949085,16.2021143 Z" id="Fill-6" fill="#81112C"></path>
                    <path d="M32.3088269,16.9607571 L37.5433909,16.9607571 C42.9224101,16.9607571 46.1324656,14.1305714 46.1324656,9.42888571 C46.1324656,4.72855714 42.9224101,1.9 37.5433909,1.9 L32.3088269,1.9 L32.3088269,16.9607571 Z M35.617678,4.51548571 L37.5407208,4.51548571 C41.0327443,4.51548571 42.7779549,6.26484286 42.7779549,9.42888571 C42.7779549,12.5913 41.0327443,14.3439143 37.5407208,14.3439143 L35.617678,14.3439143 L35.617678,4.51548571 Z" id="Fill-20" fill="#023461"></path>
                    <polyline id="Fill-21" fill="#023461" points="57.2480372 10.4320857 63.5397139 10.4320857 63.5397139 7.81687143 57.2480372 7.81687143 57.2480372 4.51521429 64.3605184 4.51521429 64.3605184 1.9 53.9370499 1.9 53.9370499 16.9607571 64.5922875 16.9607571 64.5922875 14.3436429 57.2480372 14.3436429 57.2480372 10.4320857"></polyline>
                    <polyline id="Fill-22" fill="#023461" points="83.6649089 14.3436429 77.2853842 14.3436429 77.2853842 1.9 73.9631823 1.9 73.9631823 16.9607571 83.6649089 16.9607571 83.6649089 14.3436429"></polyline>
                    <polyline id="Fill-23" fill="#023461" points="101.41367 1.9 88.1149826 1.9 88.1149826 4.51521429 93.1001545 4.51521429 93.1001545 16.9607571 96.4274296 16.9607571 96.4274296 4.51521429 101.41367 4.51521429 101.41367 1.9"></polyline>
                    <path d="M120.567197,17.0253571 L117.101341,17.0253571 L115.649313,13.2522286 L109.621714,13.2522286 L108.175026,17.0253571 L104.936934,17.0253571 L111.133019,1.90054286 L111.133019,1.9 L114.475514,1.9 L120.567197,17.0253571 Z M114.709686,10.7331 L112.639785,5.38731429 L110.56401,10.7331 L114.709686,10.7331 Z" id="Fill-24" fill="#023461"></path>
                </g>
            </g>
        </g>
    </g>
</svg>