<?xml version="1.0" encoding="UTF-8"?>
<svg width="26px" height="24px" viewBox="0 0 26 24" version="1.1" xmlns="http://www.w3.org/2000/svg" xmlns:xlink="http://www.w3.org/1999/xlink">
    <!-- Generator: Sketch 58 (84663) - https://sketch.com -->
    <title>Artboard Copy 13</title>
    <desc>Created with Sketch.</desc>
    <g id="Artboard-Copy-13" stroke="none" stroke-width="1" fill="none" fill-rule="evenodd">
        <g id="Left-Controler-Copy" transform="translate(0.000000, 1.000000)" fill="#9BA3AE">
            <g id="Left-Controler" transform="translate(16.000000, 0.000000)" stroke="#9BA3AE" stroke-width="0.5">
                <g id="e-add">
                    <path d="M8.4375,3.9375 L5.0625,3.9375 L5.0625,0.5625 C5.0625,0.225 4.8375,0 4.5,0 C4.1625,0 3.9375,0.225 3.9375,0.5625 L3.9375,3.9375 L0.5625,3.9375 C0.225,3.9375 0,4.1625 0,4.5 C0,4.8375 0.225,5.0625 0.5625,5.0625 L3.9375,5.0625 L3.9375,8.4375 C3.9375,8.775 4.1625,9 4.5,9 C4.8375,9 5.0625,8.775 5.0625,8.4375 L5.0625,5.0625 L8.4375,5.0625 C8.775,5.0625 9,4.8375 9,4.5 C9,4.1625 8.775,3.9375 8.4375,3.9375 Z" id="Path"></path>
                </g>
            </g>
            <g id="Generic/Small/wallet-3" transform="translate(0.000000, 8.000000)">
                <g id="wallet-43">
                    <path d="M15.3333333,2.5 L2.66666667,2.5 L2,2.5 C1.63266667,2.5 1.33333333,2.219375 1.33333333,1.875 C1.33333333,1.530625 1.63266667,1.25 2,1.25 L12,1.25 L12,2.5 L13.3333333,2.5 L13.3333333,0.625 C13.3333333,0.28 13.0346667,0 12.6666667,0 L2,0 C0.895333333,0 0,0.839375 0,1.875 L0,12.5 C0,13.880625 1.194,15 2.66666667,15 L14.7900641,15 C15.3333333,15 16,14.2493844 16,13.6983471 L16,3.125 C16,2.78 15.7013333,2.5 15.3333333,2.5 Z M12,10.2272727 C11.2633333,10.2272727 10.6666667,9.61704545 10.6666667,8.86363636 C10.6666667,8.11022727 11.2633333,7.5 12,7.5 C12.7366667,7.5 13.3333333,8.11022727 13.3333333,8.86363636 C13.3333333,9.61704545 12.7366667,10.2272727 12,10.2272727 Z" id="Shape"></path>
                </g>
            </g>
        </g>
    </g>
</svg>