<svg width="40" height="40" viewBox="0 0 40 40" fill="none" xmlns="http://www.w3.org/2000/svg">
<path fill-rule="evenodd" clip-rule="evenodd" d="M35 19.1895H13.3334V34.0228C13.3334 34.5751 13.7811 35.0228 14.3334 35.0228H34C34.5523 35.0228 35 34.5751 35 34.0228V19.1895ZM31.6667 22.5228H16.6667V31.6895H31.6667V22.5228Z" fill="#8EF7BF"/>
<rect x="28.3486" y="25.7441" width="3.33333" height="2.5" fill="#8EF7BF"/>
<path d="M31.6717 17.0965C31.6717 17.0965 31.6191 16.6873 31.3019 16.4281C30.9846 16.169 30.24 16.3333 30.24 16.3333L13.4678 19.6849L31.6717 19.6849L31.6717 17.0965Z" fill="#8EF7BF" fill-opacity="0.1"/>
<path d="M31.3019 16.4281L31.46 16.2345L31.46 16.2345L31.3019 16.4281ZM31.6717 17.0965L31.9217 17.0965L31.9217 17.0805L31.9196 17.0646L31.6717 17.0965ZM13.4678 19.6849L13.4188 19.4397L13.4678 19.9349L13.4678 19.6849ZM30.24 16.3333L30.289 16.5785L30.2939 16.5774L30.24 16.3333ZM31.6717 19.6849L31.6717 19.9349L31.9217 19.9349L31.9217 19.6849L31.6717 19.6849ZM31.1437 16.6217C31.2582 16.7153 31.3297 16.8404 31.373 16.9507C31.3942 17.0049 31.4073 17.0523 31.415 17.0852C31.4188 17.1016 31.4212 17.1141 31.4226 17.1217C31.4232 17.1255 31.4236 17.128 31.4238 17.1292C31.4239 17.1297 31.4239 17.13 31.4239 17.1298C31.4239 17.1298 31.4239 17.1296 31.4238 17.1294C31.4238 17.1292 31.4238 17.1291 31.4238 17.1289C31.4238 17.1288 31.4238 17.1287 31.4237 17.1286C31.4237 17.1286 31.4237 17.1285 31.4237 17.1285C31.4237 17.1284 31.4237 17.1283 31.6717 17.0965C31.9196 17.0646 31.9196 17.0645 31.9196 17.0644C31.9196 17.0644 31.9196 17.0643 31.9196 17.0643C31.9196 17.0641 31.9195 17.064 31.9195 17.0639C31.9195 17.0636 31.9194 17.0633 31.9194 17.063C31.9193 17.0623 31.9192 17.0616 31.9191 17.0607C31.9189 17.059 31.9186 17.0569 31.9182 17.0544C31.9174 17.0495 31.9164 17.043 31.915 17.0351C31.9122 17.0193 31.908 16.9978 31.902 16.9717C31.8899 16.9199 31.8701 16.8488 31.8385 16.7683C31.7761 16.6092 31.6628 16.4002 31.46 16.2345L31.1437 16.6217ZM13.5168 19.9301L30.289 16.5785L30.191 16.0882L13.4188 19.4397L13.5168 19.9301ZM30.24 16.3333C30.2939 16.5774 30.2938 16.5775 30.2938 16.5775C30.2938 16.5775 30.2937 16.5775 30.2937 16.5775C30.2937 16.5775 30.2936 16.5775 30.2936 16.5775C30.2936 16.5775 30.2936 16.5775 30.2936 16.5775C30.2937 16.5775 30.2939 16.5774 30.2944 16.5773C30.2952 16.5772 30.2967 16.5768 30.2989 16.5764C30.3032 16.5755 30.3101 16.5741 30.3193 16.5724C30.3376 16.5689 30.3649 16.564 30.3988 16.5589C30.4672 16.5485 30.5605 16.5372 30.6616 16.5334C30.7636 16.5294 30.8667 16.5333 30.9569 16.5499C31.0495 16.5669 31.1096 16.5939 31.1437 16.6217L31.46 16.2345C31.3355 16.1328 31.1836 16.0832 31.0473 16.0581C30.9087 16.0326 30.7661 16.029 30.6423 16.0337C30.5176 16.0385 30.4049 16.0522 30.3237 16.0645C30.2829 16.0707 30.2496 16.0767 30.2259 16.0812C30.2141 16.0834 30.2047 16.0853 30.1979 16.0867C30.1946 16.0874 30.1919 16.0879 30.1899 16.0884C30.1889 16.0886 30.1881 16.0888 30.1875 16.0889C30.1871 16.089 30.1869 16.089 30.1866 16.0891C30.1865 16.0891 30.1864 16.0891 30.1863 16.0891C30.1863 16.0892 30.1862 16.0892 30.1862 16.0892C30.1862 16.0892 30.1861 16.0892 30.24 16.3333ZM31.4217 17.0965L31.4217 19.6849L31.9217 19.6849L31.9217 17.0965L31.4217 17.0965ZM31.6717 19.4349L13.4678 19.4349L13.4678 19.9349L31.6717 19.9349L31.6717 19.4349Z" fill="#8EF7BF"/>
<path d="M24.4711 13.8323C23.6833 12.3824 22.5437 11.096 21.0793 10.1118C16.9952 7.36705 11.6883 7.84861 8.16864 10.9662L5 9.40572C9.57745 4.48173 17.1818 3.47625 22.9386 7.34526C24.2069 8.19759 25.2899 9.2223 26.1776 10.3673L24.4711 13.8323Z" fill="#8EF7BF"/>
<path d="M26.1498 14.4608L19.2768 13.8348L29.4708 8.41104L26.1498 14.4608Z" fill="#8EF7BF"/>
</svg>
