<svg width="40" height="40" viewBox="0 0 40 40" fill="none" xmlns="http://www.w3.org/2000/svg">
<path fill-rule="evenodd" clip-rule="evenodd" d="M34.9997 19.1885H13.333V34.0218C13.333 34.5741 13.7807 35.0218 14.333 35.0218H33.9997C34.552 35.0218 34.9997 34.5741 34.9997 34.0218V19.1885ZM31.6663 22.5218H16.6663V31.6885H31.6663V22.5218Z" fill="#006C44"/>
<rect x="28.3486" y="25.7432" width="3.33333" height="2.5" fill="#006C44"/>
<path d="M31.6713 17.096C31.6713 17.096 31.6187 16.6868 31.3015 16.4277C30.9843 16.1685 30.2396 16.3328 30.2396 16.3328L13.4674 19.6844L31.6713 19.6844L31.6713 17.096Z" fill="#006C44" fill-opacity="0.1"/>
<path d="M31.3015 16.4277L31.4597 16.2341L31.4597 16.2341L31.3015 16.4277ZM31.6713 17.096L31.9213 17.096L31.9213 17.08L31.9193 17.0641L31.6713 17.096ZM13.4674 19.6844L13.4184 19.4393L13.4674 19.9344L13.4674 19.6844ZM30.2396 16.3328L30.2886 16.578L30.2935 16.577L30.2396 16.3328ZM31.6713 19.6844L31.6713 19.9344L31.9213 19.9344L31.9213 19.6844L31.6713 19.6844ZM31.1433 16.6213C31.2578 16.7148 31.3294 16.8399 31.3726 16.9502C31.3938 17.0044 31.407 17.0518 31.4147 17.0847C31.4185 17.1011 31.4209 17.1136 31.4222 17.1212C31.4229 17.125 31.4233 17.1275 31.4234 17.1287C31.4235 17.1293 31.4236 17.1295 31.4235 17.1293C31.4235 17.1293 31.4235 17.1291 31.4235 17.1289C31.4234 17.1287 31.4234 17.1286 31.4234 17.1284C31.4234 17.1283 31.4234 17.1282 31.4234 17.1281C31.4234 17.1281 31.4234 17.128 31.4234 17.128C31.4233 17.1279 31.4233 17.1278 31.6713 17.096C31.9193 17.0641 31.9192 17.064 31.9192 17.0639C31.9192 17.0639 31.9192 17.0638 31.9192 17.0638C31.9192 17.0636 31.9192 17.0635 31.9192 17.0634C31.9191 17.0631 31.9191 17.0628 31.919 17.0625C31.919 17.0618 31.9189 17.0611 31.9187 17.0602C31.9185 17.0585 31.9182 17.0564 31.9178 17.054C31.9171 17.049 31.916 17.0425 31.9146 17.0346C31.9119 17.0188 31.9077 16.9973 31.9016 16.9712C31.8895 16.9194 31.8697 16.8483 31.8381 16.7678C31.7758 16.6087 31.6624 16.3997 31.4597 16.2341L31.1433 16.6213ZM13.5164 19.9296L30.2886 16.578L30.1906 16.0877L13.4184 19.4393L13.5164 19.9296ZM30.2396 16.3328C30.2935 16.577 30.2935 16.577 30.2934 16.577C30.2934 16.577 30.2934 16.577 30.2933 16.577C30.2933 16.577 30.2933 16.577 30.2932 16.577C30.2932 16.577 30.2932 16.577 30.2932 16.577C30.2933 16.577 30.2936 16.5769 30.294 16.5769C30.2948 16.5767 30.2964 16.5763 30.2985 16.5759C30.3029 16.575 30.3098 16.5736 30.3189 16.5719C30.3372 16.5684 30.3645 16.5635 30.3985 16.5584C30.4669 16.548 30.5602 16.5368 30.6612 16.5329C30.7633 16.5289 30.8663 16.5328 30.9565 16.5494C31.0491 16.5664 31.1092 16.5934 31.1433 16.6213L31.4597 16.2341C31.3351 16.1323 31.1832 16.0827 31.047 16.0576C30.9083 16.0321 30.7657 16.0285 30.642 16.0332C30.5172 16.038 30.4045 16.0517 30.3234 16.064C30.2826 16.0702 30.2492 16.0762 30.2256 16.0807C30.2137 16.0829 30.2043 16.0848 30.1976 16.0862C30.1942 16.0869 30.1915 16.0875 30.1895 16.0879C30.1885 16.0881 30.1877 16.0883 30.1871 16.0884C30.1868 16.0885 30.1865 16.0885 30.1863 16.0886C30.1862 16.0886 30.1861 16.0886 30.186 16.0887C30.1859 16.0887 30.1859 16.0887 30.1858 16.0887C30.1858 16.0887 30.1857 16.0887 30.2396 16.3328ZM31.4213 17.096L31.4213 19.6844L31.9213 19.6844L31.9213 17.096L31.4213 17.096ZM31.6713 19.4344L13.4674 19.4344L13.4674 19.9344L31.6713 19.9344L31.6713 19.4344Z" fill="#006C44"/>
<path d="M24.4711 13.8323C23.6833 12.3824 22.5437 11.096 21.0793 10.1118C16.9952 7.36705 11.6883 7.84861 8.16864 10.9662L5 9.40572C9.57745 4.48173 17.1818 3.47625 22.9386 7.34526C24.2069 8.19759 25.2899 9.2223 26.1776 10.3673L24.4711 13.8323Z" fill="#006C44"/>
<path d="M26.1498 14.4608L19.2768 13.8348L29.4708 8.41104L26.1498 14.4608Z" fill="#006C44"/>
</svg>
