<svg width="40" height="40" viewBox="0 0 40 40" fill="none" xmlns="http://www.w3.org/2000/svg">
<path fill-rule="evenodd" clip-rule="evenodd" d="M19.9268 15.7114H34.9268V25.7114C34.9268 26.6319 34.1806 27.3781 33.2601 27.3781H21.5934C20.6729 27.3781 19.9268 26.6319 19.9268 25.7114V15.7114ZM23.2601 19.0448H31.5934V20.6418H32.4188V22.3085H31.5934V24.0448H23.2601V19.0448Z" fill="#875300"/>
<path d="M32.4962 14.2774C32.4962 14.2774 32.4602 13.9969 32.2428 13.8193C32.0253 13.6417 31.5149 13.7543 31.5149 13.7543L20.0189 16.0516L32.4962 16.0516L32.4962 14.2774Z" fill="#875300" fill-opacity="0.1"/>
<path d="M32.2428 13.8193L32.4009 13.6257L32.4009 13.6257L32.2428 13.8193ZM32.4962 14.2774L32.7462 14.2774L32.7462 14.2614L32.7442 14.2455L32.4962 14.2774ZM20.0189 16.0516L19.9699 15.8064L20.0189 16.3016L20.0189 16.0516ZM31.5149 13.7543L31.5639 13.9995L31.5688 13.9984L31.5149 13.7543ZM32.4962 16.0516L32.4962 16.3016L32.7462 16.3016L32.7462 16.0516L32.4962 16.0516ZM32.0846 14.0129C32.1492 14.0657 32.1917 14.1383 32.2183 14.2062C32.2312 14.2391 32.2392 14.2679 32.2437 14.2875C32.246 14.2972 32.2474 14.3044 32.248 14.3083C32.2484 14.3102 32.2486 14.3114 32.2486 14.3116C32.2486 14.3116 32.2486 14.3115 32.2485 14.3111C32.2485 14.3109 32.2485 14.3107 32.2484 14.3104C32.2484 14.3102 32.2484 14.31 32.2484 14.3099C32.2483 14.3098 32.2483 14.3097 32.2483 14.3096C32.2483 14.3095 32.2483 14.3094 32.2483 14.3094C32.2483 14.3093 32.2483 14.3092 32.4962 14.2774C32.7442 14.2455 32.7442 14.2454 32.7442 14.2454C32.7442 14.2453 32.7442 14.2452 32.7442 14.2452C32.7441 14.2451 32.7441 14.2449 32.7441 14.2448C32.7441 14.2445 32.744 14.2443 32.744 14.244C32.7439 14.2434 32.7438 14.2427 32.7437 14.242C32.7435 14.2406 32.7433 14.2388 32.743 14.2368C32.7424 14.2328 32.7416 14.2277 32.7405 14.2217C32.7384 14.2096 32.7352 14.1934 32.7307 14.174C32.7217 14.1355 32.7071 14.0831 32.6838 14.0237C32.6381 13.907 32.5538 13.7506 32.4009 13.6257L32.0846 14.0129ZM20.0679 16.2967L31.5639 13.9995L31.4659 13.5092L19.9699 15.8064L20.0679 16.2967ZM31.5149 13.7543C31.5688 13.9984 31.5688 13.9984 31.5687 13.9985C31.5687 13.9985 31.5687 13.9985 31.5686 13.9985C31.5686 13.9985 31.5685 13.9985 31.5685 13.9985C31.5684 13.9985 31.5684 13.9985 31.5684 13.9985C31.5683 13.9985 31.5684 13.9985 31.5686 13.9985C31.569 13.9984 31.5699 13.9982 31.5712 13.9979C31.5738 13.9974 31.5781 13.9965 31.584 13.9954C31.5957 13.9932 31.6134 13.99 31.6356 13.9866C31.6805 13.9798 31.7414 13.9725 31.8069 13.97C31.8735 13.9674 31.9379 13.9701 31.9921 13.9801C32.0487 13.9905 32.0755 14.0054 32.0846 14.0129L32.4009 13.6257C32.3014 13.5443 32.1828 13.5068 32.0825 13.4883C31.9799 13.4694 31.8759 13.467 31.7877 13.4704C31.6984 13.4738 31.6182 13.4836 31.5605 13.4923C31.5315 13.4967 31.5076 13.501 31.4906 13.5042C31.4821 13.5058 31.4752 13.5072 31.4702 13.5082C31.4677 13.5087 31.4657 13.5092 31.4642 13.5095C31.4634 13.5097 31.4628 13.5098 31.4622 13.5099C31.462 13.51 31.4617 13.51 31.4616 13.5101C31.4615 13.5101 31.4614 13.5101 31.4613 13.5101C31.4612 13.5101 31.4612 13.5102 31.4612 13.5102C31.4611 13.5102 31.4611 13.5102 31.5149 13.7543ZM32.2462 14.2774L32.2462 16.0516L32.7462 16.0516L32.7462 14.2774L32.2462 14.2774ZM32.4962 15.8016L20.0189 15.8016L20.0189 16.3016L32.4962 16.3016L32.4962 15.8016Z" fill="#875300"/>
<path fill-rule="evenodd" clip-rule="evenodd" d="M4.98535 6.62402H14.152V13.2907C14.152 13.7509 13.7789 14.124 13.3187 14.124H5.81868C5.35845 14.124 4.98535 13.7509 4.98535 13.2907V6.62402ZM6.0254 7.66402H13.3059V9.54069H12.4852V11.2074H13.3059V12.8644H6.0254V7.66402Z" fill="#875300"/>
<path d="M12.8372 5.77673C12.8372 5.77673 12.8147 5.60173 12.679 5.49087C12.5433 5.38001 12.2248 5.45031 12.2248 5.45031L5.13873 7.03268L12.8372 6.8839L12.8372 5.77673Z" fill="#875300"/>
<path d="M12.679 5.49087L12.5208 5.68447L12.5208 5.68447L12.679 5.49087ZM12.8372 5.77673L13.0872 5.77673L13.0872 5.76074L13.0851 5.74488L12.8372 5.77673ZM5.13873 7.03268L5.08425 6.78869L5.14356 7.28263L5.13873 7.03268ZM12.2248 5.45031L12.1709 5.20619L12.1703 5.20632L12.2248 5.45031ZM12.8372 6.8839L12.842 7.13385L13.0872 7.12912L13.0872 6.8839L12.8372 6.8839ZM12.5208 5.68447C12.5445 5.70383 12.5632 5.73339 12.5762 5.76662C12.5823 5.78221 12.586 5.79573 12.5881 5.80441C12.589 5.80865 12.5896 5.81141 12.5897 5.81231C12.5898 5.81275 12.5898 5.8127 12.5897 5.8121C12.5896 5.8118 12.5896 5.81137 12.5895 5.81079C12.5895 5.81049 12.5894 5.81017 12.5894 5.8098C12.5893 5.80962 12.5893 5.80943 12.5893 5.80923C12.5893 5.80913 12.5893 5.80902 12.5892 5.80892C12.5892 5.80886 12.5892 5.80878 12.5892 5.80876C12.5892 5.80868 12.5892 5.80859 12.8372 5.77673C13.0851 5.74488 13.0851 5.74479 13.0851 5.74471C13.0851 5.74468 13.0851 5.74459 13.0851 5.74454C13.0851 5.74442 13.0851 5.7443 13.085 5.74418C13.085 5.74394 13.085 5.74368 13.0849 5.74341C13.0849 5.74288 13.0848 5.7423 13.0847 5.74167C13.0845 5.74042 13.0843 5.73899 13.0841 5.73738C13.0836 5.73417 13.083 5.73025 13.0822 5.72569C13.0806 5.71658 13.0782 5.70481 13.075 5.6909C13.0686 5.66331 13.0582 5.62615 13.0417 5.58413C13.0096 5.50214 12.9492 5.38877 12.8372 5.29727L12.5208 5.68447ZM5.19322 7.27667L12.2793 5.6943L12.1703 5.20632L5.08425 6.78869L5.19322 7.27667ZM12.2248 5.45031C12.2787 5.69444 12.2786 5.69445 12.2786 5.69446C12.2786 5.69446 12.2785 5.69447 12.2785 5.69448C12.2784 5.69449 12.2784 5.6945 12.2783 5.69451C12.2782 5.69453 12.2781 5.69455 12.2781 5.69456C12.278 5.69459 12.2779 5.6946 12.2779 5.6946C12.278 5.69459 12.2783 5.69452 12.2789 5.6944C12.2801 5.69416 12.2823 5.69371 12.2854 5.69311C12.2917 5.69191 12.3016 5.69013 12.3142 5.68822C12.3398 5.68433 12.3742 5.68024 12.4106 5.67883C12.4481 5.67739 12.4809 5.6791 12.5056 5.68364C12.5327 5.68862 12.5321 5.6937 12.5208 5.68447L12.8372 5.29727C12.758 5.23261 12.6668 5.2049 12.596 5.19189C12.5228 5.17843 12.4505 5.17693 12.3914 5.1792C12.3312 5.18152 12.2775 5.18807 12.2391 5.1939C12.2197 5.19684 12.2037 5.19969 12.1921 5.2019C12.1862 5.20301 12.1815 5.20397 12.1779 5.2047C12.1761 5.20507 12.1747 5.20538 12.1735 5.20563C12.1729 5.20576 12.1724 5.20586 12.172 5.20596C12.1717 5.206 12.1715 5.20605 12.1714 5.20609C12.1713 5.2061 12.1712 5.20612 12.1711 5.20614C12.1711 5.20615 12.171 5.20616 12.171 5.20616C12.171 5.20618 12.1709 5.20619 12.2248 5.45031ZM12.5872 5.77673L12.5872 6.8839L13.0872 6.8839L13.0872 5.77673L12.5872 5.77673ZM12.8323 6.63395L5.1339 6.78272L5.14356 7.28263L12.842 7.13385L12.8323 6.63395Z" fill="#875300"/>
<path fill-rule="evenodd" clip-rule="evenodd" d="M5.05859 27.1528H14.2253V33.8195C14.2253 34.2797 13.8522 34.6528 13.3919 34.6528H5.89193C5.43169 34.6528 5.05859 34.2797 5.05859 33.8195V27.1528ZM6.09864 28.1928H13.3792V30.0695H12.5585V31.7362H13.3792V33.3932H6.09864V28.1928Z" fill="#875300"/>
<path d="M12.9104 26.3055C12.9104 26.3055 12.8879 26.1305 12.7522 26.0197C12.6165 25.9088 12.298 25.9791 12.298 25.9791L5.21198 27.5615L12.9104 27.4127L12.9104 26.3055Z" fill="#875300"/>
<path d="M12.7522 26.0197L12.5941 26.2133L12.5941 26.2133L12.7522 26.0197ZM12.9104 26.3055L13.1604 26.3055L13.1604 26.2895L13.1584 26.2737L12.9104 26.3055ZM5.21198 27.5615L5.15749 27.3175L5.21681 27.8114L5.21198 27.5615ZM12.298 25.9791L12.2442 25.735L12.2435 25.7351L12.298 25.9791ZM12.9104 27.4127L12.9152 27.6627L13.1604 27.6579L13.1604 27.4127L12.9104 27.4127ZM12.5941 26.2133C12.6178 26.2326 12.6364 26.2622 12.6494 26.2954C12.6556 26.311 12.6593 26.3245 12.6613 26.3332C12.6623 26.3375 12.6628 26.3402 12.663 26.3411C12.663 26.3416 12.663 26.3415 12.6629 26.3409C12.6629 26.3406 12.6628 26.3402 12.6627 26.3396C12.6627 26.3393 12.6627 26.339 12.6626 26.3386C12.6626 26.3384 12.6626 26.3382 12.6625 26.338C12.6625 26.3379 12.6625 26.3378 12.6625 26.3377C12.6625 26.3377 12.6625 26.3376 12.6625 26.3376C12.6625 26.3375 12.6624 26.3374 12.9104 26.3055C13.1584 26.2737 13.1584 26.2736 13.1583 26.2735C13.1583 26.2735 13.1583 26.2734 13.1583 26.2733C13.1583 26.2732 13.1583 26.2731 13.1583 26.273C13.1582 26.2727 13.1582 26.2725 13.1582 26.2722C13.1581 26.2717 13.158 26.2711 13.1579 26.2705C13.1578 26.2692 13.1576 26.2678 13.1573 26.2662C13.1568 26.263 13.1562 26.2591 13.1554 26.2545C13.1538 26.2454 13.1515 26.2336 13.1482 26.2197C13.1418 26.1921 13.1314 26.155 13.115 26.1129C13.0828 26.031 13.0224 25.9176 12.9104 25.8261L12.5941 26.2133ZM5.26646 27.8055L12.3525 26.2231L12.2435 25.7351L5.15749 27.3175L5.26646 27.8055ZM12.298 25.9791C12.3519 26.2232 12.3519 26.2233 12.3518 26.2233C12.3518 26.2233 12.3518 26.2233 12.3517 26.2233C12.3517 26.2233 12.3516 26.2233 12.3516 26.2233C12.3515 26.2233 12.3514 26.2234 12.3513 26.2234C12.3512 26.2234 12.3512 26.2234 12.3512 26.2234C12.3512 26.2234 12.3515 26.2233 12.3521 26.2232C12.3533 26.223 12.3555 26.2225 12.3587 26.2219C12.365 26.2207 12.3749 26.2189 12.3875 26.217C12.4131 26.2131 12.4474 26.209 12.4839 26.2076C12.5213 26.2062 12.5541 26.2079 12.5788 26.2125C12.6059 26.2174 12.6054 26.2225 12.5941 26.2133L12.9104 25.8261C12.8313 25.7614 12.74 25.7337 12.6692 25.7207C12.5961 25.7072 12.5238 25.7057 12.4646 25.708C12.4045 25.7103 12.3507 25.7169 12.3124 25.7227C12.293 25.7257 12.2769 25.7285 12.2653 25.7307C12.2595 25.7318 12.2547 25.7328 12.2512 25.7335C12.2494 25.7339 12.2479 25.7342 12.2467 25.7344C12.2461 25.7346 12.2456 25.7347 12.2452 25.7348C12.245 25.7348 12.2448 25.7349 12.2446 25.7349C12.2445 25.7349 12.2444 25.7349 12.2444 25.7349C12.2443 25.735 12.2443 25.735 12.2443 25.735C12.2442 25.735 12.2442 25.735 12.298 25.9791ZM12.6604 26.3055L12.6604 27.4127L13.1604 27.4127L13.1604 26.3055L12.6604 26.3055ZM12.9056 27.1628L5.20715 27.3115L5.21681 27.8114L12.9152 27.6627L12.9056 27.1628Z" fill="#875300"/>
<path d="M17.6935 6.71377C21.7577 6.75594 25.3697 8.68505 27.6952 11.6667H26.6152C24.4401 9.17352 21.2525 7.58665 17.6935 7.54715V6.71377Z" fill="#875300"/>
<path d="M16.4463 7.14651L17.6963 9.31157L17.6963 4.98145L16.4463 7.14651Z" fill="#875300"/>
<path d="M27.6211 12.3152L28.5208 9.98273L25.1513 12.7023L27.6211 12.3152Z" fill="#875300"/>
<path d="M17.6789 33.274C21.3074 33.2363 24.5754 31.6947 26.8892 29.2428H25.7059C23.5936 31.1993 20.777 32.4062 17.6789 32.4406V33.274Z" fill="#875300"/>
<path d="M16.4316 32.8413L17.6816 30.6762L17.6816 35.0064L16.4316 32.8413Z" fill="#875300"/>
<path d="M26.5523 28.2568L28.0489 30.2594L24.0698 28.5516L26.5523 28.2568Z" fill="#875300"/>
</svg>
