<svg width="40" height="40" viewBox="0 0 40 40" fill="none" xmlns="http://www.w3.org/2000/svg">
<path fill-rule="evenodd" clip-rule="evenodd" d="M19.9264 15.709H34.9264V25.709C34.9264 26.6295 34.1802 27.3757 33.2597 27.3757H21.5931C20.6726 27.3757 19.9264 26.6295 19.9264 25.709V15.709ZM23.2597 19.0423H31.5931V20.6394H32.4184V22.3061H31.5931V24.0423H23.2597V19.0423Z" fill="#FFDDB6"/>
<path d="M32.4959 14.2769C32.4959 14.2769 32.4598 13.9965 32.2424 13.8188C32.025 13.6412 31.5146 13.7538 31.5146 13.7538L20.0185 16.0511L32.4959 16.0511L32.4959 14.2769Z" fill="#FFDDB6" fill-opacity="0.1"/>
<path d="M32.2424 13.8188L32.4006 13.6252L32.4006 13.6252L32.2424 13.8188ZM32.4959 14.2769L32.7459 14.2769L32.7459 14.2609L32.7438 14.245L32.4959 14.2769ZM20.0185 16.0511L19.9695 15.8059L20.0185 16.3011L20.0185 16.0511ZM31.5146 13.7538L31.5636 13.999L31.5685 13.9979L31.5146 13.7538ZM32.4959 16.0511L32.4959 16.3011L32.7459 16.3011L32.7459 16.0511L32.4959 16.0511ZM32.0842 14.0124C32.1488 14.0652 32.1913 14.1378 32.2179 14.2057C32.2308 14.2387 32.2388 14.2674 32.2434 14.2871C32.2456 14.2968 32.247 14.3039 32.2477 14.3078C32.248 14.3098 32.2482 14.3109 32.2482 14.3111C32.2482 14.3112 32.2482 14.311 32.2482 14.3106C32.2481 14.3105 32.2481 14.3102 32.2481 14.3099C32.248 14.3097 32.248 14.3096 32.248 14.3094C32.248 14.3093 32.248 14.3092 32.248 14.3091C32.2479 14.309 32.2479 14.3089 32.2479 14.3089C32.2479 14.3088 32.2479 14.3088 32.4959 14.2769C32.7438 14.245 32.7438 14.245 32.7438 14.2449C32.7438 14.2448 32.7438 14.2447 32.7438 14.2447C32.7438 14.2446 32.7438 14.2444 32.7437 14.2443C32.7437 14.2441 32.7437 14.2438 32.7436 14.2435C32.7436 14.2429 32.7435 14.2423 32.7434 14.2415C32.7432 14.2401 32.7429 14.2383 32.7426 14.2363C32.742 14.2323 32.7412 14.2273 32.7401 14.2212C32.738 14.2091 32.7348 14.1929 32.7303 14.1735C32.7213 14.135 32.7067 14.0826 32.6834 14.0232C32.6377 13.9065 32.5534 13.7501 32.4006 13.6252L32.0842 14.0124ZM20.0675 16.2962L31.5636 13.999L31.4656 13.5087L19.9695 15.8059L20.0675 16.2962ZM31.5146 13.7538C31.5685 13.9979 31.5684 13.998 31.5684 13.998C31.5683 13.998 31.5683 13.998 31.5683 13.998C31.5682 13.998 31.5682 13.998 31.5681 13.998C31.5681 13.998 31.568 13.998 31.568 13.998C31.568 13.998 31.5681 13.998 31.5683 13.998C31.5687 13.9979 31.5695 13.9977 31.5708 13.9974C31.5734 13.9969 31.5778 13.996 31.5836 13.9949C31.5953 13.9927 31.6131 13.9895 31.6353 13.9862C31.6801 13.9793 31.741 13.972 31.8066 13.9695C31.8731 13.967 31.9375 13.9696 31.9917 13.9796C32.0483 13.99 32.0751 14.0049 32.0842 14.0124L32.4006 13.6252C32.301 13.5439 32.1824 13.5063 32.0822 13.4878C31.9795 13.469 31.8756 13.4665 31.7873 13.4699C31.6981 13.4733 31.6178 13.4831 31.5602 13.4918C31.5311 13.4962 31.5073 13.5005 31.4902 13.5037C31.4817 13.5053 31.4749 13.5067 31.4699 13.5077C31.4674 13.5083 31.4653 13.5087 31.4638 13.509C31.463 13.5092 31.4624 13.5093 31.4619 13.5094C31.4616 13.5095 31.4614 13.5095 31.4612 13.5096C31.4611 13.5096 31.461 13.5096 31.4609 13.5096C31.4609 13.5097 31.4608 13.5097 31.4608 13.5097C31.4607 13.5097 31.4607 13.5097 31.5146 13.7538ZM32.2459 14.2769L32.2459 16.0511L32.7459 16.0511L32.7459 14.2769L32.2459 14.2769ZM32.4959 15.8011L20.0185 15.8011L20.0185 16.3011L32.4959 16.3011L32.4959 15.8011Z" fill="#FFDDB6"/>
<path fill-rule="evenodd" clip-rule="evenodd" d="M4.98535 6.62305H14.152V13.2897C14.152 13.75 13.7789 14.123 13.3187 14.123H5.81868C5.35845 14.123 4.98535 13.75 4.98535 13.2897V6.62305ZM6.0254 7.66304H13.3059V9.53971H12.4852V11.2064H13.3059V12.8634H6.0254V7.66304Z" fill="#FFDDB6"/>
<path d="M12.8373 5.77527C12.8373 5.77527 12.8148 5.60026 12.6791 5.48941C12.5434 5.37855 12.2249 5.44885 12.2249 5.44885L5.13886 7.03121L12.8373 6.88244L12.8373 5.77527Z" fill="#FFDDB6"/>
<path d="M12.6791 5.48941L12.5209 5.68301L12.5209 5.68301L12.6791 5.48941ZM12.8373 5.77527L13.0873 5.77527L13.0873 5.75927L13.0853 5.74341L12.8373 5.77527ZM5.13886 7.03121L5.08437 6.78722L5.14369 7.28117L5.13886 7.03121ZM12.2249 5.44885L12.171 5.20472L12.1704 5.20486L12.2249 5.44885ZM12.8373 6.88244L12.8421 7.13239L13.0873 7.12765L13.0873 6.88244L12.8373 6.88244ZM12.5209 5.68301C12.5446 5.70237 12.5633 5.73192 12.5763 5.76515C12.5824 5.78074 12.5862 5.79426 12.5882 5.80295C12.5892 5.80718 12.5897 5.80995 12.5898 5.81085C12.5899 5.81128 12.5899 5.81123 12.5898 5.81064C12.5898 5.81034 12.5897 5.8099 12.5896 5.80932C12.5896 5.80903 12.5895 5.8087 12.5895 5.80834C12.5895 5.80815 12.5894 5.80796 12.5894 5.80776C12.5894 5.80766 12.5894 5.80756 12.5894 5.80745C12.5894 5.8074 12.5894 5.80732 12.5893 5.80729C12.5893 5.80721 12.5893 5.80713 12.8373 5.77527C13.0853 5.74341 13.0852 5.74333 13.0852 5.74324C13.0852 5.74321 13.0852 5.74313 13.0852 5.74307C13.0852 5.74296 13.0852 5.74284 13.0852 5.74271C13.0851 5.74247 13.0851 5.74221 13.0851 5.74195C13.085 5.74141 13.0849 5.74083 13.0848 5.74021C13.0846 5.73896 13.0844 5.73752 13.0842 5.73592C13.0837 5.7327 13.0831 5.72878 13.0823 5.72422C13.0807 5.71511 13.0784 5.70334 13.0751 5.68944C13.0687 5.66184 13.0583 5.62468 13.0418 5.58267C13.0097 5.50068 12.9493 5.3873 12.8373 5.2958L12.5209 5.68301ZM5.19334 7.2752L12.2794 5.69284L12.1704 5.20486L5.08437 6.78722L5.19334 7.2752ZM12.2249 5.44885C12.2788 5.69297 12.2787 5.69298 12.2787 5.69299C12.2787 5.693 12.2786 5.69301 12.2786 5.69301C12.2785 5.69303 12.2785 5.69304 12.2784 5.69305C12.2783 5.69307 12.2783 5.69309 12.2782 5.6931C12.2781 5.69313 12.278 5.69314 12.2781 5.69313C12.2781 5.69312 12.2784 5.69305 12.279 5.69293C12.2802 5.69269 12.2824 5.69224 12.2855 5.69165C12.2919 5.69044 12.3018 5.68867 12.3143 5.68676C12.34 5.68287 12.3743 5.67877 12.4107 5.67737C12.4482 5.67593 12.481 5.67763 12.5057 5.68218C12.5328 5.68716 12.5322 5.69223 12.5209 5.68301L12.8373 5.2958C12.7581 5.23115 12.6669 5.20344 12.5961 5.19042C12.5229 5.17697 12.4506 5.17546 12.3915 5.17774C12.3313 5.18006 12.2776 5.1866 12.2393 5.19243C12.2198 5.19538 12.2038 5.19823 12.1922 5.20044C12.1864 5.20155 12.1816 5.2025 12.178 5.20323C12.1763 5.2036 12.1748 5.20391 12.1736 5.20416C12.173 5.20429 12.1725 5.2044 12.1721 5.20449C12.1719 5.20454 12.1717 5.20458 12.1715 5.20462C12.1714 5.20464 12.1713 5.20466 12.1712 5.20467C12.1712 5.20468 12.1712 5.20469 12.1711 5.2047C12.1711 5.20471 12.171 5.20472 12.2249 5.44885ZM12.5873 5.77527L12.5873 6.88244L13.0873 6.88244L13.0873 5.77527L12.5873 5.77527ZM12.8325 6.63248L5.13403 6.78126L5.14369 7.28117L12.8421 7.13239L12.8325 6.63248Z" fill="#FFDDB6"/>
<path fill-rule="evenodd" clip-rule="evenodd" d="M5.05872 27.1523H14.2254V33.819C14.2254 34.2792 13.8523 34.6523 13.392 34.6523H5.89205C5.43181 34.6523 5.05872 34.2792 5.05872 33.819V27.1523ZM6.09876 28.1923H13.3793V30.069H12.5586V31.7357H13.3793V33.3927H6.09876V28.1923Z" fill="#FFDDB6"/>
<path d="M12.9107 26.3046C12.9107 26.3046 12.8882 26.1296 12.7525 26.0187C12.6168 25.9078 12.2983 25.9781 12.2983 25.9781L5.21222 27.5605L12.9107 27.4117L12.9107 26.3046Z" fill="#FFDDB6"/>
<path d="M12.7525 26.0187L12.5943 26.2123L12.5943 26.2123L12.7525 26.0187ZM12.9107 26.3046L13.1607 26.3046L13.1607 26.2886L13.1586 26.2727L12.9107 26.3046ZM5.21222 27.5605L5.15774 27.3165L5.21705 27.8105L5.21222 27.5605ZM12.2983 25.9781L12.2444 25.734L12.2438 25.7342L12.2983 25.9781ZM12.9107 27.4117L12.9155 27.6617L13.1607 27.6569L13.1607 27.4117L12.9107 27.4117ZM12.5943 26.2123C12.618 26.2317 12.6367 26.2612 12.6497 26.2944C12.6558 26.31 12.6595 26.3236 12.6615 26.3322C12.6625 26.3365 12.663 26.3392 12.6632 26.3401C12.6633 26.3406 12.6633 26.3405 12.6632 26.3399C12.6631 26.3396 12.6631 26.3392 12.663 26.3386C12.6629 26.3383 12.6629 26.338 12.6628 26.3376C12.6628 26.3375 12.6628 26.3373 12.6628 26.3371C12.6628 26.337 12.6627 26.3369 12.6627 26.3367C12.6627 26.3367 12.6627 26.3366 12.6627 26.3366C12.6627 26.3365 12.6627 26.3364 12.9107 26.3046C13.1586 26.2727 13.1586 26.2726 13.1586 26.2725C13.1586 26.2725 13.1586 26.2724 13.1586 26.2724C13.1586 26.2723 13.1585 26.2721 13.1585 26.272C13.1585 26.2718 13.1585 26.2715 13.1584 26.2712C13.1584 26.2707 13.1583 26.2701 13.1582 26.2695C13.158 26.2683 13.1578 26.2668 13.1576 26.2652C13.1571 26.262 13.1564 26.2581 13.1556 26.2535C13.154 26.2444 13.1517 26.2326 13.1485 26.2187C13.1421 26.1911 13.1317 26.154 13.1152 26.112C13.0831 26.03 13.0226 25.9166 12.9106 25.8251L12.5943 26.2123ZM5.2667 27.8045L12.3528 26.2221L12.2438 25.7342L5.15774 27.3165L5.2667 27.8045ZM12.2983 25.9781C12.3522 26.2223 12.3521 26.2223 12.3521 26.2223C12.352 26.2223 12.352 26.2223 12.352 26.2223C12.3519 26.2223 12.3519 26.2223 12.3518 26.2223C12.3517 26.2224 12.3516 26.2224 12.3516 26.2224C12.3515 26.2224 12.3514 26.2224 12.3514 26.2224C12.3515 26.2224 12.3518 26.2224 12.3524 26.2222C12.3535 26.222 12.3558 26.2215 12.3589 26.2209C12.3652 26.2197 12.3751 26.218 12.3877 26.2161C12.4133 26.2122 12.4477 26.2081 12.4841 26.2067C12.5216 26.2052 12.5543 26.2069 12.5791 26.2115C12.6061 26.2165 12.6056 26.2215 12.5943 26.2123L12.9106 25.8251C12.8315 25.7604 12.7403 25.7327 12.6695 25.7197C12.5963 25.7063 12.524 25.7048 12.4649 25.707C12.4047 25.7094 12.351 25.7159 12.3126 25.7217C12.2932 25.7247 12.2772 25.7275 12.2655 25.7297C12.2597 25.7308 12.255 25.7318 12.2514 25.7325C12.2496 25.7329 12.2481 25.7332 12.247 25.7335C12.2464 25.7336 12.2459 25.7337 12.2454 25.7338C12.2452 25.7338 12.245 25.7339 12.2449 25.7339C12.2448 25.7339 12.2447 25.734 12.2446 25.734C12.2446 25.734 12.2445 25.734 12.2445 25.734C12.2444 25.734 12.2444 25.734 12.2983 25.9781ZM12.6607 26.3046L12.6607 27.4117L13.1607 27.4117L13.1607 26.3046L12.6607 26.3046ZM12.9058 27.1618L5.20739 27.3106L5.21705 27.8105L12.9155 27.6617L12.9058 27.1618Z" fill="#FFDDB6"/>
<path d="M17.6935 6.71279C21.7577 6.75496 25.3697 8.68407 27.6952 11.6657H26.6152C24.4401 9.17254 21.2525 7.58567 17.6935 7.54617V6.71279Z" fill="#FFDDB6"/>
<path d="M16.4463 7.14553L17.6963 9.31059L17.6963 4.98047L16.4463 7.14553Z" fill="#FFDDB6"/>
<path d="M27.6211 12.3143L28.5208 9.98175L25.1513 12.7014L27.6211 12.3143Z" fill="#FFDDB6"/>
<path d="M17.679 33.273C21.3075 33.2354 24.5755 31.6937 26.8893 29.2419H25.706C23.5937 31.1984 20.7771 32.4053 17.679 32.4397V33.273Z" fill="#FFDDB6"/>
<path d="M16.4318 32.8403L17.6818 30.6752L17.6818 35.0054L16.4318 32.8403Z" fill="#FFDDB6"/>
<path d="M26.5525 28.2559L28.049 30.2584L24.0699 28.5506L26.5525 28.2559Z" fill="#FFDDB6"/>
</svg>
