<svg width="24" height="24" viewBox="0 0 24 24" fill="none" xmlns="http://www.w3.org/2000/svg">
<path fill-rule="evenodd" clip-rule="evenodd" d="M2.93304 6.71406C2.53526 7.41576 2.21986 8.17029 2 8.96452C2.97252 9.46069 3.63849 10.4718 3.63849 11.6385C3.63849 12.8052 2.97252 13.8163 2 14.3125C2.21986 15.1067 2.53526 15.8612 2.93305 16.5629C3.97138 16.2265 5.15687 16.4707 5.98162 17.2954C6.80636 18.1201 7.05051 19.3056 6.71408 20.344C7.41577 20.7417 8.1703 21.0571 8.96452 21.277C9.46069 20.3045 10.4718 19.6385 11.6385 19.6385C12.8052 19.6385 13.8163 20.3045 14.3125 21.277C15.1067 21.0571 15.8612 20.7417 16.5629 20.344C16.2264 19.3056 16.4706 18.1201 17.2953 17.2954C18.1201 16.4706 19.3056 16.2265 20.3439 16.5629C20.7417 15.8612 21.0571 15.1067 21.277 14.3125C20.3045 13.8163 19.6385 12.8052 19.6385 11.6385C19.6385 10.4718 20.3045 9.46069 21.277 8.96452C21.0571 8.17028 20.7417 7.41574 20.3439 6.71404C19.3056 7.05048 18.1201 6.80633 17.2954 5.98158C16.4706 5.15683 16.2265 3.97136 16.5629 2.93303C15.8612 2.53525 15.1067 2.21986 14.3125 2C13.8163 2.97252 12.8052 3.63849 11.6385 3.63849C10.4718 3.63849 9.46069 2.97252 8.96452 2C8.1703 2.21986 7.41578 2.53525 6.71409 2.93302C7.05055 3.97136 6.8064 5.15686 5.98164 5.98161C5.15688 6.80637 3.97138 7.05052 2.93304 6.71406ZM17.6385 11.6386C17.6385 14.9523 14.9522 17.6386 11.6385 17.6386C8.32478 17.6386 5.63849 14.9523 5.63849 11.6386C5.63849 8.32484 8.32478 5.63855 11.6385 5.63855C14.9522 5.63855 17.6385 8.32484 17.6385 11.6386ZM15.1385 11.6384C15.1385 13.5714 13.5715 15.1384 11.6385 15.1384C9.70549 15.1384 8.13849 13.5714 8.13849 11.6384C8.13849 9.70543 9.70549 8.13843 11.6385 8.13843C13.5715 8.13843 15.1385 9.70543 15.1385 11.6384ZM15.6385 11.6384C15.6385 13.8476 13.8476 15.6384 11.6385 15.6384C9.42935 15.6384 7.63849 13.8476 7.63849 11.6384C7.63849 9.42929 9.42935 7.63843 11.6385 7.63843C13.8476 7.63843 15.6385 9.42929 15.6385 11.6384Z" fill="#C3E7FF" fill-opacity="0.6"/>
</svg>
