<svg width="40" height="40" viewBox="0 0 40 40" fill="none" xmlns="http://www.w3.org/2000/svg">
<circle cx="15.5029" cy="26.5137" r="3.375" transform="rotate(45 15.5029 26.5137)" fill="#00658D" fill-opacity="0.1" stroke="#00658D" stroke-width="0.5"/>
<path d="M17.6436 18.3369L29.1322 6.84832L33.4983 6.48919L31.2005 8.78693L19.6471 20.3403L17.6436 18.3369Z" fill="#00658D" fill-opacity="0.1" stroke="#00658D" stroke-width="0.5"/>
<path fill-rule="evenodd" clip-rule="evenodd" d="M34.1389 6.11279L33.6946 11.2797L23.2142 21.7601L25.1623 29.0303L18.0912 36.1014L8.43194 33.5132L5.84375 23.854L12.9148 16.7829L21.2453 19.015L31.3376 8.9227L34.1389 6.11279ZM19.834 22.1113L21.4193 28.0276L17.0882 32.3586L11.172 30.7733L9.58669 24.857L13.9177 20.526L19.834 22.1113ZM26.6819 16.3102C26.3564 16.6356 25.8288 16.6356 25.5033 16.3102C25.1779 15.9848 25.1779 15.4571 25.5033 15.1317C25.8288 14.8062 26.3564 14.8062 26.6819 15.1317C27.0073 15.4571 27.0073 15.9848 26.6819 16.3102ZM29.0647 12.7486C29.3902 13.074 29.9178 13.074 30.2433 12.7486C30.5687 12.4231 30.5687 11.8955 30.2433 11.5701C29.9178 11.2446 29.3902 11.2446 29.0647 11.5701C28.7393 11.8955 28.7393 12.4231 29.0647 12.7486ZM24.8626 18.0521C24.5372 18.3776 24.0095 18.3776 23.6841 18.0521C23.3586 17.7267 23.3586 17.1991 23.6841 16.8736C24.0095 16.5482 24.5372 16.5482 24.8626 16.8736C25.188 17.1991 25.188 17.7267 24.8626 18.0521ZM27.2455 14.5299C27.5709 14.8554 28.0986 14.8554 28.424 14.5299C28.7494 14.2045 28.7494 13.6768 28.424 13.3514C28.0986 13.026 27.5709 13.026 27.2455 13.3514C26.92 13.6768 26.92 14.2045 27.2455 14.5299Z" fill="#00658D"/>
</svg>
