<svg width="40" height="40" viewBox="0 0 40 40" fill="none" xmlns="http://www.w3.org/2000/svg">
<circle cx="15.5029" cy="26.5132" r="3.375" transform="rotate(45 15.5029 26.5132)" fill="#C3E7FF" fill-opacity="0.1" stroke="#C3E7FF" stroke-width="0.5"/>
<path d="M17.6434 18.3359L29.1319 6.84735L33.498 6.48821L31.2003 8.78595L19.6469 20.3394L17.6434 18.3359Z" fill="#C3E7FF" fill-opacity="0.1" stroke="#C3E7FF" stroke-width="0.5"/>
<path fill-rule="evenodd" clip-rule="evenodd" d="M34.1386 6.11133L33.6944 11.2783L23.214 21.7587L25.162 29.0289L18.091 36.0999L8.43169 33.5118L5.84351 23.8525L12.9146 16.7814L21.245 19.0136L31.3374 8.92123L34.1386 6.11133ZM19.8338 22.1098L21.419 28.0261L17.088 32.3571L11.1717 30.7719L9.58644 24.8556L13.9175 20.5245L19.8338 22.1098ZM26.6816 16.3087C26.3562 16.6342 25.8285 16.6342 25.5031 16.3087C25.1777 15.9833 25.1777 15.4556 25.5031 15.1302C25.8285 14.8048 26.3562 14.8048 26.6816 15.1302C27.007 15.4556 27.007 15.9833 26.6816 16.3087ZM29.0645 12.7471C29.3899 13.0726 29.9176 13.0726 30.243 12.7471C30.5684 12.4217 30.5684 11.894 30.243 11.5686C29.9176 11.2432 29.3899 11.2432 29.0645 11.5686C28.7391 11.894 28.7391 12.4217 29.0645 12.7471ZM24.8624 18.0507C24.5369 18.3761 24.0093 18.3761 23.6838 18.0507C23.3584 17.7252 23.3584 17.1976 23.6838 16.8722C24.0093 16.5467 24.5369 16.5467 24.8624 16.8722C25.1878 17.1976 25.1878 17.7252 24.8624 18.0507ZM27.2452 14.5285C27.5707 14.8539 28.0983 14.8539 28.4237 14.5285C28.7492 14.203 28.7492 13.6754 28.4237 13.3499C28.0983 13.0245 27.5707 13.0245 27.2452 13.3499C26.9198 13.6754 26.9198 14.203 27.2452 14.5285Z" fill="#C3E7FF"/>
</svg>
