<?xml version="1.0" encoding="UTF-8"?>
<svg width="50px" height="50px" viewBox="0 0 50 50" version="1.1" xmlns="http://www.w3.org/2000/svg" xmlns:xlink="http://www.w3.org/1999/xlink">
    <!-- Generator: Sketch 54.1 (76490) - https://sketchapp.com -->
    <title>Wallet/Large (50px)/multi-device</title>
    <desc>Created with Sketch.</desc>
    <defs>
        <path d="M25,50 C38.8071187,50 50,38.8071187 50,25 C50,11.1928813 38.8071187,0 25,0 C11.1928813,0 0,11.1928813 0,25 C0,38.8071187 11.1928813,50 25,50 Z" id="path-1"></path>
    </defs>
    <g id="Wallet/Large-(50px)/multi-device" stroke="none" stroke-width="1" fill="none" fill-rule="evenodd">
        <g id="item-ico-backup">
            <mask id="mask-2" fill="white">
                <use xlink:href="#path-1"></use>
            </mask>
            <use id="Mask" fill="#C955FD" opacity="0.100000001" xlink:href="#path-1"></use>
        </g>
        <g id="mirror-tablet-phone" transform="translate(14.000000, 14.000000)" fill="#D24DEA" fill-rule="nonzero">
            <path d="M21.1538462,23 L12.8461538,23 C11.8265512,23 11,22.1045695 11,21 L11,10 C11,8.8954305 11.8265512,8 12.8461538,8 L21.1538462,8 C22.1734488,8 23,8.8954305 23,10 L23,21 C23,22.1045695 22.1734488,23 21.1538462,23 Z M12.8461538,10 L12.8461538,10 L12.8461538,20 L21.1538462,20 L21.1538462,10 L12.8461538,10 Z" id="Shape"></path>
            <path d="M8.5,17.1818182 L1.88888889,17.1818182 L1.88888889,1.90909091 L15.1111111,1.90909091 L15.1111111,6.68181818 L17,6.68181818 L17,1.90909091 C17,0.854729114 16.1543156,6.45610399e-17 15.1111111,0 L1.88888889,0 C0.845684361,-6.45610399e-17 1.27755709e-16,0.854729114 0,1.90909091 L0,19.0909091 C1.27755709e-16,20.1452709 0.845684361,21 1.88888889,21 L8.5,21 L8.5,17.1818182 Z" id="Path"></path>
        </g>
    </g>
</svg>