<?xml version="1.0" encoding="UTF-8"?>
<svg width="50px" height="50px" viewBox="0 0 50 50" version="1.1" xmlns="http://www.w3.org/2000/svg" xmlns:xlink="http://www.w3.org/1999/xlink">
    <!-- Generator: Sketch 54.1 (76490) - https://sketchapp.com -->
    <title>Wallet/Large (50px)/Multi-user</title>
    <desc>Created with Sketch.</desc>
    <defs>
        <path d="M25,50 C38.8071187,50 50,38.8071187 50,25 C50,11.1928813 38.8071187,0 25,0 C11.1928813,0 0,11.1928813 0,25 C0,38.8071187 11.1928813,50 25,50 Z" id="path-1"></path>
    </defs>
    <g id="Wallet/Large-(50px)/Multi-user" stroke="none" stroke-width="1" fill="none" fill-rule="evenodd">
        <g id="Icons/Wallet/Blank">
            <g id="item-ico-backup-copy-2">
                <mask id="mask-2" fill="white">
                    <use xlink:href="#path-1"></use>
                </mask>
                <use id="Mask" fill="#2FCFA4" opacity="0.100000001" xlink:href="#path-1"></use>
            </g>
            <g id="multiple-19-2" transform="translate(11.000000, 13.000000)" fill="#2FCFA4">
                <g id="multiple-19">
                    <path d="M22.0652174,12.1052632 C24.8593043,12.1052632 27.1086957,8.79386842 27.1086957,6.05263158 C27.1086957,3.38281579 24.8460652,1.21052632 22.0652174,1.21052632 C19.2843696,1.21052632 17.0217391,3.38281579 17.0217391,6.05263158 C17.0217391,8.79386842 19.2711304,12.1052632 22.0652174,12.1052632 Z" id="Path" opacity="0.5"></path>
                    <path d="M8.82608696,12.1052632 C11.9688043,12.1052632 14.5,8.46278947 14.5,5.44736842 C14.5,2.44405263 11.9549348,0 8.82608696,0 C5.69723913,0 3.15217391,2.44405263 3.15217391,5.44736842 C3.15217391,8.46278947 5.68336957,12.1052632 8.82608696,12.1052632 Z" id="Path" fill-rule="nonzero"></path>
                    <path d="M27.2745,14.6691579 C26.1762826,14.3277895 24.3820652,13.9210526 22.0652174,13.9210526 C19.941913,13.9210526 18.2643261,14.2624211 17.1535,14.5826053 C18.2391087,15.3712632 18.9130435,16.6144737 18.9130435,17.963 L18.9130435,20.5789474 L28.3695652,20.5789474 C28.7181957,20.5789474 29,20.3077895 29,19.9736842 L29,16.9667368 C29,15.9135789 28.3058913,14.9905526 27.2745,14.6691579 Z" id="Path" opacity="0.5"></path>
                    <path d="M15.5452609,15.1073684 C13.9616087,14.5662632 11.5104783,13.9210526 8.82608696,13.9210526 C6.14169565,13.9210526 3.69056522,14.5662632 2.10691304,15.1073684 C0.846673913,15.5377105 0,16.6852895 0,17.963 L0,22.3947368 C0,22.7288421 0.281804348,23 0.630434783,23 L17.0217391,23 C17.3703696,23 17.6521739,22.7288421 17.6521739,22.3947368 L17.6521739,17.963 C17.6521739,16.6852895 16.8055,15.5377105 15.5452609,15.1073684 Z" id="Path" fill-rule="nonzero"></path>
                </g>
            </g>
        </g>
    </g>
</svg>