<svg width="40" height="40" viewBox="0 0 40 40" fill="none" xmlns="http://www.w3.org/2000/svg">
<path fill-rule="evenodd" clip-rule="evenodd" d="M5 20.0391H20V30.0391C20 30.9595 19.2538 31.7057 18.3333 31.7057H6.66667C5.74619 31.7057 5 30.9595 5 30.0391V20.0391ZM8.33333 23.3724H16.6667V24.9695H17.492V26.6361H16.6667V28.3724H8.33333V23.3724Z" fill="#625A7C"/>
<path d="M17.5695 18.6055C17.5695 18.6055 17.5334 18.3251 17.316 18.1474C17.0986 17.9698 16.5882 18.0824 16.5882 18.0824L5.09212 20.3797L17.5695 20.3797L17.5695 18.6055Z" fill="#625A7C" fill-opacity="0.1"/>
<path fill-rule="evenodd" clip-rule="evenodd" d="M16.6777 18.4892L16.6699 18.491L9.30364 19.9629L17.1529 19.9629L17.1529 18.6458C17.1495 18.6327 17.1443 18.615 17.1364 18.595C17.1181 18.5481 17.0929 18.507 17.0621 18.4784C17.0571 18.4768 17.0484 18.4744 17.0353 18.472C16.9972 18.465 16.946 18.4622 16.8866 18.4645C16.829 18.4667 16.7746 18.4732 16.734 18.4794C16.714 18.4824 16.6984 18.4852 16.6884 18.4871L16.6777 18.4892ZM17.5696 18.6054L17.9828 18.5523L17.9862 18.5787L17.9862 20.7962L5.09219 20.7962L5.01054 19.9709L16.504 17.6742L16.5099 17.673L16.5328 17.6684C16.5516 17.6649 16.5775 17.6603 16.6088 17.6555C16.6707 17.6461 16.7574 17.6355 16.8546 17.6318C16.95 17.6281 17.0672 17.6305 17.186 17.6524C17.3008 17.6735 17.45 17.7186 17.5797 17.8246C17.762 17.9735 17.8602 18.1579 17.9123 18.2909C17.939 18.359 17.9559 18.4193 17.9663 18.4642C17.9716 18.4868 17.9753 18.5059 17.9779 18.5208L17.9811 18.5399L17.9821 18.547L17.9825 18.5498L17.9828 18.5523C17.9828 18.5524 17.9828 18.5523 17.5696 18.6054Z" fill="#625A7C"/>
<path fill-rule="evenodd" clip-rule="evenodd" d="M25.9069 6.63232H16.7402V13.299C16.7402 13.7592 17.1133 14.1323 17.5736 14.1323H25.0736C25.5338 14.1323 25.9069 13.7592 25.9069 13.299V6.63232ZM25.0608 7.67232H17.7803V12.8727H25.0608V7.67232Z" fill="#625A7C"/>
<path d="M24.2402 9.54883H25.0736V11.2155H24.2402V9.54883Z" fill="#625A7C"/>
<path d="M24.592 5.78456C24.592 5.78456 24.5695 5.60955 24.4338 5.49869C24.2981 5.38783 23.9796 5.45813 23.9796 5.45813L16.8936 7.0405L24.592 6.89172L24.592 5.78456Z" fill="#625A7C"/>
<path fill-rule="evenodd" clip-rule="evenodd" d="M24.0678 5.86536L21.0296 6.54382L24.1753 6.48303L24.1753 5.85308C24.1742 5.85311 24.173 5.85316 24.1718 5.8532C24.1433 5.8543 24.1154 5.85758 24.0941 5.86082C24.0838 5.86239 24.0759 5.8638 24.0713 5.86467L24.0678 5.86536ZM24.592 5.78456L25.0052 5.73146L25.0086 5.7579L25.0086 7.30042L16.9016 7.45709L16.8027 6.63385L23.8888 5.05148L23.9793 5.45681C23.8898 5.05126 23.8887 5.0515 23.8888 5.05148L23.8905 5.0511L23.8935 5.05046L23.8991 5.04929L23.9157 5.04599C23.9291 5.04345 23.9472 5.04024 23.9689 5.03694C24.0115 5.03047 24.0717 5.0231 24.1398 5.02048C24.2061 5.01793 24.2916 5.01937 24.3809 5.03579C24.4663 5.05149 24.5881 5.08674 24.6974 5.17602C24.8388 5.29157 24.9132 5.43289 24.9517 5.53113C24.9716 5.58195 24.9842 5.62699 24.9921 5.66089C24.9961 5.67802 24.999 5.69279 25.0011 5.70463L25.0037 5.7203L25.0046 5.72646L25.0049 5.72911L25.0052 5.73146C25.0053 5.7316 25.0052 5.73146 24.592 5.78456Z" fill="#625A7C"/>
<path fill-rule="evenodd" clip-rule="evenodd" d="M35.0007 27.1226H25.834V33.7892C25.834 34.2495 26.2071 34.6226 26.6673 34.6226H34.1673C34.6276 34.6226 35.0007 34.2495 35.0007 33.7892V27.1226ZM34.1546 28.1626H26.874V33.3629H34.1546V28.1626Z" fill="#625A7C"/>
<path d="M33.334 30.0391H34.1673V31.7057H33.334V30.0391Z" fill="#625A7C"/>
<path d="M33.6857 26.2748C33.6857 26.2748 33.6632 26.0998 33.5276 25.9889C33.3919 25.8781 33.0734 25.9484 33.0734 25.9484L25.9873 27.5307L33.6857 27.382L33.6857 26.2748Z" fill="#625A7C"/>
<path fill-rule="evenodd" clip-rule="evenodd" d="M33.1616 26.3556L30.1233 27.0341L33.2691 26.9733L33.2691 26.3433C33.2679 26.3433 33.2668 26.3434 33.2656 26.3434C33.2371 26.3445 33.2092 26.3478 33.1878 26.3511C33.1775 26.3526 33.1696 26.354 33.1651 26.3549L33.1616 26.3556ZM33.6857 26.2748L34.099 26.2217L34.1024 26.2481L34.1024 27.7906L25.9953 27.9473L25.8965 27.1241L32.9825 25.5417L33.073 25.947C32.9835 25.5415 32.9824 25.5417 32.9825 25.5417L32.9843 25.5413L32.9872 25.5407L32.9928 25.5395L33.0095 25.5362C33.0229 25.5337 33.041 25.5305 33.0626 25.5272C33.1053 25.5207 33.1655 25.5133 33.2335 25.5107C33.2999 25.5082 33.3854 25.5096 33.4747 25.526C33.56 25.5417 33.6819 25.577 33.7912 25.6663C33.9326 25.7818 34.0069 25.9231 34.0454 26.0214C34.0654 26.0722 34.078 26.1172 34.0859 26.1511C34.0899 26.1682 34.0928 26.183 34.0949 26.1949L34.0974 26.2105L34.0983 26.2167L34.0987 26.2193L34.099 26.2217C34.099 26.2218 34.099 26.2217 33.6857 26.2748Z" fill="#625A7C"/>
<path d="M8.53125 19.2969L16.8514 10.9767L17.4407 11.566L9.12051 19.8861L8.53125 19.2969Z" fill="#625A7C"/>
<path d="M26.0264 30.8726L19.2771 27.6786L19.6335 26.9254L26.3828 30.1193L26.0264 30.8726Z" fill="#625A7C"/>
</svg>
