<svg width="40" height="40" viewBox="0 0 40 40" fill="none" xmlns="http://www.w3.org/2000/svg">
<path fill-rule="evenodd" clip-rule="evenodd" d="M5 20.0371H20V30.7038C20 31.2561 19.5523 31.7038 19 31.7038H6C5.44772 31.7038 5 31.2561 5 30.7038V20.0371ZM8.33333 23.3704H16.6667V24.9675H17.492V26.6342H16.6667V28.3704H8.33333V23.3704Z" fill="#E8DDFF"/>
<path d="M17.5695 18.605C17.5695 18.605 17.5334 18.3246 17.316 18.1469C17.0986 17.9693 16.5882 18.0819 16.5882 18.0819L5.09212 20.3792L17.5695 20.3792L17.5695 18.605Z" fill="#E8DDFF" fill-opacity="0.1"/>
<path d="M17.316 18.1469L17.1578 18.3405L17.1578 18.3405L17.316 18.1469ZM17.5695 18.605L17.8195 18.605L17.8195 18.589L17.8174 18.5732L17.5695 18.605ZM5.09212 20.3792L5.04313 20.134L5.09212 20.6292L5.09212 20.3792ZM16.5882 18.0819L16.6372 18.3271L16.6421 18.3261L16.5882 18.0819ZM17.5695 20.3792L17.5695 20.6292L17.8195 20.6292L17.8195 20.3792L17.5695 20.3792ZM17.1578 18.3405C17.2224 18.3933 17.2649 18.4659 17.2915 18.5338C17.3044 18.5668 17.3124 18.5956 17.317 18.6152C17.3192 18.6249 17.3206 18.632 17.3213 18.6359C17.3216 18.6379 17.3218 18.639 17.3218 18.6392C17.3218 18.6393 17.3218 18.6391 17.3218 18.6388C17.3217 18.6386 17.3217 18.6383 17.3217 18.638C17.3216 18.6379 17.3216 18.6377 17.3216 18.6375C17.3216 18.6374 17.3216 18.6373 17.3216 18.6372C17.3216 18.6371 17.3215 18.6371 17.3215 18.637C17.3215 18.637 17.3215 18.6369 17.5695 18.605C17.8174 18.5732 17.8174 18.5731 17.8174 18.573C17.8174 18.573 17.8174 18.5729 17.8174 18.5728C17.8174 18.5727 17.8174 18.5726 17.8173 18.5724C17.8173 18.5722 17.8173 18.5719 17.8172 18.5716C17.8172 18.571 17.8171 18.5704 17.817 18.5697C17.8168 18.5682 17.8165 18.5665 17.8162 18.5645C17.8156 18.5605 17.8148 18.5554 17.8137 18.5493C17.8116 18.5372 17.8084 18.521 17.8039 18.5017C17.7949 18.4631 17.7803 18.4107 17.757 18.3514C17.7113 18.2347 17.6271 18.0782 17.4742 17.9533L17.1578 18.3405ZM5.14111 20.6243L16.6372 18.3271L16.5392 17.8368L5.04313 20.134L5.14111 20.6243ZM16.5882 18.0819C16.6421 18.3261 16.642 18.3261 16.642 18.3261C16.642 18.3261 16.6419 18.3261 16.6419 18.3261C16.6418 18.3261 16.6418 18.3261 16.6417 18.3261C16.6417 18.3262 16.6416 18.3262 16.6416 18.3262C16.6416 18.3262 16.6417 18.3262 16.6419 18.3261C16.6423 18.326 16.6431 18.3258 16.6444 18.3256C16.647 18.325 16.6514 18.3242 16.6572 18.3231C16.6689 18.3208 16.6867 18.3177 16.7089 18.3143C16.7537 18.3075 16.8147 18.3002 16.8802 18.2976C16.9467 18.2951 17.0111 18.2978 17.0653 18.3077C17.1219 18.3181 17.1487 18.3331 17.1578 18.3405L17.4742 17.9533C17.3746 17.872 17.256 17.8344 17.1558 17.816C17.0531 17.7971 16.9492 17.7946 16.8609 17.798C16.7717 17.8014 16.6914 17.8112 16.6338 17.82C16.6047 17.8244 16.5809 17.8286 16.5639 17.8318C16.5553 17.8335 16.5485 17.8348 16.5435 17.8359C16.541 17.8364 16.539 17.8368 16.5374 17.8371C16.5367 17.8373 16.536 17.8374 16.5355 17.8376C16.5352 17.8376 16.535 17.8377 16.5348 17.8377C16.5347 17.8377 16.5346 17.8378 16.5345 17.8378C16.5345 17.8378 16.5344 17.8378 16.5344 17.8378C16.5344 17.8378 16.5343 17.8378 16.5882 18.0819ZM17.3195 18.605L17.3195 20.3792L17.8195 20.3792L17.8195 18.605L17.3195 18.605ZM17.5695 20.1292L5.09212 20.1292L5.09212 20.6292L17.5695 20.6292L17.5695 20.1292Z" fill="#E8DDFF"/>
<path fill-rule="evenodd" clip-rule="evenodd" d="M25.9067 6.63281H16.74V13.6328C16.74 13.909 16.9638 14.1328 17.24 14.1328H25.4067C25.6828 14.1328 25.9067 13.909 25.9067 13.6328V6.63281ZM25.0606 7.67281H17.78V12.8732H25.0606V7.67281Z" fill="#E8DDFF"/>
<rect x="24.2399" y="9.54883" width="0.833332" height="1.66667" fill="#E8DDFF"/>
<path d="M24.5919 5.78504C24.5919 5.78504 24.5694 5.61003 24.4338 5.49917C24.2981 5.38831 23.9796 5.45861 23.9796 5.45861L16.8935 7.04098L24.5919 6.8922L24.5919 5.78504Z" fill="#E8DDFF"/>
<path d="M24.4338 5.49917L24.2756 5.69277L24.2756 5.69277L24.4338 5.49917ZM24.5919 5.78504L24.8419 5.78504L24.8419 5.76904L24.8399 5.75318L24.5919 5.78504ZM16.8935 7.04098L16.839 6.79699L16.8983 7.29093L16.8935 7.04098ZM23.9796 5.45861L23.9257 5.21449L23.9251 5.21462L23.9796 5.45861ZM24.5919 6.8922L24.5968 7.14215L24.8419 7.13742L24.8419 6.8922L24.5919 6.8922ZM24.2756 5.69277C24.2993 5.71213 24.3179 5.74169 24.331 5.77492C24.3371 5.79051 24.3408 5.80403 24.3428 5.81271C24.3438 5.81695 24.3443 5.81971 24.3445 5.82061C24.3446 5.82105 24.3445 5.821 24.3444 5.8204C24.3444 5.8201 24.3443 5.81967 24.3443 5.81909C24.3442 5.8188 24.3442 5.81847 24.3441 5.8181C24.3441 5.81792 24.3441 5.81773 24.344 5.81753C24.344 5.81743 24.344 5.81732 24.344 5.81722C24.344 5.81717 24.344 5.81708 24.344 5.81706C24.344 5.81698 24.344 5.81689 24.5919 5.78504C24.8399 5.75318 24.8399 5.75309 24.8399 5.75301C24.8399 5.75298 24.8399 5.75289 24.8398 5.75284C24.8398 5.75272 24.8398 5.7526 24.8398 5.75248C24.8398 5.75224 24.8397 5.75198 24.8397 5.75171C24.8396 5.75118 24.8395 5.7506 24.8395 5.74997C24.8393 5.74872 24.8391 5.74729 24.8388 5.74568C24.8383 5.74247 24.8377 5.73855 24.8369 5.73399C24.8353 5.72488 24.833 5.71311 24.8298 5.69921C24.8233 5.67161 24.8129 5.63445 24.7965 5.59243C24.7643 5.51045 24.7039 5.39707 24.5919 5.30557L24.2756 5.69277ZM16.948 7.28497L24.034 5.7026L23.9251 5.21462L16.839 6.79699L16.948 7.28497ZM23.9796 5.45861C24.0334 5.70274 24.0334 5.70275 24.0333 5.70276C24.0333 5.70276 24.0333 5.70277 24.0332 5.70278C24.0332 5.70279 24.0331 5.7028 24.0331 5.70281C24.033 5.70283 24.0329 5.70285 24.0328 5.70286C24.0327 5.70289 24.0327 5.7029 24.0327 5.7029C24.0327 5.70289 24.0331 5.70282 24.0336 5.7027C24.0348 5.70246 24.037 5.70201 24.0402 5.70141C24.0465 5.70021 24.0564 5.69843 24.069 5.69652C24.0946 5.69263 24.129 5.68854 24.1654 5.68714C24.2028 5.68569 24.2356 5.6874 24.2603 5.69194C24.2874 5.69692 24.2869 5.702 24.2756 5.69277L24.5919 5.30557C24.5128 5.24092 24.4215 5.21321 24.3507 5.20019C24.2776 5.18673 24.2053 5.18523 24.1462 5.18751C24.086 5.18982 24.0322 5.19637 23.9939 5.2022C23.9745 5.20514 23.9584 5.20799 23.9468 5.21021C23.941 5.21131 23.9362 5.21227 23.9327 5.213C23.9309 5.21337 23.9294 5.21368 23.9282 5.21393C23.9277 5.21406 23.9271 5.21417 23.9267 5.21426C23.9265 5.21431 23.9263 5.21435 23.9261 5.21439C23.926 5.21441 23.926 5.21442 23.9259 5.21444C23.9258 5.21445 23.9258 5.21446 23.9258 5.21446C23.9257 5.21448 23.9257 5.21449 23.9796 5.45861ZM24.3419 5.78504L24.3419 6.8922L24.8419 6.8922L24.8419 5.78504L24.3419 5.78504ZM24.5871 6.64225L16.8887 6.79102L16.8983 7.29093L24.5968 7.14215L24.5871 6.64225Z" fill="#E8DDFF"/>
<path fill-rule="evenodd" clip-rule="evenodd" d="M35 27.123H25.8334V34.123C25.8334 34.3992 26.0572 34.623 26.3334 34.623H34.5C34.7762 34.623 35 34.3992 35 34.123V27.123ZM34.154 28.163H26.8734V33.3634H34.154V28.163Z" fill="#E8DDFF"/>
<rect x="33.3333" y="30.0391" width="0.833336" height="1.66667" fill="#E8DDFF"/>
<path d="M33.6853 26.2753C33.6853 26.2753 33.6628 26.1003 33.5271 25.9894C33.3914 25.8785 33.0729 25.9488 33.0729 25.9488L25.9869 27.5312L33.6853 27.3824L33.6853 26.2753Z" fill="#E8DDFF"/>
<path d="M33.5271 25.9894L33.369 26.183L33.369 26.183L33.5271 25.9894ZM33.6853 26.2753L33.9353 26.2753L33.9353 26.2593L33.9333 26.2434L33.6853 26.2753ZM25.9869 27.5312L25.9324 27.2872L25.9917 27.7812L25.9869 27.5312ZM33.0729 25.9488L33.0191 25.7047L33.0185 25.7049L33.0729 25.9488ZM33.6853 27.3824L33.6901 27.6324L33.9353 27.6277L33.9353 27.3824L33.6853 27.3824ZM33.369 26.183C33.3927 26.2024 33.4113 26.2319 33.4244 26.2651C33.4305 26.2807 33.4342 26.2943 33.4362 26.3029C33.4372 26.3072 33.4377 26.3099 33.4379 26.3108C33.4379 26.3113 33.4379 26.3112 33.4378 26.3106C33.4378 26.3103 33.4377 26.3099 33.4376 26.3093C33.4376 26.309 33.4376 26.3087 33.4375 26.3083C33.4375 26.3082 33.4375 26.308 33.4374 26.3078C33.4374 26.3077 33.4374 26.3076 33.4374 26.3075C33.4374 26.3074 33.4374 26.3073 33.4374 26.3073C33.4374 26.3072 33.4373 26.3071 33.6853 26.2753C33.9333 26.2434 33.9333 26.2433 33.9333 26.2432C33.9332 26.2432 33.9332 26.2431 33.9332 26.2431C33.9332 26.243 33.9332 26.2428 33.9332 26.2427C33.9332 26.2425 33.9331 26.2422 33.9331 26.2419C33.933 26.2414 33.9329 26.2408 33.9328 26.2402C33.9327 26.239 33.9325 26.2375 33.9322 26.2359C33.9317 26.2327 33.9311 26.2288 33.9303 26.2242C33.9287 26.2151 33.9264 26.2033 33.9232 26.1894C33.9167 26.1618 33.9063 26.1247 33.8899 26.0827C33.8577 26.0007 33.7973 25.8873 33.6853 25.7958L33.369 26.183ZM26.0414 27.7752L33.1274 26.1928L33.0185 25.7049L25.9324 27.2872L26.0414 27.7752ZM33.0729 25.9488C33.1268 26.193 33.1268 26.193 33.1267 26.193C33.1267 26.193 33.1267 26.193 33.1266 26.193C33.1266 26.193 33.1265 26.193 33.1265 26.193C33.1264 26.1931 33.1263 26.1931 33.1262 26.1931C33.1261 26.1931 33.1261 26.1931 33.1261 26.1931C33.1261 26.1931 33.1264 26.1931 33.127 26.1929C33.1282 26.1927 33.1304 26.1922 33.1336 26.1916C33.1399 26.1904 33.1498 26.1887 33.1624 26.1868C33.188 26.1829 33.2223 26.1788 33.2588 26.1774C33.2962 26.1759 33.329 26.1776 33.3537 26.1822C33.3808 26.1872 33.3803 26.1922 33.369 26.183L33.6853 25.7958C33.6062 25.7311 33.5149 25.7034 33.4441 25.6904C33.371 25.677 33.2987 25.6755 33.2395 25.6777C33.1794 25.6801 33.1256 25.6866 33.0873 25.6924C33.0679 25.6954 33.0518 25.6982 33.0402 25.7004C33.0344 25.7015 33.0296 25.7025 33.0261 25.7032C33.0243 25.7036 33.0228 25.7039 33.0216 25.7042C33.021 25.7043 33.0205 25.7044 33.0201 25.7045C33.0199 25.7045 33.0197 25.7046 33.0195 25.7046C33.0194 25.7046 33.0193 25.7047 33.0193 25.7047C33.0192 25.7047 33.0192 25.7047 33.0192 25.7047C33.0191 25.7047 33.0191 25.7047 33.0729 25.9488ZM33.4353 26.2753L33.4353 27.3824L33.9353 27.3824L33.9353 26.2753L33.4353 26.2753ZM33.6805 27.1325L25.982 27.2813L25.9917 27.7812L33.6901 27.6324L33.6805 27.1325Z" fill="#E8DDFF"/>
<rect x="8.53101" y="19.2969" width="11.7665" height="0.833333" transform="rotate(-45 8.53101 19.2969)" fill="#E8DDFF"/>
<rect x="26.0267" y="30.873" width="7.46687" height="0.833334" transform="rotate(-154.676 26.0267 30.873)" fill="#E8DDFF"/>
</svg>
