<svg width="40" height="40" viewBox="0 0 40 40" fill="none" xmlns="http://www.w3.org/2000/svg">
<path fill-rule="evenodd" clip-rule="evenodd" d="M35 10.3477H5V32.681C5 33.2333 5.44772 33.681 6 33.681H34C34.5523 33.681 35 33.2333 35 32.681V10.3477ZM31.6667 13.681H8.33333V30.3477H31.6667V13.681Z" fill="#C3E7FF"/>
<rect x="30" y="20.3477" width="5" height="3.33333" fill="#C3E7FF"/>
<path d="M30.8333 7.62586C30.8333 7.62586 30.7611 7.06396 30.3255 6.70803C29.8898 6.35209 28.8672 6.5778 28.8672 6.5778L5.83325 11.1807L30.8333 11.1807L30.8333 7.62586Z" fill="#C3E7FF" fill-opacity="0.1"/>
<path d="M30.3255 6.70803L30.1673 6.90163L30.3255 6.70803ZM30.8333 7.62586L31.0833 7.62586L31.0833 7.60986L31.0813 7.594L30.8333 7.62586ZM5.83325 11.1807L5.78426 10.9355L5.83325 11.4307L5.83325 11.1807ZM28.8672 6.5778L28.9162 6.823L28.921 6.82193L28.8672 6.5778ZM30.8333 11.1807L30.8333 11.4307L31.0833 11.4307L31.0833 11.1807L30.8333 11.1807ZM30.1673 6.90163C30.341 7.04353 30.4471 7.23107 30.51 7.39166C30.5411 7.47093 30.5604 7.54047 30.5718 7.58925C30.5774 7.61354 30.581 7.63237 30.5831 7.64433C30.5842 7.6503 30.5849 7.65452 30.5852 7.65682C30.5854 7.65797 30.5855 7.65863 30.5855 7.65879C30.5855 7.65887 30.5855 7.65882 30.5855 7.65864C30.5855 7.65855 30.5855 7.65843 30.5854 7.65828C30.5854 7.6582 30.5854 7.65811 30.5854 7.65802C30.5854 7.65797 30.5854 7.6579 30.5854 7.65787C30.5854 7.6578 30.5854 7.65771 30.8333 7.62586C31.0813 7.594 31.0813 7.59391 31.0813 7.59382C31.0813 7.59379 31.0812 7.5937 31.0812 7.59364C31.0812 7.59351 31.0812 7.59337 31.0812 7.59323C31.0811 7.59294 31.0811 7.59261 31.0811 7.59225C31.081 7.59153 31.0808 7.59067 31.0807 7.58968C31.0804 7.58769 31.0801 7.58515 31.0796 7.5821C31.0787 7.57599 31.0774 7.5678 31.0756 7.5577C31.072 7.53754 31.0666 7.5097 31.0587 7.47574C31.0429 7.40805 31.017 7.31487 30.9755 7.20918C30.8935 6.99983 30.7456 6.72846 30.4836 6.51442L30.1673 6.90163ZM5.88224 11.4258L28.9161 6.82296L28.8182 6.33265L5.78426 10.9355L5.88224 11.4258ZM28.8672 6.5778C28.921 6.82193 28.921 6.82194 28.9209 6.82195C28.9209 6.82195 28.9209 6.82196 28.9209 6.82196C28.9208 6.82197 28.9208 6.82197 28.9208 6.82198C28.9208 6.82198 28.9209 6.82197 28.921 6.82194C28.9212 6.8219 28.9216 6.8218 28.9223 6.82165C28.9237 6.82135 28.926 6.82086 28.9292 6.8202C28.9356 6.81888 28.9456 6.81689 28.9586 6.8144C28.9848 6.80943 29.0234 6.80254 29.0713 6.79526C29.1676 6.78063 29.2994 6.76477 29.4425 6.75925C29.5868 6.7537 29.7357 6.75896 29.8686 6.7834C30.0039 6.80827 30.1036 6.84959 30.1673 6.90163L30.4836 6.51442C30.3295 6.3885 30.138 6.32455 29.959 6.29164C29.7776 6.25829 29.5892 6.25324 29.4233 6.25962C29.2564 6.26605 29.1053 6.28437 28.9962 6.30093C28.9414 6.30925 28.8967 6.31722 28.8653 6.3232C28.8495 6.32619 28.837 6.32869 28.8283 6.3305C28.8239 6.33141 28.8204 6.33215 28.8179 6.33268C28.8166 6.33295 28.8156 6.33317 28.8148 6.33334C28.8144 6.33342 28.8141 6.33349 28.8139 6.33355C28.8137 6.33358 28.8136 6.3336 28.8135 6.33362C28.8135 6.33363 28.8134 6.33365 28.8134 6.33365C28.8133 6.33367 28.8133 6.33368 28.8672 6.5778ZM30.5833 7.62586L30.5833 11.1807L31.0833 11.1807L31.0833 7.62586L30.5833 7.62586ZM30.8333 10.9307L5.83325 10.9307L5.83325 11.4307L30.8333 11.4307L30.8333 10.9307Z" fill="#C3E7FF"/>
</svg>
