<svg width="40" height="40" viewBox="0 0 40 40" fill="none" xmlns="http://www.w3.org/2000/svg">
<path fill-rule="evenodd" clip-rule="evenodd" d="M35 10.3477H5V32.681C5 33.2333 5.44772 33.681 6 33.681H34C34.5523 33.681 35 33.2333 35 32.681V10.3477ZM31.6667 13.681H8.33333V30.3477H31.6667V13.681Z" fill="#00658D"/>
<rect x="30" y="20.3477" width="5" height="3.33333" fill="#00658D"/>
<path d="M30.8331 7.62683C30.8331 7.62683 30.7609 7.06494 30.3252 6.709C29.8895 6.35307 28.8669 6.57878 28.8669 6.57878L5.83301 11.1816L30.8331 11.1816L30.8331 7.62683Z" fill="#00658D" fill-opacity="0.1"/>
<path d="M30.3252 6.709L30.167 6.90261L30.3252 6.709ZM30.8331 7.62683L31.0831 7.62683L31.0831 7.61084L31.081 7.59497L30.8331 7.62683ZM5.83301 11.1816L5.78402 10.9365L5.83301 11.4316L5.83301 11.1816ZM28.8669 6.57878L28.9159 6.82398L28.9208 6.8229L28.8669 6.57878ZM30.8331 11.1816L30.8331 11.4316L31.0831 11.4316L31.0831 11.1816L30.8331 11.1816ZM30.167 6.90261C30.3407 7.0445 30.4468 7.23205 30.5098 7.39263C30.5408 7.47191 30.5601 7.54145 30.5715 7.59023C30.5772 7.61451 30.5808 7.63335 30.5829 7.6453C30.584 7.65127 30.5846 7.6555 30.585 7.6578C30.5851 7.65894 30.5852 7.65961 30.5853 7.65977C30.5853 7.65984 30.5853 7.6598 30.5852 7.65962C30.5852 7.65953 30.5852 7.65941 30.5852 7.65925C30.5852 7.65918 30.5852 7.65909 30.5852 7.659C30.5851 7.65895 30.5851 7.65887 30.5851 7.65885C30.5851 7.65877 30.5851 7.65869 30.8331 7.62683C31.081 7.59497 31.081 7.59489 31.081 7.5948C31.081 7.59477 31.081 7.59468 31.081 7.59462C31.081 7.59449 31.081 7.59435 31.0809 7.59421C31.0809 7.59391 31.0809 7.59359 31.0808 7.59323C31.0807 7.59251 31.0806 7.59165 31.0805 7.59065C31.0802 7.58866 31.0798 7.58613 31.0794 7.58307C31.0784 7.57697 31.0771 7.56877 31.0753 7.55868C31.0718 7.53852 31.0664 7.51067 31.0585 7.47672C31.0427 7.40903 31.0167 7.31585 30.9753 7.21015C30.8932 7.00081 30.7454 6.72944 30.4834 6.5154L30.167 6.90261ZM5.88199 11.4268L28.9159 6.82393L28.8179 6.33363L5.78402 10.9365L5.88199 11.4268ZM28.8669 6.57878C28.9208 6.8229 28.9207 6.82291 28.9207 6.82292C28.9207 6.82293 28.9207 6.82293 28.9206 6.82294C28.9206 6.82295 28.9206 6.82295 28.9206 6.82295C28.9206 6.82295 28.9206 6.82294 28.9207 6.82292C28.9209 6.82287 28.9214 6.82277 28.9221 6.82263C28.9235 6.82233 28.9258 6.82184 28.929 6.82118C28.9354 6.81986 28.9453 6.81786 28.9584 6.81538C28.9845 6.81041 29.0231 6.80352 29.0711 6.79624C29.1674 6.78161 29.2991 6.76574 29.4423 6.76023C29.5865 6.75468 29.7354 6.75994 29.8683 6.78437C30.0036 6.80925 30.1033 6.85056 30.167 6.90261L30.4834 6.5154C30.3293 6.38948 30.1378 6.32553 29.9588 6.29262C29.7774 6.25927 29.589 6.25422 29.4231 6.2606C29.2561 6.26703 29.105 6.28534 28.996 6.30191C28.9412 6.31023 28.8965 6.31819 28.865 6.32417C28.8493 6.32717 28.8368 6.32967 28.828 6.33148C28.8236 6.33239 28.8201 6.33312 28.8176 6.33366C28.8164 6.33393 28.8154 6.33415 28.8146 6.33431C28.8142 6.3344 28.8139 6.33447 28.8136 6.33452C28.8135 6.33455 28.8134 6.33458 28.8133 6.3346C28.8132 6.33461 28.8132 6.33462 28.8131 6.33463C28.8131 6.33464 28.813 6.33465 28.8669 6.57878ZM30.5831 7.62683L30.5831 11.1816L31.0831 11.1816L31.0831 7.62683L30.5831 7.62683ZM30.8331 10.9316L5.83301 10.9316L5.83301 11.4316L30.8331 11.4316L30.8331 10.9316Z" fill="#00658D"/>
</svg>
