<svg id="svg" version="1.1" xmlns="http://www.w3.org/2000/svg" xmlns:xlink="http://www.w3.org/1999/xlink" width="400" height="400" viewBox="0, 0, 400,400"><g id="svgg"><path id="path0" d="M197.266 14.832 C 191.178 16.000,185.129 20.380,182.219 25.725 C 181.543 26.969,180.949 27.609,180.529 27.549 C 180.174 27.498,180.119 27.535,180.407 27.631 C 180.752 27.745,180.839 28.096,180.662 28.649 C 177.577 38.290,180.800 48.717,188.405 53.700 L 189.453 54.387 189.453 81.305 L 189.453 108.222 188.574 108.548 C 188.091 108.727,186.729 108.990,185.547 109.132 C 179.480 109.863,169.323 113.020,161.133 116.718 C 139.812 126.346,122.013 143.693,112.152 164.453 C 108.888 171.326,105.469 181.147,105.469 183.651 C 105.469 184.239,105.318 184.813,105.134 184.926 C 104.592 185.262,103.287 192.563,102.731 198.381 C 101.834 207.758,102.649 220.394,104.675 228.516 C 104.916 229.482,105.356 231.328,105.651 232.617 C 106.434 236.027,109.197 243.748,111.220 248.180 C 112.185 250.295,112.824 252.155,112.640 252.315 C 112.456 252.474,110.723 253.577,108.789 254.766 C 97.555 261.671,70.819 278.289,70.379 278.639 C 69.972 278.964,70.151 279.202,71.204 279.743 C 76.557 282.489,81.250 290.825,81.250 297.587 L 81.250 300.334 94.824 291.913 C 102.290 287.281,109.058 283.075,109.863 282.566 C 110.669 282.057,111.987 281.224,112.793 280.714 C 113.599 280.205,117.010 278.092,120.374 276.020 L 126.490 272.252 130.921 276.795 C 143.167 289.351,158.964 298.669,175.851 303.298 C 177.854 303.847,179.940 304.296,180.488 304.297 C 181.036 304.297,181.655 304.468,181.864 304.676 C 182.709 305.522,196.052 307.020,202.791 307.027 C 230.653 307.053,256.967 295.674,276.490 275.159 L 281.247 270.161 283.494 271.732 C 285.308 273.000,311.373 291.752,318.848 297.167 L 320.703 298.511 320.703 297.321 C 320.703 291.557,325.158 283.872,330.511 280.403 L 332.426 279.163 330.746 277.960 C 328.889 276.632,302.242 257.438,297.047 253.688 C 295.244 252.386,293.665 251.217,293.537 251.089 C 293.409 250.961,293.661 250.159,294.096 249.307 C 300.688 236.385,304.468 215.839,303.166 200.000 C 302.395 190.613,301.256 185.064,298.213 175.882 C 289.211 148.714,266.686 124.855,240.709 114.972 C 234.432 112.585,229.163 110.938,227.799 110.938 C 226.990 110.938,226.161 110.791,225.957 110.613 C 225.366 110.095,222.807 109.498,217.871 108.726 L 213.281 108.008 213.281 81.129 L 213.281 54.250 216.153 51.441 C 231.066 36.858,217.681 10.914,197.266 14.832 M68.737 82.715 L 66.602 84.961 68.848 82.826 C 70.934 80.842,71.273 80.469,70.983 80.469 C 70.922 80.469,69.911 81.479,68.737 82.715 M193.513 136.555 C 193.643 136.895,193.750 139.185,193.750 141.645 L 193.750 146.116 198.926 146.007 L 204.102 145.898 204.211 140.908 L 204.320 135.918 210.461 136.025 L 216.602 136.133 216.797 141.406 L 216.992 146.680 219.727 146.935 C 230.754 147.967,236.970 151.283,242.922 159.312 C 253.007 172.915,249.754 194.403,236.426 202.225 C 234.296 203.475,234.303 203.495,237.411 204.883 C 253.298 211.976,259.744 232.380,251.366 249.057 C 246.225 259.291,236.376 265.554,222.461 267.437 C 219.883 267.786,217.554 268.131,217.285 268.203 C 216.926 268.300,216.797 269.684,216.797 273.425 L 216.797 278.516 210.547 278.516 L 204.297 278.516 204.297 273.633 L 204.297 268.750 199.035 268.750 L 193.774 268.750 193.664 273.535 L 193.555 278.320 187.305 278.320 L 181.055 278.320 180.945 273.535 L 180.835 268.750 171.130 268.750 C 163.355 268.750,161.335 268.643,160.977 268.211 C 160.667 267.838,160.562 265.407,160.636 260.301 L 160.742 252.930 168.262 252.824 L 175.781 252.718 175.781 207.413 L 175.781 162.109 168.603 162.109 C 159.712 162.109,160.502 162.946,160.636 153.660 L 160.742 146.289 170.801 146.185 L 180.859 146.081 180.859 141.269 C 180.859 138.623,180.977 136.341,181.120 136.198 C 181.737 135.580,193.266 135.913,193.513 136.555 M195.015 179.395 L 195.117 196.680 201.367 196.795 C 207.720 196.913,216.037 196.375,217.660 195.742 C 218.152 195.551,219.264 195.184,220.132 194.927 C 230.784 191.777,233.381 173.685,224.221 166.444 C 219.950 163.069,215.393 162.110,203.609 162.110 L 194.914 162.109 195.015 179.395 M42.346 206.445 C 42.346 209.883,42.406 211.237,42.478 209.454 C 42.551 207.671,42.551 204.859,42.478 203.204 C 42.404 201.549,42.345 203.008,42.346 206.445 M195.122 212.933 C 195.008 213.232,194.960 222.266,195.016 233.008 L 195.117 252.539 205.078 252.495 C 226.278 252.400,233.053 248.931,235.398 236.967 C 237.756 224.939,232.013 216.307,219.727 213.412 C 216.231 212.588,195.410 212.183,195.122 212.933 M59.473 276.441 C 59.849 276.539,60.464 276.539,60.840 276.441 C 61.216 276.343,60.908 276.263,60.156 276.263 C 59.404 276.263,59.097 276.343,59.473 276.441 M77.339 310.598 C 73.600 315.733,68.888 318.534,62.053 319.685 L 59.347 320.141 63.101 324.546 C 98.704 366.327,154.456 390.418,208.861 387.530 C 260.662 384.781,307.837 361.866,339.602 324.023 L 342.553 320.508 340.187 320.235 C 333.755 319.492,325.740 314.380,323.849 309.816 C 323.173 308.183,323.189 308.175,320.376 311.479 C 300.803 334.470,270.506 352.790,239.258 360.528 C 181.916 374.728,118.835 354.972,81.384 311.085 L 79.010 308.303 77.339 310.598 " stroke="none" fill="#f39c15" fill-rule="evenodd"></path><path id="path1" d="M177.148 27.940 C 162.674 29.822,142.992 35.008,132.508 39.702 C 131.374 40.210,130.346 40.625,130.223 40.625 C 129.911 40.625,127.994 41.499,121.484 44.610 C 31.593 87.568,-5.907 195.311,37.856 284.888 L 39.729 288.721 38.746 291.333 C 31.302 311.127,57.165 328.527,73.525 314.732 C 88.330 302.248,79.797 276.563,60.846 276.563 L 59.109 276.563 57.817 273.926 C 22.593 202.006,49.016 113.763,118.305 71.913 C 137.170 60.519,161.346 52.182,181.348 50.174 C 182.798 50.028,183.984 49.849,183.984 49.777 C 183.984 49.704,183.561 49.020,183.043 48.257 C 179.557 43.120,178.384 34.952,180.362 29.590 C 180.818 28.354,181.160 27.363,181.123 27.388 C 181.085 27.412,179.297 27.660,177.148 27.940 " stroke="none" fill="#c40505" fill-rule="evenodd"></path><path id="path2" d="M0.000 200.000 L 0.000 400.000 200.000 400.000 L 400.000 400.000 400.000 200.000 L 400.000 0.000 200.000 0.000 L 0.000 0.000 0.000 200.000 M206.445 15.018 C 211.659 16.248,217.594 20.827,219.944 25.435 C 220.918 27.342,220.733 27.264,225.807 27.933 C 301.991 37.981,364.474 96.754,379.046 172.070 C 386.441 210.294,380.747 252.073,363.561 285.693 L 361.989 288.770 362.873 291.162 C 367.562 303.844,357.320 320.240,344.669 320.304 C 343.081 320.312,342.964 320.411,338.764 325.293 C 323.596 342.921,304.040 358.120,283.202 368.476 C 274.081 373.009,268.482 375.365,259.570 378.418 C 248.523 382.203,231.304 386.012,221.289 386.885 C 219.785 387.017,216.445 387.302,213.867 387.520 C 185.037 389.958,152.007 383.931,124.609 371.232 C 100.965 360.273,78.517 343.302,62.694 324.422 L 59.019 320.038 56.560 319.802 C 43.321 318.529,33.783 303.076,38.593 290.691 L 39.402 288.609 36.984 283.660 C 35.655 280.938,34.270 278.008,33.906 277.148 C 33.543 276.289,32.867 274.707,32.403 273.633 C 31.940 272.559,30.772 269.482,29.808 266.797 C -5.075 169.630,49.156 63.254,148.633 33.716 C 158.695 30.729,175.544 27.344,180.355 27.344 C 180.626 27.344,181.568 26.202,182.449 24.807 C 187.569 16.701,197.099 12.813,206.445 15.018 M177.344 51.027 C 72.488 67.185,12.733 177.622,57.477 272.557 L 59.180 276.169 60.742 276.180 C 62.759 276.194,65.303 276.767,67.846 277.779 L 69.872 278.586 82.299 270.880 C 95.699 262.572,96.658 261.975,99.023 260.469 C 99.883 259.922,103.047 257.960,106.055 256.109 C 109.063 254.259,111.761 252.589,112.051 252.399 C 112.475 252.121,112.334 251.529,111.329 249.367 C 108.819 243.971,105.649 235.111,105.219 232.291 C 105.083 231.396,104.824 230.376,104.644 230.024 C 102.015 224.887,101.267 202.632,103.326 190.820 C 104.161 186.028,104.370 185.157,104.738 184.930 C 104.925 184.814,105.078 184.258,105.078 183.693 C 105.078 180.687,109.089 169.700,112.948 162.139 C 124.445 139.609,145.818 120.887,168.945 113.089 C 172.113 112.021,179.528 109.828,180.664 109.624 C 182.087 109.368,186.053 108.678,187.793 108.383 L 189.063 108.168 189.063 81.305 L 189.063 54.442 187.299 53.121 C 186.330 52.395,185.271 51.395,184.947 50.900 C 184.622 50.405,184.141 50.021,183.878 50.047 C 183.614 50.073,180.674 50.514,177.344 51.027 M215.723 52.300 L 213.281 54.526 213.281 81.072 L 213.281 107.618 217.871 108.336 C 222.807 109.108,225.366 109.705,225.957 110.222 C 226.161 110.401,226.906 110.547,227.613 110.547 C 232.184 110.547,248.770 117.610,257.501 123.274 C 294.880 147.523,311.931 191.923,300.095 234.180 C 298.987 238.134,295.830 246.673,294.543 249.196 C 294.077 250.109,293.752 250.908,293.820 250.971 C 295.349 252.369,332.074 278.612,332.557 278.652 C 332.805 278.672,334.157 278.316,335.561 277.860 C 336.965 277.403,339.075 276.910,340.250 276.763 C 342.231 276.516,342.433 276.393,343.044 275.065 C 345.838 268.984,346.783 266.810,348.423 262.695 C 359.237 235.561,361.884 204.286,355.861 174.805 C 346.777 130.346,318.690 91.973,278.906 69.668 C 274.671 67.293,265.913 62.891,265.425 62.891 C 265.333 62.891,264.242 62.424,263.000 61.854 C 253.301 57.402,237.147 52.860,224.414 51.006 C 222.051 50.662,219.678 50.311,219.141 50.228 C 218.387 50.110,217.606 50.583,215.723 52.300 M181.442 136.806 C 181.342 137.080,181.214 139.326,181.158 141.797 L 181.055 146.289 171.094 146.484 L 161.133 146.680 161.133 154.102 L 161.133 161.523 168.654 161.630 L 176.175 161.736 176.076 207.333 L 175.977 252.930 168.555 253.125 L 161.133 253.320 161.133 260.742 L 161.133 268.164 171.191 268.268 L 181.250 268.373 181.250 273.249 L 181.250 278.125 187.305 278.125 L 193.359 278.125 193.359 273.231 L 193.359 268.338 198.926 268.446 L 204.492 268.555 204.602 273.340 L 204.712 278.125 210.548 278.125 L 216.384 278.125 216.493 272.949 L 216.602 267.773 217.773 267.666 C 241.622 265.483,254.488 253.526,254.437 233.594 C 254.403 219.889,247.852 209.490,236.230 204.690 C 233.632 203.617,233.527 203.381,235.254 202.489 C 249.141 195.311,252.892 173.288,242.595 159.398 C 236.920 151.743,230.453 148.263,220.313 147.406 C 216.045 147.046,216.406 147.584,216.406 141.594 L 216.406 136.328 210.547 136.328 L 204.688 136.328 204.688 140.788 C 204.688 146.970,205.190 146.484,198.798 146.484 L 193.383 146.484 193.273 141.504 L 193.164 136.523 187.394 136.415 C 182.990 136.333,181.581 136.425,181.442 136.806 M215.235 162.268 C 225.381 164.463,230.063 169.756,230.074 179.045 C 230.085 187.746,226.447 193.274,219.131 195.676 C 214.319 197.256,195.293 198.015,194.768 196.648 C 194.444 195.802,194.466 162.305,194.792 161.979 C 195.318 161.453,212.595 161.697,215.235 162.268 M219.727 213.029 C 229.915 215.473,235.081 220.814,236.078 229.936 C 237.373 241.782,230.931 250.326,219.306 252.179 C 213.790 253.059,195.364 253.444,194.886 252.690 C 194.492 252.068,194.399 213.690,194.789 212.674 C 195.127 211.793,215.802 212.088,219.727 213.029 M276.928 275.112 C 257.085 296.080,230.921 307.443,202.539 307.417 C 196.349 307.411,183.412 305.984,181.735 305.121 C 181.361 304.929,179.912 304.566,178.516 304.314 C 163.567 301.623,145.355 291.347,131.625 277.857 L 126.337 272.660 124.008 274.079 C 122.727 274.860,121.064 275.891,120.313 276.370 C 114.753 279.911,82.768 299.651,82.297 299.832 C 81.971 299.957,81.491 300.969,81.229 302.080 C 80.968 303.192,80.411 305.031,79.992 306.168 L 79.229 308.234 81.885 311.246 C 131.865 367.927,213.602 381.201,280.793 343.550 C 294.269 335.998,311.976 321.388,320.932 310.430 L 322.783 308.165 322.163 306.865 C 321.563 305.608,320.814 302.210,320.608 299.815 C 320.518 298.766,319.003 297.570,305.031 287.510 C 296.519 281.382,287.715 275.026,285.467 273.387 L 281.380 270.408 276.928 275.112 " stroke="none" fill="#fbfbfb" fill-rule="evenodd"></path><path id="path3" d="M221.268 28.489 C 223.914 33.676,222.804 42.654,218.771 48.681 L 217.954 49.902 221.770 50.370 C 325.934 63.144,388.629 174.930,345.319 270.660 C 342.484 276.925,342.675 276.723,339.120 277.241 C 321.593 279.796,314.569 301.513,327.247 313.953 C 343.425 329.828,370.404 312.724,362.694 291.481 L 361.755 288.894 363.666 284.975 C 395.704 219.285,385.339 142.328,337.096 87.695 C 308.140 54.903,267.405 33.284,224.538 27.955 L 220.756 27.485 221.268 28.489 " stroke="none" fill="#94d454" fill-rule="evenodd"></path><path id="path4" d="M207.031 15.317 C 207.139 15.422,207.838 15.716,208.585 15.968 C 209.332 16.221,209.771 16.259,209.561 16.054 C 209.351 15.848,208.652 15.555,208.008 15.402 C 207.363 15.250,206.924 15.211,207.031 15.317 M189.551 17.574 C 188.853 18.000,188.281 18.432,188.281 18.536 C 188.281 18.639,188.896 18.361,189.648 17.917 C 190.400 17.473,191.016 17.040,191.016 16.954 C 191.016 16.704,190.892 16.756,189.551 17.574 M185.510 20.996 C 183.968 22.617,181.973 25.078,183.056 24.023 C 184.219 22.891,187.590 19.141,187.444 19.141 C 187.351 19.141,186.481 19.976,185.510 20.996 M219.336 25.000 C 219.669 25.645,220.030 26.172,220.137 26.172 C 220.245 26.172,220.060 25.645,219.727 25.000 C 219.393 24.355,219.033 23.828,218.925 23.828 C 218.818 23.828,219.003 24.355,219.336 25.000 M181.679 26.000 C 181.227 26.765,181.035 27.281,181.252 27.147 C 181.675 26.886,182.943 24.609,182.666 24.609 C 182.574 24.609,182.130 25.235,181.679 26.000 M220.653 27.051 C 220.948 27.427,221.563 27.714,222.020 27.689 C 222.810 27.646,222.812 27.634,222.070 27.452 C 221.641 27.346,221.025 27.059,220.703 26.813 C 220.194 26.425,220.187 26.456,220.653 27.051 M254.102 34.375 C 254.531 34.560,255.146 34.711,255.469 34.711 C 255.838 34.711,255.766 34.587,255.273 34.375 C 254.844 34.190,254.229 34.039,253.906 34.039 C 253.537 34.039,253.609 34.163,254.102 34.375 M215.430 52.223 C 214.031 53.529,213.716 53.931,214.648 53.221 C 216.122 52.098,218.300 49.979,217.939 50.018 C 217.848 50.028,216.719 51.020,215.430 52.223 M179.004 50.660 C 179.380 50.758,179.995 50.758,180.371 50.660 C 180.747 50.562,180.439 50.481,179.688 50.481 C 178.936 50.481,178.628 50.562,179.004 50.660 M224.707 51.051 C 225.083 51.149,225.698 51.149,226.074 51.051 C 226.450 50.952,226.143 50.872,225.391 50.872 C 224.639 50.872,224.331 50.952,224.707 51.051 M188.970 81.048 L 189.073 108.116 188.189 108.326 C 187.703 108.441,186.250 108.658,184.961 108.808 C 183.672 108.957,182.354 109.242,182.031 109.441 C 181.577 109.722,181.621 109.760,182.227 109.612 C 182.656 109.507,184.063 109.300,185.352 109.151 C 186.641 109.002,188.091 108.732,188.574 108.551 L 189.453 108.222 189.453 81.283 C 189.453 66.466,189.321 54.261,189.160 54.162 C 188.999 54.062,188.913 66.161,188.970 81.048 M77.130 74.316 L 75.586 75.977 77.246 74.432 C 78.159 73.583,78.906 72.836,78.906 72.772 C 78.906 72.477,78.566 72.772,77.130 74.316 M323.438 73.545 C 323.438 73.604,324.800 74.966,326.465 76.572 L 329.492 79.492 326.572 76.465 C 323.860 73.653,323.438 73.259,323.438 73.545 M289.453 75.923 C 289.453 76.031,289.980 76.494,290.625 76.953 C 291.270 77.412,291.797 77.700,291.797 77.592 C 291.797 77.485,291.270 77.021,290.625 76.563 C 289.980 76.104,289.453 75.816,289.453 75.923 M332.227 82.422 C 333.502 83.711,334.634 84.766,334.741 84.766 C 334.849 84.766,333.893 83.711,332.617 82.422 C 331.342 81.133,330.210 80.078,330.103 80.078 C 329.995 80.078,330.951 81.133,332.227 82.422 M335.938 86.450 C 335.938 86.518,336.509 87.089,337.207 87.720 L 338.477 88.867 337.329 87.598 C 336.260 86.414,335.938 86.149,335.938 86.450 M95.093 89.160 L 93.945 90.430 95.215 89.282 C 96.398 88.213,96.664 87.891,96.362 87.891 C 96.295 87.891,95.724 88.462,95.093 89.160 M308.398 91.016 C 309.238 91.875,310.012 92.578,310.119 92.578 C 310.227 92.578,309.628 91.875,308.789 91.016 C 307.950 90.156,307.175 89.453,307.068 89.453 C 306.961 89.453,307.559 90.156,308.398 91.016 M87.884 95.996 L 83.789 100.195 87.988 96.101 C 90.298 93.849,92.188 91.959,92.188 91.902 C 92.188 91.619,91.687 92.096,87.884 95.996 M317.383 100.000 C 318.222 100.859,318.996 101.563,319.104 101.563 C 319.211 101.563,318.613 100.859,317.773 100.000 C 316.934 99.141,316.160 98.438,316.052 98.438 C 315.945 98.438,316.544 99.141,317.383 100.000 M217.383 108.609 C 222.981 109.565,225.770 110.212,226.018 110.614 C 226.128 110.792,226.955 110.909,227.855 110.875 C 229.407 110.816,229.421 110.805,228.125 110.668 C 227.373 110.588,226.406 110.369,225.977 110.180 C 225.547 109.991,224.844 109.721,224.414 109.581 C 223.129 109.160,215.116 107.818,214.063 107.848 C 213.525 107.863,215.020 108.206,217.383 108.609 M175.195 111.128 C 170.322 112.740,170.691 112.894,175.738 111.355 C 177.803 110.726,179.932 110.134,180.469 110.041 C 181.320 109.894,181.295 109.870,180.273 109.854 C 179.629 109.845,177.344 110.418,175.195 111.128 M231.836 111.705 C 232.266 111.915,234.902 112.901,237.695 113.897 C 268.722 124.958,291.784 150.654,300.778 184.180 C 300.950 184.824,301.110 185.033,301.132 184.644 C 301.204 183.370,297.887 173.266,295.790 168.369 C 285.013 143.210,263.342 122.695,237.891 113.562 C 232.781 111.728,230.364 110.987,231.836 111.705 M169.336 112.886 C 168.906 113.069,167.236 113.748,165.625 114.394 C 142.563 123.641,124.014 140.453,112.948 162.139 C 109.089 169.700,105.078 180.687,105.078 183.693 C 105.078 184.258,104.927 184.813,104.743 184.926 C 104.440 185.114,104.188 186.181,103.113 191.823 C 102.926 192.804,102.683 195.265,102.573 197.292 L 102.372 200.977 102.899 196.680 C 103.189 194.316,103.543 191.768,103.684 191.016 C 103.826 190.264,104.135 188.633,104.371 187.391 C 104.606 186.149,104.950 185.040,105.134 184.926 C 105.318 184.813,105.469 184.239,105.469 183.651 C 105.469 182.159,107.184 176.405,109.025 171.719 C 119.532 144.976,139.181 125.421,166.602 114.417 C 169.180 113.382,171.025 112.540,170.703 112.544 C 170.381 112.549,169.766 112.703,169.336 112.886 M364.481 128.711 C 364.481 128.926,364.732 129.541,365.039 130.078 C 365.346 130.615,365.597 130.879,365.597 130.664 C 365.597 130.449,365.346 129.834,365.039 129.297 C 364.732 128.760,364.481 128.496,364.481 128.711 M181.120 136.198 C 180.977 136.341,180.859 138.623,180.859 141.269 L 180.859 146.081 170.801 146.185 L 160.742 146.289 160.636 153.660 C 160.502 162.946,159.712 162.109,168.603 162.109 L 175.781 162.109 175.781 207.413 L 175.781 252.718 168.262 252.824 L 160.742 252.930 160.636 260.301 C 160.562 265.407,160.667 267.838,160.977 268.211 C 161.335 268.643,163.355 268.750,171.130 268.750 L 180.835 268.750 180.945 273.535 L 181.055 278.320 187.305 278.320 L 193.555 278.320 193.664 273.535 L 193.774 268.750 199.035 268.750 L 204.297 268.750 204.297 273.633 L 204.297 278.516 210.547 278.516 L 216.797 278.516 216.797 273.425 C 216.797 269.684,216.926 268.300,217.285 268.203 C 217.554 268.131,219.883 267.786,222.461 267.437 C 241.744 264.828,253.927 253.010,254.925 235.944 C 255.674 223.152,249.451 210.990,239.551 205.894 C 238.132 205.163,238.543 205.718,240.137 206.683 C 255.266 215.848,259.333 237.265,248.871 252.672 C 242.939 261.406,232.812 266.289,217.773 267.666 L 216.602 267.773 216.493 272.949 L 216.384 278.125 210.548 278.125 L 204.712 278.125 204.602 273.340 L 204.492 268.555 198.926 268.446 L 193.359 268.338 193.359 273.231 L 193.359 278.125 187.305 278.125 L 181.250 278.125 181.250 273.249 L 181.250 268.373 171.191 268.268 L 161.133 268.164 161.133 260.742 L 161.133 253.320 168.555 253.125 L 175.977 252.930 176.076 207.333 L 176.175 161.736 168.654 161.630 L 161.133 161.523 161.133 154.102 L 161.133 146.680 171.094 146.484 L 181.055 146.289 181.250 141.406 L 181.445 136.523 187.305 136.523 L 193.164 136.523 193.273 141.504 L 193.383 146.484 198.798 146.484 C 205.190 146.484,204.688 146.970,204.688 140.788 L 204.688 136.328 210.547 136.328 L 216.406 136.328 216.406 141.594 C 216.406 147.584,216.045 147.046,220.313 147.406 C 232.800 148.461,241.518 154.653,246.139 165.750 C 246.960 167.722,247.638 169.099,247.644 168.809 C 247.671 167.616,244.826 161.881,242.957 159.359 C 236.968 151.280,230.776 147.969,219.727 146.935 L 216.992 146.680 216.797 141.406 L 216.602 136.133 210.461 136.025 L 204.320 135.918 204.211 140.908 L 204.102 145.898 198.926 146.007 L 193.750 146.116 193.750 141.645 C 193.750 135.420,194.332 135.938,187.328 135.938 C 184.057 135.938,181.263 136.055,181.120 136.198 M373.661 151.953 C 373.805 152.490,374.086 153.193,374.285 153.516 C 374.536 153.923,374.567 153.804,374.385 153.125 C 374.242 152.588,373.961 151.885,373.762 151.563 C 373.511 151.155,373.480 151.274,373.661 151.953 M50.825 155.122 C 50.584 155.812,50.455 156.445,50.539 156.529 C 50.623 156.612,50.888 156.116,51.128 155.425 C 51.369 154.735,51.498 154.102,51.414 154.018 C 51.331 153.935,51.065 154.431,50.825 155.122 M375.446 157.813 C 375.446 158.135,375.597 158.750,375.781 159.180 C 375.993 159.672,376.117 159.744,376.117 159.375 C 376.117 159.053,375.966 158.438,375.781 158.008 C 375.570 157.515,375.446 157.443,375.446 157.813 M194.792 161.979 C 194.466 162.305,194.444 195.802,194.768 196.648 C 195.293 198.015,214.319 197.256,219.131 195.676 C 224.555 193.895,228.686 189.527,229.447 184.766 C 229.579 183.946,229.357 184.337,228.894 185.742 C 227.504 189.962,223.803 193.842,220.132 194.927 C 219.264 195.184,218.152 195.551,217.660 195.742 C 216.037 196.375,207.720 196.913,201.367 196.795 L 195.117 196.680 195.015 179.395 L 194.914 162.109 203.609 162.110 C 219.583 162.111,226.809 165.258,228.931 173.139 C 229.383 174.818,229.837 175.168,229.444 173.535 C 228.110 167.984,223.027 163.954,215.235 162.268 C 212.595 161.697,195.318 161.453,194.792 161.979 M377.410 165.430 C 377.404 165.859,377.550 166.563,377.734 166.992 C 378.162 167.988,378.162 166.961,377.734 165.625 C 377.483 164.840,377.419 164.802,377.410 165.430 M247.877 170.703 C 250.100 184.974,245.182 197.357,235.254 202.489 C 234.556 202.850,233.984 203.281,233.984 203.448 C 233.984 203.783,237.943 205.547,238.174 205.316 C 238.254 205.236,237.520 204.842,236.544 204.441 C 234.363 203.544,234.358 203.439,236.426 202.225 C 245.579 196.853,251.113 182.440,248.229 171.484 C 247.918 170.303,247.760 169.951,247.877 170.703 M229.834 179.102 C 229.835 181.465,229.899 182.381,229.977 181.138 C 230.054 179.895,230.054 177.961,229.975 176.841 C 229.896 175.721,229.833 176.738,229.834 179.102 M380.950 185.938 C 380.950 186.689,381.030 186.997,381.129 186.621 C 381.227 186.245,381.227 185.630,381.129 185.254 C 381.030 184.878,380.950 185.186,380.950 185.938 M301.396 186.719 C 301.517 187.471,301.780 189.141,301.981 190.430 C 302.181 191.719,302.553 194.092,302.808 195.703 C 303.613 200.806,303.383 215.330,302.397 221.669 C 300.926 231.130,297.426 242.780,294.091 249.316 C 293.467 250.538,293.399 250.969,293.776 251.316 C 294.136 251.648,294.189 251.639,293.988 251.283 C 293.841 251.022,294.096 250.071,294.556 249.171 C 296.570 245.222,299.994 235.214,301.521 228.812 C 304.407 216.710,304.490 197.646,301.702 187.305 C 301.412 186.230,301.274 185.967,301.396 186.719 M357.903 186.719 C 357.903 187.471,357.984 187.778,358.082 187.402 C 358.180 187.026,358.180 186.411,358.082 186.035 C 357.984 185.659,357.903 185.967,357.903 186.719 M43.450 187.500 C 43.450 188.252,43.530 188.560,43.629 188.184 C 43.727 187.808,43.727 187.192,43.629 186.816 C 43.530 186.440,43.450 186.748,43.450 187.500 M381.341 189.063 C 381.341 189.814,381.421 190.122,381.519 189.746 C 381.618 189.370,381.618 188.755,381.519 188.379 C 381.421 188.003,381.341 188.311,381.341 189.063 M19.622 193.750 C 19.622 194.502,19.702 194.810,19.801 194.434 C 19.899 194.058,19.899 193.442,19.801 193.066 C 19.702 192.690,19.622 192.998,19.622 193.750 M381.731 194.141 C 381.731 194.893,381.812 195.200,381.910 194.824 C 382.008 194.448,382.008 193.833,381.910 193.457 C 381.812 193.081,381.731 193.389,381.731 194.141 M358.692 194.727 C 358.697 195.586,358.777 195.892,358.870 195.406 C 358.963 194.920,358.960 194.217,358.862 193.843 C 358.764 193.470,358.688 193.867,358.692 194.727 M42.669 196.094 C 42.669 196.846,42.749 197.153,42.847 196.777 C 42.946 196.401,42.946 195.786,42.847 195.410 C 42.749 195.034,42.669 195.342,42.669 196.094 M19.303 206.641 C 19.303 210.615,19.361 212.241,19.432 210.254 C 19.503 208.267,19.503 205.015,19.432 203.027 C 19.361 201.040,19.303 202.666,19.303 206.641 M102.113 207.617 C 102.113 211.270,102.171 212.816,102.243 211.054 C 102.316 209.292,102.316 206.304,102.244 204.414 C 102.172 202.523,102.113 203.965,102.113 207.617 M359.142 207.227 C 359.143 210.664,359.203 212.018,359.275 210.235 C 359.348 208.453,359.347 205.640,359.274 203.985 C 359.201 202.331,359.142 203.789,359.142 207.227 M382.180 206.055 C 382.181 208.633,382.244 209.637,382.321 208.285 C 382.397 206.934,382.397 204.825,382.319 203.598 C 382.242 202.371,382.180 203.477,382.180 206.055 M194.789 212.674 C 194.399 213.690,194.492 252.068,194.886 252.690 C 195.364 253.444,213.790 253.059,219.306 252.179 C 230.931 250.326,237.373 241.782,236.078 229.936 C 235.081 220.814,229.915 215.473,219.727 213.029 C 215.802 212.088,195.127 211.793,194.789 212.674 M219.727 213.412 C 232.013 216.307,237.756 224.939,235.398 236.967 C 233.053 248.931,226.278 252.400,205.078 252.495 L 195.117 252.539 195.016 233.008 C 194.960 222.266,195.008 213.232,195.122 212.933 C 195.410 212.183,216.231 212.588,219.727 213.412 M42.685 215.234 C 42.685 216.201,42.761 216.597,42.854 216.113 C 42.947 215.630,42.947 214.839,42.854 214.355 C 42.761 213.872,42.685 214.268,42.685 215.234 M102.576 217.383 C 102.791 220.814,104.138 229.034,104.649 230.034 C 104.826 230.380,105.083 231.396,105.219 232.291 C 105.649 235.106,108.819 243.971,111.320 249.348 C 112.510 251.907,112.532 252.041,111.847 252.593 C 111.185 253.126,111.197 253.137,112.012 252.742 C 113.131 252.200,113.180 252.475,111.178 248.088 C 109.184 243.720,106.422 235.983,105.655 232.617 C 105.362 231.328,104.870 229.219,104.564 227.930 C 103.988 225.511,103.361 221.754,102.738 216.992 L 102.380 214.258 102.576 217.383 M381.739 217.773 C 381.743 218.633,381.823 218.938,381.917 218.452 C 382.010 217.967,382.007 217.263,381.909 216.890 C 381.811 216.517,381.735 216.914,381.739 217.773 M358.692 218.164 C 358.697 219.023,358.777 219.329,358.870 218.843 C 358.963 218.357,358.960 217.654,358.862 217.281 C 358.764 216.907,358.688 217.305,358.692 218.164 M19.630 218.945 C 19.634 219.805,19.714 220.110,19.808 219.624 C 19.901 219.138,19.897 218.435,19.800 218.062 C 19.702 217.688,19.625 218.086,19.630 218.945 M381.349 222.852 C 381.353 223.711,381.433 224.017,381.526 223.531 C 381.620 223.045,381.616 222.342,381.518 221.968 C 381.421 221.595,381.344 221.992,381.349 222.852 M20.013 223.828 C 20.013 224.580,20.093 224.888,20.191 224.512 C 20.289 224.136,20.289 223.521,20.191 223.145 C 20.093 222.769,20.013 223.076,20.013 223.828 M43.450 224.219 C 43.450 224.971,43.530 225.278,43.629 224.902 C 43.727 224.526,43.727 223.911,43.629 223.535 C 43.530 223.159,43.450 223.467,43.450 224.219 M357.903 225.781 C 357.903 226.533,357.984 226.841,358.082 226.465 C 358.180 226.089,358.180 225.474,358.082 225.098 C 357.984 224.722,357.903 225.029,357.903 225.781 M380.950 226.172 C 380.950 226.924,381.030 227.231,381.129 226.855 C 381.227 226.479,381.227 225.864,381.129 225.488 C 381.030 225.112,380.950 225.420,380.950 226.172 M43.841 227.344 C 43.841 228.096,43.921 228.403,44.019 228.027 C 44.118 227.651,44.118 227.036,44.019 226.660 C 43.921 226.284,43.841 226.592,43.841 227.344 M20.403 227.734 C 20.403 228.486,20.484 228.794,20.582 228.418 C 20.680 228.042,20.680 227.427,20.582 227.051 C 20.484 226.675,20.403 226.982,20.403 227.734 M352.387 251.215 C 352.147 251.906,352.018 252.539,352.102 252.622 C 352.185 252.706,352.450 252.209,352.691 251.519 C 352.932 250.829,353.060 250.196,352.977 250.112 C 352.893 250.028,352.628 250.525,352.387 251.215 M294.531 251.705 C 294.531 251.812,295.059 252.275,295.703 252.734 C 296.348 253.193,296.875 253.481,296.875 253.374 C 296.875 253.266,296.348 252.803,295.703 252.344 C 295.059 251.885,294.531 251.597,294.531 251.705 M50.615 256.250 C 50.758 256.787,51.039 257.490,51.238 257.813 C 51.489 258.220,51.520 258.101,51.339 257.422 C 51.195 256.885,50.914 256.182,50.715 255.859 C 50.464 255.452,50.433 255.571,50.615 256.250 M300.391 256.001 C 300.391 256.109,300.918 256.572,301.563 257.031 C 302.207 257.490,302.734 257.778,302.734 257.670 C 302.734 257.563,302.207 257.100,301.563 256.641 C 300.918 256.182,300.391 255.894,300.391 256.001 M93.066 264.107 C 91.735 264.960,91.304 265.533,92.480 264.886 C 93.377 264.393,94.781 263.308,94.531 263.300 C 94.424 263.297,93.765 263.660,93.066 264.107 M312.891 264.986 C 312.891 265.093,313.418 265.557,314.063 266.016 C 314.707 266.475,315.234 266.762,315.234 266.655 C 315.234 266.547,314.707 266.084,314.063 265.625 C 313.418 265.166,312.891 264.878,312.891 264.986 M315.625 266.939 C 315.625 267.046,316.152 267.510,316.797 267.969 C 317.441 268.428,317.969 268.715,317.969 268.608 C 317.969 268.500,317.441 268.037,316.797 267.578 C 316.152 267.119,315.625 266.832,315.625 266.939 M84.863 269.186 C 83.532 270.038,83.101 270.611,84.277 269.964 C 85.174 269.472,86.578 268.386,86.328 268.378 C 86.221 268.375,85.562 268.738,84.863 269.186 M318.359 268.892 C 318.359 269.000,318.887 269.463,319.531 269.922 C 320.176 270.381,320.703 270.668,320.703 270.561 C 320.703 270.454,320.176 269.990,319.531 269.531 C 318.887 269.072,318.359 268.785,318.359 268.892 M81.738 271.139 C 80.407 271.991,79.976 272.564,81.152 271.917 C 82.049 271.425,83.453 270.339,83.203 270.332 C 83.096 270.328,82.437 270.692,81.738 271.139 M276.409 275.228 C 265.394 286.856,252.039 295.660,237.500 300.878 C 233.123 302.449,230.810 303.106,223.438 304.873 C 220.874 305.487,216.594 306.169,212.305 306.645 L 209.180 306.992 212.642 306.811 C 215.986 306.635,221.260 305.855,224.175 305.104 C 224.951 304.905,227.168 304.354,229.102 303.881 C 247.132 299.471,265.532 288.061,278.983 272.949 C 282.633 268.849,281.513 269.841,276.409 275.228 M78.613 273.092 C 77.282 273.944,76.851 274.517,78.027 273.870 C 78.924 273.378,80.328 272.292,80.078 272.285 C 79.971 272.281,79.312 272.645,78.613 273.092 M125.563 272.873 C 124.823 273.466,124.824 273.471,125.615 273.091 C 126.328 272.749,126.944 273.224,130.693 277.001 C 136.836 283.188,143.204 288.410,148.242 291.389 C 150.652 292.814,149.416 291.805,145.165 288.877 C 139.874 285.234,135.312 281.349,130.543 276.424 C 128.327 274.137,126.471 272.266,126.418 272.266 C 126.365 272.266,125.980 272.539,125.563 272.873 M325.391 273.970 C 325.391 274.078,325.918 274.541,326.563 275.000 C 327.207 275.459,327.734 275.747,327.734 275.639 C 327.734 275.532,327.207 275.068,326.563 274.609 C 325.918 274.150,325.391 273.863,325.391 273.970 M328.125 275.923 C 328.125 276.031,328.652 276.494,329.297 276.953 C 329.941 277.412,330.469 277.700,330.469 277.592 C 330.469 277.485,329.941 277.021,329.297 276.563 C 328.652 276.104,328.125 275.816,328.125 275.923 M291.797 277.876 C 291.797 277.984,292.324 278.447,292.969 278.906 C 293.613 279.365,294.141 279.653,294.141 279.545 C 294.141 279.438,293.613 278.975,292.969 278.516 C 292.324 278.057,291.797 277.769,291.797 277.876 M331.586 278.492 C 332.638 279.410,333.040 279.487,333.436 278.846 C 333.612 278.561,333.542 278.501,333.246 278.684 C 332.989 278.843,332.302 278.684,331.721 278.331 L 330.664 277.688 331.586 278.492 M294.531 279.830 C 294.531 279.937,295.059 280.400,295.703 280.859 C 296.348 281.318,296.875 281.606,296.875 281.499 C 296.875 281.391,296.348 280.928,295.703 280.469 C 295.059 280.010,294.531 279.722,294.531 279.830 M297.266 281.783 C 297.266 281.890,297.793 282.354,298.438 282.813 C 299.082 283.271,299.609 283.559,299.609 283.452 C 299.609 283.344,299.082 282.881,298.438 282.422 C 297.793 281.963,297.266 281.675,297.266 281.783 M304.297 286.861 C 304.297 286.968,304.824 287.432,305.469 287.891 C 306.113 288.350,306.641 288.637,306.641 288.530 C 306.641 288.422,306.113 287.959,305.469 287.500 C 304.824 287.041,304.297 286.753,304.297 286.861 M307.031 288.814 C 307.031 288.921,307.559 289.385,308.203 289.844 C 308.848 290.303,309.375 290.590,309.375 290.483 C 309.375 290.375,308.848 289.912,308.203 289.453 C 307.559 288.994,307.031 288.707,307.031 288.814 M95.410 291.451 C 94.079 292.304,93.648 292.876,94.824 292.230 C 95.720 291.737,97.125 290.651,96.875 290.644 C 96.768 290.641,96.108 291.004,95.410 291.451 M309.766 290.767 C 309.766 290.875,310.293 291.338,310.938 291.797 C 311.582 292.256,312.109 292.543,312.109 292.436 C 312.109 292.329,311.582 291.865,310.938 291.406 C 310.293 290.947,309.766 290.660,309.766 290.767 M150.748 292.909 C 152.054 293.942,160.161 298.172,160.392 297.942 C 160.495 297.838,159.474 297.210,158.122 296.545 C 156.770 295.880,154.346 294.623,152.734 293.750 C 151.123 292.878,150.229 292.499,150.748 292.909 M312.500 292.720 C 312.500 292.828,313.027 293.291,313.672 293.750 C 314.316 294.209,314.844 294.497,314.844 294.389 C 314.844 294.282,314.316 293.818,313.672 293.359 C 313.027 292.900,312.500 292.613,312.500 292.720 M163.086 299.188 C 166.164 300.698,175.302 303.733,178.516 304.313 C 179.912 304.565,181.361 304.929,181.735 305.121 C 183.615 306.088,196.668 307.425,203.516 307.353 L 209.180 307.292 201.563 307.013 C 197.373 306.859,192.539 306.538,190.820 306.300 C 183.865 305.336,182.227 305.039,181.864 304.676 C 181.655 304.468,181.006 304.297,180.422 304.297 C 178.937 304.297,170.883 301.906,166.211 300.078 C 160.902 298.001,160.341 297.841,163.086 299.188 M321.118 310.122 C 320.164 311.322,319.688 312.058,320.058 311.756 C 320.927 311.050,323.186 308.202,322.996 308.053 C 322.917 307.990,322.071 308.921,321.118 310.122 M81.271 310.883 C 82.417 312.249,85.386 315.428,87.869 317.948 C 90.981 321.105,91.286 321.365,88.853 318.784 C 86.912 316.724,83.943 313.545,82.256 311.719 C 80.231 309.527,79.896 309.243,81.271 310.883 M43.555 313.281 C 44.394 314.141,45.168 314.844,45.276 314.844 C 45.383 314.844,44.784 314.141,43.945 313.281 C 43.106 312.422,42.332 311.719,42.224 311.719 C 42.117 311.719,42.716 312.422,43.555 313.281 M315.616 316.309 L 312.305 319.727 315.723 316.415 C 318.897 313.339,319.319 312.891,319.034 312.891 C 318.976 312.891,317.438 314.429,315.616 316.309 M53.125 319.123 C 53.447 319.341,54.048 319.522,54.460 319.525 C 55.459 319.533,55.147 319.310,53.711 318.988 C 52.855 318.797,52.697 318.833,53.125 319.123 M309.752 322.168 L 307.617 324.414 309.863 322.279 C 311.950 320.295,312.288 319.922,311.998 319.922 C 311.937 319.922,310.927 320.933,309.752 322.168 M94.336 324.219 C 95.175 325.078,95.950 325.781,96.057 325.781 C 96.164 325.781,95.566 325.078,94.727 324.219 C 93.887 323.359,93.113 322.656,93.006 322.656 C 92.898 322.656,93.497 323.359,94.336 324.219 M305.838 325.684 L 304.492 327.148 305.957 325.802 C 307.320 324.549,307.601 324.219,307.303 324.219 C 307.238 324.219,306.579 324.878,305.838 325.684 M66.992 329.297 C 68.485 330.801,69.794 332.031,69.901 332.031 C 70.008 332.031,68.875 330.801,67.383 329.297 C 65.890 327.793,64.581 326.563,64.474 326.563 C 64.367 326.563,65.500 327.793,66.992 329.297 M301.600 329.101 C 298.602 331.633,297.633 332.640,299.805 330.966 C 301.781 329.442,304.554 326.985,304.297 326.987 C 304.189 326.987,302.976 327.938,301.600 329.101 M332.999 331.348 L 329.883 334.570 333.105 331.454 C 336.099 328.561,336.506 328.125,336.221 328.125 C 336.163 328.125,334.712 329.575,332.999 331.348 M72.070 334.766 C 73.346 336.055,74.477 337.109,74.585 337.109 C 74.692 337.109,73.737 336.055,72.461 334.766 C 71.185 333.477,70.054 332.422,69.946 332.422 C 69.839 332.422,70.795 333.477,72.070 334.766 M295.117 334.214 L 293.945 335.221 295.215 334.381 C 295.913 333.919,296.484 333.465,296.484 333.372 C 296.484 333.079,296.319 333.181,295.117 334.214 M326.358 337.988 L 323.242 341.211 326.465 338.095 C 329.458 335.201,329.866 334.766,329.581 334.766 C 329.522 334.766,328.072 336.216,326.358 337.988 M77.539 339.844 C 78.815 341.133,79.946 342.188,80.054 342.188 C 80.161 342.188,79.205 341.133,77.930 339.844 C 76.654 338.555,75.523 337.500,75.415 337.500 C 75.308 337.500,76.263 338.555,77.539 339.844 M321.073 342.871 L 319.727 344.336 321.191 342.990 C 322.555 341.737,322.836 341.406,322.538 341.406 C 322.472 341.406,321.813 342.065,321.073 342.871 M281.152 343.192 C 279.692 343.984,279.781 344.314,281.250 343.555 C 281.895 343.221,282.422 342.865,282.422 342.763 C 282.422 342.512,282.380 342.526,281.152 343.192 M123.047 344.706 C 123.047 344.814,123.574 345.175,124.219 345.508 C 124.863 345.841,125.391 346.026,125.391 345.919 C 125.391 345.811,124.863 345.450,124.219 345.117 C 123.574 344.784,123.047 344.599,123.047 344.706 M274.121 347.098 C 272.661 347.891,272.750 348.221,274.219 347.461 C 274.863 347.128,275.391 346.772,275.391 346.670 C 275.391 346.418,275.349 346.432,274.121 347.098 M127.344 347.068 C 127.344 347.330,132.079 349.692,132.254 349.517 C 132.332 349.439,131.260 348.813,129.870 348.128 C 128.481 347.443,127.344 346.966,127.344 347.068 M312.695 349.655 C 310.307 351.587,309.552 352.364,311.133 351.264 C 312.567 350.265,315.112 348.079,314.844 348.077 C 314.736 348.076,313.770 348.786,312.695 349.655 M269.531 349.414 C 268.994 349.721,268.730 349.972,268.945 349.972 C 269.160 349.972,269.775 349.721,270.313 349.414 C 270.850 349.107,271.113 348.856,270.898 348.856 C 270.684 348.856,270.068 349.107,269.531 349.414 M135.156 350.977 C 135.693 351.284,136.309 351.535,136.523 351.535 C 136.738 351.535,136.475 351.284,135.938 350.977 C 135.400 350.670,134.785 350.418,134.570 350.418 C 134.355 350.418,134.619 350.670,135.156 350.977 M92.718 352.255 C 93.027 352.755,95.313 354.446,95.313 354.175 C 95.313 354.078,94.667 353.507,93.878 352.905 C 93.090 352.304,92.568 352.011,92.718 352.255 M138.672 352.506 C 139.209 352.793,140.088 353.137,140.625 353.271 C 141.162 353.404,140.898 353.176,140.039 352.762 C 138.271 351.912,137.176 351.707,138.672 352.506 M308.398 352.964 L 307.227 353.971 308.496 353.131 C 309.194 352.669,309.766 352.215,309.766 352.122 C 309.766 351.829,309.600 351.931,308.398 352.964 M261.719 352.930 C 261.182 353.237,260.918 353.488,261.133 353.488 C 261.348 353.488,261.963 353.237,262.500 352.930 C 263.037 352.623,263.301 352.371,263.086 352.371 C 262.871 352.371,262.256 352.623,261.719 352.930 M142.969 354.231 C 143.291 354.430,143.994 354.711,144.531 354.854 C 145.210 355.036,145.329 355.005,144.922 354.753 C 144.600 354.554,143.896 354.274,143.359 354.130 C 142.681 353.949,142.562 353.979,142.969 354.231 M305.664 354.917 L 304.492 355.924 305.762 355.084 C 306.460 354.622,307.031 354.168,307.031 354.075 C 307.031 353.783,306.866 353.884,305.664 354.917 M256.836 354.897 C 255.859 355.367,255.827 355.421,256.641 355.222 C 257.747 354.952,258.992 354.318,258.398 354.326 C 258.184 354.330,257.480 354.586,256.836 354.897 M148.438 356.184 C 148.760 356.383,149.463 356.664,150.000 356.807 C 150.679 356.989,150.798 356.958,150.391 356.707 C 150.068 356.507,149.365 356.227,148.828 356.083 C 148.149 355.902,148.030 355.932,148.438 356.184 M252.344 356.445 C 251.592 356.735,251.240 356.977,251.563 356.984 C 251.885 356.991,252.676 356.755,253.320 356.459 C 254.829 355.769,254.127 355.758,252.344 356.445 M155.078 358.398 C 155.830 358.688,156.709 358.925,157.031 358.925 C 157.354 358.925,157.002 358.688,156.250 358.398 C 155.498 358.109,154.619 357.872,154.297 357.872 C 153.975 357.872,154.326 358.109,155.078 358.398 M245.508 358.594 C 245.015 358.805,244.943 358.929,245.313 358.929 C 245.635 358.929,246.250 358.778,246.680 358.594 C 247.172 358.382,247.244 358.258,246.875 358.258 C 246.553 358.258,245.938 358.409,245.508 358.594 M162.305 360.379 C 163.379 360.678,164.434 360.907,164.648 360.889 C 165.309 360.832,161.964 359.825,161.133 359.831 C 160.703 359.833,161.230 360.080,162.305 360.379 M238.867 360.341 C 236.769 361.032,237.595 361.059,240.039 360.379 C 241.113 360.080,241.641 359.833,241.211 359.831 C 240.781 359.828,239.727 360.057,238.867 360.341 M106.445 361.531 C 106.875 361.880,107.578 362.339,108.008 362.550 L 108.789 362.934 108.008 362.298 C 107.578 361.948,106.875 361.489,106.445 361.278 L 105.664 360.894 106.445 361.531 M295.215 361.552 C 293.755 362.344,293.843 362.674,295.313 361.914 C 295.957 361.581,296.484 361.225,296.484 361.123 C 296.484 360.871,296.442 360.886,295.215 361.552 M169.141 361.913 C 170.322 362.215,171.992 362.550,172.852 362.658 C 174.059 362.810,173.925 362.730,172.266 362.306 C 171.084 362.004,169.414 361.669,168.555 361.561 C 167.348 361.409,167.481 361.489,169.141 361.913 M230.664 362.109 C 229.619 362.375,229.598 362.408,230.469 362.408 C 231.006 362.408,231.973 362.273,232.617 362.109 C 233.663 361.843,233.684 361.811,232.813 361.811 C 232.275 361.811,231.309 361.945,230.664 362.109 M292.086 363.427 C 290.210 364.581,289.686 365.126,291.211 364.337 C 292.435 363.704,294.087 362.525,293.750 362.525 C 293.643 362.524,292.894 362.931,292.086 363.427 M218.945 363.902 L 215.430 364.409 218.555 364.212 C 220.273 364.104,222.295 363.868,223.047 363.688 C 225.101 363.197,223.111 363.300,218.945 363.902 M180.762 363.948 C 181.245 364.041,182.036 364.041,182.520 363.948 C 183.003 363.854,182.607 363.778,181.641 363.778 C 180.674 363.778,180.278 363.854,180.762 363.948 M184.277 364.338 C 184.761 364.431,185.552 364.431,186.035 364.338 C 186.519 364.245,186.123 364.169,185.156 364.169 C 184.189 364.169,183.794 364.245,184.277 364.338 M188.972 364.736 C 189.674 364.823,190.729 364.821,191.316 364.732 C 191.903 364.643,191.328 364.572,190.039 364.574 C 188.750 364.576,188.270 364.649,188.972 364.736 M212.016 364.729 C 212.502 364.823,213.205 364.819,213.579 364.722 C 213.952 364.624,213.555 364.547,212.695 364.552 C 211.836 364.556,211.530 364.636,212.016 364.729 M197.754 365.135 C 199.634 365.206,202.710 365.206,204.590 365.135 C 206.470 365.063,204.932 365.004,201.172 365.004 C 197.412 365.004,195.874 365.063,197.754 365.135 M287.793 365.848 C 286.333 366.641,286.422 366.971,287.891 366.211 C 288.535 365.878,289.063 365.522,289.063 365.420 C 289.063 365.168,289.021 365.182,287.793 365.848 M284.668 367.411 C 283.153 368.233,283.325 368.516,284.863 367.734 C 286.336 366.985,286.596 366.791,286.100 366.813 C 285.903 366.821,285.259 367.090,284.668 367.411 M124.219 371.094 C 124.971 371.505,125.762 371.842,125.977 371.842 C 126.191 371.842,125.752 371.505,125.000 371.094 C 124.248 370.682,123.457 370.345,123.242 370.345 C 123.027 370.345,123.467 370.682,124.219 371.094 M277.441 370.931 C 276.743 371.237,276.172 371.576,276.172 371.686 C 276.172 371.890,278.912 370.828,279.244 370.495 C 279.577 370.163,278.730 370.368,277.441 370.931 M272.852 373.047 C 271.992 373.445,271.427 373.783,271.595 373.799 C 272.057 373.843,274.609 372.727,274.609 372.481 C 274.609 372.216,274.729 372.178,272.852 373.047 M132.813 374.805 C 133.350 375.112,133.965 375.363,134.180 375.363 C 134.395 375.363,134.131 375.112,133.594 374.805 C 133.057 374.498,132.441 374.246,132.227 374.246 C 132.012 374.246,132.275 374.498,132.813 374.805 M268.555 374.818 C 267.578 375.289,267.545 375.343,268.359 375.144 C 269.466 374.874,270.710 374.240,270.117 374.248 C 269.902 374.251,269.199 374.508,268.555 374.818 M263.477 376.772 C 262.500 377.242,262.467 377.296,263.281 377.097 C 264.388 376.827,265.632 376.193,265.039 376.201 C 264.824 376.205,264.121 376.461,263.477 376.772 M257.813 378.711 C 257.061 379.001,256.709 379.243,257.031 379.250 C 257.354 379.256,258.145 379.020,258.789 378.725 C 260.298 378.034,259.596 378.024,257.813 378.711 M251.953 380.494 C 250.504 380.987,250.250 381.150,251.172 380.996 C 252.510 380.772,255.264 379.745,254.492 379.758 C 254.277 379.761,253.135 380.093,251.953 380.494 M149.609 380.664 C 150.361 380.954,151.240 381.191,151.563 381.191 C 151.885 381.191,151.533 380.954,150.781 380.664 C 150.029 380.374,149.150 380.138,148.828 380.138 C 148.506 380.138,148.857 380.374,149.609 380.664 M155.273 382.238 C 156.133 382.521,157.188 382.750,157.617 382.748 C 158.047 382.745,157.520 382.498,156.445 382.199 C 154.001 381.519,153.176 381.546,155.273 382.238 M244.531 382.422 C 243.758 382.670,243.717 382.735,244.336 382.735 C 244.766 382.735,245.557 382.594,246.094 382.422 C 246.867 382.174,246.908 382.109,246.289 382.109 C 245.859 382.109,245.068 382.250,244.531 382.422 M163.477 384.189 C 164.551 384.465,165.781 384.687,166.211 384.682 C 166.641 384.677,166.113 384.447,165.039 384.171 C 163.965 383.895,162.734 383.673,162.305 383.678 C 161.875 383.683,162.402 383.912,163.477 384.189 M236.719 384.180 C 235.537 384.454,235.010 384.681,235.547 384.684 C 236.084 384.688,237.402 384.465,238.477 384.189 C 241.012 383.537,239.523 383.529,236.719 384.180 M175.000 386.133 C 176.611 386.428,178.281 386.663,178.711 386.654 C 180.019 386.628,176.911 386.007,174.414 385.795 C 172.124 385.601,172.137 385.608,175.000 386.133 M225.000 386.057 C 223.604 386.282,222.725 386.523,223.047 386.591 C 223.369 386.659,225.039 386.474,226.758 386.179 C 228.477 385.884,229.355 385.643,228.711 385.644 C 228.066 385.645,226.396 385.831,225.000 386.057 M185.840 387.385 C 186.323 387.478,187.114 387.478,187.598 387.385 C 188.081 387.292,187.686 387.216,186.719 387.216 C 185.752 387.216,185.356 387.292,185.840 387.385 M214.360 387.386 C 214.846 387.479,215.549 387.476,215.923 387.378 C 216.296 387.280,215.898 387.204,215.039 387.208 C 214.180 387.212,213.874 387.292,214.360 387.386 M191.016 387.741 C 193.309 388.032,196.397 388.063,196.230 387.793 C 196.130 387.632,194.696 387.526,193.043 387.559 C 191.391 387.591,190.479 387.673,191.016 387.741 M205.333 387.793 C 205.233 387.954,206.145 388.036,207.361 387.976 C 211.176 387.785,211.636 387.619,208.519 387.559 C 206.867 387.526,205.433 387.632,205.333 387.793 " stroke="none" fill="#ebd897" fill-rule="evenodd"></path></g></svg>