<svg id="svg" version="1.1" xmlns="http://www.w3.org/2000/svg" xmlns:xlink="http://www.w3.org/1999/xlink" width="400" height="400" viewBox="0, 0, 400,400"><g id="svgg"><path id="path0" d="M138.458 61.458 L 77.000 122.917 99.670 145.583 L 122.340 168.250 161.170 129.333 L 200.000 90.417 238.830 129.333 L 277.660 168.250 300.330 145.583 L 323.000 122.917 261.542 61.458 C 227.740 27.656,200.046 0.000,200.000 0.000 C 199.954 0.000,172.260 27.656,138.458 61.458 M176.917 177.000 L 153.917 200.000 176.958 223.042 L 200.000 246.083 223.042 223.042 L 246.083 200.000 223.083 177.000 C 210.434 164.350,200.046 154.000,200.000 154.000 C 199.954 154.000,189.566 164.350,176.917 177.000 M22.583 177.333 L -0.083 200.000 22.500 222.583 C 34.921 235.004,45.158 245.167,45.250 245.167 C 45.342 245.167,55.579 235.004,68.000 222.583 L 90.583 200.000 67.916 177.333 L 45.250 154.667 22.583 177.333 M332.173 177.410 C 319.757 189.827,309.632 200.024,309.674 200.069 C 309.716 200.115,319.893 210.299,332.291 222.702 L 354.831 245.252 377.457 222.626 L 400.083 200.000 377.500 177.417 C 365.079 164.996,354.879 154.833,354.833 154.833 C 354.787 154.833,344.590 164.993,332.173 177.410 M118.137 235.961 C 115.875 238.228,105.688 248.403,95.501 258.572 L 76.977 277.060 138.489 338.572 L 200.000 400.083 261.500 338.583 C 295.325 304.758,322.981 277.040,322.958 276.986 C 322.935 276.932,312.741 266.747,300.304 254.352 L 277.690 231.817 238.845 270.700 L 200.000 309.583 161.163 270.708 C 139.803 249.327,122.309 231.834,122.288 231.836 C 122.267 231.837,120.399 233.693,118.137 235.961 " stroke="none" fill="#f4bc2c" fill-rule="evenodd"></path><path id="path1" d="M183.750 106.708 L 167.583 122.917 183.792 106.750 C 192.706 97.859,200.000 90.565,200.000 90.542 C 200.000 90.425,198.779 91.640,183.750 106.708 M159.416 131.042 L 151.417 139.083 159.458 131.084 C 166.933 123.649,167.575 123.000,167.458 123.000 C 167.434 123.000,163.816 126.619,159.416 131.042 M325.417 216.000 C 334.125 224.708,341.287 231.833,341.333 231.833 C 341.379 231.833,334.291 224.708,325.583 216.000 C 316.875 207.292,309.713 200.167,309.667 200.167 C 309.621 200.167,316.709 207.292,325.417 216.000 M348.000 238.583 C 351.620 242.204,354.619 245.167,354.665 245.167 C 354.711 245.167,351.787 242.204,348.167 238.583 C 344.547 234.963,341.547 232.000,341.502 232.000 C 341.456 232.000,344.380 234.963,348.000 238.583 M133.750 243.333 C 134.755 244.342,135.615 245.167,135.661 245.167 C 135.707 245.167,134.922 244.342,133.917 243.333 C 132.911 242.325,132.052 241.500,132.006 241.500 C 131.960 241.500,132.745 242.325,133.750 243.333 M151.583 261.167 C 160.291 269.875,167.454 277.000,167.499 277.000 C 167.545 277.000,160.458 269.875,151.750 261.167 C 143.042 252.458,135.880 245.333,135.834 245.333 C 135.788 245.333,142.875 252.458,151.583 261.167 M183.750 293.333 C 192.641 302.225,199.954 309.500,199.999 309.500 C 200.045 309.500,192.808 302.225,183.917 293.333 C 175.025 284.442,167.713 277.167,167.667 277.167 C 167.621 277.167,174.859 284.442,183.750 293.333 " stroke="none" fill="#f4bc34" fill-rule="evenodd"></path><path id="path2" d="M216.083 106.667 C 224.975 115.558,232.287 122.833,232.333 122.833 C 232.379 122.833,225.141 115.558,216.250 106.667 C 207.359 97.775,200.046 90.500,200.001 90.500 C 199.955 90.500,207.192 97.775,216.083 106.667 M240.417 131.000 C 244.816 135.400,248.453 139.000,248.499 139.000 C 248.545 139.000,244.983 135.400,240.583 131.000 C 236.184 126.600,232.547 123.000,232.501 123.000 C 232.455 123.000,236.017 126.600,240.417 131.000 M332.090 177.327 C 319.628 189.789,309.465 200.008,309.507 200.035 C 309.549 200.062,319.783 189.865,332.249 177.375 C 344.716 164.885,354.878 154.667,354.832 154.667 C 354.787 154.667,344.553 164.864,332.090 177.327 M377.333 222.792 L 354.750 245.417 377.375 222.834 C 389.819 210.413,400.000 200.232,400.000 200.209 C 400.000 200.092,398.329 201.757,377.333 222.792 M298.917 253.000 C 307.716 261.800,314.954 269.000,314.999 269.000 C 315.045 269.000,307.883 261.800,299.083 253.000 C 290.284 244.200,283.046 237.000,283.001 237.000 C 282.955 237.000,290.117 244.200,298.917 253.000 M266.080 243.375 L 264.250 245.250 266.125 243.420 C 267.867 241.719,268.076 241.500,267.955 241.500 C 267.931 241.500,267.087 242.344,266.080 243.375 M248.250 261.208 L 232.417 277.083 248.292 261.250 C 257.023 252.542,264.167 245.398,264.167 245.375 C 264.167 245.259,262.969 246.450,248.250 261.208 M86.833 267.125 L 79.583 274.417 86.875 267.167 C 93.652 260.429,94.242 259.833,94.124 259.833 C 94.101 259.833,90.820 263.115,86.833 267.125 M216.083 293.375 L 199.917 309.583 216.125 293.417 C 231.193 278.388,232.408 277.167,232.291 277.167 C 232.268 277.167,224.975 284.460,216.083 293.375 " stroke="none" fill="#f8bc2c" fill-rule="evenodd"></path><path id="path3" d="M216.083 106.667 C 224.975 115.558,232.287 122.833,232.333 122.833 C 232.379 122.833,225.141 115.558,216.250 106.667 C 207.359 97.775,200.046 90.500,200.001 90.500 C 199.955 90.500,207.192 97.775,216.083 106.667 M240.417 131.000 C 244.816 135.400,248.453 139.000,248.499 139.000 C 248.545 139.000,244.983 135.400,240.583 131.000 C 236.184 126.600,232.547 123.000,232.501 123.000 C 232.455 123.000,236.017 126.600,240.417 131.000 M332.090 177.327 C 319.628 189.789,309.465 200.008,309.507 200.035 C 309.549 200.062,319.783 189.865,332.249 177.375 C 344.716 164.885,354.878 154.667,354.832 154.667 C 354.787 154.667,344.553 164.864,332.090 177.327 M377.333 222.792 L 354.750 245.417 377.375 222.834 C 389.819 210.413,400.000 200.232,400.000 200.209 C 400.000 200.092,398.329 201.757,377.333 222.792 M298.917 253.000 C 307.716 261.800,314.954 269.000,314.999 269.000 C 315.045 269.000,307.883 261.800,299.083 253.000 C 290.284 244.200,283.046 237.000,283.001 237.000 C 282.955 237.000,290.117 244.200,298.917 253.000 M266.080 243.375 L 264.250 245.250 266.125 243.420 C 267.867 241.719,268.076 241.500,267.955 241.500 C 267.931 241.500,267.087 242.344,266.080 243.375 M248.250 261.208 L 232.417 277.083 248.292 261.250 C 257.023 252.542,264.167 245.398,264.167 245.375 C 264.167 245.259,262.969 246.450,248.250 261.208 M86.833 267.125 L 79.583 274.417 86.875 267.167 C 93.652 260.429,94.242 259.833,94.124 259.833 C 94.101 259.833,90.820 263.115,86.833 267.125 M216.083 293.375 L 199.917 309.583 216.125 293.417 C 231.193 278.388,232.408 277.167,232.291 277.167 C 232.268 277.167,224.975 284.460,216.083 293.375 " stroke="none" fill="#f8bc2c" fill-rule="evenodd"></path><path id="path4" d="M216.083 106.667 C 224.975 115.558,232.287 122.833,232.333 122.833 C 232.379 122.833,225.141 115.558,216.250 106.667 C 207.359 97.775,200.046 90.500,200.001 90.500 C 199.955 90.500,207.192 97.775,216.083 106.667 M240.417 131.000 C 244.816 135.400,248.453 139.000,248.499 139.000 C 248.545 139.000,244.983 135.400,240.583 131.000 C 236.184 126.600,232.547 123.000,232.501 123.000 C 232.455 123.000,236.017 126.600,240.417 131.000 M332.090 177.327 C 319.628 189.789,309.465 200.008,309.507 200.035 C 309.549 200.062,319.783 189.865,332.249 177.375 C 344.716 164.885,354.878 154.667,354.832 154.667 C 354.787 154.667,344.553 164.864,332.090 177.327 M377.333 222.792 L 354.750 245.417 377.375 222.834 C 389.819 210.413,400.000 200.232,400.000 200.209 C 400.000 200.092,398.329 201.757,377.333 222.792 M298.917 253.000 C 307.716 261.800,314.954 269.000,314.999 269.000 C 315.045 269.000,307.883 261.800,299.083 253.000 C 290.284 244.200,283.046 237.000,283.001 237.000 C 282.955 237.000,290.117 244.200,298.917 253.000 M266.080 243.375 L 264.250 245.250 266.125 243.420 C 267.867 241.719,268.076 241.500,267.955 241.500 C 267.931 241.500,267.087 242.344,266.080 243.375 M248.250 261.208 L 232.417 277.083 248.292 261.250 C 257.023 252.542,264.167 245.398,264.167 245.375 C 264.167 245.259,262.969 246.450,248.250 261.208 M86.833 267.125 L 79.583 274.417 86.875 267.167 C 93.652 260.429,94.242 259.833,94.124 259.833 C 94.101 259.833,90.820 263.115,86.833 267.125 M216.083 293.375 L 199.917 309.583 216.125 293.417 C 231.193 278.388,232.408 277.167,232.291 277.167 C 232.268 277.167,224.975 284.460,216.083 293.375 " stroke="none" fill="#f8bc2c" fill-rule="evenodd"></path></g></svg>