<?xml version="1.0" encoding="UTF-8"?>
<svg width="50px" height="50px" viewBox="0 0 50 50" version="1.1" xmlns="http://www.w3.org/2000/svg" xmlns:xlink="http://www.w3.org/1999/xlink">
    <title>Coins/Large/DAI</title>
    <g id="Coins/Large/DAI" stroke="none" stroke-width="1" fill="none" fill-rule="evenodd">
        <g id="multi-collateral-dai-dai-logo">
            <path d="M25,0 C31.6753852,0 37.7392185,2.61605358 42.2227185,6.87861661 C47.0135759,11.4333912 50,17.8681594 50,25 C50,38.8083881 38.8083881,50 25,50 C11.1938619,50 0,38.8072631 0,25 C0,11.1938619 11.1938619,0 25,0 Z" id="Path" fill="#F5AC37"></path>
            <g id="Shape-2" transform="translate(12.000000, 14.000000)" fill="#FEFEFD" fill-rule="nonzero">
                <path d="M13.8224156,12.9638014 L21.6694291,12.9638014 C21.8367032,12.9638014 21.9156937,12.9638014 21.9277746,12.744139 C21.9918963,11.9446053 21.9918963,11.1404178 21.9277746,10.3399533 C21.9277746,10.1845143 21.8506427,10.1202909 21.6824393,10.1202909 L6.06554437,10.1202909 C5.87224986,10.1202909 5.82020904,10.1845143 5.82020904,10.3660149 L5.82020904,12.6668849 C5.82020904,12.9638014 5.82020904,12.9638014 6.1296661,12.9638014 L13.8224156,12.9638014 L13.8224156,12.9638014 Z M21.0514442,7.43128878 C21.0737475,7.3726501 21.0737475,7.30842679 21.0514442,7.25071889 C20.9204129,6.96497168 20.7652197,6.6922553 20.5849354,6.43629282 C20.3135796,5.99882968 19.9939003,5.59580513 19.6296145,5.23373457 C19.4576939,5.015003 19.2588236,4.81860997 19.0357915,4.65200167 C17.9187723,3.69982125 16.5908018,3.02594186 15.1633963,2.68714062 C14.4431884,2.52518618 13.7071824,2.44793205 12.9693178,2.45444746 L6.03859465,2.45444746 C5.84530015,2.45444746 5.81927973,2.53170159 5.81927973,2.70017144 L5.81927973,7.28888056 C5.81927973,7.48248127 5.81927973,7.53460454 6.06461507,7.53460454 L20.9585142,7.53460454 C20.9585142,7.53460454 21.087687,7.50854291 21.1137074,7.43128878 L21.0505149,7.43128878 L21.0514442,7.43128878 Z M21.0514442,15.6528035 C20.8321293,15.6286034 20.6109558,15.6286034 20.3916409,15.6528035 L6.07855457,15.6528035 C5.88526007,15.6528035 5.82020904,15.6528035 5.82020904,15.9115583 L5.82020904,20.3978825 C5.82020904,20.604514 5.82020904,20.6566373 6.07855457,20.6566373 L12.6868104,20.6566373 C13.0027726,20.6808373 13.3187348,20.6584988 13.6281918,20.5924139 C14.58723,20.5235368 15.53047,20.3150437 16.4300329,19.9715886 C16.7571466,19.8580343 17.0731088,19.7100415 17.3714143,19.5322639 L17.4615564,19.5322639 C19.0107003,18.725284 20.2689732,17.4575717 21.0625958,15.9013198 C21.0625958,15.9013198 21.152738,15.7058576 21.0514442,15.6546651 L21.0514442,15.6528035 Z M3.22653134,22.9826381 L3.22653134,22.905384 L3.22653134,19.8934037 L3.22653134,18.8723461 L3.22653134,15.8343042 C3.22653134,15.6658343 3.22653134,15.6407035 3.02022663,15.6407035 L0.219314918,15.6407035 C0.0641217345,15.6407035 0,15.6407035 0,15.434072 L0,12.977763 L2.99420621,12.977763 C3.1614803,12.977763 3.22653134,12.977763 3.22653134,12.7581006 L3.22653134,10.3278532 C3.22653134,10.1724142 3.22653134,10.1342525 3.02022663,10.1342525 L0.219314918,10.1342525 C0.0641217345,10.1342525 0,10.1342525 0,9.92762101 L0,7.65281267 C0,7.51040445 0,7.47224278 0.206304711,7.47224278 L2.98119601,7.47224278 C3.17449051,7.47224278 3.22653134,7.47224278 3.22653134,7.2265188 L3.22653134,0.258754795 C3.22653134,0.052123268 3.22653134,0 3.48487688,0 L13.1644709,0 C13.8670221,0.0279231793 14.5649267,0.105177309 15.255397,0.232693161 C16.6781561,0.496101819 18.0451571,1.00523445 19.2950663,1.73216789 C20.1240023,2.22082353 20.8869581,2.81093338 21.5662767,3.49039741 C22.077392,4.02186859 22.538325,4.59708608 22.9472173,5.20953448 C23.3533216,5.83035983 23.6906577,6.49400073 23.9555083,7.18742635 C23.9880338,7.36799624 24.1608837,7.48992746 24.341168,7.45921196 L26.6514091,7.45921196 C26.9478559,7.45921196 26.9478559,7.45921196 26.9608661,7.74402839 L26.9608661,9.86432847 C26.9608661,10.07096 26.8837342,10.1230833 26.6765002,10.1230833 L24.8950311,10.1230833 C24.7147468,10.1230833 24.662706,10.1230833 24.6757162,10.3557764 C24.746343,11.1432101 24.746343,11.9334361 24.6757162,12.7208697 C24.6757162,12.9405321 24.6757162,12.9665937 24.9219808,12.9665937 L26.9599368,12.9665937 C27.050079,13.0829403 26.9599368,13.1992868 26.9599368,13.3165642 C26.972947,13.4664186 26.972947,13.6181345 26.9599368,13.7679889 L26.9599368,15.3326177 C26.9599368,15.5522801 26.8958151,15.6174342 26.7015913,15.6174342 L24.2621775,15.6174342 C24.0921155,15.5848571 23.9267,15.6937575 23.8876694,15.8631581 C23.3068566,17.3756637 22.3775561,18.7317994 21.1768998,19.8189419 C20.73827,20.2145203 20.2773369,20.5868293 19.7959593,20.9302844 C19.2792682,21.2281317 18.7765166,21.538079 18.2468153,21.7838029 C17.2719791,22.2231276 16.2497486,22.5470365 15.2005683,22.7527372 C14.2043582,22.9314456 13.1942085,23.0124228 12.1803417,22.9984612 L3.22281414,22.9984612 L3.22281414,22.9854304 L3.22653134,22.9826381 Z" id="Shape"></path>
            </g>
        </g>
    </g>
</svg>