<svg id="Layer_1" data-name="Layer 1" xmlns="http://www.w3.org/2000/svg" viewBox="0 0 32 32"><title>multi-collateral-dai-dai-logo</title><circle cx="16" cy="16" r="16" style="fill:#f5ac37"/><path d="M8.38,24.88v-.06c0-.78,0-1.56,0-2.33,0-.26,0-.53,0-.79V19.35c0-.13,0-.15-.16-.15H6.05c-.12,0-.17,0-.17-.16,0-.63,0-1.27,0-1.9H8.2c.13,0,.18,0,.18-.17,0-.63,0-1.25,0-1.88,0-.12,0-.15-.16-.15H6.05c-.12,0-.17,0-.17-.16,0-.58,0-1.17,0-1.76,0-.11,0-.14.16-.14.71,0,1.43,0,2.15,0,.15,0,.19,0,.19-.19V7.3c0-.16,0-.2.2-.2h7.5a11.15,11.15,0,0,1,1.62.18,9.78,9.78,0,0,1,3.13,1.16,8.9,8.9,0,0,1,1.76,1.36,9.74,9.74,0,0,1,1.07,1.33,7.87,7.87,0,0,1,.78,1.53.26.26,0,0,0,.3.21c.59,0,1.19,0,1.79,0,.23,0,.23,0,.24.22v1.64c0,.16-.06.2-.22.2H25.17c-.14,0-.18,0-.17.18a10.17,10.17,0,0,1,0,1.83c0,.17,0,.19.19.19h1.58c.07.09,0,.18,0,.27a2,2,0,0,1,0,.35c0,.41,0,.81,0,1.21,0,.17-.05.22-.2.22-.63,0-1.26,0-1.89,0a.25.25,0,0,0-.29.19,8,8,0,0,1-2.1,3.06,12.21,12.21,0,0,1-1.07.86c-.4.23-.79.47-1.2.66a10.81,10.81,0,0,1-2.36.75,12.25,12.25,0,0,1-2.34.19H8.38Zm13.81-5.67a2.18,2.18,0,0,0-.51,0H10.59c-.15,0-.2,0-.2.2,0,1.16,0,2.31,0,3.47,0,.16,0,.2.2.2h5.12a2.57,2.57,0,0,0,.73-.05,7.67,7.67,0,0,0,2.17-.48,4,4,0,0,0,.73-.34s.05,0,.07,0a6.5,6.5,0,0,0,2.79-2.81S22.27,19.25,22.19,19.21Zm0-6.36a.19.19,0,0,0,0-.14,3.94,3.94,0,0,0-.36-.63,5.13,5.13,0,0,0-.74-.93,2.45,2.45,0,0,0-.46-.45,7.18,7.18,0,0,0-3-1.52A7.45,7.45,0,0,0,15.93,9c-1.79,0-3.58,0-5.37,0-.15,0-.17.06-.17.19,0,1.18,0,2.37,0,3.55,0,.15,0,.19.19.19H22.12S22.22,12.91,22.24,12.85Zm-5.6,4.28h6.08c.13,0,.19,0,.2-.17a11.55,11.55,0,0,0,0-1.86c0-.12-.06-.17-.19-.17H10.58c-.15,0-.19.05-.19.19V16.9c0,.23,0,.23.24.23Z" style="fill:#fefefd"/></svg>