<svg xmlns="http://www.w3.org/2000/svg" xmlns:xlink="http://www.w3.org/1999/xlink" width="100" height="100" viewBox="0 0 100 100"><rect width="100%" height="100%" fill="#ffffff"></rect><g transform="translate(50 50) scale(0.69 0.69) rotate(0) translate(-50 -50)" style="fill:#f38f19"><svg fill="#f38f19" xmlns="http://www.w3.org/2000/svg" xmlns:xlink="http://www.w3.org/1999/xlink" version="1.1" x="0px" y="0px" viewBox="0 0 100 100" enable-background="new 0 0 100 100" xml:space="preserve"><path d="M53.2,21.2H35.5v57.5h17.7c13.1,0,17.7-15.5,17.7-28.8C70.9,36.7,66.3,21.2,53.2,21.2z"></path><path d="M50,1.6C23.1,1.6,1.2,23.4,1.2,50.4S23.1,99.1,50,99.1s48.8-21.8,48.8-48.8S76.9,1.6,50,1.6z M53.2,83.2H33.2  c-1.2,0-2.2-1-2.2-2.2V19c0-1.2,1-2.2,2.2-2.2h19.9c13.5,0,22.1,13,22.1,33.2C75.3,70.2,66.6,83.2,53.2,83.2z"></path></svg></g></svg>