<?xml version="1.0" encoding="UTF-8" standalone="no"?><!DOCTYPE svg PUBLIC "-//W3C//DTD SVG 1.1//EN" "http://www.w3.org/Graphics/SVG/1.1/DTD/svg11.dtd"><svg width="35px" height="35px" version="1.1" xmlns="http://www.w3.org/2000/svg" xmlns:xlink="http://www.w3.org/1999/xlink" xml:space="preserve" xmlns:serif="http://www.serif.com/" style="fill-rule:evenodd;clip-rule:evenodd;stroke-linejoin:round;stroke-miterlimit:2;"><g><circle cx="17.5" cy="17.5" r="17.5" style="fill:#00dcfa;"/><path d="M21.195,5.469c-4.233,0 -7.828,3.255 -8.28,7.445c-4.192,0.453 -7.446,4.048 -7.446,8.28c0.002,4.572 3.764,8.334 8.336,8.337c4.233,0 7.842,-3.255 8.28,-7.445c4.191,-0.453 7.446,-4.048 7.446,-8.28c-0.002,-4.572 -3.764,-8.334 -8.336,-8.337Zm6.383,9.27c-0.426,2.799 -2.638,5.01 -5.436,5.436l0,-5.436l5.436,0Zm-20.156,5.522c0.421,-2.804 2.633,-5.023 5.436,-5.451l0,5.436l-5.436,0l0,0.015Zm12.768,1.881c-0.465,3.151 -3.199,5.51 -6.385,5.507c-3.185,0.003 -5.918,-2.355 -6.383,-5.506l12.768,0l0,-0.001Zm0.071,-7.403l0,5.507l-5.522,0l0,-5.507l5.522,0Zm7.317,-1.881l-12.768,0c0.465,-3.151 3.199,-5.51 6.385,-5.507c3.185,-0.003 5.918,2.355 6.383,5.506l0,0.001Z" style="fill:#fff;fill-rule:nonzero;"/></g></svg>