<svg width="50" height="50" viewBox="0 0 50 50" fill="none" xmlns="http://www.w3.org/2000/svg">
  <path d="M24.9999 47.2939C37.3126 47.2939 47.2941 37.3125 47.2941 24.9998C47.2941 12.6871 37.3126 2.70563 24.9999 2.70563C12.6872 2.70563 2.70579 12.6871 2.70579 24.9998C2.70579 37.3125 12.6872 47.2939 24.9999 47.2939Z" fill="white"/>
  <path d="M25 0C20.0554 0 15.2219 1.46622 11.1107 4.21325C6.99951 6.96028 3.7952 10.8647 1.90302 15.4329C0.010832 20.001 -0.48425 25.0277 0.480378 29.8772C1.44501 34.7267 3.82602 39.1813 7.32232 42.6776C10.8186 46.1739 15.2732 48.5549 20.1227 49.5195C24.9722 50.4841 29.9989 49.9891 34.567 48.0969C39.1352 46.2047 43.0396 43.0004 45.7866 38.8892C48.5337 34.7779 49.9999 29.9445 49.9999 24.9999C50.0094 21.7264 49.3741 18.4831 48.1302 15.4551C46.8863 12.4272 45.0582 9.67383 42.7502 7.35237C40.4423 5.03091 37.6997 3.18677 34.679 1.92525C31.6583 0.663725 28.4187 0.00952521 25.1452 0H25ZM25.4237 25.8474L22.8208 34.6246H36.7433C36.8355 34.6214 36.9274 34.6364 37.0139 34.6687C37.1003 34.701 37.1795 34.7501 37.247 34.813C37.3145 34.876 37.3688 34.9516 37.4071 35.0356C37.4453 35.1196 37.4665 35.2104 37.4697 35.3026V35.5326L36.259 39.7094C36.2056 39.9069 36.0867 40.0804 35.9217 40.2014C35.7567 40.3224 35.5555 40.3837 35.351 40.3752H14.0436L17.615 28.2082L13.6198 29.4188L14.5278 26.6343L18.523 25.4237L23.5472 8.35349C23.6025 8.15708 23.7219 7.98482 23.8865 7.86415C24.051 7.74348 24.2512 7.68135 24.4552 7.68763H29.8426C29.9348 7.6844 30.0267 7.69937 30.1132 7.7317C30.1996 7.76403 30.2788 7.81308 30.3463 7.87605C30.4137 7.93901 30.4681 8.01466 30.5063 8.09866C30.5445 8.18266 30.5658 8.27337 30.5689 8.3656V8.59562L26.3317 23.0024L30.3268 21.7917L29.4794 24.6973L25.4237 25.8474Z" fill="#A6A9AA"/>
</svg>
