<svg width="400" height="400" xmlns="http://www.w3.org/2000/svg"><defs><linearGradient x1="85.355%" y1="14.645%" x2="14.645%" y2="85.355%" id="a"><stop stop-color="#FF2D55" offset="0%"/><stop stop-color="#FFBC5B" offset="100%"/></linearGradient><linearGradient x1="49.966%" y1="0%" x2="49.966%" y2="100%" id="b"><stop stop-color="#A524B3" offset="0%"/><stop stop-color="#FF2D55" offset="100%"/></linearGradient></defs><g fill="none" fill-rule="evenodd"><circle fill="url(#a)" cx="200" cy="200" r="200"/><path fill="url(#b)" d="M125.7 0v150h125z" transform="translate(16 130)"/><path fill="#FFF" d="M16.7 280h125V130z"/><path d="M40 320c11.4 15.1 24.9 28.6 40 40h240c15.1-11.4 28.6-24.9 40-40H40z" fill="#FC9965"/><path d="M80 360c33.4 25.1 75 40 120 40s86.6-14.9 120-40H80z" fill="#FF2D55"/><path fill="url(#b)" d="M252.3 0v110H344z" transform="translate(16 210)"/><path d="M268.3 280H16.7c6.2 14.3 14.1 27.7 23.3 40h228.4v-40h-.1z" fill="#FFBC5B"/><path fill="#FFF" d="M176.7 320h91.6V210z"/><circle fill="#FFC95B" cx="268.3" cy="130" r="50"/><circle fill="#FFC95B" cx="141.7" cy="75" r="25"/></g></svg>