<?xml version="1.0" encoding="UTF-8" standalone="no"?><!DOCTYPE svg PUBLIC "-//W3C//DTD SVG 1.1//EN" "http://www.w3.org/Graphics/SVG/1.1/DTD/svg11.dtd"><svg width="35px" height="35px" version="1.1" xmlns="http://www.w3.org/2000/svg" xmlns:xlink="http://www.w3.org/1999/xlink" xml:space="preserve" xmlns:serif="http://www.serif.com/" style="fill-rule:evenodd;clip-rule:evenodd;stroke-linejoin:round;stroke-miterlimit:2;"><g><g><path d="M9.667,6.154c0.665,-0.751 1.27,-1.393 1.849,-1.93c-9.78,-0.315 -6.933,6.755 -10.12,13.94c-3.67,8.275 0.432,11.428 6.544,12.411c-0.847,-1 -1.539,-2.144 -2.066,-3.379c-3.962,-4.989 -2.367,-14.078 3.793,-21.042" style="fill:#b3d234;fill-rule:nonzero;"/><path d="M33.2,14.969c-0.91,2.563 -2.58,5.439 -4.941,8.27c-1.84,2.205 -3.886,3.942 -5.998,5.2c-2.441,1.582 -5.47,2.515 -8.856,2.515c-1.895,0 -3.758,-0.105 -5.465,-0.38c1.008,1.19 2.234,2.177 3.66,2.866c8.842,4.276 9.4,-3.667 18.755,-7.698c5.254,-2.264 5.273,-6.688 2.845,-10.773" style="fill:#0095d9;fill-rule:nonzero;"/><path d="M22.258,6.703c1.304,0.237 2.542,0.666 3.65,1.292c2.969,1.68 5.674,4.251 7.292,6.974c1.593,-4.487 0.851,-8.014 -2.634,-8.653c-3.83,-0.7 -6.825,-0.925 -9.703,-2.935c-3.544,-2.475 -6.651,-1.659 -9.347,0.844c0.19,0.005 0.384,0.014 0.584,0.026c3.741,0.22 7.31,0.948 10.158,2.452" style="fill:#eee809;fill-rule:nonzero;"/><path d="M9.667,6.154c-6.16,6.964 -7.755,16.053 -3.793,21.042c-1.779,-4.176 -1.655,-9.385 0.852,-13.545c3.339,-5.537 10.036,-7.952 15.532,-6.948c-2.848,-1.504 -6.417,-2.232 -10.157,-2.453c-0.201,-0.011 -0.395,-0.019 -0.585,-0.026c-0.579,0.537 -1.184,1.179 -1.849,1.93" style="fill:#51b849;fill-rule:nonzero;"/><path d="M25.907,7.996c-1.108,-0.627 -2.345,-1.055 -3.649,-1.293c3.75,1.98 6.245,5.306 6.217,10.604c-0.025,4.597 -2.399,8.659 -6.214,11.133c2.111,-1.258 4.158,-2.995 5.998,-5.201c2.362,-2.831 4.031,-5.707 4.941,-8.27c-1.618,-2.722 -4.323,-5.294 -7.293,-6.973" style="fill:#00845d;fill-rule:nonzero;"/><path d="M21.641,25.921c-4.234,2.72 -9.88,1.507 -12.611,-2.711c-2.731,-4.218 -1.38,-9.65 2.721,-12.566c4.585,-3.259 10.467,-1.973 12.61,2.711c2.091,4.568 1.513,9.845 -2.72,12.566m0.617,-19.218c-5.496,-1.003 -12.193,1.41 -15.532,6.948c-2.507,4.159 -2.632,9.369 -0.852,13.545c0.527,1.235 1.218,2.379 2.066,3.379c1.707,0.275 3.57,0.379 5.465,0.379c3.386,0 6.415,-0.933 8.855,-2.515c3.816,-2.472 6.191,-6.536 6.215,-11.132c0.029,-5.298 -2.468,-8.625 -6.217,-10.604" style="fill:#005121;fill-rule:nonzero;"/></g><rect x="0" y="0" width="35" height="35" style="fill:none;"/></g></svg>