<svg width="50" height="51" viewBox="0 0 50 51" fill="none" xmlns="http://www.w3.org/2000/svg">
<rect y="0.880005" width="50" height="50" rx="8" fill="#F00500"/>
<path d="M38.6822 27.2951C38.6591 27.4183 38.2971 27.7881 37.935 28.0577C36.8719 28.8358 34.9692 29.5599 33.0356 29.9065C31.934 30.1068 30.8325 30.1376 30.5012 29.9759C30.2855 29.868 30.2547 29.7833 30.3317 29.506C30.4935 28.9282 31.0173 28.2965 31.8339 27.7034C32.2499 27.4029 33.9369 26.3784 34.7227 25.947C36.0169 25.2383 37.0645 24.8146 37.7732 24.7144C37.9966 24.6836 38.2662 24.6759 38.351 24.7144C38.4896 24.7684 38.6437 25.1766 38.7053 25.6697C38.7361 25.9316 38.7207 27.0871 38.6822 27.2951Z" fill="black"/>
<path d="M20.533 29.8449C20.4867 29.9373 20.2556 30.0375 19.9937 30.076C19.7318 30.1145 18.9307 30.0914 18.4762 30.0375C16.843 29.8218 15.1098 29.3211 13.8464 28.7048C13.1377 28.3581 12.6293 28.0115 12.2518 27.634L12.0361 27.4106L12.013 27.1179C11.9745 26.6094 11.9822 25.8083 12.0438 25.5233C12.0823 25.2844 12.1671 25.0533 12.2826 24.8453C12.3442 24.7683 12.3442 24.7683 12.6216 24.7683C12.9605 24.7683 13.2455 24.8222 13.7077 24.9686C14.6553 25.2613 16.065 25.9701 17.7829 27.0023C19.2003 27.8497 19.7318 28.2657 20.1401 28.8357C20.4174 29.1901 20.6023 29.6908 20.533 29.8449Z" fill="black"/>
<path d="M31.441 40.5681C31.441 40.5912 31.3486 40.961 31.233 41.4001C31.1175 41.8391 31.0251 42.1935 31.0251 42.2089C30.9403 42.2166 30.8633 42.2243 30.7785 42.2166H30.532L30.1931 43.0178C30.0082 43.4569 29.8387 43.8651 29.8156 43.9268L29.7694 44.0346L29.6076 43.7727L29.4459 43.5108V41.3769L29.3842 41.3924C29.2533 41.4232 28.3211 41.5464 27.9129 41.5849C26.2258 41.7544 24.5311 41.7159 22.8517 41.4771C22.5821 41.4386 22.351 41.4078 22.3433 41.4155C22.3356 41.4232 22.3433 41.9162 22.3587 42.5247L22.3818 43.6186L22.2508 43.8189C22.1815 43.9268 22.1122 44.0192 22.1122 44.0269C22.0891 44.05 22.012 43.9268 21.8349 43.5724C21.6423 43.2027 21.5036 42.8098 21.4035 42.4015L21.3495 42.1781L21.1107 42.1935L20.8719 42.2166L20.8103 41.9316C20.7795 41.7775 20.741 41.5387 20.7256 41.4078L20.7025 41.1613L20.5022 40.9841C20.3866 40.8839 20.2711 40.7838 20.2479 40.7684C20.2094 40.7376 20.194 40.6836 20.194 40.6374V40.545L21.1569 40.5527L22.1199 40.5604L22.1507 40.6605L22.1815 40.7607L22.5128 40.7761C22.6976 40.7838 23.2831 40.7992 23.8069 40.8146L24.7699 40.8377L25.0164 40.4525L25.2706 40.0674H25.5941L25.5864 39.2662L25.5787 38.4651L25.155 38.2802C23.7915 37.6793 22.9904 36.9937 22.6899 36.1617C22.6283 35.9923 22.6283 35.9306 22.6129 35.1603C22.6052 34.3977 22.6052 34.3283 22.6591 34.1589C22.767 33.7737 23.0674 33.4733 23.4526 33.3731C23.5835 33.3346 23.9302 33.3346 25.7482 33.3346L27.8898 33.3423L28.1286 33.4579C28.4136 33.5965 28.5445 33.6967 28.7063 33.9123C28.8912 34.1589 28.9451 34.3514 28.9451 34.8213C28.9451 35.4915 28.8989 36.0693 28.8296 36.3004C28.7294 36.6162 28.5754 36.9167 28.3828 37.1863C27.9976 37.6793 27.2966 38.1723 26.6572 38.3957L26.4723 38.4651L26.48 39.2739L26.4877 40.0828L26.6572 40.0982L26.8267 40.1136L27.0578 40.4602L27.2812 40.8069H28.3134C28.8835 40.8069 29.3842 40.8146 29.4304 40.8223C29.5075 40.8377 29.5229 40.83 29.5999 40.699L29.6924 40.5604H30.5783C31.2408 40.5296 31.441 40.545 31.441 40.5681Z" fill="black"/>
<path d="M27.3736 42.7789C27.2272 42.8637 27.1271 42.9022 27.104 42.8868C27.0809 42.8791 26.973 42.7866 26.8575 42.7019L26.6495 42.5324L26.4338 42.7635C25.9639 43.2719 25.9485 43.2951 25.8098 43.3028C25.5941 43.3259 25.5479 43.2874 25.286 42.8945C25.1473 42.6942 25.0395 42.5247 25.0395 42.5247C25.0395 42.5247 24.9393 42.5093 24.8238 42.5016L24.6081 42.4785L24.5079 42.6865L24.4078 42.8945L24.2306 42.8406C24.0919 42.7943 23.9533 42.7404 23.8223 42.6788L23.5912 42.5632V42.1241L25.6403 42.1318L27.6894 42.1395L27.6972 42.3475C27.7049 42.594 27.7126 42.5863 27.3736 42.7789Z" fill="black"/>
<path d="M46.6322 33.3807C46.6245 33.3499 46.6245 33.296 46.6167 33.2113C44.7679 33.011 39.4911 32.8877 34.5917 36.932C34.5917 36.932 33.0125 29.6908 25.6172 29.6908C18.2219 29.6908 15.4795 36.932 15.4795 36.932C11.3351 32.4717 5.78863 32.7953 3.78574 33.088C3.78574 33.1342 3.77804 33.1881 3.77804 33.2344C3.71641 34.3514 3.74722 34.8829 3.9321 35.5839C4.50986 37.7794 6.28935 40.1982 9.07799 42.5709C13.6461 46.4534 19.8397 49.2575 24.531 49.581C29.4227 49.9122 36.6408 47.0543 41.4478 42.879C42.2027 42.2088 42.9114 41.5001 43.5739 40.7452C44.0515 40.1905 44.7602 39.2353 44.7063 39.2353C44.6909 39.2353 44.7063 39.2199 44.7371 39.2045C44.7602 39.1891 44.7833 39.166 44.7679 39.1506C44.7602 39.1429 44.7756 39.1198 44.7987 39.1121C44.8219 39.1044 44.8373 39.089 44.8296 39.0735C44.8219 39.0581 44.8296 39.0427 44.8604 39.035C44.8835 39.0273 44.8912 39.0042 44.8835 38.9888C44.8758 38.9734 44.8835 38.958 44.8989 38.958C44.9143 38.958 44.9297 38.9349 44.9297 38.9195C44.9297 38.9041 44.9451 38.881 44.9605 38.881C44.9759 38.881 44.9913 38.8656 44.9913 38.8502C45.0144 38.7885 45.053 38.7269 45.0915 38.673C45.207 38.4958 45.6692 37.6715 45.7309 37.5329C46.1699 36.5391 46.4473 35.6532 46.5782 34.7673C46.6245 34.3437 46.663 33.5656 46.6322 33.3807ZM27.3736 42.7789C27.2272 42.8636 27.1271 42.9021 27.104 42.8867C27.0809 42.879 26.973 42.7866 26.8575 42.7019L26.6495 42.5324L26.4338 42.7635C25.9639 43.2719 25.9485 43.295 25.8098 43.3027C25.5941 43.3258 25.5479 43.2873 25.286 42.8944C25.1473 42.6942 25.0395 42.5247 25.0395 42.5247C25.0395 42.5247 24.9393 42.5093 24.8238 42.5016L24.6081 42.4785L24.5079 42.6864L24.4078 42.8944L24.2306 42.8405C24.092 42.7943 23.9533 42.7404 23.8223 42.6787L23.5912 42.5632V42.1241L25.6403 42.1318L27.6894 42.1395L27.6972 42.3475C27.7049 42.594 27.7126 42.5863 27.3736 42.7789ZM31.2253 41.3923C31.1098 41.8314 31.0173 42.1857 31.0173 42.2011C30.9326 42.2088 30.8556 42.2165 30.7708 42.2088H30.5243L30.1931 43.0177C30.0082 43.4568 29.8387 43.8651 29.8156 43.9267L29.7694 44.0345L29.6076 43.7726L29.4458 43.5107V41.3769L29.3842 41.3923C29.2532 41.4231 28.3211 41.5463 27.9129 41.5849C26.2258 41.7543 24.531 41.7158 22.8517 41.477C22.5821 41.4385 22.351 41.4077 22.3433 41.4154C22.3356 41.4231 22.3433 41.9161 22.3587 42.5247L22.3818 43.6186L22.2508 43.8188C22.1815 43.9267 22.1122 44.0191 22.1122 44.0268C22.0891 44.0499 22.012 43.9267 21.8349 43.5723C21.6423 43.2026 21.5036 42.8097 21.4035 42.4014L21.3495 42.178L21.1107 42.1934L20.8719 42.2165L20.8103 41.9315C20.7795 41.7774 20.741 41.5386 20.7256 41.4077L20.7025 41.1612L20.5022 40.984C20.3866 40.8838 20.2711 40.7837 20.2479 40.7683C20.2094 40.7375 20.194 40.6836 20.194 40.6373V40.5449L21.1569 40.5526L22.1199 40.5603L22.1507 40.6605L22.1815 40.7606L22.5128 40.776C22.6976 40.7837 23.2831 40.7991 23.8069 40.8145L24.7699 40.8376L25.0164 40.4525L25.2706 40.0673H25.5941L25.5864 39.2661L25.5787 38.465L25.155 38.2801C23.7915 37.6792 22.9904 36.9936 22.6899 36.1617C22.6283 35.9922 22.6283 35.9306 22.6129 35.1602C22.6052 34.3976 22.6052 34.3282 22.6591 34.1588C22.767 33.7736 23.0674 33.4732 23.4526 33.373C23.5835 33.3345 23.9302 33.3345 25.7482 33.3345L27.8897 33.3422L28.1285 33.4578C28.4136 33.5964 28.5445 33.6966 28.7063 33.9123C28.8912 34.1588 28.9451 34.3514 28.9451 34.8213C28.9451 35.4915 28.8989 36.0692 28.8296 36.3003C28.7294 36.6162 28.5753 36.9166 28.3828 37.1862C27.9976 37.6792 27.2966 38.1722 26.6572 38.3956L26.4723 38.465L26.48 39.2738L26.4877 40.0827L26.6572 40.0981L26.8267 40.1135L27.0578 40.4602L27.2812 40.8068H28.3134C28.8835 40.8068 29.3842 40.8145 29.4304 40.8222C29.5075 40.8376 29.5229 40.8299 29.5999 40.699L29.6923 40.5603H30.5782C31.2638 40.5603 31.4641 40.568 31.4641 40.5911C31.441 40.5834 31.3409 40.9609 31.2253 41.3923Z" fill="white"/>
<path d="M46.5705 32.595C46.5551 32.2483 46.5243 31.763 46.5012 31.5242C46.17 28.0269 45.2764 25.1689 43.5816 22.1415C43.5123 22.0259 43.4507 21.9103 43.4121 21.8179C43.3967 21.7948 43.389 21.7717 43.3813 21.7563C43.6201 21.0399 44.5985 18.0432 45.3765 14.6152C46.4319 9.96233 47.1021 4.52372 45.053 2.89059C45.053 2.89059 41.5094 2.62867 36.7641 7.28154C35.4776 8.56802 34.299 9.96234 33.2513 11.4491L32.9201 11.3412C31.0096 10.7173 29.0299 10.3321 27.0347 10.2011C26.4338 10.1549 24.1921 10.1549 23.4603 10.2011C21.2494 10.3475 19.5546 10.6788 17.6288 11.349C17.5518 11.3798 17.4824 11.4029 17.4131 11.426C16.3269 9.94693 15.1175 8.56031 13.7848 7.28925C8.84689 2.61327 5.17236 2.88289 5.17236 2.88289C3 4.56994 3.73953 10.2551 4.86423 15.062C5.60375 18.2435 6.51276 21.0399 6.85171 22.049C6.8286 22.1029 6.79779 22.1646 6.76697 22.2185C4.97208 25.8545 4.00144 29.3596 3.77034 33.088C5.78093 32.7953 11.3197 32.464 15.4718 36.932C15.4718 36.932 18.2143 29.6908 25.6095 29.6908C33.0048 29.6908 34.584 36.932 34.584 36.932C39.4834 32.8877 44.7602 33.0187 46.6091 33.2113C46.6014 33.0572 46.5859 32.8261 46.5705 32.595ZM8.30766 19.1448C8.30766 19.1448 5.42657 11.9421 6.1661 7.82849C6.28936 7.13518 6.52046 6.52661 6.88252 6.0644C6.88252 6.0644 10.1488 6.38795 15.4179 12.2426C15.4179 12.2426 14.4165 12.7279 13.0761 13.7601C13.0761 13.7601 13.0684 13.7678 13.0607 13.7678C11.6047 14.8848 9.74049 16.6566 8.30766 19.1448ZM20.533 29.8449C20.4868 29.9373 20.2557 30.0375 19.9937 30.076C19.7318 30.1145 18.9307 30.0914 18.4762 30.0375C16.843 29.8218 15.1098 29.321 13.8464 28.7048C13.1377 28.3581 12.6293 28.0115 12.2518 27.634L12.0361 27.4106L12.013 27.1179C11.9745 26.6094 11.9822 25.8083 12.0438 25.5233C12.0823 25.2845 12.1671 25.0533 12.2826 24.8454C12.3442 24.7683 12.3442 24.7683 12.6216 24.7683C12.9605 24.7683 13.2455 24.8222 13.7078 24.9686C14.6553 25.2613 16.065 25.9701 17.7829 27.0023C19.2003 27.8497 19.7318 28.2657 20.1401 28.8357C20.4174 29.1901 20.6023 29.6908 20.533 29.8449ZM38.6822 27.295C38.6591 27.4183 38.2971 27.7881 37.935 28.0577C36.8719 28.8357 34.9692 29.5599 33.0356 29.9065C31.934 30.1068 30.8325 30.1376 30.5012 29.9758C30.2855 29.868 30.2547 29.7833 30.3317 29.5059C30.4935 28.9282 31.0173 28.2965 31.8339 27.7033C32.2499 27.4029 33.9369 26.3783 34.7227 25.9469C36.0169 25.2382 37.0645 24.8145 37.7732 24.7144C37.9966 24.6836 38.2663 24.6759 38.351 24.7144C38.4897 24.7683 38.6437 25.1766 38.7053 25.6696C38.7362 25.9315 38.7208 27.0871 38.6822 27.295ZM37.4035 13.7601L37.3881 13.7524C36.0939 12.7202 35.1233 12.2348 35.1233 12.2348C40.2152 6.38024 43.3659 6.0567 43.3659 6.0567C43.7126 6.52661 43.936 7.12748 44.0592 7.82078C44.7756 11.9344 41.9947 19.1448 41.9947 19.1448C40.8315 17.0726 39.2677 15.2392 37.4035 13.7601Z" fill="#FFA409"/>
<path d="M44.0669 7.82072C43.466 7.74369 40.6235 7.72828 37.4035 13.7601L37.3881 13.7524C36.0939 12.7201 35.1232 12.2348 35.1232 12.2348C40.2152 6.38018 43.3659 6.05664 43.3659 6.05664C43.7203 6.52655 43.9437 7.12742 44.0669 7.82072Z" fill="#FF9300"/>
<path d="M42.0024 19.1447C40.8315 17.0648 39.2754 15.2391 37.4035 13.7601C40.6235 7.72828 43.4583 7.74369 44.0669 7.82072C44.7833 11.9421 42.0024 19.1447 42.0024 19.1447Z" fill="#FF8300"/>
<path d="M44.1825 7.84391C44.1439 7.83621 44.1054 7.8285 44.0669 7.8208L44.1825 7.84391Z" fill="#FF8300"/>
<path d="M15.4179 12.2348C15.4179 12.2348 14.4165 12.7201 13.0761 13.7524C13.0761 13.7524 13.0684 13.7601 13.0607 13.7601C9.72508 7.72058 6.79008 7.74369 6.1584 7.82072C6.28166 7.12742 6.51276 6.51885 6.87482 6.05664C6.88253 6.05664 10.1488 6.38018 15.4179 12.2348Z" fill="#FF9300"/>
<path d="M13.0684 13.7601C11.6047 14.8848 9.74049 16.6488 8.30766 19.1447C8.30766 19.1447 5.42657 11.9421 6.1661 7.82072C6.79008 7.74369 9.73279 7.72828 13.0684 13.7601Z" fill="#FF8300"/>
<path d="M6.1661 7.8208C6.12758 7.8285 6.08136 7.83621 6.04285 7.84391L6.1661 7.8208Z" fill="#FF8300"/>
<path d="M34.2065 23.1429C34.2065 23.1429 31.7415 23.2969 32.0496 21.3711C32.3577 19.4452 34.2836 19.2141 34.8228 19.2912C35.3621 19.3682 37.519 20.1385 37.1338 21.7563C36.7487 23.374 36.2094 23.0658 35.9013 23.1429C35.5932 23.2199 34.2065 23.1429 34.2065 23.1429Z" fill="white"/>
<path d="M16.0265 23.1429C16.0265 23.1429 13.5614 23.2969 13.8695 21.3711C14.1776 19.4452 16.1035 19.2141 16.6427 19.2912C17.182 19.3682 19.3389 20.1385 18.9538 21.7563C18.5686 23.374 18.0293 23.0658 17.7212 23.1429C17.4131 23.2199 16.0265 23.1429 16.0265 23.1429Z" fill="white"/>
</svg>
