<?xml version="1.0" encoding="UTF-8" standalone="no"?><!DOCTYPE svg PUBLIC "-//W3C//DTD SVG 1.1//EN" "http://www.w3.org/Graphics/SVG/1.1/DTD/svg11.dtd"><svg width="35px" height="35px" version="1.1" xmlns="http://www.w3.org/2000/svg" xmlns:xlink="http://www.w3.org/1999/xlink" xml:space="preserve" xmlns:serif="http://www.serif.com/" style="fill-rule:evenodd;clip-rule:evenodd;stroke-linejoin:round;stroke-miterlimit:2;"><g><circle cx="17.5" cy="17.5" r="17.5" style="fill:#2775c9;"/><path d="M17.227,30.078c-7.099,0 -12.852,-5.753 -12.852,-12.851c0,-7.099 5.753,-12.852 12.852,-12.852c7.098,0 12.851,5.753 12.851,12.852c0,7.05 -5.801,12.851 -12.851,12.851Zm-0.766,-17.62c-1.45,0.072 -2.62,1.251 -2.68,2.701c0,1.324 0.81,2.188 2.527,2.549l1.203,0.284c1.17,0.274 1.651,0.667 1.651,1.335c0,0.667 -0.842,1.323 -1.935,1.323c-0.792,0.073 -1.558,-0.315 -1.969,-0.995c-0.122,-0.258 -0.382,-0.425 -0.667,-0.427l-0.646,0c-0.18,0.034 -0.313,0.193 -0.313,0.377c0,0.024 0.003,0.048 0.007,0.072c0.322,1.315 1.501,2.254 2.855,2.275l0,0.918c0,0.423 0.348,0.771 0.771,0.771c0.423,0 0.771,-0.348 0.771,-0.771l0,-0.929c1.543,-0.018 2.809,-1.279 2.833,-2.822c0,-1.389 -0.799,-2.188 -2.691,-2.592l-1.094,-0.241c-1.093,-0.273 -1.607,-0.634 -1.607,-1.247c0,-0.612 0.656,-1.291 1.75,-1.291c0.702,-0.073 1.385,0.275 1.739,0.886c0.143,0.305 0.45,0.502 0.787,0.504l0.514,0c0.242,-0.06 0.394,-0.305 0.339,-0.547c-0.303,-1.212 -1.357,-2.098 -2.603,-2.188l0,-0.755c0,-0.423 -0.348,-0.771 -0.771,-0.771c-0.423,0 -0.771,0.348 -0.771,0.771l0,0.81Zm-8.87,4.769c0.002,4.121 2.654,7.802 6.562,9.111l0.153,0c0.27,0 0.492,-0.223 0.492,-0.493l0,-0.229c0.001,-0.416 -0.25,-0.793 -0.634,-0.952c-3.037,-1.226 -5.037,-4.189 -5.037,-7.465c0,-3.275 2,-6.239 5.037,-7.465c0.382,-0.155 0.634,-0.528 0.634,-0.94l0,-0.252c0,-0.001 0,-0.003 0,-0.004c0,-0.252 -0.207,-0.46 -0.459,-0.46c-0.052,0 -0.104,0.009 -0.153,0.027c-3.925,1.298 -6.593,4.988 -6.595,9.122Zm19.272,0c-0.008,-4.117 -2.659,-7.794 -6.563,-9.1l-0.164,0c-0.282,0 -0.514,0.232 -0.514,0.514l0,0.164c0.009,0.43 0.271,0.816 0.667,0.984c3.031,1.23 5.023,4.189 5.023,7.459c0,3.271 -1.992,6.23 -5.023,7.46c-0.388,0.169 -0.645,0.55 -0.656,0.973l0,0.186c0.003,0.28 0.234,0.508 0.514,0.508c0.056,0 0.111,-0.009 0.164,-0.027c3.907,-1.313 6.555,-4.999 6.551,-9.121Z" style="fill:#fff;fill-rule:nonzero;"/></g></svg>