<?xml version="1.0" encoding="UTF-8"?>
<svg width="50px" height="50px" viewBox="0 0 50 50" version="1.1" xmlns="http://www.w3.org/2000/svg" xmlns:xlink="http://www.w3.org/1999/xlink">
    <title>Coins/Large/WBTC</title>
    <g id="Coins/Large/WBTC" stroke="none" stroke-width="1" fill="none" fill-rule="evenodd">
        <g id="multi-collateral-dai-dai-logo"></g>
        <g id="wrapped-bitcoin-wbtc-logo">
            <path d="M25,0 C31.6753852,0 37.7392185,2.61605358 42.2227185,6.87861661 C47.0135759,11.4333912 50,17.8681594 50,25 C50,38.8083881 38.8083881,50 25,50 C11.1938619,50 0,38.8072631 0,25 C0,11.1938619 11.1938619,0 25,0 Z" id="Path" fill="#282A47"></path>
            <path d="M40.4954545,10.4227273 L39.1318182,11.7863636 C45.8762121,19.1618384 45.8762121,30.4654343 39.1318182,37.8409091 L40.4954545,39.2045455 C47.9990122,31.0655399 47.9990122,18.5299147 40.4954545,10.3909091 L40.4954545,10.4227273 Z" id="Shape" fill="#54588C" fill-rule="nonzero"></path>
            <path d="M11.8181818,10.5409091 C19.1936566,3.79651522 30.4972525,3.79651522 37.8727273,10.5409091 L39.2363636,9.17727273 C31.097358,1.67371511 18.5617329,1.67371511 10.4227273,9.17727273 L11.8181818,10.5409091 Z" id="Shape-2" fill="#54588C" fill-rule="nonzero"></path>
            <path d="M10.5409091,37.8545455 C3.80482427,30.4810758 3.80482427,19.187106 10.5409091,11.8136364 L9.17727273,10.45 C1.67371511,18.5890056 1.67371511,31.1246308 9.17727273,39.2636364 L10.5409091,37.8545455 Z" id="Shape-3" fill="#54588C" fill-rule="nonzero"></path>
            <path d="M37.8545455,39.1136364 C30.4790707,45.8580302 19.1754748,45.8580302 11.8,39.1136364 L10.4363636,40.4772727 C18.5753692,47.9808303 31.1109944,47.9808303 39.25,40.4772727 L37.8545455,39.1136364 Z" id="Shape-4" fill="#54588C" fill-rule="nonzero"></path>
            <path d="M33.4409091,20.2818182 C33.1681818,17.4363636 30.7136364,16.4818182 27.6090909,16.1909091 L27.6090909,12.2727273 L25.2090909,12.2727273 L25.2090909,16.1181818 C24.5772727,16.1181818 23.9318182,16.1181818 23.2909091,16.1181818 L23.2909091,12.2727273 L20.9090909,12.2727273 L20.9090909,16.2181818 L16.0409091,16.2181818 L16.0409091,18.7863636 C16.0409091,18.7863636 17.8136364,18.7545455 17.7863636,18.7863636 C18.4507321,18.7132763 19.0536292,19.1795167 19.15,19.8409091 L19.15,30.6409091 C19.1362027,30.8676314 19.0312735,31.0791292 18.8590909,31.2272727 C18.6901136,31.3782647 18.4668483,31.4537809 18.2409091,31.4363636 C18.2727273,31.4636364 16.4954545,31.4363636 16.4954545,31.4363636 L16.0409091,34.3045455 L20.8636364,34.3045455 L20.8636364,38.3136364 L23.2636364,38.3136364 L23.2636364,34.3636364 L25.1818182,34.3636364 L25.1818182,38.2954545 L27.5863636,38.2954545 L27.5863636,34.3318182 C31.6409091,34.0863636 34.4681818,33.0863636 34.8227273,29.2909091 C35.1090909,26.2363636 33.6727273,24.8727273 31.3772727,24.3227273 C32.7727273,23.6363636 33.6363636,22.3636364 33.4409091,20.2818182 Z M30.0772727,28.8181818 C30.0772727,31.8 24.9681818,31.4590909 23.3409091,31.4590909 L23.3409091,26.1681818 C24.9681818,26.1727273 30.0772727,25.7045455 30.0772727,28.8181818 Z M28.9636364,21.3636364 C28.9636364,24.0909091 24.7,23.7590909 23.3454545,23.7590909 L23.3454545,18.95 C24.7,18.95 28.9636364,18.5227273 28.9636364,21.3636364 Z" id="Shape-5" fill="#FFFFFF" fill-rule="nonzero"></path>
        </g>
    </g>
</svg>