<svg xmlns="http://www.w3.org/2000/svg" xmlns:xlink="http://www.w3.org/1999/xlink" width="100" height="100" viewBox="0 0 100 100"><rect width="100%" height="100%" fill="#241616"></rect><g transform="translate(50 50) scale(0.69 0.69) rotate(0) translate(-50 -50)" style="fill:#f38f19"><svg fill="#f38f19" xmlns="http://www.w3.org/2000/svg" viewBox="0 0 64 64" x="0px" y="0px"><g><path d="M35,8H29a27,27,0,0,0,0,54h6A27,27,0,0,0,35,8ZM59,28H55.074a26.719,26.719,0,0,0-1.426-4h3.795A24.82,24.82,0,0,1,59,28ZM55.074,42H59a24.82,24.82,0,0,1-1.552,4H53.648A26.719,26.719,0,0,0,55.074,42Zm.454-2a27,27,0,0,0,.447-4h4a24.942,24.942,0,0,1-.478,4Zm.447-6a27,27,0,0,0-.447-4H59.5a24.942,24.942,0,0,1,.478,4Zm.371-12H52.655a27.112,27.112,0,0,0-2.7-4h3.352A25.177,25.177,0,0,1,56.346,22Zm-5.125-6H48.162a27.119,27.119,0,0,0-7.486-5.342A24.932,24.932,0,0,1,51.221,16ZM4,35A25,25,0,1,1,29,60,25.028,25.028,0,0,1,4,35ZM48.162,54h3.059a24.932,24.932,0,0,1-10.545,5.342A27.119,27.119,0,0,0,48.162,54Zm5.146-2H49.956a27.112,27.112,0,0,0,2.7-4h3.691A25.177,25.177,0,0,1,53.308,52Z"></path><path d="M52,35A23,23,0,1,0,29,58,23.026,23.026,0,0,0,52,35ZM8,35A21,21,0,1,1,29,56,21.023,21.023,0,0,1,8,35Z"></path><path d="M17.479,22.772a1,1,0,0,0-1.414,0,18.021,18.021,0,0,0,0,25.456,1,1,0,0,0,1.414-1.414,16.02,16.02,0,0,1,0-22.628A1,1,0,0,0,17.479,22.772Z"></path><path d="M40.106,46.814a1,1,0,0,0,1.415,1.414,18.023,18.023,0,0,0,0-25.456,1,1,0,0,0-1.415,1.414A16.018,16.018,0,0,1,40.106,46.814Z"></path><path d="M29,49a3,3,0,0,0,6,0V47.609a7.4,7.4,0,0,0,5-6.979,7.3,7.3,0,0,0-2.153-5.2L37.414,35l.532-.532A6.966,6.966,0,0,0,40,29.51V29a6.962,6.962,0,0,0-5-6.706V21a3,3,0,0,0-6,0v1H28V21a3,3,0,0,0-6,0v1H21a3,3,0,0,0,0,6h1V42H21a3,3,0,0,0,0,6h1v1a3,3,0,0,0,6,0V48h1Zm-2-3a1,1,0,0,0-1,1v2a1,1,0,0,1-2,0V47a1,1,0,0,0-1-1H21a1,1,0,0,1,0-2h2a1,1,0,0,0,1-1V27a1,1,0,0,0-1-1H21a1,1,0,0,1,0-2h2a1,1,0,0,0,1-1V21a1,1,0,0,1,2,0v2a1,1,0,0,0,1,1h3a1,1,0,0,0,1-1V21a1,1,0,0,1,2,0v2.09a1,1,0,0,0,.837.986A4.969,4.969,0,0,1,38,29v.51a4.98,4.98,0,0,1-1.468,3.544l-1.239,1.239a1,1,0,0,0,0,1.414l1.14,1.14A5.324,5.324,0,0,1,38,40.64a5.38,5.38,0,0,1-4.212,5.233A1,1,0,0,0,33,46.85V49a1,1,0,0,1-2,0V47a1,1,0,0,0-1-1Z"></path><path d="M27,34h4a4,4,0,0,0,0-8H27a1,1,0,0,0-1,1v6A1,1,0,0,0,27,34Zm1-6h3a2,2,0,0,1,0,4H28Z"></path><path d="M35,40a4,4,0,0,0-4-4H27a1,1,0,0,0-1,1v6a1,1,0,0,0,1,1h4A4,4,0,0,0,35,40Zm-7-2h3a2,2,0,0,1,0,4H28Z"></path></g></svg></g></svg>