<?xml version="1.0" encoding="UTF-8"?>
<svg width="123px" height="27px" viewBox="0 0 123 27" version="1.1" xmlns="http://www.w3.org/2000/svg" xmlns:xlink="http://www.w3.org/1999/xlink">
    <!-- Generator: Sketch 52.1 (67048) - http://www.bohemiancoding.com/sketch -->
    <title>Logo/UberEats</title>
    <desc>Created with Sketch.</desc>
    <g id="Logo/UberEats" stroke="none" stroke-width="1" fill="none" fill-rule="evenodd">
        <g id="UberEats_logo_white" transform="translate(0.000000, 4.000000)" fill-rule="nonzero">
            <path d="M64.9493478,0.0833333333 L78.6097011,0.0833333333 L78.6097011,3.41666667 L68.6393478,3.41666667 L68.6393478,8.15 L78.3322826,8.15 L78.3322826,11.37 L68.6393478,11.37 L68.6393478,16.1833333 L78.6097011,16.1833333 L78.6097011,19.5166667 L64.9493478,19.5166667 L64.9493478,0.0833333333 Z M116.335272,19.8666667 C120.523288,19.8666667 122.883016,17.8666667 122.883016,15.12 C122.883016,13.1633333 121.485897,11.7033333 118.561304,11.07 L115.469592,10.44 C113.674728,10.1066667 113.109864,9.77333333 113.109864,9.10666667 C113.109864,8.24333333 113.975543,7.71333333 115.569864,7.71333333 C117.29788,7.71333333 118.578016,8.17666667 118.912255,9.77 L122.535408,9.77 C122.338207,6.77 120.175679,4.79 115.790462,4.79 C112.00019,4.79 109.339647,6.35 109.339647,9.37333333 C109.339647,11.4633333 110.803614,12.8233333 113.962174,13.4866667 L117.418207,14.2833333 C118.781902,14.55 119.146223,14.9166667 119.146223,15.48 C119.146223,16.3766667 118.116766,16.94 116.452255,16.94 C114.359918,16.94 113.163342,16.4766667 112.69875,14.8833333 L109.055543,14.8833333 C109.586984,17.8766667 111.813016,19.8666667 116.335272,19.8666667 Z M108.00269,19.5033333 L104.082065,19.5033333 C101.622065,19.5033333 100.25837,17.9766667 100.25837,16.05 L100.25837,8.41666667 L97.5008967,8.41666667 L97.5008967,5.16333333 L100.271739,5.16333333 L100.271739,1.08 L103.914946,1.08 L103.914946,5.16333333 L108.00269,5.16333333 L108.00269,8.41666667 L103.914946,8.41666667 L103.914946,15.12 C103.914946,15.8833333 104.446386,16.25 105.278641,16.25 L108.00269,16.25 L108.00269,19.5033333 Z M92.2934511,5.17 L92.2934511,6.46333333 C91.0107229,5.3819543 89.3839626,4.7911488 87.7043478,4.79666667 C84.9671546,4.7392486 82.4128815,6.16272127 81.0273944,8.51767047 C79.6419074,10.8726197 79.6419074,13.7907136 81.0273944,16.1456629 C82.4128815,18.5006121 84.9671546,19.9240847 87.7043478,19.8666667 C89.3842695,19.8739386 91.011619,19.2829191 92.2934511,18.2 L92.2934511,19.4966667 L95.9266304,19.4966667 L95.9266304,5.16333333 L92.2934511,5.17 Z M88.005163,16.72 C86.2227269,16.7402778 84.6045232,15.684904 83.9085916,14.048263 C83.2126596,12.411622 83.5768345,10.5178646 84.8305207,9.25411147 C86.0842065,7.9903583 87.9791004,7.60690657 89.6275488,8.2833822 C91.2759974,8.95985783 92.3515114,10.562279 92.3502717,12.34 C92.3609858,13.4973429 91.9070138,14.6108658 91.0895354,15.4323905 C90.2720567,16.2539152 89.159014,16.7151633 87.9984783,16.7133333 L88.005163,16.72 Z" id="Eats" fill="#5FB709"></path>
            <path d="M56.8407065,7.85333333 C55.0124185,7.85333333 53.7155707,9.28 53.7155707,11.47 L53.7155707,19.5033333 L50.9246739,19.5033333 L50.9246739,5.36333333 L53.6821467,5.36333333 L53.6821467,7.09 C54.3747888,5.92458503 55.6465868,5.225333 57.0044837,5.26333333 L58.0072011,5.26333333 L58.0072011,7.85333333 L56.8407065,7.85333333 Z M48.9961141,12.4333333 C48.9961141,8.21666667 45.987962,5.06333333 41.9169293,5.06333333 C39.9741744,5.0764867 38.1169002,5.86179267 36.756689,7.24522313 C35.3964774,8.6286536 34.645661,10.4959587 34.670625,12.4333333 C34.670625,16.6466667 37.9294565,19.8333333 42.1809783,19.8333333 C44.5910102,19.8787349 46.8725826,18.7522308 48.2975543,16.8133333 L46.2720652,15.3333333 C45.3288374,16.6462103 43.8002662,17.4146519 42.1809783,17.39 C39.8330593,17.3789545 37.8450451,15.659734 37.5016304,13.3433333 L49.0027989,13.3433333 L48.9961141,12.4333333 Z M37.5617935,11.1366667 C38.0598098,8.98 39.7878261,7.52 41.8835054,7.52 C43.9791848,7.52 45.7038587,8.98 46.1717935,11.1366667 L37.5617935,11.1366667 Z M25.83,5.06333333 C23.9461161,5.06491027 22.1410187,5.81739617 20.816413,7.15333333 L20.816413,0.0833333333 L18.0255163,0.0833333333 L18.0255163,19.5033333 L20.7829891,19.5033333 L20.7829891,17.71 C22.1188419,19.0577128 23.9365336,19.8214243 25.8366848,19.8333333 C28.5197638,19.890185 31.0237906,18.4951784 32.3820567,16.1868719 C33.7403225,13.8785655 33.7403225,11.0181012 32.3820567,8.70979477 C31.0237906,6.4014883 28.5197638,5.00648163 25.8366848,5.06333333 L25.83,5.06333333 Z M25.6294565,17.3466667 C23.6399375,17.35611 21.841359,16.1672757 21.074995,14.3362334 C20.3086309,12.5051912 20.7259843,10.3939212 22.1318407,8.98995677 C23.537697,7.5859923 25.6541317,7.16688413 27.4911955,7.9286675 C29.3282593,8.69045087 30.5227818,10.4825283 30.5160326,12.4666667 C30.5178152,13.7590871 30.0033392,14.9989876 29.0863487,15.912242 C28.1693582,16.8254964 26.9253854,17.3368803 25.6294565,17.3333333 L25.6294565,17.3466667 Z M7.74766304,17.2133333 C10.4416304,17.2133333 12.5339674,15.1533333 12.5339674,12.0666667 L12.5339674,0.0833333333 L15.4251359,0.0833333333 L15.4251359,19.5033333 L12.5673913,19.5033333 L12.5673913,17.6666667 C11.2181779,19.0573036 9.35702282,19.8366054 7.4167663,19.8233333 C3.26217391,19.8233333 0.0635054348,16.8033333 0.0635054348,12.2233333 L0.0635054348,0.0833333333 L3.00815217,0.0833333333 L3.00815217,12.0833333 C3.00815217,15.1866667 5.01358696,17.2133333 7.74766304,17.2133333 Z" id="Uber" fill="#FFFFFF"></path>
        </g>
    </g>
</svg>