<?xml version="1.0" encoding="UTF-8"?>
<svg width="50px" height="50px" viewBox="0 0 50 50" version="1.1" xmlns="http://www.w3.org/2000/svg" xmlns:xlink="http://www.w3.org/1999/xlink">
    <!-- Generator: Sketch 52.1 (67048) - http://www.bohemiancoding.com/sketch -->
    <title>Icons/Large (50px)/UberEats</title>
    <desc>Created with Sketch.</desc>
    <g id="Icons/Large-(50px)/UberEats" stroke="none" stroke-width="1" fill="none" fill-rule="evenodd">
        <rect fill="#000000" x="0" y="0" width="50" height="50"></rect>
        <g id="Group" transform="translate(9.000000, 13.000000)" fill-rule="nonzero">
            <g id="Logo/Uber" fill="#FFFFFF">
                <path d="M31.3319198,4.44111076 C30.2848141,4.44111076 29.5420774,5.19043396 29.5420774,6.34068009 L29.5420774,10.56 L27.943662,10.56 L27.943662,3.13329666 L29.5229347,3.13329666 L29.5229347,4.04018783 C29.9196279,3.42808095 30.6480179,3.06081523 31.425719,3.08077401 L32,3.08077401 L32,4.44111076 L31.3319198,4.44111076 Z M27.0384698,7.03160302 C27.0384698,4.77073562 25.3357876,3.08 23.0314911,3.08 C21.9318478,3.08705249 20.8805886,3.5081132 20.1106783,4.24987277 C19.3407678,4.99163234 18.9157887,5.99283293 18.9299189,7.03160302 C18.9299189,9.29068318 20.7744912,10.9992913 23.1809487,10.9992913 C24.5450813,11.0236344 25.8365029,10.4196321 26.6430691,9.38004553 L25.4965965,8.58650788 C24.9627082,9.29043849 24.0975023,9.70245694 23.1809487,9.68923925 C21.8519735,9.68331696 20.7267125,8.76151546 20.532332,7.51952144 L27.0422535,7.51952144 L27.0384698,7.03160302 Z M20.7323944,6.16 C21.0191584,5.11048848 22.014172,4.4 23.2208906,4.4 C24.4276091,4.4 25.4206981,5.11048848 25.6901408,6.16 L20.7323944,6.16 Z M14.2622715,3.10249842 C13.2130251,3.10334151 12.2076596,3.50564924 11.4699084,4.21989233 L11.4699084,0.44 L9.91549296,0.44 L9.91549296,10.8226746 L11.4512926,10.8226746 L11.4512926,9.86388998 C12.195308,10.5844288 13.2076881,10.9927382 14.2659946,10.9991052 C15.76036,11.0295003 17.1550006,10.2836764 17.9114993,9.04956746 C18.6679979,7.81545858 18.6679979,6.28614501 17.9114993,5.05203613 C17.1550006,3.81792723 15.76036,3.07210333 14.2659946,3.10249842 L14.2622715,3.10249842 Z M13.9847405,9.67996989 C12.8890055,9.68506111 11.8984316,9.04411971 11.4763537,8.05694198 C11.0542758,7.06976427 11.2841348,5.93150612 12.0584155,5.17458069 C12.8326961,4.41765525 13.9983305,4.19169965 15.0101003,4.60240321 C16.0218701,5.01310678 16.6797578,5.97927723 16.6760407,7.04899436 C16.6770224,7.7457826 16.3936728,8.41425549 15.8886369,8.90662229 C15.3836009,9.39898909 14.6984782,9.67469372 13.9847405,9.67278143 L13.9847405,9.67996989 Z M4.28355337,9.60369157 C5.7853124,9.60369157 6.951691,8.5016948 6.951691,6.85048282 L6.951691,0.44 L8.56338028,0.44 L8.56338028,10.8287268 L6.97032324,10.8287268 L6.97032324,9.84620218 C6.21820075,10.5901233 5.1806951,11.0070106 4.09909413,10.9999108 C1.78310595,10.9999108 0,9.38436212 0,6.93429163 L0,0.44 L1.64150088,0.44 L1.64150088,6.85939865 C1.64150088,8.51952646 2.75943564,9.60369157 4.28355337,9.60369157 Z" id="Uber"></path>
            </g>
            <g id="Eats-2" transform="translate(0.000000, 14.000000)" fill="#5FB709">
                <path d="M0,0 L7.54537587,0 L7.54537587,1.85325517 L2.03819304,1.85325517 L2.03819304,4.48487752 L7.39214216,4.48487752 L7.39214216,6.27512202 L2.03819304,6.27512202 L2.03819304,8.95122249 L7.54537587,8.95122249 L7.54537587,10.8044777 L0,10.8044777 L0,0 Z M28.3833151,10.9990695 C30.6965903,10.9990695 32,9.88711635 32,8.36003409 C32,7.2721733 31.2282929,6.46044753 29.6128772,6.10832905 L27.905152,5.75806382 C26.9137483,5.57273831 26.6017423,5.38741279 26.6017423,5.01676175 C26.6017423,4.53676866 27.0799054,4.24210109 27.9605377,4.24210109 C28.9150176,4.24210109 29.6221081,4.49970356 29.8067271,5.38555953 L31.8079963,5.38555953 C31.6990711,3.71762988 30.5045866,2.61679631 28.0823862,2.61679631 C25.9888075,2.61679631 24.5192408,3.48411973 24.5192408,5.16502217 C24.5192408,6.32701316 25.3278717,7.08314127 27.0725206,7.45193905 L28.9814804,7.89486704 C29.7347257,8.04312745 29.9359603,8.24698552 29.9359603,8.56018565 C29.9359603,9.05871129 29.367334,9.37191141 28.4479317,9.37191141 C27.2922172,9.37191141 26.6312814,9.11430894 26.3746611,8.22845297 L24.3623147,8.22845297 C24.6558588,9.89267612 25.8854209,10.9990695 28.3833151,10.9990695 Z M23.780765,10.7970646 L21.6151849,10.7970646 C20.2563895,10.7970646 19.5031443,9.94827377 19.5031443,8.87709228 L19.5031443,4.63313793 L17.9800381,4.63313793 L17.9800381,2.82436088 L19.510529,2.82436088 L19.510529,0.554123297 L21.5228754,0.554123297 L21.5228754,2.82436088 L23.780765,2.82436088 L23.780765,4.63313793 L21.5228754,4.63313793 L21.5228754,8.36003409 C21.5228754,8.78442952 21.8164195,8.98828759 22.2761207,8.98828759 L23.780765,8.98828759 L23.780765,10.7970646 Z M15.1036751,2.82806739 L15.1036751,3.5471304 C14.3951526,2.94590902 13.4966021,2.61743501 12.5688571,2.62050282 C11.0569524,2.58857972 9.64608476,3.37999714 8.88080291,4.68929368 C8.11552105,5.99859023 8.11552105,7.62098204 8.88080291,8.93027859 C9.64608476,10.2395751 11.0569524,11.0309926 12.5688571,10.9990695 C13.4967716,11.0031125 14.3956476,10.6745195 15.1036751,10.0724419 L15.1036751,10.7933581 L17.1104829,10.7933581 L17.1104829,2.82436088 L15.1036751,2.82806739 Z M12.7350141,9.24959657 C11.7504751,9.26087053 10.8566509,8.67410748 10.472249,7.76417346 C10.0878469,6.85423944 10.289001,5.80135473 10.9814819,5.09873761 C11.6739626,4.39612048 12.7206183,4.18293031 13.6311484,4.5590349 C14.5416786,4.93513949 15.135745,5.82604808 15.1350603,6.81441927 C15.1409782,7.45787477 14.8902242,8.07696739 14.4386852,8.53371586 C13.9871461,8.99046433 13.3723505,9.24690746 12.7313218,9.24589006 L12.7350141,9.24959657 Z" id="Eats"></path>
            </g>
        </g>
    </g>
</svg>