<?xml version="1.0" encoding="UTF-8"?>
<svg width="50px" height="50px" viewBox="0 0 50 50" version="1.1" xmlns="http://www.w3.org/2000/svg" xmlns:xlink="http://www.w3.org/1999/xlink">
    <!-- Generator: Sketch 52.6 (67491) - http://www.bohemiancoding.com/sketch -->
    <title>Brand/Icon/Spotify</title>
    <desc>Created with Sketch.</desc>
    <g id="Brand/Icon/Spotify" stroke="none" stroke-width="1" fill="none" fill-rule="evenodd">
        <rect fill="#000000" x="0" y="0" width="50" height="50"></rect>
        <g id="Spotify_Logo_Black_Coated" transform="translate(7.000000, 7.000000)" fill="#1ED75F">
            <path d="M28.614,15.9593571 C22.8295714,12.5241429 13.2882857,12.2082857 7.76635714,13.8842143 C6.87964286,14.1531429 5.94192857,13.6525714 5.67321429,12.7658571 C5.4045,11.8787143 5.90464286,10.9416429 6.792,10.6720714 C13.1307857,8.748 23.6680714,9.11957143 30.3272143,13.0725 C31.125,13.5460714 31.3866429,14.5761429 30.9137143,15.3724286 C30.4405714,16.17 29.4096429,16.4329286 28.614,15.9593571 Z M28.4245714,21.0473571 C28.0189286,21.7058571 27.1579286,21.9122143 26.5002857,21.5080714 C21.6777857,18.5436429 14.3241429,17.685 8.61878571,19.4168571 C7.87885714,19.6403571 7.09735714,19.2231429 6.87278571,18.4847143 C6.64971429,17.7447857 7.06714286,16.9647857 7.80557143,16.7397857 C14.3232857,14.7621429 22.4254286,15.72 27.9642857,19.1239286 C28.6219286,19.5289286 28.8289286,20.3903571 28.4245714,21.0473571 Z M26.2287857,25.9337143 C25.9065,26.4623571 25.2177857,26.6282143 24.6910714,26.3059286 C20.4769286,23.7304286 15.1729286,23.1486429 8.9265,24.5755714 C8.32457143,24.7135714 7.72478571,24.3362143 7.58742857,23.7345 C7.44942857,23.1325714 7.82528571,22.5327857 8.4285,22.3954286 C15.2642143,20.8326429 21.1279286,21.5052857 25.8578571,24.3955714 C26.3852143,24.7176429 26.5512857,25.4065714 26.2287857,25.9337143 Z M17.9991429,0.0507857143 C8.08842857,0.0507857143 0.054,8.08478571 0.054,17.9955 C0.054,27.9068571 8.08842857,35.9406429 17.9991429,35.9406429 C27.9100714,35.9406429 35.9440714,27.9068571 35.9440714,17.9955 C35.9440714,8.08478571 27.9100714,0.0507857143 17.9991429,0.0507857143 Z" id="Fill-1"></path>
        </g>
    </g>
</svg>