<?xml version="1.0" encoding="UTF-8"?>
<svg width="175px" height="73px" viewBox="0 0 175 73" version="1.1" xmlns="http://www.w3.org/2000/svg" xmlns:xlink="http://www.w3.org/1999/xlink">
    <!-- Generator: Sketch 52.6 (67491) - http://www.bohemiancoding.com/sketch -->
    <title>Brand/Card/Small/BassPro</title>
    <desc>Created with Sketch.</desc>
    <g id="Symbols" stroke="none" stroke-width="1" fill="none" fill-rule="evenodd">
        <g id="Brand/Card/Small/T.J.-Maxx-Copy">
            <g id="Mask"></g>
            <g id="Spotify_Logo_Black_Coated" transform="translate(18.000000, 14.500000)" fill="#262520">
                <path d="M33.6176109,18.7501034 C26.8216835,14.7141875 15.6119529,14.3430978 9.12442765,16.312089 C8.08265734,16.628044 6.98096886,16.0399397 6.66526563,14.9981694 C6.34956239,13.9558956 6.93716315,12.8549624 7.97968874,12.5382521 C15.4269115,10.2777263 27.8068085,10.7142729 35.6304079,15.3584336 C36.5676991,15.9148165 36.8750943,17.1250122 36.3194667,18.0605411 C35.7635873,18.9975805 34.5523846,19.3064863 33.6176109,18.7501034 Z M33.3950578,24.7278208 C32.9184819,25.5014699 31.9069224,25.7439119 31.1342803,25.2690983 C25.4684898,21.7862924 16.828946,20.7775023 10.1259169,22.812202 C9.25660006,23.0747846 8.33844241,22.5846137 8.07460111,21.7170592 C7.81252211,20.8477425 8.30294468,19.9313471 9.17049918,19.6670023 C16.827939,17.3435373 26.3468698,18.4688909 32.8542838,22.4680503 C33.626926,22.9438709 33.8701232,23.9559339 33.3950578,24.7278208 Z M30.8153042,30.4686348 C30.4366617,31.0897193 29.6275148,31.2845792 29.0086962,30.9059367 C24.0576437,27.8800697 17.8261554,27.1965496 10.4874399,28.8729992 C9.78025455,29.0351307 9.0755868,28.5917867 8.91421059,27.8848531 C8.7520791,27.1776678 9.19366082,26.4730001 9.90235667,26.3116238 C17.9334038,24.4755603 24.8224814,25.2658254 30.3795129,28.6615233 C30.9990868,29.0399141 31.1941984,29.8493127 30.8153042,30.4686348 Z M21.146578,0.0596664005 C9.50281837,0.0596664005 0.063442755,9.4985385 0.063442755,21.1422981 C0.063442755,32.786813 9.50281837,42.2254333 21.146578,42.2254333 C32.7905893,42.2254333 42.2294614,32.786813 42.2294614,21.1422981 C42.2294614,9.4985385 32.7905893,0.0596664005 21.146578,0.0596664005 Z" id="Fill-1"></path>
                <path d="M57.4229942,19.5227455 C53.7828403,18.6546875 53.1345661,18.0454357 53.1345661,16.7655033 C53.1345661,15.5558111 54.2735146,14.7421326 55.9668319,14.7421326 C57.6082873,14.7421326 59.2356444,15.3601959 60.9423048,16.6325756 C60.993915,16.6710944 61.0586165,16.6864516 61.122311,16.6763813 C61.1860056,16.6668145 61.2421474,16.6320721 61.2796591,16.5792031 L63.0570633,14.0737178 C63.1300728,13.9704975 63.110184,13.8285065 63.0117471,13.7494548 C60.9808236,12.119832 58.6938634,11.3275528 56.0207079,11.3275528 C52.0902782,11.3275528 49.3448685,13.6862638 49.3448685,17.061066 C49.3448685,20.6800723 51.7131463,21.9615153 55.8057075,22.9506684 C59.2890168,23.7530178 59.8768693,24.4249572 59.8768693,25.6268449 C59.8768693,26.9583875 58.688073,27.7861644 56.7749718,27.7861644 C54.6503948,27.7861644 52.9170481,27.0704193 50.9782677,25.3914521 C50.9301821,25.350164 50.8642218,25.3310305 50.8032966,25.3345551 C50.7393503,25.339842 50.680691,25.3695493 50.6399063,25.4186419 L48.6469982,27.7904443 C48.5634149,27.8888812 48.5739887,28.0359073 48.6704116,28.1210011 C50.9264058,30.1348051 53.7005157,31.19873 56.6944096,31.19873 C60.929717,31.19873 63.6665669,28.8843283 63.6665669,25.3025819 C63.6665669,22.2754562 61.8579449,20.6012724 57.4229942,19.5227455" id="Fill-2"></path>
                <path d="M76.3231448,23.579809 C76.3231448,26.1358975 74.7486567,27.9195956 72.4941731,27.9195956 C70.2653687,27.9195956 68.5841357,26.0548317 68.5841357,23.579809 C68.5841357,21.1050381 70.2653687,19.2400225 72.4941731,19.2400225 C74.7124037,19.2400225 76.3231448,21.064757 76.3231448,23.579809 Z M73.2486887,15.9326912 C71.412877,15.9326912 69.9071186,16.6557372 68.6654532,18.137327 L68.6654532,16.4696888 C68.6654532,16.33802 68.5587083,16.2307715 68.4270394,16.2307715 L65.1677937,16.2307715 C65.0361248,16.2307715 64.9296316,16.33802 64.9296316,16.4696888 L64.9296316,34.9995049 C64.9296316,35.1311738 65.0361248,35.2384223 65.1677937,35.2384223 L68.4270394,35.2384223 C68.5587083,35.2384223 68.6654532,35.1311738 68.6654532,34.9995049 L68.6654532,29.1506871 C69.9073703,30.5444137 71.4133805,31.2251645 73.2486887,31.2251645 C76.6597438,31.2251645 80.1128424,28.5993394 80.1128424,23.579809 C80.1128424,18.5592716 76.6597438,15.9326912 73.2486887,15.9326912 Z" id="Fill-3"></path>
                <path d="M88.9641137,27.9462818 C86.6275573,27.9462818 84.8660139,26.0689301 84.8660139,23.579809 C84.8660139,21.0803659 86.5666321,19.2662052 88.9102377,19.2662052 C91.2618995,19.2662052 93.0352756,21.1435569 93.0352756,23.6344403 C93.0352756,26.1336317 91.3230765,27.9462818 88.9641137,27.9462818 Z M88.9641137,15.9326912 C84.5712064,15.9326912 81.1296887,19.3152978 81.1296887,23.6344403 C81.1296887,27.9065042 84.5475413,31.2536131 88.9102377,31.2536131 C93.3187539,31.2536131 96.7708454,27.8823355 96.7708454,23.579809 C96.7708454,19.2916327 93.3424191,15.9326912 88.9641137,15.9326912 Z" id="Fill-4"></path>
                <path d="M106.151813,16.2307715 L102.565032,16.2307715 L102.565032,12.5636795 C102.565032,12.4320107 102.458791,12.3250139 102.327122,12.3250139 L99.0681277,12.3250139 C98.9362071,12.3250139 98.8289586,12.4320107 98.8289586,12.5636795 L98.8289586,16.2307715 L97.2617715,16.2307715 C97.1303544,16.2307715 97.0243647,16.33802 97.0243647,16.4696888 L97.0243647,19.2709886 C97.0243647,19.4024057 97.1303544,19.5096542 97.2617715,19.5096542 L98.8289586,19.5096542 L98.8289586,26.7582407 C98.8289586,29.687433 100.286883,31.1725473 103.162199,31.1725473 C104.331359,31.1725473 105.301378,30.9311124 106.215508,30.4127448 C106.289776,30.3712049 106.3361,30.2911462 106.3361,30.2060523 L106.3361,27.5384355 C106.3361,27.456111 106.293049,27.3785699 106.222809,27.3352677 C106.151813,27.2907067 106.063447,27.2884409 105.990689,27.3244421 C105.362807,27.6403971 104.755821,27.7861644 104.077336,27.7861644 C103.031789,27.7861644 102.565032,27.3116025 102.565032,26.2474258 L102.565032,19.5096542 L106.151813,19.5096542 C106.283482,19.5096542 106.389472,19.4024057 106.389472,19.2709886 L106.389472,16.4696888 C106.389472,16.33802 106.283482,16.2307715 106.151813,16.2307715" id="Fill-5"></path>
                <path d="M118.648274,16.2451216 L118.648274,15.7947284 C118.648274,14.4697315 119.156319,13.8788579 120.295771,13.8788579 C120.975263,13.8788579 121.521073,14.0137997 122.132338,14.2177228 C122.207614,14.241388 122.286162,14.2295554 122.347339,14.1844909 C122.410278,14.1394264 122.445776,14.0671721 122.445776,13.990638 L122.445776,11.2439695 C122.445776,11.1392386 122.378305,11.0460886 122.27735,11.0151225 C121.631594,10.8232836 120.805328,10.6259062 119.568194,10.6259062 C116.557432,10.6259062 114.966328,12.3212376 114.966328,15.526859 L114.966328,16.2166731 L113.4004,16.2166731 C113.268983,16.2166731 113.161231,16.3239216 113.161231,16.4553387 L113.161231,19.2709886 C113.161231,19.4024057 113.268983,19.5096542 113.4004,19.5096542 L114.966328,19.5096542 L114.966328,30.690181 C114.966328,30.8218499 115.07257,30.9288466 115.203987,30.9288466 L118.463232,30.9288466 C118.594901,30.9288466 118.70215,30.8218499 118.70215,30.690181 L118.70215,19.5096542 L121.745388,19.5096542 L126.407172,30.6871599 C125.877979,31.8616061 125.357597,32.0952366 124.647139,32.0952366 C124.072881,32.0952366 123.468161,31.9237901 122.849846,31.5854287 C122.79169,31.5534556 122.72296,31.5481687 122.660021,31.567554 C122.597837,31.5897086 122.545472,31.6357801 122.519037,31.6964536 L121.414328,34.1201178 C121.36171,34.2346673 121.406523,34.3691055 121.516793,34.4285201 C122.670091,35.0531292 123.711358,35.3197398 124.997836,35.3197398 C127.404633,35.3197398 128.734917,34.1984143 129.907852,31.1823658 L135.562565,16.5703916 C135.590762,16.4968786 135.582454,16.4140506 135.53739,16.3485937 C135.492577,16.284144 135.420323,16.2451216 135.341271,16.2451216 L131.948091,16.2451216 C131.846633,16.2451216 131.755497,16.3095714 131.722265,16.4052391 L128.246256,26.3337785 L124.438936,16.3986934 C124.404193,16.3060468 124.315323,16.2451216 124.216383,16.2451216 L118.648274,16.2451216" id="Fill-6"></path>
                <path d="M111.403715,16.2307715 L108.144218,16.2307715 C108.012549,16.2307715 107.905552,16.33802 107.905552,16.4696888 L107.905552,30.690181 C107.905552,30.8218499 108.012549,30.9288466 108.144218,30.9288466 L111.403715,30.9288466 C111.535133,30.9288466 111.642381,30.8218499 111.642381,30.690181 L111.642381,16.4696888 C111.642381,16.33802 111.535133,16.2307715 111.403715,16.2307715" id="Fill-7"></path>
                <path d="M109.790457,9.75583412 C108.499447,9.75583412 107.451383,10.8013808 107.451383,12.0926423 C107.451383,13.3844072 108.499447,14.4309609 109.790457,14.4309609 C111.081215,14.4309609 112.12802,13.3844072 112.12802,12.0926423 C112.12802,10.8013808 111.081215,9.75583412 109.790457,9.75583412" id="Fill-8"></path>
                <path d="M138.478666,17.6453939 L137.881499,17.6453939 L137.881499,18.4069587 L138.478666,18.4069587 C138.776747,18.4069587 138.954739,18.2611914 138.954739,18.0257986 C138.954739,17.7780698 138.776747,17.6453939 138.478666,17.6453939 Z M138.865869,18.7317252 L139.514646,19.6400643 L138.967578,19.6400643 L138.383502,18.8070005 L137.881499,18.8070005 L137.881499,19.6400643 L137.423553,19.6400643 L137.423553,17.2325124 L138.497296,17.2325124 C139.056449,17.2325124 139.424517,17.5185084 139.424517,18.0003712 C139.424517,18.3951261 139.196426,18.6363093 138.865869,18.7317252 Z M138.35732,16.43117 C137.18237,16.43117 136.293164,17.3651884 136.293164,18.5089203 C136.293164,19.6518969 137.176076,20.5735791 138.345235,20.5735791 C139.519933,20.5735791 140.409894,19.6400643 140.409894,18.4958289 C140.409894,17.3526005 139.526479,16.43117 138.35732,16.43117 Z M138.345235,20.8029297 C137.055233,20.8029297 136.051478,19.7669498 136.051478,18.5089203 C136.051478,17.2506389 137.068324,16.2030782 138.35732,16.2030782 C139.64707,16.2030782 140.651077,17.2388064 140.651077,18.4958289 C140.651077,19.7538584 139.634986,20.8029297 138.345235,20.8029297 Z" id="Fill-9"></path>
            </g>
        </g>
    </g>
</svg>