<?xml version="1.0" encoding="UTF-8"?>
<svg width="181px" height="73px" viewBox="0 0 181 73" version="1.1" xmlns="http://www.w3.org/2000/svg" xmlns:xlink="http://www.w3.org/1999/xlink">
    <!-- Generator: Sketch 52.5 (67469) - http://www.bohemiancoding.com/sketch -->
    <title>logo-box</title>
    <desc>Created with Sketch.</desc>
    <defs>
        <polygon id="path-1" points="0.0144478844 0.0286549708 92.3655659 0.0286549708 92.3655659 21.2656003 0.0144478844 21.2656003"></polygon>
    </defs>
    <g id="Symbols" stroke="none" stroke-width="1" fill="none" fill-rule="evenodd">
        <g id="Brand/Card/Small/Barnes&amp;Noble">
            <g id="Mask"></g>
            <g id="Barnes&amp;Noble_logo" transform="translate(21.000000, 25.000000)">
                <g id="Group-9" transform="translate(0.000000, 1.203990)">
                    <mask id="mask-2" fill="white">
                        <use xlink:href="#path-1"></use>
                    </mask>
                    <g id="Clip-7"></g>
                    <path d="M3.424871,2.34633643 L3.424871,8.03856209 L4.3004128,8.03856209 C5.22844857,8.03856209 5.40760234,7.2131063 5.40760234,5.51427589 C5.40760234,3.19659443 5.17619539,2.34633643 4.04324045,2.34633643 L3.424871,2.34633643 Z M3.424871,10.5108359 L3.424871,17.4903681 L4.32569659,17.4903681 C5.38255934,17.4903681 5.66525628,16.848882 5.66525628,13.8336085 C5.66525628,11.644754 5.40760234,10.5108359 4.27392501,10.5108359 L3.424871,10.5108359 Z M9.3494668,14.2198486 C9.3494668,18.3160647 7.52036464,19.8094943 4.42899897,19.8094943 L0,19.8094943 L0,0.0286549708 L4.45500516,0.0286549708 C7.88059856,0.0286549708 8.78190574,2.0877193 8.78190574,5.46130031 C8.78190574,7.88421053 7.90612315,9.19824561 6.33467492,9.2755418 C8.03615411,9.2755418 9.3494668,11.0006192 9.3494668,14.2198486 Z" id="Fill-8" fill="#FFFFFF" mask="url(#mask-2)"></path>
                </g>
                <path d="M25.9828345,3.67770898 L25.9828345,9.474441 L27.0630547,9.474441 C27.9913313,9.474441 28.2747506,8.88183695 28.2747506,7.02600619 C28.2747506,4.14244926 27.7339181,3.67770898 26.652494,3.67770898 L25.9828345,3.67770898 Z M28.9704162,10.8655315 C31.1821465,11.5337461 31.4424493,14.1444788 31.4424493,16.5425869 C31.4424493,18.4013072 31.5057792,20.0464396 31.751634,21.0134847 L28.1464052,21.0134847 C28.0428621,20.2920537 27.8892329,19.8610251 27.8892329,18.0781562 C27.8892329,17.3059168 27.8892329,16.5199518 27.8892329,15.5399037 C27.8892329,13.9662883 27.3551428,12.7858961 26.2277262,12.4865841 L25.9828345,12.4865841 L25.9828345,21.0134847 L22.4279326,21.0134847 L22.4279326,1.23264534 L27.7079119,1.23264534 C30.1804266,1.23264534 31.8563811,2.67406261 31.8563811,6.25376677 C31.8563811,9.37186103 30.5038184,10.7094943 28.9704162,10.8655315 Z" id="Fill-10" fill="#FFFFFF"></path>
                <path d="M37.9095631,10.2211558 C38.0636739,12.874269 38.0904025,13.6450636 38.0904025,15.9656347 C38.0904025,17.4841073 38.0904025,21.0134847 38.0904025,21.0134847 L34.8194014,21.0134847 L34.8194014,1.23264534 L38.0636739,1.23264534 C38.0636739,1.23264534 39.6091159,7.02600619 39.9447884,8.26418989 C40.2785346,9.5247678 40.5364293,10.5565875 40.6905401,11.4058824 C40.5891641,9.474441 40.5619539,7.07946336 40.5619539,5.09576883 C40.5619539,3.5753698 40.5619539,1.23264534 40.5619539,1.23264534 L43.7310974,1.23264534 L43.7310974,21.0134847 L40.8196078,21.0134847 C40.8196078,21.0134847 39.0425181,14.9082903 38.6820433,13.6997248 C38.3988648,12.7702442 38.1667355,11.6909873 37.9095631,10.2211558" id="Fill-11" fill="#FFFFFF"></path>
                <polyline id="Fill-12" fill="#FFFFFF" points="50.3756794 18.0528724 54.676333 18.0528724 54.676333 21.0134847 46.8978328 21.0134847 46.8978328 1.23264534 54.1357413 1.23264534 54.1357413 4.19470244 50.3756794 4.19470244 50.3756794 9.55149639 53.6979704 9.55149639 53.6979704 12.3069487 50.3756794 12.3069487 50.3756794 18.0528724"></polyline>
                <path d="M59.874441,16.4527692 C59.874441,18.6678707 60.3389405,19.0033024 61.1371861,19.0033024 C61.7553148,19.0033024 62.2347437,18.6425869 62.2347437,16.4527692 C62.2347437,14.4902649 60.9240798,13.0864121 59.4426901,11.3033024 C58.1031304,9.69019608 56.6007912,7.48352253 56.6007912,5.6122807 C56.6007912,2.66154111 57.9434813,0.92370141 60.7511868,0.92370141 C63.5066391,0.92370141 64.9504644,2.44289646 64.9504644,5.35390437 C64.9504644,6.04764362 64.8211558,6.53863089 64.6920881,6.95159959 L61.7529068,6.95159959 C61.8037152,6.64265566 61.8323701,6.15166839 61.8323701,5.55906433 C61.8323701,3.67770898 61.6269694,3.11351909 60.802236,3.11351909 C60.0297558,3.11351909 59.9009288,3.85878913 59.9009288,5.2754042 C59.9009288,7.06116271 61.3315101,8.48018576 62.472893,9.94616443 C64.153182,12.1049192 65.5093567,13.8232542 65.5093567,15.8363261 C65.5093567,19.0555556 64.1510148,21.4250086 61.1114207,21.4250086 C58.4072583,21.4250086 56.6354661,19.9496388 56.6354661,16.5242862 C56.6354661,15.7253182 56.6629171,15.0725146 56.8695218,14.3778122 L60.0348125,14.3595115 C59.9319917,15.1317509 59.874441,15.6020296 59.874441,16.4527692" id="Fill-13" fill="#FFFFFF"></path>
                <path d="M89.8470588,10.2211558 C90.003096,12.874269 90.028139,13.6450636 90.028139,15.9656347 C90.028139,17.4841073 90.028139,21.0134847 90.028139,21.0134847 L86.7573787,21.0134847 L86.7573787,1.23264534 L90.003096,1.23264534 C90.003096,1.23264534 91.547334,7.02600619 91.8825249,8.26418989 C92.2181975,9.5247678 92.475129,10.5565875 92.6294806,11.4058824 C92.5269006,9.474441 92.5004128,7.07946336 92.5004128,5.09576883 C92.5004128,3.5753698 92.5004128,1.23264534 92.5004128,1.23264534 L95.6688338,1.23264534 L95.6688338,21.0134847 L92.7571035,21.0134847 C92.7571035,21.0134847 90.9814585,14.9082903 90.6192982,13.6997248 C90.3370829,12.7702442 90.1054352,11.6909873 89.8470588,10.2211558" id="Fill-14" fill="#FFFFFF"></path>
                <path d="M103.962401,11.1477468 C103.962401,8.03109735 103.962401,6.1249398 103.833333,4.70976952 C103.730753,3.26666667 103.497902,2.98324733 102.982594,2.98324733 C102.416718,2.98324733 102.185071,3.26666667 102.056003,4.70976952 C101.953423,6.0994152 101.978947,8.05782594 101.978947,11.1477468 C101.978947,14.7541796 101.953423,16.14527 102.056003,17.5378053 C102.185071,19.0555556 102.391675,19.2096663 102.982594,19.2096663 C103.524389,19.2096663 103.704266,19.0818025 103.833333,17.5378053 C103.935913,16.1197454 103.962401,14.7541796 103.962401,11.1477468 Z M107.619401,11.1477468 C107.619401,19.6744066 106.229515,21.4250086 102.982594,21.4250086 C99.969969,21.4250086 98.3486756,20.1136223 98.3486756,11.1477468 C98.3486756,2.46914345 99.6092535,0.92370141 102.982594,0.92370141 C106.357379,0.92370141 107.619401,2.46914345 107.619401,11.1477468 Z" id="Fill-15" fill="#FFFFFF"></path>
                <path d="M113.717613,3.5503268 L113.717613,9.24255246 L114.593636,9.24255246 C115.521431,9.24255246 115.702511,8.41709666 115.702511,6.71826625 C115.702511,4.4005848 115.470863,3.5503268 114.336705,3.5503268 L113.717613,3.5503268 Z M113.717613,11.7148263 L113.717613,18.6943584 L114.620124,18.6943584 C115.677468,18.6943584 115.959443,18.0528724 115.959443,15.0375989 C115.959443,12.8487444 115.702511,11.7148263 114.568111,11.7148263 L113.717613,11.7148263 Z M119.642931,15.423839 C119.642931,19.520055 117.814069,21.0134847 114.722704,21.0134847 L110.29226,21.0134847 L110.29226,1.23264534 L114.749432,1.23264534 C118.17334,1.23264534 119.075851,3.29170967 119.075851,6.66529068 C119.075851,9.08820089 118.201273,10.402236 116.629102,10.4795322 C118.329137,10.4795322 119.642931,12.2046096 119.642931,15.423839 Z" id="Fill-16" fill="#FFFFFF"></path>
                <polyline id="Fill-17" fill="#FFFFFF" points="125.77076 18.0528724 129.968111 18.0528724 129.968111 21.0134847 122.162883 21.0134847 122.162883 1.23264534 125.77076 1.23264534 125.77076 18.0528724"></polyline>
                <polyline id="Fill-18" fill="#FFFFFF" points="135.362951 18.0528724 139.662883 18.0528724 139.662883 21.0134847 131.887031 21.0134847 131.887031 1.23264534 139.123736 1.23264534 139.123736 4.19470244 135.362951 4.19470244 135.362951 9.55149639 138.685724 9.55149639 138.685724 12.3069487 135.362951 12.3069487 135.362951 18.0528724"></polyline>
                <path d="M14.3233918,15.648022 L16.1255246,15.648022 C16.1255246,15.648022 15.8534228,13.3544204 15.6983488,11.8607499 C15.595528,10.9341589 15.2326453,8.04506364 15.1295838,6.14179567 C15.0787754,8.09731682 14.7674235,10.9596835 14.6903681,11.8607499 C14.5610595,13.3544204 14.3233918,15.648022 14.3233918,15.648022 Z M10.6762642,21.0288958 L13.5593395,1.10622635 L16.9572411,1.10622635 L20.3551428,21.0288958 L16.6738218,21.0288958 L16.3143103,17.8397661 L14.0999312,17.8397661 L13.7396973,21.0288958 L10.6762642,21.0288958 Z" id="Fill-19" fill="#FFFFFF"></path>
                <path d="M78.5365325,19.8342965 C78.5365325,19.8342965 75.9604747,17.151806 73.8072583,12.3982112 C71.1825593,6.60364637 73.0617475,3.74368765 73.0617475,3.74368765 C73.0617475,3.74368765 72.0149983,6.83914689 74.1621947,12.0107671 C75.9241142,16.2548332 78.5365325,19.8342965 78.5365325,19.8342965 Z M73.2189886,20.4297902 C70.4828001,20.4297902 69.4582043,18.1383557 69.7649811,16.3249054 C70.1411077,14.1714482 71.1370485,12.8196078 72.4715514,11.6223598 C73.430891,13.9426901 74.6719642,16.399312 76.4420709,18.8674923 C75.5198142,19.9621603 74.5876849,20.4297902 73.2189886,20.4297902 Z M73.69914,4.45572755 C73.9377709,3.05596835 75.1350189,1.5497764 76.980977,1.5497764 C78.4187822,1.5497764 79.3761954,2.64324045 79.0672515,4.32063983 C78.9649123,4.97079463 78.7852769,5.54365325 78.1380117,6.35490196 C77.4919505,7.16518748 75.1646371,8.60515996 74.0502236,9.19631923 C73.5474372,7.56346749 73.4154799,6.06185071 73.69914,4.45572755 Z M82.5571379,10.6815617 C81.1884417,10.6815617 80.1621603,11.6052632 79.5474028,12.8713794 C78.9309598,14.2737874 78.247334,15.8813553 77.80258,16.7699002 C76.273753,14.1685587 75.1251462,12.0952872 74.4094943,10.2353629 C75.5968696,9.57268662 77.6549708,8.56350189 78.8300654,7.49195046 C80.0063639,6.42112143 80.5734434,5.41410389 80.7786034,4.25201238 C81.1544892,2.02992776 79.8886137,0.0799449604 77.0850017,0.0799449604 C74.7237358,0.0799449604 71.9206054,1.92590299 71.3727898,5.00450636 C71.0985208,6.57691778 71.4529756,8.5996216 72.024871,10.2616099 C69.9031992,11.6994152 68.055074,13.2814585 67.575645,15.7787754 C66.8920193,19.8822153 69.4582043,21.7630891 72.3641555,21.7630891 C74.3476092,21.7630891 75.8624699,20.8803234 77.0599587,19.5101823 C77.9723426,20.5586171 79.1361197,21.7630891 80.5734434,21.7630891 C81.7360165,21.7630891 82.9669763,21.0105951 83.9258342,19.7798762 L83.5145511,19.1985896 C82.6260062,20.0548676 81.9423805,20.3943928 81.4285174,20.3943928 C80.5045752,20.3943928 79.5474028,19.576161 78.7260406,18.2748882 C78.6237014,18.0697282 78.4859649,17.8645683 78.3848297,17.6601307 C78.9309598,16.5986928 79.3424837,15.4373237 79.8195046,14.4103199 C80.7111799,12.4278294 81.2570691,11.7779154 82.0784314,11.7779154 C83.4456828,11.7779154 82.3522188,14.0688682 83.8220502,14.0688682 C84.5068799,14.0688682 84.8495356,13.4866185 84.9506708,12.9400069 C85.0881665,12.1188854 84.5068799,10.6815617 82.5571379,10.6815617 Z" id="Fill-20" fill="#FFFFFF"></path>
            </g>
        </g>
    </g>
</svg>