<?xml version="1.0" encoding="UTF-8"?>
<svg width="50px" height="50px" viewBox="0 0 50 50" version="1.1" xmlns="http://www.w3.org/2000/svg" xmlns:xlink="http://www.w3.org/1999/xlink">
    <!-- Generator: Sketch 52.6 (67491) - http://www.bohemiancoding.com/sketch -->
    <title>Brand/Icon/GuitarCenter</title>
    <desc>Created with Sketch.</desc>
    <defs>
        <polygon id="path-1" points="0.00521186441 1.82443158e-05 34.185053 1.82443158e-05 34.185053 20.3042712 0.00521186441 20.3042712"></polygon>
        <polygon id="path-3" points="0.00521186441 0.0544792333 23.7233644 0.0544792333 23.7233644 11.6838708 0.00521186441 11.6838708"></polygon>
    </defs>
    <g id="Brand/Icon/GuitarCenter" stroke="none" stroke-width="1" fill="none" fill-rule="evenodd">
        <rect id="Rectangle" fill="#CD2318" x="0" y="0" width="50" height="50"></rect>
        <g id="Guitar-Center_logo" transform="translate(5.500000, 13.000000)">
            <polyline id="Fill-1" fill="#FFFFFF" points="21.7967119 8.00507627 23.1595275 7.99447881 23.1595275 7.03879661 21.7967119 7.63155932 21.7967119 8.00507627"></polyline>
            <path d="M39.7564492,15.7527733 C39.7564492,16.0331716 39.5285169,16.2599746 39.2484661,16.2599746 C39.1137394,16.2599746 38.9866568,16.2068136 38.8924958,16.109786 C38.7966843,16.0157119 38.7418729,15.8884555 38.7418729,15.7527733 C38.7418729,15.6176992 38.7966843,15.489661 38.8924958,15.3934153 C38.9866568,15.2973432 39.1137394,15.2460064 39.2484661,15.2460064 C39.3857987,15.2460064 39.5130551,15.2973432 39.607303,15.3934153 C39.7036356,15.489661 39.7564492,15.6176992 39.7564492,15.7527733 M39.2484661,15.186678 C38.937839,15.186678 38.6789831,15.4408432 38.6789831,15.7527733 C38.6789831,15.9046992 38.7418729,16.0464619 38.8498453,16.1532182 C38.9539958,16.2622331 39.0959322,16.3196504 39.2484661,16.3196504 C39.4019555,16.3196504 39.543197,16.2622331 39.6496059,16.1532182 C39.7585339,16.0464619 39.8147352,15.9046992 39.8147352,15.7527733 C39.8147352,15.6000657 39.7585339,15.4587373 39.6496059,15.3511123 C39.543197,15.244964 39.4019555,15.186678 39.2484661,15.186678" id="Fill-2" fill="#FFFFFF"></path>
            <path d="M39.2887835,15.51075 L39.2887835,15.7728445 C39.2887835,15.7728445 39.7043789,15.7928857 39.7043789,15.6448034 C39.7043789,15.4730058 39.2887835,15.5089686 39.2887835,15.51075 M39.2887835,15.9400772 L39.2887835,16.3594951 L39.019839,16.3594951 L39.019839,15.3637812 C39.3559351,15.3637812 39.9381407,15.3032122 39.9381407,15.637455 C39.9381407,15.8507825 39.6957524,15.9090133 39.6957524,15.9090133 L40.019839,16.3594951 L39.7524168,16.3594951 L39.4438918,15.9400772 L39.2887835,15.9400772" id="Fill-3" fill="#FFFFFF"></path>
            <path d="M30.0025318,13.0233199 L30.0025318,10.6347225 C30.0025318,10.6347225 29.9676992,9.54822246 28.8795487,9.54822246 C28.1972288,9.54822246 27.7568263,10.1521907 27.7568263,10.6347225 C27.7568263,11.4015614 28.460428,11.7174873 28.8795487,11.7174873 C29.1303263,11.7174873 29.3003199,11.6750106 29.6716653,11.4125932 C29.6716653,12.3541165 29.6627182,12.9051843 29.6716653,12.9032733 C29.4247966,12.9683347 29.333589,13.019411 28.8795487,13.019411 C27.4981441,13.019411 26.4107754,11.9278729 26.4107754,10.6347225 C26.4107754,8.99263771 27.8840826,8.24742797 28.8795487,8.24742797 C30.1249237,8.24742797 31.3506674,9.20979873 31.3506674,10.6347225 C31.3506674,11.51075 31.3514492,11.4879047 31.3514492,11.7293877 L31.3514492,13.0243623 L30.0025318,13.0233199" id="Fill-4" fill="#FFFFFF"></path>
            <path d="M20.0728008,10.8251292 L20.0728008,8.36782203 L21.4357034,7.77566737 L21.4357034,11.1003157 C21.4357034,13.7086801 17.1036017,13.7086801 17.1036017,11.1442691 L17.1036017,9.6696589 L18.4649407,9.06812288 L18.4649407,10.8379852 C18.4649407,12.0647712 20.0728008,12.0522627 20.0728008,10.8251292" id="Fill-5" fill="#FFFFFF"></path>
            <path d="M26.1973496,13.0764809 C26.1973496,13.0764809 25.509036,13.1178284 25.0621186,12.8795593 C24.246375,12.4408072 24.3358453,11.1596441 24.3358453,11.1596441 L24.3358453,8.66376907 L23.4529555,8.66376907 L23.4529555,7.3468178 L24.3358453,7.3468178 L24.3358453,6.53619915 L25.69675,5.92267585 L25.69675,7.39094492 L26.5829407,7.39094492 L26.5829407,8.68313983 L25.69675,8.68313983 L25.69675,11.2568453 C25.69675,11.2568453 25.7194216,11.8721059 26.1973496,11.8721059 L26.1973496,13.0764809" id="Fill-6" fill="#FFFFFF"></path>
            <polygon id="Fill-7" fill="#FFFFFF" points="21.7967119 13.019411 23.1595275 13.019411 23.1595275 8.36556356 21.7967119 8.36556356"></polygon>
            <g id="Group-11">
                <mask id="mask-2" fill="white">
                    <use xlink:href="#path-1"></use>
                </mask>
                <g id="Clip-9"></g>
                <path d="M34.185053,8.04937712 L34.185053,9.42713347 C33.1890657,9.42713347 33.2354513,10.0201568 33.2354513,10.5686186 L33.2354513,13.0233199 L31.8740254,13.0233199 L31.8740254,9.77858686 C31.8740254,8.09246186 33.2552564,8.04937712 34.185053,8.04937712" id="Fill-8" fill="#FFFFFF" mask="url(#mask-2)"></path>
                <path d="M31.6321949,3.49342585 C31.5887627,3.40013347 31.4147733,3.38875424 31.2149852,3.45511864 L31.1618242,3.33481144 L31.2192415,3.3080572 L31.1718136,1.63722034 L29.9336483,0.512152542 L29.8763178,0.539862288 L29.8199428,0.419641949 C29.9982754,0.313493644 30.1014703,0.173120763 30.0599492,0.079654661 C30.0133898,-0.026059322 29.7880636,-0.026059322 29.5600445,0.076875 C29.3309831,0.181980932 29.1877436,0.352930085 29.2367352,0.459338983 C29.2795593,0.551675847 29.4545911,0.564010593 29.6529025,0.495822034 L29.7063242,0.617866525 L28.6690763,1.09292797 L28.6169576,0.97375 C28.7932055,0.869338983 28.8973559,0.725665254 28.8571377,0.633849576 C28.807625,0.527788136 28.5862945,0.526485169 28.3552352,0.631938559 C28.1266949,0.737652542 27.9850191,0.907298729 28.0314047,1.01396822 C28.07475,1.10621822 28.2515191,1.1184661 28.4465297,1.05019068 L28.5024703,1.17162712 L27.5043983,1.63044492 L27.4517585,1.50900847 C27.6294831,1.40642161 27.7343284,1.2631822 27.6905487,1.17058475 C27.6430339,1.06504449 27.4184894,1.06374153 27.1927288,1.16719703 C26.965839,1.2734322 26.8193856,1.44264407 26.8659449,1.54931356 C26.9112013,1.6426928 27.0902288,1.6541589 27.2832415,1.58762076 L27.3360551,1.70844915 L27.2126208,1.7656928 L26.8361504,2.82074788 L12.9073559,9.16827754 C12.2486631,8.5819428 11.1286335,8.45963771 10.0928623,8.93504661 C8.78711653,9.53710381 8.11270127,10.8692564 8.59167161,11.9047669 C9.06569068,12.9420148 10.518411,13.2956398 11.8250254,12.6934089 C12.7672436,12.2574364 13.3755551,11.4465572 13.4638962,10.6382839 L14.1576822,10.3169725 C14.2031992,10.2996864 14.6193665,10.1521907 15.0904322,10.6239513 C15.3655318,11.2443369 15.6089258,11.9086758 15.4538729,12.3274492 C15.4263369,12.4031081 15.3398199,12.633125 14.8757034,12.8385593 C14.5681165,12.9768475 14.2998792,13.0368708 13.9581547,13.1137458 C13.4515614,13.2272775 12.8234449,13.3706038 11.8486525,13.8176949 C11.0051992,14.2073686 10.5292691,14.9570085 10.0251081,15.7507754 C9.35303814,16.8157331 8.58672034,18.0195869 6.70150212,18.8911843 C6.196125,19.1216356 5.73409322,19.153428 5.27909746,18.9875169 C3.89317585,18.4722373 2.82552542,16.1513072 2.47355085,15.3878559 C1.7566589,13.8322881 0.862650424,11.6122945 1.34622458,10.2955169 C1.49484958,9.89229237 1.77403178,9.60199153 2.19706144,9.40758898 C4.11033686,8.52661017 5.47671398,8.59254025 6.67865678,8.65039195 C7.56163347,8.69208686 8.39466314,8.73317373 9.20988559,8.35904873 C10.1796398,7.9090911 10.5972839,7.57127542 10.9341441,7.29999788 C11.1544322,7.11871186 11.3133072,6.99015254 11.6107309,6.85134322 C12.0101335,6.66858051 12.3968538,6.64860169 12.7602076,6.78862712 C13.3093644,7.00544068 13.6895699,7.52801695 13.8603453,7.94383686 L14.9853263,7.48137076 C14.6386504,6.64304237 13.9710975,5.96341525 13.2026949,5.66147458 C12.5301907,5.39888347 11.8019195,5.42850424 11.1041377,5.75163983 C10.6685127,5.95151483 10.4146949,6.15825212 10.1668708,6.35864831 C9.87005508,6.59882839 9.53632203,6.87305932 8.70511653,7.25717373 C8.15674153,7.50968856 7.53010169,7.47824364 6.73902754,7.44011017 C5.4620339,7.37861017 3.87345763,7.30208263 1.68977331,8.307625 C0.969493644,8.63918644 0.473758475,9.16462924 0.21090678,9.87700424 C-0.424506356,11.5949216 0.496777542,13.9940297 1.37150212,15.8941017 C2.07553814,17.4159661 3.19843432,19.5087903 4.86041102,20.1224004 C5.62004025,20.4034936 6.40911653,20.3580636 7.20740042,19.9908877 C9.42035805,18.9711864 10.3238347,17.5470445 11.0503686,16.3996525 C11.4898157,15.7056059 11.8388369,15.1570572 12.3572436,14.9178326 C13.2116419,14.5239025 13.7517648,14.4023792 14.225697,14.2957097 C14.5990403,14.211625 14.9522309,14.1337945 15.3695275,13.947036 C15.9846144,13.6738475 16.3969597,13.270536 16.5900593,12.7525636 C16.9594068,11.7610932 16.4497733,10.6663411 15.9984258,9.70023517 L15.9078263,9.50574576 L27.4517585,4.15064195 L28.5024703,4.56055508 L28.626339,4.50391949 L28.6790657,4.62474788 C28.5024703,4.72846398 28.3961483,4.87066102 28.4406229,4.96247669 C28.4896144,5.06931992 28.7112924,5.07088347 28.9394852,4.966125 C29.1674174,4.86180085 29.3103093,4.69006992 29.2623602,4.58357415 C29.2193623,4.49227966 29.0425932,4.47820763 28.8509703,4.54735169 L28.7932055,4.42504661 L29.7880636,3.96787924 L29.8454809,4.08714407 C29.6646292,4.19164195 29.5610869,4.33470763 29.6037373,4.42773941 C29.6529025,4.53275847 29.8773602,4.53380085 30.1057267,4.42965042 C30.3314004,4.32437076 30.4775932,4.15550636 30.4286886,4.04840254 C30.3856907,3.95563136 30.2098771,3.9423411 30.0133898,4.00992161 L29.9586653,3.88970127 L30.9929597,3.41325 L31.0494216,3.5335572 C30.8677881,3.63866314 30.764072,3.77964407 30.8088941,3.87319703 C30.855714,3.97830297 31.0799979,3.97830297 31.3091462,3.87423941 C31.5361229,3.76991525 31.679536,3.59879237 31.6321949,3.49342585" id="Fill-10" fill="#FFFFFF" mask="url(#mask-2)"></path>
            </g>
            <path d="M30.6108432,20.1409894 C30.6108432,20.1409894 29.9468517,20.1798178 29.5166123,19.9459788 C28.7456038,19.5274661 28.8155297,18.0145487 28.8155297,18.0145487 L28.8155297,15.3632733 L27.9621737,15.3632733 L27.9621737,14.0366801 L28.8155297,14.0366801 L28.8155297,13.4702373 L30.1318729,13.4702373 L30.1290932,14.0801992 L30.9829703,14.0801992 L30.9829703,15.3855106 L30.1290932,15.3855106 L30.1290932,18.3240466 C30.1290932,18.3240466 30.1535021,18.9380911 30.6108432,18.9380911 L30.6108432,20.1409894" id="Fill-12" fill="#FFFFFF"></path>
            <path d="M19.7423686,20.0481314 C18.5919364,21.3603051 17.3683644,21.3415424 16.9097203,21.3415424 C14.5744576,21.3415424 13.1424979,19.3599047 13.1424979,17.5777945 C13.1424979,15.9701949 14.219964,14.2238729 16.3195636,13.8747648 C17.6412924,13.6577775 18.9237585,14.1605487 19.8199386,15.1663517 C19.5325911,15.3766504 18.8823242,15.8739492 18.8823242,15.8739492 C18.1743792,15.2235085 17.6734322,15.0053919 16.9097203,15.0053919 C16.2972394,15.0053919 14.3363623,15.5098136 14.3363623,17.5777945 C14.3363623,18.9380911 15.4150445,20.1605339 16.9097203,20.1507182 C18.0280996,20.1430742 18.5168856,19.5694216 18.824125,19.2830297 L19.7423686,20.0481314" id="Fill-13" fill="#FFFFFF"></path>
            <path d="M26.8193856,17.4190064 L26.8193856,20.0959068 L28.1351208,20.0959068 L28.1351208,17.0246419 C28.1351208,14.4167987 23.9497331,14.4167987 23.9497331,16.9805148 L23.9497331,20.0959068 L25.2650339,20.0959068 L25.2650339,17.375053 C25.2650339,16.191786 26.8193856,16.1699831 26.8193856,17.4190064" id="Fill-14" fill="#FFFFFF"></path>
            <path d="M38.3469004,15.1434195 L38.3469004,16.524303 C37.3834004,16.524303 37.4237924,17.1160233 37.4237924,17.6628347 L37.4237924,20.0975572 L36.1121398,20.0975572 L36.1121398,16.8752352 C36.1121398,15.3380826 37.4642712,15.1434195 38.3469004,15.1434195" id="Fill-15" fill="#FFFFFF"></path>
            <path d="M32.5308941,16.7153178 C32.5308941,16.7153178 32.0016292,17.1912479 32.2538835,17.838214 L33.6561356,16.4337903 C33.6561356,16.4337903 33.1391186,16.1699831 32.5308941,16.7153178 M32.9124025,18.9219343 C32.9039767,18.9261907 33.2225953,18.9815233 33.314411,18.9815233 C34.010803,18.9815233 34.3552203,18.4883941 34.3552203,18.4883941 C34.3552203,18.4883941 35.4985297,18.4922161 35.6628771,18.4883941 C35.6628771,18.4883941 35.3598941,19.2766017 34.8171653,19.6290106 C32.7165233,20.9782754 31.3921017,19.3042246 31.1315085,18.8655593 C30.7392288,18.2026102 30.5249343,16.2928093 32.0132691,15.4663814 C34.2488983,14.2262182 35.4985297,16.3839301 35.4985297,16.3839301 L32.9124025,18.9219343" id="Fill-16" fill="#FFFFFF"></path>
            <g id="Group-20" transform="translate(0.000000, 15.027542)">
                <mask id="mask-4" fill="white">
                    <use xlink:href="#path-3"></use>
                </mask>
                <g id="Clip-18"></g>
                <path d="M20.5918157,1.68777542 C20.5918157,1.68777542 20.062464,2.16370551 20.3142839,2.81067161 L21.7176653,1.40624788 C21.7176653,1.40624788 21.2011695,1.14244068 20.5918157,1.68777542 M23.7233644,3.46085169 C23.7233644,3.46085169 23.42125,4.24905932 22.876697,4.60146822 C20.7795297,5.95073305 19.4520678,4.2766822 19.196339,3.83801695 C18.8004979,3.1750678 18.587072,1.26526695 20.0728008,0.438838983 C22.3121653,-0.801324153 23.5584958,1.35638771 23.5584958,1.35638771 L20.9734979,3.89439195 C20.9656801,3.89864831 21.2839513,3.95398093 21.3768093,3.95398093 C22.0740699,3.95398093 22.4159682,3.46085169 22.4159682,3.46085169 L23.7233644,3.46085169" id="Fill-17" fill="#FFFFFF" mask="url(#mask-4)"></path>
                <polyline id="Fill-19" fill="#FFFFFF" opacity="0" mask="url(#mask-4)" points="2.30902966 10.1525381 0.729574153 10.1525381 0.729574153 11.6838708 0 11.6838708 0 8.06666314 2.61652966 8.06666314 2.61652966 8.70572458 0.729574153 8.70572458 0.729574153 9.56168644 2.30902966 9.56168644 2.30902966 10.1525381"></polyline>
            </g>
            <path d="M3.10949353,26.7114131 L3.96033129,26.7114131 L3.96033129,24.1793157 L3.10949353,24.1793157 L3.10949353,26.7114131 Z M3.04563983,23.3714767 C3.04563983,23.1302542 3.25845144,22.9555699 3.54206402,22.9555699 C3.82577878,22.9555699 4.04563983,23.1302542 4.04563983,23.3714767 C4.04563983,23.6126123 3.82577878,23.7813898 3.54206402,23.7813898 C3.25845144,23.7813898 3.04563983,23.6126123 3.04563983,23.3714767 Z" id="Fill-21" fill="#FFFFFF" opacity="0"></path>
            <path d="M5.21629449,26.7114131 L4.49288771,26.7114131 L4.49288771,24.1793157 L4.94510381,24.1793157 L5.04769068,24.5350254 L5.08973305,24.5350254 C5.2826589,24.2516737 5.50581356,24.113125 5.90964619,24.113125 C6.56078178,24.113125 6.96478814,24.5591737 6.96478814,25.2403644 L6.96478814,26.7114131 L6.24120763,26.7114131 L6.24120763,25.3007352 C6.24120763,24.9932352 6.05436229,24.7460191 5.72879449,24.7460191 C5.39723305,24.7460191 5.21629449,25.0113898 5.21629449,25.2645996 L5.21629449,26.7114131" id="Fill-22" fill="#FFFFFF" opacity="0"></path>
            <path d="M8.78060169,24.7158771 C8.43088559,24.7158771 8.18366949,25.0113898 8.18366949,25.4392839 C8.18366949,25.8674386 8.43088559,26.1749386 8.78060169,26.1749386 C9.14221822,26.1749386 9.39542797,25.8914131 9.39542797,25.4392839 C9.39542797,24.9932352 9.14221822,24.7158771 8.78060169,24.7158771 Z M9.35321186,24.4445996 L9.35321186,23.0639767 L10.0767924,23.0639767 L10.0767924,26.7114131 L9.60042797,26.7114131 L9.48602754,26.3617839 L9.45579873,26.3617839 C9.45579873,26.3617839 9.25079873,26.771697 8.62980508,26.771697 C7.96068856,26.771697 7.44818856,26.2592839 7.44818856,25.4513581 C7.44818856,24.6615869 7.94861441,24.1191186 8.60574364,24.1191186 C9.15429237,24.1191186 9.32315678,24.4445996 9.32315678,24.4445996 L9.35321186,24.4445996 Z" id="Fill-23" fill="#FFFFFF" opacity="0"></path>
            <path d="M14.4068962,24.1793157 L14.4068962,26.5727775 C14.4068962,27.2781165 13.984822,27.7966102 13.1287733,27.7966102 C12.5982055,27.7966102 12.2605636,27.5734555 12.1098538,27.4047648 L12.4534025,26.9586292 C12.5439153,27.0550487 12.7609025,27.2299068 13.1107055,27.2299068 C13.5085445,27.2299068 13.707464,27.0007585 13.707464,26.596839 L13.707464,26.4762712 C13.5868962,26.6149068 13.3457606,26.771697 12.9961314,26.771697 C12.3330085,26.771697 11.9409894,26.3316419 11.9409894,25.6442839 L11.9409894,24.1793157 L12.6645699,24.1793157 L12.6645699,25.5901674 C12.6645699,25.9157352 12.8272669,26.1626907 13.1528347,26.1626907 C13.4965572,26.1626907 13.6894831,25.9276356 13.707464,25.6624386 L13.707464,24.1793157 L14.4068962,24.1793157" id="Fill-24" fill="#FFFFFF" opacity="0"></path>
            <path d="M16.8433559,25.4453644 C16.8433559,24.9932352 16.5841525,24.6918157 16.2344364,24.6918157 C15.8728199,24.6918157 15.6195233,24.9932352 15.6195233,25.4453644 C15.6195233,25.9096547 15.8728199,26.1989131 16.2344364,26.1989131 C16.5841525,26.1989131 16.8433559,25.9096547 16.8433559,25.4453644 Z M16.2344364,26.771697 C15.5049492,26.771697 14.9081907,26.2592839 14.9081907,25.4573517 C14.9081907,24.6495996 15.5049492,24.1191186 16.2344364,24.1191186 C16.9579301,24.1191186 17.5547754,24.6495996 17.5547754,25.4573517 C17.5547754,26.2592839 16.9579301,26.771697 16.2344364,26.771697 Z" id="Fill-25" fill="#FFFFFF" opacity="0"></path>
            <path d="M19.7743347,24.1793157 L20.4975678,24.1793157 L20.4975678,26.7114131 L20.0154703,26.7114131 L19.8887352,26.3678644 L19.8586801,26.3678644 C19.7381123,26.5425487 19.521125,26.771697 19.0749894,26.771697 C18.4299343,26.771697 18.0380021,26.3316419 18.0380021,25.6504513 L18.0380021,24.1793157 L18.7614089,24.1793157 L18.7614089,25.5901674 C18.7614089,25.9157352 18.9241059,26.1626907 19.2498475,26.1626907 C19.5993898,26.1626907 19.7743347,25.8794258 19.7743347,25.6442839 L19.7743347,24.1793157" id="Fill-26" fill="#FFFFFF" opacity="0"></path>
            <path d="M22.5966462,24.7882352 L22.4640042,24.7882352 C22.1266229,24.7882352 21.8854004,25.0233771 21.8854004,25.4032352 L21.8854004,26.7114131 L21.1619068,26.7114131 L21.1619068,24.1793157 L21.614036,24.1793157 L21.7164492,24.5530064 L21.7527585,24.5530064 C21.8854004,24.305964 22.1266229,24.1793157 22.4581843,24.1793157 L22.5966462,24.1793157 L22.5966462,24.7882352" id="Fill-27" fill="#FFFFFF" opacity="0"></path>
            <path d="M24.2257013,25.994 C24.2257013,25.994 24.6053856,26.2412161 25.0455275,26.2412161 C25.3289661,26.2412161 25.4313792,26.1507034 25.4313792,26.0241419 C25.4313792,25.6141419 24.0147076,25.8553644 24.0147076,24.890822 C24.0147076,24.4566737 24.3521758,24.1191186 25.0273729,24.1191186 C25.7508665,24.1191186 26.1308983,24.3420127 26.1308983,24.3420127 L25.9075699,24.8787479 C25.9075699,24.8787479 25.5701886,24.6555932 25.1118051,24.6555932 C24.8768369,24.6555932 24.7441949,24.7219576 24.7441949,24.8665869 C24.7441949,25.2584322 26.1848411,24.9932352 26.1848411,25.9819258 C26.1848411,26.4221547 25.8714343,26.771697 25.0878305,26.771697 C24.321947,26.771697 23.9903856,26.4883453 23.9903856,26.4883453 L24.2257013,25.994" id="Fill-28" fill="#FFFFFF" opacity="0"></path>
            <path d="M28.4764979,25.4453644 C28.4764979,24.9932352 28.2173814,24.6918157 27.8675784,24.6918157 C27.5057881,24.6918157 27.2525784,24.9932352 27.2525784,25.4453644 C27.2525784,25.9096547 27.5057881,26.1989131 27.8675784,26.1989131 C28.2173814,26.1989131 28.4764979,25.9096547 28.4764979,25.4453644 Z M27.8675784,26.771697 C27.138178,26.771697 26.5413326,26.2592839 26.5413326,25.4573517 C26.5413326,24.6495996 27.138178,24.1191186 27.8675784,24.1191186 C28.5911589,24.1191186 29.1879174,24.6495996 29.1879174,25.4573517 C29.1879174,26.2592839 28.5911589,26.771697 27.8675784,26.771697 Z" id="Fill-29" fill="#FFFFFF" opacity="0"></path>
            <path d="M31.4076504,24.1793157 L32.1308835,24.1793157 L32.1308835,26.7114131 L31.648786,26.7114131 L31.5220508,26.3678644 L31.4921695,26.3678644 C31.3716017,26.5425487 31.1544407,26.771697 30.7081314,26.771697 C30.0631631,26.771697 29.6712309,26.3316419 29.6712309,25.6504513 L29.6712309,24.1793157 L30.3948114,24.1793157 L30.3948114,25.5901674 C30.3948114,25.9157352 30.5576822,26.1626907 30.8830763,26.1626907 C31.2327924,26.1626907 31.4076504,25.8794258 31.4076504,25.6442839 L31.4076504,24.1793157" id="Fill-30" fill="#FFFFFF" opacity="0"></path>
            <path d="M33.518803,26.7114131 L32.7952225,26.7114131 L32.7952225,24.1793157 L33.2474386,24.1793157 L33.3497648,24.5350254 L33.3920678,24.5350254 C33.5850805,24.2516737 33.8081483,24.113125 34.2121547,24.113125 C34.8632034,24.113125 35.2669492,24.5591737 35.2669492,25.2403644 L35.2669492,26.7114131 L34.5436292,26.7114131 L34.5436292,25.3007352 C34.5436292,24.9932352 34.3567839,24.7460191 34.0310424,24.7460191 C33.6995678,24.7460191 33.518803,25.0113898 33.518803,25.2645996 L33.518803,26.7114131" id="Fill-31" fill="#FFFFFF" opacity="0"></path>
            <path d="M37.082589,24.7158771 C36.7331335,24.7158771 36.4858305,25.0113898 36.4858305,25.4392839 C36.4858305,25.8674386 36.7331335,26.1749386 37.082589,26.1749386 C37.4443792,26.1749386 37.697589,25.8914131 37.697589,25.4392839 C37.697589,24.9932352 37.4443792,24.7158771 37.082589,24.7158771 Z M37.6553729,24.4445996 L37.6553729,23.0639767 L38.3789534,23.0639767 L38.3789534,26.7114131 L37.9026758,26.7114131 L37.7880148,26.3617839 L37.7580466,26.3617839 C37.7580466,26.3617839 37.5529597,26.771697 36.9321398,26.771697 C36.2627627,26.771697 35.7501758,26.2592839 35.7501758,25.4513581 C35.7501758,24.6615869 36.2507754,24.1191186 36.9077309,24.1191186 C37.4564534,24.1191186 37.6251441,24.4445996 37.6251441,24.4445996 L37.6553729,24.4445996 Z" id="Fill-32" fill="#FFFFFF" opacity="0"></path>
            <polyline id="Fill-33" fill="#FFFFFF" opacity="0" points="39.0919364 23.2485636 38.9259386 23.2485636 38.9259386 23.7694894 38.8429831 23.7694894 38.8429831 23.2485636 38.6762034 23.2485636 38.6762034 23.1792458 39.0919364 23.1792458 39.0919364 23.2485636"></polyline>
            <polyline id="Fill-34" fill="#FFFFFF" opacity="0" points="39.7911081 23.7694894 39.7089343 23.7694894 39.6704534 23.3032881 39.6679343 23.3032881 39.4873432 23.7746144 39.4403496 23.7746144 39.2598453 23.3032881 39.2573263 23.3032881 39.2196271 23.7694894 39.1375403 23.7694894 39.1905275 23.1792458 39.2931144 23.1792458 39.4634555 23.635197 39.4651928 23.635197 39.6353602 23.1792458 39.7371653 23.1792458 39.7911081 23.7694894"></polyline>
        </g>
    </g>
</svg>