<?xml version="1.0" encoding="UTF-8"?>
<svg width="116px" height="73px" viewBox="0 0 116 73" version="1.1" xmlns="http://www.w3.org/2000/svg" xmlns:xlink="http://www.w3.org/1999/xlink">
    <!-- Generator: Sketch 52.6 (67491) - http://www.bohemiancoding.com/sketch -->
    <title>Brand/Card/Small/BassPro</title>
    <desc>Created with Sketch.</desc>
    <defs>
        <polygon id="path-1" points="0.0104237288 3.64886316e-05 68.3701059 3.64886316e-05 68.3701059 40.6085424 0.0104237288 40.6085424"></polygon>
        <polygon id="path-3" points="0.0104237288 0.108958467 47.4467288 0.108958467 47.4467288 23.3677415 0.0104237288 23.3677415"></polygon>
    </defs>
    <g id="Symbols" stroke="none" stroke-width="1" fill="none" fill-rule="evenodd">
        <g id="Brand/Card/Small/GuitarCenter">
            <g id="Mask"></g>
            <g id="Guitar-Center_logo" transform="translate(18.000000, 14.000000)">
                <polyline id="Fill-1" fill="#FFFFFF" points="43.5934237 16.0101525 46.3190551 15.9889576 46.3190551 14.0775932 43.5934237 15.2631186 43.5934237 16.0101525"></polyline>
                <path d="M79.5128983,31.5055466 C79.5128983,32.0663432 79.0570339,32.5199492 78.4969322,32.5199492 C78.2274788,32.5199492 77.9733136,32.4136271 77.7849915,32.219572 C77.5933686,32.0314237 77.4837458,31.776911 77.4837458,31.5055466 C77.4837458,31.2353983 77.5933686,30.979322 77.7849915,30.7868305 C77.9733136,30.5946864 78.2274788,30.4920127 78.4969322,30.4920127 C78.7715975,30.4920127 79.0261102,30.5946864 79.2146059,30.7868305 C79.4072712,30.979322 79.5128983,31.2353983 79.5128983,31.5055466 M78.4969322,30.3733559 C77.875678,30.3733559 77.3579661,30.8816864 77.3579661,31.5055466 C77.3579661,31.8093983 77.4837458,32.0929237 77.6996907,32.3064364 C77.9079915,32.5244661 78.1918644,32.6393008 78.4969322,32.6393008 C78.803911,32.6393008 79.0863941,32.5244661 79.2992119,32.3064364 C79.5170678,32.0929237 79.6294703,31.8093983 79.6294703,31.5055466 C79.6294703,31.2001314 79.5170678,30.9174746 79.2992119,30.7022246 C79.0863941,30.489928 78.803911,30.3733559 78.4969322,30.3733559" id="Fill-2" fill="#FFFFFF"></path>
                <path d="M78.3159068,30.955 L78.3159068,31.3639576 C78.3159068,31.3639576 78.7427585,31.3952288 78.7427585,31.1641695 C78.7427585,30.8961059 78.3159068,30.9522203 78.3159068,30.955 M78.3159068,31.6248983 L78.3159068,32.2793347 L78.039678,32.2793347 L78.039678,30.725678 C78.3848771,30.725678 78.9828517,30.6311695 78.9828517,31.1527034 C78.9828517,31.4855678 78.7338983,31.576428 78.7338983,31.576428 L79.0667627,32.2793347 L78.7920975,32.2793347 L78.4752161,31.6248983 L78.3159068,31.6248983" id="Fill-3" fill="#FFFFFF"></path>
                <path d="M60.0050636,26.0466398 L60.0050636,21.2694449 C60.0050636,21.2694449 59.9353983,19.0964449 57.7590975,19.0964449 C56.3944576,19.0964449 55.5136525,20.3043814 55.5136525,21.2694449 C55.5136525,22.8031229 56.9208559,23.4349746 57.7590975,23.4349746 C58.2606525,23.4349746 58.6006398,23.3500212 59.3433305,22.8251864 C59.3433305,24.7082331 59.3254364,25.8103686 59.3433305,25.8065466 C58.8495932,25.9366695 58.667178,26.038822 57.7590975,26.038822 C54.9962881,26.038822 52.8215508,23.8557458 52.8215508,21.2694449 C52.8215508,17.9852754 55.7681653,16.4948559 57.7590975,16.4948559 C60.2498475,16.4948559 62.7013347,18.4195975 62.7013347,21.2694449 C62.7013347,23.0215 62.7028983,22.9758093 62.7028983,23.4587754 L62.7028983,26.0487246 L60.0050636,26.0466398" id="Fill-4" fill="#FFFFFF"></path>
                <path d="M40.1456017,21.6502585 L40.1456017,16.7356441 L42.8714068,15.5513347 L42.8714068,22.2006314 C42.8714068,27.4173602 34.2072034,27.4173602 34.2072034,22.2885381 L34.2072034,19.3393178 L36.9298814,18.1362458 L36.9298814,21.6759703 C36.9298814,24.1295424 40.1456017,24.1045254 40.1456017,21.6502585" id="Fill-5" fill="#FFFFFF"></path>
                <path d="M52.3946992,26.1529619 C52.3946992,26.1529619 51.018072,26.2356568 50.1242373,25.7591186 C48.49275,24.8816144 48.6716907,22.3192881 48.6716907,22.3192881 L48.6716907,17.3275381 L46.905911,17.3275381 L46.905911,14.6936356 L48.6716907,14.6936356 L48.6716907,13.0723983 L51.3935,11.8453517 L51.3935,14.7818898 L53.1658814,14.7818898 L53.1658814,17.3662797 L51.3935,17.3662797 L51.3935,22.5136907 C51.3935,22.5136907 51.4388432,23.7442119 52.3946992,23.7442119 L52.3946992,26.1529619" id="Fill-6" fill="#FFFFFF"></path>
                <polygon id="Fill-7" fill="#FFFFFF" points="43.5934237 26.038822 46.3190551 26.038822 46.3190551 16.7311271 43.5934237 16.7311271"></polygon>
                <g id="Group-11">
                    <mask id="mask-2" fill="white">
                        <use xlink:href="#path-1"></use>
                    </mask>
                    <g id="Clip-9"></g>
                    <path d="M68.3701059,16.0987542 L68.3701059,18.8542669 C66.3781314,18.8542669 66.4709025,20.0403136 66.4709025,21.1372373 L66.4709025,26.0466398 L63.7480508,26.0466398 L63.7480508,19.5571737 C63.7480508,16.1849237 66.5105127,16.0987542 68.3701059,16.0987542" id="Fill-8" fill="#FFFFFF" mask="url(#mask-2)"></path>
                    <path d="M63.2643898,6.98685169 C63.1775254,6.80026695 62.8295466,6.77750847 62.4299703,6.91023729 L62.3236483,6.66962288 L62.4384831,6.61611441 L62.3436271,3.27444068 L59.8672966,1.02430508 L59.7526356,1.07972458 L59.6398856,0.839283898 C59.9965508,0.626987288 60.2029407,0.346241525 60.1198983,0.159309322 C60.0267797,-0.0521186441 59.5761271,-0.0521186441 59.120089,0.15375 C58.6619661,0.363961864 58.3754873,0.705860169 58.4734703,0.918677966 C58.5591186,1.10335169 58.9091822,1.12802119 59.3058051,0.991644068 L59.4126483,1.23573305 L57.3381525,2.18585593 L57.2339153,1.9475 C57.586411,1.73867797 57.7947119,1.45133051 57.7142754,1.26769915 C57.61525,1.05557627 57.172589,1.05297034 56.7104703,1.26387712 C56.2533898,1.47530508 55.9700381,1.81459746 56.0628093,2.02793644 C56.1495,2.21243644 56.5030381,2.2369322 56.8930593,2.10038136 L57.0049407,2.34325424 L55.0087966,3.26088983 L54.9035169,3.01801695 C55.2589661,2.81284322 55.4686568,2.52636441 55.3810975,2.34116949 C55.2860678,2.13008898 54.8369788,2.12748305 54.3854576,2.33439407 C53.931678,2.54686441 53.6387712,2.88528814 53.7318898,3.09862712 C53.8224025,3.28538559 54.1804576,3.3083178 54.5664831,3.17524153 L54.6721102,3.41689831 L54.4252415,3.53138559 L53.6723008,5.64149576 L25.8147119,18.3365551 C24.4973263,17.1638856 22.2572669,16.9192754 20.1857246,17.8700932 C17.5742331,19.0742076 16.2254025,21.7385127 17.1833432,23.8095339 C18.1313814,25.8840297 21.036822,26.5912797 23.6500508,25.3868178 C25.5344873,24.5148729 26.7511102,22.8931144 26.9277924,21.2765678 L28.3153644,20.6339449 C28.4063983,20.5993729 29.2387331,20.3043814 30.1808644,21.2479025 C30.7310636,22.4886737 31.2178517,23.8173517 30.9077458,24.6548983 C30.8526737,24.8062161 30.6796398,25.26625 29.7514068,25.6771186 C29.1362331,25.9536949 28.5997585,26.0737415 27.9163093,26.2274915 C26.9031229,26.4545551 25.6468898,26.7412076 23.6973051,27.6353898 C22.0103983,28.4147373 21.0585381,29.9140169 20.0502161,31.5015508 C18.7060763,33.6314661 17.1734407,36.0391737 13.4030042,37.7823686 C12.39225,38.2432712 11.4681864,38.3068559 10.5581949,37.9750339 C7.78635169,36.9444746 5.65105085,32.3026144 4.94710169,30.7757119 C3.5133178,27.6645763 1.72530085,23.224589 2.69244915,20.5910339 C2.98969915,19.7845847 3.54806356,19.2039831 4.39412288,18.815178 C8.22067373,17.0532203 10.953428,17.1850805 13.3573136,17.3007839 C15.1232669,17.3841737 16.7893263,17.4663475 18.4197712,16.7180975 C20.3592797,15.8181822 21.1945678,15.1425508 21.8682881,14.5999958 C22.3088644,14.2374237 22.6266144,13.9803051 23.2214619,13.7026864 C24.0202669,13.337161 24.7937076,13.2972034 25.5204153,13.5772542 C26.6187288,14.0108814 27.3791398,15.0560339 27.7206907,15.8876737 L29.9706525,14.9627415 C29.2773008,13.2860847 27.9421949,11.9268305 26.4053898,11.3229492 C25.0603814,10.7977669 23.603839,10.8570085 22.2082754,11.5032797 C21.3370254,11.9030297 20.8293898,12.3165042 20.3337415,12.7172966 C19.7401102,13.1976568 19.0726441,13.7461186 17.4102331,14.5143475 C16.3134831,15.0193771 15.0602034,14.9564873 13.4780551,14.8802203 C10.9240678,14.7572203 7.74691525,14.6041653 3.37954661,16.61525 C1.93898729,17.2783729 0.947516949,18.3292585 0.421813559,19.7540085 C-0.849012712,23.1898432 0.993555085,27.9880593 2.74300424,31.7882034 C4.15107627,34.8319322 6.39686864,39.0175805 9.72082203,40.2448008 C11.2400805,40.8069873 12.8182331,40.7161271 14.4148008,39.9817754 C18.8407161,37.9423729 20.6476695,35.094089 22.1007373,32.7993051 C22.9796314,31.4112119 23.6776737,30.3141144 24.7144873,29.8356653 C26.4232839,29.0478051 27.5035297,28.8047585 28.4513941,28.5914195 C29.1980805,28.42325 29.9044619,28.267589 30.7390551,27.894072 C31.9692288,27.3476949 32.7939195,26.541072 33.1801186,25.5051271 C33.9188136,23.5221864 32.8995466,21.3326822 31.9968517,19.4004703 L31.8156525,19.0114915 L54.9035169,8.3012839 L57.0049407,9.12111017 L57.252678,9.00783898 L57.3581314,9.24949576 C57.0049407,9.45692797 56.7922966,9.74132203 56.8812458,9.92495339 C56.9792288,10.1386398 57.4225847,10.1417669 57.8789703,9.93225 C58.3348347,9.72360169 58.6206186,9.38013983 58.5247203,9.16714831 C58.4387246,8.98455932 58.0851864,8.95641525 57.7019407,9.09470339 L57.586411,8.85009322 L59.5761271,7.93575847 L59.6909619,8.17428814 C59.3292585,8.3832839 59.1221737,8.66941525 59.2074746,8.85547881 C59.3058051,9.06551695 59.7547203,9.06760169 60.2114534,8.85930085 C60.6628008,8.64874153 60.9551864,8.31101271 60.8573771,8.09680508 C60.7713814,7.91126271 60.4197542,7.8846822 60.0267797,8.01984322 L59.9173305,7.77940254 L61.9859195,6.8265 L62.0988432,7.06711441 C61.7355763,7.27732627 61.5281441,7.55928814 61.6177881,7.74639407 C61.711428,7.95660593 62.1599958,7.95660593 62.6182924,7.74847881 C63.0722458,7.53983051 63.359072,7.19758475 63.2643898,6.98685169" id="Fill-10" fill="#FFFFFF" mask="url(#mask-2)"></path>
                </g>
                <path d="M61.2216864,40.2819788 C61.2216864,40.2819788 59.8937034,40.3596356 59.0332246,39.8919576 C57.4912076,39.0549322 57.6310593,36.0290975 57.6310593,36.0290975 L57.6310593,30.7265466 L55.9243475,30.7265466 L55.9243475,28.0733602 L57.6310593,28.0733602 L57.6310593,26.9404746 L60.2637458,26.9404746 L60.2581864,28.1603983 L61.9659407,28.1603983 L61.9659407,30.7710212 L60.2581864,30.7710212 L60.2581864,36.6480932 C60.2581864,36.6480932 60.3070042,37.8761822 61.2216864,37.8761822 L61.2216864,40.2819788" id="Fill-12" fill="#FFFFFF"></path>
                <path d="M39.4847373,40.0962627 C37.1838729,42.7206102 34.7367288,42.6830847 33.8194407,42.6830847 C29.1489153,42.6830847 26.2849958,38.7198093 26.2849958,35.155589 C26.2849958,31.9403898 28.439928,28.4477458 32.6391271,27.7495297 C35.2825847,27.3155551 37.8475169,28.3210975 39.6398771,30.3327034 C39.0651822,30.7533008 37.7646483,31.7478983 37.7646483,31.7478983 C36.3487585,30.4470169 35.3468644,30.0107839 33.8194407,30.0107839 C32.5944788,30.0107839 28.6727246,31.0196271 28.6727246,35.155589 C28.6727246,37.8761822 30.830089,40.3210678 33.8194407,40.3014364 C36.0561992,40.2861483 37.0337712,39.1388432 37.64825,38.5660593 L39.4847373,40.0962627" id="Fill-13" fill="#FFFFFF"></path>
                <path d="M53.6387712,34.8380127 L53.6387712,40.1918136 L56.2702415,40.1918136 L56.2702415,34.0492839 C56.2702415,28.8335975 47.8994661,28.8335975 47.8994661,33.9610297 L47.8994661,40.1918136 L50.5300678,40.1918136 L50.5300678,34.7501059 C50.5300678,32.383572 53.6387712,32.3399661 53.6387712,34.8380127" id="Fill-14" fill="#FFFFFF"></path>
                <path d="M76.6938008,30.286839 L76.6938008,33.0486059 C74.7668008,33.0486059 74.8475847,34.2320466 74.8475847,35.3256695 L74.8475847,40.1951144 L72.2242797,40.1951144 L72.2242797,33.7504703 C72.2242797,30.6761653 74.9285424,30.286839 76.6938008,30.286839" id="Fill-15" fill="#FFFFFF"></path>
                <path d="M65.0617881,33.4306356 C65.0617881,33.4306356 64.0032585,34.3824958 64.5077669,35.676428 L67.3122712,32.8675805 C67.3122712,32.8675805 66.2782373,32.3399661 65.0617881,33.4306356 M65.8248051,37.8438686 C65.8079534,37.8523814 66.4451907,37.9630466 66.628822,37.9630466 C68.0216059,37.9630466 68.7104407,36.9767881 68.7104407,36.9767881 C68.7104407,36.9767881 70.9970593,36.9844322 71.3257542,36.9767881 C71.3257542,36.9767881 70.7197881,38.5532034 69.6343305,39.2580212 C65.4330466,41.9565508 62.7842034,38.6084492 62.2630169,37.7311186 C61.4784576,36.4052203 61.0498686,32.5856186 64.0265381,30.9327627 C68.4977966,28.4524364 70.9970593,32.7678602 70.9970593,32.7678602 L65.8248051,37.8438686" id="Fill-16" fill="#FFFFFF"></path>
                <g id="Group-20" transform="translate(0.000000, 30.055085)">
                    <mask id="mask-4" fill="white">
                        <use xlink:href="#path-3"></use>
                    </mask>
                    <g id="Clip-18"></g>
                    <path d="M41.1836314,3.37555085 C41.1836314,3.37555085 40.124928,4.32741102 40.6285678,5.62134322 L43.4353305,2.81249576 C43.4353305,2.81249576 42.402339,2.28488136 41.1836314,3.37555085 M47.4467288,6.92170339 C47.4467288,6.92170339 46.8425,8.49811864 45.7533941,9.20293644 C41.5590593,11.9014661 38.9041356,8.55336441 38.392678,7.6760339 C37.6009958,6.35013559 37.1741441,2.5305339 40.1456017,0.877677966 C44.6243305,-1.60264831 47.1169915,2.71277542 47.1169915,2.71277542 L41.9469958,7.7887839 C41.9313602,7.79729661 42.5679025,7.90796186 42.7536186,7.90796186 C44.1481398,7.90796186 44.8319364,6.92170339 44.8319364,6.92170339 L47.4467288,6.92170339" id="Fill-17" fill="#FFFFFF" mask="url(#mask-4)"></path>
                    <polyline id="Fill-19" fill="#FFFFFF" opacity="0" mask="url(#mask-4)" points="4.61805932 20.3050763 1.45914831 20.3050763 1.45914831 23.3677415 0 23.3677415 0 16.1333263 5.23305932 16.1333263 5.23305932 17.4114492 1.45914831 17.4114492 1.45914831 19.1233729 4.61805932 19.1233729 4.61805932 20.3050763"></polyline>
                </g>
                <path d="M6.19986017,53.4228263 L7.64667373,53.4228263 L7.64667373,48.3586314 L6.19986017,48.3586314 L6.19986017,53.4228263 Z M6.09127966,46.7429534 C6.09127966,46.2605085 6.45315678,45.9111398 6.93542797,45.9111398 C7.41787288,45.9111398 7.79173729,46.2605085 7.79173729,46.7429534 C7.79173729,47.2252246 7.41787288,47.5627797 6.93542797,47.5627797 C6.45315678,47.5627797 6.09127966,47.2252246 6.09127966,46.7429534 Z" id="Fill-21" fill="#FFFFFF" opacity="0"></path>
                <path d="M10.432589,53.4228263 L8.98577542,53.4228263 L8.98577542,48.3586314 L9.89020763,48.3586314 L10.0953814,49.0700508 L10.1794661,49.0700508 C10.5653178,48.5033475 11.0116271,48.22625 11.8192924,48.22625 C13.1215636,48.22625 13.9295763,49.1183475 13.9295763,50.4807288 L13.9295763,53.4228263 L12.4824153,53.4228263 L12.4824153,50.6014703 C12.4824153,49.9864703 12.1087246,49.4920381 11.457589,49.4920381 C10.7944661,49.4920381 10.432589,50.0227797 10.432589,50.5291992 L10.432589,53.4228263" id="Fill-22" fill="#FFFFFF" opacity="0"></path>
                <path d="M17.5612034,49.4317542 C16.8617712,49.4317542 16.367339,50.0227797 16.367339,50.8785678 C16.367339,51.7348771 16.8617712,52.3498771 17.5612034,52.3498771 C18.2844364,52.3498771 18.7908559,51.7828263 18.7908559,50.8785678 C18.7908559,49.9864703 18.2844364,49.4317542 17.5612034,49.4317542 Z M18.7064237,48.8891992 L18.7064237,46.1279534 L20.1535847,46.1279534 L20.1535847,53.4228263 L19.2008559,53.4228263 L18.9720551,52.7235678 L18.9115975,52.7235678 C18.9115975,52.7235678 18.5015975,53.5433941 17.2596102,53.5433941 C15.9213771,53.5433941 14.8963771,52.5185678 14.8963771,50.9027161 C14.8963771,49.3231737 15.8972288,48.2382373 17.2114873,48.2382373 C18.3085847,48.2382373 18.6463136,48.8891992 18.6463136,48.8891992 L18.7064237,48.8891992 Z" id="Fill-23" fill="#FFFFFF" opacity="0"></path>
                <path d="M28.8137924,48.3586314 L28.8137924,53.1455551 C28.8137924,54.5562331 27.9696441,55.5932203 26.2575466,55.5932203 C25.196411,55.5932203 24.5211271,55.146911 24.2197076,54.8095297 L24.9068051,53.9172585 C25.0878305,54.1100975 25.5218051,54.4598136 26.221411,54.4598136 C27.017089,54.4598136 27.414928,54.0015169 27.414928,53.193678 L27.414928,52.9525424 C27.1737924,53.2298136 26.6915212,53.5433941 25.9922627,53.5433941 C24.6660169,53.5433941 23.8819788,52.6632839 23.8819788,51.2885678 L23.8819788,48.3586314 L25.3291398,48.3586314 L25.3291398,51.1803347 C25.3291398,51.8314703 25.6545339,52.3253814 26.3056695,52.3253814 C26.9931144,52.3253814 27.3789661,51.8552712 27.414928,51.3248771 L27.414928,48.3586314 L28.8137924,48.3586314" id="Fill-24" fill="#FFFFFF" opacity="0"></path>
                <path d="M33.6867119,50.8907288 C33.6867119,49.9864703 33.1683051,49.3836314 32.4688729,49.3836314 C31.7456398,49.3836314 31.2390466,49.9864703 31.2390466,50.8907288 C31.2390466,51.8193093 31.7456398,52.3978263 32.4688729,52.3978263 C33.1683051,52.3978263 33.6867119,51.8193093 33.6867119,50.8907288 Z M32.4688729,53.5433941 C31.0098983,53.5433941 29.8163814,52.5185678 29.8163814,50.9147034 C29.8163814,49.2991992 31.0098983,48.2382373 32.4688729,48.2382373 C33.9158602,48.2382373 35.1095508,49.2991992 35.1095508,50.9147034 C35.1095508,52.5185678 33.9158602,53.5433941 32.4688729,53.5433941 Z" id="Fill-25" fill="#FFFFFF" opacity="0"></path>
                <path d="M39.5486695,48.3586314 L40.9951356,48.3586314 L40.9951356,53.4228263 L40.0309407,53.4228263 L39.7774703,52.7357288 L39.7173602,52.7357288 C39.4762246,53.0850975 39.04225,53.5433941 38.1499788,53.5433941 C36.8598686,53.5433941 36.0760042,52.6632839 36.0760042,51.3009025 L36.0760042,48.3586314 L37.5228178,48.3586314 L37.5228178,51.1803347 C37.5228178,51.8314703 37.8482119,52.3253814 38.4996949,52.3253814 C39.1987797,52.3253814 39.5486695,51.7588517 39.5486695,51.2885678 L39.5486695,48.3586314" id="Fill-26" fill="#FFFFFF" opacity="0"></path>
                <path d="M45.1932924,49.5764703 L44.9280085,49.5764703 C44.2532458,49.5764703 43.7708008,50.0467542 43.7708008,50.8064703 L43.7708008,53.4228263 L42.3238136,53.4228263 L42.3238136,48.3586314 L43.228072,48.3586314 L43.4328983,49.1060127 L43.5055169,49.1060127 C43.7708008,48.611928 44.2532458,48.3586314 44.9163686,48.3586314 L45.1932924,48.3586314 L45.1932924,49.5764703" id="Fill-27" fill="#FFFFFF" opacity="0"></path>
                <path d="M48.4514025,51.988 C48.4514025,51.988 49.2107712,52.4824322 50.0910551,52.4824322 C50.6579322,52.4824322 50.8627585,52.3014068 50.8627585,52.0482839 C50.8627585,51.2282839 48.0294153,51.7107288 48.0294153,49.7816441 C48.0294153,48.9133475 48.7043517,48.2382373 50.0547458,48.2382373 C51.5017331,48.2382373 52.2617966,48.6840254 52.2617966,48.6840254 L51.8151398,49.7574958 C51.8151398,49.7574958 51.1403771,49.3111864 50.2236102,49.3111864 C49.7536737,49.3111864 49.4883898,49.4439153 49.4883898,49.7331737 C49.4883898,50.5168644 52.3696822,49.9864703 52.3696822,51.9638517 C52.3696822,52.8443093 51.7428686,53.5433941 50.175661,53.5433941 C48.6438941,53.5433941 47.9807712,52.9766907 47.9807712,52.9766907 L48.4514025,51.988" id="Fill-28" fill="#FFFFFF" opacity="0"></path>
                <path d="M56.9529958,50.8907288 C56.9529958,49.9864703 56.4347627,49.3836314 55.7351568,49.3836314 C55.0115763,49.3836314 54.5051568,49.9864703 54.5051568,50.8907288 C54.5051568,51.8193093 55.0115763,52.3978263 55.7351568,52.3978263 C56.4347627,52.3978263 56.9529958,51.8193093 56.9529958,50.8907288 Z M55.7351568,53.5433941 C54.2763559,53.5433941 53.0826653,52.5185678 53.0826653,50.9147034 C53.0826653,49.2991992 54.2763559,48.2382373 55.7351568,48.2382373 C57.1823178,48.2382373 58.3758347,49.2991992 58.3758347,50.9147034 C58.3758347,52.5185678 57.1823178,53.5433941 55.7351568,53.5433941 Z" id="Fill-29" fill="#FFFFFF" opacity="0"></path>
                <path d="M62.8153008,48.3586314 L64.2617669,48.3586314 L64.2617669,53.4228263 L63.297572,53.4228263 L63.0441017,52.7357288 L62.984339,52.7357288 C62.7432034,53.0850975 62.3088814,53.5433941 61.4162627,53.5433941 C60.1263263,53.5433941 59.3424619,52.6632839 59.3424619,51.3009025 L59.3424619,48.3586314 L60.7896229,48.3586314 L60.7896229,51.1803347 C60.7896229,51.8314703 61.1153644,52.3253814 61.7661525,52.3253814 C62.4655847,52.3253814 62.8153008,51.7588517 62.8153008,51.2885678 L62.8153008,48.3586314" id="Fill-30" fill="#FFFFFF" opacity="0"></path>
                <path d="M67.0376059,53.4228263 L65.5904449,53.4228263 L65.5904449,48.3586314 L66.4948771,48.3586314 L66.6995297,49.0700508 L66.7841356,49.0700508 C67.170161,48.5033475 67.6162966,48.22625 68.4243093,48.22625 C69.7264068,48.22625 70.5338983,49.1183475 70.5338983,50.4807288 L70.5338983,53.4228263 L69.0872585,53.4228263 L69.0872585,50.6014703 C69.0872585,49.9864703 68.7135678,49.4920381 68.0620847,49.4920381 C67.3991356,49.4920381 67.0376059,50.0227797 67.0376059,50.5291992 L67.0376059,53.4228263" id="Fill-31" fill="#FFFFFF" opacity="0"></path>
                <path d="M74.165178,49.4317542 C73.4662669,49.4317542 72.971661,50.0227797 72.971661,50.8785678 C72.971661,51.7348771 73.4662669,52.3498771 74.165178,52.3498771 C74.8887585,52.3498771 75.395178,51.7828263 75.395178,50.8785678 C75.395178,49.9864703 74.8887585,49.4317542 74.165178,49.4317542 Z M75.3107458,48.8891992 L75.3107458,46.1279534 L76.7579068,46.1279534 L76.7579068,53.4228263 L75.8053517,53.4228263 L75.5760297,52.7235678 L75.5160932,52.7235678 C75.5160932,52.7235678 75.1059195,53.5433941 73.8642797,53.5433941 C72.5255254,53.5433941 71.5003517,52.5185678 71.5003517,50.9027161 C71.5003517,49.3231737 72.5015508,48.2382373 73.8154619,48.2382373 C74.9129068,48.2382373 75.2502881,48.8891992 75.2502881,48.8891992 L75.3107458,48.8891992 Z" id="Fill-32" fill="#FFFFFF" opacity="0"></path>
                <polyline id="Fill-33" fill="#FFFFFF" opacity="0" points="78.1838729 46.4971271 77.8518771 46.4971271 77.8518771 47.5389788 77.6859661 47.5389788 77.6859661 46.4971271 77.3524068 46.4971271 77.3524068 46.3584915 78.1838729 46.3584915 78.1838729 46.4971271"></polyline>
                <polyline id="Fill-34" fill="#FFFFFF" opacity="0" points="79.5822161 47.5389788 79.4178686 47.5389788 79.3409068 46.6065763 79.3358686 46.6065763 78.9746864 47.5492288 78.8806992 47.5492288 78.5196907 46.6065763 78.5146525 46.6065763 78.4392542 47.5389788 78.2750805 47.5389788 78.3810551 46.3584915 78.5862288 46.3584915 78.926911 47.2703941 78.9303856 47.2703941 79.2707203 46.3584915 79.4743305 46.3584915 79.5822161 47.5389788"></polyline>
            </g>
        </g>
    </g>
</svg>