<?xml version="1.0" encoding="UTF-8"?>
<svg width="78px" height="73px" viewBox="0 0 78 73" version="1.1" xmlns="http://www.w3.org/2000/svg" xmlns:xlink="http://www.w3.org/1999/xlink">
    <!-- Generator: Sketch 52.5 (67469) - http://www.bohemiancoding.com/sketch -->
    <title>logo-box</title>
    <desc>Created with Sketch.</desc>
    <defs>
        <polygon id="path-1" points="0 0 41.97585 0 41.97585 41.993 0 41.993"></polygon>
    </defs>
    <g id="Symbols" stroke="none" stroke-width="1" fill="none" fill-rule="evenodd">
        <g id="Brand/Card/Small/HomeDepot">
            <g id="HomeDepot_logo-2" transform="translate(18.000000, 16.000000)">
                <g id="HomeDepot_logo">
                    <g id="Group-6">
                        <mask id="mask-2" fill="white">
                            <use xlink:href="#path-1"></use>
                        </mask>
                        <use id="Clip-2" stroke="#FFFFFF" xlink:href="#path-1"></use>
                        <polygon id="Fill-1" fill="#E17232" mask="url(#mask-2)" points="0 42 41.97585 42 41.97585 0 0 0"></polygon>
                        <path d="M9.26088333,42 L7.81725,42 L7.83008333,41.97585 L7.84081667,41.9528667 L7.8932,41.8551 L7.9352,41.7660833 L7.95363333,41.7244333 L7.96926667,41.6848833 L7.98245,41.64755 L7.99563333,41.6134833 L8.00333333,41.5795333 L8.00881667,41.5454667 L8.01406667,41.5168833 L8.01651667,41.4850333 L8.01651667,41.45645 L8.01406667,41.4300833 L8.00881667,41.4016167 L8.00088333,41.3753667 L7.99283333,41.3488833 L7.97965,41.3224 L7.96658333,41.29615 L7.95083333,41.2697833 L7.93251667,41.2412 L7.91163333,41.21495 L7.88806667,41.1863667 L7.8645,41.1566167 L7.80651667,41.0995667 L7.74363333,41.0337667 L7.66756667,40.96225 L7.58601667,40.8844333 L1.09445,34.3894833 L1.01045,34.3082833 L0.936833333,34.2346667 L0.868816667,34.1699167 L0.8085,34.1117 L0.750866667,34.06445 L0.695566667,34.0250167 L0.669316667,34.0096167 L0.643183333,33.9963167 L0.616816667,33.9854667 L0.59045,33.97555 L0.564083333,33.96785 L0.535266667,33.9644667 L0.50645,33.96225 L0.477633333,33.9591 L0.448816667,33.96225 L0.4172,33.96785 L0.3857,33.9721667 L0.351633333,33.9831333 L0.314883333,33.99305 L0.278016667,34.0062333 L0.236016667,34.0228 L0.194133333,34.0401833 L0.102083333,34.0831167 L0,34.13585 L0,32.7149667 L2.97931667,29.7381 L3.01338333,29.7074167 L3.07895,29.6548 L3.12363333,29.6262167 L3.17088333,29.5965833 L3.22606667,29.5702167 L3.2837,29.54385 L3.31251667,29.53615 L3.34413333,29.5262333 L3.37831667,29.52075 L3.4097,29.5131667 L3.444,29.5097833 L3.50956667,29.5097833 L3.54363333,29.5152667 L3.57758333,29.5229667 L3.612,29.5306667 L3.64595,29.54385 L3.68281667,29.5626333 L3.71408333,29.5834 L3.74838333,29.60755 L3.78245,29.6360167 L3.81675,29.6678667 L3.84801667,29.6986667 L3.87718333,29.7305167 L3.90075,29.7644667 L3.92163333,29.79865 L3.93726667,29.8326 L3.95045,29.8666667 L3.9585,29.9038833 L3.96363333,29.9402833 L3.96643333,29.9775 L3.96363333,30.01705 L3.9585,30.0533333 L3.95045,30.0927667 L3.93726667,30.1323167 L3.92408333,30.1719833 L3.906,30.2114167 L3.88488333,30.2499167 L3.8325,30.35305 L3.79038333,30.4442833 L3.77206667,30.4893167 L3.75643333,30.5288667 L3.74325,30.5683 L3.73275,30.6045833 L3.72201667,30.6385333 L3.71688333,30.6726 L3.71163333,30.7045667 L3.70883333,30.7330333 L3.70883333,30.7647667 L3.71163333,30.7934667 L3.71688333,30.8198333 L3.72201667,30.84935 L3.73275,30.8746667 L3.74325,30.9010333 L3.75643333,30.9306667 L3.77206667,30.9570333 L3.78793333,30.9822333 L3.80881667,31.0118667 L3.8297,31.0382333 L3.85326667,31.0668167 L3.906,31.12725 L3.96888333,31.1931667 L4.0397,31.2634 L4.11845,31.3423833 L10.6337,37.85705 L10.71245,37.93615 L10.7832667,38.00755 L10.84895,38.0700833 L10.9092667,38.1229333 L10.9380833,38.1459167 L10.96445,38.1700667 L10.9932667,38.1886167 L11.0196333,38.2062333 L11.0457667,38.2228 L11.0720167,38.2326 L11.09815,38.2457833 L11.1245167,38.2534833 L11.1508833,38.2589667 L11.1797,38.26445 L11.2057167,38.2666667 L11.2373333,38.2666667 L11.26615,38.26445 L11.3292667,38.2534833 L11.3633333,38.2436833 L11.3976333,38.2326 L11.43415,38.2194167 L11.4737,38.2041333 L11.5157,38.1854667 L11.60495,38.1435833 L11.7045833,38.0909667 L11.7441333,38.0755667 L11.7833333,38.0592333 L11.8228833,38.0492 L11.8648833,38.03835 L11.9040833,38.0339167 L11.9462,38.0284333 L11.9856333,38.0284333 L12.0276333,38.03065 L12.06695,38.0339167 L12.10615,38.0415 L12.1457,38.0548 L12.1849,38.0678667 L12.22165,38.0854833 L12.2613167,38.1074167 L12.2952667,38.1327333 L12.3321333,38.1591 L12.3634,38.19305 L12.3897667,38.2271167 L12.4108833,38.26235 L12.4289667,38.2963 L12.4448333,38.3303667 L12.4581333,38.3644333 L12.4660667,38.3983833 L12.4712,38.4325667 L12.47365,38.4665167 L12.47365,38.53465 L12.4685167,38.5663833 L12.4633833,38.60045 L12.4553333,38.6323 L12.4476333,38.6629833 L12.43725,38.6927333 L12.4133333,38.7499 L12.3873167,38.8046167 L12.35815,38.8551333 L12.3321333,38.8969 L12.2845333,38.9628167 L12.2613167,38.9989833 L9.26088333,42 Z M9.30813333,33.2508167 L8.21356667,34.3456167 L7.49163333,33.6 L8.58643333,32.5052 L5.76963333,29.6909667 L5.68808333,29.6130333 L5.61481667,29.5416333 L5.54645,29.4812 L5.48601667,29.4284667 L5.45451667,29.4054833 L5.42838333,29.3847167 L5.39933333,29.36605 L5.37331667,29.3494833 L5.34706667,29.3342 L5.32081667,29.3242833 L5.29445,29.3132 L5.26831667,29.3055 L5.23926667,29.2979167 L5.21325,29.2945333 L5.18408333,29.2924333 L5.15538333,29.2924333 L5.12645,29.2945333 L5.09483333,29.3001333 L5.06088333,29.3055 L5.02681667,29.3154167 L4.9532,29.3374667 L4.87165,29.3714167 L4.78006667,29.4099167 L4.67763333,29.4582167 L4.63808333,29.4791 L4.59643333,29.4966 L4.55688333,29.5097833 L4.51756667,29.5229667 L4.47556667,29.5306667 L4.43601667,29.53615 L4.39681667,29.5394167 L4.35726667,29.53615 L4.31806667,29.5306667 L4.27875,29.5229667 L4.24176667,29.5097833 L4.20513333,29.4945 L4.17083333,29.4736167 L4.13688333,29.4494667 L4.10281667,29.4208833 L4.0712,29.3889167 L4.01356667,29.3210167 L3.99245,29.2903333 L3.97156667,29.2528833 L3.9557,29.2187 L3.94531667,29.18475 L3.93481667,29.1508 L3.92968333,29.1166167 L3.92408333,29.0826667 L3.92408333,29.0168667 L3.92968333,28.9828 L3.93236667,28.9508333 L3.94006667,28.9168833 L3.94765,28.8850333 L3.9585,28.85645 L3.98206667,28.7982333 L4.00563333,28.7432833 L4.03445,28.69615 L4.06081667,28.6522833 L4.11075,28.5863667 L4.14201667,28.5490333 L7.65415,25.0605833 L7.66756667,25.0451833 L7.69113333,25.0210333 L7.71995,24.9958333 L7.75681667,24.96935 L7.79858333,24.9376167 L7.84851667,24.9090333 L7.90125,24.8826667 L7.96133333,24.8585167 L7.99038333,24.8508167 L8.02165,24.8431167 L8.05326667,24.8355333 L8.08733333,24.8299333 L8.11883333,24.8278333 L8.15325,24.8278333 L8.18731667,24.8299333 L8.22126667,24.8355333 L8.25533333,24.8431167 L8.2894,24.8529167 L8.3237,24.8662167 L8.358,24.8848833 L8.39206667,24.9057667 L8.42613333,24.9299167 L8.4602,24.9585 L8.4917,24.9902333 L8.52576667,25.0210333 L8.55458333,25.05615 L8.57815,25.0903333 L8.59926667,25.1242833 L8.6149,25.16045 L8.6282,25.2 L8.63601667,25.2362833 L8.64126667,25.2757167 L8.64126667,25.3548167 L8.63601667,25.3965833 L8.6282,25.4360167 L8.6149,25.4755667 L8.59926667,25.5173333 L8.58363333,25.5568833 L8.56251667,25.5963167 L8.51013333,25.6963 L8.46801667,25.7831 L8.4497,25.8246333 L8.43383333,25.8643 L8.42088333,25.9004667 L8.41015,25.9378 L8.39976667,25.9686 L8.39451667,26.0026667 L8.38926667,26.0345167 L8.38681667,26.0629833 L8.38681667,26.0927333 L8.38926667,26.1212 L8.39206667,26.1475667 L8.39976667,26.17405 L8.4077,26.2003 L8.41831667,26.2266667 L8.43138333,26.2551333 L8.44713333,26.2816167 L8.46533333,26.3079833 L8.48376667,26.33435 L8.50488333,26.3628167 L8.53113333,26.3914 L8.58363333,26.4517167 L8.64651667,26.5154167 L8.71733333,26.5890333 L8.79608333,26.6648667 L15.3113333,33.1795333 L15.3900833,33.2607333 L15.4609,33.3299167 L15.5237833,33.39245 L15.5842167,33.4472833 L15.6133833,33.47155 L15.6420833,33.4923167 L15.6682167,33.5109833 L15.6972667,33.5287167 L15.7232833,33.54505 L15.7497667,33.5582333 L15.7761333,33.5682667 L15.80215,33.57585 L15.8285167,33.5846 L15.8573333,33.5868167 L15.8837,33.5889167 L15.9125167,33.5889167 L15.9441333,33.5868167 L15.97295,33.5846 L16.0070167,33.57585 L16.0409667,33.5682667 L16.0750333,33.5549667 L16.1121333,33.5417833 L16.1513333,33.5263833 L16.1933333,33.5077167 L16.2825833,33.4660667 L16.37965,33.4133333 L16.4242167,33.39805 L16.4665667,33.38475 L16.5082167,33.3715667 L16.55045,33.3639833 L16.5922167,33.3562833 L16.6317667,33.3529 L16.6709667,33.3508 L16.7105167,33.3529 L16.7472667,33.3585 L16.7841333,33.3660833 L16.8205333,33.3771667 L16.8546,33.3902333 L16.8890167,33.4079667 L16.9233167,33.4287333 L16.9545833,33.4551 L16.9860833,33.4847333 L17.0149,33.5154167 L17.0437167,33.5494833 L17.06495,33.5846 L17.0857167,33.6186667 L17.0990167,33.6526167 L17.1120833,33.6868 L17.1225833,33.72075 L17.1278333,33.7548167 L17.1329667,33.7888833 L17.1329667,33.8569 L17.1278333,33.8888667 L17.1225833,33.9229333 L17.1173333,33.9546667 L17.1092833,33.9854667 L17.0990167,34.0151 L17.0753333,34.0754167 L17.0489667,34.1271 L17.02295,34.1775 L16.9965833,34.2193833 L16.9468833,34.2851833 L16.9150333,34.3214667 L13.4029,37.8099167 L13.3924,37.8284667 L13.3740833,37.8494667 L13.3478333,37.8757167 L13.3137667,37.9043 L13.27165,37.9339333 L13.2245167,37.9626333 L13.19815,37.9778 L13.1720167,37.9911 L13.1432,38.0041667 L13.11415,38.01525 L13.0828833,38.02505 L13.0512667,38.0339167 L13.0197667,38.0415 L12.9883833,38.0471 L12.9540833,38.0514167 L12.8832667,38.0514167 L12.8492,38.0471 L12.8149,38.0415 L12.77815,38.03065 L12.7412833,38.0207333 L12.7073333,38.0041667 L12.6708167,37.9866667 L12.6338333,37.9626333 L12.5997667,37.93615 L12.5657,37.9043 L12.5368833,37.8681333 L12.5105167,37.83395 L12.4894,37.7945167 L12.4712,37.7582333 L12.4581333,37.7188 L12.4476333,37.67925 L12.4397,37.6397 L12.43725,37.6000333 L12.43725,37.5585 L12.4397,37.51895 L12.4448333,37.4770667 L12.4525333,37.43775 L12.4660667,37.3958667 L12.4789,37.3563167 L12.4973333,37.3168833 L12.51845,37.27745 L12.5708333,37.1774667 L12.61295,37.08845 L12.6313833,37.0466833 L12.6469,37.0094667 L12.6602,36.9699167 L12.6708167,36.93585 L12.6809667,36.9017833 L12.6862167,36.8711 L12.6917,36.83925 L12.6917,36.7810333 L12.6889,36.75245 L12.6862167,36.7238667 L12.6785167,36.6976167 L12.6680167,36.6711333 L12.6574,36.6448833 L12.64445,36.6185167 L12.6285833,36.59215 L12.5892667,36.5373167 L12.5420167,36.4823667 L12.48415,36.4219333 L12.4185833,36.3560167 L12.3449667,36.2847333 L12.2613167,36.2068 L9.30813333,33.2508167 Z" id="Fill-3" fill="#FFFFFE" mask="url(#mask-2)"></path>
                        <path d="M41.97585,7.16695 L41.97585,9.26088333 L40.1826833,11.0539333 L39.4877,10.3314167 L39.5634167,10.2271167 L39.6369167,10.11955 L39.7072667,10.0087167 L39.7709667,9.89881667 L39.8314,9.78565 L39.88635,9.6726 L39.9389667,9.55733333 L39.98295,9.43985 L40.0257667,9.3212 L40.0619333,9.20383333 L40.0961167,9.08296667 L40.1245833,8.96221667 L40.1487333,8.83808333 L40.1674,8.71511667 L40.1826833,8.59203333 L40.1937667,8.4658 L40.1991333,8.34178333 L40.1991333,8.2166 L40.1959833,8.09036667 L40.1905,7.96413333 L40.1773167,7.83556667 L40.1618,7.70933333 L40.1410333,7.58415 L40.1167667,7.45453333 L40.0881833,7.32935 L40.0542333,7.20101667 L40.0169,7.07466667 L39.97525,6.94843333 L39.928,6.82208333 L39.87865,6.6969 L39.8237,6.57066667 L39.7656,6.44443333 L39.7292,6.34223333 L39.6974667,6.23688333 L39.68195,6.18741667 L39.6688833,6.1348 L39.6579167,6.08533333 L39.6524333,6.03481667 L39.64695,5.98756667 L39.64695,5.94031667 L39.6502167,5.91745 L39.6524333,5.89318333 L39.6579167,5.87008333 L39.6635167,5.84581667 L39.6711,5.82516667 L39.6788,5.80428333 L39.6897667,5.78013333 L39.6995667,5.75925 L39.71275,5.73825 L39.7292,5.71748333 L39.7469333,5.69881667 L39.7656,5.67793333 L39.8050333,5.64398333 L39.8413167,5.61201667 L39.87865,5.58565 L39.9148167,5.56476667 L39.95215,5.54726667 L39.9884333,5.53081667 L40.0223833,5.5209 L40.0542333,5.51215 L40.0881833,5.50771667 L40.1202667,5.50456667 L40.1508333,5.50456667 L40.1804667,5.50771667 L40.20905,5.51215 L40.23775,5.5209 L40.264,5.5286 L40.2903667,5.53851667 L40.3407667,5.56278333 L40.38475,5.59125 L40.4265167,5.61983333 L40.4615167,5.65156667 L40.5186833,5.70978333 L40.5560167,5.74606667 L41.97585,7.16695 Z M32.6908167,0 L34.6465,0 L36.18265,1.53615 L36.1957167,1.55155 L36.2143833,1.57021667 L36.2321167,1.5932 L36.2528833,1.62178333 L36.2714333,1.65375 L36.2868333,1.69085 L36.3034,1.73051667 L36.3133167,1.77216667 L36.3165833,1.79538333 L36.3165833,1.86888333 L36.3133167,1.89525 L36.3088833,1.92161667 L36.30025,1.94786667 L36.2902167,1.97645 L36.2770333,2.00841667 L36.2615167,2.03688333 L36.2451833,2.06861667 L36.2243,2.10058333 L36.2013167,2.13138333 L36.17495,2.16533333 L36.1452,2.1994 L36.11125,2.2344 L36.0718167,2.2708 L36.0355333,2.29926667 L35.9959833,2.32341667 L35.9563167,2.34208333 L35.9202667,2.35526667 L35.8806,2.36518333 L35.84105,2.3674 L35.8047667,2.3674 L35.7653333,2.36518333 L35.7236833,2.35748333 L35.6840167,2.34651667 L35.6413167,2.331 L35.5523,2.29926667 L35.4600167,2.25761667 L35.3371667,2.19496667 L35.2140833,2.13453333 L35.0900667,2.08191667 L34.9671,2.03128333 L34.8441333,1.98531667 L34.7232667,1.94576667 L34.6025167,1.90831667 L34.4817667,1.87425 L34.3609,1.848 L34.24015,1.82501667 L34.1216167,1.80623333 L34.0008667,1.79316667 L33.8832667,1.78208333 L33.7626333,1.77765 L33.6439833,1.77765 L33.5263833,1.78208333 L33.4079667,1.79316667 L33.2893167,1.80623333 L33.1717167,1.82711667 L33.0531833,1.85126667 L32.9357,1.87658333 L32.8203167,1.91053333 L32.7017833,1.95008333 L32.58325,1.9929 L32.46565,2.04015 L32.3503833,2.09183333 L32.2317333,2.15005 L32.1133167,2.21258333 L31.9979333,2.28176667 L31.8805667,2.352 L31.7618,2.4311 L31.6444333,2.5123 L30.9009167,1.79316667 L32.6908167,0 Z M27.0841667,5.60665 L30.3420833,2.34978333 L39.6260667,11.61055 L36.3692,14.8674167 L36.3560167,14.8860833 L36.3318667,14.9069667 L36.3034,14.9333333 L36.2660667,14.9618 L36.2222,14.99155 L36.17495,15.0200167 L36.12,15.0486 L36.0619,15.07275 L36.0332,15.0838333 L36.00135,15.0914167 L35.9696167,15.0991167 L35.93555,15.1047167 L35.9037,15.1068167 L35.8696333,15.1090333 L35.8355667,15.1090333 L35.8016167,15.1047167 L35.76755,15.0991167 L35.7334833,15.08815 L35.6994167,15.0749667 L35.66535,15.0596833 L35.6314,15.0410167 L35.5973333,15.0200167 L35.5632667,14.99155 L35.5314167,14.9618 L35.4974667,14.92575 L35.4688833,14.8916833 L35.44485,14.8554 L35.42385,14.8180667 L35.40845,14.7817833 L35.3953833,14.74445 L35.3865167,14.7050167 L35.3820833,14.6686167 L35.3788167,14.6293 L35.3820833,14.59185 L35.3865167,14.55335 L35.3953833,14.5139167 L35.40845,14.47425 L35.4216333,14.4348167 L35.43925,14.3953833 L35.4600167,14.3558333 L35.51275,14.25375 L35.5545167,14.1614667 L35.5731833,14.1197 L35.58975,14.0779333 L35.6029333,14.0385 L35.6127333,14.0022167 L35.6237,13.9682667 L35.6293,13.9330333 L35.6336167,13.9022333 L35.6336167,13.8419167 L35.6314,13.8122833 L35.6293,13.7869667 L35.6203167,13.7573333 L35.6105167,13.7309667 L35.59955,13.7046 L35.5863667,13.6761333 L35.5709667,13.64965 L35.5523,13.6232833 L35.5314167,13.5948167 L35.5072667,13.5685667 L35.4841667,13.5399833 L35.4260667,13.47955 L35.3613167,13.4136333 L35.2877,13.3422333 L35.2065,13.2643 L28.71155,6.74858333 L28.5566167,6.59913333 L28.4282833,6.48386667 L28.3700667,6.43673333 L28.3151167,6.3994 L28.2888667,6.38621667 L28.2625,6.37291667 L28.2360167,6.3609 L28.2108167,6.35215 L28.1811833,6.34771667 L28.1548167,6.34223333 L28.1262333,6.33896667 L28.0977667,6.33896667 L28.0691833,6.34223333 L28.0373333,6.34771667 L28.0032667,6.35215 L27.9692,6.36311667 L27.9351333,6.37291667 L27.8957,6.38621667 L27.85615,6.40266667 L27.8143833,6.42133333 L27.7221,6.46298333 L27.6200167,6.51583333 L27.5804667,6.531 L27.5388167,6.54651667 L27.4992667,6.55748333 L27.4597167,6.5674 L27.4181833,6.57288333 L27.3785167,6.57836667 L27.3389667,6.57836667 L27.2994167,6.57603333 L27.2598667,6.57288333 L27.2203167,6.56296667 L27.1842667,6.552 L27.1469333,6.53893333 L27.11275,6.52026667 L27.0788,6.49926667 L27.04485,6.4729 L27.01405,6.44443333 L26.9843,6.41258333 L26.9558333,6.37851667 L26.9348333,6.34445 L26.91395,6.3105 L26.8975,6.27643333 L26.8877,6.24236667 L26.8767333,6.20841667 L26.8711333,6.17423333 L26.8668167,6.14028333 L26.8668167,6.07215 L26.8711333,6.0403 L26.8746333,6.00623333 L26.8822167,5.9745 L26.8898,5.94253333 L26.9008833,5.91395 L26.9239833,5.8569 L26.95035,5.8009 L26.9767167,5.75155 L27.0051833,5.70978333 L27.0293333,5.67245 L27.0524333,5.64398333 L27.0711,5.61983333 L27.0841667,5.60665 Z" id="Fill-4" fill="#FFFFFE" mask="url(#mask-2)"></path>
                        <polyline id="Fill-5" fill="#FFFFFE" mask="url(#mask-2)" points="23.5485833 40.46385 22.0124333 42 21.1965833 42 21.21525 41.96045 21.2360167 41.9188 21.2459333 41.8979167 21.2592333 41.8759833 21.2723 41.8551 21.2909667 41.8373667 21.2965667 41.8210333 21.30205 41.8056333 21.30415 41.7902333 21.30415 41.7452 21.2986667 41.7111333 21.2909667 41.6816167 21.2779 41.6508167 21.2623833 41.6189667 21.2437167 41.5903833 21.2228333 41.56075 21.2020667 41.5321667 21.1778 41.5059167 21.15155 41.47955 21.1043 41.4355667 21.05705 41.3960167 17.4034 37.7417833 17.3665333 37.6945333 17.3194 37.6419167 17.2932667 37.6187 17.2669 37.59245 17.2380833 37.5683 17.2092667 37.5474167 17.1802167 37.5265333 17.14895 37.5111333 17.1173333 37.49795 17.0857167 37.4903667 17.0542167 37.4871 17.0254 37.4871 17.0097667 37.4903667 16.9937833 37.49585 16.97815 37.5002833 16.9625167 37.5078667 16.89415 37.5452 16.8257833 37.5792667 16.7945167 37.5946667 16.7602167 37.6079667 16.72615 37.6187 16.6948833 37.6287333 16.6605833 37.6342167 16.6289667 37.6373667 16.5949 37.6373667 16.5634 37.6287333 16.5449667 37.6266333 16.5293333 37.6187 16.5137 37.6133333 16.4952667 37.6023667 16.4794 37.5946667 16.4613167 37.5816 16.4453333 37.5683 16.4269 37.5562833 16.4137167 37.5376167 16.4008833 37.52105 16.3874667 37.50355 16.37965 37.4848833 16.3720667 37.4694833 16.3665833 37.4508167 16.3613333 37.4355333 16.3560833 37.4168667 16.3534 37.3826833 16.3560833 37.3487333 16.3613333 37.3146667 16.3720667 37.2827 16.3849 37.24875 16.4033333 37.2169 16.42165 37.1884333 16.44265 37.1565833 16.4925833 37.0995333 16.5424 37.0435333 18.3353333 35.2514167 23.5485833 40.46385"></polyline>
                    </g>
                    <polyline id="Fill-7" fill="#FFFFFE" points="39.8808667 16.9394167 39.89615 16.9626333 39.9180833 16.9999667 39.9389667 17.0437167 39.9488833 17.0700833 39.9565833 17.0986667 39.9620667 17.1305167 39.9620667 17.16225 39.95985 17.1963167 39.9543667 17.2303833 39.94655 17.2491667 39.9389667 17.2666667 39.9313833 17.2852167 39.9203 17.3038833 39.9072333 17.3248833 39.8939333 17.34355 39.8752667 17.36105 39.8577667 17.3831 39.8391 17.3983833 39.8182167 17.4139 39.79955 17.4269667 39.7786667 17.43805 39.76 17.4456333 39.7392333 17.4533333 39.7205667 17.4610333 39.70295 17.4665167 39.68195 17.4697833 39.6635167 17.472 39.62385 17.472 39.5843 17.4665167 39.5480167 17.4567167 39.5085833 17.4456333 39.4711333 17.4302333 39.4350833 17.4094667 39.3976333 17.3875333 39.3240167 17.3402833 39.2537833 17.2886 39.1725833 17.2303833 39.0912667 17.17555 39.0045833 17.1173333 38.9146333 17.0601667 38.8201333 17.00755 38.72575 16.9548167 38.6289167 16.9054667 38.5291667 16.86055 38.4763167 16.83955 38.4269667 16.8208833 38.3742333 16.8022167 38.3216167 16.7868167 38.2666667 16.7715333 38.2139333 16.7582333 38.1589833 16.74505 38.10415 16.7342 38.0493167 16.7263833 37.9932 16.7210167 37.93615 16.7188 37.8813167 16.7154167 37.8231 16.7154167 37.7647667 16.7188 37.7077167 16.7242833 37.6474 16.7287167 37.2531833 16.33555 38.2534833 15.3351333 39.8808667 16.9394167"></polyline>
                    <polyline id="Fill-8" fill="#FFFFFE" points="35.6708333 21.1965833 35.68635 21.2130333 35.7203 21.2339167 35.7411833 21.2437167 35.7653333 21.2569 35.7915833 21.26565 35.8202833 21.2734667 35.8521333 21.2779 35.8860833 21.28105 35.9202667 21.2779 35.9563167 21.2700833 35.9749833 21.26565 35.9959833 21.2569 36.0145333 21.2471 36.0332 21.2360167 36.0540833 21.2228333 36.0718167 21.2097667 36.0936333 21.1943667 36.11125 21.1733667 36.1277 21.1570333 36.1431 21.1394167 36.1562833 21.12075 36.1660833 21.1020833 36.1771667 21.0834167 36.18475 21.0658 36.1957167 21.0284667 36.1979333 21.0110833 36.2013167 20.9889167 36.2013167 20.9528667 36.1957167 20.9132 36.1881333 20.8737667 36.17495 20.8373667 36.1585 20.8000333 36.1407667 20.7639833 36.12 20.7265333 36.09585 20.6903667 36.0694833 20.6564167 36.0465 20.62445 36.0200167 20.5927167 35.9618 20.5091833 35.9037 20.4225 35.84665 20.3334833 35.7915833 20.2412 35.7357 20.1469333 35.6840167 20.0491667 35.6368833 19.95245 35.59185 19.8503667 35.5709667 19.79985 35.5523 19.7482833 35.5336333 19.6977667 35.5161333 19.6450333 35.4995667 19.5923 35.4863833 19.53735 35.4765833 19.4857833 35.4655 19.4297833 35.4579167 19.3782167 35.4502167 19.3222167 35.44695 19.2672667 35.44485 19.2124333 35.44485 19.1574833 35.44695 19.0992667 35.4524333 19.0444333 35.4600167 18.9862167 35.0407167 18.5689 34.0401833 19.5692 35.6708333 21.1965833"></polyline>
                    <polyline id="Fill-9" fill="#FFFFFE" points="35.2272667 18.35925 36.9490333 16.6373667 41.3718667 21.0812 41.45645 21.1678833 41.5266833 21.2339167 41.5585333 21.2601667 41.5871167 21.28105 41.6189667 21.29645 41.64755 21.3074167 41.6607333 21.31185 41.6761333 21.3151167 41.7079833 21.3151167 41.7419333 21.31185 41.7792667 21.30415 41.8210333 21.2909667 41.8650167 21.2734667 41.9176333 21.2492 41.97585 21.2207333 41.97585 22.0343667 40.3244333 23.688 40.2980667 23.7109833 40.2563 23.74295 40.2332 23.7615 40.2036833 23.7770167 40.1728833 23.79335 40.1410333 23.8065333 40.1069667 23.8165667 40.0696333 23.82415 40.0125833 23.82415 39.9939167 23.8219333 39.9730333 23.8165667 39.9543667 23.8109667 39.9334833 23.8032667 39.9148167 23.7956833 39.8939333 23.7825 39.8731667 23.7692 39.8543833 23.7538 39.8336167 23.7351333 39.8182167 23.7164667 39.8050333 23.6989667 39.79185 23.6803 39.7808833 23.6616333 39.7731833 23.64075 39.7677 23.6220833 39.7632667 23.6013167 39.76 23.5804333 39.7577833 23.5594333 39.7577833 23.5386667 39.76 23.5177833 39.7632667 23.4969 39.7731833 23.4518667 39.78975 23.4068333 39.8203167 23.3497833 39.8466833 23.2992667 39.8676833 23.2521333 39.8840167 23.20815 39.8939333 23.1707 39.8994167 23.1345333 39.8994167 23.0994167 39.89615 23.0840167 39.8939333 23.0686167 39.8808667 23.0368833 39.86535 23.0050333 39.8413167 22.9742333 39.81495 22.9402833 39.7808833 22.9062167 39.7423833 22.8666667 39.6974667 22.8271167 39.6502167 22.7799833 35.2272667 18.35925"></polyline>
                    <path d="M39.6029667,40.6274167 L39.3932,40.6274167 L39.3932,39.2537833 L39.9050167,39.2537833 L39.9620667,39.25705 L40.0202833,39.2592667 L40.0696333,39.2669667 L40.1167667,39.2779333 L40.1618,39.2911167 L40.20135,39.3064 L40.23775,39.3250667 L40.2718167,39.3460667 L40.3012167,39.3724333 L40.3244333,39.4009 L40.3452,39.4350833 L40.3639833,39.4690333 L40.3771667,39.5085833 L40.38475,39.5535 L40.3902333,39.6008667 L40.39245,39.6502167 L40.39245,39.6918667 L40.3881333,39.7314167 L40.37915,39.76875 L40.36935,39.8028167 L40.3540667,39.8346667 L40.3376167,39.86325 L40.31895,39.8895 L40.2980667,39.9159833 L40.2718167,39.93675 L40.2453333,39.9555333 L40.2168667,39.9730333 L40.1882833,39.9862167 L40.1542167,39.9995167 L40.1202667,40.01025 L40.0828167,40.0180667 L40.0433833,40.02355 L40.4166,40.6274167 L40.1826833,40.6274167 L39.8336167,40.02355 L39.6029667,40.02355 L39.6029667,40.6274167 L39.8336167,39.8577667 L39.9050167,39.8577667 L39.96755,39.85555 L39.9994,39.8521667 L40.0279833,39.8468 L40.0542333,39.8423667 L40.0806,39.8346667 L40.1016,39.8214833 L40.1223667,39.8084167 L40.1410333,39.79185 L40.1563167,39.7710833 L40.1674,39.7478667 L40.1773167,39.7182333 L40.1826833,39.6876667 L40.1826833,39.6160333 L40.1773167,39.5875667 L40.1674,39.5589833 L40.1563167,39.5348333 L40.1410333,39.51395 L40.1245833,39.4952833 L40.1069667,39.4766167 L40.0860833,39.4646 L40.0619333,39.4503667 L40.0388333,39.4426667 L40.0125833,39.43275 L39.9884333,39.4272667 L39.95985,39.4217833 L39.9334833,39.4195667 L39.9072333,39.4163 L39.6029667,39.4163 L39.6029667,39.8577667 L39.8336167,39.8577667 L39.6029667,40.6274167 Z M39.8577667,40.9283 L39.9072333,40.9283 L39.9565833,40.9238667 L40.0047667,40.9183833 L40.0521333,40.9106833 L40.0992667,40.8997167 L40.14325,40.8865333 L40.1882833,40.8711333 L40.2332,40.85585 L40.2749667,40.8371833 L40.3166167,40.8163 L40.3562833,40.79215 L40.3957167,40.7657833 L40.4321167,40.7394167 L40.46945,40.71095 L40.5034,40.6791 L40.5342,40.6483 L40.5659333,40.61435 L40.5977833,40.5770167 L40.62415,40.5407333 L40.6505167,40.5011833 L40.6767667,40.4616333 L40.6977667,40.4198667 L40.71865,40.3748333 L40.7394167,40.3299167 L40.7548167,40.28605 L40.7712667,40.2386833 L40.7811833,40.1881667 L40.79215,40.1389333 L40.80195,40.0883 L40.80755,40.0367333 L40.8108167,39.984 L40.8130333,39.9291667 L40.8108167,39.8764333 L40.80755,39.8258 L40.80195,39.77645 L40.79215,39.7271 L40.7811833,39.6788 L40.7712667,39.63155 L40.7548167,39.5843 L40.7394167,39.5403167 L40.71865,39.4987833 L40.6977667,39.45585 L40.6767667,39.4140833 L40.6505167,39.3745333 L40.62415,39.3349833 L40.5977833,39.2988167 L40.5659333,39.2648667 L40.5342,39.2308 L40.5034,39.1988333 L40.46945,39.1703667 L40.4321167,39.1406167 L40.3957167,39.1154167 L40.3562833,39.08905 L40.3166167,39.0649 L40.2749667,39.0440167 L40.2332,39.02535 L40.1882833,39.0100667 L40.14325,38.99455 L40.0992667,38.9814833 L40.0521333,38.9704 L40.0047667,38.9628167 L39.9565833,38.9573333 L39.9072333,38.95185 L39.8071333,38.95185 L39.7545167,38.9573333 L39.70505,38.9628167 L39.6555833,38.9704 L39.60845,38.9814833 L39.5613167,38.99455 L39.51395,39.0100667 L39.4690333,39.02535 L39.4272667,39.0440167 L39.3845667,39.0649 L39.3428,39.08905 L39.30325,39.1154167 L39.2637,39.1406167 L39.2274167,39.1703667 L39.1934667,39.1988333 L39.1592833,39.2308 L39.12755,39.2648667 L39.0990833,39.2988167 L39.0705,39.3349833 L39.0177667,39.4140833 L38.9935,39.45585 L38.9727333,39.4987833 L38.9540667,39.5403167 L38.9386667,39.5843 L38.9232667,39.63155 L38.9102,39.6788 L38.8991167,39.7271 L38.8914167,39.77645 L38.88605,39.8258 L38.88045,39.8764333 L38.88045,39.984 L38.88605,40.0367333 L38.8914167,40.0883 L38.8991167,40.1389333 L38.9102,40.1881667 L38.9232667,40.2386833 L38.9386667,40.28605 L38.9540667,40.3299167 L38.9727333,40.3748333 L38.9935,40.4198667 L39.0177667,40.4616333 L39.0705,40.5407333 L39.0990833,40.5770167 L39.12755,40.61435 L39.1592833,40.6483 L39.1934667,40.6791 L39.2274167,40.71095 L39.2637,40.7394167 L39.3428,40.79215 L39.3845667,40.8163 L39.4272667,40.8371833 L39.4690333,40.85585 L39.51395,40.8711333 L39.5613167,40.8865333 L39.60845,40.8997167 L39.6555833,40.9106833 L39.70505,40.9183833 L39.7545167,40.9238667 L39.8071333,40.9283 L39.8577667,40.9283 Z M38.6478167,39.9291667 L38.6499167,39.8654667 L38.6554,39.8050333 L38.6629833,39.7447167 L38.6740667,39.6841667 L38.6862,39.6271167 L38.7025333,39.5711167 L38.7212,39.5162833 L38.7420833,39.4613333 L38.7651833,39.4118667 L38.79155,39.3614667 L38.8201333,39.312 L38.8519833,39.2648667 L38.88605,39.2198333 L38.9232667,39.17585 L38.95955,39.1330333 L38.9989833,39.0934833 L39.04075,39.0572 L39.0857833,39.0198667 L39.1308167,38.9859167 L39.1770167,38.9551167 L39.2274167,38.9253667 L39.2768833,38.8991167 L39.3295,38.8761333 L39.3845667,38.8519833 L39.44045,38.8311 L39.4952833,38.8157 L39.55245,38.8003 L39.6128833,38.7872333 L39.6711,38.7794167 L39.7336333,38.7706667 L39.7940667,38.7662333 L39.9180833,38.7662333 L39.97525,38.7706667 L40.0334667,38.7794167 L40.0881833,38.7872333 L40.1465167,38.8003 L40.20135,38.8157 L40.2540833,38.8311 L40.3090333,38.8519833 L40.3617667,38.8761333 L40.4111167,38.8991167 L40.4615167,38.9253667 L40.5088833,38.9551167 L40.5560167,38.9859167 L40.6,39.0198667 L40.6450333,39.0572 L40.6868,39.0934833 L40.7262333,39.1330333 L40.7657833,39.17585 L40.79985,39.2198333 L40.8339167,39.2648667 L40.86565,39.312 L40.89645,39.3614667 L40.9228167,39.4118667 L40.9470833,39.4613333 L40.9700667,39.5162833 L40.9886167,39.5711167 L41.0041333,39.6271167 L41.0205833,39.6841667 L41.0303833,39.7447167 L41.03925,39.8050333 L41.0436833,39.8654667 L41.0436833,39.9939167 L41.03925,40.0576167 L41.0303833,40.1202667 L41.0205833,40.1804667 L41.0041333,40.2410167 L40.9886167,40.2991167 L40.9700667,40.3541833 L40.9470833,40.4089 L40.9228167,40.4616333 L40.89645,40.5143667 L40.86565,40.5637167 L40.8339167,40.6109667 L40.79985,40.6581 L40.7657833,40.6998667 L40.7262333,40.7449 L40.6868,40.78445 L40.6450333,40.8207333 L40.6,40.8580667 L40.5560167,40.8920167 L40.5088833,40.9238667 L40.4615167,40.9546667 L40.4111167,40.9810333 L40.3617667,41.0051833 L40.3090333,41.0282833 L40.2540833,41.0491667 L40.20135,41.0656167 L40.1465167,41.0809 L40.0881833,41.0940833 L40.0334667,41.1017833 L39.97525,41.1094833 L39.9180833,41.1149667 L39.7940667,41.1149667 L39.7336333,41.1094833 L39.6711,41.1017833 L39.6128833,41.0940833 L39.55245,41.0809 L39.4952833,41.0656167 L39.44045,41.0491667 L39.3845667,41.0282833 L39.3295,41.0051833 L39.2768833,40.9810333 L39.2274167,40.9546667 L39.1770167,40.9238667 L39.1308167,40.8920167 L39.0857833,40.8580667 L39.04075,40.8207333 L38.9989833,40.78445 L38.95955,40.7449 L38.9232667,40.6998667 L38.88605,40.6581 L38.8519833,40.6109667 L38.8201333,40.5637167 L38.79155,40.5143667 L38.7651833,40.4616333 L38.7420833,40.4089 L38.7212,40.3541833 L38.7025333,40.2991167 L38.6862,40.2410167 L38.6740667,40.1804667 L38.6629833,40.1202667 L38.6554,40.0576167 L38.6499167,39.9939167 L38.6478167,39.9291667 Z" id="Fill-10" fill="#FFFFFE"></path>
                    <path d="M21.4062333,28.78295 L21.4401833,28.7093333 L21.4699333,28.6391 L21.49315,28.5699167 L21.5139167,28.50505 L21.5324667,28.43925 L21.5457667,28.3767167 L21.55895,28.3161667 L21.5665333,28.25585 L21.5688667,28.1975167 L21.5720167,28.1428 L21.5720167,28.0900667 L21.5665333,28.0372167 L21.5611667,27.9878667 L21.55335,27.93735 L21.54355,27.8902167 L21.5303667,27.8429667 L21.5139167,27.7991 L21.49525,27.7562833 L21.4776333,27.7145167 L21.45675,27.67275 L21.4348167,27.6354167 L21.4117167,27.5970333 L21.3854667,27.5597 L21.36225,27.5234167 L21.3063667,27.4552833 L21.2493167,27.3894833 L21.1888833,27.3291667 L21.12845,27.2708333 L14.7049,20.8472833 L14.6472667,20.7869667 L14.58695,20.7299167 L14.5212667,20.6717 L14.4529,20.6189667 L14.41615,20.5927167 L14.3796333,20.5696167 L14.3428833,20.5454667 L14.3033333,20.5245833 L14.2613333,20.5059167 L14.2193333,20.4883 L14.1773333,20.4696333 L14.13265,20.45645 L14.0856333,20.4432667 L14.03815,20.4323 L13.9909,20.4246 L13.9385167,20.4202833 L13.8860167,20.4146833 L13.77845,20.4146833 L13.7204667,20.4202833 L13.66015,20.4279833 L13.6000667,20.4377833 L13.53695,20.4509667 L13.4712667,20.4675333 L13.4057,20.4883 L13.3373333,20.5114 L13.2665167,20.53765 L13.1930167,20.5696167 L12.4712,19.8711333 L12.7412833,19.6558833 L13.0145167,19.4594167 L13.2874,19.2838333 L13.56565,19.1234167 L13.8437833,18.9807333 L14.12495,18.8577667 L14.4057667,18.7523 L14.6864667,18.6634 L14.9700833,18.5897833 L15.25615,18.5348333 L15.5397667,18.4952833 L15.8232667,18.4690333 L16.1068833,18.4613333 L16.3928333,18.4668167 L16.67365,18.4898 L16.9572667,18.5250333 L17.2380833,18.5745 L17.5162167,18.6403 L17.7944667,18.7161333 L18.07015,18.8084167 L18.3432667,18.9126 L18.6134667,19.0289167 L18.8813333,19.1574833 L19.1465167,19.2991167 L19.4089,19.4506667 L19.66615,19.6165667 L19.9207167,19.79215 L20.17015,19.9788167 L20.4169,20.1754 L20.6585167,20.38295 L20.8945333,20.5982 L21.12845,20.8243 L21.3536167,21.06055 L21.5720167,21.30205 L21.7796833,21.5457667 L21.97615,21.79485 L22.1628167,22.04965 L22.3385167,22.3045667 L22.50325,22.56695 L22.6580667,22.8293333 L22.8008667,23.0949833 L22.9292,23.3651833 L23.0466833,23.6385333 L23.15215,23.91095 L23.24665,24.1865167 L23.3256333,24.46535 L23.39155,24.7454667 L23.4431167,25.0266333 L23.4805667,25.3076833 L23.5034333,25.59095 L23.51125,25.8741 L23.5034333,26.15865 L23.4826667,26.4419167 L23.4431167,26.7250667 L23.39155,27.00845 L23.3202667,27.2918333 L23.23125,27.5728833 L23.128,27.8539333 L23.0071333,28.1351 L22.8688833,28.4127667 L22.7108,28.68845 L22.5351,28.9641333 L22.3406167,29.2342167 L22.1288667,29.5054667 L21.4062333,28.78295 Z M12.6338333,21.12845 L12.60245,21.20195 L12.5732833,21.2734667 L12.5472667,21.3414833 L12.5263833,21.4096167 L12.5077167,21.4754167 L12.4948833,21.5380667 L12.4817,21.5983833 L12.47365,21.6588167 L12.4685167,21.7170333 L12.4685167,21.8290333 L12.4712,21.8817667 L12.4789,21.9343833 L12.48695,21.9849 L12.4973333,22.0309833 L12.5105167,22.0794 L12.5237,22.12665 L12.5393333,22.1683 L12.55765,22.2122833 L12.5788833,22.2551 L12.5997667,22.29465 L12.6208833,22.3330333 L12.64445,22.3703667 L12.6708167,22.40665 L12.69695,22.4439833 L12.7233167,22.4779333 L12.7493333,22.512 L12.77815,22.5437333 L12.8333333,22.6065 L12.8909667,22.6646 L19.3746,29.1244333 L19.4405167,29.18475 L19.5060833,29.2419167 L19.5794667,29.2945333 L19.6165667,29.3210167 L19.6529667,29.3473833 L19.6924,29.3714167 L19.7317167,29.3924167 L19.7737167,29.4131833 L19.8157167,29.43185 L19.8601667,29.4494667 L19.9049667,29.46265 L19.9522167,29.4791 L19.99935,29.4890167 L20.0494,29.4966 L20.0993333,29.5020833 L20.1517167,29.5076833 L20.2070167,29.5076833 L20.2620833,29.5054667 L20.3197167,29.5020833 L20.38015,29.4945 L20.4405833,29.4812 L20.5034667,29.4681333 L20.5692667,29.4494667 L20.63495,29.4284667 L20.7029667,29.4022167 L20.7741333,29.3736333 L20.8474,29.3417833 L21.5688667,30.0643 L21.2986667,30.2762833 L21.0284667,30.47065 L20.7529,30.6462333 L20.47465,30.8043167 L20.1965167,30.9437333 L19.91815,31.0668167 L19.6345333,31.1721667 L19.3538333,31.2579167 L19.0702167,31.3292 L18.78415,31.38415 L18.50065,31.4237 L18.2145833,31.44785 L17.9312,31.45555 L17.6477,31.44785 L17.3640833,31.4258 L17.0805833,31.38975 L16.7997667,31.3402833 L16.5188333,31.27425 L16.2405833,31.1953833 L15.9649,31.1063667 L15.6917833,31.0009 L15.4189,30.8835333 L15.1512667,30.7549667 L14.8834,30.6122833 L14.6209,30.4607333 L14.3609667,30.29495 L14.1065167,30.1191333 L13.8545167,29.9324667 L13.6053167,29.736 L13.3635833,29.52845 L13.12465,29.3132 L12.8909667,29.0848833 L12.6628833,28.8509667 L12.4476333,28.6127333 L12.2400833,28.3712333 L12.0432667,28.1219167 L11.8568333,27.8693333 L11.68125,27.61465 L11.5157,27.3555333 L11.3633333,27.0930333 L11.2215833,26.8272667 L11.0929,26.5571833 L10.97495,26.2869833 L10.8725167,26.0114167 L10.7805833,25.73585 L10.7020667,25.4569 L10.63615,25.1791167 L10.58645,24.89795 L10.5497,24.6146833 L10.5288167,24.3335167 L10.5205333,24.0503667 L10.5288167,23.7671 L10.5523833,23.48255 L10.5917,23.1995167 L10.6468833,22.9161333 L10.7177,22.63275 L10.80415,22.3517 L10.91195,22.07065 L11.0325833,21.79275 L11.17165,21.5173 L11.3292667,21.2415 L11.5049667,20.9682667 L11.6993333,20.69795 L11.9145833,20.4300833 L12.6338333,21.12845 Z" id="Fill-11" fill="#FFFFFE"></path>
                    <polyline id="Fill-12" fill="#FFFFFE" points="35.0637 15.4032667 35.0329 15.3746833 35.0011667 15.35065 34.9671 15.32965 34.9308167 15.3109833 34.8934833 15.2989667 34.8572 15.288 34.8198667 15.2803 34.7804333 15.2749333 34.7408833 15.2749333 34.6991167 15.2770333 34.6595667 15.2857833 34.6201333 15.2936 34.5783667 15.3034 34.5388167 15.31985 34.5004333 15.33735 34.4608833 15.3560167 34.3609 15.4065333 34.272 15.4450333 34.2291833 15.4637 34.1929 15.4767667 34.15335 15.4900667 34.1194 15.5009167 34.0853333 15.5087333 34.0534833 15.5164333 34.0216333 15.51865 33.9910667 15.5219167 33.9613167 15.5219167 33.9327333 15.51865 33.9063667 15.5164333 33.8779 15.5087333 33.8515333 15.5009167 33.82505 15.4900667 33.7965833 15.4767667 33.7702167 15.4614833 33.7416333 15.4428167 33.7121167 15.42415 33.6834167 15.4011667 33.6548333 15.3770167 33.5911333 15.3220667 33.5232333 15.2562667 33.4496167 15.1859167 33.3660833 15.1012167 26.8746333 8.60976667 26.7932 8.52623333 26.7195833 8.45261667 26.6537833 8.38681667 26.5988333 8.32428333 26.5746833 8.29453333 26.5517 8.26606667 26.5143667 8.21333333 26.4990833 8.18475 26.4857833 8.1585 26.4749333 8.13213333 26.4671167 8.10565 26.4594167 8.07928333 26.4572 8.05081667 26.45405 8.02445 26.45405 7.99586667 26.4572 7.96413333 26.4594167 7.93216667 26.4671167 7.90148333 26.4749333 7.86741667 26.4857833 7.83008333 26.4990833 7.79391667 26.51215 7.75436667 26.5308167 7.70933333 26.5703667 7.61821667 26.6198333 7.51496667 26.6385 7.47646667 26.6558833 7.43703333 26.67245 7.39748333 26.6823667 7.35571667 26.6911167 7.31616667 26.69555 7.27673333 26.6988167 7.23496667 26.6988167 7.19541667 26.6933333 7.15598333 26.6823667 7.11865 26.6691833 7.08236667 26.6537833 7.04608333 26.6351167 7.00875 26.60875 6.97468333 26.5801667 6.94295 26.5484333 6.91215 26.5143667 6.87808333 26.4835667 6.85171667 26.4496167 6.82546667 26.4143833 6.80446667 26.3804333 6.78813333 26.34625 6.77483333 26.3156833 6.76491667 26.2816167 6.75943333 26.2465 6.75418333 26.1816333 6.75418333 26.1499 6.75733333 26.1158333 6.76176667 26.08725 6.76935 26.0554 6.77821667 26.0268167 6.78813333 25.9686 6.81228333 25.91365 6.84075 25.8665167 6.86933333 25.8214833 6.89896667 25.75335 6.94843333 25.7117 6.98016667 22.4537833 10.2370333 25.1287167 15.1935 25.1055 15.2166 19.96295 12.72845 16.8233333 15.8678333 16.7602167 15.9391167 16.6894 16.0225333 16.6525333 16.07305 16.6185833 16.1224 16.60295 16.1511 16.5869667 16.1774667 16.5740167 16.2071 16.5608333 16.2355667 16.55045 16.26415 16.5398333 16.2961167 16.5317833 16.32785 16.52665 16.3585333 16.5240833 16.3903833 16.5216333 16.42445 16.5240833 16.4585167 16.5293333 16.4903667 16.5345833 16.5244333 16.5449667 16.5606 16.55815 16.5958333 16.5764667 16.6321167 16.5977 16.6660667 16.6210333 16.70235 16.6500833 16.73945 16.68415 16.77585 16.7105167 16.8022167 16.7393333 16.8263667 16.76815 16.8471333 16.7969667 16.8625333 16.8285833 16.8757167 16.8574 16.8890167 16.8862167 16.8966 16.9150333 16.9020833 16.9440833 16.9054667 16.9729 16.9076833 17.0017167 16.9054667 17.0305333 16.9020833 17.05935 16.8966 17.0885167 16.8922833 17.1173333 16.8812 17.14615 16.8736167 17.2013333 16.8494667 17.2538333 16.82415 17.3037667 16.7924167 17.3537 16.76045 17.4428333 16.6945333 17.5217 16.6373667 17.5609 16.6000333 17.6002167 16.5715667 17.6397667 16.5508 17.6789667 16.5321333 17.7185167 16.51895 17.7605167 16.5111333 17.8025167 16.5090333 17.8445167 16.5090333 17.8865167 16.5134667 17.9312 16.51895 17.9757667 16.5299167 18.02045 16.5398333 18.1174 16.5639833 18.2197167 16.5902333 18.2697667 16.6056333 18.32215 16.6187 18.3720833 16.6373667 18.4193333 16.65615 18.5165167 16.6945333 18.6109 16.7374667 18.7054 16.7813333 18.7973333 16.8263667 18.8917167 16.87035 18.9862167 16.9152667 29.2474 22.0136 29.5965833 21.6643 24.5718667 12.3792667 30.3420833 18.1253333 30.4232833 18.2099167 30.4969 18.2835333 30.5628167 18.35155 30.6177667 18.4140833 30.6616333 18.4745167 30.7011833 18.5294667 30.7143667 18.5558333 30.72755 18.58535 30.7406167 18.6106667 30.7484333 18.6370333 30.7538 18.6666667 30.7592833 18.6930333 30.7615 18.7216167 30.7615 18.7500833 30.7592833 18.7819333 30.7561333 18.8137833 30.7484333 18.8444667 30.7406167 18.8785333 30.7308167 18.9159833 30.71775 18.95215 30.7011833 18.9915833 30.6857833 19.03125 30.6462333 19.1202667 30.5968833 19.2200167 30.5783333 19.2596833 30.55955 19.2991167 30.54415 19.3407667 30.5331833 19.3804333 30.5253667 19.4198667 30.52 19.4616333 30.5177833 19.5011833 30.5177833 19.5407333 30.5232667 19.5801667 30.5331833 19.6165667 30.54415 19.6558833 30.5628167 19.6900667 30.5804333 19.7262333 30.6068 19.7614667 30.63305 19.7954167 30.6671167 19.824 30.7011833 19.85585 30.7330333 19.8811667 30.7671 19.9052 30.8011667 19.9238667 30.8351167 19.9392667 30.8669667 19.95245 30.9009167 19.96015 30.9351 19.9677333 30.96905 19.9712333 31.0010167 19.9733333 31.0350833 19.9712333 31.0668167 19.9677333 31.0975 19.9634167 31.12935 19.9579333 31.1613167 19.9469667 31.1897833 19.9392667 31.24695 19.9161667 31.2995667 19.8898 31.3500833 19.86355 31.3940667 19.8349667 31.46325 19.78445 31.5050167 19.7559833 34.9956833 16.2411667 35.00665 16.2334667 35.0274167 16.2146833 35.0515667 16.1884333 35.0768833 16.1543667 35.1065167 16.1126 35.1351 16.06535 35.1635667 16.0127333 35.1877167 15.9545167 35.1976333 15.9237167 35.2065 15.8919833 35.2140833 15.8600167 35.2195667 15.82595 35.2217833 15.792 35.2217833 15.7238667 35.2163 15.6898 35.2109333 15.6525833 35.2010167 15.6185167 35.1877167 15.58235 35.1724333 15.5449 35.1503833 15.51095 35.1240167 15.4746667 35.0977667 15.4407167 35.0637 15.4032667"></polyline>
                    <polyline id="Fill-13" fill="#FFFFFE" points="25.3856167 21.9420833 23.2444333 19.824 20.4982167 18.4514167 20.4773333 18.4987833 24.6640333 22.6646 24.7828 22.8250167 24.8869833 22.9742333 24.9792667 23.1180833 25.0551 23.2554 25.1209 23.3839667 25.17585 23.5047167 25.2176167 23.6198667 25.2515667 23.72965 25.2779333 23.8317333 25.2945 23.9295 25.3043 24.0217833 25.3076833 24.1085833 25.3043 24.1899 25.2966 24.2678333 25.2855167 24.34145 25.2736167 24.4127333 25.2548333 24.4785333 25.2362833 24.5411833 25.2176167 24.6016167 25.1967333 24.6597167 25.1780667 24.7168833 25.1626667 24.7696167 25.1494833 24.8222333 25.1395667 24.8717 25.1308167 24.9221 25.1308167 24.9715667 25.1342 25.0210333 25.144 25.0681667 25.1626667 25.1188 25.1890333 25.1682667 25.2231 25.2186667 25.27035 25.27035 25.3076833 25.3020833 25.3437333 25.32845 25.3811833 25.3527167 25.4195667 25.3702167 25.4569 25.3834 25.4965667 25.3911 25.536 25.3965833 25.5721667 25.3999667 25.6095 25.3965833 25.648 25.3943667 25.6853333 25.3866667 25.7216167 25.3757 25.75895 25.3626333 25.7952333 25.3471167 25.8291833 25.32845 25.8665167 25.3096667 25.8973167 25.2890167 25.9323167 25.2681333 25.9631167 25.2471333 25.9949667 25.2231 26.0554 25.1736333 26.1102333 25.1263833 26.2025167 25.0342167 27.6672667 23.56935 27.7331833 23.5047167 27.8243 23.4068333 27.8714333 23.352 27.9220667 23.2916833 27.94295 23.2597167 27.9659333 23.2257667 27.9868167 23.1915833 28.0075833 23.1576333 28.0263667 23.1235667 28.0450333 23.0874 28.0604333 23.04995 28.0736167 23.0137833 28.0823667 22.97645 28.08995 22.9402833 28.0945 22.90295 28.0977667 22.8634 28.0945 22.8271167 28.08995 22.7897833 28.0823667 22.7535 28.0691833 22.71395 28.0505167 22.6777833 28.0263667 22.6426667 28 22.6065 27.9692 22.5702167 27.9186833 22.5250667 27.86945 22.4911167 27.8222 22.4648667 27.77495 22.4462 27.7277 22.4362833 27.6805667 22.4329 27.6332 22.4329 27.5826833 22.4407167 27.5333333 22.4515667 27.4828167 22.4648667 27.43125 22.48015 27.37525 22.4988167 27.3180833 22.5174833 27.2598667 22.53615 27.1973333 22.55365 27.1314167 22.5702167 27.0611833 22.5856167 26.9875667 22.5965833 26.9108 22.6009 26.8272667 22.6042833 26.7405833 22.5986833 26.6483 22.5877167 26.5517 22.5702167 26.4496167 22.5437333 26.3419333 22.5097833 26.2256167 22.4648667 26.1025333 22.4099167 25.9763 22.3419 25.84015 22.2626833 25.69525 22.1704 25.5437 22.06295 25.3856167 21.9420833"></polyline>
                    <polyline id="Fill-14" fill="#FFFFFE" points="18.6372667 34.9253333 18.7500833 34.8177667 18.86815 34.7156833 18.9862167 34.6211833 19.1097667 34.5289 19.23845 34.4478167 19.3669 34.3719833 19.5008333 34.3004667 19.6373333 34.23805 19.7737167 34.1831 19.9154667 34.13585 20.0597833 34.09315 20.2070167 34.06235 20.3565833 34.0358667 20.50615 34.0194167 20.6609667 34.0096167 20.8157833 34.0096167 20.9732833 34.0173167 21.1339333 34.0358667 21.2931833 34.06235 21.45675 34.0963 21.6214833 34.1402833 21.7872667 34.1929 21.9552667 34.2566 22.1232667 34.32695 22.2912667 34.4114167 22.4614833 34.5025333 22.63275 34.6059 22.8051833 34.7177833 22.9786667 34.8419167 23.15215 34.97585 23.3256333 35.1197 23.5012167 35.2745167 23.65615 35.42385 23.8 35.5742333 23.9339333 35.7291667 24.0580667 35.8860833 24.1712333 36.0441667 24.2733167 36.2068 24.3644333 36.3692 24.4456333 36.5317167 24.5170333 36.6976167 24.5774667 36.8656167 24.6300833 37.0302333 24.6740667 37.1982333 24.7091833 37.3662333 24.7321667 37.5321333 24.7508333 37.7001333 24.7563167 37.8625333 24.7563167 38.0284333 24.7475667 38.19095 24.7300667 38.35125 24.7037 38.5082833 24.6719667 38.6664833 24.6300833 38.8179167 24.58295 38.9704 24.528 39.1176333 24.4643 39.2592667 24.3961667 39.4009 24.32045 39.5348333 24.23925 39.6666667 24.1491833 39.79185 24.0548 39.9126 23.9548167 40.0279833 23.8505167 40.1389333 23.4540833 39.7423833 23.48605 39.6974667 23.5145167 39.6534833 23.5407667 39.60845 23.5617667 39.5634167 23.5771667 39.51955 23.5902333 39.4766167 23.6013167 39.43275 23.60575 39.39005 23.6089 39.3482833 23.6111167 39.3087333 23.6089 39.2669667 23.6034167 39.2274167 23.5957167 39.1878667 23.58475 39.1494833 23.5715667 39.11215 23.5594333 39.0726 23.5431 39.0364333 23.5244333 39.0024833 23.5034333 38.9650333 23.4826667 38.9309667 23.43775 38.8651667 23.3882833 38.8003 23.33555 38.7399833 23.2828167 38.6817667 23.2279833 38.6290333 23.17525 38.5796833 20.2200833 35.59955 20.1649 35.5523 20.1097167 35.5007333 20.0494 35.4502167 19.9865167 35.4008667 19.9207167 35.3535 19.8525833 35.3085833 19.8157167 35.2898 19.7817667 35.2690333 19.7449 35.25375 19.70815 35.2382333 19.6714 35.2251667 19.6320833 35.2118667 19.5953333 35.2042833 19.5560167 35.1954167 19.5165833 35.1911 19.4772667 35.1877167 19.4350333 35.1877167 19.3958333 35.1932 19.3538333 35.1986833 19.3118333 35.2087167 19.2697167 35.2217833 19.2278333 35.2382333 19.1858333 35.2592333 19.1437167 35.2854833 19.0992667 35.3108 19.0572667 35.3459167 18.6372667 34.9253333"></polyline>
                    <path d="M28.19985,34.9967333 L28.2448833,34.9363 L28.2865333,34.8759833 L28.3262,34.81555 L28.36575,34.75185 L28.3997,34.6869833 L28.4303833,34.6232833 L28.4600167,34.5574833 L28.4886,34.48935 L28.5128667,34.4246 L28.5359667,34.3555333 L28.5545167,34.2874 L28.5699167,34.21705 L28.5853167,34.1490333 L28.59955,34.0776333 L28.60725,34.0062333 L28.61495,33.9327333 L28.61705,33.8623833 L28.6203167,33.7911 L28.61705,33.7176 L28.61495,33.6471333 L28.6094667,33.5736333 L28.59955,33.50235 L28.5885833,33.4287333 L28.5731833,33.3562833 L28.5566167,33.2848833 L28.53795,33.2113833 L28.5149667,33.1398667 L28.4908167,33.0696333 L28.4622333,32.9960167 L28.4337667,32.9259 L28.3997,32.8566 L28.36225,32.7863667 L28.35245,32.7315333 L28.336,32.6788 L28.3228167,32.62385 L28.3106833,32.5677333 L28.3075333,32.5392667 L28.3075333,32.4865333 L28.3106833,32.4601667 L28.3183833,32.4371833 L28.3283,32.4130333 L28.3448667,32.3899333 L28.36225,32.3657833 L28.3865167,32.3449 L28.4072833,32.3295 L28.4282833,32.3131667 L28.4491667,32.3009167 L28.4699333,32.2900667 L28.4908167,32.2791 L28.5128667,32.2746667 L28.5303667,32.2691833 L28.55125,32.2659167 L28.60725,32.2659167 L28.6412,32.2746667 L28.6753833,32.2845833 L28.70385,32.3009167 L28.7324333,32.3164333 L28.7564667,32.3351 L28.7796833,32.3526 L28.79835,32.3712667 L28.8114167,32.3867833 L28.8225,32.4031167 L28.8300833,32.4130333 L30.2026667,33.7866667 L28.6203167,35.3931667 L28.19985,34.9967333 L25.7346833,32.5052 L25.75335,32.4711333 L25.7688667,32.4371833 L25.7853167,32.39985 L25.7983833,32.3657833 L25.8084167,32.3317167 L25.816,32.2954333 L25.82475,32.2614833 L25.8291833,32.22415 L25.8346667,32.1900833 L25.8368833,32.1538 L25.8368833,32.0825167 L25.8325667,32.0122833 L25.8214833,31.9407667 L25.8060833,31.87275 L25.7853167,31.8046167 L25.7611667,31.7366 L25.7346833,31.6674167 L25.7038833,31.6026667 L25.6699333,31.5389667 L25.6326,31.4731667 L25.5963167,31.4127333 L25.5700667,31.3523 L25.5459167,31.29525 L25.536,31.2666667 L25.5273667,31.2370333 L25.5194333,31.20845 L25.5173333,31.1799833 L25.51395,31.15035 L25.51395,31.1250333 L25.5194333,31.0952833 L25.5250333,31.0668167 L25.5381,31.0382333 L25.5514,31.0065 L25.5721667,30.9779167 L25.5963167,30.9460667 L25.6139333,30.9306667 L25.6326,30.9142167 L25.6534833,30.9010333 L25.67215,30.8911167 L25.69315,30.8835333 L25.7117,30.8779333 L25.7304833,30.87245 L25.75125,30.87035 L25.7688667,30.87035 L25.7874167,30.87245 L25.8060833,30.8746667 L25.8214833,30.88015 L25.8588167,30.8933333 L25.8927667,30.9097833 L25.9235667,30.9306667 L25.9533167,30.95155 L25.9817833,30.9745333 L26.00815,30.9954167 L26.0499167,31.0382333 L26.0838667,31.0646 L27.5959833,32.5767167 L27.62235,32.6074 L27.664,32.6524333 L27.6848833,32.6788 L27.7090333,32.7072667 L27.7300333,32.73585 L27.7506833,32.7677 L27.7671333,32.80165 L27.7804333,32.8358333 L27.78475,32.8543833 L27.7881333,32.87305 L27.7881333,32.928 L27.78265,32.9488833 L27.7771667,32.9674333 L27.76935,32.9861 L27.7594333,33.0071 L27.7452,33.0246 L27.7300333,33.0454833 L27.71125,33.06415 L27.6848833,33.0883 L27.6596833,33.1091833 L27.6299333,33.1223667 L27.6036833,33.1321667 L27.5749833,33.1398667 L27.5465167,33.1454667 L27.5167667,33.1454667 L27.4881833,33.14325 L27.4565667,33.13765 L27.4279833,33.1321667 L27.3994,33.1245833 L27.36755,33.1146667 L27.3072333,33.0905167 L27.2466833,33.06415 L27.18975,33.0279833 L27.1292,32.9905333 L27.0655,32.9565833 L27.0008667,32.9259 L26.9348333,32.8995333 L26.8668167,32.87305 L26.7954167,32.8543833 L26.7274,32.8391 L26.6911167,32.8336167 L26.6537833,32.8280167 L26.6198333,32.8258 L26.5825,32.8225333 L26.51215,32.8225333 L26.4749333,32.8258 L26.4385333,32.8280167 L26.4023667,32.8358333 L26.36725,32.8435333 L26.3309667,32.8522833 L26.2936333,32.8622 L26.2595667,32.8752667 L26.2232833,32.8906667 L26.1893333,32.9072333 L26.152,32.9259 L25.7346833,32.5052 L28.19985,34.9967333 Z M23.3860667,30.1796833 L24.9419333,28.6203167 L26.3628167,30.04015 L26.3837,30.0610333 L26.4045833,30.0927667 L26.4143833,30.11155 L26.42325,30.12905 L26.43095,30.1533167 L26.4364333,30.1774667 L26.4364333,30.2290333 L26.4275667,30.2608833 L26.4177667,30.2927333 L26.4023667,30.3266833 L26.3804333,30.36075 L26.35185,30.3970333 L26.3156833,30.4343667 L26.2936333,30.4551333 L26.27275,30.47065 L26.24965,30.4838333 L26.2287667,30.4948 L26.2046167,30.5023833 L26.18385,30.5046 L26.16075,30.5079833 L26.1399833,30.5046 L26.1158333,30.5023833 L26.0915667,30.4969 L26.0685833,30.4893167 L26.0443167,30.4816167 L25.9949667,30.4607333 L25.9456167,30.4343667 L25.8763167,30.4003 L25.8084167,30.3662333 L25.7402833,30.3343833 L25.67215,30.3080167 L25.6062333,30.2817667 L25.5381,30.25855 L25.4699667,30.2377833 L25.4042833,30.2191167 L25.33615,30.2027833 L25.2681333,30.1894833 L25.2,30.1796833 L25.1342,30.1719833 L25.0660667,30.1663833 L25.00015,30.1641667 L24.864,30.1641667 L24.7980833,30.1686 L24.7300667,30.1774667 L24.6640333,30.1872667 L24.5961333,30.20045 L24.5302167,30.2191167 L24.4643,30.2377833 L24.3961667,30.25855 L24.3303667,30.2817667 L24.2656167,30.3080167 L24.1964333,30.3366 L24.1316833,30.3706667 L24.06565,30.4059 L23.99985,30.4442833 L23.9339333,30.4838333 L23.8691833,30.5288667 L23.8032667,30.576 L23.3860667,30.1796833 Z M21.2437167,32.31865 L23.0808667,30.5046 L28.2942333,35.6949833 L26.4572,37.5562833 L26.4385333,37.5660833 L26.4023667,37.5902333 L26.3804333,37.6023667 L26.3540667,37.6187 L26.3232667,37.6342167 L26.2936333,37.6472833 L26.2595667,37.6605833 L26.2232833,37.6681667 L26.2046167,37.67155 L26.18595,37.6737667 L26.1475667,37.6737667 L26.1289,37.67155 L26.1080167,37.6660667 L26.08935,37.6605833 L26.0685833,37.6528833 L26.0499167,37.6451833 L26.0289167,37.6321167 L26.0103667,37.6187 L25.9894833,37.6023667 L25.9686,37.5792667 L25.9533167,37.5585 L25.93675,37.5376167 L25.9235667,37.5134667 L25.91365,37.4925833 L25.9060667,37.4717 L25.9005833,37.4508167 L25.8973167,37.4266667 L25.8949833,37.4057833 L25.8973167,37.3849 L25.9005833,37.3619167 L25.9060667,37.3398667 L25.91155,37.3191 L25.9214667,37.2961167 L25.9323167,37.2751167 L25.9456167,37.2542333 L25.9763,37.1960167 L26.0026667,37.1432833 L26.0213333,37.0995333 L26.0367333,37.0566 L26.0443167,37.0203167 L26.0499167,36.9863667 L26.0478167,36.9677 L26.0478167,36.9521833 L26.0443167,36.93585 L26.04,36.92045 L26.0268167,36.8919833 L26.0103667,36.8600167 L25.9872667,36.8282833 L25.9609,36.7941 L25.8927667,36.7183833 L25.8028167,36.624 L22.15185,32.9718667 L22.0651667,32.8862333 L21.9948167,32.8203167 L21.9630833,32.7940667 L21.9345,32.7731833 L21.9025333,32.7577833 L21.8740667,32.7446 L21.8443167,32.7391167 L21.8136333,32.73585 L21.7796833,32.74145 L21.7422333,32.7490333 L21.7005833,32.7622167 L21.65555,32.7808833 L21.6039833,32.80515 L21.5457667,32.8302333 L21.5248833,32.8435333 L21.5038833,32.8543833 L21.47985,32.86535 L21.4589667,32.8697833 L21.4380833,32.8774833 L21.4173167,32.8808667 L21.3963167,32.8829667 L21.37555,32.8808667 L21.3536167,32.8808667 L21.3327333,32.8752667 L21.3151167,32.8697833 L21.2931833,32.8622 L21.2755667,32.8522833 L21.2569,32.8391 L21.2382333,32.8258 L21.2207333,32.8094667 L21.1986833,32.79185 L21.1811833,32.7731833 L21.1678833,32.7545167 L21.1548167,32.73585 L21.1416333,32.7182333 L21.1339333,32.6995667 L21.12845,32.6788 L21.1229667,32.6600167 L21.12075,32.64135 L21.1174833,32.62385 L21.1174833,32.6051833 L21.12075,32.5843 L21.1251833,32.5469667 L21.13615,32.5130167 L21.1492167,32.47895 L21.1647333,32.4469833 L21.1811833,32.4163 L21.1965833,32.3899333 L21.22505,32.3482833 L21.2437167,32.31865 Z" id="Fill-15" fill="#FFFFFE"></path>
                    <path d="M26.4100667,28.7357 L26.3232667,28.6522833 L26.24965,28.5829833 L26.2157,28.5577833 L26.18385,28.53585 L26.152,28.52045 L26.1212,28.5094833 L26.08935,28.50505 L26.0554,28.5017833 L26.0180667,28.5072667 L25.9817833,28.5149667 L25.93675,28.52815 L25.8895,28.5469333 L25.8368833,28.5699167 L25.7819333,28.5961667 L25.75895,28.6094667 L25.7380667,28.6203167 L25.7171833,28.6280167 L25.69315,28.6358333 L25.67215,28.6412 L25.6512667,28.6466833 L25.6095,28.6466833 L25.5875667,28.6444667 L25.5668,28.6412 L25.5480167,28.6358333 L25.5273667,28.6258 L25.5096333,28.6182167 L25.4909667,28.60515 L25.4723,28.59185 L25.4536333,28.5731833 L25.4360167,28.5545167 L25.4195667,28.5335167 L25.4065,28.5149667 L25.39425,28.4940833 L25.3856167,28.4733167 L25.3778,28.4524333 L25.3724333,28.4337667 L25.3678833,28.4127667 L25.3647333,28.392 L25.3647333,28.3337833 L25.3724333,28.2954 L25.3834,28.2601667 L25.3965833,28.2261 L25.4118667,28.1954167 L25.4284333,28.1657833 L25.4459333,28.1428 L25.4623833,28.1219167 L25.4779,28.10325 L25.4909667,28.0922833 L25.50205,28.0845833 L27.3180833,26.24755 L31.8486,30.7780667 L31.9221,30.8439833 L31.9540667,30.87035 L31.98475,30.8911167 L32.0166,30.9064 L32.04845,30.9174833 L32.06385,30.9219167 L32.07925,30.9250667 L32.1133167,30.9250667 L32.1505333,30.9219167 L32.1902,30.9142167 L32.2317333,30.9010333 L32.2791,30.8835333 L32.3318333,30.8592667 L32.3899333,30.8308 L32.40755,30.8198333 L32.4262167,30.8099167 L32.4448833,30.7988333 L32.46565,30.79125 L32.4865333,30.78565 L32.5075333,30.7834333 L32.5316833,30.7802833 L32.55245,30.7802833 L32.5733333,30.7834333 L32.5942167,30.7890333 L32.6172,30.7934667 L32.63925,30.8011667 L32.65675,30.8121333 L32.6776333,30.8229833 L32.6963,30.8385 L32.7149667,30.8537833 L32.7336333,30.8746667 L32.7490333,30.8933333 L32.7622167,30.9142167 L32.7720167,30.933 L32.7831,30.95365 L32.7906833,30.9724333 L32.7961667,30.9932 L32.7985,31.0118667 L32.80165,31.03275 L32.80165,31.0690333 L32.7985,31.0877 L32.7906833,31.12165 L32.7775,31.1558333 L32.7644333,31.1875667 L32.7490333,31.2160333 L32.7303667,31.2425167 L32.7149667,31.2666667 L32.6865,31.3007333 L32.6678333,31.3182333 L30.6912667,33.29795 L30.6749333,33.3111333 L30.6441333,33.33435 L30.6254667,33.3452 L30.6012,33.3562833 L30.5783333,33.3660833 L30.55185,33.3771667 L30.52,33.3816 L30.4893167,33.38475 L30.45735,33.38475 L30.4232833,33.3792667 L30.4046167,33.3737833 L30.38595,33.3683 L30.36845,33.3606 L30.3499,33.3529 L30.3289,33.3398333 L30.3102333,33.3299167 L30.2915667,33.3134667 L30.2708,33.29795 L30.24,33.2564167 L30.2157333,33.2145333 L30.2048833,33.1927167 L30.1971833,33.1749833 L30.1928667,33.1531667 L30.1872667,33.13555 L30.1841167,33.1146667 L30.1841167,33.0961167 L30.1872667,33.0751167 L30.1894833,33.05645 L30.1949667,33.0355667 L30.2026667,33.0146833 L30.2136333,32.9939167 L30.2268167,32.9718667 L30.2576167,32.9148167 L30.2817667,32.86535 L30.3004333,32.8203167 L30.3136167,32.7786667 L30.3179333,32.7622167 L30.3212,32.7446 L30.3234167,32.72815 L30.3234167,32.7128667 L30.3212,32.6974667 L30.3179333,32.6831167 L30.3158333,32.6678333 L30.3102333,32.6545333 L30.29495,32.6282833 L30.2762833,32.5997 L30.2499167,32.5733333 L30.2213333,32.5414833 L30.1499333,32.47335 L30.06325,32.3899333 L26.4100667,28.7357 Z M27.6431167,25.9456167 L27.7617667,25.8225333 L27.87925,25.7062167 L27.9902,25.6018 L28.0998667,25.50205 L28.20545,25.4097667 L28.3106833,25.3229667 L28.4128833,25.2471333 L28.5128667,25.1736333 L28.6094667,25.1077167 L28.7093333,25.0472833 L28.8059333,24.9958333 L28.9037,24.9474167 L28.9980833,24.90355 L29.09795,24.8662167 L29.1946667,24.83215 L29.29465,24.8036833 L29.3703667,24.7849 L29.4439833,24.7696167 L29.52075,24.7585333 L29.5911,24.7487333 L29.6647167,24.7410333 L29.736,24.73555 L29.8062333,24.7321667 L29.8776333,24.7321667 L29.9457667,24.73555 L30.0139,24.7410333 L30.0819167,24.7487333 L30.1478333,24.7585333 L30.2136333,24.7717167 L30.2783833,24.7882833 L30.3444167,24.8057833 L30.40695,24.82445 L30.47065,24.8486 L30.5331833,24.8717 L30.5968833,24.9002833 L30.6594167,24.9299167 L30.71985,24.9606 L30.7801667,24.9958333 L30.8407167,25.0321167 L30.9009167,25.0681667 L30.95925,25.1109833 L31.0195667,25.1528667 L31.0767333,25.2 L31.1348333,25.2450333 L31.1918833,25.2945 L31.2502167,25.3471167 L31.3072667,25.3999667 L31.3656,25.4548 L31.4182167,25.5096333 L31.46535,25.5644667 L31.5148167,25.6228 L31.55985,25.6776333 L31.6047667,25.73585 L31.64875,25.7906833 L31.6881833,25.84785 L31.72785,25.9060667 L31.7640167,25.9663833 L31.80135,26.0268167 L31.8332,26.0850333 L31.864,26.1454667 L31.8936333,26.208 L31.92,26.2683167 L31.9452,26.3309667 L31.9671333,26.39455 L31.9881333,26.4594167 L32.00575,26.5253333 L32.0222,26.59125 L32.0352667,26.65705 L32.0451833,26.7250667 L32.0528833,26.7932 L32.0583667,26.8613333 L32.0615167,26.9327333 L32.06385,27.0029667 L32.0615167,27.07425 L32.05615,27.1478667 L32.04845,27.2214833 L32.04075,27.2973167 L32.0265167,27.3730333 L32.0111167,27.4499167 L31.99245,27.52575 L31.9639833,27.62235 L31.9331833,27.7177833 L31.8936333,27.8122833 L31.8508167,27.9066667 L31.8036833,28.00105 L31.752,28.0954333 L31.6916833,28.19215 L31.6279833,28.2898 L31.5576333,28.3899 L31.47865,28.4886 L31.3973333,28.59185 L31.30505,28.6995333 L31.2106667,28.8071 L31.1053167,28.9191 L30.9954167,29.0355333 L30.8768833,29.1562833 L30.45735,28.75985 L30.4893167,28.7126 L30.5156833,28.6676833 L30.5386667,28.6225333 L30.55955,28.5786667 L30.5783333,28.5335167 L30.5914,28.4919833 L30.6012,28.4524333 L30.6100667,28.4127667 L30.6143833,28.3733333 L30.6177667,28.3337833 L30.6177667,28.2976167 L30.6143833,28.2601667 L30.6100667,28.224 L30.6012,28.1899333 L30.5914,28.1559833 L30.5804333,28.11865 L30.5650333,28.08785 L30.5496333,28.0527333 L30.5309667,28.0219333 L30.5123,27.9900833 L30.4672667,27.9242833 L30.4179167,27.86385 L30.3630833,27.8013167 L30.30475,27.7407667 L30.2422167,27.68045 L30.1796833,27.6200167 L29.1321333,26.5725833 L29.0738,26.51215 L29.0168667,26.4572 L28.9563167,26.4024833 L28.896,26.35185 L28.8640333,26.3309667 L28.8323,26.3102 L28.8016167,26.2893167 L28.7697667,26.27065 L28.7379167,26.2530333 L28.7060667,26.2365833 L28.672,26.2232833 L28.6412,26.2136 L28.60725,26.2025167 L28.5731833,26.1948167 L28.53795,26.1893333 L28.504,26.1849 L28.4337667,26.1849 L28.3997,26.1872333 L28.36225,26.1926 L28.3262,26.2025167 L28.2888667,26.2136 L28.2525833,26.2266667 L28.21525,26.2442833 L28.1768667,26.26295 L28.1394167,26.2869833 L28.0998667,26.3102 L28.0604333,26.3386667 L27.6431167,25.9456167 Z" id="Fill-16" fill="#FFFFFE"></path>
                    <path d="M36.9720167,26.4100667 L36.9906833,26.3683 L37.0060833,26.3288667 L37.0225333,26.2914167 L37.0357167,26.2530333 L37.0456333,26.2189667 L37.0543833,26.1816333 L37.0588167,26.1475667 L37.0643,26.1157167 L37.0697833,26.0817667 L37.0697833,25.99275 L37.0665167,25.9641667 L37.0622,25.9378 L37.0567167,25.9082833 L37.0511167,25.8819167 L37.0357167,25.8325667 L37.01495,25.7875333 L36.9906833,25.74355 L36.9622167,25.7017833 L36.9336333,25.6589667 L36.9017833,25.6228 L36.8678333,25.5854667 L36.8337667,25.5491833 L33.2266667,21.9420833 L33.1552667,21.8817667 L33.07955,21.8213333 L33.0377833,21.79485 L32.9961333,21.7719833 L32.9511,21.7511 L32.90385,21.7323167 L32.88075,21.72695 L32.8543833,21.7191333 L32.8281333,21.7170333 L32.7985,21.71155 L32.7699167,21.71155 L32.7413333,21.7082833 L32.7128667,21.71155 L32.6809,21.71365 L32.64695,21.7191333 L32.6151,21.7247333 L32.5810333,21.7323167 L32.5435833,21.7434 L32.5075333,21.7533167 L32.4678667,21.7686 L32.4283167,21.78505 L32.3899333,21.8026667 L31.96935,21.4072833 L32.1220667,21.2865333 L32.2736167,21.1757 L32.4283167,21.0757167 L32.58325,20.9868167 L32.7413333,20.9077167 L32.89825,20.8373667 L33.05645,20.7792667 L33.2136,20.7299167 L33.3737833,20.6871 L33.5342,20.6564167 L33.6911167,20.6355333 L33.8515333,20.6222333 L34.0117167,20.6168667 L34.1720167,20.6222333 L34.3291667,20.63215 L34.48935,20.6529167 L34.6465,20.6826667 L34.8045833,20.71895 L34.9592833,20.7639833 L35.1142167,20.8133333 L35.2690333,20.8737667 L35.4216333,20.9374667 L35.5709667,21.0110833 L35.7203,21.0890167 L35.8675333,21.1757 L36.0112667,21.2678667 L36.1562833,21.3644667 L36.2957,21.4699333 L36.4340667,21.5797167 L36.5712667,21.6962667 L36.70205,21.8170167 L36.8337667,21.9420833 L36.9622167,22.0738 L37.0851833,22.2100667 L37.20045,22.3462167 L37.3135,22.4856333 L37.4189667,22.6272667 L37.51895,22.7721667 L37.6132167,22.9192833 L37.7001333,23.0654667 L37.7780667,23.21585 L37.8515667,23.3651833 L37.9197,23.5177833 L37.9800167,23.6726 L38.03065,23.8274167 L38.0745167,23.98235 L38.11185,24.1392667 L38.1437,24.2940833 L38.1644667,24.4543833 L38.1745,24.6114167 L38.1799833,24.7717167 L38.17765,24.9299167 L38.1644667,25.0903333 L38.1404333,25.2471333 L38.1096333,25.40755 L38.0699667,25.5644667 L38.0195667,25.72255 L37.95925,25.8797 L37.8911167,26.0377833 L37.8121333,26.1926 L37.7232333,26.3474167 L37.6231333,26.5022333 L37.5134667,26.6537833 L37.3927167,26.8065 L36.9720167,26.4100667 Z M32.06385,22.1057667 L32.0265167,22.1890667 L32.0143833,22.23095 L32.0013167,22.2705 L31.9902333,22.3077167 L31.98265,22.3441167 L31.97495,22.3780667 L31.9715667,22.4121333 L31.9671333,22.4462 L31.9639833,22.4779333 L31.9639833,22.5097833 L31.9671333,22.5405833 L31.96935,22.5702167 L31.9715667,22.5965833 L31.9771667,22.6217833 L31.98475,22.64815 L31.99245,22.6745167 L32.0013167,22.6987833 L32.0111167,22.72165 L32.0222,22.7459167 L32.0451833,22.7875667 L32.0749333,22.8293333 L32.1034,22.8666667 L32.1351333,22.9007333 L32.1692,22.9348 L32.2032667,22.9665333 L35.8334667,26.5725833 L35.8653167,26.60665 L35.8961167,26.6407167 L35.9333333,26.6757167 L35.9696167,26.7064 L36.00905,26.73615 L36.0540833,26.7614667 L36.0980667,26.7856167 L36.1452,26.8042833 L36.1715667,26.8118667 L36.1979333,26.81735 L36.2265167,26.8217833 L36.2528833,26.8251667 L36.2825167,26.8272667 L36.34505,26.8272667 L36.3770167,26.8251667 L36.4075833,26.8195667 L36.4428167,26.8140833 L36.4791,26.8065 L36.5131667,26.7954167 L36.5526,26.7856167 L36.5888833,26.7702167 L36.6283167,26.75365 L36.67125,26.73615 L37.0906667,27.1314167 L36.9359667,27.2521667 L36.7810333,27.3631167 L36.6262167,27.4629833 L36.4681333,27.552 L36.3088833,27.6311 L36.1506833,27.7012167 L35.9905,27.7594333 L35.83125,27.8089 L35.6708333,27.8506667 L35.51065,27.8825167 L35.35035,27.9034 L35.1899333,27.9164667 L35.0274167,27.9220667 L34.8671167,27.9164667 L34.7102,27.9066667 L34.5499,27.8857833 L34.3917,27.8562667 L34.2346667,27.8198667 L34.0776333,27.7748333 L33.9229333,27.7254833 L33.7702167,27.6672667 L33.6154,27.6014667 L33.4660667,27.52785 L33.3156833,27.4499167 L33.1696167,27.3631167 L33.0246,27.2708333 L32.88075,27.1742333 L32.7413333,27.069 L32.6018,26.9589833 L32.46565,26.8426667 L32.3339333,26.7219167 L32.2032667,26.5967333 L32.0749333,26.4649 L31.9506833,26.3288667 L31.8355333,26.1926 L31.7223667,26.0509667 L31.6181833,25.9082833 L31.5203,25.7644333 L31.4258,25.6173167 L31.3392333,25.4700833 L31.2611833,25.32075 L31.1875667,25.1682667 L31.1217667,25.0133333 L31.06355,24.8585167 L31.0109333,24.7037 L30.96695,24.5466667 L30.933,24.3885833 L30.90325,24.2314333 L30.8823667,24.07335 L30.8691833,23.9142167 L30.8669667,23.7538 L30.8691833,23.5935 L30.8823667,23.4332 L30.9065167,23.2729 L30.9351,23.1126 L30.97675,22.9555667 L31.024,22.7953833 L31.0844333,22.6382333 L31.15245,22.48015 L31.2293333,22.3232333 L31.3182333,22.1683 L31.4182167,22.0136 L31.5259,21.8608833 L31.6444333,21.7082833 L32.06385,22.1057667 Z" id="Fill-17" fill="#FFFFFE"></path>
                    <path d="M3.79318333,17.1250333 L4.72208333,16.1960167 L5.09483333,16.5660833 L5.08725,16.6210333 L5.08445,16.6770333 L5.08176667,16.7287167 L5.07931667,16.7846 L5.08176667,16.8362833 L5.08725,16.8890167 L5.09238333,16.9416333 L5.10008333,16.9943667 L5.11058333,17.0437167 L5.1212,17.09645 L5.13438333,17.1470833 L5.15013333,17.1963167 L5.16565,17.2457833 L5.18408333,17.2963 L5.20275,17.3457667 L5.22363333,17.3929 L5.26831667,17.4874 L5.31288333,17.5817833 L5.36526667,17.67185 L5.41531667,17.75865 L5.47038333,17.8442833 L5.52288333,17.92665 L5.57795,18.0045833 L5.63045,18.08135 L5.67525,18.1441167 L5.7169,18.2099167 L5.73568333,18.2439833 L5.754,18.28015 L5.76963333,18.3142167 L5.78281667,18.35155 L5.79051667,18.3856167 L5.79576667,18.4217833 L5.79845,18.4592333 L5.7932,18.4952833 L5.79051667,18.51395 L5.78526667,18.5327333 L5.78013333,18.55035 L5.77208333,18.5668 L5.7617,18.58535 L5.7512,18.6029667 L5.73813333,18.6216333 L5.72495,18.6370333 L5.70406667,18.6555833 L5.68563333,18.67425 L5.66451667,18.6876667 L5.64608333,18.7007333 L5.62776667,18.7105333 L5.60956667,18.7216167 L5.59113333,18.7271 L5.57281667,18.7348 L5.53851667,18.7423833 L5.50445,18.7446 L5.47295,18.7423833 L5.44413333,18.7370167 L5.41776667,18.7292 L5.39163333,18.7182333 L5.37051667,18.7083167 L5.34963333,18.6974667 L5.32081667,18.6765833 L5.30495,18.6610667 L3.79318333,17.1250333 Z M9.40006667,14.58975 L9.40765,14.6050333 L9.42363333,14.6346667 L9.43156667,14.65555 L9.44171667,14.6764333 L9.44976667,14.6994167 L9.4577,14.7257833 L9.46295,14.7555333 L9.46563333,14.784 L9.46563333,14.81585 L9.46038333,14.84665 L9.44731667,14.8806 L9.43156667,14.9158333 L9.42083333,14.9333333 L9.40765,14.9497833 L9.39446667,14.9674 L9.37638333,14.9860667 L9.36051667,15.00135 L9.34243333,15.0179167 L9.32365,15.0311 L9.30533333,15.0410167 L9.28725,15.0486 L9.26858333,15.05735 L9.25283333,15.0651667 L9.23451667,15.0705333 L9.21608333,15.07275 L9.198,15.0749667 L9.1609,15.0749667 L9.12415,15.07275 L9.09008333,15.0651667 L9.05356667,15.0518667 L9.01681667,15.0386833 L8.98251667,15.0200167 L8.94845,15.00135 L8.88288333,14.9597 L8.81976667,14.9158333 L8.65701667,14.80815 L8.48645,14.6994167 L8.39976667,14.64995 L8.30806667,14.5973333 L8.21613333,14.55335 L8.12408333,14.5083167 L8.0269,14.469 L7.93006667,14.4348167 L7.88001667,14.4195333 L7.83008333,14.4062333 L7.78038333,14.3953833 L7.728,14.38535 L7.67795,14.3767167 L7.62533333,14.3721667 L7.57295,14.3668 L7.52045,14.3645833 L7.46806667,14.3645833 L7.41533333,14.3668 L7.36015,14.3721667 L7.30531667,14.3799833 L6.91156667,13.9834333 L7.8645,13.0545333 L9.40006667,14.58975 Z M5.02681667,15.8919833 L6.63051667,14.2877 L10.79645,18.4514167 L10.8752,18.5381 L10.9408833,18.6062333 L10.9697,18.6326 L10.99595,18.6534833 L11.0247667,18.669 L11.05125,18.6797333 L11.0668833,18.6820667 L11.0800667,18.6841667 L11.0957,18.6876667 L11.1113333,18.6876667 L11.1456333,18.6820667 L11.18215,18.67425 L11.2243833,18.6610667 L11.2688333,18.6425167 L11.3213333,18.6195333 L11.3793167,18.5931667 L11.3948333,18.5799833 L11.4133833,18.5689 L11.4317,18.5613167 L11.4528167,18.5535 L11.4709,18.5481333 L11.4893333,18.5459167 L11.5285333,18.5459167 L11.5497667,18.5481333 L11.5682,18.5535 L11.5865167,18.5613167 L11.6076333,18.5721667 L11.6260667,18.58535 L11.64415,18.6008667 L11.6624667,18.6195333 L11.68125,18.6370333 L11.6968833,18.6534833 L11.7097167,18.669 L11.7229,18.6876667 L11.7334,18.70295 L11.7413333,18.7216167 L11.7492667,18.7370167 L11.7545167,18.7555667 L11.7597667,18.7710833 L11.76245,18.8084167 L11.7597667,18.8423667 L11.7545167,18.8764333 L11.7468167,18.9081667 L11.7360833,18.9389667 L11.7229,18.9687167 L11.7097167,18.9915833 L11.6968833,19.01585 L11.6837,19.0334667 L11.6729667,19.04665 L11.6624667,19.0554 L11.6575667,19.0576167 L9.79615,20.9188 L9.77795,20.9342 L9.74376667,20.9637167 L9.72008333,20.9769 L9.69406667,20.9924167 L9.6677,21.0075833 L9.63608333,21.0208833 L9.60213333,21.0317333 L9.56806667,21.03955 L9.55208333,21.0417667 L9.51533333,21.0417667 L9.4969,21.03955 L9.47858333,21.0373333 L9.46038333,21.0317333 L9.44451667,21.0263667 L9.42631667,21.0186667 L9.40765,21.0075833 L9.38933333,20.9945167 L9.37125,20.9813333 L9.35258333,20.96605 L9.33695,20.9473833 L9.32365,20.9287167 L9.31081667,20.9109833 L9.30008333,20.8923167 L9.29238333,20.87155 L9.28725,20.8528833 L9.282,20.8321167 L9.27931667,20.8111167 L9.27651667,20.7902333 L9.27651667,20.76935 L9.27931667,20.7474167 L9.282,20.7265333 L9.29238333,20.6826667 L9.30813333,20.63985 L9.33415,20.5849 L9.35771667,20.53765 L9.37638333,20.4961167 L9.38933333,20.45645 L9.40006667,20.4225 L9.40251667,20.3905333 L9.40251667,20.36195 L9.39726667,20.3334833 L9.38688333,20.3072333 L9.3737,20.2808667 L9.35258333,20.2522833 L9.3289,20.2225333 L9.26858333,20.1601167 L9.18971667,20.0809 L5.02681667,15.8919833 Z" id="Fill-18" fill="#FFFFFE"></path>
                    <path d="M13.4948333,12.6110833 L12.9145333,13.1929 L12.5420167,12.8207333 L13.1220833,12.23985 L11.5549,10.6708 L11.4868833,10.60815 L11.4580667,10.584 L11.42645,10.5631167 L11.3976333,10.5477167 L11.3688167,10.5345333 L11.3397667,10.5291667 L11.3085,10.5257833 L11.2740833,10.5313833 L11.2373333,10.5422333 L11.1980167,10.5555333 L11.1533333,10.5763 L11.1064333,10.6026667 L11.0537,10.6344 L11.0352667,10.6422167 L11.01695,10.6499167 L10.9985167,10.6554 L10.9774,10.6597167 L10.9592,10.6629833 L10.9408833,10.6652 L10.9197667,10.6652 L10.9013333,10.6629833 L10.88045,10.6597167 L10.8620167,10.6554 L10.8411333,10.6499167 L10.8228167,10.6388333 L10.80415,10.63125 L10.7860667,10.6180667 L10.7676333,10.6026667 L10.7489667,10.5862167 L10.7308833,10.5707 L10.7149,10.55215 L10.7020667,10.5345333 L10.6888833,10.5159833 L10.68095,10.4973167 L10.6731333,10.4785333 L10.6649667,10.4610333 L10.6625167,10.4423667 L10.6597167,10.4270833 L10.6572667,10.4084167 L10.6572667,10.38975 L10.6597167,10.3709667 L10.6649667,10.3369 L10.6731333,10.3062167 L10.6860833,10.27425 L10.6992667,10.2457833 L10.7149,10.2216333 L10.7308833,10.19865 L10.75725,10.1645833 L10.7728833,10.1459167 L12.6338333,8.28473333 L12.65215,8.26933333 L12.6862167,8.2397 L12.7101333,8.22663333 L12.73615,8.21111667 L12.7625167,8.19583333 L12.7941333,8.18265 L12.8254,8.17156667 L12.8597,8.16398333 L12.89645,8.1606 L12.9332,8.16398333 L12.9514,8.16608333 L12.9672667,8.17156667 L12.9857,8.17716667 L13.0040167,8.18475 L13.02245,8.19583333 L13.0408833,8.20563333 L13.0589667,8.22103333 L13.0776333,8.23736667 L13.0932667,8.25615 L13.10645,8.27376667 L13.1194,8.29231667 L13.1300167,8.31098333 L13.1380667,8.33186667 L13.1432,8.35053333 L13.1457667,8.37153333 L13.1482167,8.39241667 L13.1482167,8.43395 L13.1432,8.45495 L13.1380667,8.47571667 L13.1328167,8.49765 L13.1220833,8.52075 L13.1117,8.54163333 L13.1012,8.56263333 L13.07495,8.61735 L13.0565167,8.66565 L13.0380833,8.70963333 L13.0277,8.74918333 L13.0197667,8.78651667 L13.0145167,8.81731667 L13.0172,8.85126667 L13.02245,8.8809 L13.03015,8.90948333 L13.0460167,8.93806667 L13.0642167,8.96653333 L13.0905833,8.99838333 L13.1194,9.03023333 L13.1537,9.0643 L13.1930167,9.10385 L13.24015,9.14561667 L16.68415,12.5889167 L16.7629,12.6681333 L16.8285833,12.72845 L16.8602,12.7527167 L16.8890167,12.7702167 L16.9177167,12.7866667 L16.9440833,12.7943667 L16.9729,12.7999667 L17.0045167,12.80195 L17.0360167,12.7965833 L17.0700833,12.7888833 L17.1068333,12.7757 L17.14615,12.7548167 L17.19095,12.7339333 L17.2408833,12.7054667 L17.2853333,12.6890167 L17.3273333,12.6789833 L17.3717833,12.6736167 L17.4322167,12.6736167 L17.4533333,12.6789833 L17.47445,12.6812 L17.49265,12.6890167 L17.5137667,12.6966 L17.5320833,12.7054667 L17.5505167,12.7152667 L17.56615,12.72845 L17.5845833,12.7471167 L17.6029,12.7678833 L17.6160833,12.7866667 L17.6264667,12.80755 L17.6369667,12.8262167 L17.6449,12.8437167 L17.65015,12.86565 L17.6554,12.8833833 L17.6580833,12.90205 L17.6580833,12.9546667 L17.65015,12.9886167 L17.6397667,13.0228 L17.6264667,13.0545333 L17.6108333,13.07985 L17.5949667,13.1062167 L17.57665,13.1303667 L17.5450333,13.1699167 L17.5217,13.1929 L15.6816333,15.0540833 L15.66565,15.0705333 L15.6289,15.0936333 L15.6077833,15.1090333 L15.5817667,15.1222167 L15.55295,15.1354 L15.5237833,15.14625 L15.4898333,15.1541833 L15.4557667,15.1594333 L15.4217,15.1594333 L15.38495,15.1562833 L15.3665167,15.15185 L15.3480833,15.14625 L15.32965,15.1407667 L15.3113333,15.1309667 L15.2930167,15.1222167 L15.2745833,15.1090333 L15.25895,15.0936333 L15.2405167,15.07835 L15.2196333,15.0596833 L15.2009667,15.0410167 L15.1881333,15.02235 L15.17495,15.0046167 L15.16445,14.9860667 L15.1565167,14.9651833 L15.1512667,14.9465167 L15.1485833,14.92575 L15.1457833,14.9069667 L15.1485833,14.8894667 L15.1512667,14.8674167 L15.1565167,14.8499167 L15.1617667,14.83125 L15.17215,14.8125833 L15.1828833,14.7949667 L15.1932667,14.7763 L15.2220833,14.7180833 L15.2457667,14.6654667 L15.2640833,14.6214833 L15.2772667,14.5786667 L15.2849667,14.5423833 L15.2877667,14.5083167 L15.2877667,14.4765833 L15.2825167,14.448 L15.2693333,14.4195333 L15.2537,14.3875667 L15.2325833,14.3589833 L15.2062167,14.32725 L15.14065,14.25585 L15.0540833,14.1702167 L13.4948333,12.6110833 Z M14.1929667,15.0540833 L14.2718333,15.1331833 L14.3400833,15.1935 L14.3689,15.2198667 L14.4005167,15.2385333 L14.4293333,15.2539333 L14.45815,15.2650167 L14.4873167,15.2726 L14.5528833,15.2726 L14.5894,15.2650167 L14.62895,15.2539333 L14.6732833,15.2385333 L14.7208833,15.2198667 L14.7757167,15.1935 L14.79695,15.18265 L14.8177167,15.1727333 L14.83895,15.1617667 L14.8625167,15.1562833 L14.8834,15.15185 L14.9045167,15.14625 L14.9674,15.14625 L14.9885167,15.15185 L15.0068333,15.1562833 L15.0278333,15.1649167 L15.04615,15.1748333 L15.0645833,15.1881333 L15.0830167,15.2013167 L15.1013333,15.2166 L15.1169667,15.2352667 L15.1433333,15.2726 L15.1538333,15.2902167 L15.1617667,15.3088833 L15.1669,15.3242833 L15.17215,15.34295 L15.17495,15.3615 L15.1774,15.3977833 L15.17495,15.4317333 L15.1669,15.4669667 L15.1565167,15.5009167 L15.1433333,15.5317167 L15.1277,15.5580833 L15.1118333,15.58445 L15.0987667,15.6086 L15.0697167,15.6426667 L15.0540833,15.6601667 L13.1930167,17.5214667 L13.1745833,17.5378 L13.1432,17.5641667 L13.1220833,17.5796833 L13.0985167,17.59485 L13.0723833,17.60815 L13.0408833,17.6213333 L13.0092667,17.6290333 L12.9777667,17.6345167 L12.9593333,17.6377833 L12.9409,17.6377833 L12.9225833,17.6345167 L12.9043833,17.6323 L12.8858333,17.6290333 L12.8676333,17.6213333 L12.8492,17.6136333 L12.8282,17.6059333 L12.8097667,17.59275 L12.7913333,17.5796833 L12.77045,17.5641667 L12.7521333,17.5456167 L12.73895,17.5302167 L12.72845,17.5170333 L12.7177167,17.49825 L12.7101333,17.4797 L12.7048833,17.4610333 L12.6996333,17.44015 L12.69695,17.4214833 L12.69695,17.3983833 L12.69415,17.3775 L12.69695,17.35335 L12.6996333,17.3324667 L12.7020833,17.3094833 L12.7073333,17.2852167 L12.7124667,17.26445 L12.7205167,17.2414667 L12.72845,17.2194167 L12.7545833,17.1700667 L12.77815,17.1250333 L12.7965833,17.0865333 L12.8097667,17.0492 L12.8177,17.01735 L12.82295,16.9866667 L12.82015,16.9570333 L12.8149,16.9306667 L12.8045167,16.9054667 L12.7888833,16.8757167 L12.7653167,16.8471333 L12.7412833,16.8154 L12.6732667,16.7473833 L12.5892667,16.6605833 L9.16883333,13.21705 L9.0825,13.1380667 L9.01133333,13.0776333 L8.97971667,13.0545333 L8.9509,13.0358667 L8.92208333,13.0194167 L8.89326667,13.0096167 L8.86445,13.0041333 L8.83563333,13.0041333 L8.80401667,13.0096167 L8.76726667,13.0173167 L8.73051667,13.0303833 L8.68606667,13.0491667 L8.63858333,13.07215 L8.58643333,13.1017833 L8.54163333,13.1149667 L8.49963333,13.1248833 L8.47851667,13.1303667 L8.41563333,13.1303667 L8.39451667,13.1280333 L8.37363333,13.12255 L8.35251667,13.1149667 L8.33408333,13.1062167 L8.31565,13.0963 L8.29756667,13.0852167 L8.27925,13.0699333 L8.26058333,13.0545333 L8.24483333,13.0358667 L8.22931667,13.0173167 L8.21881667,13.0018 L8.20808333,12.9831333 L8.20015,12.9644667 L8.19245,12.9470833 L8.19,12.9283 L8.18451667,12.9096333 L8.18451667,12.8569 L8.18731667,12.8394 L8.1949,12.8053333 L8.2054,12.7702167 L8.21881667,12.7416333 L8.23176667,12.7131667 L8.24763333,12.6868 L8.26338333,12.6658 L8.2894,12.6284667 L8.30806667,12.6110833 L10.1453333,10.7728833 L10.1508167,10.7629667 L10.1637667,10.7497833 L10.1796333,10.7366 L10.2005167,10.7202667 L10.2268833,10.70475 L10.2529,10.6894667 L10.2845167,10.6762833 L10.3161333,10.6629833 L10.3500833,10.6554 L10.38695,10.64665 L10.4237,10.64665 L10.4629,10.6499167 L10.4813333,10.6521333 L10.4997667,10.6576167 L10.5182,10.6652 L10.5365167,10.6729 L10.55495,10.6838667 L10.5732667,10.69705 L10.5917,10.7102333 L10.6101333,10.72575 L10.6257667,10.7444167 L10.6416333,10.7629667 L10.6521333,10.7804667 L10.6625167,10.80135 L10.67045,10.8200167 L10.6757,10.8410167 L10.68095,10.8596833 L10.6836333,10.88045 L10.6836333,10.9012167 L10.68095,10.9222167 L10.6783833,10.94415 L10.6731333,10.96725 L10.6649667,10.9881333 L10.6572667,11.0089 L10.6468833,11.0297833 L10.6337,11.0539333 L10.6045333,11.1066667 L10.5837667,11.1538 L10.5653333,11.1956833 L10.55495,11.2352333 L10.5469,11.2691833 L10.54445,11.3009167 L10.54445,11.3164333 L10.5469,11.3295 L10.5497,11.3449 L10.55495,11.3580833 L10.5680167,11.38445 L10.5837667,11.4109333 L10.6045333,11.4394 L10.6310167,11.4690333 L10.6941333,11.5316833 L10.7728833,11.61055 L14.1929667,15.0540833 Z" id="Fill-19" fill="#FFFFFE"></path>
                    <path d="M19.8000833,10.1689 L19.8420833,10.11185 L19.8842,10.05375 L19.9207167,9.9932 L19.9549,9.93615 L19.9865167,9.87571667 L20.0180167,9.81201667 L20.04415,9.7517 L20.0677167,9.68905 L20.0912833,9.62651667 L20.1097167,9.5606 L20.12815,9.4969 L20.1437833,9.43226667 L20.1541667,9.36623333 L20.1649,9.30043333 L20.17295,9.23451667 L20.17785,9.1686 L20.1833333,9.10046667 L20.1833333,9.03571667 L20.1805333,8.96653333 L20.17785,8.90178333 L20.17295,8.8326 L20.1649,8.76446667 L20.1541667,8.69971667 L20.1413333,8.63065 L20.12535,8.56263333 L20.1097167,8.49765 L20.0912833,8.42846667 L20.0702833,8.36371667 L20.04695,8.29453333 L20.0204667,8.22978333 L19.9942167,8.16398333 L19.96295,8.09795 L19.9469667,8.04533333 L19.9285333,7.99271667 L19.9207167,7.9674 L19.9129,7.94103333 L19.9077667,7.91688333 L19.9025167,7.89051667 L19.8997167,7.86741667 L19.8997167,7.84116667 L19.9025167,7.8169 L19.9077667,7.79391667 L19.9154667,7.76976667 L19.9285333,7.74666667 L19.9445167,7.7259 L19.96295,7.70175 L19.9838333,7.68296667 L20.00215,7.66768333 L20.0204667,7.65438333 L20.0390167,7.6412 L20.0573333,7.63361667 L20.0757667,7.6258 L20.09385,7.61821667 L20.1097167,7.61483333 L20.12815,7.61273333 L20.1437833,7.60946667 L20.1597667,7.60946667 L20.1754,7.61273333 L20.2042167,7.61821667 L20.2305833,7.6258 L20.2568333,7.63898333 L20.2778333,7.65228333 L20.2986,7.66768333 L20.3170333,7.68296667 L20.3434,7.70933333 L20.3590333,7.7259 L21.6851833,9.05111667 L20.17295,10.5422333 L19.8000833,10.1689 L17.45065,7.84116667 L17.4689667,7.8092 L17.4874,7.77525 L17.5004667,7.74328333 L17.5137667,7.70933333 L17.52415,7.67853333 L17.5348833,7.64446667 L17.5425833,7.60946667 L17.5478333,7.5754 L17.5505167,7.5446 L17.5529667,7.51065 L17.5557667,7.47646667 L17.5557667,7.44135 L17.5505167,7.3766 L17.5401333,7.30846667 L17.5268333,7.24266667 L17.5085167,7.17675 L17.48495,7.11095 L17.4610333,7.04608333 L17.4322167,6.9825 L17.4008333,6.91985 L17.3693333,6.85626667 L17.3352667,6.7935 L17.3089,6.74076667 L17.2853333,6.68815 L17.27495,6.66516667 L17.2669,6.63868333 L17.2589667,6.61243333 L17.2565167,6.58606667 L17.2538333,6.5597 L17.2538333,6.53333333 L17.2589667,6.50696667 L17.2669,6.4806 L17.2774,6.4554 L17.2905833,6.42891667 L17.3114667,6.40266667 L17.3352667,6.3763 L17.3537,6.35763333 L17.3745833,6.34223333 L17.3930167,6.32916667 L17.4113333,6.31808333 L17.42965,6.3105 L17.4480833,6.30501667 L17.4665167,6.30058333 L17.5217,6.30058333 L17.5373333,6.30501667 L17.5557667,6.30816667 L17.5872667,6.32146667 L17.6188833,6.33675 L17.65015,6.35763333 L17.6765167,6.37851667 L17.7028833,6.40266667 L17.7262167,6.42576667 L17.76845,6.4652 L17.7997167,6.49168333 L19.1962167,7.91128333 L19.2302833,7.93555 L19.2725167,7.97498333 L19.2962,7.9982 L19.3197667,8.02445 L19.34065,8.05291667 L19.3617667,8.08266667 L19.3774,8.11661667 L19.3905833,8.1508 L19.3958333,8.16935 L19.3982833,8.18475 L19.4009667,8.20341667 L19.4009667,8.24296667 L19.3982833,8.26058333 L19.3930333,8.27925 L19.3853333,8.29791667 L19.3774,8.3188 L19.3669,8.33746667 L19.3512667,8.35823333 L19.3354,8.3769 L19.3090333,8.39778333 L19.2830167,8.41318333 L19.25665,8.42636667 L19.2302833,8.43395 L19.20415,8.44176667 L19.1780167,8.44503333 L19.12295,8.44503333 L19.0965833,8.43955 L19.0677667,8.43173333 L19.03895,8.42415 L19.0125833,8.41318333 L18.95215,8.38681667 L18.8945167,8.35286667 L18.83665,8.3188 L18.77645,8.28683333 L18.7161333,8.25615 L18.6557,8.22663333 L18.5925833,8.20341667 L18.5294667,8.17926667 L18.4640167,8.1606 L18.39845,8.14858333 L18.33265,8.13761667 L18.2669667,8.13213333 L18.2330167,8.13213333 L18.2014,8.13528333 L18.1673333,8.13761667 L18.1360667,8.13971667 L18.1017667,8.14858333 L18.06735,8.1529 L18.0334,8.16398333 L18.0021333,8.17483333 L17.9677167,8.18696667 L17.93645,8.20341667 L17.90215,8.2187 L17.8705333,8.23736667 L17.45065,7.84116667 L19.8000833,10.1689 Z M15.2640833,5.6308 L16.72895,4.19008333 L18.0569667,5.51541667 L18.0649,5.5209 L18.0754,5.5286 L18.0860167,5.53851667 L18.0989667,5.55496667 L18.1070167,5.57036667 L18.1174,5.58903333 L18.1225333,5.60991667 L18.1277833,5.6308 L18.1305833,5.65705 L18.1277833,5.68353333 L18.1225333,5.712 L18.1122667,5.74373333 L18.0965167,5.77791667 L18.07295,5.81186667 L18.0437833,5.84815 L18.0097167,5.8877 L17.9916333,5.90415 L17.9729667,5.91745 L17.9545333,5.92725 L17.93645,5.93483333 L17.9153333,5.94253333 L17.8969,5.94591667 L17.8761333,5.94813333 L17.8549,5.94813333 L17.8337833,5.94591667 L17.8129,5.94253333 L17.7920167,5.9381 L17.7709,5.92946667 L17.7262167,5.91185 L17.6842167,5.8877 L17.6188833,5.8569 L17.5529667,5.82516667 L17.4874,5.79868333 L17.4245167,5.77231667 L17.35895,5.74933333 L17.2960667,5.7274 L17.23015,5.70978333 L17.1672667,5.69333333 L17.10415,5.67793333 L17.0412667,5.66696667 L16.97815,5.65705 L16.9150333,5.64935 L16.85215,5.64398333 L16.7892667,5.64165 L16.72615,5.64165 L16.6632667,5.64398333 L16.60015,5.64608333 L16.5372667,5.65495 L16.47415,5.66486667 L16.4112667,5.67571667 L16.3508333,5.69111667 L16.28795,5.7064 L16.22495,5.7274 L16.1618333,5.74933333 L16.09895,5.7757 L16.0357167,5.80428333 L15.97295,5.83275 L15.9125167,5.86681667 L15.8494,5.90088333 L15.7865167,5.94031667 L15.7232833,5.98208333 L15.6605167,6.02711667 L15.2640833,5.6308 Z M13.24015,7.67853333 L14.9860667,5.93273333 L19.8709,10.8441667 L18.1490167,12.56605 L18.1305833,12.5813333 L18.0965167,12.6075833 L18.07295,12.62415 L18.0492667,12.63955 L18.02045,12.65495 L17.98895,12.6681333 L17.9573333,12.6789833 L17.9230333,12.6845833 L17.90495,12.6868 L17.8865167,12.6890167 L17.8682,12.6890167 L17.85245,12.6868 L17.8337833,12.6845833 L17.8157,12.6789833 L17.7972667,12.6736167 L17.7786,12.6625333 L17.7605167,12.65495 L17.7420833,12.6417667 L17.72365,12.6284667 L17.7081333,12.6110833 L17.6894667,12.5945167 L17.6765167,12.5769 L17.6633333,12.5582333 L17.65295,12.5374667 L17.6449,12.5188 L17.6397667,12.4979167 L17.6342833,12.47925 L17.6317167,12.4583667 L17.6292667,12.4373667 L17.6292667,12.4166 L17.6317167,12.3958333 L17.6342833,12.3737833 L17.6449,12.3299167 L17.6605333,12.2848833 L17.6894667,12.23215 L17.7105833,12.1849 L17.7289,12.14325 L17.7445333,12.1037 L17.7525833,12.0696333 L17.7577167,12.0355667 L17.7550333,12.0071 L17.7497833,11.9774667 L17.7394,11.9488833 L17.7262167,11.9203 L17.7081333,11.8917167 L17.6842167,11.8598667 L17.6213333,11.79185 L17.5450333,11.70505 L14.12495,8.28473333 L14.0357,8.19805 L13.9645333,8.13213333 L13.9305833,8.10565 L13.8989667,8.08488333 L13.8677,8.06948333 L13.8385333,8.05641667 L13.8072667,8.05081667 L13.7757667,8.0486 L13.7417,8.05291667 L13.70495,8.0619 L13.6652833,8.07496667 L13.6208333,8.09258333 L13.5737,8.11661667 L13.5185167,8.1431 L13.5000833,8.1529 L13.4817667,8.1585 L13.4633333,8.16608333 L13.4449,8.16935 L13.4264667,8.17483333 L13.4057,8.17716667 L13.3663833,8.17716667 L13.3478333,8.17483333 L13.3294,8.17156667 L13.3085167,8.16608333 L13.2900833,8.1606 L13.27165,8.1529 L13.2533333,8.1431 L13.2349,8.13213333 L13.2165833,8.1221 L13.2008333,8.10028333 L13.1849667,8.08266667 L13.1720167,8.0619 L13.1616333,8.04311667 L13.1537,8.02445 L13.1482167,8.00356667 L13.1405167,7.9849 L13.1380667,7.9674 L13.1352667,7.93006667 L13.1352667,7.89611667 L13.1405167,7.86193333 L13.1482167,7.83008333 L13.15895,7.80161667 L13.1720167,7.77303333 L13.1849667,7.74888333 L13.2008333,7.728 L13.2245167,7.69615 L13.24015,7.67853333 Z" id="Fill-20" fill="#FFFFFE"></path>
                    <polyline id="Fill-21" fill="#FFFFFE" points="35.3217667 5.6308 35.3558333 5.56815 35.3865167 5.50456667 35.41615 5.4418 35.43925 5.376 35.4600167 5.31346667 35.4788 5.24743333 35.4919833 5.1849 35.50505 5.1191 35.51275 5.0554 35.5182333 4.99053333 35.5205667 4.92473333 35.5182333 4.86103333 35.5161333 4.79616667 35.51065 4.73246667 35.50295 4.66783333 35.4919833 4.60413333 35.4788 4.54148333 35.4655 4.47895 35.44695 4.41525 35.4293333 4.35271667 35.40845 4.28901667 35.3865167 4.22636667 35.3634167 4.16605 35.3371667 4.1034 35.2822167 3.98265 35.2217833 3.8619 35.1558667 3.7464 35.08785 3.63008333 35.0372167 3.5259 34.99125 3.42031667 34.9692 3.3677 34.9538 3.31613333 34.9406167 3.2634 34.9308167 3.21055 34.92755 3.1864 34.92755 3.1052 34.9308167 3.08221667 34.9351333 3.05585 34.94295 3.0296 34.9517 3.00311667 34.9615 2.97675 34.9725833 2.95038333 34.98565 2.92401667 35.0011667 2.89776667 35.0198333 2.8714 35.0407167 2.84608333 35.0637 2.81971667 35.08785 2.79335 35.1240167 2.75928333 35.15925 2.72965 35.1932 2.70445 35.2272667 2.68566667 35.26355 2.66933333 35.2975 2.65941667 35.3316833 2.65171667 35.3656333 2.64845 35.4008667 2.64845 35.4348167 2.65393333 35.4688833 2.65941667 35.4995667 2.667 35.5336333 2.6803 35.5656 2.6936 35.5940667 2.70888333 35.6258 2.72533333 35.6840167 2.76488333 35.7389667 2.80653333 35.7915833 2.85051667 35.8388333 2.89333333 35.9167667 2.97126667 35.9728833 3.024 38.7179333 5.77021667 38.7706667 5.82516667 38.8465 5.90415 38.8893167 5.94813333 38.9309667 5.99865 38.9704 6.05021667 39.0100667 6.10831667 39.0254667 6.1369 39.04075 6.16875 39.05405 6.20048333 39.0649 6.23128333 39.0749333 6.26651667 39.0804167 6.29731667 39.0825167 6.33138333 39.0857833 6.36533333 39.0804167 6.40266667 39.0749333 6.43673333 39.0649 6.4729 39.0517167 6.50696667 39.03305 6.54441667 39.0100667 6.58046667 38.9837 6.61791667 38.95185 6.65408333 38.9253667 6.68045 38.87275 6.72221667 38.8465 6.74076667 38.8201333 6.75733333 38.7937667 6.76935 38.76845 6.78265 38.7420833 6.7935 38.7158333 6.80131667 38.68935 6.8068 38.6629833 6.81228333 38.6367333 6.81438333 38.6103667 6.81776667 38.5841167 6.81776667 38.5576333 6.81438333 38.5313833 6.81228333 38.4797 6.80446667 38.4269667 6.79128333 38.3742333 6.77273333 38.3216167 6.75418333 38.2173167 6.70681667 38.11395 6.65408333 37.9986833 6.58606667 37.8813167 6.52341667 37.7626667 6.46298333 37.6397 6.40488333 37.5792667 6.38178333 37.5156833 6.35553333 37.45525 6.33453333 37.3927167 6.3126 37.3300667 6.29498333 37.2663667 6.27853333 37.2038333 6.26325 37.1379167 6.24995 37.0753833 6.24015 37.0094667 6.23128333 36.9457667 6.22708333 36.8831167 6.2237 36.8172 6.2237 36.75245 6.22708333 36.6888667 6.23128333 36.6228333 6.24015 36.5603 6.24995 36.4945 6.26651667 36.4317333 6.28191667 36.3659333 6.30268333 36.3034 6.32916667 36.2374833 6.35553333 36.17495 6.38621667 36.11125 6.42133333 35.3217667 5.6308"></polyline>
                </g>
            </g>
        </g>
    </g>
</svg>