<?xml version="1.0" encoding="UTF-8"?>
<svg width="207px" height="48px" viewBox="0 0 207 48" version="1.1" xmlns="http://www.w3.org/2000/svg" xmlns:xlink="http://www.w3.org/1999/xlink">
    <!-- Generator: Sketch 52.5 (67469) - http://www.bohemiancoding.com/sketch -->
    <title>RoyalCaribbean_logo 2</title>
    <desc>Created with Sketch.</desc>
    <g id="Symbols" stroke="none" stroke-width="1" fill="none" fill-rule="evenodd">
        <g id="Brand/Card/Small/RoyalCaribbean" transform="translate(-16.000000, -13.000000)">
            <g id="RoyalCaribbean_logo-2" transform="translate(16.000000, 13.000000)">
                <g id="RoyalCaribbean_logo">
                    <polygon id="Fill-1" fill="#0668A4" points="0.00285025818 48 196.002279 48 196.002279 0.186705882 0.00285025818 0.186705882"></polygon>
                    <polygon id="Fill-2" fill="#08305D" points="0 48 48.2659157 48 48.2659157 0.186705882 0 0.186705882"></polygon>
                    <polygon id="Fill-3" fill="#F5BA59" points="48.2659157 48 196.000497 48 196.000497 33.2890588 48.2659157 33.2890588"></polygon>
                    <polygon id="Fill-4" fill="#08305D" points="55.6231446 44.2277647 56.5918761 44.2277647 56.5918761 37.5335294 55.6231446 37.5335294"></polygon>
                    <polyline id="Fill-5" fill="#08305D" points="63.5333236 37.5335294 64.8494303 37.5335294 67.8318692 42.9236471 67.8507522 42.9236471 67.8507522 37.5335294 68.8194836 37.5335294 68.8194836 44.2277647 67.5806902 44.2277647 64.520938 38.7232941 64.5020551 38.7232941 64.5020551 44.2277647 63.5333236 44.2277647 63.5333236 37.5335294"></polyline>
                    <polyline id="Fill-6" fill="#08305D" points="77.1091033 38.3777647 75.0081067 38.3777647 75.0081067 37.5335294 80.1777625 37.5335294 80.1777625 38.3777647 78.0767659 38.3777647 78.0767659 44.2277647 77.1091033 44.2277647 77.1091033 38.3777647"></polyline>
                    <polyline id="Fill-7" fill="#08305D" points="86.4233907 37.5335294 90.2085336 37.5335294 90.2085336 38.3777647 87.3914096 38.3777647 87.3914096 40.3337647 89.9573546 40.3337647 89.9573546 41.178 87.3914096 41.178 87.3914096 43.3838824 90.2085336 43.3838824 90.2085336 44.2277647 86.4233907 44.2277647 86.4233907 37.5335294"></polyline>
                    <path d="M97.8974613,40.4103529 L98.720117,40.4103529 C99.6396816,40.4103529 100.182299,40.008 100.182299,39.3652941 C100.182299,38.7610588 99.7169948,38.3777647 98.8259329,38.3777647 L97.8974613,38.3777647 L97.8974613,40.4103529 Z M96.9287298,37.5335294 L98.5847298,37.5335294 C99.9200757,37.5335294 101.208036,37.7445882 101.208036,39.3462353 C101.208036,40.1615294 100.598081,40.7368235 99.8146162,40.8709412 L99.8146162,40.89 C100.11425,41.0054118 100.2589,41.1490588 100.471601,41.5616471 L101.749941,44.2277647 L100.646535,44.2277647 L99.6104664,41.9064706 C99.3101205,41.2542353 98.9916041,41.2542353 98.4782014,41.2542353 L97.8974613,41.2542353 L97.8974613,44.2277647 L96.9287298,44.2277647 L96.9287298,37.5335294 Z" id="Fill-8" fill="#08305D"></path>
                    <polyline id="Fill-9" fill="#08305D" points="108.12205 37.5335294 109.438513 37.5335294 112.419883 42.9236471 112.438766 42.9236471 112.438766 37.5335294 113.407497 37.5335294 113.407497 44.2277647 112.167991 44.2277647 109.108952 38.7232941 109.090069 38.7232941 109.090069 44.2277647 108.12205 44.2277647 108.12205 37.5335294"></polyline>
                    <path d="M122.964057,38.4352941 L121.618735,41.7529412 L124.310804,41.7529412 L122.964057,38.4352941 Z M122.490914,37.5335294 L123.507031,37.5335294 L126.363346,44.2277647 L125.307325,44.2277647 L124.621126,42.5396471 L121.309482,42.5396471 L120.621857,44.2277647 L119.605384,44.2277647 L122.490914,37.5335294 Z" id="Fill-10" fill="#08305D"></path>
                    <polyline id="Fill-11" fill="#08305D" points="133.200046 38.3777647 131.09905 38.3777647 131.09905 37.5335294 136.269775 37.5335294 136.269775 38.3777647 134.168778 38.3777647 134.168778 44.2277647 133.200046 44.2277647 133.200046 38.3777647"></polyline>
                    <polygon id="Fill-12" fill="#08305D" points="142.467305 44.2277647 143.433898 44.2277647 143.433898 37.5335294 142.467305 37.5335294"></polygon>
                    <path d="M153.290804,43.4992941 C154.849539,43.4992941 155.517568,42.2138824 155.517568,40.8811765 C155.517568,39.5184706 154.782201,38.2524706 153.290804,38.2623529 C151.800119,38.2524706 151.064396,39.5184706 151.064396,40.8811765 C151.064396,42.2138824 151.732425,43.4992941 153.290804,43.4992941 Z M153.290804,37.4181176 C155.34299,37.4181176 156.542592,38.8955294 156.542592,40.8811765 C156.542592,42.9137647 155.352253,44.3431765 153.290804,44.3431765 C151.228286,44.3431765 150.03759,42.9137647 150.03759,40.8811765 C150.03759,38.8955294 151.237549,37.4181176 153.290804,37.4181176 Z" id="Fill-13" fill="#08305D"></path>
                    <polyline id="Fill-14" fill="#08305D" points="163.137021 37.5335294 164.45384 37.5335294 167.435923 42.9236471 167.455874 42.9236471 167.455874 37.5335294 168.424606 37.5335294 168.424606 44.2277647 167.184744 44.2277647 164.12606 38.7232941 164.105752 38.7232941 164.105752 44.2277647 163.137021 44.2277647 163.137021 37.5335294"></polyline>
                    <path d="M177.981165,38.4352941 L176.635843,41.7529412 L179.3272,41.7529412 L177.981165,38.4352941 Z M177.505885,37.5335294 L178.523783,37.5335294 L181.378317,44.2277647 L180.324077,44.2277647 L179.636096,42.5396471 L176.326234,42.5396471 L175.637897,44.2277647 L174.622136,44.2277647 L177.505885,37.5335294 Z" id="Fill-15" fill="#08305D"></path>
                    <polyline id="Fill-16" fill="#08305D" points="187.577985 37.5335294 188.544578 37.5335294 188.544578 43.3838824 191.372391 43.3838824 191.372391 44.2277647 187.577985 44.2277647 187.577985 37.5335294"></polyline>
                    <path d="M24.1940602,6.98152941 C25.9227418,8.63823529 27.8545043,10.3958824 29.5276059,12.1083529 L27.5723287,14.6047059 L27.5723287,14.7282353 L32.7555232,17.0234118 L36.2584905,14.6389412 L34.1457367,12.3105882 L34.1457367,12.1429412 C36.3151394,10.6196471 38.1792083,9.15317647 40.2812737,7.75447059 L39.2644441,18.1867059 L9.00681583,18.1867059 L7.98998623,7.75447059 C10.0920516,9.15317647 11.9564768,10.6196471 14.1258795,12.1429412 L14.1258795,12.3105882 L12.0127694,14.6389412 L15.5157367,17.0234118 L20.6992874,14.7282353 L20.6992874,14.6047059 L18.7447229,12.1083529 C20.4171119,10.3958824 22.3488744,8.63823529 24.0775559,6.98152941 L24.1940602,6.98152941" id="Fill-17" fill="#FFFFFE"></path>
                    <path d="M39.0325043,20.0678824 L38.7275267,23.544 L27.5256558,23.5397647 L27.5295749,35.5514118 L32.984969,35.5164706 C34.2013167,35.5147059 35.4821515,34.2458824 35.2217091,33.4125882 C34.9284888,32.2030588 33.8325645,31.3969412 32.8157349,30.7927059 C33.0188158,30.7927059 36.7590671,28.0623529 38.5105508,26.886 C38.4314561,27.6363529 37.1769862,37.4534118 37.1659415,37.6101176 L24.2385955,42.4789412 L24.0326644,42.4789412 L11.106031,37.6101176 C11.0942737,37.4534118 9.84087263,27.6363529 9.76142169,26.886 C11.5132616,28.0623529 15.2528003,30.7927059 15.4565938,30.7927059 C14.4386954,31.3969412 13.3438399,32.2030588 13.0495508,33.4125882 C12.7891084,34.2458824 14.0699432,35.5147059 15.2862909,35.5164706 L20.7420413,35.5514118 L20.7456041,23.5397647 L9.54480207,23.544 L9.23911188,20.0678824 L39.0325043,20.0678824" id="Fill-18" fill="#FFFFFE"></path>
                    <path d="M57.9354165,16.7601176 C60.101969,16.7375294 62.6312169,15.7535294 62.6312169,13.2716471 C62.6312169,10.6556471 60.3050499,9.60423529 57.9354165,9.62682353 L57.9354165,16.7601176 Z M55.9491429,13.8084706 C55.9491429,10.3867059 55.8362014,9.87282353 53.3083787,9.64941176 L53.3083787,9.33635294 L58.81579,9.15705882 C64.5034802,8.97847059 64.9559587,11.7289412 64.9559587,12.8018824 C64.9559587,14.6802353 63.7816523,15.7535294 62.1566489,16.4696471 L62.2695904,16.6256471 C64.0075353,19.6447059 66.1751566,23.4907059 69.8990189,24.2512941 L69.8316816,24.5858824 C67.4385336,24.4747059 65.6777866,24.5414118 64.3688055,23.1995294 C62.878833,21.6568235 61.7052392,19.6888235 61.2310275,18.7277647 C60.327852,16.8716471 59.5155284,17.4081176 57.9354165,17.1395294 L57.9354165,20.7402353 C57.9354165,23.1995294 57.9799518,23.6470588 61.0728382,24.0716471 L61.0728382,24.4072941 L53.149833,24.4072941 L53.149833,24.0716471 C55.8590034,23.7144706 55.8807367,23.0435294 55.9491429,20.7402353 L55.9491429,13.8084706 Z" id="Fill-19" fill="#FFFFFE"></path>
                    <path d="M73.1483133,14.7787059 C70.7102737,14.7787059 69.7169587,17.2831765 69.7169587,19.3401176 C69.7169587,21.4196471 70.8916213,24.1249412 73.3293046,24.1249412 C75.6087986,24.1249412 76.6245594,21.5537647 76.6245594,19.6302353 C76.6245594,17.5732941 75.6087986,14.7787059 73.1483133,14.7787059 Z M73.1711153,24.6172941 C70.0785852,24.6172941 67.6180998,22.6722353 67.6180998,19.4968235 C67.6180998,16.4110588 70.1687246,14.2863529 73.1935611,14.2863529 C76.2632892,14.2863529 78.7237745,16.254 78.7237745,19.4068235 C78.7237745,22.4484706 76.1503477,24.6172941 73.1711153,24.6172941 Z" id="Fill-20" fill="#FFFFFE"></path>
                    <path d="M79.4423959,16.5218824 C79.0362341,15.5152941 78.9460947,15.2918824 77.8173924,15.1122353 L77.8173924,14.7769412 L82.4900344,14.7769412 L82.4900344,15.1122353 C80.7738227,15.2015294 81.2255886,16.2307059 81.6769983,17.3714118 L83.8891549,23.0509412 L85.2882754,19.026 C86.3043924,16.1188235 86.4846713,15.336 84.8151325,15.1122353 L84.8151325,14.7769412 L88.7648778,14.7769412 L88.7648778,15.1122353 C87.7708503,15.2241176 87.4558967,15.6271765 87.0262203,16.4767059 L86.0785095,18.6455294 L82.6019071,27.2989412 C81.7671377,29.3788235 81.1799845,30.0723529 80.2778778,30.0723529 C79.6679225,30.0723529 79.1709088,29.5807059 79.1709088,28.9538824 C79.1709088,28.4841176 79.4423959,28.0595294 79.8938055,27.9031765 C80.1193322,28.0369412 80.8194269,28.5292941 81.0898451,28.5292941 C81.5868589,28.5292941 81.9930207,27.3218824 82.1515663,26.9862353 L82.8958399,25.2649412 L79.4423959,16.5218824" id="Fill-21" fill="#FFFFFE"></path>
                    <path d="M90.263401,20.8521176 C90.1732616,21.1425882 90.1048554,21.4330588 90.1048554,21.7468235 C90.1048554,22.6856471 90.6474733,23.5125882 91.6853236,23.5125882 C92.2952788,23.5125882 92.9041652,23.1102353 93.3110396,22.6856471 L93.3110396,19.3094118 L90.263401,20.8521176 Z M93.3110396,18.8618824 C93.4913184,16.4244706 92.8596299,15.4178824 91.0753683,15.4178824 C89.5187711,15.4178824 89.6769604,16.1565882 89.6769604,17.3858824 L88.5482582,17.4532941 C88.3669105,17.4532941 88.0284423,17.4748235 88.0284423,17.2298824 C88.0284423,16.6256471 90.5117298,14.2997647 92.3405267,14.2997647 C94.4162272,14.2997647 95.0489845,15.8654118 95.0489845,17.6544706 L95.0489845,20.8295294 C95.0489845,22.7975294 94.8587298,24.0264706 97.0124561,23.6918824 L97.0124561,24.1969412 C96.1548847,24.4422353 95.4102547,24.5188235 94.7329621,24.5188235 C93.7845387,24.5188235 93.4239811,23.9823529 93.3110396,23.1102353 C92.5884991,23.9156471 91.5951842,24.6307059 90.4436799,24.6307059 C88.9996678,24.6307059 88.1859191,23.4232941 88.1859191,22.0814118 C88.1859191,21.7468235 88.2315232,21.4330588 88.3223752,21.0977647 L93.3110396,18.8618824 Z" id="Fill-22" fill="#FFFFFE"></path>
                    <path d="M95.9728244,24.4072941 L95.9728244,23.8651765 C97.5404664,23.6795294 97.7335714,23.3230588 97.7335714,21.8135294 L97.7335714,12.3088235 C97.7335714,11.3689412 97.7560172,11.0784706 96.627315,10.2734118 L96.627315,10.0496471 L99.2228313,9.06564706 L99.4722289,9.15494118 L99.4722289,21.8135294 C99.4722289,23.6470588 99.5612995,23.8256471 101.232976,24.0716471 L101.232976,24.4072941 L95.9728244,24.4072941" id="Fill-23" fill="#FFFFFE"></path>
                    <path d="M119.517738,20.8521176 C119.428668,21.1425882 119.360262,21.4330588 119.360262,21.7468235 C119.360262,22.6856471 119.902167,23.5125882 120.939661,23.5125882 C121.549616,23.5125882 122.159571,23.1102353 122.565377,22.6856471 L122.565377,19.3094118 L119.517738,20.8521176 Z M122.565377,18.8618824 C122.745656,16.4244706 122.114324,15.4178824 120.330775,15.4178824 C118.773108,15.4178824 118.931654,16.1565882 118.931654,17.3858824 L117.802596,17.4532941 C117.622317,17.4532941 117.283849,17.4748235 117.283849,17.2298824 C117.283849,16.6256471 119.766423,14.2997647 121.59522,14.2997647 C123.671633,14.2997647 124.303322,15.8654118 124.303322,17.6544706 L124.303322,20.8295294 C124.303322,22.7975294 124.078508,24.1574118 126.26715,23.6918824 L126.26715,24.1969412 C125.409578,24.4422353 124.664948,24.5188235 123.987299,24.5188235 C123.038876,24.5188235 122.678675,23.9823529 122.565377,23.1102353 C121.842836,23.9156471 120.85059,24.6307059 119.69873,24.6307059 C118.254361,24.6307059 117.441325,23.4232941 117.441325,22.0814118 C117.441325,21.7468235 117.486573,21.4330588 117.576713,21.0977647 L122.565377,18.8618824 Z" id="Fill-24" fill="#FFFFFE"></path>
                    <path d="M115.977361,13.8003529 L115.638893,13.8003529 C115.210286,11.2732941 113.72067,9.46270588 111.011499,9.46270588 C106.880762,9.46270588 104.555308,12.8163529 104.555308,16.6627059 C104.555308,21.0677647 107.963861,24.1312941 111.237382,24.1312941 C114.194169,24.1312941 115.368475,21.9850588 116.384592,19.5698824 L116.699189,19.7043529 C116.429127,21.0677647 116.000164,22.4096471 115.458614,23.7063529 C114.01389,24.3998824 112.456224,24.6677647 110.85331,24.6677647 C106.135776,24.6677647 101.937346,21.9850588 101.937346,16.9312941 C101.937346,12.9508235 105.074411,8.92588235 111.033589,8.92588235 C112.750157,8.92588235 114.487033,9.26152941 115.977361,10.1336471 L115.977361,13.8003529" id="Fill-25" fill="#FFFFFE"></path>
                    <path d="M173.154609,20.844 C173.065182,21.1355294 172.997845,21.4256471 172.997845,21.7387059 C172.997845,22.6785882 173.539038,23.5051765 174.578313,23.5051765 C175.186487,23.5051765 175.796086,23.1031765 176.202248,22.6785882 L176.202248,19.3012941 L173.154609,20.844 Z M176.202248,18.8537647 C176.384308,16.4170588 175.751194,15.4108235 173.968714,15.4108235 C172.411404,15.4108235 172.568169,16.1484706 172.568169,17.3784706 L171.439466,17.4451765 C171.259188,17.4451765 170.920719,17.4677647 170.920719,17.2217647 C170.920719,16.6182353 173.404007,14.2927059 175.231735,14.2927059 C177.309573,14.2927059 177.941262,15.858 177.941262,17.6463529 L177.941262,20.8214118 C177.941262,22.7904706 177.622389,24.0402353 179.683482,23.9283529 L179.683482,24.3232941 C178.82591,24.5692941 178.301819,24.5107059 177.62417,24.5107059 C176.677528,24.5107059 176.315189,23.9749412 176.202248,23.1031765 C175.481489,23.9075294 174.487461,24.6225882 173.33667,24.6225882 C171.891232,24.6225882 171.078909,23.4158824 171.078909,22.0743529 C171.078909,21.7387059 171.124513,21.4256471 171.213583,21.0903529 L176.202248,18.8537647 Z" id="Fill-26" fill="#FFFFFE"></path>
                    <path d="M128.723003,21.8054118 C128.723003,23.6396471 128.813143,23.8182353 130.979695,24.0645882 L130.979695,24.3998824 L125.336897,24.3998824 L125.336897,23.8669412 C126.856797,23.7363529 126.962613,23.37 126.984346,21.6250588 L126.984346,17.5344706 C126.984346,16.5956471 127.007148,16.3051765 125.87809,15.5001176 L125.87809,15.2763529 L128.564458,14.2927059 L128.813143,14.382 L128.723003,17.0205882 L128.767539,17.0205882 C129.26384,15.8354118 130.529355,14.2927059 131.951277,14.2927059 C132.582609,14.2927059 133.101713,14.6947059 133.101713,15.3215294 C133.101713,15.9247059 132.447222,16.4837647 131.927762,16.7301176 C131.544046,16.4389412 130.979695,15.9472941 130.48375,15.9914118 C128.564458,16.1710588 128.723003,19.212 128.723003,19.5472941 L128.723003,21.8054118" id="Fill-27" fill="#FFFFFE"></path>
                    <path d="M137.480422,10.5674118 C137.480422,11.1942353 136.960962,11.7081176 136.328917,11.7081176 C135.69616,11.7081176 135.177413,11.1942353 135.177413,10.5674118 C135.177413,9.94129412 135.69616,9.42741176 136.328917,9.42741176 C136.960962,9.42741176 137.480422,9.94129412 137.480422,10.5674118 Z M133.800738,24.3998824 L133.800738,24.0645882 C135.470633,23.8182353 135.538683,23.5503529 135.561485,21.8054118 L135.561485,17.5344706 C135.561485,16.5956471 135.583219,16.3051765 134.184454,15.5001176 L134.184454,15.2763529 L137.050745,14.2927059 L137.300499,14.382 L137.300499,21.8054118 C137.300499,23.6396471 137.38957,23.8182353 139.06089,24.0645882 L139.06089,24.3998824 L133.800738,24.3998824 Z" id="Fill-28" fill="#FFFFFE"></path>
                    <path d="M141.622203,19.8603529 C141.622203,21.9398824 141.848086,23.9301176 144.466404,23.9301176 C145.708048,23.9301176 147.716055,22.9461176 147.716055,19.8377647 C147.716055,17.1550588 145.912198,15.4108235 143.721775,15.4108235 C142.953274,15.4108235 142.321585,15.612 141.622203,15.9021176 L141.622203,19.8603529 Z M139.883902,12.3003529 C139.883902,11.3618824 139.907417,11.0703529 138.778714,10.266 L138.778714,10.0422353 L141.374943,9.05858824 L141.622203,9.14788235 L141.622203,15.5442353 C142.727747,14.9410588 144.105847,14.2927059 145.391313,14.2927059 C147.898472,14.2927059 149.635348,16.5956471 149.635348,18.9430588 C149.635348,22.9009412 145.955664,24.6225882 143.474158,24.6225882 C142.119573,24.6225882 141.103456,24.2654118 139.883902,23.7289412 L139.883902,12.3003529 Z" id="Fill-29" fill="#FFFFFE"></path>
                    <path d="M152.4172,19.8603529 C152.4172,21.9398824 152.642726,23.9301176 155.261045,23.9301176 C156.502688,23.9301176 158.511052,22.9461176 158.511052,19.8377647 C158.511052,17.1550588 156.704701,15.4108235 154.516415,15.4108235 C153.74827,15.4108235 153.116225,15.612 152.4172,15.9021176 L152.4172,19.8603529 Z M150.678186,12.3003529 C150.678186,11.3618824 150.700275,11.0703529 149.573355,10.266 L149.573355,10.0422353 L152.167802,9.05858824 L152.4172,9.14788235 L152.4172,15.5442353 C153.522387,14.9410588 154.900487,14.2927059 156.185954,14.2927059 C158.69133,14.2927059 160.429988,16.5956471 160.429988,18.9430588 C160.429988,22.9009412 156.750305,24.6225882 154.267017,24.6225882 C152.912432,24.6225882 151.898096,24.2654118 150.678186,23.7289412 L150.678186,12.3003529 Z" id="Fill-30" fill="#FFFFFE"></path>
                    <path d="M167.874506,16.9764706 C167.672494,15.9472941 167.038668,14.784 165.842628,14.784 C164.557518,14.784 163.789017,16.0365882 163.541401,17.1550588 L167.874506,16.9764706 Z M163.383212,18.6977647 C163.202933,21.0236471 164.805134,23.1924706 167.355759,23.1924706 C168.530065,23.1924706 169.342033,22.6785882 170.019682,21.7838824 L170.35815,22.0291765 C169.500578,23.4825882 167.965714,24.6225882 166.205324,24.6225882 C163.404945,24.6225882 161.464275,22.3429412 161.464275,19.6591765 C161.464275,16.7742353 163.495797,14.2927059 166.543792,14.2927059 C168.573888,14.2927059 169.928473,15.5668235 170.019682,17.5796471 L163.472282,17.5796471 L163.383212,18.6977647 Z" id="Fill-31" fill="#FFFFFE"></path>
                    <path d="M180.677866,17.5344706 C180.677866,16.5956471 180.699243,16.3051765 179.57054,15.5001176 L179.57054,15.2763529 L182.257978,14.2927059 L182.505594,14.382 L182.325671,16.014 C183.610781,15.0755294 184.852069,14.2927059 186.298219,14.2927059 C189.007389,14.2927059 189.142064,16.5063529 189.142064,17.826 L189.142064,21.8054118 C189.142064,23.6396471 189.232559,23.8182353 190.902811,24.0645882 L190.902811,24.3998824 L185.642659,24.3998824 L185.642659,24.0645882 C187.314336,23.8182353 187.381673,23.5503529 187.405188,21.8054118 L187.405188,19.2345882 C187.405188,17.6689412 187.472169,15.4549412 184.71775,15.4549412 C183.793198,15.4549412 183.161153,15.7461176 182.416523,16.4170588 L182.416523,21.8054118 C182.416523,23.6396471 182.505594,23.8182353 184.17727,24.0645882 L184.17727,24.3998824 L178.917119,24.3998824 L178.913556,23.9922353 C180.532146,23.868 180.653995,23.5503529 180.677866,21.8054118 L180.677866,17.5344706" id="Fill-32" fill="#FFFFFE"></path>
                    <path d="M203.272575,0.618705882 C204.908979,0.618705882 206.236487,1.93341176 206.236487,3.55482353 C206.236487,5.19352941 204.908979,6.50823529 203.272575,6.50823529 C201.626194,6.50823529 200.301181,5.19352941 200.301181,3.55482353 C200.301181,1.93341176 201.626194,0.618705882 203.272575,0.618705882 L203.272575,0.215647059 C201.397105,0.215647059 199.883974,1.71423529 199.883974,3.55482353 C199.883974,5.41270588 201.397105,6.91129412 203.272575,6.91129412 C205.140563,6.91129412 206.644074,5.41270588 206.644074,3.55482353 C206.644074,1.71423529 205.140563,0.215647059 203.272575,0.215647059 L203.272575,0.618705882" id="Fill-33" fill="#08305D"></path>
                    <path d="M202.47664,2.02094118 L203.556176,2.02094118 C204.02433,2.02094118 204.537733,2.09117647 204.537733,2.66929412 C204.537733,3.43235294 203.714721,3.34482353 203.184929,3.34482353 L202.47664,3.34482353 L202.47664,3.70376471 L203.325305,3.70376471 L204.40484,5.43 L204.952802,5.43 L203.813055,3.70376471 C204.485003,3.68647059 205.00767,3.41435294 205.00767,2.67847059 C205.00767,2.36294118 204.865513,2.03011765 204.5812,1.872 C204.299024,1.70541176 203.980508,1.68811765 203.661991,1.68811765 L202.015967,1.68811765 L202.015967,5.43 L202.47664,5.43 L202.47664,2.02094118" id="Fill-34" fill="#08305D"></path>
                </g>
            </g>
        </g>
    </g>
</svg>