<svg width="41" height="41" viewBox="0 0 41 41" xmlns="http://www.w3.org/2000/svg"><g class="nc-icon-wrapper" fill="#444444"><title>bitcoin-topup</title><g stroke="#444444" stroke-width="1" fill="none" fill-rule="evenodd"><g transform="translate(-1113 -1082) translate(1113 1082) translate(.5 .5)"><path d="M40 20c0 11-9 20-20 20S0 31 0 20 9 0 20 0c7.9 0 14.8 4.6 18 11.3"></path><path d="M39 4L38 11.2 32 10.4"></path></g><path d="M5.714 0v3.467" transform="translate(-1113 -1082) translate(1113 1082) translate(8 6) translate(4 2) translate(.286 .289)"></path><path d="M8 0v3.467" transform="translate(-1113 -1082) translate(1113 1082) translate(8 6) translate(4 2) translate(.286 .289)"></path><path d="M5.714 21.956v3.466" transform="translate(-1113 -1082) translate(1113 1082) translate(8 6) translate(4 2) translate(.286 .289)"></path><path d="M8 21.956v3.466" transform="translate(-1113 -1082) translate(1113 1082) translate(8 6) translate(4 2) translate(.286 .289)"></path><path d="M0 21.956h3.429" transform="translate(-1113 -1082) translate(1113 1082) translate(8 6) translate(4 2) translate(.286 .289)"></path><path d="M0 3.467h3.429" transform="translate(-1113 -1082) translate(1113 1082) translate(8 6) translate(4 2) translate(.286 .289)"></path><path d="M3.429 11.556v-8.09h6.634c2.353 0 4.223 1.792 4.223 4.045s-1.87 4.045-4.223 4.045" transform="translate(-1113 -1082) translate(1113 1082) translate(8 6) translate(4 2) translate(.286 .289)"></path><path d="M3.429 21.956v-10.4h7.5c2.5 0 4.5 2.31 4.5 5.2 0 2.888-2 5.2-4.5 5.2h-7.5z" transform="translate(-1113 -1082) translate(1113 1082) translate(8 6) translate(4 2) translate(.286 .289)"></path></g></g></svg>