<svg width="46" height="35" viewBox="0 0 46 35" xmlns="http://www.w3.org/2000/svg"><g class="nc-icon-wrapper" fill="#444444"><title>camera</title><g stroke="#444444" stroke-width=".9" fill="none" fill-rule="evenodd"><path d="M40.863 4.705h-6.295C31.432 4.705 29.863 0 26.705 0h-9.41c-3.158 0-4.727 4.705-7.863 4.705H3.137C1.397 4.705 0 6.123 0 7.863v22A3.14 3.14 0 0 0 3.137 33h37.726A3.154 3.154 0 0 0 44 29.863v-22c0-1.74-1.418-3.158-3.137-3.158z" transform="translate(1 1)"></path><path d="M22 7.863c-5.2 0-9.432 4.211-9.432 9.41 0 5.221 4.233 9.432 9.432 9.432 5.2 0 9.432-4.21 9.432-9.432 0-5.199-4.233-9.41-9.432-9.41z" transform="translate(1 1)"></path><path d="M34.568 8.637c-.859 0-1.568.709-1.568 1.568 0 .88.709 1.568 1.568 1.568a1.55 1.55 0 0 0 1.569-1.568c0-.86-.688-1.568-1.569-1.568z" transform="translate(1 1)"></path><path d="M22 11c-3.48 0-6.295 2.814-6.295 6.273A6.29 6.29 0 0 0 22 23.568a6.29 6.29 0 0 0 6.295-6.295C28.295 13.814 25.48 11 22 11z" transform="translate(1 1)"></path></g></g></svg>