<svg width="45" height="45" viewBox="0 0 45 45" xmlns="http://www.w3.org/2000/svg"><g class="nc-icon-wrapper" fill="#444444"><title>computer</title><g stroke="#444444" stroke-width="1" fill="none" fill-rule="evenodd"><path d="M28 36v8" transform="translate(-140 -1066) translate(140 1066) translate(.5 .5)"></path><path d="M16 44v-8" transform="translate(-140 -1066) translate(140 1066) translate(.5 .5)"></path><path d="M10 44h24" transform="translate(-140 -1066) translate(140 1066) translate(.5 .5)"></path><path d="M20 6h4" transform="translate(-140 -1066) translate(140 1066) translate(.5 .5)"></path><path d="M40 36H4c-2.2 0-4-1.8-4-4V4c0-2.2 1.8-4 4-4h36c2.2 0 4 1.8 4 4v28c0 2.2-1.8 4-4 4z" transform="translate(-140 -1066) translate(140 1066) translate(.5 .5)"></path><path d="M0 28h44" transform="translate(-140 -1066) translate(140 1066) translate(.5 .5)"></path></g></g></svg>