<svg width="46" height="34" viewBox="0 0 46 34" xmlns="http://www.w3.org/2000/svg"><g class="nc-icon-wrapper" fill="#444444"><title>default</title><g stroke="#444444" stroke-width="1" fill="none" fill-rule="evenodd"><path d="M0 8h44" transform="translate(-139 -1136) translate(140 1137)"></path><path d="M0 16h44" transform="translate(-139 -1136) translate(140 1137)"></path><path d="M41 32H3c-1.7 0-3-1.3-3-3V3c0-1.7 1.3-3 3-3h38c1.7 0 3 1.3 3 3v26c0 1.7-1.3 3-3 3z" transform="translate(-139 -1136) translate(140 1137)"></path><path d="M8 24h10" transform="translate(-139 -1136) translate(140 1137)"></path><path d="M33 24h3" transform="translate(-139 -1136) translate(140 1137)"></path></g></g></svg>