<svg width="41" height="41" viewBox="0 0 41 41" xmlns="http://www.w3.org/2000/svg"><g class="nc-icon-wrapper" fill="#444444"><title>dollar-topup</title><g stroke="#444444" stroke-width="1" fill="none" fill-rule="evenodd"><g transform="translate(-269 -20) translate(269 20) translate(.5 .5)"><path d="M40 20c0 11-9 20-20 20S0 31 0 20 9 0 20 0c7.9 0 14.8 4.6 18 11.3"></path><path d="M39 4L38 11.2 32 10.4"></path></g><path d="M0 17c0 2.8 2.2 5 5 5h2c2.8 0 5-2.2 5-5 0-7-12-3-12-10 0-2.8 2.2-5 5-5h2c2.8 0 5 2.2 5 5" transform="translate(-269 -20) translate(269 20) translate(14.5 8.5)"></path><path d="M6 0v24" transform="translate(-269 -20) translate(269 20) translate(14.5 8.5)"></path></g></g></svg>