<svg width="45" height="44" viewBox="0 0 45 44" xmlns="http://www.w3.org/2000/svg"><g class="nc-icon-wrapper" fill="#444444"><title>repair</title><path d="M42.5 8.6l-5.9 5.9-7.1-7.1 5.9-5.9C34 1.1 32.6.9 31 1c-5.6.5-10.1 5.5-10 11.1 0 1.1.2 2.2.5 3.2l-19.2 17c-2.9 2.5-3 7-.3 9.7 2.7 2.7 7.1 2.6 9.7-.3l17-19.2c1.7.5 3.6.7 5.6.3 4-.8 7.3-3.8 8.4-7.7.5-2.3.4-4.5-.2-6.5z" transform="translate(-140 -2546) translate(140 2545) translate(.5 .5)" stroke="#444444" stroke-width="1" fill="none" fill-rule="evenodd"></path></g></svg>