<svg width="343" height="172" viewBox="0 0 343 172" fill="none" xmlns="http://www.w3.org/2000/svg">
<g clip-path="url(#clip0_1324_50514)">
<path d="M0 16C0 7.16344 7.16344 0 16 0H327C335.837 0 343 7.16344 343 16V156C343 164.837 335.837 172 327 172H16C7.16345 172 0 164.837 0 156V16Z" fill="url(#paint0_linear_1324_50514)"/>
<g opacity="0.14">
<mask id="mask0_1324_50514" style="mask-type:alpha" maskUnits="userSpaceOnUse" x="-83" y="-177" width="812" height="812">
<path d="M323 635C547.228 635 729 453.228 729 229C729 4.7724 547.228 -177 323 -177C98.7724 -177 -83 4.7724 -83 229C-83 453.228 98.7724 635 323 635Z" fill="white"/>
</mask>
<g mask="url(#mask0_1324_50514)">
<path d="M323 635C547.228 635 729 453.228 729 229C729 4.7724 547.228 -177 323 -177C98.7724 -177 -83 4.7724 -83 229C-83 453.228 98.7724 635 323 635Z" fill="#2FCF6E"/>
</g>
<path fill-rule="evenodd" clip-rule="evenodd" d="M380.344 137.078C394.439 180.319 322.044 200.401 299.237 208.223L274.54 131.258C296.899 123.718 365.639 91.885 380.344 137.078ZM437.615 250.414C453.195 297.986 366.307 322.46 339.432 331.65L311.857 247.128C339.171 237.664 421.169 200.459 437.615 250.414ZM331.26 62.4782L310.822 -0.768456L270.861 13.0933L290.961 74.799C280.351 78.5038 269.741 82.2085 259.397 86.3396L239.291 24.6244L198.892 38.7603L219.337 102.016C210.752 105.035 202.444 108.474 193.86 111.492L138.789 130.712L152.008 171.575C152.008 171.575 181.541 160.711 180.919 161.692C197.184 156.206 205.356 163.381 209.122 170.384L232.526 242.305C233.67 242.183 235.007 241.348 236.855 241.353C235.268 241.765 234.38 242.32 232.793 242.732L265.935 343.065C266.799 348.376 266.048 357.028 255.005 361.017C255.704 361.16 225.649 371.164 225.649 371.164L232.741 419.955L284.638 401.559C294.37 398.403 303.826 394.826 313.11 391.951L333.815 455.624L373.775 441.762L353.337 378.515C364.646 374.953 375.257 371.249 385.428 367.818L405.606 430.648L445.566 416.786L424.867 353.123C490.927 325.877 532.734 293.31 518.566 230.243C507.418 179.889 476.764 166.299 435.174 170.651C455.477 150.941 463.363 126.143 449.392 93.9315C429.915 49.9554 384.46 49.1194 331.26 62.4782Z" fill="white"/>
</g>
</g>
<defs>
<linearGradient id="paint0_linear_1324_50514" x1="19" y1="25" x2="384.5" y2="172" gradientUnits="userSpaceOnUse">
<stop offset="0.434736" stop-color="#118157"/>
<stop offset="1" stop-color="#2FCF6E"/>
</linearGradient>
<clipPath id="clip0_1324_50514">
<path d="M0 16C0 7.16344 7.16344 0 16 0H327C335.837 0 343 7.16344 343 16V156C343 164.837 335.837 172 327 172H16C7.16345 172 0 164.837 0 156V16Z" fill="white"/>
</clipPath>
</defs>
</svg>
