<svg width="343" height="172" viewBox="0 0 343 172" fill="none" xmlns="http://www.w3.org/2000/svg">
<g clip-path="url(#clip0_1324_50372)">
<path d="M0 16C0 7.16344 7.16344 0 16 0H327C335.837 0 343 7.16344 343 16V156C343 164.837 335.837 172 327 172H16C7.16345 172 0 164.837 0 156V16Z" fill="url(#paint0_linear_1324_50372)"/>
<g opacity="0.12">
<path d="M319 609C543.228 609 725 427.228 725 203C725 -21.2276 543.228 -203 319 -203C94.7724 -203 -87 -21.2276 -87 203C-87 427.228 94.7724 609 319 609Z" fill="#988430"/>
<path d="M319 595.996C536.045 595.996 711.995 420.046 711.995 203.001C711.995 -14.0443 536.045 -189.994 319 -189.994C101.955 -189.994 -73.995 -14.0443 -73.995 203.001C-73.995 420.046 101.955 595.996 319 595.996Z" fill="#7A6A2A"/>
<path d="M319 587.715C531.472 587.715 703.715 415.472 703.715 203C703.715 -9.47217 531.472 -181.715 319 -181.715C106.528 -181.715 -65.7148 -9.47217 -65.7148 203C-65.7148 415.472 106.528 587.715 319 587.715Z" fill="#BA9F33"/>
<path fill-rule="evenodd" clip-rule="evenodd" d="M90.5097 159.64C88.2101 157.54 85.7806 155.435 83.546 153.335C81.3114 151.235 79.0161 149.13 76.7165 147.03L69.8827 140.534C68.7654 139.416 67.5831 138.433 66.4658 137.312C65.3485 136.328 64.0363 135.211 62.919 134.224C53.8506 125.619 44.7302 117.014 35.7874 108.404C45.0507 116.879 54.1191 125.294 63.3824 133.895L66.6001 137.117C67.7174 138.23 68.8997 139.217 70.017 140.334L76.8464 146.64C79.146 148.74 81.3807 150.845 83.6802 153.136C85.9798 155.427 88.2144 157.536 90.514 159.632L90.5097 159.64ZM-29.8439 158.341C-29.8439 158.341 3.13417 161.754 19.2313 164.053C34.1417 166.158 80.7874 173.317 80.7874 173.317L-29.8439 158.341ZM-29.8439 158.341C-20.5806 159.129 -11.3173 160.112 -2.05397 161.1C2.67511 161.559 7.20932 162.083 11.7435 162.542L18.7029 163.334C21.0025 163.659 23.2371 163.988 25.5367 164.318L53.1317 168.718L66.9249 171.017C71.4591 171.805 75.9933 172.663 80.7224 173.451C76.1882 172.992 71.4591 172.334 66.9249 171.675L53.1317 169.705L25.5367 165.634C23.2371 165.305 21.0025 164.842 18.7029 164.517L11.7392 163.716C7.20499 163.257 2.47591 162.598 -2.0583 162.07C-11.3216 160.957 -20.5849 159.77 -29.8482 158.328L-29.8439 158.341ZM77.5047 181.909C77.5047 181.909 42.2921 190.847 30.4 194.264C18.7072 197.482 -16.7046 208.257 -16.7046 208.257L77.5004 181.913L77.5047 181.909Z" fill="#CFB66C"/>
<path fill-rule="evenodd" clip-rule="evenodd" d="M221.902 361.983L209.027 337.61L216.515 307.126L269.925 286.499L247.193 239.858L258.427 192.753L279.517 150.573L344.69 140.326L392.578 94.668L495.986 102.485L516.284 213.051L477.195 352.26L454.927 424.331L364.658 427.748L322.746 398.711L273.671 378.21L221.902 361.983Z" fill="#E2CC85"/>
<path fill-rule="evenodd" clip-rule="evenodd" d="M52.9975 156.883L64.6903 121.475L78.622 98.6093L123.488 94.8633L110.019 134.151L72.5114 200.9L88.0802 260.485L60.4895 274.278L52.0101 261.273L45.1806 231.448L44.7216 197.942L52.9975 156.883Z" fill="#F4ECB4"/>
<path fill-rule="evenodd" clip-rule="evenodd" d="M103.32 358.766L94.7148 346.744C94.7148 346.744 92.4152 341.027 93.7317 336.034C95.0309 330.976 94.8447 330.647 94.1908 328.741C93.5369 326.836 88.0153 320.266 88.3444 314.614C88.6692 308.898 87.8853 306.993 92.0861 302.463C96.486 298.063 95.1738 290.441 95.1738 290.441L100.89 293.987L102.19 292.017C102.19 292.017 104.29 293.658 104.29 296.222C104.749 292.675 102.843 276.249 107.178 272.507C111.513 268.766 119.2 290.047 119.2 290.047L114.471 259.169L102.315 227.507L80.7007 198.6L79.4015 166.735V163.977C79.4015 163.977 69.48 179.221 66.7213 191.26C64.7509 199.536 69.48 209.587 68.4969 221.479C67.7044 233.306 66.7213 232.384 69.6099 237.07C72.4985 241.755 79.5315 251.391 76.7728 258.355C74.3433 264.335 66.0631 260.13 66.0631 260.13C66.0631 260.13 64.4218 264.989 62.1871 266.765C61.399 263.876 60.5458 262.036 58.9694 260.269C58.8352 261.386 58.5104 262.898 58.5104 262.898C58.5104 262.898 57.064 258.363 55.6175 252.647C53.6514 245.029 51.5467 234.978 49.6412 229.59C48.853 232.678 46.8826 242.071 46.8826 242.071L47.9999 256.527L53.3872 276.366L58.584 289.358L63.6422 305.256L68.0379 315.935L71.5847 324.081L74.6725 342.413L89.5829 358.177L97.534 361.728L103.311 358.77L103.32 358.766Z" fill="#F3E19D"/>
<path fill-rule="evenodd" clip-rule="evenodd" d="M60.8143 127.975C60.8143 127.975 50.1046 146.164 47.0211 164.5C43.9377 182.836 41.1747 202.211 43.1235 227.173C45.094 252.339 48.84 267.773 51.8628 278.812C57.0596 297.144 70.5194 322.634 70.5194 322.634L70.9784 321.647C68.716 317.358 66.9103 312.844 65.591 308.178C63.8155 301.215 63.1572 292.939 61.5159 289.193C60.0694 285.451 57.6399 282.229 56.4577 277.63C55.3404 273.23 55.1585 266.266 51.7286 261.078C50.2821 258.973 48.5066 253.456 47.9826 247.939C47.3243 239.658 48.3117 230.395 47.5235 222.778C46.0771 210.097 45.094 201.492 46.4062 194.853C47.7184 188.214 54.5565 169.367 58.7616 154.388C61.5202 144.795 59.8746 136.714 64.9328 128.369C69.991 120.093 73.0831 112.8 74.1961 107.742C75.4953 103.143 60.797 127.975 60.797 127.975H60.8143Z" fill="#F2E8B0"/>
<path fill-rule="evenodd" clip-rule="evenodd" d="M111.6 120.684C111.6 120.684 106.083 122.329 103.454 125.218C100.825 127.976 99.708 130.276 96.1612 134.94C92.6144 139.604 92.4152 143.415 89.5223 149.262C86.6337 154.978 80.259 163.583 79.4708 166.671C78.6826 169.759 77.3705 184.21 75.7291 191.044C74.2827 197.878 77.3704 206.288 77.3704 206.288L81.1121 205.495C81.1121 205.495 81.1121 210.359 84.8582 213.646C88.5999 216.863 89.2581 202.737 89.2581 202.737L103.251 155.502L124.337 141.181L126.636 129.618L111.591 120.684H111.6Z" fill="#F5EEC0"/>
<path fill-rule="evenodd" clip-rule="evenodd" d="M121.846 142.102C121.846 142.102 111.925 142.756 107.066 146.307C105.095 147.749 104.307 148.931 102.207 150.707C98.3309 153.924 94.3856 156.882 92.4845 161.1C90.3798 165.301 88.0802 171.676 86.5038 183.698C85.8456 188.756 85.8456 193.42 85.3865 197.495C84.7283 203.012 83.7452 207.412 84.2692 210.487C84.9275 216.793 91.4321 220.08 92.0644 227.238L105.533 220.409L118.213 170.411L145.15 153.522L129.906 136.441L121.829 142.071L121.846 142.102Z" fill="#E6DB9D"/>
<path fill-rule="evenodd" clip-rule="evenodd" d="M123.47 140.328C123.47 140.328 117.758 140.328 116.641 141.116C115.524 141.904 122.357 143.55 124.458 144.338C126.558 145.126 131.092 148.738 132.275 151.631C133.392 154.389 173.334 170.482 173.334 170.482L201.583 169.036L211.322 155.58L192.796 139.353L205.788 101.053L188.578 103.811L147.189 128.496L126.428 136.447L123.47 140.328Z" fill="#DFC57C"/>
<path fill-rule="evenodd" clip-rule="evenodd" d="M185.507 153.006C185.916 153.667 186.491 154.209 187.175 154.578C187.859 154.947 188.628 155.129 189.405 155.106C195.251 155.106 200.634 156.553 202.869 159.506C206.615 164.24 216.995 179.349 216.995 179.349L241.828 188.283L243.43 159.043L216.298 140.191L185.421 151.555V153.002H185.49L185.507 153.006Z" fill="#E5CC7C"/>
<path fill-rule="evenodd" clip-rule="evenodd" d="M180.635 163.847C180.635 163.847 185.165 164.176 190.882 162.071C196.598 159.967 205.991 155.437 210.066 157.212C215.779 159.642 214.596 167.264 220.776 174.102C224.518 178.307 231.352 178.177 235.228 182.711C239.104 187.246 252.438 185.141 252.438 185.141L257.496 212.424L237.198 238.443L230.559 270.763H203.111L178.037 260.815L165.686 230.933L171.861 200.714L180.635 163.847Z" fill="#D2C281"/>
<path fill-rule="evenodd" clip-rule="evenodd" d="M233.729 165.158C234.41 165.368 235.117 165.479 235.83 165.487C235.041 166.146 233.396 167.588 234.054 171.334C234.712 175.08 236.813 179.809 235.041 182.697C236.455 184.244 237.51 186.083 238.129 188.085C239.246 191.307 239.576 194.26 246.864 194.724C245.812 195.371 244.842 196.143 243.976 197.023C243.976 197.023 249.034 201.423 251.598 205.494C254.222 205.381 261.186 203.216 261.186 203.216L262.632 204.204L265.72 202.904C265.72 202.904 262.831 201.787 264.932 194.758C266.902 188.583 268.678 188.912 268.829 188.453C268.981 187.994 270.276 181.489 270.276 178.86C271.259 175.448 272.047 165.067 272.047 165.067L269.947 142.141L258.124 134.978L248.51 125.697L239.441 142.777L233.469 148.732L233.01 163.513L233.729 165.158Z" fill="#E2C270"/>
<path fill-rule="evenodd" clip-rule="evenodd" d="M262.173 145.977C262.173 145.977 264.273 151.954 265.066 156.553C265.345 155.659 265.5 154.731 265.525 153.794C265.525 153.794 267.166 162.863 267.491 166.609C268.149 166.474 268.79 166.28 268.938 166.933C269.085 167.587 270.583 174.885 270.237 178.955C272.972 174.442 276.758 170.657 281.271 167.921C283.9 166.275 286.988 164.504 290.21 164.37C295.268 164.24 298.945 167.592 304.99 167.592C319.572 167.592 332.78 156.882 342.503 153.599C349.661 151.166 355.837 149.394 360.172 145.449C362.276 143.678 366.022 139.737 369.435 133.886C373.969 126.091 378.698 119.305 383.432 118.452C381.29 118.845 379.111 118.999 376.936 118.911C376.936 118.911 378.382 117.464 380.833 115.494C383.284 113.523 386.221 111.094 390.421 111.094C397.913 111.094 401.655 112.207 405.86 112.207C410.065 112.077 412.495 111.094 412.495 111.094C412.495 111.094 416.899 114.182 426.816 114.182C436.738 114.312 443.372 115.165 448.565 115.628C453.757 116.091 471.162 114.182 476.156 114.329C479.411 114.454 482.608 115.237 485.553 116.628L469.456 69.8572L411.633 19.3184L377.209 43.6914L324.253 96.6424L273.013 115.628L262.303 127.65V145.977H262.173Z" fill="#CCB360"/>
<path fill-rule="evenodd" clip-rule="evenodd" d="M376.814 123.575C374.515 123.705 372.614 123.246 372.085 121.604C370.115 116.087 368.538 115.299 366.888 115.299C365.238 115.299 363.013 118.846 361.692 119.17C360.371 119.495 358.803 115.1 358.803 115.1L357.357 114.441C357.357 114.441 348.882 119.959 342.905 126.463C336.929 132.968 327.137 144.007 322.737 145.973C318.337 147.939 303.223 148.602 298.053 149.719C292.882 150.836 287.148 154.582 286.36 155.435C285.572 156.289 288.664 157.207 289.123 158.06C289.582 158.848 284.06 158.519 283.601 159.359C283.276 160.017 284.9 163.759 285.706 165.665C287.115 164.964 288.662 164.582 290.236 164.547C295.294 164.417 298.975 167.769 305.016 167.769C319.602 167.769 332.806 157.059 342.529 153.773C349.691 151.343 355.867 149.567 360.202 145.627C362.302 143.855 366.048 139.91 369.465 134.064C371.96 130.058 374.394 126.312 376.827 123.553L376.814 123.575Z" fill="#D2B257"/>
<path fill-rule="evenodd" clip-rule="evenodd" d="M199.829 106.232C199.829 106.232 189.578 114.049 185.243 120.029C180.908 126.01 178.608 129.947 173.68 134.81C174.837 134.854 175.993 134.699 177.097 134.351C177.097 134.351 177.097 135.65 176.309 135.992C176.99 135.916 177.679 135.993 178.327 136.218C178.974 136.443 179.563 136.81 180.051 137.292C178.604 138.08 174.663 142.025 177.751 146.689C180.051 150.236 184.914 150.561 184.914 150.561C184.914 150.561 183.797 153.783 188.461 153.454C198.512 152.995 209.746 148.59 214.934 149.708C220.131 151.007 223.084 151.483 226.761 157.858C230.659 164.163 234.054 165.151 234.054 165.151C234.054 165.151 236.354 159.3 235.83 150.565C237.715 145.857 238.76 140.854 238.917 135.784L235.5 110.623L220.59 91.7676L201.275 102.477L199.829 106.219V106.232Z" fill="#E3C571"/>
<path fill-rule="evenodd" clip-rule="evenodd" d="M218.156 102.484C218.156 102.484 219.603 105.901 225.648 106.226C224.99 107.672 224.99 107.872 225.189 108.985C225.319 110.102 225.514 111.743 225.514 111.743C226.179 111.421 226.781 110.981 227.289 110.444C227.619 111.891 226.96 114.186 227.289 115.831C227.493 116.832 227.823 117.803 228.273 118.72C228.368 118.495 228.478 118.277 228.602 118.066C228.732 117.737 229.901 121.613 233.136 124.562C233.133 124.109 233.245 123.662 233.461 123.263C233.51 124.087 233.783 124.881 234.249 125.562C234.007 125.447 233.786 125.292 233.595 125.103C233.595 125.103 233.92 135.497 235.695 140.871C235.992 140.524 236.256 140.15 236.483 139.754C236.483 139.429 236.354 142.647 236.024 144.951C235.565 147.25 235.894 150.468 235.894 150.468C237.079 149.536 238.381 148.762 239.766 148.169C241.737 147.376 244.963 144.947 246.929 139.559C248.07 136.508 248.949 133.366 249.558 130.166C250.193 131.389 250.631 132.704 250.857 134.064C250.991 135.705 254.079 134.852 254.079 134.852L254.737 127.689L258.635 111.462L262.182 101.41L279.262 74.807L310.122 51.0403L337.059 57.2159L359.786 26.3382L320.633 2.81836L283.579 6.6943L249.952 53.2706L223.019 95.5163L218.156 102.48V102.484Z" fill="#D8B65B"/>
<path fill-rule="evenodd" clip-rule="evenodd" d="M412.222 35.0827C412.222 35.0827 409.922 35.5417 403.288 38.9803C396.653 42.4188 392.054 43.5102 389.49 48.5684C386.926 53.6266 386.732 57.6368 386.732 57.6368C386.732 57.6368 391.266 55.6663 393.894 55.0081C396.653 54.3541 399.741 54.549 399.412 55.6663C399.096 56.4324 398.657 57.1419 398.113 57.7667C398.113 57.7667 403.309 57.6368 403.171 60.2005C403.032 62.7643 402.188 65.5879 401.205 66.8351C400.217 68.1343 396.146 70.0571 395.687 71.5685C394.57 74.6563 396.146 74.7862 395.553 77.2807C395.094 79.7145 392.929 84.4436 385.831 92.7195C378.538 101 375.437 106.846 375.437 106.846C375.437 106.846 371.89 100.212 370.05 94.4951C368.751 95.149 361.774 99.0249 361.774 99.0249L345.612 42.7263L345.937 38.9803C345.937 38.9803 347.383 37.209 347.712 33.9221C345.283 33.1339 344.954 32.4756 341.732 29.3922C338.51 26.3087 335.885 22.5584 330.502 19.9946C329.714 18.5482 328.727 16.5821 324.786 15.7895C320.845 14.997 318.48 14.3474 318.48 14.3474C318.48 14.3474 320.581 13.5549 321.568 11.9136C319.134 12.2427 317.168 13.0309 311.846 12.901C306.458 12.7667 305.865 12.5719 302.912 13.0309C299.958 13.49 296.416 14.8065 295.095 10.2723C293.648 9.15497 290.561 10.1424 287.932 14.014C285.303 17.8856 284.385 20.9777 279.327 22.4891C278.971 24.7188 278.19 26.8594 277.027 28.7945C275.581 31.2284 273.281 33.6579 270.193 37.2697C265.33 42.9861 266.118 52.3793 258.366 59.5423C250.549 66.7009 259.666 39.6992 259.666 39.6992L272.147 9.81757L307.688 -24.936L362.874 -28.6777L368.261 -0.0953369L395.198 9.16796L412.213 35.1173L412.222 35.0827Z" fill="#D3AE4D"/>
<path fill-rule="evenodd" clip-rule="evenodd" d="M73.2996 136.385C73.2996 136.385 71.6583 132.31 73.2996 124.363C74.9409 116.417 77.5047 112.671 78.3578 100.978C79.211 89.2851 86.833 74.6994 86.833 74.6994L107.919 65.1113L122.834 69.1822L127.234 89.1552L108.378 99.5488C108.378 99.5488 107.395 103.949 102.073 107.496C96.7502 111.042 89.3924 113.801 87.6211 117.417C86.5623 119.631 85.7895 121.971 85.3216 124.381C85.3216 124.381 79.9342 123.264 76.7165 126.81C73.2996 130.426 73.4295 133.644 73.2996 136.403V136.385Z" fill="#F4EFC8"/>
<path fill-rule="evenodd" clip-rule="evenodd" d="M115.87 131.063C115.87 131.063 114.095 132.181 112.782 134.961C111.483 132.861 108.378 120.375 108.248 109.142C108.118 97.9078 107.447 95.1232 110.045 91.2516C112.644 87.38 122.834 83.3005 121.387 76.3281C119.941 69.6935 113.895 66.9349 106.473 68.8404C101.276 70.1396 97.4085 81.1915 92.0211 86.7087C87.9459 90.9138 83.0869 90.2555 81.7747 92.5551C79.9992 95.6429 81.6405 98.7307 81.1165 100.701C80.9822 101.359 79.3409 104.906 76.3831 109.176C70.4067 117.781 60.2903 129.937 58.9738 140.842C59.4328 134.667 59.108 134.537 60.7494 127.703L59.762 126.062L66.258 104.776L70.463 87.2371L79.8606 57.8665L96.4124 27.8463L112.509 9.84375L129.26 10.9611L131.231 36.1222L140.823 83.3611L160.991 108.193L128.667 129.946L115.857 131.063H115.87Z" fill="#EBCC73"/>
<path fill-rule="evenodd" clip-rule="evenodd" d="M125.922 139.988C125.922 139.988 123.163 140.647 122.176 140.123C121.188 139.599 120.209 139.005 120.534 138.347C120.859 137.689 122.635 136.576 122.635 136.047C122.671 135.57 122.52 135.097 122.214 134.729C121.907 134.361 121.469 134.127 120.993 134.077C119.482 133.882 119.023 134.865 119.023 134.865C119.023 134.865 117.576 133.752 116.398 133.566C117.095 133.481 117.797 133.436 118.499 133.432C116.683 132.609 114.758 132.056 112.782 131.79C114.424 130.807 117.646 127.914 119.746 127.914C121.846 127.914 123.163 127.59 122.834 126.472C122.505 125.355 120.863 123.714 119.092 123.055C119.746 122.267 120.209 121.085 118.633 117.859C116.987 114.641 117.646 112.471 118.174 111.687C118.633 110.7 120.274 108.929 121.063 107.811C121.851 106.694 122.509 105.183 123.821 104.395C124.479 103.935 126.58 103.095 128.685 102.294C130.984 101.506 132.89 100.519 134.202 101.506C135.648 102.489 134.99 103.806 134.99 103.806C134.99 103.806 139.524 102.16 143.595 104.265C147.67 106.231 157.592 107.482 157.592 107.482L161.147 114.645L137.627 134.813L127.905 139.676L125.935 140.001L125.922 139.988Z" fill="#E5C66B"/>
<path fill-rule="evenodd" clip-rule="evenodd" d="M158.57 107.02C158.57 107.02 151.278 111.883 149.636 113.654C150.619 113.789 152.261 114.447 151.602 115.43C150.814 116.413 146.085 119.83 143.456 123.052C140.698 126.27 138.069 130.345 137.151 132.315C136.168 134.086 128.676 139.279 126.116 139.933C131.504 139.933 142.343 133.298 146.414 133.298C146.284 135.269 147.532 137.503 149.831 137.698C152.131 137.893 158.765 139.145 167.7 133.627C176.634 128.24 173.68 124.23 177.422 121.605C184.585 116.872 187.473 112.667 191.414 110.043C195.355 107.418 197.395 106.821 197.395 106.821C197.395 106.821 197.525 104.85 198.694 105.049C199.014 105.086 199.318 105.209 199.573 105.406C199.828 105.603 200.024 105.866 200.141 106.167C200.141 106.167 206.974 101.303 215.731 99.9911C215.527 99.8998 215.363 99.7363 215.272 99.5321C215.272 99.5321 215.926 99.2029 216.06 98.8738C216.06 98.8738 216.519 98.2155 216.848 98.5447C217.177 98.8738 217.636 101.303 218.295 102.291C219.741 101.632 222.5 95.4569 222.5 95.4569L229.139 76.4713V59.127L223.942 60.1143L184.966 76.6661L161.312 101.173L158.553 107.02H158.57Z" fill="#E6BD62"/>
<path fill-rule="evenodd" clip-rule="evenodd" d="M270.778 21.9437C272.886 21.4322 274.907 20.6121 276.776 19.5099C275.988 21.6146 275.988 23.9142 272.571 28.9074C269.154 33.9007 269.024 34.6239 266.265 39.812C263.507 45.1994 263.178 52.9513 260.549 56.3638C261.727 55.7913 262.991 55.4154 264.291 55.2509C264.291 55.2509 261.666 57.5504 260.549 59.9799C259.432 62.4094 257.461 67.4677 252.602 70.5598C247.743 73.6519 241.563 75.618 234.929 82.9108C228.29 90.0694 221.46 99.1378 218.039 102.399C219.815 99.3111 222.244 93.1355 222.902 89.0647C223.561 84.9939 222.768 80.1262 223.886 74.7432C225.003 69.3602 225.003 65.4799 230.382 56.0823C235.76 46.6848 244.967 14.0359 244.967 14.0359L264.806 7.73047L270.787 21.9221L270.778 21.9437Z" fill="#B6933F"/>
<path fill-rule="evenodd" clip-rule="evenodd" d="M256.457 9.92109C256.457 9.92109 250.48 18.5261 248.839 26.1481C247.198 33.7701 248.705 33.1118 247.722 36.8578C247.134 39.1418 247.134 41.5375 247.722 43.8215C249.791 40.4871 252.625 37.6933 255.989 35.6712C261.64 32.2587 266.239 29.8248 268.981 26.9363C271.739 23.8485 274.039 18.7903 280.015 14.9143C277.586 14.5852 274.169 13.4679 273.519 13.6151C275.953 10.8565 283.242 6.65143 290.599 1.59321C297.892 -3.60359 297.433 -5.69964 309.26 -10.8878C305.384 -10.2295 303.544 -11.2169 300.322 -10.8878C301.621 -13.6464 306.168 -14.9629 310.715 -19.4928C315.263 -24.0227 307.827 -30.7266 307.827 -30.7266L273.182 -9.77046L256.431 9.93841L256.457 9.92109Z" fill="#C49937"/>
<path fill-rule="evenodd" clip-rule="evenodd" d="M188.266 -138.685C188.266 -138.685 183.069 -138.551 181.96 -116.936C180.852 -95.3219 180.315 -83.9582 179.527 -73.2485C178.738 -62.5387 176.902 -56.0384 175.98 -49.7286C175.057 -43.4188 174.533 -34.8181 171.58 -29.5607C170.281 -27.1312 167.505 -19.5092 161 -13.7927C153.707 -7.48727 142.811 -3.08298 141.161 -2.75385C138.268 -2.09991 123.618 -0.653488 117.641 2.63348C115.541 3.75079 111.925 5.06299 107.919 8.80902C99.9679 15.9676 89.3924 28.7777 81.7704 44.2165C70.0776 67.2773 58.3848 132.38 58.3848 132.38L61.0135 127.98C61.0135 127.98 61.3427 122.134 67.1891 111.883C72.9055 101.637 71.2642 90.1389 79.211 70.4951C82.2987 63.0073 86.1747 53.285 90.9038 45.0047C98.3958 31.5363 107.46 19.9735 116.593 13.668C131.504 3.42168 147.93 1.18704 147.93 1.18704L165.603 -10.5058C165.603 -10.5058 168.691 -16.4821 172.766 -23.3159C178.479 -32.904 185.758 -43.6137 187.348 -59.1825C189.782 -82.2433 183.931 -97.3529 184.26 -111.016C184.589 -124.679 184.719 -134.731 187.482 -137.165C190.245 -139.599 188.27 -138.676 188.27 -138.676L188.266 -138.685Z" fill="#A88F33"/>
<path fill-rule="evenodd" clip-rule="evenodd" d="M174.273 -13.7926C174.273 -13.7926 167.639 -12.1512 155.288 -5.64657C151.213 -3.5462 147.341 -1.77494 143.595 -0.129292C133.864 4.27067 123.427 8.33715 115.147 10.5804C115.805 11.3686 116.13 11.6934 116.13 11.6934C116.13 11.6934 116.13 14.9154 117.905 16.7516C116.922 17.739 103.779 26.6732 107.659 56.5635C110.283 55.5804 113.371 54.2639 113.83 54.2639C114.623 54.3981 114.818 56.5635 115.801 56.5635C116.784 56.5635 120.006 55.2643 123.423 50.847C123.293 52.6225 121.322 70.4909 131.898 82.5128C133.868 80.2132 138.862 72.5913 138.862 72.5913L138.991 70.1618C138.991 70.1618 139.451 61.6866 142.214 53.9347C144.976 46.1828 150.359 40.4664 150.359 40.4664L178.47 0.325423L174.265 -13.7969L174.273 -13.7926Z" fill="#E6C367"/>
<path fill-rule="evenodd" clip-rule="evenodd" d="M147.995 45.1476C146.708 46.057 145.29 46.7652 143.79 47.248C143.331 45.6066 142.673 39.9551 146.549 34.4379C151.083 27.799 161 19.1939 163.759 12.3515C165.534 7.94716 164.746 -3.08737 180.514 -17.214C196.282 -31.3406 202.453 -36.1996 202.453 -36.1996L227.943 -49.0098L259.28 -36.6587L243.711 24.3604L231.624 52.9428L183.554 43.8787L147.991 45.1476H147.995Z" fill="#DCBA5A"/>
<path fill-rule="evenodd" clip-rule="evenodd" d="M166.344 28.5784L172.325 21.0907V15.7683C172.325 15.7683 178.959 13.9927 186.118 6.69985C193.276 -0.59299 203.198 -14.5854 211.937 -13.7322C220.677 -12.7448 221.53 5.25341 221.859 10.316C222.188 15.3785 223.305 26.8678 225.076 33.0476C227.047 39.2232 203.791 62.6088 203.791 62.6088L187.997 74.6307L166.344 28.5784Z" fill="#E9CE77"/>
<path fill-rule="evenodd" clip-rule="evenodd" d="M184.849 90.9232C184.849 90.9232 189.712 83.3013 186.148 81.6599C188.249 76.9309 192.124 71.9376 192.124 71.9376C192.124 71.9376 194.883 65.1081 203.817 56.698C212.751 48.2878 218.273 42.7013 219.719 37.0541C220.611 33.3737 221.096 29.6065 221.166 25.8203C222.132 26.6094 223.165 27.3122 224.254 27.9207C225.7 28.5789 232.53 34.2262 231.546 45.5942C230.563 56.9622 226.35 61.6912 226.35 61.6912C226.35 61.6912 222.279 65.7621 219.39 67.8668C216.298 69.9671 215.185 72.3966 209.993 72.5959C210.526 72.1716 211.126 71.838 211.768 71.6085C211.768 71.6085 206.381 70.9545 203.488 73.5789C200.595 76.2033 194.446 84.2887 191.358 86.7225C188.27 88.6929 184.862 90.9276 184.862 90.9276L184.849 90.9232Z" fill="#CDAE50"/>
<path fill-rule="evenodd" clip-rule="evenodd" d="M403.288 -36.8593C395.526 -39.688 387.369 -41.2837 379.114 -41.5884C365.316 -42.0474 345.149 -41.2592 325.375 -41.1293C304.089 -40.9994 284.775 -48.4222 257.972 -49.7344C253.572 -52.3631 242.382 -63.861 207.451 -39.488C209.551 -39.6179 232.811 -44.8753 240.888 -34.7546C249.034 -24.7031 246.734 -7.62296 245.621 -3.55213C243.516 5.51629 236.683 18.7205 233.928 27.9838C231.174 37.2471 231.824 42.1148 229.853 48.6108C227.883 55.1068 223.548 58.3331 226.107 65.8208C229.524 63.7205 231.304 63.7205 237.012 50.9103C242.72 38.1002 241.546 28.9668 251.009 18.1272C260.272 7.22256 275.693 -7.69224 281.557 -11.4383C287.421 -15.1843 333.98 -39.3581 382.73 -16.2973C394.488 -17.5445 403.292 -36.8636 403.292 -36.8636L403.288 -36.8593Z" fill="#D2A83E"/>
<path fill-rule="evenodd" clip-rule="evenodd" d="M263.49 86.0636C263.49 86.0636 262.043 92.0399 258.756 94.9977C255.538 97.8906 249.822 100.385 249.168 105.248C248.38 110.107 254.885 112.541 254.885 112.541C254.885 112.541 251.333 118.388 251.333 122.788C251.333 127.322 251.203 128.175 251.662 132.51C251.141 132.845 250.698 133.288 250.363 133.809C250.363 133.809 250.688 138.014 253.91 140.639C257.132 143.263 259.886 144.844 261.528 144.185C261.778 144.721 261.998 145.27 262.186 145.831C262.186 145.831 264.62 139.656 266.261 134.268C267.902 128.751 269.349 129.535 270.003 122.112C270.657 114.689 277.798 101.944 277.798 101.944L282.67 91.0525L274.723 84.877L263.49 86.0592V86.0636Z" fill="#B6903C"/>
<path fill-rule="evenodd" clip-rule="evenodd" d="M278.27 96.7695C276.631 98.4518 275.119 100.252 273.745 102.157C271.644 105.05 270.003 107.674 266.915 108.796C263.827 109.917 261.857 109.909 262.052 113.001C262.247 116.093 265.14 117.401 266.781 118.977C268.556 120.618 270.003 123.377 269.215 126.469C270.198 126.01 271.973 125.482 273.615 121.935C275.256 118.388 286.737 96.7739 286.737 96.7739H278.27V96.7695Z" fill="#685026"/>
<path fill-rule="evenodd" clip-rule="evenodd" d="M323.547 46.9062C323.547 46.9062 324.53 44.2818 323.547 42.3763C322.56 40.4058 316.583 39.7476 313.626 37.5129C310.538 35.2134 306.792 33.6153 303.704 34.6244C304.163 33.5071 306.004 31.0732 304.492 30.5492C303.046 30.0902 297.663 32.5197 296.216 33.637C294.77 34.7543 291.483 36.0665 290.829 36.859C290.175 37.6515 289.053 39.1586 288.395 38.5003C287.737 38.0413 287.412 36.859 286.295 37.5129C285.177 38.1669 279.799 42.5711 278.807 45.1349C277.815 47.6987 275.585 53.4151 268.886 59.9155C262.186 66.4158 259.293 70.6252 261.264 73.0547C263.234 75.4842 264.156 73.713 264.486 75.8133C264.739 77.8752 264.627 79.9656 264.156 81.9889C263.368 85.4058 262.056 88.6234 263.827 89.2817C268.362 90.7281 272.766 87.9825 273.749 88.8227C275.719 90.5939 272.632 96.9686 277.296 98.2159C282.029 99.5151 286.693 97.0986 286.693 97.0986L303.903 87.8353L320.459 79.1003L328.93 62.345L324.387 48.3526L323.521 46.9062H323.547Z" fill="#D4B968"/>
<path fill-rule="evenodd" clip-rule="evenodd" d="M307.307 86.9169C307.307 86.9169 304.414 82.5169 307.965 78.6367C311.517 74.7564 316.571 73.1194 318.541 70.6899C318.166 70.2272 317.663 69.8853 317.095 69.7068C318.402 67.3663 320.398 65.4841 322.811 64.3151C321.828 63.3321 320.511 62.5439 319.069 62.5439C315.847 62.5439 313.873 64.5143 310.919 64.5143C308.03 64.5143 307.701 63.0679 307.701 63.0679C307.701 63.0679 312.565 62.6089 312.101 60.4392C311.642 58.1396 310.802 58.1396 310.802 58.1396C310.802 58.1396 320.195 54.242 321.837 52.1633C323.478 50.0846 323.283 47.6291 323.612 46.646C324.725 46.646 331.23 43.2291 333.859 44.6756C336.487 46.122 334.647 50.0629 334.647 50.0629C334.647 50.0629 342.602 44.0823 346.656 38.2186C350.202 38.5477 351.852 35.7891 354.451 35.7891C357.673 35.7891 362.731 40.189 363.714 49.5822C364.372 54.9696 365.355 58.0573 364.372 67.5848C363.913 72.9721 364.043 84.4744 365.672 90.1822C366.785 94.7164 369.413 94.2574 369.413 94.2574C369.01 95.639 368.21 96.8721 367.114 97.8042C365.338 99.4455 365.143 103.785 365.338 105.426C365.6 106.626 365.93 107.81 366.326 108.973C366.326 108.973 364.225 111.402 363.697 113.048C363.238 114.689 361.072 115.807 359.492 115.807C357.911 115.807 358.704 115.672 356.603 115.807C354.503 115.941 353.845 116.266 352.528 115.807C351.212 115.348 350.228 114.819 350.757 110.61C351.216 106.405 334.53 96.6176 334.53 96.6176L307.247 86.8952L307.307 86.9169Z" fill="#CCA849"/>
<path fill-rule="evenodd" clip-rule="evenodd" d="M275.971 128.434C275.971 128.434 281.947 136.385 306.519 136.385C318.212 136.385 322.287 135.268 324.708 134.609C327.337 133.951 337.189 130.079 347.11 118.382C356.045 107.807 354.074 103.472 354.074 103.472L348.877 102.684L331.988 104.983L282.012 126.268L275.949 128.434H275.971Z" fill="#585136"/>
<path fill-rule="evenodd" clip-rule="evenodd" d="M294.298 130.405C294.298 130.405 273.013 135.139 273.013 121.67C273.013 108.531 286.152 94.7337 289.439 92.3042C292.856 89.8704 301.002 87.1074 301.002 87.1074H320.646L324.387 97.0289L322.746 118.444L294.298 130.401V130.405Z" fill="#252211"/>
<path fill-rule="evenodd" clip-rule="evenodd" d="M313.942 91.1209C313.942 91.1209 309.871 87.3749 300.608 92.4201C291.344 97.4654 283.852 108.011 283.393 117.586C282.934 126.056 290.357 132.366 301.92 132.695C310.525 133.02 315.717 132.037 318.346 131.396C317.688 130.608 314.271 126.338 314.271 126.338L313.946 91.1253L313.942 91.1209Z" fill="#C3B378"/>
<path fill-rule="evenodd" clip-rule="evenodd" d="M309.936 93.2185C309.936 93.2185 308.953 92.4304 306.038 94.0067C303.609 95.3059 300.062 98.7401 297.303 101.17C295.528 102.616 294.41 103.27 293.406 104.387C289.331 109.251 285.914 117.202 287.888 121.143C289.863 125.084 296.364 129.618 312.92 126.53L309.888 93.2229L309.936 93.2185Z" fill="#E6D89C"/>
<path fill-rule="evenodd" clip-rule="evenodd" d="M304.549 101.367C304.549 101.367 301.92 105.442 301.92 111.947C301.92 118.582 305.666 129.157 319.463 129.945C330.039 130.603 337.132 114.706 344.819 108.53C350.666 103.801 354.213 103.667 354.213 103.667C354.213 103.667 348.236 97.1707 332.273 88.7562C316.506 80.2811 298.832 79.1638 289.24 92.1731C293.774 91.844 308.424 88.0979 308.424 88.0979L315.587 90.3975L304.549 101.371V101.367Z" fill="#252211"/>
<path fill-rule="evenodd" clip-rule="evenodd" d="M325.176 109.973C324.716 108.99 324.387 107.673 326.293 107.348C328.198 107.023 329.051 107.214 329.71 108.647C330.368 110.081 331.009 111.276 330.034 111.869C329.051 112.393 326.488 111.869 325.171 109.964L325.176 109.973ZM322.088 100.709C322.088 100.709 321.43 101.168 321.759 100.25C321.889 99.1372 322.746 97.1625 324.846 97.6258C326.947 98.0892 326.492 100.384 326.146 101.043C325.799 101.701 324.045 102.814 322.729 102.342C322.562 102.299 322.407 102.218 322.278 102.104C322.148 101.991 322.047 101.848 321.983 101.688C321.919 101.528 321.894 101.356 321.909 101.184C321.924 101.012 321.979 100.847 322.07 100.701L322.088 100.709Z" fill="#6F674D"/>
<path fill-rule="evenodd" clip-rule="evenodd" d="M144.258 104.91C144.258 104.91 149.454 108.807 155.491 108.656C161.468 108.522 169.155 102.35 172.701 98.4051C174.802 96.1055 176.599 93.676 178.548 91.7705C180.193 90.1291 181.306 89.341 182.095 88.2236C183.212 86.9244 184.394 84.482 184.988 83.6895C183.541 84.8068 181.441 86.7815 179.271 88.0937C177.171 89.3929 172.636 91.8354 170.796 92.4937C169.025 93.152 150.628 102.887 150.628 102.887L144.258 104.91Z" fill="#AC924C"/>
<path fill-rule="evenodd" clip-rule="evenodd" d="M152.2 56.3673C152.2 56.3673 155.089 54.3968 160.675 53.1453C166.063 51.8461 176.902 50.8457 176.902 50.8457L185.836 54.7433L189.383 68.2117L182.887 82.2084L174.611 87.4052L165.214 72.2955L152.222 56.3933L152.2 56.3673Z" fill="#9F8E57"/>
<path fill-rule="evenodd" clip-rule="evenodd" d="M140.507 68.3891L137.415 70.6973C137.415 70.6973 138.208 69.2509 138.862 64.8509C139.516 60.451 142.937 49.7412 147.93 43.5657C152.923 37.3901 152.793 37.7193 152.793 37.7193C152.334 37.6352 151.862 37.6501 151.408 37.7629C150.955 37.8756 150.531 38.0837 150.165 38.3732C150.823 36.9181 155.028 31.7213 159.233 29.1229C163.438 26.5245 165.079 25.706 169.479 27.8237C173.879 29.9414 174.997 31.0414 178.219 30.9115C181.441 30.7816 184.195 27.3647 184.195 27.3647C184.195 27.3647 184.853 29.465 182.424 34.3284C179.994 39.1917 170.402 49.109 170.402 49.109L150.429 62.7722L140.507 68.4021V68.3891Z" fill="#EAC970"/>
<path fill-rule="evenodd" clip-rule="evenodd" d="M155.284 54.7257C155.284 54.7257 169.739 56.6961 174.139 52.6253C174.269 53.0844 174.797 53.0844 174.797 53.4135C174.762 53.6616 174.647 53.8912 174.468 54.0674C174.947 53.991 175.43 53.9476 175.915 53.9375C176.493 54.1097 177.089 54.22 177.69 54.2666C178.175 54.2561 178.658 54.2113 179.137 54.1324C179.091 54.4589 178.98 54.7729 178.811 55.0557C178.641 55.3384 178.416 55.5841 178.149 55.778C178.808 55.778 179.449 55.908 179.449 56.432C179.449 56.956 179.579 58.5367 178.79 58.8658C178.137 59.0464 177.442 58.999 176.82 58.7315C176.872 59.9754 177.21 61.1905 177.807 62.2827C179.106 64.7122 181.878 67.4795 185.602 66.6826C185.602 66.6826 187.569 71.4117 179.293 81.9223C178.18 83.3687 176.993 85.3392 175.551 86.9805C174.981 88.2225 174.546 89.5219 174.252 90.8564C174.252 90.8564 188.249 85.4691 192.254 73.183C196.33 60.8319 197.118 48.6801 196.33 37.3164C196.195 34.0944 195.671 31.7991 194.883 30.1535C192.913 26.0783 187.391 26.7366 185.161 29.0362C181.939 32.2582 176.551 40.2699 169.064 45.7872C161.442 51.3044 161.117 52.2832 155.266 54.7257H155.284Z" fill="#D7BC6B"/>
<path fill-rule="evenodd" clip-rule="evenodd" d="M137.943 72.4649C137.943 72.4649 135.185 74.1062 133.738 80.2601C132.292 86.5656 135.038 94.2525 136.627 96.682C138.216 99.1115 141.824 105.75 149.307 106.08C151.159 106.07 152.991 105.69 154.695 104.962C157.307 103.764 159.757 102.241 161.987 100.428C165.209 97.9985 167.834 95.8981 167.505 95.6989C166.716 95.3698 147.666 79.6018 147.666 79.6018L140.503 71.6074L137.939 72.4736L137.943 72.4649Z" fill="#585136"/>
<path fill-rule="evenodd" clip-rule="evenodd" d="M155.95 98.6092C155.95 98.6092 159.826 98.2844 162.126 96.838C164.426 95.3915 148.658 79.7578 148.658 79.7578L149.775 96.6474L155.95 98.6092Z" fill="#453A25"/>
<path fill-rule="evenodd" clip-rule="evenodd" d="M139.191 71.2793C139.191 71.2793 137.22 75.0253 137.22 76.0127C136.891 79.2304 137.879 89.3468 138.667 92.5645C139.455 95.9814 143.725 101.17 149.247 101.17C152.659 101.17 157.393 99.0692 157.393 98.5452C157.393 97.8869 152.529 97.246 151.217 94.7992C150.429 93.5 150.1 90.2693 149.918 87.004C149.788 84.9036 149.788 82.604 150.576 81.8072C152.352 79.8367 152.676 74.1852 152.676 74.1852L158.982 62.4707H150.689L140.767 68.6462L139.191 71.2793Z" fill="#84754B"/>
<path fill-rule="evenodd" clip-rule="evenodd" d="M136.761 74.8942C136.761 74.8942 143.257 66.2892 149.112 64.3144C154.967 62.3396 157.587 63.5262 157.587 63.5262L154.17 72.2655L149.307 77.6529L149.636 80.4115C149.636 80.4115 148.844 87.7043 153.707 92.7626C158.57 97.8208 162.182 97.6259 164.287 97.6259C166.392 97.6259 172.433 95.8503 175.521 88.5575C178.279 81.728 180.579 72.9671 175.062 64.1845C169.67 55.4452 160.147 55.1074 158.306 55.1074C156.466 55.1074 142.014 55.8306 136.761 74.8812V74.8942Z" fill="#252211"/>
<path fill-rule="evenodd" clip-rule="evenodd" d="M303.561 104.127C301.132 103.01 303.431 96.1805 305.861 94.0758C308.29 91.9711 311.378 89.5459 316.77 89.2125C318.736 89.0825 320.641 90.3298 320.317 91.6463C319.857 94.0758 316.441 97.4927 313.353 99.9222C309.083 103.274 306.32 105.375 303.561 104.127Z" fill="#F7F7E7"/>
<path fill-rule="evenodd" clip-rule="evenodd" d="M172.169 66.8793C173.944 66.7494 176.244 68.1785 176.703 70.1013C177.162 72.2017 175.586 76.4067 172.169 76.4067C169.41 76.4067 167.964 72.9899 167.964 72.0068C167.995 71.1985 168.221 70.4096 168.622 69.7072C168.752 69.508 169.081 67.2084 172.169 66.8793Z" fill="#F8F6DE"/>
<path fill-rule="evenodd" clip-rule="evenodd" d="M146.549 68.3906C146.549 68.3906 142.014 70.491 139.914 74.8866C138.413 78.1325 137.959 81.7648 138.615 85.2802C138.944 86.9215 140.585 90.9924 141.703 92.4388C142.82 93.8853 144.331 94.8727 145.449 94.7384C146.566 94.6042 148.861 91.6506 148.861 89.8794C148.861 88.1081 148.995 80.6161 151.161 76.5409C153.066 72.4701 146.562 68.395 146.562 68.395L146.549 68.3906Z" fill="#D4C38B"/>
<path fill-rule="evenodd" clip-rule="evenodd" d="M147.207 68.0602C146.419 68.5192 145.106 69.1775 145.431 70.0306C145.76 70.8188 148.519 71.3298 149.506 73.2526C150.624 75.2231 150.624 77.3235 150.295 78.3109C151.153 77.9031 151.931 77.3459 152.594 76.6652C154.041 75.0239 155.812 72.7936 157.323 72.7936C158.311 72.7936 159.294 73.2526 160.216 73.2526C161.663 73.2526 163.105 72.7936 163.304 71.2822C163.629 69.3117 160.545 67.5362 158.77 67.8653C159.099 66.5661 159.558 64.6476 158.111 63.3311C156.665 62.0146 152.135 64.3185 151.148 64.9767C150.16 65.635 147.207 68.0645 147.207 68.0645V68.0602Z" fill="#E2D59D"/>
<path fill-rule="evenodd" clip-rule="evenodd" d="M101.219 177.839C101.219 177.839 99.9202 179.48 99.1191 183.356C98.3179 187.232 98.66 186.773 98.0018 189.532C97.3435 192.29 89.2581 219.751 92.2896 229.014C95.3211 238.278 100.57 241.695 103.852 249.182C104.511 250.824 105.152 251.811 105.494 253.257C106.611 258.116 105.628 261.863 106.94 266.726C107.399 268.367 108.586 270.273 110.357 272.243C114.255 276.314 120.608 280.19 123.349 282.949C127.221 287.024 132.742 295.304 139.771 296.088C143.517 296.547 148.839 294.97 153.239 292.346C157.137 289.912 159.545 286.5 163.633 284.551C166.522 283.104 169.609 282.58 172.368 281.922C178.084 280.805 183.277 280.623 186.365 281.264C191.094 282.251 202.263 285.668 208.451 285.668C213.287 285.59 218.095 284.929 222.773 283.698C232.166 280.939 243.529 276.206 251.022 274.105C255.421 272.806 258.968 272.464 262.584 271.676C268.76 270.229 273.948 268.259 276.906 264.513C274.935 262.213 272.506 258.666 259.362 258.796C244.452 259.125 227.238 267.401 218.762 268.718C210.287 270.034 206.611 271.147 197.148 267.731C187.872 264.279 187.564 261.997 187.564 261.997C187.564 261.997 177.825 255.185 173.749 237.819C169.674 220.453 173.749 207.798 184.329 195.772C187.088 192.684 186.43 189.926 186.43 189.926C186.43 189.926 193.393 180.533 191.488 171.737C189.387 162.998 175.919 164.773 175.919 164.773L101.224 177.839H101.219Z" fill="#6E6342"/>
<path fill-rule="evenodd" clip-rule="evenodd" d="M102.995 164.699C103.517 164.313 104.001 163.878 104.441 163.4C103.142 165.83 97.1443 175.552 102.008 190.861C106.871 206.1 119.088 217.464 134.132 217.992C149.177 218.521 157.085 211.159 166.127 200.124C169.674 195.724 173.749 190.203 177.361 186.461C182.749 180.61 186.954 178.969 186.954 173.322C186.954 161.759 175.127 156.566 157.717 151.378C140.308 146.19 124.605 146.831 116.459 150.382C108.512 154.254 105.095 158.329 102.991 164.704L102.995 164.699Z" fill="#252211"/>
<path fill-rule="evenodd" clip-rule="evenodd" d="M542.302 103.143C501.243 -2.88931 399.741 -22.5332 399.741 -22.5332H110.154L111.271 85.4693H168.942V326.64H110.149V434.447H391.725C459.586 434.447 513.984 366.252 513.984 366.252C601.095 242.616 542.298 103.143 542.298 103.143H542.302ZM393.236 293.592C393.236 293.592 371.15 325.458 347.119 325.458H299.049L297.91 85.7335H359.6C359.6 85.7335 388.182 91.7098 408.151 148.273C408.151 148.273 434.625 229.256 393.236 293.592Z" fill="white" fill-opacity="0.8"/>
</g>
</g>
<defs>
<linearGradient id="paint0_linear_1324_50372" x1="19" y1="25" x2="331" y2="164" gradientUnits="userSpaceOnUse">
<stop offset="0.0849627" stop-color="#765922"/>
<stop offset="1" stop-color="#D2A83E"/>
</linearGradient>
<clipPath id="clip0_1324_50372">
<path d="M0 16C0 7.16344 7.16344 0 16 0H327C335.837 0 343 7.16344 343 16V156C343 164.837 335.837 172 327 172H16C7.16345 172 0 164.837 0 156V16Z" fill="white"/>
</clipPath>
</defs>
</svg>
