<svg width="81" height="80" viewBox="0 0 81 80" fill="none" xmlns="http://www.w3.org/2000/svg">
<g clip-path="url(#clip0_1784_50512)">
<g opacity="0.5">
<path d="M19.2187 72.623C17.3532 71.1965 15.6241 69.5752 14.0796 67.8035C12.5294 66.0257 11.1554 64.0856 9.9958 62.0377C7.59326 57.7943 6.13063 53.1793 5.64844 48.3209C5.673 48.3261 8.14922 48.8593 11.8064 50.2461C13.6239 56.7672 16.4368 62.4281 20.1669 67.0717C19.1752 69.169 18.8562 71.0367 19.2187 72.623Z" fill="#001E2E" fill-opacity="0.4"/>
<path fill-rule="evenodd" clip-rule="evenodd" d="M14.3749 67.5459L14.3749 67.5459C12.842 65.788 11.4834 63.8695 10.3368 61.8446C8.05172 57.8087 6.62676 53.4335 6.09713 48.8303C6.38112 48.9015 6.77296 49.0042 7.25787 49.1423C8.29142 49.4366 9.74725 49.8913 11.4826 50.5428C13.289 56.9393 16.0539 62.5186 19.7095 67.1267C18.9595 68.7785 18.6092 70.3185 18.6946 71.7117C17.1397 70.452 15.6897 69.0541 14.3749 67.5459ZM18.7519 72.2597C17.0642 70.9233 15.4945 69.4265 14.0796 67.8035C12.5294 66.0257 11.1554 64.0856 9.9958 62.0377C7.66117 57.9143 6.21407 53.4399 5.69168 48.7323C5.67648 48.5954 5.66207 48.4583 5.64844 48.3209C5.65418 48.3221 5.79408 48.3522 6.05187 48.4154C6.89611 48.6222 9.00471 49.1837 11.8064 50.2461C13.6239 56.7672 16.4368 62.4281 20.1669 67.0717C19.2922 68.9216 18.9408 70.5929 19.1189 72.05C19.1427 72.2449 19.176 72.4359 19.2187 72.623C19.0621 72.5033 18.9065 72.3822 18.7519 72.2597Z" fill="#001E2E"/>
<path d="M19.2187 72.623C17.3532 71.1965 15.6241 69.5752 14.0796 67.8035C12.5294 66.0257 11.1554 64.0856 9.9958 62.0377C7.5933 57.7943 6.13063 53.1793 5.64844 48.3209C5.67313 48.3261 8.15795 48.8627 11.8064 50.2461C13.6239 56.7672 16.4368 62.4281 20.1669 67.0717C19.1752 69.169 18.8562 71.0371 19.2187 72.623Z" fill="#001E2E" fill-opacity="0.4"/>
<path fill-rule="evenodd" clip-rule="evenodd" d="M14.3749 67.5459L14.3749 67.5459C12.842 65.788 11.4834 63.8695 10.3368 61.8446C8.05178 57.8087 6.6268 53.4337 6.09715 48.8305C6.38192 48.9019 6.77497 49.0051 7.26115 49.1435C8.29571 49.4382 9.75139 49.8929 11.4826 50.5428C13.289 56.9393 16.0539 62.5186 19.7095 67.1268C18.9595 68.7784 18.6092 70.3187 18.6946 71.7117C17.1397 70.452 15.6897 69.0541 14.3749 67.5459ZM18.7518 72.2597C17.0642 70.9233 15.4945 69.4265 14.0796 67.8035C12.5294 66.0257 11.1554 64.0856 9.9958 62.0377C7.66122 57.9143 6.21408 53.44 5.69168 48.7324C5.67648 48.5954 5.66207 48.4583 5.64844 48.3209C5.6542 48.3221 5.7942 48.3523 6.05189 48.4155C6.89742 48.6229 9.01015 49.1858 11.8064 50.2461C13.6239 56.7672 16.4368 62.4281 20.1669 67.0717C19.2922 68.9216 18.9408 70.5931 19.1189 72.05C19.1427 72.2449 19.176 72.4359 19.2187 72.623C19.0621 72.5033 18.9065 72.3822 18.7518 72.2597Z" fill="#001E2E"/>
<path d="M19.2187 72.623C17.3532 71.1965 15.6241 69.5752 14.0796 67.8035C12.5294 66.0257 11.1554 64.0856 9.9958 62.0377C7.5933 57.7943 6.13063 53.1793 5.64844 48.3209C5.67313 48.3261 8.15795 48.8627 11.8064 50.2461C13.6239 56.7672 16.4368 62.4281 20.1669 67.0717C19.1752 69.169 18.8562 71.0371 19.2187 72.623Z" fill="#001E2E" fill-opacity="0.4"/>
<path fill-rule="evenodd" clip-rule="evenodd" d="M14.3749 67.5459L14.3749 67.5459C12.842 65.788 11.4834 63.8695 10.3368 61.8446C8.05178 57.8087 6.6268 53.4337 6.09715 48.8305C6.38192 48.9019 6.77497 49.0051 7.26115 49.1435C8.29571 49.4382 9.75139 49.8929 11.4826 50.5428C13.289 56.9393 16.0539 62.5186 19.7095 67.1268C18.9595 68.7784 18.6092 70.3187 18.6946 71.7117C17.1397 70.452 15.6897 69.0541 14.3749 67.5459ZM18.7518 72.2597C17.0642 70.9233 15.4945 69.4265 14.0796 67.8035C12.5294 66.0257 11.1554 64.0856 9.9958 62.0377C7.66122 57.9143 6.21408 53.44 5.69168 48.7324C5.67648 48.5954 5.66207 48.4583 5.64844 48.3209C5.6542 48.3221 5.7942 48.3523 6.05189 48.4155C6.89742 48.6229 9.01015 49.1858 11.8064 50.2461C13.6239 56.7672 16.4368 62.4281 20.1669 67.0717C19.2922 68.9216 18.9408 70.5931 19.1189 72.05C19.1427 72.2449 19.176 72.4359 19.2187 72.623C19.0621 72.5033 18.9065 72.3822 18.7518 72.2597Z" fill="#001E2E"/>
<path fill-rule="evenodd" clip-rule="evenodd" d="M6.05185 48.4152C5.78852 48.3508 5.64844 48.3209 5.64844 48.3209C5.66207 48.4583 5.67649 48.5954 5.69171 48.7323C6.74992 58.2522 11.626 66.6176 18.7516 72.2595C18.9063 72.382 19.062 72.5032 19.2187 72.623C19.1756 72.4343 19.1423 72.2431 19.1185 72.0497C18.9283 70.506 19.3412 68.8181 20.1669 67.0717C15.9406 61.8105 13.3642 55.8359 11.8064 50.2461C8.99514 49.18 6.89369 48.621 6.05185 48.4152ZM6.09717 48.8301C7.16021 58.0495 11.8462 66.1644 18.6937 71.7112C18.6025 70.2466 18.9973 68.6943 19.7094 67.1267C15.5796 61.9208 13.037 56.0468 11.4826 50.5428C9.73107 49.8851 8.26901 49.429 7.23632 49.1356C6.76096 49.0006 6.37669 48.9 6.09717 48.8301Z" fill="#001E2E"/>
<path d="M75.1436 48.3205C75.1436 48.3205 72.6764 48.846 68.9859 50.2457C67.428 55.8355 64.8514 61.8105 60.625 67.0712C61.5542 69.0365 61.9607 70.928 61.573 72.623C69.0566 66.9003 74.1616 58.2184 75.1436 48.3205Z" fill="#001E2E" fill-opacity="0.3"/>
<path d="M75.1436 48.3205C75.1436 48.3205 72.6764 48.846 68.9859 50.2457C67.428 55.8355 64.8514 61.8105 60.625 67.0712C61.5542 69.0365 61.9607 70.928 61.573 72.623C69.0566 66.9003 74.1616 58.2184 75.1436 48.3205Z" fill="#001E2E" fill-opacity="0.3"/>
<path d="M75.1436 48.3205C75.1436 48.3205 72.6764 48.846 68.9859 50.2457C67.428 55.8355 64.8514 61.8105 60.625 67.0712C61.5542 69.0365 61.9607 70.928 61.573 72.623C69.0566 66.9003 74.1616 58.2184 75.1436 48.3205Z" fill="#001E2E" fill-opacity="0.3"/>
<path d="M75.1436 48.3205C75.1436 48.3205 72.6764 48.846 68.9859 50.2457C67.428 55.8355 64.8514 61.8105 60.625 67.0712C61.5542 69.0365 61.9607 70.928 61.573 72.623C69.0566 66.9003 74.1616 58.2184 75.1436 48.3205Z" fill="#001E2E" fill-opacity="0.3"/>
<path d="M75.1436 48.3205C75.1436 48.3205 72.6764 48.846 68.9859 50.2457C67.428 55.8355 64.8514 61.8105 60.625 67.0712C61.5542 69.0365 61.9607 70.928 61.573 72.623C69.0566 66.9003 74.1616 58.2184 75.1436 48.3205Z" fill="#001E2E" fill-opacity="0.3"/>
<path d="M75.1436 48.3205C75.1436 48.3205 72.6764 48.846 68.9859 50.2457C67.428 55.8355 64.8514 61.8105 60.625 67.0712C61.5542 69.0365 61.9607 70.928 61.573 72.623C69.0566 66.9003 74.1616 58.2184 75.1436 48.3205Z" fill="#001E2E" fill-opacity="0.3"/>
<path fill-rule="evenodd" clip-rule="evenodd" d="M61.262 73.1074L61.693 72.7778C69.2182 67.0233 74.3521 58.2928 75.3396 48.339L75.3661 48.0721L75.1038 48.128L75.1446 48.3196C75.1038 48.128 75.1038 48.128 75.1038 48.128L75.1036 48.128L75.1016 48.1285L75.0959 48.1297L75.0738 48.1345C75.0543 48.1388 75.0255 48.1453 74.9877 48.1539C74.912 48.1713 74.8002 48.1975 74.6546 48.2334C74.3636 48.305 73.9376 48.415 73.3962 48.5689C72.3134 48.8765 70.7686 49.3596 68.9175 50.0616L68.8248 50.0968L68.7982 50.1922C67.2453 55.7638 64.6789 61.7128 60.4733 66.9476L60.3965 67.0432L60.4489 67.1541C61.3687 69.0994 61.757 70.9435 61.383 72.5785L61.262 73.1074ZM74.9216 48.5719C73.8986 58.1226 69.0125 66.5147 61.8584 72.1533C62.0753 70.5699 61.6688 68.8529 60.8552 67.0977C65.0331 61.8644 67.5927 55.9398 69.149 50.393C70.9473 49.7143 72.4479 49.2457 73.5033 48.9458C74.04 48.7933 74.4615 48.6845 74.7483 48.6139C74.813 48.5979 74.8709 48.584 74.9216 48.5719Z" fill="#001E2E"/>
<path d="M34.9119 79.3496C29.2549 78.475 23.8283 76.1488 19.219 72.6219C18.8565 71.0355 19.1755 69.1679 20.1672 67.0705C20.5187 67.5078 20.8372 67.8905 21.1411 68.24C23.9036 71.4166 26.5782 74.0054 29.0905 75.9348C31.143 77.5114 33.1016 78.6604 34.9119 79.3496Z" fill="#001E2E" fill-opacity="0.8"/>
<path fill-rule="evenodd" clip-rule="evenodd" d="M20.8454 68.4971L20.8454 68.4972C23.6199 71.6874 26.3133 74.296 28.8518 76.2456L29.09 75.9355L28.8518 76.2456C29.913 77.0607 30.9528 77.7654 31.964 78.354C27.5123 77.2388 23.2783 75.2095 19.5718 72.398C19.3113 71.0949 19.529 69.5598 20.2651 67.8114C20.4664 68.0551 20.6585 68.2821 20.8454 68.4971ZM20.4418 67.4092C20.3524 67.2999 20.261 67.1871 20.1672 67.0705C20.1039 67.2044 20.0433 67.3373 19.9855 67.4694C19.1375 69.4052 18.8796 71.1368 19.219 72.6219C23.3772 75.8035 28.2003 78.0081 33.2578 79.0513C33.8066 79.1645 34.3582 79.264 34.9119 79.3496C34.4143 79.1602 33.9054 78.9359 33.3865 78.6776C32.0177 77.9964 30.5788 77.078 29.0905 75.9348C26.5782 74.0054 23.9036 71.4166 21.1411 68.24C20.9183 67.9837 20.6876 67.7096 20.4418 67.4092Z" fill="#001E2E"/>
<path d="M34.9119 79.3496C29.2549 78.475 23.8284 76.1488 19.219 72.6219C18.8565 71.0359 19.1755 69.1679 20.1672 67.0705C20.519 67.5082 20.8375 67.8909 21.1411 68.24C23.9037 71.4166 26.5783 74.0054 29.0905 75.9348C31.1431 77.5118 33.1017 78.6604 34.9119 79.3496Z" fill="#001E2E" fill-opacity="0.8"/>
<path fill-rule="evenodd" clip-rule="evenodd" d="M19.5718 72.398C19.3113 71.0952 19.529 69.5599 20.2651 67.8114C20.4665 68.0553 20.6586 68.2823 20.8454 68.4972C23.6199 71.6874 26.3134 74.296 28.8518 76.2456L29.0905 75.9348L28.8518 76.2456C29.9129 77.0608 30.9526 77.7655 31.9636 78.3539C27.5121 77.2387 23.2782 75.2095 19.5718 72.398ZM33.2577 79.0512C28.2003 78.0081 23.3771 75.8035 19.219 72.6219C18.8796 71.1372 19.1375 69.4052 19.9855 67.4694C20.0433 67.3374 20.1039 67.2044 20.1672 67.0705C20.261 67.1872 20.3524 67.3 20.4418 67.4092C20.6878 67.7099 20.9185 67.984 21.1411 68.24M34.9119 79.3496C34.3581 79.264 33.8065 79.1645 33.2577 79.0512L34.9119 79.3496ZM33.3863 78.6776C33.9053 78.9359 34.4142 79.1601 34.9119 79.3496L33.3863 78.6776Z" fill="#001E2E"/>
<path fill-rule="evenodd" clip-rule="evenodd" d="M19.5718 72.398C19.3113 71.0952 19.529 69.5599 20.2651 67.8114C20.4665 68.0553 20.6586 68.2823 20.8454 68.4972C23.6199 71.6874 26.3134 74.296 28.8518 76.2456L29.0905 75.9348L28.8518 76.2456C29.9129 77.0608 30.9526 77.7655 31.9636 78.3539C27.5121 77.2387 23.2782 75.2095 19.5718 72.398ZM33.2577 79.0512C28.2003 78.0081 23.3771 75.8035 19.219 72.6219C18.8796 71.1372 19.1375 69.4052 19.9855 67.4694C20.0433 67.3374 20.1039 67.2044 20.1672 67.0705C20.261 67.1872 20.3524 67.3 20.4418 67.4092C20.6878 67.7099 20.9185 67.984 21.1411 68.24M34.9119 79.3496C34.3581 79.264 33.8065 79.1645 33.2577 79.0512L34.9119 79.3496ZM33.3863 78.6776C33.9053 78.9359 34.4142 79.1601 34.9119 79.3496L33.3863 78.6776Z" fill="#001E2E"/>
<path d="M26.6904 58.4414C21.2147 54.256 15.5745 51.6745 11.8072 50.2454C10.255 44.6765 9.57124 39.3263 9.27098 35.8186C8.9462 32.0249 8.98783 29.5026 8.9883 29.4774C9.01311 29.4906 11.5089 30.8353 15.0237 33.1364C18.273 35.2641 23.0894 38.6716 27.5822 42.8229C26.2459 48.3317 25.9481 53.5843 26.6971 58.4346L26.6904 58.4414Z" fill="#001E2E" fill-opacity="0.2"/>
<path fill-rule="evenodd" clip-rule="evenodd" d="M12.1319 49.9498C10.6257 44.4808 9.95703 39.2384 9.66143 35.7852L9.27102 35.8186L9.66143 35.7852C9.49978 33.897 9.42936 32.3256 9.3994 31.2241C9.38749 30.7859 9.38198 30.4222 9.37967 30.1425C9.66127 30.3013 10.0393 30.5174 10.499 30.787C11.5608 31.4097 13.0578 32.3178 14.809 33.4643C18.0077 35.5588 22.7249 38.8945 27.1474 42.9552C25.9293 48.0778 25.6023 52.9884 26.18 57.5685C20.9937 53.7481 15.7462 51.3346 12.1319 49.9498ZM26.2528 58.1106C20.9158 54.1194 15.4743 51.6364 11.8072 50.2454C10.255 44.6765 9.57124 39.3263 9.27098 35.8186C9.02536 32.9495 8.9893 30.8076 8.98652 29.9231C8.98562 29.638 8.98818 29.4835 8.9883 29.4774C8.99399 29.4804 9.12988 29.5536 9.3784 29.6924C10.2126 30.1583 12.3157 31.3635 15.0237 33.1364C18.273 35.2641 23.0894 38.6716 27.5822 42.8229C26.2953 48.128 25.9715 53.1955 26.6183 57.8949C26.643 58.0748 26.6692 58.2541 26.6968 58.4329C26.6969 58.4335 26.697 58.434 26.6971 58.4346L26.6904 58.4414C26.6883 58.4398 26.6862 58.4382 26.6841 58.4366C26.5404 58.3268 26.3966 58.2182 26.2528 58.1106Z" fill="#001E2E"/>
<path d="M26.6904 58.4414C21.2148 54.256 15.5746 51.6745 11.8072 50.2454C10.2551 44.6765 9.57131 39.3263 9.27104 35.8186C8.94566 32.0181 8.98789 29.5026 8.98836 29.4774C9.01309 29.4906 11.5032 30.8315 15.0237 33.1364C18.273 35.2641 23.0894 38.6716 27.5822 42.8229C26.2459 48.3321 25.9481 53.5847 26.6971 58.4346L26.6904 58.4414Z" fill="#001E2E" fill-opacity="0.2"/>
<path fill-rule="evenodd" clip-rule="evenodd" d="M12.132 49.9498C10.6258 44.4808 9.95709 39.2384 9.66149 35.7852L9.3263 35.8138L9.66149 35.7852C9.49954 33.8935 9.42912 32.3222 9.39924 31.2216C9.38737 30.7843 9.3819 30.4215 9.37963 30.1424C9.66072 30.3008 10.038 30.5164 10.4969 30.7856C11.5579 31.4078 13.055 32.3159 14.8091 33.4643C18.0077 35.5587 22.7249 38.8945 27.1474 42.9552C25.9293 48.0781 25.6024 52.9887 26.18 57.5685C20.9937 53.7481 15.7462 51.3346 12.132 49.9498ZM26.2529 58.1106C20.9159 54.1194 15.4743 51.6364 11.8072 50.2454C10.2551 44.6765 9.57131 39.3263 9.27104 35.8186C9.02505 32.9453 8.98917 30.8065 8.9865 29.923C8.98564 29.6379 8.98824 29.4836 8.98836 29.4774C8.99404 29.4805 9.12986 29.5536 9.37842 29.6924C10.2117 30.1577 12.3121 31.3611 15.0237 33.1364C18.273 35.2641 23.0894 38.6716 27.5822 42.8229C26.2953 48.1284 25.9716 53.1959 26.6183 57.8949C26.6431 58.0748 26.6693 58.2541 26.6969 58.4329C26.697 58.4335 26.6971 58.434 26.6971 58.4346L26.6904 58.4414C26.6883 58.4398 26.6862 58.4382 26.6841 58.4366C26.5405 58.3268 26.3967 58.2182 26.2529 58.1106Z" fill="#001E2E"/>
<path d="M26.6904 58.4414C21.2148 54.256 15.5746 51.6745 11.8072 50.2454C10.2551 44.6765 9.57131 39.3263 9.27104 35.8186C8.94566 32.0181 8.98789 29.5026 8.98836 29.4774C9.01309 29.4906 11.5032 30.8315 15.0237 33.1364C18.273 35.2641 23.0894 38.6716 27.5822 42.8229C26.2459 48.3321 25.9481 53.5847 26.6971 58.4346L26.6904 58.4414Z" fill="#001E2E" fill-opacity="0.2"/>
<path fill-rule="evenodd" clip-rule="evenodd" d="M12.132 49.9498C10.6258 44.4808 9.95709 39.2384 9.66149 35.7852L9.3263 35.8138L9.66149 35.7852C9.49954 33.8935 9.42912 32.3222 9.39924 31.2216C9.38737 30.7843 9.3819 30.4215 9.37963 30.1424C9.66072 30.3008 10.038 30.5164 10.4969 30.7856C11.5579 31.4078 13.055 32.3159 14.8091 33.4643C18.0077 35.5587 22.7249 38.8945 27.1474 42.9552C25.9293 48.0781 25.6024 52.9887 26.18 57.5685C20.9937 53.7481 15.7462 51.3346 12.132 49.9498ZM26.2529 58.1106C20.9159 54.1194 15.4743 51.6364 11.8072 50.2454C10.2551 44.6765 9.57131 39.3263 9.27104 35.8186C9.02505 32.9453 8.98917 30.8065 8.9865 29.923C8.98564 29.6379 8.98824 29.4836 8.98836 29.4774C8.99404 29.4805 9.12986 29.5536 9.37842 29.6924C10.2117 30.1577 12.3121 31.3611 15.0237 33.1364C18.273 35.2641 23.0894 38.6716 27.5822 42.8229C26.2953 48.1284 25.9716 53.1959 26.6183 57.8949C26.6431 58.0748 26.6693 58.2541 26.6969 58.4329C26.697 58.4335 26.6971 58.434 26.6971 58.4346L26.6904 58.4414C26.6883 58.4398 26.6862 58.4382 26.6841 58.4366C26.5405 58.3268 26.3967 58.2182 26.2529 58.1106Z" fill="#001E2E"/>
<path d="M26.6973 58.4346C25.8748 53.1082 26.3779 47.7887 27.5824 42.8229C18.885 34.7867 8.98858 29.4774 8.98858 29.4774C8.98858 29.4774 8.80273 39.4644 11.8075 50.2454C15.8448 51.7768 21.3461 54.3566 26.6906 58.4414C26.6929 58.4393 26.6951 58.4371 26.6973 58.4346Z" fill="#001E2E" fill-opacity="0.2"/>
<path fill-rule="evenodd" clip-rule="evenodd" d="M8.98645 29.9227C8.98571 29.6317 8.98858 29.4774 8.98858 29.4774C8.98858 29.4774 9.1245 29.5503 9.37849 29.692C11.2917 30.7593 19.9043 35.7285 27.5824 42.8229C26.4186 47.621 25.9096 52.7492 26.6185 57.8948C26.6432 58.0742 26.6694 58.2536 26.6971 58.4329C26.6972 58.4335 26.6972 58.434 26.6973 58.4346C26.6951 58.4371 26.6929 58.4393 26.6906 58.4414L26.6906 58.4414C26.6885 58.4398 26.6864 58.4382 26.6843 58.4366C26.5407 58.3268 26.3969 58.2182 26.253 58.1106C21.0471 54.2167 15.7347 51.735 11.8075 50.2454C9.17624 40.8045 8.99168 31.9726 8.98645 29.9227ZM9.37948 30.1418C9.65529 30.2972 10.0241 30.5078 10.4727 30.7707C11.5316 31.3912 13.0349 32.3026 14.8093 33.4645C18.3134 35.7589 22.8688 39.026 27.1476 42.9552C26.0415 47.6065 25.5488 52.5717 26.1801 57.5683C21.1178 53.838 15.9858 51.4258 12.1322 49.9498C10.6745 44.6579 9.98559 39.5682 9.6617 35.7851C9.49788 33.8716 9.42758 32.294 9.39823 31.1959C9.38683 30.7693 9.38161 30.4152 9.37948 30.1418Z" fill="#001E2E"/>
<path d="M26.6895 58.4443L26.6924 58.4415L26.6958 58.4492L26.6895 58.4443Z" fill="#001E2E" fill-opacity="0.2"/>
<path fill-rule="evenodd" clip-rule="evenodd" d="M26.6958 58.4492L26.6924 58.4415L26.6895 58.4443L26.6958 58.4492Z" fill="#001E2E"/>
<path d="M26.6895 58.4443L26.6924 58.4415L26.6958 58.4492L26.6895 58.4443Z" fill="#001E2E" fill-opacity="0.2"/>
<path fill-rule="evenodd" clip-rule="evenodd" d="M26.6958 58.4492L26.6924 58.4415L26.6895 58.4443L26.6958 58.4492Z" fill="#001E2E"/>
<path d="M26.6895 58.4443L26.6924 58.4415L26.6958 58.4492L26.6895 58.4443Z" fill="#001E2E" fill-opacity="0.2"/>
<path fill-rule="evenodd" clip-rule="evenodd" d="M26.6958 58.4492L26.6924 58.4415L26.6895 58.4443L26.6958 58.4492Z" fill="#001E2E"/>
<path d="M26.6895 58.4432C26.6921 58.4454 26.6947 58.4473 26.6973 58.4492C26.6967 58.4454 26.696 58.4413 26.6954 58.4371C26.6935 58.4394 26.6915 58.4413 26.6895 58.4432Z" fill="#001E2E" fill-opacity="0.2"/>
<path fill-rule="evenodd" clip-rule="evenodd" d="M26.6895 58.4432C26.6921 58.4454 26.6947 58.4473 26.6973 58.4492C26.6967 58.4454 26.696 58.4413 26.6954 58.4371C26.6935 58.4394 26.6915 58.4413 26.6895 58.4432L26.6895 58.4432Z" fill="#001E2E"/>
<path d="M54.0944 58.4346C54.8431 53.5843 54.5456 48.3317 53.209 42.8225C57.7019 38.6712 62.5183 35.2637 65.7674 33.136C69.2825 30.8349 71.7782 29.4902 71.8029 29.477C71.8033 29.5021 71.8451 32.0249 71.5203 35.8182C71.2202 39.3259 70.5361 44.6761 68.9841 50.245C65.2166 51.674 59.5765 54.256 54.1008 58.4414L54.0944 58.4346Z" fill="#001E2E" fill-opacity="0.2"/>
<path fill-rule="evenodd" clip-rule="evenodd" d="M54.0944 58.4346C54.0944 58.4342 54.0945 58.4337 54.0946 58.4333C54.1222 58.2543 54.1484 58.0747 54.1732 57.8946C54.8197 53.1953 54.4961 48.1279 53.209 42.8225C57.7019 38.6712 62.5183 35.2637 65.7674 33.136C68.4756 31.3632 70.5786 30.158 71.4128 29.6921C71.6613 29.5532 71.7972 29.48 71.8029 29.477C71.803 29.4831 71.8056 29.6376 71.8047 29.9227C71.8019 30.8073 71.7659 32.9494 71.5203 35.8182C71.2202 39.3259 70.5361 44.6761 68.9841 50.245C65.3169 51.636 59.8757 54.1193 54.5387 58.1103C54.3947 58.218 54.2509 58.3267 54.1071 58.4366C54.105 58.4382 54.1029 58.4398 54.1008 58.4414L54.0944 58.4346ZM54.6115 57.5683C55.1889 52.9882 54.8621 48.0777 53.6438 42.9548C58.0664 38.894 62.7837 35.5583 65.9821 33.4639C67.7334 32.3174 69.2306 31.4093 70.2923 30.7866C70.752 30.517 71.1299 30.3009 71.4115 30.1422C71.4034 31.1247 71.3558 33.145 71.1298 35.7847L71.1298 35.7848C70.8344 39.2379 70.1655 44.4804 68.6594 49.9494C65.045 51.3342 59.7977 53.748 54.6115 57.5683Z" fill="#001E2E"/>
<path d="M54.0944 58.4346C54.8431 53.5843 54.5456 48.3317 53.209 42.8225C57.7019 38.6712 62.5183 35.2637 65.7674 33.136C69.2881 30.8311 71.7782 29.4902 71.8029 29.477C71.8033 29.5021 71.8455 32.0176 71.5203 35.8182C71.2202 39.3259 70.5361 44.6761 68.9841 50.245C65.2166 51.674 59.5765 54.256 54.1008 58.4414L54.0944 58.4346Z" fill="#001E2E" fill-opacity="0.2"/>
<path fill-rule="evenodd" clip-rule="evenodd" d="M54.0944 58.4346C54.0944 58.4342 54.0945 58.4337 54.0946 58.4333C54.1222 58.2543 54.1484 58.0747 54.1732 57.8946C54.8197 53.1953 54.4961 48.1279 53.209 42.8225C57.7019 38.6712 62.5183 35.2637 65.7674 33.136C68.4791 31.3607 70.5795 30.1573 71.4128 29.692C71.6614 29.5532 71.7972 29.48 71.8029 29.477C71.803 29.4831 71.8056 29.6375 71.8047 29.9226C71.802 30.8061 71.7661 32.9449 71.5203 35.8182C71.2202 39.3259 70.5361 44.6761 68.9841 50.245C65.3169 51.636 59.8757 54.1193 54.5387 58.1103C54.3947 58.218 54.2509 58.3267 54.1071 58.4366C54.105 58.4382 54.1029 58.4398 54.1008 58.4414L54.0944 58.4346ZM54.6115 57.5683C55.1889 52.9882 54.8621 48.0777 53.6438 42.9548C58.0664 38.894 62.7837 35.5583 65.9821 33.4639C67.7362 32.3154 69.2333 31.4074 70.2944 30.7851C70.7533 30.516 71.1305 30.3004 71.4116 30.142C71.4036 31.1233 71.356 33.1411 71.1298 35.7847L71.481 35.8148L71.1298 35.7848C70.8344 39.2379 70.1655 44.4804 68.6594 49.9494C65.045 51.3342 59.7977 53.748 54.6115 57.5683Z" fill="#001E2E"/>
<path d="M54.0944 58.4346C54.8431 53.5843 54.5456 48.3317 53.209 42.8225C57.7019 38.6712 62.5183 35.2637 65.7674 33.136C69.2881 30.8311 71.7782 29.4902 71.8029 29.477C71.8033 29.5021 71.8455 32.0176 71.5203 35.8182C71.2202 39.3259 70.5361 44.6761 68.9841 50.245C65.2166 51.674 59.5765 54.256 54.1008 58.4414L54.0944 58.4346Z" fill="#001E2E" fill-opacity="0.2"/>
<path fill-rule="evenodd" clip-rule="evenodd" d="M54.0944 58.4346C54.0944 58.4342 54.0945 58.4337 54.0946 58.4333C54.1222 58.2543 54.1484 58.0747 54.1732 57.8946C54.8197 53.1953 54.4961 48.1279 53.209 42.8225C57.7019 38.6712 62.5183 35.2637 65.7674 33.136C68.4791 31.3607 70.5795 30.1573 71.4128 29.692C71.6614 29.5532 71.7972 29.48 71.8029 29.477C71.803 29.4831 71.8056 29.6375 71.8047 29.9226C71.802 30.8061 71.7661 32.9449 71.5203 35.8182C71.2202 39.3259 70.5361 44.6761 68.9841 50.245C65.3169 51.636 59.8757 54.1193 54.5387 58.1103C54.3947 58.218 54.2509 58.3267 54.1071 58.4366C54.105 58.4382 54.1029 58.4398 54.1008 58.4414L54.0944 58.4346ZM54.6115 57.5683C55.1889 52.9882 54.8621 48.0777 53.6438 42.9548C58.0664 38.894 62.7837 35.5583 65.9821 33.4639C67.7362 32.3154 69.2333 31.4074 70.2944 30.7851C70.7533 30.516 71.1305 30.3004 71.4116 30.142C71.4036 31.1233 71.356 33.1411 71.1298 35.7847L71.481 35.8148L71.1298 35.7848C70.8344 39.2379 70.1655 44.4804 68.6594 49.9494C65.045 51.3342 59.7977 53.748 54.6115 57.5683Z" fill="#001E2E"/>
<path d="M54.0944 58.4346C54.0965 58.4367 54.0986 58.4388 54.1008 58.4414C59.4454 54.3562 64.9467 51.7763 68.9841 50.245C71.9889 39.464 71.8029 29.477 71.8029 29.477C71.8029 29.477 61.9066 34.7863 53.209 42.8225C54.4136 47.7883 54.9168 53.1078 54.0944 58.4346Z" fill="#001E2E" fill-opacity="0.2"/>
<path fill-rule="evenodd" clip-rule="evenodd" d="M71.805 29.9223C71.8058 29.6313 71.8029 29.477 71.8029 29.477C71.8029 29.477 71.667 29.5499 71.413 29.6916C69.4998 30.7589 60.8873 35.7281 53.209 42.8225C54.3729 47.6205 54.8819 52.7487 54.1732 57.8946C54.1485 58.0741 54.1223 58.2537 54.0946 58.4333C54.0945 58.4337 54.0944 58.4342 54.0944 58.4346L54.0944 58.4346C54.0965 58.4367 54.0986 58.4389 54.1008 58.4414C54.1008 58.4414 54.1008 58.4414 54.1008 58.4414C54.1029 58.4398 54.105 58.4382 54.1071 58.4366C54.2509 58.3267 54.3947 58.2179 54.5387 58.1103C59.7446 54.2161 65.0569 51.7345 68.9841 50.245C71.6154 40.8041 71.7999 31.9722 71.805 29.9223ZM71.412 30.1414C71.4099 30.4148 71.4047 30.7689 71.3933 31.1954C71.3639 32.2936 71.2937 33.8711 71.1299 35.7847C70.806 39.5678 70.1171 44.6574 68.6594 49.9493C64.8058 51.4253 59.6739 53.8375 54.6116 57.568C55.2427 52.5711 54.75 47.606 53.6438 42.9548C57.9227 39.0256 62.4781 35.7585 65.9822 33.464C67.7567 32.3022 69.2599 31.3908 70.3188 30.7702C70.7674 30.5074 71.1362 30.2967 71.412 30.1414Z" fill="#001E2E"/>
<path d="M54.095 58.4405L54.1002 58.4444L54.0938 58.4492L54.095 58.4405Z" fill="#001E2E" fill-opacity="0.2"/>
<path fill-rule="evenodd" clip-rule="evenodd" d="M54.1002 58.4444L54.0938 58.4492L54.095 58.4405L54.1002 58.4444Z" fill="#001E2E"/>
<path d="M54.095 58.4405L54.1002 58.4444L54.0938 58.4492L54.095 58.4405Z" fill="#001E2E" fill-opacity="0.2"/>
<path fill-rule="evenodd" clip-rule="evenodd" d="M54.1002 58.4444L54.0938 58.4492L54.095 58.4405L54.1002 58.4444Z" fill="#001E2E"/>
<path d="M54.095 58.4405L54.1002 58.4444L54.0938 58.4492L54.095 58.4405Z" fill="#001E2E" fill-opacity="0.2"/>
<path fill-rule="evenodd" clip-rule="evenodd" d="M54.1002 58.4444L54.0938 58.4492L54.095 58.4405L54.1002 58.4444Z" fill="#001E2E"/>
<path d="M54.0938 58.4492C54.0964 58.4473 54.0986 58.4455 54.1013 58.4436C54.0994 58.4413 54.0975 58.4394 54.0956 58.4376C54.0949 58.4413 54.0941 58.4455 54.0938 58.4492Z" fill="#001E2E" fill-opacity="0.2"/>
<path fill-rule="evenodd" clip-rule="evenodd" d="M54.1013 58.4436C54.0999 58.4445 54.0987 58.4455 54.0975 58.4464C54.0963 58.4473 54.0951 58.4483 54.0938 58.4492C54.0941 58.4455 54.0949 58.4413 54.0956 58.4376L54.0956 58.4376C54.0975 58.4395 54.0994 58.4413 54.1013 58.4436Z" fill="#001E2E"/>
<path d="M39.7456 79.757C39.6912 79.7565 39.6367 79.7561 39.5822 79.7553C38.0255 79.725 36.6235 79.6116 35.2962 79.4092C35.1674 79.39 35.039 79.37 34.9107 79.3499C33.1006 78.6607 31.142 77.5121 29.0893 75.9356C26.577 74.0057 23.9024 71.4169 21.1399 68.2403C20.8361 67.8908 20.5175 67.5085 20.166 67.0708C21.3669 64.531 23.5614 61.6277 26.6887 58.4413L26.6974 58.4481C26.7842 59.0086 26.866 59.4749 26.955 59.916C28.4616 67.3845 30.8178 72.9001 33.9583 76.3093C36.4351 78.9983 38.7134 79.624 39.8508 79.7578L39.7456 79.757Z" fill="#001E2E" fill-opacity="0.6"/>
<path fill-rule="evenodd" clip-rule="evenodd" d="M38.0294 79.6944C37.071 79.6366 36.1675 79.5421 35.2962 79.4092C35.1674 79.39 35.039 79.37 34.9107 79.3499C33.1006 78.6607 31.142 77.5121 29.0893 75.9356C26.577 74.0057 23.9024 71.4169 21.1399 68.2403C20.8361 67.8908 20.5175 67.5085 20.166 67.0708C21.3235 64.6226 23.4043 61.8367 26.3539 58.785C26.4612 58.674 26.5696 58.5627 26.6792 58.451C26.6824 58.4477 26.6855 58.4445 26.6887 58.4413L26.6974 58.4481C26.6975 58.4488 26.6976 58.4495 26.6978 58.4502C26.723 58.613 26.7477 58.7678 26.7724 58.9163C26.8325 59.2785 26.892 59.6036 26.955 59.916C28.4616 67.3845 30.8178 72.9001 33.9583 76.3093C35.495 77.9776 36.9552 78.8517 38.114 79.3069C38.6861 79.5316 39.1847 79.6542 39.5828 79.7199C39.5827 79.7198 39.5828 79.7199 39.5828 79.7199C39.6391 79.7291 39.6935 79.7373 39.7457 79.7444M39.5822 79.7553C39.6366 79.7561 39.6911 79.7565 39.7455 79.757L39.8508 79.7578C39.8168 79.7538 39.7818 79.7494 39.7457 79.7444M36.9996 79.2227C36.4351 79.17 35.8888 79.1031 35.3553 79.0218L35.3539 79.0216C35.2402 79.0046 35.1266 78.987 35.012 78.9691C33.2576 78.2955 31.3453 77.1741 29.3281 75.6248C26.8419 73.715 24.1862 71.146 21.4357 67.9832C21.1808 67.6901 20.9149 67.3729 20.6267 67.0177C21.7512 64.731 23.6961 62.1272 26.4345 59.2665C26.479 59.5217 26.5239 59.7608 26.5709 59.9935C28.0834 67.4917 30.4591 73.089 33.6701 76.5748C34.8502 77.8561 35.9921 78.6863 36.9996 79.2227ZM39.5822 79.7553C39.0474 79.7449 38.5309 79.7247 38.0294 79.6944L39.5822 79.7553Z" fill="#001E2E"/>
<path d="M39.7456 79.757C39.6912 79.7565 39.6367 79.7561 39.5822 79.7553C38.0255 79.725 36.6235 79.6116 35.2962 79.4092C35.1674 79.39 35.039 79.37 34.9107 79.3499C33.1005 78.6607 31.1419 77.5121 29.0893 75.9356C26.5771 74.0057 23.9025 71.4169 21.1399 68.2403C20.8364 67.8913 20.5178 67.5085 20.166 67.0708C21.3669 64.531 23.5614 61.6277 26.6887 58.4413L26.6974 58.4481C26.7842 59.0086 26.8661 59.4749 26.955 59.916C28.4616 67.3845 30.8178 72.9001 33.9583 76.3093C36.4351 78.9983 38.7134 79.624 39.8508 79.7578L39.7456 79.757Z" fill="#001E2E" fill-opacity="0.6"/>
<path fill-rule="evenodd" clip-rule="evenodd" d="M38.0294 79.6944C37.071 79.6366 36.1675 79.5421 35.2962 79.4092C35.1674 79.39 35.039 79.37 34.9107 79.3499C33.1005 78.6607 31.1419 77.5121 29.0893 75.9356C26.5771 74.0057 23.9025 71.4169 21.1399 68.2403C20.8364 67.8913 20.5178 67.5085 20.166 67.0708C21.3235 64.6226 23.4044 61.8367 26.3539 58.785C26.4612 58.674 26.5696 58.5627 26.6792 58.451C26.6824 58.4477 26.6855 58.4445 26.6887 58.4413L26.6974 58.4481C26.6975 58.4488 26.6976 58.4495 26.6978 58.4502C26.723 58.613 26.7478 58.7678 26.7724 58.9163C26.8326 59.2785 26.892 59.6036 26.955 59.916C28.4616 67.3845 30.8178 72.9001 33.9583 76.3093C35.495 77.9776 36.9552 78.8517 38.114 79.3069C38.6861 79.5316 39.1847 79.6542 39.5828 79.7199C39.5827 79.7198 39.5828 79.7199 39.5828 79.7199C39.6391 79.7291 39.6935 79.7373 39.7457 79.7444M39.5822 79.7553C39.6366 79.7561 39.6911 79.7565 39.7455 79.757L39.8508 79.7578C39.8168 79.7538 39.7818 79.7494 39.7457 79.7444M36.9996 79.2227C36.4351 79.17 35.8888 79.1031 35.3553 79.0218L35.3539 79.0216C35.2402 79.0046 35.1266 78.987 35.012 78.9691C33.2575 78.2955 31.3453 77.1742 29.3281 75.6248C26.842 73.715 24.1863 71.146 21.4356 67.9832C21.1811 67.6905 20.9152 67.373 20.6267 67.0176C21.7512 64.7309 23.6962 62.1271 26.4345 59.2665C26.4791 59.5217 26.524 59.7608 26.5708 59.9934C28.0834 67.4917 30.4591 73.089 33.6701 76.5748C34.8502 77.8561 35.9921 78.6863 36.9996 79.2227ZM39.5822 79.7553C39.0474 79.7449 38.5309 79.7247 38.0294 79.6944L39.5822 79.7553Z" fill="#001E2E"/>
<path d="M39.7456 79.757C39.6912 79.7565 39.6367 79.7561 39.5822 79.7553C38.0255 79.725 36.6235 79.6116 35.2962 79.4092C35.1674 79.39 35.039 79.37 34.9107 79.3499C33.1005 78.6607 31.1419 77.5121 29.0893 75.9356C26.5771 74.0057 23.9025 71.4169 21.1399 68.2403C20.8364 67.8913 20.5178 67.5085 20.166 67.0708C21.3669 64.531 23.5614 61.6277 26.6887 58.4413L26.6974 58.4481C26.7842 59.0086 26.8661 59.4749 26.955 59.916C28.4616 67.3845 30.8178 72.9001 33.9583 76.3093C36.4351 78.9983 38.7134 79.624 39.8508 79.7578L39.7456 79.757Z" fill="#001E2E" fill-opacity="0.6"/>
<path fill-rule="evenodd" clip-rule="evenodd" d="M38.0294 79.6944C37.071 79.6366 36.1675 79.5421 35.2962 79.4092C35.1674 79.39 35.039 79.37 34.9107 79.3499C33.1005 78.6607 31.1419 77.5121 29.0893 75.9356C26.5771 74.0057 23.9025 71.4169 21.1399 68.2403C20.8364 67.8913 20.5178 67.5085 20.166 67.0708C21.3235 64.6226 23.4044 61.8367 26.3539 58.785C26.4612 58.674 26.5696 58.5627 26.6792 58.451C26.6824 58.4477 26.6855 58.4445 26.6887 58.4413L26.6974 58.4481C26.6975 58.4488 26.6976 58.4495 26.6978 58.4502C26.723 58.613 26.7478 58.7678 26.7724 58.9163C26.8326 59.2785 26.892 59.6036 26.955 59.916C28.4616 67.3845 30.8178 72.9001 33.9583 76.3093C35.495 77.9776 36.9552 78.8517 38.114 79.3069C38.6861 79.5316 39.1847 79.6542 39.5828 79.7199C39.5827 79.7198 39.5828 79.7199 39.5828 79.7199C39.6391 79.7291 39.6935 79.7373 39.7457 79.7444M39.5822 79.7553C39.6366 79.7561 39.6911 79.7565 39.7455 79.757L39.8508 79.7578C39.8168 79.7538 39.7818 79.7494 39.7457 79.7444M36.9996 79.2227C36.4351 79.17 35.8888 79.1031 35.3553 79.0218L35.3539 79.0216C35.2402 79.0046 35.1266 78.987 35.012 78.9691C33.2575 78.2955 31.3453 77.1742 29.3281 75.6248C26.842 73.715 24.1863 71.146 21.4356 67.9832C21.1811 67.6905 20.9152 67.373 20.6267 67.0176C21.7512 64.7309 23.6962 62.1271 26.4345 59.2665C26.4791 59.5217 26.524 59.7608 26.5708 59.9934C28.0834 67.4917 30.4591 73.089 33.6701 76.5748C34.8502 77.8561 35.9921 78.6863 36.9996 79.2227ZM39.5822 79.7553C39.0474 79.7449 38.5309 79.7247 38.0294 79.6944L39.5822 79.7553Z" fill="#001E2E"/>
<path fill-rule="evenodd" clip-rule="evenodd" d="M26.5708 59.9934L26.5708 59.9935C28.3451 68.7892 31.0802 73.7635 33.6701 76.575C34.8547 77.861 36.0049 78.69 37.0107 79.2237C36.4573 79.1723 35.9058 79.1058 35.3553 79.0218L35.3539 79.0216C35.2402 79.0046 35.1266 78.987 35.012 78.9691C31.9152 77.7801 27.4026 74.8443 21.4357 67.9832C21.1593 67.6653 20.8908 67.343 20.6267 67.0176C21.8735 64.4817 24.0015 61.8078 26.4345 59.2664C26.4768 59.5083 26.5219 59.7507 26.5708 59.9934ZM26.7724 58.9162C26.7466 58.7609 26.7218 58.6056 26.6978 58.4503C26.6977 58.4496 26.6975 58.4489 26.6974 58.4481C26.6945 58.446 26.6916 58.4439 26.6886 58.4413C26.6855 58.4445 26.6823 58.4478 26.6791 58.451C26.5702 58.562 26.4618 58.6733 26.3539 58.785C23.7545 61.4742 21.4554 64.3436 20.166 67.0708C20.4822 67.4642 20.805 67.855 21.1399 68.2403C27.1562 75.1581 31.7318 78.1395 34.9107 79.3499C35.039 79.37 35.1674 79.39 35.2962 79.4092C36.2087 79.5485 37.1229 79.64 38.0417 79.6951C38.5534 79.7258 39.0666 79.7452 39.5818 79.7553C39.6414 79.7561 39.7013 79.7566 39.7612 79.7571C39.791 79.7573 39.8209 79.7575 39.8508 79.7578C39.7695 79.7483 39.6798 79.7358 39.5825 79.7195C39.5824 79.7195 39.5823 79.7195 39.5823 79.7195C39.203 79.6561 38.7065 79.5355 38.1262 79.3075C35.1014 78.1195 29.7993 74.0166 26.955 59.916C26.8878 59.5828 26.8278 59.2495 26.7724 58.9162Z" fill="#001E2E"/>
<path d="M40.9434 79.7578C42.0807 79.624 44.3589 78.9983 46.8358 76.3093C49.9764 72.9001 52.3325 67.3845 53.8393 59.916C53.9283 59.474 54.01 59.0078 54.0968 58.4481L54.1054 58.4413C57.2327 61.6277 59.4275 64.531 60.6283 67.0708C60.2762 67.5085 59.9578 67.8913 59.6543 68.2403C56.8918 71.4169 54.2173 74.0057 51.705 75.9356C49.6521 77.5121 47.6936 78.6607 45.8836 79.3499C45.7551 79.37 45.627 79.39 45.498 79.4092C44.1708 79.6116 42.7686 79.725 41.212 79.7553C41.1579 79.7561 41.103 79.7565 41.0485 79.757L40.9434 79.7578Z" fill="#001E2E" fill-opacity="0.6"/>
<path fill-rule="evenodd" clip-rule="evenodd" d="M42.6802 79.3069C43.8389 78.8517 45.2991 77.9776 46.8358 76.3093C49.9764 72.9001 52.3325 67.3845 53.8393 59.916C53.9023 59.6032 53.9616 59.2781 54.0217 58.9165C54.0465 58.7677 54.0713 58.6128 54.0966 58.45C54.0967 58.4493 54.0968 58.4487 54.0968 58.4481L54.1054 58.4413C54.1085 58.4445 54.1116 58.4477 54.1148 58.4509C54.2244 58.5627 54.3329 58.6741 54.4403 58.7852C57.3898 61.8368 59.4708 64.6227 60.6283 67.0708C60.2762 67.5085 59.9578 67.8913 59.6543 68.2403C56.8918 71.4169 54.2173 74.0057 51.705 75.9356C49.6521 77.5121 47.6936 78.6607 45.8836 79.3499L45.859 79.3538C45.7387 79.3725 45.6187 79.3912 45.498 79.4092C44.6267 79.5421 43.7231 79.6366 42.7647 79.6944C42.2632 79.7247 41.7467 79.7449 41.212 79.7553C41.1584 79.7561 41.1039 79.7565 41.0499 79.7569L40.9434 79.7578C40.9774 79.7538 41.0124 79.7494 41.0484 79.7444C41.0484 79.7444 41.0484 79.7444 41.0484 79.7444C41.1006 79.7373 41.1549 79.7292 41.2113 79.7199C41.2112 79.7199 41.2113 79.7199 41.2113 79.7199C41.6093 79.6542 42.1081 79.5316 42.6802 79.3069ZM43.7945 79.2227C44.802 78.6863 45.9439 77.8561 47.1241 76.5749C50.3351 73.0891 52.7106 67.4917 54.2235 59.9935C54.2703 59.7607 54.3152 59.5215 54.3596 59.2666C57.098 62.1272 59.043 64.7309 60.1675 67.0175C59.8789 67.3731 59.6131 67.6905 59.3586 67.9832C56.608 71.146 53.9524 73.715 51.4663 75.6248C49.4487 77.1742 47.5366 78.2955 45.7824 78.9691C45.6675 78.987 45.5542 79.0046 45.4403 79.0216L45.4389 79.0218C44.9054 79.1032 44.3591 79.17 43.7945 79.2227Z" fill="#001E2E"/>
<path d="M40.9434 79.7578C42.0807 79.624 44.3589 78.9983 46.8358 76.3093C49.9764 72.9001 52.3325 67.3845 53.8393 59.916C53.9283 59.4745 54.01 59.0082 54.0968 58.4481L54.1054 58.4413C57.2327 61.6277 59.4275 64.531 60.6283 67.0708C60.2762 67.5085 59.9578 67.8913 59.6543 68.2403C56.8918 71.4169 54.2169 74.0057 51.705 75.9356C49.6521 77.5121 47.6936 78.6607 45.8836 79.3499C45.7551 79.37 45.627 79.39 45.498 79.4092C44.1708 79.6116 42.7686 79.725 41.212 79.7553C41.1579 79.7561 41.103 79.7565 41.0485 79.757L40.9434 79.7578Z" fill="#001E2E" fill-opacity="0.6"/>
<path fill-rule="evenodd" clip-rule="evenodd" d="M42.6802 79.3069C43.8389 78.8517 45.2991 77.9776 46.8358 76.3093C49.9764 72.9001 52.3325 67.3845 53.8393 59.916C53.9023 59.6034 53.9617 59.2784 54.0218 58.9165C54.0465 58.7678 54.0713 58.6128 54.0966 58.45C54.0967 58.4493 54.0968 58.4487 54.0968 58.4481L54.1054 58.4413C54.1085 58.4445 54.1116 58.4477 54.1148 58.4509C54.2244 58.5627 54.333 58.6741 54.4403 58.7852C57.3899 61.8368 59.4708 64.6227 60.6283 67.0708C60.2762 67.5085 59.9578 67.8913 59.6543 68.2403C56.8918 71.4169 54.2169 74.0057 51.705 75.9356C49.6521 77.5121 47.6936 78.6607 45.8836 79.3499L45.859 79.3538C45.7387 79.3725 45.6187 79.3912 45.498 79.4092C44.6267 79.5421 43.7231 79.6366 42.7647 79.6944C42.2632 79.7247 41.7467 79.7449 41.212 79.7553C41.1584 79.7561 41.1039 79.7565 41.0499 79.7569L40.9434 79.7578C40.9774 79.7538 41.0124 79.7494 41.0484 79.7444C41.0484 79.7444 41.0484 79.7444 41.0484 79.7444C41.1006 79.7373 41.1549 79.7292 41.2113 79.7199C41.2112 79.7199 41.2113 79.7199 41.2113 79.7199C41.6093 79.6542 42.1081 79.5316 42.6802 79.3069ZM43.7945 79.2227C44.802 78.6863 45.9439 77.8561 47.1241 76.5749C50.3351 73.0891 52.7106 67.4917 54.2235 59.9935C54.2703 59.7608 54.3152 59.5216 54.3597 59.2667C57.0981 62.1272 59.0431 64.7309 60.1675 67.0175C59.8789 67.3731 59.6131 67.6905 59.3586 67.9832C56.608 71.146 53.952 73.715 51.4664 75.6247M43.7945 79.2227C44.3591 79.17 44.9054 79.1032 45.4389 79.0218L45.4403 79.0216C45.5542 79.0046 45.6675 78.987 45.7824 78.9691C47.5366 78.2955 49.4488 77.1741 51.4664 75.6247" fill="#001E2E"/>
<path d="M40.9434 79.7578C42.0807 79.624 44.3589 78.9983 46.8358 76.3093C49.9764 72.9001 52.3325 67.3845 53.8393 59.916C53.9283 59.4745 54.01 59.0082 54.0968 58.4481L54.1054 58.4413C57.2327 61.6277 59.4275 64.531 60.6283 67.0708C60.2762 67.5085 59.9578 67.8913 59.6543 68.2403C56.8918 71.4169 54.2169 74.0057 51.705 75.9356C49.6521 77.5121 47.6936 78.6607 45.8836 79.3499C45.7551 79.37 45.627 79.39 45.498 79.4092C44.1708 79.6116 42.7686 79.725 41.212 79.7553C41.1579 79.7561 41.103 79.7565 41.0485 79.757L40.9434 79.7578Z" fill="#001E2E" fill-opacity="0.6"/>
<path fill-rule="evenodd" clip-rule="evenodd" d="M42.6802 79.3069C43.8389 78.8517 45.2991 77.9776 46.8358 76.3093C49.9764 72.9001 52.3325 67.3845 53.8393 59.916C53.9023 59.6034 53.9617 59.2784 54.0218 58.9165C54.0465 58.7678 54.0713 58.6128 54.0966 58.45C54.0967 58.4493 54.0968 58.4487 54.0968 58.4481L54.1054 58.4413C54.1085 58.4445 54.1116 58.4477 54.1148 58.4509C54.2244 58.5627 54.333 58.6741 54.4403 58.7852C57.3899 61.8368 59.4708 64.6227 60.6283 67.0708C60.2762 67.5085 59.9578 67.8913 59.6543 68.2403C56.8918 71.4169 54.2169 74.0057 51.705 75.9356C49.6521 77.5121 47.6936 78.6607 45.8836 79.3499L45.859 79.3538C45.7387 79.3725 45.6187 79.3912 45.498 79.4092C44.6267 79.5421 43.7231 79.6366 42.7647 79.6944C42.2632 79.7247 41.7467 79.7449 41.212 79.7553C41.1584 79.7561 41.1039 79.7565 41.0499 79.7569L40.9434 79.7578C40.9774 79.7538 41.0124 79.7494 41.0484 79.7444C41.0484 79.7444 41.0484 79.7444 41.0484 79.7444C41.1006 79.7373 41.1549 79.7292 41.2113 79.7199C41.2112 79.7199 41.2113 79.7199 41.2113 79.7199C41.6093 79.6542 42.1081 79.5316 42.6802 79.3069ZM43.7945 79.2227C44.802 78.6863 45.9439 77.8561 47.1241 76.5749C50.3351 73.0891 52.7106 67.4917 54.2235 59.9935C54.2703 59.7608 54.3152 59.5216 54.3597 59.2667C57.0981 62.1272 59.0431 64.7309 60.1675 67.0175C59.8789 67.3731 59.6131 67.6905 59.3586 67.9832C56.608 71.146 53.952 73.715 51.4664 75.6247M43.7945 79.2227C44.3591 79.17 44.9054 79.1032 45.4389 79.0218L45.4403 79.0216C45.5542 79.0046 45.6675 78.987 45.7824 78.9691C47.5366 78.2955 49.4488 77.1741 51.4664 75.6247" fill="#001E2E"/>
<path fill-rule="evenodd" clip-rule="evenodd" d="M54.2235 59.9935L54.2235 59.9932C54.2723 59.7506 54.3174 59.5084 54.3596 59.2665C56.7928 61.8079 58.9206 64.4817 60.1675 67.0176C59.9034 67.343 59.635 67.6653 59.3586 67.9832C53.3916 74.8443 48.8791 77.78 45.7824 78.9691C45.6675 78.987 45.5538 79.0046 45.4402 79.0216L45.4388 79.0218C44.8884 79.1058 44.3369 79.1723 43.7835 79.2237C44.7893 78.69 45.9395 77.861 47.1241 76.575C49.714 73.7635 52.4491 68.7892 54.2235 59.9935ZM42.668 79.3075C45.6928 78.1195 50.9948 74.0165 53.8393 59.916C53.9063 59.5828 53.9663 59.2496 54.0218 58.9165C54.0476 58.761 54.0725 58.6055 54.0966 58.45C54.0967 58.4493 54.0968 58.4487 54.0968 58.4481C54.0998 58.446 54.1024 58.4439 54.1054 58.4413C54.1085 58.4445 54.1116 58.4477 54.1148 58.4509C54.2238 58.562 54.3323 58.6734 54.4403 58.7852C57.0399 61.4743 59.3387 64.3437 60.6283 67.0708C60.312 67.4642 59.9893 67.855 59.6543 68.2403C53.638 75.1581 49.0625 78.1395 45.8836 79.3499L45.8832 79.35C45.7548 79.37 45.6264 79.39 45.498 79.4092C44.5855 79.5485 43.6713 79.64 42.7525 79.6951C42.2406 79.7258 41.7272 79.7452 41.212 79.7553C41.1525 79.7561 41.0928 79.7566 41.0331 79.7571C41.0032 79.7573 40.9732 79.7575 40.9434 79.7578C41.0246 79.7483 41.1141 79.7358 41.2113 79.7196C41.2113 79.7196 41.2114 79.7196 41.2114 79.7195C41.5907 79.6562 42.0874 79.5356 42.668 79.3075Z" fill="#001E2E"/>
<path d="M45.7113 51.0195C42.6755 48.611 40.3807 47.0409 40.3581 47.0255C40.3411 47.037 38.6295 48.2078 36.2164 50.0712C35.8113 50.3841 35.4036 50.7029 35.0047 51.0195C32.9418 48.2496 30.4313 45.492 27.543 42.8231C28.3375 39.5472 29.5056 36.155 31.0148 32.7402C32.2222 30.0082 33.6494 27.2557 35.2567 24.5591C37.9936 19.9684 40.3347 17.0945 40.3581 17.0659C40.3815 17.0945 42.7227 19.9684 45.4593 24.5595C47.0666 27.2557 48.4939 30.0082 49.7015 32.7402C51.2109 36.155 52.3789 39.5472 53.1732 42.8231C50.2851 45.492 47.7745 48.2496 45.7113 51.0195Z" fill="#001E2E" fill-opacity="0.2"/>
<path d="M45.7113 51.0195C42.6755 48.611 40.3807 47.0409 40.3581 47.0255C40.3411 47.037 38.6295 48.2078 36.2164 50.0712C35.8113 50.3841 35.4036 50.7029 35.0047 51.0195C32.9418 48.2496 30.4313 45.492 27.543 42.8231C28.3375 39.5472 29.5056 36.155 31.0148 32.7402C32.2222 30.0082 33.6494 27.2557 35.2567 24.5591C37.9936 19.9684 40.3347 17.0945 40.3581 17.0659C40.3815 17.0945 42.7227 19.9684 45.4593 24.5595C47.0666 27.2557 48.4939 30.0082 49.7015 32.7402C51.2109 36.155 52.3789 39.5472 53.1732 42.8231C50.2851 45.492 47.7745 48.2496 45.7113 51.0195Z" fill="#001E2E" fill-opacity="0.2"/>
<path d="M45.7113 51.0195C42.6755 48.611 40.3807 47.0409 40.3581 47.0255C40.3411 47.037 38.6295 48.2078 36.2164 50.0712C35.8113 50.3841 35.4036 50.7029 35.0047 51.0195C32.9418 48.2496 30.4313 45.492 27.543 42.8231C28.3375 39.5472 29.5056 36.155 31.0148 32.7402C32.2222 30.0082 33.6494 27.2557 35.2567 24.5591C37.9936 19.9684 40.3347 17.0945 40.3581 17.0659C40.3815 17.0945 42.7227 19.9684 45.4593 24.5595C47.0666 27.2557 48.4939 30.0082 49.7015 32.7402C51.2109 36.155 52.3789 39.5472 53.1732 42.8231C50.2851 45.492 47.7745 48.2496 45.7113 51.0195Z" fill="#001E2E" fill-opacity="0.2"/>
<path d="M45.7113 51.0195C42.6755 48.611 40.3807 47.0409 40.3581 47.0255C40.3411 47.037 38.6295 48.2078 36.2164 50.0712C35.8113 50.3841 35.4036 50.7029 35.0047 51.0195C32.9418 48.2496 30.4313 45.492 27.543 42.8231C28.3375 39.5472 29.5056 36.155 31.0148 32.7402C32.2222 30.0082 33.6494 27.2557 35.2567 24.5591C37.9936 19.9684 40.3347 17.0945 40.3581 17.0659C40.3815 17.0945 42.7227 19.9684 45.4593 24.5595C47.0666 27.2557 48.4939 30.0082 49.7015 32.7402C51.2109 36.155 52.3789 39.5472 53.1732 42.8231C50.2851 45.492 47.7745 48.2496 45.7113 51.0195Z" fill="#001E2E" fill-opacity="0.2"/>
<path fill-rule="evenodd" clip-rule="evenodd" d="M34.9314 51.5781L35.248 51.3268C35.6453 51.0113 36.0517 50.6936 36.4555 50.3817C37.6581 49.4531 38.6857 48.6972 39.4144 48.1722C39.7788 47.9098 40.0683 47.7051 40.2676 47.5656C40.3 47.5428 40.3301 47.5218 40.3577 47.5026C40.4126 47.5409 40.4773 47.5862 40.5512 47.6382C40.8154 47.8241 41.1976 48.0959 41.6738 48.4423C42.6263 49.1353 43.9545 50.1267 45.4673 51.3269L45.7838 51.578L46.0252 51.254C48.0721 48.5059 50.566 45.766 53.4388 43.1113L53.6079 42.9549L53.5537 42.7311C52.7533 39.4303 51.5773 36.016 50.0595 32.5822C48.8452 29.8349 47.4105 27.0684 45.7955 24.3592C43.0463 19.747 40.6928 16.8569 40.6608 16.8178L40.3577 16.4482L40.0547 16.8178C40.0226 16.8569 37.6691 19.747 34.9197 24.3588L34.9197 24.3588C33.3047 27.0684 31.8701 29.8349 30.656 32.5822C29.1383 36.016 27.9623 39.4303 27.1617 42.7311L27.1074 42.9549L27.2766 43.1113C30.1496 45.766 32.6434 48.5059 34.69 51.254L34.9314 51.5781ZM45.6388 50.4634C42.7514 48.189 40.6053 46.7203 40.5781 46.7018L40.3584 46.5524L40.1383 46.7012C40.1152 46.7168 38.3968 47.8924 35.9764 49.7614L35.9764 49.7614C35.6764 49.9932 35.3748 50.2282 35.0764 50.4633C33.0854 47.8349 30.6993 45.2236 27.978 42.6928C28.7651 39.5108 29.9063 36.2172 31.3728 32.899L31.0144 32.7406L31.3728 32.899C32.5735 30.1822 33.9933 27.4438 35.5929 24.7602C36.9547 22.4759 38.2179 20.6191 39.1429 19.3306C39.6053 18.6864 39.9831 18.1845 40.2462 17.8425C40.2861 17.7907 40.3233 17.7426 40.3577 17.6982C40.3922 17.7426 40.4294 17.7907 40.4692 17.8425C40.7323 18.1845 41.1101 18.6864 41.5725 19.3306C42.4975 20.6192 43.7606 22.4761 45.1223 24.7605L45.4589 24.5599L45.1223 24.7606C46.7219 27.4438 48.1418 30.1822 49.3427 32.899C50.8093 36.2172 51.9505 39.5108 52.7373 42.6928C50.0162 45.2236 47.63 47.8349 45.6388 50.4634Z" fill="#001E2E"/>
<path d="M20.1652 67.0703C16.435 62.4267 13.6221 56.7658 11.8047 50.2448C15.5721 51.6739 21.2124 54.2559 26.6879 58.4408C23.5606 61.6272 21.3661 64.5305 20.1652 67.0703Z" fill="#001E2E" fill-opacity="0.6"/>
<path fill-rule="evenodd" clip-rule="evenodd" d="M11.8047 50.2448C11.9539 50.3014 12.1061 50.3598 12.2611 50.4201C15.9438 51.8518 21.2141 54.3207 26.3731 58.2021C26.4781 58.2811 26.583 58.3607 26.6879 58.4408C26.5952 58.5353 26.5033 58.6295 26.4122 58.7234C23.5873 61.6382 21.5526 64.3116 20.3557 66.6809C20.2896 66.8117 20.2262 66.9415 20.1652 67.0703C20.0744 66.9572 19.9841 66.8435 19.8943 66.7292C16.3875 62.2637 13.7129 56.8805 11.938 50.7153C11.893 50.5589 11.8485 50.4021 11.8047 50.2448ZM20.089 66.3419C16.727 62.0192 14.1413 56.8305 12.3982 50.8947C16.033 52.3288 21.1169 54.7456 26.0974 58.4852C23.3388 61.3359 21.3153 63.9743 20.089 66.3419Z" fill="#001E2E"/>
<path d="M20.1652 67.0703C16.4351 62.4267 13.6222 56.7658 11.8047 50.2448C15.572 51.6739 21.2122 54.2554 26.6879 58.4408C23.5606 61.6272 21.3661 64.5305 20.1652 67.0703Z" fill="#001E2E" fill-opacity="0.6"/>
<path fill-rule="evenodd" clip-rule="evenodd" d="M11.8047 50.2448C11.9539 50.3014 12.1061 50.3598 12.2611 50.4201C15.9437 51.8518 21.214 54.3204 26.3731 58.2021C26.4781 58.2811 26.583 58.3607 26.6879 58.4408C26.5952 58.5353 26.5033 58.6295 26.4122 58.7234C23.5873 61.6382 21.5526 64.3116 20.3557 66.6809C20.2896 66.8117 20.2262 66.9415 20.1652 67.0703C20.0744 66.9572 19.9841 66.8435 19.8943 66.7292C16.3875 62.2637 13.713 56.8805 11.938 50.7153C11.893 50.5589 11.8485 50.4021 11.8047 50.2448ZM20.089 66.3419C16.7271 62.0192 14.1413 56.8305 12.3982 50.8947C16.033 52.3288 21.1168 54.7452 26.0975 58.4852C23.3388 61.3359 21.3153 63.9743 20.089 66.3419Z" fill="#001E2E"/>
<path fill-rule="evenodd" clip-rule="evenodd" d="M11.8047 50.2448C11.9539 50.3014 12.1061 50.3598 12.2611 50.4201C15.9437 51.8518 21.214 54.3204 26.3731 58.2021C26.4781 58.2811 26.583 58.3607 26.6879 58.4408C26.5952 58.5353 26.5033 58.6295 26.4122 58.7234C23.5873 61.6382 21.5526 64.3116 20.3557 66.6809C20.2896 66.8117 20.2262 66.9415 20.1652 67.0703C20.0744 66.9572 19.9841 66.8435 19.8943 66.7292C16.3875 62.2637 13.713 56.8805 11.938 50.7153C11.893 50.5589 11.8485 50.4021 11.8047 50.2448ZM20.089 66.3419C16.7271 62.0192 14.1413 56.8305 12.3982 50.8947C16.033 52.3288 21.1168 54.7452 26.0975 58.4852C23.3388 61.3359 21.3153 63.9743 20.089 66.3419Z" fill="#001E2E"/>
<path fill-rule="evenodd" clip-rule="evenodd" d="M26.6878 58.4408C26.5956 58.5348 26.5037 58.629 26.4122 58.7234C23.9122 61.3027 21.6841 64.0503 20.3556 66.6809C20.2899 66.811 20.2264 66.9408 20.1652 67.0703C20.0741 66.9569 19.9838 66.8432 19.8943 66.7292C15.9447 61.7 13.4733 56.0477 11.938 50.7152C11.8927 50.5581 11.8483 50.4013 11.8047 50.2448C11.9548 50.3017 12.107 50.3601 12.2611 50.42C16.1696 51.9385 21.327 54.4049 26.3731 58.2021C26.478 58.2811 26.583 58.3607 26.6878 58.4408ZM26.0974 58.4852C23.6509 61.0131 21.4458 63.7213 20.0889 66.3418C16.3143 61.4886 13.9137 56.0548 12.3982 50.8945C16.237 52.4077 21.2192 54.8215 26.0974 58.4852Z" fill="#001E2E"/>
<path d="M60.6221 67.0703C59.4213 64.531 57.227 61.6276 54.0996 58.4413C59.5754 54.2559 65.2154 51.6739 68.983 50.2448C67.1654 56.7658 64.3526 62.4267 60.6221 67.0703Z" fill="#001E2E" fill-opacity="0.6"/>
<path fill-rule="evenodd" clip-rule="evenodd" d="M60.4316 66.681C60.4977 66.8117 60.5612 66.9415 60.6221 67.0703C60.7129 66.9572 60.8033 66.8435 60.893 66.7292C64.4001 62.2637 67.0746 56.8806 68.8497 50.7153C68.8947 50.5589 68.9392 50.4021 68.983 50.2448C68.8338 50.3014 68.6816 50.3598 68.5266 50.4201C64.8438 51.8518 59.5736 54.3208 54.4144 58.2025C54.3094 58.2815 54.2045 58.3611 54.0996 58.4413C54.1923 58.5357 54.2842 58.6299 54.3752 58.7238C57.2003 61.6386 59.2348 64.3119 60.4316 66.681ZM60.6984 66.3419C59.4721 63.9747 57.4488 61.3363 54.69 58.4856C59.6708 54.7456 64.7546 52.3288 68.3894 50.8947C66.6462 56.8306 64.0606 62.0192 60.6984 66.3419Z" fill="#001E2E"/>
<path d="M60.6221 67.0703C59.4217 64.531 57.227 61.6276 54.0996 58.4413C59.5754 54.2559 65.2154 51.6739 68.983 50.2448C67.1654 56.7658 64.3526 62.4267 60.6221 67.0703Z" fill="#001E2E" fill-opacity="0.6"/>
<path fill-rule="evenodd" clip-rule="evenodd" d="M60.4317 66.6809C60.4977 66.8117 60.5612 66.9415 60.6221 67.0703C60.713 66.9572 60.8033 66.8435 60.8931 66.7292C64.4001 62.2637 67.0746 56.8805 68.8497 50.7153C68.8947 50.5589 68.9392 50.4021 68.983 50.2448C68.8338 50.3014 68.6816 50.3598 68.5266 50.4201C64.8438 51.8518 59.5736 54.3208 54.4144 58.2025C54.3094 58.2815 54.2045 58.3611 54.0996 58.4413C54.1923 58.5357 54.2842 58.6299 54.3752 58.7238C57.2003 61.6386 59.2351 64.3119 60.4317 66.6809ZM60.6984 66.3419C59.4724 63.9746 57.4487 61.3362 54.69 58.4856C59.6708 54.7456 64.7546 52.3288 68.3894 50.8947C66.6462 56.8306 64.0606 62.0192 60.6984 66.3419Z" fill="#001E2E"/>
<path d="M60.6221 67.0703C59.4217 64.531 57.227 61.6276 54.0996 58.4413C59.5754 54.2559 65.2154 51.6739 68.983 50.2448C67.1654 56.7658 64.3526 62.4267 60.6221 67.0703Z" fill="#001E2E" fill-opacity="0.6"/>
<path fill-rule="evenodd" clip-rule="evenodd" d="M60.4317 66.6809C60.4977 66.8117 60.5612 66.9415 60.6221 67.0703C60.713 66.9572 60.8033 66.8435 60.8931 66.7292C64.4001 62.2637 67.0746 56.8805 68.8497 50.7153C68.8947 50.5589 68.9392 50.4021 68.983 50.2448C68.8338 50.3014 68.6816 50.3598 68.5266 50.4201C64.8438 51.8518 59.5736 54.3208 54.4144 58.2025C54.3094 58.2815 54.2045 58.3611 54.0996 58.4413C54.1923 58.5357 54.2842 58.6299 54.3752 58.7238C57.2003 61.6386 59.2351 64.3119 60.4317 66.6809ZM60.6984 66.3419C59.4724 63.9746 57.4487 61.3362 54.69 58.4856C59.6708 54.7456 64.7546 52.3288 68.3894 50.8947C66.6462 56.8306 64.0606 62.0192 60.6984 66.3419Z" fill="#001E2E"/>
<path d="M60.6221 67.0703C64.8485 61.8096 67.4251 55.8345 68.983 50.2448C64.9456 51.7762 59.4443 54.356 54.0996 58.4413C56.8354 61.2287 59.2778 64.2271 60.6221 67.0703Z" fill="#001E2E" fill-opacity="0.5"/>
<path fill-rule="evenodd" clip-rule="evenodd" d="M60.4317 66.6809C60.4974 66.811 60.5609 66.9408 60.6221 67.0703C60.7132 66.9569 60.8035 66.8432 60.8931 66.7292C64.8427 61.7004 67.3143 56.0477 68.8497 50.7152C68.895 50.5581 68.9394 50.4013 68.983 50.2448C68.8329 50.3017 68.6807 50.3601 68.5266 50.42C64.6179 51.9385 59.4606 54.4049 54.4144 58.2025C54.3094 58.2815 54.2045 58.3611 54.0996 58.4413C54.1918 58.5352 54.2837 58.6294 54.3752 58.7238C56.8751 61.3031 59.1034 64.0507 60.4317 66.6809ZM60.6984 66.3419C59.3417 63.7217 57.1365 61.0135 54.69 58.4856C59.5684 54.8216 64.5506 52.4077 68.3895 50.8945C66.8739 56.0549 64.4732 61.489 60.6984 66.3419Z" fill="#001E2E"/>
<path d="M40.3964 60.5293C40.2891 60.2587 40.2053 60.0498 40.1248 59.8529C38.9198 56.9005 37.2099 53.9281 35.043 51.0188C38.0884 48.6031 40.3734 47.0402 40.3964 47.0248C40.419 47.0402 42.7052 48.6039 45.7496 51.0188C43.5829 53.9281 41.873 56.9005 40.668 59.8529C40.5862 60.0536 40.4998 60.2685 40.3964 60.5293Z" fill="#001E2E" fill-opacity="0.6"/>
<path fill-rule="evenodd" clip-rule="evenodd" d="M40.1852 60.0013C40.248 60.1564 40.3155 60.3253 40.3964 60.5293C40.4748 60.3315 40.5435 60.1601 40.6077 60.0013C40.6282 59.9507 40.6482 59.9014 40.668 59.8529C41.873 56.9005 43.5829 53.9281 45.7496 51.0188C42.7052 48.6039 40.419 47.0402 40.3964 47.0248C40.3734 47.0402 38.0884 48.6031 35.043 51.0188C37.2099 53.9281 38.9198 56.9005 40.1248 59.8529C40.1446 59.9014 40.1647 59.9506 40.1852 60.0013ZM40.3964 59.4835C39.2262 56.6737 37.6077 53.8533 35.5835 51.091C36.9773 49.9928 38.195 49.0851 39.0837 48.4386C39.5592 48.0926 39.9405 47.8215 40.204 47.6362C40.2774 47.5845 40.3417 47.5395 40.3963 47.5014C40.4509 47.5395 40.5153 47.5846 40.5887 47.6363C40.8523 47.8217 41.2336 48.0928 41.7093 48.4389C42.5981 49.0855 43.8157 49.9932 45.209 51.091C43.1851 53.8533 41.5666 56.6737 40.3964 59.4835Z" fill="#001E2E"/>
<path d="M40.3964 60.5293C40.29 60.2604 40.2061 60.0519 40.1248 59.8529C38.9198 56.9005 37.2099 53.9281 35.043 51.0188C38.0791 48.6103 40.3734 47.0402 40.3964 47.0248C40.419 47.0402 42.7137 48.6103 45.7496 51.0188C43.5829 53.9281 41.873 56.9005 40.668 59.8529C40.5871 60.0511 40.5007 60.2659 40.3964 60.5293Z" fill="#001E2E" fill-opacity="0.6"/>
<path fill-rule="evenodd" clip-rule="evenodd" d="M40.1851 60.0011C40.2484 60.1573 40.316 60.326 40.3964 60.5293C40.4753 60.33 40.5439 60.1586 40.6077 60.0011C40.6282 59.9504 40.6483 59.9012 40.668 59.8529C41.873 56.9005 43.5829 53.9281 45.7496 51.0188C42.7137 48.6103 40.419 47.0402 40.3964 47.0248C40.3734 47.0402 38.0791 48.6103 35.043 51.0188C37.2099 53.9281 38.9198 56.9005 40.1248 59.8529C40.1447 59.9015 40.1647 59.9507 40.1851 60.0011ZM40.3964 59.4835C39.2262 56.6737 37.6076 53.8533 35.5835 51.091C36.9732 49.9961 38.1905 49.0885 39.0802 48.4413C39.5563 48.0948 39.9385 47.8231 40.2027 47.6372C40.2766 47.5851 40.3414 47.5398 40.3963 47.5015C40.4513 47.5398 40.516 47.5851 40.5899 47.6371C40.8541 47.8231 41.2363 48.0948 41.7124 48.4413C42.6021 49.0885 43.8195 49.9961 45.209 51.091C43.1851 53.8533 41.5666 56.6737 40.3964 59.4835Z" fill="#001E2E"/>
<path d="M40.3964 60.5293C40.29 60.2604 40.2061 60.0519 40.1248 59.8529C38.9198 56.9005 37.2099 53.9281 35.043 51.0188C38.0791 48.6103 40.3734 47.0402 40.3964 47.0248C40.419 47.0402 42.7137 48.6103 45.7496 51.0188C43.5829 53.9281 41.873 56.9005 40.668 59.8529C40.5871 60.0511 40.5007 60.2659 40.3964 60.5293Z" fill="#001E2E" fill-opacity="0.6"/>
<path fill-rule="evenodd" clip-rule="evenodd" d="M40.1851 60.0011C40.2484 60.1573 40.316 60.326 40.3964 60.5293C40.4753 60.33 40.5439 60.1586 40.6077 60.0011C40.6282 59.9504 40.6483 59.9012 40.668 59.8529C41.873 56.9005 43.5829 53.9281 45.7496 51.0188C42.7137 48.6103 40.419 47.0402 40.3964 47.0248C40.3734 47.0402 38.0791 48.6103 35.043 51.0188C37.2099 53.9281 38.9198 56.9005 40.1248 59.8529C40.1447 59.9015 40.1647 59.9507 40.1851 60.0011ZM40.3964 59.4835C39.2262 56.6737 37.6076 53.8533 35.5835 51.091C36.9732 49.9961 38.1905 49.0885 39.0802 48.4413C39.5563 48.0948 39.9385 47.8231 40.2027 47.6372C40.2766 47.5851 40.3414 47.5398 40.3963 47.5015C40.4513 47.5398 40.516 47.5851 40.5899 47.6371C40.8541 47.8231 41.2363 48.0948 41.7124 48.4413C42.6021 49.0885 43.8195 49.9961 45.209 51.091C43.1851 53.8533 41.5666 56.6737 40.3964 59.4835Z" fill="#001E2E"/>
<path fill-rule="evenodd" clip-rule="evenodd" d="M40.1851 60.0013C40.257 60.1789 40.3271 60.3545 40.3964 60.5293C40.4657 60.3545 40.5358 60.1789 40.6077 60.0013C40.6276 59.952 40.6477 59.9025 40.668 59.8529C41.9543 56.7019 43.7166 53.7487 45.7496 51.0188C42.6784 48.5826 40.3964 47.0248 40.3964 47.0248C40.3964 47.0248 38.114 48.5826 35.043 51.0188C37.0762 53.7487 38.8385 56.7019 40.1248 59.8529C40.1451 59.9025 40.1652 59.952 40.1851 60.0013ZM35.5835 51.091C36.9894 49.9832 38.2129 49.0715 39.1018 48.4252C39.5772 48.0795 39.9567 47.8099 40.2171 47.6269C40.2851 47.5791 40.345 47.5372 40.3964 47.5014C40.4477 47.5372 40.5076 47.5791 40.5756 47.6269C40.8359 47.8099 41.2155 48.0795 41.6908 48.4252C42.5796 49.0715 43.8031 49.9832 45.209 51.091C43.3025 53.6925 41.64 56.497 40.3964 59.4835C39.1528 56.497 37.4902 53.6925 35.5835 51.091Z" fill="#001E2E"/>
<path d="M26.6953 58.4355C25.9463 53.5853 26.2441 48.3326 27.5804 42.8239C30.4688 45.4928 32.9793 48.2504 35.0421 51.0203C31.8429 53.558 29.0346 56.053 26.6953 58.4355Z" fill="#001E2E" fill-opacity="0.2"/>
<path fill-rule="evenodd" clip-rule="evenodd" d="M27.5804 42.8239C27.6908 42.9259 27.8006 43.028 27.9098 43.1302C30.66 45.7036 33.0581 48.3562 35.0421 51.0203C31.9983 53.4348 29.3083 55.8106 27.0394 58.0877C26.9236 58.2039 26.8089 58.3198 26.6953 58.4355C26.6704 58.2741 26.6466 58.1122 26.624 57.9498C25.9853 53.3646 26.2716 48.4281 27.4762 43.2617C27.5102 43.1159 27.5449 42.97 27.5804 42.8239ZM26.9724 57.6007C26.4021 53.2179 26.6801 48.5061 27.807 43.5712C30.3691 45.984 32.6169 48.4629 34.5 50.9509C31.6616 53.2173 29.1336 55.4503 26.9724 57.6007Z" fill="#001E2E"/>
<path d="M26.6953 58.4355C25.9463 53.5857 26.2441 48.3331 27.5804 42.8239C30.4687 45.4928 32.9792 48.2504 35.0421 51.0203C31.8429 53.558 29.0346 56.053 26.6953 58.4355Z" fill="#001E2E" fill-opacity="0.2"/>
<path fill-rule="evenodd" clip-rule="evenodd" d="M27.5804 42.8239C27.6908 42.9259 27.8006 43.028 27.9098 43.1302C30.6599 45.7036 33.0581 48.3562 35.0421 51.0203C31.9982 53.4348 29.3083 55.8106 27.0394 58.0877C26.9236 58.2039 26.8089 58.3198 26.6953 58.4355C26.6704 58.2741 26.6466 58.1122 26.624 57.9498C25.9853 53.365 26.2717 48.4284 27.4763 43.2617C27.5102 43.1159 27.5449 42.97 27.5804 42.8239ZM26.9724 57.6007C26.4021 53.2183 26.6801 48.5065 27.807 43.5712C30.369 45.984 32.6168 48.4629 34.5 50.9509C31.6615 53.2173 29.1336 55.4503 26.9724 57.6007Z" fill="#001E2E"/>
<path d="M26.6953 58.4355C25.9463 53.5857 26.2441 48.3331 27.5804 42.8239C30.4687 45.4928 32.9792 48.2504 35.0421 51.0203C31.8429 53.558 29.0346 56.053 26.6953 58.4355Z" fill="#001E2E" fill-opacity="0.2"/>
<path fill-rule="evenodd" clip-rule="evenodd" d="M27.5804 42.8239C27.6908 42.9259 27.8006 43.028 27.9098 43.1302C30.6599 45.7036 33.0581 48.3562 35.0421 51.0203C31.9982 53.4348 29.3083 55.8106 27.0394 58.0877C26.9236 58.2039 26.8089 58.3198 26.6953 58.4355C26.6704 58.2741 26.6466 58.1122 26.624 57.9498C25.9853 53.365 26.2717 48.4284 27.4763 43.2617C27.5102 43.1159 27.5449 42.97 27.5804 42.8239ZM26.9724 57.6007C26.4021 53.2183 26.6801 48.5065 27.807 43.5712C30.369 45.984 32.6168 48.4629 34.5 50.9509C31.6615 53.2173 29.1336 55.4503 26.9724 57.6007Z" fill="#001E2E"/>
<path d="M26.6968 58.4355C29.4592 55.6221 32.5179 53.0239 35.0437 51.0203C32.796 48.0023 30.2171 45.2588 27.5819 42.8239C26.3774 47.7897 25.8742 53.1092 26.6968 58.4355Z" fill="#001E2E" fill-opacity="0.7"/>
<path fill-rule="evenodd" clip-rule="evenodd" d="M26.6968 58.4355C26.6718 58.2736 26.648 58.1117 26.6254 57.9498C25.9273 52.9423 26.3844 47.9501 27.4777 43.2617C27.5118 43.1154 27.5466 42.9695 27.5819 42.8239C27.6918 42.9254 27.8016 43.0275 27.9113 43.1302C30.4317 45.4882 32.8897 48.1282 35.0437 51.0203C32.6223 52.9411 29.7113 55.4083 27.0409 58.0877C26.9257 58.2033 26.811 58.3192 26.6968 58.4355ZM26.9738 57.6008C26.3518 52.8282 26.7815 48.0671 27.8085 43.5711C30.169 45.7937 32.4667 48.2621 34.5016 50.951C32.1988 52.79 29.4907 55.0974 26.9738 57.6008Z" fill="#001E2E"/>
<path d="M54.0973 58.4355C51.7578 56.0526 48.9493 53.5576 45.75 51.0199C47.8132 48.25 50.3238 45.4924 53.2119 42.8235C54.5485 48.3327 54.846 53.5853 54.0973 58.4355Z" fill="#001E2E" fill-opacity="0.2"/>
<path fill-rule="evenodd" clip-rule="evenodd" d="M46.2922 50.9505C48.1756 48.4625 50.4235 45.9836 52.9853 43.5708C54.1124 48.5061 54.3903 53.2178 53.8202 57.6006C51.6589 55.4499 49.1307 53.2169 46.2922 50.9505ZM53.7532 58.0876C51.4842 55.8102 48.7939 53.4343 45.75 51.0199C47.7344 48.3558 50.1326 45.7031 52.8825 43.1298C52.9917 43.0276 53.1016 42.9254 53.2119 42.8235C53.2474 42.9696 53.2821 43.1155 53.3161 43.2613C54.5209 48.428 54.8071 53.3646 54.1686 57.9498C54.146 58.1121 54.1222 58.2741 54.0973 58.4355C53.9837 58.3198 53.869 58.2038 53.7532 58.0876Z" fill="#001E2E"/>
<path d="M54.0973 58.4355C51.7578 56.0526 48.9493 53.5576 45.75 51.0199C47.8132 48.25 50.3238 45.4924 53.2119 42.8235C54.5485 48.3327 54.846 53.5853 54.0973 58.4355Z" fill="#001E2E" fill-opacity="0.2"/>
<path fill-rule="evenodd" clip-rule="evenodd" d="M46.2922 50.9505C48.1756 48.4625 50.4235 45.9836 52.9853 43.5708C54.1124 48.5061 54.3903 53.2178 53.8202 57.6006C51.6589 55.4499 49.1307 53.2169 46.2922 50.9505ZM53.7532 58.0876C51.4842 55.8102 48.7939 53.4343 45.75 51.0199C47.7344 48.3558 50.1326 45.7031 52.8825 43.1298C52.9917 43.0276 53.1016 42.9254 53.2119 42.8235C53.2474 42.9696 53.2821 43.1155 53.3161 43.2613C54.5209 48.428 54.8071 53.3646 54.1686 57.9498C54.146 58.1121 54.1222 58.2741 54.0973 58.4355C53.9837 58.3198 53.869 58.2038 53.7532 58.0876Z" fill="#001E2E"/>
<path d="M54.0973 58.4355C51.7578 56.0526 48.9493 53.5576 45.75 51.0199C47.8132 48.25 50.3238 45.4924 53.2119 42.8235C54.5485 48.3327 54.846 53.5853 54.0973 58.4355Z" fill="#001E2E" fill-opacity="0.2"/>
<path fill-rule="evenodd" clip-rule="evenodd" d="M46.2922 50.9505C48.1756 48.4625 50.4235 45.9836 52.9853 43.5708C54.1124 48.5061 54.3903 53.2178 53.8202 57.6006C51.6589 55.4499 49.1307 53.2169 46.2922 50.9505ZM53.7532 58.0876C51.4842 55.8102 48.7939 53.4343 45.75 51.0199C47.7344 48.3558 50.1326 45.7031 52.8825 43.1298C52.9917 43.0276 53.1016 42.9254 53.2119 42.8235C53.2474 42.9696 53.2821 43.1155 53.3161 43.2613C54.5209 48.428 54.8071 53.3646 54.1686 57.9498C54.146 58.1121 54.1222 58.2741 54.0973 58.4355C53.9837 58.3198 53.869 58.2038 53.7532 58.0876Z" fill="#001E2E"/>
<path d="M45.75 51.0199C48.2759 53.0235 51.3347 55.6217 54.0973 58.4355C54.9197 53.1088 54.4166 47.7892 53.2119 42.8235C50.5766 45.2584 47.9979 48.0019 45.75 51.0199Z" fill="#001E2E" fill-opacity="0.7"/>
<path fill-rule="evenodd" clip-rule="evenodd" d="M46.2921 50.9505C48.3272 48.2617 50.6247 45.7932 52.9853 43.5707C54.0125 48.0666 54.4421 52.8277 53.8203 57.6007C51.3033 55.0969 48.5949 52.7896 46.2921 50.9505ZM53.7532 58.0877C51.0827 55.4079 48.1715 52.9407 45.75 51.0199C47.9042 48.1278 50.3621 45.4877 52.8825 43.1297C52.9922 43.0271 53.102 42.925 53.2119 42.8235C53.2472 42.9691 53.282 43.115 53.3161 43.2612C54.4096 47.9497 54.8667 52.9419 54.1686 57.9498C54.1461 58.1117 54.1223 58.2736 54.0973 58.4355C53.9831 58.3192 53.8684 58.2032 53.7532 58.0877Z" fill="#001E2E"/>
<path d="M37.636 70.1758C34.817 65.7888 31.1367 61.8429 26.6974 58.4482L26.6953 58.4345C29.0346 56.052 31.8429 53.557 35.0421 51.0193C37.209 53.9286 38.9189 56.901 40.124 59.8534C40.2044 60.0503 40.2883 60.2591 40.3956 60.5298C38.9547 64.1649 38.0259 67.4105 37.636 70.1758Z" fill="#001E2E" fill-opacity="0.45"/>
<path fill-rule="evenodd" clip-rule="evenodd" d="M39.7612 60.0015L39.7612 60.0016C39.8262 60.1607 39.8935 60.3278 39.9741 60.5302C38.7259 63.7 37.863 66.5838 37.4087 69.1192C34.7181 65.1413 31.3147 61.5413 27.2788 58.4017C29.464 56.205 32.0473 53.9124 34.9683 51.579C37.0042 54.361 38.6149 57.1932 39.7612 60.0015ZM35.2751 51.3347C35.198 51.2295 35.1204 51.1244 35.0421 51.0193C34.9395 51.1008 34.8372 51.1821 34.7354 51.2635C31.7847 53.6199 29.1741 55.9376 26.9661 58.1604C26.8941 58.2328 26.8226 58.3052 26.7514 58.3774C26.7327 58.3965 26.714 58.4155 26.6953 58.4345L26.6974 58.4482C26.7153 58.4619 26.7332 58.4756 26.7512 58.4894C26.8348 58.5535 26.9181 58.6178 27.0012 58.6823C31.139 61.8951 34.6047 65.592 37.3137 69.6818C37.4223 69.8458 37.5298 70.0105 37.636 70.1758C37.663 69.984 37.6927 69.7898 37.7249 69.5934C38.1572 66.9584 39.0546 63.9128 40.3956 60.5298C40.2883 60.2591 40.2044 60.0503 40.124 59.8534C38.9625 57.0076 37.3319 54.1433 35.2751 51.3347Z" fill="#001E2E"/>
<path d="M37.636 70.1758C34.8171 65.7888 31.1368 61.8429 26.6974 58.4482L26.6953 58.4345C29.0346 56.052 31.8429 53.557 35.0421 51.0193C37.209 53.9286 38.9189 56.901 40.124 59.8534C40.2053 60.0524 40.2892 60.2608 40.3956 60.5298C38.9547 64.1649 38.0259 67.4105 37.636 70.1758Z" fill="#001E2E" fill-opacity="0.45"/>
<path d="M37.677 70.4668C38.0325 67.9466 38.8655 64.7841 40.4366 60.8208C40.3481 60.5975 40.2583 60.3729 40.1651 60.1444C38.8787 56.9934 37.1164 54.0402 35.0832 51.3103C32.5574 53.314 29.4988 55.9121 26.7363 58.7255C26.737 58.7302 26.7377 58.7349 26.7384 58.7392C30.6915 61.7623 34.5559 65.6093 37.677 70.4668Z" fill="#001E2E" fill-opacity="0.6"/>
<path d="M37.677 70.4668C38.0325 67.9466 38.8655 64.7841 40.4366 60.8208C40.3481 60.5975 40.2583 60.3729 40.1651 60.1444C38.8787 56.9934 37.1164 54.0402 35.0832 51.3103C32.5574 53.314 29.4988 55.9121 26.7363 58.7255C26.737 58.7302 26.7377 58.7349 26.7384 58.7392C30.6915 61.7623 34.5559 65.6093 37.677 70.4668Z" fill="#001E2E" fill-opacity="0.6"/>
<path fill-rule="evenodd" clip-rule="evenodd" d="M37.636 70.1758C37.5295 70.0099 37.422 69.8452 37.3137 69.6817C34.3322 65.1793 30.7134 61.5645 27.0012 58.6823C26.9179 58.6176 26.8345 58.5532 26.751 58.4892C26.7331 58.4755 26.7153 58.4618 26.6974 58.4482C26.6967 58.4439 26.696 58.4392 26.6953 58.4345C26.7141 58.4154 26.7329 58.3963 26.7517 58.3772C26.823 58.3048 26.8945 58.2325 26.9661 58.1604C29.5448 55.5649 32.3548 53.1651 34.7354 51.2635C34.8385 51.1812 34.9408 51.0998 35.0422 51.0193C35.0422 51.0193 35.0422 51.0193 35.0422 51.0193C35.1202 51.1241 35.1979 51.2293 35.2752 51.3347C37.21 53.9762 38.8871 56.8234 40.124 59.8534C40.2173 60.0818 40.3071 60.3064 40.3956 60.5298C38.9432 64.1936 38.1216 67.173 37.7249 69.5933C37.6925 69.7912 37.6629 69.9853 37.636 70.1758ZM37.4087 69.1189C34.4551 64.7508 30.9101 61.2264 27.2788 58.4017C29.8297 55.8379 32.6081 53.4649 34.9683 51.579C36.884 54.1961 38.5405 57.0112 39.7612 60.0015C39.8338 60.1794 39.9044 60.3552 39.9741 60.5302C38.629 63.9455 37.828 66.7751 37.4087 69.1189Z" fill="#001E2E"/>
<path d="M43.1561 70.1758C42.7662 67.4105 41.8374 64.1649 40.3965 60.5298C40.5016 60.2647 40.5876 60.0499 40.6681 59.8534C41.8731 56.901 43.583 53.9286 45.7497 51.0193C48.949 53.557 51.7575 56.052 54.097 58.435L54.0948 58.4482C49.6551 61.8429 45.9753 65.7888 43.1561 70.1758Z" fill="#001E2E" fill-opacity="0.45"/>
<path fill-rule="evenodd" clip-rule="evenodd" d="M43.0672 69.5935C43.0994 69.7899 43.129 69.984 43.1561 70.1758C43.2623 70.0105 43.3697 69.8459 43.4784 69.6819C46.1875 65.5921 49.6528 61.8952 53.7908 58.6825C53.8747 58.6173 53.9589 58.5523 54.0434 58.4876C54.0605 58.4744 54.0777 58.4613 54.0948 58.4482L54.097 58.435C54.0786 58.4163 54.0603 58.3976 54.0419 58.3789C53.9703 58.3062 53.8983 58.2334 53.8259 58.1605C51.6179 55.9375 49.0071 53.6198 46.0564 51.2635C45.9546 51.1821 45.8523 51.1008 45.7497 51.0193C45.6714 51.1244 45.5938 51.2295 45.5167 51.3347C43.4602 54.1433 41.8296 57.0076 40.6681 59.8534C40.5876 60.0499 40.5016 60.2647 40.3965 60.5298C41.7374 63.9128 42.6349 66.9584 43.0672 69.5935ZM43.3834 69.1193C42.9291 66.5838 42.0662 63.7 40.818 60.5302C40.8976 60.3301 40.9661 60.1598 41.0307 60.0019L41.0309 60.0015C42.1771 57.1932 43.7879 54.361 45.8236 51.579C48.7445 53.9123 51.3279 56.2049 53.5132 58.4018C49.4771 61.5414 46.0741 65.1414 43.3834 69.1193Z" fill="#001E2E"/>
<path d="M43.1561 70.1758C42.7662 67.4105 41.8374 64.1649 40.3965 60.5298C40.5012 60.266 40.5872 60.0511 40.6681 59.8534C41.8731 56.901 43.583 53.9286 45.7497 51.0193C48.949 53.557 51.7575 56.052 54.097 58.435L54.0948 58.4482C49.6551 61.8429 45.9748 65.7888 43.1561 70.1758Z" fill="#001E2E" fill-opacity="0.45"/>
<path fill-rule="evenodd" clip-rule="evenodd" d="M43.0672 69.5934C43.0994 69.7898 43.129 69.984 43.1561 70.1758C43.2623 70.0105 43.3697 69.8458 43.4783 69.6818C46.1871 65.592 49.6528 61.8952 53.7908 58.6825C53.8747 58.6173 53.9589 58.5523 54.0434 58.4876C54.0605 58.4744 54.0777 58.4613 54.0948 58.4482L54.097 58.435C54.0786 58.4163 54.0603 58.3976 54.0419 58.3789C53.9703 58.3062 53.8983 58.2334 53.8259 58.1605C51.6179 55.9375 49.0071 53.6198 46.0564 51.2635C45.9546 51.1821 45.8523 51.1008 45.7497 51.0193C45.6714 51.1244 45.5938 51.2295 45.5167 51.3347C43.4602 54.1433 41.8296 57.0076 40.6681 59.8534C40.5872 60.0511 40.5012 60.266 40.3965 60.5298C41.7374 63.9128 42.6348 66.9584 43.0672 69.5934ZM43.3834 69.1192C42.9291 66.5838 42.0662 63.7 40.818 60.5302C40.8973 60.331 40.9658 60.1606 41.0308 60.0017L41.0309 60.0015C42.1771 57.1932 43.7879 54.361 45.8236 51.579C48.7445 53.9123 51.3279 56.2049 53.5132 58.4018C49.4771 61.5414 46.0738 65.1414 43.3834 69.1192Z" fill="#001E2E"/>
<path d="M43.1561 70.1758C42.7662 67.4105 41.8374 64.1649 40.3965 60.5298C40.5012 60.266 40.5872 60.0511 40.6681 59.8534C41.8731 56.901 43.583 53.9286 45.7497 51.0193C48.949 53.557 51.7575 56.052 54.097 58.435L54.0948 58.4482C49.6551 61.8429 45.9748 65.7888 43.1561 70.1758Z" fill="#001E2E" fill-opacity="0.45"/>
<path fill-rule="evenodd" clip-rule="evenodd" d="M43.0672 69.5934C43.0994 69.7898 43.129 69.984 43.1561 70.1758C43.2623 70.0105 43.3697 69.8458 43.4783 69.6818C46.1871 65.592 49.6528 61.8952 53.7908 58.6825C53.8747 58.6173 53.9589 58.5523 54.0434 58.4876C54.0605 58.4744 54.0777 58.4613 54.0948 58.4482L54.097 58.435C54.0786 58.4163 54.0603 58.3976 54.0419 58.3789C53.9703 58.3062 53.8983 58.2334 53.8259 58.1605C51.6179 55.9375 49.0071 53.6198 46.0564 51.2635C45.9546 51.1821 45.8523 51.1008 45.7497 51.0193C45.6714 51.1244 45.5938 51.2295 45.5167 51.3347C43.4602 54.1433 41.8296 57.0076 40.6681 59.8534C40.5872 60.0511 40.5012 60.266 40.3965 60.5298C41.7374 63.9128 42.6348 66.9584 43.0672 69.5934ZM43.3834 69.1192C42.9291 66.5838 42.0662 63.7 40.818 60.5302C40.8973 60.331 40.9658 60.1606 41.0308 60.0017L41.0309 60.0015C42.1771 57.1932 43.7879 54.361 45.8236 51.579C48.7445 53.9123 51.3279 56.2049 53.5132 58.4018C49.4771 61.5414 46.0738 65.1414 43.3834 69.1192Z" fill="#001E2E"/>
<path d="M45.7497 51.0193C43.7167 53.7492 41.9544 56.7024 40.6681 59.8534C40.5748 60.0818 40.485 60.3064 40.3965 60.5298C41.9676 64.4931 42.8006 67.6556 43.1561 70.1758C46.2771 65.3187 50.1417 61.4713 54.0948 58.4482C54.0952 58.4439 54.0961 58.4392 54.097 58.435C51.3344 55.6211 48.2756 53.0229 45.7497 51.0193Z" fill="#001E2E" fill-opacity="0.6"/>
<path fill-rule="evenodd" clip-rule="evenodd" d="M46.0564 51.2635C45.9533 51.1812 45.8511 51.0998 45.7497 51.0193C45.6716 51.1241 45.5939 51.2293 45.5167 51.3347C43.5821 53.9763 41.905 56.8234 40.6681 59.8534C40.5748 60.0818 40.485 60.3064 40.3965 60.5298C41.8489 64.1936 42.6705 67.173 43.0672 69.5934C43.0996 69.7912 43.1292 69.9853 43.1561 70.1758C43.2626 70.0099 43.3701 69.8453 43.4784 69.6817C46.4597 65.1797 50.0787 61.5647 53.7908 58.6825C53.8749 58.6171 53.9591 58.5522 54.0433 58.4876C54.0605 58.4744 54.0777 58.4613 54.0948 58.4482C54.095 58.4461 54.0953 58.444 54.0957 58.4419C54.0961 58.4395 54.0965 58.4372 54.097 58.435C54.0786 58.4163 54.0602 58.3976 54.0419 58.3789C53.9701 58.306 53.8981 58.2332 53.8259 58.1605C51.2472 55.5648 48.437 53.1651 46.0564 51.2635ZM45.8235 51.579C48.1838 53.4649 50.9623 55.8378 53.5132 58.4018C49.882 61.2265 46.3368 64.7512 43.3834 69.119C42.9641 66.7751 42.1631 63.9455 40.818 60.5302C40.8877 60.3552 40.9583 60.1794 41.0309 60.0015C42.2516 57.0112 43.9081 54.1961 45.8235 51.579Z" fill="#001E2E"/>
<path d="M40.3563 79.7637C40.238 79.7632 40.1205 79.762 40.0026 79.7603L39.8506 79.7581C39.3279 79.6968 38.4902 79.5182 37.4677 79.0174C36.2399 78.416 35.0591 77.5048 33.9582 76.3097C32.5444 74.7749 31.2701 72.7751 30.171 70.3662C28.8527 67.4764 27.7707 63.9606 26.9548 59.9163C26.8659 59.4752 26.784 59.0089 26.6973 58.4485C31.1367 61.8432 34.8169 65.7891 37.6359 70.1761C36.5438 77.9182 39.9626 79.5974 40.3563 79.7637Z" fill="#001E2E" fill-opacity="0.9"/>
<path fill-rule="evenodd" clip-rule="evenodd" d="M39.8819 79.4921C39.925 79.5223 39.9663 79.5497 40.0052 79.5745C40.0052 79.5745 40.0052 79.5745 40.0053 79.5745C40.1726 79.6809 40.2978 79.739 40.3563 79.7637C40.238 79.7632 40.1205 79.762 40.0026 79.7603L39.8506 79.7581C39.7497 79.7463 39.637 79.7301 39.5136 79.708C38.9975 79.6158 38.2928 79.4215 37.4677 79.0174C36.2399 78.416 35.0591 77.5048 33.9582 76.3097C32.5444 74.7749 31.2701 72.7751 30.171 70.3662C28.8527 67.4764 27.7707 63.9606 26.9548 59.9163C26.8975 59.632 26.8431 59.3373 26.7885 59.0136C26.7583 58.8351 26.7281 58.6477 26.6973 58.4485C26.849 58.5645 26.9999 58.6812 27.1499 58.7986C31.3873 62.1135 34.9133 65.9391 37.6359 70.1761C36.7999 76.1024 38.6071 78.4763 39.6773 79.3383C39.7391 79.3881 39.7984 79.4328 39.8546 79.4729C39.8638 79.4794 39.8729 79.4858 39.8819 79.4921ZM38.9234 79.1669C38.5491 79.0582 38.1165 78.8988 37.6401 78.6654L37.6401 78.6654C36.4633 78.0891 35.3205 77.2101 34.2464 76.0442C32.867 74.5467 31.6139 72.5844 30.5275 70.2035L30.1714 70.3659L30.5275 70.2035C29.2247 67.3477 28.1505 63.862 27.339 59.8388C27.3087 59.6889 27.2793 59.5359 27.2502 59.3769C31.263 62.5717 34.6152 66.2312 37.2278 70.2664C36.7079 74.1119 37.287 76.5157 38.0948 77.9983C38.3599 78.4849 38.6473 78.8678 38.9234 79.1669Z" fill="#001E2E"/>
<path d="M40.3563 79.7637C40.238 79.7632 40.1205 79.762 40.0026 79.7603L39.8506 79.7581C39.3279 79.6968 38.4902 79.5182 37.4677 79.0174C36.2398 78.416 35.0591 77.5048 33.9582 76.3097C32.5444 74.7749 31.2701 72.7751 30.171 70.3662C28.8527 67.4769 27.7707 63.9606 26.9548 59.9163C26.8659 59.4752 26.7841 59.0089 26.6973 58.4485C31.1367 61.8432 34.817 65.7891 37.6359 70.1761C36.5438 77.9186 39.9626 79.5974 40.3563 79.7637Z" fill="#001E2E" fill-opacity="0.8"/>
<path fill-rule="evenodd" clip-rule="evenodd" d="M39.8819 79.4922C39.925 79.5223 39.9663 79.5497 40.0052 79.5745C40.0052 79.5745 40.0052 79.5745 40.0053 79.5745C40.1726 79.6809 40.2978 79.739 40.3563 79.7637C40.238 79.7632 40.1205 79.762 40.0026 79.7603L39.8506 79.7581C39.7497 79.7463 39.637 79.7301 39.5135 79.708C38.9975 79.6158 38.2927 79.4215 37.4677 79.0174C36.2398 78.416 35.0591 77.5048 33.9582 76.3097C32.5444 74.7749 31.2701 72.7751 30.171 70.3662C28.8527 67.4769 27.7707 63.9606 26.9548 59.9163C26.8975 59.632 26.8432 59.3373 26.7885 59.0137C26.7584 58.8351 26.7281 58.6477 26.6973 58.4485C26.849 58.5645 26.9999 58.6812 27.1499 58.7986C31.3873 62.1136 34.9133 65.9391 37.6359 70.1761C36.7999 76.1026 38.607 78.4763 39.6772 79.3383C39.739 79.3881 39.7984 79.4329 39.8546 79.4729C39.8638 79.4795 39.8729 79.4859 39.8819 79.4922ZM38.9233 79.1668C38.549 79.0581 38.1164 78.8987 37.6401 78.6654L37.6401 78.6654C36.4633 78.0891 35.3205 77.2101 34.2464 76.0442C32.867 74.5467 31.6139 72.5844 30.5275 70.2035C29.2248 67.3481 28.1505 63.862 27.339 59.8388C27.3088 59.6889 27.2793 59.5359 27.2502 59.3769C31.2631 62.5717 34.6152 66.2312 37.2278 70.2664C36.7079 74.1121 37.2869 76.5159 38.0948 77.9985C38.3599 78.4849 38.6472 78.8678 38.9233 79.1668Z" fill="#001E2E"/>
<path fill-rule="evenodd" clip-rule="evenodd" d="M39.8819 79.4922C39.925 79.5223 39.9663 79.5497 40.0052 79.5745C40.0052 79.5745 40.0052 79.5745 40.0053 79.5745C40.1726 79.6809 40.2978 79.739 40.3563 79.7637C40.238 79.7632 40.1205 79.762 40.0026 79.7603L39.8506 79.7581C39.7497 79.7463 39.637 79.7301 39.5135 79.708C38.9975 79.6158 38.2927 79.4215 37.4677 79.0174C36.2398 78.416 35.0591 77.5048 33.9582 76.3097C32.5444 74.7749 31.2701 72.7751 30.171 70.3662C28.8527 67.4769 27.7707 63.9606 26.9548 59.9163C26.8975 59.632 26.8432 59.3373 26.7885 59.0137C26.7584 58.8351 26.7281 58.6477 26.6973 58.4485C26.849 58.5645 26.9999 58.6812 27.1499 58.7986C31.3873 62.1136 34.9133 65.9391 37.6359 70.1761C36.7999 76.1026 38.607 78.4763 39.6772 79.3383C39.739 79.3881 39.7984 79.4329 39.8546 79.4729C39.8638 79.4795 39.8729 79.4859 39.8819 79.4922ZM38.9233 79.1668C38.549 79.0581 38.1164 78.8987 37.6401 78.6654L37.6401 78.6654C36.4633 78.0891 35.3205 77.2101 34.2464 76.0442C32.867 74.5467 31.6139 72.5844 30.5275 70.2035C29.2248 67.3481 28.1505 63.862 27.339 59.8388C27.3088 59.6889 27.2793 59.5359 27.2502 59.3769C31.2631 62.5717 34.6152 66.2312 37.2278 70.2664C36.7079 74.1121 37.2869 76.5159 38.0948 77.9985C38.3599 78.4849 38.6472 78.8678 38.9233 79.1668Z" fill="#001E2E"/>
<path fill-rule="evenodd" clip-rule="evenodd" d="M37.6359 70.1765C36.7998 76.1037 38.6057 78.4768 39.6766 79.3386C39.7385 79.3884 39.7979 79.4332 39.8542 79.4733C39.8635 79.4799 39.8727 79.4864 39.8819 79.4927C40.11 79.6519 40.2834 79.733 40.3563 79.7637C40.2247 79.7637 40.0942 79.7619 39.9635 79.7601C39.9259 79.7596 39.8883 79.759 39.8506 79.7586C39.7503 79.7468 39.6374 79.7305 39.5129 79.7082C37.0943 79.2753 30.3122 76.5611 26.9548 59.9168C26.8941 59.6159 26.8394 59.315 26.7886 59.0141C26.7567 58.8257 26.7265 58.6373 26.6973 58.4489C26.8483 58.5644 26.9992 58.6811 27.15 58.799C30.9446 61.7675 34.634 65.5046 37.6359 70.1765ZM27.2503 59.3774C30.8626 62.2528 34.3583 65.8342 37.2278 70.2668C36.708 74.111 37.2857 76.5142 38.0928 77.9968C38.358 78.484 38.6456 78.8674 38.9221 79.1668C37.7767 78.834 36.0678 78.0221 34.2463 76.0447C31.7832 73.3708 29.095 68.5446 27.3389 59.8393M27.2503 59.3774C27.2785 59.5315 27.3079 59.6855 27.3389 59.8393L27.2503 59.3774Z" fill="#001E2E"/>
<path d="M40.4375 79.7637C40.8312 79.5974 44.2502 77.9178 43.1579 70.1761C45.9771 65.7891 49.657 61.8432 54.0967 58.4485C54.0094 59.0102 53.9277 59.4765 53.8391 59.9163C53.0231 63.9611 51.9411 67.4769 50.6228 70.3662C49.5238 72.7751 48.2497 74.7749 46.8357 76.3097C45.7349 77.5048 44.5541 78.416 43.3261 79.0174C42.3036 79.5182 41.4659 79.6968 40.9432 79.7581L40.7917 79.7603C40.6737 79.762 40.5558 79.7632 40.4375 79.7637Z" fill="#001E2E" fill-opacity="0.9"/>
<path d="M40.4375 79.7637C40.8312 79.5974 44.2502 77.9178 43.1579 70.1761C45.9771 65.7891 49.657 61.8432 54.0967 58.4485C54.0094 59.0102 53.9277 59.4765 53.8391 59.9163C53.0231 63.9611 51.9411 67.4769 50.6228 70.3662C49.5238 72.7751 48.2497 74.7749 46.8357 76.3097C45.7349 77.5048 44.5541 78.416 43.3261 79.0174C42.3036 79.5182 41.4659 79.6968 40.9432 79.7581L40.7917 79.7603C40.6737 79.762 40.5558 79.7632 40.4375 79.7637Z" fill="#001E2E" fill-opacity="0.7"/>
<path fill-rule="evenodd" clip-rule="evenodd" d="M41.1164 79.3383C42.1867 78.4762 43.994 76.1022 43.1579 70.1761C45.8807 65.9391 49.4063 62.1136 53.6439 58.7987C53.7939 58.6813 53.9448 58.5646 54.0967 58.4485C54.0657 58.6479 54.0354 58.8353 54.0053 59.0138C53.9505 59.338 53.8963 59.6326 53.8391 59.9163C53.0231 63.9611 51.9411 67.4769 50.6228 70.3662C49.5238 72.7751 48.2497 74.7749 46.8357 76.3097C45.7349 77.5048 44.5541 78.416 43.3261 79.0174C42.501 79.4215 41.7962 79.6158 41.2802 79.708C41.1567 79.7301 41.0441 79.7463 40.9432 79.7581L40.7917 79.7603C40.6737 79.762 40.5558 79.7632 40.4375 79.7637C40.496 79.739 40.6215 79.6808 40.789 79.5742C40.789 79.5742 40.789 79.5742 40.789 79.5742C40.8279 79.5495 40.8689 79.5222 40.912 79.4921C40.9209 79.4858 40.93 79.4794 40.9392 79.4729C40.9954 79.4328 41.0547 79.3881 41.1164 79.3383ZM41.8703 79.1669C42.2447 79.0582 42.6773 78.8988 43.1537 78.6654L43.1537 78.6654C44.3307 78.0891 45.4735 77.2101 46.5474 76.0442L46.5475 76.0441C47.9271 74.5467 49.18 72.5844 50.2663 70.2035L50.2663 70.2035C51.5691 67.3481 52.6433 63.8624 53.455 59.8388C53.4851 59.6891 53.5145 59.5361 53.5436 59.377C49.5307 62.5717 46.1788 66.2312 43.566 70.2664C44.086 74.1117 43.5069 76.5155 42.6991 77.9982C42.4339 78.4848 42.1465 78.8678 41.8703 79.1669Z" fill="#001E2E"/>
<path fill-rule="evenodd" clip-rule="evenodd" d="M41.1164 79.3383C42.1867 78.4762 43.994 76.1022 43.1579 70.1761C45.8803 65.9391 49.4064 62.1135 53.644 58.7985C53.794 58.6812 53.9449 58.5645 54.0967 58.4485C54.0658 58.6478 54.0356 58.8352 54.0054 59.0137C53.9507 59.3377 53.8962 59.6324 53.8391 59.9163C53.0231 63.9606 51.9411 67.4769 50.6228 70.3662C49.5238 72.7751 48.2493 74.7749 46.8357 76.3097C45.7349 77.5048 44.5541 78.416 43.3261 79.0174C42.501 79.4215 41.7962 79.6158 41.2802 79.708C41.1567 79.7301 41.0441 79.7463 40.9432 79.7581L40.7917 79.7603C40.6737 79.762 40.5558 79.7632 40.4375 79.7637C40.496 79.739 40.6215 79.6808 40.789 79.5742C40.789 79.5742 40.789 79.5742 40.789 79.5742C40.8279 79.5495 40.8689 79.5222 40.912 79.4921C40.9209 79.4858 40.93 79.4794 40.9392 79.4729C40.9954 79.4328 41.0547 79.3881 41.1164 79.3383ZM41.8703 79.1669C42.1465 78.8678 42.4339 78.4848 42.6991 77.9982C43.5069 76.5155 44.086 74.1117 43.566 70.2664C46.1784 66.2312 49.5306 62.5717 53.5437 59.3769C53.5145 59.536 53.4851 59.689 53.455 59.8388C52.6433 63.862 51.5691 67.3482 50.2663 70.2035L50.2663 70.2035C49.18 72.5844 47.9267 74.5467 46.5474 76.0442C45.4735 77.2101 44.3307 78.0891 43.1537 78.6654L43.1537 78.6654C42.6773 78.8988 42.2447 79.0582 41.8703 79.1669Z" fill="#001E2E"/>
<path fill-rule="evenodd" clip-rule="evenodd" d="M41.1164 79.3383C42.1867 78.4762 43.994 76.1022 43.1579 70.1761C45.8803 65.9391 49.4064 62.1135 53.644 58.7985C53.794 58.6812 53.9449 58.5645 54.0967 58.4485C54.0658 58.6478 54.0356 58.8352 54.0054 59.0137C53.9507 59.3377 53.8962 59.6324 53.8391 59.9163C53.0231 63.9606 51.9411 67.4769 50.6228 70.3662C49.5238 72.7751 48.2493 74.7749 46.8357 76.3097C45.7349 77.5048 44.5541 78.416 43.3261 79.0174C42.501 79.4215 41.7962 79.6158 41.2802 79.708C41.1567 79.7301 41.0441 79.7463 40.9432 79.7581L40.7917 79.7603C40.6737 79.762 40.5558 79.7632 40.4375 79.7637C40.496 79.739 40.6215 79.6808 40.789 79.5742C40.789 79.5742 40.789 79.5742 40.789 79.5742C40.8279 79.5495 40.8689 79.5222 40.912 79.4921C40.9209 79.4858 40.93 79.4794 40.9392 79.4729C40.9954 79.4328 41.0547 79.3881 41.1164 79.3383ZM41.8703 79.1669C42.1465 78.8678 42.4339 78.4848 42.6991 77.9982C43.5069 76.5155 44.086 74.1117 43.566 70.2664C46.1784 66.2312 49.5306 62.5717 53.5437 59.3769C53.5145 59.536 53.4851 59.689 53.455 59.8388C52.6433 63.862 51.5691 67.3482 50.2663 70.2035L50.2663 70.2035C49.18 72.5844 47.9267 74.5467 46.5474 76.0442C45.4735 77.2101 44.3307 78.0891 43.1537 78.6654L43.1537 78.6654C42.6773 78.8988 42.2447 79.0582 41.8703 79.1669Z" fill="#001E2E"/>
<path fill-rule="evenodd" clip-rule="evenodd" d="M43.1579 70.1765C46.1596 65.505 49.8493 61.7675 53.6439 58.7991C53.7947 58.6811 53.9456 58.5644 54.0967 58.4489C54.0675 58.6373 54.0372 58.8258 54.0053 59.0142C53.9544 59.315 53.8996 59.6159 53.8391 59.9168C50.4815 76.5611 43.6996 79.2753 41.2809 79.7082C41.1564 79.7305 41.0435 79.7468 40.9432 79.7586C40.9055 79.759 40.8679 79.7596 40.8303 79.7601C40.6996 79.7619 40.5691 79.7637 40.4375 79.7637C40.5104 79.733 40.6838 79.6519 40.912 79.4927C40.9211 79.4864 40.9303 79.4799 40.9396 79.4733C40.9959 79.4332 41.0553 79.3884 41.1172 79.3386C42.1882 78.4768 43.9941 76.1037 43.1579 70.1765ZM41.8717 79.1668C42.1482 78.8674 42.4358 78.484 42.7011 77.9968C43.5082 76.5142 44.0858 74.111 43.566 70.2668C46.4354 65.8347 49.9312 62.253 53.5435 59.3775C53.5153 59.5316 53.4859 59.6855 53.455 59.8393C51.6989 68.5446 49.0106 73.3708 46.5474 76.0447C44.726 78.022 43.0172 78.834 41.8717 79.1668Z" fill="#001E2E"/>
<path d="M40.3963 75.1797C39.6003 73.4706 38.6719 71.7875 37.6367 70.1764C38.0266 67.4112 38.9554 64.1656 40.3963 60.5304C41.8372 64.1656 42.766 67.4112 43.1559 70.1764C42.1207 71.7875 41.1923 73.4706 40.3963 75.1797Z" fill="#001E2E" fill-opacity="0.9"/>
<path d="M40.3963 75.1797C39.6003 73.4706 38.6719 71.7875 37.6367 70.1764C38.0266 67.4112 38.9554 64.1656 40.3963 60.5304C41.8372 64.1656 42.766 67.4112 43.1559 70.1764C42.1207 71.7875 41.1923 73.4706 40.3963 75.1797Z" fill="#001E2E" fill-opacity="0.7"/>
<path fill-rule="evenodd" clip-rule="evenodd" d="M38.0454 70.0879C38.406 67.6336 39.1939 64.7883 40.3963 61.6145C41.5987 64.7883 42.3866 67.6336 42.7472 70.0879C41.8839 71.4416 41.0954 72.8447 40.3963 74.2709C39.6973 72.8447 38.9087 71.4416 38.0454 70.0879ZM40.1791 74.7208C39.4331 73.1695 38.5792 71.6431 37.6367 70.1764C38.0073 67.548 38.8648 64.4856 40.1861 61.0672C40.2549 60.8893 40.325 60.7103 40.3963 60.5304C40.4676 60.7103 40.5377 60.8893 40.6065 61.0672C41.9278 64.4856 42.7853 67.548 43.1559 70.1764C42.2135 71.6431 41.3596 73.1695 40.6135 74.7208C40.54 74.8736 40.4676 75.0265 40.3963 75.1797C40.325 75.0265 40.2526 74.8736 40.1791 74.7208Z" fill="#001E2E"/>
<path fill-rule="evenodd" clip-rule="evenodd" d="M38.0454 70.0879C38.406 67.6336 39.1939 64.7883 40.3963 61.6145C41.5987 64.7883 42.3866 67.6336 42.7472 70.0879C41.8843 71.4412 41.0955 72.8446 40.3963 74.2709C39.6973 72.8447 38.9087 71.4416 38.0454 70.0879ZM40.1791 74.7208C39.4331 73.1695 38.5792 71.6431 37.6367 70.1764C38.0073 67.548 38.8648 64.4856 40.1861 61.0672C40.2549 60.8893 40.325 60.7103 40.3963 60.5304C40.4676 60.7103 40.5377 60.8893 40.6065 61.0672C41.9278 64.4856 42.7853 67.548 43.1559 70.1764C42.2138 71.6427 41.3596 73.1694 40.6135 74.7208C40.54 74.8736 40.4676 75.0265 40.3963 75.1797C40.325 75.0265 40.2526 74.8736 40.1791 74.7208Z" fill="#001E2E"/>
<path fill-rule="evenodd" clip-rule="evenodd" d="M38.0454 70.0879C38.406 67.6336 39.1939 64.7883 40.3963 61.6145C41.5987 64.7883 42.3866 67.6336 42.7472 70.0879C41.8843 71.4412 41.0955 72.8446 40.3963 74.2709C39.6973 72.8447 38.9087 71.4416 38.0454 70.0879ZM40.1791 74.7208C39.4331 73.1695 38.5792 71.6431 37.6367 70.1764C38.0073 67.548 38.8648 64.4856 40.1861 61.0672C40.2549 60.8893 40.325 60.7103 40.3963 60.5304C40.4676 60.7103 40.5377 60.8893 40.6065 61.0672C41.9278 64.4856 42.7853 67.548 43.1559 70.1764C42.2138 71.6427 41.3596 73.1694 40.6135 74.7208C40.54 74.8736 40.4676 75.0265 40.3963 75.1797C40.325 75.0265 40.2526 74.8736 40.1791 74.7208Z" fill="#001E2E"/>
<path d="M40.3585 79.7637C39.9648 79.5974 36.5459 77.9186 37.6381 70.1761C38.6733 71.7871 39.6017 73.4702 40.3977 75.1794C41.1937 73.4702 42.1225 71.7867 43.1573 70.1761C44.2495 77.9178 40.8306 79.5974 40.4368 79.7637H40.3977H40.3585Z" fill="#001E2E" fill-opacity="0.6"/>
<path fill-rule="evenodd" clip-rule="evenodd" d="M40.3585 79.7637C39.9753 79.6019 36.7266 78.0073 37.56 70.7843C37.5829 70.5858 37.6089 70.3831 37.6381 70.1761C37.7484 70.3477 37.8575 70.5202 37.9654 70.6935C38.779 72.0004 39.5218 73.3507 40.1805 74.7205C40.2539 74.8732 40.3263 75.0262 40.3977 75.1794C40.469 75.0262 40.5414 74.8732 40.6149 74.7205C41.2736 73.3507 42.0167 72.0002 42.83 70.6935C42.9379 70.5203 43.047 70.3478 43.1573 70.1761C43.1865 70.3831 43.2125 70.5858 43.2354 70.7843C44.0688 78.0065 40.8201 79.6019 40.4368 79.7637H40.3585ZM40.3977 79.3485C40.1077 79.1967 39.3897 78.7328 38.7852 77.6235C38.1402 76.4398 37.606 74.4874 37.8971 71.3311C38.6885 72.6367 39.408 73.9826 40.0424 75.3448L40.3977 76.1076L40.7529 75.3448C41.3873 73.9827 42.107 72.6366 42.8983 71.3312C43.1893 74.487 42.6552 76.4394 42.0102 77.6232C41.4057 78.7326 40.6876 79.1967 40.3977 79.3485Z" fill="#001E2E"/>
<path d="M40.3585 79.7637C39.9648 79.5974 36.5459 77.9186 37.6381 70.1761C38.6733 71.7871 39.6017 73.4702 40.3977 75.1794C41.1937 73.4702 42.1225 71.7867 43.1573 70.1761C44.2495 77.9182 40.8306 79.5974 40.4368 79.7637C40.4262 79.7637 40.3977 79.7637 40.3977 79.7637H40.3585Z" fill="#001E2E" fill-opacity="0.6"/>
<path fill-rule="evenodd" clip-rule="evenodd" d="M40.3585 79.7637C39.9753 79.6019 36.7266 78.0073 37.56 70.7843C37.5829 70.5858 37.6089 70.3831 37.6381 70.1761C37.7484 70.3477 37.8575 70.5202 37.9654 70.6935C38.7789 72.0004 39.5217 73.3507 40.1805 74.7205C40.2539 74.8732 40.3263 75.0262 40.3977 75.1794C40.469 75.0262 40.5414 74.8732 40.6149 74.7205C41.2736 73.3507 42.0166 72.0002 42.83 70.6935C42.9379 70.5203 43.047 70.3478 43.1573 70.1761C43.1865 70.3831 43.2125 70.5858 43.2354 70.7843C44.0688 78.0069 40.82 79.6019 40.4368 79.7637H40.3585ZM40.3977 79.3485C40.1077 79.1967 39.3897 78.7328 38.7852 77.6235C38.1402 76.4398 37.606 74.4874 37.8971 71.3311C38.6885 72.6367 39.408 73.9826 40.0424 75.3448L40.3977 76.1076L40.7529 75.3448C41.3873 73.9827 42.107 72.6366 42.8982 71.3312C43.1893 74.4872 42.6552 76.4396 42.0102 77.6233C41.4057 78.7327 40.6876 79.1967 40.3977 79.3485Z" fill="#001E2E"/>
<path d="M40.3585 79.7637C39.9648 79.5974 36.5459 77.9186 37.6381 70.1761C38.6733 71.7871 39.6017 73.4702 40.3977 75.1794C41.1937 73.4702 42.1225 71.7867 43.1573 70.1761C44.2495 77.9182 40.8306 79.5974 40.4368 79.7637C40.4262 79.7637 40.3977 79.7637 40.3977 79.7637H40.3585Z" fill="#001E2E" fill-opacity="0.6"/>
<path fill-rule="evenodd" clip-rule="evenodd" d="M40.3585 79.7637C39.9753 79.6019 36.7266 78.0073 37.56 70.7843C37.5829 70.5858 37.6089 70.3831 37.6381 70.1761C37.7484 70.3477 37.8575 70.5202 37.9654 70.6935C38.7789 72.0004 39.5217 73.3507 40.1805 74.7205C40.2539 74.8732 40.3263 75.0262 40.3977 75.1794C40.469 75.0262 40.5414 74.8732 40.6149 74.7205C41.2736 73.3507 42.0166 72.0002 42.83 70.6935C42.9379 70.5203 43.047 70.3478 43.1573 70.1761C43.1865 70.3831 43.2125 70.5858 43.2354 70.7843C44.0688 78.0069 40.82 79.6019 40.4368 79.7637H40.3585ZM40.3977 79.3485C40.1077 79.1967 39.3897 78.7328 38.7852 77.6235C38.1402 76.4398 37.606 74.4874 37.8971 71.3311C38.6885 72.6367 39.408 73.9826 40.0424 75.3448L40.3977 76.1076L40.7529 75.3448C41.3873 73.9827 42.107 72.6366 42.8982 71.3312C43.1893 74.4872 42.6552 76.4396 42.0102 77.6233C41.4057 78.7327 40.6876 79.1967 40.3977 79.3485Z" fill="#001E2E"/>
<path d="M40.437 79.7632C40.8363 79.5953 44.2492 77.9156 43.1574 70.1761C42.1537 71.7381 41.2257 73.4025 40.3978 75.1794C39.5699 73.4025 38.642 71.7381 37.6382 70.1761C36.5464 77.9156 39.9594 79.5953 40.3587 79.7632C40.3719 79.7637 40.3846 79.7637 40.3978 79.7637C40.3983 79.7637 40.4242 79.7637 40.437 79.7632Z" fill="#001E2E"/>
<path fill-rule="evenodd" clip-rule="evenodd" d="M40.615 74.7206C41.2943 73.3078 42.0369 71.9672 42.8301 70.6934C42.9383 70.5197 43.0474 70.3473 43.1574 70.1761C43.1866 70.3831 43.2126 70.5858 43.2355 70.7842C44.0688 78.0044 40.8256 79.5998 40.437 79.7632C40.4242 79.7637 40.3983 79.7637 40.3978 79.7637C40.3847 79.7637 40.3718 79.7637 40.3587 79.7632C39.9701 79.5998 36.7269 78.0044 37.5602 70.7842C37.5831 70.5858 37.609 70.3831 37.6382 70.1761C37.7483 70.3473 37.8574 70.5197 37.9655 70.6934C38.7588 71.9672 39.5014 73.3078 40.1806 74.7206C40.2538 74.8726 40.3262 75.0256 40.3978 75.1794C40.4695 75.0256 40.5419 74.8726 40.615 74.7206ZM37.8973 71.3308C38.6677 72.6012 39.3869 73.9375 40.0426 75.3449L40.3978 76.1072L40.753 75.3449C41.4088 73.9375 42.128 72.6012 42.8984 71.3308C43.1896 74.486 42.6565 76.438 42.0122 77.6217C41.4073 78.7327 40.6882 79.1967 40.3978 79.3482C40.1075 79.1967 39.3883 78.7327 38.7835 77.6217C38.1391 76.438 37.6061 74.486 37.8973 71.3308Z" fill="#001E2E"/>
<path d="M45.8828 79.3496C47.6932 78.6609 49.6517 77.5118 51.7042 75.9352C54.2169 74.0058 56.8914 71.4166 59.6539 68.24C59.9574 67.8914 60.2758 67.5091 60.6274 67.0709C61.6192 69.1687 61.9385 71.0364 61.5758 72.6227C56.9667 76.1492 51.5403 78.4755 45.8828 79.3496Z" fill="#001E2E" fill-opacity="0.8"/>
<path fill-rule="evenodd" clip-rule="evenodd" d="M51.9429 76.2461C54.4818 74.2964 57.1752 71.6874 59.9496 68.4972L59.6539 68.24L59.9495 68.4973C59.9496 68.4973 59.9496 68.4972 59.9496 68.4972C60.1364 68.2826 60.3284 68.0559 60.5297 67.8121C60.4738 67.6792 60.4149 67.5452 60.3529 67.4099C60.4423 67.3006 60.5337 67.1877 60.6274 67.0709C60.6908 67.2049 60.7514 67.3379 60.8092 67.4699C61.6572 69.4061 61.9153 71.1377 61.5758 72.6227C57.418 75.8039 52.5951 78.0084 47.5374 79.0513C46.9884 79.1645 46.4367 79.264 45.8828 79.3496C46.3806 79.1602 46.8896 78.936 47.4087 78.6777M51.9429 76.2461C50.8819 77.061 49.8422 77.7657 48.8312 78.3541L51.9429 76.2461ZM48.8312 78.3541C53.283 77.2392 57.5168 75.21 61.2231 72.3988C61.4836 71.0958 61.2658 69.5608 60.5297 67.8121" fill="#001E2E"/>
<path d="M45.8828 79.3496C47.6932 78.6609 49.6517 77.5118 51.7042 75.9352C54.2165 74.0058 56.8914 71.417 59.6539 68.24C59.957 67.8914 60.2758 67.5091 60.6274 67.0709C61.6192 69.1687 61.9385 71.0364 61.5758 72.6227C56.9667 76.1492 51.5403 78.4755 45.8828 79.3496Z" fill="#001E2E" fill-opacity="0.8"/>
<path fill-rule="evenodd" clip-rule="evenodd" d="M59.9497 68.4971L59.9497 68.4971C60.1361 68.2826 60.3282 68.0559 60.5296 67.812C61.2658 69.5607 61.4836 71.0958 61.2231 72.3988C57.5168 75.21 53.283 77.2392 48.8312 78.3541C49.8422 77.7657 50.8819 77.061 51.9429 76.246C54.4814 74.2964 57.1751 71.6879 59.9497 68.4971ZM47.4087 78.6777C48.7774 77.9966 50.2161 77.0783 51.7042 75.9352C54.2165 74.0058 56.8914 71.417 59.6539 68.24C59.8762 67.9843 60.107 67.7105 60.3529 67.4098C60.4423 67.3005 60.5337 67.1877 60.6274 67.0709C60.6908 67.2049 60.7514 67.3379 60.8092 67.4699C61.6572 69.4061 61.9153 71.1377 61.5758 72.6227C57.418 75.8039 52.5951 78.0084 47.5374 79.0513C46.9884 79.1645 46.4367 79.264 45.8828 79.3496C46.3806 79.1602 46.8896 78.936 47.4087 78.6777Z" fill="#001E2E"/>
<path fill-rule="evenodd" clip-rule="evenodd" d="M59.9497 68.4971L59.9497 68.4971C60.1361 68.2826 60.3282 68.0559 60.5296 67.812C61.2658 69.5607 61.4836 71.0958 61.2231 72.3988C57.5168 75.21 53.283 77.2392 48.8312 78.3541C49.8422 77.7657 50.8819 77.061 51.9429 76.246C54.4814 74.2964 57.1751 71.6879 59.9497 68.4971ZM47.4087 78.6777C48.7774 77.9966 50.2161 77.0783 51.7042 75.9352C54.2165 74.0058 56.8914 71.417 59.6539 68.24C59.8762 67.9843 60.107 67.7105 60.3529 67.4098C60.4423 67.3005 60.5337 67.1877 60.6274 67.0709C60.6908 67.2049 60.7514 67.3379 60.8092 67.4699C61.6572 69.4061 61.9153 71.1377 61.5758 72.6227C57.418 75.8039 52.5951 78.0084 47.5374 79.0513C46.9884 79.1645 46.4367 79.264 45.8828 79.3496C46.3806 79.1602 46.8896 78.936 47.4087 78.6777Z" fill="#001E2E"/>
</g>
<path d="M26.6035 23.1519C26.6035 22.0174 27.5232 21.0977 28.6577 21.0977C29.7922 21.0977 30.7119 22.0174 30.7119 23.1519V29.6917C30.7119 30.8262 29.7922 31.7459 28.6577 31.7459C27.5232 31.7459 26.6035 30.8262 26.6035 29.6917V23.1519Z" fill="#001E2E"/>
<path d="M48.1484 23.1519C48.1484 22.0174 49.0681 21.0977 50.2026 21.0977C51.3371 21.0977 52.2568 22.0174 52.2568 23.1519V29.6917C52.2568 30.8262 51.3371 31.7459 50.2026 31.7459C49.0681 31.7459 48.1484 30.8262 48.1484 29.6917V23.1519Z" fill="#001E2E"/>
<path d="M80.6465 40.1801C80.6465 50.0924 69.131 41.3373 66.0784 60.2121C63.0258 79.0869 47.4015 67.7618 37.0579 60.2121C26.7144 52.6624 24.6997 75.6296 15.805 62.5912C6.91026 49.5528 -0.792559 71.7593 1.36692 40.1801C3.52641 8.60094 29.7959 -1.52073 41.0067 0.180074C61.6142 3.30644 76.889 18.2426 80.6465 40.1801Z" fill="#001E2E" fill-opacity="0.4"/>
<path fill-rule="evenodd" clip-rule="evenodd" d="M41.0067 0.180074L40.7067 2.15745C35.7387 1.40374 26.9013 3.28588 19.0032 9.29207C11.2069 15.2209 4.40121 25.1236 3.36226 40.3165C2.82081 48.2346 2.92641 52.498 3.41532 54.7457C3.65647 55.8543 3.93378 56.1815 4.00747 56.2505C4.00789 56.2509 4.00843 56.2515 4.00914 56.2523C4.021 56.266 4.08089 56.335 4.45911 56.3385C4.83483 56.342 5.22579 56.2878 5.80613 56.2074C6.01186 56.1789 6.24138 56.1471 6.50245 56.1134C7.39825 55.9978 8.51752 55.8905 9.74368 56.0455C12.3548 56.3755 14.9745 57.8249 17.4571 61.4641C19.6132 64.6246 20.784 64.7231 21.1737 64.674C21.4706 64.6367 21.8854 64.4681 22.476 64.0044C23.0683 63.5395 23.6866 62.9007 24.4148 62.1074C24.5492 61.961 24.6882 61.8078 24.8319 61.6495C26.1107 60.2403 27.7572 58.426 29.7326 57.4421C30.9093 56.856 32.2572 56.5239 33.7643 56.6941C35.2538 56.8624 36.7388 57.5031 38.2371 58.5966C40.8315 60.4903 43.6861 62.5677 46.5761 64.3487C49.4835 66.1405 52.2975 67.5494 54.7941 68.1827C57.2825 68.8139 59.1562 68.6077 60.545 67.6114C61.9771 66.5841 63.3791 64.3753 64.1041 59.8928C64.9009 54.9657 66.2823 51.6326 68.0493 49.3042C69.8404 46.9439 71.903 45.7821 73.7135 44.9994C74.1708 44.8017 74.7557 44.5724 75.2603 44.3747C75.5824 44.2484 75.8717 44.135 76.0742 44.0508C76.7548 43.7679 77.2264 43.5247 77.5793 43.253C78.0862 42.8626 78.6163 42.2336 78.6452 40.3445C74.9777 19.3202 60.3765 5.14156 40.7067 2.15745L41.0067 0.180074ZM80.6465 40.1801C80.6465 44.4238 78.5358 45.246 75.8821 46.2796C72.3375 47.6602 67.8241 49.4181 66.0784 60.2121C63.0258 79.0869 47.4015 67.7618 37.0579 60.2121C32.1285 56.6141 29.0907 59.9472 26.2984 63.0109C23.2315 66.3758 20.4607 69.4159 15.805 62.5912C12.2185 57.3339 8.82582 57.8068 6.1953 58.1735C2.30192 58.7162 0.078174 59.0261 1.36692 40.1801C3.52641 8.60094 29.7959 -1.52073 41.0067 0.180074C61.6142 3.30644 76.889 18.2426 80.6465 40.1801Z" fill="#001E2E"/>
</g>
<defs>
<clipPath id="clip0_1784_50512">
<rect width="80" height="80" fill="white" transform="translate(0.5)"/>
</clipPath>
</defs>
</svg>
