<svg width="81" height="80" viewBox="0 0 81 80" fill="none" xmlns="http://www.w3.org/2000/svg">
<g clip-path="url(#clip0_1764_52017)">
<g opacity="0.5">
<path d="M18.7178 72.8594C16.8522 71.4328 15.1231 69.8115 13.5786 68.0398C12.0284 66.2621 10.6544 64.322 9.49483 62.274C7.09228 58.0307 5.62965 53.4156 5.14746 48.5573C5.17202 48.5624 7.64825 49.0956 11.3054 50.4825C13.1229 57.0035 15.9358 62.6644 19.6659 67.308C18.6742 69.4054 18.3552 71.273 18.7178 72.8594Z" fill="#B6C9D8" fill-opacity="0.4"/>
<path fill-rule="evenodd" clip-rule="evenodd" d="M13.874 67.7823L13.8739 67.7822C12.3411 66.0244 10.9824 64.1059 9.83583 62.0809C7.55074 58.045 6.12578 53.6699 5.59615 49.0667C5.88015 49.1378 6.27198 49.2405 6.75689 49.3786C7.79045 49.6729 9.24628 50.1276 10.9816 50.7791C12.7881 57.1756 15.553 62.7549 19.2085 67.3631C18.4585 69.0148 18.1082 70.5549 18.1936 71.9481C16.6387 70.6884 15.1887 69.2904 13.874 67.7823ZM18.2509 72.496C16.5632 71.1596 14.9935 69.6628 13.5786 68.0398C12.0284 66.2621 10.6544 64.322 9.49483 62.274C7.16019 58.1506 5.71309 53.6762 5.1907 48.9687C5.1755 48.8317 5.16109 48.6946 5.14746 48.5573C5.15321 48.5585 5.29311 48.5886 5.5509 48.6517C6.39513 48.8586 8.50374 49.42 11.3054 50.4825C13.1229 57.0035 15.9358 62.6644 19.6659 67.308C18.7912 69.158 18.4398 70.8292 18.6179 72.2864C18.6417 72.4812 18.675 72.6723 18.7178 72.8594C18.5612 72.7396 18.4055 72.6185 18.2509 72.496Z" fill="#B6C9D8"/>
<path d="M18.7178 72.8594C16.8522 71.4328 15.1231 69.8115 13.5786 68.0398C12.0284 66.2621 10.6544 64.322 9.49483 62.274C7.09233 58.0307 5.62965 53.4156 5.14746 48.5573C5.17215 48.5624 7.65697 49.099 11.3054 50.4825C13.1229 57.0035 15.9358 62.6644 19.6659 67.308C18.6742 69.4054 18.3552 71.2734 18.7178 72.8594Z" fill="#B6C9D8" fill-opacity="0.4"/>
<path fill-rule="evenodd" clip-rule="evenodd" d="M13.874 67.7823L13.8739 67.7822C12.3411 66.0244 10.9824 64.1059 9.83583 62.0809C7.55081 58.045 6.12582 53.67 5.59617 49.0669C5.88094 49.1383 6.27399 49.2414 6.76017 49.3799C7.79473 49.6746 9.25042 50.1292 10.9816 50.7792C12.7881 57.1756 15.5529 62.7549 19.2085 67.3631C18.4585 69.0148 18.1082 70.555 18.1936 71.9481C16.6387 70.6884 15.1887 69.2904 13.874 67.7823ZM18.2509 72.496C16.5632 71.1596 14.9935 69.6628 13.5786 68.0398C12.0284 66.2621 10.6544 64.322 9.49483 62.274C7.16024 58.1506 5.7131 53.6763 5.1907 48.9687C5.17551 48.8318 5.16109 48.6946 5.14746 48.5573C5.15323 48.5585 5.29322 48.5887 5.55091 48.6519C6.39645 48.8593 8.50917 49.4221 11.3054 50.4825C13.1229 57.0035 15.9358 62.6644 19.6659 67.308C18.7912 69.1579 18.4399 70.8295 18.6179 72.2863C18.6417 72.4812 18.675 72.6723 18.7178 72.8594C18.5612 72.7396 18.4055 72.6185 18.2509 72.496Z" fill="#B6C9D8"/>
<path d="M18.7178 72.8594C16.8522 71.4328 15.1231 69.8115 13.5786 68.0398C12.0284 66.2621 10.6544 64.322 9.49483 62.274C7.09233 58.0307 5.62965 53.4156 5.14746 48.5573C5.17215 48.5624 7.65697 49.099 11.3054 50.4825C13.1229 57.0035 15.9358 62.6644 19.6659 67.308C18.6742 69.4054 18.3552 71.2734 18.7178 72.8594Z" fill="#B6C9D8" fill-opacity="0.4"/>
<path fill-rule="evenodd" clip-rule="evenodd" d="M13.874 67.7823L13.8739 67.7822C12.3411 66.0244 10.9824 64.1059 9.83583 62.0809C7.55081 58.045 6.12582 53.67 5.59617 49.0669C5.88094 49.1383 6.27399 49.2414 6.76017 49.3799C7.79473 49.6746 9.25042 50.1292 10.9816 50.7792C12.7881 57.1756 15.5529 62.7549 19.2085 67.3631C18.4585 69.0148 18.1082 70.555 18.1936 71.9481C16.6387 70.6884 15.1887 69.2904 13.874 67.7823ZM18.2509 72.496C16.5632 71.1596 14.9935 69.6628 13.5786 68.0398C12.0284 66.2621 10.6544 64.322 9.49483 62.274C7.16024 58.1506 5.7131 53.6763 5.1907 48.9687C5.17551 48.8318 5.16109 48.6946 5.14746 48.5573C5.15323 48.5585 5.29322 48.5887 5.55091 48.6519C6.39645 48.8593 8.50917 49.4221 11.3054 50.4825C13.1229 57.0035 15.9358 62.6644 19.6659 67.308C18.7912 69.1579 18.4399 70.8295 18.6179 72.2863C18.6417 72.4812 18.675 72.6723 18.7178 72.8594C18.5612 72.7396 18.4055 72.6185 18.2509 72.496Z" fill="#B6C9D8"/>
<path fill-rule="evenodd" clip-rule="evenodd" d="M5.55088 48.6515C5.28754 48.5871 5.14746 48.5573 5.14746 48.5573C5.16109 48.6946 5.17552 48.8317 5.19073 48.9686C6.24894 58.4885 11.125 66.8539 18.2506 72.4959C18.4053 72.6183 18.561 72.7395 18.7178 72.8594C18.6746 72.6706 18.6413 72.4795 18.6175 72.286C18.4273 70.7423 18.8402 69.0544 19.6659 67.308C15.4397 62.0468 12.8632 56.0722 11.3054 50.4825C8.49416 49.4163 6.39271 48.8573 5.55088 48.6515ZM5.59619 49.0664C6.65923 58.2858 11.3452 66.4007 18.1928 71.9475C18.1015 70.4829 18.4964 68.9307 19.2085 67.3631C15.0786 62.1572 12.536 56.2831 10.9816 50.7791C9.23009 50.1214 7.76804 49.6654 6.73534 49.372C6.25999 49.2369 5.87572 49.1363 5.59619 49.0664Z" fill="#B6C9D8"/>
<path d="M74.6425 48.5568C74.6425 48.5568 72.1754 49.0824 68.4849 50.482C66.9269 56.0718 64.3504 62.0468 60.124 67.3076C61.0532 69.2728 61.4597 71.1643 61.0719 72.8594C68.5555 67.1366 73.6605 58.4547 74.6425 48.5568Z" fill="#B6C9D8" fill-opacity="0.3"/>
<path d="M74.6425 48.5568C74.6425 48.5568 72.1754 49.0824 68.4849 50.482C66.9269 56.0718 64.3504 62.0468 60.124 67.3076C61.0532 69.2728 61.4597 71.1643 61.0719 72.8594C68.5555 67.1366 73.6605 58.4547 74.6425 48.5568Z" fill="#B6C9D8" fill-opacity="0.3"/>
<path d="M74.6425 48.5568C74.6425 48.5568 72.1754 49.0824 68.4849 50.482C66.9269 56.0718 64.3504 62.0468 60.124 67.3076C61.0532 69.2728 61.4597 71.1643 61.0719 72.8594C68.5555 67.1366 73.6605 58.4547 74.6425 48.5568Z" fill="#B6C9D8" fill-opacity="0.3"/>
<path d="M74.6425 48.5568C74.6425 48.5568 72.1754 49.0824 68.4849 50.482C66.9269 56.0718 64.3504 62.0468 60.124 67.3076C61.0532 69.2728 61.4597 71.1643 61.0719 72.8594C68.5555 67.1366 73.6605 58.4547 74.6425 48.5568Z" fill="#B6C9D8" fill-opacity="0.3"/>
<path d="M74.6425 48.5568C74.6425 48.5568 72.1754 49.0824 68.4849 50.482C66.9269 56.0718 64.3504 62.0468 60.124 67.3076C61.0532 69.2728 61.4597 71.1643 61.0719 72.8594C68.5555 67.1366 73.6605 58.4547 74.6425 48.5568Z" fill="#B6C9D8" fill-opacity="0.3"/>
<path d="M74.6425 48.5568C74.6425 48.5568 72.1754 49.0824 68.4849 50.482C66.9269 56.0718 64.3504 62.0468 60.124 67.3076C61.0532 69.2728 61.4597 71.1643 61.0719 72.8594C68.5555 67.1366 73.6605 58.4547 74.6425 48.5568Z" fill="#B6C9D8" fill-opacity="0.3"/>
<path fill-rule="evenodd" clip-rule="evenodd" d="M60.7601 73.3438L61.1912 73.0141C68.7164 67.2596 73.8502 58.5291 74.8378 48.5753L74.8643 48.3084L74.602 48.3643L74.6428 48.556C74.602 48.3643 74.602 48.3643 74.602 48.3643L74.6018 48.3644L74.5998 48.3648L74.5941 48.366L74.5719 48.3709C74.5525 48.3752 74.5237 48.3816 74.4858 48.3903C74.4102 48.4076 74.2983 48.4339 74.1528 48.4697C73.8617 48.5413 73.4358 48.6514 72.8944 48.8052C71.8116 49.1129 70.2668 49.5959 68.4156 50.2979L68.323 50.3331L68.2964 50.4285C66.7435 56.0001 64.1771 61.9492 59.9715 67.1839L59.8947 67.2796L59.9471 67.3904C60.8668 69.3357 61.2552 71.1799 60.8812 72.8148L60.7601 73.3438ZM74.4198 48.8082C73.3968 58.3589 68.5106 66.7511 61.3565 72.3897C61.5735 70.8062 61.167 69.0893 60.3534 67.334C64.5313 62.1007 67.0909 56.1761 68.6471 50.6294C70.4455 49.9507 71.9461 49.482 73.0015 49.1822C73.5382 49.0297 73.9596 48.9208 74.2465 48.8502C74.3112 48.8343 74.369 48.8203 74.4198 48.8082Z" fill="#B6C9D8"/>
<path d="M34.4107 79.5859C28.7537 78.7114 23.3272 76.3851 18.7178 72.8582C18.3553 71.2718 18.6743 69.4042 19.666 67.3068C20.0175 67.7441 20.3361 68.1268 20.6399 68.4763C23.4025 71.6529 26.077 74.2417 28.5893 76.1711C30.6418 77.7477 32.6005 78.8968 34.4107 79.5859Z" fill="#B6C9D8" fill-opacity="0.8"/>
<path fill-rule="evenodd" clip-rule="evenodd" d="M20.3442 68.7335L20.3442 68.7335C23.1187 71.9238 25.8121 74.5323 28.3506 76.4819L28.5888 76.1718L28.3506 76.4819C29.4118 77.297 30.4516 78.0018 31.4628 78.5903C27.0111 77.4752 22.7771 75.4459 19.0706 72.6343C18.8101 71.3312 19.0278 69.7961 19.7639 68.0477C19.9652 68.2914 20.1573 68.5185 20.3442 68.7335ZM19.9406 67.6455C19.8512 67.5362 19.7598 67.4235 19.666 67.3068C19.6027 67.4407 19.5421 67.5737 19.4843 67.7057C18.6364 69.6415 18.3785 71.3731 18.7178 72.8582C22.876 76.0399 27.6991 78.2444 32.7567 79.2876C33.3054 79.4008 33.857 79.5003 34.4107 79.5859C33.9131 79.3965 33.4042 79.1723 32.8853 78.914C31.5165 78.2327 30.0776 77.3143 28.5893 76.1711C26.077 74.2417 23.4025 71.6529 20.6399 68.4763C20.4171 68.2201 20.1864 67.9459 19.9406 67.6455Z" fill="#B6C9D8"/>
<path d="M34.4107 79.5859C28.7537 78.7114 23.3272 76.3851 18.7178 72.8582C18.3553 71.2723 18.6743 69.4042 19.666 67.3068C20.0178 67.7445 20.3364 68.1273 20.6399 68.4763C23.4025 71.6529 26.0771 74.2417 28.5893 76.1711C30.6419 77.7481 32.6005 78.8968 34.4107 79.5859Z" fill="#B6C9D8" fill-opacity="0.8"/>
<path fill-rule="evenodd" clip-rule="evenodd" d="M19.0706 72.6343C18.8101 71.3315 19.0278 69.7962 19.7639 68.0477C19.9653 68.2916 20.1574 68.5187 20.3442 68.7335C23.1188 71.9238 25.8122 74.5323 28.3506 76.4819L28.5893 76.1711L28.3506 76.4819C29.4117 77.2971 30.4514 78.0018 31.4624 78.5902C27.0109 77.475 22.777 75.4458 19.0706 72.6343ZM32.7565 79.2876C27.6991 78.2444 22.876 76.0398 18.7178 72.8582C18.3785 71.3735 18.6364 69.6416 19.4843 67.7057C19.5421 67.5737 19.6027 67.4407 19.666 67.3068C19.7598 67.4235 19.8512 67.5363 19.9406 67.6456C20.1866 67.9462 20.4173 68.2203 20.6399 68.4763M34.4107 79.5859C33.8569 79.5003 33.3053 79.4008 32.7565 79.2876L34.4107 79.5859ZM32.8851 78.9139C33.4041 79.1722 33.913 79.3965 34.4107 79.5859L32.8851 78.9139Z" fill="#B6C9D8"/>
<path fill-rule="evenodd" clip-rule="evenodd" d="M19.0706 72.6343C18.8101 71.3315 19.0278 69.7962 19.7639 68.0477C19.9653 68.2916 20.1574 68.5187 20.3442 68.7335C23.1188 71.9238 25.8122 74.5323 28.3506 76.4819L28.5893 76.1711L28.3506 76.4819C29.4117 77.2971 30.4514 78.0018 31.4624 78.5902C27.0109 77.475 22.777 75.4458 19.0706 72.6343ZM32.7565 79.2876C27.6991 78.2444 22.876 76.0398 18.7178 72.8582C18.3785 71.3735 18.6364 69.6416 19.4843 67.7057C19.5421 67.5737 19.6027 67.4407 19.666 67.3068C19.7598 67.4235 19.8512 67.5363 19.9406 67.6456C20.1866 67.9462 20.4173 68.2203 20.6399 68.4763M34.4107 79.5859C33.8569 79.5003 33.3053 79.4008 32.7565 79.2876L34.4107 79.5859ZM32.8851 78.9139C33.4041 79.1722 33.913 79.3965 34.4107 79.5859L32.8851 78.9139Z" fill="#B6C9D8"/>
<path d="M26.1895 58.6777C20.7139 54.4923 15.0737 51.9108 11.3063 50.4817C9.75418 44.9128 9.07039 39.5626 8.77013 36.0549C8.44534 32.2612 8.48697 29.7389 8.48744 29.7137C8.51226 29.727 11.0081 31.0717 14.5228 33.3728C17.7721 35.5004 22.5885 38.908 27.0813 43.0593C25.745 48.568 25.4472 53.8206 26.1962 58.6709L26.1895 58.6777Z" fill="#B6C9D8" fill-opacity="0.2"/>
<path fill-rule="evenodd" clip-rule="evenodd" d="M11.6311 50.1861C10.1249 44.7172 9.45618 39.4747 9.16058 36.0215L8.77017 36.0549L9.16058 36.0215C8.99893 34.1333 8.92851 32.562 8.89855 31.4605C8.88663 31.0223 8.88112 30.6585 8.87881 30.3789C9.16042 30.5376 9.53843 30.7537 9.99814 31.0233C11.0599 31.6461 12.557 32.5541 14.3082 33.7006C17.5068 35.7951 22.224 39.1308 26.6465 43.1915C25.4285 48.3141 25.1014 53.2247 25.6791 57.8049C20.4928 53.9845 15.2453 51.5709 11.6311 50.1861ZM25.7519 58.3469C20.4149 54.3557 14.9734 51.8728 11.3063 50.4817C9.75418 44.9128 9.07039 39.5626 8.77013 36.0549C8.5245 33.1858 8.48845 31.0439 8.48566 30.1594C8.48477 29.8743 8.48733 29.7199 8.48744 29.7137C8.49314 29.7168 8.62903 29.79 8.87755 29.9288C9.71172 30.3947 11.8148 31.5998 14.5228 33.3728C17.7721 35.5004 22.5885 38.908 27.0813 43.0593C25.7944 48.3643 25.4707 53.4318 26.1174 58.1312C26.1422 58.3111 26.1684 58.4905 26.196 58.6693C26.1961 58.6698 26.1961 58.6704 26.1962 58.6709L26.1895 58.6777C26.1874 58.6761 26.1853 58.6745 26.1832 58.6729C26.0396 58.5632 25.8958 58.4545 25.7519 58.3469Z" fill="#B6C9D8"/>
<path d="M26.1896 58.6777C20.7139 54.4923 15.0737 51.9108 11.3064 50.4817C9.75424 44.9128 9.07045 39.5626 8.77019 36.0549C8.44481 32.2544 8.48703 29.7389 8.4875 29.7137C8.51223 29.727 11.0023 31.0678 14.5229 33.3728C17.7722 35.5004 22.5886 38.908 27.0814 43.0593C25.745 48.5684 25.4473 53.8211 26.1963 58.6709L26.1896 58.6777Z" fill="#B6C9D8" fill-opacity="0.2"/>
<path fill-rule="evenodd" clip-rule="evenodd" d="M11.6311 50.1861C10.1249 44.7172 9.45624 39.4747 9.16064 36.0215L8.82545 36.0502L9.16064 36.0215C8.99869 34.1299 8.92827 32.5585 8.89839 31.4579C8.88652 31.0207 8.88105 30.6578 8.87877 30.3787C9.15986 30.5371 9.53711 30.7528 9.99602 31.0219C11.057 31.6441 12.5541 32.5522 14.3082 33.7006C17.5068 35.7951 22.224 39.1308 26.6466 43.1916C25.4285 48.3144 25.1015 53.2251 25.6792 57.8048C20.4929 53.9845 15.2454 51.5709 11.6311 50.1861ZM25.752 58.3469C20.415 54.3557 14.9735 51.8728 11.3064 50.4817C9.75424 44.9128 9.07045 39.5626 8.77019 36.0549C8.52419 33.1816 8.48831 31.0428 8.48565 30.1593C8.48479 29.8742 8.48739 29.7199 8.4875 29.7137C8.49318 29.7168 8.62901 29.7899 8.87757 29.9287C9.71085 30.394 11.8112 31.5974 14.5229 33.3728C17.7722 35.5004 22.5886 38.908 27.0814 43.0593C25.7945 48.3647 25.4707 53.4322 26.1175 58.1312C26.1423 58.3111 26.1684 58.4905 26.196 58.6693C26.1961 58.6698 26.1962 58.6704 26.1963 58.6709L26.1896 58.6777C26.1875 58.6761 26.1854 58.6745 26.1833 58.6729C26.0396 58.5632 25.8959 58.4545 25.752 58.3469Z" fill="#B6C9D8"/>
<path d="M26.1896 58.6777C20.7139 54.4923 15.0737 51.9108 11.3064 50.4817C9.75424 44.9128 9.07045 39.5626 8.77019 36.0549C8.44481 32.2544 8.48703 29.7389 8.4875 29.7137C8.51223 29.727 11.0023 31.0678 14.5229 33.3728C17.7722 35.5004 22.5886 38.908 27.0814 43.0593C25.745 48.5684 25.4473 53.8211 26.1963 58.6709L26.1896 58.6777Z" fill="#B6C9D8" fill-opacity="0.2"/>
<path fill-rule="evenodd" clip-rule="evenodd" d="M11.6311 50.1861C10.1249 44.7172 9.45624 39.4747 9.16064 36.0215L8.82545 36.0502L9.16064 36.0215C8.99869 34.1299 8.92827 32.5585 8.89839 31.4579C8.88652 31.0207 8.88105 30.6578 8.87877 30.3787C9.15986 30.5371 9.53711 30.7528 9.99602 31.0219C11.057 31.6441 12.5541 32.5522 14.3082 33.7006C17.5068 35.7951 22.224 39.1308 26.6466 43.1916C25.4285 48.3144 25.1015 53.2251 25.6792 57.8048C20.4929 53.9845 15.2454 51.5709 11.6311 50.1861ZM25.752 58.3469C20.415 54.3557 14.9735 51.8728 11.3064 50.4817C9.75424 44.9128 9.07045 39.5626 8.77019 36.0549C8.52419 33.1816 8.48831 31.0428 8.48565 30.1593C8.48479 29.8742 8.48739 29.7199 8.4875 29.7137C8.49318 29.7168 8.62901 29.7899 8.87757 29.9287C9.71085 30.394 11.8112 31.5974 14.5229 33.3728C17.7722 35.5004 22.5886 38.908 27.0814 43.0593C25.7945 48.3647 25.4707 53.4322 26.1175 58.1312C26.1423 58.3111 26.1684 58.4905 26.196 58.6693C26.1961 58.6698 26.1962 58.6704 26.1963 58.6709L26.1896 58.6777C26.1875 58.6761 26.1854 58.6745 26.1833 58.6729C26.0396 58.5632 25.8959 58.4545 25.752 58.3469Z" fill="#B6C9D8"/>
<path d="M26.1965 58.6709C25.3739 53.3446 25.8771 48.025 27.0816 43.0593C18.3842 35.0231 8.48773 29.7137 8.48773 29.7137C8.48773 29.7137 8.30188 39.7007 11.3066 50.4817C15.3439 52.0131 20.8453 54.5929 26.1897 58.6777C26.192 58.6756 26.1943 58.6735 26.1965 58.6709Z" fill="#B6C9D8" fill-opacity="0.2"/>
<path fill-rule="evenodd" clip-rule="evenodd" d="M8.4856 30.1591C8.48485 29.8681 8.48773 29.7137 8.48773 29.7137C8.48773 29.7137 8.62365 29.7867 8.87764 29.9284C10.7909 30.9956 19.4034 35.9649 27.0816 43.0593C25.9177 47.8573 25.4087 52.9856 26.1176 58.1312C26.1423 58.3105 26.1685 58.4899 26.1962 58.6693C26.1963 58.6698 26.1964 58.6704 26.1965 58.6709C26.1943 58.6735 26.192 58.6756 26.1898 58.6777L26.1897 58.6777C26.1877 58.6761 26.1856 58.6745 26.1835 58.6729C26.0398 58.5632 25.896 58.4545 25.7522 58.3469C20.5463 54.453 15.2338 51.9713 11.3066 50.4817C8.67539 41.0409 8.49082 32.2089 8.4856 30.1591ZM8.87863 30.3782C9.15444 30.5335 9.52322 30.7441 9.97181 31.007C11.0308 31.6275 12.534 32.5389 14.3084 33.7008C17.8126 35.9952 22.368 39.2624 26.6468 43.1915C25.5407 47.8428 25.0479 52.808 25.6792 57.8047C20.617 54.0743 15.4849 51.6621 11.6313 50.1861C10.1736 44.8942 9.48474 39.8046 9.16085 36.0214C8.99702 34.1079 8.92673 32.5303 8.89738 31.4322C8.88598 31.0056 8.88076 30.6515 8.87863 30.3782Z" fill="#B6C9D8"/>
<path d="M26.1879 58.6806L26.1909 58.6778L26.1943 58.6855L26.1879 58.6806Z" fill="#B6C9D8" fill-opacity="0.2"/>
<path fill-rule="evenodd" clip-rule="evenodd" d="M26.1943 58.6855L26.1909 58.6778L26.1879 58.6806L26.1943 58.6855Z" fill="#B6C9D8"/>
<path d="M26.1879 58.6806L26.1909 58.6778L26.1943 58.6855L26.1879 58.6806Z" fill="#B6C9D8" fill-opacity="0.2"/>
<path fill-rule="evenodd" clip-rule="evenodd" d="M26.1943 58.6855L26.1909 58.6778L26.1879 58.6806L26.1943 58.6855Z" fill="#B6C9D8"/>
<path d="M26.1879 58.6806L26.1909 58.6778L26.1943 58.6855L26.1879 58.6806Z" fill="#B6C9D8" fill-opacity="0.2"/>
<path fill-rule="evenodd" clip-rule="evenodd" d="M26.1943 58.6855L26.1909 58.6778L26.1879 58.6806L26.1943 58.6855Z" fill="#B6C9D8"/>
<path d="M26.1879 58.6795C26.1906 58.6818 26.1931 58.6837 26.1957 58.6855C26.1951 58.6818 26.1945 58.6776 26.1939 58.6735C26.1919 58.6757 26.1899 58.6776 26.1879 58.6795Z" fill="#B6C9D8" fill-opacity="0.2"/>
<path fill-rule="evenodd" clip-rule="evenodd" d="M26.1879 58.6795C26.1906 58.6818 26.1931 58.6837 26.1957 58.6855C26.1951 58.6818 26.1945 58.6776 26.1939 58.6735C26.1919 58.6757 26.1899 58.6776 26.188 58.6795L26.1879 58.6795Z" fill="#B6C9D8"/>
<path d="M53.5935 58.6709C54.3422 53.8206 54.0447 48.568 52.7081 43.0588C57.201 38.9075 62.0174 35.5 65.2665 33.3723C68.7817 31.0712 71.2773 29.7265 71.302 29.7133C71.3025 29.7385 71.3442 32.2612 71.0194 36.0545C70.7193 39.5622 70.0352 44.9124 68.4833 50.4813C64.7157 51.9104 59.0756 54.4923 53.5999 58.6777L53.5935 58.6709Z" fill="#B6C9D8" fill-opacity="0.2"/>
<path fill-rule="evenodd" clip-rule="evenodd" d="M53.5935 58.6709C53.5935 58.6705 53.5936 58.6701 53.5937 58.6696C53.6213 58.4906 53.6475 58.3111 53.6723 58.131C54.3188 53.4316 53.9952 48.3642 52.7081 43.0588C57.201 38.9075 62.0174 35.5 65.2665 33.3723C67.9747 31.5995 70.0777 30.3943 70.9119 29.9284C71.1605 29.7896 71.2964 29.7164 71.302 29.7133C71.3021 29.7195 71.3047 29.8739 71.3038 30.159C71.301 31.0436 71.265 33.1857 71.0194 36.0545C70.7193 39.5622 70.0352 44.9124 68.4833 50.4813C64.8161 51.8723 59.3748 54.3556 54.0378 58.3467C53.8938 58.4543 53.75 58.563 53.6062 58.6729C53.6041 58.6745 53.602 58.6761 53.5999 58.6777L53.5935 58.6709ZM54.1106 57.8046C54.688 53.2246 54.3612 48.314 53.1429 43.1911C57.5655 39.1304 62.2828 35.7946 65.4812 33.7002C67.2326 32.5537 68.7297 31.6456 69.7915 31.0229C70.2511 30.7533 70.6291 30.5372 70.9106 30.3785C70.9025 31.361 70.8549 33.3814 70.6289 36.0211L70.6289 36.0211C70.3335 39.4743 69.6646 44.7167 68.1585 50.1857C64.5441 51.5705 59.2969 53.9843 54.1106 57.8046Z" fill="#B6C9D8"/>
<path d="M53.5935 58.6709C54.3422 53.8206 54.0447 48.568 52.7081 43.0588C57.201 38.9075 62.0174 35.5 65.2665 33.3723C68.7872 31.0674 71.2773 29.7265 71.302 29.7133C71.3024 29.7385 71.3446 32.254 71.0194 36.0545C70.7193 39.5622 70.0352 44.9124 68.4833 50.4813C64.7157 51.9104 59.0756 54.4923 53.5999 58.6777L53.5935 58.6709Z" fill="#B6C9D8" fill-opacity="0.2"/>
<path fill-rule="evenodd" clip-rule="evenodd" d="M53.5935 58.6709C53.5935 58.6705 53.5936 58.6701 53.5937 58.6696C53.6213 58.4906 53.6475 58.3111 53.6723 58.131C54.3188 53.4316 53.9952 48.3642 52.7081 43.0588C57.201 38.9075 62.0174 35.5 65.2665 33.3723C67.9783 31.597 70.0786 30.3936 70.9119 29.9283C71.1605 29.7895 71.2963 29.7164 71.302 29.7133C71.3021 29.7195 71.3047 29.8738 71.3038 30.1589C71.3011 31.0424 71.2652 33.1812 71.0194 36.0545C70.7193 39.5622 70.0352 44.9124 68.4833 50.4813C64.8161 51.8723 59.3748 54.3556 54.0378 58.3467C53.8938 58.4543 53.75 58.563 53.6062 58.6729C53.6041 58.6745 53.602 58.6761 53.5999 58.6777L53.5935 58.6709ZM54.1106 57.8046C54.688 53.2246 54.3612 48.314 53.1429 43.1911C57.5655 39.1304 62.2828 35.7946 65.4812 33.7002C67.2353 32.5518 68.7325 31.6437 69.7935 31.0215C70.2524 30.7524 70.6296 30.5368 70.9107 30.3783C70.9027 31.3596 70.8551 33.3774 70.6289 36.0211L70.9801 36.0511L70.6289 36.0211C70.3335 39.4743 69.6646 44.7167 68.1585 50.1857C64.5441 51.5705 59.2969 53.9843 54.1106 57.8046Z" fill="#B6C9D8"/>
<path d="M53.5935 58.6709C54.3422 53.8206 54.0447 48.568 52.7081 43.0588C57.201 38.9075 62.0174 35.5 65.2665 33.3723C68.7872 31.0674 71.2773 29.7265 71.302 29.7133C71.3024 29.7385 71.3446 32.254 71.0194 36.0545C70.7193 39.5622 70.0352 44.9124 68.4833 50.4813C64.7157 51.9104 59.0756 54.4923 53.5999 58.6777L53.5935 58.6709Z" fill="#B6C9D8" fill-opacity="0.2"/>
<path fill-rule="evenodd" clip-rule="evenodd" d="M53.5935 58.6709C53.5935 58.6705 53.5936 58.6701 53.5937 58.6696C53.6213 58.4906 53.6475 58.3111 53.6723 58.131C54.3188 53.4316 53.9952 48.3642 52.7081 43.0588C57.201 38.9075 62.0174 35.5 65.2665 33.3723C67.9783 31.597 70.0786 30.3936 70.9119 29.9283C71.1605 29.7895 71.2963 29.7164 71.302 29.7133C71.3021 29.7195 71.3047 29.8738 71.3038 30.1589C71.3011 31.0424 71.2652 33.1812 71.0194 36.0545C70.7193 39.5622 70.0352 44.9124 68.4833 50.4813C64.8161 51.8723 59.3748 54.3556 54.0378 58.3467C53.8938 58.4543 53.75 58.563 53.6062 58.6729C53.6041 58.6745 53.602 58.6761 53.5999 58.6777L53.5935 58.6709ZM54.1106 57.8046C54.688 53.2246 54.3612 48.314 53.1429 43.1911C57.5655 39.1304 62.2828 35.7946 65.4812 33.7002C67.2353 32.5518 68.7325 31.6437 69.7935 31.0215C70.2524 30.7524 70.6296 30.5368 70.9107 30.3783C70.9027 31.3596 70.8551 33.3774 70.6289 36.0211L70.9801 36.0511L70.6289 36.0211C70.3335 39.4743 69.6646 44.7167 68.1585 50.1857C64.5441 51.5705 59.2969 53.9843 54.1106 57.8046Z" fill="#B6C9D8"/>
<path d="M53.5935 58.6709C53.5956 58.673 53.5977 58.6752 53.5999 58.6777C58.9445 54.5925 64.4458 52.0127 68.4833 50.4813C71.488 39.7003 71.302 29.7133 71.302 29.7133C71.302 29.7133 61.4057 35.0226 52.7081 43.0588C53.9127 48.0246 54.4159 53.3441 53.5935 58.6709Z" fill="#B6C9D8" fill-opacity="0.2"/>
<path fill-rule="evenodd" clip-rule="evenodd" d="M71.3042 30.1586C71.3049 29.8676 71.302 29.7133 71.302 29.7133C71.302 29.7133 71.1661 29.7862 70.9121 29.9279C68.9989 30.9952 60.3864 35.9644 52.7081 43.0588C53.872 47.8568 54.3811 52.985 53.6723 58.1309C53.6476 58.3105 53.6214 58.49 53.5937 58.6696C53.5936 58.6701 53.5935 58.6705 53.5935 58.6709L53.5935 58.6709C53.5956 58.6731 53.5977 58.6752 53.5999 58.6777C53.5999 58.6777 53.5999 58.6777 53.5999 58.6777C53.602 58.6761 53.6041 58.6745 53.6062 58.6729C53.75 58.563 53.8939 58.4543 54.0378 58.3466C59.2437 54.4525 64.556 51.9709 68.4833 50.4813C71.1145 41.0404 71.299 32.2085 71.3042 30.1586ZM70.9111 30.3777C70.909 30.6511 70.9038 31.0052 70.8924 31.4318C70.8631 32.5299 70.7928 34.1075 70.629 36.021C70.3051 39.8041 69.6163 44.8938 68.1585 50.1857C64.3049 51.6617 59.173 54.0738 54.1107 57.8044C54.7418 52.8074 54.2491 47.8423 53.1429 43.1911C57.4218 39.2619 61.9772 35.9948 65.4813 33.7004C67.2558 32.5385 68.759 31.6271 69.818 31.0066C70.2665 30.7437 70.6353 30.5331 70.9111 30.3777Z" fill="#B6C9D8"/>
<path d="M53.5942 58.6768L53.5993 58.6807L53.5929 58.6855L53.5942 58.6768Z" fill="#B6C9D8" fill-opacity="0.2"/>
<path fill-rule="evenodd" clip-rule="evenodd" d="M53.5993 58.6807L53.5929 58.6855L53.5942 58.6768L53.5993 58.6807Z" fill="#B6C9D8"/>
<path d="M53.5942 58.6768L53.5993 58.6807L53.5929 58.6855L53.5942 58.6768Z" fill="#B6C9D8" fill-opacity="0.2"/>
<path fill-rule="evenodd" clip-rule="evenodd" d="M53.5993 58.6807L53.5929 58.6855L53.5942 58.6768L53.5993 58.6807Z" fill="#B6C9D8"/>
<path d="M53.5942 58.6768L53.5993 58.6807L53.5929 58.6855L53.5942 58.6768Z" fill="#B6C9D8" fill-opacity="0.2"/>
<path fill-rule="evenodd" clip-rule="evenodd" d="M53.5993 58.6807L53.5929 58.6855L53.5942 58.6768L53.5993 58.6807Z" fill="#B6C9D8"/>
<path d="M53.5929 58.6855C53.5955 58.6837 53.5978 58.6818 53.6004 58.6799C53.5985 58.6777 53.5967 58.6758 53.5948 58.6739C53.594 58.6777 53.5933 58.6818 53.5929 58.6855Z" fill="#B6C9D8" fill-opacity="0.2"/>
<path fill-rule="evenodd" clip-rule="evenodd" d="M53.6004 58.6799C53.5991 58.6808 53.5979 58.6818 53.5967 58.6827C53.5954 58.6837 53.5942 58.6846 53.5929 58.6855C53.5933 58.6818 53.594 58.6777 53.5948 58.6739L53.5948 58.6739C53.5967 58.6758 53.5985 58.6777 53.6004 58.6799Z" fill="#B6C9D8"/>
<path d="M39.2451 79.9933C39.1907 79.9929 39.1362 79.9924 39.0817 79.9916C37.525 79.9613 36.123 79.848 34.7957 79.6455C34.6669 79.6263 34.5385 79.6063 34.4102 79.5863C32.6001 78.8971 30.6415 77.7484 28.5888 76.1719C26.0765 74.242 23.4019 71.6532 20.6394 68.4767C20.3356 68.1272 20.017 67.7449 19.6655 67.3071C20.8664 64.7673 23.0609 61.864 26.1882 58.6776L26.1969 58.6845C26.2837 59.2449 26.3655 59.7112 26.4545 60.1523C27.9611 67.6208 30.3173 73.1364 33.4578 76.5457C35.9346 79.2346 38.2129 79.8603 39.3503 79.9941L39.2451 79.9933Z" fill="#B6C9D8" fill-opacity="0.6"/>
<path fill-rule="evenodd" clip-rule="evenodd" d="M37.5289 79.9307C36.5705 79.8729 35.667 79.7784 34.7957 79.6455C34.6669 79.6263 34.5385 79.6063 34.4102 79.5863C32.6001 78.8971 30.6415 77.7484 28.5888 76.1719C26.0765 74.242 23.4019 71.6532 20.6394 68.4767C20.3356 68.1272 20.017 67.7449 19.6655 67.3071C20.823 64.859 22.9038 62.073 25.8534 59.0214C25.9607 58.9104 26.0691 58.799 26.1787 58.6873C26.1818 58.6841 26.185 58.6809 26.1882 58.6776L26.1969 58.6845C26.197 58.6852 26.1971 58.6859 26.1973 58.6866C26.2224 58.8493 26.2472 59.0041 26.2719 59.1527C26.332 59.5149 26.3915 59.8399 26.4545 60.1523C27.9611 67.6208 30.3173 73.1364 33.4578 76.5457C34.9945 78.2139 36.4547 79.088 37.6134 79.5432C38.1856 79.7679 38.6842 79.8905 39.0822 79.9562C39.0822 79.9562 39.0823 79.9562 39.0822 79.9562C39.1386 79.9655 39.193 79.9736 39.2452 79.9808M39.0817 79.9916C39.1361 79.9924 39.1906 79.9929 39.245 79.9933L39.3503 79.9941C39.3163 79.9901 39.2813 79.9857 39.2452 79.9808M36.4991 79.459C35.9346 79.4063 35.3883 79.3395 34.8548 79.2581L34.8534 79.2579C34.7397 79.241 34.6261 79.2233 34.5115 79.2054C32.7571 78.5318 30.8448 77.4105 28.8275 75.8611C26.3414 73.9514 23.6857 71.3823 20.9352 68.2195C20.6803 67.9264 20.4144 67.6092 20.1262 67.254C21.2507 64.9673 23.1956 62.3635 25.934 59.5028C25.9785 59.758 26.0234 59.9972 26.0703 60.2298C27.5829 67.728 29.9586 73.3254 33.1696 76.8112C34.3497 78.0924 35.4916 78.9226 36.4991 79.459ZM39.0817 79.9916C38.5469 79.9812 38.0304 79.961 37.5289 79.9307L39.0817 79.9916Z" fill="#B6C9D8"/>
<path d="M39.2451 79.9933C39.1907 79.9929 39.1362 79.9924 39.0817 79.9916C37.525 79.9613 36.123 79.848 34.7957 79.6455C34.6669 79.6263 34.5385 79.6063 34.4102 79.5863C32.6 78.8971 30.6414 77.7484 28.5888 76.1719C26.0766 74.242 23.402 71.6532 20.6394 68.4767C20.3359 68.1276 20.0173 67.7449 19.6655 67.3071C20.8664 64.7673 23.0609 61.864 26.1882 58.6776L26.1969 58.6845C26.2837 59.2449 26.3656 59.7112 26.4545 60.1523C27.9611 67.6208 30.3173 73.1364 33.4578 76.5457C35.9346 79.2346 38.2129 79.8603 39.3503 79.9941L39.2451 79.9933Z" fill="#B6C9D8" fill-opacity="0.6"/>
<path fill-rule="evenodd" clip-rule="evenodd" d="M37.5289 79.9307C36.5705 79.8729 35.667 79.7784 34.7957 79.6455C34.6669 79.6263 34.5385 79.6063 34.4102 79.5863C32.6 78.8971 30.6414 77.7484 28.5888 76.1719C26.0766 74.242 23.402 71.6532 20.6394 68.4767C20.3359 68.1276 20.0173 67.7449 19.6655 67.3071C20.823 64.859 22.9039 62.073 25.8534 59.0214C25.9607 58.9104 26.0691 58.799 26.1787 58.6873C26.1818 58.6841 26.185 58.6809 26.1882 58.6776L26.1969 58.6845C26.197 58.6852 26.1971 58.6859 26.1973 58.6866C26.2225 58.8493 26.2473 59.0041 26.2719 59.1527C26.3321 59.5148 26.3915 59.8399 26.4545 60.1523C27.9611 67.6208 30.3173 73.1364 33.4578 76.5457C34.9945 78.2139 36.4547 79.088 37.6134 79.5432C38.1856 79.7679 38.6842 79.8905 39.0822 79.9562C39.0822 79.9562 39.0823 79.9562 39.0822 79.9562C39.1386 79.9655 39.193 79.9736 39.2452 79.9808M39.0817 79.9916C39.1361 79.9924 39.1906 79.9929 39.245 79.9933L39.3503 79.9941C39.3163 79.9901 39.2813 79.9857 39.2452 79.9808M36.4991 79.459C35.9346 79.4063 35.3883 79.3395 34.8548 79.2581L34.8534 79.2579C34.7397 79.241 34.6261 79.2233 34.5115 79.2054C32.757 78.5318 30.8448 77.4105 28.8276 75.8611C26.3415 73.9514 23.6858 71.3823 20.9351 68.2195C20.6806 67.9268 20.4147 67.6094 20.1262 67.2539C21.2507 64.9673 23.1957 62.3635 25.934 59.5028C25.9786 59.758 26.0234 59.9971 26.0703 60.2298C27.5829 67.728 29.9586 73.3254 33.1696 76.8112C34.3497 78.0924 35.4916 78.9227 36.4991 79.459ZM39.0817 79.9916C38.5469 79.9812 38.0304 79.961 37.5289 79.9307L39.0817 79.9916Z" fill="#B6C9D8"/>
<path d="M39.2451 79.9933C39.1907 79.9929 39.1362 79.9924 39.0817 79.9916C37.525 79.9613 36.123 79.848 34.7957 79.6455C34.6669 79.6263 34.5385 79.6063 34.4102 79.5863C32.6 78.8971 30.6414 77.7484 28.5888 76.1719C26.0766 74.242 23.402 71.6532 20.6394 68.4767C20.3359 68.1276 20.0173 67.7449 19.6655 67.3071C20.8664 64.7673 23.0609 61.864 26.1882 58.6776L26.1969 58.6845C26.2837 59.2449 26.3656 59.7112 26.4545 60.1523C27.9611 67.6208 30.3173 73.1364 33.4578 76.5457C35.9346 79.2346 38.2129 79.8603 39.3503 79.9941L39.2451 79.9933Z" fill="#B6C9D8" fill-opacity="0.6"/>
<path fill-rule="evenodd" clip-rule="evenodd" d="M37.5289 79.9307C36.5705 79.8729 35.667 79.7784 34.7957 79.6455C34.6669 79.6263 34.5385 79.6063 34.4102 79.5863C32.6 78.8971 30.6414 77.7484 28.5888 76.1719C26.0766 74.242 23.402 71.6532 20.6394 68.4767C20.3359 68.1276 20.0173 67.7449 19.6655 67.3071C20.823 64.859 22.9039 62.073 25.8534 59.0214C25.9607 58.9104 26.0691 58.799 26.1787 58.6873C26.1818 58.6841 26.185 58.6809 26.1882 58.6776L26.1969 58.6845C26.197 58.6852 26.1971 58.6859 26.1973 58.6866C26.2225 58.8493 26.2473 59.0041 26.2719 59.1527C26.3321 59.5148 26.3915 59.8399 26.4545 60.1523C27.9611 67.6208 30.3173 73.1364 33.4578 76.5457C34.9945 78.2139 36.4547 79.088 37.6134 79.5432C38.1856 79.7679 38.6842 79.8905 39.0822 79.9562C39.0822 79.9562 39.0823 79.9562 39.0822 79.9562C39.1386 79.9655 39.193 79.9736 39.2452 79.9808M39.0817 79.9916C39.1361 79.9924 39.1906 79.9929 39.245 79.9933L39.3503 79.9941C39.3163 79.9901 39.2813 79.9857 39.2452 79.9808M36.4991 79.459C35.9346 79.4063 35.3883 79.3395 34.8548 79.2581L34.8534 79.2579C34.7397 79.241 34.6261 79.2233 34.5115 79.2054C32.757 78.5318 30.8448 77.4105 28.8276 75.8611C26.3415 73.9514 23.6858 71.3823 20.9351 68.2195C20.6806 67.9268 20.4147 67.6094 20.1262 67.2539C21.2507 64.9673 23.1957 62.3635 25.934 59.5028C25.9786 59.758 26.0234 59.9971 26.0703 60.2298C27.5829 67.728 29.9586 73.3254 33.1696 76.8112C34.3497 78.0924 35.4916 78.9227 36.4991 79.459ZM39.0817 79.9916C38.5469 79.9812 38.0304 79.961 37.5289 79.9307L39.0817 79.9916Z" fill="#B6C9D8"/>
<path fill-rule="evenodd" clip-rule="evenodd" d="M26.0703 60.2298L26.0703 60.2298C27.8446 69.0256 30.5797 73.9998 33.1696 76.8113C34.3542 78.0973 35.5043 78.9263 36.5102 79.46C35.9568 79.4086 35.4053 79.3422 34.8548 79.2581L34.8534 79.2579C34.7397 79.241 34.6261 79.2233 34.5115 79.2054C31.4147 78.0164 26.9021 75.0807 20.9352 68.2196C20.6588 67.9016 20.3903 67.5793 20.1262 67.2539C21.373 64.718 23.501 62.0442 25.934 59.5027C25.9763 59.7446 26.0214 59.987 26.0703 60.2298ZM26.2719 59.1526C26.2461 58.9973 26.2213 58.8419 26.1973 58.6866C26.1971 58.6859 26.197 58.6852 26.1969 58.6845C26.194 58.6823 26.1911 58.6802 26.1881 58.6776C26.185 58.6809 26.1818 58.6841 26.1786 58.6873C26.0697 58.7983 25.9613 58.9096 25.8534 59.0213C23.254 61.7105 20.9549 64.58 19.6655 67.3071C19.9817 67.7005 20.3045 68.0914 20.6394 68.4767C26.6557 75.3945 31.2313 78.3758 34.4102 79.5863C34.5385 79.6063 34.6669 79.6263 34.7957 79.6455C35.7082 79.7848 36.6224 79.8763 37.5412 79.9314C38.0529 79.9621 38.5661 79.9815 39.0813 79.9916C39.1409 79.9924 39.2008 79.9929 39.2607 79.9934C39.2905 79.9936 39.3204 79.9939 39.3503 79.9941C39.269 79.9846 39.1793 79.9721 39.082 79.9558C39.0819 79.9558 39.0818 79.9558 39.0818 79.9558C38.7025 79.8924 38.206 79.7718 37.6257 79.5439C34.6009 78.3558 29.2988 74.2529 26.4545 60.1523C26.3873 59.8191 26.3273 59.4858 26.2719 59.1526Z" fill="#B6C9D8"/>
<path d="M40.4421 79.9941C41.5794 79.8603 43.8576 79.2346 46.3345 76.5457C49.4751 73.1364 51.8312 67.6208 53.338 60.1523C53.427 59.7104 53.5087 59.2441 53.5956 58.6845L53.6041 58.6776C56.7314 61.864 58.9262 64.7673 60.127 67.3071C59.7749 67.7449 59.4565 68.1276 59.153 68.4767C56.3905 71.6532 53.716 74.242 51.2037 76.1719C49.1508 77.7484 47.1923 78.8971 45.3823 79.5863C45.2538 79.6063 45.1257 79.6263 44.9967 79.6455C43.6695 79.848 42.2673 79.9613 40.7107 79.9916C40.6566 79.9924 40.6017 79.9929 40.5472 79.9933L40.4421 79.9941Z" fill="#B6C9D8" fill-opacity="0.6"/>
<path fill-rule="evenodd" clip-rule="evenodd" d="M42.1789 79.5432C43.3376 79.088 44.7978 78.2139 46.3345 76.5457C49.4751 73.1364 51.8312 67.6208 53.338 60.1523C53.401 59.8395 53.4603 59.5145 53.5204 59.1528C53.5452 59.0041 53.57 58.8491 53.5953 58.6863C53.5954 58.6857 53.5955 58.6851 53.5956 58.6845L53.6041 58.6776C53.6072 58.6808 53.6103 58.684 53.6135 58.6872C53.7231 58.799 53.8317 58.9104 53.939 59.0215C56.8885 62.0731 58.9695 64.859 60.127 67.3071C59.7749 67.7449 59.4565 68.1276 59.153 68.4767C56.3905 71.6532 53.716 74.242 51.2037 76.1719C49.1508 77.7484 47.1923 78.8971 45.3823 79.5863L45.3577 79.5901C45.2374 79.6088 45.1174 79.6275 44.9967 79.6455C44.1254 79.7784 43.2218 79.8729 42.2634 79.9307C41.7619 79.961 41.2454 79.9812 40.7107 79.9916C40.6571 79.9924 40.6026 79.9929 40.5486 79.9933L40.4421 79.9941C40.4761 79.9901 40.5111 79.9857 40.5471 79.9808C40.5471 79.9808 40.5471 79.9808 40.5471 79.9808C40.5993 79.9736 40.6536 79.9655 40.71 79.9562C40.7099 79.9562 40.71 79.9562 40.71 79.9562C41.108 79.8905 41.6068 79.7679 42.1789 79.5432ZM43.2932 79.459C44.3007 78.9227 45.4426 78.0924 46.6228 76.8112C49.8338 73.3254 52.2093 67.7281 53.7222 60.2298C53.769 59.997 53.8139 59.7578 53.8583 59.5029C56.5967 62.3635 58.5417 64.9673 59.6662 67.2539C59.3776 67.6094 59.1118 67.9268 58.8573 68.2195C56.1067 71.3823 53.4511 73.9514 50.965 75.8611C48.9474 77.4105 47.0353 78.5318 45.2811 79.2054C45.1662 79.2233 45.0529 79.241 44.939 79.2579L44.9376 79.2581C44.4041 79.3395 43.8578 79.4063 43.2932 79.459Z" fill="#B6C9D8"/>
<path d="M40.4421 79.9941C41.5794 79.8603 43.8576 79.2346 46.3345 76.5457C49.4751 73.1364 51.8312 67.6208 53.338 60.1523C53.427 59.7108 53.5087 59.2445 53.5956 58.6845L53.6041 58.6776C56.7314 61.864 58.9262 64.7673 60.127 67.3071C59.7749 67.7449 59.4565 68.1276 59.153 68.4767C56.3905 71.6532 53.7156 74.242 51.2037 76.1719C49.1508 77.7484 47.1923 78.8971 45.3823 79.5863C45.2538 79.6063 45.1257 79.6263 44.9967 79.6455C43.6695 79.848 42.2673 79.9613 40.7107 79.9916C40.6566 79.9924 40.6017 79.9929 40.5472 79.9933L40.4421 79.9941Z" fill="#B6C9D8" fill-opacity="0.6"/>
<path fill-rule="evenodd" clip-rule="evenodd" d="M42.1789 79.5432C43.3376 79.088 44.7978 78.2139 46.3345 76.5457C49.4751 73.1364 51.8312 67.6208 53.338 60.1523C53.401 59.8397 53.4604 59.5147 53.5205 59.1528C53.5452 59.0041 53.57 58.8492 53.5953 58.6863C53.5954 58.6857 53.5955 58.6851 53.5956 58.6845L53.6041 58.6776C53.6072 58.6808 53.6103 58.684 53.6135 58.6872C53.7231 58.799 53.8317 58.9105 53.939 59.0215C56.8886 62.0731 58.9695 64.859 60.127 67.3071C59.7749 67.7449 59.4565 68.1276 59.153 68.4767C56.3905 71.6532 53.7156 74.242 51.2037 76.1719C49.1508 77.7484 47.1923 78.8971 45.3823 79.5863L45.3577 79.5901C45.2374 79.6088 45.1174 79.6275 44.9967 79.6455C44.1254 79.7784 43.2218 79.8729 42.2634 79.9307C41.7619 79.961 41.2454 79.9812 40.7107 79.9916C40.6571 79.9924 40.6026 79.9929 40.5486 79.9933L40.4421 79.9941C40.4761 79.9901 40.5111 79.9857 40.5471 79.9808C40.5471 79.9808 40.5471 79.9808 40.5471 79.9808C40.5993 79.9736 40.6536 79.9655 40.71 79.9562C40.7099 79.9562 40.71 79.9562 40.71 79.9562C41.108 79.8905 41.6068 79.7679 42.1789 79.5432ZM43.2932 79.459C44.3007 78.9227 45.4426 78.0924 46.6228 76.8112C49.8338 73.3254 52.2093 67.7281 53.7222 60.2298C53.769 59.9971 53.8139 59.758 53.8584 59.503C56.5968 62.3635 58.5418 64.9673 59.6662 67.2539C59.3776 67.6094 59.1118 67.9268 58.8573 68.2195C56.1067 71.3823 53.4507 73.9513 50.9651 75.8611M43.2932 79.459C43.8578 79.4063 44.4041 79.3395 44.9376 79.2581L44.939 79.2579C45.0529 79.241 45.1662 79.2233 45.2811 79.2054C47.0353 78.5318 48.9475 77.4104 50.9651 75.8611" fill="#B6C9D8"/>
<path d="M40.4421 79.9941C41.5794 79.8603 43.8576 79.2346 46.3345 76.5457C49.4751 73.1364 51.8312 67.6208 53.338 60.1523C53.427 59.7108 53.5087 59.2445 53.5956 58.6845L53.6041 58.6776C56.7314 61.864 58.9262 64.7673 60.127 67.3071C59.7749 67.7449 59.4565 68.1276 59.153 68.4767C56.3905 71.6532 53.7156 74.242 51.2037 76.1719C49.1508 77.7484 47.1923 78.8971 45.3823 79.5863C45.2538 79.6063 45.1257 79.6263 44.9967 79.6455C43.6695 79.848 42.2673 79.9613 40.7107 79.9916C40.6566 79.9924 40.6017 79.9929 40.5472 79.9933L40.4421 79.9941Z" fill="#B6C9D8" fill-opacity="0.6"/>
<path fill-rule="evenodd" clip-rule="evenodd" d="M42.1789 79.5432C43.3376 79.088 44.7978 78.2139 46.3345 76.5457C49.4751 73.1364 51.8312 67.6208 53.338 60.1523C53.401 59.8397 53.4604 59.5147 53.5205 59.1528C53.5452 59.0041 53.57 58.8492 53.5953 58.6863C53.5954 58.6857 53.5955 58.6851 53.5956 58.6845L53.6041 58.6776C53.6072 58.6808 53.6103 58.684 53.6135 58.6872C53.7231 58.799 53.8317 58.9105 53.939 59.0215C56.8886 62.0731 58.9695 64.859 60.127 67.3071C59.7749 67.7449 59.4565 68.1276 59.153 68.4767C56.3905 71.6532 53.7156 74.242 51.2037 76.1719C49.1508 77.7484 47.1923 78.8971 45.3823 79.5863L45.3577 79.5901C45.2374 79.6088 45.1174 79.6275 44.9967 79.6455C44.1254 79.7784 43.2218 79.8729 42.2634 79.9307C41.7619 79.961 41.2454 79.9812 40.7107 79.9916C40.6571 79.9924 40.6026 79.9929 40.5486 79.9933L40.4421 79.9941C40.4761 79.9901 40.5111 79.9857 40.5471 79.9808C40.5471 79.9808 40.5471 79.9808 40.5471 79.9808C40.5993 79.9736 40.6536 79.9655 40.71 79.9562C40.7099 79.9562 40.71 79.9562 40.71 79.9562C41.108 79.8905 41.6068 79.7679 42.1789 79.5432ZM43.2932 79.459C44.3007 78.9227 45.4426 78.0924 46.6228 76.8112C49.8338 73.3254 52.2093 67.7281 53.7222 60.2298C53.769 59.9971 53.8139 59.758 53.8584 59.503C56.5968 62.3635 58.5418 64.9673 59.6662 67.2539C59.3776 67.6094 59.1118 67.9268 58.8573 68.2195C56.1067 71.3823 53.4507 73.9513 50.9651 75.8611M43.2932 79.459C43.8578 79.4063 44.4041 79.3395 44.9376 79.2581L44.939 79.2579C45.0529 79.241 45.1662 79.2233 45.2811 79.2054C47.0353 78.5318 48.9475 77.4104 50.9651 75.8611" fill="#B6C9D8"/>
<path fill-rule="evenodd" clip-rule="evenodd" d="M53.7222 60.2298L53.7222 60.2295C53.771 59.987 53.8161 59.7447 53.8583 59.5028C56.2915 62.0442 58.4193 64.718 59.6662 67.2539C59.4021 67.5793 59.1337 67.9016 58.8573 68.2195C52.8903 75.0806 48.3778 78.0164 45.2811 79.2054C45.1662 79.2233 45.0525 79.241 44.9389 79.2579L44.9375 79.2581C44.3871 79.3421 43.8356 79.4086 43.2822 79.46C44.288 78.9263 45.4382 78.0973 46.6228 76.8113C49.2127 73.9998 51.9478 69.0256 53.7222 60.2298ZM42.1667 79.5438C45.1915 78.3558 50.4935 74.2528 53.338 60.1523C53.405 59.8192 53.465 59.486 53.5205 59.1528C53.5463 58.9973 53.5712 58.8418 53.5953 58.6863C53.5954 58.6857 53.5955 58.6851 53.5956 58.6845C53.5985 58.6823 53.6011 58.6802 53.6041 58.6776C53.6072 58.6808 53.6103 58.684 53.6135 58.6872C53.7225 58.7983 53.831 58.9098 53.939 59.0215C56.5386 61.7107 58.8374 64.58 60.127 67.3071C59.8107 67.7005 59.488 68.0914 59.153 68.4767C53.1367 75.3945 48.5612 78.3758 45.3823 79.5863L45.3819 79.5863C45.2535 79.6063 45.1251 79.6263 44.9967 79.6455C44.0842 79.7848 43.17 79.8763 42.2512 79.9314C41.7393 79.9621 41.2259 79.9815 40.7107 79.9916C40.6512 79.9924 40.5915 79.9929 40.5318 79.9934C40.5019 79.9936 40.472 79.9939 40.4421 79.9941C40.5233 79.9846 40.6128 79.9721 40.71 79.9559C40.71 79.9559 40.7101 79.9559 40.7101 79.9559C41.0894 79.8925 41.5861 79.7719 42.1667 79.5438Z" fill="#B6C9D8"/>
<path d="M45.2092 51.2559C42.1733 48.8473 39.8786 47.2772 39.856 47.2618C39.839 47.2734 38.1274 48.4441 35.7143 50.3075C35.3092 50.6204 34.9015 50.9392 34.5026 51.2559C32.4397 48.4859 29.9292 45.7283 27.0408 43.0594C27.8354 39.7836 29.0035 36.3913 30.5127 32.9765C31.7201 30.2445 33.1473 27.4921 34.7546 24.7954C37.4914 20.2047 39.8326 17.3308 39.856 17.3022C39.8794 17.3308 42.2206 20.2047 44.9572 24.7959C46.5645 27.4921 47.9918 30.2445 49.1994 32.9765C50.7088 36.3913 51.8768 39.7836 52.6711 43.0594C49.783 45.7283 47.2724 48.4859 45.2092 51.2559Z" fill="#B6C9D8" fill-opacity="0.2"/>
<path d="M45.2092 51.2559C42.1733 48.8473 39.8786 47.2772 39.856 47.2618C39.839 47.2734 38.1274 48.4441 35.7143 50.3075C35.3092 50.6204 34.9015 50.9392 34.5026 51.2559C32.4397 48.4859 29.9292 45.7283 27.0408 43.0594C27.8354 39.7836 29.0035 36.3913 30.5127 32.9765C31.7201 30.2445 33.1473 27.4921 34.7546 24.7954C37.4914 20.2047 39.8326 17.3308 39.856 17.3022C39.8794 17.3308 42.2206 20.2047 44.9572 24.7959C46.5645 27.4921 47.9918 30.2445 49.1994 32.9765C50.7088 36.3913 51.8768 39.7836 52.6711 43.0594C49.783 45.7283 47.2724 48.4859 45.2092 51.2559Z" fill="#B6C9D8" fill-opacity="0.2"/>
<path d="M45.2092 51.2559C42.1733 48.8473 39.8786 47.2772 39.856 47.2618C39.839 47.2734 38.1274 48.4441 35.7143 50.3075C35.3092 50.6204 34.9015 50.9392 34.5026 51.2559C32.4397 48.4859 29.9292 45.7283 27.0408 43.0594C27.8354 39.7836 29.0035 36.3913 30.5127 32.9765C31.7201 30.2445 33.1473 27.4921 34.7546 24.7954C37.4914 20.2047 39.8326 17.3308 39.856 17.3022C39.8794 17.3308 42.2206 20.2047 44.9572 24.7959C46.5645 27.4921 47.9918 30.2445 49.1994 32.9765C50.7088 36.3913 51.8768 39.7836 52.6711 43.0594C49.783 45.7283 47.2724 48.4859 45.2092 51.2559Z" fill="#B6C9D8" fill-opacity="0.2"/>
<path d="M45.2092 51.2559C42.1733 48.8473 39.8786 47.2772 39.856 47.2618C39.839 47.2734 38.1274 48.4441 35.7143 50.3075C35.3092 50.6204 34.9015 50.9392 34.5026 51.2559C32.4397 48.4859 29.9292 45.7283 27.0408 43.0594C27.8354 39.7836 29.0035 36.3913 30.5127 32.9765C31.7201 30.2445 33.1473 27.4921 34.7546 24.7954C37.4914 20.2047 39.8326 17.3308 39.856 17.3022C39.8794 17.3308 42.2206 20.2047 44.9572 24.7959C46.5645 27.4921 47.9918 30.2445 49.1994 32.9765C50.7088 36.3913 51.8768 39.7836 52.6711 43.0594C49.783 45.7283 47.2724 48.4859 45.2092 51.2559Z" fill="#B6C9D8" fill-opacity="0.2"/>
<path fill-rule="evenodd" clip-rule="evenodd" d="M34.43 51.8145L34.7466 51.5632C35.1439 51.2477 35.5503 50.9299 35.9541 50.6181C37.1567 49.6894 38.1843 48.9335 38.913 48.4086C39.2774 48.1461 39.5669 47.9415 39.7662 47.8019C39.7986 47.7791 39.8287 47.7581 39.8563 47.7389C39.9112 47.7772 39.9759 47.8225 40.0498 47.8745C40.314 48.0605 40.6962 48.3322 41.1724 48.6787C42.1249 49.3716 43.4531 50.363 44.9659 51.5632L45.2824 51.8143L45.5238 51.4903C47.5707 48.7422 50.0646 46.0023 52.9374 43.3476L53.1065 43.1913L53.0522 42.9674C52.2519 39.6667 51.0759 36.2524 49.5581 32.8185C48.3438 30.0713 46.9091 27.3047 45.2941 24.5956C42.5449 19.9833 40.1914 17.0932 40.1594 17.0541L39.8563 16.6845L39.5533 17.0541C39.5212 17.0932 37.1677 19.9833 34.4183 24.5951L34.4183 24.5952C32.8033 27.3047 31.3687 30.0713 30.1546 32.8185C28.6369 36.2524 27.4609 39.6666 26.6603 42.9674L26.606 43.1913L26.7752 43.3476C29.6482 46.0024 32.1419 48.7422 34.1886 51.4903L34.43 51.8145ZM45.1374 50.6997C42.25 48.4253 40.1039 46.9567 40.0767 46.9382L39.857 46.7888L39.6369 46.9375C39.6138 46.9532 37.8954 48.1288 35.475 49.9977L35.475 49.9978C35.175 50.2295 34.8734 50.4645 34.575 50.6997C32.584 48.0712 30.1979 45.4599 27.4766 42.9291C28.2637 39.7472 29.4049 36.4535 30.8714 33.1353L30.513 32.9769L30.8714 33.1353C32.0721 30.4186 33.4919 27.6802 35.0915 24.9965C36.4533 22.7122 37.7165 20.8554 38.6415 19.5669C39.1039 18.9228 39.4817 18.4209 39.7448 18.0788C39.7847 18.0271 39.8219 17.9789 39.8563 17.9346C39.8908 17.9789 39.928 18.0271 39.9678 18.0788C40.2309 18.4209 40.6087 18.9228 41.0711 19.567C41.9961 20.8555 43.2592 22.7124 44.6209 24.9969L44.9575 24.7962L44.6209 24.9969C46.2205 27.6802 47.6404 30.4185 48.8413 33.1353C50.3079 36.4535 51.4491 39.7472 52.2359 42.9291C49.5148 45.4599 47.1286 48.0712 45.1374 50.6997Z" fill="#B6C9D8"/>
<path d="M19.6648 67.3066C15.9346 62.6631 13.1217 57.0021 11.3043 50.4811C15.0717 51.9102 20.712 54.4922 26.1875 58.6772C23.0602 61.8635 20.8657 64.7669 19.6648 67.3066Z" fill="#B6C9D8" fill-opacity="0.6"/>
<path fill-rule="evenodd" clip-rule="evenodd" d="M11.3043 50.4811C11.4535 50.5377 11.6057 50.5962 11.7607 50.6564C15.4434 52.0882 20.7137 54.5571 25.8727 58.4385C25.9777 58.5174 26.0826 58.597 26.1875 58.6772C26.0948 58.7716 26.0029 58.8658 25.9118 58.9598C23.0869 61.8745 21.0522 64.5479 19.8553 66.9173C19.7892 67.048 19.7258 67.1778 19.6648 67.3066C19.574 67.1935 19.4837 67.0798 19.3939 66.9655C15.8871 62.5 13.2125 57.1169 11.4376 50.9516C11.3926 50.7953 11.3481 50.6384 11.3043 50.4811ZM19.5886 66.5782C16.2266 62.2555 13.6409 57.0669 11.8978 51.131C15.5326 52.5652 20.6165 54.9819 25.597 58.7215C22.8384 61.5722 20.8149 64.2106 19.5886 66.5782Z" fill="#B6C9D8"/>
<path d="M19.6648 67.3066C15.9347 62.6631 13.1218 57.0021 11.3043 50.4811C15.0716 51.9102 20.7118 54.4918 26.1875 58.6772C23.0602 61.8635 20.8657 64.7669 19.6648 67.3066Z" fill="#B6C9D8" fill-opacity="0.6"/>
<path fill-rule="evenodd" clip-rule="evenodd" d="M11.3043 50.4811C11.4535 50.5377 11.6057 50.5962 11.7607 50.6564C15.4433 52.0881 20.7136 54.5567 25.8727 58.4384C25.9777 58.5174 26.0826 58.597 26.1875 58.6772C26.0948 58.7716 26.0029 58.8658 25.9118 58.9598C23.0869 61.8745 21.0522 64.5479 19.8553 66.9173C19.7892 67.048 19.7258 67.1778 19.6648 67.3066C19.574 67.1935 19.4837 67.0798 19.3939 66.9655C15.8871 62.5 13.2126 57.1169 11.4376 50.9516C11.3926 50.7953 11.3481 50.6384 11.3043 50.4811ZM19.5886 66.5782C16.2267 62.2555 13.6409 57.0669 11.8978 51.131C15.5326 52.5651 20.6164 54.9815 25.5971 58.7215C22.8384 61.5722 20.8149 64.2106 19.5886 66.5782Z" fill="#B6C9D8"/>
<path fill-rule="evenodd" clip-rule="evenodd" d="M11.3043 50.4811C11.4535 50.5377 11.6057 50.5962 11.7607 50.6564C15.4433 52.0881 20.7136 54.5567 25.8727 58.4384C25.9777 58.5174 26.0826 58.597 26.1875 58.6772C26.0948 58.7716 26.0029 58.8658 25.9118 58.9598C23.0869 61.8745 21.0522 64.5479 19.8553 66.9173C19.7892 67.048 19.7258 67.1778 19.6648 67.3066C19.574 67.1935 19.4837 67.0798 19.3939 66.9655C15.8871 62.5 13.2126 57.1169 11.4376 50.9516C11.3926 50.7953 11.3481 50.6384 11.3043 50.4811ZM19.5886 66.5782C16.2267 62.2555 13.6409 57.0669 11.8978 51.131C15.5326 52.5651 20.6164 54.9815 25.5971 58.7215C22.8384 61.5722 20.8149 64.2106 19.5886 66.5782Z" fill="#B6C9D8"/>
<path fill-rule="evenodd" clip-rule="evenodd" d="M26.1874 58.6772C26.0952 58.7711 26.0033 58.8653 25.9118 58.9597C23.4118 61.539 21.1837 64.2866 19.8552 66.9172C19.7895 67.0473 19.7261 67.1772 19.6648 67.3066C19.5737 67.1933 19.4834 67.0795 19.3939 66.9655C15.4443 61.9363 12.9729 56.284 11.4376 50.9516C11.3923 50.7945 11.3479 50.6376 11.3043 50.4811C11.4544 50.5381 11.6066 50.5965 11.7607 50.6564C15.6693 52.1749 20.8266 54.6412 25.8727 58.4384C25.9776 58.5174 26.0826 58.597 26.1874 58.6772ZM25.597 58.7215C23.1505 61.2494 20.9454 63.9577 19.5885 66.5782C15.8139 61.725 13.4133 56.2912 11.8978 51.1308C15.7366 52.644 20.7188 55.0579 25.597 58.7215Z" fill="#B6C9D8"/>
<path d="M60.1219 67.3066C58.9211 64.7673 56.7268 61.8639 53.5994 58.6776C59.0752 54.4922 64.7152 51.9102 68.4828 50.4811C66.6652 57.0021 63.8524 62.6631 60.1219 67.3066Z" fill="#B6C9D8" fill-opacity="0.6"/>
<path fill-rule="evenodd" clip-rule="evenodd" d="M59.9314 66.9173C59.9975 67.048 60.0609 67.1778 60.1219 67.3066C60.2127 67.1935 60.3031 67.0798 60.3928 66.9655C63.8999 62.5 66.5744 57.1169 68.3495 50.9516C68.3945 50.7953 68.4389 50.6384 68.4828 50.4811C68.3335 50.5377 68.1814 50.5962 68.0264 50.6564C64.3436 52.0882 59.0734 54.5571 53.9142 58.4389C53.8092 58.5179 53.7043 58.5974 53.5994 58.6776C53.6921 58.772 53.784 58.8662 53.875 58.9602C56.7001 61.8749 58.7346 64.5483 59.9314 66.9173ZM60.1981 66.5783C58.9719 64.211 56.9486 61.5726 54.1898 58.7219C59.1706 54.9819 64.2544 52.5652 67.8892 51.131C66.146 57.0669 63.5604 62.2555 60.1981 66.5783Z" fill="#B6C9D8"/>
<path d="M60.1219 67.3066C58.9215 64.7673 56.7268 61.8639 53.5994 58.6776C59.0752 54.4922 64.7152 51.9102 68.4828 50.4811C66.6652 57.0021 63.8524 62.6631 60.1219 67.3066Z" fill="#B6C9D8" fill-opacity="0.6"/>
<path fill-rule="evenodd" clip-rule="evenodd" d="M59.9315 66.9173C59.9975 67.048 60.061 67.1778 60.1219 67.3066C60.2127 67.1935 60.3031 67.0798 60.3928 66.9655C63.8999 62.5 66.5744 57.1169 68.3495 50.9516C68.3945 50.7953 68.4389 50.6384 68.4828 50.4811C68.3335 50.5377 68.1814 50.5962 68.0264 50.6564C64.3436 52.0882 59.0734 54.5571 53.9142 58.4389C53.8092 58.5179 53.7043 58.5974 53.5994 58.6776C53.6921 58.772 53.784 58.8662 53.875 58.9602C56.7001 61.8749 58.7349 64.5482 59.9315 66.9173ZM60.1982 66.5782C58.9722 64.211 56.9485 61.5725 54.1898 58.7219C59.1706 54.9819 64.2544 52.5652 67.8892 51.131C66.146 57.0669 63.5604 62.2555 60.1982 66.5782Z" fill="#B6C9D8"/>
<path d="M60.1219 67.3066C58.9215 64.7673 56.7268 61.8639 53.5994 58.6776C59.0752 54.4922 64.7152 51.9102 68.4828 50.4811C66.6652 57.0021 63.8524 62.6631 60.1219 67.3066Z" fill="#B6C9D8" fill-opacity="0.6"/>
<path fill-rule="evenodd" clip-rule="evenodd" d="M59.9315 66.9173C59.9975 67.048 60.061 67.1778 60.1219 67.3066C60.2127 67.1935 60.3031 67.0798 60.3928 66.9655C63.8999 62.5 66.5744 57.1169 68.3495 50.9516C68.3945 50.7953 68.4389 50.6384 68.4828 50.4811C68.3335 50.5377 68.1814 50.5962 68.0264 50.6564C64.3436 52.0882 59.0734 54.5571 53.9142 58.4389C53.8092 58.5179 53.7043 58.5974 53.5994 58.6776C53.6921 58.772 53.784 58.8662 53.875 58.9602C56.7001 61.8749 58.7349 64.5482 59.9315 66.9173ZM60.1982 66.5782C58.9722 64.211 56.9485 61.5725 54.1898 58.7219C59.1706 54.9819 64.2544 52.5652 67.8892 51.131C66.146 57.0669 63.5604 62.2555 60.1982 66.5782Z" fill="#B6C9D8"/>
<path d="M60.1219 67.3066C64.3483 62.0459 66.9249 56.0709 68.4828 50.4811C64.4454 52.0125 58.9441 54.5924 53.5994 58.6776C56.3351 61.465 58.7776 64.4634 60.1219 67.3066Z" fill="#B6C9D8" fill-opacity="0.5"/>
<path fill-rule="evenodd" clip-rule="evenodd" d="M59.9315 66.9173C59.9972 67.0473 60.0607 67.1772 60.1219 67.3066C60.213 67.1933 60.3033 67.0796 60.3928 66.9655C64.3425 61.9367 66.8141 56.284 68.3495 50.9516C68.3948 50.7945 68.4392 50.6376 68.4828 50.4811C68.3327 50.5381 68.1805 50.5965 68.0264 50.6563C64.1177 52.1749 58.9604 54.6413 53.9142 58.4389C53.8092 58.5179 53.7043 58.5974 53.5994 58.6776C53.6916 58.7715 53.7835 58.8657 53.875 58.9602C56.3749 61.5394 58.6032 64.287 59.9315 66.9173ZM60.1982 66.5782C58.8415 63.958 56.6362 61.2498 54.1898 58.7219C59.0682 55.0579 64.0504 52.644 67.8893 51.1308C66.3737 56.2912 63.973 61.7254 60.1982 66.5782Z" fill="#B6C9D8"/>
<path d="M39.8961 60.7656C39.7888 60.495 39.705 60.2861 39.6245 60.0892C38.4195 57.1369 36.7096 54.1645 34.5427 51.2552C37.5881 48.8394 39.8731 47.2765 39.8961 47.2611C39.9187 47.2765 42.2049 48.8403 45.2493 51.2552C43.0826 54.1645 41.3727 57.1369 40.1677 60.0892C40.0859 60.29 39.9995 60.5048 39.8961 60.7656Z" fill="#B6C9D8" fill-opacity="0.6"/>
<path fill-rule="evenodd" clip-rule="evenodd" d="M39.6849 60.2377C39.7477 60.3928 39.8153 60.5616 39.8961 60.7656C39.9746 60.5678 40.0432 60.3965 40.1074 60.2376C40.1279 60.187 40.1479 60.1377 40.1677 60.0892C41.3727 57.1369 43.0826 54.1645 45.2493 51.2552C42.2049 48.8403 39.9187 47.2765 39.8961 47.2611C39.8731 47.2765 37.5881 48.8394 34.5427 51.2552C36.7096 54.1645 38.4195 57.1369 39.6245 60.0892C39.6443 60.1377 39.6644 60.187 39.6849 60.2377ZM39.8961 59.7198C38.7259 56.9101 37.1074 54.0896 35.0832 51.3274C36.477 50.2291 37.6947 49.3214 38.5834 48.6749C39.0589 48.3289 39.4402 48.0578 39.7037 47.8725C39.7771 47.8208 39.8414 47.7758 39.896 47.7378C39.9507 47.7759 40.015 47.8209 40.0884 47.8726C40.352 48.058 40.7333 48.3292 41.209 48.6752C42.0978 49.3218 43.3154 50.2295 44.7087 51.3274C42.6848 54.0896 41.0663 56.9101 39.8961 59.7198Z" fill="#B6C9D8"/>
<path d="M39.8961 60.7656C39.7897 60.4967 39.7058 60.2883 39.6245 60.0892C38.4195 57.1369 36.7096 54.1645 34.5427 51.2552C37.5788 48.8466 39.8731 47.2765 39.8961 47.2611C39.9187 47.2765 42.2134 48.8466 45.2493 51.2552C43.0826 54.1645 41.3727 57.1369 40.1677 60.0892C40.0868 60.2874 40.0004 60.5022 39.8961 60.7656Z" fill="#B6C9D8" fill-opacity="0.6"/>
<path fill-rule="evenodd" clip-rule="evenodd" d="M39.6848 60.2375C39.7481 60.3937 39.8157 60.5624 39.8961 60.7656C39.975 60.5664 40.0437 60.3949 40.1074 60.2374C40.128 60.1867 40.148 60.1375 40.1677 60.0892C41.3727 57.1369 43.0826 54.1645 45.2493 51.2552C42.2134 48.8466 39.9187 47.2765 39.8961 47.2611C39.8731 47.2765 37.5788 48.8466 34.5427 51.2552C36.7096 54.1645 38.4195 57.1369 39.6245 60.0892C39.6444 60.1378 39.6644 60.187 39.6848 60.2375ZM39.8961 59.7198C38.7259 56.9101 37.1074 54.0896 35.0832 51.3274C36.4729 50.2324 37.6902 49.3248 38.5799 48.6776C39.056 48.3312 39.4382 48.0594 39.7024 47.8735C39.7764 47.8214 39.8411 47.7761 39.896 47.7378C39.951 47.7761 40.0157 47.8214 40.0896 47.8735C40.3538 48.0594 40.736 48.3312 41.2122 48.6776C42.1018 49.3248 43.3192 50.2324 44.7087 51.3274C42.6848 54.0896 41.0663 56.9101 39.8961 59.7198Z" fill="#B6C9D8"/>
<path d="M39.8961 60.7656C39.7897 60.4967 39.7058 60.2883 39.6245 60.0892C38.4195 57.1369 36.7096 54.1645 34.5427 51.2552C37.5788 48.8466 39.8731 47.2765 39.8961 47.2611C39.9187 47.2765 42.2134 48.8466 45.2493 51.2552C43.0826 54.1645 41.3727 57.1369 40.1677 60.0892C40.0868 60.2874 40.0004 60.5022 39.8961 60.7656Z" fill="#B6C9D8" fill-opacity="0.6"/>
<path fill-rule="evenodd" clip-rule="evenodd" d="M39.6848 60.2375C39.7481 60.3937 39.8157 60.5624 39.8961 60.7656C39.975 60.5664 40.0437 60.3949 40.1074 60.2374C40.128 60.1867 40.148 60.1375 40.1677 60.0892C41.3727 57.1369 43.0826 54.1645 45.2493 51.2552C42.2134 48.8466 39.9187 47.2765 39.8961 47.2611C39.8731 47.2765 37.5788 48.8466 34.5427 51.2552C36.7096 54.1645 38.4195 57.1369 39.6245 60.0892C39.6444 60.1378 39.6644 60.187 39.6848 60.2375ZM39.8961 59.7198C38.7259 56.9101 37.1074 54.0896 35.0832 51.3274C36.4729 50.2324 37.6902 49.3248 38.5799 48.6776C39.056 48.3312 39.4382 48.0594 39.7024 47.8735C39.7764 47.8214 39.8411 47.7761 39.896 47.7378C39.951 47.7761 40.0157 47.8214 40.0896 47.8735C40.3538 48.0594 40.736 48.3312 41.2122 48.6776C42.1018 49.3248 43.3192 50.2324 44.7087 51.3274C42.6848 54.0896 41.0663 56.9101 39.8961 59.7198Z" fill="#B6C9D8"/>
<path fill-rule="evenodd" clip-rule="evenodd" d="M39.6848 60.2376C39.7567 60.4152 39.8268 60.5908 39.8961 60.7656C39.9654 60.5908 40.0355 60.4152 40.1074 60.2376C40.1273 60.1883 40.1474 60.1389 40.1677 60.0892C41.454 56.9383 43.2163 53.985 45.2493 51.2552C42.1781 48.8189 39.8961 47.2611 39.8961 47.2611C39.8961 47.2611 37.6137 48.8189 34.5427 51.2552C36.5759 53.985 38.3382 56.9383 39.6245 60.0892C39.6448 60.1389 39.6649 60.1883 39.6848 60.2376ZM35.0832 51.3273C36.4891 50.2195 37.7126 49.3078 38.6015 48.6615C39.0769 48.3159 39.4564 48.0462 39.7168 47.8632C39.7849 47.8154 39.8447 47.7735 39.8961 47.7377C39.9474 47.7735 40.0073 47.8154 40.0753 47.8632C40.3357 48.0462 40.7152 48.3159 41.1905 48.6615C42.0793 49.3078 43.3028 50.2195 44.7087 51.3274C42.8022 53.9288 41.1397 56.7334 39.8961 59.7198C38.6525 56.7334 36.99 53.9288 35.0832 51.3273Z" fill="#B6C9D8"/>
<path d="M26.1944 58.6719C25.4454 53.8216 25.7431 48.569 27.0795 43.0602C29.9679 45.7291 32.4784 48.4867 34.5412 51.2567C31.342 53.7943 28.5337 56.2894 26.1944 58.6719Z" fill="#B6C9D8" fill-opacity="0.2"/>
<path fill-rule="evenodd" clip-rule="evenodd" d="M27.0795 43.0602C27.1898 43.1622 27.2996 43.2643 27.4089 43.3665C30.1591 45.9399 32.5572 48.5926 34.5412 51.2567C31.4974 53.6711 28.8074 56.0469 26.5385 58.324C26.4227 58.4402 26.308 58.5562 26.1944 58.6719C26.1695 58.5104 26.1457 58.3485 26.1231 58.1861C25.4844 53.6009 25.7707 48.6644 26.9753 43.498C27.0093 43.3523 27.044 43.2063 27.0795 43.0602ZM26.4715 57.837C25.9012 53.4542 26.1792 48.7425 27.3061 43.8075C29.8682 46.2203 32.1159 48.6992 33.9991 51.1873C31.1606 53.4536 28.6327 55.6867 26.4715 57.837Z" fill="#B6C9D8"/>
<path d="M26.1944 58.6719C25.4454 53.822 25.7431 48.5694 27.0795 43.0602C29.9678 45.7291 32.4783 48.4867 34.5412 51.2567C31.342 53.7943 28.5337 56.2894 26.1944 58.6719Z" fill="#B6C9D8" fill-opacity="0.2"/>
<path fill-rule="evenodd" clip-rule="evenodd" d="M27.0795 43.0602C27.1898 43.1622 27.2997 43.2643 27.4089 43.3665C30.159 45.9399 32.5571 48.5926 34.5412 51.2567C31.4973 53.6711 28.8074 56.0469 26.5385 58.324C26.4227 58.4402 26.308 58.5562 26.1944 58.6719C26.1695 58.5104 26.1457 58.3485 26.1231 58.1861C25.4844 53.6013 25.7707 48.6648 26.9753 43.498C27.0093 43.3523 27.044 43.2063 27.0795 43.0602ZM26.4714 57.837C25.9012 53.4546 26.1792 48.7428 27.3061 43.8075C29.8681 46.2203 32.1159 48.6992 33.9991 51.1873C31.1606 53.4536 28.6326 55.6867 26.4714 57.837Z" fill="#B6C9D8"/>
<path d="M26.1944 58.6719C25.4454 53.822 25.7431 48.5694 27.0795 43.0602C29.9678 45.7291 32.4783 48.4867 34.5412 51.2567C31.342 53.7943 28.5337 56.2894 26.1944 58.6719Z" fill="#B6C9D8" fill-opacity="0.2"/>
<path fill-rule="evenodd" clip-rule="evenodd" d="M27.0795 43.0602C27.1898 43.1622 27.2997 43.2643 27.4089 43.3665C30.159 45.9399 32.5571 48.5926 34.5412 51.2567C31.4973 53.6711 28.8074 56.0469 26.5385 58.324C26.4227 58.4402 26.308 58.5562 26.1944 58.6719C26.1695 58.5104 26.1457 58.3485 26.1231 58.1861C25.4844 53.6013 25.7707 48.6648 26.9753 43.498C27.0093 43.3523 27.044 43.2063 27.0795 43.0602ZM26.4714 57.837C25.9012 53.4546 26.1792 48.7428 27.3061 43.8075C29.8681 46.2203 32.1159 48.6992 33.9991 51.1873C31.1606 53.4536 28.6326 55.6867 26.4714 57.837Z" fill="#B6C9D8"/>
<path d="M26.1959 58.6719C28.9583 55.8585 32.0169 53.2603 34.5428 51.2567C32.2951 48.2387 29.7162 45.4951 27.081 43.0602C25.8765 48.026 25.3733 53.3455 26.1959 58.6719Z" fill="#B6C9D8" fill-opacity="0.7"/>
<path fill-rule="evenodd" clip-rule="evenodd" d="M26.1959 58.6719C26.1709 58.51 26.1471 58.3481 26.1245 58.1862C25.4263 53.1786 25.8834 48.1864 26.9768 43.498C27.0109 43.3518 27.0456 43.2058 27.081 43.0602C27.1909 43.1618 27.3007 43.2639 27.4104 43.3665C29.9307 45.7245 32.3888 48.3645 34.5428 51.2567C32.1214 53.1774 29.2103 55.6446 26.54 58.324C26.4248 58.4396 26.3101 58.5556 26.1959 58.6719ZM26.4729 57.8372C25.8509 53.0645 26.2805 48.3034 27.3076 43.8074C29.6681 46.03 31.9658 48.4985 34.0006 51.1873C31.6979 53.0263 28.9897 55.3337 26.4729 57.8372Z" fill="#B6C9D8"/>
<path d="M53.5963 58.6719C51.2568 56.2889 48.4483 53.7939 45.249 51.2562C47.3122 48.4863 49.8227 45.7287 52.7109 43.0598C54.0475 48.569 54.345 53.8216 53.5963 58.6719Z" fill="#B6C9D8" fill-opacity="0.2"/>
<path fill-rule="evenodd" clip-rule="evenodd" d="M45.7911 51.1869C47.6746 48.6988 49.9224 46.2199 52.4843 43.8071C53.6114 48.7424 53.8893 53.4541 53.3192 57.8369C51.1578 55.6862 48.6296 53.4532 45.7911 51.1869ZM53.2521 58.3239C50.9831 56.0465 48.2929 53.6707 45.249 51.2562C47.2333 48.5921 49.6315 45.9395 52.3815 43.3661C52.4907 43.2639 52.6005 43.1618 52.7109 43.0598C52.7463 43.2059 52.781 43.3518 52.815 43.4976C54.0198 48.6643 54.306 53.6009 53.6676 58.1861C53.645 58.3485 53.6212 58.5104 53.5963 58.6719C53.4827 58.5562 53.3679 58.4402 53.2521 58.3239Z" fill="#B6C9D8"/>
<path d="M53.5963 58.6719C51.2568 56.2889 48.4483 53.7939 45.249 51.2562C47.3122 48.4863 49.8227 45.7287 52.7109 43.0598C54.0475 48.569 54.345 53.8216 53.5963 58.6719Z" fill="#B6C9D8" fill-opacity="0.2"/>
<path fill-rule="evenodd" clip-rule="evenodd" d="M45.7911 51.1869C47.6746 48.6988 49.9224 46.2199 52.4843 43.8071C53.6114 48.7424 53.8893 53.4541 53.3192 57.8369C51.1578 55.6862 48.6296 53.4532 45.7911 51.1869ZM53.2521 58.3239C50.9831 56.0465 48.2929 53.6707 45.249 51.2562C47.2333 48.5921 49.6315 45.9395 52.3815 43.3661C52.4907 43.2639 52.6005 43.1618 52.7109 43.0598C52.7463 43.2059 52.781 43.3518 52.815 43.4976C54.0198 48.6643 54.306 53.6009 53.6676 58.1861C53.645 58.3485 53.6212 58.5104 53.5963 58.6719C53.4827 58.5562 53.3679 58.4402 53.2521 58.3239Z" fill="#B6C9D8"/>
<path d="M53.5963 58.6719C51.2568 56.2889 48.4483 53.7939 45.249 51.2562C47.3122 48.4863 49.8227 45.7287 52.7109 43.0598C54.0475 48.569 54.345 53.8216 53.5963 58.6719Z" fill="#B6C9D8" fill-opacity="0.2"/>
<path fill-rule="evenodd" clip-rule="evenodd" d="M45.7911 51.1869C47.6746 48.6988 49.9224 46.2199 52.4843 43.8071C53.6114 48.7424 53.8893 53.4541 53.3192 57.8369C51.1578 55.6862 48.6296 53.4532 45.7911 51.1869ZM53.2521 58.3239C50.9831 56.0465 48.2929 53.6707 45.249 51.2562C47.2333 48.5921 49.6315 45.9395 52.3815 43.3661C52.4907 43.2639 52.6005 43.1618 52.7109 43.0598C52.7463 43.2059 52.781 43.3518 52.815 43.4976C54.0198 48.6643 54.306 53.6009 53.6676 58.1861C53.645 58.3485 53.6212 58.5104 53.5963 58.6719C53.4827 58.5562 53.3679 58.4402 53.2521 58.3239Z" fill="#B6C9D8"/>
<path d="M45.249 51.2562C47.7749 53.2599 50.8337 55.858 53.5963 58.6719C54.4187 53.3451 53.9155 48.0256 52.7109 43.0598C50.0756 45.4947 47.4969 48.2382 45.249 51.2562Z" fill="#B6C9D8" fill-opacity="0.7"/>
<path fill-rule="evenodd" clip-rule="evenodd" d="M45.7911 51.1869C47.8261 48.498 50.1237 46.0296 52.4843 43.807C53.5114 48.3029 53.9411 53.0641 53.3192 57.8371C50.8022 55.3333 48.0939 53.0259 45.7911 51.1869ZM53.2521 58.324C50.5817 55.6442 47.6704 53.177 45.249 51.2562C47.4031 48.3641 49.861 45.7241 52.3814 43.3661C52.4911 43.2634 52.601 43.1613 52.7109 43.0598C52.7462 43.2054 52.7809 43.3513 52.815 43.4976C53.9085 48.186 54.3656 53.1782 53.6676 58.1861C53.645 58.348 53.6213 58.51 53.5963 58.6719C53.482 58.5555 53.3673 58.4396 53.2521 58.324Z" fill="#B6C9D8"/>
<path d="M37.1351 70.4121C34.3161 66.0251 30.6359 62.0793 26.1965 58.6845L26.1944 58.6709C28.5338 56.2883 31.342 53.7933 34.5413 51.2556C36.7081 54.165 38.418 57.1374 39.6231 60.0897C39.7036 60.2866 39.7874 60.4955 39.8947 60.7661C38.4538 64.4013 37.525 67.6469 37.1351 70.4121Z" fill="#B6C9D8" fill-opacity="0.45"/>
<path fill-rule="evenodd" clip-rule="evenodd" d="M39.2603 60.2378L39.2603 60.2379C39.3253 60.397 39.3927 60.5642 39.4732 60.7665C38.225 63.9363 37.3621 66.8201 36.9078 69.3556C34.2172 65.3777 30.8138 61.7776 26.7779 58.638C28.9631 56.4413 31.5464 54.1487 34.4674 51.8153C36.5033 54.5973 38.114 57.4295 39.2603 60.2378ZM34.7742 51.5711C34.6972 51.4658 34.6195 51.3607 34.5413 51.2556C34.4386 51.3371 34.3363 51.4185 34.2345 51.4998C31.2838 53.8563 28.6732 56.1739 26.4652 58.3967C26.3932 58.4691 26.3217 58.5415 26.2506 58.6138C26.2318 58.6328 26.2131 58.6518 26.1944 58.6709L26.1965 58.6845C26.2144 58.6982 26.2324 58.712 26.2503 58.7257C26.3339 58.7898 26.4173 58.8541 26.5003 58.9187C30.6381 62.1314 34.1038 65.8283 36.8128 69.9182C36.9215 70.0822 37.0289 70.2468 37.1351 70.4121C37.1621 70.2203 37.1918 70.0262 37.224 69.8298C37.6563 67.1947 38.5538 64.1491 39.8947 60.7661C39.7874 60.4955 39.7036 60.2866 39.6231 60.0897C38.4616 57.244 36.831 54.3796 34.7742 51.5711Z" fill="#B6C9D8"/>
<path d="M37.1351 70.4121C34.3162 66.0251 30.6359 62.0793 26.1965 58.6845L26.1944 58.6709C28.5338 56.2883 31.342 53.7933 34.5413 51.2556C36.7081 54.165 38.418 57.1374 39.6231 60.0897C39.7044 60.2888 39.7883 60.4972 39.8947 60.7661C38.4538 64.4013 37.525 67.6469 37.1351 70.4121Z" fill="#B6C9D8" fill-opacity="0.45"/>
<path d="M37.1762 70.7031C37.5317 68.1829 38.3647 65.0205 39.9358 61.0571C39.8473 60.8338 39.7575 60.6092 39.6643 60.3807C38.3779 57.2298 36.6156 54.2765 34.5824 51.5467C32.0566 53.5503 28.998 56.1485 26.2355 58.9619C26.2362 58.9666 26.2369 58.9713 26.2376 58.9755C30.1907 61.9986 34.0551 65.8456 37.1762 70.7031Z" fill="#B6C9D8" fill-opacity="0.6"/>
<path d="M37.1762 70.7031C37.5317 68.1829 38.3647 65.0205 39.9358 61.0571C39.8473 60.8338 39.7575 60.6092 39.6643 60.3807C38.3779 57.2298 36.6156 54.2765 34.5824 51.5467C32.0566 53.5503 28.998 56.1485 26.2355 58.9619C26.2362 58.9666 26.2369 58.9713 26.2376 58.9755C30.1907 61.9986 34.0551 65.8456 37.1762 70.7031Z" fill="#B6C9D8" fill-opacity="0.6"/>
<path fill-rule="evenodd" clip-rule="evenodd" d="M37.1351 70.4121C37.0286 70.2462 36.9211 70.0816 36.8129 69.9181C33.8313 65.4156 30.2125 61.8009 26.5004 58.9186C26.417 58.8539 26.3336 58.7895 26.2501 58.7256C26.2323 58.7119 26.2144 58.6982 26.1965 58.6845C26.1958 58.6802 26.1951 58.6756 26.1944 58.6709C26.2132 58.6517 26.232 58.6326 26.2508 58.6136C26.3221 58.5411 26.3936 58.4688 26.4652 58.3967C29.0439 55.8012 31.854 53.4015 34.2345 51.4998C34.3376 51.4175 34.4399 51.3361 34.5413 51.2557C34.5413 51.2557 34.5413 51.2557 34.5413 51.2556C34.6194 51.3605 34.697 51.4656 34.7743 51.5711C36.7091 54.2126 38.3862 57.0597 39.6232 60.0897C39.7164 60.3182 39.8062 60.5428 39.8947 60.7661C38.4423 64.4299 37.6207 67.4094 37.224 69.8297C37.1916 70.0275 37.162 70.2217 37.1351 70.4121ZM36.9078 69.3553C33.9542 64.9871 30.4092 61.4627 26.7779 58.638C29.3288 56.0743 32.1072 53.7013 34.4675 51.8153C36.3831 54.4324 38.0396 57.2475 39.2603 60.2378C39.3329 60.4158 39.4035 60.5915 39.4732 60.7665C38.1281 64.1818 37.3272 67.0114 36.9078 69.3553Z" fill="#B6C9D8"/>
<path d="M42.6543 70.4121C42.2644 67.6469 41.3356 64.4013 39.8947 60.7661C39.9999 60.501 40.0859 60.2862 40.1663 60.0897C41.3714 57.1374 43.0813 54.165 45.2479 51.2556C48.4472 53.7933 51.2558 56.2883 53.5952 58.6713L53.5931 58.6845C49.1534 62.0793 45.4735 66.0251 42.6543 70.4121Z" fill="#B6C9D8" fill-opacity="0.45"/>
<path fill-rule="evenodd" clip-rule="evenodd" d="M42.5654 69.8298C42.5977 70.0262 42.6273 70.2203 42.6543 70.4121C42.7605 70.2468 42.868 70.0822 42.9766 69.9182C45.6858 65.8284 49.1511 62.1315 53.289 58.9188C53.3729 58.8536 53.4571 58.7887 53.5416 58.7239C53.5588 58.7108 53.5759 58.6976 53.5931 58.6845L53.5952 58.6713C53.5769 58.6526 53.5585 58.6339 53.5401 58.6153C53.4686 58.5426 53.3966 58.4697 53.3242 58.3968C51.1161 56.1738 48.5053 53.8562 45.5547 51.4998C45.4528 51.4185 45.3506 51.3371 45.2479 51.2556C45.1697 51.3607 45.092 51.4659 45.015 51.5711C42.9584 54.3796 41.3279 57.244 40.1663 60.0897C40.0859 60.2862 39.9999 60.501 39.8947 60.7661C41.2357 64.1491 42.1331 67.1947 42.5654 69.8298ZM42.8816 69.3556C42.4274 66.8202 41.5644 63.9364 40.3163 60.7665C40.3959 60.5664 40.4643 60.3961 40.529 60.2382L40.5291 60.2378C41.6754 57.4295 43.2862 54.5973 45.3218 51.8153C48.2428 54.1486 50.8262 56.4412 53.0115 58.6381C48.9753 61.7777 45.5723 65.3778 42.8816 69.3556Z" fill="#B6C9D8"/>
<path d="M42.6543 70.4121C42.2644 67.6469 41.3356 64.4013 39.8947 60.7661C39.9995 60.5023 40.0854 60.2875 40.1663 60.0897C41.3714 57.1374 43.0813 54.165 45.2479 51.2556C48.4472 53.7933 51.2558 56.2883 53.5952 58.6713L53.5931 58.6845C49.1534 62.0793 45.4731 66.0251 42.6543 70.4121Z" fill="#B6C9D8" fill-opacity="0.45"/>
<path fill-rule="evenodd" clip-rule="evenodd" d="M42.5654 69.8298C42.5976 70.0262 42.6273 70.2203 42.6543 70.4121C42.7605 70.2468 42.868 70.0822 42.9766 69.9181C45.6854 65.8284 49.1511 62.1315 53.289 58.9188C53.3729 58.8536 53.4571 58.7887 53.5416 58.7239C53.5588 58.7108 53.5759 58.6976 53.5931 58.6845L53.5952 58.6713C53.5769 58.6526 53.5585 58.6339 53.5401 58.6153C53.4686 58.5426 53.3966 58.4697 53.3242 58.3968C51.1161 56.1738 48.5053 53.8562 45.5547 51.4998C45.4528 51.4185 45.3506 51.3371 45.2479 51.2556C45.1697 51.3607 45.092 51.4659 45.015 51.5711C42.9584 54.3796 41.3279 57.244 40.1663 60.0897C40.0854 60.2875 39.9995 60.5023 39.8947 60.7661C41.2357 64.1491 42.1331 67.1947 42.5654 69.8298ZM42.8816 69.3555C42.4273 66.8201 41.5644 63.9364 40.3163 60.7666C40.3956 60.5673 40.4641 60.3969 40.529 60.2381L40.5291 60.2378C41.6754 57.4295 43.2862 54.5973 45.3218 51.8153C48.2428 54.1486 50.8262 56.4412 53.0115 58.6381C48.9754 61.7777 45.572 65.3777 42.8816 69.3555Z" fill="#B6C9D8"/>
<path d="M42.6543 70.4121C42.2644 67.6469 41.3356 64.4013 39.8947 60.7661C39.9995 60.5023 40.0854 60.2875 40.1663 60.0897C41.3714 57.1374 43.0813 54.165 45.2479 51.2556C48.4472 53.7933 51.2558 56.2883 53.5952 58.6713L53.5931 58.6845C49.1534 62.0793 45.4731 66.0251 42.6543 70.4121Z" fill="#B6C9D8" fill-opacity="0.45"/>
<path fill-rule="evenodd" clip-rule="evenodd" d="M42.5654 69.8298C42.5976 70.0262 42.6273 70.2203 42.6543 70.4121C42.7605 70.2468 42.868 70.0822 42.9766 69.9181C45.6854 65.8284 49.1511 62.1315 53.289 58.9188C53.3729 58.8536 53.4571 58.7887 53.5416 58.7239C53.5588 58.7108 53.5759 58.6976 53.5931 58.6845L53.5952 58.6713C53.5769 58.6526 53.5585 58.6339 53.5401 58.6153C53.4686 58.5426 53.3966 58.4697 53.3242 58.3968C51.1161 56.1738 48.5053 53.8562 45.5547 51.4998C45.4528 51.4185 45.3506 51.3371 45.2479 51.2556C45.1697 51.3607 45.092 51.4659 45.015 51.5711C42.9584 54.3796 41.3279 57.244 40.1663 60.0897C40.0854 60.2875 39.9995 60.5023 39.8947 60.7661C41.2357 64.1491 42.1331 67.1947 42.5654 69.8298ZM42.8816 69.3555C42.4273 66.8201 41.5644 63.9364 40.3163 60.7666C40.3956 60.5673 40.4641 60.3969 40.529 60.2381L40.5291 60.2378C41.6754 57.4295 43.2862 54.5973 45.3218 51.8153C48.2428 54.1486 50.8262 56.4412 53.0115 58.6381C48.9754 61.7777 45.572 65.3777 42.8816 69.3555Z" fill="#B6C9D8"/>
<path d="M45.2479 51.2556C43.2149 53.9855 41.4527 56.9387 40.1663 60.0897C40.0731 60.3182 39.9833 60.5428 39.8947 60.7661C41.4659 64.7294 42.2989 67.8919 42.6543 70.4121C45.7753 65.555 49.6399 61.7076 53.5931 58.6845C53.5935 58.6802 53.5944 58.6755 53.5952 58.6713C50.8326 55.8574 47.7738 53.2593 45.2479 51.2556Z" fill="#B6C9D8" fill-opacity="0.6"/>
<path fill-rule="evenodd" clip-rule="evenodd" d="M45.5547 51.4998C45.4516 51.4175 45.3493 51.3361 45.2479 51.2556C45.1699 51.3605 45.0922 51.4656 45.015 51.5711C43.0803 54.2126 41.4033 57.0597 40.1663 60.0897C40.0731 60.3182 39.9833 60.5428 39.8947 60.7661C41.3471 64.4299 42.1688 67.4094 42.5655 69.8297C42.5979 70.0275 42.6275 70.2217 42.6543 70.4121C42.7609 70.2463 42.8683 70.0816 42.9766 69.9181C45.958 65.4161 49.5769 61.801 53.289 58.9188C53.3732 58.8535 53.4574 58.7885 53.5416 58.7239C53.5588 58.7108 53.5759 58.6976 53.5931 58.6845C53.5933 58.6825 53.5936 58.6803 53.5939 58.6782C53.5943 58.6759 53.5948 58.6735 53.5952 58.6713C53.5769 58.6526 53.5585 58.6339 53.5401 58.6152C53.4683 58.5423 53.3963 58.4695 53.3242 58.3968C50.7455 55.8011 47.9353 53.4014 45.5547 51.4998ZM45.3218 51.8154C47.6821 53.7012 50.4605 56.0741 53.0115 58.6382C49.3802 61.4629 45.8351 64.9875 42.8817 69.3553C42.4623 67.0114 41.6613 64.1818 40.3163 60.7665C40.3859 60.5915 40.4565 60.4157 40.5291 60.2378C41.7499 57.2475 43.4063 54.4325 45.3218 51.8154Z" fill="#B6C9D8"/>
<path d="M39.8556 80C39.7373 79.9996 39.6198 79.9983 39.5019 79.9966L39.35 79.9945C38.8272 79.9331 37.9895 79.7545 36.9671 79.2537C35.7392 78.6523 34.5584 77.7411 33.4575 76.546C32.0437 75.0112 30.7695 73.0114 29.6703 70.6025C28.3521 67.7128 27.27 64.197 26.4542 60.1527C26.3652 59.7115 26.2833 59.2453 26.1966 58.6848C30.636 62.0796 34.3162 66.0254 37.1352 70.4124C36.0431 78.1545 39.4619 79.8338 39.8556 80Z" fill="#B6C9D8" fill-opacity="0.9"/>
<path fill-rule="evenodd" clip-rule="evenodd" d="M39.3812 79.7285C39.4244 79.7586 39.4656 79.786 39.5045 79.8108C39.5045 79.8108 39.5046 79.8108 39.5046 79.8108C39.6719 79.9172 39.7972 79.9753 39.8556 80C39.7373 79.9996 39.6198 79.9983 39.5019 79.9966L39.35 79.9945C39.249 79.9826 39.1364 79.9664 39.0129 79.9443C38.4969 79.8521 37.7921 79.6578 36.9671 79.2537C35.7392 78.6523 34.5584 77.7411 33.4575 76.546C32.0437 75.0112 30.7695 73.0114 29.6703 70.6025C28.3521 67.7128 27.27 64.197 26.4542 60.1527C26.3968 59.8684 26.3424 59.5736 26.2878 59.25C26.2577 59.0714 26.2274 58.8841 26.1966 58.6848C26.3484 58.8008 26.4993 58.9175 26.6492 59.0349C30.8866 62.3499 34.4126 66.1754 37.1352 70.4124C36.2993 76.3387 38.1064 78.7126 39.1766 79.5747C39.2384 79.6244 39.2977 79.6692 39.354 79.7092C39.3631 79.7158 39.3722 79.7222 39.3812 79.7285ZM38.4228 79.4032C38.0484 79.2945 37.6158 79.1351 37.1395 78.9018L37.1394 78.9018C35.9626 78.3254 34.8199 77.4465 33.7457 76.2805C32.3664 74.7831 31.1132 72.8207 30.0268 70.4398L29.6708 70.6023L30.0268 70.4398C28.7241 67.584 27.6499 64.0983 26.8383 60.0752C26.8081 59.9253 26.7786 59.7723 26.7495 59.6132C30.7623 62.808 34.1145 66.4675 36.7271 70.5027C36.2072 74.3483 36.7863 76.7521 37.5941 78.2347C37.8592 78.7212 38.1466 79.1041 38.4228 79.4032Z" fill="#B6C9D8"/>
<path d="M39.8556 80C39.7373 79.9996 39.6198 79.9983 39.5019 79.9966L39.35 79.9945C38.8272 79.9331 37.9895 79.7545 36.9671 79.2537C35.7392 78.6523 34.5584 77.7411 33.4575 76.546C32.0437 75.0112 30.7695 73.0114 29.6703 70.6025C28.3521 67.7132 27.27 64.197 26.4542 60.1527C26.3652 59.7115 26.2834 59.2453 26.1966 58.6848C30.636 62.0796 34.3163 66.0254 37.1352 70.4124C36.0431 78.1549 39.4619 79.8338 39.8556 80Z" fill="#B6C9D8" fill-opacity="0.8"/>
<path fill-rule="evenodd" clip-rule="evenodd" d="M39.3812 79.7285C39.4244 79.7587 39.4656 79.786 39.5045 79.8108C39.5045 79.8108 39.5046 79.8108 39.5046 79.8109C39.6719 79.9172 39.7972 79.9753 39.8556 80C39.7373 79.9996 39.6198 79.9983 39.5019 79.9966L39.35 79.9945C39.249 79.9826 39.1363 79.9664 39.0128 79.9443C38.4968 79.8521 37.7921 79.6578 36.9671 79.2537C35.7392 78.6523 34.5584 77.7411 33.4575 76.546C32.0437 75.0112 30.7695 73.0114 29.6703 70.6025C28.3521 67.7132 27.27 64.197 26.4542 60.1527C26.3969 59.8684 26.3425 59.5736 26.2878 59.25C26.2577 59.0714 26.2275 58.8841 26.1966 58.6848C26.3484 58.8008 26.4993 58.9176 26.6493 59.0349C30.8867 62.3499 34.4127 66.1754 37.1352 70.4124C36.2993 76.3389 38.1063 78.7126 39.1765 79.5747C39.2384 79.6244 39.2977 79.6692 39.354 79.7093C39.3631 79.7158 39.3722 79.7222 39.3812 79.7285ZM38.4226 79.4032C38.0483 79.2944 37.6157 79.1351 37.1395 78.9018L37.1394 78.9018C35.9626 78.3254 34.8199 77.4465 33.7457 76.2805C32.3664 74.7831 31.1132 72.8207 30.0268 70.4398C28.7241 67.5845 27.6499 64.0983 26.8383 60.0752C26.8081 59.9253 26.7787 59.7723 26.7496 59.6133C30.7624 62.808 34.1146 66.4675 36.7271 70.5027C36.2072 74.3485 36.7863 76.7523 37.5941 78.2348C37.8592 78.7213 38.1465 79.1041 38.4226 79.4032Z" fill="#B6C9D8"/>
<path fill-rule="evenodd" clip-rule="evenodd" d="M39.3812 79.7285C39.4244 79.7587 39.4656 79.786 39.5045 79.8108C39.5045 79.8108 39.5046 79.8108 39.5046 79.8109C39.6719 79.9172 39.7972 79.9753 39.8556 80C39.7373 79.9996 39.6198 79.9983 39.5019 79.9966L39.35 79.9945C39.249 79.9826 39.1363 79.9664 39.0128 79.9443C38.4968 79.8521 37.7921 79.6578 36.9671 79.2537C35.7392 78.6523 34.5584 77.7411 33.4575 76.546C32.0437 75.0112 30.7695 73.0114 29.6703 70.6025C28.3521 67.7132 27.27 64.197 26.4542 60.1527C26.3969 59.8684 26.3425 59.5736 26.2878 59.25C26.2577 59.0714 26.2275 58.8841 26.1966 58.6848C26.3484 58.8008 26.4993 58.9176 26.6493 59.0349C30.8867 62.3499 34.4127 66.1754 37.1352 70.4124C36.2993 76.3389 38.1063 78.7126 39.1765 79.5747C39.2384 79.6244 39.2977 79.6692 39.354 79.7093C39.3631 79.7158 39.3722 79.7222 39.3812 79.7285ZM38.4226 79.4032C38.0483 79.2944 37.6157 79.1351 37.1395 78.9018L37.1394 78.9018C35.9626 78.3254 34.8199 77.4465 33.7457 76.2805C32.3664 74.7831 31.1132 72.8207 30.0268 70.4398C28.7241 67.5845 27.6499 64.0983 26.8383 60.0752C26.8081 59.9253 26.7787 59.7723 26.7496 59.6133C30.7624 62.808 34.1146 66.4675 36.7271 70.5027C36.2072 74.3485 36.7863 76.7523 37.5941 78.2348C37.8592 78.7213 38.1465 79.1041 38.4226 79.4032Z" fill="#B6C9D8"/>
<path fill-rule="evenodd" clip-rule="evenodd" d="M37.1352 70.4128C36.2991 76.34 38.105 78.7131 39.1759 79.5749C39.2378 79.6247 39.2972 79.6695 39.3536 79.7096C39.3629 79.7162 39.3721 79.7227 39.3812 79.7291C39.6093 79.8883 39.7827 79.9693 39.8556 80C39.7241 80 39.5935 79.9982 39.4628 79.9964C39.4252 79.9959 39.3876 79.9954 39.35 79.9949C39.2496 79.9831 39.1367 79.9669 39.0122 79.9446C36.5936 79.5116 29.8116 76.7975 26.4541 60.1531C26.3935 59.8522 26.3387 59.5513 26.2879 59.2505C26.2561 59.062 26.2258 58.8736 26.1966 58.6852C26.3476 58.8007 26.4986 58.9174 26.6493 59.0354C30.4439 62.0038 34.1334 65.7409 37.1352 70.4128ZM26.7496 59.6137C30.3619 62.4892 33.8576 66.0706 36.7271 70.5031C36.2074 74.3473 36.785 76.7505 37.5921 78.2331C37.8573 78.7204 38.1449 79.1037 38.4215 79.4032C37.276 79.0703 35.5671 78.2584 33.7457 76.2811C31.2825 73.6071 28.5943 68.7809 26.8383 60.0757M26.7496 59.6137C26.7778 59.7678 26.8073 59.9218 26.8383 60.0756L26.7496 59.6137Z" fill="#B6C9D8"/>
<path d="M39.9359 80C40.3296 79.8338 43.7485 78.1541 42.6563 70.4124C45.4755 66.0254 49.1553 62.0796 53.595 58.6848C53.5078 59.2465 53.426 59.7128 53.3375 60.1527C52.5215 64.1974 51.4395 67.7132 50.1212 70.6025C49.0221 73.0114 47.7481 75.0112 46.334 76.546C45.2333 77.7411 44.0525 78.6523 42.8244 79.2537C41.802 79.7545 40.9643 79.9331 40.4415 79.9945L40.29 79.9966C40.1721 79.9983 40.0542 79.9996 39.9359 80Z" fill="#B6C9D8" fill-opacity="0.9"/>
<path d="M39.9359 80C40.3296 79.8338 43.7485 78.1541 42.6563 70.4124C45.4755 66.0254 49.1553 62.0796 53.595 58.6848C53.5078 59.2465 53.426 59.7128 53.3375 60.1527C52.5215 64.1974 51.4395 67.7132 50.1212 70.6025C49.0221 73.0114 47.7481 75.0112 46.334 76.546C45.2333 77.7411 44.0525 78.6523 42.8244 79.2537C41.802 79.7545 40.9643 79.9331 40.4415 79.9945L40.29 79.9966C40.1721 79.9983 40.0542 79.9996 39.9359 80Z" fill="#B6C9D8" fill-opacity="0.7"/>
<path fill-rule="evenodd" clip-rule="evenodd" d="M40.6148 79.5747C41.6851 78.7126 43.4924 76.3385 42.6563 70.4124C45.379 66.1754 48.9047 62.35 53.1422 59.035C53.2923 58.9176 53.4432 58.8009 53.595 58.6848C53.564 58.8842 53.5338 59.0716 53.5036 59.2501C53.4489 59.5743 53.3946 59.869 53.3375 60.1527C52.5215 64.1974 51.4395 67.7132 50.1212 70.6025C49.0221 73.0114 47.7481 75.0112 46.334 76.546C45.2333 77.7411 44.0525 78.6523 42.8244 79.2537C41.9993 79.6578 41.2946 79.8521 40.7785 79.9443C40.6551 79.9664 40.5424 79.9826 40.4415 79.9945L40.29 79.9966C40.1721 79.9983 40.0542 79.9996 39.9359 80C39.9944 79.9753 40.1198 79.9171 40.2873 79.8105C40.2873 79.8105 40.2874 79.8105 40.2874 79.8105C40.3262 79.7858 40.3673 79.7585 40.4103 79.7284C40.4193 79.7221 40.4284 79.7157 40.4375 79.7092C40.4937 79.6691 40.553 79.6244 40.6148 79.5747ZM41.3687 79.4032C41.743 79.2945 42.1757 79.1351 42.652 78.9018L42.6521 78.9018C43.829 78.3254 44.9718 77.4465 46.0458 76.2805L46.0458 76.2805C47.4254 74.7831 48.6784 72.8207 49.7646 70.4398L49.7647 70.4398C51.0675 67.5845 52.1416 64.0988 52.9534 60.0752C52.9835 59.9255 53.0129 59.7725 53.042 59.6133C49.029 62.8081 45.6772 66.4675 43.0644 70.5027C43.5843 74.3481 43.0053 76.7519 42.1974 78.2345C41.9323 78.7211 41.6449 79.1041 41.3687 79.4032Z" fill="#B6C9D8"/>
<path fill-rule="evenodd" clip-rule="evenodd" d="M40.6148 79.5747C41.6851 78.7126 43.4924 76.3385 42.6563 70.4124C45.3787 66.1754 48.9047 62.3499 53.1424 59.0349C53.2924 58.9175 53.4433 58.8008 53.595 58.6848C53.5642 58.8841 53.5339 59.0715 53.5038 59.25C53.449 59.574 53.3946 59.8687 53.3375 60.1527C52.5215 64.197 51.4395 67.7132 50.1212 70.6025C49.0221 73.0114 47.7477 75.0112 46.334 76.546C45.2333 77.7411 44.0525 78.6523 42.8244 79.2537C41.9993 79.6578 41.2946 79.8521 40.7785 79.9443C40.6551 79.9664 40.5424 79.9826 40.4415 79.9945L40.29 79.9966C40.1721 79.9983 40.0542 79.9996 39.9359 80C39.9944 79.9753 40.1198 79.9171 40.2873 79.8105C40.2873 79.8105 40.2874 79.8105 40.2874 79.8105C40.3262 79.7858 40.3673 79.7585 40.4103 79.7284C40.4193 79.7221 40.4284 79.7157 40.4375 79.7092C40.4937 79.6691 40.553 79.6244 40.6148 79.5747ZM41.3687 79.4032C41.6449 79.1041 41.9323 78.7211 42.1974 78.2345C43.0053 76.7519 43.5843 74.3481 43.0644 70.5027C45.6768 66.4675 49.029 62.808 53.042 59.6133C53.0129 59.7723 52.9835 59.9254 52.9534 60.0751C52.1416 64.0984 51.0674 67.5845 49.7647 70.4398L49.7646 70.4398C48.6784 72.8207 47.425 74.7831 46.0458 76.2805C44.9718 77.4465 43.829 78.3254 42.6521 78.9018L42.652 78.9018C42.1757 79.1351 41.743 79.2945 41.3687 79.4032Z" fill="#B6C9D8"/>
<path fill-rule="evenodd" clip-rule="evenodd" d="M40.6148 79.5747C41.6851 78.7126 43.4924 76.3385 42.6563 70.4124C45.3787 66.1754 48.9047 62.3499 53.1424 59.0349C53.2924 58.9175 53.4433 58.8008 53.595 58.6848C53.5642 58.8841 53.5339 59.0715 53.5038 59.25C53.449 59.574 53.3946 59.8687 53.3375 60.1527C52.5215 64.197 51.4395 67.7132 50.1212 70.6025C49.0221 73.0114 47.7477 75.0112 46.334 76.546C45.2333 77.7411 44.0525 78.6523 42.8244 79.2537C41.9993 79.6578 41.2946 79.8521 40.7785 79.9443C40.6551 79.9664 40.5424 79.9826 40.4415 79.9945L40.29 79.9966C40.1721 79.9983 40.0542 79.9996 39.9359 80C39.9944 79.9753 40.1198 79.9171 40.2873 79.8105C40.2873 79.8105 40.2874 79.8105 40.2874 79.8105C40.3262 79.7858 40.3673 79.7585 40.4103 79.7284C40.4193 79.7221 40.4284 79.7157 40.4375 79.7092C40.4937 79.6691 40.553 79.6244 40.6148 79.5747ZM41.3687 79.4032C41.6449 79.1041 41.9323 78.7211 42.1974 78.2345C43.0053 76.7519 43.5843 74.3481 43.0644 70.5027C45.6768 66.4675 49.029 62.808 53.042 59.6133C53.0129 59.7723 52.9835 59.9254 52.9534 60.0751C52.1416 64.0984 51.0674 67.5845 49.7647 70.4398L49.7646 70.4398C48.6784 72.8207 47.425 74.7831 46.0458 76.2805C44.9718 77.4465 43.829 78.3254 42.6521 78.9018L42.652 78.9018C42.1757 79.1351 41.743 79.2945 41.3687 79.4032Z" fill="#B6C9D8"/>
<path fill-rule="evenodd" clip-rule="evenodd" d="M42.6563 70.4128C45.658 65.7413 49.3476 62.0038 53.1423 59.0354C53.293 58.9175 53.444 58.8007 53.595 58.6852C53.5659 58.8736 53.5355 59.0621 53.5037 59.2505C53.4528 59.5514 53.398 59.8522 53.3375 60.1531C49.9799 76.7974 43.1979 79.5116 40.7793 79.9446C40.6548 79.9669 40.5418 79.9831 40.4415 79.9949C40.4039 79.9954 40.3663 79.9959 40.3287 79.9964C40.198 79.9982 40.0674 80 39.9359 80C40.0088 79.9693 40.1822 79.8883 40.4103 79.7291C40.4194 79.7227 40.4286 79.7162 40.4379 79.7096C40.4943 79.6695 40.5537 79.6247 40.6156 79.5749C41.6865 78.7131 43.4924 76.34 42.6563 70.4128ZM41.37 79.4031C41.6466 79.1037 41.9342 78.7204 42.1994 78.2331C43.0065 76.7505 43.5841 74.3473 43.0644 70.5031C45.9337 66.071 49.4296 62.4893 53.0419 59.6138C53.0137 59.7679 52.9843 59.9218 52.9534 60.0756C51.1972 68.7809 48.509 73.6071 46.0458 76.2811C44.2243 78.2584 42.5155 79.0703 41.37 79.4031Z" fill="#B6C9D8"/>
<path d="M39.8961 75.416C39.1001 73.7069 38.1717 72.0238 37.1365 70.4127C37.5264 67.6475 38.4552 64.4019 39.8961 60.7667C41.337 64.4019 42.2658 67.6475 42.6557 70.4127C41.6205 72.0238 40.6921 73.7069 39.8961 75.416Z" fill="#B6C9D8" fill-opacity="0.9"/>
<path d="M39.8961 75.416C39.1001 73.7069 38.1717 72.0238 37.1365 70.4127C37.5264 67.6475 38.4552 64.4019 39.8961 60.7667C41.337 64.4019 42.2658 67.6475 42.6557 70.4127C41.6205 72.0238 40.6921 73.7069 39.8961 75.416Z" fill="#B6C9D8" fill-opacity="0.7"/>
<path fill-rule="evenodd" clip-rule="evenodd" d="M37.5452 70.3243C37.9058 67.8699 38.6937 65.0246 39.8961 61.8508C41.0985 65.0246 41.8864 67.8699 42.247 70.3243C41.3837 71.6779 40.5952 73.081 39.8961 74.5073C39.197 73.081 38.4085 71.6779 37.5452 70.3243ZM39.6789 74.9572C38.9328 73.4058 38.0789 71.8794 37.1365 70.4127C37.5071 67.7843 38.3646 64.722 39.6859 61.3036C39.7547 61.1256 39.8248 60.9466 39.8961 60.7667C39.9674 60.9466 40.0375 61.1256 40.1063 61.3036C41.4276 64.722 42.2851 67.7843 42.6557 70.4127C41.7132 71.8794 40.8594 73.4058 40.1133 74.9572C40.0398 75.1099 39.9674 75.2628 39.8961 75.416C39.8248 75.2628 39.7524 75.1099 39.6789 74.9572Z" fill="#B6C9D8"/>
<path fill-rule="evenodd" clip-rule="evenodd" d="M37.5452 70.3243C37.9058 67.8699 38.6937 65.0246 39.8961 61.8508C41.0985 65.0246 41.8864 67.8699 42.247 70.3243C41.384 71.6776 40.5952 73.081 39.8961 74.5073C39.197 73.081 38.4085 71.6779 37.5452 70.3243ZM39.6789 74.9572C38.9328 73.4058 38.0789 71.8794 37.1365 70.4127C37.5071 67.7843 38.3646 64.722 39.6859 61.3036C39.7547 61.1256 39.8248 60.9466 39.8961 60.7667C39.9674 60.9466 40.0375 61.1256 40.1063 61.3036C41.4276 64.722 42.2851 67.7843 42.6557 70.4127C41.7136 71.879 40.8594 73.4057 40.1133 74.9572C40.0398 75.1099 39.9674 75.2628 39.8961 75.416C39.8248 75.2628 39.7524 75.1099 39.6789 74.9572Z" fill="#B6C9D8"/>
<path fill-rule="evenodd" clip-rule="evenodd" d="M37.5452 70.3243C37.9058 67.8699 38.6937 65.0246 39.8961 61.8508C41.0985 65.0246 41.8864 67.8699 42.247 70.3243C41.384 71.6776 40.5952 73.081 39.8961 74.5073C39.197 73.081 38.4085 71.6779 37.5452 70.3243ZM39.6789 74.9572C38.9328 73.4058 38.0789 71.8794 37.1365 70.4127C37.5071 67.7843 38.3646 64.722 39.6859 61.3036C39.7547 61.1256 39.8248 60.9466 39.8961 60.7667C39.9674 60.9466 40.0375 61.1256 40.1063 61.3036C41.4276 64.722 42.2851 67.7843 42.6557 70.4127C41.7136 71.879 40.8594 73.4057 40.1133 74.9572C40.0398 75.1099 39.9674 75.2628 39.8961 75.416C39.8248 75.2628 39.7524 75.1099 39.6789 74.9572Z" fill="#B6C9D8"/>
<path d="M39.857 80C39.4633 79.8338 36.0444 78.1549 37.1366 70.4124C38.1718 72.0235 39.1002 73.7066 39.8962 75.4157C40.6922 73.7066 41.621 72.023 42.6558 70.4124C43.748 78.1541 40.3291 79.8338 39.9353 80H39.8962H39.857Z" fill="#B6C9D8" fill-opacity="0.6"/>
<path fill-rule="evenodd" clip-rule="evenodd" d="M39.857 80C39.4738 79.8382 36.2251 78.2436 37.0585 71.0206C37.0814 70.8222 37.1074 70.6194 37.1366 70.4124C37.2469 70.5841 37.356 70.7566 37.4639 70.9298C38.2775 72.2368 39.0203 73.5871 39.679 74.9568C39.7524 75.1095 39.8248 75.2625 39.8962 75.4157C39.9675 75.2625 40.0399 75.1096 40.1134 74.9568C40.7721 73.5871 41.5152 72.2366 42.3285 70.9299C42.4364 70.7566 42.5455 70.5841 42.6558 70.4124C42.685 70.6194 42.711 70.8222 42.7339 71.0206C43.5673 78.2428 40.3186 79.8382 39.9353 80H39.857ZM39.8962 79.5848C39.6062 79.433 38.8882 78.9691 38.2837 77.8598C37.6387 76.6762 37.1045 74.7237 37.3956 71.5674C38.187 72.873 38.9065 74.2189 39.5409 75.5811L39.8962 76.3439L40.2514 75.5811C40.8858 74.219 41.6056 72.8729 42.3968 71.5675C42.6878 74.7234 42.1537 76.6758 41.5087 77.8595C40.9042 78.9689 40.1861 79.433 39.8962 79.5848Z" fill="#B6C9D8"/>
<path d="M39.857 80C39.4633 79.8338 36.0444 78.1549 37.1366 70.4124C38.1718 72.0235 39.1002 73.7066 39.8962 75.4157C40.6922 73.7066 41.621 72.023 42.6558 70.4124C43.748 78.1545 40.3291 79.8338 39.9353 80C39.9247 80 39.8962 80 39.8962 80H39.857Z" fill="#B6C9D8" fill-opacity="0.6"/>
<path fill-rule="evenodd" clip-rule="evenodd" d="M39.857 80C39.4738 79.8382 36.2251 78.2436 37.0585 71.0206C37.0814 70.8222 37.1074 70.6194 37.1366 70.4124C37.2469 70.5841 37.356 70.7566 37.4639 70.9298C38.2774 72.2368 39.0202 73.5871 39.679 74.9568C39.7524 75.1095 39.8248 75.2625 39.8962 75.4157C39.9675 75.2625 40.0399 75.1096 40.1134 74.9568C40.7721 73.5871 41.5151 72.2366 42.3285 70.9299C42.4364 70.7566 42.5455 70.5841 42.6558 70.4124C42.685 70.6195 42.711 70.8222 42.7339 71.0206C43.5673 78.2432 40.3185 79.8382 39.9353 80H39.857ZM39.8962 79.5848C39.6062 79.433 38.8882 78.9691 38.2837 77.8598C37.6387 76.6762 37.1046 74.7237 37.3956 71.5674C38.187 72.873 38.9065 74.2189 39.5409 75.5811L39.8962 76.3439L40.2514 75.5811C40.8858 74.219 41.6055 72.8729 42.3967 71.5675C42.6878 74.7236 42.1537 76.676 41.5087 77.8597C40.9042 78.969 40.1861 79.433 39.8962 79.5848Z" fill="#B6C9D8"/>
<path d="M39.857 80C39.4633 79.8338 36.0444 78.1549 37.1366 70.4124C38.1718 72.0235 39.1002 73.7066 39.8962 75.4157C40.6922 73.7066 41.621 72.023 42.6558 70.4124C43.748 78.1545 40.3291 79.8338 39.9353 80C39.9247 80 39.8962 80 39.8962 80H39.857Z" fill="#B6C9D8" fill-opacity="0.6"/>
<path fill-rule="evenodd" clip-rule="evenodd" d="M39.857 80C39.4738 79.8382 36.2251 78.2436 37.0585 71.0206C37.0814 70.8222 37.1074 70.6194 37.1366 70.4124C37.2469 70.5841 37.356 70.7566 37.4639 70.9298C38.2774 72.2368 39.0202 73.5871 39.679 74.9568C39.7524 75.1095 39.8248 75.2625 39.8962 75.4157C39.9675 75.2625 40.0399 75.1096 40.1134 74.9568C40.7721 73.5871 41.5151 72.2366 42.3285 70.9299C42.4364 70.7566 42.5455 70.5841 42.6558 70.4124C42.685 70.6195 42.711 70.8222 42.7339 71.0206C43.5673 78.2432 40.3185 79.8382 39.9353 80H39.857ZM39.8962 79.5848C39.6062 79.433 38.8882 78.9691 38.2837 77.8598C37.6387 76.6762 37.1046 74.7237 37.3956 71.5674C38.187 72.873 38.9065 74.2189 39.5409 75.5811L39.8962 76.3439L40.2514 75.5811C40.8858 74.219 41.6055 72.8729 42.3967 71.5675C42.6878 74.7236 42.1537 76.676 41.5087 77.8597C40.9042 78.969 40.1861 79.433 39.8962 79.5848Z" fill="#B6C9D8"/>
<path d="M39.9355 79.9996C40.3348 79.8316 43.7478 78.152 42.6559 70.4124C41.6522 71.9745 40.7243 73.6388 39.8963 75.4157C39.0684 73.6388 38.1405 71.9745 37.1367 70.4124C36.045 78.152 39.4579 79.8316 39.8572 79.9996C39.8704 80 39.8831 80 39.8963 80C39.8968 80 39.9227 80 39.9355 79.9996Z" fill="#B6C9D8"/>
<path fill-rule="evenodd" clip-rule="evenodd" d="M40.1135 74.9569C40.7928 73.5441 41.5354 72.2035 42.3286 70.9297C42.4368 70.756 42.5459 70.5836 42.6559 70.4124C42.6851 70.6194 42.7111 70.8221 42.734 71.0205C43.5673 78.2407 40.3241 79.8361 39.9355 79.9996C39.9227 80 39.8968 80 39.8963 80C39.8832 80 39.8703 80 39.8572 79.9996C39.4686 79.8361 36.2254 78.2407 37.0587 71.0205C37.0816 70.8221 37.1075 70.6194 37.1367 70.4124C37.2468 70.5836 37.3559 70.7561 37.464 70.9297C38.2573 72.2035 38.9999 73.5441 39.6792 74.9569C39.7523 75.109 39.8247 75.2619 39.8963 75.4157C39.968 75.2619 40.0404 75.109 40.1135 74.9569ZM37.3958 71.5671C38.1662 72.8375 38.8854 74.1738 39.5411 75.5812L39.8963 76.3435L40.2515 75.5812C40.9073 74.1738 41.6265 72.8375 42.3969 71.5671C42.6881 74.7223 42.155 76.6743 41.5107 77.858C40.9058 78.969 40.1867 79.433 39.8963 79.5846C39.606 79.433 38.8868 78.969 38.282 77.858C37.6376 76.6743 37.1046 74.7223 37.3958 71.5671Z" fill="#B6C9D8"/>
<path d="M45.3809 79.5859C47.1913 78.8972 49.1498 77.7481 51.2023 76.1716C53.715 74.2421 56.3895 71.6529 59.1521 68.4763C59.4556 68.1277 59.774 67.7454 60.1256 67.3072C61.1174 69.405 61.4366 71.2727 61.0739 72.8591C56.4648 76.3855 51.0384 78.7118 45.3809 79.5859Z" fill="#B6C9D8" fill-opacity="0.8"/>
<path fill-rule="evenodd" clip-rule="evenodd" d="M51.441 76.4824C53.98 74.5328 56.6733 71.9237 59.4478 68.7335L59.1521 68.4763L59.4476 68.7336C59.4477 68.7336 59.4477 68.7335 59.4478 68.7335C59.6345 68.519 59.8265 68.2922 60.0278 68.0484C59.9719 67.9156 59.913 67.7815 59.851 67.6462C59.9404 67.5369 60.0318 67.4241 60.1256 67.3072C60.1889 67.4412 60.2495 67.5742 60.3073 67.7063C61.1553 69.6424 61.4134 71.374 61.0739 72.8591C56.9161 76.0403 52.0932 78.2448 47.0355 79.2877C46.4865 79.4008 45.9348 79.5004 45.3809 79.5859C45.8787 79.3965 46.3878 79.1723 46.9069 78.914M51.441 76.4824C50.38 77.2973 49.3403 78.002 48.3293 78.5905L51.441 76.4824ZM48.3293 78.5905C52.7811 77.4755 57.0149 75.4463 60.7212 72.6352C60.9817 71.3321 60.7639 69.7971 60.0278 68.0484" fill="#B6C9D8"/>
<path d="M45.3809 79.5859C47.1913 78.8972 49.1498 77.7481 51.2023 76.1716C53.7146 74.2421 56.3895 71.6533 59.1521 68.4763C59.4551 68.1277 59.774 67.7454 60.1256 67.3072C61.1174 69.405 61.4366 71.2727 61.0739 72.8591C56.4648 76.3855 51.0384 78.7118 45.3809 79.5859Z" fill="#B6C9D8" fill-opacity="0.8"/>
<path fill-rule="evenodd" clip-rule="evenodd" d="M59.4478 68.7335L59.4478 68.7334C59.6342 68.519 59.8263 68.2922 60.0277 68.0483C60.7639 69.7971 60.9817 71.3321 60.7212 72.6352C57.0149 75.4463 52.7811 77.4755 48.3293 78.5905C49.3403 78.002 50.38 77.2973 51.441 76.4823C53.9795 74.5328 56.6732 71.9242 59.4478 68.7335ZM46.9069 78.914C48.2755 78.2329 49.7142 77.3146 51.2023 76.1716C53.7146 74.2421 56.3895 71.6533 59.1521 68.4763C59.3743 68.2206 59.6051 67.9468 59.851 67.6462C59.9404 67.5369 60.0318 67.424 60.1256 67.3072C60.1889 67.4412 60.2495 67.5742 60.3073 67.7063C61.1553 69.6424 61.4134 71.374 61.0739 72.8591C56.9161 76.0403 52.0932 78.2448 47.0355 79.2877C46.4865 79.4008 45.9348 79.5004 45.3809 79.5859C45.8787 79.3965 46.3878 79.1723 46.9069 78.914Z" fill="#B6C9D8"/>
<path fill-rule="evenodd" clip-rule="evenodd" d="M59.4478 68.7335L59.4478 68.7334C59.6342 68.519 59.8263 68.2922 60.0277 68.0483C60.7639 69.7971 60.9817 71.3321 60.7212 72.6352C57.0149 75.4463 52.7811 77.4755 48.3293 78.5905C49.3403 78.002 50.38 77.2973 51.441 76.4823C53.9795 74.5328 56.6732 71.9242 59.4478 68.7335ZM46.9069 78.914C48.2755 78.2329 49.7142 77.3146 51.2023 76.1716C53.7146 74.2421 56.3895 71.6533 59.1521 68.4763C59.3743 68.2206 59.6051 67.9468 59.851 67.6462C59.9404 67.5369 60.0318 67.424 60.1256 67.3072C60.1889 67.4412 60.2495 67.5742 60.3073 67.7063C61.1553 69.6424 61.4134 71.374 61.0739 72.8591C56.9161 76.0403 52.0932 78.2448 47.0355 79.2877C46.4865 79.4008 45.9348 79.5004 45.3809 79.5859C45.8787 79.3965 46.3878 79.1723 46.9069 78.914Z" fill="#B6C9D8"/>
</g>
<path d="M26.1035 23.3882C26.1035 22.2537 27.0232 21.334 28.1577 21.334C29.2922 21.334 30.2119 22.2537 30.2119 23.3882V29.9281C30.2119 31.0626 29.2922 31.9823 28.1577 31.9823C27.0232 31.9823 26.1035 31.0626 26.1035 29.9281V23.3882Z" fill="#B6C9D8"/>
<path d="M47.6484 23.3882C47.6484 22.2537 48.5681 21.334 49.7026 21.334C50.8371 21.334 51.7568 22.2537 51.7568 23.3882V29.9281C51.7568 31.0626 50.8371 31.9823 49.7026 31.9823C48.5681 31.9823 47.6484 31.0626 47.6484 29.9281V23.3882Z" fill="#B6C9D8"/>
<path d="M80.1465 40.4164C80.1465 50.3288 68.631 41.5736 65.5784 60.4484C62.5258 79.3232 46.9015 67.9981 36.5579 60.4484C26.2144 52.8987 24.1997 75.8659 15.305 62.8275C6.41026 49.7891 -1.29256 71.9956 0.866924 40.4164C3.02641 8.83727 29.2959 -1.2844 40.5067 0.416402C61.1142 3.54277 76.389 18.479 80.1465 40.4164Z" fill="#B8C2C7" fill-opacity="0.7"/>
<path fill-rule="evenodd" clip-rule="evenodd" d="M40.5067 0.416402L40.2067 2.39378C35.2387 1.64006 26.4013 3.52221 18.5032 9.52839C10.7069 15.4573 3.90121 25.3599 2.86226 40.5529C2.32081 48.4709 2.42641 52.7344 2.91532 54.982C3.15647 56.0906 3.43378 56.4178 3.50747 56.4868C3.50789 56.4872 3.50843 56.4878 3.50914 56.4886C3.521 56.5023 3.58089 56.5714 3.95911 56.5748C4.33483 56.5783 4.72579 56.5242 5.30613 56.4437C5.51186 56.4152 5.74138 56.3834 6.00245 56.3497C6.89825 56.2341 8.01752 56.1269 9.24368 56.2818C11.8548 56.6118 14.4745 58.0613 16.9571 61.7004C19.1132 64.8609 20.284 64.9595 20.6737 64.9104C20.9706 64.873 21.3854 64.7045 21.976 64.2408C22.5683 63.7758 23.1866 63.137 23.9148 62.3437C24.0492 62.1974 24.1882 62.0441 24.3319 61.8858C25.6107 60.4767 27.2572 58.6623 29.2326 57.6784C30.4093 57.0924 31.7572 56.7603 33.2643 56.9305C34.7538 57.0987 36.2388 57.7394 37.7371 58.833C40.3315 60.7266 43.1861 62.804 46.0761 64.5851C48.9835 66.3768 51.7975 67.7857 54.2941 68.419C56.7825 69.0502 58.6562 68.844 60.045 67.8478C61.4771 66.8204 62.8791 64.6116 63.6041 60.1291C64.4009 55.202 65.7823 51.869 67.5493 49.5405C69.3404 47.1802 71.403 46.0184 73.2135 45.2357C73.6708 45.038 74.2557 44.8087 74.7603 44.611C75.0824 44.4847 75.3717 44.3713 75.5742 44.2871C76.2548 44.0042 76.7264 43.761 77.0793 43.4893C77.5862 43.0989 78.1163 42.4699 78.1452 40.5808C74.4777 19.5565 59.8765 5.37788 40.2067 2.39378L40.5067 0.416402ZM80.1465 40.4164C80.1465 44.6602 78.0358 45.4823 75.3821 46.5159C71.8375 47.8965 67.3241 49.6545 65.5784 60.4484C62.5258 79.3232 46.9015 67.9981 36.5579 60.4484C31.6285 56.8505 28.5907 60.1835 25.7984 63.2472C22.7315 66.6122 19.9607 69.6522 15.305 62.8275C11.7185 57.5703 8.32582 58.0432 5.6953 58.4098C1.80192 58.9525 -0.421826 59.2624 0.866924 40.4164C3.02641 8.83727 29.2959 -1.2844 40.5067 0.416402C61.1142 3.54277 76.389 18.479 80.1465 40.4164Z" fill="#B6C9D8"/>
</g>
<defs>
<clipPath id="clip0_1764_52017">
<rect width="80" height="80" fill="white" transform="translate(0.5)"/>
</clipPath>
</defs>
</svg>
