<svg width="20" height="20" viewBox="0 0 20 20" fill="none" xmlns="http://www.w3.org/2000/svg">
<path fill-rule="evenodd" clip-rule="evenodd" d="M0.933041 4.71406C0.535256 5.41576 0.219861 6.17029 0 6.96452C0.972524 7.46069 1.63849 8.47182 1.63849 9.63849C1.63849 10.8052 0.972523 11.8163 0 12.3125C0.219862 13.1067 0.535263 13.8612 0.933054 14.5629C1.97138 14.2265 3.15687 14.4707 3.98162 15.2954C4.80636 16.1201 5.05051 17.3056 4.71408 18.344C5.41577 18.7417 6.1703 19.0571 6.96452 19.277C7.46069 18.3045 8.47182 17.6385 9.63849 17.6385C10.8052 17.6385 11.8163 18.3045 12.3125 19.277C13.1067 19.0571 13.8612 18.7417 14.5629 18.344C14.2264 17.3056 14.4706 16.1201 15.2953 15.2954C16.1201 14.4706 17.3056 14.2265 18.3439 14.5629C18.7417 13.8612 19.0571 13.1067 19.277 12.3125C18.3045 11.8163 17.6385 10.8052 17.6385 9.63849C17.6385 8.47182 18.3045 7.46069 19.277 6.96452C19.0571 6.17028 18.7417 5.41574 18.3439 4.71404C17.3056 5.05048 16.1201 4.80633 15.2954 3.98158C14.4706 3.15683 14.2265 1.97136 14.5629 0.933031C13.8612 0.535251 13.1067 0.219858 12.3125 0C11.8163 0.972523 10.8052 1.63849 9.63849 1.63849C8.47182 1.63849 7.46069 0.972523 6.96452 0C6.1703 0.219857 5.41578 0.535246 4.71409 0.933023C5.05055 1.97136 4.8064 3.15686 3.98164 3.98161C3.15688 4.80637 1.97138 5.05052 0.933041 4.71406ZM15.6385 9.63855C15.6385 12.9523 12.9522 15.6386 9.63849 15.6386C6.32478 15.6386 3.63849 12.9523 3.63849 9.63855C3.63849 6.32484 6.32478 3.63855 9.63849 3.63855C12.9522 3.63855 15.6385 6.32484 15.6385 9.63855ZM13.1385 9.63843C13.1385 11.5714 11.5715 13.1384 9.63849 13.1384C7.70549 13.1384 6.13849 11.5714 6.13849 9.63843C6.13849 7.70543 7.70549 6.13843 9.63849 6.13843C11.5715 6.13843 13.1385 7.70543 13.1385 9.63843ZM13.6385 9.63843C13.6385 11.8476 11.8476 13.6384 9.63849 13.6384C7.42935 13.6384 5.63849 11.8476 5.63849 9.63843C5.63849 7.42929 7.42935 5.63843 9.63849 5.63843C11.8476 5.63843 13.6385 7.42929 13.6385 9.63843Z" fill="#EDEFF0"/>
</svg>
