<svg width="16" height="16" viewBox="0 0 16 16" fill="none" xmlns="http://www.w3.org/2000/svg">
<path d="M0 8C0 3.58172 3.58172 0 8 0C12.4183 0 16 3.58172 16 8C16 12.4183 12.4183 16 8 16C3.58172 16 0 12.4183 0 8Z" fill="#CCC1E9"/>
<path d="M6.84568 10.7786L6.50063 9.64583H4.7656L4.42055 10.7786H3.33331L5.013 6H6.24672L7.93292 10.7786H6.84568ZM6.25975 8.79948L5.91469 7.69271C5.89299 7.61892 5.86369 7.52452 5.8268 7.40951C5.79208 7.29232 5.75627 7.17405 5.71938 7.05469C5.68466 6.93316 5.65645 6.82791 5.63475 6.73893C5.61304 6.82791 5.58266 6.93859 5.5436 7.07096C5.50671 7.20117 5.4709 7.32487 5.43618 7.44206C5.40146 7.55924 5.3765 7.6428 5.36131 7.69271L5.01951 8.79948H6.25975Z" fill="#332C4B"/>
<path d="M12.7422 6.01953V9.09896C12.7422 9.42665 12.6695 9.72287 12.5241 9.98763C12.3808 10.2502 12.1627 10.4586 11.8698 10.6126C11.579 10.7667 11.2122 10.8438 10.7695 10.8438C10.1402 10.8438 9.66057 10.6832 9.33071 10.362C9.00085 10.0408 8.83592 9.61545 8.83592 9.08594V6.01953H9.84178V8.93294C9.84178 9.32574 9.92207 9.60135 10.0827 9.75977C10.2433 9.91819 10.4809 9.9974 10.7956 9.9974C11.0169 9.9974 11.1959 9.95942 11.3327 9.88346C11.4716 9.80751 11.5735 9.69032 11.6387 9.5319C11.7038 9.37348 11.7363 9.17166 11.7363 8.92643V6.01953H12.7422Z" fill="#332C4B"/>
<path d="M8 15C4.13401 15 1 11.866 1 8H-1C-1 12.9706 3.02944 17 8 17V15ZM15 8C15 11.866 11.866 15 8 15V17C12.9706 17 17 12.9706 17 8H15ZM8 1C11.866 1 15 4.13401 15 8H17C17 3.02944 12.9706 -1 8 -1V1ZM8 -1C3.02944 -1 -1 3.02944 -1 8H1C1 4.13401 4.13401 1 8 1V-1Z" fill="white"/>
</svg>
