<svg width="24" height="25" viewBox="0 0 24 25" fill="none" xmlns="http://www.w3.org/2000/svg">
<path d="M11 7.42578H13V9.42578H11V7.42578ZM11 11.4258H13V17.4258H11V11.4258ZM12 2.42578C6.48 2.42578 2 6.90578 2 12.4258C2 17.9458 6.48 22.4258 12 22.4258C17.52 22.4258 22 17.9458 22 12.4258C22 6.90578 17.52 2.42578 12 2.42578ZM12 20.4258C7.59 20.4258 4 16.8358 4 12.4258C4 8.01578 7.59 4.42578 12 4.42578C16.41 4.42578 20 8.01578 20 12.4258C20 16.8358 16.41 20.4258 12 20.4258Z" fill="#001E2E" fill-opacity="0.6"/>
</svg>
