<?xml version="1.0" encoding="UTF-8"?>
<svg width="50px" height="50px" viewBox="0 0 50 50" version="1.1" xmlns="http://www.w3.org/2000/svg" xmlns:xlink="http://www.w3.org/1999/xlink">
    <title>Group 6</title>
    <g id="V2" stroke="none" stroke-width="1" fill="none" fill-rule="evenodd">
        <g id="Wallet---Activity-(Bitcoin)-" transform="translate(-301.000000, -277.000000)" fill="#4F6EF7">
            <g id="Group-6" transform="translate(301.000000, 277.000000)">
                <rect id="Rectangle" opacity="0.3" x="0" y="0" width="50" height="50" rx="12"></rect>
                <path d="M26.4560547,34.2773438 L26.4560547,32.1826172 C27.7666016,32.039388 28.7960612,31.597168 29.5444336,30.855957 C30.292806,30.1147461 30.6669922,29.1246745 30.6669922,27.8857422 C30.6669922,27.0263672 30.4915365,26.2976888 30.140625,25.699707 C29.7897135,25.1017253 29.2919922,24.5986328 28.6474609,24.1904297 C28.0029297,23.7822266 27.1757812,23.3955078 26.1660156,23.0302734 C25.5071615,22.7867839 24.9915365,22.5450846 24.6191406,22.3051758 C24.2467448,22.0652669 23.9799805,21.800293 23.8188477,21.5102539 C23.6577148,21.2202148 23.5771484,20.8710938 23.5771484,20.4628906 C23.5771484,19.8111979 23.7561849,19.2937826 24.1142578,18.9106445 C24.4723307,18.5275065 25.0094401,18.3359375 25.7255859,18.3359375 C26.4202474,18.3359375 26.9627279,18.5901693 27.3530273,19.0986328 C27.7433268,19.6070964 27.9384766,20.3089193 27.9384766,21.2041016 L27.9384766,21.2041016 L30.6132812,21.2041016 C30.6132812,19.7718099 30.2659505,18.6223958 29.5712891,17.7558594 C28.8766276,16.8893229 27.9134115,16.3701172 26.6816406,16.1982422 L26.6816406,16.1982422 L26.6816406,13.8349609 L24.9628906,13.8349609 L24.9628906,16.1767578 C24.1464844,16.2698568 23.4339193,16.5026042 22.8251953,16.875 C22.2164714,17.2473958 21.7456055,17.7415365 21.4125977,18.3574219 C21.0795898,18.9733073 20.9130859,19.6787109 20.9130859,20.4736328 C20.9130859,21.3401693 21.0939128,22.0742188 21.4555664,22.6757812 C21.8172201,23.2773438 22.3238932,23.7822266 22.9755859,24.1904297 C23.6272786,24.5986328 24.4544271,24.9746094 25.4570312,25.3183594 C26.3808594,25.640625 27.0361328,26.0004883 27.4228516,26.3979492 C27.8095703,26.7954102 28.0029297,27.2985026 28.0029297,27.9072266 C28.0029297,28.5589193 27.7898763,29.0745443 27.3637695,29.4541016 C26.9376628,29.8336589 26.3343099,30.0234375 25.5537109,30.0234375 C24.8304036,30.0234375 24.2216797,29.8068034 23.7275391,29.3735352 C23.2333984,28.9402669 22.9863281,28.2223307 22.9863281,27.2197266 L22.9863281,27.2197266 L20.3115234,27.2197266 C20.3115234,28.2867839 20.5138346,29.1765951 20.918457,29.8891602 C21.3230794,30.6017253 21.8583984,31.140625 22.5244141,31.5058594 C23.1904297,31.8710938 23.9316406,32.0966797 24.7480469,32.1826172 L24.7480469,32.1826172 L24.7480469,34.2773438 L26.4560547,34.2773438 Z" id="$" fill-rule="nonzero"></path>
            </g>
        </g>
    </g>
</svg>