<?xml version="1.0" encoding="UTF-8"?>
<svg width="50px" height="50px" viewBox="0 0 50 50" version="1.1" xmlns="http://www.w3.org/2000/svg" xmlns:xlink="http://www.w3.org/1999/xlink">
    <title>Group 5</title>
    <g id="V2" stroke="none" stroke-width="1" fill="none" fill-rule="evenodd">
        <g id="Wallet---Activity-(Bitcoin)-" transform="translate(-207.000000, -277.000000)" fill="#4F6EF7">
            <g id="Group-5" transform="translate(207.000000, 277.000000)">
                <rect id="Rectangle" opacity="0.3" x="0" y="0" width="50" height="50" rx="12"></rect>
                <g id="Group" transform="translate(14.000000, 14.000000)" fill-rule="nonzero">
                    <path d="M1.50902358,10.8991368 C1.50902358,5.58094321 5.90933635,1.25397547 11.3176769,1.25397547 C13.7124973,1.25397547 15.9922547,2.10163676 17.7823339,3.6467174 L15.2007718,6.18524966 C15.0985354,6.28578192 15.0638279,6.43491095 15.1109849,6.56920127 C15.1585191,6.70349159 15.2796183,6.79920127 15.4233528,6.81589482 L21.836703,7.5578303 C21.851416,7.55968514 21.866129,7.56042708 21.8808419,7.56042708 C21.9804375,7.56042708 22.0766377,7.52184643 22.1475619,7.45173353 C22.2290491,7.3716045 22.2690383,7.2588303 22.255457,7.14605611 L21.5009453,0.839604498 C21.4839687,0.698265788 21.3866367,0.579185143 21.2500701,0.532443208 C21.1135034,0.48607224 20.9614693,0.519830304 20.8596102,0.62073353 L18.8503453,2.59650772 C16.7735516,0.772830304 14.1138976,-0.229895502 11.3176769,-0.229895502 C5.07710984,-0.229895502 0,4.76258837 0,10.8991368 C0,11.3086851 0.338021282,11.6410722 0.754511791,11.6410722 C1.1710023,11.6410722 1.50902358,11.3086851 1.50902358,10.8991368 Z" id="Path"></path>
                    <path d="M22.2454882,9.41526579 C21.8289977,9.41526579 21.4909764,9.74765289 21.4909764,10.1572013 C21.4909764,15.4757658 17.0906637,19.8023626 11.6823231,19.8023626 C9.28750271,19.8023626 7.00774533,18.9547013 5.21804337,17.4092497 L7.7992282,14.8710884 C7.90146455,14.7705561 7.93617209,14.6214271 7.88901511,14.4871368 C7.84148086,14.3528464 7.72038172,14.2571368 7.57664723,14.2404432 L1.163297,13.4985077 C1.0478567,13.4851529 0.933925418,13.5244755 0.852438144,13.6046045 C0.770950871,13.6851045 0.730961746,13.7975077 0.744542958,13.9102819 L1.49905475,20.2167335 C1.51603126,20.3577013 1.61336329,20.4771529 1.74992992,20.5235239 C1.7902963,20.5372497 1.8321717,20.544298 1.87366985,20.544298 C1.97213364,20.544298 2.06871115,20.5060884 2.14038977,20.4356045 L4.14965467,18.4598303 C6.22644838,20.2835077 8.88572518,21.2862335 11.6823231,21.2862335 C17.9228902,21.2862335 23,16.2937497 23,10.1572013 C23,9.74765289 22.6619787,9.41526579 22.2454882,9.41526579 Z" id="Path"></path>
                </g>
            </g>
        </g>
    </g>
</svg>