<?xml version="1.0" encoding="UTF-8" standalone="no"?>
<svg width="41px" height="39px" viewBox="0 0 41 39" version="1.1" xmlns="http://www.w3.org/2000/svg" xmlns:xlink="http://www.w3.org/1999/xlink" xmlns:sketch="http://www.bohemiancoding.com/sketch/ns">
    <!-- Generator: Sketch 3.3.3 (12072) - http://www.bohemiancoding.com/sketch -->
    <title>Shape + Shape Copy</title>
    <desc>Created with Sketch.</desc>
    <defs></defs>
    <g id="Page-1" stroke="none" stroke-width="1" fill="none" fill-rule="evenodd" sketch:type="MSPage">
        <g id="Copay-v1-Buy-–-1" sketch:type="MSArtboardGroup" transform="translate(-560.000000, -485.000000)" fill="#919191">
            <g id="Shape-+-Shape-Copy" sketch:type="MSLayerGroup" transform="translate(560.000000, 485.000000)">
                <path d="M38.1230248,7.86230248 L38.1213792,7.86230248 L29.1855982,3.93115124 L20.25,0 L11.3144018,3.93115124 L2.37871219,7.86230248 L2.37697517,7.86230248 L2.37697517,12.4334086 L38.1230248,12.4334086 L38.1230248,7.86230248 Z M5.89672686,29.1636569 C5.36656998,29.1636569 4.93679458,29.5934323 4.93679458,30.1235892 C4.93679458,30.653746 5.36656998,31.0835214 5.89672686,31.0835214 L11.5648984,31.0835214 C12.0950553,31.0835214 12.5248307,30.653746 12.5248307,30.1235892 C12.5248307,29.5934323 12.0950553,29.1636569 11.5648984,29.1636569 L11.244921,29.1636569 L11.244921,15.4503386 L11.5648984,15.4503386 C12.0950553,15.4503386 12.5248307,15.0205632 12.5248307,14.4904063 C12.5248307,13.9602494 12.0950553,13.530474 11.5648984,13.530474 L5.89672686,13.530474 C5.36656998,13.530474 4.93679458,13.9602494 4.93679458,14.4904063 C4.93679458,15.0205632 5.36656998,15.4503386 5.89672686,15.4503386 L6.21670429,15.4503386 L6.21670429,29.1636569 L5.89672686,29.1636569 Z M17.4159142,29.1636569 C16.8857573,29.1636569 16.4559819,29.5934323 16.4559819,30.1235892 C16.4559819,30.653746 16.8857573,31.0835214 17.4159142,31.0835214 L23.0840858,31.0835214 C23.6142427,31.0835214 24.0440181,30.653746 24.0440181,30.1235892 C24.0440181,29.5934323 23.6142427,29.1636569 23.0840858,29.1636569 L22.7641084,29.1636569 L22.7641084,15.4503386 L23.0840858,15.4503386 C23.6142427,15.4503386 24.0440181,15.0205632 24.0440181,14.4904063 C24.0440181,13.9602494 23.6142427,13.530474 23.0840858,13.530474 L17.4159142,13.530474 C16.8857573,13.530474 16.4559819,13.9602494 16.4559819,14.4904063 C16.4559819,15.0205632 16.8857573,15.4503386 17.4159142,15.4503386 L17.7358916,15.4503386 L17.7358916,29.1636569 L17.4159142,29.1636569 Z M29.1179458,29.1636569 C28.5877889,29.1636569 28.1580135,29.5934323 28.1580135,30.1235892 C28.1580135,30.653746 28.5877889,31.0835214 29.1179458,31.0835214 L34.7861174,31.0835214 C35.3162743,31.0835214 35.7460497,30.653746 35.7460497,30.1235892 C35.7460497,29.5934323 35.3162743,29.1636569 34.7861174,29.1636569 L34.46614,29.1636569 L34.46614,15.4503386 L34.7861174,15.4503386 C35.3162743,15.4503386 35.7460497,15.0205632 35.7460497,14.4904063 C35.7460497,13.9602494 35.3162743,13.530474 34.7861174,13.530474 L29.1179458,13.530474 C28.5877889,13.530474 28.1580135,13.9602494 28.1580135,14.4904063 C28.1580135,15.0205632 28.5877889,15.4503386 29.1179458,15.4503386 L29.4379233,15.4503386 L29.4379233,29.1636569 L29.1179458,29.1636569 Z M2.37788939,33.0948081 L2.37788939,33.6433409 C2.37788939,34.1481738 2.78718623,34.5575621 3.29211061,34.5575621 L37.2078894,34.5575621 C37.7127223,34.5575621 38.1221106,34.1481738 38.1221106,33.6433409 L38.1221106,33.0948081 C38.1221106,32.5899752 37.7127223,32.1805869 37.2078894,32.1805869 L3.29211061,32.1805869 C2.78718623,32.1805869 2.37788939,32.5898837 2.37788939,33.0948081 Z M39.5857788,35.6546275 L0.914221219,35.6546275 C0.40929684,35.6546275 0,36.0640158 0,36.5688488 L0,37.3916479 C0,37.8964808 0.40929684,38.3058691 0.914221219,38.3058691 L39.5857788,38.3058691 C40.0906117,38.3058691 40.5,37.8964808 40.5,37.3916479 L40.5,36.5688488 C40.5,36.0639244 40.0907032,35.6546275 39.5857788,35.6546275 Z" id="Shape" sketch:type="MSShapeGroup"></path>
            </g>
        </g>
    </g>
</svg>