<?xml version="1.0" encoding="utf-8"?>
<!-- Generator: Adobe Illustrator 18.1.1, SVG Export Plug-In . SVG Version: 6.00 Build 0)  -->
<svg version="1.1" id="Capa_1" xmlns:sketch="http://www.bohemiancoding.com/sketch/ns"
	 xmlns="http://www.w3.org/2000/svg" xmlns:xlink="http://www.w3.org/1999/xlink" x="0px" y="0px" viewBox="-258 383.9 79 75"
	 enable-background="new -258 383.9 79 75" xml:space="preserve">
<title>Oval 356 + ios7-redo + Shape Copy 5</title>
<desc>Created with Sketch.</desc>
<g id="Page-1" sketch:type="MSPage">
	<g id="Copay-v1-Buy-_x2013_-Main" transform="translate(-18.000000, -990.000000)" sketch:type="MSArtboardGroup">
		<g id="Oval-356-_x2B_-ios7-redo-_x2B_-Shape-Copy-5" transform="translate(19.000000, 991.000000)" sketch:type="MSLayerGroup">
			<g id="Oval-356-_x2B_-ios7-redo" sketch:type="MSShapeGroup">
				<g>
					<circle id="Oval-356_1_" fill="#FFFFFF" cx="-226" cy="415.9" r="32"/>
					<path fill="#1ABC9C" d="M-226,448.9c-18.2,0-33-14.8-33-33c0-18.2,14.8-33,33-33s33,14.8,33,33
						C-193,434.1-207.8,448.9-226,448.9z M-226,384.9c-17.1,0-31,13.9-31,31s13.9,31,31,31c17.1,0,31-13.9,31-31
						S-208.9,384.9-226,384.9z"/>
				</g>
				<g id="plus-round" transform="translate(14.933333, 14.933333)">
					<path id="Shape" fill="#1ABC9C" d="M-238.1,398.2v-11.5c0-1.5-1.3-2.7-2.8-2.7s-2.8,1.2-2.8,2.7v11.5h-11.5
						c-1.5,0-2.7,1.3-2.7,2.8s1.2,2.8,2.7,2.8h11.5v11.5c0,1.5,1.3,2.7,2.8,2.7s2.8-1.2,2.8-2.7v-11.5h11.5c1.5,0,2.7-1.3,2.7-2.8
						s-1.2-2.8-2.7-2.8H-238.1z"/>
				</g>
			</g>
			<g>
				<path id="Shape-Copy-4_1_" sketch:type="MSShapeGroup" fill="#2C3E50" d="M-212,440.9c0,8.3,6.7,15,15,15s15-6.7,15-15
					c0-8.3-6.7-15-15-15S-212,432.6-212,440.9z"/>
				<path fill="#FFFFFF" d="M-197,456.9c-8.8,0-16-7.2-16-16s7.2-16,16-16s16,7.2,16,16S-188.2,456.9-197,456.9z M-197,426.9
					c-7.7,0-14,6.3-14,14s6.3,14,14,14s14-6.3,14-14S-189.3,426.9-197,426.9z"/>
			</g>
			<path id="Path-Copy" sketch:type="MSShapeGroup" fill="#FFFFFF" d="M-188.3,436l-9.5,11.9c-0.1,0.1-0.2,0.2-0.3,0.2
				c-0.2,0-0.3-0.1-0.3-0.2c-0.1-0.1-5.4-5-5.4-5l-0.1-0.1c0-0.1-0.1-0.1-0.1-0.2s0-0.2,0.1-0.2c0,0,0,0,0.1-0.1
				c0.5-0.5,1.6-1.6,1.7-1.7c0.1-0.1,0.2-0.2,0.3-0.2c0.2,0,0.3,0.1,0.4,0.2s3.1,2.9,3.1,2.9l7.6-9.5c0.1-0.1,0.1-0.1,0.2-0.1
				c0.1,0,0.2,0,0.2,0.1l2.1,1.6c0.1,0.1,0.1,0.1,0.1,0.2C-188.2,435.9-188.3,436-188.3,436L-188.3,436z"/>
		</g>
	</g>
</g>
</svg>
