<?xml version="1.0" encoding="UTF-8" standalone="no"?>
<svg width="13px" height="12px" viewBox="0 0 13 12" version="1.1" xmlns="http://www.w3.org/2000/svg" xmlns:xlink="http://www.w3.org/1999/xlink">
    <!-- Generator: sketchtool 3.7.2 (28276) - http://www.bohemiancoding.com/sketch -->
    <title>DF90EF75-F651-4B5A-9143-4512A3D52EC8</title>
    <desc>Created with sketchtool.</desc>
    <defs></defs>
    <g id="Page-1" stroke="none" stroke-width="1" fill="none" fill-rule="evenodd">
        <g id="Dashboard---Activity" transform="translate(-1149.000000, -268.000000)" fill="#17AE8C">
            <g id="Body" transform="translate(-3.000000, 108.000000)">
                <g id="Main-Container" transform="translate(332.000000, 0.000000)">
                    <g id="Transactions" transform="translate(-2.000000, 62.000000)">
                        <path d="M823.142857,104.25 C822.822545,104.25 822.533482,104.398438 822.345982,104.648438 C822.18192,104.867188 822.111607,105.125 822.15067,105.390625 C822.189732,105.65625 822.330357,105.890625 822.541295,106.054688 L826.541295,109.054688 C826.752232,109.210938 827.033482,109.28125 827.299107,109.242188 C827.564732,109.195313 827.80692,109.046875 827.96317,108.828125 L833.955357,100.328125 C834.27567,99.875 834.166295,99.25 833.720982,98.9296875 C833.283482,98.625 832.627232,98.7421875 832.322545,99.171875 L826.916295,106.828125 L823.74442,104.453125 C823.564732,104.320313 823.361607,104.25 823.142857,104.25 L823.142857,104.25 Z" id="check"></path>
                    </g>
                </g>
            </g>
        </g>
    </g>
</svg>