<?xml version="1.0" standalone="no"?><!DOCTYPE svg PUBLIC "-//W3C//DTD SVG 1.1//EN" "http://www.w3.org/Graphics/SVG/1.1/DTD/svg11.dtd"><svg width="100%" height="100%" viewBox="0 0 21 20" version="1.1" xmlns="http://www.w3.org/2000/svg" xmlns:xlink="http://www.w3.org/1999/xlink" xml:space="preserve" style="fill-rule:evenodd;clip-rule:evenodd;stroke-linecap:square;stroke-miterlimit:1.41421;"><g id="Group"><path id="Line" d="M8.5,12.5l-4.12,3.98" style="fill:none;stroke-width:1.08px;stroke:#fff;"/><path id="Line-Copy" d="M16.98,3.88l-3.48,3.62" style="fill:none;stroke-width:1.08px;stroke:#fff;"/><circle id="Oval-146" cx="10.5" cy="10" r="9" style="fill:none;stroke-width:1.08px;stroke-linecap:butt;stroke:#fff;"/><path id="Key" d="M15.795,15.04l-2.053,0c-0.057,0 -0.105,-0.02 -0.147,-0.059c-0.041,-0.039 -0.062,-0.089 -0.062,-0.149l0,-1.03l-1.029,0c-0.056,0 -0.104,-0.019 -0.143,-0.059c-0.04,-0.039 -0.059,-0.087 -0.059,-0.143l0,-1.029l-1.03,0c-0.03,0 -0.056,-0.006 -0.079,-0.017l-0.005,0c-0.03,-0.015 -0.051,-0.03 -0.062,-0.045l-1.778,-1.772c-0.348,0.124 -0.736,0.185 -1.164,0.185c-0.502,0 -0.981,-0.097 -1.437,-0.292c-0.456,-0.195 -0.849,-0.457 -1.181,-0.788c-0.332,-0.33 -0.596,-0.723 -0.791,-1.181c-0.195,-0.457 -0.292,-0.937 -0.292,-1.44c0,-0.502 0.097,-0.981 0.292,-1.437c0.195,-0.456 0.459,-0.849 0.791,-1.181c0.332,-0.332 0.725,-0.595 1.181,-0.791c0.456,-0.195 0.935,-0.292 1.437,-0.292c0.503,0 0.983,0.097 1.44,0.292c0.458,0.196 0.852,0.459 1.184,0.791c0.332,0.332 0.595,0.725 0.79,1.181c0.195,0.456 0.293,0.935 0.293,1.437c0,0.402 -0.064,0.79 -0.191,1.165l4.241,4.246c0.015,0.012 0.03,0.032 0.045,0.062c0.011,0.027 0.017,0.055 0.017,0.085l0,2.053c0,0.06 -0.02,0.11 -0.059,0.149c-0.04,0.039 -0.089,0.059 -0.149,0.059ZM13.944,14.629l1.648,0l0,-1.766l-4.258,-4.264c-0.049,-0.041 -0.073,-0.093 -0.073,-0.157c0,-0.026 0.006,-0.054 0.017,-0.085l-0.006,-0.005c0.135,-0.364 0.203,-0.741 0.203,-1.131c0,-0.596 -0.147,-1.146 -0.442,-1.651c-0.294,-0.504 -0.694,-0.903 -1.198,-1.198c-0.504,-0.294 -1.055,-0.441 -1.651,-0.441c-0.596,0 -1.146,0.147 -1.651,0.441c-0.504,0.295 -0.904,0.694 -1.198,1.198c-0.294,0.505 -0.442,1.055 -0.442,1.651c0,0.597 0.148,1.147 0.442,1.651c0.294,0.505 0.694,0.904 1.198,1.198c0.505,0.295 1.055,0.442 1.651,0.442c0.383,0 0.759,-0.068 1.131,-0.203l0.005,0.006c0.038,-0.015 0.066,-0.022 0.085,-0.022c0.06,0 0.112,0.026 0.157,0.078l0.006,0l1.789,1.789l1.147,0c0.056,0 0.105,0.02 0.146,0.059c0.042,0.039 0.062,0.087 0.062,0.144l0,1.029l1.03,0c0.056,0 0.104,0.02 0.143,0.062c0.039,0.041 0.059,0.09 0.059,0.146l0,1.029ZM7.363,5.163c0.341,-0.001 0.632,0.12 0.872,0.362c0.24,0.242 0.36,0.534 0.36,0.875c0,0.341 -0.12,0.632 -0.36,0.872c-0.24,0.24 -0.531,0.36 -0.872,0.36c-0.341,0 -0.632,-0.12 -0.872,-0.36c-0.24,-0.24 -0.36,-0.531 -0.36,-0.872c0,-0.341 0.12,-0.633 0.36,-0.875c0.24,-0.242 0.531,-0.363 0.872,-0.363ZM7.363,7.221c0.229,0 0.423,-0.079 0.582,-0.239c0.159,-0.159 0.239,-0.353 0.239,-0.582c0,-0.229 -0.08,-0.423 -0.239,-0.582c-0.159,-0.16 -0.353,-0.239 -0.582,-0.239c-0.229,0 -0.423,0.079 -0.582,0.239c-0.16,0.159 -0.239,0.353 -0.239,0.582c0,0.229 0.079,0.423 0.239,0.582c0.159,0.16 0.353,0.239 0.582,0.239Z" style="fill:#7a8c9e;stroke-width:1px;stroke-linecap:butt;stroke-linejoin:round;stroke:#fff;"/></g></svg>