<?xml version="1.0" encoding="utf-8"?>
<!-- Generator: Adobe Illustrator 20.1.0, SVG Export Plug-In . SVG Version: 6.00 Build 0)  -->
<svg version="1.1" id="Card" xmlns="http://www.w3.org/2000/svg" xmlns:xlink="http://www.w3.org/1999/xlink" x="0px" y="0px"
	 viewBox="0 0 40 40" style="enable-background:new 0 0 40 40;" xml:space="preserve">
<style type="text/css">
	.st0{fill:#221F1F;}
	.st1{fill:#FF9900;}
</style>
<path id="a" class="st0" d="M26.4,23c-0.5-0.7-1-1.2-1-2.5v-4.2c0-1.8,0.1-3.4-1.2-4.7c-1-1-2.8-1.4-4.1-1.4c-2.6,0-5.5,1-6.1,4.2
	c-0.1,0.3,0.2,0.5,0.4,0.6l2.6,0.3c0.2,0,0.4-0.3,0.5-0.5c0.2-1.1,1.1-1.6,2.2-1.6c0.6,0,1.2,0.2,1.5,0.7c0.4,0.6,0.3,1.3,0.3,2v0.4
	c-1.6,0.2-3.6,0.3-5.1,0.9c-1.7,0.7-2.9,2.2-2.9,4.4c0,2.8,1.8,4.2,4.1,4.2c1.9,0,3-0.5,4.5-2c0.5,0.7,0.7,1.1,1.6,1.8
	c0.2,0.1,0.5,0.1,0.6-0.1l0,0c0.5-0.5,1.5-1.3,2.1-1.8C26.6,23.6,26.5,23.3,26.4,23z M21,21.8c-0.4,0.8-1.1,1.2-1.9,1.2
	c-1,0-1.7-0.8-1.7-2c0-2.3,2.1-2.7,4-2.7v0.6C21.5,20,21.5,20.9,21,21.8z"/>
<g id="arrow">
	<path id="path8" class="st1" d="M29.6,27.7c-2.6,1.9-6.4,3-9.7,3c-4.6,0-8.7-1.7-11.8-4.5c-0.2-0.2,0-0.5,0.3-0.4
		c3.4,2,7.5,3.1,11.8,3.1c2.9,0,6.1-0.6,9-1.8C29.7,26.9,30.1,27.3,29.6,27.7"/>
	<path id="path10" class="st1" d="M30.7,26.4c-0.3-0.4-2.2-0.2-3.1-0.1c-0.3,0-0.3-0.2-0.1-0.4c1.5-1.1,3.9-0.7,4.2-0.4
		c0.3,0.4-0.1,2.8-1.5,4c-0.2,0.2-0.4,0.1-0.3-0.2C30.4,28.6,31.1,26.9,30.7,26.4"/>
</g>
</svg>
