<?xml version="1.0" standalone="no"?><!DOCTYPE svg PUBLIC "-//W3C//DTD SVG 1.1//EN" "http://www.w3.org/Graphics/SVG/1.1/DTD/svg11.dtd"><svg width="100%" height="100%" viewBox="0 0 13 19" version="1.1" xmlns="http://www.w3.org/2000/svg" xmlns:xlink="http://www.w3.org/1999/xlink" xml:space="preserve" style="fill-rule:evenodd;clip-rule:evenodd;stroke-miterlimit:1.41421;"><g id="Group"><path id="Rectangle-211" d="M10.406,4.157c0,-0.248 -0.202,-0.45 -0.45,-0.45l-7.282,0c-0.248,0 -0.45,0.202 -0.45,0.45l0,3.313c0,0.248 0.202,0.45 0.45,0.45l7.282,0c0.248,0 0.45,-0.202 0.45,-0.45l0,-3.313Z" style="fill:none;stroke-width:0.72px;stroke:#fff;"/><path id="Rectangle-211-Copy" d="M5.943,9.519c0,-0.249 -0.202,-0.45 -0.45,-0.45l-2.819,0c-0.248,0 -0.45,0.201 -0.45,0.45l0,1.015c0,0.248 0.202,0.45 0.45,0.45l2.819,0c0.248,0 0.45,-0.202 0.45,-0.45l0,-1.015Z" style="fill:none;stroke-width:0.72px;stroke:#fff;"/><path id="Rectangle-211-Copy-2" d="M10.406,9.519c0,-0.249 -0.202,-0.45 -0.45,-0.45l-2.819,0c-0.249,0 -0.45,0.201 -0.45,0.45l0,1.015c0,0.248 0.201,0.45 0.45,0.45l2.819,0c0.248,0 0.45,-0.202 0.45,-0.45l0,-1.015Z" style="fill:none;stroke-width:0.72px;stroke:#fff;"/><path id="Path-394" d="M0.751,2.035c-0.017,-0.75 0.57,-1.358 1.316,-1.358l8.47,0c0.744,0 1.346,0.599 1.346,1.349l0,9.806c0,0.501 -0.168,1.265 -0.386,1.726l-1.924,4.079c-0.213,0.453 -0.791,0.82 -1.288,0.82l-3.583,0c-0.498,0 -1.078,-0.372 -1.287,-0.815l-2.042,-4.318c-0.213,-0.45 -0.394,-1.208 -0.405,-1.723l-0.217,-9.566Z" style="fill:none;stroke-width:0.72px;stroke:#fff;"/></g></svg>