<?xml version="1.0" standalone="no"?><!DOCTYPE svg PUBLIC "-//W3C//DTD SVG 1.1//EN" "http://www.w3.org/Graphics/SVG/1.1/DTD/svg11.dtd"><svg width="100%" height="100%" viewBox="0 0 19 18" version="1.1" xmlns="http://www.w3.org/2000/svg" xmlns:xlink="http://www.w3.org/1999/xlink" xml:space="preserve" style="fill-rule:evenodd;clip-rule:evenodd;stroke-linejoin:round;stroke-miterlimit:1.41421;"><path id="sync" d="M9.401,0.642c-1.131,0 -2.213,0.221 -3.248,0.663c-1.034,0.443 -1.923,1.036 -2.667,1.78c-0.744,0.744 -1.337,1.633 -1.78,2.667c-0.442,1.035 -0.663,2.117 -0.663,3.248c0,0.088 -0.031,0.163 -0.093,0.224c-0.061,0.062 -0.136,0.092 -0.224,0.092c-0.094,0 -0.171,-0.03 -0.233,-0.092c-0.061,-0.061 -0.092,-0.136 -0.092,-0.224c0,-1.225 0.237,-2.392 0.712,-3.502c0.474,-1.111 1.113,-2.067 1.916,-2.87c0.803,-0.803 1.759,-1.441 2.87,-1.916c1.11,-0.475 2.277,-0.712 3.502,-0.712c1.617,0 3.107,0.397 4.469,1.191c1.363,0.794 2.445,1.862 3.248,3.204l0,-3.428c0,-0.094 0.031,-0.172 0.092,-0.233c0.062,-0.062 0.136,-0.092 0.224,-0.092c0.088,0 0.164,0.03 0.229,0.092c0.064,0.061 0.096,0.139 0.096,0.233l0,4.5c0,0.088 -0.032,0.162 -0.096,0.224c-0.065,0.061 -0.141,0.092 -0.229,0.092l-4.5,0c-0.088,0 -0.162,-0.031 -0.224,-0.092c-0.061,-0.062 -0.092,-0.136 -0.092,-0.224c0,-0.094 0.031,-0.172 0.092,-0.233c0.062,-0.062 0.136,-0.092 0.224,-0.092l3.876,0c-0.709,-1.36 -1.724,-2.45 -3.045,-3.27c-1.322,-0.82 -2.776,-1.23 -4.364,-1.23ZM9.401,18c-1.617,0 -3.107,-0.397 -4.469,-1.191c-1.363,-0.794 -2.445,-1.862 -3.248,-3.204l0,3.428c0,0.088 -0.031,0.164 -0.092,0.229c-0.062,0.064 -0.136,0.096 -0.224,0.096c-0.088,0 -0.164,-0.032 -0.229,-0.096c-0.064,-0.065 -0.096,-0.141 -0.096,-0.229l0,-4.5c0,-0.088 0.032,-0.162 0.096,-0.224c0.065,-0.061 0.141,-0.092 0.229,-0.092l4.5,0c0.088,0 0.162,0.031 0.224,0.092c0.061,0.062 0.092,0.136 0.092,0.224c0,0.088 -0.031,0.164 -0.092,0.229c-0.062,0.064 -0.136,0.096 -0.224,0.096l-3.876,0c0.709,1.36 1.724,2.45 3.045,3.27c1.321,0.82 2.776,1.23 4.364,1.23c1.131,0 2.213,-0.221 3.248,-0.663c1.034,-0.443 1.923,-1.036 2.667,-1.78c0.744,-0.744 1.337,-1.633 1.78,-2.667c0.442,-1.035 0.663,-2.117 0.663,-3.248c0,-0.088 0.031,-0.164 0.093,-0.229c0.061,-0.064 0.136,-0.096 0.224,-0.096c0.094,0 0.171,0.032 0.233,0.096c0.061,0.065 0.092,0.141 0.092,0.229c0,1.219 -0.237,2.383 -0.712,3.494c-0.475,1.11 -1.113,2.068 -1.916,2.874c-0.803,0.805 -1.761,1.445 -2.874,1.92c-1.113,0.475 -2.279,0.712 -3.498,0.712Z" style="fill:#fff;"/></svg>