<?xml version="1.0" encoding="utf-8"?>
<svg version="1.1" id="Layer_1" xmlns="http://www.w3.org/2000/svg" xmlns:xlink="http://www.w3.org/1999/xlink" x="0px" y="0px"
	 viewBox="0 0 51 51" style="enable-background:new 0 0 51 51;" xml:space="preserve">
<style type="text/css">
	.st0{fill:url(#coin_1_);}
	.st1{filter:url(#Adobe_OpacityMaskFilter);}
	.st2{fill:#FFFFFF;}
	.st3{mask:url(#mask-3);fill:#FFFFFF;}
</style>
<linearGradient id="coin_1_" gradientUnits="userSpaceOnUse" x1="-273.8224" y1="413.966" x2="-274.172" y2="414.57" gradientTransform="matrix(50.3194 0 0 -50.3886 13809.4346 20893.9863)">
	<stop  offset="0" style="stop-color:#FFA24B"/>
	<stop  offset="1" style="stop-color:#F7891C"/>
</linearGradient>
<path id="coin" class="st0" d="M25.5,51c14.1,0,25.5-11.4,25.5-25.5S39.5,0,25.5,0S0,11.4,0,25.5S11.4,51,25.5,51z"/>
<defs>
	<filter id="Adobe_OpacityMaskFilter" filterUnits="userSpaceOnUse" x="15" y="11" width="21" height="28.7">
		<feColorMatrix  type="matrix" values="1 0 0 0 0  0 1 0 0 0  0 0 1 0 0  0 0 0 1 0"/>
	</filter>
</defs>
<mask maskUnits="userSpaceOnUse" x="15" y="11" width="21" height="28.7" id="mask-3">
	<g class="st1">
		<path id="path-2" class="st2" d="M26.2,50.4c13.9,0,25.2-11.3,25.2-25.2S40.1,0,26.2,0S1,11.3,1,25.2S12.3,50.4,26.2,50.4z"/>
	</g>
</mask>
<path id="BitPay-Bitcoin_Symbol" class="st3" d="M33.5,19.1c-0.6-3-3.3-3.8-6.5-3.9L26.5,11l-2.5,0.2l0.5,4.2c-0.7,0.1-1.3,0.1-2,0.2
	l-0.5-4.2l-2.5,0.2l0.5,4.3c-0.5,0-1.1,0.1-1.6,0.2l0,0L15,16.4l0.3,2.8c0,0,1.8-0.2,1.8-0.1c1-0.1,1.4,0.5,1.5,1l0.5,4.9
	c0.1,0,0.2,0,0.3,0c-0.1,0-0.2,0-0.3,0l0.8,6.8c0,0.3-0.2,0.9-0.8,0.9c0,0-1.8,0.2-1.8,0.2l-0.1,3.1l3.2-0.3c0.6,0,1.2-0.1,1.8-0.1
	l0.5,4.3l2.5-0.2l-0.5-4.3c0.7,0,1.4-0.1,2-0.1l0.5,4.2l2.5-0.2l-0.5-4.3c4.2-0.6,7-2,6.9-6.1c-0.1-3.3-1.7-4.7-4.2-5.1
	C33.2,22.8,34,21.4,33.5,19.1L33.5,19.1z M31,28.7c0.4,3.2-5,3.3-6.7,3.5l-0.6-5.7C25.5,26.3,30.7,25.3,31,28.7L31,28.7z M23.5,23.8
	l-0.5-5.2c1.4-0.1,5.8-1,6.1,2.1C29.3,23.6,24.9,23.7,23.5,23.8z"/>
</svg>
