<?xml version="1.0" encoding="UTF-8" standalone="no"?>
<svg width="34px" height="17px" viewBox="0 0 34 17" version="1.1" xmlns="http://www.w3.org/2000/svg" xmlns:xlink="http://www.w3.org/1999/xlink" xmlns:sketch="http://www.bohemiancoding.com/sketch/ns">
    <!-- Generator: Sketch 3.4.2 (15855) - http://www.bohemiancoding.com/sketch -->
    <title>downloadbox</title>
    <desc>Created with Sketch.</desc>
    <defs></defs>
    <g id="Page-1" stroke="none" stroke-width="1" fill="none" fill-rule="evenodd" sketch:type="MSPage">
        <g id="Wallet-1of1" sketch:type="MSArtboardGroup" transform="translate(-313.000000, -975.000000)" fill="#6D8697">
            <path d="M344.343994,978.609009 C344.673586,978.609009 344.956481,978.493653 345.192688,978.262939 C345.428895,978.032225 345.546997,977.746584 345.546997,977.406006 C345.546997,977.076414 345.428895,976.793519 345.192688,976.557312 C344.956481,976.321105 344.673586,976.203003 344.343994,976.203003 C344.003416,976.203003 343.717775,976.321105 343.487061,976.557312 C343.256347,976.793519 343.140991,977.076414 343.140991,977.406006 C343.140991,977.746584 343.256347,978.032225 343.487061,978.262939 C343.717775,978.493653 344.003416,978.609009 344.343994,978.609009 L344.343994,978.609009 Z M322.640503,980.421753 C322.981081,980.421753 323.266722,980.303651 323.497437,980.067444 C323.728151,979.831237 323.843506,979.548341 323.843506,979.21875 C323.843506,978.889159 323.728151,978.606263 323.497437,978.370056 C323.266722,978.133849 322.981081,978.015747 322.640503,978.015747 C322.310911,978.015747 322.028016,978.133849 321.791809,978.370056 C321.555602,978.606263 321.4375,978.889159 321.4375,979.21875 C321.4375,979.548341 321.555602,979.831237 321.791809,980.067444 C322.028016,980.303651 322.310911,980.421753 322.640503,980.421753 L322.640503,980.421753 Z M337.109497,982.827759 C337.439089,982.827759 337.721984,982.712403 337.958191,982.481689 C338.194398,982.250975 338.3125,981.965334 338.3125,981.624756 C338.3125,981.295164 338.194398,981.012269 337.958191,980.776062 C337.721984,980.539855 337.439089,980.421753 337.109497,980.421753 C336.768919,980.421753 336.483278,980.539855 336.252563,980.776062 C336.021849,981.012269 335.906494,981.295164 335.906494,981.624756 C335.906494,981.965334 336.021849,982.250975 336.252563,982.481689 C336.483278,982.712403 336.768919,982.827759 337.109497,982.827759 L337.109497,982.827759 Z M344.343994,975 C345.014164,975 345.5827,975.233457 346.049622,975.700378 C346.516543,976.1673 346.75,976.735836 346.75,977.406006 C346.75,978.076175 346.516543,978.644712 346.049622,979.111633 C345.5827,979.578555 345.014164,979.812012 344.343994,979.812012 C343.651852,979.812012 343.080569,979.575808 342.630127,979.103394 L339.416626,980.982056 C339.482544,981.179811 339.515503,981.394042 339.515503,981.624756 C339.515503,982.294925 339.282046,982.863462 338.815125,983.330383 C338.348203,983.797305 337.779666,984.030762 337.109497,984.030762 C336.703001,984.030762 336.323976,983.937379 335.972412,983.75061 L331.901978,988.167114 C332.154664,988.540651 332.281006,988.974607 332.281006,989.468994 C332.281006,990.128177 332.047549,990.693967 331.580627,991.166382 C331.113706,991.638796 330.545169,991.875 329.875,991.875 C329.204831,991.875 328.636294,991.638796 328.169373,991.166382 C327.702451,990.693967 327.468994,990.128177 327.468994,989.468994 C327.468994,988.875729 327.661253,988.359377 328.045776,987.919922 L323.497437,981.459961 C323.200804,981.569825 322.915163,981.624756 322.640503,981.624756 C322.179075,981.624756 321.745119,981.492921 321.338623,981.229248 L317.53186,984.7229 C317.729615,985.085451 317.828491,985.458982 317.828491,985.843506 C317.828491,986.513675 317.592288,987.082212 317.119873,987.549133 C316.647459,988.016055 316.076175,988.249512 315.406006,988.249512 C314.735836,988.249512 314.1673,988.016055 313.700378,987.549133 C313.233457,987.082212 313,986.513675 313,985.843506 C313,985.173336 313.233457,984.6048 313.700378,984.137878 C314.1673,983.670957 314.735836,983.4375 315.406006,983.4375 C315.87842,983.4375 316.317869,983.569335 316.724365,983.833008 L320.514648,980.339355 C320.32788,979.965818 320.234497,979.592287 320.234497,979.21875 C320.234497,978.548581 320.467954,977.980044 320.934875,977.513123 C321.401797,977.046201 321.970334,976.812744 322.640503,976.812744 C323.310672,976.812744 323.879209,977.046201 324.34613,977.513123 C324.813052,977.980044 325.046509,978.548581 325.046509,979.21875 C325.046509,979.801028 324.85425,980.317381 324.469727,980.767822 L329.018066,987.211304 C329.325685,987.10144 329.611327,987.046509 329.875,987.046509 C330.259523,987.046509 330.638548,987.145385 331.012085,987.34314 L335.098999,982.943115 C334.835326,982.536619 334.703491,982.09717 334.703491,981.624756 C334.703491,980.954586 334.936948,980.38605 335.40387,979.919128 C335.870791,979.452207 336.439328,979.21875 337.109497,979.21875 C337.757694,979.21875 338.328977,979.454954 338.823364,979.927368 L342.020386,978.065186 C341.954467,977.77954 341.921509,977.559815 341.921509,977.406006 C341.921509,976.735836 342.157712,976.1673 342.630127,975.700378 C343.102541,975.233457 343.673825,975 344.343994,975 L344.343994,975 Z M315.406006,987.046509 C315.746584,987.046509 316.032225,986.931153 316.262939,986.700439 C316.493653,986.469725 316.609009,986.184084 316.609009,985.843506 C316.609009,985.513914 316.493653,985.231019 316.262939,984.994812 C316.032225,984.758605 315.746584,984.640503 315.406006,984.640503 C315.076414,984.640503 314.793519,984.758605 314.557312,984.994812 C314.321105,985.231019 314.203003,985.513914 314.203003,985.843506 C314.203003,986.184084 314.321105,986.469725 314.557312,986.700439 C314.793519,986.931153 315.076414,987.046509 315.406006,987.046509 L315.406006,987.046509 Z M329.875,990.671997 C330.204591,990.671997 330.487487,990.553895 330.723694,990.317688 C330.959901,990.081481 331.078003,989.798586 331.078003,989.468994 C331.078003,989.128416 330.959901,988.840028 330.723694,988.603821 C330.487487,988.367614 330.204591,988.249512 329.875,988.249512 C329.545409,988.249512 329.262513,988.367614 329.026306,988.603821 C328.790099,988.840028 328.671997,989.128416 328.671997,989.468994 C328.671997,989.798586 328.790099,990.081481 329.026306,990.317688 C329.262513,990.553895 329.545409,990.671997 329.875,990.671997 L329.875,990.671997 Z" id="downloadbox" sketch:type="MSShapeGroup"></path>
        </g>
    </g>
</svg>