<?xml version="1.0" encoding="UTF-8" standalone="no"?>
<svg width="39px" height="18px" viewBox="0 0 39 18" version="1.1" xmlns="http://www.w3.org/2000/svg" xmlns:xlink="http://www.w3.org/1999/xlink" xmlns:sketch="http://www.bohemiancoding.com/sketch/ns">
    <!-- Generator: Sketch 3.3.3 (12072) - http://www.bohemiancoding.com/sketch -->
    <title>BWS + Rectangle 214</title>
    <desc>Created with Sketch.</desc>
    <defs></defs>
    <g id="WALLET-2-of-3" stroke="none" stroke-width="1" fill="none" fill-rule="evenodd" sketch:type="MSPage">
        <g id="Home-with-funds-Copy-2" sketch:type="MSArtboardGroup" transform="translate(-467.500000, -487.000000)">
            <g id="BWS-+-Rectangle-214" sketch:type="MSLayerGroup" transform="translate(468.142857, 487.000000)">
                <rect id="Rectangle-214" stroke="#7A8C9E" stroke-width="0.8" sketch:type="MSShapeGroup" x="0" y="0" width="37.7142857" height="18" rx="2"></rect>
                <path d="M12.046875,10.7477679 C12.046875,11.3370565 11.9029032,11.8604888 11.6149554,12.3180804 C11.3270075,12.7756719 10.9508952,13.1227667 10.4866071,13.359375 C10.0223191,13.5959833 9.51562775,13.7142857 8.96651786,13.7142857 L4.41294643,13.7142857 L4.41294643,3.81026786 L8.88616071,3.81026786 C9.62277154,3.81026786 10.2477653,4.03124779 10.7611607,4.47321429 C11.2745561,4.91518078 11.5401785,5.52901393 11.5580357,6.31473214 C11.5580357,6.76116295 11.4464297,7.17968555 11.2232143,7.5703125 C10.9999989,7.96093945 10.6830378,8.2321421 10.2723214,8.38392857 C10.7946455,8.5669652 11.2209805,8.86495329 11.5513393,9.27790179 C11.8816981,9.69085028 12.046875,10.1808007 12.046875,10.7477679 L12.046875,10.7477679 Z M10.2388393,6.60267857 C10.2388393,6.05803299 10.0993318,5.65401917 9.8203125,5.390625 C9.54129325,5.12723083 9.05134279,4.98660723 8.35044643,4.96875 L5.77901786,4.96875 L5.77901786,8.015625 L8.38392857,8.015625 C9.00446739,8.015625 9.46428422,7.88058171 9.76339286,7.61049107 C10.0625015,7.34040044 10.2209821,7.00446629 10.2388393,6.60267857 L10.2388393,6.60267857 Z M10.7142857,10.921875 C10.7142857,10.6272307 10.683036,10.3783492 10.6205357,10.1752232 C10.5580354,9.9720972 10.4453133,9.78794725 10.2823661,9.62276786 C10.1194188,9.45758846 9.88504617,9.33258971 9.57924107,9.24776786 C9.27343597,9.162946 8.8906273,9.11830359 8.43080357,9.11383929 L5.77901786,9.11383929 L5.77901786,12.5892857 L8.87276786,12.5892857 C9.18080511,12.5892857 9.45535594,12.5379469 9.69642857,12.4352679 C9.93750121,12.3325888 10.1283475,12.1975455 10.2689732,12.0301339 C10.4095989,11.8627224 10.5167407,11.6852688 10.5904018,11.4977679 C10.6640629,11.3102669 10.7053571,11.1183046 10.7142857,10.921875 L10.7142857,10.921875 Z M25.4330357,3.81026786 L22.8080357,13.7142857 L21.4151786,13.7142857 L19.1584821,5.51116071 L16.8415179,13.7142857 L15.4285714,13.7142857 L12.8571429,3.81026786 L14.3035714,3.81026786 L16.125,11.8861607 L18.3950893,3.81026786 L19.8415179,3.81026786 L22.1116071,11.8861607 L23.9397321,3.81026786 L25.4330357,3.81026786 Z M34.1584821,10.9352679 C34.1584821,11.5825925 33.9877249,12.1350424 33.6462054,12.5926339 C33.3046858,13.0502255 32.8482171,13.3861596 32.2767857,13.6004464 C31.7053543,13.8147332 31.0424145,13.921875 30.2879464,13.921875 C29.0200829,13.921875 28.0424142,13.6383957 27.3549107,13.0714286 C26.6674073,12.5044615 26.3214286,11.6294702 26.3169643,10.4464286 L27.5558036,10.4464286 C27.5558036,10.7946446 27.6093745,11.1049094 27.7165179,11.3772321 C27.8236612,11.6495549 27.9631688,11.8694188 28.1350446,12.0368304 C28.3069205,12.2042419 28.5156238,12.3437494 28.7611607,12.4553571 C29.0066977,12.5669648 29.2511149,12.6462051 29.4944196,12.6930804 C29.7377244,12.7399556 30.0022307,12.7678571 30.2879464,12.7767857 C30.5513406,12.7767857 30.8013381,12.7600448 31.0379464,12.7265625 C31.2745548,12.6930802 31.5066953,12.6361611 31.734375,12.5558036 C31.9620547,12.475446 32.1584813,12.3738845 32.3236607,12.2511161 C32.4888401,12.1283476 32.6216513,11.969867 32.7220982,11.7756696 C32.8225451,11.5814722 32.8727679,11.3593763 32.8727679,11.109375 C32.8727679,10.935267 32.8537948,10.7801346 32.8158482,10.6439732 C32.7779016,10.5078118 32.7232146,10.3872773 32.6517857,10.2823661 C32.5803568,10.1774548 32.4810274,10.0825897 32.3537946,9.99776786 C32.2265619,9.912946 32.0837061,9.83705391 31.9252232,9.77008929 C31.7667403,9.70312467 31.5703137,9.63727711 31.3359375,9.57254464 C31.1015613,9.50781218 30.854912,9.4453128 30.5959821,9.38504464 C30.3370523,9.32477648 30.0290196,9.25446469 29.671875,9.17410714 C29.5111599,9.13839268 29.3883933,9.11160723 29.3035714,9.09375 C29.0044628,9.02678538 28.7377244,8.95424146 28.5033482,8.87611607 C28.268972,8.79799068 28.0312512,8.69196496 27.7901786,8.55803571 C27.5491059,8.42410647 27.3482151,8.27343834 27.1875,8.10602679 C27.0267849,7.93861523 26.8939737,7.7287959 26.7890625,7.4765625 C26.6841513,7.2243291 26.6272322,6.94419797 26.6183036,6.63616071 C26.6183036,6.22544438 26.6852672,5.8426357 26.8191964,5.48772321 C26.9531257,5.13281073 27.1540165,4.81250143 27.421875,4.52678571 C27.6897335,4.24107 28.0491049,4.01562583 28.5,3.85044643 C28.9508951,3.68526703 29.466515,3.60267857 30.046875,3.60267857 C30.5424132,3.60267857 30.9921855,3.6495531 31.3962054,3.74330357 C31.8002252,3.83705404 32.1305791,3.95089219 32.3872768,4.08482143 C32.6439745,4.21875067 32.8705347,4.39174001 33.0669643,4.60379464 C33.2633938,4.81584927 33.4095977,5.00446346 33.5055804,5.16964286 C33.601563,5.33482225 33.6819193,5.53459704 33.7466518,5.76897321 C33.8113843,6.00334939 33.8493303,6.17187449 33.8604911,6.27455357 C33.8716518,6.37723266 33.8839285,6.50669565 33.8973214,6.66294643 C33.9017857,6.7031252 33.9040179,6.72991065 33.9040179,6.74330357 L32.6651786,6.74330357 C32.6651786,6.46205217 32.617188,6.20759042 32.5212054,5.97991071 C32.4252227,5.752231 32.2979919,5.56361682 32.1395089,5.4140625 C31.981026,5.26450818 31.7912957,5.13839337 31.5703125,5.03571429 C31.3493293,4.9330352 31.1250011,4.85825916 30.8973214,4.81138393 C30.6696417,4.76450869 30.4285727,4.73660719 30.1741071,4.72767857 C29.9464274,4.72767857 29.7321439,4.74218735 29.53125,4.77120536 C29.3303561,4.80022336 29.1283492,4.85491031 28.9252232,4.93526786 C28.7220972,5.0156254 28.5491079,5.11941901 28.40625,5.24665179 C28.2633921,5.37388456 28.1462058,5.54240967 28.0546875,5.75223214 C27.9631692,5.96205462 27.9174107,6.20312364 27.9174107,6.47544643 C27.9174107,7.10491386 28.3147282,7.50669556 29.109375,7.68080357 L31.9352679,8.33035714 C33.4174181,8.66071594 34.1584821,9.52901083 34.1584821,10.9352679 L34.1584821,10.9352679 Z" id="BWS" fill="#7A8C9E" sketch:type="MSShapeGroup"></path>
            </g>
        </g>
    </g>
</svg>