<?xml version="1.0" encoding="UTF-8" standalone="no"?>
<svg width="51px" height="51px" viewBox="0 0 51 51" version="1.1" xmlns="http://www.w3.org/2000/svg" xmlns:xlink="http://www.w3.org/1999/xlink">
    <!-- Generator: Sketch 39.1 (31720) - http://www.bohemiancoding.com/sketch -->
    <title>Oval 87 + bitpay-logo-grayscale</title>
    <desc>Created with Sketch.</desc>
    <defs></defs>
    <g id="Symbols" stroke="none" stroke-width="1" fill="none" fill-rule="evenodd">
        <g id="Wallet/Icon/BitPay">
            <g id="Oval-87-+-bitpay-logo-grayscale" transform="translate(0.255973, 0.209302)">
                <ellipse id="Oval-87" fill="#2F2EAA" cx="25.1597034" cy="25.194296" rx="25.1597034" ry="25.194296"></ellipse>
                <path d="M28.4160311,19.6561996 C29.5705304,19.6561996 30.5875893,19.8806427 31.4397197,20.3014735 C32.2918501,20.7223043 32.979052,21.283412 33.5563016,22.0128521 C34.1060632,22.7422921 34.5183844,23.5839537 34.7932651,24.5378368 C35.0681459,25.4917199 35.2055863,26.5297692 35.2055863,27.6519847 C35.2055863,29.3633632 34.9032175,30.9625202 34.2709917,32.5055664 C33.6387659,34.0205573 32.8141235,35.3672158 31.7420885,36.4894312 C30.6700535,37.6116467 29.4056019,38.509419 27.9487338,39.1546929 C26.4918657,39.7999668 24.9250453,40.1366314 23.2207844,40.1366314 C23.0008798,40.1366314 22.6160467,40.1366314 22.0662852,40.108576 C21.5165236,40.108576 20.8842978,40.0524653 20.1970959,39.9402437 C19.4824059,39.8280222 18.7402278,39.6877452 17.9705616,39.4913575 C17.1734073,39.2949698 16.4312292,39.014416 15.7440273,38.6777513 L22.0387971,11.68847 L27.673853,10.7906977 L25.4473187,20.3575843 C25.9421041,20.1331412 26.3819134,19.9648089 26.8766988,19.8525873 C27.3439961,19.7123104 27.8662696,19.6561996 28.4160311,19.6561996 L28.4160311,19.6561996 Z M23.6880818,35.5355481 C24.5402122,35.5355481 25.3373664,35.3391604 26.0795445,34.8902742 C26.8217226,34.4694435 27.4814365,33.9083357 28.031198,33.2069511 C28.5809596,32.5055664 29.0207688,31.6919602 29.3231377,30.8222433 C29.6255065,29.9244709 29.790435,28.9986432 29.790435,28.0447601 C29.790435,26.8664338 29.5980185,25.9406061 29.2131854,25.2672768 C28.8283523,24.5939476 28.031198,24.2853383 26.9866511,24.2853383 C26.6567941,24.2853383 26.2994491,24.3133937 25.7496876,24.4536707 C25.199926,24.5658922 24.7326287,24.8464461 24.2928195,25.2392215 L21.9288448,35.4233266 C22.6435348,35.5355481 22.8634394,35.5636035 23.055856,35.5636035 C23.1932964,35.5355481 23.413201,35.5355481 23.6880818,35.5355481 L23.6880818,35.5355481 Z" id="b_2_" fill="#FFFFFF"></path>
            </g>
        </g>
    </g>
</svg>