<?xml version="1.0" encoding="UTF-8" standalone="no"?>
<svg width="22px" height="16px" viewBox="0 0 22 16" version="1.1" xmlns="http://www.w3.org/2000/svg" xmlns:xlink="http://www.w3.org/1999/xlink" xmlns:sketch="http://www.bohemiancoding.com/sketch/ns">
    <!-- Generator: Sketch 3.3.3 (12072) - http://www.bohemiancoding.com/sketch -->
    <title>usergroup</title>
    <desc>Created with Sketch.</desc>
    <defs></defs>
    <g id="WALLET-2-of-3" stroke="none" stroke-width="1" fill="none" fill-rule="evenodd" sketch:type="MSPage">
        <g id="Home-with-funds-Copy-2" sketch:type="MSArtboardGroup" transform="translate(-205.500000, -489.000000)" fill="#7A8C9E">
            <path d="M221.365604,499.889894 C221.652621,500.033402 221.861047,500.139324 221.990888,500.207661 C222.12073,500.275999 222.298404,500.375087 222.523918,500.504928 C222.749432,500.634769 222.915148,500.744107 223.021071,500.832946 C223.126994,500.921785 223.26025,501.039665 223.420843,501.186591 C223.581436,501.333516 223.697608,501.475314 223.769362,501.611989 C223.841117,501.748664 223.924829,501.91438 224.020501,502.109142 C224.116174,502.303904 224.182802,502.510622 224.220387,502.729301 C224.257973,502.947981 224.292141,503.197409 224.322893,503.477593 C224.353645,503.757777 224.369021,504.061874 224.369021,504.389894 L208.624146,504.389894 C208.624146,504.061874 208.639521,503.757777 208.670273,503.477593 C208.701025,503.197409 208.735193,502.947981 208.772779,502.729301 C208.810365,502.510622 208.876993,502.303904 208.972665,502.109142 C209.068338,501.91438 209.15205,501.748664 209.223804,501.611989 C209.295558,501.475314 209.41173,501.333516 209.572323,501.186591 C209.732917,501.039665 209.866173,500.921785 209.972096,500.832946 C210.078019,500.744107 210.243735,500.634769 210.469248,500.504928 C210.694762,500.375087 210.872437,500.275999 211.002278,500.207661 C211.132119,500.139324 211.340545,500.033402 211.627563,499.889894 C211.962416,499.725884 212.293848,499.577252 212.621868,499.443994 C212.949888,499.310736 213.211275,499.213356 213.406036,499.151853 C213.600798,499.090349 213.785307,499.025429 213.959567,498.957092 C214.133828,498.888754 214.263667,498.820418 214.349089,498.75208 C214.434511,498.683743 214.501139,498.591489 214.548975,498.475315 C214.596811,498.359141 214.620729,498.208801 214.620729,498.02429 C214.620729,497.545928 214.581435,497.142743 214.502847,496.814723 C214.424259,496.486703 214.330297,496.230441 214.220957,496.04593 C214.111617,495.861419 214.002278,495.678619 213.892938,495.497525 C213.783599,495.31643 213.689636,495.061877 213.611048,494.733857 C213.53246,494.405837 213.493166,494.002652 213.493166,493.52429 C213.493166,492.957089 213.544419,492.447983 213.646925,491.996955 C213.749431,491.545928 213.874145,491.180328 214.021071,490.900144 C214.167996,490.619961 214.349088,490.375658 214.564351,490.167229 C214.779614,489.958799 214.974373,489.808459 215.148633,489.716203 C215.322894,489.623948 215.519361,489.550486 215.738041,489.495816 C215.956721,489.441146 216.112186,489.410395 216.204442,489.403561 C216.296697,489.396727 216.394077,489.393311 216.496583,489.393311 C216.599089,489.393311 216.696469,489.396727 216.788724,489.403561 C216.88098,489.410395 217.036445,489.441146 217.255125,489.495816 C217.473805,489.550486 217.670272,489.623948 217.844533,489.716203 C218.018794,489.808459 218.213552,489.958799 218.428815,490.167229 C218.644079,490.375658 218.82517,490.619961 218.972096,490.900144 C219.119021,491.180328 219.243735,491.545928 219.346241,491.996955 C219.448748,492.447983 219.5,492.957089 219.5,493.52429 C219.5,494.002652 219.460707,494.405837 219.382118,494.733857 C219.30353,495.061877 219.209568,495.31643 219.100228,495.497525 C218.990888,495.678619 218.88155,495.861419 218.77221,496.04593 C218.66287,496.230441 218.568907,496.486703 218.490319,496.814723 C218.411731,497.142743 218.372437,497.545928 218.372437,498.02429 C218.372437,498.208801 218.396355,498.359141 218.444191,498.475315 C218.492028,498.591489 218.558656,498.683743 218.644077,498.75208 C218.729499,498.820418 218.859339,498.888754 219.033599,498.957092 C219.20786,499.025429 219.392368,499.090349 219.58713,499.151853 C219.781892,499.213356 220.043279,499.310736 220.371298,499.443994 C220.699318,499.577252 221.03075,499.725884 221.365604,499.889894 L221.365604,499.889894 Z M209.403189,503.641602 L223.589977,503.641602 C223.569476,503.375086 223.533599,503.135908 223.482346,502.924062 C223.431093,502.712216 223.378132,502.527708 223.323462,502.370532 C223.268792,502.213355 223.176538,502.059598 223.046697,501.909256 C222.916856,501.758913 222.805809,501.637616 222.713554,501.545361 C222.621298,501.453105 222.464124,501.342058 222.242027,501.212217 C222.019931,501.082376 221.840547,500.98158 221.703872,500.909825 C221.567197,500.838071 221.345104,500.723607 221.037585,500.566431 C220.552389,500.32725 219.954445,500.081239 219.243736,499.82839 C218.97722,499.739552 218.77221,499.662673 218.628702,499.597752 C218.485193,499.532832 218.322894,499.433744 218.1418,499.300486 C217.960705,499.167228 217.829158,498.996387 217.747153,498.787957 C217.665148,498.579528 217.624146,498.324975 217.624146,498.02429 C217.624146,497.552761 217.661731,497.134201 217.736902,496.768595 C217.812073,496.40299 217.887243,496.139894 217.962415,495.979301 C218.037586,495.818708 218.146924,495.622241 218.290433,495.389894 C218.399773,495.205383 218.480068,495.058459 218.531321,494.949119 C218.582574,494.839779 218.63041,494.662104 218.674829,494.41609 C218.719249,494.170075 218.741458,493.872811 218.741458,493.52429 C218.741458,493.052761 218.705581,492.629076 218.633827,492.253219 C218.562073,491.877363 218.464693,491.571558 218.341686,491.335793 C218.218678,491.100029 218.083714,490.900145 217.936788,490.736135 C217.789863,490.572125 217.627564,490.44912 217.449886,490.367115 C217.272209,490.28511 217.108201,490.228732 216.957859,490.19798 C216.807516,490.167228 216.653759,490.151853 216.496583,490.151853 C216.339407,490.151853 216.18565,490.167228 216.035308,490.19798 C215.884965,490.228732 215.720958,490.28511 215.54328,490.367115 C215.365603,490.44912 215.203304,490.572125 215.056378,490.736135 C214.909453,490.900145 214.774488,491.100029 214.651481,491.335793 C214.528473,491.571558 214.431094,491.877363 214.359339,492.253219 C214.287585,492.629076 214.251708,493.052761 214.251708,493.52429 C214.251708,493.872811 214.273918,494.170075 214.318337,494.41609 C214.362756,494.662104 214.410592,494.839779 214.461845,494.949119 C214.513098,495.058459 214.593394,495.205383 214.702733,495.389894 C214.846242,495.622241 214.95558,495.818708 215.030752,495.979301 C215.105923,496.139894 215.181093,496.40299 215.256264,496.768595 C215.331435,497.134201 215.369021,497.552761 215.369021,498.02429 C215.369021,498.324975 215.328019,498.579528 215.246014,498.787957 C215.164009,498.996387 215.032461,499.167228 214.851367,499.300486 C214.670272,499.433744 214.507973,499.532832 214.364465,499.597752 C214.220956,499.662673 214.015947,499.739552 213.749431,499.82839 C213.038721,500.081239 212.440777,500.32725 211.955581,500.566431 C211.648062,500.723607 211.425969,500.838071 211.289294,500.909825 C211.152619,500.98158 210.973236,501.082376 210.751139,501.212217 C210.529042,501.342058 210.371868,501.453105 210.279613,501.545361 C210.187357,501.637616 210.07631,501.758913 209.946469,501.909256 C209.816628,502.059598 209.724374,502.213355 209.669704,502.370532 C209.615034,502.527708 209.562073,502.712216 209.51082,502.924062 C209.459567,503.135908 209.42369,503.375086 209.403189,503.641602 L209.403189,503.641602 Z M225.281321,498.998094 C225.86219,499.380784 226.22779,499.650713 226.378132,499.807889 C226.699318,500.135909 226.89066,500.617681 226.952164,501.253219 C226.979499,501.499234 226.993166,501.796498 226.993166,502.145019 L224.820046,502.145019 C224.724373,501.885337 224.601367,501.635909 224.451025,501.396727 L226.203872,501.396727 C226.135535,500.938866 226.070615,500.651853 226.009112,500.53568 C225.913439,500.344335 225.698179,500.146159 225.363326,499.941147 C224.761956,499.56529 224.399773,499.343197 224.276765,499.27486 C224.119589,499.192855 223.993167,499.119393 223.897494,499.054472 C223.801822,498.989552 223.697609,498.895589 223.584852,498.772582 C223.472095,498.649574 223.388383,498.497526 223.333713,498.316431 C223.279043,498.135337 223.251708,497.925202 223.251708,497.686021 C223.251708,497.515178 223.256834,497.363129 223.267084,497.229871 C223.277335,497.096613 223.287585,496.9924 223.297836,496.917229 C223.308087,496.842057 223.332004,496.758345 223.36959,496.66609 C223.407176,496.573834 223.432802,496.51404 223.446469,496.486705 C223.460137,496.45937 223.497722,496.396158 223.559226,496.297069 C223.620729,496.19798 223.661731,496.131352 223.682232,496.097183 C223.900912,495.728161 224.010251,495.208804 224.010251,494.539096 C224.010251,494.27258 223.98975,494.021444 223.948747,493.78568 C223.907745,493.549915 223.8377,493.322697 223.73861,493.104017 C223.639521,492.885337 223.494306,492.712787 223.302961,492.586363 C223.111616,492.459939 222.882689,492.396727 222.616173,492.396727 C222.096808,492.396727 221.69704,492.615404 221.416856,493.052764 C221.136673,493.490124 220.996583,493.985563 220.996583,494.539096 C220.996583,495.25664 221.092254,495.775997 221.283599,496.097183 C221.317768,496.151853 221.36902,496.23044 221.437358,496.332946 C221.505695,496.435452 221.551822,496.512331 221.57574,496.563584 C221.599658,496.614837 221.63041,496.693424 221.667995,496.799347 C221.705581,496.90527 221.731207,497.028276 221.744875,497.168367 C221.758542,497.308459 221.765376,497.481009 221.765376,497.686021 C221.765376,498.307892 221.591118,498.748662 221.242597,499.008345 C221.167426,498.98101 221.088839,498.950258 221.006834,498.91609 C220.924829,498.881921 220.84795,498.851169 220.776196,498.823834 C220.704442,498.796499 220.613896,498.769165 220.504556,498.74183 C220.750571,498.516316 220.894077,498.362559 220.93508,498.280554 C220.98975,498.164381 221.017084,497.966205 221.017084,497.686021 C221.017084,497.351168 220.991458,497.06928 220.940205,496.840349 C220.888952,496.611419 220.825741,496.433744 220.750569,496.30732 C220.675398,496.180895 220.59852,496.052764 220.519932,495.922923 C220.441344,495.793082 220.376424,495.613699 220.325171,495.384768 C220.273918,495.155838 220.248292,494.87395 220.248292,494.539096 C220.248292,494.142739 220.289293,493.785681 220.371298,493.467912 C220.453303,493.150143 220.552391,492.893881 220.668565,492.699119 C220.784739,492.504357 220.929954,492.335225 221.104214,492.191716 C221.278475,492.048207 221.435649,491.942286 221.57574,491.873948 C221.715832,491.805611 221.871298,491.75265 222.042141,491.715065 C222.212985,491.677479 222.332574,491.656978 222.400911,491.653561 C222.469249,491.650144 222.541002,491.648436 222.616173,491.648436 C222.705012,491.648436 222.790432,491.653561 222.872437,491.663812 C222.954442,491.674062 223.091115,491.703105 223.28246,491.750942 C223.473805,491.798778 223.646355,491.885907 223.800114,492.012331 C223.953873,492.138755 224.109339,492.301054 224.266515,492.499233 C224.423691,492.697412 224.546697,492.972466 224.635535,493.324404 C224.724374,493.676342 224.768793,494.081235 224.768793,494.539096 C224.768793,494.87395 224.743167,495.155838 224.691913,495.384768 C224.64066,495.613699 224.577449,495.793082 224.502278,495.922923 C224.427107,496.052764 224.350228,496.180895 224.27164,496.30732 C224.193052,496.433744 224.128132,496.611419 224.076879,496.840349 C224.025626,497.06928 224,497.351168 224,497.686021 C224,497.877366 224.029043,498.031123 224.08713,498.147297 C224.145217,498.263471 224.210136,498.347183 224.281891,498.398436 C224.353645,498.449689 224.49886,498.535109 224.71754,498.6547 C224.93622,498.774291 225.124145,498.888754 225.281321,498.998094 L225.281321,498.998094 Z M207.650342,499.941147 C207.322322,500.146159 207.115604,500.325542 207.030182,500.479301 C206.94476,500.633061 206.874716,500.894448 206.820046,501.26347 C206.813212,501.324974 206.806378,501.369392 206.799544,501.396727 L208.552392,501.396727 C208.395216,501.649576 208.275627,501.899004 208.193622,502.145019 L206,502.145019 C206,501.810165 206.008542,501.521444 206.025626,501.278846 C206.042711,501.036248 206.087129,500.817571 206.158884,500.622809 C206.230638,500.428048 206.292141,500.274291 206.343394,500.161534 C206.394647,500.048777 206.500569,499.920646 206.661162,499.777137 C206.821755,499.633629 206.949886,499.527707 207.045558,499.45937 C207.141231,499.391032 207.315488,499.271444 207.568337,499.1006 C207.636675,499.052764 207.687927,499.018595 207.722096,498.998094 C207.879272,498.888754 208.067197,498.774291 208.285877,498.6547 C208.504557,498.535109 208.649772,498.449689 208.721526,498.398436 C208.793281,498.347183 208.8582,498.263471 208.916287,498.147297 C208.974374,498.031123 209.003417,497.877366 209.003417,497.686021 C209.003417,497.351168 208.977791,497.06928 208.926538,496.840349 C208.875284,496.611419 208.810365,496.432036 208.731777,496.302194 C208.653189,496.172353 208.57631,496.044222 208.501139,495.917798 C208.425968,495.791374 208.362757,495.613699 208.311503,495.384768 C208.26025,495.155838 208.234624,494.87395 208.234624,494.539096 C208.234624,494.081235 208.279043,493.676342 208.367882,493.324404 C208.45672,492.972466 208.579726,492.697412 208.736902,492.499233 C208.894078,492.301054 209.049544,492.138755 209.203303,492.012331 C209.357062,491.885907 209.529612,491.798778 209.720957,491.750942 C209.912302,491.703105 210.048975,491.674062 210.130979,491.663812 C210.212984,491.653561 210.298405,491.648436 210.387244,491.648436 C210.462415,491.648436 210.534168,491.650144 210.602506,491.653561 C210.670843,491.656978 210.790432,491.677479 210.961276,491.715065 C211.132119,491.75265 211.287585,491.805611 211.427677,491.873948 C211.567768,491.942286 211.724942,492.048207 211.899203,492.191716 C212.073463,492.335225 212.218678,492.504357 212.334852,492.699119 C212.451026,492.893881 212.550113,493.150143 212.632118,493.467912 C212.714123,493.785681 212.755125,494.142739 212.755125,494.539096 C212.755125,494.87395 212.729499,495.155838 212.678246,495.384768 C212.626993,495.613699 212.563782,495.793082 212.48861,495.922923 C212.413439,496.052764 212.336561,496.180895 212.257973,496.30732 C212.179385,496.433744 212.114465,496.611419 212.063212,496.840349 C212.011959,497.06928 211.986333,497.351168 211.986333,497.686021 C211.986333,497.747525 211.988041,497.803903 211.991458,497.855156 C211.994875,497.906409 211.996583,497.952536 211.996583,497.993538 C211.996583,498.034541 212.003417,498.075543 212.017084,498.116545 C212.030752,498.157548 212.039294,498.190007 212.042711,498.213926 C212.046128,498.237844 212.061503,498.266887 212.088838,498.301055 C212.116173,498.335224 212.131549,498.359142 212.134966,498.372809 C212.138383,498.386477 212.160592,498.413811 212.201595,498.454814 C212.242597,498.495816 212.269932,498.523151 212.283599,498.536819 C212.297267,498.550486 212.331435,498.582946 212.386105,498.634199 C212.440775,498.685452 212.47836,498.721329 212.498861,498.74183 C212.389521,498.769165 212.298975,498.796499 212.227221,498.823834 C212.155467,498.851169 212.078588,498.881921 211.996583,498.91609 C211.914578,498.950258 211.835991,498.98101 211.76082,499.008345 C211.412299,498.748662 211.238041,498.307892 211.238041,497.686021 C211.238041,497.481009 211.244875,497.308459 211.258542,497.168367 C211.27221,497.028276 211.297836,496.90527 211.335421,496.799347 C211.373007,496.693424 211.403758,496.614837 211.427677,496.563584 C211.451595,496.512331 211.497722,496.435452 211.566059,496.332946 C211.634397,496.23044 211.685649,496.151853 211.719818,496.097183 C211.911163,495.775997 212.006834,495.25664 212.006834,494.539096 C212.006834,493.985563 211.866744,493.490124 211.58656,493.052764 C211.306377,492.615404 210.906609,492.396727 210.387244,492.396727 C210.120728,492.396727 209.891801,492.459939 209.700456,492.586363 C209.509111,492.712787 209.363896,492.885337 209.264806,493.104017 C209.165717,493.322697 209.095672,493.549915 209.05467,493.78568 C209.013667,494.021444 208.993166,494.27258 208.993166,494.539096 C208.993166,495.208804 209.102505,495.728161 209.321185,496.097183 C209.341686,496.131352 209.382688,496.19798 209.444191,496.297069 C209.505695,496.396158 209.54328,496.45937 209.556948,496.486705 C209.570615,496.51404 209.596241,496.573834 209.633827,496.66609 C209.671412,496.758345 209.69533,496.842057 209.705581,496.917229 C209.715831,496.9924 209.726082,497.096613 209.736333,497.229871 C209.746583,497.363129 209.751708,497.515178 209.751708,497.686021 C209.751708,497.925202 209.724374,498.135337 209.669704,498.316431 C209.615034,498.497526 209.531322,498.649574 209.418565,498.772582 C209.305808,498.895589 209.203303,498.989552 209.111048,499.054472 C209.018792,499.119393 208.894078,499.192855 208.736902,499.27486 C208.47722,499.411534 208.115036,499.633628 207.650342,499.941147 L207.650342,499.941147 Z" id="usergroup" sketch:type="MSShapeGroup"></path>
        </g>
    </g>
</svg>