<?xml version="1.0" encoding="UTF-8" standalone="no"?>
<svg width="51px" height="51px" viewBox="0 0 51 51" version="1.1" xmlns="http://www.w3.org/2000/svg" xmlns:xlink="http://www.w3.org/1999/xlink">
    <!-- Generator: Sketch 39.1 (31720) - http://www.bohemiancoding.com/sketch -->
    <title>item-ico-gift</title>
    <desc>Created with Sketch.</desc>
    <defs>
        <linearGradient x1="0%" y1="0%" x2="101.999998%" y2="100.999999%" id="linearGradient-1">
            <stop stop-color="#3023AE" offset="0%"></stop>
            <stop stop-color="#C96DD8" offset="100%"></stop>
        </linearGradient>
        <ellipse id="path-2" cx="25.1597034" cy="25.194296" rx="25.1597034" ry="25.194296"></ellipse>
    </defs>
    <g id="Symbols" stroke="none" stroke-width="1" fill="none" fill-rule="evenodd">
        <g id="Wallet/Icon/Gifts" transform="translate(-1.000000, -1.000000)">
            <g id="item-ico-gift" transform="translate(1.000000, 1.000000)">
                <g id="Group">
                    <mask id="mask-3" fill="white">
                        <use xlink:href="#path-2"></use>
                    </mask>
                    <use id="Mask" fill="url(#linearGradient-1)" xlink:href="#path-2"></use>
                    <polyline id="Shape" stroke="#FFFFFF" mask="url(#mask-3)" points="34.9090909 22.3636364 34.9090909 37 16.0909091 37 16.0909091 22.3636364"></polyline>
                    <rect id="Rectangle-path" stroke="#FFFFFF" mask="url(#mask-3)" x="14" y="18.1818182" width="23" height="4.18181818"></rect>
                    <path d="M19.2272727,16.0909091 C19.2272727,14.9356818 20.1629545,14 21.3181818,14 C24.4106364,14 25.5,18.1818182 25.5,18.1818182 L21.3181818,18.1818182 C20.1629545,18.1818182 19.2272727,17.2461364 19.2272727,16.0909091 L19.2272727,16.0909091 Z" id="Shape" stroke="#FFFFFF" mask="url(#mask-3)"></path>
                    <path d="M31.7727273,16.0909091 C31.7727273,14.9356818 30.8370455,14 29.6818182,14 C26.5893636,14 25.5,18.1818182 25.5,18.1818182 L29.6818182,18.1818182 C30.8370455,18.1818182 31.7727273,17.2461364 31.7727273,16.0909091 L31.7727273,16.0909091 Z" id="Shape" stroke="#FFFFFF" mask="url(#mask-3)"></path>
                    <polyline id="Shape" stroke="#FFFFFF" mask="url(#mask-3)" points="27.5909091 18.1818182 27.5909091 37 23.4090909 37 23.4090909 18.1818182"></polyline>
                </g>
            </g>
        </g>
    </g>
</svg>