<?xml version="1.0" standalone="no"?><!DOCTYPE svg PUBLIC "-//W3C//DTD SVG 1.1//EN" "http://www.w3.org/Graphics/SVG/1.1/DTD/svg11.dtd"><svg width="100%" height="100%" viewBox="0 0 14 19" version="1.1" xmlns="http://www.w3.org/2000/svg" xmlns:xlink="http://www.w3.org/1999/xlink" xml:space="preserve" style="fill-rule:evenodd;clip-rule:evenodd;stroke-linejoin:round;stroke-miterlimit:1.41421;"><path id="lock" d="M12.685,7.514c0.364,0 0.673,0.128 0.926,0.385c0.254,0.256 0.381,0.566 0.381,0.93l0,8.508c0,0.358 -0.127,0.665 -0.381,0.922c-0.253,0.256 -0.562,0.384 -0.926,0.384l-11.129,0c-0.364,0 -0.672,-0.128 -0.926,-0.384c-0.253,-0.257 -0.38,-0.564 -0.38,-0.922l0,-8.508c0,-0.364 0.127,-0.674 0.38,-0.93c0.254,-0.257 0.562,-0.385 0.926,-0.385l1.315,0l0,-2.612c0,-1.175 0.415,-2.179 1.244,-3.011c0.829,-0.832 1.831,-1.248 3.006,-1.248c1.175,0 2.177,0.416 3.006,1.248c0.829,0.832 1.243,1.836 1.243,3.011l0,2.612l1.315,0ZM3.524,4.902l0,2.612l7.193,0l0,-2.612c0,-0.99 -0.352,-1.837 -1.055,-2.541c-0.704,-0.704 -1.551,-1.056 -2.541,-1.056c-0.99,0 -1.837,0.352 -2.541,1.056c-0.704,0.704 -1.056,1.551 -1.056,2.541ZM13.338,17.337l0,-8.508c0,-0.185 -0.064,-0.34 -0.192,-0.465c-0.128,-0.125 -0.282,-0.188 -0.461,-0.188l-11.129,0c-0.179,0 -0.332,0.063 -0.461,0.188c-0.128,0.125 -0.192,0.28 -0.192,0.465l0,8.508c0,0.179 0.064,0.333 0.192,0.461c0.129,0.128 0.282,0.192 0.461,0.192l11.129,0c0.179,0 0.333,-0.064 0.461,-0.192c0.128,-0.128 0.192,-0.282 0.192,-0.461ZM7.121,11.442c0.274,0 0.507,0.095 0.698,0.286c0.19,0.191 0.286,0.423 0.286,0.698c0,0.208 -0.061,0.398 -0.184,0.568c-0.122,0.17 -0.278,0.287 -0.469,0.353l0,1.038c0,0.095 -0.033,0.174 -0.099,0.237c-0.065,0.063 -0.143,0.094 -0.232,0.094c-0.09,0 -0.167,-0.031 -0.233,-0.094c-0.065,-0.063 -0.098,-0.142 -0.098,-0.237l0,-1.038c-0.191,-0.066 -0.348,-0.183 -0.47,-0.353c-0.122,-0.17 -0.183,-0.36 -0.183,-0.568c0,-0.275 0.095,-0.507 0.286,-0.698c0.191,-0.191 0.423,-0.286 0.698,-0.286Z" style="fill:#fff;"/></svg>