<?xml version="1.0" encoding="UTF-8" standalone="no"?>
<svg width="23px" height="15px" viewBox="0 0 23 15" version="1.1" xmlns="http://www.w3.org/2000/svg" xmlns:xlink="http://www.w3.org/1999/xlink" xmlns:sketch="http://www.bohemiancoding.com/sketch/ns">
    <!-- Generator: Sketch 3.3.3 (12072) - http://www.bohemiancoding.com/sketch -->
    <title>email copy</title>
    <desc>Created with Sketch.</desc>
    <defs></defs>
    <g id="WALLET-2-of-3" stroke="none" stroke-width="1" fill="none" fill-rule="evenodd" sketch:type="MSPage">
        <g id="Home-with-funds-Copy-2" sketch:type="MSArtboardGroup" transform="translate(-263.500000, -490.000000)" fill="#7A8C9E">
            <path d="M285.392387,490.256592 C285.606419,490.256592 285.790127,490.331502 285.943516,490.481324 C286.096906,490.631147 286.173599,490.816638 286.173599,491.037805 L286.173599,503.558613 C286.173599,503.77978 286.096906,503.965271 285.943516,504.115094 C285.790127,504.264916 285.606419,504.339826 285.392387,504.339826 L265.038047,504.339826 C264.824015,504.339826 264.640307,504.264916 264.486917,504.115094 C264.333527,503.965271 264.256834,503.77978 264.256834,503.558613 L264.256834,491.037805 C264.256834,490.816638 264.333527,490.631147 264.486917,490.481324 C264.640307,490.331502 264.824015,490.256592 265.038047,490.256592 L285.392387,490.256592 Z M284.536263,491.037805 L265.883469,491.037805 L274.648035,499.802371 C274.81926,499.959327 275.008319,500.037805 275.215217,500.037805 C275.429249,500.037805 275.61474,499.959327 275.771697,499.802371 L284.536263,491.037805 Z M285.392387,503.323179 L285.392387,491.273239 L279.367416,497.298209 L285.392387,503.323179 Z M265.038047,491.28394 L265.038047,503.312478 L271.052315,497.298209 L265.038047,491.28394 Z M265.883469,503.558613 L284.536263,503.558613 L278.821638,497.833286 L276.296073,500.358851 C275.996428,500.658496 275.632579,500.808316 275.204515,500.808316 C274.783585,500.808316 274.419737,500.658496 274.112957,500.358851 L271.598094,497.833286 L265.883469,503.558613 Z" id="email-copy" sketch:type="MSShapeGroup"></path>
        </g>
    </g>
</svg>