<?xml version="1.0" standalone="no"?><!DOCTYPE svg PUBLIC "-//W3C//DTD SVG 1.1//EN" "http://www.w3.org/Graphics/SVG/1.1/DTD/svg11.dtd"><svg width="100%" height="100%" viewBox="0 0 19 18" version="1.1" xmlns="http://www.w3.org/2000/svg" xmlns:xlink="http://www.w3.org/1999/xlink" xml:space="preserve" style="fill-rule:evenodd;clip-rule:evenodd;stroke-linejoin:round;stroke-miterlimit:1.41421;"><path id="flask" d="M13.358,7.26c0.205,0.205 0.422,0.43 0.651,0.677c0.228,0.246 0.562,0.615 1.002,1.107c0.439,0.492 0.843,0.99 1.213,1.494c0.369,0.504 0.735,1.042 1.098,1.613c0.364,0.571 0.651,1.144 0.862,1.718c0.211,0.574 0.316,1.093 0.316,1.556c0,0.709 -0.252,1.315 -0.756,1.819c-0.504,0.504 -1.11,0.756 -1.819,0.756l-12.85,0c-0.709,0 -1.315,-0.252 -1.819,-0.756c-0.504,-0.504 -0.756,-1.11 -0.756,-1.819c0,-0.463 0.105,-0.982 0.316,-1.556c0.211,-0.574 0.498,-1.147 0.862,-1.718c0.363,-0.571 0.729,-1.109 1.098,-1.613c0.37,-0.504 0.774,-1.002 1.213,-1.494c0.44,-0.492 0.774,-0.861 1.002,-1.107c0.229,-0.247 0.446,-0.472 0.651,-0.677l0,-5.335l-0.967,0c-0.088,0 -0.163,-0.031 -0.224,-0.092c-0.062,-0.062 -0.093,-0.137 -0.093,-0.225l0,-1.292c0,-0.087 0.031,-0.162 0.093,-0.224c0.061,-0.061 0.136,-0.092 0.224,-0.092l9.65,0c0.088,0 0.163,0.031 0.224,0.092c0.062,0.062 0.093,0.137 0.093,0.224l0,1.292c0,0.088 -0.031,0.163 -0.093,0.225c-0.061,0.061 -0.136,0.092 -0.224,0.092l-0.967,0l0,5.335ZM5,1.283l9,0l0,-0.641l-9,0l0,0.641ZM12.717,1.925l-6.434,0l0,2.215c0.422,-0.129 0.822,-0.214 1.2,-0.255c0.378,-0.041 0.685,-0.047 0.923,-0.018c0.237,0.029 0.457,0.081 0.659,0.154c0.202,0.073 0.343,0.135 0.422,0.185c0.079,0.049 0.145,0.098 0.198,0.145c0.052,0.041 0.121,0.086 0.206,0.136c0.085,0.05 0.233,0.114 0.444,0.193c0.211,0.079 0.428,0.131 0.65,0.154c0.223,0.023 0.493,0.001 0.809,-0.066c0.316,-0.067 0.624,-0.192 0.923,-0.373l0,-2.47ZM15.925,17.358c0.533,0 0.989,-0.189 1.367,-0.566c0.377,-0.378 0.566,-0.834 0.566,-1.367c0,-0.528 -0.17,-1.152 -0.509,-1.872c-0.34,-0.721 -0.734,-1.392 -1.182,-2.013c-0.449,-0.621 -0.939,-1.245 -1.473,-1.872c-0.533,-0.627 -0.947,-1.094 -1.243,-1.402c-0.296,-0.308 -0.509,-0.52 -0.638,-0.637c-0.064,-0.065 -0.096,-0.144 -0.096,-0.237l0,-2.268c-0.475,0.229 -0.964,0.343 -1.468,0.343c-0.346,0 -0.683,-0.054 -1.011,-0.163c-0.328,-0.108 -0.559,-0.203 -0.694,-0.285c-0.135,-0.082 -0.223,-0.144 -0.264,-0.185c-0.047,-0.035 -0.088,-0.064 -0.123,-0.088c-0.035,-0.023 -0.145,-0.067 -0.329,-0.132c-0.185,-0.064 -0.378,-0.104 -0.58,-0.118c-0.203,-0.015 -0.481,0 -0.835,0.044c-0.355,0.043 -0.731,0.133 -1.13,0.268l0,2.584c0,0.093 -0.032,0.172 -0.096,0.237c-0.129,0.117 -0.342,0.329 -0.638,0.637c-0.296,0.308 -0.71,0.775 -1.243,1.402c-0.534,0.627 -1.024,1.251 -1.473,1.872c-0.448,0.621 -0.842,1.292 -1.182,2.013c-0.339,0.72 -0.509,1.344 -0.509,1.872c0,0.533 0.189,0.989 0.566,1.367c0.378,0.377 0.834,0.566 1.367,0.566l12.85,0ZM9.825,6.425c0.533,0 0.987,0.189 1.362,0.567c0.376,0.378 0.563,0.833 0.563,1.366c0,0.534 -0.187,0.988 -0.563,1.363c-0.375,0.375 -0.829,0.562 -1.362,0.562c-0.533,0 -0.989,-0.187 -1.367,-0.562c-0.377,-0.375 -0.566,-0.829 -0.566,-1.363c0,-0.533 0.189,-0.988 0.566,-1.366c0.378,-0.378 0.834,-0.567 1.367,-0.567ZM9.825,9.642c0.352,0 0.654,-0.125 0.905,-0.374c0.252,-0.249 0.378,-0.552 0.378,-0.91c0,-0.357 -0.126,-0.662 -0.378,-0.914c-0.251,-0.252 -0.553,-0.378 -0.905,-0.378c-0.357,0 -0.662,0.126 -0.914,0.378c-0.252,0.252 -0.378,0.557 -0.378,0.914c0,0.358 0.126,0.661 0.378,0.91c0.252,0.249 0.557,0.374 0.914,0.374ZM7.892,10.925c0.357,0 0.66,0.126 0.909,0.378c0.249,0.252 0.374,0.556 0.374,0.914c0,0.351 -0.125,0.653 -0.374,0.905c-0.249,0.252 -0.552,0.378 -0.909,0.378c-0.358,0 -0.661,-0.126 -0.91,-0.378c-0.249,-0.252 -0.374,-0.554 -0.374,-0.905c0,-0.358 0.125,-0.662 0.374,-0.914c0.249,-0.252 0.552,-0.378 0.91,-0.378ZM7.892,12.858c0.181,0 0.334,-0.063 0.457,-0.189c0.123,-0.126 0.184,-0.276 0.184,-0.452c0,-0.182 -0.061,-0.336 -0.184,-0.462c-0.123,-0.126 -0.276,-0.189 -0.457,-0.189c-0.176,0 -0.327,0.063 -0.453,0.189c-0.126,0.126 -0.189,0.28 -0.189,0.462c0,0.176 0.063,0.326 0.189,0.452c0.126,0.126 0.277,0.189 0.453,0.189ZM10.783,13.5c0.27,0 0.498,0.094 0.686,0.281c0.187,0.188 0.281,0.416 0.281,0.686c0,0.263 -0.094,0.489 -0.281,0.677c-0.188,0.187 -0.416,0.281 -0.686,0.281c-0.263,0 -0.489,-0.094 -0.677,-0.281c-0.187,-0.188 -0.281,-0.414 -0.281,-0.677c0,-0.27 0.094,-0.498 0.281,-0.686c0.188,-0.187 0.414,-0.281 0.677,-0.281ZM10.783,14.783c0.088,0 0.164,-0.031 0.229,-0.092c0.064,-0.062 0.096,-0.136 0.096,-0.224c0,-0.094 -0.032,-0.172 -0.096,-0.233c-0.065,-0.062 -0.141,-0.092 -0.229,-0.092c-0.088,0 -0.162,0.03 -0.224,0.092c-0.061,0.061 -0.092,0.139 -0.092,0.233c0,0.088 0.031,0.162 0.092,0.224c0.062,0.061 0.136,0.092 0.224,0.092Z" style="fill:#fff;"/></svg>