<?xml version="1.0" encoding="UTF-8" standalone="no"?>
<svg width="51px" height="51px" viewBox="0 0 51 51" version="1.1" xmlns="http://www.w3.org/2000/svg" xmlns:xlink="http://www.w3.org/1999/xlink">
    <!-- Generator: Sketch 39.1 (31720) - http://www.bohemiancoding.com/sketch -->
    <title>item-ico-backup</title>
    <desc>Created with Sketch.</desc>
    <defs>
        <path d="M25.1597034,50.388592 C39.0550239,50.388592 50.3194068,39.1087215 50.3194068,25.194296 C50.3194068,11.2798705 39.0550239,0 25.1597034,0 C11.2643829,0 0,11.2798705 0,25.194296 C0,39.1087215 11.2643829,50.388592 25.1597034,50.388592 Z" id="path-1"></path>
    </defs>
    <g id="Symbols" stroke="none" stroke-width="1" fill="none" fill-rule="evenodd">
        <g id="Wallet/Icon/Backup" transform="translate(-1.000000, -1.000000)">
            <g id="item-ico-backup" transform="translate(1.000000, 1.000000)">
                <mask id="mask-2" fill="white">
                    <use xlink:href="#path-1"></use>
                </mask>
                <use id="Mask" fill="#647CE8" xlink:href="#path-1"></use>
                <g id="arrows-24px-outline-4_restore" mask="url(#mask-2)">
                    <g transform="translate(13.000000, 14.000000)" id="Group">
                        <g>
                            <polyline id="Shape" stroke="#FFFFFF" points="12 6 12 12 16.8 16.8"></polyline>
                            <path d="M0,12 C0,18.6 5.4,24 12,24 C18.6,24 24,18.6 24,12 C24,5.4 18.6,0 12,0 C7.32,0 3.24,2.64 1.32,6.6" id="Shape" stroke="#FFFFFF"></path>
                            <polyline id="Shape" stroke="#FFFFFF" points="0.3168 0.684 1.32 6.6 7.236 5.5968"></polyline>
                        </g>
                    </g>
                </g>
            </g>
        </g>
    </g>
</svg>