<?xml version="1.0" encoding="UTF-8" standalone="no"?>
<svg width="61px" height="61px" viewBox="0 0 61 61" version="1.1" xmlns="http://www.w3.org/2000/svg" xmlns:xlink="http://www.w3.org/1999/xlink" xmlns:sketch="http://www.bohemiancoding.com/sketch/ns">
    <!-- Generator: Sketch 3.4.2 (15855) - http://www.bohemiancoding.com/sketch -->
    <title>Oval 145 Copy 5 + downloadbox</title>
    <desc>Created with Sketch.</desc>
    <defs>
        <ellipse id="path-1" cx="26.25" cy="26.25" rx="26.25" ry="26.25"></ellipse>
    </defs>
    <g id="Page-1" stroke="none" stroke-width="1" fill="none" fill-rule="evenodd" sketch:type="MSPage">
        <g id="Wallet-1of1" sketch:type="MSArtboardGroup" transform="translate(-23.000000, -437.000000)">
            <g id="Group-Copy-2" sketch:type="MSLayerGroup" transform="translate(0.000000, 409.000000)">
                <g id="Oval-145-Copy-5-+-downloadbox" transform="translate(27.000000, 32.000000)">
                    <g id="Oval-145-Copy-5" stroke="#1ABC9C">
                        <use stroke-width="1.09090909" fill="#FFFFFF" fill-rule="evenodd" sketch:type="MSShapeGroup" xlink:href="#path-1"></use>
                        <use stroke-opacity="0.15" stroke-width="4" fill="none" xlink:href="#path-1"></use>
                    </g>
                    <path d="M38.8657227,18.480957 C38.9552413,18.5704757 39,18.6762689 39,18.7983398 L39,35.3144531 C39,35.566733 38.9125172,35.7803539 38.7375488,35.9553223 C38.5625805,36.1302906 38.3530286,36.2177734 38.1088867,36.2177734 L14.8911133,36.2177734 C14.6469714,36.2177734 14.4374195,36.1302906 14.2624512,35.9553223 C14.0874828,35.7803539 14,35.566733 14,35.3144531 L14,18.7983398 C14,18.6762689 14.0447587,18.5704757 14.1342773,18.480957 L17.6987305,14.9165039 C17.7882491,14.8269852 17.8940424,14.7822266 18.0161133,14.7822266 L34.9838867,14.7822266 C35.1059576,14.7822266 35.2117509,14.8269852 35.3012695,14.9165039 L38.8657227,18.480957 Z M18.1992188,15.6733398 L15.5258789,18.3588867 L37.4741211,18.3588867 L34.8007812,15.6733398 L18.1992188,15.6733398 Z M38.1088867,35.3144531 L38.1088867,19.25 L14.8911133,19.25 L14.8911133,35.3144531 L38.1088867,35.3144531 Z M26.1826172,32.5068359 L22.6181641,28.9423828 C22.5286454,28.8528641 22.4838867,28.7470709 22.4838867,28.625 C22.4838867,28.5029291 22.5266109,28.3971359 22.6120605,28.3076172 C22.6975102,28.2180985 22.8012689,28.1733398 22.9233398,28.1733398 C23.0616869,28.1733398 23.1674801,28.2180985 23.2407227,28.3076172 L26.0483398,31.1152344 L26.0483398,22.375 C26.0483398,22.2529291 26.0930985,22.1471359 26.1826172,22.0576172 C26.2721359,21.9680985 26.3779291,21.9233398 26.5,21.9233398 C26.6220709,21.9233398 26.7278641,21.9680985 26.8173828,22.0576172 C26.9069015,22.1471359 26.9516602,22.2529291 26.9516602,22.375 L26.9516602,31.1152344 L29.7592773,28.3076172 C29.8325199,28.2180985 29.9383131,28.1733398 30.0766602,28.1733398 C30.1987311,28.1733398 30.3024898,28.2180985 30.3879395,28.3076172 C30.4733891,28.3971359 30.5161133,28.5029291 30.5161133,28.625 C30.5161133,28.7470709 30.4713546,28.8528641 30.3818359,28.9423828 L26.8173828,32.5068359 C26.7278641,32.5963546 26.6220709,32.6411133 26.5,32.6411133 C26.3779291,32.6411133 26.2721359,32.5963546 26.1826172,32.5068359 L26.1826172,32.5068359 Z" id="downloadbox" fill="#1ABC9C" sketch:type="MSShapeGroup"></path>
                </g>
            </g>
        </g>
    </g>
</svg>