<?xml version="1.0" encoding="UTF-8" standalone="no"?>
<svg width="13px" height="19px" viewBox="0 0 13 19" version="1.1" xmlns="http://www.w3.org/2000/svg" xmlns:xlink="http://www.w3.org/1999/xlink" xmlns:sketch="http://www.bohemiancoding.com/sketch/ns">
    <!-- Generator: Sketch 3.3.3 (12072) - http://www.bohemiancoding.com/sketch -->
    <title>Group</title>
    <desc>Created with Sketch.</desc>
    <defs></defs>
    <g id="WALLET-2-of-3" stroke="none" stroke-width="1" fill="none" fill-rule="evenodd" sketch:type="MSPage">
        <g id="Home-with-funds-Copy-2" sketch:type="MSArtboardGroup" transform="translate(-422.500000, -486.000000)" stroke="#7A8C9E" stroke-width="0.72">
            <g id="Group" sketch:type="MSLayerGroup" transform="translate(423.200478, 486.643311)">
                <rect id="Rectangle-211" sketch:type="MSShapeGroup" x="1.52347647" y="3.06382979" width="8.18192146" height="4.21276596" rx="0.45"></rect>
                <rect id="Rectangle-211-Copy" sketch:type="MSShapeGroup" x="1.52347647" y="8.42553191" width="3.71905521" height="1.91489362" rx="0.45"></rect>
                <rect id="Rectangle-211-Copy-2" sketch:type="MSShapeGroup" x="5.98634272" y="8.42553191" width="3.71905521" height="1.91489362" rx="0.45"></rect>
                <path d="M0.0509390963,1.39143538 C0.0340028166,0.641805352 0.620430663,0.0341101408 1.36676058,0.0341101408 L9.83652646,0.0341101408 C10.5801709,0.0341101408 11.1830138,0.632240836 11.1830138,1.38260656 L11.1830138,11.1890193 C11.1830138,11.6897048 11.0143056,12.4532657 10.7966024,12.9148144 L8.87244571,16.9941839 C8.65903659,17.4466287 8.08116882,17.8134077 7.5844497,17.8134077 L4.00108536,17.8134077 C3.50315392,17.8134077 2.9236038,17.4414018 2.71441395,16.9989845 L0.672687401,12.6809204 C0.460009838,12.2311269 0.278706148,11.4728125 0.267067762,10.9576767 L0.0509390963,1.39143538 Z" id="Path-394" sketch:type="MSShapeGroup"></path>
            </g>
        </g>
    </g>
</svg>