<?xml version="1.0" encoding="UTF-8" standalone="no"?>
<svg width="51px" height="51px" viewBox="0 0 51 51" version="1.1" xmlns="http://www.w3.org/2000/svg" xmlns:xlink="http://www.w3.org/1999/xlink">
    <!-- Generator: Sketch 39.1 (31720) - http://www.bohemiancoding.com/sketch -->
    <title>item-ico-bitcoin</title>
    <desc>Created with Sketch.</desc>
    <defs>
        <linearGradient x1="63.5606697%" y1="66.5486774%" x2="29.0167968%" y2="6.87818453%" id="linearGradient-1">
            <stop stop-color="#FFA24B" offset="0%"></stop>
            <stop stop-color="#F7891C" offset="100%"></stop>
        </linearGradient>
        <path d="M25.1597034,50.388592 C39.0550239,50.388592 50.3194068,39.1087215 50.3194068,25.194296 C50.3194068,11.2798705 39.0550239,0 25.1597034,0 C11.2643829,0 0,11.2798705 0,25.194296 C0,39.1087215 11.2643829,50.388592 25.1597034,50.388592 Z" id="path-2"></path>
    </defs>
    <g id="Symbols" stroke="none" stroke-width="1" fill="none" fill-rule="evenodd">
        <g id="Wallet/Icon/Bitcoin" transform="translate(-1.000000, -1.000000)">
            <g id="item-ico-bitcoin" transform="translate(1.000000, 1.000000)">
                <mask id="mask-3" fill="white">
                    <use xlink:href="#path-2"></use>
                </mask>
                <use id="Mask" fill="url(#linearGradient-1)" xlink:href="#path-2"></use>
                <path d="M32.5251708,19.1369572 C31.8948853,16.0886456 29.257137,15.2921976 26.0055297,15.2593441 L25.5453174,11 L23.0555529,11.2090294 L23.5134657,15.373126 C22.8550964,15.4317519 22.1899109,15.4927249 21.5389325,15.5728157 L21.0810197,11.4087191 L18.5639908,11.6271364 L19.0242031,15.8864805 C18.491562,15.9338279 17.9619595,16.0121421 17.4293184,16.0594894 L17.4293184,16.0594894 L14,16.3519349 L14.3001563,19.1057521 C14.3001563,19.1057521 16.1464976,18.9101859 16.097471,18.9670835 C17.1082244,18.8911646 17.5047081,19.4669358 17.6381561,19.9652087 L18.1721961,24.815384 C18.2433956,24.8228812 18.3251888,24.7947176 18.4359709,24.8286017 C18.337507,24.8304924 18.2829782,24.8492682 18.1845144,24.8511589 L18.9620463,31.6263154 C18.9496461,31.9667227 18.8043732,32.4969407 18.1187395,32.5649545 C18.1558585,32.5841865 16.2873443,32.7153579 16.2873443,32.7153579 L16.1570191,35.8575 L19.3937622,35.5593341 C19.9976027,35.5194839 20.5915887,35.4510138 21.1638124,35.4300534 L21.636343,39.7251724 L24.1261075,39.516143 L23.6658952,35.2567989 C24.3681996,35.2150579 25.0290326,35.163587 25.6601376,35.1143489 L26.1104953,39.3450731 L28.6002598,39.1360437 L28.1277292,34.8409248 C32.2914614,34.2235708 35.0997752,32.8804369 34.9972849,28.7300142 C34.9241947,25.4178154 33.2949822,24.0740188 30.8224629,23.6688612 C32.2236222,22.7782364 32.9706,21.3605564 32.5251708,19.1369572 L32.5251708,19.1369572 Z M30.0403391,28.6601004 C30.3997054,31.8737265 25.0597443,31.9757118 23.3838054,32.1126037 L22.7467022,26.4095523 C24.4523691,26.2704275 29.6589641,25.2939871 30.0403391,28.6601004 L30.0403391,28.6601004 Z M22.4636273,23.7939125 L21.9147231,18.6127177 C23.3026612,18.5029629 27.6736684,17.6461697 28.0060987,20.6929985 C28.3307274,23.6064579 23.8812935,23.6819248 22.4636273,23.7939125 Z" id="Bitcoin_Symbol" fill="#FFFFFF" mask="url(#mask-3)"></path>
            </g>
        </g>
    </g>
</svg>