<?xml version="1.0" encoding="UTF-8" standalone="no"?>
<svg width="150px" height="74px" viewBox="0 0 150 74" version="1.1" xmlns="http://www.w3.org/2000/svg" xmlns:xlink="http://www.w3.org/1999/xlink" xmlns:sketch="http://www.bohemiancoding.com/sketch/ns">
    <!-- Generator: Sketch 3.2.2 (9983) - http://www.bohemiancoding.com/sketch -->
    <title>download 3</title>
    <desc>Created with Sketch.</desc>
    <defs></defs>
    <g id="Login" stroke="none" stroke-width="1" fill="none" fill-rule="evenodd" sketch:type="MSPage">
        <g id="Tour-1" sketch:type="MSArtboardGroup" transform="translate(-244.000000, -476.000000)" fill="#2C3E50">
            <g id="download-3" sketch:type="MSLayerGroup" transform="translate(244.000000, 476.000000)">
                <path d="M148.9,9.77199806 C148.88,9.53281478 148.9,9.31356344 148.92,9.09431211 C148.94,8.87506077 148.98,8.65580943 149.02,8.41662615 L149.98,3.55323286 C149.7,3.43364123 149.36,3.33398153 148.98,3.29411765 C148.6,3.25425377 148.26,3.23432183 147.98,3.25425377 C147.02,3.31404959 146.2,3.51336898 145.5,3.85221196 C144.8,4.21098687 144.22,4.64948955 143.78,5.18765192 C143.34,5.72581429 143,6.32377248 142.8,6.98152649 C142.6,7.63928051 142.52,8.31696646 142.54,8.99465241 C142.56,9.41322314 142.64,9.79193 142.76,10.130773 C142.88,10.4696159 143.04,10.768595 143.28,11.0077783 C143.5,11.2469616 143.78,11.4263491 144.12,11.5658726 C144.46,11.6854643 144.86,11.7452601 145.32,11.7253281 C145.88,11.7053962 146.36,11.5658726 146.74,11.3466213 C147.12,11.12737 147.42,10.9081186 147.64,10.6888673 C147.68,10.8483228 147.72,10.9878464 147.78,11.12737 C147.84,11.2668935 147.9,11.3864852 147.96,11.4861449 L149.24,11.2270297 C149.12,10.9479825 149.04,10.7087992 148.98,10.4696159 C148.96,10.2304327 148.92,10.0111813 148.9,9.77199806 L148.9,9.77199806 Z M147.58,8.37676228 C147.54,8.57608167 147.52,8.75546913 147.5,8.95478853 C147.48,9.15410792 147.48,9.33349538 147.48,9.4929509 C147.26,9.75206612 147,9.97131745 146.7,10.1706368 C146.4,10.3699562 146.02,10.4895479 145.58,10.5094798 C145.28,10.5294118 145.04,10.4895479 144.86,10.3898882 C144.66,10.2902285 144.52,10.1706368 144.4,9.99124939 C144.28,9.81186193 144.2,9.63247448 144.14,9.41322314 C144.08,9.1939718 144.06,8.97472047 144.04,8.77540107 C144.02,8.2372387 144.08,7.71900826 144.24,7.20077783 C144.4,6.70247934 144.64,6.24404473 144.96,5.86533787 C145.28,5.46669908 145.68,5.14778804 146.16,4.90860476 C146.64,4.64948955 147.16,4.50996597 147.78,4.49003403 L148.1,4.49003403 C148.22,4.49003403 148.3,4.50996597 148.36,4.52989791 L147.58,8.37676228 L147.58,8.37676228 Z" id="Shape" sketch:type="MSShapeGroup"></path>
                <path d="M139.1,12.0841031 C138.3,12.1239669 137.72,11.9844434 137.34,11.6655323 C136.96,11.3466213 136.74,10.8682547 136.7,10.2304327 C136.68,9.81186193 136.72,9.27369956 136.84,8.61594555 L138.18,1.71949441 L139.7,1.40058337 L139.22,3.89207584 L142.02,3.75255226 L141.78,4.96840058 L138.98,5.10792416 L138.3,8.67574137 C138.2,9.15410792 138.16,9.57267866 138.18,9.93145357 C138.2,10.2702965 138.3,10.5094798 138.5,10.6490034 C138.7,10.788527 139.02,10.8483228 139.46,10.8283909 C139.76,10.8084589 140.06,10.7486631 140.36,10.6290715 C140.64,10.5094798 140.88,10.4098201 141.02,10.3300924 L141.2,11.5260088 C141.04,11.6256684 140.78,11.7452601 140.4,11.8648517 C140.02,11.9645114 139.58,12.0442392 139.1,12.0841031 L139.1,12.0841031 Z" id="Shape" sketch:type="MSShapeGroup"></path>
                <path d="M135.2,5.14778804 C135.1,4.90860476 134.94,4.70928537 134.74,4.52989791 C134.54,4.35051045 134.28,4.23091881 133.96,4.13125912 C133.64,4.03159942 133.26,4.01166748 132.84,4.03159942 C132.1,4.0714633 131.44,4.25085075 130.86,4.58969373 C130.28,4.9285367 129.8,5.34710744 129.42,5.88526981 C129.04,6.42343218 128.76,7.02139037 128.56,7.69907632 C128.38,8.37676228 128.3,9.07438017 128.34,9.77199806 C128.36,10.1507049 128.44,10.5294118 128.58,10.8682547 C128.72,11.2070977 128.94,11.5060768 129.22,11.7452601 C129.5,11.9844434 129.84,12.1837628 130.24,12.3033544 C130.64,12.422946 131.1,12.4827419 131.64,12.442878 C132.28,12.4030141 132.82,12.3232863 133.28,12.1638308 C133.74,12.0043753 134.08,11.8648517 134.28,11.7452601 L134.1,10.5493437 C134.04,10.6091395 133.94,10.6689353 133.78,10.7287312 C133.64,10.788527 133.46,10.8483228 133.26,10.9280506 C133.06,10.9878464 132.86,11.0476422 132.66,11.107438 C132.44,11.1473019 132.24,11.1871658 132.04,11.1871658 C131.58,11.2070977 131.22,11.1871658 130.94,11.107438 C130.66,11.0277103 130.44,10.9081186 130.26,10.768595 C130.1,10.6091395 129.98,10.449684 129.9,10.2304327 C129.84,10.0311133 129.8,9.81186193 129.78,9.57267866 L129.78,9.45308702 L129.78,9.25376762 C130.16,9.21390374 130.58,9.17403986 131.02,9.11424404 C131.46,9.07438017 131.88,8.99465241 132.3,8.89499271 C132.72,8.79533301 133.12,8.67574137 133.52,8.53621779 C133.9,8.39669421 134.24,8.19737482 134.52,7.95819154 C134.8,7.71900826 135.02,7.42002917 135.18,7.08118619 C135.34,6.74234322 135.42,6.32377248 135.38,5.84540593 C135.38,5.62615459 135.32,5.38697132 135.2,5.14778804 L135.2,5.14778804 Z M133.7,7.00145843 C133.5,7.24064171 133.22,7.43996111 132.86,7.59941663 C132.5,7.75887214 132.06,7.87846378 131.56,7.95819154 C131.06,8.0379193 130.5,8.11764706 129.9,8.15751094 C129.98,7.77880408 130.1,7.42002917 130.26,7.08118619 C130.42,6.74234322 130.62,6.44336412 130.86,6.18424891 C131.1,5.92513369 131.38,5.70588235 131.68,5.5264949 C132,5.34710744 132.34,5.26737968 132.7,5.24744774 C132.94,5.2275158 133.12,5.24744774 133.28,5.30724356 C133.44,5.34710744 133.56,5.4268352 133.66,5.50656296 C133.76,5.58629071 133.82,5.68595041 133.86,5.78561011 C133.9,5.88526981 133.92,5.98492951 133.94,6.06465727 C133.98,6.44336412 133.88,6.74234322 133.7,7.00145843 L133.7,7.00145843 Z" id="Shape" sketch:type="MSShapeGroup"></path>
                <path d="M126.74,6.04472533 C126.62,5.70588235 126.42,5.40690326 126.2,5.16771998 C125.96,4.9285367 125.68,4.74914925 125.32,4.62955761 C124.98,4.50996597 124.56,4.45017015 124.12,4.47010209 C123.76,4.49003403 123.42,4.54982985 123.12,4.66942149 C122.8,4.78901313 122.54,4.9285367 122.3,5.08799222 L123.12,0.802625182 L121.6,1.12153622 L119.4,12.5824016 C119.54,12.6621293 119.7,12.7219251 119.9,12.761789 C120.08,12.8215848 120.28,12.8614487 120.48,12.8813807 C120.68,12.9212445 120.88,12.9212445 121.06,12.9411765 L121.58,12.9411765 C122.54,12.8813807 123.36,12.7019932 124.06,12.3432183 C124.76,12.0043753 125.32,11.5459407 125.78,11.0077783 C126.22,10.4696159 126.54,9.87165775 126.74,9.1939718 C126.94,8.51628585 127.02,7.8385999 126.98,7.14098201 C126.94,6.74234322 126.86,6.3835683 126.74,6.04472533 L126.74,6.04472533 Z M125.3,8.93485659 C125.14,9.43315508 124.9,9.89158969 124.58,10.2902285 C124.26,10.6888673 123.86,11.0077783 123.4,11.2668935 C122.92,11.5260088 122.4,11.6655323 121.78,11.7053962 L121.36,11.7053962 C121.22,11.6854643 121.1,11.6854643 121,11.6655323 L122,6.42343218 C122.26,6.22411279 122.54,6.04472533 122.86,5.92513369 C123.16,5.80554205 123.48,5.72581429 123.8,5.70588235 C124.12,5.68595041 124.38,5.72581429 124.6,5.80554205 C124.82,5.88526981 124.98,6.00486145 125.12,6.16431697 C125.24,6.32377248 125.34,6.50315994 125.4,6.72241128 C125.46,6.94166262 125.5,7.16091395 125.5,7.38016529 C125.52,7.91832766 125.46,8.43655809 125.3,8.93485659 L125.3,8.93485659 Z" id="Shape" sketch:type="MSShapeGroup"></path>
                <path d="M146.92,15.7914439 C145.86,15.9110355 144.74,16.1502188 143.54,16.5289256 C143.16,16.6485173 142.82,16.8877005 142.5,17.2066116 C142.18,17.5454545 141.92,17.8045698 141.72,18.0238211 C141.52,18.2430724 141.32,18.6217793 141.1,19.1798736 C140.88,19.7379679 140.72,20.1565386 140.62,20.4754497 C140.52,20.7744288 140.36,21.352455 140.14,22.1895965 C139.9,23.026738 139.74,23.66456 139.6,24.1030627 C138.66,27.2722411 137.16,30.4812834 135.12,33.7700535 C133.08,37.0588235 131.3,38.7729703 129.78,38.9324259 C128.98,39.0121536 128.5,38.3543996 128.34,36.9193 C128.04,34.2284881 128.6,30.8400583 129.96,26.7340788 C131.34,22.6280992 132.8,19.7379679 134.38,18.043753 C134.6,17.7647059 134.72,17.5454545 134.7,17.3660671 C134.68,17.2066116 134.58,17.1268838 134.42,17.1468158 C132.18,17.385999 130.44,17.8444336 129.2,18.5420515 C127.96,19.2197375 126.86,20.5751094 125.84,22.6081672 C125.06,24.1827905 124.4,26.1361206 123.82,28.5080214 C120.98,35.3048128 118.4,38.8327662 116.08,39.0719494 C115.32,39.1516772 114.88,38.6533787 114.76,37.557122 C114.54,35.4642684 115.18,31.9961108 116.72,27.1725814 C118.26,22.349052 119.66,19.2994652 120.94,18.0238211 L120.3,18.0836169 L117.12,18.3626641 C116.28,18.4623238 115.4,18.9008264 114.5,19.718036 C113.6,20.5352455 112.98,21.4521147 112.62,22.4686437 C112.1,21.1730676 111.2,20.2761303 109.96,19.7977637 C108.7,19.3193972 107.4,19.1400097 106.06,19.2994652 C103.18,19.6183763 100.66,20.9538162 98.46,23.345649 C96.28,25.7175498 94.7,28.5080214 93.74,31.6572679 C93.72,31.7170637 93.7,31.7768595 93.68,31.8366553 C93.54,32.1555664 93.36,32.5143413 93.2,32.8930481 C92.12,35.245017 91.28,36.9193 90.66,37.9158969 C89.52,39.7297035 88.14,41.4438503 86.5,43.0184735 C84.86,44.5930967 83.16,45.490034 81.42,45.6694215 L80.92,45.7292173 C83.48,43.5765678 85.58,40.7263004 87.24,37.1385513 C88.9,33.5508021 89.56,30.1823043 89.22,26.973262 C88.8,23.1064657 87.18,21.3325231 84.34,21.6315022 C81.34,21.9504132 78.14,24.9402042 74.78,30.5610112 C76.44,26.1361206 77.84,23.4253768 78.98,22.4686437 L77.08,22.6679631 C74.58,22.9270783 72.88,23.6246962 71.98,24.7408848 C71.54,25.338843 70.9,26.993194 70.12,29.7238697 C69.84,30.7005348 69.46,32.1356344 68.96,34.0092368 C67.46,37.4375304 65.68,39.2513369 63.62,39.4705882 C62.44,39.5901799 61.48,39.2513369 60.74,38.4341274 C61.38,36.1020904 61.6,33.9494409 61.38,31.9163831 C60.8,26.6144871 58,24.2425863 52.96,24.7807487 C49.96,25.0996597 47.34,26.3952358 45.12,28.6874088 C43.78,30.0627127 42.68,31.5576082 41.84,33.1720953 C41.84,33.1521633 41.86,33.1322314 41.86,33.1122995 C39.82,36.9193 36.3,43.5367039 31.88,47.3237725 C27.46,51.110841 23.1,53.2435586 18.82,53.7019932 C11.96,54.439475 8.12,51.0709772 7.32,43.5964998 C6.8,38.7729703 7.54,33.8697132 9.56,28.9265921 C11.58,23.9635391 14.48,19.7977637 18.26,16.4292659 C22.04,13.0607681 26.1,11.12737 30.42,10.6490034 C33.68,10.2902285 35.44,11.3466213 35.7,13.7783179 C35.88,15.3728731 35.32,16.8079728 34.04,18.1035489 C32.76,19.379193 31.3,20.1166748 29.66,20.2960622 C29.06,20.355858 28.52,20.3359261 28.04,20.2163345 C27.6,20.9936801 27.42,21.691298 27.5,22.3091881 C27.56,22.9470102 27.92,23.4253768 28.56,23.7642197 C29.2,24.1030627 29.98,24.2226544 30.92,24.1229947 C32.9,23.9037433 34.76,23.1064657 36.48,21.7311619 C38.2,20.355858 39.3,18.7812348 39.78,16.9674283 C40.02,16.0106952 40.1,15.1536218 40.02,14.3962081 C39.8,12.3432183 38.58,10.7486631 36.36,9.65240642 C34.14,8.55614973 31.08,8.21730676 27.2,8.63587749 C23.3,9.05444823 19.48,10.5294118 15.7,13.0607681 C11.92,15.5921245 8.88,18.6217793 6.58,22.1696646 C4.26,25.7175498 2.54,29.4647545 1.38,33.4312105 C0.22,37.3976665 -0.16,41.1249392 0.22,44.6130287 C1.22,53.8215848 6.68,57.8877005 16.64,56.8113758 C20.92,56.3529412 25.02,55.077297 28.94,52.9645114 C32.86,50.8716578 36.04,48.2605737 38.44,45.1910549 C38.82,44.6927564 39.16,44.2143899 39.5,43.7559553 C39.52,44.1147302 39.54,44.4535732 39.58,44.8123481 C39.86,47.4433641 40.74,49.3169665 42.22,50.453087 C43.7,51.5892076 45.48,52.0476422 47.6,51.8084589 C50.9,51.449684 53.5,50.2936315 55.42,48.3602333 C57.34,46.4268352 58.88,43.855615 60.08,40.7263004 C61.18,41.4239183 62.44,41.6830335 63.86,41.523578 C65.08,41.3840544 66.32,40.7661643 67.6,39.6300438 C66.98,42.1614001 66.28,45.0913952 65.48,48.459893 C63.16,58.2464754 61.54,64.006806 60.6,65.7209528 L63.64,65.4020418 C64.48,65.3023821 65.18,65.1229947 65.7,64.8638794 C66.22,64.5848323 66.68,64.0666018 67.04,63.2892562 C67.4,62.5119105 67.88,60.8376276 68.46,58.2664074 L70.82,46.8653379 C71.56,48.8784638 73.94,49.6558094 78.02,49.2173068 C82.08,48.7788041 85.46,47.1244531 88.14,44.2343218 C89.8,42.4603792 91.32,40.2877978 92.74,37.7564414 C92.7,38.7729703 92.74,39.7894993 92.84,40.8060282 C93.26,44.6728245 94.88,46.4467671 97.72,46.147788 C101.82,45.7092854 105.84,40.9854157 109.74,31.9761789 C109.12,34.587263 108.96,37.1983471 109.24,39.8094312 C109.62,43.2975207 110.94,44.9120078 113.24,44.6728245 C116.18,44.3539135 119.38,40.9256198 122.84,34.4078755 C122.66,35.9625668 122.62,37.2581429 122.72,38.2746719 C122.88,40.0286825 123.36,41.3043267 124.14,42.1414682 C124.92,42.9786096 125.86,43.3174526 126.98,43.197861 C128.1,43.0782693 129.06,42.839086 129.86,42.5002431 C130.66,42.1614001 131.72,41.2843947 133.04,39.889159 C134.36,38.4939232 135.88,36.4409334 137.62,33.7501215 L135.04,43.7160914 C133.38,50.0544482 130.82,53.422946 127.4,53.781721 C126.52,53.8813807 125.76,53.7219251 125.14,53.2834225 C124.52,52.8648517 124.16,52.2469616 124.08,51.449684 C123.92,49.9348566 124.2,49.0179874 124.94,48.6791444 C124.68,48.2805056 124.28,47.9416626 123.74,47.6626155 C123.2,47.3835683 122.56,47.2839086 121.82,47.3636364 C121.08,47.4433641 120.46,47.8818668 119.98,48.6791444 C119.48,49.476422 119.3,50.3334954 119.4,51.2702965 C119.6,53.0442392 120.48,54.2401556 122.08,54.8979096 C123.68,55.5556636 125.52,55.7749149 127.64,55.5357316 C129.76,55.3164803 131.8,54.5590666 133.76,53.3232863 C135.72,52.0675741 137.3,50.5128828 138.52,48.6392805 C139.74,46.7656782 140.7,44.2941176 141.44,41.2445309 C141.72,40.2280019 142.06,38.8128342 142.48,36.9591638 C142.9,35.1054934 143.18,33.9494409 143.28,33.4710744 C143.4,32.9927078 143.72,31.6373359 144.26,29.3850267 C144.78,27.1327175 145.46,24.6412251 146.28,21.8706855 C147.3,18.5819154 148.42,16.4491979 149.64,15.5123967 L146.92,15.7914439 L146.92,15.7914439 Z M57.82,30.6008751 C56.76,30.7204667 55.96,31.1390374 55.42,31.8765192 C54.88,32.614001 54.66,33.5508021 54.8,34.6869227 C55,36.5405931 55.88,37.9956247 57.46,39.0520175 C56.66,41.4837141 55.58,43.7360233 54.24,45.8089451 C52.9,47.8818668 51.32,49.0179874 49.5,49.2173068 C47.28,49.3368984 46.04,48.1210501 45.76,45.6096257 C45.48,43.0982013 45.94,40.1881381 47.14,36.9193 C49.32,30.9795819 51.88,27.8701993 54.8,27.5512883 C56.66,27.3519689 57.8,28.3485659 58.2,30.5610112 L57.82,30.6008751 L57.82,30.6008751 Z M73.98,46.8454059 C72.76,46.9849295 72.04,46.0481283 71.82,44.0748663 C71.6,42.1016043 72.3,39.4506563 73.92,36.1419543 C75.54,32.8332523 77.14,30.4015557 78.72,28.8667963 C79.68,27.9100632 80.62,27.3918328 81.5,27.2921731 C81.76,27.2722411 81.94,27.2722411 82.08,27.2921731 C82.74,27.3918328 83.12,27.969859 83.24,29.0262518 C83.5,31.4579485 82.58,34.9859018 80.46,39.5901799 C78.34,44.1944579 76.18,46.6062227 73.98,46.8454059 L73.98,46.8454059 Z M107.66,32.8332523 C106.68,34.8065143 105.52,36.560525 104.18,38.0753525 C102.84,39.5901799 101.62,40.4273213 100.52,40.546913 C99.5,40.6465727 98.92,40.0685464 98.78,38.7530384 C98.46,35.7233836 99.4,32.1555664 101.6,28.0296548 C103.8,23.9037433 106.3,21.691298 109.1,21.3923189 C110.66,21.2328634 111.74,21.7909577 112.3,23.0865338 C111.38,25.1793875 109.84,28.4282936 107.66,32.8332523 L107.66,32.8332523 Z" id="Shape" sketch:type="MSShapeGroup"></path>
                <path d="M60.24,55.2566845 C45.82,57.7083131 31.98,61.1764706 22.22,65.1628585 C18.14,66.8172095 17.12,70.1458435 18.4,73.275158 C34.98,65.7408848 43.2,63.6081672 55.32,60.6183763 C57.46,60.0802139 59.18,58.4856587 59.88,56.3928051 C60,55.9941663 60.12,55.6154594 60.24,55.2566845 L60.24,55.2566845 Z" id="Shape" sketch:type="MSShapeGroup"></path>
                <path d="M114.2,53.6222654 C114.62,51.8283909 114.14,51.7486631 112.3,51.4895479 C102.24,50.0345163 91.18,50.134176 77.86,52.9844434 C75.62,53.4628099 73.78,55.0175012 73.42,57.2897423 C73.42,57.2897423 90.14,51.8084589 114.2,53.6222654 L114.2,53.6222654 L114.2,53.6222654 Z" id="Shape" sketch:type="MSShapeGroup"></path>
            </g>
        </g>
    </g>
</svg>