<?xml version="1.0" encoding="utf-8"?>
<!-- Generator: Adobe Illustrator 18.1.1, SVG Export Plug-In . SVG Version: 6.00 Build 0)  -->
<svg version="1.1" id="Capa_1" xmlns:sketch="http://www.bohemiancoding.com/sketch/ns"
	 xmlns="http://www.w3.org/2000/svg" xmlns:xlink="http://www.w3.org/1999/xlink" x="0px" y="0px" viewBox="-222 391.9 150 65.9"
	 enable-background="new -222 391.9 150 65.9" xml:space="preserve">
<title>download 3</title>
<desc>Created with Sketch.</desc>
<g id="Login" sketch:type="MSPage">
	<g id="Tour-1" transform="translate(-244.000000, -476.000000)" sketch:type="MSArtboardGroup">
		<g id="download-3" transform="translate(244.000000, 476.000000)" sketch:type="MSLayerGroup">
			<path id="Shape_4_" sketch:type="MSShapeGroup" fill="#2C3E50" d="M-75.1,399.7c-1.1,0.1-2.2,0.4-3.4,0.7c-0.4,0.1-0.7,0.4-1,0.7
				c-0.3,0.3-0.6,0.6-0.8,0.8c-0.2,0.2-0.4,0.6-0.6,1.2c-0.2,0.6-0.4,1-0.5,1.3c-0.1,0.3-0.3,0.9-0.5,1.7c-0.2,0.8-0.4,1.5-0.5,1.9
				c-0.9,3.2-2.4,6.4-4.5,9.7c-2,3.3-3.8,5-5.3,5.2c-0.8,0.1-1.3-0.6-1.4-2c-0.3-2.7,0.3-6.1,1.6-10.2c1.4-4.1,2.8-7,4.4-8.7
				c0.2-0.3,0.3-0.5,0.3-0.7c0-0.2-0.1-0.2-0.3-0.2c-2.2,0.2-4,0.7-5.2,1.4c-1.2,0.7-2.3,2-3.4,4.1c-0.8,1.6-1.4,3.5-2,5.9
				c-2.8,6.8-5.4,10.3-7.7,10.6c-0.8,0.1-1.2-0.4-1.3-1.5c-0.2-2.1,0.4-5.6,2-10.4c1.5-4.8,2.9-7.9,4.2-9.1l-0.6,0.1l-3.2,0.3
				c-0.8,0.1-1.7,0.5-2.6,1.4c-0.9,0.8-1.5,1.7-1.9,2.8c-0.5-1.3-1.4-2.2-2.7-2.7c-1.3-0.5-2.6-0.7-3.9-0.5c-2.9,0.3-5.4,1.7-7.6,4
				c-2.2,2.4-3.8,5.2-4.7,8.3c0,0.1,0,0.1-0.1,0.2c-0.1,0.3-0.3,0.7-0.5,1.1c-1.1,2.4-1.9,4-2.5,5c-1.1,1.8-2.5,3.5-4.2,5.1
				s-3.3,2.5-5.1,2.7l-0.5,0.1c2.6-2.2,4.7-5,6.3-8.6c1.7-3.6,2.3-7,2-10.2c-0.4-3.9-2-5.6-4.9-5.3c-3,0.3-6.2,3.3-9.6,8.9
				c1.7-4.4,3.1-7.1,4.2-8.1l-1.9,0.2c-2.5,0.3-4.2,1-5.1,2.1c-0.4,0.6-1.1,2.3-1.9,5c-0.3,1-0.7,2.4-1.2,4.3
				c-1.5,3.4-3.3,5.2-5.3,5.5c-1.2,0.1-2.1-0.2-2.9-1c0.6-2.3,0.9-4.5,0.6-6.5c-0.6-5.3-3.4-7.7-8.4-7.1c-3,0.3-5.6,1.6-7.8,3.9
				c-1.3,1.4-2.4,2.9-3.3,4.5c0,0,0,0,0-0.1c-2,3.8-5.6,10.4-10,14.2c-4.4,3.8-8.8,5.9-13.1,6.4c-6.9,0.7-10.7-2.6-11.5-10.1
				c-0.5-4.8,0.2-9.7,2.2-14.7c2-5,4.9-9.1,8.7-12.5c3.8-3.4,7.8-5.3,12.2-5.8c3.3-0.4,5,0.7,5.3,3.1c0.2,1.6-0.4,3-1.7,4.3
				c-1.3,1.3-2.7,2-4.4,2.2c-0.6,0.1-1.1,0-1.6-0.1c-0.4,0.8-0.6,1.5-0.5,2.1c0.1,0.6,0.4,1.1,1.1,1.5c0.6,0.3,1.4,0.5,2.4,0.4
				c2-0.2,3.8-1,5.6-2.4s2.8-2.9,3.3-4.8c0.2-1,0.3-1.8,0.2-2.6c-0.2-2.1-1.4-3.6-3.7-4.7s-5.3-1.4-9.2-1c-3.9,0.4-7.7,1.9-11.5,4.4
				c-3.8,2.5-6.8,5.6-9.1,9.1c-2.3,3.5-4,7.3-5.2,11.3c-1.2,4-1.5,7.7-1.2,11.2c1,9.2,6.5,13.3,16.4,12.2c4.3-0.5,8.4-1.7,12.3-3.8
				c3.9-2.1,7.1-4.7,9.5-7.8c0.4-0.5,0.7-1,1.1-1.4c0,0.4,0,0.7,0.1,1.1c0.3,2.6,1.2,4.5,2.6,5.6c1.5,1.1,3.3,1.6,5.4,1.4
				c3.3-0.4,5.9-1.5,7.8-3.4c1.9-1.9,3.5-4.5,4.7-7.6c1.1,0.7,2.4,1,3.8,0.8c1.2-0.1,2.5-0.8,3.7-1.9c-0.6,2.5-1.3,5.5-2.1,8.8
				c-2.3,9.8-3.9,15.5-4.9,17.3l3-0.3c0.8-0.1,1.5-0.3,2.1-0.5c0.5-0.3,1-0.8,1.3-1.6c0.4-0.8,0.8-2.5,1.4-5l2.4-11.4
				c0.7,2,3.1,2.8,7.2,2.4c4.1-0.4,7.4-2.1,10.1-5c1.7-1.8,3.2-3.9,4.6-6.5c0,1,0,2,0.1,3c0.4,3.9,2,5.6,4.9,5.3
				c4.1-0.4,8.1-5.2,12-14.2c-0.6,2.6-0.8,5.2-0.5,7.8c0.4,3.5,1.7,5.1,4,4.9c2.9-0.3,6.1-3.7,9.6-10.3c-0.2,1.6-0.2,2.9-0.1,3.9
				c0.2,1.8,0.6,3,1.4,3.9c0.8,0.8,1.7,1.2,2.8,1.1s2.1-0.4,2.9-0.7c0.8-0.3,1.9-1.2,3.2-2.6c1.3-1.4,2.8-3.4,4.6-6.1l-2.6,10
				c-1.7,6.3-4.2,9.7-7.6,10.1c-0.9,0.1-1.6-0.1-2.3-0.5c-0.6-0.4-1-1-1.1-1.8c-0.2-1.5,0.1-2.4,0.9-2.8c-0.3-0.4-0.7-0.7-1.2-1
				s-1.2-0.4-1.9-0.3c-0.7,0.1-1.4,0.5-1.8,1.3c-0.5,0.8-0.7,1.7-0.6,2.6c0.2,1.8,1.1,3,2.7,3.6c1.6,0.7,3.4,0.9,5.6,0.6
				c2.1-0.2,4.2-1,6.1-2.2c2-1.3,3.5-2.8,4.8-4.7c1.2-1.9,2.2-4.3,2.9-7.4c0.3-1,0.6-2.4,1-4.3c0.4-1.9,0.7-3,0.8-3.5
				c0.1-0.5,0.4-1.8,1-4.1c0.5-2.3,1.2-4.7,2-7.5c1-3.3,2.1-5.4,3.4-6.4L-75.1,399.7L-75.1,399.7z M-164.2,414.5
				c-1.1,0.1-1.9,0.5-2.4,1.3c-0.5,0.7-0.8,1.7-0.6,2.8c0.2,1.9,1.1,3.3,2.7,4.4c-0.8,2.4-1.9,4.7-3.2,6.8c-1.3,2.1-2.9,3.2-4.7,3.4
				c-2.2,0.1-3.5-1.1-3.7-3.6c-0.3-2.5,0.2-5.4,1.4-8.7c2.2-5.9,4.7-9,7.7-9.4c1.9-0.2,3,0.8,3.4,3L-164.2,414.5L-164.2,414.5z
				 M-148,430.7c-1.2,0.1-1.9-0.8-2.2-2.8s0.5-4.6,2.1-7.9c1.6-3.3,3.2-5.7,4.8-7.3c1-1,1.9-1.5,2.8-1.6c0.3,0,0.4,0,0.6,0
				c0.7,0.1,1,0.7,1.2,1.7c0.3,2.4-0.7,6-2.8,10.6C-143.7,428.1-145.8,430.5-148,430.7L-148,430.7z M-114.3,416.7
				c-1,2-2.1,3.7-3.5,5.2c-1.3,1.5-2.6,2.4-3.7,2.5c-1,0.1-1.6-0.5-1.7-1.8c-0.3-3,0.6-6.6,2.8-10.7c2.2-4.1,4.7-6.3,7.5-6.6
				c1.6-0.2,2.6,0.4,3.2,1.7C-110.6,409.1-112.2,412.3-114.3,416.7L-114.3,416.7z"/>
			<path id="Shape_5_" sketch:type="MSShapeGroup" fill="#2C3E50" d="M-161.8,439.1c-14.4,2.5-28.3,5.9-38,9.9
				c-4.1,1.7-5.1,5-3.8,8.1c16.6-7.5,24.8-9.7,36.9-12.7c2.1-0.5,3.9-2.1,4.6-4.2C-162,439.9-161.9,439.5-161.8,439.1L-161.8,439.1z
				"/>
			<path id="Shape_6_" sketch:type="MSShapeGroup" fill="#2C3E50" d="M-107.8,437.5c0.4-1.8-0.1-1.9-1.9-2.1
				c-10.1-1.5-21.1-1.4-34.4,1.5c-2.2,0.5-4.1,2-4.4,4.3C-148.6,441.2-131.9,435.7-107.8,437.5L-107.8,437.5L-107.8,437.5z"/>
		</g>
	</g>
</g>
</svg>
