<?xml version="1.0" encoding="UTF-8" standalone="no"?>
<svg width="375px" height="257px" viewBox="0 0 375 257" version="1.1" xmlns="http://www.w3.org/2000/svg" xmlns:xlink="http://www.w3.org/1999/xlink">
    <!-- Generator: Sketch 39.1 (31720) - http://www.bohemiancoding.com/sketch -->
    <title>bitcoin-currency</title>
    <desc>Created with Sketch.</desc>
    <defs>
        <linearGradient x1="50%" y1="0%" x2="50%" y2="83.858817%" id="linearGradient-1">
            <stop stop-color="#CDE7FF" offset="0%"></stop>
            <stop stop-color="#FFFFFF" offset="100%"></stop>
        </linearGradient>
        <linearGradient x1="50%" y1="0%" x2="50%" y2="89.4673583%" id="linearGradient-2">
            <stop stop-color="#3950B5" offset="0%"></stop>
            <stop stop-color="#162360" offset="100%"></stop>
        </linearGradient>
        <rect id="path-3" x="0" y="0" width="130" height="48" rx="4"></rect>
        <filter x="-50%" y="-50%" width="200%" height="200%" filterUnits="objectBoundingBox" id="filter-4">
            <feOffset dx="0" dy="8" in="SourceAlpha" result="shadowOffsetOuter1"></feOffset>
            <feGaussianBlur stdDeviation="7" in="shadowOffsetOuter1" result="shadowBlurOuter1"></feGaussianBlur>
            <feColorMatrix values="0 0 0 0 0   0 0 0 0 0   0 0 0 0 0  0 0 0 0.128877944 0" type="matrix" in="shadowBlurOuter1"></feColorMatrix>
        </filter>
    </defs>
    <g id="Onboarding" stroke="none" stroke-width="1" fill="none" fill-rule="evenodd">
        <g id="0.2.2---Tour-2" transform="translate(0.000000, -200.000000)">
            <g id="bitcoin-currency" transform="translate(0.000000, 206.000000)">
                <g id="bg-2" transform="translate(0.000000, 3.530453)">
                    <polygon id="Line-Copy" fill="url(#linearGradient-1)" opacity="0.0632579291" points="54.267049 126.565292 98.7558134 99.5675085 139.106088 120.429432 185.506195 82.3871008 222.910505 82.3871008 246.706821 49.2534574 278.7801 65.2066927 324.303487 56.6164892 367.788457 36.8590204 374.999986 185.469547 150.148438 185.469547 0.425715204 185.469547 0.425715204 135.155496"></polygon>
                    <polyline id="Line" stroke="#13E5B6" stroke-width="2" stroke-linecap="round" stroke-linejoin="round" points="0 133.969547 54.2670471 127.792464 97.7211891 98.3403365 140.140716 120.429432 184.629481 81.1599288 222.910503 81.1599288 247.741449 48.0262854 280.849359 67.6610371 321.199634 56.6164892 375.000006 35.469547"></polyline>
                    <path d="M137.25,120.469547 L137.25,183.486924" id="Line-Copy-2" stroke="#FFFFFF" stroke-width="0.5" stroke-linecap="square" stroke-dasharray="4" opacity="0.333547108"></path>
                    <path d="M77.25,110.469547 L77.25,184.266212" id="Line-Copy-3" stroke="#FFFFFF" stroke-width="0.5" stroke-linecap="square" stroke-dasharray="4" opacity="0.333547108"></path>
                    <path d="M264.25,64.469547 L264.25,183.870892" id="Line-Copy-4" stroke="#FFFFFF" stroke-width="0.5" stroke-linecap="square" stroke-dasharray="4" opacity="0.333547108"></path>
                    <path d="M330.25,57.469547 L330.25,183.5043" id="Line-Copy-5" stroke="#FFFFFF" stroke-width="0.5" stroke-linecap="square" stroke-dasharray="4" opacity="0.333547108"></path>
                    <path d="M187.5,247.469547 C255.707167,247.469547 311,192.176714 311,123.969547 C311,55.7623804 255.707167,0.469547015 187.5,0.469547015 C119.292833,0.469547015 64,55.7623804 64,123.969547 C64,192.176714 119.292833,247.469547 187.5,247.469547 Z" id="Oval-2" fill="url(#linearGradient-2)" opacity="0.300000012"></path>
                </g>
                <g id="price-" transform="translate(122.000000, 0.000000)">
                    <path d="M67,42.5 L67,188.5" id="Line" stroke="#9012FE" stroke-width="2" stroke-linecap="square" opacity="0.639999986"></path>
                    <g id="Rectangle-3" opacity="0.699999988">
                        <use fill="black" fill-opacity="1" filter="url(#filter-4)" xlink:href="#path-3"></use>
                        <use fill="#647CE8" fill-rule="evenodd" xlink:href="#path-3"></use>
                    </g>
                    <text id="1-BTC-=-$650" font-family="Roboto-Regular, Roboto" font-size="16" font-weight="normal" fill="#FFFFFF">
                        <tspan x="15.1328125" y="28.8046875">1 BTC = $650</tspan>
                    </text>
                    <circle id="Oval-5" stroke="#FFFFFF" stroke-width="3" fill="#1A2A71" cx="67.5" cy="83.5" r="4.5"></circle>
                </g>
            </g>
        </g>
    </g>
</svg>