<?xml version="1.0" encoding="UTF-8" standalone="no"?>
<svg width="157px" height="61px" viewBox="0 0 157 61" version="1.1" xmlns="http://www.w3.org/2000/svg" xmlns:xlink="http://www.w3.org/1999/xlink" xmlns:sketch="http://www.bohemiancoding.com/sketch/ns">
    <!-- Generator: Sketch 3.0 (7573) - http://www.bohemiancoding.com/sketch -->
    <title>Copay + Path 1 + Path 1 copy 2</title>
    <description>Created with Sketch.</description>
    <defs></defs>
    <g id="Txs" stroke="none" stroke-width="1" fill="none" fill-rule="evenodd" sketch:type="MSPage">
        <g id="Copay-+-Path-1-+-Path-1-copy-2" sketch:type="MSLayerGroup" transform="translate(-1.000000, 0.000000)" stroke-linecap="round" fill="#FFFFFF">
            <g id="Path-1" sketch:type="MSShapeGroup">
                <path d="M129.660029,32.3429225 C125.792172,38.8097208 122.363367,42.1214238 119.37354,42.278114 C117.048413,42.3999687 115.792087,40.6714868 115.604526,37.0926163 C115.464421,34.4192431 115.778679,31.7653347 116.547309,29.1308114 C112.095179,38.0980826 107.780869,42.691093 103.60425,42.9099803 C100.71937,43.0611705 99.173003,41.1533238 98.9651045,37.186383 C98.9113108,36.1599396 98.9331934,35.1245351 99.0307526,34.080166 C97.4628185,36.5947456 95.7919444,38.7118038 94.0181121,40.4313675 C91.1419032,43.2195817 87.637071,44.7219816 83.5035104,44.9386123 C79.3699498,45.155243 76.9894933,44.2206983 76.3620697,42.1349499 L73.3384081,53.6431613 C72.6105758,56.2323091 72.0403872,57.9159953 71.6278249,58.6942704 C71.2152626,59.4725455 70.7347616,59.9841404 70.1863074,60.2290705 C69.6378533,60.4740005 68.9330575,60.619029 68.0718991,60.6641604 L64.9717441,60.8266327 C66.0053789,59.1294428 67.969296,53.351701 70.8635543,43.493234 C71.8555308,40.1143483 72.7337699,37.1541116 73.498274,34.6125164 L73.498274,34.6125164 C72.1502431,35.6918038 70.8555851,36.2639675 69.6142711,36.329022 C68.1718307,36.4046171 66.9124665,36.0598689 65.8361408,35.2947671 C64.446499,38.4374471 62.7323454,40.9485374 60.6936287,42.8281134 C58.6549119,44.7076895 55.956335,45.7354683 52.597817,45.9114808 C50.4449208,46.0243093 48.6558759,45.4587094 47.2306284,44.2146643 C45.8053809,42.9706191 45.0221512,41.0011598 44.8809158,38.3062271 C44.7396803,35.6112945 45.2074938,32.7980101 46.2843701,29.8662896 C47.3612464,26.934569 49.0833396,24.3690167 51.4507014,22.1695556 C53.8180631,19.9700946 56.5302596,18.7902735 59.5873722,18.6300571 C64.711265,18.3615252 67.4155362,20.9437126 67.7002669,26.3766968 C67.8087357,28.4464051 67.4707508,30.6475716 66.686302,32.9802624 C67.379626,33.8519112 68.3290847,34.2561376 69.5347065,34.1929536 C71.6354256,34.0828596 73.5358766,32.3276249 75.2361093,28.9272002 C75.8293765,27.0287707 76.2979125,25.5894583 76.64172,24.6092543 C77.5995915,21.8783386 78.3221755,20.2190932 78.8094936,19.6314684 C79.7886493,18.5424566 81.5484096,17.931391 84.088827,17.7982534 L86.0264239,17.6967083 C84.8229395,18.6245272 83.257761,21.3007569 81.3308415,25.7254776 C85.0550173,20.1688703 88.4456106,17.3105012 91.5027231,17.1502848 C94.387604,16.9990946 95.9339705,18.9069413 96.1418691,22.8738821 C96.3136114,26.1509202 95.4564959,29.5683025 93.5704969,33.1261316 C91.6844979,36.6839607 89.3918652,39.4847881 86.69253,41.5286977 L87.2092225,41.501619 C88.9745973,41.4090997 90.734953,40.6034377 92.4903425,39.0846091 C94.2457319,37.5657804 95.7456066,35.9090357 96.9900115,34.1143251 C97.6722814,33.1273471 98.621481,31.4670345 99.8376388,29.1333374 C100.035393,28.753865 100.218207,28.4051856 100.386082,28.087299 L100.386082,28.087299 C100.408354,28.0245168 100.430882,27.9617041 100.453667,27.898861 C101.60423,24.7254732 103.349577,21.9857554 105.689761,19.6796253 C108.029944,17.3734953 110.663966,16.1437253 113.591904,15.9902785 C114.969758,15.9180683 116.277859,16.1629797 117.516248,16.7250201 C118.754636,17.2870605 119.603735,18.2478145 120.063569,19.6073109 C120.485231,18.5907534 121.17201,17.6900268 122.123926,16.905104 C123.075843,16.1201812 123.982366,15.7051603 124.843525,15.6600289 L128.076243,15.5554651 L128.722108,15.5216167 C127.36221,16.7602944 125.772617,19.7945064 123.953282,24.6243437 C122.133946,29.454181 121.280785,32.9470203 121.393773,35.1029664 C121.452527,36.2240584 121.869419,36.7642872 122.644462,36.7236689 C125.004502,36.5999845 127.807202,33.1517233 131.052639,26.3787879 C131.753818,23.9929246 132.54192,22.0207067 133.416957,20.4620963 C134.542419,18.4574326 135.747076,17.1404348 137.030966,16.5110634 C138.314855,15.881692 140.097808,15.5072129 142.379878,15.3876146 C142.55211,15.3785884 142.642744,15.4603118 142.651783,15.6327875 C142.660822,15.8052632 142.542949,16.0276242 142.29816,16.2998771 C140.614137,17.9446777 138.962248,20.8200169 137.342445,24.9259808 C135.722641,29.0319448 134.985063,32.4646808 135.129688,35.2242918 C135.206521,36.6903352 135.65398,37.4019088 136.472081,37.3590339 C138.022166,37.2777974 139.92145,35.6217388 142.169991,32.3908085 C144.418531,29.1598782 146.107293,25.9583313 147.236328,22.7860718 C147.385962,22.3458563 147.600775,21.7076663 147.880774,20.8714825 C148.160773,20.0352987 148.357447,19.4629143 148.470802,19.1543121 C148.584158,18.8457099 148.766647,18.4145882 149.018277,17.860934 C149.269906,17.3072798 149.498278,16.9277993 149.703399,16.7224813 C149.908519,16.5171633 150.186162,16.2540016 150.536336,15.9329883 C150.88651,15.611975 151.253093,15.3981981 151.636094,15.2916511 C152.871216,14.9674971 154.026983,14.7772157 155.103431,14.7208015 L157.75148,14.5820231 C156.45962,15.4712363 155.209523,17.5688761 154.001152,20.8750055 C153.024012,23.6501684 152.206121,26.1683335 151.547457,28.4295762 C150.888792,30.690819 150.485779,32.063087 150.338404,32.5464214 C150.19103,33.0297558 149.853198,34.2040427 149.324898,36.0693171 C148.796598,37.9345916 148.364682,39.3732294 148.029135,40.3852737 C147.110871,43.4600125 145.987625,45.9185163 144.659364,47.760859 C143.331103,49.6032016 141.639761,51.1078431 139.585287,52.2748286 C137.530813,53.4418141 135.427159,54.0817115 133.274263,54.19454 C131.121367,54.3073686 129.258636,53.9834323 127.686014,53.2227216 C126.113392,52.4620108 125.279639,51.1761774 125.184729,49.3651827 C125.135014,48.4165664 125.381021,47.5497488 125.922757,46.764704 C126.464493,45.9796591 127.112108,45.5673979 127.865622,45.527908 C128.619135,45.488418 129.263269,45.6276072 129.798042,45.9454797 C130.332815,46.2633522 130.71914,46.6322362 130.957027,47.0521425 C130.195543,47.3514743 129.855482,48.2772669 129.936834,49.8295481 C129.979769,50.6488076 130.304867,51.2911297 130.912136,51.7565336 C131.519405,52.2219375 132.275137,52.4309424 133.179353,52.3835544 C136.667045,52.2007722 139.431109,48.9212528 141.471629,42.5448977 L144.637839,32.5208969 C142.747442,35.1709721 141.092852,37.1709096 139.674016,38.5207695 C138.255181,39.8706294 137.132745,40.6969052 136.306674,40.9996219 C135.480603,41.3023385 134.497065,41.4835937 133.35603,41.5433928 C132.214995,41.6031919 131.275736,41.1876218 130.538224,40.2966701 C129.800712,39.4057184 129.395837,38.0649809 129.323585,36.2744174 C129.281525,35.2320702 129.393672,33.9215771 129.660029,32.3429225 Z M56.9184987,56.218775 C57.81456,56.1752488 58.505762,55.412536 58.4623417,54.5152082 C58.4189213,53.6178805 57.657321,52.9257375 56.7612597,52.9692636 L4.84835352,55.4909322 C3.95229224,55.5344584 3.2610902,56.2971712 3.30451056,57.1944989 C3.34793091,58.0918267 4.10953125,58.7839697 5.00559253,58.7404435 L56.9184987,56.218775 Z M114.400776,53.4268039 C115.296286,53.3731497 115.978808,52.6026708 115.925229,51.7058913 C115.871651,50.8091117 115.102262,50.1256236 114.206751,50.1792778 L83.1287671,52.0413051 C82.2332562,52.0949593 81.550735,52.8654381 81.6043134,53.7622177 C81.6578917,54.6589973 82.4272806,55.3424854 83.3227915,55.2888311 L114.400776,53.4268039 Z M43.4530377,9.81490708 C42.8567614,11.618888 41.6537682,13.1736005 39.844022,14.4790911 C38.0342758,15.7845817 36.1175703,16.4903458 34.0938479,16.5964046 C33.1465736,16.6460491 32.3608088,16.481855 31.7365301,16.1038172 C31.1122514,15.7257794 30.7831687,15.2133763 30.7492722,14.5665925 C30.7153757,13.9198087 30.9375637,13.216377 31.4158427,12.4562765 C31.8985189,12.6039299 32.4412544,12.6619598 33.0440653,12.6303678 C34.7233243,12.5423616 36.2428799,11.8790295 37.6027776,10.6403518 C38.9626754,9.40167413 39.5996792,7.96309734 39.513808,6.3245783 C39.3827415,3.82368083 37.6595041,2.66012749 34.344044,2.83388339 C29.9521358,3.06405355 25.7470274,4.79771854 21.7285925,8.03493038 C17.7101576,11.2721422 14.5459965,15.3616997 12.236014,20.3037254 C9.92603161,25.2457511 8.90099238,30.1960277 9.16086558,35.1547038 C9.56310409,42.8298719 13.2518598,46.4846189 20.2272434,46.1190546 C24.5760936,45.891141 29.0950927,43.9680789 33.7843762,40.3498105 C38.4736597,36.7315422 41.5120081,32.9188077 42.8995125,28.9114927 C43.74699,29.4291639 44.1955794,30.1622966 44.2452943,31.1109129 C44.3469838,33.0512644 43.0951311,35.5273174 40.4896985,38.5391462 C37.8842659,41.550975 34.5379209,44.0178947 30.4505632,45.9399795 C26.3632054,47.8620642 22.1451647,48.9370472 17.7963144,49.1649608 C7.67770243,49.6952548 2.37103157,45.2389467 1.87614261,35.7959027 C1.68858195,32.2170322 2.28910974,28.4347759 3.67774399,24.4490204 C5.06637825,20.4632648 7.02942454,16.7285029 9.56694177,13.2446225 C12.104459,9.76074216 15.3511616,6.83424988 19.307147,4.46505791 C23.2631324,2.09586593 27.2217302,0.80748704 31.1830591,0.599882587 C35.1443881,0.392278134 38.2155169,0.91230516 40.3965378,2.15997927 C42.5775587,3.40765337 43.7234163,5.08787881 43.8341449,7.20070599 C43.8748207,7.97684658 43.7477862,8.84823823 43.4530377,9.81490708 Z M64.5731592,24.7896756 C64.2811598,22.513399 63.1879022,21.4249216 61.2933536,21.5242107 C58.3223569,21.679914 55.5673928,24.7211547 53.0283786,30.6480238 C51.6455161,33.9200606 51.0218873,36.8496027 51.1574733,39.436738 C51.2930593,42.0238733 52.4837301,43.323429 54.7295214,43.3354442 C56.5810121,43.2384116 58.24113,42.1677736 59.7099248,40.1234978 C61.1787196,38.079222 62.3891793,35.8431402 63.3413402,33.4151853 C61.8118375,32.2414599 60.9973836,30.706004 60.8979538,28.8087714 C60.8369401,27.6445605 61.1005211,26.7011577 61.6887047,25.9785347 C62.2768883,25.2559117 63.1091917,24.8663989 64.1856398,24.8099846 L64.5731592,24.7896756 Z M88.8848992,22.8002148 C88.7534656,22.7638656 88.558578,22.7524609 88.3002305,22.7660003 C87.3960141,22.8133883 86.428294,23.2964714 85.3970413,24.2152641 C83.703979,25.687589 81.9507533,28.0710169 80.1373115,31.3656193 C78.3238698,34.6602218 77.4702663,37.3207778 77.5764753,39.3473671 C77.6826844,41.3739564 78.3601186,42.3545161 79.6087984,42.2890756 C81.8478104,42.1717339 84.1641703,39.8236485 86.5579477,35.2447487 C88.951725,30.665849 90.0830634,27.1260035 89.951997,24.625106 C89.8955028,23.5471329 89.5398071,22.938842 88.8848992,22.8002148 Z M119.706671,20.2099526 C119.203779,18.8527128 118.155778,18.215849 116.562634,18.2993421 C113.720811,18.4482757 111.068528,20.5653551 108.605706,24.6506438 C106.142883,28.7359325 104.992841,32.3308042 105.155544,35.4353666 C105.225597,36.7720531 105.77731,37.413308 106.8107,37.3591503 C107.930206,37.3004795 109.206733,36.5309831 110.640317,35.0506382 C112.073902,33.5702933 113.343772,31.8499384 114.449964,29.8895218 C116.898098,25.5239601 118.650316,22.2974693 119.706671,20.2099526 Z"></path>
            </g>
        </g>
    </g>
</svg>