<svg width="51" height="50" viewBox="0 0 51 50" fill="none" xmlns="http://www.w3.org/2000/svg">
  <path d="M25.7058 50C39.5129 50 50.7058 38.8071 50.7058 25C50.7058 11.1929 39.5129 0 25.7058 0C11.8987 0 0.705788 11.1929 0.705788 25C0.705788 38.8071 11.8987 50 25.7058 50Z" fill="#F0F1F2"/>
  <path d="M26.4237 25.8474L23.8208 34.6246H37.7433C37.8355 34.6214 37.9274 34.6364 38.0139 34.6687C38.1003 34.701 38.1795 34.7501 38.247 34.813C38.3145 34.876 38.3688 34.9516 38.4071 35.0356C38.4453 35.1196 38.4665 35.2103 38.4697 35.3026V35.5326L37.259 39.7093C37.2056 39.9069 37.0867 40.0804 36.9217 40.2014C36.7567 40.3224 36.5555 40.3837 36.351 40.3752H15.0436L18.615 28.2082L14.6198 29.4188L15.5278 26.6343L19.523 25.4237L24.5472 8.35349C24.6025 8.15708 24.7219 7.98482 24.8865 7.86415C25.051 7.74348 25.2512 7.68134 25.4552 7.68763H30.8426C30.9348 7.68439 31.0267 7.69937 31.1132 7.7317C31.1996 7.76403 31.2788 7.81308 31.3463 7.87604C31.4137 7.93901 31.4681 8.01466 31.5063 8.09866C31.5445 8.18266 31.5658 8.27337 31.5689 8.36559V8.59562L27.3317 23.0024L31.3268 21.7917L30.4794 24.6973L26.4237 25.8474Z" fill="#A6A9AA"/>
</svg>
