<svg width="35px" height="34px" viewBox="0 0 35 34" version="1.1" xmlns="http://www.w3.org/2000/svg" xmlns:xlink="http://www.w3.org/1999/xlink">
    <g id="Onboarding-(Create-New-Wallet-or-token)" stroke="none" stroke-width="1" fill="none" fill-rule="evenodd">
        <g id="Add-Wallet----Currency" transform="translate(-31.000000, -289.000000)">
            <rect fill="#FFFFFF" x="0" y="0" width="375" height="812"></rect>
            <g id="Field-Copy" transform="translate(0.000000, 254.000000)">
                <g id="Large-(50px)/Currency/BitcoinCash" transform="translate(29.000000, 32.406977)">
                    <g id="Group" transform="translate(3.120000, 3.120000)">
                        <circle id="Oval" stroke="#53C726" fill-rule="nonzero" cx="16.38" cy="16.38" r="16.38"></circle>
                        <path d="M19.9901718,14.4670242 C19.5355017,16.2979557 16.5474602,15.4130828 15.5732367,15.1868816 L16.3962287,11.9366305 C17.3484992,12.1628317 20.4663071,12.5540484 19.9901718,14.4670242 L19.9901718,14.4670242 Z M19.5135487,19.7127589 C19.0159483,21.7286376 15.4215174,20.6796761 14.2741094,20.4122211 L15.1619846,16.8328658 C16.3308577,17.1003209 20.033102,17.5939771 19.5135487,19.7127589 Z M23.3675124,14.4670242 C23.6489981,12.4919358 22.0683851,11.4633695 19.9033357,10.7639073 L20.5746083,8.08982023 L18.864229,7.699067 L18.2149093,10.311505 C17.7602391,10.208602 17.305569,10.105699 16.8508988,10.0236547 L17.5002185,7.41075323 L15.7683741,7.02 L15.0971014,9.69455059 C14.7287796,9.61204279 14.3609456,9.5503937 13.9926237,9.4678859 L11.6329247,8.93343931 L11.1997196,10.6614678 C11.1997196,10.6614678 12.4773818,10.9284594 12.4339637,10.9493181 C13.1267015,11.1138702 13.2564679,11.5458773 13.2350028,11.8749814 L12.4773818,14.9194265 C12.520312,14.9402852 12.585683,14.9402852 12.6505662,14.9810756 C12.585683,14.9606804 12.542265,14.9606804 12.4773818,14.9402852 L11.4377873,19.1982439 C11.351439,19.4040499 11.1348365,19.6919002 10.6587012,19.5894607 C10.6801663,19.6098559 9.402992,19.3011469 9.402992,19.3011469 L8.58,21.1733323 L10.8099327,21.6669886 C11.2216726,21.7698915 11.6329247,21.8519358 12.0227116,21.9548388 L11.351439,24.6497846 L13.0618183,25.0405378 L13.733091,22.3664508 C14.2092262,22.4897489 14.6638964,22.5926519 15.0971014,22.6955549 L14.4258288,25.3492468 L16.1362081,25.74 L16.8074808,23.0455178 C19.7301512,23.539174 21.9166658,23.3125093 22.804541,20.7825791 C23.5192317,18.7662368 22.7396578,17.6143723 21.1809978,16.853261 C22.3284057,16.6062012 23.1509099,15.9072025 23.3675124,14.4670242 L23.3675124,14.4670242 Z" id="Shape" fill="#53C726" fill-rule="nonzero" transform="translate(15.990000, 16.380000) rotate(-32.000000) translate(-15.990000, -16.380000) "></path>
                    </g>
                </g>
            </g>
        </g>
    </g>
</svg> 
     
