<svg xmlns="http://www.w3.org/2000/svg" width="44" height="44" viewBox="0 0 44 44">
  <g fill="none">
    <path fill="#FFD764" d="M22,44 C9.8497355,44 1.55431223e-15,34.1502645 0,22 C-1.55431223e-15,9.8497355 9.8497355,2.22044605e-15 22,0 C34.1502645,-2.22044605e-15 44,9.8497355 44,22 C43.9862228,34.1445532 34.1445532,43.9862228 22,44 Z"/>
    <path fill="#444" d="M12 23C10.7866133 23 9.6927044 22.2690735 9.2283614 21.1480503 8.7640184 20.0270271 9.02068567 18.7366736 9.87867966 17.8786797 10.7366736 17.0206857 12.0270271 16.7640184 13.1480503 17.2283614 14.2690735 17.6927044 15 18.7866133 15 20 15 21.6568542 13.6568542 23 12 23zM32 23C30.7866133 23 29.6927044 22.2690735 29.2283614 21.1480503 28.7640184 20.0270271 29.0206857 18.7366736 29.8786797 17.8786797 30.7366736 17.0206857 32.0270271 16.7640184 33.1480503 17.2283614 34.2690735 17.6927044 35 18.7866133 35 20 35 21.6568542 33.6568542 23 32 23z"/>
    <path fill="#444" d="M29,35 L15,35 C14.4477153,35 14,34.5522847 14,34 C14,33.4477153 14.4477153,33 15,33 L29,33 C29.5522847,33 30,33.4477153 30,34 C30,34.5522847 29.5522847,35 29,35 Z" transform="rotate(-17 22 34)"/>
  </g>
</svg>
