<?xml version="1.0" encoding="UTF-8"?>
<svg width="124px" height="77px" viewBox="0 0 124 77" version="1.1" xmlns="http://www.w3.org/2000/svg" xmlns:xlink="http://www.w3.org/1999/xlink">
    <!-- Generator: Sketch 50.2 (55047) - http://www.bohemiancoding.com/sketch -->
    <title>ghost</title>
    <desc>Created with Sketch.</desc>
    <defs></defs>
    <g id="Activity" stroke="none" stroke-width="1" fill="none" fill-rule="evenodd">
        <g id="Wallet---Activity-(Empty-State)" transform="translate(-126.000000, -270.000000)">
            <g id="ghost" transform="translate(126.000000, 270.000000)">
                <path d="M124,62.6482323 C124,43.512542 96.2416545,28 62,28 C27.7583455,28 0,43.512542 0,62.6482323 C0,81.7839226 124,81.7839226 124,62.6482323 Z" id="Oval-2" fill="#E7E7E7" opacity="0.378571429"></path>
                <g transform="translate(38.000000, 0.000000)" fill-rule="nonzero">
                    <path d="M39.9775284,63 L31.613892,58.049395 L23.9193466,63 L15.053892,58.049395 L7.02480114,63 C6.1772818,63 0,57.4849656 0,56.7874516 L0,18.9291505 C0,8.49161693 10.317064,0 23,0 C35.682936,0 46,8.49161693 46,18.9291505 L46,56.7874516 C46,57.2524609 43.9925095,59.3233104 39.9775284,63 Z" id="Shape" fill="#E7E7E7"></path>
                    <path d="M16.3225806,39 L16.3225806,45.375 C16.3225806,48.8957691 19.1460263,51.75 22.6290323,51.75 C26.1120382,51.75 28.9354839,48.8957691 28.9354839,45.375 L28.9354839,39 L16.3225806,39 Z" id="Shape" fill="#FA645A"></path>
                    <path d="M31.8502304,41.25 L13.4078341,41.25 C12.558362,41.25 11.8709677,40.4113688 11.8709677,39.375 C11.8709677,38.3386313 12.558362,37.5 13.4078341,37.5 L31.8502304,37.5 C32.6997026,37.5 33.3870968,38.3386313 33.3870968,39.375 C33.3870968,40.4113688 32.6997179,41.25 31.8502304,41.25 Z" id="Shape" fill="#444444"></path>
                    <ellipse id="Oval" fill="#444444" cx="11.8709677" cy="23.25" rx="4.4516129" ry="4.5"></ellipse>
                    <ellipse id="Oval" fill="#444444" cx="32.6451613" cy="23.25" rx="4.4516129" ry="4.5"></ellipse>
                </g>
            </g>
        </g>
    </g>
</svg>