<svg xmlns="http://www.w3.org/2000/svg" width="44" height="44" viewBox="0 0 44 44">
  <g fill="none">
    <path fill="#FFD764" d="M22,44 C9.8497355,44 1.55431223e-15,34.1502645 0,22 C-1.55431223e-15,9.8497355 9.8497355,-1.33226763e-15 22,-3.55271368e-15 C34.1502645,-5.77315973e-15 44,9.8497355 44,22 C43.9862228,34.1445532 34.1445532,43.9862228 22,44 Z"/>
    <path fill="#FFF" d="M33.6,30 C33.8601318,29.0210323 33.9945462,28.0129247 34,27 C34,26.4477153 33.5522847,26 33,26 L11,26 C10.4477153,26 10,26.4477153 10,27 C10.003822,28.0127106 10.1365557,29.0208147 10.395,30 L33.6,30 Z"/>
    <path fill="#AE453E" d="M10.4,30 C11.7680603,35.2873885 16.5384924,38.980613 22,38.980613 C27.4615076,38.980613 32.2319397,35.2873885 33.6,30 L10.4,30 Z"/>
    <path fill="#E86C60" d="M16.014,37.385 C19.7141263,39.5385551 24.2858737,39.5385551 27.986,37.385 C26.7228299,35.2844691 24.4510872,33.9997262 22,33.9997262 C19.5489128,33.9997262 17.2771701,35.2844691 16.014,37.385 Z"/>
    <path fill="#FA645A" d="M14.261 10.113C13.1279311 10.4176295 12.2195864 11.2641692 11.836 12.373 10.6867689 11.3444634 8.99973877 11.1893985 7.68226984 11.9912059 6.36480091 12.7930134 5.72744476 14.3626927 6.113 15.856 7 19.242 14.531 22.7 14.531 22.7 14.531 22.7 19.414 16 18.531 12.613 18.0364452 10.7479057 16.1294863 9.63141922 14.261 10.113zM25.469 12.616C24.586 16.003 29.469 22.703 29.469 22.703 29.469 22.703 37 19.242 37.887 15.856 38.2725552 14.3626927 37.6351991 12.7930134 36.3177302 11.9912059 35.0002612 11.1893985 33.3132311 11.3444634 32.164 12.373 31.6636861 10.9142265 30.2675212 9.95483124 28.7263511 10.0107691 27.1851811 10.0667071 25.8622422 11.1247942 25.469 12.616z"/>
  </g>
</svg>
