<svg xmlns="http://www.w3.org/2000/svg" width="25" height="24" viewBox="0 0 25 24">
  <g fill="none">
    <path fill="#BADEFC" d="M25,14.673913 C25,10.7782609 20.8554348,7.60869565 15.7608696,7.60869565 C10.6663043,7.60869565 6.52173913,10.7782609 6.52173913,14.673913 C6.52173913,18.5695652 10.6663043,21.7391304 15.7608696,21.7391304 C16.3690217,21.7391304 16.9625,21.6913043 17.5380435,21.6048913 L22.0396739,23.8554348 C22.1163043,23.8940217 22.1994565,23.9130435 22.2826087,23.9130435 C22.3820652,23.9130435 22.4809783,23.8858696 22.5684783,23.8320652 C22.7282609,23.7326087 22.826087,23.5581522 22.826087,23.3695652 L22.826087,19.2173913 C24.1804348,17.9875 25,16.4032609 25,14.673913 Z"/>
    <path fill="#43A6DD" d="M11.4130435,0 C5.11956522,0 0,4.14456522 0,9.23913043 C0,11.1972826 0.750543478,13.0641304 2.17391304,14.6521739 L2.17391304,20.1086957 C2.17391304,20.2972826 2.27173913,20.4717391 2.43152174,20.5711957 C2.51902174,20.625 2.61793478,20.6521739 2.7173913,20.6521739 C2.80054348,20.6521739 2.88369565,20.6331522 2.96032609,20.5951087 L8.03097826,18.0597826 C9.13695652,18.3375 10.2733696,18.4782609 11.4130435,18.4782609 C17.7065217,18.4782609 22.826087,14.3336957 22.826087,9.23913043 C22.826087,4.14456522 17.7065217,0 11.4130435,0 Z"/>
  </g>
</svg>
