<svg xmlns="http://www.w3.org/2000/svg" width="25" height="25" viewBox="0 0 25 25">
  <g fill="none">
    <path fill="#444" d="M3.80434783 14.1304348L.543478261 14.1304348C.242934783 14.1304348 0 13.8875 0 13.5869565 0 13.286413.242934783 13.0434783.543478261 13.0434783L3.80434783 13.0434783C4.1048913 13.0434783 4.34782609 13.286413 4.34782609 13.5869565 4.34782609 13.8875 4.1048913 14.1304348 3.80434783 14.1304348zM6.07880435 7.71195652C5.93967391 7.71195652 5.8 7.65869565 5.69402174 7.55271739L3.41956522 5.27554348C3.2076087 5.0625 3.2076087 4.71902174 3.4201087 4.50652174 3.6326087 4.2951087 3.97663043 4.29456522 4.18913043 4.50706522L6.46358696 6.78423913C6.67554348 6.99728261 6.67554348 7.34076087 6.46304348 7.55326087 6.35652174 7.65923913 6.2173913 7.71195652 6.07880435 7.71195652zM18.9211957 7.71195652C18.7820652 7.71195652 18.6429348 7.65869565 18.5369565 7.55326087 18.3244565 7.34076087 18.3244565 6.99728261 18.536413 6.78423913L20.8108696 4.50706522C21.0233696 4.29456522 21.3673913 4.2951087 21.5798913 4.50652174 21.7923913 4.71902174 21.7923913 5.0625 21.5804348 5.27554348L19.3059783 7.55271739C19.2 7.65923913 19.0603261 7.71195652 18.9211957 7.71195652zM3.80434783 23.9130435C3.66521739 23.9130435 3.52554348 23.8597826 3.41956522 23.7538043 3.2076087 23.5407609 3.2076087 23.1972826 3.4201087 22.9847826L5.69673913 20.7108696C5.90923913 20.4994565 6.25326087 20.498913 6.46576087 20.711413 6.67771739 20.9244565 6.67771739 21.2679348 6.46521739 21.4804348L4.18858696 23.7543478C4.0826087 23.8597826 3.94347826 23.9130435 3.80434783 23.9130435zM21.1956522 23.9130435C21.0565217 23.9130435 20.9173913 23.8597826 20.811413 23.7543478L18.5347826 21.4804348C18.3222826 21.2679348 18.3222826 20.9244565 18.5342391 20.711413 18.7467391 20.498913 19.0907609 20.4994565 19.3032609 20.7108696L21.5798913 22.9847826C21.7923913 23.1972826 21.7923913 23.5407609 21.5804348 23.7538043 21.4744565 23.8597826 21.3347826 23.9130435 21.1956522 23.9130435zM24.4565217 14.1304348L21.1956522 14.1304348C20.8951087 14.1304348 20.6521739 13.8875 20.6521739 13.5869565 20.6521739 13.286413 20.8951087 13.0434783 21.1956522 13.0434783L24.4565217 13.0434783C24.7570652 13.0434783 25 13.286413 25 13.5869565 25 13.8875 24.7570652 14.1304348 24.4565217 14.1304348z"/>
    <path fill="#E86C60" d="M17.023913,4.64945652 C16.9347826,4.59076087 16.8309783,4.55923913 16.723913,4.55923913 C16.7233696,4.55923913 16.7233696,4.55923913 16.7228261,4.55923913 L8.25434783,4.57228261 C8.14782609,4.57228261 8.04293478,4.60434783 7.95434783,4.66304348 C5.05978261,6.58967391 3.26086957,10.2168478 3.26086957,14.1304348 C3.26086957,20.123913 7.40543478,25 12.5,25 C17.5945652,25 21.7391304,20.123913 21.7391304,14.1304348 C21.7391304,10.2048913 19.9326087,6.57228261 17.023913,4.64945652 Z"/>
    <path fill="#444" d="M18.3190217,0.15923913 C18.1065217,-0.0532608696 17.7630435,-0.0532608696 17.5505435,0.15923913 L15.5429348,2.16684783 C14.7016304,1.49130435 13.6413043,1.08695652 12.5,1.08695652 C11.3586957,1.08695652 10.2983696,1.49130435 9.45706522,2.16684783 L7.44945652,0.15923913 C7.23695652,-0.0532608696 6.89347826,-0.0532608696 6.68097826,0.15923913 C6.46847826,0.37173913 6.46847826,0.715217391 6.68097826,0.927717391 L8.68586957,2.9326087 C8.14619565,3.60815217 7.77880435,4.43097826 7.65815217,5.33804348 C7.64673913,5.42282609 7.65597826,5.50978261 7.68478261,5.59130435 C7.83967391,6.03043478 10.4336957,7.60869565 12.5,7.60869565 C14.5663043,7.60869565 17.1603261,6.03043478 17.3152174,5.59130435 C17.3440217,5.51032609 17.3527174,5.42282609 17.3418478,5.33804348 C17.2206522,4.43097826 16.8538043,3.60815217 16.3141304,2.9326087 L18.3190217,0.927717391 C18.5315217,0.715217391 18.5315217,0.37173913 18.3190217,0.15923913 Z"/>
    <path fill="#444" d="M12.5,25 C12.6836957,25 12.8625,24.9798913 13.0434783,24.9673913 L13.0434783,7.06521739 C13.0434783,6.76467391 12.8005435,6.52173913 12.5,6.52173913 C12.1994565,6.52173913 11.9565217,6.76467391 11.9565217,7.06521739 L11.9565217,24.9673913 C12.1375,24.9798913 12.3163043,25 12.5,25 Z"/>
    <circle cx="7.609" cy="11.957" r="1.63" fill="#444"/>
    <circle cx="8.967" cy="18.207" r="1.359" fill="#444"/>
    <circle cx="17.391" cy="11.957" r="1.63" fill="#444"/>
    <circle cx="16.033" cy="18.207" r="1.359" fill="#444"/>
  </g>
</svg>
