<?xml version="1.0" encoding="UTF-8"?>
<svg width="21px" height="22px" viewBox="0 0 21 22" version="1.1" xmlns="http://www.w3.org/2000/svg" xmlns:xlink="http://www.w3.org/1999/xlink">
    <!-- Generator: Sketch 50.1 (55044) - http://www.bohemiancoding.com/sketch -->
    <title>Right-Controler</title>
    <desc>Created with Sketch.</desc>
    <defs></defs>
    <g id="Symbols" stroke="none" stroke-width="1" fill="none" fill-rule="evenodd">
        <g id="Header/Standard-(Logo)" transform="translate(-334.000000, -31.000000)" stroke="#FFFFFF" stroke-width="1.4">
            <g id="Right-Controler" transform="translate(305.000000, 0.000000)">
                <g id="Icons/Small-(20px)/Controls/Settings-(White)" transform="translate(29.000000, 32.000000)">
                    <path d="M17.8788729,11.1599653 C17.9482972,10.7897021 17.9714387,10.3962974 17.9714387,10.0028927 C17.9714387,9.609488 17.9482972,9.21608331 17.8788729,8.84582008 L19.7996134,7.17963552 C19.9384621,7.08706971 19.984745,6.9019381 19.9153206,6.73994793 C19.521916,5.53659242 18.8508138,4.40266127 18.0177216,3.45386173 C17.9020143,3.31501302 17.7400241,3.26873011 17.578034,3.33815447 L15.171323,4.17124675 C14.5696452,3.68527625 13.8985431,3.29187156 13.1811581,3.01417414 L12.6951876,0.51489731 C12.6720461,0.352907145 12.5331974,0.214058432 12.3712073,0.19091698 C11.1215688,-0.0636389933 9.82564752,-0.0636389933 8.5760091,0.19091698 C8.41401894,0.214058432 8.27517023,0.352907145 8.25202877,0.51489731 L7.76605828,3.01417414 C7.04867326,3.29187156 6.3544297,3.68527625 5.7758934,4.17124675 L3.36918238,3.33815447 C3.20719221,3.26873011 3.04520205,3.31501302 2.92949479,3.45386173 C2.09640251,4.40266127 1.4253004,5.53659242 1.03189571,6.73994793 C0.962471355,6.9019381 1.00875426,7.08706971 1.14760297,7.17963552 L3.0683435,8.84582008 C2.99891914,9.21608331 2.97577769,9.609488 2.97577769,10.0028927 C2.97577769,10.3962974 2.99891914,10.7897021 3.0683435,11.1599653 L1.14760297,12.8261498 C1.00875426,12.9187156 0.962471355,13.1038473 1.03189571,13.2658374 C1.4253004,14.4691929 2.09640251,15.6031241 2.92949479,16.5519236 C3.04520205,16.6907723 3.20719221,16.7370553 3.36918238,16.6676309 L5.7758934,15.8345386 C6.3544297,16.3205091 7.04867326,16.7139138 7.76605828,16.9916112 L8.25202877,19.4908881 C8.27517023,19.6528782 8.41401894,19.7917269 8.5760091,19.8148684 C9.20082831,19.9305756 9.82564752,20 10.4736082,20 C11.1215688,20 11.746388,19.9305756 12.3712073,19.8148684 C12.5331974,19.7917269 12.6720461,19.6528782 12.6951876,19.4908881 L13.1811581,16.9916112 C13.8985431,16.7139138 14.5696452,16.3205091 15.171323,15.8345386 L17.578034,16.6676309 C17.7400241,16.7370553 17.9020143,16.6907723 18.0177216,16.5519236 C18.8508138,15.6031241 19.521916,14.4691929 19.9153206,13.2658374 C19.984745,13.1038473 19.9384621,12.9187156 19.7996134,12.8261498 L17.8788729,11.1599653 Z M10.4736082,13.7518079 C8.39087749,13.7518079 6.72469293,12.0856234 6.72469293,10.0028927 C6.72469293,7.94330344 8.39087749,6.25397744 10.4736082,6.25397744 C12.5331974,6.25397744 14.2225234,7.94330344 14.2225234,10.0028927 C14.2225234,12.0856234 12.5331974,13.7518079 10.4736082,13.7518079 L10.4736082,13.7518079 Z" id="settings"></path>
                </g>
            </g>
        </g>
    </g>
</svg>