<?xml version="1.0" encoding="UTF-8" standalone="no"?>
<!DOCTYPE svg PUBLIC "-//W3C//DTD SVG 1.1//EN" "http://www.w3.org/Graphics/SVG/1.1/DTD/svg11.dtd">
<svg width="100%" height="100%" viewBox="0 0 40 40" version="1.1" xmlns="http://www.w3.org/2000/svg" xmlns:xlink="http://www.w3.org/1999/xlink" xml:space="preserve" xmlns:serif="http://www.serif.com/" style="fill-rule:evenodd;clip-rule:evenodd;">
    <path id="Icon" d="M6.5,26.9C6.5,28.5 7.8,29.8 9.6,29.8L30.4,29.8C32.1,29.8 33.5,28.6 33.5,26.9L33.5,13.3L6.5,13.3L6.5,26.9ZM26.7,13.3L26.7,10.2L6.5,10.2L6.5,13.3L26.7,13.3ZM28.5,24.3C29.4,24.3 30.2,23.6 30.2,22.7C30.2,21.8 29.5,21.1 28.5,21.1C27.5,21.1 26.8,21.8 26.8,22.7C26.7,23.6 27.5,24.3 28.5,24.3Z" style="fill:none;stroke:rgb(215,215,215);stroke-width:1px;"/>
</svg>
