<?xml version="1.0" encoding="UTF-8"?>
<svg width="55px" height="14px" viewBox="0 0 55 14" version="1.1" xmlns="http://www.w3.org/2000/svg" xmlns:xlink="http://www.w3.org/1999/xlink">
    <!-- Generator: Sketch 43.2 (39069) - http://www.bohemiancoding.com/sketch -->
    <title>Group</title>
    <desc>Created with Sketch.</desc>
    <defs></defs>
    <g id="Page-1" stroke="none" stroke-width="1" fill="none" fill-rule="evenodd">
        <g id="Group">
            <path d="M6.81054688,11 L6.31835938,8.83789062 L4.0859375,8.83789062 L3.59375,11 L2,11 L4.12109375,2.3984375 L6.28320312,2.3984375 L8.41015625,11 L6.81054688,11 Z M6.01953125,7.42578125 L5.5625,5.43359375 C5.53515611,5.31249939 5.47363329,5.00879149 5.37792969,4.52246094 C5.28222608,4.03613038 5.22460947,3.71093832 5.20507812,3.546875 C5.15429662,3.88281418 5.08984414,4.25292767 5.01171875,4.65722656 C4.93359336,5.06152546 4.73047039,5.98436779 4.40234375,7.42578125 L6.01953125,7.42578125 Z M14.4335938,2.43359375 L14.4335938,7.9765625 C14.4335938,8.99609885 14.2031273,9.77441138 13.7421875,10.3115234 C13.2812477,10.8486355 12.6152387,11.1171875 11.7441406,11.1171875 C10.8925739,11.1171875 10.2441429,10.8505886 9.79882812,10.3173828 C9.3535134,9.78417702 9.13085938,8.99609896 9.13085938,7.953125 L9.13085938,2.43359375 L10.7128906,2.43359375 L10.7128906,8.0703125 C10.7128906,9.1601617 11.0742151,9.70507812 11.796875,9.70507812 C12.1328142,9.70507812 12.3925772,9.56640764 12.5761719,9.2890625 C12.7597665,9.01171736 12.8515625,8.61719006 12.8515625,8.10546875 L12.8515625,2.43359375 L14.4335938,2.43359375 Z M21.359375,6.63476562 C21.359375,8.0488352 21.0712919,9.12987907 20.4951172,9.87792969 C19.9189424,10.6259803 19.0898492,11 18.0078125,11 L15.9101562,11 L15.9101562,2.43359375 L18.2011719,2.43359375 C19.1972706,2.43359375 19.9726535,2.80175413 20.5273438,3.53808594 C21.082034,4.27441774 21.359375,5.30663398 21.359375,6.63476562 Z M19.7246094,6.68164062 C19.7246094,4.76756855 19.1972709,3.81054688 18.1425781,3.81054688 L17.5039062,3.81054688 L17.5039062,9.60546875 L18.0195312,9.60546875 C18.6015654,9.60546875 19.0312486,9.36230712 19.3085938,8.87597656 C19.5859389,8.38964601 19.7246094,7.65820801 19.7246094,6.68164062 Z M22.8945312,11 L22.8945312,2.43359375 L24.3945312,2.43359375 L24.3945312,11 L22.8945312,11 Z M28.8359375,11 L27.2480469,11 L27.2480469,3.83398438 L25.6074219,3.83398438 L25.6074219,2.43359375 L30.4765625,2.43359375 L30.4765625,3.83398438 L28.8359375,3.83398438 L28.8359375,11 Z M35.0351562,11 L34.5429688,8.83789062 L32.3105469,8.83789062 L31.8183594,11 L30.2246094,11 L32.3457031,2.3984375 L34.5078125,2.3984375 L36.6347656,11 L35.0351562,11 Z M34.2441406,7.42578125 L33.7871094,5.43359375 C33.7597655,5.31249939 33.6982427,5.00879149 33.6025391,4.52246094 C33.5068355,4.03613038 33.4492188,3.71093832 33.4296875,3.546875 C33.378906,3.88281418 33.3144535,4.25292767 33.2363281,4.65722656 C33.1582027,5.06152546 32.9550798,5.98436779 32.6269531,7.42578125 L34.2441406,7.42578125 Z M37.390625,2.43359375 L39.5761719,2.43359375 C40.4668013,2.43359375 41.1152323,2.60644358 41.5214844,2.95214844 C41.9277364,3.29785329 42.1308594,3.84765248 42.1308594,4.6015625 C42.1308594,5.09765873 42.0234386,5.51269364 41.8085938,5.84667969 C41.5937489,6.18066573 41.3007831,6.38281215 40.9296875,6.453125 L40.9296875,6.51171875 C41.4140649,6.63281311 41.7636708,6.85937334 41.9785156,7.19140625 C42.1933604,7.52343916 42.3007812,7.964841 42.3007812,8.515625 C42.3007812,9.29297264 42.0927755,9.90136499 41.6767578,10.3408203 C41.2607401,10.7802756 40.6914099,11 39.96875,11 L37.390625,11 L37.390625,2.43359375 Z M38.890625,5.87890625 L39.6230469,5.87890625 C39.9589861,5.87890625 40.1953118,5.7890634 40.3320312,5.609375 C40.4687507,5.4296866 40.5371094,5.16211115 40.5371094,4.80664062 C40.5371094,4.4511701 40.4589852,4.19628983 40.3027344,4.04199219 C40.1464836,3.88769454 39.9003923,3.81054688 39.5644531,3.81054688 L38.890625,3.81054688 L38.890625,5.87890625 Z M38.890625,7.20898438 L38.890625,9.60546875 L39.6933594,9.60546875 C40.0253923,9.60546875 40.2724601,9.50390727 40.4345703,9.30078125 C40.5966805,9.09765523 40.6777344,8.78320525 40.6777344,8.35742188 C40.6777344,7.59179305 40.3418002,7.20898438 39.6699219,7.20898438 L38.890625,7.20898438 Z M43.4726562,11 L43.4726562,2.43359375 L45.0664062,2.43359375 L45.0664062,9.60546875 L47.2753906,9.60546875 L47.2753906,11 L43.4726562,11 Z M52.15625,11 L48.2949219,11 L48.2949219,2.43359375 L52.15625,2.43359375 L52.15625,3.81054688 L49.8886719,3.81054688 L49.8886719,5.84960938 L51.9921875,5.84960938 L51.9921875,7.23242188 L49.8886719,7.23242188 L49.8886719,9.60546875 L52.15625,9.60546875 L52.15625,11 Z" id="AUDITABLE" fill="#FFFFFF"></path>
            <rect id="Rectangle" stroke="#FFFFFF" x="0.5" y="0.5" width="54" height="13" rx="2"></rect>
        </g>
    </g>
</svg>