<?xml version="1.0" encoding="UTF-8"?>
<svg width="20px" height="21px" viewBox="0 0 20 21" version="1.1" xmlns="http://www.w3.org/2000/svg" xmlns:xlink="http://www.w3.org/1999/xlink">
    <!-- Generator: Sketch 51.2 (57519) - http://www.bohemiancoding.com/sketch -->
    <title>icons/list items/sync</title>
    <desc>Created with Sketch.</desc>
    <defs></defs>
    <g id="Symbols" stroke="none" stroke-width="1" fill="none" fill-rule="evenodd">
        <g id="Icons/Small-(20px)/Help-(Dark)" transform="translate(1.000000, 1.000000)" stroke="#464D5F">
            <g id="icons/list-items/sync">
                <g id="Group">
                    <path d="M0,19.1896621 L0,1.77635684e-15 L14.5454545,1.77635684e-15 C15.5454545,1.77635684e-15 16.3636364,0.785031633 16.3636364,1.74451474 L16.3636364,17.4451474 C16.3636364,18.4046305 15.5454545,19.1896621 14.5454545,19.1896621 L0,19.1896621 L0,19.1896621 Z" id="Shape"></path>
                    <path d="M18.1818182,2.61677211 L18.1818182,4.36128685" id="Shape"></path>
                    <path d="M18.1818182,6.97805896 L18.1818182,8.7225737" id="Shape"></path>
                    <path d="M9.09090909,9.33315386 L11.0909091,10.8159914 C11.5454545,11.1648943 11.8181818,11.6882488 11.8181818,12.2116032 L11.8181818,13.0838605 L4.54545455,13.0838605 L4.54545455,12.2116032 C4.54545455,11.6882488 4.81818182,11.1648943 5.27272727,10.8159914 L7.27272727,9.42037959" id="Shape"></path>
                    <path d="M8.18181818,9.59483107 L8.18181818,9.59483107 C7.18181818,9.59483107 6.36363636,8.80979943 6.36363636,7.85031633 L6.36363636,6.97805896 C6.36363636,6.01857585 7.18181818,5.23354422 8.18181818,5.23354422 L8.18181818,5.23354422 C9.18181818,5.23354422 10,6.01857585 10,6.97805896 L10,7.85031633 C10,8.80979943 9.18181818,9.59483107 8.18181818,9.59483107 L8.18181818,9.59483107 Z" id="Shape"></path>
                </g>
            </g>
        </g>
    </g>
</svg>