<?xml version="1.0" encoding="utf-8"?>
<!-- Generator: Adobe Illustrator 18.1.1, SVG Export Plug-In . SVG Version: 6.00 Build 0)  -->
<svg version="1.1" id="Capa_1" xmlns:sketch="http://www.bohemiancoding.com/sketch/ns"
	 xmlns="http://www.w3.org/2000/svg" xmlns:xlink="http://www.w3.org/1999/xlink" x="0px" y="0px" viewBox="-257 387.9 80 66"
	 enable-background="new -257 387.9 80 66" xml:space="preserve">
<title>fi-bitcoin-circle copy + Oval 356 Copy + ios7-redo copy Copy</title>
<desc>Created with Sketch.</desc>
<g id="Page-1" sketch:type="MSPage">
	<g id="Copay-v1-Buy-_x2013_-Main" transform="translate(-34.000000, -502.000000)" sketch:type="MSArtboardGroup">
		
			<g id="fi-bitcoin-circle-copy-_x2B_-Oval-356-Copy-_x2B_-ios7-redo-copy-Copy" transform="translate(34.000000, 502.000000)" sketch:type="MSLayerGroup">
			<g id="fi-bitcoin-circle-copy" sketch:type="MSShapeGroup">
				<g id="g99">
					<path id="Shape" fill="#2C3E50" d="M-225.2,409.8l-1.7,6.9c2,0.5,8,2.5,9-1.4C-216.9,411.2-223.2,410.3-225.2,409.8
						L-225.2,409.8z"/>
					<path id="Shape_1_" fill="#2C3E50" d="M-227.8,420.3l-1.9,7.6c2.3,0.6,9.6,2.9,10.7-1.4C-217.9,422-225.4,420.8-227.8,420.3
						L-227.8,420.3z"/>
					<path id="Shape_2_" fill="#2C3E50" d="M-217.4,389.3c-16.9-4.2-34,6.1-38.3,23c-4.2,16.9,6.1,34.1,23,38.3
						c16.9,4.2,34.1-6.1,38.3-23C-190.2,410.6-200.4,393.5-217.4,389.3L-217.4,389.3z M-211.1,415.4c-0.5,3.1-2.2,4.6-4.4,5.1
						c3.1,1.6,4.7,4.1,3.2,8.4c-1.9,5.3-6.3,5.8-12.2,4.7l-1.4,5.7l-3.5-0.9l1.4-5.7c-0.9-0.2-1.8-0.5-2.8-0.7l-1.4,5.7l-3.5-0.9
						l1.4-5.8c-0.8-0.2-1.6-0.4-2.5-0.6l-4.5-1.1l1.7-4c0,0,2.6,0.7,2.5,0.6c1,0.2,1.4-0.4,1.6-0.8l2.3-9.1c0.1,0,0.3,0.1,0.4,0.1
						c-0.1-0.1-0.3-0.1-0.4-0.1l1.6-6.5c0-0.7-0.2-1.7-1.6-2c0.1,0-2.5-0.6-2.5-0.6l0.9-3.7l4.8,1.2l0,0c0.7,0.2,1.5,0.3,2.2,0.5
						l1.4-5.7l3.5,0.9l-1.4,5.6c0.9,0.2,1.9,0.4,2.8,0.7l1.4-5.5l3.5,0.9l-1.4,5.7C-213.7,408.9-210.5,411.2-211.1,415.4
						L-211.1,415.4z"/>
				</g>
			</g>
			<g id="Oval-356-Copy-_x2B_-ios7-redo-copy" transform="translate(48.000000, 34.000000)" sketch:type="MSShapeGroup">
				<g>
					<circle id="Oval-356-Copy_1_" fill="#F6A623" cx="-242" cy="402.9" r="15"/>
					<path fill="#FFFFFF" d="M-242,418.9c-8.8,0-16-7.2-16-16s7.2-16,16-16s16,7.2,16,16S-233.2,418.9-242,418.9z M-242,388.9
						c-7.7,0-14,6.3-14,14s6.3,14,14,14s14-6.3,14-14S-234.3,388.9-242,388.9z"/>
				</g>
				<g id="minus-round" transform="translate(7.000000, 13.800000)">
					<path id="Shape_3_" fill="#FFFFFF" d="M-242.3,387.9h-13.5c-0.7,0-1.3,0.5-1.3,1.2s0.6,1.2,1.3,1.2h13.5c0.7,0,1.3-0.5,1.3-1.2
						S-241.6,387.9-242.3,387.9L-242.3,387.9z"/>
				</g>
			</g>
		</g>
	</g>
</g>
</svg>
