<?xml version="1.0" encoding="UTF-8"?>
<svg width="20px" height="20px" viewBox="0 0 20 20" version="1.1" xmlns="http://www.w3.org/2000/svg" xmlns:xlink="http://www.w3.org/1999/xlink">
    <!-- Generator: Sketch 54.1 (76490) - https://sketchapp.com -->
    <title>Right-Controler</title>
    <desc>Created with Sketch.</desc>
    <g id="Symbols" stroke="none" stroke-width="1" fill="none" fill-rule="evenodd" opacity="0.800000012">
        <g id="Header/Activity-(Vaults)" transform="translate(-334.000000, -55.000000)" fill="#565D6D">
            <g id="Header/Activity" transform="translate(0.000000, 23.000000)">
                <g id="Right-Controler" transform="translate(305.000000, 0.000000)">
                    <g id="Generic/Small/Settings" transform="translate(29.000000, 32.000000)">
                        <g id="settings-gear">
                            <path d="M17.3933333,11.2108333 C17.4614711,10.8107575 17.4971429,10.4058266 17.5,10 C17.4971429,9.5941734 17.4614711,9.18924246 17.3933333,8.78916667 L19.1433333,7.09833333 C19.417882,6.83266422 19.4766134,6.41433184 19.2858333,6.08333333 L18.0358333,3.91666667 C17.8425127,3.58705201 17.4512418,3.42924285 17.0833333,3.5325 L14.75,4.19916667 C14.1182549,3.68460569 13.4070255,3.27621873 12.6441667,2.99 L12.0583333,0.631666667 C11.9657743,0.260559862 11.6324754,0.000105662212 11.25,0 L8.75,0 C8.36752461,0.000105662212 8.0342257,0.260559862 7.94166667,0.631666667 L7.3525,2.99 C6.59081278,3.27654335 5.88073153,3.68491746 5.25,4.19916667 L2.91666667,3.5325 C2.54877514,3.42955053 2.15768857,3.58728536 1.96416667,3.91666667 L0.714166667,6.08333333 C0.522946302,6.41452832 0.581700651,6.8333678 0.856666667,7.09916667 L2.60666667,8.79 C2.53857362,9.18980134 2.50290196,9.59445179 2.5,10 C2.50285707,10.4058266 2.53852889,10.8107575 2.60666667,11.2108333 L0.856666667,12.9016667 C0.582118038,13.1673358 0.523386644,13.5856682 0.714166667,13.9166667 L1.96416667,16.0833333 C2.11317232,16.341419 2.38865522,16.5002904 2.68666667,16.5 C2.76412183,16.4996535 2.84118669,16.4890046 2.91583333,16.4683333 L5.24916667,15.8016667 C5.88091173,16.3162276 6.59214113,16.7246146 7.355,17.0108333 L7.94416667,19.3691667 C8.03682136,19.7390403 8.36869953,19.9988456 8.75,20 L11.25,20 C11.6324754,19.9998943 11.9657743,19.7394401 12.0583333,19.3683333 L12.6475,17.01 C13.4091872,16.7234567 14.1192685,16.3150825 14.75,15.8008333 L17.0833333,16.4675 C17.15798,16.4881712 17.2350448,16.4988202 17.3125,16.4991667 C17.6105114,16.499457 17.8859943,16.3405857 18.035,16.0825 L19.285,13.9158333 C19.4762204,13.5846383 19.417466,13.1657989 19.1425,12.9 L17.3933333,11.2108333 Z M10,13.3333333 C8.15905083,13.3333333 6.66666667,11.8409492 6.66666667,10 C6.66666667,8.15905083 8.15905083,6.66666667 10,6.66666667 C11.8409492,6.66666667 13.3333333,8.15905083 13.3333333,10 C13.3333333,10.884055 12.9821439,11.7319013 12.3570226,12.3570226 C11.7319013,12.9821439 10.884055,13.3333333 10,13.3333333 Z" id="Shape"></path>
                        </g>
                    </g>
                </g>
            </g>
        </g>
    </g>
</svg>