<?xml version="1.0" encoding="UTF-8"?>
<svg width="310px" height="309px" viewBox="0 0 310 309" version="1.1" xmlns="http://www.w3.org/2000/svg" xmlns:xlink="http://www.w3.org/1999/xlink">
    <!-- Generator: Sketch 58 (84663) - https://sketch.com -->
    <title>Artboard Copy</title>
    <desc>Created with Sketch.</desc>
    <defs>
        <path d="M0.0392094456,1.07647239 C23.6719713,55.9806442 78.4323511,94.4416564 142.213244,94.4416564 L142.213244,94.4416564 C206.256899,94.4416564 261.206304,55.6624233 284.678717,0.395736196 L284.678717,0.395736196" id="path-1"></path>
        <path d="M309.539387,154.325932 C309.539387,239.557945 240.352066,308.652448 155.005557,308.652448 C69.6590472,308.652448 0.472311321,239.557945 0.472311321,154.325932 C0.472311321,69.0939187 69.6590472,5.68434189e-14 155.005557,5.68434189e-14 C240.352066,5.68434189e-14 309.539387,69.0939187 309.539387,154.325932" id="path-3"></path>
    </defs>
    <g id="Artboard-Copy" stroke="none" stroke-width="1" fill="none" fill-rule="evenodd">
        <g id="Group-189">
            <path d="M310,154.499708 C310,239.827695 240.827695,309 155.499708,309 C70.1717206,309 1,239.827695 1,154.499708 C1,69.1717206 70.1717206,0 155.499708,0 C240.827695,0 310,69.1717206 310,154.499708" id="Fill-1" fill="#D7E6FF"></path>
            <g id="Group-5" transform="translate(13.000000, 214.000000)">
                <mask id="mask-2" fill="white">
                    <use xlink:href="#path-1"></use>
                </mask>
                <g id="Clip-4"></g>
                <path d="M0.0320698152,7.76726994 L292.398764,7.76726994 C292.398764,7.76726994 222.552111,131.499233 103.256495,101.335859 C-16.0385359,71.1724847 0.0320698152,7.76726994 0.0320698152,7.76726994" id="Fill-3" fill="#C1D5F7" mask="url(#mask-2)"></path>
            </g>
            <g id="Group-151" transform="translate(17.000000, 74.000000)">
                <path d="M74.8209686,229.450634 C74.7706805,229.450634 74.7198076,229.44127 74.670689,229.420786 C44.099011,216.781906 17.6673331,194.261804 0.244833051,166.007504 C0.130807627,165.821982 0.188112712,165.579692 0.372892373,165.464985 C0.55825678,165.352033 0.800926271,165.408802 0.914366949,165.593738 C18.2509093,193.70758 44.5516042,216.116486 74.9712483,228.692746 C75.1724008,228.77585 75.2677144,229.00585 75.1846805,229.206588 C75.1221127,229.359336 74.9753415,229.450634 74.8209686,229.450634" id="Fill-6" fill="#171A36"></path>
                <polygon id="Fill-8" fill="#171A36" points="99.1249322 171.198422 129.773797 171.198422 129.773797 155.381679 99.1249322 155.381679"></polygon>
                <polygon id="Fill-10" fill="#4A7AC6" points="94.2259322 171.198422 124.874797 171.198422 124.874797 155.381679 94.2259322 155.381679"></polygon>
                <polygon id="Fill-11" fill="#171A36" points="184.73522 171.198422 215.384085 171.198422 215.384085 155.381679 184.73522 155.381679"></polygon>
                <polygon id="Fill-12" fill="#4A7AC6" points="179.836805 171.198422 210.485669 171.198422 210.485669 155.381679 179.836805 155.381679"></polygon>
                <path d="M229.96589,2.21508142 L229.960627,2.21508142 L154.357678,1.18739695 C154.140737,1.18447074 153.966483,1.00597201 153.969371,0.788262087 C153.972915,0.572307888 154.148339,0.399661578 154.362941,0.399661578 L154.368203,0.399661578 L229.971153,1.42734606 C230.188093,1.43085751 230.362347,1.60877099 230.35946,1.82648092 C230.355915,2.04243511 230.180492,2.21508142 229.96589,2.21508142" id="Fill-13" fill="#171A36"></path>
                <polygon id="Fill-14" fill="#2F57A3" points="81.7539483 161.15942 73.1470754 5.28555216 228.888847 6.92656997 222.741414 163.620947"></polygon>
                <polygon id="Fill-15" fill="#4A7AC6" points="87.4560966 22.0567659 93.4234271 147.669539 209.95741 147.946359 213.360631 22.4471221"></polygon>
                <polygon id="Fill-16" fill="#171A36" points="222.741356 163.620654 265.260559 163.410552 275.680144 25.601341 228.888788 6.92627735"></polygon>
                <polygon id="Fill-17" fill="#2F57A3" points="225.985116 163.587822 265.260735 163.373623 267.24887 137.0237 275.657514 25.59543 232.145997 8.19151145 228.157447 108.792809"></polygon>
                <path d="M229.053336,110.285351 C237.4497,151.718125 267.248929,137.023875 267.248929,137.023875 L265.260208,163.373799 L225.985175,163.587997 L228.259836,106.36072 C228.259836,106.36072 228.996615,110.005606 229.053336,110.285351" id="Fill-18" fill="#1A336F"></path>
                <path d="M93.4226085,148.501519 C92.9817102,148.501519 92.6144898,148.154471 92.593439,147.709102 L86.6246322,22.0963282 C86.6149983,21.8686692 86.6980322,21.6462774 86.8553288,21.4818244 C87.0120407,21.3179567 87.2289814,21.2249033 87.4558627,21.2249033 L87.4582017,21.2249033 L213.362736,21.6152595 C213.821761,21.6170153 214.191908,21.9903995 214.191908,22.4498142 C214.190151,22.909229 213.779075,23.2919771 213.358058,23.2791018 L88.3277186,22.8916718 L94.2535322,147.630094 C94.2751678,148.088924 93.9213966,148.478695 93.4629559,148.501519 C93.4495068,148.501519 93.4360576,148.501519 93.4226085,148.501519" id="Fill-19" fill="#171A36"></path>
                <polygon id="Fill-20" fill="#4A7AC6" points="197.285794 108.326489 196.863023 123.639338 218.414997 123.603639 218.940684 108.804631"></polygon>
                <polygon id="Fill-21" fill="#171A36" points="218.533642 123.703071 218.940625 108.804573 216.481769 108.759509 216.349617 121.496125 196.958863 121.451646 196.862964 123.63928"></polygon>
                <path d="M196.959155,123.698799 L196.952138,123.698799 C196.493113,123.694702 196.124138,123.319562 196.128198,122.859562 L196.249858,108.318646 C196.251613,108.095084 196.343418,107.881471 196.504223,107.726382 C196.665028,107.571293 196.887231,107.489944 197.104757,107.493893 L218.592994,108.105033 C219.052019,108.117908 219.412808,108.500656 219.399943,108.960071 C219.387079,109.419486 218.993545,109.777069 218.546214,109.76829 L197.904689,109.181293 L197.790079,122.873608 C197.78657,123.330682 197.414672,123.698799 196.959155,123.698799" id="Fill-22" fill="#FFFFFF"></path>
                <polygon id="Fill-23" fill="#FFFFFF" opacity="0.0911690848" points="73.1472508 5.28561069 76.1861746 60.4698092 131.451666 5.93347328"></polygon>
                <polygon id="Fill-24" fill="#FFFFFF" opacity="0.0911690848" points="225.819516 82.9010127 142.347643 162.174931 128.257609 161.857145 226.372101 69.0781883"></polygon>
                <polygon id="Fill-25" fill="#4A7AC6" points="197.734586 67.6567532 197.311815 82.9696031 218.86379 82.9339033 219.389476 68.1348957"></polygon>
                <polygon id="Fill-26" fill="#171A36" points="218.982493 83.0333359 219.389476 68.1348372 216.93062 68.0897735 216.798468 80.8263893 197.407714 80.7824962 197.311815 82.9695445"></polygon>
                <path d="M197.408006,83.0290636 L197.400989,83.0290636 C196.941964,83.0249669 196.572989,82.649827 196.577048,82.189827 L196.699294,67.6489109 C196.701048,67.4253486 196.792853,67.2123206 196.953658,67.0566463 C197.114464,66.9021425 197.331989,66.8184529 197.553608,66.8243053 L219.041845,67.4352977 C219.50087,67.448173 219.861658,67.8315064 219.848794,68.2903359 C219.83593,68.7497506 219.449413,69.1108448 218.995065,69.0985547 L198.354125,68.5115573 L198.23893,82.2038728 C198.235421,82.6615318 197.863523,83.0290636 197.408006,83.0290636" id="Fill-27" fill="#FFFFFF"></path>
                <path d="M200.518444,31.6403919 C198.285885,31.6403919 196.46908,33.4581527 196.46908,35.6931908 C196.46908,37.9276438 198.285885,39.7459898 200.518444,39.7459898 C202.751003,39.7459898 204.567808,37.9276438 204.567808,35.6931908 C204.567808,33.4581527 202.751003,31.6403919 200.518444,31.6403919 M200.518444,40.5337252 C197.852003,40.5337252 195.682012,38.3618931 195.682012,35.6931908 C195.682012,33.0239033 197.852003,30.8526565 200.518444,30.8526565 C203.185469,30.8526565 205.354876,33.0239033 205.354876,35.6931908 C205.354876,38.3618931 203.185469,40.5337252 200.518444,40.5337252" id="Fill-28" fill="#171A36"></path>
                <polygon id="Fill-29" fill="#FFFFFF" opacity="0.0911690848" points="77.3746703 81.6468397 151.384187 6.2208855 165.47773 6.2208855 78.1365941 94.8282392"></polygon>
                <path d="M268.400059,38.4646616 C268.373746,38.4646616 268.346263,38.4617354 268.319364,38.455883 L237.498,32.0106158 C237.285153,31.9661374 237.148907,31.7577913 237.193347,31.5447634 C237.237788,31.3323206 237.445958,31.1924478 237.658805,31.2398524 L268.480169,37.6851196 C268.692432,37.729598 268.829263,37.9385293 268.784822,38.150972 C268.745644,38.3370789 268.5825,38.4646616 268.400059,38.4646616" id="Fill-30" fill="#1A336F"></path>
                <path d="M268.176511,30.8602061 C268.138503,30.8602061 268.099325,30.8549389 268.061316,30.8432341 L237.463325,21.4846336 C237.25574,21.4214275 237.138206,21.2013766 237.201943,20.9930305 C237.265096,20.7852697 237.48613,20.6670509 237.69313,20.7314275 L268.291121,30.090028 C268.499291,30.1532341 268.61624,30.373285 268.552503,30.5810458 C268.501045,30.7507659 268.344918,30.8602061 268.176511,30.8602061" id="Fill-31" fill="#1A336F"></path>
                <path d="M267.572352,45.1869237 C267.553055,45.1869237 267.533174,45.1857532 267.513292,45.182827 L237.519928,40.6694427 C237.304742,40.6372545 237.156801,40.4359313 237.188962,40.2211476 C237.221708,40.0057786 237.421691,39.8623944 237.636877,39.8899008 L267.630242,44.4038702 C267.845428,44.4360585 267.993369,44.6367964 267.961208,44.8515802 C267.931386,45.0470509 267.763564,45.1869237 267.572352,45.1869237" id="Fill-32" fill="#1A336F"></path>
                <path d="M267.117478,52.2969669 C267.106368,52.2969669 267.095258,52.2969669 267.084147,52.2957964 L236.735842,49.728341 C236.518902,49.7107837 236.358681,49.5194097 236.376808,49.3034555 C236.39552,49.086916 236.590825,48.9248041 236.801919,48.944117 L267.150224,51.5109873 C267.367164,51.5291298 267.527969,51.7199186 267.509258,51.936458 C267.491715,52.1418779 267.320385,52.2969669 267.117478,52.2969669" id="Fill-33" fill="#1A336F"></path>
                <path d="M267.222849,59.0161272 C267.218171,59.0161272 267.214078,59.0161272 267.2094,59.0161272 L236.755841,58.0007328 C236.5389,57.9937099 236.368739,57.8111145 236.375546,57.5939898 C236.383358,57.3762799 236.569892,57.2042188 236.782154,57.2135827 L267.235714,58.2289771 C267.452654,58.236 267.622815,58.4180102 267.616008,58.6351349 C267.608781,58.8481628 267.433942,59.0161272 267.222849,59.0161272" id="Fill-34" fill="#1A336F"></path>
                <path d="M267.222849,66.2536361 C267.218171,66.2536361 267.214078,66.2536361 267.2094,66.2530509 L236.755841,65.238827 C236.5389,65.2312188 236.368739,65.0492087 236.375546,64.832084 C236.383358,64.614374 236.569892,64.4329491 236.782154,64.4516768 L267.235714,65.4659008 C267.452654,65.4735089 267.622815,65.6555191 267.616008,65.8726438 C267.608781,66.0856718 267.433942,66.2536361 267.222849,66.2536361" id="Fill-35" fill="#1A336F"></path>
                <polygon id="Fill-36" fill="#5C90DA" points="228.912587 142.412489 223.643443 158.637145 240.565986 155.561115"></polygon>
                <polygon id="Fill-37" fill="#0051B8" points="250.644664 167.127832 234.426155 170.970529 240.565986 155.561115"></polygon>
                <polygon id="Fill-38" fill="#4A9FE4" points="202.611308 134.618064 244.816503 182.812135 189.156892 189.757784"></polygon>
                <polygon id="Fill-39" fill="#B2C1E5" points="189.156717 189.757959 202.611132 134.618239 212.9547 146.523226"></polygon>
                <polygon id="Fill-40" fill="#0051B8" points="234.460831 170.969651 189.156483 189.758252 244.816093 182.812018"></polygon>
                <polygon id="Fill-41" fill="#F6BBD7" points="219.151192 131.275221 202.611074 134.618122 212.954642 146.523109"></polygon>
                <polygon id="Fill-42" fill="#002E7F" points="240.56581 155.560997 223.643853 158.637028 234.42598 170.970997"></polygon>
                <polygon id="Fill-43" fill="#1A336F" points="244.816327 182.812193 234.42598 170.970997 250.644488 167.127715"></polygon>
                <polygon id="Fill-44" fill="#FFFFFF" points="219.151192 131.275221 212.954642 146.523109 228.912353 142.412372"></polygon>
                <polygon id="Fill-45" fill="#2285E0" points="228.912587 142.412489 212.954875 146.522641 223.643443 158.637145"></polygon>
                <polygon id="Fill-46" fill="#FFFFFF" points="250.116463 164.109623 256.055725 160.210158 252.543158 166.409623 256.84981 172.485603 250.506488 168.569751 244.411683 172.790514 248.072192 166.277944 244.036276 160.491659"></polygon>
                <polygon id="Fill-47" fill="#FFFFFF" points="256.591236 148.514394 259.252414 146.767448 257.678278 149.545005 259.607939 152.26755 256.766075 150.512995 254.034727 152.403911 255.675524 149.485896 253.866905 146.893275"></polygon>
                <path d="M177.070958,194.792794 C177.070958,198.780631 187.828525,202.012921 201.098746,202.012921 C214.368966,202.012921 225.126534,198.780631 225.126534,194.792794 C225.126534,193.795542 225.172144,186.935924 225.034729,186.890275 C220.791229,185.474575 211.051119,187.572081 201.098746,187.572081 C193.949644,187.572081 181.51561,185.403761 177.107797,186.874473 C177.060432,186.890275 177.070958,192.952794 177.070958,194.792794" id="Fill-48" fill="#EA801F"></path>
                <path d="M197.959304,180.053715 C188.610974,181.042188 181.907448,183.717913 181.907448,186.865344 C181.907448,190.853181 192.665016,194.086056 205.935821,194.086056 C207.000058,194.086056 208.046753,194.062646 209.074736,194.02285 C206.578457,194.286209 203.895643,194.431349 201.098804,194.431349 C187.828584,194.431349 177.071016,191.198473 177.071016,187.211221 C177.071016,183.542926 186.173753,180.516641 197.959304,180.053715" id="Fill-49" fill="#FFEAC4"></path>
                <path d="M181.907624,186.865461 C181.907624,183.718031 188.611149,181.042305 197.95948,180.053832 C198.987463,180.01345 200.034158,179.990626 201.098395,179.990626 C214.368615,179.990626 225.126183,183.223501 225.126183,187.211338 C225.126183,190.358183 218.423242,193.033908 209.074912,194.022382 C208.046929,194.062763 207.000234,194.085588 205.935412,194.085588 C192.665192,194.085588 181.907624,190.852712 181.907624,186.865461" id="Fill-50" fill="#FC9E17"></path>
                <path d="M211.190054,188.51315 C211.548503,188.527781 211.735037,188.578112 211.723342,188.733201 C211.790003,188.62142 211.86719,188.493252 211.977122,188.327628 C212.174181,188.01628 212.001681,187.933176 211.522775,187.913863 C210.72869,187.888697 209.950393,187.831344 209.10602,187.776331 C208.981469,187.964779 208.859258,188.153226 208.714825,188.371522 C209.582588,188.427705 210.376673,188.487399 211.190054,188.51315" id="Fill-51" fill="#F6891E"></path>
                <path d="M192.636656,185.334351 C193.32958,185.353079 194.025427,185.381756 194.683851,185.449059 C195.151647,185.493537 195.359232,185.370636 195.549859,185.123664 C195.755105,184.860891 196.003622,184.598702 196.287224,184.343537 C197.195919,183.534733 198.309275,182.918473 199.933114,182.830687 C201.452283,182.748168 202.533478,183.017964 202.979054,183.838473 C203.201258,183.672265 203.370249,183.531807 203.574325,183.398957 C204.274266,182.926667 205.081215,182.588982 206.06008,182.520509 C209.648664,182.260076 211.090647,183.406565 210.314105,185.350153 C209.959749,186.259618 209.897181,186.2643 211.364308,186.347405 C211.454359,186.357354 211.539732,186.357354 211.6368,186.359109 C212.716241,186.44514 213.057732,186.370229 212.998088,186.596718 C213.545995,185.674377 213.567046,185.886819 211.970105,185.760407 C211.872453,185.758066 211.78708,185.758066 211.697614,185.748117 C210.229902,185.665013 210.292469,185.659746 210.646825,184.75028 C211.423953,182.807277 209.981969,181.660789 206.3928,181.921221 C205.41452,181.989695 204.607571,182.327379 203.907631,182.799669 C203.703554,182.932519 203.534563,183.072977 203.311775,183.239186 C202.866783,182.418677 201.785588,182.14888 200.266419,182.231399 C198.64258,182.319186 197.528639,182.93486 196.620529,183.743664 C196.336927,183.99883 196.08841,184.261603 195.88258,184.524377 C195.692537,184.771934 195.484368,184.894249 195.016571,184.849771 C194.358732,184.782468 193.6623,184.753791 192.969961,184.735064 C192.798631,184.735649 192.47702,184.78715 192.423224,184.840992 C192.176461,185.187455 191.9718,185.533919 191.802808,185.88799 C191.7993,185.893257 191.81041,185.899695 191.814503,185.905547 C191.908063,185.751043 191.980571,185.594198 192.090503,185.44028 C192.143715,185.386438 192.46591,185.334936 192.636656,185.334351" id="Fill-52" fill="#FFEAC4"></path>
                <path d="M199.994804,187.239489 C198.968575,187.200277 197.941177,187.142924 196.768177,187.079718 C196.629592,187.274603 196.494516,187.467148 196.341897,187.673738 C197.556414,187.73987 198.607203,187.798394 199.661499,187.838776 C199.793652,187.848725 200.103567,187.7387 200.140991,187.672567 C200.243906,187.477097 200.352669,187.281041 200.457923,187.08557 C200.39477,187.152288 200.119355,187.248852 199.994804,187.239489" id="Fill-53" fill="#F6891E"></path>
                <path d="M193.190293,188.886651 C192.849386,189.466626 192.516666,190.036651 192.164649,190.632427 C192.171081,190.633013 192.175759,190.633598 192.182776,190.634183 C192.523098,190.054209 192.856403,189.484183 193.20842,188.887822 C193.202573,188.887237 193.196725,188.887237 193.190293,188.886651" id="Fill-54" fill="#F6891E"></path>
                <path d="M192.283177,187.480433 C192.816465,187.502087 193.32227,187.536031 193.878948,187.562952 C193.988881,187.410204 194.073084,187.297837 194.163719,187.177863 C194.249677,187.059059 194.273652,186.972443 194.257279,186.902799 C194.240906,186.925038 194.229796,186.939669 194.211669,186.963664 C193.655575,186.936743 193.149186,186.902799 192.616482,186.881145 C190.892652,186.826718 191.356355,186.619542 190.616067,187.715115 C190.561686,187.799975 190.536542,187.867863 190.533618,187.925216 C190.931245,187.28145 190.807279,187.433613 192.283177,187.480433" id="Fill-55" fill="#F6891E"></path>
                <path d="M206.20229,187.58841 C205.136298,187.545102 204.08551,187.486578 203.034722,187.428053 C202.904908,187.415763 202.766324,187.391768 202.531256,187.357239 C202.376883,187.550369 202.227773,187.739402 202.065798,187.937214 C202.417231,187.985204 202.545875,188.01271 202.701417,188.027341 C203.752205,188.085865 204.802993,188.144389 205.869569,188.187697 C205.978332,188.192379 206.275383,188.051921 206.309298,187.975254 C206.484722,187.651031 206.687044,187.32271 206.85779,186.99673 C206.784112,187.123728 206.710434,187.25014 206.642019,187.375967 C206.608103,187.452634 206.311637,187.593092 206.20229,187.58841" id="Fill-56" fill="#F6891E"></path>
                <path d="M194.061974,186.131919 C193.420508,186.133089 192.785474,186.071053 192.166228,186.021893 C192.029982,186.009018 191.842864,185.948153 191.814211,185.90543 C191.697847,186.099145 191.56394,186.290519 191.469796,186.48716 C191.442897,186.528127 191.677381,186.60655 191.833508,186.621181 C192.452753,186.670341 193.087203,186.732962 193.729253,186.731206 C194.083025,186.733547 194.232135,186.792656 194.257279,186.902682 C194.343236,186.783878 194.420423,186.679705 194.497025,186.578458 C194.717474,186.272962 194.641457,186.13543 194.061974,186.131919" id="Fill-57" fill="#CC6917"></path>
                <path d="M191.070005,188.157089 C190.704539,188.146555 190.524437,188.083349 190.533793,187.925333 C190.466547,188.033018 190.388776,188.157089 190.282937,188.315104 C190.077692,188.632891 190.239081,188.742331 190.737285,188.756377 C191.548327,188.792076 192.344751,188.842992 193.190293,188.886885 C193.306658,188.687903 193.420683,188.492433 193.541725,188.288183 C192.689166,188.24429 191.88748,188.193374 191.070005,188.157089" id="Fill-58" fill="#CC6917"></path>
                <path d="M199.939136,184.578219 C199.231009,184.546616 198.45856,184.83631 197.923518,185.42799 C197.453967,185.940662 197.112475,186.48084 196.675086,187.07486 C196.707831,187.076616 196.735314,187.077786 196.76806,187.079542 C197.027103,186.714351 197.283806,186.36145 197.590213,186.027277 C198.125255,185.435598 198.897704,185.145903 199.606416,185.177506 C200.53967,185.210865 200.999865,185.504656 200.85134,186.151349 C200.781755,186.45743 200.627382,186.77112 200.457806,187.085394 C200.461899,187.081298 200.47184,187.076616 200.474179,187.073104 C200.741992,186.563359 201.071789,186.048931 201.18406,185.552061 C201.332586,184.905369 200.872975,184.611578 199.939136,184.578219" id="Fill-59" fill="#CC6917"></path>
                <path d="M212.877455,186.801142 C212.733608,187.058649 212.513743,187.150532 212.085709,187.123611 C211.283438,187.072109 210.466548,187.035824 209.567209,186.981982 C209.392955,187.24183 209.241506,187.479438 209.047955,187.772644 C209.067836,187.773814 209.085964,187.774985 209.105845,187.776155 C209.148531,187.711779 209.190048,187.647402 209.234489,187.58127 C210.133828,187.635112 210.950718,187.671397 211.752404,187.722898 C212.181023,187.750405 212.400887,187.657936 212.544735,187.40043 C212.790328,186.96501 212.962828,186.729743 212.998497,186.596893 C212.95815,186.663611 212.922481,186.72155 212.877455,186.801142" id="Fill-60" fill="#CC6917"></path>
                <path d="M205.827117,184.393341 C205.109049,184.471178 204.565236,184.745071 204.236608,185.102069 C203.584032,185.826598 203.032032,186.563417 202.399337,187.338277 C202.458397,187.345885 202.483541,187.350567 202.530905,187.357005 C202.980575,186.793417 203.416795,186.240949 203.903303,185.701356 C204.231931,185.344359 204.776329,185.071051 205.493812,184.992628 C207.023507,184.828761 207.359736,185.402883 207.174371,186.199982 C207.11882,186.461 206.998363,186.72787 206.858024,186.996496 C207.129931,186.527718 207.410608,186.055427 207.507676,185.600695 C207.692456,184.803595 207.356812,184.229473 205.827117,184.393341" id="Fill-61" fill="#CC6917"></path>
                <path d="M209.937763,189.172132 C209.381669,189.145796 208.836686,189.121802 208.218025,189.100148 C207.737364,189.87969 207.282432,190.61885 206.774873,191.439359 C206.053881,191.321725 205.363881,191.229257 204.731771,191.093481 C204.614237,191.068316 204.595525,190.859384 204.656339,190.742336 C205.173839,189.812387 205.363297,189.779028 203.59678,189.696509 C201.2385,189.580046 198.883729,189.446025 196.521356,189.319028 C195.591025,189.268112 195.212695,189.419104 194.852492,189.992641 C194.360136,190.769842 194.360136,190.769842 193.122229,190.699028 C192.843305,190.684397 192.569059,190.662743 192.182542,190.634066 C192.066178,190.832463 191.952153,191.027934 191.831695,191.232183 C192.228737,191.261445 192.505322,191.283684 192.788924,191.298316 C194.026831,191.36913 194.026831,191.36913 194.519186,190.591929 C194.879975,190.018392 195.258305,189.867399 196.188051,189.918316 C198.550424,190.045313 200.905195,190.179333 203.263475,190.295796 C205.030576,190.378316 204.840534,190.411674 204.323034,191.341623 C204.26222,191.458672 204.281517,191.667603 204.398466,191.692768 C205.030576,191.828545 205.720576,191.921013 206.442153,192.038646 C206.949712,191.218137 207.404059,190.478977 207.88472,189.699435 C208.503381,189.720504 209.048364,189.745084 209.605042,189.77142 C211.383254,189.85628 210.942356,189.984448 211.644051,188.926916 C211.693169,188.849079 211.719483,188.785288 211.723576,188.733201 C211.363958,189.337756 211.437636,189.243532 209.937763,189.172132" id="Fill-62" fill="#CC6917"></path>
                <path d="M206.309064,187.975372 C206.275149,188.052038 205.978683,188.192496 205.869336,188.187814 C204.802759,188.144506 203.751971,188.085982 202.701183,188.027458 C202.545641,188.012242 202.416997,187.985321 202.066149,187.937331 C202.227539,187.739519 202.377234,187.550486 202.531022,187.357356 C202.483658,187.350333 202.458514,187.346237 202.398869,187.338043 C203.032149,186.563183 203.583564,185.826364 204.236725,185.101835 C204.565353,184.744837 205.109166,184.471529 205.827234,184.393107 C207.356929,184.229239 207.692573,184.803947 207.507208,185.600461 C207.410725,186.055193 207.130047,186.528069 206.857556,186.996847 C206.68681,187.322827 206.485073,187.651148 206.309064,187.975372 M200.473886,187.072929 C200.472132,187.07644 200.461607,187.081707 200.458098,187.085219 C200.352844,187.281275 200.243497,187.476746 200.141166,187.672216 C200.103158,187.738934 199.793827,187.848959 199.661675,187.83901 C198.607378,187.798043 197.55659,187.740104 196.342073,187.673972 C196.494107,187.467382 196.629768,187.274252 196.768353,187.079366 C196.735022,187.077611 196.708124,187.07644 196.674793,187.074684 C197.112183,186.480664 197.453675,185.940486 197.923225,185.427814 C198.458268,184.836135 199.231302,184.547025 199.938844,184.578043 C200.873268,184.611402 201.332878,184.905193 201.183768,185.551885 C201.071497,186.048756 200.7417,186.563183 200.473886,187.072929 M209.567268,186.982216 C210.466607,187.036059 211.283497,187.072344 212.085768,187.123845 C212.513802,187.150766 212.733666,187.058883 212.877514,186.801377 C212.922539,186.721198 212.958208,186.663845 212.997971,186.597127 C213.0582,186.370053 212.716708,186.444964 211.636683,186.359519 C211.539615,186.357178 211.454242,186.357178 211.364776,186.347229 C209.897064,186.26471 209.959632,186.259443 210.313988,185.349977 C211.090531,183.406389 209.648547,182.259901 206.059963,182.520333 C205.081098,182.588807 204.274149,182.927076 203.574208,183.399366 C203.370132,183.532216 203.201725,183.672089 202.978937,183.838298 C202.533361,183.017789 201.452166,182.747992 199.932997,182.830511 C198.309158,182.918298 197.195802,183.534557 196.287107,184.343361 C196.003505,184.598527 195.755573,184.8613 195.549742,185.123489 C195.359115,185.371046 195.151531,185.493361 194.683734,185.448883 C194.025895,185.38158 193.329463,185.352903 192.636539,185.334176 C192.465793,185.334761 192.143598,185.386262 192.090386,185.440104 C191.980454,185.594023 191.907946,185.750868 191.814386,185.905372 C191.843039,185.948094 192.030158,186.008959 192.166403,186.021835 C192.785649,186.07158 193.420098,186.133616 194.062149,186.13186 C194.641632,186.135372 194.717649,186.272903 194.4972,186.578399 C194.420014,186.679646 194.343412,186.783819 194.257454,186.902623 C194.273242,186.972852 194.249853,187.058883 194.163895,187.178272 C194.072675,187.297662 193.989056,187.410028 193.879124,187.562776 C193.322446,187.53644 192.816056,187.501911 192.283353,187.480257 C190.806869,187.434023 190.93142,187.281275 190.533208,187.925626 C190.524437,188.083641 190.704539,188.146847 191.070005,188.157382 C191.88748,188.193081 192.689166,188.244583 193.541725,188.288476 C193.420683,188.492725 193.306658,188.688196 193.190293,188.886593 C193.196725,188.887178 193.201988,188.887763 193.20842,188.887763 C192.856403,189.484125 192.523098,190.05415 192.182776,190.634125 C192.568708,190.662802 192.842954,190.684455 193.122463,190.699087 C194.359785,190.769901 194.359785,190.769901 194.852725,189.9927 C195.212344,189.419163 195.591259,189.26817 196.52159,189.319087 C198.883963,189.446084 201.238734,189.580104 203.596429,189.696567 C205.363531,189.779087 205.173488,189.812445 204.655988,190.742394 C204.595759,190.859443 204.614471,191.068374 204.73142,191.093539 C205.363531,191.229316 206.053531,191.321784 206.775107,191.439417 C207.282666,190.618908 207.737014,189.879748 208.217675,189.100206 C208.836336,189.121275 209.381319,189.145855 209.937997,189.172191 C211.437869,189.24359 211.364192,189.337814 211.723225,188.73326 C211.73492,188.57817 211.548386,188.52784 211.189937,188.513209 C210.377141,188.487458 209.583056,188.427763 208.714708,188.37158 C208.859141,188.153285 208.981353,187.964837 209.105903,187.776389 C209.086022,187.774634 209.067895,187.773463 209.048014,187.772293 C209.241564,187.479087 209.393014,187.242064 209.567268,186.982216" id="Fill-63" fill="#F6891E"></path>
                <path d="M153.116906,194.423858 C154.168864,198.270066 165.397152,198.545715 178.196652,195.040117 C190.996152,191.533934 200.519321,185.573247 199.467948,181.727038 C199.204813,180.765486 197.439465,174.136453 197.295033,174.128845 C192.828745,173.884214 183.987389,178.481288 174.387618,181.110779 C167.492296,182.999939 154.927864,184.193832 151.063864,186.776504 C151.022347,186.80401 152.631567,192.649405 153.116906,194.423858" id="Fill-64" fill="#F6891E"></path>
                <path d="M169.376756,174.688804 C160.620773,178.112468 154.861027,182.464326 155.691366,185.499975 C156.743324,189.346183 167.971612,189.621832 180.771112,186.115649 C181.79851,185.834148 182.801349,185.535674 183.782553,185.224911 C181.444154,186.139059 178.894663,186.988244 176.197231,187.727405 C163.397731,191.233588 152.168858,190.957354 151.1169,187.111145 C150.149731,183.573359 158.13151,178.24883 169.376756,174.688804" id="Fill-65" fill="#FFEAC4"></path>
                <path d="M155.691191,185.499799 C154.861436,182.46415 160.621182,178.112293 169.376581,174.688628 C170.357784,174.37845 171.361208,174.079392 172.388021,173.798476 C185.187521,170.292293 196.416394,170.567941 197.467767,174.41415 C198.298106,177.449799 192.53836,181.801656 183.782962,185.225321 C182.801758,185.536084 181.798335,185.834557 180.771521,186.115473 C167.971436,189.621656 156.743148,189.346008 155.691191,185.499799" id="Fill-66" fill="#FDB414"></path>
                <path d="M185.608304,179.185275 C185.961491,179.122654 186.155042,179.132018 186.176677,179.285936 C186.217609,179.161865 186.265558,179.020237 186.337482,178.834715 C186.463203,178.488837 186.277253,178.444359 185.804779,178.528048 C185.024143,178.673774 184.251694,178.784969 183.414923,178.912552 C183.333643,179.123824 183.254703,179.333926 183.160558,179.577972 C184.020135,179.446878 184.808372,179.334511 185.608304,179.185275" id="Fill-67" fill="#F6891E"></path>
                <path d="M166.805629,180.062318 C167.486273,179.931809 168.17218,179.810664 168.829434,179.734583 C169.296061,179.678399 169.472654,179.513947 169.605976,179.231275 C169.750408,178.930461 169.936358,178.620868 170.158561,178.31069 C170.87312,177.325728 171.828595,176.485321 173.395714,176.051071 C174.861671,175.644328 175.976197,175.675346 176.586671,176.381733 C176.768527,176.171631 176.903603,175.998399 177.074349,175.824583 C177.656756,175.213005 178.372485,174.709697 179.313925,174.432878 C182.762756,173.40812 184.417002,174.218679 184.074925,176.283412 C183.923476,177.247891 183.863832,177.266618 185.314586,177.032522 C185.404637,177.023158 185.488256,177.00443 185.583569,176.985702 C186.655993,176.837636 186.97351,176.691326 186.963569,176.925422 C187.300968,175.907102 187.367629,176.109595 185.780044,176.329061 C185.684731,176.347204 185.601697,176.365931 185.511646,176.375295 C184.060307,176.609392 184.119951,176.590664 184.271985,175.626771 C184.614061,173.562038 182.959815,172.751478 179.510985,173.776237 C178.569544,174.053056 177.853815,174.556364 177.270824,175.167941 C177.100078,175.341758 176.965586,175.514405 176.783146,175.724506 C176.172671,175.018705 175.058731,174.987102 173.592773,175.393845 C172.025069,175.828094 171.069595,176.669087 170.35562,177.654048 C170.133417,177.964226 169.947468,178.273819 169.802451,178.574634 C169.669714,178.85672 169.492536,179.021173 169.026493,179.077941 C168.369239,179.154023 167.682747,179.275168 167.002688,179.405092 C166.835451,179.442547 166.532553,179.561936 166.491036,179.625728 C166.324383,180.017254 166.198663,180.400003 166.109781,180.782165 C166.107442,180.787433 166.119722,180.792115 166.1244,180.796796 C166.183459,180.625321 166.220298,180.456771 166.294561,180.282954 C166.335493,180.219163 166.638392,180.099188 166.805629,180.062318" id="Fill-68" fill="#FFEAC4"></path>
                <path d="M174.400482,180.344053 C173.390042,180.525478 172.373753,180.690517 171.214787,180.88072 C171.121228,181.100186 171.030592,181.317896 170.925923,181.551992 C172.125821,181.355936 173.164914,181.187387 174.204008,181.00128 C174.334991,180.981967 174.613914,180.80815 174.636135,180.734995 C174.694609,180.522552 174.759516,180.307768 174.819745,180.094155 C174.772381,180.173163 174.524448,180.326496 174.400482,180.344053" id="Fill-69" fill="#F6891E"></path>
                <path d="M168.107331,183.41312 C167.899162,184.052789 167.69567,184.681338 167.479899,185.338565 C167.486331,185.33798 167.491009,185.337394 167.498026,185.336224 C167.705611,184.696555 167.909103,184.068005 168.125458,183.410193 C168.119026,183.411364 168.113764,183.412534 168.107331,183.41312" id="Fill-70" fill="#F6891E"></path>
                <path d="M166.920122,182.234092 C167.445224,182.141038 167.946936,182.065542 168.496597,181.972489 C168.570859,181.799257 168.628749,181.67226 168.692486,181.535313 C168.750376,181.400707 168.755054,181.311165 168.724063,181.246204 C168.712953,181.271369 168.705351,181.288341 168.693071,181.315847 C168.143995,181.408901 167.642283,181.483812 167.117181,181.57745 C165.422003,181.894066 165.830156,181.592081 165.341893,182.821674 C165.306808,182.916483 165.297453,182.987883 165.306224,183.044651 C165.55708,182.330071 165.468198,182.505644 166.920122,182.234092" id="Fill-71" fill="#F6891E"></path>
                <path d="M180.538558,179.352478 C179.48777,179.53917 178.448677,179.707135 177.410169,179.875684 C177.28094,179.891486 177.140016,179.897924 176.903194,179.914896 C176.794431,180.136117 176.688592,180.353242 176.573397,180.580901 C176.925999,180.552224 177.057567,180.551639 177.213109,180.532911 C178.252203,180.364361 179.290711,180.195812 180.341499,180.009705 C180.449092,179.990392 180.709304,179.789654 180.725677,179.70772 C180.828008,179.353064 180.954897,178.989043 181.051965,178.633802 C181.007525,178.773674 180.962499,178.913547 180.922736,179.050494 C180.905779,179.132427 180.646152,179.333751 180.538558,179.352478" id="Fill-72" fill="#F6891E"></path>
                <path d="M168.368537,180.535252 C167.742275,180.674539 167.108995,180.750036 166.493258,180.834896 C166.357597,180.851282 166.161707,180.832555 166.124868,180.796855 C166.051775,181.010468 165.962308,181.226422 165.912605,181.438865 C165.895647,181.484514 166.141241,181.51085 166.296783,181.491537 C166.911936,181.407262 167.545215,181.331181 168.172063,181.192478 C168.517647,181.118738 168.675529,181.144489 168.724063,181.246321 C168.783122,181.111715 168.835749,180.993496 168.889546,180.878204 C169.038656,180.532326 168.935741,180.414692 168.368537,180.535252" id="Fill-73" fill="#CC6917"></path>
                <path d="M165.879976,183.155672 C165.520942,183.224145 165.331485,183.200735 165.306341,183.044476 C165.264239,183.163865 165.21512,183.301982 165.144951,183.478725 C165.012798,183.833382 165.194069,183.905366 165.683502,183.812313 C166.483434,183.673025 167.272256,183.552466 168.107273,183.413178 C168.178612,183.193712 168.248197,182.978929 168.322459,182.753611 C167.480425,182.893483 166.686341,183.015214 165.879976,183.155672" id="Fill-74" fill="#CC6917"></path>
                <path d="M173.776032,177.756466 C173.077846,177.877611 172.384922,178.326491 171.989049,179.018832 C171.640541,179.620461 171.423015,180.221504 171.122456,180.895117 C171.155202,180.88985 171.1821,180.885753 171.214846,180.880486 C171.389685,180.467891 171.565108,180.06817 171.792575,179.676059 C172.187863,178.983132 172.880786,178.534837 173.578973,178.413107 C174.498193,178.245142 175.010431,178.434176 175.003998,179.09784 C175.001659,179.411529 174.918041,179.750384 174.819803,180.093921 C174.822727,180.089239 174.831498,180.082802 174.833253,180.078705 C174.985286,179.52331 175.197549,178.949774 175.200473,178.440613 C175.20749,177.776949 174.695253,177.588501 173.776032,177.756466" id="Fill-75" fill="#CC6917"></path>
                <path d="M186.889716,177.150975 C186.804343,177.433061 186.609623,177.570008 186.185097,177.63614 C185.391013,177.75787 184.585233,177.897743 183.695835,178.038201 C183.58064,178.329651 183.483572,178.593595 183.357267,178.921331 C183.377148,178.918405 183.394691,178.915478 183.415157,178.912552 C183.44264,178.840567 183.469538,178.769168 183.498775,178.694842 C184.388758,178.554384 185.193953,178.414511 185.988623,178.292781 C186.412564,178.227234 186.607869,178.089702 186.693242,177.808201 C186.840013,177.330059 186.957547,177.062603 186.963394,176.925071 C186.938835,176.999397 186.916614,177.063188 186.889716,177.150975" id="Fill-76" fill="#CC6917"></path>
                <path d="M179.487595,176.312206 C178.802858,176.542791 178.330383,176.92671 178.085959,177.345743 C177.603544,178.193173 177.22229,179.031239 176.770281,179.924318 C176.829925,179.919636 176.855069,179.918466 176.903019,179.914954 C177.22112,179.267092 177.529281,178.63386 177.8889,178.002969 C178.133908,177.583351 178.606383,177.199433 179.290536,176.968847 C180.749476,176.480756 181.2009,176.969433 181.190375,177.787601 C181.192129,178.054471 181.1319,178.341239 181.05179,178.63386 C181.217273,178.117092 181.390358,177.595641 181.387434,177.130374 C181.397375,176.312206 180.945951,175.824115 179.487595,176.312206" id="Fill-77" fill="#CC6917"></path>
                <path d="M184.526466,180.097725 C183.97739,180.191364 183.440008,180.284417 182.831288,180.396198 C182.52839,181.261186 182.243034,182.080524 181.923178,182.99116 C181.193415,183.030957 180.499322,183.08831 179.853178,183.091237 C179.733305,183.091822 179.670153,182.892254 179.704068,182.765257 C180.00989,181.745181 180.188822,181.672025 178.44511,181.971084 C176.116653,182.363196 173.788195,182.737165 171.45389,183.121084 C170.534085,183.270321 170.196686,183.49915 169.968051,184.136478 C169.653458,185.001466 169.653458,185.001466 168.429,185.198107 C168.153585,185.243756 167.881093,185.281211 167.4975,185.336224 C167.426161,185.555104 167.356576,185.770473 167.282898,185.995791 C167.677017,185.939023 167.951847,185.901567 168.231941,185.854748 C169.456398,185.658107 169.456398,185.658107 169.770992,184.79312 C170.000212,184.156377 170.337025,183.926962 171.256831,183.777725 C173.591136,183.394392 175.919593,183.020422 178.248051,182.627725 C179.991763,182.329252 179.812831,182.402407 179.507008,183.421898 C179.473093,183.548896 179.536246,183.749048 179.656119,183.748463 C180.302847,183.745537 180.996356,183.687598 181.726119,183.647802 C182.045975,182.737751 182.331915,181.917827 182.634229,181.053425 C183.242949,180.941059 183.780331,180.848005 184.329992,180.754952 C186.084814,180.455308 185.681339,180.675359 186.140364,179.492 C186.171941,179.404799 186.183636,179.337496 186.176619,179.285995 C185.954415,179.95317 186.007042,179.845486 184.526466,180.097725" id="Fill-78" fill="#CC6917"></path>
                <path d="M180.725619,179.707662 C180.709246,179.789595 180.449034,179.990333 180.341441,180.009646 C179.290653,180.195753 178.252144,180.364303 177.213051,180.532852 C177.058093,180.55158 176.925941,180.552165 176.573339,180.580842 C176.688534,180.353183 176.794373,180.136059 176.903136,179.914837 C176.855186,179.918349 176.829458,179.919519 176.770398,179.924201 C177.222407,179.031122 177.603661,178.193641 178.086076,177.345626 C178.3305,176.926593 178.802975,176.542674 179.487712,176.312089 C180.946068,175.823997 181.397492,176.312674 181.386966,177.130842 C181.390475,177.595524 181.21739,178.117556 181.051907,178.633743 C180.955424,178.988985 180.827949,179.35359 180.725619,179.707662 M174.833136,180.078705 C174.831381,180.082802 174.82261,180.089239 174.819686,180.093921 C174.759458,180.307534 174.694551,180.522318 174.636076,180.735346 C174.613856,180.807916 174.334932,180.982318 174.203949,181.001046 C173.164856,181.187738 172.125763,181.355702 170.925864,181.552344 C171.030534,181.317662 171.121169,181.099952 171.214729,180.880486 C171.182568,180.885753 171.155085,180.890435 171.122924,180.895117 C171.422898,180.221504 171.640424,179.620461 171.989517,179.018832 C172.384805,178.326491 173.077729,177.877611 173.775915,177.756466 C174.695136,177.588501 175.207373,177.776949 175.200356,178.440613 C175.197432,178.949774 174.985754,179.52331 174.833136,180.078705 M183.695542,178.037967 C184.585525,177.897509 185.391305,177.757636 186.18539,177.635906 C186.609915,177.570359 186.804636,177.432827 186.890008,177.15074 C186.916907,177.062954 186.939127,176.999748 186.963686,176.925422 C186.973627,176.691326 186.65611,176.837636 185.583686,176.985702 C185.488373,177.00443 185.404169,177.023158 185.314703,177.032522 C183.863949,177.266618 183.923593,177.247891 184.075042,176.283412 C184.417119,174.218679 182.762873,173.40812 179.313458,174.432878 C178.372602,174.709697 177.656288,175.213005 177.073881,175.824583 C176.903136,175.998399 176.768644,176.171631 176.586788,176.381733 C175.975729,175.675346 174.861788,175.644328 173.395831,176.050486 C171.828712,176.485321 170.872653,177.325728 170.158678,178.31069 C169.936475,178.620868 169.749941,178.930461 169.605508,179.231275 C169.472771,179.513361 169.296178,179.678399 168.829551,179.734583 C168.172297,179.810664 167.485805,179.931809 166.805746,180.062318 C166.638508,180.099188 166.33561,180.219163 166.294678,180.282954 C166.220415,180.456771 166.182992,180.625321 166.124517,180.796796 C166.161941,180.832496 166.357246,180.851224 166.493492,180.834837 C167.108644,180.749977 167.742508,180.674481 168.368771,180.535193 C168.93539,180.414634 169.03889,180.532267 168.889195,180.878145 C168.835983,180.993438 168.783356,181.111656 168.724297,181.246262 C168.755288,181.311224 168.75061,181.400766 168.692136,181.535372 C168.628983,181.671733 168.571093,181.799316 168.496246,181.972547 C167.946585,182.065601 167.445458,182.141097 166.920356,182.23415 C165.468432,182.505702 165.557314,182.329545 165.306458,183.04471 C165.331602,183.200384 165.521059,183.223794 165.880093,183.155906 C166.686458,183.015448 167.480542,182.893718 168.322576,182.75326 C168.248314,182.978578 168.178729,183.193947 168.10739,183.413412 C168.113822,183.412242 168.119085,183.411656 168.125517,183.410486 C167.909161,184.068298 167.705669,184.696262 167.4975,185.335931 C167.881093,185.281504 168.153585,185.244048 168.429,185.197814 C169.653458,185.001758 169.653458,185.001758 169.968051,184.136771 C170.196686,183.499443 170.534085,183.270613 171.45389,183.120791 C173.788195,182.737458 176.116653,182.363489 178.44511,181.970791 C180.188822,181.671733 180.00989,181.745473 179.704068,182.764964 C179.670153,182.891962 179.733305,183.092115 179.853178,183.091529 C180.499322,183.088603 181.193415,183.030664 181.923178,182.990868 C182.243034,182.080817 182.52839,181.261478 182.831288,180.396491 C183.440008,180.284125 183.97739,180.191071 184.526466,180.098018 C186.007042,179.845779 185.954415,179.952878 186.176619,179.285702 C186.154983,179.131784 185.962017,179.12242 185.608246,179.185041 C184.808314,179.334277 184.020076,179.447229 183.1605,179.578323 C183.254644,179.333692 183.333585,179.12359 183.414864,178.912903 C183.394983,178.915244 183.377441,178.91817 183.356975,178.921682 C183.48328,178.593361 183.580932,178.329417 183.695542,178.037967" id="Fill-79" fill="#F6891E"></path>
                <polygon id="Fill-80" fill="#FFFFFF" points="193.012706 170.689555 195.673884 168.942608 194.100333 171.720165 196.029994 174.44271 193.187545 172.688155 190.456782 174.579071 192.096994 171.661056 190.288375 169.068435"></polygon>
                <path d="M147.791685,190.683226 C147.632634,190.683226 147.482939,190.586076 147.423295,190.428646 C147.38938,190.336763 144.124159,181.253226 156.063498,176.203761 C156.265236,176.120071 156.494456,176.212539 156.578659,176.413863 C156.663447,176.61343 156.569888,176.845186 156.369905,176.930046 C145.119397,181.686891 148.128498,190.066382 148.15949,190.150071 C148.236676,190.353735 148.133761,190.580809 147.930854,190.658061 C147.884659,190.674448 147.83788,190.683226 147.791685,190.683226" id="Fill-81" fill="#FCFCFC"></path>
                <polygon id="Fill-82" fill="#5C90DA" points="43.9710686 132.48913 60.9433144 134.066356 54.2245856 118.220351"></polygon>
                <polygon id="Fill-83" fill="#5F5DC0" points="63.2824729 105.836636 70.5947186 120.827018 54.224761 118.220351"></polygon>
                <polygon id="Fill-84" fill="#4A9FE4" points="42.1565441 159.882305 79.8515949 108.078463 98.8599254 160.894774"></polygon>
                <polygon id="Fill-85" fill="#B2C1E5" points="98.85975 160.894774 42.1563686 159.882305 51.4859873 147.166173"></polygon>
                <polygon id="Fill-86" fill="#5653BD" points="70.5855381 120.793132 98.85975 160.894481 79.8520042 108.07817"></polygon>
                <polygon id="Fill-87" fill="#F6BBD7" points="35.2615144 144.46856 42.1568364 159.882071 51.4864551 147.165939"></polygon>
                <polygon id="Fill-88" fill="#4844B7" points="54.2246441 118.22041 60.9433729 134.066415 70.5946017 120.827076"></polygon>
                <polygon id="Fill-89" fill="#443AB3" points="79.8518288 108.078405 70.5947186 120.826725 63.2824729 105.836344"></polygon>
                <polygon id="Fill-90" fill="#FFFFFF" points="35.2615144 144.46856 51.4864551 147.165939 43.9713025 132.489247"></polygon>
                <polygon id="Fill-91" fill="#35AEEE" points="43.9710686 132.48913 51.4862212 147.165822 60.9433144 134.066356"></polygon>
                <polygon id="Fill-92" fill="#FFFFFF" points="61.0286288 106.368153 59.1860949 99.5020967 63.9704847 104.780392 71.0839169 102.588076 65.3832305 107.392326 67.4824678 114.507109 62.4466373 108.990036 55.6928237 111.016142"></polygon>
                <polygon id="Fill-93" fill="#FFFFFF" points="47.6157305 95.3345318 46.7900695 92.2585013 48.9337475 94.6234631 52.1211966 93.6408422 49.5670271 95.7933613 50.5072983 98.981173 48.2513492 96.509112 45.2252898 97.4174071"></polygon>
                <path d="M55.7693085,168.970173 C55.7693085,172.95801 66.5268763,176.190885 79.7970966,176.190885 C93.0673169,176.190885 103.824885,172.95801 103.824885,168.970173 C103.824885,167.972921 103.870495,161.113303 103.733664,161.067654 C99.4901644,159.651954 89.7500542,161.749461 79.7970966,161.749461 C72.6485797,161.749461 60.2145458,159.58114 55.8067322,161.051852 C55.7587831,161.067654 55.7693085,167.130758 55.7693085,168.970173" id="Fill-94" fill="#EA801F"></path>
                <path d="M76.6580059,154.231387 C67.3096754,155.21986 60.60615,157.895585 60.60615,161.043015 C60.60615,165.030852 71.3637178,168.263728 84.6339381,168.263728 C85.6987602,168.263728 86.7454551,168.240318 87.7734381,168.199936 C85.2771585,168.46388 82.5943449,168.60902 79.7975059,168.60902 C66.5272856,168.60902 55.7691331,165.376145 55.7691331,161.388308 C55.7691331,157.720598 64.8724551,154.693728 76.6580059,154.231387" id="Fill-95" fill="#FFEAC4"></path>
                <path d="M60.6063254,161.042781 C60.6063254,157.895351 67.3092661,155.219626 76.6581814,154.231153 C77.6861644,154.190771 78.7322746,154.167947 79.7970966,154.167947 C93.0673169,154.167947 103.824885,157.400822 103.824885,161.388659 C103.824885,164.536089 97.1219441,167.211229 87.7736136,168.199702 C86.7456305,168.240084 85.6989356,168.263494 84.6341136,168.263494 C71.3638932,168.263494 60.6063254,165.030618 60.6063254,161.042781" id="Fill-96" fill="#FC9E17"></path>
                <path d="M89.8884051,162.690822 C90.247439,162.704868 90.4339729,162.755784 90.422278,162.910873 C90.488939,162.799092 90.5661254,162.670924 90.6754729,162.5053 C90.8725322,162.193952 90.7000322,162.110847 90.2217102,162.091534 C89.4276254,162.065784 88.6493288,162.009015 87.8049559,161.953417 C87.6798203,162.14245 87.5576085,162.330313 87.413761,162.549193 C88.2815237,162.605377 89.0756085,162.665071 89.8884051,162.690822" id="Fill-97" fill="#F6891E"></path>
                <path d="M71.3352992,159.511964 C72.0276381,159.530692 72.7240703,159.559369 73.3824941,159.626672 C73.8497059,159.67115 74.0578754,159.548249 74.2479178,159.301277 C74.4537483,159.038504 74.7022653,158.77573 74.9858669,158.520565 C75.8945619,157.711761 77.0079178,157.096087 78.6317568,157.0083 C80.1509263,156.925781 81.2321212,157.194992 81.6776975,158.016087 C81.8999008,157.849878 82.0688924,157.70942 82.2729686,157.57657 C82.9729093,157.10428 83.7798585,156.766595 84.7587229,156.698122 C88.3473076,156.437104 89.7892907,157.584178 89.0127483,159.527181 C88.6583924,160.436646 88.5958246,160.441913 90.0629517,160.525018 C90.1530025,160.534967 90.2383754,160.534967 90.3354432,160.536723 C91.4148839,160.622168 91.7563754,160.547842 91.6967314,160.774331 C92.2446381,159.85199 92.265689,160.063847 90.6687483,159.937435 C90.5710958,159.935094 90.4857229,159.935679 90.3962568,159.92573 C88.9285449,159.842626 88.9911127,159.837359 89.3454686,158.927893 C90.1225958,156.984891 88.6806127,155.837817 85.0914432,156.098249 C84.1131636,156.167308 83.3062144,156.504992 82.605689,156.977282 C82.4021975,157.110132 82.2332059,157.25059 82.0104178,157.416214 C81.5654263,156.595705 80.4836466,156.325908 78.9650619,156.408427 C77.3412229,156.496799 76.2272822,157.112473 75.319172,157.921277 C75.0355703,158.176443 74.7870534,158.439216 74.5812229,158.70199 C74.3911805,158.948962 74.183011,159.071863 73.7152144,159.026799 C73.0573754,158.960081 72.3609432,158.930819 71.6686042,158.912677 C71.4972737,158.913262 71.1756636,158.964178 71.1218669,159.01802 C70.8745195,159.365069 70.6704432,159.711532 70.5014517,160.065603 C70.4979432,160.070285 70.5090534,160.077308 70.5131466,160.08316 C70.6067059,159.928071 70.6792144,159.771812 70.7885619,159.617308 C70.8423585,159.564051 71.1645534,159.511964 71.3352992,159.511964" id="Fill-98" fill="#FFEAC4"></path>
                <path d="M78.6931551,161.41716 C77.667511,161.377364 76.639528,161.320595 75.466528,161.257389 C75.328528,161.452275 75.1928669,161.644819 75.0402483,161.85141 C76.2547653,161.916957 77.3055534,161.976066 78.3604347,162.016448 C78.4925873,162.026397 78.8019178,161.916372 78.8393415,161.849654 C78.9422568,161.654768 79.0516042,161.458712 79.1562737,161.263242 C79.0931212,161.329959 78.8177059,161.426524 78.6931551,161.41716" id="Fill-99" fill="#F6891E"></path>
                <path d="M71.8886441,163.064265 C71.548322,163.644239 71.2156017,164.214265 70.8635847,164.810041 C70.8700169,164.810626 70.8746949,164.810626 70.8811271,164.811211 C71.2214492,164.231237 71.5547542,163.661211 71.9073559,163.06485 C71.9009237,163.06485 71.8950763,163.064265 71.8886441,163.064265" id="Fill-100" fill="#F6891E"></path>
                <path d="M70.9818203,161.657753 C71.5151085,161.679407 72.0209136,161.713936 72.5775915,161.740272 C72.6875237,161.587524 72.7717271,161.475158 72.8623627,161.355183 C72.9483203,161.236379 72.9717102,161.149763 72.9553373,161.08012 C72.9395492,161.102359 72.9278542,161.11699 72.9103119,161.140985 C72.3542186,161.114649 71.8478288,161.08012 71.3151254,161.058466 C69.5912949,161.004038 70.0549983,160.796863 69.3141254,161.89302 C69.2597441,161.977295 69.2351847,162.045768 69.232261,162.102537 C69.6298881,161.458771 69.505922,161.610934 70.9818203,161.657753" id="Fill-101" fill="#F6891E"></path>
                <path d="M84.9009331,161.765789 C83.8349415,161.722481 82.7835686,161.663957 81.7333653,161.606018 C81.6035517,161.593142 81.4649669,161.569148 81.2298992,161.534618 C81.0755263,161.728333 80.9258314,161.917366 80.7644415,162.115178 C81.115289,162.162583 81.2445178,162.190089 81.4000602,162.20472 C82.4508483,162.26383 83.5016364,162.321768 84.567628,162.365076 C84.6769754,162.370344 84.9740263,162.2293 85.0079415,162.153219 C85.1833653,161.82841 85.3856873,161.500089 85.5564331,161.174109 C85.4827551,161.301107 85.4090771,161.427519 85.3406619,161.553931 C85.3067466,161.630013 85.0102805,161.770471 84.9009331,161.765789" id="Fill-102" fill="#F6891E"></path>
                <path d="M72.7606169,160.309239 C72.1191508,160.310995 71.4841169,160.248959 70.8648712,160.199799 C70.7286254,160.186338 70.5415068,160.126059 70.5128542,160.083336 C70.3959051,160.276466 70.2625831,160.46784 70.168439,160.664481 C70.1415407,160.705448 70.3760237,160.78387 70.5321508,160.798501 C71.1513966,160.848247 71.7858458,160.910282 72.4278966,160.908527 C72.7816678,160.910868 72.9301932,160.969977 72.9553373,161.080003 C73.0418797,160.961198 73.1190661,160.857025 73.1956678,160.756364 C73.4161169,160.450282 73.3401,160.312751 72.7606169,160.309239" id="Fill-103" fill="#CC6917"></path>
                <path d="M69.7686483,162.334468 C69.4031822,162.323934 69.2230805,162.260728 69.2324364,162.102712 C69.1651907,162.210982 69.0874195,162.335053 68.9815805,162.492483 C68.7763347,162.81027 68.9377246,162.91971 69.435928,162.933756 C70.2469703,162.969455 71.0433941,163.020957 71.8883517,163.064265 C72.0053008,162.865282 72.1193263,162.670397 72.2403686,162.466148 C71.3878093,162.422254 70.5855381,162.370753 69.7686483,162.334468" id="Fill-104" fill="#CC6917"></path>
                <path d="M78.6377797,158.755539 C77.9296525,158.723936 77.1566186,159.013631 76.622161,159.60531 C76.1526102,160.117982 75.8111186,160.65816 75.3737288,161.252181 C75.4064746,161.253936 75.4339576,161.255107 75.4667034,161.256863 C75.7257458,160.892257 75.9824492,160.538771 76.2888559,160.204598 C76.8233136,159.612919 77.5963475,159.323224 78.3044746,159.354827 C79.2383136,159.388186 79.6985085,159.681977 79.5493983,160.328669 C79.4803983,160.634751 79.3254407,160.94844 79.1564492,161.2633 C79.1605424,161.259204 79.1704831,161.254522 79.172822,161.250425 C79.4406356,160.741265 79.7704322,160.226252 79.8821186,159.729967 C80.0312288,159.083275 79.5716186,158.788898 78.6377797,158.755539" id="Fill-105" fill="#CC6917"></path>
                <path d="M91.5761568,160.978814 C91.4323093,161.235735 91.2124449,161.328204 90.784411,161.301282 C89.9821398,161.249781 89.16525,161.213496 88.265911,161.159654 C88.0916568,161.419501 87.9402076,161.656524 87.7466568,161.94973 C87.7665381,161.951486 87.7846653,161.952656 87.8045466,161.953827 C87.8472331,161.88945 87.88875,161.825074 87.9331907,161.758941 C88.8325297,161.812784 89.6494195,161.849069 90.4511059,161.90057 C90.8797246,161.927491 91.099589,161.835023 91.2428517,161.578102 C91.4890297,161.142682 91.6615297,160.90683 91.6966144,160.77398 C91.6568517,160.841282 91.6211822,160.898636 91.5761568,160.978814" id="Fill-106" fill="#CC6917"></path>
                <path d="M84.5257602,158.570662 C83.8076924,158.648499 83.2638788,158.922392 82.9352517,159.279389 C82.2826754,160.003919 81.7306754,160.740738 81.0979805,161.515598 C81.1570398,161.523206 81.1815992,161.527888 81.2295483,161.534911 C81.6786331,160.970738 82.1154381,160.41827 82.6019466,159.878677 C82.9305737,159.521679 83.474972,159.248372 84.1924551,159.169949 C85.72215,159.006081 86.0583788,159.580204 85.8730144,160.377303 C85.8174636,160.638321 85.6970059,160.905191 85.5566669,161.174402 C85.8285737,160.705038 86.1092517,160.232748 86.2057347,159.778015 C86.3910992,158.980916 86.0548703,158.406794 84.5257602,158.570662" id="Fill-107" fill="#CC6917"></path>
                <path d="M88.6364059,163.349746 C88.0803127,163.32341 87.5353297,163.29883 86.9166686,163.277176 C86.4354229,164.057303 85.9810754,164.796463 85.4735161,165.616972 C84.7519398,165.499338 84.0625246,165.40687 83.4304144,165.270509 C83.3128805,165.245344 83.2941686,165.036997 83.3549822,164.919949 C83.8724822,163.99 84.0619398,163.956056 82.2954229,163.874122 C79.9371432,163.757659 77.582372,163.623053 75.2199992,163.496641 C74.2896686,163.445725 73.9113381,163.596718 73.5511347,164.170254 C73.0581941,164.947455 73.0581941,164.947455 71.820872,164.876641 C71.5419483,164.86201 71.2677025,164.840356 70.8811856,164.811679 C70.7648212,165.010076 70.6507958,165.205547 70.5303381,165.409796 C70.9273805,165.439059 71.2039653,165.461298 71.4875669,165.475929 C72.7254737,165.546743 72.7254737,165.546743 73.2178297,164.769542 C73.5786178,164.196005 73.9563636,164.045013 74.8866941,164.095929 C77.2490669,164.222926 79.6038381,164.356947 81.9621178,164.47341 C83.7292195,164.555929 83.5391771,164.589288 83.0216771,165.519237 C82.9608636,165.636285 82.9801602,165.845216 83.0971093,165.870382 C83.7292195,166.006158 84.4192195,166.098626 85.140211,166.21626 C85.6483551,165.395751 86.1027025,164.65659 86.5833636,163.877048 C87.2020246,163.898117 87.7470076,163.922697 88.3036856,163.949033 C90.0818975,164.033893 89.6404144,164.162061 90.3426941,163.104529 C90.3918127,163.026107 90.4181263,162.962901 90.4222195,162.910814 C90.0620161,163.515369 90.1362788,163.421145 88.6364059,163.349746" id="Fill-108" fill="#CC6917"></path>
                <path d="M85.0077661,162.152985 C84.9738508,162.229066 84.6768,162.370109 84.5680373,162.365427 C83.501461,162.32212 82.4506729,162.263595 81.3998847,162.205071 C81.2443424,162.189855 81.1156983,162.162349 80.7648508,162.114944 C80.9262407,161.917132 81.0759356,161.728099 81.2297237,161.534969 C81.1817746,161.527947 81.1572153,161.523265 81.0975712,161.515656 C81.7308508,160.740211 82.2822661,160.003977 82.9354271,159.279448 C83.2640542,158.92245 83.8078678,158.648557 84.5259356,158.57072 C86.0550458,158.406852 86.3912746,158.980975 86.2059102,159.778074 C86.1094271,160.232807 85.8281644,160.705097 85.5562576,161.174461 C85.3855119,161.50044 85.1837746,161.828761 85.0077661,162.152985 M79.1725881,161.250542 C79.1702492,161.254053 79.1603085,161.259321 79.1562153,161.262832 C79.0515458,161.458303 78.9421983,161.654359 78.8398678,161.84983 C78.8018593,161.915962 78.4925288,162.026573 78.3603763,162.016623 C77.3060797,161.975656 76.2547068,161.917132 75.0407746,161.851585 C75.1928085,161.644995 75.3284695,161.451865 75.4664695,161.25698 C75.4337237,161.255224 75.4068254,161.254053 75.3734949,161.251712 C75.8108847,160.658277 76.1523763,160.117514 76.6219271,159.604842 C77.1569695,159.013748 77.9294186,158.724053 78.6375458,158.755656 C79.5713847,158.789015 80.0315797,159.082807 79.8824695,159.729499 C79.7701983,160.226369 79.4404017,160.740796 79.1725881,161.250542 M88.2659695,161.15983 C89.1653085,161.213672 89.9821983,161.249957 90.7838847,161.300873 C91.2125034,161.327794 91.4323678,161.235911 91.5762153,160.97899 C91.6212407,160.898812 91.6569102,160.841458 91.6966729,160.774155 C91.7569017,160.547667 91.4154102,160.622578 90.3353847,160.537132 C90.2383169,160.534791 90.1529441,160.534791 90.063478,160.524842 C88.5957661,160.441738 88.6583339,160.436471 89.0126898,159.52759 C89.7892322,157.584003 88.3472492,156.436929 84.7586644,156.697947 C83.7798,156.76642 82.9728508,157.10469 82.2729102,157.57698 C82.0688339,157.70983 81.9004271,157.849702 81.677639,158.015911 C81.2320627,157.194817 80.1508678,156.925606 78.6316983,157.008125 C77.0078593,157.095911 75.8945034,157.71217 74.9858085,158.520389 C74.7022068,158.775555 74.4536898,159.038328 74.2484441,159.301102 C74.0578169,159.548659 73.8496475,159.670975 73.3824356,159.626496 C72.7245966,159.559193 72.0275797,159.530517 71.3352407,159.511789 C71.1644949,159.512374 70.8423,159.563875 70.7890881,159.617132 C70.6791559,159.771636 70.6066475,159.928481 70.5130881,160.082985 C70.5417407,160.125707 70.7288593,160.186573 70.8651051,160.199448 C71.4843508,160.249193 72.1188,160.311229 72.7608508,160.309473 C73.3403339,160.312985 73.4163508,160.449931 73.1959017,160.756013 C73.1187153,160.85726 73.0421136,160.960847 72.9555712,161.080237 C72.9719441,161.14988 72.9485542,161.236496 72.8625966,161.3553 C72.7713763,161.475275 72.6877576,161.587641 72.5778254,161.740389 C72.0211475,161.714053 71.5147576,161.679524 70.9820542,161.65787 C69.5055712,161.611051 69.630122,161.458303 69.2319102,162.102654 C69.223139,162.260669 69.4032407,162.323875 69.7687068,162.33441 C70.5855966,162.370695 71.3878678,162.422196 72.2404271,162.466089 C72.1193847,162.670338 72.0053593,162.865224 71.8884102,163.064206 C71.8954271,163.064791 71.9006898,163.064791 71.907122,163.065377 C71.5551051,163.661156 71.2218,164.231178 70.881478,164.811153 C71.2674102,164.840415 71.5416559,164.862069 71.8205797,164.8767 C73.0584864,164.947514 73.0584864,164.947514 73.5508424,164.170313 C73.9110458,163.596776 74.2893763,163.445198 75.2197068,163.4967 C77.5820797,163.623112 79.9368508,163.757718 82.2951305,163.874181 C84.0622322,163.956115 83.8721898,163.990059 83.3546898,164.920008 C83.294461,165.037056 83.3131729,165.245402 83.430122,165.270567 C84.0622322,165.406929 84.7522322,165.499397 85.4738085,165.617031 C85.9813678,164.796522 86.4357153,164.057361 86.9163763,163.277234 C87.5350373,163.298888 88.0800203,163.323468 88.6366983,163.349804 C90.1365712,163.421204 90.0623085,163.515427 90.4219271,162.910873 C90.433622,162.755784 90.2470881,162.704868 89.888639,162.690822 C89.0758424,162.665071 88.2817576,162.605377 87.4134102,162.549193 C87.5578424,162.330313 87.6800542,162.14245 87.8046051,161.953417 C87.7847237,161.952247 87.7665966,161.951076 87.7467153,161.949906 C87.9402661,161.6567 88.0917153,161.419677 88.2659695,161.15983" id="Fill-109" fill="#F6891E"></path>
                <polygon id="Fill-110" fill="#FAAD18" points="103.210785 111.52185 100.556039 24.6397888 95.8821661 24.783173 98.5363271 111.664649"></polygon>
                <polygon id="Fill-111" fill="#F8DA5D" points="97.4758322 45.5232621 96.818578 24.0086056 98.3722475 24.4130076 99.0178068 45.549598"></polygon>
                <path d="M100.968343,112.382858 L99.6292754,68.560542 L97.9428686,68.6120433 L99.2538686,111.521382 C99.2538686,111.521382 99.5018008,112.427921 100.968343,112.382858" id="Fill-112" fill="#F8CE1A"></path>
                <polygon id="Fill-113" fill="#F8DA5D" points="98.0880025 66.1836412 99.4451975 66.1420891 98.8703924 47.3289084 97.4594008 47.3722163"></polygon>
                <path d="M98.536561,111.664766 C98.536561,111.664766 98.9359424,113.730669 101.245688,113.659855 C103.042612,113.604842 103.403985,111.516115 103.403985,111.516115 L98.536561,111.664766 Z" id="Fill-114" fill="#E08726"></path>
                <polygon id="Fill-115" fill="#FAAD18" points="96.9570458 69.1198575 102.403953 68.9530636 104.38858 66.9913333 94.8560542 67.2827837"></polygon>
                <polygon id="Fill-116" fill="#F89A1C" points="96.8414415 65.3400738 102.288933 65.1732799 104.38934 67.0103537 94.8568144 67.3023893"></polygon>
                <path d="M95.6510746,48.1171705 L102.096727,47.919944 C102.431786,47.564117 102.618905,47.3645496 102.95338,47.0087226 L94.7406254,47.2603766 C95.0961508,47.5945496 95.2955492,47.7824122 95.6510746,48.1171705" id="Fill-117" fill="#F8DA5D"></path>
                <path d="M94.703728,46.0559491 L102.916482,45.8048804 C102.560957,45.4701221 102.362143,45.2822595 102.006033,44.9475013 L95.5603805,45.1447277 C95.2259059,45.5005547 95.0382025,45.7001221 94.703728,46.0559491" id="Fill-118" fill="#FAAD18"></path>
                <polyline id="Fill-119" fill="#F89A1C" points="94.703728 46.0559491 94.7405669 47.2603766 102.953321 47.0087226 102.916482 45.8048804"></polyline>
                <polygon id="Fill-120" fill="#F8CE1A" points="99.3945585 67.5292875 96.005372 67.6328753 97.2935669 68.7343003 99.4296432 68.6687532"></polygon>
                <polygon id="Fill-121" fill="#F8DA5D" points="101.967908 68.5817277 103.200552 67.3023893 101.843357 67.3439415 101.131136 68.6250356"></polygon>
                <polygon id="Fill-122" fill="#FAAD18" points="115.166672 91.2089873 115.283036 95.0224224 109.546681 97.8116845 115.363147 97.633771 115.51635 102.651634 109.699884 102.829547 113.736384 104.493389 115.595875 105.260641 115.712825 109.076417 103.737816 104.219496 101.889435 103.469802 101.711672 97.6478168"></polygon>
                <path d="M106.156208,15.1441247 C106.286606,19.4122926 102.934258,22.979341 98.6697076,23.1098499 C94.4051568,23.2397735 90.8417161,19.8851679 90.7107331,15.617 C90.5803347,11.3482468 93.9326822,7.78178372 98.1978178,7.65127481 C102.462369,7.5207659 106.025809,10.8759567 106.156208,15.1441247 M85.7427331,15.7685776 C85.9573347,22.783285 91.8129788,28.2950916 98.8217415,28.0803079 C105.829919,27.8661094 111.337055,22.0066692 111.123038,14.9919618 C110.908436,7.97725445 105.053962,2.46427735 98.0457839,2.67906107 C91.0370212,2.89325954 85.5287161,8.75445547 85.7427331,15.7685776" id="Fill-123" fill="#FAAD18"></path>
                <polygon id="Fill-124" fill="#E08726" points="103.737582 104.219789 113.799887 106.582995 113.73615 104.493097 115.596226 105.260349 115.712591 109.076125"></polygon>
                <polygon id="Fill-125" fill="#E08726" points="113.52839 97.6898372 115.363322 97.6336539 115.516525 102.651517 113.681593 102.7077"></polygon>
                <polygon id="Fill-126" fill="#F8CE1A" points="102.847892 99.1692112 113.50079 94.1051145 113.537629 92.8913232 102.699366 97.9062595"></polygon>
                <path d="M98.0349076,23.578687 C99.3710517,24.9698066 109.774848,23.600341 109.213492,14.6970585 C108.679619,6.22861069 98.8892212,5.59186768 97.5337805,7.17553181 C99.3043907,6.57039186 106.634764,7.76487023 106.852289,14.8790687 C107.087357,22.5855318 99.9481958,24.043369 98.0349076,23.578687" id="Fill-127" fill="#F89A1C"></path>
                <path d="M92.4549712,25.6224682 C92.4549712,25.6224682 93.3034373,23.6683461 93.8279542,22.825598 C92.5432678,22.2040712 91.5111915,20.8580153 91.5111915,20.8580153 L89.2049542,22.857201 C89.2049542,22.857201 90.5563017,24.7440204 92.4549712,25.6224682" id="Fill-128" fill="#F8DA5D"></path>
                <path d="M92.3456237,25.1989873 L92.7151831,24.2374351 C92.7151831,24.2374351 90.7890305,22.4506921 90.5048441,22.1563155 C89.8095814,22.811201 89.6476068,22.9264936 89.6476068,22.9264936 C89.6476068,22.9264936 90.6445983,24.4797252 92.3456237,25.1989873" id="Fill-129" fill="#FFE786"></path>
                <path d="M88.8528203,22.1118957 L90.1544644,21.0877226 C90.1544644,21.0877226 89.0902271,19.5011323 88.5826678,17.420598 C87.3207864,17.6494275 87.0401085,17.8173919 87.0401085,17.8173919 C87.0401085,17.8173919 87.0705153,19.8481807 88.8528203,22.1118957" id="Fill-130" fill="#FFFFFF"></path>
                <path d="M86.9364331,15.26843 C86.9364331,15.26843 86.9381873,9.92400254 92.1219585,6.62499491 C97.3057297,3.32598728 103.571281,4.78675064 104.02095,5.10395165 C104.187603,4.54797201 96.1748314,1.74466412 90.4121619,6.51204326 C86.1873737,10.0076921 86.9364331,15.26843 86.9364331,15.26843" id="Fill-131" fill="#F8DA5D"></path>
                <polygon id="Fill-132" fill="#F8CE1A" points="108.682543 101.818249 112.80734 101.691837 112.766992 100.370947"></polygon>
                <path d="M187.769642,86.0786997 C187.769642,104.972059 172.46626,120.28842 153.588328,120.28842 C134.710981,120.28842 119.407599,104.972059 119.407599,86.0786997 C119.407599,67.1847557 134.710981,51.8683944 153.588328,51.8683944 C172.46626,51.8683944 187.769642,67.1847557 187.769642,86.0786997" id="Fill-133" fill="#2F57A3"></path>
                <path d="M153.891811,63.0919847 C153.627506,63.0919847 153.364955,63.0978372 153.102989,63.1066158 C164.693819,64.5117812 173.67493,74.3912468 173.67493,86.3705598 C173.67493,99.0504071 163.613794,109.376412 151.046438,109.793104 C151.979108,109.906056 152.928735,109.965751 153.891811,109.965751 C166.824633,109.965751 177.30854,99.4729517 177.30854,86.5285751 C177.30854,73.5847837 166.824633,63.0919847 153.891811,63.0919847" id="Fill-134" fill="#2285E0"></path>
                <path d="M173.67493,86.3707354 C173.67493,74.3908372 164.693819,64.5119567 153.102989,63.1067913 C140.535633,63.5228982 130.475082,73.8489033 130.475082,86.5287506 C130.475082,98.5086489 139.455608,108.387529 151.046438,109.792695 C163.613794,109.376588 173.67493,99.0505827 173.67493,86.3707354" id="Fill-135" fill="#4A9FE4"></path>
                <path d="M153.498394,77.8358626 C153.397233,77.8358626 153.296072,77.8382036 153.194911,77.841715 C157.654767,78.3824784 161.110614,82.1836234 161.110614,86.7929873 C161.110614,91.6721476 157.239597,95.6453537 152.40375,95.8057099 C152.762784,95.8490178 153.127665,95.8718422 153.498394,95.8718422 C158.474581,95.8718422 162.508742,91.8342595 162.508742,86.8538524 C162.508742,81.8734453 158.474581,77.8358626 153.498394,77.8358626" id="Fill-136" fill="#2285E0"></path>
                <path d="M161.110614,86.7931043 C161.110614,82.1837405 157.654767,78.3820102 153.194911,77.8418321 C148.359064,78.0016031 144.488047,81.9753944 144.488047,86.8539695 C144.488047,91.4633333 147.943894,95.2650636 152.40375,95.8052417 C157.239597,95.6448855 161.110614,91.6716794 161.110614,86.7931043" id="Fill-137" fill="#FFFFFF"></path>
                <path d="M152.637824,98.2673537 L152.637824,103.436794" id="Stroke-138" stroke="#2F57A3" stroke-width="1.3" stroke-linecap="round" stroke-linejoin="round"></path>
                <path d="M152.637824,69.1678473 L152.637824,74.7908499" id="Stroke-139" stroke="#2F57A3" stroke-width="1.3" stroke-linecap="round" stroke-linejoin="round"></path>
                <path d="M141.626418,85.8763817 L136.461358,85.8670178" id="Stroke-140" stroke="#2F57A3" stroke-width="1.3" stroke-linecap="round" stroke-linejoin="round"></path>
                <path d="M170.701264,85.9278244 L165.083026,85.9178753" id="Stroke-141" stroke="#2F57A3" stroke-width="1.3" stroke-linecap="round" stroke-linejoin="round"></path>
                <path d="M147.122677,96.3656107 L144.675516,100.917621" id="Stroke-142" stroke="#2F57A3" stroke-width="1.3" stroke-linecap="round" stroke-linejoin="round"></path>
                <path d="M160.896188,70.7381094 L158.234425,75.6904249" id="Stroke-143" stroke="#2F57A3" stroke-width="1.3" stroke-linecap="round" stroke-linejoin="round"></path>
                <path d="M143.290136,80.2320178 L138.746077,77.775173" id="Stroke-144" stroke="#2F57A3" stroke-width="1.3" stroke-linecap="round" stroke-linejoin="round"></path>
                <path d="M168.87136,94.0629186 L163.927919,91.3901196" id="Stroke-145" stroke="#2F57A3" stroke-width="1.3" stroke-linecap="round" stroke-linejoin="round"></path>
                <path d="M142.682878,91.8125471 L138.267463,94.4947099" id="Stroke-146" stroke="#2F57A3" stroke-width="1.3" stroke-linecap="round" stroke-linejoin="round"></path>
                <path d="M167.536853,76.712257 L162.733752,79.6302723" id="Stroke-147" stroke="#2F57A3" stroke-width="1.3" stroke-linecap="round" stroke-linejoin="round"></path>
                <path d="M147.552114,75.9615674 L144.879826,71.5377252" id="Stroke-148" stroke="#2F57A3" stroke-width="1.3" stroke-linecap="round" stroke-linejoin="round"></path>
                <path d="M162.595635,100.863486 L159.688279,96.0510433" id="Stroke-149" stroke="#2F57A3" stroke-width="1.3" stroke-linecap="round" stroke-linejoin="round"></path>
                <path d="M150.054125,55.1443435 L152.34165,60.3085165 C152.653319,61.0131476 153.656743,61.0008575 153.951455,60.2886183 L156.140158,54.9992036 L150.054125,55.1443435 Z" id="Fill-150" fill="#171A36"></path>
            </g>
            <g id="Group-188">
                <mask id="mask-4" fill="white">
                    <use xlink:href="#path-3"></use>
                </mask>
                <g id="Mask"></g>
                <g mask="url(#mask-4)">
                    <g transform="translate(-31.000000, 32.922753)">
                        <g id="Group-154" transform="translate(43.867925, 0.000000)">
                            <path d="M0.350767925,40.310189 C0.350767925,40.310189 29.6832019,21.7801191 35.312334,19.2018091 C40.941466,16.6240832 73.175617,1.49301323 78.0584094,0.423487713 C82.9417868,-0.646037807 99.6800321,7.26529679 108.023126,21.5680832 C109.992504,24.9431342 112.670202,46.0077051 110.551089,48.623983 C108.431975,51.2402609 101.186164,48.0836711 99.4320321,42.5491248 C97.6779,37.0157467 95.6488623,27.7755369 94.5708811,25.3216446 C93.4934849,22.8677524 84.0045604,16.9593686 83.0640321,17.0814499 C77.0400887,17.8630038 70.2569377,24.9980416 70.2569377,24.9980416" id="Fill-152" fill="#FF9E5C"></path>
                        </g>
                        <g id="Group-157" transform="translate(107.037736, 14.018904)">
                            <path d="M44.7473302,29.0695985 C41.7257075,27.0205021 40.1061038,23.4877384 38.9111415,20.1646741 C37.6185,16.5694095 37.2646321,12.3462147 34.9981226,9.18962495 C33.7452547,7.44485558 31.982934,6.18607486 30.2235377,4.99680454 C28.4641415,3.80753422 26.7889717,2.40798034 24.9383302,1.37467032 C21.8868774,-0.329794707 18.6775,0.138670321 15.434783,0.919055955 C13.506934,1.38284802 11.6516132,2.2204775 10.0238208,3.34841512 C5.95170755,6.16971947 0.173424528,12.0979633 0.173424528,12.0979633 L0.186292453,12.4910767 L7.08700943,10.9793716 C7.08700943,10.9793716 13.6280094,6.27953422 19.6519528,5.49798034 C20.5924811,5.37589905 29.1730472,9.61544915 30.2510283,12.0693414 C31.3284245,14.5232336 34.5085566,22.9970767 36.2626887,28.5304548 C38.0168208,34.064417 42.5305377,41.5399974 44.6496509,38.9237195 C45.1275189,38.3343414 47.9157642,34.4230673 47.9882925,32.1046911 C47.253066,30.3733565 46.2382547,30.0801278 44.7473302,29.0695985" id="Fill-155" fill="#E76A18"></path>
                        </g>
                        <g id="Group-160" transform="translate(40.943396, 22.196597)">
                            <path d="M21.8057509,46.0669934 C21.8057509,46.0669934 35.9990717,32.1976248 40.6005245,29.8447854 C45.2019774,27.4919461 53.9580151,29.3401049 62.0384868,28.1081938 C70.1183736,26.8762826 79.3142604,24.5929537 85.3311849,26.2343336 C91.3486943,27.8751295 103.0316,34.4628459 107.858242,33.1363072 C112.684883,31.8103526 114.925072,27.7612259 109.60243,21.4556399 C102.320355,12.8287571 83.637883,8.5196966 80.6460906,7.35379112 C75.3433358,5.28717108 74.2407887,1.49330529 69.1076566,0.197140832 C63.9739396,-1.10019187 24.644883,9.93560586 24.644883,9.93560586 L6.18993962,16.6681843 L0.3286,20.6419594 L21.8057509,46.0669934 Z" id="Fill-158" fill="#FF9E5C"></path>
                        </g>
                        <g id="Group-163" transform="translate(54.396226, 39.720227)">
                            <path d="M94.4054698,15.6128529 C83.7373755,13.6455335 75.0006396,4.5297414 70.3500547,4.20321777 C65.6988849,3.87727826 55.4577717,0.562975803 45.3488472,0.35269225 C39.2757717,0.226522117 25.2064509,2.25517429 22.2912811,3.7002896 C19.5293566,5.07005331 2.06699811,17.6233974 0.23975283,18.9388378 L8.35297925,28.5435391 C8.35297925,28.5435391 22.5463,14.6741705 27.1477528,12.3213312 C31.7492057,9.96790775 40.5052434,11.8160665 48.5857151,10.5847395 C56.6656019,9.35282836 65.8614887,7.06949943 71.8784132,8.7108794 C77.8959226,10.3516752 89.5788283,16.9393917 94.4054698,15.6128529" id="Fill-161" fill="#E76A18"></path>
                        </g>
                        <g id="Group-166" transform="translate(35.094340, 37.967864)">
                            <polygon id="Fill-164" fill="#FFFFFF" points="0.386154717 4.25643119 9.18723019 0.176346125 30.1052113 31.6417752 21.9487019 39.8848905"></polygon>
                        </g>
                        <g id="Group-169" transform="translate(43.867925, 45.561437)">
                            <polygon id="Fill-167" fill="#C3D8E3" points="0.313333962 6.33619395 14.5581264 30.8938083 21.3319189 24.0484945 5.5248434 0.271265784"></polygon>
                        </g>
                        <g id="Group-172" transform="translate(0.000000, 39.136106)">
                            <polygon id="Fill-170" fill="#4A7AC6" points="5.8490566e-05 15.7018146 35.6313415 0.0958542533 60.7857943 37.3586841 12.2620208 81.3447465"></polygon>
                        </g>
                        <g id="Group-175" transform="translate(1.169811, 51.402647)">
                            <path d="M59.615866,25.0922603 L43.0115642,0.494925709 L40.5122623,2.62579905 C29.5218849,11.9939314 16.3299226,18.4215987 2.17169623,21.305404 L0.366677358,78.8389843 L59.615866,25.0922603 Z" id="Fill-173" fill="#2F57A3"></path>
                        </g>
                        <g id="Group-178" transform="translate(43.867925, 67.173913)">
                            <path d="M8.57799245,3.60326711 C9.07633208,5.87140888 7.63863396,8.11326522 5.36744528,8.61035217 C3.0962566,9.10802325 0.851973585,7.672838 0.353633962,5.40469622 C-0.14470566,3.13655444 1.29240755,0.89469811 3.56359623,0.397611153 C5.83478491,-0.100059924 8.07965283,1.33512533 8.57799245,3.60326711" id="Fill-176" fill="#FFCA05"></path>
                        </g>
                        <g id="Group-181" transform="translate(44.452830, 67.758034)">
                            <path d="M5.81823208,0.208940076 C6.02119434,0.566422117 6.19140189,0.947853119 6.28381698,1.37017259 C6.7821566,3.63831437 5.34445849,5.87958658 3.07385472,6.37725766 C2.0695717,6.59747127 1.07932642,6.42223497 0.234137736,5.98180775 C1.12026981,7.54433138 2.93464717,8.43102703 4.78236415,8.02623119 C7.05355283,7.52914423 8.49125094,5.2872879 7.99291132,3.01914612 C7.71508113,1.75394008 6.88451509,0.765023251 5.81823208,0.208940076" id="Fill-179" fill="#F6921E"></path>
                        </g>
                        <g id="Group-184" transform="translate(137.452830, 42.640832)">
                            <path d="M3.40578868,0.443406238 C1.1656,1.08769168 -0.885079245,4.20806597 0.618128302,7.37575406 C2.12250566,10.5434422 8.29618491,12.2847068 9.83858113,11.9470849 C11.3803925,11.6094629 14.9290151,8.14212079 13.794883,5.43121531 C12.6607509,2.72030983 7.33284528,-0.685699622 3.40578868,0.443406238" id="Fill-182" fill="#F7A584"></path>
                        </g>
                        <g id="Group-187" transform="translate(137.452830, 42.640832)">
                            <path d="M9.83834717,11.9469681 C10.3612528,11.8324803 11.1134415,11.3535011 11.8363849,10.6712478 C11.3433094,10.5550078 10.9139887,10.4522025 10.6478566,10.3587431 C8.29595094,9.5292913 5.38721509,8.11279792 4.07176226,5.81895482 C3.0832717,4.09404556 3.01425283,1.48652949 4.69819623,0.240599433 C4.25717736,0.264548393 3.82259245,0.324128733 3.40555472,0.443289414 C1.16536604,1.08757486 -0.885313208,4.20794915 0.618479245,7.37563724 C2.1222717,10.5433253 8.29595094,12.28459 9.83834717,11.9469681" id="Fill-185" fill="#EF9778"></path>
                        </g>
                    </g>
                </g>
            </g>
        </g>
    </g>
</svg>