<?xml version="1.0" encoding="UTF-8"?>
<svg width="50px" height="50px" viewBox="0 0 50 50" version="1.1" xmlns="http://www.w3.org/2000/svg" xmlns:xlink="http://www.w3.org/1999/xlink">
    <!-- Generator: Sketch 52.6 (67491) - http://www.bohemiancoding.com/sketch -->
    <title>Brand/Icon/BurgerKing</title>
    <desc>Created with Sketch.</desc>
    <defs>
        <polygon id="path-1" points="0 0 50.9997167 0 50.9997167 50.9915 0 50.9915"></polygon>
    </defs>
    <g id="Brand/Icon/BurgerKing" stroke="none" stroke-width="1" fill="none" fill-rule="evenodd">
        <rect fill="#FFFFFF" x="0" y="0" width="50" height="50"></rect>
        <g id="BurgerKing_logo" transform="translate(0.000000, -0.500000)">
            <g id="Group-3">
                <mask id="mask-2" fill="white">
                    <use xlink:href="#path-1"></use>
                </mask>
                <g id="Clip-2"></g>
                <path d="M0,25.5 C0,11.4164917 11.41635,0 25.4998583,0 C39.583225,0 50.9997167,11.4164917 50.9997167,25.5 C50.9997167,39.5833667 39.583225,51 25.4998583,51 C11.41635,51 0,39.5833667 0,25.5" id="Fill-1" fill="#FFFFFE" mask="url(#mask-2)"></path>
            </g>
            <path d="M36.858125,8.85161667 C36.9665,8.586275 36.746775,8.32560833 36.746775,8.32560833 C36.746775,8.32560833 35.0239667,5.395375 28.9296083,4.745125 C25.6664583,4.39719167 21.2239333,5.05806667 18.1093917,6.73681667 C12.4679417,9.77698333 11.6231833,14.784475 11.6231833,14.784475 C11.59145,14.9070167 11.5376167,15.280875 11.6644083,15.439825 C11.7936083,15.60175 11.9814583,15.5992 12.214075,15.5207167 C14.2061917,14.8483667 20.14075,12.879625 23.8859917,11.8861167 C29.215775,10.4725667 33.5942667,9.61250833 36.40465,9.13424167 C36.6036917,9.10024167 36.7827583,9.03493333 36.858125,8.85161667" id="Fill-4" fill="#F4B827"></path>
            <path d="M42.944125,32.4528583 C39.7545,39.6185 33.634075,44.604175 25.6133333,44.7175083 C19.772275,44.7999583 14.6173083,42.798775 10.894875,39.3093833 L8.64350833,40.2718667 L8.64676667,36.7863 C6.19366667,33.47725 4.77175833,29.2921333 4.77175833,24.537375 C4.77175833,12.359425 14.0982417,2.75995 27.1072083,2.75995 C29.2305083,2.75995 31.1491,3.09088333 32.5972167,3.41855833 C30.367525,2.70498333 28.1522833,2.31823333 25.6858667,2.31823333 C11.72575,2.31823333 2.33041667,13.6388167 2.33013333,25.313425 C2.32970833,38.03495 12.3102667,48.6919667 25.4096167,48.6919667 C37.9216167,48.6919667 44.672175,39.8706667 46.8310333,34.56525 L42.944125,32.4528583" id="Fill-5" fill="#005C9C"></path>
            <path d="M39.705625,29.9371417 C41.541625,29.7276167 42.8118083,28.9903833 43.5095167,28.3051417 C44.1446083,27.6813833 44.2932167,26.82175 44.2936417,26.1831167 C44.319425,25.2451417 44.2936417,22.284875 44.2936417,22.284875 L39.4354667,23.336325 C39.4354667,23.336325 39.435325,23.702675 39.4337667,24.4705083 C39.4422667,25.2214833 39.8047917,25.6297667 40.591325,25.485125 C40.8383917,25.4454583 41.2183417,25.32405 41.2183417,25.32405 L41.2244333,26.2514 C41.2206083,26.225475 41.2961167,26.7689083 40.0714083,27.0113 C38.4694417,27.2627583 37.7415583,26.2769 37.721725,24.5349667 C37.7543083,22.6672333 38.8095833,21.5901417 40.0901083,21.2961833 C41.5307167,20.965675 42.3468583,21.309075 42.8266833,21.3820333 C44.4353083,21.62315 44.8917583,19.21 43.4279167,18.6446083 C42.3458667,18.2087 40.94195,18.12965 39.603625,18.39655 C37.8163583,18.7532667 34.3018917,20.2488417 34.2926833,25.1092833 C34.3011833,28.9711167 37.1491083,30.2292583 39.705625,29.9371417" id="Fill-6" fill="#D8232A"></path>
            <path d="M23.9129083,34.076075 C23.9129083,34.076075 25.4031,33.56395 25.5328667,33.5191833 C26.7309417,33.1058 27.167275,32.3929333 27.1614667,31.1598667 C27.1467333,29.8214 27.1444667,27.2111917 27.1444667,27.2111917 L30.61105,31.203925 C31.1736083,31.7860333 31.8798167,31.8353333 32.52525,31.64635 C33.193775,31.450425 33.749675,30.8398417 33.7661083,29.9783667 C33.7719167,27.0943167 33.7638417,20.0549 33.7638417,20.0549 C33.7638417,20.0549 32.8693583,20.2453 32.1256083,20.4562417 C31.2699417,20.6989167 30.6121833,21.24405 30.6121833,22.68395 C30.6121833,23.1936667 30.6102,26.1189417 30.6102,26.1189417 C30.6102,26.1189417 28.659875,23.672925 27.3833167,22.3969333 C26.7016167,21.7155167 25.5736667,22.122525 25.5736667,22.122525 L23.9103583,22.624875 L23.9129083,34.076075" id="Fill-7" fill="#D8232A"></path>
            <path d="M22.8633,22.8831333 C22.8633,22.8831333 21.8195,23.1891333 20.9702083,23.496125 C19.8663417,23.8953417 19.23125,24.53355 19.23125,26.203375 C19.23125,27.7366333 19.22785,35.7189833 19.22785,35.7189833 C19.22785,35.7189833 20.1945833,35.3881917 21.0960083,35.048475 C22.3759667,34.5661 22.8597583,33.9070667 22.8597583,32.5616583 C22.8597583,31.4058 22.8633,22.8831333 22.8633,22.8831333" id="Fill-8" fill="#D8232A"></path>
            <path d="M17.6828333,25.1478167 C16.7244583,24.7126167 15.9023667,25.19825 15.5530167,25.7346 L12.6077667,30.7430833 L12.6026667,26.7053 L9.13126667,28.1436417 L9.12064167,39.563675 L11.565525,38.5384333 C11.565525,38.5384333 12.0462,38.4018667 12.3353417,37.94655 C12.601675,37.5275 12.5919,36.8234167 12.5919,36.8234167 L12.5951583,33.2028417 L15.3283333,36.1036083 C15.9284333,36.7266583 17.0311667,37.0452667 18.0037083,36.2602917 C18.8836,35.5496917 18.7476,34.338725 18.2572917,33.7957167 L15.7673583,31.2896333 C15.7673583,31.2896333 17.958375,27.8355167 18.3167917,27.2579417 C18.7920833,26.4922333 18.5530917,25.5425 17.6828333,25.1478167" id="Fill-9" fill="#D8232A"></path>
            <path d="M16.3226917,38.5710167 C16.1942,38.868375 16.4888667,39.163325 16.4888667,39.163325 C17.7525333,40.7495667 23.3631,42.7602417 29.4527833,41.287475 C38.7541917,39.0382333 40.7195333,32.4596583 40.9420917,31.5297583 C40.987425,31.340775 41.023975,31.035625 40.848025,30.8533 C40.7004083,30.700725 40.4906,30.6983167 40.2001833,30.7667417 C33.7404667,32.285125 22.9913667,35.566125 16.793875,38.2212417 C16.5271167,38.3355667 16.406275,38.377925 16.3226917,38.5710167" id="Fill-10" fill="#F4B827"></path>
            <path d="M10.80775,23.6046417 C10.7985417,22.9747917 10.30965,22.6318167 9.464325,23.05625 L9.4622,25.079675 C9.4622,25.079675 9.735475,24.9584083 9.93664167,24.8651917 C10.4304917,24.6361167 10.8188,24.223725 10.80775,23.6046417 Z M9.44718333,21.77615 C9.59791667,21.7169333 9.70813333,21.6670667 9.834925,21.6055833 C10.2932167,21.3826 10.61905,20.969075 10.6231583,20.4332917 C10.62755,19.8234167 10.1249167,19.6656 9.44775,20.0152333 L9.44718333,21.77615 Z M13.0269583,23.3156417 C13.053875,24.9125083 11.9039667,25.7620833 10.4049917,26.3832917 L7.3355,27.68705 L7.32799167,19.3707917 C7.32799167,19.3707917 9.26273333,18.5815667 9.89343333,18.35235 C11.687075,17.699975 12.7417833,18.4859417 12.7417833,19.6850083 C12.7417833,20.4847167 12.3999417,21.16415 11.6566167,21.7617 C12.3880417,21.88325 13.01265,22.4842 13.0269583,23.3156417 Z" id="Fill-11" fill="#D8232A"></path>
            <path d="M18.8544167,16.2960583 C18.8544167,15.5959417 18.3721833,15.409225 17.7899333,15.5765333 C17.3186083,15.7119667 16.769225,15.9263083 16.769225,15.9263083 L16.7659667,21.0964333 C16.7603,21.6113917 16.6809667,22.2558333 16.0464417,22.415775 C15.5593917,22.5386 15.3289,22.2131917 15.32805,21.69965 L15.32125,17.4676417 C15.32125,16.7637 14.8317917,16.5527583 14.2512417,16.7459917 C13.5977333,16.96345 13.2057417,17.1205583 13.2057417,17.1205583 C13.2057417,17.1205583 13.2121167,20.7819333 13.2041833,22.2454917 C13.1951167,23.9630583 14.3791667,24.81915 16.1832917,24.286625 C17.7740667,23.8167167 18.8365667,22.9252083 18.8566833,20.6397 L18.8544167,16.2960583" id="Fill-12" fill="#D8232A"></path>
            <path d="M35.9142,18.4328167 C36.3724917,18.3335083 36.6585167,18.0099417 36.6585167,17.4499333 C36.6585167,16.9446083 36.6605,16.5616833 36.6605,16.5616833 L34.1702833,17.1054 L34.1751,15.6407083 C34.1751,15.6407083 35.3959833,15.382025 35.73485,15.308075 C36.1607,15.2148583 36.3836833,14.9823833 36.3836833,14.495475 C36.3836833,14.0414333 36.3807083,13.6490167 36.3807083,13.6490167 L34.174675,14.1169417 L34.1732583,12.955275 C34.1732583,12.955275 35.3207583,12.7165667 35.939275,12.586375 C36.4202333,12.485225 36.5794667,12.1552833 36.5794667,11.7016667 C36.5794667,11.4062917 36.584425,10.820925 36.584425,10.820925 C35.4839583,11.0144417 33.3914,11.4340583 32.0872167,11.7319833 L32.0697917,19.3137 C32.0697917,19.3137 34.5496667,18.729325 35.9142,18.4328167" id="Fill-13" fill="#D8232A"></path>
            <path d="M21.5254,18.1261083 C21.5280917,18.1252583 22.7579,17.490025 22.7437333,16.4817833 C22.7318333,15.6198833 21.9386417,15.808725 21.5261083,15.9597417 L21.5254,18.1261083 Z M21.5290833,19.2955667 C21.5290833,19.2955667 21.52455,20.7482167 21.5231333,21.33415 C21.5176083,21.8825417 21.1421917,22.279775 20.66775,22.4613917 C20.66775,22.4783917 20.66775,22.4443917 20.66775,22.4613917 C20.2708,22.5975333 19.4274583,22.887525 19.4274583,22.887525 L19.4302917,15.0807 C19.4302917,15.0807 21.1723667,14.4745083 22.1969,14.2360833 C23.7883833,13.8659083 24.9205833,14.5901083 24.8999,15.8763 C24.8899833,17.0993083 24.2072917,17.8429167 23.593875,18.3509333 L24.941975,19.6453417 C25.35635,20.04725 25.3851083,20.7725833 24.9193083,21.2106167 C24.642775,21.4704333 23.9037,21.7390333 23.325275,21.150975 L21.5290833,19.2955667 Z" id="Fill-14" fill="#D8232A"></path>
            <path d="M39.1519917,13.9278167 C39.1542583,13.927675 40.367775,13.4664083 40.353325,12.4934417 C40.3408583,11.67135 39.5312333,11.820525 39.1494417,11.9058083 L39.1519917,13.9278167 Z M37.117375,18.205725 L37.12035,10.7196333 C37.12035,10.7196333 39.3062667,10.3328833 39.87095,10.2604917 C41.4373583,10.0600333 42.4888083,10.9294417 42.4677,12.1650583 C42.4589167,13.2509333 41.7765083,13.9052917 41.1963833,14.2971417 C41.1963833,14.2971417 42.261575,15.4977667 42.5474583,15.816375 C42.9310917,16.243925 42.914375,16.9760583 42.3471417,17.3341917 C41.7886917,17.687225 41.2359083,17.5020667 40.915175,17.1481833 L39.155675,15.084525 C39.155675,15.084525 39.161625,16.353575 39.1600667,16.9076333 C39.1542583,17.4591417 38.8357917,17.8613333 38.2633167,17.9801917 L37.117375,18.205725 Z" id="Fill-15" fill="#D8232A"></path>
            <path d="M31.5790583,15.0631333 L28.4785417,15.7676417 C28.4785417,15.7676417 28.4751417,16.095175 28.4740083,16.6308167 C28.4781167,17.03145 28.7600333,17.2914083 29.1640667,17.2075417 C29.4196333,17.1544167 29.6240583,17.10795 29.6240583,17.10795 L29.6281667,17.968575 C29.6317083,18.309425 29.12015,18.532975 28.5896083,18.5198 C27.845575,18.5011 27.4334667,17.9232417 27.422275,16.8232 C27.4455083,15.376925 28.1257917,14.5280583 29.0527167,14.2904833 C29.5156833,14.17205 29.9367167,14.2299917 30.2632583,14.271925 C31.0629667,14.401125 31.5223917,14.0162167 31.5386833,13.3557667 C31.555825,12.6485667 30.9278167,12.2112417 29.5817,12.25785 C26.6629417,12.3588583 25.1703417,14.4558083 25.1703417,16.9597667 C25.1703417,19.5229417 26.845125,20.6548583 28.8886667,20.285675 C30.0443833,20.05235 30.6189833,19.6773583 31.0166417,19.3287167 C31.4144417,18.9793667 31.578775,18.4571833 31.5793417,18.0113583 L31.5790583,15.0631333" id="Fill-16" fill="#D8232A"></path>
            <path d="M19.3635667,6.67915833 C15.9440167,8.18918333 13.6351333,11.78185 13.5087667,13.3022167 C13.458475,13.9074167 14.2603083,13.993975 14.3355333,13.3516583 C15.057325,10.5779667 17.2657667,7.96180833 19.3635667,6.67915833" id="Fill-17" fill="#FFFFFE"></path>
            <path d="M30.6937833,9.25678333 C32.5385667,8.8043 33.5506333,8.73601667 33.5693333,7.91250833 C33.6012083,6.53338333 29.6657083,4.93368333 26.061425,5.22339167 C29.73385,5.46861667 31.9364833,6.88259167 31.9482417,7.86788333 C31.955325,8.49135833 31.4158583,9.04074167 30.6937833,9.25678333" id="Fill-18" fill="#FFFFFE"></path>
            <path d="M31.837175,39.749825 C34.604775,38.6611167 37.264,36.5824417 38.7347833,33.4681833 C39.1596417,32.56775 37.9319583,32.1081833 37.5855833,33.1650167 C36.7241083,35.3788417 34.9539833,37.978 31.837175,39.749825" id="Fill-19" fill="#FFFFFE"></path>
            <path d="M45.6179417,30.8215667 L45.930175,30.8215667 C46.0996083,30.8215667 46.31395,30.852875 46.31395,31.0536167 C46.31395,31.281275 46.15755,31.3124417 45.948025,31.3124417 L45.6179417,31.3124417 L45.6179417,30.8215667 Z M45.2474833,32.40115 L45.6179417,32.40115 L45.6179417,31.602575 L45.84985,31.602575 L46.3047417,32.40115 L46.69305,32.40115 L46.19325,31.584725 C46.4700667,31.5623417 46.684125,31.4284667 46.684125,31.084925 C46.684125,30.6789083 46.4209083,30.5317167 45.9525583,30.5317167 L45.2474833,30.5317167 L45.2474833,32.40115 Z M44.1990083,31.4685583 C44.1990083,32.4860083 45.0065083,33.1417833 45.9124667,33.1417833 C46.818,33.1417833 47.6256417,32.4860083 47.6256417,31.4685583 C47.6256417,30.4557833 46.818,29.8045417 45.9124667,29.8045417 C45.0065083,29.8045417 44.1990083,30.4557833 44.1990083,31.4685583 Z M44.6540417,31.4685583 C44.6540417,30.710075 45.2117833,30.1614 45.9124667,30.1614 C46.6039417,30.1614 47.1704667,30.710075 47.1704667,31.4685583 C47.1704667,32.231575 46.6039417,32.784925 45.9124667,32.784925 C45.2117833,32.784925 44.6540417,32.231575 44.6540417,31.4685583 Z" id="Fill-20" fill="#D8232A"></path>
        </g>
    </g>
</svg>