<?xml version="1.0" encoding="UTF-8"?>
<svg width="87px" height="73px" viewBox="0 0 87 73" version="1.1" xmlns="http://www.w3.org/2000/svg" xmlns:xlink="http://www.w3.org/1999/xlink">
    <!-- Generator: Sketch 52.6 (67491) - http://www.bohemiancoding.com/sketch -->
    <title>Brand/Card/Small/BassPro</title>
    <desc>Created with Sketch.</desc>
    <defs>
        <polygon id="path-1" points="0 0 57.9996778 0 57.9996778 57.9903333 0 57.9903333"></polygon>
    </defs>
    <g id="Symbols" stroke="none" stroke-width="1" fill="none" fill-rule="evenodd">
        <g id="Brand/Card/Small/BurgerKing">
            <g id="BurgerKing_logo" transform="translate(15.000000, 8.000000)">
                <g id="Group-3">
                    <mask id="mask-2" fill="white">
                        <use xlink:href="#path-1"></use>
                    </mask>
                    <g id="Clip-2"></g>
                    <path d="M0,29 C0,12.9834611 12.9833,0 28.9998389,0 C45.0162167,0 57.9996778,12.9834611 57.9996778,29 C57.9996778,45.0163778 45.0162167,58 28.9998389,58 C12.9833,58 0,45.0163778 0,29" id="Fill-1" fill="#FFFFFE" mask="url(#mask-2)"></path>
                </g>
                <path d="M41.9170833,10.0665444 C42.0403333,9.76478333 41.79045,9.46833889 41.79045,9.46833889 C41.79045,9.46833889 39.8311778,6.13591667 32.9003389,5.39641667 C29.1893056,5.00072778 24.1370222,5.75231111 20.5949944,7.66147778 C14.1792278,11.1189222 13.2185222,16.8137167 13.2185222,16.8137167 C13.1824333,16.9530778 13.1212111,17.37825 13.2654056,17.5590167 C13.4123389,17.7431667 13.6259722,17.7402667 13.8905167,17.6510111 C16.1560611,16.8863778 22.9051667,14.6474167 27.1644611,13.5175444 C33.2257833,11.9099778 38.2052444,10.9318722 41.4013667,10.3879611 C41.6277278,10.3492944 41.8313722,10.2750222 41.9170833,10.0665444" id="Fill-4" fill="#F4B827"></path>
                <path d="M48.8384167,36.9071722 C45.211,45.0563333 38.2505167,50.7263167 29.1288889,50.8552056 C22.4861167,50.9489722 16.6236056,48.6731167 12.39025,44.7047889 L9.82987222,45.7993778 L9.83357778,41.8354 C7.04377778,38.0721667 5.42670556,33.3126222 5.42670556,27.90525 C5.42670556,14.0558167 16.0332944,3.13876667 30.8278056,3.13876667 C33.2425389,3.13876667 35.4244667,3.51512222 37.0713444,3.88777222 C34.5356167,3.07625556 32.0163222,2.63642222 29.2113778,2.63642222 C13.3351667,2.63642222 2.65027778,15.5108111 2.64995556,28.7878167 C2.64947222,43.2554333 13.9999111,55.3751778 28.8972111,55.3751778 C43.1265444,55.3751778 50.80365,45.3431111 53.2588222,39.3095 L48.8384167,36.9071722" id="Fill-5" fill="#005C9C"></path>
                <path d="M45.1554167,34.0461611 C47.2434167,33.8078778 48.6879389,32.9694556 49.4814111,32.1901611 C50.2036722,31.4807889 50.3726778,30.5031667 50.3731611,29.7768778 C50.4024833,28.7101611 50.3731611,25.3435833 50.3731611,25.3435833 L44.8481778,26.53935 C44.8481778,26.53935 44.8480167,26.9559833 44.8462444,27.8292056 C44.8559111,28.6832556 45.2681944,29.1475778 46.1626833,28.9830833 C46.4436611,28.9379722 46.8757611,28.7999 46.8757611,28.7999 L46.8826889,29.8545333 C46.8783389,29.82505 46.9642111,30.4430722 45.5714056,30.7187333 C43.7495611,31.0047056 42.9217722,29.8835333 42.8992167,27.9025111 C42.9362722,25.7784222 44.1363889,24.5534944 45.5926722,24.2191889 C47.2310111,23.8433167 48.1591722,24.23385 48.7048556,24.3168222 C50.5342722,24.5910333 51.0533722,21.8466667 49.3886111,21.2036722 C48.1580444,20.7079333 46.5614333,20.6180333 45.0394167,20.9215667 C43.0068389,21.3272444 39.0099944,23.0280944 38.9995222,28.5556556 C39.0091889,32.9475444 42.2480056,34.3783722 45.1554167,34.0461611" id="Fill-6" fill="#D8232A"></path>
                <path d="M27.1950722,38.7531833 C27.1950722,38.7531833 28.8898,38.1707667 29.0373778,38.1198556 C30.3998944,37.6497333 30.8961167,36.8390222 30.8895111,35.4367111 C30.8727556,33.9145333 30.8701778,30.9460611 30.8701778,30.9460611 L34.8125667,35.4868167 C35.4523389,36.1488222 36.2554778,36.2048889 36.9895,35.9899667 C37.7497833,35.76715 38.3819833,35.0727611 38.4006722,34.0930444 C38.4072778,30.8131444 38.3980944,22.8075333 38.3980944,22.8075333 C38.3980944,22.8075333 37.3808389,23.0240667 36.5350056,23.2639611 C35.5618944,23.5399444 34.8138556,24.1599 34.8138556,25.7974333 C34.8138556,26.3771111 34.8116,29.7038944 34.8116,29.7038944 C34.8116,29.7038944 32.5935833,26.92215 31.1418111,25.4710222 C30.3665444,24.6960778 29.0837778,25.15895 29.0837778,25.15895 L27.1921722,25.73025 L27.1950722,38.7531833" id="Fill-7" fill="#D8232A"></path>
                <path d="M26.0014,26.0239556 C26.0014,26.0239556 24.8143333,26.3719556 23.8484722,26.7210833 C22.5930944,27.1750944 21.8708333,27.9009 21.8708333,29.7999167 C21.8708333,31.5436222 21.8669667,40.6215889 21.8669667,40.6215889 C21.8669667,40.6215889 22.9663889,40.2453944 23.9915389,39.85905 C25.4471778,39.3104667 25.9973722,38.5609778 25.9973722,37.0309056 C25.9973722,35.7164 26.0014,26.0239556 26.0014,26.0239556" id="Fill-8" fill="#D8232A"></path>
                <path d="M20.1098889,28.5994778 C19.0199722,28.1045444 18.0850444,28.6568333 17.6877444,29.2668 L14.3382444,34.9627222 L14.3324444,30.3707333 L10.3845778,32.0064944 L10.3724944,44.9939833 L13.15295,43.8280222 C13.15295,43.8280222 13.6996,43.6727111 14.0284278,43.1549 C14.3313167,42.6783333 14.3202,41.8776111 14.3202,41.8776111 L14.3239056,37.7600944 L17.4322222,41.0590056 C18.1146889,41.7675722 19.3687778,42.1299111 20.4748056,41.2371944 C21.4754667,40.4290611 21.3208,39.0518833 20.7631944,38.4343444 L17.9315056,35.5842889 C17.9315056,35.5842889 20.42325,31.6560778 20.8308611,30.9992278 C21.3713889,30.1284222 21.0995944,29.0483333 20.1098889,28.5994778" id="Fill-9" fill="#D8232A"></path>
                <path d="M18.5630611,43.8650778 C18.4169333,44.20325 18.7520444,44.5386833 18.7520444,44.5386833 C20.1891556,46.3426444 26.5698,48.6292944 33.4953222,46.9543833 C44.0733944,44.3964222 46.3084889,36.9149056 46.5615944,35.8573722 C46.61315,35.64245 46.6547167,35.2954167 46.4546167,35.0880667 C46.2867389,34.91455 46.0481333,34.9118111 45.7178556,34.9896278 C38.3715111,36.7164167 26.1470444,40.44775 19.0989167,43.4672944 C18.7955444,43.5973111 18.6581167,43.6454833 18.5630611,43.8650778" id="Fill-10" fill="#F4B827"></path>
                <path d="M12.2911667,26.8444944 C12.2806944,26.1281944 11.7247,25.7381444 10.76335,26.2208333 L10.7609333,28.5219833 C10.7609333,28.5219833 11.0717167,28.3840722 11.3004944,28.2780611 C11.8621278,28.0175444 12.3037333,27.54855 12.2911667,26.8444944 Z M10.7438556,24.7650333 C10.9152778,24.6976889 11.0406222,24.6409778 11.1848167,24.5710556 C11.7060111,24.3174667 12.0765667,23.8471833 12.0812389,23.2378611 C12.0862333,22.5442778 11.5146111,22.3648 10.7445,22.7624222 L10.7438556,24.7650333 Z M14.8149722,26.5158278 C14.8455833,28.3318722 13.5378444,29.2980556 11.8331278,30.0045278 L8.34233333,31.4872333 L8.33379444,22.0295278 C8.33379444,22.0295278 10.5340889,21.1319778 11.2513556,20.8713 C13.2911833,20.1293833 14.4906556,21.0232278 14.4906556,22.3868722 C14.4906556,23.2963444 14.1018944,24.0690333 13.2565444,24.7486 C14.0883611,24.8868333 14.7987,25.5702667 14.8149722,26.5158278 Z" id="Fill-11" fill="#D8232A"></path>
                <path d="M21.4422778,18.5327722 C21.4422778,17.7365611 20.8938556,17.5242167 20.2316889,17.7144889 C19.6956722,17.8685111 19.0708833,18.1122722 19.0708833,18.1122722 L19.0671778,23.9920222 C19.0607333,24.5776611 18.9705111,25.3105556 18.2488944,25.49245 C17.6949944,25.6321333 17.4328667,25.2620611 17.4319,24.6780333 L17.4241667,19.8651611 C17.4241667,19.0646 16.8675278,18.8247056 16.2072944,19.0444611 C15.4640889,19.2917667 15.0182944,19.4704389 15.0182944,19.4704389 C15.0182944,19.4704389 15.0255444,23.6343556 15.0165222,25.2987944 C15.0062111,27.2521056 16.3527778,28.2257 18.4045278,27.6200833 C20.2136444,27.0856778 21.4219778,26.0718056 21.4448556,23.4726 L21.4422778,18.5327722" id="Fill-12" fill="#D8232A"></path>
                <path d="M40.8436,20.9628111 C41.3647944,20.8498722 41.6900778,20.4818944 41.6900778,19.8450222 C41.6900778,19.2703389 41.6923333,18.8348556 41.6923333,18.8348556 L38.8603222,19.4532 L38.8658,17.7874722 C38.8658,17.7874722 40.2542556,17.4932833 40.6396333,17.4091833 C41.1239333,17.3031722 41.3775222,17.0387889 41.3775222,16.48505 C41.3775222,15.9686889 41.3741389,15.5224111 41.3741389,15.5224111 L38.8653167,16.0545611 L38.8637056,14.73345 C38.8637056,14.73345 40.1687056,14.4619778 40.8721167,14.3139167 C41.4190889,14.1988833 41.6001778,13.8236556 41.6001778,13.3077778 C41.6001778,12.9718611 41.6058167,12.30615 41.6058167,12.30615 C40.3543056,12.5262278 37.9745333,13.0034389 36.4913444,13.3422556 L36.4715278,21.9646 C36.4715278,21.9646 39.2917778,21.3000167 40.8436,20.9628111" id="Fill-13" fill="#D8232A"></path>
                <path d="M24.4798667,20.6140056 C24.4829278,20.6130389 25.8815333,19.8906167 25.8654222,18.7439889 C25.8518889,17.7637889 24.9498278,17.97855 24.4806722,18.1502944 L24.4798667,20.6140056 Z M24.4840556,21.9439778 C24.4840556,21.9439778 24.4789,23.5960111 24.4772889,24.2623667 C24.4710056,24.8860278 24.0440611,25.3377833 23.5045,25.5443278 C23.5045,25.5636611 23.5045,25.5249944 23.5045,25.5443278 C23.0530667,25.6991556 22.0939722,26.02895 22.0939722,26.02895 L22.0971944,17.1506 C22.0971944,17.1506 24.0783778,16.4612056 25.2435333,16.1900556 C27.0534556,15.7690722 28.3410556,16.5926722 28.3175333,18.0554 C28.3062556,19.4462722 27.5298611,20.2919444 26.83225,20.8696889 L28.3653833,22.3417611 C28.8366333,22.7988333 28.8693389,23.6237222 28.3396056,24.1218778 C28.0251167,24.4173556 27.1846,24.7228222 26.5267833,24.05405 L24.4840556,21.9439778 Z" id="Fill-14" fill="#D8232A"></path>
                <path d="M44.5257944,15.8394778 C44.5283722,15.8393167 45.90845,15.3147389 45.8920167,14.2082278 C45.8778389,13.2733 44.9570889,13.44295 44.5228944,13.5399389 L44.5257944,15.8394778 Z M42.2119167,20.70455 L42.2153,12.1909556 C42.2153,12.1909556 44.7012444,11.7511222 45.3434333,11.6687944 C47.1248389,11.4408222 48.3206056,12.4295611 48.2966,13.8347722 C48.2866111,15.0696889 47.5105389,15.8138611 46.8507889,16.2594944 C46.8507889,16.2594944 48.0621833,17.6249111 48.3873056,17.98725 C48.8235944,18.4734833 48.8045833,19.3061056 48.1594944,19.7133944 C47.5243944,20.1148833 46.8957389,19.9043111 46.5309833,19.5018556 L44.5299833,17.15495 C44.5299833,17.15495 44.53675,18.5981833 44.5349778,19.2282889 C44.5283722,19.8554944 44.1661944,20.3128889 43.5151444,20.4480611 L42.2119167,20.70455 Z" id="Fill-15" fill="#D8232A"></path>
                <path d="M35.9134389,17.1306222 L32.3873611,17.9318278 C32.3873611,17.9318278 32.3834944,18.3043167 32.3822056,18.9134778 C32.3868778,19.3691 32.7074889,19.6647389 33.1669778,19.5693611 C33.4576222,19.5089444 33.6901056,19.4561 33.6901056,19.4561 L33.6947778,20.43485 C33.6988056,20.8224833 33.1170333,21.0767167 32.5136722,21.0617333 C31.6675167,21.0404667 31.1988444,20.3832944 31.1861167,19.1322667 C31.2125389,17.4874833 31.9861944,16.5221056 33.0403444,16.2519222 C33.5668556,16.1172333 34.0456778,16.1831278 34.4170389,16.2308167 C35.3265111,16.37775 35.8489944,15.9400111 35.8675222,15.1889111 C35.8870167,14.3846444 35.1728111,13.8872944 33.6419333,13.9403 C30.3225611,14.0551722 28.6250944,16.4399389 28.6250944,19.2875778 C28.6250944,22.2025611 30.52975,23.4898389 32.8537778,23.0699833 C34.1681222,22.8046333 34.8215889,22.3781722 35.2738278,21.9816778 C35.7262278,21.5843778 35.9131167,20.9905222 35.9137611,20.4835056 L35.9134389,17.1306222" id="Fill-16" fill="#D8232A"></path>
                <path d="M22.0213111,7.59590556 C18.1324111,9.31318889 15.5066222,13.3989667 15.3629111,15.1280111 C15.3057167,15.8162778 16.2176056,15.9147167 16.3031556,15.1842389 C17.1240167,12.0298444 19.6355778,9.05460556 22.0213111,7.59590556" id="Fill-17" fill="#FFFFFE"></path>
                <path d="M34.9066556,10.5273222 C37.0046444,10.0127333 38.1556222,9.93507778 38.1768889,8.99853889 C38.2131389,7.43012222 33.7374722,5.61085556 29.6384833,5.94032778 C33.8149667,6.21921111 36.3199222,7.82726111 36.3332944,8.94778889 C36.34135,9.65683889 35.7278389,10.2816278 34.9066556,10.5273222" id="Fill-18" fill="#FFFFFE"></path>
                <path d="M36.2069833,45.2056833 C39.35445,43.9675444 42.3786667,41.6035611 44.0513222,38.0618556 C44.5344944,37.0378333 43.1383056,36.5151889 42.7443889,37.7170778 C41.7646722,40.2347611 39.7515889,43.1906667 36.2069833,45.2056833" id="Fill-19" fill="#FFFFFE"></path>
                <path d="M51.8792278,35.0519778 L52.2343167,35.0519778 C52.4270056,35.0519778 52.6707667,35.0875833 52.6707667,35.3158778 C52.6707667,35.5747833 52.4929,35.6102278 52.2546167,35.6102278 L51.8792278,35.6102278 L51.8792278,35.0519778 Z M51.4579222,36.8483667 L51.8792278,36.8483667 L51.8792278,35.9401833 L52.1429667,35.9401833 L52.6602944,36.8483667 L53.1019,36.8483667 L52.5335,35.9198833 C52.8483111,35.8944278 53.09175,35.7421778 53.09175,35.3514833 C53.09175,34.8897389 52.7924056,34.7223444 52.2597722,34.7223444 L51.4579222,34.7223444 L51.4579222,36.8483667 Z M50.2655389,35.7877722 C50.2655389,36.9448722 51.1838722,37.6906556 52.2141778,37.6906556 C53.244,37.6906556 54.1624944,36.9448722 54.1624944,35.7877722 C54.1624944,34.6359889 53.244,33.8953611 52.2141778,33.8953611 C51.1838722,33.8953611 50.2655389,34.6359889 50.2655389,35.7877722 Z M50.7830278,35.7877722 C50.7830278,34.9251833 51.4173222,34.3012 52.2141778,34.3012 C53.0005611,34.3012 53.6448444,34.9251833 53.6448444,35.7877722 C53.6448444,36.6555167 53.0005611,37.2848167 52.2141778,37.2848167 C51.4173222,37.2848167 50.7830278,36.6555167 50.7830278,35.7877722 Z" id="Fill-20" fill="#D8232A"></path>
            </g>
        </g>
    </g>
</svg>