<?xml version="1.0" encoding="utf-8"?>
<!-- Generator: Adobe Illustrator 16.0.3, SVG Export Plug-In . SVG Version: 6.00 Build 0)  -->
<!DOCTYPE svg PUBLIC "-//W3C//DTD SVG 1.1//EN" "http://www.w3.org/Graphics/SVG/1.1/DTD/svg11.dtd">
<svg version="1.1" id="Layer_1" xmlns="http://www.w3.org/2000/svg" xmlns:xlink="http://www.w3.org/1999/xlink" x="0px" y="0px"
	 width="247px" height="247px" viewBox="0 0 247 247" enable-background="new 0 0 247 247" xml:space="preserve">
<title>bg-3</title>
<desc>Created with Sketch.</desc>
<g>
	
		<linearGradient id="Oval-2_1_" gradientUnits="userSpaceOnUse" x1="-514.7974" y1="1082.7979" x2="-514.7974" y2="1081.9032" gradientTransform="matrix(247 0 0 -247 127278.5 267451)">
		<stop  offset="0" style="stop-color:#3950B5"/>
		<stop  offset="1" style="stop-color:#162360"/>
	</linearGradient>
	<path id="Oval-2" opacity="0.3" fill="url(#Oval-2_1_)" enable-background="new    " d="M123.5,247
		c68.207,0,123.5-55.293,123.5-123.5S191.707,0,123.5,0S0,55.293,0,123.5S55.293,247,123.5,247z"/>
	<path id="Combined-Shape" fill="#253377" stroke="#647CE8" stroke-width="2" d="M71,24h83.831c4.418,0,8,3.582,8,8v167.875
		c0,4.418-3.582,8-8,8H71c-4.418,0-8-3.582-8-8V32C63,27.582,66.582,24,71,24z"/>
	<path id="Line" fill="none" stroke="#647CE8" stroke-width="2" stroke-linecap="square" d="M63.52,180.635h98.791"/>
	<path id="Line_1_" fill="none" stroke="#647CE8" stroke-width="2" stroke-linecap="square" d="M104.076,194.255h18.718"/>
	<g id="Group-3" transform="translate(125.000000, 122.000000)">
		<path id="Rectangle-path" fill="#1F2F7B" stroke="#12E5B6" stroke-width="2" d="M4.006,37.648h66.76c2.209,0,4,1.791,4,4V99.37
			c0,2.209-1.791,4-4,4H4.006c-2.209,0-4-1.791-4-4V41.648C0.006,39.439,1.797,37.648,4.006,37.648z"/>
		<path id="Shape_6_" fill="none" stroke="#12E5B6" stroke-width="2" d="M18.695,37.648V18.871c0-10.328,8.41-18.778,18.69-18.778
			l0,0c10.279,0,18.69,8.45,18.69,18.778v18.777"/>
		<path id="Shape_7_" fill="#F9F9F9" stroke="#12E5B6" stroke-width="2" d="M36.63,65.814v9.389"/>
	</g>
	<g>
		<polygon fill="#FFFFFF" points="128.314,124.684 140.287,124.684 118.486,70.425 106.998,70.425 85.89,124.684 97.517,124.684 
			112.545,83.076 		"/>
		<rect x="85.198" y="104.184" fill="#FFFFFF" width="55.435" height="3.171"/>
		<rect x="85.198" y="97.554" fill="#FFFFFF" width="55.435" height="3.172"/>
	</g>
</g>
</svg>
