<?xml version="1.0"?>
<svg xmlns="http://www.w3.org/2000/svg" xmlns:xlink="http://www.w3.org/1999/xlink" version="1.1" id="Capa_1" x="0px" y="0px" viewBox="0 0 512 512" style="enable-background:new 0 0 512 512;" xml:space="preserve" width="512px" height="512px" class=""><g><g transform="matrix(1.25 0 0 -1.25 0 45)">
	<g>
		<g>
			<path style="fill:#5D42A6" d="M409.6-328.089c0-25.134-20.378-45.511-45.511-45.511H45.511C20.378-373.6,0-353.222,0-328.089     V-9.511C0,15.622,20.378,36,45.511,36h318.578C389.222,36,409.6,15.622,409.6-9.511V-328.089z" data-original="#3B88C3" class="active-path" data-old_color="#5d42a6"/>
			<path style="fill:#FFFFFF" d="M139.025-73.466c0,17.636,8.818,30.686,27.511,30.686h87.484c16.93,0,25.054-11.992,25.054-24.337     c0-11.992-8.465-24.348-25.054-24.348h-62.089v-51.496h57.867c17.283,0,25.759-12.004,25.759-24.348     c0-11.992-8.829-24.337-25.759-24.337h-57.867v-53.623h65.263c16.941,0,25.042-11.992,25.042-24.337     c0-12.004-8.465-24.348-25.042-24.348h-91.011c-15.519,0-27.159,10.581-27.159,26.453V-73.466z" data-original="#FFFFFF" class="" data-old_color="#5D42A6"/>
		</g>
	</g>
</g></g> </svg>
