<?xml version="1.0"?>
<svg xmlns="http://www.w3.org/2000/svg" xmlns:xlink="http://www.w3.org/1999/xlink" version="1.1" id="Capa_1" x="0px" y="0px" viewBox="0 0 512 512" style="enable-background:new 0 0 512 512;" xml:space="preserve" width="512px" height="512px" class=""><g><g transform="matrix(1.25 0 0 -1.25 0 45)">
	<g>
		<g>
			<path style="fill:#7A00FF" d="M409.6-328.089c0-25.134-20.378-45.511-45.511-45.511H45.511C20.378-373.6,0-353.222,0-328.089     V-9.511C0,15.622,20.378,36,45.511,36h318.578C389.222,36,409.6,15.622,409.6-9.511V-328.089z" data-original="#3B88C3" class="" data-old_color="#8200FF"/>
			<path style="fill:#FFFFFF" d="M142.37-70.291c0,14.461,9.876,27.511,27.523,27.511h90.305c15.531,0,23.643-11.992,23.643-24.337     c0-11.992-7.771-24.337-23.643-24.337h-64.91v-51.507h54.693c16.93,0,25.395-11.992,25.395-23.996     c0-12.345-8.465-24.69-25.395-24.69h-54.693v-76.902c0-17.647-11.287-27.511-26.453-27.511c-15.178,0-26.465,9.865-26.465,27.511     V-70.291z" data-original="#FFFFFF" class="" data-old_color="#3B88C3"/>
		</g>
	</g>
</g></g> </svg>
