<?xml version="1.0" encoding="UTF-8"?>
<svg width="121px" height="73px" viewBox="0 0 121 73" version="1.1" xmlns="http://www.w3.org/2000/svg" xmlns:xlink="http://www.w3.org/1999/xlink">
    <!-- Generator: Sketch 52.5 (67469) - http://www.bohemiancoding.com/sketch -->
    <title>logo-box</title>
    <desc>Created with Sketch.</desc>
    <g id="Symbols" stroke="none" stroke-width="1" fill="none" fill-rule="evenodd">
        <g id="Brand/Card/Small/Amazon">
            <g id="Logo-Box">
                <g id="Brand/Logo/Amazon" transform="translate(20.000000, 27.000000)">
                    <g id="Group">
                        <g id="Amazon_logo_plain" fill-rule="nonzero">
                            <path d="M50.2396684,19.5307747 C45.5382457,23.0743723 38.7238204,24.9650096 32.8567272,24.9650096 C24.630116,24.9650096 17.2240549,21.8535604 11.6210834,16.678614 C11.180876,16.2716745 11.5753003,15.7170893 12.1035519,16.0339945 C18.1502503,19.6316099 25.6267491,21.7959409 33.3497619,21.7959409 C38.5583023,21.7959409 44.288053,20.693967 49.5564649,18.4071964 C50.3523618,18.061478 51.0179561,18.9401758 50.2396684,19.5307747" id="path8" fill="#FF9900"></path>
                            <path d="M52.1941943,17.2440041 C51.595509,16.4589396 48.2217542,16.8730797 46.7074384,17.0567418 C46.2460984,17.1143613 46.1756673,16.7038228 46.5912215,16.4085206 C49.2782534,14.474669 53.6873803,15.0328571 54.2015436,15.6810755 C54.7157042,16.332897 54.0677203,20.8524231 51.5426843,23.0095481 C51.1553015,23.3408599 50.7855264,23.1644025 50.95809,22.7250522 C51.5250766,21.277364 52.7963991,18.0326703 52.1941943,17.2440041" id="path10" fill="#FF9900"></path>
                            <path d="M46.813089,2.75631593 L46.813089,0.876482143 C46.813089,0.591986264 47.0243888,0.401122253 47.2779484,0.401122253 L55.508079,0.401122253 C55.7722061,0.401122253 55.983506,0.595587912 55.983506,0.876482143 L55.983506,2.48622527 C55.9799866,2.75631593 55.7581191,3.10923489 55.3636907,3.66742308 L51.0989548,9.89392445 C52.6837057,9.85431319 54.3564967,10.095592 55.793336,10.9238723 C56.1173293,11.1111346 56.2053707,11.3848269 56.2300227,11.6549203 L56.2300227,13.6607967 C56.2300227,13.934489 55.9342021,14.2549945 55.6242958,14.0893407 C53.092217,12.7316813 49.7290272,12.5840316 46.9293031,14.1037459 C46.6440488,14.2621992 46.3447075,13.9452926 46.3447075,13.6716003 L46.3447075,11.7665577 C46.3447075,11.4604547 46.3482269,10.9382761 46.6475682,10.4737198 L51.5884661,3.22807555 L47.2885133,3.22807555 C47.0243888,3.22807555 46.813089,3.03721291 46.813089,2.75631593" id="path12" fill="#FFFFFF"></path>
                            <path d="M16.7908876,14.4854725 L14.2869842,14.4854725 C14.047513,14.4674684 13.8573416,14.2838063 13.8397325,14.0497253 L13.8397325,0.908895604 C13.8397325,0.646006868 14.0545545,0.437134615 14.322201,0.437134615 L16.6570643,0.437134615 C16.9000616,0.447931319 17.093751,0.638802198 17.1113615,0.876482143 L17.1113615,2.59426374 L17.1571433,2.59426374 C17.7663909,0.934101648 18.9109303,0.159840659 20.4534215,0.159840659 C22.0205619,0.159840659 22.9995846,0.934101648 23.7039179,2.59426374 C24.3096448,0.934101648 25.6866152,0.159840659 27.1621948,0.159840659 C28.2116512,0.159840659 29.359714,0.602789835 30.0605252,1.59672527 C30.8529,2.70229808 30.6909027,4.30843956 30.6909027,5.71651648 L30.6873833,14.010114 C30.6873833,14.2730027 30.4725613,14.4854725 30.2049148,14.4854725 L27.7045307,14.4854725 C27.4544946,14.4674684 27.2537597,14.2621992 27.2537597,14.010114 L27.2537597,7.04536401 C27.2537597,6.49077747 27.3030609,5.10791071 27.183326,4.58213187 C26.9966781,3.69983654 26.436733,3.45135027 25.7112685,3.45135027 C25.1055416,3.45135027 24.4716421,3.86549038 24.2145604,4.52811538 C23.9574788,5.19073901 23.9821307,6.29991071 23.9821307,7.04536401 L23.9821307,14.010114 C23.9821307,14.2730027 23.7673088,14.4854725 23.4996622,14.4854725 L20.9992809,14.4854725 C20.7457213,14.4674684 20.5485072,14.2621992 20.5485072,14.010114 L20.5449851,7.04536401 C20.5449851,5.57967033 20.7809342,3.42254121 19.0024952,3.42254121 C17.2029224,3.42254121 17.2733561,5.52564973 17.2733561,7.04536401 L17.2733561,14.010114 C17.2733561,14.2730027 17.0585342,14.4854725 16.7908876,14.4854725" id="path14" fill="#FFFFFF"></path>
                            <path d="M63.0690972,0.159840659 C66.7844543,0.159840659 68.7953243,3.42254121 68.7953243,7.57114148 C68.7953243,11.5792926 66.5731518,14.7591648 63.0690972,14.7591648 C59.4206503,14.7591648 57.4344296,11.4964643 57.4344296,7.43069368 C57.4344296,3.33971291 59.4453022,0.159840659 63.0690972,0.159840659 M63.0902257,2.84274725 C61.2448751,2.84274725 61.1286582,5.41401236 61.1286582,7.01655495 C61.1286582,8.62269643 61.1040063,12.0510522 63.0690972,12.0510522 C65.0095348,12.0510522 65.1010984,9.28532143 65.1010984,7.59994918 C65.1010984,6.49077747 65.0553166,5.16553022 64.7277999,4.1139739 C64.4460663,3.19926786 63.8861239,2.84274725 63.0902257,2.84274725" id="path16" fill="#FFFFFF"></path>
                            <path d="M73.6129639,14.4854725 L71.1196254,14.4854725 C70.8695852,14.4674684 70.6688503,14.2621992 70.6688503,14.010114 L70.6653309,0.865678571 C70.6864607,0.624396978 70.8942399,0.437134615 71.1477994,0.437134615 L73.4685784,0.437134615 C73.6869197,0.447931319 73.8665248,0.59918956 73.91583,0.804458791 L73.91583,2.81393544 L73.9616091,2.81393544 C74.662423,1.01692995 75.6449651,0.159840659 77.3741028,0.159840659 C78.4975137,0.159840659 79.5927533,0.573980769 80.2970866,1.70836264 C80.952116,2.75991758 80.952116,4.52811538 80.952116,5.79934203 L80.952116,14.0713352 C80.9239433,14.3018104 80.7161642,14.4854725 80.4696501,14.4854725 L77.9587012,14.4854725 C77.7297909,14.4674684 77.5396209,14.2946099 77.5149716,14.0713352 L77.5149716,6.93372665 C77.5149716,5.49684203 77.6769676,3.39373077 75.9478285,3.39373077 C75.3385822,3.39373077 74.7786358,3.8114739 74.5004243,4.44528571 C74.1482597,5.24835852 74.1024779,6.0478283 74.1024779,6.93372665 L74.1024779,14.010114 C74.0989585,14.2730027 73.8806131,14.4854725 73.6129666,14.4854725" id="path18" fill="#FFFFFF"></path>
                            <g id="use28" transform="translate(32.825443, 0.000000)" fill="#FFFFFF">
                                <path d="M7.42678133,8.20855632 L7.42678133,7.65396978 C5.61664343,7.65396978 3.70437985,8.05010302 3.70437985,10.2324382 C3.70437985,11.338011 4.26432358,12.0870659 5.22573851,12.0870659 C5.93007179,12.0870659 6.56044925,11.6441168 6.9583997,10.9238723 C7.45143058,10.0379725 7.42678133,9.20609203 7.42678133,8.20855632 M9.95181461,14.4494602 C9.78629655,14.6007115 9.54682133,14.6115151 9.36017342,14.5106827 C8.52906237,13.8048448 8.38115073,13.4771346 7.92333416,12.8037074 C6.54988433,14.2369904 5.57790716,14.665533 3.79594209,14.665533 C1.68998507,14.665533 0.0488914925,13.3366854 0.0488914925,10.6753901 C0.0488914925,8.59748764 1.15117254,7.18221016 2.71831299,6.49077747 C4.07767567,5.87856868 5.97585358,5.77053434 7.42678133,5.60127747 L7.42678133,5.26996566 C7.42678133,4.66135852 7.47256312,3.94111538 7.1239179,3.41534066 C6.8175309,2.94357967 6.23293657,2.74911401 5.71877194,2.74911401 C4.76440254,2.74911401 3.91215761,3.24968269 3.70437985,4.28683242 C3.66211881,4.51731181 3.49660075,4.74418819 3.27121522,4.75499176 L0.841266269,4.4885 C0.637009254,4.44168681 0.411622388,4.2724272 0.467969104,3.9519217 C1.02791418,0.941306319 3.68677075,0.0337980769 6.06741851,0.0337980769 C7.28591252,0.0337980769 8.87770491,0.36510989 9.83911984,1.30862775 C11.0576177,2.47182005 10.9414009,4.02394368 10.9414009,5.71291484 L10.9414009,9.70306044 C10.9414009,10.9022665 11.4273928,11.4280412 11.8852094,12.0762624 C12.0472054,12.3067376 12.0824222,12.5840316 11.8781652,12.7568901 C11.367524,13.1926387 10.4589351,14.0029121 9.9588561,14.4566648 L9.95181461,14.4494533" id="path30"></path>
                            </g>
                            <path d="M7.42678133,8.20855632 L7.42678133,7.65396978 C5.61664343,7.65396978 3.70437985,8.05010302 3.70437985,10.2324382 C3.70437985,11.338011 4.26432358,12.0870659 5.22573851,12.0870659 C5.93007179,12.0870659 6.56044925,11.6441168 6.9583997,10.9238723 C7.45143058,10.0379725 7.42678133,9.20609203 7.42678133,8.20855632 M9.95181461,14.4494602 C9.78629655,14.6007115 9.54682133,14.6115151 9.36017342,14.5106827 C8.52906237,13.8048448 8.38115073,13.4771346 7.92333416,12.8037074 C6.54988433,14.2369904 5.57790716,14.665533 3.79594209,14.665533 C1.68998507,14.665533 0.0488914925,13.3366854 0.0488914925,10.6753901 C0.0488914925,8.59748764 1.15117254,7.18221016 2.71831299,6.49077747 C4.07767567,5.87856868 5.97585358,5.77053434 7.42678133,5.60127747 L7.42678133,5.26996566 C7.42678133,4.66135852 7.47256312,3.94111538 7.1239179,3.41534066 C6.8175309,2.94357967 6.23293657,2.74911401 5.71877194,2.74911401 C4.76440254,2.74911401 3.91215761,3.24968269 3.70437985,4.28683242 C3.66211881,4.51731181 3.49660075,4.74418819 3.27121522,4.75499176 L0.841266269,4.4885 C0.637009254,4.44168681 0.411622388,4.2724272 0.467969104,3.9519217 C1.02791418,0.941306319 3.68677075,0.0337980769 6.06741851,0.0337980769 C7.28591252,0.0337980769 8.87770491,0.36510989 9.83911984,1.30862775 C11.0576177,2.47182005 10.9414009,4.02394368 10.9414009,5.71291484 L10.9414009,9.70306044 C10.9414009,10.9022665 11.4273928,11.4280412 11.8852094,12.0762624 C12.0472054,12.3067376 12.0824222,12.5840316 11.8781652,12.7568901 C11.367524,13.1926387 10.4589351,14.0029121 9.9588561,14.4566648 L9.95181461,14.4494533" id="path30" fill="#FFFFFF"></path>
                        </g>
                    </g>
                </g>
            </g>
        </g>
    </g>
</svg>