<?xml version="1.0" encoding="utf-8"?>
<!-- Generator: Adobe Illustrator 19.1.0, SVG Export Plug-In . SVG Version: 6.00 Build 0)  -->
<svg version="1.1" id="Capa_1" xmlns:sketch="http://www.bohemiancoding.com/sketch/ns"
	 xmlns="http://www.w3.org/2000/svg" xmlns:xlink="http://www.w3.org/1999/xlink" x="0px" y="0px" viewBox="-285 410.9 25 20"
	 style="enable-background:new -285 410.9 25 20;" xml:space="preserve">
<style type="text/css">
	.st0{fill:#FFFFFF;}
</style>
<title>Wallet-Copy</title>
<desc>Created with Sketch.</desc>
<g id="Page-1" sketch:type="MSPage">
	<g id="Navigation-13-Copy-2" transform="translate(-25.000000, -285.000000)" sketch:type="MSArtboardGroup">
		<g id="wallet-ico-copy-2" transform="translate(26.042969, 286.000000)" sketch:type="MSLayerGroup">
			<path class="st0" d="M-261.8,428.9h-23.5l0-18.2l18-0.1v2.8h5.5V428.9z M-284.7,428.3h22.4V414h-4.9l-0.3,0.1h-17.1V428.3z
				 M-284.7,413.4h16.8v-2.2l-16.8,0.1V413.4z M-266.4,424c-1,0-1.7-0.8-1.7-1.7s0.8-1.7,1.7-1.7s1.7,0.8,1.7,1.7
				S-265.4,424-266.4,424z M-266.4,421.1c-0.6,0-1.2,0.5-1.2,1.1s0.5,1.1,1.2,1.1c0.6,0,1.2-0.5,1.2-1.1S-265.8,421.1-266.4,421.1z"
				/>
		</g>
	</g>
</g>
</svg>
