<?xml version="1.0" encoding="UTF-8" standalone="no"?>
<svg width="19px" height="18px" viewBox="0 0 19 18" version="1.1" xmlns="http://www.w3.org/2000/svg" xmlns:xlink="http://www.w3.org/1999/xlink" xmlns:sketch="http://www.bohemiancoding.com/sketch/ns">
    <!-- Generator: Sketch 3.3.3 (12072) - http://www.bohemiancoding.com/sketch -->
    <title>flask</title>
    <desc>Created with Sketch.</desc>
    <defs></defs>
    <g id="WALLET-2-of-3" stroke="none" stroke-width="1" fill="none" fill-rule="evenodd" sketch:type="MSPage">
        <g id="Home-with-funds-Copy-2" sketch:type="MSArtboardGroup" transform="translate(-296.500000, -487.000000)" fill="#7A8C9E">
            <path d="M309.858398,494.259766 C310.063478,494.464845 310.280272,494.690428 310.508789,494.936523 C310.737306,495.182618 311.071287,495.551755 311.510742,496.043945 C311.950198,496.536135 312.35449,497.034177 312.723633,497.538086 C313.092775,498.041995 313.458983,498.579587 313.822266,499.150879 C314.185549,499.722171 314.472655,500.294919 314.683594,500.869141 C314.894532,501.443362 315,501.961912 315,502.424805 C315,503.133793 314.748049,503.740232 314.244141,504.244141 C313.740232,504.748049 313.133793,505 312.424805,505 L299.575195,505 C298.866207,505 298.259768,504.748049 297.755859,504.244141 C297.251951,503.740232 297,503.133793 297,502.424805 C297,501.961912 297.105468,501.443362 297.316406,500.869141 C297.527345,500.294919 297.814451,499.722171 298.177734,499.150879 C298.541017,498.579587 298.907225,498.041995 299.276367,497.538086 C299.64551,497.034177 300.049802,496.536135 300.489258,496.043945 C300.928713,495.551755 301.262694,495.182618 301.491211,494.936523 C301.719728,494.690428 301.936522,494.464845 302.141602,494.259766 L302.141602,488.924805 L301.174805,488.924805 C301.086914,488.924805 301.012207,488.894043 300.950684,488.83252 C300.88916,488.770996 300.858398,488.69629 300.858398,488.608398 L300.858398,487.316406 C300.858398,487.228515 300.88916,487.153809 300.950684,487.092285 C301.012207,487.030761 301.086914,487 301.174805,487 L310.825195,487 C310.913086,487 310.987793,487.030761 311.049316,487.092285 C311.11084,487.153809 311.141602,487.228515 311.141602,487.316406 L311.141602,488.608398 C311.141602,488.69629 311.11084,488.770996 311.049316,488.83252 C310.987793,488.894043 310.913086,488.924805 310.825195,488.924805 L309.858398,488.924805 L309.858398,494.259766 Z M301.5,488.283203 L310.5,488.283203 L310.5,487.641602 L301.5,487.641602 L301.5,488.283203 Z M309.216797,488.924805 L302.783203,488.924805 L302.783203,491.139648 C303.20508,491.010742 303.604979,490.925781 303.98291,490.884766 C304.360842,490.84375 304.668456,490.83789 304.905762,490.867188 C305.143068,490.896485 305.362792,490.947754 305.564941,491.020996 C305.767091,491.094239 305.907714,491.155761 305.986816,491.205566 C306.065918,491.255371 306.131836,491.303711 306.18457,491.350586 C306.237305,491.391602 306.306152,491.437011 306.391113,491.486816 C306.476075,491.536621 306.624022,491.601074 306.834961,491.680176 C307.045899,491.759278 307.262694,491.810547 307.485352,491.833984 C307.708009,491.857422 307.977537,491.83545 308.293945,491.768066 C308.610353,491.700683 308.917967,491.576173 309.216797,491.394531 L309.216797,488.924805 Z M312.424805,504.358398 C312.95801,504.358398 313.413572,504.169435 313.791504,503.791504 C314.169435,503.413572 314.358398,502.95801 314.358398,502.424805 C314.358398,501.897458 314.188478,501.273441 313.848633,500.552734 C313.508787,499.832028 313.114748,499.161136 312.666504,498.540039 C312.218259,497.918942 311.727542,497.294925 311.194336,496.667969 C310.66113,496.041012 310.246584,495.573732 309.950684,495.266113 C309.654784,494.958495 309.442383,494.746094 309.313477,494.628906 C309.249023,494.564453 309.216797,494.485352 309.216797,494.391602 L309.216797,492.124023 C308.742185,492.35254 308.252932,492.466797 307.749023,492.466797 C307.403319,492.466797 307.066408,492.412598 306.738281,492.304199 C306.410155,492.1958 306.178712,492.100586 306.043945,492.018555 C305.909179,491.936523 305.821289,491.875 305.780273,491.833984 C305.733398,491.798828 305.692383,491.769531 305.657227,491.746094 C305.62207,491.722656 305.512208,491.678711 305.327637,491.614258 C305.143065,491.549804 304.949708,491.510254 304.747559,491.495605 C304.545409,491.480957 304.267092,491.495605 303.912598,491.539551 C303.558104,491.583496 303.181643,491.672851 302.783203,491.807617 L302.783203,494.391602 C302.783203,494.485352 302.750977,494.564453 302.686523,494.628906 C302.557617,494.746094 302.345216,494.958495 302.049316,495.266113 C301.753416,495.573732 301.33887,496.041012 300.805664,496.667969 C300.272458,497.294925 299.781741,497.918942 299.333496,498.540039 C298.885252,499.161136 298.491213,499.832028 298.151367,500.552734 C297.811522,501.273441 297.641602,501.897458 297.641602,502.424805 C297.641602,502.95801 297.830565,503.413572 298.208496,503.791504 C298.586428,504.169435 299.04199,504.358398 299.575195,504.358398 L312.424805,504.358398 Z M306.325195,493.424805 C306.858401,493.424805 307.312498,493.613768 307.6875,493.991699 C308.062502,494.369631 308.25,494.825193 308.25,495.358398 C308.25,495.891604 308.062502,496.345701 307.6875,496.720703 C307.312498,497.095705 306.858401,497.283203 306.325195,497.283203 C305.79199,497.283203 305.336428,497.095705 304.958496,496.720703 C304.580565,496.345701 304.391602,495.891604 304.391602,495.358398 C304.391602,494.825193 304.580565,494.369631 304.958496,493.991699 C305.336428,493.613768 305.79199,493.424805 306.325195,493.424805 L306.325195,493.424805 Z M306.325195,496.641602 C306.67676,496.641602 306.978514,496.517091 307.230469,496.268066 C307.482423,496.019042 307.608398,495.715822 307.608398,495.358398 C307.608398,495.000975 307.482423,494.69629 307.230469,494.444336 C306.978514,494.192382 306.67676,494.066406 306.325195,494.066406 C305.967772,494.066406 305.663087,494.192382 305.411133,494.444336 C305.159178,494.69629 305.033203,495.000975 305.033203,495.358398 C305.033203,495.715822 305.159178,496.019042 305.411133,496.268066 C305.663087,496.517091 305.967772,496.641602 306.325195,496.641602 L306.325195,496.641602 Z M304.391602,497.924805 C304.749025,497.924805 305.052245,498.05078 305.30127,498.302734 C305.550294,498.554689 305.674805,498.859373 305.674805,499.216797 C305.674805,499.568361 305.550294,499.870116 305.30127,500.12207 C305.052245,500.374025 304.749025,500.5 304.391602,500.5 C304.034178,500.5 303.730958,500.374025 303.481934,500.12207 C303.232909,499.870116 303.108398,499.568361 303.108398,499.216797 C303.108398,498.859373 303.232909,498.554689 303.481934,498.302734 C303.730958,498.05078 304.034178,497.924805 304.391602,497.924805 L304.391602,497.924805 Z M304.391602,499.858398 C304.573243,499.858398 304.725585,499.795411 304.848633,499.669434 C304.97168,499.543456 305.033203,499.392579 305.033203,499.216797 C305.033203,499.035155 304.97168,498.881348 304.848633,498.755371 C304.725585,498.629394 304.573243,498.566406 304.391602,498.566406 C304.215819,498.566406 304.064942,498.629394 303.938965,498.755371 C303.812988,498.881348 303.75,499.035155 303.75,499.216797 C303.75,499.392579 303.812988,499.543456 303.938965,499.669434 C304.064942,499.795411 304.215819,499.858398 304.391602,499.858398 L304.391602,499.858398 Z M307.283203,500.5 C307.552736,500.5 307.781249,500.593749 307.96875,500.78125 C308.156251,500.968751 308.25,501.197264 308.25,501.466797 C308.25,501.73047 308.156251,501.956054 307.96875,502.143555 C307.781249,502.331056 307.552736,502.424805 307.283203,502.424805 C307.01953,502.424805 306.793946,502.331056 306.606445,502.143555 C306.418944,501.956054 306.325195,501.73047 306.325195,501.466797 C306.325195,501.197264 306.418944,500.968751 306.606445,500.78125 C306.793946,500.593749 307.01953,500.5 307.283203,500.5 L307.283203,500.5 Z M307.283203,501.783203 C307.371094,501.783203 307.447265,501.752442 307.511719,501.690918 C307.576172,501.629394 307.608398,501.554688 307.608398,501.466797 C307.608398,501.373046 307.576172,501.29541 307.511719,501.233887 C307.447265,501.172363 307.371094,501.141602 307.283203,501.141602 C307.195312,501.141602 307.120606,501.172363 307.059082,501.233887 C306.997558,501.29541 306.966797,501.373046 306.966797,501.466797 C306.966797,501.554688 306.997558,501.629394 307.059082,501.690918 C307.120606,501.752442 307.195312,501.783203 307.283203,501.783203 L307.283203,501.783203 Z" id="flask" sketch:type="MSShapeGroup"></path>
        </g>
    </g>
</svg>