<?xml version="1.0" encoding="UTF-8" standalone="no"?>
<svg width="21px" height="20px" viewBox="0 0 21 20" version="1.1" xmlns="http://www.w3.org/2000/svg" xmlns:xlink="http://www.w3.org/1999/xlink" xmlns:sketch="http://www.bohemiancoding.com/sketch/ns">
    <!-- Generator: Sketch 3.3.3 (12072) - http://www.bohemiancoding.com/sketch -->
    <title>Group</title>
    <desc>Created with Sketch.</desc>
    <defs></defs>
    <g id="WALLET-2-of-3" stroke="none" stroke-width="1" fill="none" fill-rule="evenodd" sketch:type="MSPage">
        <g id="Home-with-funds-Copy-2" sketch:type="MSArtboardGroup" transform="translate(-513.500000, -486.000000)">
            <g id="Group" sketch:type="MSLayerGroup" transform="translate(515.000000, 487.000000)">
                <path d="M7.00000018,11.5 L2.88000001,15.48" id="Line" stroke="#7A8C9E" stroke-width="1.08" stroke-linecap="square" sketch:type="MSShapeGroup"></path>
                <path d="M15.48,2.88 L12,6.50000002" id="Line-Copy" stroke="#7A8C9E" stroke-width="1.08" stroke-linecap="square" sketch:type="MSShapeGroup"></path>
                <circle id="Oval-146" stroke="#7A8C9E" stroke-width="1.08" sketch:type="MSShapeGroup" cx="9" cy="9" r="9"></circle>
                <path d="M14.2947321,14.04 L12.2416071,14.04 C12.1853569,14.04 12.1366073,14.0203127 12.0953571,13.9809375 C12.0541069,13.9415623 12.0334821,13.8918753 12.0334821,13.831875 L12.0334821,12.8025 L11.0041071,12.8025 C10.9478569,12.8025 10.9000448,12.7828127 10.8606696,12.7434375 C10.8212944,12.7040623 10.8016071,12.6562503 10.8016071,12.6 L10.8016071,11.570625 L9.77223214,11.570625 C9.74223199,11.570625 9.71598226,11.5650001 9.69348214,11.55375 L9.68785714,11.55375 C9.65785699,11.5387499 9.6372322,11.5237501 9.62598214,11.50875 L7.84848214,9.736875 C7.4997304,9.86062562 7.11160928,9.9225 6.68410714,9.9225 C6.18160463,9.9225 5.70254692,9.82500097 5.24691964,9.63 C4.79129236,9.43499902 4.3975463,9.17250165 4.06566964,8.8425 C3.73379298,8.51249835 3.47035812,8.11875229 3.27535714,7.66125 C3.08035617,7.20374771 2.98285714,6.72375251 2.98285714,6.22125 C2.98285714,5.71874749 3.08035617,5.23968978 3.27535714,4.7840625 C3.47035812,4.32843522 3.73379298,3.93468916 4.06566964,3.6028125 C4.3975463,3.27093584 4.79129236,3.00750097 5.24691964,2.8125 C5.70254692,2.61749902 6.18160463,2.52 6.68410714,2.52 C7.18660966,2.52 7.66660486,2.61749902 8.12410714,2.8125 C8.58160943,3.00750097 8.97629298,3.27093584 9.30816964,3.6028125 C9.6400463,3.93468916 9.90348117,4.32843522 10.0984821,4.7840625 C10.2934831,5.23968978 10.3909821,5.71874749 10.3909821,6.22125 C10.3909821,6.62250201 10.3272328,7.01062313 10.1997321,7.385625 L14.4409821,11.6325 C14.4559822,11.6437501 14.4709821,11.6643748 14.4859821,11.694375 C14.4972322,11.7206251 14.5028571,11.7487498 14.5028571,11.77875 L14.5028571,13.831875 C14.5028571,13.8918753 14.4831698,13.9415623 14.4437946,13.9809375 C14.4044194,14.0203127 14.3547324,14.04 14.2947321,14.04 L14.2947321,14.04 Z M12.4441071,13.629375 L14.0922321,13.629375 L14.0922321,11.863125 L9.83410714,7.599375 C9.7853569,7.55812479 9.76098214,7.50562532 9.76098214,7.441875 C9.76098214,7.41562487 9.76660709,7.38750015 9.77785714,7.3575 L9.77223214,7.351875 C9.90723282,6.98812318 9.97473214,6.61125195 9.97473214,6.22125 C9.97473214,5.62499702 9.82754611,5.07469002 9.53316964,4.5703125 C9.23879317,4.06593498 8.83942216,3.66656397 8.33504464,3.3721875 C7.83066712,3.07781103 7.28036012,2.930625 6.68410714,2.930625 C6.08785416,2.930625 5.53754716,3.07781103 5.03316964,3.3721875 C4.52879212,3.66656397 4.12942111,4.06593498 3.83504464,4.5703125 C3.54066817,5.07469002 3.39348214,5.62499702 3.39348214,6.22125 C3.39348214,6.81750298 3.54066817,7.36780998 3.83504464,7.8721875 C4.12942111,8.37656502 4.52879212,8.77593603 5.03316964,9.0703125 C5.53754716,9.36468897 6.08785416,9.511875 6.68410714,9.511875 C7.06660906,9.511875 7.44348029,9.44437567 7.81473214,9.309375 L7.82035714,9.315 C7.85785733,9.29999993 7.88598205,9.2925 7.90473214,9.2925 C7.96473244,9.2925 8.01723192,9.31874974 8.06223214,9.37125 L8.06785714,9.37125 L9.85660714,11.16 L11.0041071,11.16 C11.0603574,11.16 11.1091069,11.1796873 11.1503571,11.2190625 C11.1916073,11.2584377 11.2122321,11.3062497 11.2122321,11.3625 L11.2122321,12.391875 L12.2416071,12.391875 C12.2978574,12.391875 12.3456694,12.4124998 12.3850446,12.45375 C12.4244198,12.4950002 12.4441071,12.5437497 12.4441071,12.6 L12.4441071,13.629375 Z M5.86285714,4.1625 C6.20410885,4.1625 6.49473094,4.28343629 6.73473214,4.5253125 C6.97473334,4.76718871 7.09473214,5.05874829 7.09473214,5.4 C7.09473214,5.74125171 6.97473334,6.0318738 6.73473214,6.271875 C6.49473094,6.5118762 6.20410885,6.631875 5.86285714,6.631875 C5.52160544,6.631875 5.23098334,6.5118762 4.99098214,6.271875 C4.75098094,6.0318738 4.63098214,5.74125171 4.63098214,5.4 C4.63098214,5.05874829 4.75098094,4.76718871 4.99098214,4.5253125 C5.23098334,4.28343629 5.52160544,4.1625 5.86285714,4.1625 L5.86285714,4.1625 Z M5.86285714,6.22125 C6.09160829,6.22125 6.28566885,6.1415633 6.44504464,5.9821875 C6.60442044,5.8228117 6.68410714,5.62875114 6.68410714,5.4 C6.68410714,5.17124886 6.60442044,4.9771883 6.44504464,4.8178125 C6.28566885,4.6584367 6.09160829,4.57875 5.86285714,4.57875 C5.634106,4.57875 5.44004544,4.6584367 5.28066964,4.8178125 C5.12129385,4.9771883 5.04160714,5.17124886 5.04160714,5.4 C5.04160714,5.62875114 5.12129385,5.8228117 5.28066964,5.9821875 C5.44004544,6.1415633 5.634106,6.22125 5.86285714,6.22125 L5.86285714,6.22125 Z" id="Key" fill="#7A8C9E" sketch:type="MSShapeGroup"></path>
            </g>
        </g>
    </g>
</svg>