<?xml version="1.0" encoding="UTF-8" standalone="no"?>
<svg width="61px" height="61px" viewBox="0 0 61 61" version="1.1" xmlns="http://www.w3.org/2000/svg" xmlns:xlink="http://www.w3.org/1999/xlink" xmlns:sketch="http://www.bohemiancoding.com/sketch/ns">
    <!-- Generator: Sketch 3.4.2 (15855) - http://www.bohemiancoding.com/sketch -->
    <title>Oval 145 Copy 7 + retweet</title>
    <desc>Created with Sketch.</desc>
    <defs>
        <circle id="path-1" cx="26.25" cy="26.25" r="26.25"></circle>
    </defs>
    <g id="Page-1" stroke="none" stroke-width="1" fill="none" fill-rule="evenodd" sketch:type="MSPage">
        <g id="Wallet-1of1" sketch:type="MSArtboardGroup" transform="translate(-28.000000, -675.000000)">
            <g id="Group" sketch:type="MSLayerGroup" transform="translate(0.000000, 646.000000)">
                <g id="Oval-145-Copy-7-+-retweet" transform="translate(32.000000, 33.000000)">
                    <g id="Oval-145-Copy-7" stroke="#4B6178">
                        <use stroke-width="1.09090909" fill="#FFFFFF" fill-rule="evenodd" sketch:type="MSShapeGroup" xlink:href="#path-1"></use>
                        <use stroke-opacity="0.15" stroke-width="4" fill="none" xlink:href="#path-1"></use>
                    </g>
                    <path d="M30.9677734,31.75 C31.0898444,31.75 31.1936031,31.7927242 31.2790527,31.8781738 C31.3645024,31.9636235 31.4072266,32.0714512 31.4072266,32.2016602 C31.4072266,32.3237311 31.3645024,32.4274898 31.2790527,32.5129395 C31.1936031,32.5983891 31.0898444,32.6411133 30.9677734,32.6411133 L18.9072266,32.6411133 C18.7851556,32.6411133 18.6813969,32.5983891 18.5959473,32.5129395 C18.5104976,32.4274898 18.4677734,32.3237311 18.4677734,32.2016602 L18.4677734,19.8847656 L14.7568359,23.5834961 C14.6835934,23.6730148 14.5818691,23.7177734 14.4516602,23.7177734 C14.3214512,23.7177734 14.2136235,23.6730148 14.1281738,23.5834961 C14.0427242,23.4939774 14,23.3881842 14,23.2661133 C14,23.1440424 14.0447587,23.0382491 14.1342773,22.9487305 L18.5898438,18.4931641 C18.6793624,18.4036454 18.7851556,18.3588867 18.9072266,18.3588867 C19.0455736,18.3588867 19.1513668,18.4036454 19.2246094,18.4931641 L23.6923828,22.9487305 C23.7819015,23.0545253 23.8266602,23.1603185 23.8266602,23.2661133 C23.8266602,23.3881842 23.7819015,23.4939774 23.6923828,23.5834961 C23.6028641,23.6730148 23.4970709,23.7177734 23.375,23.7177734 C23.2529291,23.7177734 23.1471359,23.6730148 23.0576172,23.5834961 L19.3588867,19.8847656 L19.3588867,31.75 L30.9677734,31.75 Z M38.5483398,27.2822266 C38.6785488,27.2822266 38.7863765,27.3269852 38.8718262,27.4165039 C38.9572758,27.5060226 39,27.6118158 39,27.7338867 C39,27.8559576 38.9552413,27.9617509 38.8657227,28.0512695 L34.4101562,32.5068359 C34.3206376,32.5963546 34.2148444,32.6411133 34.0927734,32.6411133 C33.9544264,32.6411133 33.8486332,32.5963546 33.7753906,32.5068359 L29.3076172,28.0512695 C29.2180985,27.9454747 29.1733398,27.8396815 29.1733398,27.7338867 C29.1733398,27.6118158 29.2180985,27.5060226 29.3076172,27.4165039 C29.3971359,27.3269852 29.5029291,27.2822266 29.625,27.2822266 C29.7470709,27.2822266 29.8528641,27.3269852 29.9423828,27.4165039 L33.6411133,31.1152344 L33.6411133,19.25 L22.0322266,19.25 C21.9101556,19.25 21.8063969,19.2072758 21.7209473,19.1218262 C21.6354976,19.0363765 21.5927734,18.9285488 21.5927734,18.7983398 C21.5927734,18.6762689 21.6354976,18.5725102 21.7209473,18.4870605 C21.8063969,18.4016109 21.9101556,18.3588867 22.0322266,18.3588867 L34.0927734,18.3588867 C34.2148444,18.3588867 34.3186031,18.4016109 34.4040527,18.4870605 C34.4895024,18.5725102 34.5322266,18.6762689 34.5322266,18.7983398 L34.5322266,31.1152344 L38.2431641,27.4165039 C38.3164066,27.3269852 38.4181309,27.2822266 38.5483398,27.2822266 L38.5483398,27.2822266 Z" id="retweet" fill="#4B6178" sketch:type="MSShapeGroup"></path>
                </g>
            </g>
        </g>
    </g>
</svg>