<?xml version="1.0" encoding="UTF-8" standalone="no"?>
<svg width="21px" height="20px" viewBox="0 0 21 20" version="1.1" xmlns="http://www.w3.org/2000/svg" xmlns:xlink="http://www.w3.org/1999/xlink" xmlns:sketch="http://www.bohemiancoding.com/sketch/ns">
    <!-- Generator: Sketch 3.4.2 (15855) - http://www.bohemiancoding.com/sketch -->
    <title>send</title>
    <desc>Created with Sketch.</desc>
    <defs></defs>
    <g id="Page-1" stroke="none" stroke-width="1" fill="none" fill-rule="evenodd" sketch:type="MSPage">
        <g id="Wallet-Multisign" sketch:type="MSArtboardGroup" transform="translate(-305.000000, -613.000000)" fill="#7A8C9E">
            <g id="Navigation-/-Send-Copy-2" sketch:type="MSLayerGroup" transform="translate(0.000000, 594.000000)">
                <g id="Send" transform="translate(295.898438, 18.992188)" sketch:type="MSShapeGroup">
                    <g id="Send-2-+-ios7-paperplane">
                        <path d="M20.8189487,20 C20.6644527,20 20.5582383,19.9259718 20.5003023,19.7779131 L20.4906464,19.7779131 L17.3717737,12.1497107 L9.74357128,9.02118206 C9.5955126,8.96968339 9.52148438,8.86346897 9.52148438,8.70253563 C9.52148438,8.54803962 9.59229398,8.43860658 9.73391533,8.37423325 L28.8044214,0.253577232 C28.8430454,0.234265231 28.8881061,0.224609375 28.9396048,0.224609375 C29.0426021,0.224609375 29.1278955,0.258404871 29.1954875,0.325996876 C29.2630795,0.393588881 29.296875,0.475663656 29.296875,0.572223663 C29.296875,0.623722334 29.2872191,0.672001613 29.2679071,0.71706295 L21.1472511,19.787569 C21.0828778,19.9291904 20.9734448,20 20.8189487,20 L20.8189487,20 Z M10.7864141,8.69287968 L17.5648928,11.464138 L27.4043083,1.61506653 L10.7864141,8.69287968 Z M20.8286047,18.7254143 L27.9064178,2.11717606 L18.0573463,11.9565916 L20.8286047,18.7254143 Z" id="send"></path>
                    </g>
                </g>
            </g>
        </g>
    </g>
</svg>