<svg width="46" height="49" viewBox="0 0 46 49" xmlns="http://www.w3.org/2000/svg"><g class="nc-icon-wrapper" fill="#444444"><title>airplane</title><path d="M31.9 46.15V42.8a.833.833 0 0 0-.253-.596l-4.796-4.797V27.264l15.628 6.242h.023a.635.635 0 0 0 .298.069c.46 0 .85-.39.85-.85v-3.35c0-.298-.161-.528-.368-.688L26.851 17.189V5.026A5.024 5.024 0 0 0 21.825 0a5.024 5.024 0 0 0-5.026 5.026v12.163L.367 28.687c-.206.16-.367.39-.367.688v3.35c0 .46.39.85.85.85a.635.635 0 0 0 .297-.07h.023L16.8 27.265v10.143l-4.797 4.797a.833.833 0 0 0-.252.596v3.35c0 .483.39.85.85.85a.774.774 0 0 0 .39-.115l8.835-4.796 8.835 4.796a.774.774 0 0 0 .39.115c.46 0 .85-.367.85-.85z" transform="translate(1 1)" stroke="#444444" stroke-width=".8" fill-rule="nonzero" fill="none"></path></g></svg>