<svg width="41" height="45" viewBox="0 0 41 45" xmlns="http://www.w3.org/2000/svg"><g class="nc-icon-wrapper" fill="#444444"><title>golf</title><g transform="translate(-142 -1661) translate(142 1661) translate(.5 .5)" stroke="#444444" stroke-width="1" fill="none" fill-rule="evenodd"><path d="M36 14H22v-3.646a4 4 0 0 1 2.057-3.497l10-5.556C36.724-.179 40 1.748 40 4.798V10a4 4 0 0 1-4 4z"></path><path d="M22 14v12"></path><path d="M2 18h12v-4.681a2 2 0 0 0-1.212-1.838l-10-4.286A2 2 0 0 0 0 9.033V16a2 2 0 0 0 2 2z"></path><path d="M14 18v8"></path><path d="M4 26H32V34H4z"></path><path d="M28 34v10"></path><path d="M8 44V34"></path></g></g></svg>