<svg width="45" height="41" viewBox="0 0 45 41" xmlns="http://www.w3.org/2000/svg"><g class="nc-icon-wrapper" fill="#444444"><title>pet</title><g transform="translate(-140 -2340) translate(138 2339) translate(.5 .5)" stroke="#444444" stroke-width="1" fill="none" fill-rule="evenodd"><ellipse stroke-width="1" transform="rotate(-3.001 16.667 7.065)" cx="16.667" cy="7.065" rx="4.4" ry="5.867"></ellipse><ellipse stroke-width="1" transform="rotate(-17.103 5.817 18.174)" cx="5.817" cy="18.174" rx="3.667" ry="5.133"></ellipse><ellipse stroke-width="1" transform="rotate(-162.897 42.183 18.174)" cx="42.183" cy="18.174" rx="3.667" ry="5.133"></ellipse><ellipse stroke-width="1" transform="rotate(3.105 31.333 7.065)" cx="31.333" cy="7.065" rx="4.4" ry="5.867"></ellipse><path d="M15.752 21.991l-3.813 7.481c-3.18 6.238 2.264 13.587 8.143 10.993 2.764-1.22 5.07-1.22 7.836 0 5.88 2.594 11.323-4.755 8.143-10.993l-3.813-7.48c-3.969-6.656-12.527-6.656-16.496 0z"></path></g></g></svg>