<svg width="45" height="41" viewBox="0 0 45 41" xmlns="http://www.w3.org/2000/svg"><g class="nc-icon-wrapper" fill="#444444"><title>business-48px-outline_briefcase-25</title><g transform="translate(-1111 -751) translate(1111 751) translate(.5 .5)" stroke="#444444" stroke-width="1" fill="none" fill-rule="evenodd"><path d="M14 6L14 0 30 0 30 6"></path><path d="M44 28L44 40 0 40 0 28"></path><path d="M30 28H14"></path><path d="M6 28L0 28 0 6 44 6 44 28 38 28"></path><path d="M10 6v18"></path><path d="M34 6v18"></path><path d="M34 32v8"></path><path d="M10 32v8"></path><path d="M6 24H14V32H6z"></path><path d="M30 24H38V32H30z"></path></g></g></svg>