<svg width="46" height="46" viewBox="0 0 46 46" xmlns="http://www.w3.org/2000/svg"><g class="nc-icon-wrapper" fill="#444444"><title>telephone</title><path d="M36.695 45.427c-5.318 0-12.283-4.376-22.142-14.236C4.529 20.085.128 12.721.693 8.061 1 5.449 2.811 3.708 5.846 1.614 7.023.767 7.916.46 8.717.602c1.53.282 3.388 2.259 6.212 6.612 3.435 5.341 2.47 6.165.847 7.506-1.153.941-2.376 2-2.376 3.341 0 .66.282 1.248.776 1.789 2.8 3.106 8.118 8.588 12.071 12.165a2.92 2.92 0 0 0 1.977.753c1.647 0 3.13-1.624 3.576-2.024 1.671-1.506 2.518-2.259 7.483 1.012 3.86 2.518 6.071 5.083 6.071 7.224 0 1.906-3.93 6.447-8.66 6.447z" stroke="#444444" stroke-width=".8" fill-rule="nonzero" fill="none"></path></g></svg>