<svg width="52" height="37" viewBox="0 0 52 37" xmlns="http://www.w3.org/2000/svg"><g class="nc-icon-wrapper" fill="#444444"><title>truck</title><g stroke="#444444" stroke-width="1" fill="none" fill-rule="evenodd"><g transform="translate(-1108 -1350) translate(1108 1350) translate(.5 .5)"><path d="M39 10L39 18 45 18"></path><path d="M37.1 30H20.9"></path><path d="M11.1 30H7V18h26V4h7c2.2 0 11 12 11 12v14h-4.1"></path><circle cx="16" cy="31" r="5"></circle><circle cx="42" cy="31" r="5"></circle><path d="M0 0H33V18H0z"></path></g><path d="M2.5 3.5h28" stroke-linecap="square" transform="translate(-1108 -1350) translate(1108 1350)"></path><path d="M2.5 6.5h28" stroke-linecap="square" transform="translate(-1108 -1350) translate(1108 1350)"></path><path d="M2.5 9.5h28" stroke-linecap="square" transform="translate(-1108 -1350) translate(1108 1350)"></path></g></g></svg>