<?xml version="1.0" encoding="UTF-8"?>
<svg width="50px" height="50px" viewBox="0 0 50 50" version="1.1" xmlns="http://www.w3.org/2000/svg" xmlns:xlink="http://www.w3.org/1999/xlink">
    <!-- Generator: Sketch 52.5 (67469) - http://www.bohemiancoding.com/sketch -->
    <title>Brand/Icon/RoyalCaribbean</title>
    <desc>Created with Sketch.</desc>
    <g id="Brand/Icon/RoyalCaribbean" stroke="none" stroke-width="1" fill="none" fill-rule="evenodd">
        <rect fill="#08305D" x="0" y="0" width="50" height="50"></rect>
        <g id="RoyalCaribbean_logo-2" transform="translate(11.000000, 9.000000)" fill="#FFFFFE">
            <path d="M13.635759,0.674411933 C15.038747,2.02094091 16.6065542,3.44951234 17.9644337,4.84136546 L16.3775422,6.8703385 L16.3775422,6.9707401 L20.5841928,8.83620195 L23.4271807,6.89816408 L21.7124819,5.00573723 L21.7124819,4.86947791 C23.4731566,3.63138267 24.9860241,2.43947217 26.6920482,1.30263913 L25.8667952,9.78169822 L1.30987952,9.78169822 L0.484626506,1.30263913 C2.1906506,2.43947217 3.70380723,3.63138267 5.46448193,4.86947791 L5.46448193,5.00573723 L3.74949398,6.89816408 L6.59248193,8.83620195 L10.7994217,6.9707401 L10.7994217,6.8703385 L9.21310843,4.84136546 C10.5704096,3.44951234 12.1382169,2.02094091 13.5412048,0.674411933 L13.635759,0.674411933" id="Fill-17"></path>
            <path d="M25.6785542,11.3106713 L25.4310361,14.1359725 L16.3396627,14.1325301 L16.3428434,23.8952955 L20.7704096,23.8668962 C21.7575904,23.8654618 22.7971084,22.8341939 22.5857349,22.1569134 C22.347759,21.1738382 21.4583133,20.518646 20.6330602,20.0275387 C20.7978795,20.0275387 23.8334458,17.8083764 25.2549398,16.8522662 C25.190747,17.4621343 24.1726265,25.4411933 24.1636627,25.56856 L13.6719036,29.5258176 L13.5047711,29.5258176 L3.01359036,25.56856 C3.00404819,25.4411933 1.98679518,17.4621343 1.92231325,16.8522662 C3.34409639,17.8083764 6.37908434,20.0275387 6.54448193,20.0275387 C5.71836145,20.518646 4.82978313,21.1738382 4.59093976,22.1569134 C4.37956627,22.8341939 5.41908434,23.8654618 6.40626506,23.8668962 L10.8341205,23.8952955 L10.837012,14.1325301 L1.74650602,14.1359725 L1.49840964,11.3106713 L25.6785542,11.3106713" id="Fill-18"></path>
        </g>
    </g>
</svg>