<?xml version="1.0" encoding="UTF-8"?>
<svg width="215px" height="73px" viewBox="0 0 215 73" version="1.1" xmlns="http://www.w3.org/2000/svg" xmlns:xlink="http://www.w3.org/1999/xlink">
    <!-- Generator: Sketch 52.5 (67469) - http://www.bohemiancoding.com/sketch -->
    <title>logo-box</title>
    <desc>Created with Sketch.</desc>
    <g id="Symbols" stroke="none" stroke-width="1" fill="none" fill-rule="evenodd">
        <g id="Brand/Card/Small/RoyalCaribbean">
            <g id="Component/amount-dark" transform="translate(209.000000, 0.000000)">
                <text id="$50.00" font-family="Helvetica" font-size="16" font-weight="normal" fill="#FFFFFF">
                    <tspan x="38.0625" y="44">$50.00</tspan>
                </text>
                <g id="Icons/Small-(20px)/Controls/Right-(White)" opacity="0.5" transform="translate(107.000000, 28.000000)" fill-rule="evenodd" stroke="#FFFFFF" stroke-linecap="round" stroke-linejoin="round" stroke-width="1">
                    <g id="small-right" transform="translate(4.000000, 1.000000)">
                        <polyline id="Shape" points="0 0 10 9 0 18"></polyline>
                    </g>
                </g>
            </g>
            <g id="RoyalCaribbean_logo-2" transform="translate(18.000000, 16.000000)">
                <g id="RoyalCaribbean_logo">
                    <polygon id="Fill-1" fill="#0668A4" points="0.00243459552 41 167.418613 41 167.418613 0.159477941 0.00243459552 0.159477941"></polygon>
                    <polygon id="Fill-2" fill="#08305D" points="0 41 41.2271363 41 41.2271363 0.159477941 0 0.159477941"></polygon>
                    <polygon id="Fill-3" fill="#F5BA59" points="41.2271363 41 167.417092 41 167.417092 28.4344044 41.2271363 28.4344044"></polygon>
                    <polygon id="Fill-4" fill="#08305D" points="47.511436 37.7778824 48.3388941 37.7778824 48.3388941 32.0598897 47.511436 32.0598897"></polygon>
                    <polyline id="Fill-5" fill="#08305D" points="54.2680472 32.0598897 55.3922217 32.0598897 57.9397216 36.6639485 57.9558508 36.6639485 57.9558508 32.0598897 58.783309 32.0598897 58.783309 37.7778824 57.7251729 37.7778824 55.1116346 33.0761471 55.0955054 33.0761471 55.0955054 37.7778824 54.2680472 37.7778824 54.2680472 32.0598897"></polyline>
                    <polyline id="Fill-6" fill="#08305D" points="65.8640257 32.7810074 64.0694245 32.7810074 64.0694245 32.0598897 68.4851721 32.0598897 68.4851721 32.7810074 66.6905709 32.7810074 66.6905709 37.7778824 65.8640257 37.7778824 65.8640257 32.7810074"></polyline>
                    <polyline id="Fill-7" fill="#08305D" points="73.8199796 32.0598897 77.0531224 32.0598897 77.0531224 32.7810074 74.6468291 32.7810074 74.6468291 34.4517574 76.8385737 34.4517574 76.8385737 35.172875 74.6468291 35.172875 74.6468291 37.0570662 77.0531224 37.0570662 77.0531224 37.7778824 73.8199796 37.7778824 73.8199796 32.0598897"></polyline>
                    <path d="M83.6207482,34.5171765 L84.3234333,34.5171765 C85.1088947,34.5171765 85.5723808,34.1735 85.5723808,33.6245221 C85.5723808,33.1084044 85.1749331,32.7810074 84.4138177,32.7810074 L83.6207482,32.7810074 L83.6207482,34.5171765 Z M82.79329,32.0598897 L84.20779,32.0598897 C85.348398,32.0598897 86.4485309,32.2401691 86.4485309,33.6082426 C86.4485309,34.3046397 85.9275274,34.7960368 85.258318,34.9105956 L85.258318,34.926875 C85.5142548,35.0254559 85.6378106,35.1481544 85.8194923,35.5005735 L86.9114083,37.7778824 L85.9689156,37.7778824 L85.0839401,35.7951103 C84.8273946,35.2379926 84.5553285,35.2379926 84.116797,35.2379926 L83.6207482,35.2379926 L83.6207482,37.7778824 L82.79329,37.7778824 L82.79329,32.0598897 Z" id="Fill-8" fill="#08305D"></path>
                    <polyline id="Fill-9" fill="#08305D" points="92.354251 32.0598897 93.4787298 32.0598897 96.0253167 36.6639485 96.0414459 36.6639485 96.0414459 32.0598897 96.868904 32.0598897 96.868904 37.7778824 95.8101593 37.7778824 93.1972297 33.0761471 93.1811005 33.0761471 93.1811005 37.7778824 92.354251 37.7778824 92.354251 32.0598897"></polyline>
                    <path d="M105.031799,32.8301471 L103.882669,35.6639706 L106.182145,35.6639706 L105.031799,32.8301471 Z M104.627656,32.0598897 L105.495589,32.0598897 L107.935358,37.7778824 L107.03334,37.7778824 L106.447211,36.3359485 L103.618516,36.3359485 L103.03117,37.7778824 L102.162932,37.7778824 L104.627656,32.0598897 Z" id="Fill-10" fill="#08305D"></path>
                    <polyline id="Fill-11" fill="#08305D" points="113.77504 32.7810074 111.980438 32.7810074 111.980438 32.0598897 116.397099 32.0598897 116.397099 32.7810074 114.602498 32.7810074 114.602498 37.7778824 113.77504 37.7778824 113.77504 32.7810074"></polyline>
                    <polygon id="Fill-12" fill="#08305D" points="121.690823 37.7778824 122.516455 37.7778824 122.516455 32.0598897 121.690823 32.0598897"></polygon>
                    <path d="M130.935895,37.1556471 C132.267314,37.1556471 132.837923,36.0576912 132.837923,34.9193382 C132.837923,33.7553603 132.209797,32.6739853 130.935895,32.6824265 C129.662601,32.6739853 129.034171,33.7553603 129.034171,34.9193382 C129.034171,36.0576912 129.60478,37.1556471 130.935895,37.1556471 Z M130.935895,31.9613088 C132.688804,31.9613088 133.713464,33.2232647 133.713464,34.9193382 C133.713464,36.6555074 132.696716,37.8764632 130.935895,37.8764632 C129.174161,37.8764632 128.157108,36.6555074 128.157108,34.9193382 C128.157108,33.2232647 129.182073,31.9613088 130.935895,31.9613088 Z" id="Fill-13" fill="#08305D"></path>
                    <polyline id="Fill-14" fill="#08305D" points="139.346205 32.0598897 140.470988 32.0598897 143.018184 36.6639485 143.035226 36.6639485 143.035226 32.0598897 143.862684 32.0598897 143.862684 37.7778824 142.803635 37.7778824 140.19101 33.0761471 140.173663 33.0761471 140.173663 37.7778824 139.346205 37.7778824 139.346205 32.0598897"></polyline>
                    <path d="M152.025579,32.8301471 L150.87645,35.6639706 L153.175316,35.6639706 L152.025579,32.8301471 Z M151.61961,32.0598897 L152.489065,32.0598897 L154.927312,37.7778824 L154.026816,37.7778824 L153.439166,36.3359485 L150.611992,36.3359485 L150.024037,37.7778824 L149.156408,37.7778824 L151.61961,32.0598897 Z" id="Fill-15" fill="#08305D"></path>
                    <polyline id="Fill-16" fill="#08305D" points="160.222862 32.0598897 161.048494 32.0598897 161.048494 37.0570662 163.463917 37.0570662 163.463917 37.7778824 160.222862 37.7778824 160.222862 32.0598897"></polyline>
                    <path d="M20.6657598,5.96338971 C22.142342,7.37849265 23.7923891,8.87981618 25.2214967,10.3425515 L23.5513641,12.4748529 L23.5513641,12.5803676 L27.9786761,14.5408309 L30.970794,12.5040956 L29.1661501,10.5152941 L29.1661501,10.3720956 C31.0191816,9.07094853 32.6114071,7.81833824 34.4069213,6.62361029 L33.5383793,15.5344779 L7.69332186,15.5344779 L6.82477991,6.62361029 C8.6202941,7.81833824 10.2128239,9.07094853 12.0658554,10.3720956 L12.0658554,10.5152941 L10.2609072,12.5040956 L13.2530251,14.5408309 L17.6806414,12.5803676 L17.6806414,12.4748529 L16.0111175,10.3425515 C17.4396164,8.87981618 19.0896635,7.37849265 20.5662457,5.96338971 L20.6657598,5.96338971" id="Fill-17" fill="#FFFFFE"></path>
                    <path d="M33.3402641,17.1413162 L33.0797624,20.1105 L23.5114976,20.1068824 L23.5148452,30.3668309 L28.174661,30.3369853 C29.2136247,30.3354779 30.307671,29.2516912 30.0852099,28.5399191 C29.8347509,27.5067794 28.8986489,26.8182206 28.0301069,26.3021029 C28.2035719,26.3021029 31.3983698,23.9699265 32.8944288,22.965125 C32.8268688,23.6060515 31.7553424,31.9914559 31.7459083,32.1253088 L20.7038003,36.2840956 L20.5279008,36.2840956 L9.48640146,32.1253088 C9.47635876,31.9914559 8.40574537,23.6060515 8.33788102,22.965125 C9.8342443,23.9699265 13.0284336,26.3021029 13.2025072,26.3021029 C12.3330523,26.8182206 11.3978633,27.5067794 11.1464913,28.5399191 C10.9240301,29.2516912 12.0180765,30.3354779 13.0570401,30.3369853 L17.7171603,30.3668309 L17.7202035,20.1068824 L8.15285176,20.1105 L7.89174139,17.1413162 L33.3402641,17.1413162" id="Fill-18" fill="#FFFFFE"></path>
                    <path d="M49.4865016,14.3159338 C51.3370985,14.2966397 53.4974977,13.4561397 53.4974977,11.3361985 C53.4974977,9.10169853 51.5105635,8.20361765 49.4865016,8.22291176 L49.4865016,14.3159338 Z M47.7898929,11.7947353 C47.7898929,8.87197794 47.693422,8.43303676 45.5342401,8.24220588 L45.5342401,7.97480147 L50.2384873,7.82165441 C55.0967227,7.66911029 55.4832147,10.0184706 55.4832147,10.9349412 C55.4832147,12.5393676 54.4801614,13.4561397 53.0921376,14.0678235 L53.1886084,14.2010735 C54.6731031,16.7798529 56.524613,20.0649779 59.705412,20.7146471 L59.6478947,21.0004412 C57.6037474,20.9054779 56.099776,20.9624559 54.981688,19.8162647 C53.7090032,18.4985368 52.7065585,16.8175368 52.3015027,15.9966324 C51.5300402,14.4111985 50.8361805,14.8694338 49.4865016,14.6400147 L49.4865016,17.7156176 C49.4865016,19.8162647 49.5245422,20.1985294 52.1663826,20.5611985 L52.1663826,20.8478971 L45.3988157,20.8478971 L45.3988157,20.5611985 C47.7128988,20.2561103 47.7314626,19.6830147 47.7898929,17.7156176 L47.7898929,11.7947353 Z" id="Fill-19" fill="#FFFFFE"></path>
                    <path d="M62.4808509,12.6234779 C60.3983588,12.6234779 59.5499022,14.7627132 59.5499022,16.5196838 C59.5499022,18.2959485 60.5532599,20.6067206 62.6354477,20.6067206 C64.5825155,20.6067206 65.4501445,18.4105074 65.4501445,16.7674926 C65.4501445,15.0105221 64.5825155,12.6234779 62.4808509,12.6234779 Z M62.5003277,21.0272721 C59.8587915,21.0272721 57.7571269,19.3658676 57.7571269,16.6535368 C57.7571269,14.0177794 59.9357856,12.2029265 62.5195001,12.2029265 C65.1415595,12.2029265 67.2432241,13.883625 67.2432241,16.5766618 C67.2432241,19.1747353 65.0450886,21.0272721 62.5003277,21.0272721 Z" id="Fill-20" fill="#FFFFFE"></path>
                    <path d="M67.8570465,14.1124412 C67.5101166,13.2526471 67.4331225,13.0618162 66.4690227,12.9083676 L66.4690227,12.6219706 L70.4602377,12.6219706 L70.4602377,12.9083676 C68.9943069,12.9846397 69.3801903,13.8637279 69.7657694,14.8380809 L71.6553198,19.6893456 L72.8504019,16.251375 C73.7183352,13.7681618 73.8723234,13.0995 72.446259,12.9083676 L72.446259,12.6219706 L75.8199998,12.6219706 L75.8199998,12.9083676 C74.9709346,13.0039338 74.7019118,13.3482132 74.3348965,14.0738529 L73.5253935,15.9263897 L70.5557956,23.3178456 C69.8427634,25.0944118 69.3412368,25.6868015 68.5706873,25.6868015 C68.0496838,25.6868015 67.6251512,25.2668529 67.6251512,24.7314412 C67.6251512,24.3301838 67.8570465,23.9675147 68.2426255,23.8339632 C68.4352629,23.9482206 69.0332604,24.3687721 69.2642427,24.3687721 C69.6887753,24.3687721 70.0357051,23.3374412 70.1711295,23.0507426 L70.8068633,21.5804706 L67.8570465,14.1124412" id="Fill-21" fill="#FFFFFE"></path>
                    <path d="M77.0999884,17.8111838 C77.0229943,18.0592941 76.964564,18.3074044 76.964564,18.5754118 C76.964564,19.3773235 77.4280501,20.0836691 78.3145472,20.0836691 C78.8355507,20.0836691 79.3556411,19.7399926 79.7031796,19.3773235 L79.7031796,16.4934559 L77.0999884,17.8111838 Z M79.7031796,16.1111912 C79.8571678,14.0292353 79.3176006,13.1694412 77.7935438,13.1694412 C76.4639503,13.1694412 76.5990704,13.8004191 76.5990704,14.8504412 L75.6349705,14.9080221 C75.4800694,14.9080221 75.1909612,14.9264118 75.1909612,14.7171912 C75.1909612,14.2010735 77.3121025,12.2143824 78.8741999,12.2143824 C80.6471941,12.2143824 81.1876743,13.5517059 81.1876743,15.0798603 L81.1876743,17.7918897 C81.1876743,19.4728897 81.025165,20.5226103 82.8648063,20.2368162 L82.8648063,20.6682206 C82.1322973,20.8777426 81.4962593,20.9431618 80.9177385,20.9431618 C80.1076268,20.9431618 79.7996505,20.4849265 79.7031796,19.7399926 C79.0860097,20.4279485 78.2375531,21.0387279 77.2539765,21.0387279 C76.0205496,21.0387279 75.3254726,20.0073971 75.3254726,18.8612059 C75.3254726,18.5754118 75.3644261,18.3074044 75.4420288,18.0210074 L79.7031796,16.1111912 Z" id="Fill-22" fill="#FFFFFE"></path>
                    <path d="M81.9767875,20.8478971 L81.9767875,20.3848382 C83.3158151,20.2262647 83.4807589,19.9217794 83.4807589,18.6323897 L83.4807589,10.5137868 C83.4807589,9.71097059 83.4999314,9.46286029 82.5358315,8.77520588 L82.5358315,8.58407353 L84.7528351,7.74357353 L84.9658622,7.81984559 L84.9658622,18.6323897 C84.9658622,20.1985294 85.0419433,20.3510735 86.4698336,20.5611985 L86.4698336,20.8478971 L81.9767875,20.8478971" id="Fill-23" fill="#FFFFFE"></path>
                    <path d="M102.088068,17.8111838 C102.011987,18.0592941 101.953557,18.3074044 101.953557,18.5754118 C101.953557,19.3773235 102.416434,20.0836691 103.302627,20.0836691 C103.82363,20.0836691 104.344634,19.7399926 104.691259,19.3773235 L104.691259,16.4934559 L102.088068,17.8111838 Z M104.691259,16.1111912 C104.845248,14.0292353 104.305985,13.1694412 102.782537,13.1694412 C101.45203,13.1694412 101.587454,13.8004191 101.587454,14.8504412 L100.62305,14.9080221 C100.469062,14.9080221 100.179954,14.9264118 100.179954,14.7171912 C100.179954,14.2010735 102.300487,12.2143824 103.862584,12.2143824 C105.636187,12.2143824 106.175754,13.5517059 106.175754,15.0798603 L106.175754,17.7918897 C106.175754,19.4728897 105.983725,20.6344559 107.85319,20.2368162 L107.85319,20.6682206 C107.120681,20.8777426 106.484643,20.9431618 105.905818,20.9431618 C105.095707,20.9431618 104.788035,20.4849265 104.691259,19.7399926 C104.07409,20.4279485 103.226546,21.0387279 102.242665,21.0387279 C101.008934,21.0387279 100.314465,20.0073971 100.314465,18.8612059 C100.314465,18.5754118 100.353115,18.3074044 100.430109,18.0210074 L104.691259,16.1111912 Z" id="Fill-24" fill="#FFFFFE"></path>
                    <path d="M99.0639962,11.7878015 L98.774888,11.7878015 C98.4087857,9.62927206 97.1364052,8.08272794 94.8223222,8.08272794 C91.2939846,8.08272794 89.307659,10.9473015 89.307659,14.2327279 C89.307659,17.9953824 92.2191309,20.6121471 95.0152639,20.6121471 C97.5408524,20.6121471 98.5439058,18.7789044 99.4118391,16.7159412 L99.6805576,16.8308015 C99.4498796,17.9953824 99.083473,19.1415735 98.6208998,20.2491765 C97.3868642,20.8415662 96.0563578,21.0703824 94.6872021,21.0703824 C90.6576422,21.0703824 87.071483,18.7789044 87.071483,14.4621471 C87.071483,11.0621618 89.7510597,7.62419118 94.8411903,7.62419118 C96.3074255,7.62419118 97.7910071,7.91088971 99.0639962,8.65582353 L99.0639962,11.7878015" id="Fill-25" fill="#FFFFFE"></path>
                    <path d="M147.902895,17.80425 C147.82651,18.0532647 147.768993,18.3010735 147.768993,18.5684779 C147.768993,19.3712941 148.231262,20.0773382 149.118976,20.0773382 C149.638458,20.0773382 150.159157,19.7339632 150.506087,19.3712941 L150.506087,16.4865221 L147.902895,17.80425 Z M150.506087,16.1042574 C150.661596,14.0229044 150.120812,13.1634118 148.598277,13.1634118 C147.268075,13.1634118 147.401977,13.7934853 147.401977,14.8441103 L146.437878,14.9010882 C146.283889,14.9010882 145.994781,14.9203824 145.994781,14.7102574 C145.994781,14.1947426 148.115923,12.2083529 149.677107,12.2083529 C151.451927,12.2083529 151.991494,13.545375 151.991494,15.0729265 L151.991494,17.7849559 C151.991494,19.4668603 151.719124,20.5343676 153.479641,20.4388015 L153.479641,20.7761471 C152.747132,20.9862721 152.299471,20.9362279 151.720646,20.9362279 C150.912056,20.9362279 150.602558,20.4785956 150.506087,19.7339632 C149.890438,20.4210147 149.041373,21.0317941 148.058405,21.0317941 C146.823761,21.0317941 146.129901,20.0010662 146.129901,18.8551765 C146.129901,18.5684779 146.168855,18.3010735 146.244936,18.0146765 L150.506087,16.1042574 Z" id="Fill-26" fill="#FFFFFE"></path>
                    <path d="M109.950899,18.6254559 C109.950899,20.1921985 110.027893,20.3447426 111.87849,20.5551691 L111.87849,20.8415662 L107.058599,20.8415662 L107.058599,20.3863456 C108.356847,20.2748015 108.447232,19.961875 108.465796,18.4714044 L108.465796,14.9773603 C108.465796,14.1754485 108.485272,13.9273382 107.520868,13.2396838 L107.520868,13.0485515 L109.815474,12.2083529 L110.027893,12.284625 L109.950899,14.5384191 L109.988939,14.5384191 C110.412863,13.5260809 111.493824,12.2083529 112.708383,12.2083529 C113.247645,12.2083529 113.691046,12.5517279 113.691046,13.0871397 C113.691046,13.6023529 113.132002,14.0798824 112.688297,14.2903088 C112.36054,14.0415956 111.87849,13.6216471 111.45487,13.6593309 C109.815474,13.8127794 109.950899,16.41025 109.950899,16.6966471 L109.950899,18.6254559" id="Fill-27" fill="#FFFFFE"></path>
                    <path d="M117.431194,9.02633088 C117.431194,9.56174265 116.987488,10.0006838 116.447617,10.0006838 C115.907137,10.0006838 115.46404,9.56174265 115.46404,9.02633088 C115.46404,8.49152206 115.907137,8.05258088 116.447617,8.05258088 C116.987488,8.05258088 117.431194,8.49152206 117.431194,9.02633088 Z M114.288131,20.8415662 L114.288131,20.5551691 C115.714499,20.3447426 115.772625,20.1159265 115.792102,18.6254559 L115.792102,14.9773603 C115.792102,14.1754485 115.810666,13.9273382 114.615888,13.2396838 L114.615888,13.0485515 L117.064178,12.2083529 L117.27751,12.284625 L117.27751,18.6254559 C117.27751,20.1921985 117.353591,20.3447426 118.781177,20.5551691 L118.781177,20.8415662 L114.288131,20.8415662 Z" id="Fill-28" fill="#FFFFFE"></path>
                    <path d="M120.968965,16.9640515 C120.968965,18.7403162 121.161907,20.4403088 123.398387,20.4403088 C124.458958,20.4403088 126.17413,19.5998088 126.17413,16.9447574 C126.17413,14.6532794 124.633336,13.1634118 122.762349,13.1634118 C122.105921,13.1634118 121.566354,13.33525 120.968965,13.5830588 L120.968965,16.9640515 Z M119.484166,10.5065515 C119.484166,9.70494118 119.504252,9.45592647 118.540152,8.768875 L118.540152,8.57774265 L120.757764,7.73754412 L120.968965,7.81381618 L120.968965,13.2773676 C121.913284,12.7621544 123.090411,12.2083529 124.188413,12.2083529 C126.329944,12.2083529 127.813526,14.1754485 127.813526,16.1805294 C127.813526,19.5612206 124.670463,21.0317941 122.550844,21.0317941 C121.393802,21.0317941 120.525869,20.7267059 119.484166,20.2684706 L119.484166,10.5065515 Z" id="Fill-29" fill="#FFFFFE"></path>
                    <path d="M130.189691,16.9640515 C130.189691,18.7403162 130.382329,20.4403088 132.618809,20.4403088 C133.67938,20.4403088 135.394857,19.5998088 135.394857,16.9447574 C135.394857,14.6532794 133.851932,13.1634118 131.982771,13.1634118 C131.326647,13.1634118 130.786776,13.33525 130.189691,13.5830588 L130.189691,16.9640515 Z M128.704284,10.5065515 C128.704284,9.70494118 128.723152,9.45592647 127.760574,8.768875 L127.760574,8.57774265 L129.976664,7.73754412 L130.189691,7.81381618 L130.189691,13.2773676 C131.133706,12.7621544 132.310833,12.2083529 133.408835,12.2083529 C135.548845,12.2083529 137.033948,14.1754485 137.033948,16.1805294 C137.033948,19.5612206 133.890885,21.0317941 131.769744,21.0317941 C130.612702,21.0317941 129.746291,20.7267059 128.704284,20.2684706 L128.704284,10.5065515 Z" id="Fill-30" fill="#FFFFFE"></path>
                    <path d="M143.392807,14.5007353 C143.220255,13.6216471 142.678862,12.628 141.657245,12.628 C140.559547,12.628 139.903119,13.6979191 139.691613,14.6532794 L143.392807,14.5007353 Z M139.556493,15.9710074 C139.402505,17.9576985 140.771052,19.8102353 142.949711,19.8102353 C143.952764,19.8102353 144.64632,19.3712941 145.225145,18.6070662 L145.514253,18.8165882 C144.781744,20.0580441 143.470714,21.0317941 141.967047,21.0317941 C139.575057,21.0317941 137.917402,19.0845956 137.917402,16.7922132 C137.917402,14.3279926 139.65266,12.2083529 142.256155,12.2083529 C143.990196,12.2083529 145.147238,13.2966618 145.225145,15.0159485 L139.632574,15.0159485 L139.556493,15.9710074 Z" id="Fill-31" fill="#FFFFFE"></path>
                    <path d="M154.32901,14.9773603 C154.32901,14.1754485 154.34727,13.9273382 153.38317,13.2396838 L153.38317,13.0485515 L155.678689,12.2083529 L155.890195,12.284625 L155.736511,13.678625 C156.834209,12.8770147 157.894475,12.2083529 159.129728,12.2083529 C161.443811,12.2083529 161.558846,14.0991765 161.558846,15.226375 L161.558846,18.6254559 C161.558846,20.1921985 161.636144,20.3447426 163.062817,20.5551691 L163.062817,20.8415662 L158.569771,20.8415662 L158.569771,20.5551691 C159.997662,20.3447426 160.055179,20.1159265 160.075264,18.6254559 L160.075264,16.4295441 C160.075264,15.0922206 160.132477,13.2010956 157.779745,13.2010956 C156.990023,13.2010956 156.450152,13.4498088 155.814114,14.0229044 L155.814114,18.6254559 C155.814114,20.1921985 155.890195,20.3447426 157.318085,20.5551691 L157.318085,20.8415662 L152.825039,20.8415662 L152.821996,20.4933676 C154.204542,20.38725 154.308621,20.1159265 154.32901,18.6254559 L154.32901,14.9773603" id="Fill-32" fill="#FFFFFE"></path>
                    <path d="M173.628658,0.528477941 C175.02642,0.528477941 176.160333,1.65145588 176.160333,3.03641176 C176.160333,4.43613971 175.02642,5.55911765 173.628658,5.55911765 C172.222374,5.55911765 171.090592,4.43613971 171.090592,3.03641176 C171.090592,1.65145588 172.222374,0.528477941 173.628658,0.528477941 L173.628658,0.184198529 C172.026694,0.184198529 170.734228,1.46424265 170.734228,3.03641176 C170.734228,4.62335294 172.026694,5.90339706 173.628658,5.90339706 C175.224231,5.90339706 176.50848,4.62335294 176.50848,3.03641176 C176.50848,1.46424265 175.224231,0.184198529 173.628658,0.184198529 L173.628658,0.528477941" id="Fill-33" fill="#08305D"></path>
                    <path d="M172.948797,1.72622059 L173.8709,1.72622059 C174.270782,1.72622059 174.709314,1.78621324 174.709314,2.28002206 C174.709314,2.93180147 174.006324,2.85703676 173.553794,2.85703676 L172.948797,2.85703676 L172.948797,3.16363235 L173.673698,3.16363235 L174.595801,4.638125 L175.063852,4.638125 L174.090318,3.16363235 C174.664274,3.14886029 175.110718,2.91642647 175.110718,2.28786029 C175.110718,2.01834559 174.989292,1.73405882 174.746441,1.599 C174.505416,1.45670588 174.23335,1.44193382 173.961284,1.44193382 L172.555305,1.44193382 L172.555305,4.638125 L172.948797,4.638125 L172.948797,1.72622059" id="Fill-34" fill="#08305D"></path>
                </g>
            </g>
        </g>
    </g>
</svg>