<?xml version="1.0" encoding="UTF-8"?>
<svg width="111px" height="73px" viewBox="0 0 111 73" version="1.1" xmlns="http://www.w3.org/2000/svg" xmlns:xlink="http://www.w3.org/1999/xlink">
    <!-- Generator: Sketch 52.5 (67469) - http://www.bohemiancoding.com/sketch -->
    <title>logo-box</title>
    <desc>Created with Sketch.</desc>
    <g id="Symbols" stroke="none" stroke-width="1" fill="none" fill-rule="evenodd">
        <g id="Brand/Card/Small/Uber" fill="#FFFFFF" fill-rule="nonzero">
            <g id="Brand/Logo/Uber" transform="translate(20.000000, 24.000000)">
                <path d="M69.517697,10.0934335 C67.1944313,10.0934335 65.5464842,11.7964408 65.5464842,14.4106366 L65.5464842,24 L62,24 L62,7.12112878 L65.5040113,7.12112878 L65.5040113,9.18224507 C66.3841744,7.79109308 68.0002898,6.95639824 69.7258141,7.00175911 L71,7.00175911 L71,10.0934335 L69.517697,10.0934335 Z M59.9916048,15.980916 C59.9916048,10.842581 56.2137788,7 51.1011208,7 C48.6612874,7.0160284 46.3288059,7.97298456 44.6205674,9.65880176 C42.9123285,11.344619 41.9694062,13.6200748 42.0007575,15.980916 C42.0007575,21.115189 46.0934024,24.9983893 51.43273,24.9983893 C54.4593991,25.0537146 57.3247409,23.680982 59.1143097,21.3182853 L56.5705734,19.5147906 C55.3860088,21.1146329 53.4663333,22.0510385 51.43273,22.0209983 C48.4840662,22.0075385 45.9873933,19.9125351 45.5561116,17.0898215 L60,17.0898215 L59.9916048,15.980916 Z M46,14 C46.6362578,11.6147465 48.8439441,10 51.5213509,10 C54.1987578,10 56.4021739,11.6147465 57,14 L46,14 Z M31.6444148,7.05113277 C29.3163994,7.05304888 27.0857448,7.96738464 25.4488593,9.59066439 L25.4488593,1 L22,1 L22,24.5969876 L25.4075556,24.5969876 L25.4075556,22.4179318 C27.0583397,24.05552 29.3045579,24.9834958 31.6526756,24.9979663 C34.9682987,25.0670461 38.0626577,23.3719917 39.7411391,20.5671988 C41.4196203,17.7624059 41.4196203,14.2866932 39.7411391,11.4819003 C38.0626577,8.67710734 34.9682987,6.98205301 31.6526756,7.05113277 L31.6444148,7.05113277 Z M31.0286431,21.9999316 C28.5974809,22.0115025 26.3996451,20.5548175 25.4631598,18.3112318 C24.5266745,16.0676461 25.036674,13.4806957 26.7546093,11.7604107 C28.4725445,10.0401256 31.0587957,9.52659011 33.30366,10.4600073 C35.5485242,11.3934245 37.0082127,13.5892664 36.9999652,16.0204417 C37.0021435,17.6040514 36.3734616,19.1233079 35.2529131,20.2423234 C34.1323645,21.3613388 32.6122485,21.9879403 31.0286431,21.9835942 L31.0286431,21.9999316 Z M9.50413403,21.8265717 C12.8361619,21.8265717 15.4240644,19.3220336 15.4240644,15.5692791 L15.4240644,1 L19,1 L19,24.6107428 L15.4654047,24.6107428 L15.4654047,22.3777322 C13.7966329,24.0684619 11.4946673,25.0159333 9.0948651,24.9997972 C3.95626632,24.9997972 0,21.3280957 0,15.7597537 L0,1 L3.64208007,1 L3.64208007,15.5895424 C3.64208007,19.3625601 6.12249782,21.8265717 9.50413403,21.8265717 Z" id="Uber"></path>
            </g>
        </g>
    </g>
</svg>