<svg width="21" height="20" viewBox="0 0 21 20" fill="none" xmlns="http://www.w3.org/2000/svg">
<path d="M12.5988 6L10.0088 8.59L7.41879 6L6.00879 7.41L8.59879 10L6.00879 12.59L7.41879 14L10.0088 11.41L12.5988 14L14.0088 12.59L11.4188 10L14.0088 7.41L12.5988 6ZM10.0088 0C4.47879 0 0.00878906 4.47 0.00878906 10C0.00878906 15.53 4.47879 20 10.0088 20C15.5388 20 20.0088 15.53 20.0088 10C20.0088 4.47 15.5388 0 10.0088 0ZM10.0088 18C5.59879 18 2.00879 14.41 2.00879 10C2.00879 5.59 5.59879 2 10.0088 2C14.4188 2 18.0088 5.59 18.0088 10C18.0088 14.41 14.4188 18 10.0088 18Z" fill="#EDEFF0" fill-opacity="0.6"/>
</svg>
