<svg width="21" height="20" viewBox="0 0 21 20" fill="none" xmlns="http://www.w3.org/2000/svg">
<path d="M12.5978 6L10.0078 8.59L7.41781 6L6.00781 7.41L8.59781 10L6.00781 12.59L7.41781 14L10.0078 11.41L12.5978 14L14.0078 12.59L11.4178 10L14.0078 7.41L12.5978 6ZM10.0078 0C4.47781 0 0.0078125 4.47 0.0078125 10C0.0078125 15.53 4.47781 20 10.0078 20C15.5378 20 20.0078 15.53 20.0078 10C20.0078 4.47 15.5378 0 10.0078 0ZM10.0078 18C5.59781 18 2.00781 14.41 2.00781 10C2.00781 5.59 5.59781 2 10.0078 2C14.4178 2 18.0078 5.59 18.0078 10C18.0078 14.41 14.4178 18 10.0078 18Z" fill="#001E2E" fill-opacity="0.6"/>
</svg>
