<?xml version="1.0" encoding="UTF-8" standalone="no"?>
<!-- Generator: Adobe Illustrator 22.0.1, SVG Export Plug-In . SVG Version: 6.00 Build 0)  -->

<svg
   xmlns:dc="http://purl.org/dc/elements/1.1/"
   xmlns:cc="http://creativecommons.org/ns#"
   xmlns:rdf="http://www.w3.org/1999/02/22-rdf-syntax-ns#"
   xmlns:svg="http://www.w3.org/2000/svg"
   xmlns="http://www.w3.org/2000/svg"
   xmlns:sodipodi="http://sodipodi.sourceforge.net/DTD/sodipodi-0.dtd"
   xmlns:inkscape="http://www.inkscape.org/namespaces/inkscape"
   version="1.1"
   id="Layer_1"
   x="0px"
   y="0px"
   viewBox="0 0 552 112"
   xml:space="preserve"
   inkscape:version="0.91 r13725"
   sodipodi:docname="Terracointext.svg"
   width="552"
   height="112"><metadata
     id="metadata557"><rdf:RDF><cc:Work
         rdf:about=""><dc:format>image/svg+xml</dc:format><dc:type
           rdf:resource="http://purl.org/dc/dcmitype/StillImage" /><dc:title></dc:title></cc:Work></rdf:RDF></metadata><defs
     id="defs555" /><sodipodi:namedview
     pagecolor="#ffffff"
     bordercolor="#666666"
     borderopacity="1"
     objecttolerance="10"
     gridtolerance="10"
     guidetolerance="10"
     inkscape:pageopacity="0"
     inkscape:pageshadow="2"
     inkscape:window-width="640"
     inkscape:window-height="480"
     id="namedview553"
     showgrid="false"
     inkscape:zoom="0.2979798"
     inkscape:cx="306"
     inkscape:cy="396"
     inkscape:window-x="0"
     inkscape:window-y="0"
     inkscape:window-maximized="0"
     inkscape:current-layer="Layer_1" /><style
     type="text/css"
     id="style3">
	.st0{fill:none;}
	.st1{fill:#0D8843;}
	.st2{fill:#3D3D3D;}
	.st3{fill:#71C280;}
	.st4{fill:#070605;}
	.st5{fill:#FFFFFF;}
	.st6{fill-rule:evenodd;clip-rule:evenodd;fill:#3D3D3D;}
	.st7{fill-rule:evenodd;clip-rule:evenodd;fill:#0D8843;}
</style><path
     class="st1"
     d="m 67.89661,19.098309 0,15 -20,0 0,69.800001 -15,0 0,-69.800001 -20,0 0,-15 55,0 z"
     id="path57"
     inkscape:connector-curvature="0"
     style="fill:#0d8843" /><path
     class="st1"
     d="m 125.19661,19.098309 0,15 -32.4,0 0,20.000001 27.4,0 0,15 -27.4,0 0,20 32.4,0 0,15 -47.4,0 0,-84.800001 47.4,0 z"
     id="path59"
     inkscape:connector-curvature="0"
     style="fill:#0d8843" /><path
     class="st1"
     d="m 162.69661,19.098309 c 18.3,0 27.4,9.1 27.4,27.4 0,11.600001 -3.7,19.600001 -11.1,23.800001 l 11.1,33.6 -16,0 -9.9,-29.9 -14.1,0 0,29.9 -15,0 0,-84.800001 27.6,0 z m 0,39.900001 c 8.3,0 12.5,-4.2 12.5,-12.500001 0,-8.3 -4.2,-12.5 -12.5,-12.5 l -12.5,0 0,24.900001 12.5,0 z"
     id="path61"
     inkscape:connector-curvature="0"
     style="fill:#0d8843" /><path
     class="st1"
     d="m 227.49661,19.098309 c 18.3,0 27.4,9.1 27.4,27.4 0,11.600001 -3.7,19.600001 -11.1,23.800001 l 11.1,33.6 -16,0 -9.9,-29.9 -14.1,0 0,29.9 -15,0 0,-84.800001 27.6,0 z m 0,39.900001 c 8.3,0 12.5,-4.2 12.5,-12.500001 0,-8.3 -4.2,-12.5 -12.5,-12.5 l -12.5,0 0,24.900001 12.5,0 z"
     id="path63"
     inkscape:connector-curvature="0"
     style="fill:#0d8843" /><path
     class="st1"
     d="m 301.89661,19.098309 22.5,84.800001 -16,0 -3.6,-15 -25.3,0 -3.5,15 -16,0 22,-84.800001 19.9,0 z m -18.9,54.900001 18.2,0 -9.1,-38.400001 -9.1,38.400001 z"
     id="path65"
     inkscape:connector-curvature="0"
     style="fill:#0d8843" /><path
     class="st2"
     d="m 357.19661,19.098309 c 18.3,0 27.4,9.1 27.4,27.4 l -15,0 c 0,-8.3 -4.2,-12.5 -12.5,-12.5 -8.3,0 -12.5,4.2 -12.5,12.5 l 0,29.900001 c 0,8.3 4.2,12.5 12.5,12.5 8.3,0 12.5,-4.2 12.5,-12.5 l 15,0 c 0,18.3 -9.1,27.4 -27.4,27.4 -18.3,0 -27.4,-9.1 -27.4,-27.4 l 0,-29.900001 c 0,-18.2 9.1,-27.4 27.4,-27.4 z"
     id="path67"
     inkscape:connector-curvature="0"
     style="fill:#3d3d3d" /><path
     class="st2"
     d="m 422.09661,19.098309 c 18.3,0 27.4,9.1 27.4,27.4 l 0,29.900001 c 0,18.3 -9.1,27.4 -27.4,27.4 -18.3,0 -27.4,-9.1 -27.4,-27.4 l 0,-29.900001 c -0.1,-18.2 9.1,-27.4 27.4,-27.4 z m 12.5,27.5 c 0,-8.3 -4.2,-12.5 -12.5,-12.5 -8.3,0 -12.5,4.2 -12.5,12.5 l 0,29.900001 c 0,8.3 4.2,12.5 12.5,12.5 8.3,0 12.5,-4.2 12.5,-12.5 l 0,-29.900001 z"
     id="path69"
     inkscape:connector-curvature="0"
     style="fill:#3d3d3d" /><path
     class="st2"
     d="m 474.49661,19.098309 0,84.800001 -15,0 0,-84.800001 15,0 z"
     id="path71"
     inkscape:connector-curvature="0"
     style="fill:#3d3d3d" /><path
     class="st2"
     d="m 499.39661,19.098309 24.9,52.400001 0,-52.400001 15,0 0,84.800001 -15,0 -24.9,-52.4 0,52.4 -15,0 0,-84.800001 15,0 z"
     id="path73"
     inkscape:connector-curvature="0"
     style="fill:#3d3d3d" /><path
     class="st4"
     d="m 640.8,-113.2 c 0,-0.3 0,-0.6 0,-0.9 -0.1,0.5 -0.2,1 -0.3,1.5 0,6.8 0,13.6 0,20.4 0.2,0.2 0.2,0.3 0.2,0.5 -0.2,-7.2 -0.2,-14.4 0.1,-21.5 z"
     id="path93"
     inkscape:connector-curvature="0"
     style="fill:#070605" /><path
     class="st5"
     d="m 640.8,-114.1 c 0.2,-1.2 0.2,-2.5 0.2,-3.7 -0.1,1.2 -0.1,2.4 -0.2,3.7 z"
     id="path95"
     inkscape:connector-curvature="0"
     style="fill:#ffffff" /><path
     class="st5"
     d="m 640.8,-91.5 c 0,-0.1 0,-0.2 0,-0.3 0,0.1 0,0.2 0,0.3 z"
     id="path97"
     inkscape:connector-curvature="0"
     style="fill:#ffffff" /></svg>