<?xml version="1.0" encoding="UTF-8" standalone="no"?>
<svg width="356px" height="156px" viewBox="0 0 356 156" version="1.1" xmlns="http://www.w3.org/2000/svg" xmlns:xlink="http://www.w3.org/1999/xlink" xmlns:sketch="http://www.bohemiancoding.com/sketch/ns">
    <!-- Generator: Sketch 3.1.1 (8761) - http://www.bohemiancoding.com/sketch -->
    <title>Artboard 1</title>
    <desc>Created with Sketch.</desc>
    <defs></defs>
    <g id="Page-1" stroke="none" stroke-width="1" fill="none" fill-rule="evenodd" sketch:type="MSPage">
        <g id="Artboard-1" sketch:type="MSArtboardGroup" fill="#FFFFFF">
            <g id="Shape-+-Group-+-Shape" sketch:type="MSLayerGroup" transform="translate(1.000000, 1.000000)">
                <path d="M349.531268,17.6106973 C347.006697,17.8964978 344.339226,18.4680987 341.481221,19.3731336 C340.576186,19.6589341 339.766418,20.230535 339.004284,20.9926696 C338.242149,21.8024377 337.622915,22.421672 337.146581,22.9456396 C336.670246,23.4696071 336.193912,24.374642 335.669945,25.7083776 C335.145977,27.0421131 334.76491,28.0424148 334.526743,28.8045494 C334.288576,29.5190506 333.907508,30.9004196 333.383541,32.901023 C332.81194,34.9016264 332.430873,36.4258956 332.097439,37.4738307 C329.858668,45.0475434 326.286162,52.716523 321.427554,60.5760362 C316.568946,68.4355494 312.329572,72.532023 308.709433,72.9130903 C306.804096,73.103624 305.660894,71.5317213 305.279827,68.1021156 C304.565326,61.6716047 305.899061,53.5739244 309.138133,43.7614413 C312.424839,33.9489581 315.902078,27.0421131 319.665118,22.993273 C320.189085,22.3264052 320.474886,21.8024377 320.427252,21.3737369 C320.379619,20.9926696 320.141452,20.802136 319.760385,20.8497694 C314.425442,21.4213704 310.281335,22.5169389 307.328064,24.1841083 C304.374792,25.8036444 301.754954,29.0427165 299.32565,33.9013247 C297.467947,37.6643643 295.896045,42.3324389 294.514676,48.0008151 C287.750731,64.2438091 281.60602,72.6749232 276.080545,73.2465242 C274.270475,73.4370579 273.22254,72.2462225 272.936739,69.6263848 C272.412772,64.6248764 273.937041,56.3366624 277.604814,44.8093764 C281.272587,33.2820903 284.606926,25.9941781 287.655464,22.9456396 L286.131195,23.0885398 L278.557482,23.7554076 C276.556879,23.9935747 274.461008,25.0415098 272.317505,26.9944797 C270.174001,28.9474497 268.697365,31.1385867 267.839964,33.5678908 C266.601495,30.4717189 264.457992,28.3282153 261.50472,27.1850134 C258.503815,26.0418115 255.407643,25.6131107 252.216204,25.9941781 C245.356993,26.7563127 239.355183,29.9477514 234.115507,35.663761 C228.923465,41.3321372 225.160426,48.0008151 222.874022,55.5268944 C222.826388,55.6697946 222.778755,55.8126949 222.731121,55.9555951 C222.397688,56.7177297 221.968987,57.5751312 221.58792,58.480166 C219.015715,64.1009088 217.015112,68.1021156 215.538476,70.4837862 C212.823371,74.8184268 209.536666,78.9149004 205.630726,82.6779401 C201.724786,86.4409797 197.675946,88.5844833 193.531839,89.0131841 L192.341004,89.1560843 C198.438081,84.0116756 203.439589,77.2000975 207.393162,68.6260831 C211.346736,60.0520687 212.918638,52.0020218 212.10887,44.3330422 C211.108569,35.09216 207.250262,30.8527862 200.486317,31.5672874 C193.341305,32.329422 185.719959,39.4744341 177.717546,52.9070567 C181.671119,42.3324389 185.005458,35.8542946 187.720563,33.5678908 L183.195388,34.0442249 C177.241212,34.6634593 173.192371,36.3306288 171.048868,38.9980999 C170.000933,40.4271023 168.476663,44.3806756 166.61896,50.9064533 C165.952093,53.2404906 165.047058,56.6700963 163.856222,61.1476372 C160.283716,69.3405843 156.044343,73.6752249 151.138101,74.1991925 C148.32773,74.484993 146.041326,73.6752249 144.278889,71.722255 C145.803159,66.1491456 146.327126,61.0047369 145.803159,56.1461288 C144.42179,43.4756408 137.753112,37.8072646 125.749492,39.0933668 C118.60448,39.8555014 112.364502,42.9516732 107.077194,48.4295158 C103.885755,51.7162213 101.265917,55.2887273 99.2653137,59.1470338 C99.2653137,59.0994004 99.3129471,59.051767 99.3129471,59.0041336 C94.454339,68.1021156 86.0708582,83.9164088 75.5438738,92.9667574 C65.0168895,102.017106 54.6328053,107.113881 44.4392548,108.20945 C28.100994,109.971886 18.9553786,101.921839 17.0500421,84.0593091 C15.8115733,72.532023 17.5740096,60.8142033 22.3849844,49.0011168 C27.1959592,37.1403968 34.1028041,27.1850134 43.1055193,19.1349665 C52.1082344,11.0849196 61.7778173,6.46447853 72.0666346,5.32127661 C79.830881,4.46387517 84.0226214,6.98844608 84.6418558,12.7997225 C85.0705565,16.6103956 83.7368209,20.0400014 80.6882825,23.1361732 C77.639744,26.1847117 74.1625048,27.947148 70.2565649,28.3758487 C68.8275625,28.518749 67.5414604,28.4711156 66.3982584,28.1853151 C65.3503233,30.0430182 64.9216226,31.7101877 65.1121563,33.1868235 C65.2550565,34.7110927 66.112458,35.8542946 67.6367272,36.6640627 C69.1609964,37.4738307 71.0186995,37.7596312 73.25747,37.5214641 C77.9731779,36.9974966 82.4030854,35.09216 86.4995589,31.8054545 C90.5960325,28.518749 93.2158702,24.7557093 94.3590721,20.4210687 C94.9306731,18.1346648 95.1212068,16.0864281 94.9306731,14.2763583 C94.4067056,9.37011675 91.5010673,5.55944368 86.2137584,2.93960594 C80.9264495,0.319768195 73.6385373,-0.489999834 64.3976551,0.510301849 C55.1091395,1.51060353 46.0111575,5.03547613 37.0084423,11.0849196 C28.0057272,17.1343631 20.7654483,24.374642 15.2876058,32.8533896 C9.76212984,41.3321372 5.66565628,50.2872189 2.9029183,59.7662682 C0.140180318,69.2453175 -0.764854538,78.1527658 0.140180318,86.4886131 C2.52185099,108.49525 15.5257729,118.212467 39.2472128,115.640262 C49.4407633,114.544694 59.205613,111.496155 68.541762,106.447013 C77.8779111,101.445505 85.4516238,95.2055278 91.1676334,87.8699821 C92.0726683,86.6791468 92.8824363,85.5359449 93.6922044,84.4403764 C93.7398378,85.2977778 93.7874712,86.1075458 93.882738,86.9649473 C94.5496058,93.2525579 96.645476,97.7300987 100.170349,100.445203 C103.695221,103.160308 107.934595,104.255876 112.983737,103.684275 C120.84325,102.826874 127.035594,100.064136 131.608401,95.4436949 C136.181209,90.8232538 139.848982,84.6785434 142.706987,77.2000975 C145.326825,78.867267 148.32773,79.4865014 151.709702,79.1054341 C154.61534,78.7720002 157.568612,77.2953643 160.61715,74.5802598 C159.140514,80.6297033 157.473345,87.6318151 155.568008,95.6818619 C150.042532,119.069868 146.184226,132.835924 143.945456,136.932398 L151.185734,136.170263 C153.186338,135.932096 154.853507,135.503396 156.091976,134.884161 C157.330445,134.217293 158.426013,132.978825 159.283415,131.121122 C160.140816,129.263418 161.284018,125.262212 162.665387,119.117501 L168.28613,91.8711889 C170.048566,96.6821636 175.716942,98.5398668 185.434159,97.4919317 C195.103742,96.4439966 203.153788,92.4904232 209.536666,85.5835783 C213.490239,81.3442045 217.110379,76.1521624 220.492351,70.1027189 C220.397084,72.532023 220.492351,74.9613271 220.730518,77.3906312 C221.73082,86.6315134 225.589126,90.8708872 232.353071,90.156386 C242.117921,89.1084509 251.692237,77.8193319 260.980752,56.289029 C259.504117,62.5290062 259.123049,68.7689833 259.789917,75.0089605 C260.694952,83.3448079 263.838757,87.2031143 269.3166,86.6315134 C276.318712,85.8693788 283.940058,77.6764317 292.180638,62.1003055 C291.751938,65.8157117 291.656671,68.9118836 291.894838,71.3411877 C292.275905,75.5329281 293.419107,78.5814665 295.27681,80.5820699 C297.134513,82.5826732 299.373284,83.3924413 302.040755,83.1066408 C304.708226,82.8208403 306.99463,82.2492393 308.899966,81.4394713 C310.805303,80.6297033 313.329874,78.5338331 316.473679,75.1994942 C319.617484,71.8651552 323.237624,66.9589136 327.381731,60.5284028 L321.23702,84.3451095 C317.283447,99.492535 311.18637,107.542582 303.041057,108.399983 C300.945186,108.63815 299.135117,108.257083 297.658481,107.209148 C296.181845,106.208846 295.324444,104.732211 295.13391,102.826874 C294.752843,99.2067345 295.41971,97.0155975 297.182147,96.2058295 C296.562912,95.2531612 295.610244,94.4433932 294.324142,93.7765254 C293.03804,93.1096576 291.51377,92.8714906 289.751334,93.0620242 C287.988898,93.2525579 286.512262,94.300493 285.36906,96.2058295 C284.178225,98.111166 283.749524,100.159403 283.987691,102.398173 C284.464025,106.637547 286.559895,109.495552 290.370569,111.067454 C294.181242,112.639357 298.563516,113.163325 303.612657,112.591724 C308.661799,112.067756 313.520407,110.257686 318.188482,107.304415 C322.856557,104.30351 326.619596,100.588104 329.525234,96.1105627 C332.430873,91.6330218 334.717276,85.7264785 336.479713,78.4385663 C337.146581,76.0092622 337.956349,72.6272898 338.95665,68.1973824 C339.956952,63.7674749 340.62382,61.0047369 340.861987,59.861535 C341.147787,58.7183331 341.909922,55.479261 343.196024,50.0966853 C344.434493,44.7141095 346.054029,38.7599329 348.006999,32.1388884 C350.436303,24.2793752 353.103774,19.1825999 356.009412,16.9438295 L349.531268,17.6106973 L349.531268,17.6106973 Z M137.324411,53.0023235 C134.79984,53.288124 132.894504,54.2884256 131.608401,56.0508619 C130.322299,57.8132982 129.798332,60.0520687 130.131766,62.7671732 C130.6081,67.1970807 132.70397,70.6743199 136.46701,73.1988908 C134.561673,79.0101672 131.989469,84.392743 128.79803,89.346618 C125.606591,94.300493 121.843552,97.0155975 117.508911,97.4919317 C112.221602,97.7777321 109.268331,94.8720939 108.601463,88.8702838 C107.934595,82.8684737 109.030163,75.9139954 111.888168,68.1021156 C117.08021,53.9073583 123.177287,46.4765458 130.131766,45.7144112 C134.561673,45.2380771 137.276778,47.6197478 138.229446,52.9070567 L137.324411,53.0023235 L137.324411,53.0023235 Z M175.812209,91.8235555 C172.906571,92.1569893 171.191768,89.9182189 170.667801,85.202511 C170.143833,80.4868031 171.811002,74.1515591 175.669309,66.2444124 C179.527615,58.3372658 183.338288,52.5259893 187.101328,48.8582165 C189.387732,46.5718127 191.626502,45.3333439 193.722373,45.0951768 C194.341607,45.0475434 194.770308,45.0475434 195.103742,45.0951768 C196.675644,45.3333439 197.580679,46.7147129 197.86648,49.2392838 C198.485714,55.0505603 196.294577,63.4816744 191.245435,74.484993 C186.196293,85.4883115 181.051885,91.2519545 175.812209,91.8235555 L175.812209,91.8235555 Z M256.026877,58.3372658 C253.69284,63.0529737 250.930102,67.2447141 247.738663,70.8648535 C244.547225,74.484993 241.641587,76.4855963 239.021749,76.7713968 C236.592445,77.0095639 235.211076,75.6281949 234.877642,72.4843896 C234.115507,65.2441107 236.354278,56.7177297 241.593953,46.8576131 C246.833629,36.9974966 252.787805,31.7101877 259.456483,30.9956865 C263.171889,30.6146192 265.744094,31.9483547 267.077829,35.0445266 C264.886692,40.046035 261.21892,47.8102814 256.026877,58.3372658 L256.026877,58.3372658 Z" id="Shape" sketch:type="MSShapeGroup"></path>
                <g id="Group" transform="translate(42.195271, 112.034225)" sketch:type="MSShapeGroup">
                    <path d="M101.078103,-0.0952668269 C66.7344123,5.76364303 33.7720901,14.051857 10.5269844,23.5785397 C0.809768029,27.532113 -1.61953606,35.486893 1.4290024,42.9653389 C40.9171022,24.9599087 60.4944351,19.8631334 89.3602837,12.7181214 C94.4570589,11.4320192 98.5535325,7.62134615 100.220702,2.61983774 C100.506502,1.66716947 100.792303,0.762134615 101.078103,-0.0952668269 L101.078103,-0.0952668269 Z" id="Shape"></path>
                </g>
                <path d="M271.74069,107.90571 C272.740992,103.618703 271.59779,103.42817 267.215516,102.808935 C243.255909,99.331696 216.914631,99.569863 185.190778,106.381441 C179.855836,107.524643 175.473562,111.240049 174.61616,116.670258 C174.61616,116.670258 214.437694,103.57107 271.74069,107.90571 L271.74069,107.90571 L271.74069,107.90571 Z" id="Shape" sketch:type="MSShapeGroup"></path>
            </g>
        </g>
    </g>
</svg>