<svg width="300px" height="260px" viewBox="0 0 300 260" version="1.1" xmlns="http://www.w3.org/2000/svg" xmlns:xlink="http://www.w3.org/1999/xlink">
    <!-- Generator: Sketch 63.1 (92452) - https://sketch.com -->
    <title>spaceman-discovery-soon</title>
    <desc>Created with Sketch.</desc>
    <defs>
        <linearGradient x1="50%" y1="0%" x2="50%" y2="100%" id="linearGradient-1">
            <stop stop-color="#1D468B" offset="0%"></stop>
            <stop stop-color="#062150" offset="100%"></stop>
        </linearGradient>
        <path d="M2.81123698,7.64177362 C3.66093791,6.18236926 4.32689101,5.45314058 4.81015842,5.45314058 C5.29236371,5.45314058 5.85104204,6.18236926 6.48406923,7.64177362 C6.08046129,5.90867175 6.19517091,5.04306786 6.82607387,5.04306786 C7.45910105,5.04306786 8.1877196,5.04306786 9.01086736,5.04306786 C7.27322896,4.96635677 6.16543142,4.45873786 5.68535036,3.52115815 C5.20314509,2.58168433 4.83458732,1.48500019 4.57649066,0.228264557 C4.64446673,2.64040145 4.05604884,3.73708559 2.81123698,3.52115815 C1.56430087,3.3033366 0.675301275,3.14233806 0.142113943,3.03532139 C1.60891017,3.43497658 2.49897189,3.90471348 2.81123698,4.442638 C3.12137782,4.97961549 3.12137782,6.045994 2.81123698,7.64177362 L2.81123698,7.64177362 Z" id="path-2"></path>
        <path d="M1.82821224,6.31441557 C2.44622243,5.14829931 2.92260933,4.56141287 3.25812857,4.55299058 C3.59291041,4.54458682 3.96675138,5.11013071 4.37815848,6.25040634 C4.13129817,4.89021554 4.22759644,4.20535107 4.66561498,4.19435585 C5.1051083,4.18332361 5.61096811,4.17062545 6.18245689,4.15627982 C4.97753876,4.12604644 4.21819453,3.74489796 3.90293125,3.01361848 C3.58622959,2.28088178 3.35145578,1.42214298 3.19645227,0.435216252 C3.19722459,2.33693957 2.76759657,3.21235631 1.90751352,3.06370782 C1.04599211,2.91360212 0.43188261,2.80208543 0.0637648715,2.72695343 C1.07442971,3.016674 1.68333495,3.37173245 1.88977963,3.79065304 C2.09476773,4.20886354 2.07424527,5.05011771 1.82821224,6.31441557 L1.82821224,6.31441557 Z" id="path-4"></path>
        <path d="M2.64086395,6.67202412 C3.38225457,5.40335115 3.95570353,4.76519021 4.36212148,4.75670906 C4.76764621,4.74824654 5.22408717,5.36491567 5.7296404,6.60756727 C5.42205193,5.12575839 5.5344217,4.38011283 6.06499809,4.36904071 C6.59736099,4.35793132 7.2101142,4.34514435 7.90236455,4.33069839 C6.44245557,4.29529152 5.52014565,3.87864217 5.13363094,3.08160121 C4.74536456,2.28297033 4.4555614,1.347287 4.2615939,0.272166341 C4.27444888,2.34321826 3.75945518,3.29569616 2.71656062,3.13204083 C1.67191441,2.96679558 0.927241591,2.84408482 0.480807924,2.76150501 C1.70701165,3.07910342 2.44690609,3.46702987 2.69963282,3.92367578 C2.95059049,4.3795454 2.93100086,5.29566153 2.64086395,6.67202412 L2.64086395,6.67202412 Z" id="path-6"></path>
        <path d="M2.64086395,6.67202412 C3.38225457,5.40335115 3.95570353,4.76519021 4.36212148,4.75670906 C4.76764621,4.74824654 5.22408717,5.36491567 5.7296404,6.60756727 C5.42205193,5.12575839 5.5344217,4.38011283 6.06499809,4.36904071 C6.59736099,4.35793132 7.2101142,4.34514435 7.90236455,4.33069839 C6.44245557,4.29529152 5.52014565,3.87864217 5.13363094,3.08160121 C4.74536456,2.28297033 4.4555614,1.347287 4.2615939,0.272166341 C4.27444888,2.34321826 3.75945518,3.29569616 2.71656062,3.13204083 C1.67191441,2.96679558 0.927241591,2.84408482 0.480807924,2.76150501 C1.70701165,3.07910342 2.44690609,3.46702987 2.69963282,3.92367578 C2.95059049,4.3795454 2.93100086,5.29566153 2.64086395,6.67202412 L2.64086395,6.67202412 Z" id="path-8"></path>
        <path d="M1.58742731,4.74001873 C2.1221921,3.84283052 2.53369807,3.39029142 2.82259758,3.38181025 C3.11086215,3.37334773 3.43144659,3.804395 3.78306359,4.67556188 C3.57362237,3.6349062 3.65809767,3.10959618 4.03525438,3.09852407 C4.413681,3.08741468 4.84925259,3.07462769 5.34133418,3.06018176 C4.30397501,3.04430134 3.65105352,2.75686407 3.3812824,2.19847976 C3.11027619,1.63898766 2.91009697,0.982460298 2.77889212,0.227235984 C2.77521701,1.68428942 2.40331169,2.35761135 1.66312399,2.24891938 C0.921701189,2.13911962 0.393210657,2.0573903 0.0764347018,2.00205109 C0.94595058,2.21791909 1.46940445,2.48627615 1.64619619,2.80599584 C1.82173543,3.12518027 1.8021458,3.76985457 1.58742731,4.74001873 L1.58742731,4.74001873 Z" id="path-10"></path>
        <path d="M1.58742731,4.74001873 C2.1221921,3.84283052 2.53369807,3.39029142 2.82259758,3.38181025 C3.11086215,3.37334773 3.43144659,3.804395 3.78306359,4.67556188 C3.57362237,3.6349062 3.65809767,3.10959618 4.03525438,3.09852407 C4.413681,3.08741468 4.84925259,3.07462769 5.34133418,3.06018176 C4.30397501,3.04430134 3.65105352,2.75686407 3.3812824,2.19847976 C3.11027619,1.63898766 2.91009697,0.982460298 2.77889212,0.227235984 C2.77521701,1.68428942 2.40331169,2.35761135 1.66312399,2.24891938 C0.921701189,2.13911962 0.393210657,2.0573903 0.0764347018,2.00205109 C0.94595058,2.21791909 1.46940445,2.48627615 1.64619619,2.80599584 C1.82173543,3.12518027 1.8021458,3.76985457 1.58742731,4.74001873 L1.58742731,4.74001873 Z" id="path-12"></path>
        <path d="M1.62937194,4.19735369 C2.0981543,3.41900469 2.46556248,3.03008274 2.73218246,3.03008274 C2.99821645,3.03008274 3.30644086,3.41900469 3.65568373,4.19735369 C3.4330121,3.27303269 3.49629772,2.81137728 3.84436863,2.81137728 C4.19361149,2.81137728 4.59559238,2.81137728 5.04972529,2.81137728 C4.09106535,2.77046471 3.47989034,2.49973462 3.2150283,1.99969211 C2.9489943,1.49863941 2.74565995,0.913741196 2.60326731,0.243482194 C2.6407699,1.5299552 2.3161381,2.11485342 1.62937194,1.99969211 C0.941433806,1.88352062 0.450970253,1.79765473 0.156809316,1.74057917 C0.966044881,1.9537286 1.45709442,2.20425495 1.62937194,2.49114803 C1.8004775,2.77753602 1.8004775,3.34627124 1.62937194,4.19735369 L1.62937194,4.19735369 Z" id="path-14"></path>
        <path d="M1.62937194,3.70311976 C2.0981543,3.02206438 2.46556248,2.68175767 2.73218246,2.68175767 C2.99821645,2.68175767 3.30644086,3.02206438 3.65568373,3.70311976 C3.4330121,2.89433887 3.49629772,2.49039039 3.84436863,2.49039039 C4.19361149,2.49039039 4.59559238,2.49039039 5.04972529,2.49039039 C4.09106535,2.45459189 3.47989034,2.21770307 3.2150283,1.78016587 C2.9489943,1.34174476 2.74565995,0.829958822 2.60326731,0.243482194 C2.6407699,1.36914608 2.3161381,1.88093201 1.62937194,1.78016587 C0.941433806,1.67851581 0.450970253,1.60338316 0.156809316,1.55344205 C0.966044881,1.7399478 1.45709442,1.95915836 1.62937194,2.2101898 C1.8004775,2.46077929 1.8004775,2.9584226 1.62937194,3.70311976 L1.62937194,3.70311976 Z" id="path-16"></path>
        <path d="M1.62937194,4.19735369 C2.0981543,3.41900469 2.46556248,3.03008274 2.73218246,3.03008274 C2.99821645,3.03008274 3.30644086,3.41900469 3.65568373,4.19735369 C3.4330121,3.27303269 3.49629772,2.81137728 3.84436863,2.81137728 C4.19361149,2.81137728 4.59559238,2.81137728 5.04972529,2.81137728 C4.09106535,2.77046471 3.47989034,2.49973462 3.2150283,1.99969211 C2.9489943,1.49863941 2.74565995,0.913741196 2.60326731,0.243482194 C2.6407699,1.5299552 2.3161381,2.11485342 1.62937194,1.99969211 C0.941433806,1.88352062 0.450970253,1.79765473 0.156809316,1.74057917 C0.966044881,1.9537286 1.45709442,2.20425495 1.62937194,2.49114803 C1.8004775,2.77753602 1.8004775,3.34627124 1.62937194,4.19735369 L1.62937194,4.19735369 Z" id="path-18"></path>
        <path d="M1.62937194,4.19735369 C2.0981543,3.41900469 2.46556248,3.03008274 2.73218246,3.03008274 C2.99821645,3.03008274 3.30644086,3.41900469 3.65568373,4.19735369 C3.4330121,3.27303269 3.49629772,2.81137728 3.84436863,2.81137728 C4.19361149,2.81137728 4.59559238,2.81137728 5.04972529,2.81137728 C4.09106535,2.77046471 3.47989034,2.49973462 3.2150283,1.99969211 C2.9489943,1.49863941 2.74565995,0.913741196 2.60326731,0.243482194 C2.6407699,1.5299552 2.3161381,2.11485342 1.62937194,1.99969211 C0.941433806,1.88352062 0.450970253,1.79765473 0.156809316,1.74057917 C0.966044881,1.9537286 1.45709442,2.20425495 1.62937194,2.49114803 C1.8004775,2.77753602 1.8004775,3.34627124 1.62937194,4.19735369 L1.62937194,4.19735369 Z" id="path-20"></path>
        <path d="M1.43510983,4.64760301 C1.92203155,3.78536454 2.29536485,3.35004127 2.55570085,3.34106416 C2.81546468,3.33210679 3.10183997,3.74468149 3.41366343,4.57937703 C3.230902,3.58167528 3.31000811,3.07749419 3.64987534,3.06577463 C3.9908869,3.05401561 4.38339346,3.0404809 4.82682292,3.02519023 C3.89229188,3.01297592 3.30567404,2.73913524 3.06580613,2.20425692 C2.82483177,1.66831948 2.6482235,1.03908895 2.53432162,0.314976652 C2.52269757,1.71275333 2.18378336,2.3597605 1.51752214,2.25764602 C0.850154476,2.15447242 0.374470641,2.0776072 0.0893831219,2.02544193 C0.87155269,2.22999496 1.34163393,2.48590871 1.49909254,2.79210434 C1.65542577,3.09779014 1.6340982,3.71628969 1.43510983,4.64760301 L1.43510983,4.64760301 Z" id="path-22"></path>
        <path d="M1.26199714,4.24502649 C1.71413873,3.44437651 2.06080537,3.04014776 2.30254594,3.03181188 C2.54375522,3.02349431 2.80967512,3.4065994 3.09922548,4.18167381 C2.92951843,3.25523648 3.00297412,2.78706833 3.3185651,2.77618588 C3.63521869,2.76526679 3.99968911,2.75269885 4.41144499,2.73850036 C3.54366618,2.72715851 2.99894961,2.47287787 2.77621513,1.97620515 C2.55245323,1.47854896 2.38845983,0.894263466 2.2826938,0.221873471 C2.27190004,1.51980896 1.95719398,2.12060133 1.33852286,2.02578074 C0.718824306,1.92997669 0.277117888,1.85860184 0.0123937661,1.81016266 C0.738694077,2.00010475 1.17519809,2.23773895 1.32140966,2.52206347 C1.46657622,2.80591457 1.44677205,3.38023558 1.26199714,4.24502649 L1.26199714,4.24502649 Z" id="path-24"></path>
        <path d="M1.26199714,4.24502649 C1.71413873,3.44437651 2.06080537,3.04014776 2.30254594,3.03181188 C2.54375522,3.02349431 2.80967512,3.4065994 3.09922548,4.18167381 C2.92951843,3.25523648 3.00297412,2.78706833 3.3185651,2.77618588 C3.63521869,2.76526679 3.99968911,2.75269885 4.41144499,2.73850036 C3.54366618,2.72715851 2.99894961,2.47287787 2.77621513,1.97620515 C2.55245323,1.47854896 2.38845983,0.894263466 2.2826938,0.221873471 C2.27190004,1.51980896 1.95719398,2.12060133 1.33852286,2.02578074 C0.718824306,1.92997669 0.277117888,1.85860184 0.0123937661,1.81016266 C0.738694077,2.00010475 1.17519809,2.23773895 1.32140966,2.52206347 C1.46657622,2.80591457 1.44677205,3.38023558 1.26199714,4.24502649 L1.26199714,4.24502649 Z" id="path-26"></path>
        <path d="M1.82119054,4.52211415 C2.2530445,3.71494348 2.59337141,3.31262659 2.84271504,3.31464186 C3.09151066,3.3166527 3.38303694,3.72407641 3.71620212,4.53743021 C3.50017782,3.57299135 3.55547629,3.0926179 3.88099303,3.09524882 C4.20760578,3.0978886 4.58353928,3.100927 5.00824542,3.1043596 C4.11135997,3.05449971 3.53750855,2.76789261 3.2855994,2.24505554 C3.03258573,1.72115741 2.83750308,1.11040126 2.69869465,0.411195504 C2.74459716,1.75144563 2.44592464,2.35821111 1.80268982,2.23307023 C1.15835048,2.1068683 0.698944957,2.01372476 0.423364473,1.95205247 C1.18195785,2.18018168 1.64329756,2.44483696 1.80682708,2.74496169 C1.96925632,3.04455147 1.97404414,3.63693563 1.82119054,4.52211415 L1.82119054,4.52211415 Z" id="path-28"></path>
        <path d="M2.30343001,5.54967993 C2.83968066,4.49052865 3.2686951,3.96589843 3.59116211,3.9751118 C3.9129204,3.98430489 4.30105863,4.53228227 4.75417928,5.61970137 C4.44837979,4.33498423 4.50669815,3.69935778 4.92767708,3.71138575 C5.35007343,3.7234542 5.83625446,3.73734509 6.38551142,3.75303815 C5.22443269,3.66338664 4.47455239,3.26823185 4.13447298,2.56823104 C3.79293632,1.86679409 3.52392284,1.0516846 3.32524661,0.120748334 C3.42138643,1.8994083 3.05184436,2.69627335 2.21668021,2.51343696 C1.38005875,2.32916443 0.783471761,2.19358543 0.425441995,2.10456599 C1.4125963,2.42701277 2.01639176,2.79010345 2.23607979,3.19242213 C2.45433043,3.59400247 2.47678051,4.37975506 2.30343001,5.54967993 L2.30343001,5.54967993 Z" id="path-30"></path>
        <path d="M2.30343001,5.54967993 C2.83968066,4.49052865 3.2686951,3.96589843 3.59116211,3.9751118 C3.9129204,3.98430489 4.30105863,4.53228227 4.75417928,5.61970137 C4.44837979,4.33498423 4.50669815,3.69935778 4.92767708,3.71138575 C5.35007343,3.7234542 5.83625446,3.73734509 6.38551142,3.75303815 C5.22443269,3.66338664 4.47455239,3.26823185 4.13447298,2.56823104 C3.79293632,1.86679409 3.52392284,1.0516846 3.32524661,0.120748334 C3.42138643,1.8994083 3.05184436,2.69627335 2.21668021,2.51343696 C1.38005875,2.32916443 0.783471761,2.19358543 0.425441995,2.10456599 C1.4125963,2.42701277 2.01639176,2.79010345 2.23607979,3.19242213 C2.45433043,3.59400247 2.47678051,4.37975506 2.30343001,5.54967993 L2.30343001,5.54967993 Z" id="path-32"></path>
        <circle id="path-34" cx="40.7742998" cy="40.7742998" r="40.7742998"></circle>
        <circle id="path-36" cx="40.7742998" cy="40.7742998" r="40.7742998"></circle>
        <circle id="path-38" cx="40.7742998" cy="40.7742998" r="40.7742998"></circle>
        <circle id="path-40" cx="40.7742998" cy="40.7742998" r="40.7742998"></circle>
        <linearGradient x1="50%" y1="0%" x2="50%" y2="100%" id="linearGradient-42">
            <stop stop-color="#E5E8F3" offset="0%"></stop>
            <stop stop-color="#AFB6C1" offset="100%"></stop>
        </linearGradient>
        <linearGradient x1="33.2360577%" y1="-24.2894676%" x2="40.503297%" y2="110.196077%" id="linearGradient-43">
            <stop stop-color="#EBEDF8" offset="0%"></stop>
            <stop stop-color="#DEE2F8" offset="3%"></stop>
            <stop stop-color="#B8C4F8" offset="12%"></stop>
            <stop stop-color="#97A9F7" offset="22%"></stop>
            <stop stop-color="#7D93F7" offset="33%"></stop>
            <stop stop-color="#6983F7" offset="45%"></stop>
            <stop stop-color="#5A77F7" offset="58%"></stop>
            <stop stop-color="#5270F7" offset="74%"></stop>
            <stop stop-color="#4F6EF7" offset="100%"></stop>
        </linearGradient>
        <linearGradient x1="50%" y1="0%" x2="50%" y2="100%" id="linearGradient-44">
            <stop stop-color="#EDEFF4" offset="0%"></stop>
            <stop stop-color="#D7DBE6" offset="100%"></stop>
        </linearGradient>
    </defs>
    <g id="Product-Pages" stroke="none" stroke-width="1" fill="none" fill-rule="evenodd">
        <g id="spaceman-discovery-soon">
            <path d="M43.6398547,218.132544 C112.561488,239.279189 231.491411,252.449269 275.607363,195.812328 C319.723315,139.175387 265.057582,-24.7921708 169.65405,3.18550775 C74.250518,31.1631862 127.087651,110.849194 59.995926,111.435676 C-7.09579908,112.022158 -25.2817785,196.9859 43.6398547,218.132544 Z" id="Path-2" fill="url(#linearGradient-1)" fill-rule="nonzero"></path>
            <path d="M169.765263,3.18403911 C265.081432,-24.7807406 319.697108,139.111222 275.621553,195.722051 C270.847241,201.854198 265.195905,207.167646 258.826047,211.740942 C238.392693,213.391576 217.858562,218.684186 197.818607,220.558434 C192.551116,221.051541 172.890898,222.20314 171.808514,214.467384 C170.782296,207.134802 184.22503,201.72587 189.500544,199.480595 C211.458721,190.135954 235.678749,186.269601 257.766907,177.171132 C262.12051,175.377809 284.860987,165.644475 275.828825,158.461273 C265.082019,149.915358 244.992539,155.219877 232.924248,157.229649 C194.635646,163.605741 157.102867,175.571393 118.372165,179.245687 C104.388642,180.571816 66.7804409,182.971044 63.0406423,163.766554 C60.6070858,151.267401 74.9773468,140.530325 85.0614025,135.687665 C113.787482,121.892869 148.81369,125.669289 179.317799,117.223978 C187.59494,114.932213 210.592974,106.626374 211.640856,96.7329895 C212.221764,91.2516539 204.385118,91.1861096 200.451149,91.266897 C192.532662,91.4299957 171.102438,98.2542277 164.836812,93.8055964 C161.147562,91.1861096 168.010946,84.881659 169.744043,83.0441313 C177.39374,74.9349252 188.694173,59.8688733 170.341801,55.296775 C152.590346,50.8737178 124.831126,64.4862282 102.387954,74.2560934 C109.764407,49.397674 117.495451,18.5194621 169.765263,3.18403911 Z" id="Combined-Shape" fill="#FFFFFF" fill-rule="nonzero" opacity="0.0734049479"></path>
            <g id="Group-55" transform="translate(214.991763, 147.775947)">
                <g id="Fill-53-Clipped">
                    <mask id="mask-3" fill="white">
                        <use xlink:href="#path-2"></use>
                    </mask>
                    <g id="path-2"></g>
                    <polygon id="Fill-53" fill="#FFFFFF" fill-rule="nonzero" mask="url(#mask-3)" points="-6.75580537 14.1285941 16.4014952 14.1285941 16.4014952 -6.25855586 -6.75580537 -6.25855586"></polygon>
                </g>
            </g>
            <g id="Group-55" transform="translate(206.589786, 20.263591)">
                <g id="Fill-53-Clipped">
                    <mask id="mask-5" fill="white">
                        <use xlink:href="#path-4"></use>
                    </mask>
                    <g id="path-4"></g>
                    <polygon id="Fill-53" fill="#FFFFFF" fill-rule="nonzero" mask="url(#mask-5)" transform="translate(3.384552, 3.602249) rotate(60.000000) translate(-3.384552, -3.602249) " points="-4.86351845 11.8459676 11.2402707 11.4417272 11.6326216 -4.64146879 -4.47116756 -4.23722849"></polygon>
                </g>
            </g>
            <g id="Group-55" transform="translate(157.660626, 199.176277)">
                <g id="Fill-53-Clipped">
                    <mask id="mask-7" fill="white">
                        <use xlink:href="#path-6"></use>
                    </mask>
                    <g id="path-6"></g>
                    <polygon id="Fill-53" fill="#FFFFFF" fill-rule="nonzero" mask="url(#mask-7)" transform="translate(4.083046, 3.654192) rotate(30.000000) translate(-4.083046, -3.654192) " points="-5.89584572 12.7294111 13.6825578 12.3208473 14.0619383 -5.42102778 -5.51646511 -5.01246405"></polygon>
                </g>
            </g>
            <g id="Group-55" transform="translate(126.523888, 42.998353)">
                <g id="Fill-53-Clipped">
                    <mask id="mask-9" fill="white">
                        <use xlink:href="#path-8"></use>
                    </mask>
                    <g id="path-8"></g>
                    <polygon id="Fill-53" fill="#FFFFFF" fill-rule="nonzero" mask="url(#mask-9)" transform="translate(4.083046, 3.654192) rotate(30.000000) translate(-4.083046, -3.654192) " points="-5.89584572 12.7294111 13.6825578 12.3208473 14.0619383 -5.42102778 -5.51646511 -5.01246405"></polygon>
                </g>
            </g>
            <g id="Group-55" opacity="0.732700893" transform="translate(139.561127, 82.870297) rotate(-105.000000) translate(-139.561127, -82.870297) translate(136.842840, 80.399128)">
                <g id="Fill-53-Clipped">
                    <mask id="mask-11" fill="white">
                        <use xlink:href="#path-10"></use>
                    </mask>
                    <g id="path-10"></g>
                    <polygon id="Fill-53" fill="#FFFFFF" fill-rule="nonzero" mask="url(#mask-11)" transform="translate(2.634042, 2.607358) rotate(30.000000) translate(-2.634042, -2.607358) " points="-4.51423717 9.05415123 9.4029412 8.64558745 9.78232179 -3.83943574 -4.13485657 -3.430872"></polygon>
                </g>
            </g>
            <g id="Group-55" opacity="0.732700893" transform="translate(233.465575, 211.371121) rotate(-105.000000) translate(-233.465575, -211.371121) translate(230.747288, 208.899951)">
                <g id="Fill-53-Clipped">
                    <mask id="mask-13" fill="white">
                        <use xlink:href="#path-12"></use>
                    </mask>
                    <g id="path-12"></g>
                    <polygon id="Fill-53" fill="#FFFFFF" fill-rule="nonzero" mask="url(#mask-13)" transform="translate(2.634042, 2.607358) rotate(30.000000) translate(-2.634042, -2.607358) " points="-4.51423717 9.05415123 9.4029412 8.64558745 9.78232179 -3.83943574 -4.13485657 -3.430872"></polygon>
                </g>
            </g>
            <g id="Group-55" opacity="0.214355469" transform="translate(154.695222, 147.775947)">
                <g id="Fill-53-Clipped">
                    <mask id="mask-15" fill="white">
                        <use xlink:href="#path-14"></use>
                    </mask>
                    <g id="path-14"></g>
                    <polygon id="Fill-53" fill="#FFFFFF" fill-rule="nonzero" mask="url(#mask-15)" points="-3.648792 7.65699124 9.39898394 7.65699124 9.39898394 -3.21615537 -3.648792 -3.21615537"></polygon>
                </g>
            </g>
            <g id="Group-55" opacity="0.214355469" transform="translate(41.515651, 124.546952)">
                <g id="Fill-53-Clipped">
                    <mask id="mask-17" fill="white">
                        <use xlink:href="#path-16"></use>
                    </mask>
                    <g id="path-16"></g>
                    <polygon id="Fill-53" fill="#FFFFFF" fill-rule="nonzero" mask="url(#mask-17)" points="-3.648792 6.66852336 9.39898394 6.66852336 9.39898394 -2.72192143 -3.648792 -2.72192143"></polygon>
                </g>
            </g>
            <g id="Group-55" opacity="0.214355469" transform="translate(163.591433, 10.873147)">
                <g id="Fill-53-Clipped">
                    <mask id="mask-19" fill="white">
                        <use xlink:href="#path-18"></use>
                    </mask>
                    <g id="path-18"></g>
                    <polygon id="Fill-53" fill="#FFFFFF" fill-rule="nonzero" mask="url(#mask-19)" points="-3.648792 7.65699124 9.39898394 7.65699124 9.39898394 -3.21615537 -3.648792 -3.21615537"></polygon>
                </g>
            </g>
            <g id="Group-55" opacity="0.214355469" transform="translate(227.841845, 89.950577)">
                <g id="Fill-53-Clipped">
                    <mask id="mask-21" fill="white">
                        <use xlink:href="#path-20"></use>
                    </mask>
                    <g id="path-20"></g>
                    <polygon id="Fill-53" fill="#FFFFFF" fill-rule="nonzero" mask="url(#mask-21)" points="-3.648792 7.65699124 9.39898394 7.65699124 9.39898394 -3.21615537 -3.648792 -3.21615537"></polygon>
                </g>
            </g>
            <g id="Group-55" transform="translate(110.214168, 184.843493)">
                <g id="Fill-53-Clipped">
                    <mask id="mask-23" fill="white">
                        <use xlink:href="#path-22"></use>
                    </mask>
                    <g id="path-22"></g>
                    <polygon id="Fill-53" fill="#FFFFFF" fill-rule="nonzero" mask="url(#mask-23)" transform="translate(2.471170, 2.471170) rotate(45.000000) translate(-2.471170, -2.471170) " points="-3.94563427 8.65733115 8.47611202 8.22899505 8.88797362 -3.71499177 -3.53377266 -3.28665569"></polygon>
                </g>
            </g>
            <g id="Group-55" transform="translate(184.349259, 71.663921)">
                <g id="Fill-53-Clipped">
                    <mask id="mask-25" fill="white">
                        <use xlink:href="#path-24"></use>
                    </mask>
                    <g id="path-24"></g>
                    <polygon id="Fill-53" fill="#FFFFFF" fill-rule="nonzero" mask="url(#mask-25)" transform="translate(2.224053, 2.224053) rotate(45.000000) translate(-2.224053, -2.224053) " points="-3.73440809 7.96834548 7.80007063 7.57060483 8.18251355 -3.52024005 -3.35196516 -3.1224994"></polygon>
                </g>
            </g>
            <g id="Group-55" transform="translate(65.733114, 150.741351)">
                <g id="Fill-53-Clipped">
                    <mask id="mask-27" fill="white">
                        <use xlink:href="#path-26"></use>
                    </mask>
                    <g id="path-26"></g>
                    <polygon id="Fill-53" fill="#FFFFFF" fill-rule="nonzero" mask="url(#mask-27)" transform="translate(2.224053, 2.224053) rotate(45.000000) translate(-2.224053, -2.224053) " points="-3.73440809 7.96834548 7.80007063 7.57060483 8.18251355 -3.52024005 -3.35196516 -3.1224994"></polygon>
                </g>
            </g>
            <g id="Group-55" transform="translate(13.838550, 142.339374)">
                <g id="Fill-53-Clipped">
                    <mask id="mask-29" fill="white">
                        <use xlink:href="#path-28"></use>
                    </mask>
                    <g id="path-28"></g>
                    <polygon id="Fill-53" fill="#FFFFFF" fill-rule="nonzero" mask="url(#mask-29)" transform="translate(2.718287, 2.471170) rotate(45.000000) translate(-2.718287, -2.471170) " points="-3.18411055 8.14292436 8.71314257 8.23908147 8.62068385 -3.20058502 -3.27656928 -3.2967421"></polygon>
                </g>
            </g>
            <g id="Group-55" opacity="0.522158668" transform="translate(162.602965, 103.789127)">
                <g id="Fill-53-Clipped">
                    <mask id="mask-31" fill="white">
                        <use xlink:href="#path-30"></use>
                    </mask>
                    <g id="path-30"></g>
                    <polygon id="Fill-53" fill="#FFFFFF" fill-rule="nonzero" mask="url(#mask-31)" transform="translate(3.156957, 3.080022) rotate(-45.000000) translate(-3.156957, -3.080022) " points="-4.36710404 10.3699731 11.1102219 10.8121824 10.6810187 -4.20992808 -4.7963072 -4.65213739"></polygon>
                </g>
            </g>
            <g id="Group-55" opacity="0.522158668" transform="translate(254.530478, 162.108731)">
                <g id="Fill-53-Clipped">
                    <mask id="mask-33" fill="white">
                        <use xlink:href="#path-32"></use>
                    </mask>
                    <g id="path-32"></g>
                    <polygon id="Fill-53" fill="#FFFFFF" fill-rule="nonzero" mask="url(#mask-33)" transform="translate(3.156957, 3.080022) rotate(-45.000000) translate(-3.156957, -3.080022) " points="-4.36710404 10.3699731 11.1102219 10.8121824 10.6810187 -4.20992808 -4.7963072 -4.65213739"></polygon>
                </g>
            </g>
            <g id="Asset-2@200x" transform="translate(218.451400, 134.431631)">
                <g id="Path-+-Path-+-Path-+-Path-Mask">
                    <g id="Mask" fill="#4D69FB" fill-rule="nonzero">
                        <circle id="path-34" cx="40.7742998" cy="40.7742998" r="40.7742998"></circle>
                    </g>
                    <g id="Path-Clipped">
                        <mask id="mask-35" fill="white">
                            <use xlink:href="#path-34"></use>
                        </mask>
                        <g id="path-34"></g>
                        <path d="M28.7456821,0.0581658227 C28.7456821,0.0581658227 38.2410699,8.02897957 40.8113891,9.56574504 C43.3817083,11.1025106 49.2804984,12.3985778 55.4751524,9.0565758 C61.6698069,5.71457372 62.8717547,1.85414477 62.8717547,1.85414477 L39.0177131,-3.28383623 L28.7456821,0.0581658227 Z" id="Path" fill="#FFFFFF" fill-rule="nonzero" opacity="0.2" mask="url(#mask-35)"></path>
                    </g>
                    <g id="Path-Clipped">
                        <mask id="mask-37" fill="white">
                            <use xlink:href="#path-36"></use>
                        </mask>
                        <g id="path-34"></g>
                        <path d="M8.46974694,12.1393644 C8.46974694,12.1393644 13.6011395,12.6485337 16.1714587,13.1669606 C21.2949513,14.4510875 26.3496983,15.9960316 31.3160013,17.7957723 C35.4211154,19.3417954 45.6839007,20.1101781 50.5656578,18.8326261 C55.4474155,17.5550741 63.1398815,10.8618124 65.1924386,9.83421613 C67.2449956,8.80661995 74.1793097,7.51981028 74.1793097,7.51981028 L75.2055885,13.4354316 L70.0741957,14.9629395 C70.0741957,14.9629395 63.6576435,16.721888 61.8547216,18.5734126 C60.0518002,20.4249373 58.2488783,22.4153264 58.2488783,24.2113053 C58.2488783,26.0072842 61.0226041,26.0165419 63.380271,26.0165419 C65.7379379,26.0165419 75.9082656,24.563095 79.0148382,24.9056271 C82.1214114,25.2481591 83.9150871,31.3859634 83.9150871,31.3859634 L80.7530397,32.4598478 C80.7530397,32.4598478 76.9992643,30.3583672 71.1004745,31.6451769 C65.2016842,32.9319865 60.8284433,35.2371348 56.4644481,36.2739886 C52.1004529,37.3108424 45.1753843,36.2739886 42.0965487,35.2463924 C39.0177131,34.2187962 32.8507962,29.3400287 30.5393581,27.8402937 C28.22792,26.3405587 22.3291299,21.1285167 16.9388562,21.3506997 C11.5485825,21.5728826 1.28579723,23.9613495 1.28579723,23.9613495 L8.46974694,12.1393644 Z" id="Path" fill="#FFFFFF" fill-rule="nonzero" opacity="0.2" mask="url(#mask-37)"></path>
                    </g>
                    <g id="Path-Clipped">
                        <mask id="mask-39" fill="white">
                            <use xlink:href="#path-38"></use>
                        </mask>
                        <g id="path-34"></g>
                        <path d="M-3.8455954,35.7833346 L0.000637638104,36.7183545 C3.04991256,36.1418929 6.14349242,35.8321377 9.24639015,35.7925922 C13.8692664,35.7925922 22.5972567,37.5885711 26.4434898,39.6437635 C30.2897228,41.6989559 40.3121185,45.8093407 44.9349947,46.3277676 C49.5578708,46.8461945 60.8469346,47.3553638 70.6012038,44.7817445 C76.1435748,43.3682851 81.5538904,41.4789026 86.7720247,39.1345942 L83.9982988,48.3922176 C79.1865183,51.5452586 73.7644369,53.646213 68.0863591,54.5577949 C59.0994875,55.8446046 44.9719777,55.0762216 44.9719777,55.0762216 C44.9719777,55.0762216 38.2965444,55.5853913 37.7880281,59.1866066 C37.2795117,62.7878219 39.322823,65.6113972 42.1520232,67.4073761 C44.9812235,69.203355 67.0415891,75.1189764 67.0415891,75.1189764 L54.6707723,83.5804443 C54.6707723,83.5804443 47.4868224,78.7479647 42.6050651,77.1556537 C37.7233078,75.5633422 30.7982392,71.758459 29.7719607,68.416457 C28.7456821,65.074455 30.0308417,57.8812819 21.5617325,51.4564908 C13.0926232,45.0317004 5.64979241,45.2909138 2.05319469,46.3462829 C-1.54340303,47.4016519 -8.20959059,48.9106446 -8.20959059,48.9106446 L-3.8455954,35.7833346 Z" id="Path" fill="#FFFFFF" fill-rule="nonzero" opacity="0.2" mask="url(#mask-39)"></path>
                    </g>
                    <g id="Path-Clipped">
                        <mask id="mask-41" fill="white">
                            <use xlink:href="#path-40"></use>
                        </mask>
                        <g id="path-34"></g>
                        <path d="M81.12287,55.3632079 C80.9564466,55.7705437 78.3491442,56.2889703 77.8591191,56.4278348 C76.6294344,56.8073975 75.3905036,57.1499293 74.1608185,57.4832036 C71.8493802,58.0849493 69.537942,58.5941185 67.1802751,59.0755152 C64.5914644,59.6124573 61.9841624,60.0753386 59.3583687,60.4641588 C58.0547175,60.6585687 56.7418206,60.8344636 55.4289237,60.991843 C54.3749081,61.1214499 52.8955878,60.991843 51.9340295,61.4269512 C51.0842644,61.7517643 50.6171792,62.6671478 50.8522764,63.546947 C51.2590893,64.9541061 53.1914516,65.5558512 54.4303824,65.8520956 C59.8206563,67.1296473 74.7063178,72.0176728 74.7063178,72.0176728 C76.8235952,66.4630987 78.9408722,60.8992671 81.12287,55.3632079 Z" id="Path" fill="#FFFFFF" fill-rule="nonzero" opacity="0.2" mask="url(#mask-41)"></path>
                    </g>
                </g>
            </g>
            <g id="Group-2" transform="translate(5.930807, 89.212860)">
                <path d="M137.176333,38.2888735 C137.086687,38.2082031 157.374957,20.6159085 163.973926,13.7688638 C165.527931,12.157104 165.094056,7.23751625 161.567515,4.34465925 C157.423984,0.945444659 151.959237,2.51156052 149.87465,6.24741518 C144.963486,15.0488288 138.463166,26.6662205 133.828127,34.8655919 L137.176333,38.2888735 Z" id="Stroke-3" fill="#CDCDCD" fill-rule="nonzero" transform="translate(149.328039, 20.377923) rotate(10.000000) translate(-149.328039, -20.377923) "></path>
                <path d="M147.311968,10.7996379 C152.565877,10.7996379 156.900787,14.7722315 157.530712,19.904603 C153.900324,23.354488 149.215756,27.6045405 145.052269,31.3414133 C141.906815,30.6306717 139.304933,28.466705 137.973887,25.5841338 C140.737981,20.6338822 143.611594,15.472192 146.1741,10.8617453 C146.547229,10.8209515 146.927134,10.7996379 147.311968,10.7996379 Z" id="Combined-Shape" fill="#AFAFAF" fill-rule="nonzero" transform="translate(147.752299, 21.070526) rotate(10.000000) translate(-147.752299, -21.070526) "></path>
                <path d="M91.7966264,58.9702785 C86.4414075,56.3347725 82.437563,61.5684371 81.5853727,62.5663078 C78.9874201,65.6071024 76.1245419,68.3918778 73.1549882,71.0693304 C64.4661351,78.9036188 54.8564561,84.4515515 44.4920456,89.6976075 C40.2505329,91.844359 38.0937713,91.8738292 39.0837666,96.8873571 C39.2015956,97.4850322 39.20018,98.6970515 39.6444748,99.16419 C40.390046,99.9478281 42.7288042,99.8887918 43.6900707,100.007807 C47.438659,100.472511 51.2316959,100.763253 55.010528,100.728651 C59.451388,100.687712 64.0784155,100.334391 68.3288872,99.0138603 C71.318745,98.0848152 73.9822315,96.6196365 76.6112526,94.9402814 C86.0363689,88.9194732 89.1861139,83.9015412 93.5832109,72.3645337 C96.1736397,65.567918 95.4516766,60.7694501 91.7966264,58.9702785 Z" id="Path" fill="#D1D6E1" fill-rule="nonzero" transform="translate(66.985958, 79.483881) rotate(18.000000) translate(-66.985958, -79.483881) "></path>
                <path d="M37.4772015,85.320196 C37.1197948,84.3026711 35.5456469,83.5757943 35.2046248,83.1929454 C34.3026614,82.1800485 32.5073887,80.9078642 30.9996252,80.9953717 C28.1048695,81.1632635 31.185526,83.8155768 31.1222267,83.906289 C29.9605773,85.5711378 26.7320098,85.8801185 26.4345886,88.1948864 C26.3556871,88.8105516 26.457419,89.4452656 26.623278,90.0405333 C27.9915474,94.9493128 36.8359124,91.1254885 37.4006591,89.4416632 C38.1369467,87.2452574 37.8432072,86.3615637 37.4772015,85.320196 Z" id="Path" fill="#9BA3AE" fill-rule="nonzero" transform="translate(32.131786, 86.722644) scale(-1, 1) rotate(-162.000000) translate(-32.131786, -86.722644) "></path>
                <path d="M120.070456,30.8021557 C124.865581,35.6160252 127.904331,42.299282 128.058491,49.7341097 C128.176981,55.4367247 126.581177,60.7658679 123.759373,65.1969203 C123.543305,65.076431 123.347189,64.919192 123.180805,64.7181663 C121.193205,62.3218952 120.996194,58.6971213 120.251865,55.8757448 C119.692443,53.7574641 118.732117,51.0900924 117.868629,49.0776985 C117.116357,47.3257503 115.559292,45.0429848 115.665597,42.9502919 C115.783584,40.6327676 116.322067,38.9570099 117.255723,36.8508451 C118.157305,34.8181831 119.108205,32.8074308 120.070456,30.8021557 Z" id="Path" fill="#0C204E" fill-rule="nonzero" transform="translate(121.862536, 47.999538) rotate(10.000000) translate(-121.862536, -47.999538) "></path>
                <path d="M41.8949004,153.34597 C41.782105,153.057367 35.3564495,156.761772 33.9971072,157.84242 C33.0446285,158.599946 33.8158943,168.375138 35.9707996,170.23716 C36.976119,171.105899 37.6939288,169.819005 37.8485379,168.923885 C38.3135745,166.229328 37.5506018,163.937412 39.430514,161.654153 C40.6073523,160.224472 44.4643635,158.870922 44.5654491,157.227216 L41.8949004,153.34597 Z" id="Path" fill="#9BA3AE" fill-rule="nonzero" transform="translate(39.080172, 161.927775) rotate(10.000000) translate(-39.080172, -161.927775) "></path>
                <path d="M14.9882299,118.777605 C15.0606218,118.489739 8.14046555,117.678403 6.51370102,117.736795 C5.3733682,117.777669 0.595520076,125.785174 1.21245743,128.459814 C1.5003615,129.707881 2.7523915,129.12273 3.36135074,128.518299 C5.19393292,126.699125 5.87152043,124.488259 8.55430176,123.797321 C10.2340355,123.364604 13.9104229,124.525034 14.8892587,123.310817 L14.9882299,118.777605 Z" id="Path" fill="#9BA3AE" fill-rule="nonzero" transform="translate(8.073257, 123.465494) rotate(10.000000) translate(-8.073257, -123.465494) "></path>
                <path d="M82.1023581,111.118075 C77.6211425,112.750744 72.1803385,123.894857 72.1162384,124.03362 C70.6916362,127.122718 69.1188578,130.165519 67.3275667,133.058861 C63.1919975,139.737703 58.4517865,146.49383 52.8370201,152.029845 C51.2652286,153.579997 44.16233,157.902251 43.6114771,159.08773 C42.823761,160.78406 45.6513023,165.031436 47.1633279,165.798368 C50.9989616,167.74501 62.1903479,163.030775 65.5215356,161.252177 C79.2502527,153.922008 95.7221817,139.033361 99.079541,123.036917 C99.6516044,120.310823 100.286934,116.875429 99.0042188,114.237949 C96.2932893,108.664147 86.5835738,109.485406 82.1023581,111.118075 Z" id="Path" fill="#D2D6E1" fill-rule="nonzero" transform="translate(71.614024, 138.082385) rotate(10.000000) translate(-71.614024, -138.082385) "></path>
                <path d="M68.3408205,95.3953236 C63.6138178,95.0613069 54.1634027,103.030878 54.0493097,103.131717 C51.5055425,105.374861 48.8462674,107.515391 46.048969,109.430134 C39.5916476,113.850195 32.5541467,118.093759 25.2178536,120.866424 C23.1639096,121.642646 14.969066,122.698616 13.9892258,123.558143 C12.5874105,124.787412 13.4321685,129.822459 14.4929646,131.140194 C17.1846534,134.482917 29.2476211,134.735115 32.9903185,134.466757 C48.4148516,133.361877 69.3902121,126.465033 78.9155709,113.21054 C80.5392272,110.95172 82.5067834,108.070282 82.4113251,105.136504 C82.2097621,98.9361514 73.0678226,95.7293407 68.3408205,95.3953236 Z" id="Path" fill="#D2D6E1" fill-rule="nonzero" transform="translate(47.833771, 114.965600) rotate(10.000000) translate(-47.833771, -114.965600) "></path>
                <path d="M55.2554872,145.95205 C58.1971473,150.198657 61.9938603,154.390027 66.2297872,157.419488" id="Path" stroke="#2FCFA4" stroke-width="6" stroke-linecap="round" stroke-linejoin="round" transform="translate(60.742637, 151.685769) rotate(10.000000) translate(-60.742637, -151.685769) "></path>
                <path d="M67.7397336,134.426804 C74.0136578,137.93543 81.0807523,142.030123 88.2537163,143.508246" id="Path" stroke="#2FCFA4" stroke-width="6" stroke-linecap="round" stroke-linejoin="round" transform="translate(77.996725, 138.967525) rotate(10.000000) translate(-77.996725, -138.967525) "></path>
                <path d="M33.0512915,115.36883 C34.1342859,120.871072 35.3924483,126.757757 38.3026443,131.611709" id="Path" stroke="#2FCFA4" stroke-width="6" stroke-linecap="round" stroke-linejoin="round" transform="translate(35.676968, 123.490269) rotate(10.000000) translate(-35.676968, -123.490269) "></path>
                <path d="M48.5041695,108.965026 C51.7491227,115.67215 54.9859048,122.447094 59.9574558,128.075657" id="Path" stroke="#2FCFA4" stroke-width="6" stroke-linecap="round" stroke-linejoin="round" transform="translate(54.230813, 118.520341) rotate(10.000000) translate(-54.230813, -118.520341) "></path>
                <path d="M91.4967652,67.8219109 C83.0450466,70.1840392 77.4355097,78.2731162 76.3975186,79.6173124 C70.1461829,87.712158 63.7879537,95.8324943 59.8708675,104.73563 C57.9582845,109.083653 57.7922555,114.433576 61.099927,118.488001 C67.7080063,126.588245 90.7833904,135.674697 101.637578,131.167565 C106.80935,129.020013 112.233562,120.589859 114.27275,114.442228 C117.551817,104.558248 119.310712,92.4092649 119.057167,82.1997554 C118.938955,77.4390559 118.154995,72.1093617 112.436097,69.0881066 C107.998958,66.7437168 97.0341677,66.2744323 91.4967652,67.8219109 Z" id="Path" fill="url(#linearGradient-42)" fill-rule="nonzero" transform="translate(88.794262, 99.644427) rotate(10.000000) translate(-88.794262, -99.644427) "></path>
                <path d="M93.6979907,65.2324616 C99.0031966,63.2041374 109.508528,63.8180916 113.759932,66.8897827 C115.543387,68.1781972 116.825988,69.7871115 117.748757,71.5865046 C115.23297,74.5439931 111.066173,76.4764774 106.35108,76.4752612 C98.9802518,76.4733563 92.9468678,71.7467095 92.4654672,65.7701664 C92.8689775,65.5722331 93.279853,65.3923418 93.6979907,65.2324616 Z" id="Path" fill="#2FCFA4" fill-rule="nonzero" transform="translate(105.107112, 70.264651) rotate(10.000000) translate(-105.107112, -70.264651) "></path>
                <path d="M126.174797,59.9170398 C121.618787,67.8405701 113.243835,73.1549382 103.67406,73.1524689 C89.2406762,73.1487395 77.519569,61.0518855 77.5157259,46.1561231 C77.5118861,31.2603606 89.2267561,19.1695591 103.66014,19.1732849 C110.327143,19.1750083 116.415581,21.7571873 121.037706,26.0032187 C120.939052,26.3421745 120.836899,26.6803528 120.733191,27.0173658 C120.08375,29.1271915 119.081662,31.0237524 118.139074,33.0053651 C117.889634,33.5294985 117.014817,34.5066104 116.965198,35.0517634 C116.919457,35.5573113 118.847161,36.7157039 119.174167,36.986818 C120.912235,38.4251222 122.227024,40.118815 122.901674,42.3031469 C123.84595,45.360435 123.881099,49.0030367 123.411527,52.1508207 C123.24155,53.2911983 123.030367,54.4342833 122.797022,55.563384 C122.304706,57.9469981 121.508369,58.7420199 123.825087,59.4322294 C124.244577,59.557369 124.667949,59.6588234 125.097535,59.7435825 C125.453646,59.8135675 125.81364,59.8719044 126.174797,59.9170398 Z" id="Path" fill="#EBEDF8" fill-rule="nonzero" transform="translate(101.845262, 46.162877) rotate(10.000000) translate(-101.845262, -46.162877) "></path>
                <path d="M119.312592,38.7207927 C121.094143,40.1603657 122.441664,41.8557417 123.132762,44.0425086 C124.10006,47.1032047 124.135134,50.7501489 123.65288,53.9018145 C123.478311,55.0435982 123.261496,56.1881036 123.021963,57.3186134 L122.975967,57.5281255 C122.470682,59.7526409 121.770845,60.5219896 124.074951,61.191815 C124.463376,61.3048804 125.790313,62.4249445 125.790313,63.1708028 C125.478849,63.1297542 124.889432,63.1171112 124.582315,63.0582445 C123.970316,62.925647 123.53549,62.8218484 123.277837,62.7468489 C120.902835,62.056414 121.719478,61.2602362 122.224849,58.8736478 C122.464382,57.7431376 122.681197,56.5986326 122.855765,55.4568484 C123.338019,52.3051829 123.302946,48.658239 122.335648,45.5975428 C121.64455,43.410776 120.297028,41.7153999 118.515477,40.275827 L118.445048,40.2226441 C117.966974,39.8776806 116.206857,38.8170753 116.251274,38.3390319 C116.28614,37.9659943 116.716239,37.3908475 117.066727,36.8965556 C117.263414,37.4442479 119.000279,38.4679568 119.312592,38.7207927 Z" id="Shape" fill="#CDD1DC" fill-rule="nonzero" transform="translate(121.020381, 50.033679) rotate(10.000000) translate(-121.020381, -50.033679) "></path>
                <path d="M127.522052,37.0256125 C125.68686,33.8094877 124.782729,29.9555806 128.266363,27.7713306 C129.073399,27.2655209 130.130119,26.7766691 131.098839,26.9427109 C133.452561,27.3456189 136.195954,30.53212 137.369172,32.4912788 C140.726463,38.0964536 134.298059,44.3720896 129.63431,40.543141 L127.522052,37.0256125 Z" id="Path" fill="#9BA3AE" fill-rule="nonzero" transform="translate(132.100883, 34.314188) rotate(10.000000) translate(-132.100883, -34.314188) "></path>
                <path d="M82.7795036,128.89762 C75.4687389,128.895732 68.7837712,126.671598 63.4682535,120.859463 C62.4041758,115.748716 71.3693842,80.7671723 79.4641745,63.9591529 C82.7038809,57.2322277 88.2027988,56.3137873 93.2910178,57.9451779 C99.4639829,59.9243842 104.466147,65.0641562 102.543811,71.4982641 C100.93525,76.8821541 90.9615529,114.443685 82.7795036,128.89762 Z" id="Path" fill="url(#linearGradient-43)" fill-rule="nonzero" transform="translate(83.171419, 93.071549) rotate(10.000000) translate(-83.171419, -93.071549) "></path>
                <path d="M98.3898726,54.3187797 C98.3654189,54.3045629 95.5502787,61.1596924 96.3189237,62.8399999 C97.017728,64.3674437 99.9736018,64.9554333 100.764722,63.5641924 C101.388316,62.4683033 103.089394,57.1544043 102.837343,55.4112713 L98.3898726,54.3187797 Z" id="Path" fill="#17388D" fill-rule="nonzero" transform="translate(99.524318, 59.334647) rotate(10.000000) translate(-99.524318, -59.334647) "></path>
                <path d="M102.494408,53.0963881 C104.714994,53.7246939 106.295364,55.052185 106.020619,56.0590685 C105.745874,57.0655611 103.720148,57.3730339 101.499177,56.7447282 C99.2782063,56.1164219 97.6982205,54.7889313 97.9729656,53.7824387 C98.2473262,52.7755547 100.273437,52.4684733 102.494408,53.0963881 Z" id="Path" fill="#17388D" fill-rule="nonzero" transform="translate(101.996789, 54.920653) rotate(10.000000) translate(-101.996789, -54.920653) "></path>
                <path d="M78.3504183,74.2551801 C78.509181,74.4709953 78.8841286,74.9719849 79.0999586,75.1871417 C79.0999586,75.1871417 79.1009713,75.186132 79.1337341,75.2198027 C79.1333965,75.2198022 79.7781697,75.8104028 80.185837,76.1767518 C80.9224749,76.8340271 81.6996217,77.4455318 82.5030973,78.0206887 C82.5030973,78.0206887 83.0789476,78.4665238 83.6145954,78.8389656 C87.1976273,81.3318984 91.5543128,82.6774888 95.9410571,82.7338276 C97.2819672,82.7513417 98.6181247,82.672244 99.9441272,82.4948506 C100.235207,82.5134397 100.526624,82.5269803 100.818715,82.5358078 C100.427117,84.2538218 99.9757843,86.0963699 99.4711146,88.0031995 C92.6617235,88.595914 85.6680178,86.7874617 80.2536875,82.6375424 C79.9770776,82.425736 79.704856,82.2085449 79.4346593,81.9886617 L79.3924413,81.9539788 C78.4572094,81.1350742 77.5648492,80.2673704 76.72988,79.3434658 C76.72988,79.3434658 76.6251692,79.2219188 76.4900585,79.0616521 C77.0643543,77.4110096 77.6842468,75.7984167 78.3504183,74.2551801 Z" id="Path" fill="#2FCFA4" fill-rule="nonzero" transform="translate(88.654387, 81.184112) rotate(10.000000) translate(-88.654387, -81.184112) "></path>
                <path d="M65.2459794,99.1903799 C67.1061702,101.183493 69.610412,103.160461 74.9238731,105.199986 C81.05061,107.551679 87.9332688,106.397184 88.1943474,106.371763 C87.5159619,108.814701 86.9762545,111.092063 85.9346041,112.94101 C85.164641,113.002819 84.392827,113.038379 83.6206374,113.046549 C80.1406206,113.082171 76.6331585,112.507973 73.3187614,111.286735 C70.3281702,110.185031 67.5797046,108.494121 65.1726183,106.428967 C65.1482743,106.407657 65.1239303,106.386728 65.0995868,106.365799 C64.761722,106.067844 64.1897708,105.510679 63.8662838,105.19713 C64.0306512,103.373065 65.0981713,100.876784 65.2459794,99.1903799 Z" id="Path" fill="#2FCFA4" fill-rule="nonzero" transform="translate(76.030316, 106.119244) rotate(10.000000) translate(-76.030316, -106.119244) "></path>
                <path d="M116.097431,82.03474 C114.996402,85.2910181 113.551834,89.3111204 116.73624,95.9806734 C119.423544,101.609141 126.184387,99.569826 128.356537,98.3827388 C136.161998,94.1165738 144.012296,88.1766459 148.668394,80.4083708 C155.930098,68.2927428 148.002847,54.1117052 139.703259,44.6206312 C137.585382,42.1987376 135.053998,38.9433779 132.196973,37.3587377 C129.486076,35.8554657 127.193548,36.9121703 127.867125,40.1169149 C128.368624,42.5045962 129.679001,44.7261117 130.579403,46.9738888 C132.671136,52.194808 134.713935,58.8960039 133.800861,64.5978168 C132.962376,69.8313484 127.733128,74.2281588 123.341312,76.4430024 C120.289671,77.982295 117.078943,79.1308626 116.097431,82.03474 Z" id="Path" fill="url(#linearGradient-44)" fill-rule="nonzero" transform="translate(133.158786, 68.212614) rotate(10.000000) translate(-133.158786, -68.212614) "></path>
                <path d="M148.170057,62.6398033 C150.473317,69.249991 150.703762,76.2244043 146.836608,82.6445971 C144.925073,85.8177954 142.501621,88.6995193 139.76859,91.2991434 C139.66716,91.0407934 139.568437,90.7738982 139.473193,90.4984577 C137.041767,83.4648188 138.972219,75.6383012 142.620833,69.4037343 C143.652964,67.63963 145.792636,63.99335 148.170057,62.6398033 Z" id="Path" fill="#2FCFA4" fill-rule="nonzero" transform="translate(144.113285, 76.969473) rotate(10.000000) translate(-144.113285, -76.969473) "></path>
                <path d="M118.94263,32.4673431 C115.35328,31.1721469 113.097738,31.6510028 110.092318,33.5541169 C104.142894,37.3208341 104.235788,51.1940081 107.59756,56.9464617 C110.992421,62.755502 117.298122,62.1235567 121.993193,59.0787361" id="Path" stroke="#FFFFFF" stroke-width="2" stroke-linecap="square" stroke-linejoin="round" transform="translate(113.643791, 46.548544) rotate(10.000000) translate(-113.643791, -46.548544) "></path>
                <path d="M87.2388524,28.6865619 C87.2380715,28.6861722 94.1387966,22.3846188 102.380368,25.0528988 C113.981441,28.8083718 115.611476,35.6839194 115.896575,35.8970514 C116.075835,36.0314764 119.138061,35.116934 119.659145,34.3626002 C119.925737,33.9762816 117.255772,28.2031499 111.768347,24.6338804 C106.451587,21.1756636 99.3667201,20.5276476 93.328421,23.3211655 L87.2388524,28.6865619 Z" id="Path" fill="#2FCFA4" fill-rule="nonzero" transform="translate(103.458080, 28.743040) rotate(10.000000) translate(-103.458080, -28.743040) "></path>
                <path d="M116.239866,37.8633533 C114.469007,36.8351849 109.364774,36.1103457 109.033969,45.2075651 C108.811502,51.3173709 109.564118,59.2844654 117.755218,56.9110201 C120.289385,56.1768727 120.971779,53.8318295 121.291885,51.4299 C121.887918,46.954337 120.126822,40.1193311 116.239866,37.8633533 Z" id="Path" fill="#31AD86" fill-rule="nonzero" transform="translate(115.203844, 47.308546) rotate(10.000000) translate(-115.203844, -47.308546) "></path>
                <path d="M118.367339,36.7838016 C116.596481,35.7556332 111.492248,35.030794 111.161442,44.1280133 C110.938976,50.2378191 111.691591,58.2049137 119.882692,55.8314684 C122.416858,55.0973209 123.099252,52.7522778 123.419358,50.3503483 C124.015391,45.8747852 122.254295,39.0397794 118.367339,36.7838016 Z" id="Path" fill="#2FCFA4" fill-rule="nonzero" transform="translate(117.331318, 46.228994) rotate(10.000000) translate(-117.331318, -46.228994) "></path>
                <path d="M68.2201013,74.8184857 C70.0826278,74.7830817 71.9130301,75.129985 73.0229501,76.3622115 C74.2317321,77.7045302 71.9961385,81.4280219 70.3138018,82.9270898 C66.8372767,86.0254419 61.6040812,87.6795944 56.9565375,87.4653 C55.2013448,87.3845264 52.7081145,87.1519147 51.7208728,85.4496598 C51.1637787,84.4890603 51.2305166,83.4811641 51.6054054,82.5516109 C57.3019942,80.3460825 62.8044914,77.8712496 68.1301809,74.8209045 L68.2201013,74.8184857 Z" id="Combined-Shape" fill="#2FCFA4" fill-rule="nonzero" transform="translate(62.340152, 81.149944) rotate(10.000000) translate(-62.340152, -81.149944) "></path>
            </g>
            <g id="Group-4" transform="translate(208.566722, 34.102142)" fill-rule="nonzero">
                <path d="M35.8999405,24.8275108 C30.9450672,23.9720768 11.8387241,20.9258311 6.53270308,20.0538473 C-0.417524979,18.9116409 -2.78437994,28.59842 4.22527731,30.1131323 C11.7252931,31.733926 24.1582015,34.3832481 32.1301229,34.7774586 C39.3964924,35.1366703 41.2550787,25.7521283 35.8999405,24.8275108 Z" id="Path" fill="#DCE0E9"></path>
                <path d="M14.2031805,21.8186211 C14.6202239,18.8539276 16.5576597,10.1464118 22.7895153,11.2457682 C29.3138022,12.3964612 27.6838263,19.3691726 27.3156258,23.8157434 L14.2031805,21.8186211 Z" id="Path" fill="#2FCFA4"></path>
                <path d="M12.1595393,23.9623543 C13.0831714,25.2705007 12.7710151,27.0819971 11.4629015,28.0057444 C10.1544748,28.9291787 8.34227728,28.6170892 7.41864514,27.3089428 C6.49469995,26.0011094 6.80716937,24.1893001 8.11528295,23.2658658 C9.42370962,22.3421185 11.2359072,22.654208 12.1595393,23.9623543 Z" id="Path" fill="#F07343"></path>
                <path d="M31.7327132,27.4291457 C32.6563453,28.7369791 32.3441889,30.5487885 31.0360754,31.4722228 C29.7276487,32.3959701 27.9154511,32.0838806 26.991819,30.7757342 C26.0681869,29.4675878 26.3803432,27.6560915 27.6884568,26.7323442 C28.9968835,25.8089099 30.809081,26.1209994 31.7327132,27.4291457 Z" id="Path" fill="#F07343"></path>
                <path d="M31.2384792,27.9233797 C32.1337109,29.1909989 31.8679834,30.9320775 30.6596777,31.8787942 C31.4282862,30.8969143 31.5004375,29.4883576 30.7442453,28.4176136 C29.8206131,27.1094672 28.0084156,26.7973778 26.6999889,27.7208121 C26.6599016,27.7491205 26.6207495,27.7782625 26.5825398,27.8081983 C26.7526734,27.5906745 26.9570826,27.3940389 27.1942229,27.2265781 C28.5026495,26.3031438 30.3148471,26.6152333 31.2384792,27.9233797 Z" id="Combined-Shape" fill="#FFD500"></path>
                <path d="M22.0440633,25.9393618 C22.9680085,27.2471951 22.6558521,29.0590045 21.3474255,29.9824387 C20.0393119,30.9061861 18.2271143,30.5940966 17.3031691,29.2859502 C16.379537,27.9781168 16.6916933,26.1663075 18.00012,25.2425602 C19.3082336,24.3191259 21.1204311,24.6312154 22.0440633,25.9393618 Z" id="Path" fill="#F07343"></path>
                <path d="M17.1307743,16.129224 C17.3667713,16.4634156 17.2869367,16.9265391 16.9527451,17.1625361 C16.6183472,17.3985331 16.15543,17.3186985 15.919433,16.9845069 C15.683436,16.650109 15.7630643,16.1871918 16.0974622,15.9511948 C16.4316538,15.7151978 16.8947773,15.7948261 17.1307743,16.129224" id="Fill-4" fill="#454545"></path>
                <path d="M27.0154531,18.6003487 C27.2514501,18.9345531 27.1716154,19.3976945 26.8374238,19.6337006 C26.503026,19.8697067 26.0401088,19.7898689 25.8041117,19.4556645 C25.5681147,19.12146 25.6477431,18.6583187 25.982141,18.4223126 C26.3163325,18.1863065 26.779456,18.2661442 27.0154531,18.6003487" id="Fill-5" fill="#454545"></path>
                <path d="M23.2087284,4.12003886 C23.0926918,3.75845357 23.8783487,0.337287086 24.5186921,0.49984416 C24.847879,0.583206766 24.6256243,3.63202029 24.276622,4.44810544 L23.2087284,4.12003886 Z" id="Path" fill="#DCE0E9"></path>
                <path d="M24.5590528,0.0604138013 C25.3743211,0.222073985 25.9797117,0.658431811 25.910065,1.03425364 C25.8404183,1.41007547 25.1219857,1.58392597 24.3065834,1.42226579 C23.4913152,1.26074413 22.8859245,0.82438631 22.9555713,0.448564475 C23.025218,0.0727426418 23.7436505,-0.101246383 24.5590528,0.0604138013 Z" id="Path" fill="#DCE0E9"></path>
                <path d="M17.76066,19.8124012 C17.9321637,19.3170259 18.2195957,16.8421687 21.2407346,17.3721561 C24.4036804,17.926995 24.3242463,20.1781102 24.117521,20.7752205 L17.76066,19.8124012 Z" id="Path" fill="#454545" transform="translate(20.981484, 19.036704) scale(-1, 1) rotate(161.000000) translate(-20.981484, -19.036704) "></path>
                <path d="M18.3082597,19.3713174 C18.8436899,19.1111262 19.5689436,18.9667598 20.5448407,19.0530065 C22.1026446,19.1906681 22.771851,19.8989113 23.0585811,20.6294222 C22.4845843,20.929304 21.6792495,21.0814823 20.5618777,20.9034984 C19.1849253,20.6841773 18.5442405,20.0616758 18.2548939,19.3986248 L18.3082597,19.3713174 Z" id="Path" fill="#FF3E3E"></path>
                <path d="M9.35868301,21.3415656 C10.0581386,16.3722371 13.3052535,1.77696699 23.7510633,3.61945315 C34.6871809,5.54833517 31.9551083,17.2358829 31.3379968,24.6887801 L9.35868301,21.3415656 Z" id="Path" fill="#FFFFFF" opacity="0.320359003"></path>
                <path d="M21.4281315,26.4335957 C22.3233632,27.7012149 22.0576357,29.4422935 20.84933,30.3890102 C21.6179385,29.4071303 21.6900899,27.9985735 20.9338976,26.9278296 C20.0102655,25.6196832 18.1980679,25.3075937 16.8896412,26.231028 C16.8495539,26.2593364 16.8104018,26.2884785 16.7721921,26.3184143 C16.9423257,26.1008905 17.1467349,25.9042548 17.3838752,25.7367941 C18.6923018,24.8133598 20.5044994,25.1254493 21.4281315,26.4335957 Z" id="Combined-Shape" fill="#FFD500"></path>
                <path d="M11.5434528,24.45666 C12.4386845,25.7242792 12.1729569,27.4653577 10.9646513,28.4120745 C11.7332598,27.4301946 11.8054111,26.0216378 11.0492188,24.9508939 C10.1255867,23.6427475 8.31338916,23.330658 7.00496249,24.2540923 C6.96487512,24.2824007 6.9257231,24.3115428 6.88751333,24.3414785 C7.05764699,24.1239548 7.26205616,23.9273191 7.49919643,23.7598584 C8.8076231,22.8364241 10.6198206,23.1485136 11.5434528,24.45666 Z" id="Combined-Shape" fill="#FFD500"></path>
            </g>
        </g>
    </g>
</svg>
