<?xml version="1.0" encoding="UTF-8"?>
<svg width="607px" height="525px" viewBox="0 0 607 525" version="1.1" xmlns="http://www.w3.org/2000/svg" xmlns:xlink="http://www.w3.org/1999/xlink">
    <!-- Generator: Sketch 63.1 (92452) - https://sketch.com -->
    <title>Group 5</title>
    <desc>Created with Sketch.</desc>
    <defs>
        <linearGradient x1="50%" y1="0%" x2="50%" y2="100%" id="linearGradient-1">
            <stop stop-color="#1D468B" offset="0%"></stop>
            <stop stop-color="#062150" offset="100%"></stop>
        </linearGradient>
        <path d="M5.68806949,15.4618553 C7.4072977,12.5089938 8.75474281,11.0335211 9.73255386,11.0335211 C10.7082159,11.0335211 11.8386084,12.5089938 13.1194334,15.4618553 C12.3028,11.9552125 12.5348958,10.2038073 13.8114228,10.2038073 C15.0922478,10.2038073 16.566486,10.2038073 18.2319883,10.2038073 C14.7161666,10.0485952 12.4747229,9.02151293 11.5033589,7.12447665 C10.5276969,5.22360797 9.78198167,3.00465038 9.2597661,0.461855288 C9.39730436,5.34241226 8.20673882,7.56136985 5.68806949,7.12447665 C3.16510209,6.68375105 1.36635958,6.35799734 0.287543877,6.14146694 C3.25536158,6.95010261 5.05625313,7.90053694 5.68806949,8.98893756 C6.31558779,10.075422 6.31558779,12.2330612 5.68806949,15.4618553 L5.68806949,15.4618553 Z" id="path-2"></path>
        <path d="M5.69908276,14.7761675 C6.94952338,12.4167256 7.91341288,11.2292587 8.59228014,11.2122176 C9.26965539,11.195214 10.0260603,12.3394978 10.858474,14.6466555 C10.3589933,11.8945361 10.5538368,10.508827 11.4400943,10.48658 C12.3293358,10.4642581 13.3528588,10.4385655 14.5091711,10.4095395 C12.0712201,10.3483673 10.5348136,9.57717687 9.8969309,8.09755472 C9.25613788,6.61498414 8.7811122,4.8774693 8.46748843,2.88058755 C8.46905109,6.72840773 7.59977039,8.4996676 5.85953569,8.19890216 C4.11639071,7.89518829 2.87384248,7.66955286 2.12901759,7.51753577 C4.17392944,8.10373706 5.40594771,8.82213865 5.82365412,9.66975466 C6.23841338,10.5159339 6.19688959,12.2180715 5.69908276,14.7761675 L5.69908276,14.7761675 Z" id="path-4"></path>
        <path d="M7.34334805,16.4997288 C8.84342841,13.9327805 10.0037068,12.6415682 10.8260258,12.624408 C11.6465375,12.6072855 12.5700697,13.8550127 13.5929724,16.3693111 C12.9706184,13.3711178 13.1979799,11.8624283 14.2715128,11.8400257 C15.3486604,11.8175477 16.5884644,11.7916754 17.9891176,11.7624464 C15.0352351,11.6908065 13.1690947,10.847786 12.3870466,9.23510645 C11.6014543,7.61920996 11.0150859,5.72601069 10.622625,3.55068323 C10.6486349,7.74111161 9.60663098,9.66829189 7.49650766,9.33716262 C5.38284015,9.0028164 3.87611882,8.75453162 2.9728347,8.58744513 C5.45385357,9.23005259 6.95090666,10.0149571 7.46225707,10.938904 C7.97002809,11.8612802 7.93039175,13.7148885 7.34334805,16.4997288 L7.34334805,16.4997288 Z" id="path-6"></path>
        <path d="M7.34334805,16.4997288 C8.84342841,13.9327805 10.0037068,12.6415682 10.8260258,12.624408 C11.6465375,12.6072855 12.5700697,13.8550127 13.5929724,16.3693111 C12.9706184,13.3711178 13.1979799,11.8624283 14.2715128,11.8400257 C15.3486604,11.8175477 16.5884644,11.7916754 17.9891176,11.7624464 C15.0352351,11.6908065 13.1690947,10.847786 12.3870466,9.23510645 C11.6014543,7.61920996 11.0150859,5.72601069 10.622625,3.55068323 C10.6486349,7.74111161 9.60663098,9.66829189 7.49650766,9.33716262 C5.38284015,9.0028164 3.87611882,8.75453162 2.9728347,8.58744513 C5.45385357,9.23005259 6.95090666,10.0149571 7.46225707,10.938904 C7.97002809,11.8612802 7.93039175,13.7148885 7.34334805,16.4997288 L7.34334805,16.4997288 Z" id="path-8"></path>
        <path d="M5.21189459,11.5906379 C6.29390201,9.77532708 7.12651577,8.85968963 7.71105578,8.84252941 C8.29431109,8.8254069 8.94296026,9.69755922 9.65439867,11.4602202 C9.23062927,9.35462687 9.40155095,8.29174961 10.1646647,8.26934704 C10.9303479,8.24686904 11.8116544,8.2209967 12.8072995,8.19176776 C10.7083761,8.15963638 9.38729828,7.57805496 8.84146139,6.44825738 C8.29312549,5.31621837 7.88809621,3.98784467 7.62262505,2.45977414 C7.61518908,5.40787893 6.86270066,6.77023364 5.3650542,6.55031355 C3.86490874,6.32815203 2.79559623,6.16278637 2.15465288,6.05081671 C3.91397334,6.48758963 4.97309501,7.03056541 5.33080362,7.67746491 C5.68597801,8.32328142 5.64634167,9.62767241 5.21189459,11.5906379 L5.21189459,11.5906379 Z" id="path-10"></path>
        <path d="M5.21189459,11.5906379 C6.29390201,9.77532708 7.12651577,8.85968963 7.71105578,8.84252941 C8.29431109,8.8254069 8.94296026,9.69755922 9.65439867,11.4602202 C9.23062927,9.35462687 9.40155095,8.29174961 10.1646647,8.26934704 C10.9303479,8.24686904 11.8116544,8.2209967 12.8072995,8.19176776 C10.7083761,8.15963638 9.38729828,7.57805496 8.84146139,6.44825738 C8.29312549,5.31621837 7.88809621,3.98784467 7.62262505,2.45977414 C7.61518908,5.40787893 6.86270066,6.77023364 5.3650542,6.55031355 C3.86490874,6.32815203 2.79559623,6.16278637 2.15465288,6.05081671 C3.91397334,6.48758963 4.97309501,7.03056541 5.33080362,7.67746491 C5.68597801,8.32328142 5.64634167,9.62767241 5.21189459,11.5906379 L5.21189459,11.5906379 Z" id="path-12"></path>
        <path d="M3.29676255,8.49264564 C4.24526554,6.91778616 4.98865476,6.13086741 5.52811584,6.13086741 C6.06639129,6.13086741 6.69003201,6.91778616 7.39666674,8.49264564 C6.94612782,6.62243614 7.07417572,5.68835336 7.77843919,5.68835336 C8.48507392,5.68835336 9.29841524,5.68835336 10.2172775,5.68835336 C8.27758889,5.60557359 7.04097812,5.05779638 6.50507392,4.0460437 C5.96679847,3.03224707 5.5553853,1.84880302 5.26727752,0.49264564 C5.34315776,3.09560936 4.68631943,4.27905341 3.29676255,4.0460437 C1.9048344,3.81099005 0.912463145,3.63725474 0.317277517,3.52177185 C1.95463081,3.95304421 2.9481877,4.45994252 3.29676255,5.04042285 C3.64296614,5.61988121 3.64296614,6.77062214 3.29676255,8.49264564 L3.29676255,8.49264564 Z" id="path-14"></path>
        <path d="M3.29676255,7.49264564 C4.24526554,6.1146436 4.98865476,5.42608969 5.52811584,5.42608969 C6.06639129,5.42608969 6.69003201,6.1146436 7.39666674,7.49264564 C6.94612782,5.85621232 7.07417572,5.03888989 7.77843919,5.03888989 C8.48507392,5.03888989 9.29841524,5.03888989 10.2172775,5.03888989 C8.27758889,4.9664576 7.04097812,4.48715254 6.50507392,3.60186894 C5.96679847,2.71479689 5.5553853,1.67928335 5.26727752,0.49264564 C5.34315776,2.7702389 4.68631943,3.80575244 3.29676255,3.60186894 C1.9048344,3.39619699 0.912463145,3.2441786 0.317277517,3.14313108 C1.95463081,3.52049439 2.9481877,3.96403041 3.29676255,4.4719507 C3.64296614,4.97897676 3.64296614,5.98587507 3.29676255,7.49264564 L3.29676255,7.49264564 Z" id="path-16"></path>
        <path d="M3.29676255,8.49264564 C4.24526554,6.91778616 4.98865476,6.13086741 5.52811584,6.13086741 C6.06639129,6.13086741 6.69003201,6.91778616 7.39666674,8.49264564 C6.94612782,6.62243614 7.07417572,5.68835336 7.77843919,5.68835336 C8.48507392,5.68835336 9.29841524,5.68835336 10.2172775,5.68835336 C8.27758889,5.60557359 7.04097812,5.05779638 6.50507392,4.0460437 C5.96679847,3.03224707 5.5553853,1.84880302 5.26727752,0.49264564 C5.34315776,3.09560936 4.68631943,4.27905341 3.29676255,4.0460437 C1.9048344,3.81099005 0.912463145,3.63725474 0.317277517,3.52177185 C1.95463081,3.95304421 2.9481877,4.45994252 3.29676255,5.04042285 C3.64296614,5.61988121 3.64296614,6.77062214 3.29676255,8.49264564 L3.29676255,8.49264564 Z" id="path-18"></path>
        <path d="M3.29676255,8.49264564 C4.24526554,6.91778616 4.98865476,6.13086741 5.52811584,6.13086741 C6.06639129,6.13086741 6.69003201,6.91778616 7.39666674,8.49264564 C6.94612782,6.62243614 7.07417572,5.68835336 7.77843919,5.68835336 C8.48507392,5.68835336 9.29841524,5.68835336 10.2172775,5.68835336 C8.27758889,5.60557359 7.04097812,5.05779638 6.50507392,4.0460437 C5.96679847,3.03224707 5.5553853,1.84880302 5.26727752,0.49264564 C5.34315776,3.09560936 4.68631943,4.27905341 3.29676255,4.0460437 C1.9048344,3.81099005 0.912463145,3.63725474 0.317277517,3.52177185 C1.95463081,3.95304421 2.9481877,4.45994252 3.29676255,5.04042285 C3.64296614,5.61988121 3.64296614,6.77062214 3.29676255,8.49264564 L3.29676255,8.49264564 Z" id="path-20"></path>
        <path d="M4.90370556,11.4036501 C5.8889105,9.65905425 6.64428821,8.77825017 7.17103472,8.76008649 C7.69662354,8.74196274 8.2760562,9.57673888 8.90697901,11.2656062 C8.53719171,9.24692298 8.69724975,8.22679657 9.38491443,8.203084 C10.0748945,8.17929158 10.8690661,8.15190636 11.7662717,8.12096823 C9.8754039,8.09625462 8.68848047,7.54218363 8.20314774,6.4599465 C7.71557629,5.37556642 7.35823888,4.10242331 7.12777742,2.63730276 C7.10425809,5.46547091 6.41852166,6.77458208 5.07045313,6.56797045 C3.72014589,6.35921587 2.75767893,6.2036919 2.18085185,6.09814418 C3.76344161,6.51202313 4.71457265,7.02982195 5.03316391,7.64935778 C5.34947814,8.26786205 5.30632535,9.51929281 4.90370556,11.4036501 L4.90370556,11.4036501 Z" id="path-22"></path>
        <path d="M4.55344088,10.5891036 C5.46827403,8.96912181 6.1696962,8.1512323 6.65881795,8.13436603 C7.14686472,8.11753683 7.68490933,8.89268611 8.27076623,10.46092 C7.9273923,8.58642848 8.07601763,7.63916825 8.71456339,7.61714943 C9.35525915,7.59505647 10.0927043,7.56962733 10.9258237,7.54089907 C9.1700179,7.51795072 8.06787472,7.00345623 7.61720862,5.99852175 C7.1644637,4.99159739 6.83265039,3.80939308 6.61865046,2.44892399 C6.59681109,5.07508013 5.96005582,6.29068336 4.70827791,6.0988297 C3.45442118,5.90498617 2.56070186,5.76057105 2.02507672,5.66256245 C3.49462435,6.04687862 4.37781746,6.52769181 4.67365221,7.10297508 C4.96737256,7.67730048 4.92730211,8.83934333 4.55344088,10.5891036 L4.55344088,10.5891036 Z" id="path-24"></path>
        <path d="M4.55344088,10.5891036 C5.46827403,8.96912181 6.1696962,8.1512323 6.65881795,8.13436603 C7.14686472,8.11753683 7.68490933,8.89268611 8.27076623,10.46092 C7.9273923,8.58642848 8.07601763,7.63916825 8.71456339,7.61714943 C9.35525915,7.59505647 10.0927043,7.56962733 10.9258237,7.54089907 C9.1700179,7.51795072 8.06787472,7.00345623 7.61720862,5.99852175 C7.1644637,4.99159739 6.83265039,3.80939308 6.61865046,2.44892399 C6.59681109,5.07508013 5.96005582,6.29068336 4.70827791,6.0988297 C3.45442118,5.90498617 2.56070186,5.76057105 2.02507672,5.66256245 C3.49462435,6.04687862 4.37781746,6.52769181 4.67365221,7.10297508 C4.96737256,7.67730048 4.92730211,8.83934333 4.55344088,10.5891036 L4.55344088,10.5891036 Z" id="path-26"></path>
        <path d="M4.68487553,11.1497443 C5.55866003,9.51656897 6.24725481,8.70254781 6.75176009,8.70662537 C7.25515656,8.71069397 7.84501141,9.53504793 8.51911562,11.1807338 C8.08202645,9.22935249 8.1939137,8.25739688 8.85254256,8.26272011 C9.51338903,8.26806126 10.2740278,8.27420897 11.1333499,8.28115426 C9.31865167,8.18027109 8.15755896,7.60036939 7.64786278,6.5424957 C7.1359318,5.48247516 6.74121456,4.24671188 6.46035885,2.83198557 C6.55323493,5.54375832 5.94892085,6.77144714 4.6474424,6.51824543 C3.34372914,6.26289686 2.41419863,6.07443644 1.85660745,5.94965283 C3.39149472,6.41123426 4.32493873,6.94672011 4.65581345,7.55397249 C4.98446196,8.16014248 4.99414932,9.35873309 4.68487553,11.1497443 L4.68487553,11.1497443 Z" id="path-28"></path>
        <path d="M6.66060672,14.2288524 C7.74562054,12.0858363 8.61365976,11.0243345 9.266118,11.0429762 C9.91714227,11.0615769 10.7024753,12.1703178 11.6192894,14.3705291 C11.0005551,11.7711181 11.1185526,10.4850339 11.9703333,10.5093705 C12.8249819,10.533789 13.8086882,10.5618949 14.9200181,10.5936472 C12.5707688,10.4122523 11.053511,9.61272244 10.365417,8.19638748 C9.67437448,6.77714671 9.13007055,5.1279085 8.7280823,3.24431413 C8.92260521,6.84313613 8.17489843,8.45545975 6.48508296,8.08552079 C4.79231887,7.71267602 3.58522453,7.43835451 2.86081097,7.25823851 C4.85815319,7.91065584 6.07983267,8.64530931 6.52433477,9.4593341 C6.96592858,10.271865 7.01135257,11.8617044 6.66060672,14.2288524 L6.66060672,14.2288524 Z" id="path-30"></path>
        <path d="M6.66060672,14.2288524 C7.74562054,12.0858363 8.61365976,11.0243345 9.266118,11.0429762 C9.91714227,11.0615769 10.7024753,12.1703178 11.6192894,14.3705291 C11.0005551,11.7711181 11.1185526,10.4850339 11.9703333,10.5093705 C12.8249819,10.533789 13.8086882,10.5618949 14.9200181,10.5936472 C12.5707688,10.4122523 11.053511,9.61272244 10.365417,8.19638748 C9.67437448,6.77714671 9.13007055,5.1279085 8.7280823,3.24431413 C8.92260521,6.84313613 8.17489843,8.45545975 6.48508296,8.08552079 C4.79231887,7.71267602 3.58522453,7.43835451 2.86081097,7.25823851 C4.85815319,7.91065584 6.07983267,8.64530931 6.52433477,9.4593341 C6.96592858,10.271865 7.01135257,11.8617044 6.66060672,14.2288524 L6.66060672,14.2288524 Z" id="path-32"></path>
        <circle id="path-34" cx="82.5" cy="82.5" r="82.5"></circle>
        <linearGradient x1="50%" y1="0%" x2="50%" y2="100%" id="linearGradient-36">
            <stop stop-color="#E5E8F3" offset="0%"></stop>
            <stop stop-color="#AFB6C1" offset="100%"></stop>
        </linearGradient>
        <linearGradient x1="33.2360577%" y1="-24.2894676%" x2="40.503297%" y2="110.196077%" id="linearGradient-37">
            <stop stop-color="#EBEDF8" offset="0%"></stop>
            <stop stop-color="#DEE2F8" offset="3%"></stop>
            <stop stop-color="#B8C4F8" offset="12%"></stop>
            <stop stop-color="#97A9F7" offset="22%"></stop>
            <stop stop-color="#7D93F7" offset="33%"></stop>
            <stop stop-color="#6983F7" offset="45%"></stop>
            <stop stop-color="#5A77F7" offset="58%"></stop>
            <stop stop-color="#5270F7" offset="74%"></stop>
            <stop stop-color="#4F6EF7" offset="100%"></stop>
        </linearGradient>
        <linearGradient x1="50%" y1="0%" x2="50%" y2="100%" id="linearGradient-38">
            <stop stop-color="#EDEFF4" offset="0%"></stop>
            <stop stop-color="#D7DBE6" offset="100%"></stop>
        </linearGradient>
    </defs>
    <g id="Website" stroke="none" stroke-width="1" fill="none" fill-rule="evenodd">
        <g id="March-15---26-s1" transform="translate(-708.000000, -197.000000)">
            <g id="Group-5" transform="translate(708.000000, 197.000000)">
                <path d="M88.2979726,441.354848 C227.74941,484.141559 468.384288,510.78902 557.645565,396.19361 C646.906841,281.5982 536.29984,-50.1628255 343.266694,6.44534402 C150.233548,63.0535135 257.14068,224.284869 121.391757,225.471518 C-14.3571668,226.658166 -51.1534652,398.568138 88.2979726,441.354848 Z" id="Path-2" fill="url(#linearGradient-1)"></path>
                <path d="M343.491715,6.44237247 C536.348098,-50.1396985 646.853815,281.468372 557.674276,396.010949 C548.01425,408.418328 536.579714,419.169203 523.691369,428.422505 C482.347882,431.762288 440.80049,442.471002 400.252981,446.263232 C389.595091,447.260951 349.815916,449.591019 347.625894,433.939006 C345.549513,419.102749 372.748644,408.158676 383.422768,403.615737 C427.851478,384.708414 476.856668,376.885492 521.548375,358.476258 C530.357166,354.847767 576.36873,335.153988 558.093655,320.619976 C536.349286,303.328742 495.701571,314.061551 471.283395,318.12799 C393.812791,331.02895 317.871468,355.239452 239.506348,362.673773 C211.213018,365.356975 135.119092,370.211412 127.552233,331.354327 C122.628337,306.064375 151.704165,284.33969 172.107571,274.541376 C230.230006,246.629904 301.099699,254.270862 362.819679,237.183182 C379.567096,232.546177 426.099785,215.740696 428.219999,195.723082 C429.39537,184.632513 413.539222,184.499895 405.579491,184.663355 C389.557752,184.993358 346.197266,198.801054 333.519816,189.79999 C326.055234,184.499895 339.942148,171.74389 343.448781,168.025959 C358.926667,151.618332 381.79121,121.134687 344.658244,111.883808 C308.741133,102.934489 252.574978,130.477135 207.164961,150.244829 C222.089983,99.9479603 237.732462,37.471045 343.491715,6.44237247 Z" id="Combined-Shape" fill="#FFFFFF" opacity="0.0734049479"></path>
                <g id="Group-55" transform="translate(435.000000, 299.000000)">
                    <mask id="mask-3" fill="white">
                        <use xlink:href="#path-2"></use>
                    </mask>
                    <g id="Clip-54"></g>
                    <polygon id="Fill-53" fill="#FFFFFF" mask="url(#mask-3)" points="-13.6692462 28.5868553 33.185692 28.5868553 33.185692 -12.6631447 -13.6692462 -12.6631447"></polygon>
                </g>
                <g id="Group-55" transform="translate(416.000000, 39.000000)">
                    <mask id="mask-5" fill="white">
                        <use xlink:href="#path-4"></use>
                    </mask>
                    <g id="Clip-54" transform="translate(8.319094, 8.828378) rotate(-300.000000) translate(-8.319094, -8.828378) "></g>
                    <polygon id="Fill-53" fill="#FFFFFF" mask="url(#mask-5)" transform="translate(8.848076, 9.288551) rotate(-300.000000) translate(-8.848076, -9.288551) " points="-7.84051877 25.9683409 24.7428146 25.150428 25.5366712 -7.39123864 -7.04666215 -6.57332576"></polygon>
                </g>
                <g id="Group-55" transform="translate(317.000000, 400.000000)">
                    <mask id="mask-7" fill="white">
                        <use xlink:href="#path-6"></use>
                    </mask>
                    <g id="Clip-54" transform="translate(10.480976, 10.025206) rotate(-330.000000) translate(-10.480976, -10.025206) "></g>
                    <polygon id="Fill-53" fill="#FFFFFF" mask="url(#mask-7)" transform="translate(10.261364, 10.393648) rotate(-330.000000) translate(-10.261364, -10.393648) " points="-9.92926126 28.7558419 29.6843751 27.9291812 30.4519885 -7.96854603 -9.16164783 -7.14188542"></polygon>
                </g>
                <g id="Group-55" transform="translate(254.000000, 84.000000)">
                    <mask id="mask-9" fill="white">
                        <use xlink:href="#path-8"></use>
                    </mask>
                    <g id="Clip-54" transform="translate(10.480976, 10.025206) rotate(-330.000000) translate(-10.480976, -10.025206) "></g>
                    <polygon id="Fill-53" fill="#FFFFFF" mask="url(#mask-9)" transform="translate(10.261364, 10.393648) rotate(-330.000000) translate(-10.261364, -10.393648) " points="-9.92926126 28.7558419 29.6843751 27.9291812 30.4519885 -7.96854603 -9.16164783 -7.14188542"></polygon>
                </g>
                <g id="Group-55" opacity="0.732700893" transform="translate(282.378680, 167.674235) rotate(-105.000000) translate(-282.378680, -167.674235) translate(274.878680, 160.674235)">
                    <mask id="mask-11" fill="white">
                        <use xlink:href="#path-10"></use>
                    </mask>
                    <g id="Clip-54" transform="translate(7.480976, 7.025206) rotate(-330.000000) translate(-7.480976, -7.025206) "></g>
                    <polygon id="Fill-53" fill="#FFFFFF" mask="url(#mask-11)" transform="translate(7.329545, 7.275554) rotate(-330.000000) translate(-7.329545, -7.275554) " points="-7.13380671 20.3195657 21.0252842 19.492905 21.7928976 -5.76845859 -6.36619329 -4.94179797"></polygon>
                </g>
                <g id="Group-55" opacity="0.732700893" transform="translate(472.378680, 427.674235) rotate(-105.000000) translate(-472.378680, -427.674235) translate(464.878680, 420.674235)">
                    <mask id="mask-13" fill="white">
                        <use xlink:href="#path-12"></use>
                    </mask>
                    <g id="Clip-54" transform="translate(7.480976, 7.025206) rotate(-330.000000) translate(-7.480976, -7.025206) "></g>
                    <polygon id="Fill-53" fill="#FFFFFF" mask="url(#mask-13)" transform="translate(7.329545, 7.275554) rotate(-330.000000) translate(-7.329545, -7.275554) " points="-7.13380671 20.3195657 21.0252842 19.492905 21.7928976 -5.76845859 -6.36619329 -4.94179797"></polygon>
                </g>
                <g id="Group-55" opacity="0.214355469" transform="translate(313.000000, 299.000000)">
                    <mask id="mask-15" fill="white">
                        <use xlink:href="#path-14"></use>
                    </mask>
                    <g id="Clip-54"></g>
                    <polygon id="Fill-53" fill="#FFFFFF" mask="url(#mask-15)" points="-7.38272248 15.4926456 19.0172775 15.4926456 19.0172775 -6.50735436 -7.38272248 -6.50735436"></polygon>
                </g>
                <g id="Group-55" opacity="0.214355469" transform="translate(84.000000, 252.000000)">
                    <mask id="mask-17" fill="white">
                        <use xlink:href="#path-16"></use>
                    </mask>
                    <g id="Clip-54"></g>
                    <polygon id="Fill-53" fill="#FFFFFF" mask="url(#mask-17)" points="-7.38272248 13.4926456 19.0172775 13.4926456 19.0172775 -5.50735436 -7.38272248 -5.50735436"></polygon>
                </g>
                <g id="Group-55" opacity="0.214355469" transform="translate(331.000000, 22.000000)">
                    <mask id="mask-19" fill="white">
                        <use xlink:href="#path-18"></use>
                    </mask>
                    <g id="Clip-54"></g>
                    <polygon id="Fill-53" fill="#FFFFFF" mask="url(#mask-19)" points="-7.38272248 15.4926456 19.0172775 15.4926456 19.0172775 -6.50735436 -7.38272248 -6.50735436"></polygon>
                </g>
                <g id="Group-55" opacity="0.214355469" transform="translate(461.000000, 182.000000)">
                    <mask id="mask-21" fill="white">
                        <use xlink:href="#path-20"></use>
                    </mask>
                    <g id="Clip-54"></g>
                    <polygon id="Fill-53" fill="#FFFFFF" mask="url(#mask-21)" points="-7.38272248 15.4926456 19.0172775 15.4926456 19.0172775 -6.50735436 -7.38272248 -6.50735436"></polygon>
                </g>
                <g id="Group-55" transform="translate(221.000000, 372.000000)">
                    <mask id="mask-23" fill="white">
                        <use xlink:href="#path-22"></use>
                    </mask>
                    <g id="Clip-54" transform="translate(6.973562, 7.020476) rotate(-315.000000) translate(-6.973562, -7.020476) "></g>
                    <polygon id="Fill-53" fill="#FFFFFF" mask="url(#mask-23)" transform="translate(7.000000, 7.000000) rotate(-315.000000) translate(-7.000000, -7.000000) " points="-5.98333333 19.5166667 19.15 18.65 19.9833333 -5.51666667 -5.15 -4.65"></polygon>
                </g>
                <g id="Group-55" transform="translate(371.000000, 143.000000)">
                    <mask id="mask-25" fill="white">
                        <use xlink:href="#path-24"></use>
                    </mask>
                    <g id="Clip-54" transform="translate(6.475450, 6.519014) rotate(-315.000000) translate(-6.475450, -6.519014) "></g>
                    <polygon id="Fill-53" fill="#FFFFFF" mask="url(#mask-25)" transform="translate(6.500000, 6.500000) rotate(-315.000000) translate(-6.500000, -6.500000) " points="-5.55595238 18.122619 17.7821429 17.3178571 18.5559524 -5.12261905 -4.78214286 -4.31785714"></polygon>
                </g>
                <g id="Group-55" transform="translate(131.000000, 303.000000)">
                    <mask id="mask-27" fill="white">
                        <use xlink:href="#path-26"></use>
                    </mask>
                    <g id="Clip-54" transform="translate(6.475450, 6.519014) rotate(-315.000000) translate(-6.475450, -6.519014) "></g>
                    <polygon id="Fill-53" fill="#FFFFFF" mask="url(#mask-27)" transform="translate(6.500000, 6.500000) rotate(-315.000000) translate(-6.500000, -6.500000) " points="-5.55595238 18.122619 17.7821429 17.3178571 18.5559524 -5.12261905 -4.78214286 -4.31785714"></polygon>
                </g>
                <g id="Group-55" transform="translate(27.000000, 286.000000)">
                    <mask id="mask-29" fill="white">
                        <use xlink:href="#path-28"></use>
                    </mask>
                    <g id="Clip-54" transform="translate(6.494979, 7.006360) rotate(-315.000000) translate(-6.494979, -7.006360) "></g>
                    <polygon id="Fill-53" fill="#FFFFFF" mask="url(#mask-29)" transform="translate(6.500000, 7.000000) rotate(-315.000000) translate(-6.500000, -7.000000) " points="-5.44251701 18.4758503 18.6295918 18.6704082 18.442517 -4.47585034 -5.62959184 -4.67040816"></polygon>
                </g>
                <g id="Group-55" opacity="0.522158668" transform="translate(327.000000, 207.000000)">
                    <mask id="mask-31" fill="white">
                        <use xlink:href="#path-30"></use>
                    </mask>
                    <g id="Clip-54" transform="translate(8.890415, 8.807422) rotate(-45.000000) translate(-8.890415, -8.807422) "></g>
                    <polygon id="Fill-53" fill="#FFFFFF" mask="url(#mask-31)" transform="translate(8.387577, 9.231912) rotate(-45.000000) translate(-8.387577, -9.231912) " points="-6.83610731 23.9819122 24.4796822 24.876649 23.6112611 -5.51808783 -7.70452837 -6.41282467"></polygon>
                </g>
                <g id="Group-55" opacity="0.522158668" transform="translate(513.000000, 325.000000)">
                    <mask id="mask-33" fill="white">
                        <use xlink:href="#path-32"></use>
                    </mask>
                    <g id="Clip-54" transform="translate(8.890415, 8.807422) rotate(-45.000000) translate(-8.890415, -8.807422) "></g>
                    <polygon id="Fill-53" fill="#FFFFFF" mask="url(#mask-33)" transform="translate(8.387577, 9.231912) rotate(-45.000000) translate(-8.387577, -9.231912) " points="-6.83610731 23.9819122 24.4796822 24.876649 23.6112611 -5.51808783 -7.70452837 -6.41282467"></polygon>
                </g>
                <g id="Asset-2@200x" transform="translate(425.000000, 266.000000)">
                    <g id="Path-+-Path-+-Path-+-Path-Mask" transform="translate(17.000000, 6.000000)">
                        <mask id="mask-35" fill="white">
                            <use xlink:href="#path-34"></use>
                        </mask>
                        <use id="Mask" fill="#4D69FB" fill-rule="nonzero" xlink:href="#path-34"></use>
                        <path d="M58.1620968,0.117688848 C58.1620968,0.117688848 77.3744315,16.245302 82.575044,19.3546908 C87.7756565,22.4640797 99.7108751,25.0864558 112.244725,18.3244717 C124.778576,11.5624875 127.210517,3.75155291 127.210517,3.75155291 L78.9458396,-6.6442953 L58.1620968,0.117688848 Z" id="Path" fill="#FFFFFF" fill-rule="nonzero" opacity="0.2" mask="url(#mask-35)"></path>
                        <path d="M17.1371213,24.5619806 C17.1371213,24.5619806 27.519639,25.5921998 32.7202515,26.6411502 C43.0867847,29.239367 53.3142228,32.3653039 63.3627093,36.0067792 C71.6687235,39.1348993 92.433759,40.6895937 102.311181,38.1046801 C112.188604,35.5197665 127.753027,21.977067 131.906034,19.8978973 C136.059041,17.8187277 150.08947,15.2150828 150.08947,15.2150828 L152.165974,27.1843567 L141.783456,30.2750143 C141.783456,30.2750143 128.800632,33.8339533 125.15272,37.5802049 C121.504809,41.3264565 117.856897,45.353677 117.856897,48.9875411 C117.856897,52.6214051 123.469069,52.6401364 128.239415,52.6401364 C133.009761,52.6401364 153.587724,49.6993289 159.873356,50.3923854 C166.158989,51.085442 169.788193,63.504266 169.788193,63.504266 L163.390317,65.677092 C163.390317,65.677092 155.795178,61.4250964 143.85996,64.0287413 C131.924741,66.6323861 123.076217,71.2964694 114.2464,73.3943703 C105.416583,75.4922712 91.4048609,73.3943703 85.1753502,71.3152006 C78.9458396,69.236031 66.468111,59.364658 61.7913012,56.3301942 C57.1144914,53.2957304 45.1792728,42.7500321 34.2729524,43.1995823 C23.3666319,43.6491325 2.6015964,48.4817971 2.6015964,48.4817971 L17.1371213,24.5619806 Z" id="Path" fill="#FFFFFF" fill-rule="nonzero" opacity="0.2" mask="url(#mask-35)"></path>
                        <path d="M-7.78092135,72.4016136 L0.00129015443,74.2934707 C6.17098975,73.1270967 12.430333,72.5003587 18.7085294,72.4203449 C28.062149,72.4203449 45.7217828,76.0542089 53.5039943,80.2125482 C61.2862058,84.3708875 81.5648531,92.687566 90.9184727,93.7365165 C100.272092,94.7854669 123.113631,95.8156861 142.849769,90.6083964 C154.063833,87.7484968 165.010705,83.9256462 175.56873,79.182329 L169.956558,97.913587 C160.220722,104.29324 149.250044,108.544171 137.7614,110.388605 C119.577963,112.99225 90.9933016,111.437555 90.9933016,111.437555 C90.9933016,111.437555 77.4866749,112.467775 76.4577768,119.754234 C75.4288786,127.040693 79.5631785,132.753727 85.2875937,136.387591 C91.0120089,140.021455 135.647482,151.990729 135.647482,151.990729 L110.617196,169.111099 C110.617196,169.111099 96.0816707,159.333382 86.2042484,156.111606 C76.3268261,152.889829 62.3151039,145.191282 60.2386004,138.429298 C58.1620968,131.667314 60.7624031,117.113127 43.626572,104.113633 C26.4907409,91.1141404 11.4314133,91.6386156 4.15429726,93.773979 C-3.12281879,95.9093424 -16.6107383,98.9625375 -16.6107383,98.9625375 L-7.78092135,72.4016136 Z" id="Path" fill="#FFFFFF" fill-rule="nonzero" opacity="0.2" mask="url(#mask-35)"></path>
                        <path d="M164.138607,112.018224 C163.801877,112.8424 158.526435,113.89135 157.534951,114.172319 C155.046889,114.940301 152.540119,115.633357 150.052056,116.307682 C145.375246,117.525214 140.698436,118.555433 135.92809,119.529459 C130.690063,120.615872 125.414622,121.552435 120.101766,122.339148 C117.464045,122.732504 114.807617,123.088398 112.151189,123.406829 C110.018564,123.669067 107.025406,123.406829 105.079853,124.287198 C103.360495,124.944403 102.415426,126.796529 102.891106,128.576656 C103.714224,131.423808 107.624037,132.641339 110.130807,133.24074 C121.037128,135.825653 151.155783,145.715758 151.155783,145.715758 C155.439741,134.477003 159.723698,123.219517 164.138607,112.018224 Z" id="Path" fill="#FFFFFF" fill-rule="nonzero" opacity="0.2" mask="url(#mask-35)"></path>
                    </g>
                    <g id="Group"></g>
                </g>
                <g id="Group-2" transform="translate(12.000000, 180.507354)">
                    <path d="M277.553448,77.471154 C277.372063,77.3079309 318.421996,41.7128548 331.77391,27.8590011 C334.91818,24.5978736 334.040307,14.6439078 326.904938,8.79069379 C318.521195,1.91294961 307.464189,5.08172404 303.246375,12.6406033 C293.309453,30.4487969 280.15714,53.9546528 270.778911,70.5447141 L277.553448,77.471154 Z" id="Stroke-3" fill="#CDCDCD" transform="translate(302.140398, 41.231330) rotate(10.000000) translate(-302.140398, -41.231330) "></path>
                    <path d="M298.061194,21.8512287 C308.691603,21.8512287 317.46257,29.8891099 318.737119,40.2736081 C311.391634,47.2538754 301.913191,55.8531483 293.48907,63.4140876 C287.124768,61.9760205 281.860292,57.5975945 279.167142,51.7651921 C284.759826,41.7491831 290.574103,31.3053632 295.758908,21.9768928 C296.513872,21.8943533 297.282545,21.8512287 298.061194,21.8512287 Z" id="Combined-Shape" fill="#AFAFAF" transform="translate(298.951921, 42.632802) rotate(10.000000) translate(-298.951921, -42.632802) "></path>
                    <path d="M185.735174,119.31653 C174.899781,113.984023 166.798669,124.573471 165.074404,126.592496 C159.81788,132.745037 154.025323,138.379566 148.016926,143.796945 C130.43648,159.648322 110.992896,170.873639 90.0222388,181.488159 C81.4402449,185.831753 77.0763971,185.891381 79.0794876,196.035419 C79.3178951,197.244715 79.3150307,199.697034 80.2139873,200.642211 C81.7225264,202.227772 86.4546137,202.108322 88.3995764,202.349129 C95.98422,203.28938 103.658798,203.877649 111.304635,203.807638 C120.289975,203.724804 129.651994,203.009917 138.252115,200.338044 C144.301594,198.458276 149.690715,195.493731 155.010101,192.095836 C174.080253,179.913734 180.453237,169.760785 189.35003,146.417573 C194.591331,132.665754 193.130559,122.956854 185.735174,119.31653 Z" id="Path" fill="#D1D6E1" transform="translate(135.534922, 160.822387) rotate(18.000000) translate(-135.534922, -160.822387) "></path>
                    <path d="M75.8288712,172.631197 C75.1057183,170.572405 71.9206924,169.101691 71.230691,168.32706 C69.4057184,166.277632 65.7732833,163.703579 62.7225751,163.880636 C56.8655193,164.220337 63.0987144,169.586851 62.9706388,169.770392 C60.6202349,173.138936 54.0877665,173.764107 53.4859843,178.447654 C53.3263403,179.69335 53.5321778,180.977588 53.867766,182.182013 C56.636231,192.11411 74.5313296,184.377239 75.6740003,180.970299 C77.1637556,176.526238 76.5694227,174.738231 75.8288712,172.631197 Z" id="Path" fill="#9BA3AE" transform="translate(65.013313, 175.468816) scale(1, -1) rotate(18.000000) translate(-65.013313, -175.468816) "></path>
                    <path d="M242.942557,62.3230283 C252.644692,72.0630909 258.793096,85.5855472 259.105013,100.628682 C259.344758,112.166973 256.115914,122.949606 250.406464,131.915102 C249.969288,131.671312 249.572479,131.353165 249.235829,130.946423 C245.214251,126.097968 244.815633,118.763842 243.309607,113.055257 C242.17771,108.769269 240.234651,103.372287 238.487527,99.3005432 C236.965429,95.755768 233.814968,91.1369725 234.030057,86.9027573 C234.268785,82.213633 235.358316,78.8230167 237.247412,74.5615432 C239.071614,70.4487905 240.995602,66.3803683 242.942557,62.3230283 Z" id="Path" fill="#0C204E" transform="translate(246.568530, 97.119065) rotate(10.000000) translate(-246.568530, -97.119065) "></path>
                    <path d="M84.7673485,310.270012 C84.5391258,309.686073 71.537883,317.181318 68.7874804,319.367829 C66.8602985,320.900558 68.4208263,340.679029 72.780918,344.44652 C74.8150143,346.204268 76.2673828,343.600453 76.5802084,341.789328 C77.5211326,336.33734 75.9773845,331.700031 79.7810735,327.080237 C82.1622096,324.187514 89.966229,321.448832 90.1707588,318.123067 L84.7673485,310.270012 Z" id="Path" fill="#9BA3AE" transform="translate(79.072215, 327.633865) rotate(10.000000) translate(-79.072215, -327.633865) "></path>
                    <path d="M30.3261853,240.326688 C30.4726583,239.744238 16.4708754,238.102635 13.1793885,238.220782 C10.8721151,238.303483 1.20493572,254.505335 2.45320563,259.917023 C3.03573154,262.44228 5.56900557,261.258324 6.80113309,260.035358 C10.5090577,256.354564 11.8800431,251.881244 17.308204,250.483247 C20.7068652,249.607716 28.1454224,251.955653 30.1259336,249.498887 L30.3261853,240.326688 Z" id="Path" fill="#9BA3AE" transform="translate(16.334891, 249.811850) rotate(10.000000) translate(-16.334891, -249.811850) "></path>
                    <path d="M166.120438,224.828905 C157.053445,228.132338 146.044885,250.680594 145.915189,250.961357 C143.032744,257.211633 139.850489,263.368233 136.22611,269.222429 C127.858475,282.735952 118.267448,296.40585 106.906904,307.607052 C103.726646,310.743528 89.3551144,319.488888 88.2405553,321.887506 C86.6467432,325.319748 92.3678017,333.913606 95.4271336,335.465365 C103.187899,339.40407 125.831804,329.865602 132.571907,326.266904 C160.349678,311.43553 193.677881,281.310833 200.470938,248.944696 C201.628413,243.428899 202.913897,236.477952 200.318536,231.14145 C194.833422,219.863791 175.187431,221.525471 166.120438,224.828905 Z" id="Path" fill="#D2D6E1" transform="translate(144.899042, 279.386692) rotate(10.000000) translate(-144.899042, -279.386692) "></path>
                    <path d="M138.27626,193.016538 C128.711958,192.340711 109.590618,208.46581 109.35977,208.66984 C104.212881,213.208468 98.8322809,217.539475 93.1724138,221.413638 C80.1071002,230.356895 65.8678902,238.943039 51.0241238,244.553064 C46.8683103,246.123621 30.2874102,248.260199 28.3048668,249.99931 C25.4685272,252.48653 27.1777543,262.674108 29.3240983,265.340325 C34.770282,272.103769 59.1776866,272.614049 66.7504111,272.071071 C97.959383,269.835531 140.399529,255.880916 159.672505,229.06266 C162.957703,224.492313 166.938725,218.662203 166.745581,212.726194 C166.337752,200.180813 147.840561,193.692366 138.27626,193.016538 Z" id="Path" fill="#D2D6E1" transform="translate(96.783664, 232.613730) rotate(10.000000) translate(-96.783664, -232.613730) "></path>
                    <path d="M111.800269,295.309648 C117.752228,303.901949 125.434244,312.382489 134.004936,318.512098" id="Path" stroke="#2FCFA4" stroke-width="6" stroke-linecap="round" stroke-linejoin="round" transform="translate(122.902603, 306.910873) rotate(10.000000) translate(-122.902603, -306.910873) "></path>
                    <path d="M137.060061,271.990233 C149.754301,279.089354 164.053389,287.374282 178.566686,290.365018" id="Path" stroke="#2FCFA4" stroke-width="6" stroke-linecap="round" stroke-linejoin="round" transform="translate(157.813374, 281.177625) rotate(10.000000) translate(-157.813374, -281.177625) "></path>
                    <path d="M66.8737798,233.4296 C69.0650384,244.562469 71.6107203,256.473194 77.4990169,266.294357" id="Path" stroke="#2FCFA4" stroke-width="6" stroke-linecap="round" stroke-linejoin="round" transform="translate(72.186398, 249.861979) rotate(10.000000) translate(-72.186398, -249.861979) "></path>
                    <path d="M98.1401029,220.472569 C104.705725,234.043316 111.254814,247.751287 121.313919,259.139745" id="Path" stroke="#2FCFA4" stroke-width="6" stroke-linecap="round" stroke-linejoin="round" transform="translate(109.727011, 239.806157) rotate(10.000000) translate(-109.727011, -239.806157) "></path>
                    <path d="M185.128455,137.226333 C168.027811,142.005706 156.677848,158.372605 154.577646,161.092362 C141.92911,177.470933 129.064293,193.90108 121.138722,211.915092 C117.268929,220.712591 116.932997,231.537268 123.625519,239.740722 C136.995866,256.130215 183.68506,274.515137 205.646699,265.395706 C216.110918,261.050492 227.085908,243.993482 231.211865,231.554774 C237.846509,211.556189 241.40534,186.974746 240.892335,166.317505 C240.653152,156.685023 239.06694,145.901275 227.495703,139.788269 C218.517892,135.044787 196.332466,134.095268 185.128455,137.226333 Z" id="Path" fill="url(#linearGradient-36)" transform="translate(179.660389, 201.613891) rotate(10.000000) translate(-179.660389, -201.613891) "></path>
                    <path d="M189.582268,131.987014 C200.316468,127.883038 221.572255,129.125272 230.174263,135.340327 C233.782786,137.947219 236.377916,141.202589 238.244986,144.843361 C233.15471,150.827346 224.72389,154.737406 215.183686,154.734944 C200.270043,154.731091 188.062496,145.167509 187.088462,133.07497 C187.904898,132.674485 188.736236,132.310505 189.582268,131.987014 Z" id="Path" fill="#2FCFA4" transform="translate(212.666724, 142.168810) rotate(10.000000) translate(-212.666724, -142.168810) "></path>
                    <path d="M255.293673,121.232144 C246.075345,137.264087 229.130026,148.016825 209.767181,148.011827 C180.563635,148.004283 156.847928,123.528315 156.840154,93.3892225 C156.832383,63.2501298 180.53547,38.7864081 209.739016,38.7939482 C223.228587,38.7974336 235.547525,44.0220424 244.899626,52.6131792 C244.700015,53.2989998 244.493326,53.9832472 244.283489,54.6651369 C242.969455,58.9340176 240.941896,62.7713924 239.034726,66.7808555 C238.530026,67.8413521 236.75998,69.8183751 236.659585,70.9214013 C236.567034,71.9442932 240.467422,74.2881076 241.129064,74.8366619 C244.645755,77.7468307 247.306011,81.1737357 248.671053,85.5933673 C250.581638,91.7792802 250.652757,99.1494776 249.702657,105.518494 C249.358737,107.825858 248.931443,110.1387 248.459307,112.423247 C247.463188,117.246093 245.851933,118.854687 250.539427,120.251211 C251.388195,120.50441 252.244816,120.709686 253.114013,120.881182 C253.834543,121.022785 254.562931,121.14082 255.293673,121.232144 Z" id="Path" fill="#EBEDF8" transform="translate(206.066913, 93.402887) rotate(10.000000) translate(-206.066913, -93.402887) "></path>
                    <path d="M241.409144,78.3450706 C245.013815,81.2578065 247.740301,84.6881174 249.138622,89.1126758 C251.095789,95.3054842 251.166754,102.684468 250.190993,109.061338 C249.837783,111.371547 249.399094,113.687263 248.914439,115.974661 L248.821374,116.398574 C247.799013,120.89951 246.383009,122.456159 251.044985,123.811439 C251.830897,124.040208 254.515733,126.306471 254.515733,127.815591 C253.885538,127.732536 252.69295,127.706955 252.07155,127.587848 C250.833273,127.319559 249.953475,127.10954 249.432157,126.957791 C244.626736,125.560811 246.279078,123.949878 247.301611,119.121014 C247.786266,116.833615 248.224955,114.5179 248.578165,112.20769 C249.553926,105.83082 249.482961,98.4518368 247.525794,92.2590283 C246.127473,87.83447 243.400987,84.4041591 239.796316,81.4914232 L239.653814,81.3838165 C238.686511,80.6858404 235.125208,78.5398823 235.215078,77.5726411 C235.285624,76.8178617 236.155856,75.6541481 236.86501,74.6540308 C237.262975,75.762195 240.777231,77.8334993 241.409144,78.3450706 Z" id="Shape" fill="#CDD1DC" transform="translate(244.864570, 101.234811) rotate(10.000000) translate(-244.864570, -101.234811) "></path>
                    <path d="M258.019619,74.915156 C254.306413,68.4078635 252.477055,60.6101247 259.525607,56.1906589 C261.15851,55.1672373 263.296607,54.1781272 265.256651,54.5140852 C270.019015,55.3293023 275.569814,61.7766562 277.943624,65.7406875 C284.736544,77.0818245 271.729739,89.779528 262.293421,82.0322887 L258.019619,74.915156 Z" id="Path" fill="#9BA3AE" transform="translate(267.284121, 69.429041) rotate(10.000000) translate(-267.284121, -69.429041) "></path>
                    <path d="M167.490529,260.802852 C152.698415,260.799032 139.172497,256.298866 128.417433,244.538981 C126.264449,234.198236 144.404054,163.418912 160.782513,129.410686 C167.337519,115.799874 178.463663,113.941563 188.758826,117.24241 C201.248792,121.247004 211.369838,131.646476 207.48031,144.664821 C204.225656,155.558225 184.045542,231.557723 167.490529,260.802852 Z" id="Path" fill="url(#linearGradient-37)" transform="translate(168.283504, 188.314767) rotate(10.000000) translate(-168.283504, -188.314767) "></path>
                    <path d="M199.075505,109.905042 C199.026027,109.876232 193.33006,123.746444 194.885285,127.146266 C196.299199,130.236794 202.279917,131.426493 203.880617,128.611549 C205.142355,126.3942 208.584204,115.642411 208.074221,112.115472 L199.075505,109.905042 Z" id="Path" fill="#17388D" transform="translate(201.370867, 120.053792) rotate(10.000000) translate(-201.370867, -120.053792) "></path>
                    <path d="M207.380352,107.431692 C211.873338,108.702964 215.070954,111.388921 214.515053,113.426182 C213.959152,115.462652 209.860433,116.084772 205.366668,114.8135 C200.872904,113.542227 197.676066,110.856271 198.231967,108.819801 C198.78709,106.782539 202.886588,106.161211 207.380352,107.431692 Z" id="Path" fill="#17388D" transform="translate(206.373504, 111.122789) rotate(10.000000) translate(-206.373504, -111.122789) "></path>
                    <path d="M158.529013,150.242981 C158.850243,150.679647 159.608887,151.693316 160.045583,152.12865 C160.045583,152.12865 160.047632,152.126607 160.113922,152.194734 C160.113239,152.194733 161.41783,153.389715 162.242677,154.130961 C163.733141,155.460848 165.305568,156.698126 166.931267,157.86186 C166.931267,157.86186 168.096404,158.763933 169.180198,159.517507 C176.429866,164.561541 185.244893,167.284119 194.120739,167.398111 C196.833847,167.433548 199.537339,167.273507 202.220284,166.914581 C202.809236,166.952193 203.398869,166.97959 203.989866,166.997451 C203.197534,170.473566 202.284337,174.201655 201.263222,178.059807 C187.485554,179.259066 173.334956,175.599964 162.379961,167.203294 C161.820287,166.774739 161.269492,166.335289 160.722794,165.890392 L160.637373,165.820217 C158.745087,164.1633 156.939545,162.407646 155.250124,160.538279 C155.250124,160.538279 155.038259,160.292349 154.764885,159.968076 C155.926877,156.628276 157.181126,153.365463 158.529013,150.242981 Z" id="Path" fill="#2FCFA4" transform="translate(179.377375, 164.262519) rotate(10.000000) translate(-179.377375, -164.262519) "></path>
                    <path d="M132.014365,200.695202 C135.778151,204.727935 140.845067,208.728 151.59597,212.854638 C163.992401,217.612897 177.918314,215.276968 178.446563,215.225534 C177.073963,220.168412 175.981955,224.776275 173.874349,228.51731 C172.316457,228.642371 170.75482,228.71432 169.192423,228.730851 C162.151189,228.802925 155.054424,227.641133 148.348294,225.17016 C142.297331,222.941046 136.736269,219.519771 131.865931,215.341277 C131.816675,215.29816 131.767419,215.255813 131.718164,215.213466 C131.034551,214.610604 129.877303,213.483273 129.222781,212.84886 C129.555351,209.158168 131.7153,204.10736 132.014365,200.695202 Z" id="Path" fill="#2FCFA4" transform="translate(153.834672, 214.714604) rotate(10.000000) translate(-153.834672, -214.714604) "></path>
                    <path d="M234.903803,165.983624 C232.676054,172.57216 229.75321,180.706167 236.196326,194.200896 C241.633637,205.589163 255.313076,201.462948 259.708059,199.061075 C275.50111,190.429201 291.384878,178.410747 300.805717,162.692937 C315.498564,138.178983 299.459093,109.486017 282.66626,90.2824105 C278.381089,85.3821124 273.259255,78.7954347 267.478542,75.5891793 C261.993493,72.547559 257.354945,74.6856246 258.717817,81.1698912 C259.732516,86.0009664 262.383845,90.4958328 264.205659,95.043835 C268.437932,105.607495 272.571195,119.166248 270.723742,130.702916 C269.027208,141.292095 258.446696,150.188308 249.560588,154.669675 C243.386102,157.784177 236.889728,160.108112 234.903803,165.983624 Z" id="Path" fill="url(#linearGradient-38)" transform="translate(269.424610, 138.016856) rotate(10.000000) translate(-269.424610, -138.016856) "></path>
                    <path d="M299.797416,126.741202 C304.457678,140.115815 304.923945,154.227378 297.099403,167.217568 C293.231732,173.638006 288.328279,179.468694 282.798447,184.7286 C282.593221,184.205872 282.393471,183.665854 282.200761,183.108546 C277.281175,168.87715 281.187123,153.041496 288.569486,140.426889 C290.65783,136.857518 294.9871,129.479878 299.797416,126.741202 Z" id="Path" fill="#2FCFA4" transform="translate(291.589212, 155.734901) rotate(10.000000) translate(-291.589212, -155.734901) "></path>
                    <path d="M240.660588,65.6922574 C233.398137,63.0716437 228.834423,64.0405289 222.753457,67.8911632 C210.715789,75.5124875 210.903744,103.582543 217.705729,115.221674 C224.574665,126.975299 237.3332,125.696663 246.832893,119.535976" id="Path" stroke="#FFFFFF" stroke-width="2" stroke-linecap="square" stroke-linejoin="round" transform="translate(229.939270, 94.183222) rotate(10.000000) translate(-229.939270, -94.183222) "></path>
                    <path d="M176.513278,58.0424769 C176.511698,58.0416884 190.474165,45.2915453 207.149612,50.6903652 C230.622448,58.2889388 233.920553,72.2004635 234.497403,72.6317007 C234.860107,72.9036873 241.056011,71.0532631 242.110337,69.5269944 C242.649741,68.745343 237.247511,57.0643732 226.144623,49.8425514 C215.387045,42.845426 201.051997,41.5342736 188.834505,47.1864915 L176.513278,58.0424769 Z" id="Path" fill="#2FCFA4" transform="translate(209.330182, 58.156752) rotate(10.000000) translate(-209.330182, -58.156752) "></path>
                    <path d="M235.191995,76.6101849 C231.608958,74.5298575 221.281393,73.0632661 220.612064,91.4699733 C220.16194,103.832147 221.684732,119.952235 238.258058,115.149964 C243.385522,113.664539 244.766232,108.919735 245.413914,104.059831 C246.619887,95.0042751 243.056603,81.1747799 235.191995,76.6101849 Z" id="Path" fill="#31AD86" transform="translate(233.095778, 95.720957) rotate(10.000000) translate(-233.095778, -95.720957) "></path>
                    <path d="M239.496583,74.4258919 C235.913546,72.3455645 225.585981,70.8789731 224.916652,89.2856803 C224.466528,101.647854 225.98932,117.767942 242.562646,112.965671 C247.69011,111.480246 249.07082,106.735442 249.718502,101.875538 C250.924475,92.8199821 247.361191,78.9904869 239.496583,74.4258919 Z" id="Path" fill="#2FCFA4" transform="translate(237.400366, 93.536664) rotate(10.000000) translate(-237.400366, -93.536664) "></path>
                    <path d="M138.032005,151.382736 C141.800517,151.311102 145.504031,152.013003 147.749769,154.506208 C150.195538,157.222166 145.672187,164.756031 142.268259,167.789145 C135.23409,174.058144 124.645591,177.405046 115.242061,176.971457 C111.690721,176.808025 106.646085,176.337374 104.648566,172.893145 C103.521379,170.949532 103.656412,168.910222 104.414937,167.029426 C115.941035,162.566907 127.074421,157.559495 137.850066,151.38763 Z" id="Combined-Shape" fill="#2FCFA4" transform="translate(126.134908, 164.193387) rotate(10.000000) translate(-126.134908, -164.193387) "></path>
                </g>
                <g id="Group-4" transform="translate(422.000000, 69.000000)">
                    <path d="M72.6375462,50.2343301 C62.6121859,48.503502 23.9536851,42.3399316 13.2178359,40.5756178 C-0.844792208,38.2645534 -5.63372875,57.8641364 8.54914443,60.9289043 C23.7241763,64.2083102 48.8800943,69.568772 65.0099486,70.3663912 C79.7122363,71.0931962 83.4727759,52.1051395 72.6375462,50.2343301 Z" id="Path" fill="#DCE0E9"></path>
                    <path d="M28.7377686,44.1463434 C29.5815863,38.1477801 33.5016648,20.5295733 46.1107859,22.7539376 C59.3115931,25.0821732 56.0136086,39.1902925 55.2686163,48.1871875 L28.7377686,44.1463434 Z" id="Path" fill="#2FCFA4"></path>
                    <path d="M24.6028012,48.4838303 C26.4716169,51.1306465 25.8400205,54.7959074 23.1932707,56.6649562 C20.5458874,58.5333715 16.8792077,57.9019105 15.010392,55.2550943 C13.1409429,52.6089114 13.7731727,48.9430172 16.4199225,47.0746018 C19.0673058,45.2055531 22.7339855,45.8370141 24.6028012,48.4838303 Z" id="Path" fill="#F07343"></path>
                    <path d="M64.2058563,55.4983049 C66.0746719,58.1444878 65.4430756,61.810382 62.7963258,63.6787974 C60.1489425,65.5478461 56.4822628,64.9163851 54.6134471,62.2695689 C52.7446314,59.6227527 53.3762278,55.9574918 56.0229776,54.0884431 C58.6703609,52.2200277 62.3370406,52.8514887 64.2058563,55.4983049 Z" id="Path" fill="#F07343"></path>
                    <path d="M63.2058563,56.4983049 C65.0172084,59.0631212 64.479553,62.5859035 62.0347479,64.501427 C63.589899,62.5147567 63.7358853,59.6647768 62.2058563,57.4983049 C60.3370406,54.8514887 56.6703609,54.2200277 54.0229776,56.0884431 C53.9418675,56.1457204 53.8626499,56.2046845 53.7853388,56.2652546 C54.1295759,55.8251315 54.5431638,55.427272 55.0229776,55.0884431 C57.6703609,53.2200277 61.3370406,53.8514887 63.2058563,56.4983049 Z" id="Combined-Shape" fill="#FFD500"></path>
                    <path d="M44.602488,52.4839753 C46.4719372,55.1301581 45.8403408,58.7960524 43.1929575,60.6644677 C40.5462077,62.5335165 36.879528,61.9020554 35.0100788,59.2552392 C33.1412631,56.6090564 33.7728595,52.9431621 36.4202428,51.0741134 C39.0669926,49.205698 42.7336723,49.8371591 44.602488,52.4839753 Z" id="Path" fill="#F07343"></path>
                    <path d="M34.6612667,32.6347966 C35.1387673,33.3109775 34.9772352,34.2480308 34.3010542,34.7255314 C33.6244559,35.203032 32.6878201,35.0414999 32.2103194,34.3653189 C31.7328188,33.6887206 31.8939335,32.7520848 32.5705319,32.2745841 C33.2467128,31.7970835 34.183766,31.9581982 34.6612667,32.6347966" id="Fill-4" fill="#454545"></path>
                    <path d="M54.6612667,37.6347055 C55.1387673,38.3109125 54.9772352,39.2480018 54.3010542,39.7255208 C53.6244559,40.2030398 52.6878201,40.0415015 52.2103194,39.3652945 C51.7328188,38.6890875 51.8939335,37.7519982 52.5705319,37.2744792 C53.2467128,36.7969602 54.183766,36.9584985 54.6612667,37.6347055" id="Fill-5" fill="#454545"></path>
                    <path d="M46.9589938,8.33621196 C46.7242131,7.60460439 48.3138589,0.682444203 49.6094871,1.01135135 C50.2755418,1.18002169 49.8258465,7.34878772 49.1196985,9 L46.9589938,8.33621196 Z" id="Path" fill="#DCE0E9"></path>
                    <path d="M49.6911501,0.122237258 C51.3407096,0.449329697 52.5656166,1.33222703 52.4246981,2.09263987 C52.2837796,2.85305271 50.830151,3.20481022 49.1803205,2.87771778 C47.530761,2.55090563 46.305854,1.6680083 46.4467725,0.907595454 C46.587691,0.147182612 48.0413196,-0.204855181 49.6911501,0.122237258 Z" id="Path" fill="#DCE0E9"></path>
                    <path d="M35.9357353,40.0870923 C36.2827445,39.084783 36.8643152,34.0773219 42.9770862,35.149663 C49.37678,36.2722871 49.2160583,40.8270436 48.797784,42.0351967 L35.9357353,40.0870923 Z" id="Path" fill="#454545" transform="translate(42.452535, 38.517598) scale(1, -1) rotate(-19.000000) translate(-42.452535, -38.517598) "></path>
                    <path d="M37.0437122,39.1946323 C38.1270659,38.6681787 39.5944959,38.3760774 41.5690611,38.5505831 C44.7210175,38.8291184 46.0750451,40.2621306 46.6551958,41.7401975 C45.493809,42.3469585 43.8643482,42.6548659 41.6035325,42.2947451 C38.8174988,41.8509854 37.52118,40.5914574 36.9357353,39.2498842 L37.0437122,39.1946323 Z" id="Path" fill="#FF3E3E"></path>
                    <path d="M18.9357353,43.181101 C20.3509672,33.126493 26.920963,3.59539654 48.0563181,7.3233602 C70.1837293,11.2261315 64.6558358,34.8739364 63.4072136,49.9536317 L18.9357353,43.181101 Z" id="Path" fill="#FFFFFF" opacity="0.320359003"></path>
                    <path d="M43.3562528,53.4839753 C45.1676049,56.0487915 44.6299495,59.5715738 42.1851444,61.4870974 C43.7402956,59.500427 43.8862818,56.6504471 42.3562528,54.4839753 C40.4874371,51.8371591 36.8207574,51.205698 34.1733741,53.0741134 C34.092264,53.1313907 34.0130464,53.1903549 33.9357353,53.2509249 C34.2799724,52.8108018 34.6935603,52.4129423 35.1733741,52.0741134 C37.8207574,50.205698 41.4874371,50.8371591 43.3562528,53.4839753 Z" id="Combined-Shape" fill="#FFD500"></path>
                    <path d="M23.3562528,49.4839753 C25.1676049,52.0487915 24.6299495,55.5715738 22.1851444,57.4870974 C23.7402956,55.500427 23.8862818,52.6504471 22.3562528,50.4839753 C20.4874371,47.8371591 16.8207574,47.205698 14.1733741,49.0741134 C14.092264,49.1313907 14.0130464,49.1903549 13.9357353,49.2509249 C14.2799724,48.8108018 14.6935603,48.4129423 15.1733741,48.0741134 C17.8207574,46.205698 21.4874371,46.8371591 23.3562528,49.4839753 Z" id="Combined-Shape" fill="#FFD500"></path>
                </g>
            </g>
        </g>
    </g>
</svg>
