<?xml version="1.0" encoding="UTF-8"?>
<svg width="375px" height="323px" viewBox="0 0 375 323" version="1.1" xmlns="http://www.w3.org/2000/svg" xmlns:xlink="http://www.w3.org/1999/xlink">
    <!-- Generator: Sketch 63.1 (92452) - https://sketch.com -->
    <title>Group</title>
    <desc>Created with Sketch.</desc>
    <defs>
        <rect id="path-1" x="0" y="0" width="375" height="323"></rect>
        <linearGradient x1="50%" y1="0%" x2="50%" y2="100%" id="linearGradient-3">
            <stop stop-color="#1D468B" offset="0%"></stop>
            <stop stop-color="#062150" offset="100%"></stop>
        </linearGradient>
        <path d="M338.63474,284.559083 C339.632744,282.898099 340.414929,282.068145 340.982544,282.068145 C341.548911,282.068145 342.205099,282.898099 342.948612,284.559083 C342.47456,282.586597 342.609291,281.601431 343.350309,281.601431 C344.093822,281.601431 344.94961,281.601431 345.916426,281.601431 C343.875508,281.514125 342.57436,280.936391 342.010488,279.869308 C341.444121,278.800069 341.011237,277.551906 340.708093,276.121583 C340.787933,278.866897 340.096816,280.11506 338.63474,279.869308 C337.170169,279.6214 336.126007,279.438163 335.49976,279.316365 C337.222564,279.771223 338.267973,280.305842 338.63474,280.918067 C338.999011,281.529215 338.999011,282.742887 338.63474,284.559083 L338.63474,284.559083 Z" id="path-4"></path>
        <path d="M325.399383,132.158054 C326.973319,132.104272 327.864119,132.238172 328.073024,132.560058 C328.28147,132.881238 327.92005,133.56302 326.987061,134.604392 C328.245514,133.599602 329.010779,133.308427 329.283504,133.728648 L330.227938,135.183858 L330.227938,135.183858 C329.540223,133.993906 329.481046,133.040482 330.048706,132.322575 C330.617014,131.602448 331.36443,130.891258 332.291926,130.185676 C330.326963,131.255267 329.165869,131.329051 328.806295,130.408234 L328.276901,129.029744 C328.185255,128.786171 328.110985,128.584352 328.054184,128.424119 C328.357812,129.570812 328.354187,130.363123 328.044418,130.799541 C327.773251,131.179816 327.06432,131.574055 325.917625,131.982256 L325.399383,132.158054 Z" id="path-6"></path>
        <path d="M396.589222,182.158054 C398.163159,182.104272 399.053959,182.238172 399.262864,182.560058 C399.47131,182.881238 399.109889,183.56302 398.176901,184.604392 C399.435354,183.599602 400.200619,183.308427 400.473343,183.728648 L401.417778,185.183858 L401.417778,185.183858 C400.730062,183.993906 400.670885,183.040482 401.238545,182.322575 C401.806853,181.602448 402.55427,180.891258 403.481766,180.185676 C401.516803,181.255267 400.355709,181.329051 399.996134,180.408234 L399.466741,179.029744 C399.375094,178.786171 399.300825,178.584352 399.244024,178.424119 C399.547651,179.570812 399.544027,180.363123 399.234257,180.799541 C398.963091,181.179816 398.25416,181.574055 397.107465,181.982256 L396.589222,182.158054 Z" id="path-8"></path>
        <path d="M270.747156,340.596711 C272.226863,339.78656 273.172491,339.490614 273.585437,339.708578 C273.997476,339.926063 274.098282,340.774344 273.885549,342.253238 C274.435657,340.654009 274.980679,339.997924 275.519779,340.282475 L277.38666,341.267864 L277.38666,341.267864 C275.941482,340.421423 275.25702,339.506692 275.330969,338.523487 C275.404081,337.537775 275.655489,336.474767 276.083936,335.330701 C274.896375,337.333813 273.827243,337.965205 272.875072,337.2272 L271.068411,335.80715 C270.986344,335.741102 270.911949,335.680753 270.845226,335.626089 C271.892202,336.614452 272.410174,337.400002 272.399213,337.980713 C272.387694,338.523504 271.902972,339.323834 270.94505,340.381703 L270.747156,340.596711 Z" id="path-10"></path>
        <path d="M233.648225,160.596711 C235.127932,159.78656 236.07356,159.490614 236.486507,159.708578 C236.898546,159.926063 236.999351,160.774344 236.786618,162.253238 C237.336727,160.654009 237.881749,159.997924 238.420848,160.282475 L240.287729,161.267864 L240.287729,161.267864 C238.842551,160.421423 238.158089,159.506692 238.232038,158.523487 C238.305151,157.537775 238.556558,156.474767 238.985005,155.330701 C237.797445,157.333813 236.728312,157.965205 235.776141,157.2272 L233.96948,155.80715 C233.887413,155.741102 233.813019,155.680753 233.746296,155.626089 C234.793272,156.614452 235.311244,157.400002 235.300282,157.980713 C235.288763,158.523504 234.804042,159.323834 233.846119,160.381703 L233.648225,160.596711 Z" id="path-12"></path>
        <path d="M250.271332,202.378483 C249.429143,201.514881 249.046784,200.921333 249.123791,200.596937 C249.200628,200.273255 249.778126,200.044762 250.856581,199.913075 C249.631346,199.835769 249.069798,199.584845 249.17033,199.161348 L249.518467,197.694794 L249.518467,197.694794 C249.190197,198.84578 248.673645,199.4874 247.969106,199.62127 C247.262961,199.756186 246.469616,199.783227 245.586663,199.703962 C247.213269,200.142999 247.854124,200.758333 247.511129,201.550534 L246.878589,202.986523 C246.834583,203.083807 246.795188,203.169822 246.760377,203.244578 C247.261815,202.340285 247.718296,201.83721 248.128384,201.735685 C248.508277,201.642559 249.151327,201.820657 250.057535,202.269978 L250.271332,202.378483 Z" id="path-14"></path>
        <path d="M392.22938,246.010953 C391.387191,245.14735 391.004832,244.553803 391.081839,244.229407 C391.158676,243.905725 391.736174,243.677232 392.814629,243.545545 C391.589395,243.468239 391.027846,243.217315 391.128378,242.793818 L391.476515,241.327264 L391.476515,241.327264 C391.148245,242.47825 390.631693,243.119869 389.927154,243.25374 C389.221009,243.388656 388.427665,243.415697 387.544711,243.336431 C389.171318,243.775469 389.812172,244.390803 389.469177,245.183003 L388.906107,246.464616 C388.833174,246.627447 388.770641,246.764914 388.718425,246.877048 C389.219863,245.972755 389.676344,245.46968 390.086432,245.368155 C390.466325,245.275029 391.109375,245.453127 392.015583,245.902448 L392.22938,246.010953 Z" id="path-16"></path>
        <path d="M358.870107,350.59818 C358.027918,349.734578 357.64556,349.14103 357.722566,348.816634 C357.799403,348.492952 358.376902,348.264459 359.455357,348.132772 C358.230122,348.055466 357.668574,347.804542 357.769105,347.381045 L358.117243,345.914491 L358.117243,345.914491 C357.788973,347.065477 357.27242,347.707097 356.567882,347.840967 C355.861736,347.975883 355.068392,348.002924 354.185438,347.923659 C355.812045,348.362696 356.452899,348.97803 356.109905,349.770231 L355.706593,350.692352 C355.561864,351.020126 355.446179,351.277385 355.359153,351.464275 C355.86059,350.559982 356.317072,350.056907 356.72716,349.955382 C357.107052,349.862256 357.750103,350.040354 358.656311,350.489675 L358.870107,350.59818 Z" id="path-18"></path>
        <path d="M267.951392,280.579926 C268.470141,279.705004 268.87671,279.267827 269.171748,279.267827 C269.466138,279.267827 269.807215,279.705004 270.193683,280.579926 C269.947277,279.540921 270.017308,279.021986 270.402479,279.021986 C270.788947,279.021986 271.233774,279.021986 271.736311,279.021986 C270.675471,278.975997 269.999152,278.671677 269.706059,278.109592 C269.411669,277.546372 269.186662,276.888903 269.029092,276.135482 C269.070592,277.581573 268.711359,278.239042 267.951392,278.109592 C267.190128,277.979007 266.647388,277.882487 266.321873,277.81833 C267.217363,278.057926 267.760752,278.339536 267.951392,278.662025 C268.140735,278.983946 268.140735,279.623247 267.951392,280.579926 L267.951392,280.579926 Z" id="path-20"></path>
        <path d="M136.601125,253.544693 C137.119873,252.683442 137.526442,252.253096 137.821481,252.253096 C138.115871,252.253096 138.456948,252.683442 138.843415,253.544693 C138.59701,252.521923 138.667041,252.011096 139.052212,252.011096 C139.438679,252.011096 139.883506,252.011096 140.386044,252.011096 C139.325203,251.965826 138.648885,251.66626 138.355792,251.112958 C138.061402,250.558538 137.836395,249.911342 137.678825,249.169693 C137.720325,250.593189 137.361091,251.240385 136.601125,251.112958 C135.839861,250.984413 135.29712,250.889401 134.971606,250.826247 C135.867095,251.062099 136.410485,251.339309 136.601125,251.656759 C136.790468,251.97365 136.790468,252.602962 136.601125,253.544693 L136.601125,253.544693 Z" id="path-22"></path>
        <path d="M277.97813,122.579926 C278.496879,121.705004 278.903448,121.267827 279.198486,121.267827 C279.492876,121.267827 279.833953,121.705004 280.220421,122.579926 C279.974015,121.540921 280.044046,121.021986 280.429217,121.021986 C280.815685,121.021986 281.260512,121.021986 281.763049,121.021986 C280.702209,120.975997 280.02589,120.671677 279.732797,120.109592 C279.438407,119.546372 279.2134,118.888903 279.05583,118.135482 C279.09733,119.581573 278.738097,120.239042 277.97813,120.109592 C277.216866,119.979007 276.674126,119.882487 276.348611,119.81833 C277.244101,120.057926 277.78749,120.339536 277.97813,120.662025 C278.167473,120.983946 278.167473,121.623247 277.97813,122.579926 L277.97813,122.579926 Z" id="path-24"></path>
        <path d="M144.622515,97.5799263 C145.141264,96.7050044 145.547833,96.2678273 145.842871,96.2678273 C146.137261,96.2678273 146.478338,96.7050044 146.864806,97.5799263 C146.6184,96.540921 146.688431,96.0219862 147.073602,96.0219862 C147.46007,96.0219862 147.904897,96.0219862 148.407434,96.0219862 C147.346594,95.9759974 146.670275,95.6716767 146.377182,95.1095919 C146.082792,94.5463716 145.857785,93.8889026 145.700215,93.1354819 C145.741715,94.5815728 145.382482,95.2390417 144.622515,95.1095919 C143.861251,94.9790065 143.318511,94.8824869 142.992996,94.8183298 C143.888486,95.0579255 144.431875,95.3395357 144.622515,95.6620248 C144.811858,95.9839461 144.811858,96.6232466 144.622515,97.5799263 L144.622515,97.5799263 Z" id="path-26"></path>
        <path d="M187.737488,212.579926 C188.256237,211.705004 188.662806,211.267827 188.957844,211.267827 C189.252234,211.267827 189.593311,211.705004 189.979779,212.579926 C189.733374,211.540921 189.803405,211.021986 190.188575,211.021986 C190.575043,211.021986 191.01987,211.021986 191.522408,211.021986 C190.461567,210.975997 189.785248,210.671677 189.492155,210.109592 C189.197766,209.546372 188.972758,208.888903 188.815188,208.135482 C188.856688,209.581573 188.497455,210.239042 187.737488,210.109592 C186.976225,209.979007 186.433484,209.882487 186.107969,209.81833 C187.003459,210.057926 187.546848,210.339536 187.737488,210.662025 C187.926832,210.983946 187.926832,211.623247 187.737488,212.579926 L187.737488,212.579926 Z" id="path-28"></path>
        <path d="M352.175991,213.579926 C352.69474,212.705004 353.101309,212.267827 353.396347,212.267827 C353.690737,212.267827 354.031814,212.705004 354.418282,213.579926 C354.171876,212.540921 354.241907,212.021986 354.627078,212.021986 C355.013546,212.021986 355.458373,212.021986 355.96091,212.021986 C354.90007,211.975997 354.223751,211.671677 353.930658,211.109592 C353.636268,210.546372 353.411261,209.888903 353.253691,209.135482 C353.295191,210.581573 352.935958,211.239042 352.175991,211.109592 C351.414727,210.979007 350.871987,210.882487 350.546472,210.81833 C351.441962,211.057926 351.985351,211.339536 352.175991,211.662025 C352.365334,211.983946 352.365334,212.623247 352.175991,213.579926 L352.175991,213.579926 Z" id="path-30"></path>
        <path d="M214.387796,321.808212 C215.493752,321.501372 216.156637,321.450692 216.377402,321.65619 C216.597683,321.861237 216.494232,322.432664 216.065615,323.370001 C216.733651,322.404913 217.211793,322.057393 217.500001,322.32567 L218.498056,323.254704 L218.498056,323.254704 C217.742,322.480692 217.485605,321.777224 217.727436,321.14383 C217.969228,320.508666 218.340259,319.849852 218.84047,319.164734 C217.685133,320.297983 216.876938,320.549864 216.414487,319.921679 L215.769265,319.036392 C215.630718,318.844119 215.518995,318.686808 215.434136,318.564265 C215.907629,319.37096 216.08319,319.964497 215.961264,320.343558 C215.848252,320.692226 215.392657,321.135043 214.594478,321.672009 L214.387796,321.808212 Z" id="path-32"></path>
        <path d="M300.445098,191.189909 C301.412809,190.921424 301.992833,190.877079 302.186003,191.05689 C302.378749,191.236306 302.28823,191.736305 301.91319,192.556474 C302.497721,191.712022 302.916095,191.407942 303.168277,191.642685 L304.041576,192.45559 L304.041576,192.45559 C303.380026,191.778329 303.155681,191.162795 303.367283,190.608575 C303.578851,190.052806 303.903503,189.476344 304.341188,188.876866 C303.330268,189.868459 302.623097,190.088855 302.218452,189.539193 L301.700444,188.829091 C301.557461,188.631215 301.444179,188.472083 301.360645,188.351456 C301.774951,189.057314 301.928567,189.576659 301.821883,189.908337 C301.723684,190.211303 301.329873,190.595509 300.640451,191.060955 L300.445098,191.189909 Z" id="path-34"></path>
        <path d="M170.097505,131.189909 C171.065215,130.921424 171.64524,130.877079 171.83841,131.05689 C172.031155,131.236306 171.940636,131.736305 171.565596,132.556474 C172.150128,131.712022 172.568502,131.407942 172.820684,131.642685 L173.693982,132.45559 L173.693982,132.45559 C173.032433,131.778329 172.808087,131.162795 173.019689,130.608575 C173.231257,130.052806 173.555909,129.476344 173.993594,128.876866 C172.982674,129.868459 172.275504,130.088855 171.870859,129.539193 L171.352851,128.829091 C171.209867,128.631215 171.096585,128.472083 171.013051,128.351456 C171.427358,129.057314 171.580974,129.576659 171.474289,129.908337 C171.37609,130.211303 170.98228,130.595509 170.292858,131.060955 L170.097505,131.189909 Z" id="path-36"></path>
        <path d="M163.078788,282.189909 C164.046499,281.921424 164.626523,281.877079 164.819693,282.05689 C165.012439,282.236306 164.92192,282.736305 164.54688,283.556474 C165.131411,282.712022 165.549785,282.407942 165.801967,282.642685 L166.675265,283.45559 L166.675265,283.45559 C166.013716,282.778329 165.789371,282.162795 166.000973,281.608575 C166.21254,281.052806 166.537192,280.476344 166.974877,279.876866 C165.963958,280.868459 165.256787,281.088855 164.852142,280.539193 L164.334134,279.829091 C164.191151,279.631215 164.077869,279.472083 163.994335,279.351456 C164.408641,280.057314 164.562257,280.576659 164.455573,280.908337 C164.357374,281.211303 163.963563,281.595509 163.274141,282.060955 L163.078788,282.189909 Z" id="path-38"></path>
        <path d="M103.946318,272.808212 C104.903395,272.501372 105.477045,272.450692 105.668092,272.65619 C105.85872,272.861237 105.769195,273.432664 105.398277,274.370001 C105.976385,273.404913 106.390161,273.057393 106.639572,273.32567 L107.503274,274.254704 L107.503274,274.254704 C106.848994,273.480692 106.627114,272.777224 106.836391,272.14383 C107.045634,271.508666 107.366718,270.849852 107.799593,270.164734 C106.799783,271.297983 106.100383,271.549864 105.700185,270.921679 L104.979389,269.774179 C104.931052,269.6955 104.888522,269.625536 104.851804,269.564265 C105.261558,270.37096 105.413485,270.964497 105.307973,271.343558 C105.210853,271.689805 104.821371,272.128897 104.139525,272.660836 L103.946318,272.808212 Z" id="path-40"></path>
        <path d="M280.379206,230.760492 C279.962472,229.492402 279.88627,228.734407 280.150607,228.48542 C280.414364,228.236981 281.160416,228.364028 282.388173,228.868194 C281.120586,228.09011 280.660492,227.538535 281.005583,227.213484 L282.200623,226.087846 L282.200623,226.087846 C281.203834,226.939459 280.29128,227.221409 279.462372,226.935329 C278.631158,226.649266 277.767149,226.215207 276.866887,225.633177 C278.361038,226.970512 278.701599,227.897619 277.890288,228.416116 L276.51896,229.281249 C276.371097,229.37285 276.243761,229.450731 276.136876,229.514877 C277.180584,228.986541 277.951159,228.795219 278.446877,228.940381 C278.907928,229.076385 279.499756,229.613958 280.22236,230.553101 L280.379206,230.760492 Z" id="path-42"></path>
        <path d="M385.659955,297.760492 C385.243221,296.492402 385.167018,295.734407 385.431356,295.48542 C385.695113,295.236981 386.441165,295.364028 387.668922,295.868194 C386.401335,295.09011 385.94124,294.538535 386.286332,294.213484 L387.481371,293.087846 L387.481371,293.087846 C386.484582,293.939459 385.572029,294.221409 384.743121,293.935329 C383.911906,293.649266 383.047898,293.215207 382.147635,292.633177 C383.641786,293.970512 383.982348,294.897619 383.171037,295.416116 L381.799709,296.281249 C381.651845,296.37285 381.52451,296.450731 381.417625,296.514877 C382.461332,295.986541 383.231907,295.795219 383.727625,295.940381 C384.188677,296.076385 384.780505,296.613958 385.503109,297.553101 L385.659955,297.760492 Z" id="path-44"></path>
        <circle id="path-46" cx="56" cy="56" r="56"></circle>
        <linearGradient x1="50%" y1="0%" x2="50%" y2="100%" id="linearGradient-48">
            <stop stop-color="#E5E8F3" offset="0%"></stop>
            <stop stop-color="#AFB6C1" offset="100%"></stop>
        </linearGradient>
        <linearGradient x1="32.4327619%" y1="-24.2894676%" x2="40.0482333%" y2="110.196077%" id="linearGradient-49">
            <stop stop-color="#EBEDF8" offset="0%"></stop>
            <stop stop-color="#DEE2F8" offset="3%"></stop>
            <stop stop-color="#B8C4F8" offset="12%"></stop>
            <stop stop-color="#97A9F7" offset="22%"></stop>
            <stop stop-color="#7D93F7" offset="33%"></stop>
            <stop stop-color="#6983F7" offset="45%"></stop>
            <stop stop-color="#5A77F7" offset="58%"></stop>
            <stop stop-color="#5270F7" offset="74%"></stop>
            <stop stop-color="#4F6EF7" offset="100%"></stop>
        </linearGradient>
        <linearGradient x1="50%" y1="0%" x2="50%" y2="100%" id="linearGradient-50">
            <stop stop-color="#EDEFF4" offset="0%"></stop>
            <stop stop-color="#D7DBE6" offset="100%"></stop>
        </linearGradient>
    </defs>
    <g id="App" stroke="none" stroke-width="1" fill="none" fill-rule="evenodd">
        <g id="March-15---March-27---s2" transform="translate(0.000000, -2.000000)">
            <g id="Group" transform="translate(0.000000, 2.000000)">
                <g id="Group-8">
                    <mask id="mask-2" fill="white">
                        <use xlink:href="#path-1"></use>
                    </mask>
                    <use id="Mask" fill="#FFFFFF" xlink:href="#path-1"></use>
                    <g mask="url(#mask-2)">
                        <g transform="translate(-70.187166, -87.000000)">
                            <path d="M93.6884567,332.86179 C266.14835,355.333173 379.151392,436.86179 441.210637,324.86179 C503.269883,212.86179 477.902378,-23.2945496 286.575884,1.86178985 C95.2493893,27.0181294 180.358692,38.1865421 102.712521,38.8617899 C25.0663501,39.5370376 -78.7714363,310.390407 93.6884567,332.86179 Z" id="Path-2" stroke="none" fill="url(#linearGradient-3)" fill-rule="evenodd"></path>
                            <path d="M202.715775,164.802469 C236.550381,137.802578 245.172043,90.738763 285.271284,70.0393163 C328.902346,47.5153625 415.287962,42.2882553 420.560114,50.094753 C441.718487,81.4227893 549.669412,196.864229 467.095435,363.737962 L432.550186,363.737962 C433.871014,358.59521 432.396709,354.167657 424.60103,351.601559 C421.444063,350.562628 418.095484,349.944196 414.785971,349.54569 C381.814554,345.580862 348.054361,356.402986 315.424313,359.441486 C309.317806,360.010655 286.526071,361.339888 285.271284,352.410887 C284.081608,343.947251 299.665525,337.703988 305.781334,335.112378 C331.23705,324.326322 359.31489,319.863581 384.921292,309.361669 C389.968345,307.291724 416.330968,296.057018 405.860146,287.765803 C393.40157,277.901677 370.112199,284.02442 356.121647,286.3442 C311.734364,293.703808 268.223293,307.515169 223.323492,311.756224 C207.112646,313.28691 163.51414,316.05622 159.178659,293.889426 C156.357481,279.462272 173.016664,267.068995 184.706928,261.479353 C218.008552,245.556702 258.6138,249.915638 293.976661,240.167632 C303.572202,237.522361 330.233406,227.935341 331.448196,216.515897 C332.121633,210.189062 323.036751,210.113408 318.476171,210.206657 C309.296412,210.394913 284.452742,218.271787 277.189115,213.136952 C272.912235,210.113408 280.868832,202.836492 282.87798,200.715525 C291.746135,191.355469 304.846522,173.965471 283.57095,168.688123 C256.546982,161.983895 209.516182,191.178648 182.707082,199.086312 C171.473527,202.399279 153.987431,208.240517 142.691556,202.36673 C141.121444,201.550364 140.183841,200.442816 139.702948,199.172523 C160.079055,191.38362 179.216187,183.55425 202.715775,164.802469 Z" id="Fill-3" stroke="none" fill="#FFFFFF" fill-rule="evenodd" opacity="0.0734049479"></path>
                            <mask id="mask-5" fill="white">
                                <use xlink:href="#path-4"></use>
                            </mask>
                            <use id="Clip-54" stroke="none" fill="#FFFFFF" fill-rule="evenodd" xlink:href="#path-4"></use>
                            <mask id="mask-7" fill="white">
                                <use xlink:href="#path-6"></use>
                            </mask>
                            <use id="Clip-54" stroke="none" fill="#FFFFFF" fill-rule="evenodd" xlink:href="#path-6"></use>
                            <mask id="mask-9" fill="white">
                                <use xlink:href="#path-8"></use>
                            </mask>
                            <use id="Clip-54" stroke="none" fill="#FFFFFF" fill-rule="evenodd" opacity="0.29468936" xlink:href="#path-8"></use>
                            <mask id="mask-11" fill="white">
                                <use xlink:href="#path-10"></use>
                            </mask>
                            <use id="Clip-54" stroke="none" fill="#FFFFFF" fill-rule="evenodd" xlink:href="#path-10"></use>
                            <mask id="mask-13" fill="white">
                                <use xlink:href="#path-12"></use>
                            </mask>
                            <use id="Clip-54" stroke="none" fill="#FFFFFF" fill-rule="evenodd" xlink:href="#path-12"></use>
                            <mask id="mask-15" fill="white">
                                <use xlink:href="#path-14"></use>
                            </mask>
                            <use id="Clip-54" stroke="none" fill="#FFFFFF" fill-rule="evenodd" xlink:href="#path-14"></use>
                            <mask id="mask-17" fill="white">
                                <use xlink:href="#path-16"></use>
                            </mask>
                            <use id="Clip-54" stroke="none" fill="#FFFFFF" fill-rule="evenodd" xlink:href="#path-16"></use>
                            <mask id="mask-19" fill="white">
                                <use xlink:href="#path-18"></use>
                            </mask>
                            <use id="Clip-54" stroke="none" fill="#FFFFFF" fill-rule="evenodd" xlink:href="#path-18"></use>
                            <mask id="mask-21" fill="white">
                                <use xlink:href="#path-20"></use>
                            </mask>
                            <use id="Clip-54" stroke="none" fill="#FFFFFF" fill-rule="evenodd" opacity="0.29468936" xlink:href="#path-20"></use>
                            <mask id="mask-23" fill="white">
                                <use xlink:href="#path-22"></use>
                            </mask>
                            <use id="Clip-54" stroke="none" fill="#FFFFFF" fill-rule="evenodd" xlink:href="#path-22"></use>
                            <mask id="mask-25" fill="white">
                                <use xlink:href="#path-24"></use>
                            </mask>
                            <use id="Clip-54" stroke="none" fill="#FFFFFF" fill-rule="evenodd" opacity="0.29468936" xlink:href="#path-24"></use>
                            <mask id="mask-27" fill="white">
                                <use xlink:href="#path-26"></use>
                            </mask>
                            <use id="Clip-54" stroke="none" fill="#FFFFFF" fill-rule="evenodd" opacity="0.29468936" xlink:href="#path-26"></use>
                            <mask id="mask-29" fill="white">
                                <use xlink:href="#path-28"></use>
                            </mask>
                            <use id="Clip-54" stroke="none" fill="#FFFFFF" fill-rule="evenodd" opacity="0.29468936" xlink:href="#path-28"></use>
                            <mask id="mask-31" fill="white">
                                <use xlink:href="#path-30"></use>
                            </mask>
                            <use id="Clip-54" stroke="none" fill="#FFFFFF" fill-rule="evenodd" xlink:href="#path-30"></use>
                            <mask id="mask-33" fill="white">
                                <use xlink:href="#path-32"></use>
                            </mask>
                            <use id="Clip-54" stroke="none" fill="#FFFFFF" fill-rule="evenodd" xlink:href="#path-32"></use>
                            <mask id="mask-35" fill="white">
                                <use xlink:href="#path-34"></use>
                            </mask>
                            <use id="Clip-54" stroke="none" fill="#FFFFFF" fill-rule="evenodd" xlink:href="#path-34"></use>
                            <mask id="mask-37" fill="white">
                                <use xlink:href="#path-36"></use>
                            </mask>
                            <use id="Clip-54" stroke="none" fill="#FFFFFF" fill-rule="evenodd" xlink:href="#path-36"></use>
                            <mask id="mask-39" fill="white">
                                <use xlink:href="#path-38"></use>
                            </mask>
                            <use id="Clip-54" stroke="none" fill="#FFFFFF" fill-rule="evenodd" xlink:href="#path-38"></use>
                            <mask id="mask-41" fill="white">
                                <use xlink:href="#path-40"></use>
                            </mask>
                            <use id="Clip-54" stroke="none" fill="#FFFFFF" fill-rule="evenodd" opacity="0.29468936" xlink:href="#path-40"></use>
                            <mask id="mask-43" fill="white">
                                <use xlink:href="#path-42"></use>
                            </mask>
                            <use id="Clip-54" stroke="none" fill="#FFFFFF" fill-rule="evenodd" xlink:href="#path-42"></use>
                            <mask id="mask-45" fill="white">
                                <use xlink:href="#path-44"></use>
                            </mask>
                            <use id="Clip-54" stroke="none" fill="#FFFFFF" fill-rule="evenodd" xlink:href="#path-44"></use>
                        </g>
                    </g>
                    <g id="Asset-2@200x" mask="url(#mask-2)">
                        <g transform="translate(278.000000, 118.000000)">
                            <g id="Path-+-Path-+-Path-+-Path-Mask" transform="translate(12.000000, 4.000000)">
                                <mask id="mask-47" fill="white">
                                    <use xlink:href="#path-46"></use>
                                </mask>
                                <use id="Mask" fill="#4D69FB" fill-rule="nonzero" xlink:href="#path-46"></use>
                                <path d="M39.4797263,0.0798857632 C39.4797263,0.0798857632 52.5208262,11.0271141 56.0509389,13.1377295 C59.5810517,15.248345 67.6825334,17.0283821 76.190359,12.4384292 C84.6981847,7.84847637 86.3489568,2.54650864 86.3489568,2.54650864 L53.587479,-4.51006711 L39.4797263,0.0798857632 Z" id="Path" fill="#FFFFFF" fill-rule="nonzero" opacity="0.2" mask="url(#mask-47)"></path>
                                <path d="M11.6324702,16.6723747 C11.6324702,16.6723747 18.6799974,17.371675 22.2101101,18.0836898 C29.2467872,19.8473279 36.1890482,21.969176 43.0098391,24.4409653 C48.6478608,26.5642953 62.7429152,27.619603 69.4475898,25.864995 C76.1522643,24.110387 86.717206,14.9177667 89.5362169,13.5064515 C92.3552277,12.0951364 101.878913,10.3278138 101.878913,10.3278138 L103.288419,18.4524118 L96.2408914,20.5503127 C96.2408914,20.5503127 87.4283078,22.9660774 84.9521496,25.5089876 C82.4759914,28.0518978 79.9998332,30.7855262 79.9998332,33.2521491 C79.9998332,35.718772 83.8093074,35.7314865 87.0473604,35.7314865 C90.2854134,35.7314865 104.253485,33.735302 108.520096,34.2057404 C112.786707,34.6761788 115.250167,43.105926 115.250167,43.105926 L110.907367,44.5808139 C110.907367,44.5808139 105.751879,41.6946109 97.6503968,43.4619335 C89.5489151,45.229256 83.5426442,48.3951792 77.5490715,49.8192089 C71.5554988,51.2432386 62.0445116,49.8192089 57.8159953,48.4078938 C53.587479,46.9965786 45.1177481,40.2960103 41.9431863,38.236253 C38.7686245,36.1764958 30.6671428,29.0182036 23.2640646,29.3233528 C15.8609865,29.6285021 1.7659321,32.9088562 1.7659321,32.9088562 L11.6324702,16.6723747 Z" id="Path" fill="#FFFFFF" fill-rule="nonzero" opacity="0.2" mask="url(#mask-47)"></path>
                                <path d="M-5.2815951,49.1453377 L0.000875741187,50.4295074 C4.18879304,49.6377868 8.4375594,49.2123647 12.699123,49.1580523 C19.0482466,49.1580523 31.0353919,51.6246751 36.3178628,54.4473054 C41.6003336,57.2699357 55.3652336,62.9151963 61.7143572,63.6272112 C68.0634808,64.339226 83.5680407,65.0385263 96.9646915,61.5038812 C104.576662,59.562616 112.007266,56.9677114 119.173926,53.7480051 L115.364452,66.462556 C108.755884,70.7929873 101.309121,73.6784679 93.5107682,74.930447 C81.1680719,76.6977695 61.7651502,75.6424618 61.7651502,75.6424618 C61.7651502,75.6424618 52.5970157,76.3417621 51.8986121,81.2877224 C51.2002085,86.2336827 54.0065211,90.1116207 57.8921848,92.5782436 C61.7778484,95.0448665 92.0758663,103.169465 92.0758663,103.169465 L75.0856115,114.790564 C75.0856115,114.790564 65.2190734,108.153568 58.5143989,105.966666 C51.8097244,103.779763 42.2987372,98.5540825 40.8892318,93.9641297 C39.4797263,89.3741768 41.2447827,79.4949707 29.6131882,70.6710724 C17.9815938,61.8471741 7.75950479,62.2031815 2.81988662,63.6526403 C-2.11973154,65.1020991 -11.2751678,67.1745709 -11.2751678,67.1745709 L-5.2815951,49.1453377 Z" id="Path" fill="#FFFFFF" fill-rule="nonzero" opacity="0.2" mask="url(#mask-47)"></path>
                                <path d="M111.415297,76.0366129 C111.186728,76.5960531 107.605823,77.308068 106.932816,77.4987862 C105.243949,78.0200828 103.542384,78.4905212 101.853517,78.948245 C98.6789548,79.7746908 95.504393,80.4739911 92.26634,81.1351478 C88.7108308,81.8725917 85.1299251,82.5083193 81.5236229,83.0423304 C79.73317,83.309336 77.9300189,83.5509125 76.1268678,83.7670598 C74.6792676,83.9450635 72.6475481,83.7670598 71.3269303,84.3646437 C70.1598509,84.8107466 69.5183495,86.067947 69.8412354,87.2762759 C70.3999583,89.2088876 73.053892,90.0353334 74.7554571,90.4421991 C82.1585352,92.1968071 102.602713,98.91009 102.602713,98.91009 C105.510612,91.2813594 108.41851,83.6399143 111.415297,76.0366129 Z" id="Path" fill="#FFFFFF" fill-rule="nonzero" opacity="0.2" mask="url(#mask-47)"></path>
                            </g>
                            <g id="Group"></g>
                        </g>
                    </g>
                </g>
                <g id="Group-2" transform="translate(32.000000, 118.000000)">
                    <path d="M158.304025,44.3880294 C158.200915,44.2970868 181.679634,24.3051724 189.320833,16.529373 C191.120273,14.6989863 190.639371,9.13280977 186.582085,5.87283768 C181.814954,2.04224803 175.503544,3.83663256 173.083424,8.0731612 C167.381762,18.054128 159.835285,31.2285377 154.454623,40.5270168 L158.304025,44.3880294 Z" id="Stroke-3" fill="#CDCDCD" transform="translate(172.385907, 24.078023) rotate(10.000000) translate(-172.385907, -24.078023) "></path>
                    <path d="M170.070197,13.2361871 C176.135374,13.2361871 181.13972,17.728897 181.86749,23.5334445 C177.677572,27.4356627 172.268426,32.2435705 167.461074,36.4708352 C163.829546,35.6664512 160.825621,33.2185433 159.289096,29.9578151 C162.480478,24.3596941 165.79789,18.521672 168.756184,13.3070629 C169.186725,13.2603268 169.625611,13.2361871 170.070197,13.2361871 Z" id="Combined-Shape" fill="#AFAFAF" transform="translate(170.578590, 24.853511) rotate(10.000000) translate(-170.578590, -24.853511) "></path>
                    <path d="M106.073768,67.5047898 C99.9213255,64.5547797 95.2718673,70.5137151 94.2830609,71.6504795 C91.2686361,75.1145303 87.950711,78.2902542 84.510607,81.3450814 C74.4449324,90.2835753 63.3339632,96.6372459 51.3554282,102.653988 C46.4533551,105.116116 43.9680138,105.164354 45.074245,110.839445 C45.2059018,111.515988 45.1959313,112.889597 45.7046579,113.415955 C46.5583539,114.298933 49.253605,114.215934 50.3604099,114.344202 C54.6765406,114.845066 59.0450846,115.14847 63.3994993,115.083255 C68.5167823,115.006303 73.8507269,114.574042 78.7574382,113.048222 C82.2089076,111.974749 85.2880037,110.295915 88.3288599,108.374589 C99.2304196,101.486273 102.894253,95.7777068 108.040209,82.6723976 C111.071806,74.9518727 110.272937,69.5186684 106.073768,67.5047898 Z" id="Path" fill="#D1D6E1" transform="translate(77.340768, 90.892769) rotate(18.000000) translate(-77.340768, -90.892769) "></path>
                    <path d="M43.2621636,97.4684814 C42.8573412,96.3177647 41.0485233,95.5048163 40.6582132,95.0732741 C39.625891,93.9315498 37.566033,92.5021172 35.8281035,92.6116652 C32.4914527,92.8218569 36.0229041,95.806565 35.9493431,95.9098058 C34.5993723,97.8045954 30.8771145,98.1769817 30.5184829,100.802388 C30.4233322,101.500673 30.5361861,102.219303 30.7232023,102.892787 C32.2660222,108.446562 42.4832922,104.052115 43.1456096,102.139925 C44.0091127,99.6456413 43.6767303,98.6461598 43.2621636,97.4684814 Z" id="Path" fill="#9BA3AE" transform="translate(37.085264, 99.104342) scale(1, -1) rotate(18.000000) translate(-37.085264, -99.104342) "></path>
                    <path d="M138.69024,35.8565299 C144.203507,41.2855954 147.682811,48.8374366 147.830912,57.2514428 C147.944793,63.7051006 146.082244,69.7429313 142.80875,74.7692255 C142.559938,74.6337231 142.334291,74.4565473 142.143125,74.2296959 C139.859457,71.5255904 139.646661,67.4239159 138.799161,64.2337057 C138.16219,61.8385077 137.064861,58.8234624 136.076639,56.549323 C135.215693,54.5695068 133.428315,51.9921419 133.559346,49.6232387 C133.704756,46.999828 134.332759,45.1010754 135.418428,42.7136125 C136.466797,40.4094674 137.571982,38.1299219 138.69024,35.8565299 Z" id="Path" fill="#0C204E" transform="translate(140.694181, 55.312878) rotate(10.000000) translate(-140.694181, -55.312878) "></path>
                    <path d="M48.3995424,174.452171 C48.2705563,174.125987 40.8419053,178.344301 39.269191,179.572804 C38.1672033,180.433974 39.0179416,191.494298 41.4967826,193.593078 C42.6532262,194.572278 43.4865761,193.112918 43.6685452,192.099217 C44.2158852,189.047696 43.3447552,186.456796 45.5229096,183.865112 C46.8864509,182.242309 51.3420288,180.69494 51.4652405,178.834214 L48.3995424,174.452171 Z" id="Path" fill="#9BA3AE" transform="translate(45.130227, 184.175554) rotate(10.000000) translate(-45.130227, -184.175554) "></path>
                    <path d="M17.3150597,135.336616 C17.3997369,135.010523 9.41861777,134.119972 7.54144872,134.192572 C6.22558702,134.243398 0.680922173,143.325297 1.38202656,146.349944 C1.70920898,147.761334 3.15612419,147.094057 3.86115167,146.407533 C5.9828394,144.341283 6.77348065,141.836346 9.87159771,141.043613 C11.8113805,140.547145 16.0484925,141.845783 17.1827191,140.467632 L17.3150597,135.336616 Z" id="Path" fill="#9BA3AE" transform="translate(9.318366, 140.684867) rotate(10.000000) translate(-9.318366, -140.684867) "></path>
                    <path d="M94.8855421,126.64253 C89.7086494,128.5083 83.3865187,141.142818 83.3120053,141.300125 C81.6559545,144.802023 79.8291253,148.252114 77.7507779,151.533926 C72.9524842,159.109493 67.4562539,166.774952 60.9558613,173.063007 C59.1361468,174.823739 50.9236295,179.744037 50.2833179,181.087948 C49.3676721,183.010983 52.6130398,187.806777 54.3545207,188.668725 C58.7722206,190.856548 71.7035402,185.476244 75.5541326,183.449917 C91.4234573,175.098781 110.488118,158.182092 114.42583,140.064122 C115.096782,136.97648 115.84357,133.085811 114.374152,130.105887 C111.26864,123.808397 100.062435,124.776759 94.8855421,126.64253 Z" id="Path" fill="#D2D6E1" transform="translate(82.673177, 157.210509) rotate(10.000000) translate(-82.673177, -157.210509) "></path>
                    <path d="M78.9636218,108.82417 C73.511018,108.46506 62.5753711,117.522734 62.4433285,117.637318 C59.4993895,120.186258 56.4225897,122.619525 53.187445,124.7978 C45.7193931,129.82621 37.5826459,134.657185 29.1070457,137.824616 C26.7341297,138.711356 17.2748206,139.939295 16.1408552,140.916018 C14.5185413,142.312897 15.4730514,148.008104 16.6917055,149.495249 C19.7839507,153.267715 33.7010031,153.504853 38.0203429,153.186145 C55.8213497,151.873906 80.0500029,143.984187 91.0932774,128.944821 C92.9756698,126.381822 95.2573415,123.112777 95.1589488,119.792756 C94.9512124,112.776098 84.4162257,109.18328 78.9636218,108.82417 Z" id="Path" fill="#D2D6E1" transform="translate(55.221409, 131.050471) rotate(10.000000) translate(-55.221409, -131.050471) "></path>
                    <path d="M63.8187473,166.122112 C67.1957869,170.916578 71.5595941,175.645107 76.4348109,179.056845" id="Path" stroke="#2FCFA4" stroke-width="6" stroke-linecap="round" stroke-linejoin="round" transform="translate(70.126779, 172.589478) rotate(10.000000) translate(-70.126779, -172.589478) "></path>
                    <path d="M78.2302783,153.10609 C85.4549861,157.051981 93.5924952,161.657998 101.86263,163.302197" id="Path" stroke="#2FCFA4" stroke-width="6" stroke-linecap="round" stroke-linejoin="round" transform="translate(90.046454, 158.204143) rotate(10.000000) translate(-90.046454, -158.204143) "></path>
                    <path d="M38.1917606,131.516943 C39.4192737,137.739959 40.8473537,144.397381 44.1856587,149.879358" id="Path" stroke="#2FCFA4" stroke-width="6" stroke-linecap="round" stroke-linejoin="round" transform="translate(41.188710, 140.698150) rotate(10.000000) translate(-41.188710, -140.698150) "></path>
                    <path d="M56.0398866,124.285139 C59.75701,131.863167 63.4644335,139.517986 69.1779963,145.868402" id="Path" stroke="#2FCFA4" stroke-width="6" stroke-linecap="round" stroke-linejoin="round" transform="translate(62.608941, 135.076771) rotate(10.000000) translate(-62.608941, -135.076771) "></path>
                    <path d="M105.763309,77.7015646 C96.0023922,80.4088225 89.4978116,89.5863734 88.2948121,91.11187 C81.0497104,100.298519 73.6811752,109.514447 69.126058,119.606561 C66.9019423,124.535243 66.6889615,130.590869 70.4890683,135.166362 C78.0809361,144.307637 104.668573,154.499159 117.210008,149.3546 C123.185715,146.903328 129.477837,137.340494 131.855233,130.374535 C135.678139,119.174871 137.756164,105.417797 137.504504,93.8638461 C137.387172,88.4762335 136.503989,82.4473062 129.917711,79.0507922 C124.807596,76.4152129 112.158472,75.9279826 105.763309,77.7015646 Z" id="Path" fill="url(#linearGradient-48)" transform="translate(102.526330, 113.695084) rotate(10.000000) translate(-102.526330, -113.695084) "></path>
                    <path d="M108.200734,74.847147 C114.329917,72.5302807 126.448345,73.1830855 131.341251,76.6425575 C133.393814,78.0936247 134.867218,79.9094343 135.924691,81.9422652 C133.010175,85.2995771 128.194852,87.5034157 122.754657,87.5210199 C114.250319,87.5482705 107.30802,82.2228797 106.776515,75.4606477 C107.242871,75.2350142 107.717653,75.029771 108.200734,74.847147 Z" id="Path" fill="#2FCFA4" transform="translate(121.350603, 80.501330) rotate(10.000000) translate(-121.350603, -80.501330) "></path>
                    <path d="M145.59701,68.6994487 C140.308635,77.6854184 130.624471,83.7336686 119.583025,83.7693424 C102.930029,83.8227521 89.4548311,70.178646 89.5098668,53.3198668 C89.5652405,36.4610876 103.13008,22.7300029 119.783075,22.6762788 C127.475353,22.6516925 134.489758,25.5497872 139.805694,30.3368749 C139.690511,30.7208948 139.571295,31.1040488 139.450288,31.4858902 C138.692527,33.8763585 137.528741,36.0268688 136.433264,38.2734014 C136.143365,38.8676062 135.130104,39.9769888 135.070671,40.5941831 C135.015871,41.1665376 137.235388,42.4698708 137.611597,42.7754044 C139.611194,44.3962963 141.121396,46.3079278 141.891051,48.77742 C142.968302,52.2338311 142.994273,56.3563309 142.439886,59.9208242 C142.239204,61.2121666 141.990968,62.5067382 141.717217,63.7855712 C141.139647,66.4852799 140.217664,67.3882617 142.887894,68.1601551 C143.371394,68.3001063 143.859466,68.4132357 144.354778,68.5074449 C144.765371,68.5852272 145.180494,68.649811 145.59701,68.6994487 Z" id="Path" fill="#EBEDF8" transform="translate(117.553439, 53.222811) rotate(10.000000) translate(-117.553439, -53.222811) "></path>
                    <path d="M137.745218,44.8172046 C139.802,46.4454748 141.357701,48.3630785 142.155567,50.8364838 C143.272303,54.2983718 143.312795,58.4233524 142.756037,61.9881341 C142.5545,63.2795815 142.304189,64.5741069 142.027651,65.8528025 L141.974549,66.0897774 C141.391202,68.6058791 140.583247,69.476073 143.243315,70.233698 C143.691747,70.361584 145.223683,71.6284644 145.223683,72.4720889 C144.864101,72.4256601 144.183624,72.4113599 143.829061,72.3447769 C143.122514,72.1947988 142.620512,72.0773945 142.323054,71.992564 C139.581138,71.2116275 140.523945,70.3110881 141.10739,67.6116685 C141.383928,66.3329729 141.634239,65.0384475 141.835776,63.7470001 C142.392534,60.1822184 142.352043,56.0572379 141.235306,52.5953498 C140.43744,50.1219445 138.88174,48.2043408 136.824957,46.5760706 L136.743647,46.5159166 C136.191715,46.1257357 134.159677,44.9261077 134.210956,44.3854029 C134.251209,43.9634681 134.747753,43.3129319 135.152388,42.7538488 C135.379462,43.373332 137.384655,44.5312273 137.745218,44.8172046 Z" id="Shape" fill="#CDD1DC" transform="translate(139.716843, 57.612969) rotate(10.000000) translate(-139.716843, -57.612969) "></path>
                    <path d="M147.215047,42.920374 C145.110507,39.2877609 144.082765,34.929588 148.110871,32.4435404 C149.044042,31.8678417 150.265225,31.3103361 151.382255,31.4943813 C154.096329,31.9409629 157.248855,35.5364123 158.594652,37.749061 C162.445801,44.0794702 155.003684,51.2078752 149.638054,46.893002 L147.215047,42.920374 Z" id="Path" fill="#9BA3AE" transform="translate(152.510777, 39.834795) rotate(10.000000) translate(-152.510777, -39.834795) "></path>
                    <path d="M95.4269507,146.840717 C86.9919133,146.867631 79.2878074,144.377154 73.1781163,137.820351 C71.9708612,132.040346 82.4548304,92.4128796 91.8617645,73.3574141 C95.6266188,65.7310131 101.974861,64.6695211 107.839036,66.4955324 C114.953382,68.7108537 120.704223,74.5079417 118.460502,81.797662 C116.583015,87.8975057 104.925138,130.448999 95.4269507,146.840717 Z" id="Path" fill="url(#linearGradient-49)" transform="translate(96.017855, 106.280530) rotate(10.000000) translate(-96.017855, -106.280530) "></path>
                    <path d="M113.610456,62.4610195 C113.582299,62.4450015 110.306789,70.2148025 111.186912,72.1134708 C111.987066,73.8394106 115.395153,74.493054 116.313505,72.9153018 C117.037385,71.6724948 119.021337,65.6514953 118.737504,63.6796531 L113.610456,62.4610195 Z" id="Path" fill="#17388D" transform="translate(114.900927, 68.136470) rotate(10.000000) translate(-114.900927, -68.136470) "></path>
                    <path d="M118.335741,61.0738534 C120.895303,61.77607 122.713395,63.2721766 122.392367,64.4128523 C122.071341,65.553085 119.732859,65.9091882 117.172853,65.206973 C114.612847,64.5047578 112.795199,63.0086498 113.116226,61.868417 C113.43681,60.7277428 115.775734,60.3720811 118.335741,61.0738534 Z" id="Path" fill="#17388D" transform="translate(117.754293, 63.140521) rotate(10.000000) translate(-117.754293, -63.140521) "></path>
                    <path d="M90.4890619,85.0459583 C90.6713757,85.289579 91.1019789,85.8550899 91.3501382,86.0977369 C91.3501382,86.0977369 91.3513108,86.0965902 91.3889775,86.1345669 C91.3885879,86.1345681 92.1301523,86.800419 92.599046,87.2134153 C93.4463354,87.9543599 94.3405469,88.6433404 95.2652821,89.2910771 C95.2652821,89.2910771 95.9279038,89.7933612 96.5444348,90.2127402 C100.6685,93.0198582 105.689788,94.5253345 110.750919,94.571535 C112.29797,94.5859886 113.839924,94.4911177 115.370554,94.2850376 C115.706324,94.3049113 116.042501,94.3190691 116.379476,94.3278906 C115.920779,96.2738802 115.392661,98.3610552 114.802747,100.521196 C106.943806,101.219283 98.8818186,99.2005045 92.6514642,94.5253666 C92.3331639,94.286755 92.0199483,94.0420314 91.7090804,93.7942524 L91.6605085,93.7551679 C90.5847312,92.8320886 89.5586144,91.8536078 88.5989386,90.8112898 C88.5989386,90.8112898 88.4786119,90.6741436 88.3233645,90.4932972 C88.9925871,88.6228261 89.7142651,86.7952368 90.4890619,85.0459583 Z" id="Path" fill="#2FCFA4" transform="translate(102.351420, 92.850905) rotate(10.000000) translate(-102.351420, -92.850905) "></path>
                    <path d="M75.3599422,113.251473 C77.4982215,115.499801 80.3796613,117.727277 86.5020834,120.014306 C93.5616011,122.651387 101.507326,121.317192 101.808656,121.287376 C101.016166,124.054972 100.384342,126.634616 99.1750998,128.731395 C98.2864808,128.804433 97.3958317,128.847769 96.5048587,128.860107 C92.4895277,128.914356 88.4449716,128.278531 84.6257619,126.909621 C81.1796755,125.674703 78.0153092,123.771961 75.2463188,121.444289 C75.2183165,121.420268 75.1903128,121.396678 75.1623091,121.373088 C74.773679,121.03722 74.1160016,120.408919 73.7440229,120.055345 C73.9409699,117.990238 75.1826517,115.160712 75.3599422,113.251473 Z" id="Path" fill="#2FCFA4" transform="translate(87.776340, 121.057388) rotate(10.000000) translate(-87.776340, -121.057388) "></path>
                    <path d="M133.986037,93.8787151 C132.70265,97.568529 131.019835,102.124202 134.667251,109.65995 C137.745285,116.019405 145.554004,113.684271 148.064948,112.332048 C157.087847,107.472418 166.169178,100.71827 171.572412,91.9076144 C179.999358,78.1662603 170.909796,62.148118 161.37186,51.4394947 C158.937984,48.7069119 156.030345,45.0326807 152.7403,43.2506477 C149.618528,41.560121 146.969215,42.7652613 147.733547,46.3896452 C148.302609,49.0899783 149.805607,51.5990091 150.835478,54.1394037 C153.227984,60.0399851 155.558104,67.6161169 154.481786,74.0729965 C153.493402,79.9995841 147.442375,84.9967623 142.3663,87.5210714 C138.839202,89.2754364 135.130116,90.5882222 133.986037,93.8787151 Z" id="Path" fill="url(#linearGradient-50)" transform="translate(153.682584, 78.193704) rotate(10.000000) translate(-153.682584, -78.193704) "></path>
                    <path d="M171.115337,71.8445249 C173.746337,79.3166121 173.984298,87.2092231 169.496733,94.4909807 C167.27853,98.0900111 164.470851,101.361204 161.307115,104.314361 C161.191122,104.02237 161.078285,103.720698 160.969497,103.40934 C158.192315,95.4585101 160.450975,86.5928488 164.68565,79.5220547 C165.883568,77.5213363 168.366886,73.3859662 171.115337,71.8445249 Z" id="Path" fill="#2FCFA4" transform="translate(166.373896, 88.079443) rotate(10.000000) translate(-166.373896, -88.079443) "></path>
                    <path d="M137.372159,37.7086927 C133.236009,36.2571799 130.631682,36.808172 127.156457,38.9741198 C120.277025,43.2610514 120.328662,58.962124 124.18439,65.4592034 C128.078071,72.0201942 135.356019,71.2797226 140.785308,67.8148445" id="Path" stroke="#FFFFFF" stroke-width="2" stroke-linecap="square" stroke-linejoin="round" transform="translate(131.177275, 53.660765) rotate(10.000000) translate(-131.177275, -53.660765) "></path>
                    <path d="M100.731861,33.5310085 C100.730962,33.5305706 108.718139,26.3709417 118.216452,29.3578639 C131.58655,33.5618042 133.439733,41.3369171 133.767822,41.5769952 C133.974112,41.7284177 137.510921,40.6810927 138.11516,39.8252631 C138.424296,39.3869663 135.366845,32.8637142 129.049832,28.8460396 C122.929283,24.9533693 114.757469,24.2483197 107.779391,27.4341553 L100.731861,33.5310085 Z" id="Path" fill="#2FCFA4" transform="translate(119.434161, 33.509153) rotate(10.000000) translate(-119.434161, -33.509153) "></path>
                    <path d="M134.234444,43.8358534 C132.195371,42.679278 126.30909,41.8793515 125.89099,52.1767687 C125.609851,59.0926432 126.446309,68.1066652 135.906574,65.3876422 C138.833395,64.5465998 139.630119,61.8897838 140.009069,59.1700355 C140.714681,54.102276 138.710121,46.3735724 134.234444,43.8358534 Z" id="Path" fill="#31AD86" transform="translate(132.997472, 54.532706) rotate(10.000000) translate(-132.997472, -54.532706) "></path>
                    <path d="M136.690591,42.6147955 C134.651519,41.4582201 128.765237,40.6582936 128.347138,50.9557108 C128.065998,57.8715853 128.902457,66.8856073 138.362721,64.1665843 C141.289542,63.3255419 142.086266,60.6687259 142.465216,57.9489775 C143.170828,52.8812181 141.166268,45.1525145 136.690591,42.6147955 Z" id="Path" fill="#2FCFA4" transform="translate(135.453619, 53.311648) rotate(10.000000) translate(-135.453619, -53.311648) "></path>
                    <path d="M78.7523295,85.6466687 C80.9050485,85.6056261 83.0214764,85.9973289 84.3042799,87.39261 C85.699807,88.9108776 83.1188359,93.12244 81.1765947,94.8180036 C77.1629805,98.3224835 71.1213079,100.19346 65.7557641,99.9510764 C63.7294117,99.8597147 60.8510013,99.5966129 59.7112405,97.6712286 C59.0681356,96.5848073 59.1451163,95.4448985 59.5778242,94.3935751 C66.1546297,91.8986496 72.5068411,89.0995789 78.6549528,85.6496479 Z" id="Combined-Shape" fill="#2FCFA4" transform="translate(71.971095, 92.807912) rotate(10.000000) translate(-71.971095, -92.807912) "></path>
                </g>
                <g id="Group-4" transform="translate(284.000000, 18.000000)">
                    <path d="M41.3758175,29.0085568 C35.6651692,28.0090646 13.6445042,24.4498197 7.52914706,23.4309906 C-0.481210752,22.0964322 -3.209086,33.4145013 4.86976581,35.1842968 C13.5137713,37.0780383 27.8430917,40.1735162 37.0309834,40.6341132 C45.4057042,41.0538176 47.5477838,30.0888834 41.3758175,29.0085568 Z" id="Path" fill="#DCE0E9"></path>
                    <path d="M16.369615,25.4929589 C16.8502707,22.0289998 19.0832268,11.8551057 26.2656376,13.1395978 C33.7850847,14.4840718 31.9064859,22.631014 31.4821232,27.826404 L16.369615,25.4929589 Z" id="Path" fill="#2FCFA4"></path>
                    <path d="M14.0142539,27.9977048 C15.0787691,29.526148 14.718999,31.6427071 13.2113568,32.7220169 C11.7033536,33.800961 9.61473858,33.4363145 8.55022331,31.9078713 C7.4853472,30.3797939 7.84547812,28.2628691 9.35312042,27.183925 C10.8611236,26.1046152 12.9497386,26.4692617 14.0142539,27.9977048 Z" id="Path" fill="#F07343"></path>
                    <path d="M36.5729561,32.0483169 C37.6374714,33.5763944 37.2777013,35.6933192 35.770059,36.7722633 C34.2620558,37.8515731 32.1734408,37.4869266 31.1089256,35.9584834 C30.0444103,34.4300403 30.4041804,32.3134812 31.9118227,31.2341713 C33.4198258,30.1552273 35.5084408,30.5198738 36.5729561,32.0483169 Z" id="Path" fill="#F07343"></path>
                    <path d="M36.0033358,32.6257817 C37.0346758,34.1062371 36.729122,36.1394093 35.3380414,37.2458781 C36.2222111,36.0977522 36.3046371,34.4534264 35.4337156,33.2032465 C34.3692003,31.6748034 32.2805853,31.3101568 30.7725822,32.3891009 C30.7249506,32.4232 30.6784648,32.4583344 30.6331334,32.4944529 C30.8311937,32.2391059 31.067667,32.008174 31.3422024,31.8116361 C32.8502056,30.732692 34.9388206,31.0973386 36.0033358,32.6257817 Z" id="Combined-Shape" fill="#FFD500"></path>
                    <path d="M25.4064805,30.3076477 C26.4713566,31.8357251 26.1115865,33.95265 24.6035834,35.031594 C23.0959411,36.1109039 21.0073261,35.7462573 19.94245,34.2178142 C18.8779347,32.6897368 19.2377048,30.5728119 20.7457079,29.4935021 C22.2533502,28.414558 24.3419652,28.7792045 25.4064805,30.3076477 Z" id="Path" fill="#F07343"></path>
                    <path d="M19.7437595,18.8454459 C20.0157535,19.2359166 19.9237416,19.7770318 19.5385752,20.0527716 C19.1531711,20.3285114 18.6196443,20.2352323 18.3476503,19.8447616 C18.0756563,19.4540499 18.1674305,18.9131757 18.5528346,18.6374359 C18.938001,18.3616961 19.4717655,18.4547342 19.7437595,18.8454459" id="Fill-4" fill="#454545"></path>
                    <path d="M31.1361646,21.7327173 C31.4081586,22.123203 31.3161466,22.6643391 30.9309803,22.9400895 C30.5455761,23.2158399 30.0120494,23.1225572 29.7400554,22.7320715 C29.4680613,22.3415857 29.5598356,21.8004497 29.9452397,21.5246993 C30.330406,21.2489488 30.8641705,21.3422315 31.1361646,21.7327173" id="Fill-5" fill="#454545"></path>
                    <path d="M26.748794,4.81386888 C26.6150581,4.39139127 27.5205526,0.394087497 28.2585686,0.584019795 C28.6379669,0.681420973 28.3818113,4.24366615 27.9795751,5.1971831 L26.748794,4.81386888 Z" id="Path" fill="#DCE0E9"></path>
                    <path d="M28.3050855,0.0705877126 C29.244708,0.259472079 29.9424398,0.769314198 29.8621698,1.20842584 C29.7818998,1.64753748 28.9538835,1.85066506 28.0141066,1.66178069 C27.0744841,1.47305818 26.3767523,0.963216058 26.4570223,0.524104417 C26.5372923,0.0849927757 27.3653086,-0.118296654 28.3050855,0.0705877126 Z" id="Path" fill="#DCE0E9"></path>
                    <path d="M20.4586941,23.1741914 C20.6590665,22.5953885 21.0029165,19.7065153 24.4873678,20.3101018 C28.1353733,20.9419903 28.0326905,23.5688027 27.7911678,24.2664741 L20.4586941,23.1741914 Z" id="Path" fill="#454545" transform="translate(24.175337, 22.247061) scale(1, -1) rotate(-19.000000) translate(-24.175337, -22.247061) "></path>
                    <path d="M21.1008487,22.6335201 C21.7179489,22.3295116 22.5538268,22.1608334 23.6785791,22.2616043 C25.4739973,22.4224487 26.2452789,23.2499627 26.5757444,24.1034943 C25.914195,24.4538774 24.9860211,24.6316831 23.6982147,24.4237261 C22.1112335,24.1674704 21.372824,23.4401374 21.0393429,22.6654261 L21.1008487,22.6335201 Z" id="Path" fill="#FF3E3E"></path>
                    <path d="M10.7861783,24.9355654 C11.5923231,19.1293833 15.3347258,2.07621491 27.3738521,4.22898265 C39.9780736,6.48269568 36.8292736,20.1384703 36.118033,28.8464634 L10.7861783,24.9355654 Z" id="Path" fill="#FFFFFF" opacity="0.320359003"></path>
                    <path d="M24.6965997,30.8851125 C25.7279397,32.3655678 25.4223858,34.39874 24.0313053,35.5052088 C24.9154749,34.357083 24.997901,32.7127571 24.1269794,31.4625773 C23.0624642,29.9341341 20.9738492,29.5694876 19.465846,30.6484317 C19.4182145,30.6825307 19.3717286,30.7176651 19.3263973,30.7537836 C19.5244576,30.4984366 19.7609308,30.2675047 20.0354663,30.0709669 C21.5434694,28.9920228 23.6320844,29.3566693 24.6965997,30.8851125 Z" id="Combined-Shape" fill="#FFD500"></path>
                    <path d="M13.3041946,28.5752533 C14.3355346,30.0557087 14.0299808,32.0888809 12.6389002,33.1953497 C13.5230699,32.0472238 13.6054959,30.402898 12.7345744,29.1527181 C11.6700591,27.624275 9.58144409,27.2596284 8.07344095,28.3385725 C8.02580939,28.3726716 7.97932358,28.407806 7.93399222,28.4439245 C8.13205253,28.1885775 8.36852577,27.9576456 8.6430612,27.7611077 C10.1510643,26.6821636 12.2396794,27.0468102 13.3041946,28.5752533 Z" id="Combined-Shape" fill="#FFD500"></path>
                </g>
            </g>
        </g>
    </g>
</svg>
