<svg width="258" height="559" viewBox="0 0 258 559" fill="none" xmlns="http://www.w3.org/2000/svg">
  <g clip-path="url(#clip0)">
    <rect width="258" height="558.656" fill="black"/>
    <g opacity="0.5">
      <path d="M17.416 49.0039H19.6416L21.5732 57.4863L23.1521 49.0039H25.7724L23.0933 61.232H20.4226L18.5246 53.2955L16.6349 61.232H13.9642L11.2767 49.0039H13.9054L15.4927 57.4863L17.416 49.0039Z" fill="white"/>
      <path d="M31.475 55.1768C31.475 54.768 31.3742 54.4433 31.1726 54.2025C30.9711 53.9618 30.6491 53.8414 30.2068 53.8414C29.8205 53.8414 29.5209 53.9338 29.3082 54.1186C29.0954 54.3033 28.989 54.5609 28.989 54.8912H26.4527C26.4527 54.3537 26.6123 53.8666 26.9314 53.4299C27.2506 52.9876 27.7013 52.6348 28.2836 52.3717C28.8659 52.1085 29.5517 51.977 30.3412 51.977C31.0467 51.977 31.6765 52.0973 32.2308 52.3381C32.7851 52.5732 33.2218 52.9288 33.541 53.4047C33.8601 53.8806 34.0197 54.4769 34.0197 55.1936V58.9896C34.0197 59.5271 34.0505 59.9527 34.1121 60.2662C34.1793 60.5798 34.2717 60.8541 34.3892 61.0893V61.232H31.8361C31.7353 61.0193 31.6541 60.7533 31.5926 60.4342C31.3574 60.7029 31.0551 60.9325 30.6855 61.1228C30.3216 61.3076 29.8709 61.4 29.3334 61.4C28.7567 61.4 28.2332 61.2852 27.7629 61.0557C27.2982 60.8205 26.9286 60.4986 26.6543 60.0898C26.3799 59.6755 26.2427 59.2024 26.2427 58.6705C26.2427 57.7187 26.5955 56.9824 27.301 56.4617C28.0064 55.9354 29.0562 55.6723 30.4504 55.6723H31.475V55.1768ZM29.8961 59.4768C30.288 59.4768 30.6183 59.3928 30.8871 59.2248C31.1614 59.0512 31.3574 58.8609 31.475 58.6537V57.1336H30.526C29.9101 57.1336 29.4649 57.268 29.1906 57.5367C28.9163 57.7999 28.7791 58.119 28.7791 58.4941C28.7791 58.7797 28.8799 59.0148 29.0814 59.1996C29.283 59.3844 29.5545 59.4768 29.8961 59.4768Z" fill="white"/>
      <path d="M38.5045 61.232H35.9597V48.332H38.5045V61.232Z" fill="white"/>
      <path d="M43.1236 61.232H40.5789V48.332H43.1236V61.232Z" fill="white"/>
      <path d="M49.3133 61.4C48.3558 61.4 47.5356 61.2012 46.8525 60.8037C46.175 60.4062 45.6543 59.8743 45.2904 59.208C44.9321 58.5417 44.7529 57.8055 44.7529 56.9992V56.6717C44.7529 55.7646 44.9237 54.9584 45.2652 54.2529C45.6123 53.5475 46.1051 52.9932 46.7433 52.59C47.3816 52.1813 48.1431 51.977 49.0277 51.977C50.3435 51.977 51.3457 52.3857 52.0343 53.2031C52.723 54.015 53.0674 55.0956 53.0674 56.4449V57.5199H47.3312C47.4208 58.0742 47.6504 58.5193 48.0199 58.8553C48.395 59.1856 48.8793 59.3508 49.4728 59.3508C49.9039 59.3508 50.3043 59.2724 50.6738 59.1156C51.0489 58.9533 51.3709 58.7013 51.6396 58.3598L52.8658 59.7623C52.5802 60.171 52.1379 60.5462 51.5388 60.8877C50.9398 61.2292 50.1979 61.4 49.3133 61.4ZM49.0109 54.0178C48.5126 54.0178 48.1319 54.1857 47.8687 54.5217C47.6056 54.852 47.432 55.2831 47.348 55.815H50.573V55.6135C50.5674 55.1488 50.4386 54.768 50.1867 54.4713C49.9403 54.1689 49.5484 54.0178 49.0109 54.0178Z" fill="white"/>
      <path d="M58.9379 53.9926H57.401V58.3934C57.401 58.7629 57.4737 59.0092 57.6193 59.1324C57.7705 59.2556 58.0056 59.3172 58.3248 59.3172C58.4759 59.3172 58.6103 59.3116 58.7279 59.3004C58.8455 59.2892 58.9463 59.2752 59.0302 59.2584L59.0218 61.1732C58.8147 61.2404 58.5879 61.2936 58.3416 61.3328C58.1008 61.3776 57.8293 61.4 57.5269 61.4C56.7095 61.4 56.06 61.19 55.5785 60.7701C55.1026 60.3502 54.8646 59.6531 54.8646 58.6789V53.9926H53.5713V52.1449H54.8646V49.9025H57.401V52.1449H58.9379V53.9926Z" fill="white"/>
      <path d="M65.1107 58.6957C65.1107 58.4493 64.9903 58.245 64.7496 58.0826C64.5144 57.9146 64.0245 57.7523 63.2799 57.5955C62.664 57.4667 62.1125 57.2876 61.6254 57.058C61.1439 56.8229 60.7603 56.5233 60.4748 56.1594C60.1948 55.7954 60.0549 55.3503 60.0549 54.824C60.0549 54.3145 60.2004 53.8442 60.4916 53.4131C60.7827 52.982 61.1998 52.6348 61.7429 52.3717C62.2916 52.1085 62.9467 51.977 63.7082 51.977C64.9008 51.977 65.8386 52.2541 66.5217 52.8084C67.2103 53.3571 67.5547 54.0598 67.5547 54.9164H65.0183C65.0183 54.5749 64.912 54.2977 64.6992 54.085C64.492 53.8666 64.1589 53.7574 63.6998 53.7574C63.3246 53.7574 63.0279 53.847 62.8095 54.0262C62.5912 54.2053 62.482 54.4293 62.482 54.698C62.482 54.9556 62.6024 55.1656 62.8431 55.3279C63.0895 55.4847 63.5178 55.6191 64.1281 55.7311C64.772 55.8598 65.3543 56.0306 65.875 56.2434C66.3957 56.4505 66.81 56.7445 67.1179 57.1252C67.4259 57.5003 67.5799 57.993 67.5799 58.6033C67.5799 59.1408 67.4203 59.6195 67.1011 60.0395C66.7876 60.4594 66.3397 60.7925 65.7574 61.0389C65.1807 61.2796 64.5004 61.4 63.7166 61.4C62.8599 61.4 62.1377 61.246 61.5498 60.9381C60.9619 60.6301 60.5168 60.241 60.2144 59.7707C59.9121 59.2948 59.7609 58.8105 59.7609 58.3178H62.1629C62.1853 58.7713 62.3504 59.1016 62.6584 59.3088C62.9719 59.5104 63.3442 59.6111 63.7754 59.6111C64.2121 59.6111 64.5424 59.5271 64.7664 59.3592C64.9959 59.1912 65.1107 58.9701 65.1107 58.6957Z" fill="white"/>
    </g>
    <path opacity="0.5" d="M246.87 120.538L243.091 116.716C242.795 116.426 242.324 116.43 242.032 116.725C241.741 117.02 241.737 117.497 242.023 117.797L245.267 121.078L242.023 124.36C241.826 124.552 241.748 124.836 241.817 125.104C241.886 125.371 242.092 125.58 242.357 125.65C242.621 125.72 242.902 125.64 243.091 125.441L246.87 121.619C247.165 121.32 247.165 120.837 246.87 120.538Z" fill="#9BA3AE"/>
    <g opacity="0.5">
      <path d="M213.796 117.648H211.97V111.003L209.908 111.625V110.15L213.609 108.832H213.796V117.648Z" fill="white"/>
      <path d="M216.771 116.747C216.771 116.473 216.864 116.243 217.049 116.058C217.239 115.872 217.489 115.78 217.799 115.78C218.109 115.78 218.357 115.872 218.543 116.058C218.728 116.243 218.821 116.473 218.821 116.747C218.821 117.021 218.728 117.251 218.543 117.436C218.357 117.622 218.109 117.715 217.799 117.715C217.489 117.715 217.239 117.622 217.049 117.436C216.864 117.251 216.771 117.021 216.771 116.747Z" fill="white"/>
      <path d="M226.325 117.648H220.26V116.402L223.102 113.379C223.521 112.923 223.812 112.544 223.973 112.242C224.138 111.936 224.221 111.658 224.221 111.408C224.221 111.029 224.126 110.73 223.937 110.513C223.751 110.295 223.483 110.186 223.132 110.186C222.741 110.186 222.439 110.325 222.225 110.603C222.016 110.878 221.911 111.22 221.911 111.631H220.085C220.085 111.099 220.21 110.613 220.46 110.174C220.71 109.731 221.064 109.378 221.524 109.116C221.987 108.85 222.536 108.717 223.169 108.717C224.104 108.717 224.817 108.941 225.309 109.388C225.805 109.835 226.053 110.45 226.053 111.232C226.053 111.829 225.874 112.393 225.515 112.925C225.16 113.454 224.682 114.026 224.082 114.643L222.618 116.179H226.325V117.648Z" fill="white"/>
      <path d="M227.613 113.331L228.127 108.844H233.11V110.349H229.627L229.415 112.176C229.528 112.115 229.699 112.047 229.929 111.97C230.163 111.893 230.425 111.855 230.715 111.855C231.57 111.855 232.231 112.115 232.698 112.635C233.17 113.155 233.406 113.883 233.406 114.818C233.406 115.334 233.297 115.818 233.079 116.269C232.866 116.717 232.537 117.08 232.094 117.358C231.65 117.632 231.09 117.769 230.413 117.769C229.901 117.769 229.417 117.666 228.962 117.461C228.506 117.255 228.133 116.959 227.843 116.572C227.557 116.185 227.409 115.721 227.401 115.181H229.215C229.248 115.528 229.369 115.802 229.578 116.003C229.788 116.201 230.062 116.3 230.401 116.3C230.828 116.3 231.13 116.144 231.308 115.834C231.489 115.524 231.58 115.147 231.58 114.703C231.58 114.256 231.469 113.895 231.247 113.621C231.026 113.347 230.679 113.21 230.207 113.21C229.897 113.21 229.657 113.26 229.488 113.361C229.318 113.462 229.179 113.57 229.07 113.687L227.613 113.331Z" fill="white"/>
    </g>
    <g opacity="0.5">
      <path d="M190.021 135.138H189.541V134.254C189.209 134.232 188.891 134.151 188.587 134.01C188.286 133.868 188.039 133.652 187.848 133.361C187.66 133.066 187.566 132.675 187.566 132.189H188.126C188.126 132.594 188.209 132.911 188.375 133.14C188.541 133.368 188.748 133.53 188.996 133.624C189.247 133.715 189.499 133.76 189.753 133.76C190.23 133.76 190.599 133.635 190.863 133.384C191.129 133.133 191.263 132.829 191.263 132.472C191.263 132.127 191.15 131.845 190.924 131.625C190.701 131.402 190.302 131.191 189.725 130.99C189.33 130.862 188.988 130.716 188.699 130.553C188.414 130.39 188.193 130.186 188.036 129.941C187.883 129.694 187.806 129.383 187.806 129.01C187.806 128.496 187.963 128.081 188.276 127.764C188.593 127.444 189.019 127.264 189.555 127.223V126.273H190.04V127.223C190.585 127.273 191.01 127.479 191.314 127.839C191.622 128.197 191.775 128.692 191.775 129.325H191.216C191.216 128.861 191.093 128.477 190.849 128.173C190.604 127.866 190.25 127.712 189.786 127.712C189.3 127.712 188.942 127.839 188.714 128.093C188.485 128.347 188.37 128.648 188.37 128.996C188.37 129.228 188.413 129.43 188.497 129.603C188.582 129.772 188.735 129.927 188.958 130.068C189.181 130.209 189.501 130.349 189.918 130.487C190.309 130.619 190.648 130.766 190.933 130.929C191.219 131.089 191.438 131.291 191.592 131.536C191.745 131.78 191.822 132.089 191.822 132.462C191.822 132.986 191.659 133.403 191.333 133.713C191.007 134.024 190.57 134.202 190.021 134.249V135.138Z" fill="white"/>
      <path d="M194.837 130.426C195.361 130.426 195.757 130.296 196.027 130.035C196.3 129.775 196.436 129.462 196.436 129.095C196.436 128.684 196.318 128.349 196.083 128.088C195.851 127.825 195.489 127.693 194.997 127.693C194.567 127.693 194.208 127.82 193.92 128.074C193.635 128.328 193.492 128.673 193.492 129.109H192.932C192.932 128.736 193.022 128.408 193.2 128.126C193.379 127.841 193.624 127.618 193.934 127.458C194.248 127.298 194.602 127.218 194.997 127.218C195.599 127.218 196.082 127.383 196.445 127.712C196.812 128.041 196.996 128.509 196.996 129.114C196.996 129.421 196.897 129.719 196.699 130.007C196.502 130.293 196.21 130.507 195.825 130.652C196.276 130.774 196.605 130.984 196.812 131.282C197.019 131.58 197.123 131.918 197.123 132.298C197.123 132.715 197.032 133.069 196.85 133.361C196.668 133.649 196.417 133.87 196.097 134.024C195.781 134.177 195.422 134.254 195.02 134.254C194.65 134.254 194.298 134.182 193.962 134.038C193.63 133.894 193.357 133.677 193.144 133.389C192.934 133.097 192.829 132.735 192.829 132.302H193.393C193.393 132.738 193.544 133.094 193.845 133.37C194.149 133.643 194.541 133.779 195.02 133.779C195.506 133.779 195.884 133.654 196.154 133.403C196.427 133.149 196.563 132.787 196.563 132.316C196.563 131.821 196.403 131.464 196.083 131.244C195.764 131.022 195.348 130.91 194.837 130.91H194.263V130.426H194.837Z" fill="white"/>
      <path d="M202.644 134.16H198.35V133.723L200.594 131.183C201.014 130.706 201.309 130.313 201.478 130.003C201.65 129.689 201.736 129.39 201.736 129.104C201.736 128.69 201.614 128.352 201.37 128.088C201.125 127.825 200.771 127.693 200.307 127.693C199.83 127.693 199.454 127.844 199.178 128.145C198.902 128.446 198.764 128.825 198.764 129.283H198.2C198.2 128.907 198.283 128.562 198.449 128.248C198.618 127.935 198.86 127.685 199.173 127.5C199.49 127.312 199.868 127.218 200.307 127.218C200.921 127.218 201.407 127.381 201.765 127.707C202.122 128.03 202.301 128.479 202.301 129.052C202.301 129.328 202.237 129.606 202.108 129.885C201.983 130.164 201.816 130.441 201.61 130.717C201.406 130.993 201.188 131.263 200.956 131.526L199.042 133.685H202.644V134.16Z" fill="white"/>
      <path d="M204.328 133.93C204.328 134.218 204.268 134.496 204.149 134.762C204.033 135.032 203.872 135.257 203.665 135.439L203.331 135.199C203.475 135.002 203.585 134.804 203.66 134.607C203.735 134.412 203.773 134.191 203.773 133.944V133.271H204.328V133.93Z" fill="white"/>
      <path d="M207.376 130.426C207.899 130.426 208.296 130.296 208.565 130.035C208.838 129.775 208.975 129.462 208.975 129.095C208.975 128.684 208.857 128.349 208.622 128.088C208.39 127.825 208.028 127.693 207.535 127.693C207.106 127.693 206.747 127.82 206.458 128.074C206.173 128.328 206.03 128.673 206.03 129.109H205.471C205.471 128.736 205.56 128.408 205.739 128.126C205.918 127.841 206.162 127.618 206.473 127.458C206.786 127.298 207.14 127.218 207.535 127.218C208.137 127.218 208.62 127.383 208.984 127.712C209.351 128.041 209.534 128.509 209.534 129.114C209.534 129.421 209.436 129.719 209.238 130.007C209.04 130.293 208.749 130.507 208.363 130.652C208.815 130.774 209.144 130.984 209.351 131.282C209.558 131.58 209.661 131.918 209.661 132.298C209.661 132.715 209.57 133.069 209.388 133.361C209.207 133.649 208.956 133.87 208.636 134.024C208.319 134.177 207.96 134.254 207.559 134.254C207.189 134.254 206.836 134.182 206.501 134.038C206.168 133.894 205.896 133.677 205.682 133.389C205.472 133.097 205.367 132.735 205.367 132.302H205.932C205.932 132.738 206.082 133.094 206.383 133.37C206.687 133.643 207.079 133.779 207.559 133.779C208.045 133.779 208.423 133.654 208.692 133.403C208.965 133.149 209.102 132.787 209.102 132.316C209.102 131.821 208.942 131.464 208.622 131.244C208.302 131.022 207.887 130.91 207.376 130.91H206.802V130.426H207.376Z" fill="white"/>
      <path d="M214.209 127.261V127.75H214.129C213.311 127.75 212.67 127.994 212.206 128.483C211.742 128.969 211.483 129.637 211.43 130.487C211.618 130.227 211.859 130.024 212.154 129.88C212.449 129.736 212.775 129.664 213.132 129.664C213.568 129.664 213.932 129.767 214.223 129.974C214.515 130.181 214.734 130.456 214.882 130.797C215.029 131.139 215.103 131.511 215.103 131.912C215.103 132.351 215.021 132.748 214.858 133.102C214.695 133.456 214.462 133.737 214.157 133.944C213.856 134.151 213.496 134.254 213.076 134.254C212.615 134.254 212.218 134.141 211.886 133.916C211.557 133.687 211.303 133.383 211.124 133.003C210.945 132.621 210.856 132.199 210.856 131.738V131.136C210.856 130.355 210.975 129.675 211.213 129.095C211.452 128.515 211.812 128.065 212.295 127.745C212.781 127.422 213.392 127.261 214.129 127.261H214.209ZM211.42 131.747C211.42 132.171 211.494 132.534 211.641 132.839C211.789 133.14 211.986 133.372 212.234 133.535C212.485 133.694 212.765 133.774 213.076 133.774C213.38 133.774 213.642 133.691 213.861 133.525C214.081 133.359 214.248 133.138 214.364 132.862C214.484 132.583 214.543 132.274 214.543 131.936C214.543 131.613 214.488 131.316 214.378 131.047C214.269 130.774 214.103 130.556 213.88 130.393C213.66 130.227 213.381 130.144 213.043 130.144C212.795 130.144 212.56 130.194 212.337 130.294C212.115 130.394 211.922 130.531 211.759 130.703C211.599 130.873 211.486 131.062 211.42 131.272V131.747Z" fill="white"/>
      <path d="M220.455 127.632L217.525 134.16H216.942L219.844 127.787H215.949V127.312H220.455V127.632Z" fill="white"/>
      <path d="M221.617 133.817C221.617 133.707 221.651 133.615 221.72 133.539C221.792 133.464 221.889 133.426 222.012 133.426C222.137 133.426 222.236 133.464 222.308 133.539C222.38 133.615 222.416 133.707 222.416 133.817C222.416 133.927 222.38 134.017 222.308 134.09C222.236 134.162 222.137 134.198 222.012 134.198C221.889 134.198 221.792 134.162 221.72 134.09C221.651 134.017 221.617 133.927 221.617 133.817Z" fill="white"/>
      <path d="M228.173 134.16H223.879V133.723L226.122 131.183C226.542 130.706 226.837 130.313 227.006 130.003C227.179 129.689 227.265 129.39 227.265 129.104C227.265 128.69 227.143 128.352 226.898 128.088C226.654 127.825 226.299 127.693 225.835 127.693C225.359 127.693 224.982 127.844 224.707 128.145C224.431 128.446 224.293 128.825 224.293 129.283H223.728C223.728 128.907 223.811 128.562 223.978 128.248C224.147 127.935 224.388 127.685 224.702 127.5C225.019 127.312 225.396 127.218 225.835 127.218C226.45 127.218 226.936 127.381 227.293 127.707C227.651 128.03 227.829 128.479 227.829 129.052C227.829 129.328 227.765 129.606 227.637 129.885C227.511 130.164 227.345 130.441 227.138 130.717C226.934 130.993 226.716 131.263 226.484 131.526L224.57 133.685H228.173V134.16Z" fill="white"/>
      <path d="M231.051 130.426C231.575 130.426 231.971 130.296 232.241 130.035C232.514 129.775 232.65 129.462 232.65 129.095C232.65 128.684 232.533 128.349 232.297 128.088C232.065 127.825 231.703 127.693 231.211 127.693C230.781 127.693 230.422 127.82 230.134 128.074C229.849 128.328 229.706 128.673 229.706 129.109H229.146C229.146 128.736 229.236 128.408 229.414 128.126C229.593 127.841 229.838 127.618 230.148 127.458C230.462 127.298 230.816 127.218 231.211 127.218C231.813 127.218 232.296 127.383 232.66 127.712C233.026 128.041 233.21 128.509 233.21 129.114C233.21 129.421 233.111 129.719 232.914 130.007C232.716 130.293 232.424 130.507 232.039 130.652C232.49 130.774 232.819 130.984 233.026 131.282C233.233 131.58 233.337 131.918 233.337 132.298C233.337 132.715 233.246 133.069 233.064 133.361C232.882 133.649 232.631 133.87 232.312 134.024C231.995 134.177 231.636 134.254 231.234 134.254C230.865 134.254 230.512 134.182 230.176 134.038C229.844 133.894 229.571 133.677 229.358 133.389C229.148 133.097 229.043 132.735 229.043 132.302H229.607C229.607 132.738 229.758 133.094 230.059 133.37C230.363 133.643 230.755 133.779 231.234 133.779C231.72 133.779 232.098 133.654 232.368 133.403C232.641 133.149 232.777 132.787 232.777 132.316C232.777 131.821 232.617 131.464 232.297 131.244C231.978 131.022 231.562 130.91 231.051 130.91H230.477V130.426H231.051Z" fill="white"/>
    </g>
    <g opacity="0.5">
      <path d="M62.9298 122.646C62.9298 123.489 62.6577 124.128 62.1135 124.563C61.5733 124.998 60.8235 125.216 59.8641 125.216H56.6108V116.412H59.6161C60.5877 116.412 61.3476 116.605 61.8958 116.992C62.4481 117.375 62.7242 117.976 62.7242 118.794C62.7242 119.197 62.6154 119.564 62.3977 119.895C62.18 120.221 61.8595 120.471 61.4362 120.645C61.9482 120.774 62.3251 121.025 62.567 121.4C62.8089 121.775 62.9298 122.191 62.9298 122.646ZM59.6161 117.669H58.1709V120.124H59.6343C60.1221 120.124 60.499 120.018 60.765 119.804C61.0311 119.59 61.1641 119.288 61.1641 118.897C61.1641 118.466 61.0372 118.153 60.7832 117.96C60.5332 117.766 60.1442 117.669 59.6161 117.669ZM61.3758 122.64C61.3758 122.217 61.2629 121.882 61.0372 121.636C60.8114 121.386 60.4425 121.261 59.9306 121.261H58.1709V123.964H59.8641C60.3639 123.964 60.7409 123.841 60.9948 123.595C61.2488 123.349 61.3758 123.031 61.3758 122.64Z" fill="white"/>
      <path d="M67.9245 125.216H66.3765V117.669H63.6554V116.412H70.6698V117.669H67.9245V125.216Z" fill="white"/>
      <path d="M78.567 122.338C78.5146 122.918 78.3514 123.434 78.0772 123.886C77.8031 124.337 77.4181 124.692 76.9223 124.95C76.4265 125.208 75.8197 125.337 75.1022 125.337C74.3766 125.337 73.7477 125.168 73.2156 124.829C72.6834 124.486 72.2722 124.003 71.982 123.378C71.6917 122.753 71.5466 122.015 71.5466 121.165V120.469C71.5466 119.619 71.6938 118.881 71.988 118.256C72.2823 117.631 72.6996 117.147 73.2397 116.805C73.784 116.462 74.4249 116.291 75.1627 116.291C75.8681 116.291 76.4627 116.422 76.9465 116.684C77.4343 116.942 77.8112 117.301 78.0772 117.76C78.3473 118.216 78.5106 118.74 78.567 119.332H77.013C76.9525 118.772 76.7852 118.337 76.5111 118.026C76.241 117.716 75.7915 117.561 75.1627 117.561C74.4814 117.561 73.9694 117.811 73.6267 118.31C73.2881 118.806 73.1188 119.522 73.1188 120.457V121.165C73.1188 122.055 73.274 122.763 73.5844 123.287C73.8948 123.807 74.4007 124.067 75.1022 124.067C75.7432 124.067 76.2027 123.92 76.4809 123.626C76.7631 123.327 76.9384 122.898 77.007 122.338H78.567Z" fill="white"/>
    </g>
    <g opacity="0.5">
      <rect x="11.008" y="105.264" width="34.4" height="34.4" rx="8" fill="#F7931A"/>
      <path fill-rule="evenodd" clip-rule="evenodd" d="M32.2935 120.495C31.8291 122.38 28.7774 121.469 27.7824 121.236L28.6229 117.892C29.5955 118.124 32.7798 118.527 32.2935 120.495ZM31.8067 125.894C31.2985 127.968 27.6274 126.889 26.4555 126.613L27.3624 122.93C28.5562 123.205 32.3373 123.713 31.8067 125.894ZM35.7428 120.495C36.0303 118.463 34.416 117.405 32.2048 116.685L32.8904 113.933L31.1435 113.531L30.4804 116.219C30.016 116.113 29.5516 116.007 29.0873 115.923L29.7504 113.234L27.9817 112.832L27.2961 115.584C26.9199 115.499 26.5442 115.436 26.168 115.351L23.758 114.801L23.3156 116.579C23.3156 116.579 24.6205 116.854 24.5762 116.876C25.2837 117.045 25.4162 117.489 25.3943 117.828L24.6205 120.961C24.6643 120.982 24.7311 120.982 24.7974 121.024C24.7311 121.003 24.6868 121.003 24.6205 120.982L23.5587 125.364C23.4705 125.576 23.2493 125.872 22.763 125.767C22.785 125.788 21.4806 125.47 21.4806 125.47L20.64 127.397L22.9175 127.905C23.338 128.011 23.758 128.095 24.1561 128.201L23.4705 130.974L25.2174 131.376L25.903 128.624C26.3893 128.751 26.8536 128.857 27.2961 128.963L26.6105 131.694L28.3573 132.096L29.0429 129.323C32.0279 129.831 34.2611 129.598 35.1679 126.995C35.8978 124.92 35.1016 123.734 33.5097 122.951C34.6816 122.697 35.5216 121.977 35.7428 120.495Z" fill="white"/>
    </g>
    <path opacity="0.5" d="M246.87 176.954L243.091 173.132C242.795 172.842 242.324 172.846 242.032 173.141C241.741 173.436 241.737 173.913 242.023 174.213L245.267 177.494L242.023 180.776C241.826 180.968 241.748 181.252 241.817 181.52C241.886 181.787 242.092 181.996 242.357 182.066C242.621 182.136 242.902 182.056 243.091 181.857L246.87 178.035C247.165 177.736 247.165 177.253 246.87 176.954Z" fill="#9BA3AE"/>
    <g opacity="0.5">
      <path d="M212.224 168.858C212.647 168.858 212.962 168.751 213.167 168.537C213.373 168.324 213.476 168.037 213.476 167.679C213.476 167.372 213.383 167.116 213.197 166.911C213.012 166.705 212.724 166.602 212.333 166.602C212.03 166.602 211.766 166.687 211.541 166.856C211.315 167.021 211.202 167.247 211.202 167.533H209.376C209.376 167.05 209.507 166.628 209.769 166.27C210.031 165.907 210.382 165.627 210.821 165.429C211.26 165.232 211.748 165.133 212.284 165.133C213.183 165.133 213.911 165.346 214.467 165.774C215.028 166.197 215.308 166.822 215.308 167.648C215.308 168.031 215.191 168.394 214.957 168.737C214.723 169.075 214.397 169.343 213.977 169.541C214.457 169.714 214.82 169.978 215.066 170.333C215.316 170.688 215.441 171.107 215.441 171.591C215.441 172.139 215.302 172.607 215.024 172.994C214.745 173.381 214.368 173.677 213.893 173.883C213.417 174.084 212.881 174.185 212.284 174.185C211.784 174.185 211.303 174.094 210.839 173.913C210.38 173.731 210.001 173.453 209.702 173.078C209.408 172.704 209.261 172.226 209.261 171.645H211.099C211.099 171.952 211.216 172.208 211.45 172.413C211.684 172.615 211.978 172.716 212.333 172.716C212.732 172.716 213.044 172.609 213.27 172.395C213.5 172.177 213.615 171.899 213.615 171.561C213.615 171.101 213.49 170.775 213.24 170.581C212.994 170.384 212.655 170.285 212.224 170.285H211.281V168.858H212.224Z" fill="white"/>
      <path d="M216.771 173.163C216.771 172.889 216.864 172.659 217.049 172.474C217.239 172.288 217.489 172.196 217.799 172.196C218.109 172.196 218.357 172.288 218.543 172.474C218.728 172.659 218.821 172.889 218.821 173.163C218.821 173.437 218.728 173.667 218.543 173.852C218.357 174.038 218.109 174.131 217.799 174.131C217.489 174.131 217.239 174.038 217.049 173.852C216.864 173.667 216.771 173.437 216.771 173.163Z" fill="white"/>
      <path d="M222.999 168.858C223.423 168.858 223.737 168.751 223.943 168.537C224.148 168.324 224.251 168.037 224.251 167.679C224.251 167.372 224.158 167.116 223.973 166.911C223.787 166.705 223.499 166.602 223.108 166.602C222.806 166.602 222.542 166.687 222.316 166.856C222.09 167.021 221.977 167.247 221.977 167.533H220.151C220.151 167.05 220.282 166.628 220.544 166.27C220.806 165.907 221.157 165.627 221.596 165.429C222.036 165.232 222.524 165.133 223.06 165.133C223.959 165.133 224.686 165.346 225.243 165.774C225.803 166.197 226.083 166.822 226.083 167.648C226.083 168.031 225.966 168.394 225.733 168.737C225.499 169.075 225.172 169.343 224.753 169.541C225.233 169.714 225.595 169.978 225.841 170.333C226.091 170.688 226.216 171.107 226.216 171.591C226.216 172.139 226.077 172.607 225.799 172.994C225.521 173.381 225.144 173.677 224.668 173.883C224.193 174.084 223.656 174.185 223.06 174.185C222.56 174.185 222.078 174.094 221.615 173.913C221.155 173.731 220.776 173.453 220.478 173.078C220.184 172.704 220.036 172.226 220.036 171.645H221.875C221.875 171.952 221.992 172.208 222.225 172.413C222.459 172.615 222.753 172.716 223.108 172.716C223.507 172.716 223.82 172.609 224.045 172.395C224.275 172.177 224.39 171.899 224.39 171.561C224.39 171.101 224.265 170.775 224.015 170.581C223.769 170.384 223.431 170.285 222.999 170.285H222.056V168.858H222.999Z" fill="white"/>
      <path d="M230.123 168.858C230.546 168.858 230.86 168.751 231.066 168.537C231.271 168.324 231.374 168.037 231.374 167.679C231.374 167.372 231.282 167.116 231.096 166.911C230.911 166.705 230.622 166.602 230.231 166.602C229.929 166.602 229.665 166.687 229.439 166.856C229.214 167.021 229.101 167.247 229.101 167.533H227.275C227.275 167.05 227.406 166.628 227.668 166.27C227.93 165.907 228.28 165.627 228.72 165.429C229.159 165.232 229.647 165.133 230.183 165.133C231.082 165.133 231.81 165.346 232.366 165.774C232.926 166.197 233.206 166.822 233.206 167.648C233.206 168.031 233.09 168.394 232.856 168.737C232.622 169.075 232.295 169.343 231.876 169.541C232.356 169.714 232.719 169.978 232.965 170.333C233.215 170.688 233.34 171.107 233.34 171.591C233.34 172.139 233.2 172.607 232.922 172.994C232.644 173.381 232.267 173.677 231.792 173.883C231.316 174.084 230.78 174.185 230.183 174.185C229.683 174.185 229.201 174.094 228.738 173.913C228.278 173.731 227.899 173.453 227.601 173.078C227.307 172.704 227.16 172.226 227.16 171.645H228.998C228.998 171.952 229.115 172.208 229.349 172.413C229.582 172.615 229.877 172.716 230.231 172.716C230.631 172.716 230.943 172.609 231.169 172.395C231.398 172.177 231.513 171.899 231.513 171.561C231.513 171.101 231.388 170.775 231.138 170.581C230.893 170.384 230.554 170.285 230.123 170.285H229.179V168.858H230.123Z" fill="white"/>
    </g>
    <g opacity="0.5">
      <path d="M195.364 191.554H194.884V190.67C194.552 190.648 194.233 190.567 193.929 190.426C193.628 190.285 193.382 190.068 193.191 189.777C193.003 189.482 192.909 189.091 192.909 188.605H193.468C193.468 189.01 193.552 189.327 193.718 189.556C193.884 189.784 194.091 189.946 194.339 190.04C194.589 190.131 194.842 190.176 195.096 190.176C195.572 190.176 195.942 190.051 196.206 189.8C196.472 189.549 196.605 189.245 196.605 188.888C196.605 188.543 196.493 188.261 196.267 188.041C196.044 187.819 195.644 187.607 195.067 187.406C194.672 187.278 194.331 187.132 194.042 186.969C193.757 186.806 193.536 186.602 193.379 186.357C193.225 186.11 193.149 185.799 193.149 185.426C193.149 184.912 193.305 184.497 193.619 184.18C193.936 183.86 194.362 183.68 194.898 183.639V182.689H195.383V183.639C195.928 183.689 196.353 183.895 196.657 184.255C196.964 184.613 197.118 185.108 197.118 185.741H196.558C196.558 185.277 196.436 184.893 196.192 184.589C195.947 184.282 195.593 184.128 195.129 184.128C194.643 184.128 194.285 184.255 194.056 184.509C193.827 184.763 193.713 185.064 193.713 185.412C193.713 185.644 193.755 185.846 193.84 186.019C193.925 186.188 194.078 186.343 194.301 186.484C194.523 186.625 194.843 186.765 195.26 186.903C195.652 187.035 195.991 187.182 196.276 187.345C196.562 187.505 196.781 187.707 196.935 187.952C197.088 188.196 197.165 188.505 197.165 188.878C197.165 189.402 197.002 189.819 196.676 190.129C196.35 190.44 195.912 190.618 195.364 190.665V191.554Z" fill="white"/>
      <path d="M200.97 190.576H200.406V184.406L198.548 185.097V184.566L200.876 183.7H200.97V190.576Z" fill="white"/>
      <path d="M204.328 190.346C204.328 190.634 204.268 190.912 204.149 191.178C204.033 191.448 203.872 191.673 203.665 191.855L203.331 191.615C203.475 191.418 203.585 191.22 203.66 191.023C203.735 190.828 203.773 190.607 203.773 190.36V189.687H204.328V190.346Z" fill="white"/>
      <path d="M205.932 187.063L206.266 183.728H209.689V184.246H206.75L206.505 186.564C206.625 186.48 206.797 186.397 207.023 186.315C207.252 186.23 207.509 186.188 207.794 186.188C208.406 186.188 208.896 186.386 209.266 186.781C209.639 187.173 209.826 187.71 209.826 188.394C209.826 188.83 209.754 189.22 209.61 189.565C209.465 189.907 209.243 190.176 208.942 190.374C208.641 190.571 208.253 190.67 207.78 190.67C207.416 190.67 207.082 190.601 206.778 190.463C206.477 190.325 206.23 190.117 206.035 189.838C205.844 189.556 205.729 189.201 205.692 188.775H206.233C206.286 189.236 206.444 189.588 206.708 189.833C206.974 190.074 207.332 190.195 207.78 190.195C208.266 190.195 208.633 190.04 208.881 189.73C209.131 189.416 209.257 188.974 209.257 188.403C209.257 187.92 209.122 187.516 208.852 187.19C208.586 186.864 208.2 186.701 207.695 186.701C207.369 186.701 207.109 186.745 206.915 186.832C206.723 186.92 206.545 187.039 206.378 187.19L205.932 187.063Z" fill="white"/>
      <path d="M214.209 183.677V184.166H214.129C213.311 184.166 212.67 184.41 212.206 184.899C211.742 185.385 211.483 186.053 211.43 186.903C211.618 186.643 211.859 186.44 212.154 186.296C212.449 186.152 212.775 186.08 213.132 186.08C213.568 186.08 213.932 186.183 214.223 186.39C214.515 186.597 214.734 186.872 214.882 187.213C215.029 187.555 215.103 187.927 215.103 188.328C215.103 188.767 215.021 189.164 214.858 189.518C214.695 189.872 214.462 190.153 214.157 190.36C213.856 190.567 213.496 190.67 213.076 190.67C212.615 190.67 212.218 190.557 211.886 190.332C211.557 190.103 211.303 189.799 211.124 189.419C210.945 189.037 210.856 188.615 210.856 188.154V187.552C210.856 186.771 210.975 186.091 211.213 185.511C211.452 184.931 211.812 184.481 212.295 184.161C212.781 183.838 213.392 183.677 214.129 183.677H214.209ZM211.42 188.163C211.42 188.587 211.494 188.95 211.641 189.255C211.789 189.556 211.986 189.788 212.234 189.951C212.485 190.11 212.765 190.19 213.076 190.19C213.38 190.19 213.642 190.107 213.861 189.941C214.081 189.775 214.248 189.554 214.364 189.278C214.484 188.999 214.543 188.69 214.543 188.352C214.543 188.029 214.488 187.732 214.379 187.463C214.269 187.19 214.103 186.972 213.88 186.809C213.661 186.643 213.381 186.56 213.043 186.56C212.795 186.56 212.56 186.61 212.337 186.71C212.115 186.81 211.922 186.947 211.759 187.119C211.599 187.289 211.486 187.478 211.42 187.688V188.163Z" fill="white"/>
      <path d="M220.446 188.761C220.446 189.175 220.348 189.524 220.154 189.809C219.963 190.092 219.702 190.306 219.373 190.454C219.044 190.598 218.676 190.67 218.268 190.67C217.857 190.67 217.487 190.598 217.158 190.454C216.829 190.306 216.567 190.092 216.373 189.809C216.181 189.524 216.086 189.175 216.086 188.761C216.086 188.359 216.203 188.01 216.438 187.712C216.674 187.411 216.986 187.193 217.374 187.058C217.036 186.923 216.765 186.72 216.561 186.447C216.36 186.171 216.26 185.851 216.26 185.487C216.26 185.092 216.348 184.757 216.523 184.481C216.699 184.205 216.937 183.995 217.238 183.851C217.539 183.706 217.879 183.634 218.259 183.634C218.638 183.634 218.98 183.706 219.284 183.851C219.588 183.995 219.828 184.205 220.003 184.481C220.179 184.757 220.267 185.092 220.267 185.487C220.267 185.851 220.163 186.171 219.956 186.447C219.753 186.72 219.483 186.923 219.147 187.058C219.533 187.193 219.845 187.411 220.083 187.712C220.325 188.01 220.446 188.359 220.446 188.761ZM219.707 185.483C219.707 185.219 219.643 184.984 219.514 184.777C219.389 184.57 219.216 184.407 218.997 184.288C218.781 184.169 218.535 184.109 218.259 184.109C217.842 184.109 217.498 184.233 217.229 184.481C216.959 184.725 216.824 185.059 216.824 185.483C216.824 185.893 216.959 186.219 217.229 186.461C217.498 186.702 217.843 186.823 218.263 186.823C218.677 186.823 219.02 186.702 219.293 186.461C219.569 186.219 219.707 185.893 219.707 185.483ZM219.881 188.761C219.881 188.469 219.811 188.214 219.67 187.994C219.528 187.775 219.336 187.605 219.091 187.486C218.846 187.364 218.569 187.303 218.259 187.303C217.791 187.303 217.406 187.436 217.102 187.702C216.801 187.969 216.65 188.322 216.65 188.761C216.65 189.218 216.801 189.573 217.102 189.824C217.406 190.071 217.795 190.195 218.268 190.195C218.738 190.195 219.124 190.071 219.425 189.824C219.729 189.573 219.881 189.218 219.881 188.761Z" fill="white"/>
      <path d="M221.617 190.233C221.617 190.123 221.651 190.031 221.72 189.955C221.792 189.88 221.889 189.842 222.012 189.842C222.137 189.842 222.236 189.88 222.308 189.955C222.38 190.031 222.416 190.123 222.416 190.233C222.416 190.343 222.38 190.433 222.308 190.506C222.236 190.578 222.137 190.614 222.012 190.614C221.889 190.614 221.792 190.578 221.72 190.506C221.651 190.433 221.617 190.343 221.617 190.233Z" fill="white"/>
      <path d="M227.336 190.576H226.771V188.845H223.554V188.521L226.72 183.728H227.336V188.366H228.403V188.845H227.336V190.576ZM224.241 188.366H226.771V184.453L226.522 184.89L224.241 188.366Z" fill="white"/>
      <path d="M231.051 186.842C231.575 186.842 231.971 186.712 232.241 186.451C232.514 186.191 232.65 185.878 232.65 185.511C232.65 185.1 232.533 184.765 232.297 184.504C232.065 184.241 231.703 184.109 231.211 184.109C230.781 184.109 230.422 184.236 230.134 184.49C229.849 184.744 229.706 185.089 229.706 185.525H229.146C229.146 185.152 229.236 184.824 229.414 184.542C229.593 184.257 229.838 184.034 230.148 183.874C230.462 183.714 230.816 183.634 231.211 183.634C231.813 183.634 232.296 183.799 232.66 184.128C233.026 184.457 233.21 184.925 233.21 185.53C233.21 185.837 233.111 186.135 232.914 186.423C232.716 186.709 232.424 186.923 232.039 187.068C232.49 187.19 232.819 187.4 233.026 187.698C233.233 187.996 233.337 188.334 233.337 188.714C233.337 189.131 233.246 189.485 233.064 189.777C232.882 190.065 232.631 190.286 232.312 190.44C231.995 190.593 231.636 190.67 231.235 190.67C230.865 190.67 230.512 190.598 230.176 190.454C229.844 190.31 229.571 190.093 229.358 189.805C229.148 189.513 229.043 189.151 229.043 188.718H229.607C229.607 189.154 229.758 189.51 230.059 189.786C230.363 190.059 230.755 190.195 231.235 190.195C231.72 190.195 232.098 190.07 232.368 189.819C232.641 189.565 232.777 189.203 232.777 188.732C232.777 188.237 232.617 187.88 232.297 187.66C231.978 187.438 231.562 187.326 231.051 187.326H230.477V186.842H231.051Z" fill="white"/>
    </g>
    <g opacity="0.5">
      <path d="M62.9298 179.062C62.9298 179.905 62.6577 180.544 62.1135 180.979C61.5733 181.414 60.8235 181.632 59.8641 181.632H56.6108V172.828H59.6161C60.5877 172.828 61.3476 173.021 61.8958 173.408C62.4481 173.791 62.7242 174.392 62.7242 175.21C62.7242 175.613 62.6154 175.98 62.3977 176.311C62.18 176.637 61.8595 176.887 61.4362 177.061C61.9482 177.19 62.3251 177.442 62.567 177.816C62.8089 178.191 62.9298 178.607 62.9298 179.062ZM59.6161 174.085H58.1709V176.541H59.6343C60.1221 176.541 60.499 176.434 60.765 176.22C61.0311 176.006 61.1641 175.704 61.1641 175.313C61.1641 174.882 61.0372 174.569 60.7832 174.376C60.5332 174.182 60.1442 174.085 59.6161 174.085ZM61.3758 179.056C61.3758 178.633 61.2629 178.298 61.0372 178.052C60.8114 177.802 60.4425 177.677 59.9306 177.677H58.1709V180.38H59.8641C60.3639 180.38 60.7409 180.257 60.9948 180.011C61.2488 179.766 61.3758 179.447 61.3758 179.056Z" fill="white"/>
      <path d="M64.3085 173.378C64.3085 173.148 64.3831 172.959 64.5322 172.81C64.6814 172.656 64.889 172.58 65.1551 172.58C65.4211 172.58 65.6308 172.656 65.7839 172.81C65.9371 172.959 66.0137 173.148 66.0137 173.378C66.0137 173.604 65.9371 173.793 65.7839 173.946C65.6308 174.096 65.4211 174.17 65.1551 174.17C64.889 174.17 64.6814 174.096 64.5322 173.946C64.3831 173.793 64.3085 173.604 64.3085 173.378ZM65.9049 181.632H64.4053V175.089H65.9049V181.632Z" fill="white"/>
      <path d="M70.5187 176.196H69.3577V179.788C69.3577 180.086 69.4201 180.282 69.5451 180.374C69.6701 180.463 69.8374 180.507 70.047 180.507C70.1478 180.507 70.2445 180.501 70.3372 180.489C70.43 180.477 70.5045 180.465 70.561 180.453V181.608C70.44 181.648 70.2989 181.682 70.1377 181.711C69.9764 181.739 69.791 181.753 69.5814 181.753C69.0775 181.753 68.6643 181.614 68.3418 181.336C68.0193 181.054 67.858 180.574 67.858 179.897V176.196H66.8059V175.089H67.858V173.487H69.3577V175.089H70.5187V176.196Z" fill="white"/>
      <path d="M74.31 180.55C74.6608 180.55 74.955 180.447 75.1929 180.241C75.4348 180.036 75.5658 179.772 75.5859 179.449H77.0009C76.9888 179.88 76.8618 180.271 76.6199 180.622C76.3781 180.969 76.0576 181.245 75.6585 181.451C75.2594 181.652 74.8139 181.753 74.3221 181.753C73.657 181.753 73.1027 181.606 72.6592 181.312C72.2198 181.013 71.8913 180.616 71.6736 180.12C71.4559 179.62 71.3471 179.068 71.3471 178.463V178.258C71.3471 177.653 71.4559 177.103 71.6736 176.607C71.8913 176.107 72.2198 175.71 72.6592 175.416C73.1027 175.117 73.657 174.968 74.3221 174.968C74.8462 174.968 75.3078 175.073 75.7069 175.283C76.106 175.488 76.4184 175.779 76.6441 176.154C76.8699 176.524 76.9888 176.956 77.0009 177.448H75.5859C75.5698 177.097 75.4489 176.797 75.2231 176.547C75.0014 176.297 74.695 176.172 74.304 176.172C73.917 176.172 73.6167 176.274 73.403 176.48C73.1934 176.682 73.0483 176.942 72.9676 177.26C72.887 177.579 72.8467 177.911 72.8467 178.258V178.463C72.8467 178.818 72.887 179.155 72.9676 179.473C73.0483 179.792 73.1934 180.052 73.403 180.253C73.6126 180.451 73.915 180.55 74.31 180.55Z" fill="white"/>
      <path d="M77.8293 178.3C77.8293 177.663 77.9503 177.095 78.1921 176.595C78.434 176.091 78.7807 175.694 79.2322 175.404C79.6877 175.113 80.234 174.968 80.8709 174.968C81.5159 174.968 82.0662 175.113 82.5217 175.404C82.9772 175.694 83.3239 176.091 83.5618 176.595C83.8036 177.095 83.9246 177.663 83.9246 178.3V178.427C83.9246 179.06 83.8036 179.628 83.5618 180.132C83.3239 180.632 82.9772 181.027 82.5217 181.318C82.0702 181.608 81.524 181.753 80.883 181.753C80.242 181.753 79.6938 181.608 79.2382 181.318C78.7827 181.027 78.434 180.632 78.1921 180.132C77.9503 179.628 77.8293 179.06 77.8293 178.427V178.3ZM79.329 178.427C79.329 178.814 79.3814 179.169 79.4862 179.491C79.595 179.81 79.7643 180.066 79.9941 180.259C80.2239 180.453 80.5202 180.55 80.883 180.55C81.2418 180.55 81.534 180.453 81.7598 180.259C81.9896 180.066 82.1569 179.81 82.2617 179.491C82.3705 179.169 82.4249 178.814 82.4249 178.427V178.3C82.4249 177.921 82.3705 177.571 82.2617 177.248C82.1569 176.926 81.9896 176.666 81.7598 176.468C81.53 176.27 81.2337 176.172 80.8709 176.172C80.5121 176.172 80.2178 176.27 79.9881 176.468C79.7623 176.666 79.595 176.926 79.4862 177.248C79.3814 177.571 79.329 177.921 79.329 178.3V178.427Z" fill="white"/>
      <path d="M85.146 173.378C85.146 173.148 85.2206 172.959 85.3698 172.81C85.5189 172.656 85.7265 172.58 85.9926 172.58C86.2587 172.58 86.4683 172.656 86.6215 172.81C86.7747 172.959 86.8513 173.148 86.8513 173.378C86.8513 173.604 86.7747 173.793 86.6215 173.946C86.4683 174.096 86.2587 174.17 85.9926 174.17C85.7265 174.17 85.5189 174.096 85.3698 173.946C85.2206 173.793 85.146 173.604 85.146 173.378ZM86.7424 181.632H85.2428V175.089H86.7424V181.632Z" fill="white"/>
      <path d="M89.8082 181.632H88.3086V175.089H89.7175L89.7659 175.863C89.9956 175.577 90.2718 175.357 90.5943 175.204C90.9168 175.047 91.2756 174.968 91.6706 174.968C92.2995 174.968 92.8034 175.154 93.1823 175.525C93.5653 175.891 93.7568 176.522 93.7568 177.417V181.632H92.2511V177.405C92.2511 176.95 92.1524 176.635 91.9548 176.462C91.7613 176.285 91.4791 176.196 91.1083 176.196C90.81 176.196 90.5499 176.268 90.3282 176.414C90.1105 176.555 89.9372 176.746 89.8082 176.988V181.632Z" fill="white"/>
      <path d="M105.197 178.754C105.145 179.334 104.982 179.85 104.708 180.302C104.434 180.753 104.049 181.108 103.553 181.366C103.057 181.624 102.45 181.753 101.733 181.753C101.007 181.753 100.378 181.584 99.846 181.245C99.3139 180.902 98.9027 180.419 98.6124 179.794C98.3222 179.169 98.1771 178.431 98.1771 177.581V176.885C98.1771 176.035 98.3242 175.297 98.6185 174.672C98.9128 174.047 99.33 173.563 99.8702 173.221C100.414 172.878 101.055 172.707 101.793 172.707C102.499 172.707 103.093 172.838 103.577 173.1C104.065 173.358 104.442 173.717 104.708 174.176C104.978 174.632 105.141 175.156 105.197 175.748H103.643C103.583 175.188 103.416 174.753 103.142 174.442C102.871 174.132 102.422 173.977 101.793 173.977C101.112 173.977 100.6 174.227 100.257 174.726C99.9186 175.222 99.7492 175.938 99.7492 176.873V177.581C99.7492 178.472 99.9044 179.179 100.215 179.703C100.525 180.223 101.031 180.483 101.733 180.483C102.374 180.483 102.833 180.336 103.111 180.042C103.393 179.743 103.569 179.314 103.637 178.754H105.197Z" fill="white"/>
      <path d="M110.077 177.212C110.077 176.873 109.983 176.603 109.793 176.401C109.608 176.2 109.325 176.099 108.947 176.099C108.604 176.099 108.33 176.184 108.124 176.353C107.923 176.522 107.822 176.734 107.822 176.988H106.322C106.322 176.637 106.433 176.309 106.655 176.002C106.876 175.692 107.189 175.442 107.592 175.253C107.999 175.063 108.479 174.968 109.031 174.968C109.769 174.968 110.378 175.156 110.857 175.531C111.337 175.906 111.577 176.47 111.577 177.224V180.108C111.577 180.705 111.662 181.178 111.831 181.529V181.632H110.295C110.226 181.479 110.172 181.271 110.132 181.009C109.942 181.215 109.702 181.39 109.412 181.535C109.126 181.68 108.787 181.753 108.396 181.753C107.969 181.753 107.588 181.668 107.253 181.499C106.919 181.33 106.655 181.098 106.461 180.804C106.272 180.509 106.177 180.175 106.177 179.8C106.177 179.106 106.437 178.574 106.957 178.203C107.477 177.833 108.215 177.647 109.17 177.647H110.077V177.212ZM108.693 180.562C109.031 180.562 109.321 180.483 109.563 180.326C109.805 180.165 109.977 179.985 110.077 179.788V178.572H109.279C108.747 178.572 108.346 178.671 108.076 178.869C107.81 179.062 107.677 179.326 107.677 179.661C107.677 179.919 107.763 180.134 107.937 180.308C108.114 180.477 108.366 180.562 108.693 180.562Z" fill="white"/>
      <path d="M116.747 179.848C116.747 179.711 116.711 179.586 116.638 179.473C116.566 179.356 116.429 179.252 116.227 179.159C116.025 179.066 115.731 178.977 115.344 178.893C114.651 178.748 114.086 178.526 113.651 178.228C113.22 177.929 113.004 177.504 113.004 176.952C113.004 176.597 113.105 176.27 113.306 175.972C113.512 175.67 113.804 175.428 114.183 175.246C114.562 175.061 115.014 174.968 115.538 174.968C116.086 174.968 116.558 175.061 116.953 175.246C117.348 175.428 117.65 175.676 117.86 175.99C118.073 176.301 118.18 176.653 118.18 177.048H116.681C116.681 176.79 116.584 176.565 116.39 176.371C116.201 176.174 115.915 176.075 115.532 176.075C115.173 176.075 114.905 176.158 114.727 176.323C114.55 176.484 114.461 176.672 114.461 176.885C114.461 177.099 114.552 177.272 114.733 177.405C114.919 177.534 115.272 177.653 115.792 177.762C116.541 177.919 117.132 178.145 117.563 178.439C117.999 178.73 118.216 179.175 118.216 179.776C118.216 180.159 118.106 180.499 117.884 180.798C117.666 181.096 117.358 181.33 116.959 181.499C116.56 181.668 116.092 181.753 115.556 181.753C114.955 181.753 114.449 181.646 114.038 181.432C113.627 181.219 113.314 180.945 113.101 180.61C112.891 180.275 112.786 179.931 112.786 179.576H114.232C114.252 179.967 114.399 180.243 114.673 180.404C114.947 180.566 115.247 180.646 115.574 180.646C115.957 180.646 116.247 180.572 116.445 180.423C116.646 180.269 116.747 180.078 116.747 179.848Z" fill="white"/>
      <path d="M120.956 181.632H119.456V172.344H120.956V175.821C121.177 175.551 121.441 175.341 121.748 175.192C122.058 175.043 122.399 174.968 122.77 174.968C123.415 174.968 123.933 175.158 124.324 175.537C124.715 175.912 124.91 176.547 124.91 177.442V181.632H123.405V177.429C123.405 176.97 123.306 176.649 123.108 176.468C122.911 176.287 122.627 176.196 122.256 176.196C121.949 176.196 121.687 176.266 121.47 176.407C121.256 176.545 121.085 176.73 120.956 176.964V181.632Z" fill="white"/>
    </g>
    <g opacity="0.5">
      <rect x="11.008" y="161.68" width="34.4" height="34.4" rx="8" fill="#2FCF6E"/>
      <path fill-rule="evenodd" clip-rule="evenodd" d="M30.6374 174.986C31.2345 176.818 28.1675 177.668 27.2013 178L26.155 174.739C27.1023 174.42 30.0144 173.071 30.6374 174.986ZM33.0636 179.787C33.7237 181.802 30.0427 182.839 28.9041 183.229L27.736 179.648C28.8931 179.247 32.3669 177.671 33.0636 179.787ZM28.5579 171.825L27.6921 169.146L25.9992 169.733L26.8507 172.347C26.4012 172.504 25.9517 172.661 25.5135 172.836L24.6617 170.222L22.9503 170.82L23.8164 173.5C23.4527 173.628 23.1007 173.774 22.7371 173.902L20.404 174.716L20.964 176.447C20.964 176.447 22.2152 175.987 22.1888 176.028C22.8779 175.796 23.2241 176.1 23.3836 176.397L24.3751 179.444C24.4236 179.438 24.4802 179.403 24.5585 179.403C24.4913 179.421 24.4537 179.444 24.3864 179.462L25.7905 183.712C25.8271 183.937 25.7953 184.304 25.3274 184.473C25.3571 184.479 24.0838 184.903 24.0838 184.903L24.3842 186.97L26.5828 186.19C26.9951 186.057 27.3957 185.905 27.789 185.783L28.6662 188.481L30.3591 187.893L29.4932 185.214C29.9723 185.063 30.4218 184.906 30.8527 184.761L31.7076 187.423L33.4005 186.835L32.5236 184.138C35.3222 182.984 37.0933 181.604 36.4931 178.933C36.0208 176.799 34.7222 176.224 32.9602 176.408C33.8203 175.573 34.1544 174.522 33.5626 173.158C32.7374 171.295 30.8117 171.259 28.5579 171.825Z" fill="white"/>
    </g>
    <path opacity="0.5" d="M246.87 233.37L243.091 229.548C242.795 229.258 242.324 229.262 242.032 229.557C241.741 229.852 241.737 230.329 242.023 230.629L245.267 233.911L242.023 237.192C241.826 237.384 241.748 237.668 241.817 237.936C241.886 238.203 242.092 238.412 242.357 238.482C242.621 238.552 242.902 238.472 243.091 238.273L246.87 234.451C247.165 234.152 247.165 233.669 246.87 233.37Z" fill="#9BA3AE"/>
    <g opacity="0.5">
      <path d="M190.854 225.274C191.277 225.274 191.592 225.167 191.797 224.953C192.003 224.74 192.106 224.453 192.106 224.095C192.106 223.788 192.013 223.532 191.828 223.327C191.642 223.121 191.354 223.018 190.963 223.018C190.661 223.018 190.397 223.103 190.171 223.272C189.945 223.437 189.832 223.663 189.832 223.949H188.006C188.006 223.466 188.137 223.044 188.399 222.686C188.661 222.323 189.012 222.043 189.451 221.845C189.891 221.648 190.378 221.549 190.915 221.549C191.814 221.549 192.541 221.762 193.098 222.19C193.658 222.613 193.938 223.238 193.938 224.064C193.938 224.447 193.821 224.81 193.587 225.153C193.354 225.491 193.027 225.759 192.608 225.957C193.087 226.13 193.45 226.394 193.696 226.749C193.946 227.104 194.071 227.523 194.071 228.007C194.071 228.555 193.932 229.023 193.654 229.41C193.376 229.797 192.999 230.093 192.523 230.299C192.047 230.5 191.511 230.601 190.915 230.601C190.415 230.601 189.933 230.51 189.469 230.329C189.01 230.147 188.631 229.869 188.333 229.494C188.038 229.12 187.891 228.642 187.891 228.061H189.729C189.729 228.368 189.846 228.624 190.08 228.829C190.314 229.031 190.608 229.132 190.963 229.132C191.362 229.132 191.675 229.025 191.9 228.811C192.13 228.593 192.245 228.315 192.245 227.977C192.245 227.517 192.12 227.191 191.87 226.997C191.624 226.8 191.285 226.701 190.854 226.701H189.911V225.274H190.854Z" fill="white"/>
      <path d="M195.401 229.579C195.401 229.305 195.494 229.075 195.68 228.89C195.869 228.704 196.119 228.612 196.429 228.612C196.74 228.612 196.988 228.704 197.173 228.89C197.359 229.075 197.451 229.305 197.451 229.579C197.451 229.853 197.359 230.083 197.173 230.268C196.988 230.454 196.74 230.547 196.429 230.547C196.119 230.547 195.869 230.454 195.68 230.268C195.494 230.083 195.401 229.853 195.401 229.579Z" fill="white"/>
      <path d="M201.63 225.274C202.053 225.274 202.367 225.167 202.573 224.953C202.779 224.74 202.881 224.453 202.881 224.095C202.881 223.788 202.789 223.532 202.603 223.327C202.418 223.121 202.13 223.018 201.739 223.018C201.436 223.018 201.172 223.103 200.946 223.272C200.721 223.437 200.608 223.663 200.608 223.949H198.782C198.782 223.466 198.913 223.044 199.175 222.686C199.437 222.323 199.787 222.043 200.227 221.845C200.666 221.648 201.154 221.549 201.69 221.549C202.589 221.549 203.317 221.762 203.873 222.19C204.433 222.613 204.714 223.238 204.714 224.064C204.714 224.447 204.597 224.81 204.363 225.153C204.129 225.491 203.803 225.759 203.383 225.957C203.863 226.13 204.226 226.394 204.472 226.749C204.722 227.104 204.847 227.523 204.847 228.007C204.847 228.555 204.708 229.023 204.429 229.41C204.151 229.797 203.774 230.093 203.299 230.299C202.823 230.5 202.287 230.601 201.69 230.601C201.19 230.601 200.709 230.51 200.245 230.329C199.785 230.147 199.406 229.869 199.108 229.494C198.814 229.12 198.667 228.642 198.667 228.061H200.505C200.505 228.368 200.622 228.624 200.856 228.829C201.089 229.031 201.384 229.132 201.739 229.132C202.138 229.132 202.45 229.025 202.676 228.811C202.906 228.593 203.02 228.315 203.02 227.977C203.02 227.517 202.895 227.191 202.646 226.997C202.4 226.8 202.061 226.701 201.63 226.701H200.686V225.274H201.63Z" fill="white"/>
      <path d="M211.988 226.846C211.988 227.721 211.861 228.434 211.607 228.986C211.357 229.539 211.008 229.946 210.561 230.208C210.113 230.47 209.593 230.601 209.001 230.601C208.404 230.601 207.88 230.47 207.429 230.208C206.977 229.946 206.624 229.539 206.37 228.986C206.12 228.434 205.996 227.721 205.996 226.846V225.298C205.996 224.423 206.12 223.712 206.37 223.163C206.62 222.611 206.969 222.206 207.417 221.948C207.868 221.686 208.392 221.555 208.989 221.555C209.581 221.555 210.101 221.686 210.549 221.948C211 222.206 211.353 222.611 211.607 223.163C211.861 223.712 211.988 224.423 211.988 225.298V226.846ZM210.156 225.044C210.156 224.29 210.053 223.766 209.847 223.472C209.642 223.177 209.356 223.03 208.989 223.03C208.622 223.03 208.336 223.177 208.13 223.472C207.924 223.766 207.822 224.29 207.822 225.044V227.088C207.822 227.85 207.924 228.382 208.13 228.684C208.34 228.982 208.63 229.132 209.001 229.132C209.368 229.132 209.652 228.982 209.853 228.684C210.055 228.382 210.156 227.85 210.156 227.088V225.044Z" fill="white"/>
      <path d="M217.448 230.48H215.622V223.835L213.56 224.457V222.982L217.261 221.664H217.448V230.48Z" fill="white"/>
      <path d="M226.325 230.48H220.26V229.234L223.102 226.211C223.521 225.755 223.812 225.376 223.973 225.074C224.138 224.768 224.221 224.49 224.221 224.24C224.221 223.861 224.126 223.562 223.937 223.345C223.751 223.127 223.483 223.018 223.132 223.018C222.741 223.018 222.439 223.157 222.225 223.435C222.016 223.71 221.911 224.052 221.911 224.463H220.085C220.085 223.931 220.21 223.446 220.46 223.006C220.71 222.563 221.064 222.21 221.524 221.948C221.987 221.682 222.536 221.549 223.169 221.549C224.104 221.549 224.817 221.773 225.309 222.22C225.805 222.667 226.053 223.282 226.053 224.064C226.053 224.661 225.874 225.225 225.515 225.757C225.16 226.286 224.682 226.858 224.082 227.475L222.618 229.011H226.325V230.48Z" fill="white"/>
      <path d="M230.123 225.274C230.546 225.274 230.86 225.167 231.066 224.953C231.271 224.74 231.374 224.453 231.374 224.095C231.374 223.788 231.282 223.532 231.096 223.327C230.911 223.121 230.622 223.018 230.231 223.018C229.929 223.018 229.665 223.103 229.439 223.272C229.214 223.437 229.101 223.663 229.101 223.949H227.274C227.274 223.466 227.405 223.044 227.668 222.686C227.93 222.323 228.28 222.043 228.72 221.845C229.159 221.648 229.647 221.549 230.183 221.549C231.082 221.549 231.81 221.762 232.366 222.19C232.926 222.613 233.206 223.238 233.206 224.064C233.206 224.447 233.09 224.81 232.856 225.153C232.622 225.491 232.295 225.759 231.876 225.957C232.356 226.13 232.719 226.394 232.965 226.749C233.215 227.104 233.339 227.523 233.339 228.007C233.339 228.555 233.2 229.023 232.922 229.41C232.644 229.797 232.267 230.093 231.791 230.299C231.316 230.5 230.78 230.601 230.183 230.601C229.683 230.601 229.201 230.51 228.738 230.329C228.278 230.147 227.899 229.869 227.601 229.494C227.307 229.12 227.16 228.642 227.16 228.061H228.998C228.998 228.368 229.115 228.624 229.349 228.829C229.582 229.031 229.877 229.132 230.231 229.132C230.63 229.132 230.943 229.025 231.169 228.811C231.398 228.593 231.513 228.315 231.513 227.977C231.513 227.517 231.388 227.191 231.138 226.997C230.893 226.8 230.554 226.701 230.123 226.701H229.179V225.274H230.123Z" fill="white"/>
    </g>
    <g opacity="0.5">
      <path d="M195.364 247.97H194.884V247.086C194.552 247.064 194.233 246.983 193.929 246.842C193.628 246.701 193.382 246.484 193.191 246.193C193.003 245.898 192.909 245.508 192.909 245.022H193.468C193.468 245.426 193.552 245.743 193.718 245.972C193.884 246.2 194.091 246.362 194.339 246.456C194.589 246.547 194.842 246.592 195.096 246.592C195.572 246.592 195.942 246.467 196.206 246.216C196.472 245.965 196.605 245.661 196.605 245.304C196.605 244.959 196.493 244.677 196.267 244.457C196.044 244.235 195.644 244.023 195.067 243.822C194.672 243.694 194.331 243.548 194.042 243.385C193.757 243.222 193.536 243.018 193.379 242.773C193.225 242.526 193.149 242.215 193.149 241.842C193.149 241.328 193.305 240.913 193.619 240.596C193.936 240.276 194.362 240.096 194.898 240.055V239.105H195.383V240.055C195.928 240.105 196.353 240.311 196.657 240.671C196.964 241.029 197.118 241.524 197.118 242.157H196.558C196.558 241.693 196.436 241.309 196.192 241.005C195.947 240.698 195.593 240.544 195.129 240.544C194.643 240.544 194.285 240.671 194.056 240.925C193.827 241.179 193.713 241.48 193.713 241.828C193.713 242.06 193.755 242.262 193.84 242.435C193.925 242.604 194.078 242.759 194.301 242.9C194.523 243.041 194.843 243.181 195.26 243.319C195.652 243.451 195.991 243.598 196.276 243.761C196.562 243.921 196.781 244.123 196.935 244.368C197.088 244.612 197.165 244.921 197.165 245.294C197.165 245.818 197.002 246.235 196.676 246.545C196.35 246.856 195.912 247.034 195.364 247.081V247.97Z" fill="white"/>
      <path d="M201.671 240.093V240.582H201.591C200.772 240.582 200.131 240.826 199.667 241.315C199.203 241.801 198.944 242.469 198.891 243.319C199.079 243.059 199.321 242.857 199.615 242.712C199.91 242.568 200.236 242.496 200.594 242.496C201.029 242.496 201.393 242.599 201.685 242.806C201.976 243.013 202.196 243.288 202.343 243.629C202.491 243.971 202.564 244.343 202.564 244.744C202.564 245.183 202.483 245.58 202.32 245.934C202.157 246.288 201.923 246.569 201.619 246.776C201.318 246.983 200.957 247.086 200.537 247.086C200.076 247.086 199.68 246.973 199.347 246.748C199.018 246.519 198.764 246.215 198.585 245.835C198.407 245.453 198.317 245.031 198.317 244.57V243.968C198.317 243.187 198.436 242.507 198.675 241.927C198.913 241.347 199.274 240.897 199.757 240.577C200.242 240.254 200.854 240.093 201.591 240.093H201.671ZM198.882 244.579C198.882 245.003 198.955 245.366 199.103 245.671C199.25 245.972 199.448 246.204 199.695 246.367C199.946 246.527 200.227 246.606 200.537 246.606C200.841 246.606 201.103 246.523 201.323 246.357C201.542 246.191 201.71 245.97 201.826 245.694C201.945 245.415 202.005 245.106 202.005 244.768C202.005 244.445 201.95 244.148 201.84 243.879C201.73 243.606 201.564 243.388 201.341 243.225C201.122 243.059 200.843 242.976 200.504 242.976C200.257 242.976 200.021 243.026 199.799 243.126C199.576 243.226 199.383 243.363 199.22 243.535C199.06 243.705 198.948 243.894 198.882 244.104V244.579Z" fill="white"/>
      <path d="M204.328 246.762C204.328 247.05 204.268 247.328 204.149 247.594C204.033 247.864 203.872 248.09 203.665 248.271L203.331 248.032C203.475 247.834 203.585 247.636 203.66 247.439C203.735 247.245 203.773 247.023 203.773 246.776V246.103H204.328V246.762Z" fill="white"/>
      <path d="M205.932 243.479L206.266 240.144H209.69V240.662H206.75L206.505 242.98C206.625 242.896 206.797 242.813 207.023 242.731C207.252 242.646 207.509 242.604 207.794 242.604C208.406 242.604 208.896 242.802 209.266 243.197C209.639 243.589 209.826 244.126 209.826 244.81C209.826 245.246 209.754 245.636 209.61 245.981C209.465 246.323 209.243 246.592 208.942 246.79C208.641 246.987 208.253 247.086 207.78 247.086C207.416 247.086 207.082 247.017 206.778 246.879C206.477 246.741 206.23 246.533 206.035 246.254C205.844 245.972 205.729 245.617 205.692 245.191H206.233C206.286 245.652 206.444 246.004 206.708 246.249C206.974 246.49 207.332 246.611 207.78 246.611C208.266 246.611 208.633 246.456 208.881 246.146C209.131 245.832 209.257 245.39 209.257 244.819C209.257 244.336 209.122 243.932 208.852 243.606C208.586 243.28 208.2 243.117 207.695 243.117C207.369 243.117 207.109 243.161 206.915 243.248C206.723 243.336 206.545 243.455 206.379 243.606L205.932 243.479Z" fill="white"/>
      <path d="M215.103 245.177C215.103 245.591 215.006 245.94 214.811 246.226C214.62 246.508 214.36 246.722 214.03 246.87C213.701 247.014 213.333 247.086 212.925 247.086C212.515 247.086 212.145 247.014 211.815 246.87C211.486 246.722 211.224 246.508 211.03 246.226C210.839 245.94 210.743 245.591 210.743 245.177C210.743 244.775 210.861 244.426 211.096 244.128C211.331 243.827 211.643 243.609 212.032 243.474C211.693 243.339 211.422 243.136 211.218 242.863C211.017 242.587 210.917 242.267 210.917 241.903C210.917 241.508 211.005 241.173 211.18 240.897C211.356 240.621 211.594 240.411 211.895 240.267C212.196 240.122 212.536 240.05 212.916 240.05C213.295 240.05 213.637 240.122 213.941 240.267C214.245 240.411 214.485 240.621 214.661 240.897C214.836 241.173 214.924 241.508 214.924 241.903C214.924 242.267 214.821 242.587 214.614 242.863C214.41 243.136 214.14 243.339 213.805 243.474C214.19 243.609 214.502 243.827 214.741 244.128C214.982 244.426 215.103 244.775 215.103 245.177ZM214.364 241.899C214.364 241.635 214.3 241.4 214.172 241.193C214.046 240.986 213.874 240.823 213.654 240.704C213.438 240.585 213.192 240.525 212.916 240.525C212.499 240.525 212.156 240.649 211.886 240.897C211.616 241.141 211.481 241.475 211.481 241.899C211.481 242.309 211.616 242.635 211.886 242.877C212.156 243.118 212.5 243.239 212.921 243.239C213.334 243.239 213.678 243.118 213.951 242.877C214.226 242.635 214.364 242.309 214.364 241.899ZM214.538 245.177C214.538 244.885 214.468 244.63 214.327 244.41C214.186 244.191 213.993 244.021 213.748 243.902C213.504 243.78 213.226 243.719 212.916 243.719C212.449 243.719 212.063 243.852 211.759 244.119C211.458 244.385 211.307 244.738 211.307 245.177C211.307 245.634 211.458 245.989 211.759 246.24C212.063 246.487 212.452 246.611 212.925 246.611C213.396 246.611 213.781 246.487 214.082 246.24C214.386 245.989 214.538 245.634 214.538 245.177Z" fill="white"/>
      <path d="M217.13 246.555C217.773 246.555 218.284 246.436 218.663 246.197C219.042 245.956 219.315 245.63 219.481 245.219C219.651 244.805 219.74 244.338 219.749 243.818C219.564 244.093 219.322 244.318 219.021 244.49C218.723 244.663 218.393 244.749 218.033 244.749C217.603 244.749 217.243 244.639 216.951 244.42C216.66 244.2 216.438 243.916 216.288 243.568C216.141 243.217 216.067 242.846 216.067 242.454C216.067 242.015 216.148 241.613 216.312 241.25C216.475 240.886 216.71 240.596 217.017 240.38C217.327 240.16 217.699 240.05 218.132 240.05C218.624 240.05 219.03 240.168 219.35 240.403C219.673 240.635 219.914 240.956 220.074 241.367C220.234 241.778 220.314 242.248 220.314 242.778V243.328C220.314 243.836 220.262 244.314 220.159 244.763C220.058 245.211 219.887 245.606 219.646 245.948C219.408 246.29 219.083 246.558 218.672 246.752C218.262 246.947 217.748 247.044 217.13 247.044H217.003L217.008 246.555H217.13ZM216.617 242.43C216.617 242.74 216.674 243.037 216.787 243.319C216.903 243.598 217.07 243.825 217.29 244.001C217.509 244.177 217.779 244.264 218.099 244.264C218.387 244.264 218.643 244.206 218.865 244.09C219.088 243.971 219.273 243.819 219.42 243.634C219.571 243.449 219.682 243.255 219.754 243.051V242.726C219.754 242.005 219.604 241.46 219.303 241.09C219.002 240.717 218.614 240.53 218.141 240.53C217.824 240.53 217.552 240.618 217.323 240.793C217.097 240.969 216.923 241.201 216.801 241.489C216.678 241.778 216.617 242.091 216.617 242.43Z" fill="white"/>
      <path d="M221.617 246.649C221.617 246.539 221.651 246.447 221.72 246.371C221.792 246.296 221.889 246.258 222.012 246.258C222.137 246.258 222.236 246.296 222.308 246.371C222.38 246.447 222.416 246.539 222.416 246.649C222.416 246.759 222.38 246.849 222.308 246.922C222.236 246.994 222.137 247.03 222.012 247.03C221.889 247.03 221.792 246.994 221.72 246.922C221.651 246.849 221.617 246.759 221.617 246.649Z" fill="white"/>
      <path d="M225.708 243.258C226.232 243.258 226.629 243.128 226.898 242.867C227.171 242.607 227.307 242.294 227.307 241.927C227.307 241.516 227.19 241.181 226.955 240.92C226.723 240.657 226.361 240.525 225.868 240.525C225.439 240.525 225.08 240.652 224.791 240.906C224.506 241.16 224.363 241.505 224.363 241.941H223.804C223.804 241.568 223.893 241.24 224.072 240.958C224.25 240.673 224.495 240.45 224.805 240.29C225.119 240.13 225.473 240.05 225.868 240.05C226.47 240.05 226.953 240.215 227.317 240.544C227.684 240.873 227.867 241.341 227.867 241.946C227.867 242.253 227.768 242.551 227.571 242.839C227.373 243.125 227.082 243.339 226.696 243.484C227.148 243.606 227.477 243.816 227.684 244.114C227.891 244.412 227.994 244.75 227.994 245.13C227.994 245.547 227.903 245.901 227.721 246.193C227.539 246.481 227.289 246.702 226.969 246.856C226.652 247.009 226.293 247.086 225.892 247.086C225.522 247.086 225.169 247.014 224.834 246.87C224.501 246.726 224.228 246.509 224.015 246.221C223.805 245.929 223.7 245.567 223.7 245.134H224.264C224.264 245.57 224.415 245.926 224.716 246.202C225.02 246.475 225.412 246.611 225.892 246.611C226.378 246.611 226.756 246.486 227.025 246.235C227.298 245.981 227.434 245.619 227.434 245.149C227.434 244.653 227.274 244.296 226.955 244.076C226.635 243.854 226.219 243.742 225.708 243.742H225.135V243.258H225.708Z" fill="white"/>
      <path d="M230.12 246.555C230.763 246.555 231.274 246.436 231.653 246.197C232.032 245.956 232.305 245.63 232.471 245.219C232.641 244.805 232.73 244.338 232.74 243.818C232.555 244.093 232.312 244.318 232.011 244.49C231.713 244.663 231.383 244.749 231.023 244.749C230.593 244.749 230.233 244.639 229.941 244.42C229.65 244.2 229.429 243.916 229.278 243.568C229.131 243.217 229.057 242.846 229.057 242.454C229.057 242.015 229.138 241.613 229.302 241.25C229.465 240.886 229.7 240.596 230.007 240.38C230.317 240.16 230.689 240.05 231.122 240.05C231.614 240.05 232.02 240.168 232.34 240.403C232.663 240.635 232.904 240.956 233.064 241.367C233.224 241.778 233.304 242.248 233.304 242.778V243.328C233.304 243.836 233.252 244.314 233.149 244.763C233.048 245.211 232.877 245.606 232.636 245.948C232.398 246.29 232.073 246.558 231.663 246.752C231.252 246.947 230.738 247.044 230.12 247.044H229.993L229.998 246.555H230.12ZM229.607 242.43C229.607 242.74 229.664 243.037 229.777 243.319C229.893 243.598 230.06 243.825 230.28 244.001C230.499 244.177 230.769 244.264 231.089 244.264C231.377 244.264 231.633 244.206 231.855 244.09C232.078 243.971 232.263 243.819 232.41 243.634C232.561 243.449 232.672 243.255 232.744 243.051V242.726C232.744 242.005 232.594 241.46 232.293 241.09C231.992 240.717 231.604 240.53 231.131 240.53C230.814 240.53 230.542 240.618 230.313 240.793C230.087 240.969 229.913 241.201 229.791 241.489C229.668 241.778 229.607 242.091 229.607 242.43Z" fill="white"/>
    </g>
    <g opacity="0.5">
      <path d="M62.3856 238.048H56.6108V229.244H62.3554V230.502H58.1709V232.896H61.7749V234.13H58.1709V236.796H62.3856V238.048Z" fill="white"/>
      <path d="M66.5035 232.612H65.3425V236.204C65.3425 236.502 65.405 236.698 65.53 236.79C65.6549 236.879 65.8222 236.923 66.0319 236.923C66.1327 236.923 66.2294 236.917 66.3221 236.905C66.4148 236.893 66.4894 236.881 66.5459 236.869V238.024C66.4249 238.064 66.2838 238.098 66.1226 238.127C65.9613 238.155 65.7759 238.169 65.5663 238.169C65.0624 238.169 64.6492 238.03 64.3267 237.752C64.0042 237.47 63.8429 236.99 63.8429 236.313V232.612H62.7907V231.505H63.8429V229.903H65.3425V231.505H66.5035V232.612Z" fill="white"/>
      <path d="M69.0855 238.048H67.5859V228.76H69.0855V232.237C69.3073 231.967 69.5713 231.757 69.8777 231.608C70.1881 231.459 70.5287 231.384 70.8996 231.384C71.5446 231.384 72.0626 231.574 72.4537 231.953C72.8447 232.328 73.0402 232.963 73.0402 233.858V238.048H71.5345V233.845C71.5345 233.386 71.4358 233.065 71.2382 232.884C71.0407 232.703 70.7565 232.612 70.3856 232.612C70.0792 232.612 69.8172 232.682 69.5995 232.824C69.3859 232.961 69.2145 233.146 69.0855 233.38V238.048Z" fill="white"/>
      <path d="M77.4 238.169C76.751 238.169 76.1906 238.03 75.719 237.752C75.2473 237.47 74.8845 237.091 74.6305 236.615C74.3766 236.135 74.2496 235.599 74.2496 235.006V234.759C74.2496 234.077 74.3786 233.485 74.6366 232.981C74.8946 232.473 75.2473 232.08 75.6948 231.802C76.1463 231.523 76.6562 231.384 77.2246 231.384C77.8535 231.384 78.3756 231.521 78.7908 231.796C79.206 232.066 79.5164 232.443 79.722 232.926C79.9276 233.406 80.0304 233.962 80.0304 234.595V235.242H75.7613C75.8016 235.738 75.9729 236.149 76.2753 236.476C76.5776 236.798 76.9828 236.96 77.4907 236.96C77.8414 236.96 78.1518 236.891 78.4219 236.754C78.692 236.617 78.9278 236.419 79.1294 236.161L79.9155 236.947C79.7059 237.258 79.3955 237.54 78.9843 237.794C78.5731 238.044 78.045 238.169 77.4 238.169ZM77.2186 232.588C76.8195 232.588 76.499 232.729 76.2571 233.011C76.0153 233.293 75.8601 233.676 75.7915 234.16H78.5489V234.045C78.5408 233.791 78.4904 233.553 78.3977 233.331C78.309 233.11 78.1679 232.93 77.9744 232.793C77.785 232.656 77.533 232.588 77.2186 232.588Z" fill="white"/>
      <path d="M82.6547 238.048H81.1551V231.505H82.5822L82.6245 232.261C82.7898 231.991 82.9954 231.777 83.2413 231.62C83.4912 231.463 83.7835 231.384 84.1181 231.384C84.2027 231.384 84.2975 231.392 84.4023 231.409C84.5071 231.425 84.5857 231.443 84.6381 231.463L84.626 232.884C84.5333 232.872 84.4345 232.862 84.3297 232.854C84.2289 232.842 84.1282 232.836 84.0274 232.836C83.6726 232.836 83.3824 232.904 83.1566 233.041C82.9309 233.178 82.7636 233.372 82.6547 233.622V238.048Z" fill="white"/>
      <path d="M88.4416 238.169C87.7926 238.169 87.2322 238.03 86.7606 237.752C86.2889 237.47 85.9261 237.091 85.6721 236.615C85.4181 236.135 85.2912 235.599 85.2912 235.006V234.759C85.2912 234.077 85.4202 233.485 85.6782 232.981C85.9362 232.473 86.2889 232.08 86.7364 231.802C87.1879 231.523 87.6978 231.384 88.2662 231.384C88.8951 231.384 89.4172 231.521 89.8324 231.796C90.2476 232.066 90.558 232.443 90.7636 232.926C90.9692 233.406 91.072 233.962 91.072 234.595V235.242H86.8029C86.8432 235.738 87.0145 236.149 87.3169 236.476C87.6192 236.798 88.0244 236.96 88.5323 236.96C88.883 236.96 89.1934 236.891 89.4635 236.754C89.7336 236.617 89.9694 236.419 90.171 236.161L90.9571 236.947C90.7475 237.258 90.4371 237.54 90.0259 237.794C89.6147 238.044 89.0866 238.169 88.4416 238.169ZM88.2602 232.588C87.8611 232.588 87.5406 232.729 87.2987 233.011C87.0569 233.293 86.9017 233.676 86.8331 234.16H89.5905V234.045C89.5824 233.791 89.532 233.553 89.4393 233.331C89.3506 233.11 89.2095 232.93 89.016 232.793C88.8266 232.656 88.5746 232.588 88.2602 232.588Z" fill="white"/>
      <path d="M96.1151 231.505H97.6147V238.048H96.1997L96.1634 237.389C95.9579 237.635 95.7039 237.826 95.4015 237.963C95.0992 238.1 94.7404 238.169 94.3252 238.169C93.6802 238.169 93.1581 237.979 92.7591 237.601C92.36 237.222 92.1604 236.599 92.1604 235.732V231.505H93.66V235.744C93.66 236.2 93.7628 236.514 93.9684 236.687C94.174 236.857 94.4179 236.941 94.7001 236.941C95.071 236.941 95.3693 236.875 95.595 236.742C95.8248 236.605 95.9982 236.421 96.1151 236.192V231.505Z" fill="white"/>
      <path d="M100.59 238.048H99.0841V231.505H100.499L100.547 232.219C100.765 231.957 101.031 231.753 101.346 231.608C101.664 231.459 102.031 231.384 102.446 231.384C102.849 231.384 103.206 231.465 103.516 231.626C103.827 231.787 104.067 232.043 104.236 232.394C104.45 232.088 104.724 231.844 105.058 231.663C105.397 231.477 105.792 231.384 106.244 231.384C106.909 231.384 107.431 231.572 107.81 231.947C108.193 232.322 108.384 232.948 108.384 233.827V238.048H106.879V233.815C106.879 233.335 106.774 233.015 106.564 232.854C106.358 232.692 106.08 232.612 105.73 232.612C105.403 232.612 105.135 232.699 104.925 232.872C104.716 233.045 104.569 233.271 104.484 233.549C104.484 233.593 104.484 233.64 104.484 233.688V238.048H102.984V233.827C102.984 233.364 102.88 233.045 102.67 232.872C102.464 232.699 102.184 232.612 101.829 232.612C101.519 232.612 101.263 232.678 101.061 232.811C100.86 232.94 100.703 233.118 100.59 233.344V238.048Z" fill="white"/>
    </g>
    <g opacity="0.5">
      <rect x="11.008" y="218.096" width="34.4" height="34.4" rx="8" fill="#6B71D6"/>
      <path fill-rule="evenodd" clip-rule="evenodd" d="M28.4534 224.163C28.4034 224.284 26.8945 226.845 25.1003 229.853C23.306 232.862 21.8231 235.363 21.8047 235.411C21.7809 235.474 22.7557 236.087 25.2227 237.56L28.6741 239.62L32.1245 237.559C34.6033 236.077 35.5655 235.472 35.5414 235.408C35.4167 235.08 28.7071 223.944 28.6339 223.944C28.5846 223.944 28.5033 224.043 28.4534 224.163ZM21.8129 236.893C21.9459 237.123 28.6456 246.649 28.6736 246.648C28.7199 246.646 35.5696 236.865 35.5431 236.838C35.5181 236.813 29.1156 240.624 28.8485 240.823L28.6848 240.945L25.3699 238.967C23.5466 237.879 21.9876 236.945 21.9053 236.892C21.7689 236.803 21.7607 236.803 21.8129 236.893Z" fill="white"/>
    </g>
    <path d="M246.87 289.786L243.091 285.964C242.795 285.674 242.324 285.678 242.032 285.973C241.741 286.268 241.737 286.745 242.023 287.045L245.267 290.327L242.023 293.608C241.826 293.8 241.748 294.084 241.817 294.352C241.886 294.619 242.092 294.828 242.357 294.898C242.621 294.968 242.902 294.888 243.091 294.689L246.87 290.867C247.165 290.568 247.165 290.085 246.87 289.786Z" fill="#9BA3AE"/>
    <path d="M208.426 286.896H202.361V285.65L205.203 282.627C205.623 282.171 205.913 281.793 206.074 281.49C206.239 281.184 206.322 280.906 206.322 280.656C206.322 280.277 206.227 279.978 206.038 279.761C205.852 279.543 205.584 279.434 205.234 279.434C204.843 279.434 204.54 279.573 204.327 279.851C204.117 280.126 204.012 280.468 204.012 280.879H202.186C202.186 280.347 202.311 279.862 202.561 279.422C202.811 278.979 203.166 278.626 203.625 278.364C204.089 278.098 204.637 277.965 205.27 277.965C206.205 277.965 206.919 278.189 207.411 278.636C207.906 279.084 208.154 279.698 208.154 280.48C208.154 281.077 207.975 281.641 207.616 282.173C207.261 282.702 206.784 283.274 206.183 283.891L204.72 285.427H208.426V286.896Z" fill="white"/>
    <path d="M209.714 282.579L210.228 278.092H215.211V279.598H211.728L211.516 281.424C211.629 281.363 211.801 281.295 212.03 281.218C212.264 281.141 212.526 281.103 212.816 281.103C213.671 281.103 214.332 281.363 214.8 281.883C215.271 282.403 215.507 283.131 215.507 284.066C215.507 284.582 215.398 285.066 215.181 285.517C214.967 285.965 214.639 286.328 214.195 286.606C213.752 286.88 213.191 287.017 212.514 287.017C212.002 287.017 211.518 286.914 211.063 286.709C210.607 286.503 210.234 286.207 209.944 285.82C209.658 285.433 209.511 284.969 209.503 284.429H211.317C211.349 284.776 211.47 285.05 211.68 285.251C211.889 285.449 212.163 285.548 212.502 285.548C212.929 285.548 213.232 285.392 213.409 285.082C213.59 284.772 213.681 284.395 213.681 283.951C213.681 283.504 213.57 283.143 213.349 282.869C213.127 282.595 212.78 282.458 212.309 282.458C211.998 282.458 211.758 282.508 211.589 282.609C211.42 282.71 211.281 282.818 211.172 282.935L209.714 282.579Z" fill="white"/>
    <path d="M216.771 285.995C216.771 285.721 216.864 285.491 217.049 285.306C217.239 285.12 217.489 285.028 217.799 285.028C218.109 285.028 218.357 285.12 218.543 285.306C218.728 285.491 218.821 285.721 218.821 285.995C218.821 286.269 218.728 286.499 218.543 286.684C218.357 286.87 218.109 286.963 217.799 286.963C217.489 286.963 217.239 286.87 217.049 286.684C216.864 286.499 216.771 286.269 216.771 285.995Z" fill="white"/>
    <path d="M225.485 286.896H223.665V285.009H220.097L220.012 283.855L223.646 278.092H225.485V283.54H226.458V285.009H225.485V286.896ZM221.808 283.54H223.665V280.571L223.55 280.765L221.808 283.54Z" fill="white"/>
    <path d="M233.412 279.108L230.038 286.896H228.109L231.483 279.561H227.154V278.092H233.412V279.108Z" fill="white"/>
    <path d="M195.364 304.386H194.884V303.502C194.552 303.48 194.233 303.399 193.929 303.258C193.628 303.117 193.382 302.9 193.191 302.609C193.003 302.314 192.909 301.923 192.909 301.438H193.468C193.468 301.842 193.552 302.159 193.718 302.388C193.884 302.616 194.091 302.778 194.339 302.872C194.589 302.963 194.842 303.008 195.096 303.008C195.572 303.008 195.942 302.883 196.206 302.632C196.472 302.381 196.605 302.077 196.605 301.72C196.605 301.375 196.493 301.093 196.267 300.873C196.044 300.651 195.644 300.439 195.067 300.238C194.672 300.11 194.331 299.964 194.042 299.801C193.757 299.638 193.536 299.434 193.379 299.189C193.225 298.942 193.149 298.631 193.149 298.258C193.149 297.744 193.305 297.329 193.619 297.012C193.936 296.692 194.362 296.512 194.898 296.471V295.521H195.383V296.471C195.928 296.521 196.353 296.727 196.657 297.087C196.964 297.445 197.118 297.94 197.118 298.573H196.558C196.558 298.109 196.436 297.725 196.192 297.421C195.947 297.114 195.593 296.96 195.129 296.96C194.643 296.96 194.285 297.087 194.056 297.341C193.827 297.595 193.713 297.896 193.713 298.244C193.713 298.476 193.755 298.678 193.84 298.851C193.925 299.02 194.078 299.175 194.301 299.316C194.523 299.457 194.843 299.597 195.26 299.735C195.652 299.867 195.991 300.014 196.276 300.177C196.562 300.337 196.781 300.539 196.935 300.784C197.088 301.028 197.165 301.337 197.165 301.71C197.165 302.234 197.002 302.651 196.676 302.961C196.35 303.272 195.912 303.45 195.364 303.497V304.386Z" fill="white"/>
    <path d="M200.18 299.674C200.703 299.674 201.1 299.544 201.37 299.283C201.642 299.023 201.779 298.71 201.779 298.343C201.779 297.932 201.661 297.597 201.426 297.336C201.194 297.073 200.832 296.941 200.34 296.941C199.91 296.941 199.551 297.068 199.263 297.322C198.977 297.576 198.835 297.921 198.835 298.357H198.275C198.275 297.984 198.364 297.656 198.543 297.374C198.722 297.089 198.966 296.866 199.277 296.706C199.59 296.546 199.945 296.466 200.34 296.466C200.942 296.466 201.425 296.631 201.788 296.96C202.155 297.289 202.339 297.757 202.339 298.362C202.339 298.669 202.24 298.967 202.042 299.255C201.845 299.541 201.553 299.755 201.167 299.9C201.619 300.022 201.948 300.232 202.155 300.53C202.362 300.828 202.466 301.166 202.466 301.546C202.466 301.963 202.375 302.317 202.193 302.609C202.011 302.897 201.76 303.118 201.44 303.272C201.124 303.425 200.765 303.502 200.363 303.502C199.993 303.502 199.64 303.43 199.305 303.286C198.973 303.142 198.7 302.925 198.487 302.637C198.277 302.345 198.172 301.983 198.172 301.55H198.736C198.736 301.986 198.886 302.342 199.187 302.618C199.492 302.891 199.883 303.027 200.363 303.027C200.849 303.027 201.227 302.902 201.497 302.651C201.769 302.397 201.906 302.035 201.906 301.564C201.906 301.069 201.746 300.712 201.426 300.492C201.106 300.27 200.691 300.158 200.18 300.158H199.606V299.674H200.18Z" fill="white"/>
    <path d="M204.328 303.178C204.328 303.466 204.268 303.744 204.149 304.01C204.033 304.28 203.872 304.505 203.665 304.687L203.331 304.447C203.475 304.25 203.585 304.052 203.66 303.855C203.735 303.661 203.773 303.439 203.773 303.192V302.519H204.328V303.178Z" fill="white"/>
    <path d="M207.376 299.674C207.899 299.674 208.296 299.544 208.565 299.283C208.838 299.023 208.975 298.71 208.975 298.343C208.975 297.932 208.857 297.597 208.622 297.336C208.39 297.073 208.028 296.941 207.535 296.941C207.106 296.941 206.747 297.068 206.458 297.322C206.173 297.576 206.03 297.921 206.03 298.357H205.471C205.471 297.984 205.56 297.656 205.739 297.374C205.918 297.089 206.162 296.866 206.473 296.706C206.786 296.546 207.14 296.466 207.535 296.466C208.137 296.466 208.62 296.631 208.984 296.96C209.351 297.289 209.534 297.757 209.534 298.362C209.534 298.669 209.436 298.967 209.238 299.255C209.04 299.541 208.749 299.755 208.363 299.9C208.815 300.022 209.144 300.232 209.351 300.53C209.558 300.828 209.661 301.166 209.661 301.546C209.661 301.963 209.57 302.317 209.389 302.609C209.207 302.897 208.956 303.118 208.636 303.272C208.319 303.425 207.96 303.502 207.559 303.502C207.189 303.502 206.836 303.43 206.501 303.286C206.168 303.142 205.896 302.925 205.682 302.637C205.472 302.345 205.367 301.983 205.367 301.55H205.932C205.932 301.986 206.082 302.342 206.383 302.618C206.687 302.891 207.079 303.027 207.559 303.027C208.045 303.027 208.423 302.902 208.692 302.651C208.965 302.397 209.102 302.035 209.102 301.564C209.102 301.069 208.942 300.712 208.622 300.492C208.302 300.27 207.887 300.158 207.376 300.158H206.802V299.674H207.376Z" fill="white"/>
    <path d="M215.183 303.408H210.889V302.971L213.132 300.431C213.552 299.954 213.847 299.561 214.016 299.251C214.189 298.937 214.275 298.638 214.275 298.352C214.275 297.938 214.153 297.6 213.908 297.336C213.664 297.073 213.309 296.941 212.845 296.941C212.369 296.941 211.992 297.092 211.717 297.393C211.441 297.694 211.303 298.073 211.303 298.531H210.738C210.738 298.155 210.821 297.81 210.988 297.496C211.157 297.183 211.398 296.933 211.712 296.749C212.029 296.56 212.406 296.466 212.845 296.466C213.46 296.466 213.946 296.629 214.303 296.955C214.661 297.278 214.839 297.727 214.839 298.301C214.839 298.576 214.775 298.854 214.647 299.133C214.521 299.412 214.355 299.69 214.148 299.965C213.944 300.241 213.726 300.511 213.494 300.774L211.58 302.933H215.183V303.408Z" fill="white"/>
    <path d="M220.361 300.553C220.361 301.557 220.177 302.3 219.811 302.783C219.444 303.262 218.928 303.502 218.263 303.502C217.608 303.502 217.092 303.262 216.716 302.783C216.34 302.3 216.152 301.557 216.152 300.553V299.396C216.152 298.393 216.337 297.653 216.707 297.176C217.08 296.7 217.595 296.462 218.254 296.462C218.915 296.462 219.431 296.7 219.801 297.176C220.174 297.653 220.361 298.393 220.361 299.396V300.553ZM219.801 299.326C219.801 298.545 219.671 297.953 219.411 297.548C219.154 297.144 218.768 296.941 218.254 296.941C217.746 296.941 217.362 297.144 217.102 297.548C216.845 297.953 216.716 298.545 216.716 299.326V300.614C216.716 301.383 216.846 301.977 217.106 302.397C217.37 302.817 217.755 303.027 218.263 303.027C218.781 303.027 219.166 302.817 219.42 302.397C219.674 301.977 219.801 301.383 219.801 300.614V299.326Z" fill="white"/>
    <path d="M221.617 303.065C221.617 302.955 221.651 302.863 221.72 302.787C221.792 302.712 221.889 302.674 222.012 302.674C222.137 302.674 222.236 302.712 222.308 302.787C222.38 302.863 222.416 302.955 222.416 303.065C222.416 303.175 222.38 303.265 222.308 303.338C222.236 303.41 222.137 303.446 222.012 303.446C221.889 303.446 221.792 303.41 221.72 303.338C221.651 303.265 221.617 303.175 221.617 303.065Z" fill="white"/>
    <path d="M224.264 299.895L224.598 296.56H228.022V297.078H225.083L224.838 299.396C224.957 299.312 225.13 299.229 225.356 299.147C225.584 299.062 225.842 299.02 226.127 299.02C226.738 299.02 227.229 299.218 227.599 299.613C227.972 300.005 228.159 300.542 228.159 301.226C228.159 301.662 228.087 302.052 227.942 302.397C227.798 302.739 227.575 303.008 227.274 303.206C226.973 303.403 226.586 303.502 226.113 303.502C225.749 303.502 225.415 303.433 225.111 303.295C224.81 303.157 224.562 302.949 224.368 302.67C224.177 302.388 224.062 302.033 224.025 301.607H224.565C224.619 302.068 224.777 302.42 225.04 302.665C225.307 302.906 225.664 303.027 226.113 303.027C226.599 303.027 226.966 302.872 227.213 302.562C227.464 302.248 227.59 301.806 227.59 301.235C227.59 300.752 227.455 300.348 227.185 300.022C226.919 299.696 226.533 299.533 226.028 299.533C225.702 299.533 225.442 299.577 225.247 299.664C225.056 299.752 224.877 299.871 224.711 300.022L224.264 299.895Z" fill="white"/>
    <path d="M229.607 299.895L229.941 296.56H233.365V297.078H230.426L230.181 299.396C230.3 299.312 230.473 299.229 230.698 299.147C230.927 299.062 231.184 299.02 231.47 299.02C232.081 299.02 232.572 299.218 232.942 299.613C233.315 300.005 233.501 300.542 233.501 301.226C233.501 301.662 233.429 302.052 233.285 302.397C233.141 302.739 232.918 303.008 232.617 303.206C232.316 303.403 231.929 303.502 231.456 303.502C231.092 303.502 230.758 303.433 230.454 303.295C230.153 303.157 229.905 302.949 229.711 302.67C229.519 302.388 229.405 302.033 229.367 301.607H229.908C229.962 302.068 230.12 302.42 230.383 302.665C230.65 302.906 231.007 303.027 231.456 303.027C231.942 303.027 232.308 302.872 232.556 302.562C232.807 302.248 232.932 301.806 232.932 301.235C232.932 300.752 232.798 300.348 232.528 300.022C232.261 299.696 231.876 299.533 231.371 299.533C231.045 299.533 230.785 299.577 230.59 299.664C230.399 299.752 230.22 299.871 230.054 300.022L229.607 299.895Z" fill="white"/>
    <path d="M62.1498 294.464H56.6108V285.66H58.1709V293.212H62.1498V294.464Z" fill="white"/>
    <path d="M63.1717 286.21C63.1717 285.98 63.2463 285.791 63.3954 285.642C63.5446 285.488 63.7522 285.412 64.0183 285.412C64.2843 285.412 64.4939 285.488 64.6471 285.642C64.8003 285.791 64.8769 285.98 64.8769 286.21C64.8769 286.436 64.8003 286.625 64.6471 286.778C64.4939 286.928 64.2843 287.002 64.0183 287.002C63.7522 287.002 63.5446 286.928 63.3954 286.778C63.2463 286.625 63.1717 286.436 63.1717 286.21ZM64.7681 294.464H63.2684V287.921H64.7681V294.464Z" fill="white"/>
    <path d="M69.3818 289.028H68.2208V292.62C68.2208 292.918 68.2833 293.114 68.4083 293.206C68.5333 293.295 68.7006 293.339 68.9102 293.339C69.011 293.339 69.1077 293.333 69.2004 293.321C69.2932 293.309 69.3677 293.297 69.4242 293.285V294.44C69.3032 294.48 69.1621 294.514 69.0009 294.543C68.8396 294.571 68.6542 294.585 68.4446 294.585C67.9407 294.585 67.5275 294.446 67.205 294.168C66.8825 293.886 66.7212 293.406 66.7212 292.729V289.028H65.6691V287.921H66.7212V286.319H68.2208V287.921H69.3818V289.028Z" fill="white"/>
    <path d="M73.3849 294.585C72.7358 294.585 72.1755 294.446 71.7038 294.168C71.2322 293.886 70.8694 293.507 70.6154 293.031C70.3614 292.551 70.2344 292.015 70.2344 291.422V291.175C70.2344 290.493 70.3634 289.901 70.6214 289.397C70.8794 288.889 71.2322 288.496 71.6797 288.218C72.1312 287.939 72.6411 287.8 73.2095 287.8C73.8384 287.8 74.3604 287.937 74.7757 288.212C75.1909 288.482 75.5013 288.859 75.7069 289.342C75.9125 289.822 76.0153 290.378 76.0153 291.011V291.658H71.7462C71.7865 292.154 71.9578 292.565 72.2602 292.892C72.5625 293.214 72.9676 293.376 73.4756 293.376C73.8263 293.376 74.1367 293.307 74.4068 293.17C74.6769 293.033 74.9127 292.835 75.1143 292.577L75.9004 293.363C75.6907 293.674 75.3803 293.956 74.9692 294.21C74.558 294.46 74.0299 294.585 73.3849 294.585ZM73.2035 289.004C72.8044 289.004 72.4839 289.145 72.242 289.427C72.0001 289.709 71.8449 290.092 71.7764 290.576H74.5338V290.461C74.5257 290.207 74.4753 289.969 74.3826 289.747C74.2939 289.526 74.1528 289.346 73.9593 289.209C73.7699 289.072 73.5179 289.004 73.2035 289.004Z" fill="white"/>
    <path d="M79.8248 293.382C80.1755 293.382 80.4698 293.279 80.7076 293.073C80.9495 292.868 81.0805 292.604 81.1007 292.281H82.5157C82.5036 292.712 82.3766 293.103 82.1347 293.454C81.8928 293.801 81.5723 294.077 81.1732 294.283C80.7742 294.484 80.3287 294.585 79.8369 294.585C79.1717 294.585 78.6174 294.438 78.174 294.144C77.7346 293.845 77.406 293.448 77.1884 292.952C76.9707 292.452 76.8618 291.9 76.8618 291.295V291.09C76.8618 290.485 76.9707 289.935 77.1884 289.439C77.406 288.939 77.7346 288.542 78.174 288.248C78.6174 287.95 79.1717 287.8 79.8369 287.8C80.3609 287.8 80.8225 287.905 81.2216 288.115C81.6207 288.32 81.9331 288.611 82.1589 288.986C82.3846 289.356 82.5036 289.788 82.5157 290.28H81.1007C81.0846 289.929 80.9636 289.629 80.7379 289.379C80.5162 289.129 80.2098 289.004 79.8187 289.004C79.4317 289.004 79.1314 289.107 78.9178 289.312C78.7081 289.514 78.563 289.774 78.4824 290.092C78.4018 290.411 78.3614 290.743 78.3614 291.09V291.295C78.3614 291.65 78.4018 291.987 78.4824 292.305C78.563 292.624 78.7081 292.884 78.9178 293.085C79.1274 293.283 79.4297 293.382 79.8248 293.382Z" fill="white"/>
    <path d="M83.3441 291.132C83.3441 290.495 83.465 289.927 83.7069 289.427C83.9488 288.923 84.2954 288.526 84.7469 288.236C85.2025 287.946 85.7487 287.8 86.3857 287.8C87.0307 287.8 87.5809 287.946 88.0364 288.236C88.492 288.526 88.8387 288.923 89.0765 289.427C89.3184 289.927 89.4393 290.495 89.4393 291.132V291.259C89.4393 291.892 89.3184 292.46 89.0765 292.964C88.8387 293.464 88.492 293.859 88.0364 294.15C87.5849 294.44 87.0387 294.585 86.3977 294.585C85.7568 294.585 85.2085 294.44 84.753 294.15C84.2975 293.859 83.9488 293.464 83.7069 292.964C83.465 292.46 83.3441 291.892 83.3441 291.259V291.132ZM84.8437 291.259C84.8437 291.646 84.8961 292.001 85.0009 292.323C85.1098 292.642 85.2791 292.898 85.5089 293.091C85.7386 293.285 86.0349 293.382 86.3977 293.382C86.7565 293.382 87.0488 293.285 87.2745 293.091C87.5043 292.898 87.6716 292.642 87.7764 292.323C87.8853 292.001 87.9397 291.646 87.9397 291.259V291.132C87.9397 290.753 87.8853 290.403 87.7764 290.08C87.6716 289.758 87.5043 289.498 87.2745 289.3C87.0448 289.102 86.7485 289.004 86.3857 289.004C86.0269 289.004 85.7326 289.102 85.5028 289.3C85.2771 289.498 85.1098 289.758 85.0009 290.08C84.8961 290.403 84.8437 290.753 84.8437 291.132V291.259Z" fill="white"/>
    <path d="M90.6608 286.21C90.6608 285.98 90.7354 285.791 90.8845 285.642C91.0337 285.488 91.2413 285.412 91.5074 285.412C91.7734 285.412 91.983 285.488 92.1362 285.642C92.2894 285.791 92.366 285.98 92.366 286.21C92.366 286.436 92.2894 286.625 92.1362 286.778C91.983 286.928 91.7734 287.002 91.5074 287.002C91.2413 287.002 91.0337 286.928 90.8845 286.778C90.7354 286.625 90.6608 286.436 90.6608 286.21ZM92.2572 294.464H90.7575V287.921H92.2572V294.464Z" fill="white"/>
    <path d="M95.3229 294.464H93.8233V287.921H95.2322L95.2806 288.695C95.5104 288.409 95.7865 288.189 96.109 288.036C96.4315 287.879 96.7903 287.8 97.1854 287.8C97.8142 287.8 98.3181 287.986 98.6971 288.357C99.0801 288.724 99.2715 289.354 99.2715 290.249V294.464H97.7659V290.237C97.7659 289.782 97.6671 289.467 97.4696 289.294C97.2761 289.117 96.9939 289.028 96.623 289.028C96.3247 289.028 96.0647 289.1 95.843 289.246C95.6253 289.387 95.4519 289.578 95.3229 289.82V294.464Z" fill="white"/>
    <rect x="11.008" y="274.512" width="34.4" height="34.4" rx="8" fill="#A6A9AA"/>
    <path d="M28.4622 292.873L26.983 297.86H34.8947C35.0006 297.857 35.1035 297.895 35.181 297.967C35.2584 298.04 35.3039 298.14 35.3075 298.246V298.376L34.6195 300.75C34.557 300.981 34.3428 301.138 34.1035 301.128H21.9952L24.0248 294.214L21.7545 294.902L22.2704 293.32L24.5407 292.632L27.3958 282.931C27.4605 282.702 27.6733 282.546 27.9118 282.553H30.9733C31.0791 282.549 31.1821 282.588 31.2595 282.66C31.3369 282.732 31.3825 282.832 31.3861 282.938V283.069L28.9782 291.256L31.2485 290.568L30.7669 292.219L28.4622 292.873Z" fill="white"/>
    <rect x="13.072" y="330.928" width="29.584" height="29.584" rx="12" fill="#252525"/>
    <path d="M54.8895 350.192H53.8145L56.803 342.366H57.7168L60.7106 350.192H59.641L58.8939 348.144H55.6313L54.8895 350.192ZM55.9376 347.3H58.5875L57.2599 343.645L55.9376 347.3Z" fill="white"/>
    <path d="M61.3664 347.236C61.3664 346.645 61.4613 346.127 61.6513 345.682C61.8448 345.234 62.1135 344.887 62.4575 344.64C62.8015 344.392 63.2046 344.269 63.6669 344.269C64.0181 344.269 64.3262 344.328 64.5914 344.446C64.8566 344.564 65.0841 344.733 65.274 344.951V341.936H66.2791V350.192H65.36L65.3116 349.574C65.1217 349.807 64.8888 349.986 64.6129 350.111C64.3406 350.237 64.0216 350.3 63.6561 350.3C63.2011 350.3 62.8015 350.172 62.4575 349.918C62.1135 349.66 61.8448 349.309 61.6513 348.864C61.4613 348.42 61.3664 347.915 61.3664 347.349V347.236ZM62.3715 347.349C62.3715 347.736 62.4235 348.09 62.5274 348.413C62.6349 348.732 62.8015 348.986 63.0273 349.176C63.253 349.366 63.5451 349.461 63.9034 349.461C64.251 349.461 64.5323 349.382 64.7473 349.225C64.9658 349.067 65.1414 348.866 65.274 348.623V345.919C65.145 345.682 64.9712 345.487 64.7526 345.333C64.5341 345.179 64.2546 345.102 63.9141 345.102C63.5522 345.102 63.2566 345.199 63.0273 345.392C62.8015 345.586 62.6349 345.845 62.5274 346.172C62.4235 346.494 62.3715 346.849 62.3715 347.236V347.349Z" fill="white"/>
    <path d="M67.5799 347.236C67.5799 346.645 67.6748 346.127 67.8648 345.682C68.0583 345.234 68.327 344.887 68.671 344.64C69.015 344.392 69.4181 344.269 69.8804 344.269C70.2316 344.269 70.5397 344.328 70.8049 344.446C71.0701 344.564 71.2976 344.733 71.4875 344.951V341.936H72.4926V350.192H71.5735L71.5251 349.574C71.3352 349.807 71.1023 349.986 70.8264 350.111C70.5541 350.237 70.2351 350.3 69.8696 350.3C69.4146 350.3 69.015 350.172 68.671 349.918C68.327 349.66 68.0583 349.309 67.8648 348.864C67.6748 348.42 67.5799 347.915 67.5799 347.349V347.236ZM68.585 347.349C68.585 347.736 68.637 348.09 68.7409 348.413C68.8484 348.732 69.015 348.986 69.2408 349.176C69.4665 349.366 69.7586 349.461 70.1169 349.461C70.4645 349.461 70.7458 349.382 70.9608 349.225C71.1793 349.067 71.3549 348.866 71.4875 348.623V345.919C71.3585 345.682 71.1847 345.487 70.9661 345.333C70.7476 345.179 70.4681 345.102 70.1276 345.102C69.7657 345.102 69.4701 345.199 69.2408 345.392C69.015 345.586 68.8484 345.845 68.7409 346.172C68.637 346.494 68.585 346.849 68.585 347.236V347.349Z" fill="white"/>
    <path d="M78.6148 347.73L78.7653 348.746L78.9803 347.832L80.5283 342.366H81.4044L82.9094 347.832L83.1298 348.768L83.291 347.725L84.495 342.366H85.5431L83.6511 350.192H82.6998L81.0926 344.478L80.9744 343.898L80.8508 344.478L79.1845 350.192H78.2331L76.3411 342.366H77.3839L78.6148 347.73Z" fill="white"/>
    <path d="M89.784 346.204C89.784 345.856 89.6801 345.58 89.4723 345.376C89.268 345.168 88.9652 345.064 88.5639 345.064C88.1912 345.064 87.8902 345.157 87.6609 345.344C87.4316 345.53 87.3169 345.745 87.3169 345.989H86.3118C86.3118 345.709 86.4067 345.439 86.5966 345.177C86.7866 344.912 87.0535 344.695 87.3975 344.527C87.7451 344.355 88.1536 344.269 88.623 344.269C89.2573 344.269 89.7768 344.43 90.1818 344.753C90.5867 345.075 90.7891 345.562 90.7891 346.215V348.924C90.7891 349.117 90.8053 349.323 90.8375 349.542C90.8733 349.76 90.9253 349.948 90.9934 350.106V350.192H89.9453C89.913 350.12 89.8843 350.031 89.8593 349.923C89.8378 349.816 89.8198 349.703 89.8055 349.585C89.6192 349.782 89.3863 349.95 89.1068 350.09C88.8308 350.23 88.5137 350.3 88.1554 350.3C87.7612 350.3 87.4154 350.224 87.118 350.074C86.8242 349.92 86.5948 349.712 86.43 349.45C86.2688 349.189 86.1881 348.898 86.1881 348.58C86.1881 347.952 86.4246 347.478 86.8976 347.155C87.3706 346.829 88.0067 346.666 88.8058 346.666H89.784V346.204ZM88.3005 349.44C88.6588 349.44 88.9688 349.35 89.2304 349.171C89.492 348.988 89.6765 348.786 89.784 348.563V347.365H88.967C88.4008 347.365 87.9637 347.454 87.6555 347.634C87.3473 347.813 87.1933 348.081 87.1933 348.44C87.1933 348.719 87.2864 348.956 87.4728 349.149C87.6627 349.343 87.9386 349.44 88.3005 349.44Z" fill="white"/>
    <path d="M93.4444 350.192H92.4393V341.936H93.4444V350.192Z" fill="white"/>
    <path d="M96.1211 350.192H95.116V341.936H96.1211V350.192Z" fill="white"/>
    <path d="M100.126 350.3C99.5844 350.3 99.1132 350.179 98.7119 349.939C98.3141 349.696 98.0042 349.362 97.782 348.94C97.5634 348.517 97.4541 348.033 97.4541 347.488V347.257C97.4541 346.627 97.5742 346.089 97.8143 345.645C98.0579 345.197 98.3733 344.856 98.7603 344.624C99.1508 344.387 99.5629 344.269 99.9965 344.269C100.556 344.269 101.011 344.394 101.362 344.645C101.717 344.892 101.976 345.231 102.141 345.661C102.31 346.087 102.394 346.571 102.394 347.112V347.558H98.4593C98.47 347.917 98.5435 348.243 98.6796 348.537C98.8194 348.827 99.0165 349.06 99.2709 349.235C99.5253 349.407 99.8281 349.493 100.179 349.493C100.53 349.493 100.828 349.422 101.072 349.278C101.315 349.135 101.528 348.943 101.711 348.703L102.319 349.176C102.132 349.463 101.863 349.723 101.512 349.956C101.165 350.185 100.702 350.3 100.126 350.3ZM99.9965 345.075C99.6023 345.075 99.2691 345.22 98.9968 345.51C98.728 345.801 98.5596 346.215 98.4915 346.752H101.389V346.677C101.374 346.419 101.322 346.168 101.233 345.924C101.143 345.677 101 345.475 100.803 345.317C100.606 345.156 100.337 345.075 99.9965 345.075Z" fill="white"/>
    <path d="M106 345.134H104.915V348.752C104.915 349.053 104.979 349.244 105.108 349.327C105.241 349.409 105.389 349.45 105.554 349.45C105.637 349.45 105.723 349.443 105.812 349.429C105.905 349.414 105.974 349.402 106.017 349.391L106.022 350.192C105.943 350.217 105.839 350.24 105.71 350.262C105.585 350.287 105.432 350.3 105.253 350.3C105.01 350.3 104.786 350.251 104.581 350.154C104.377 350.058 104.214 349.896 104.092 349.671C103.97 349.441 103.91 349.133 103.91 348.746V345.134H102.851V344.376H103.91V342.963H104.915V344.376H106V345.134Z" fill="white"/>
    <path fill-rule="evenodd" clip-rule="evenodd" d="M31.777 345.161H28.423V341.807C28.423 341.472 28.1994 341.248 27.864 341.248C27.5286 341.248 27.305 341.472 27.305 341.807V345.161H23.951C23.6156 345.161 23.392 345.385 23.392 345.72C23.392 346.055 23.6156 346.279 23.951 346.279H27.305V349.633C27.305 349.968 27.5286 350.192 27.864 350.192C28.1994 350.192 28.423 349.968 28.423 349.633V346.279H31.777C32.1124 346.279 32.336 346.055 32.336 345.72C32.336 345.385 32.1124 345.161 31.777 345.161Z" fill="#F5F7F8"/>
    <rect y="511" width="258" height="47.9855" fill="black"/>
    <path d="M0.687988 511.312H258" stroke="#252525" stroke-width="0.905797" stroke-linecap="square"/>
    <path d="M40.3314 533.576L32.7634 527.967C32.51 527.779 32.1457 527.779 31.8924 527.967L24.3244 533.576C24.0371 533.795 23.9975 534.183 24.2355 534.446C24.4734 534.71 24.9008 534.752 25.1954 534.54L26.1359 533.844V540.913C26.1359 541.257 26.4439 541.536 26.8239 541.536H30.9519V537.797H33.7039V541.536H37.8319C38.2118 541.536 38.5199 541.257 38.5199 540.913V533.844L39.4604 534.54C39.6502 534.685 39.9115 534.727 40.1442 534.648C40.3769 534.569 40.5448 534.383 40.5836 534.161C40.6224 533.939 40.526 533.715 40.3314 533.576Z" fill="#4F6EF7"/>
    <path fill-rule="evenodd" clip-rule="evenodd" d="M86 531.526H87.935C88.291 531.526 88.58 531.762 88.58 532.052V540.948C88.58 541.411 87.935 542.043 87.4094 542.043H75.68C74.2552 542.043 73.1 541.101 73.1 539.939V531.001C73.1 530.129 73.9662 529.423 75.035 529.423H85.355C85.711 529.423 86 529.659 86 529.949V531.526ZM75.68 531.526H84.71V530.475H75.035C74.6796 530.475 74.39 530.711 74.39 531.001C74.39 531.29 74.6796 531.526 75.035 531.526H75.68ZM83.42 536.88C83.42 537.514 83.9972 538.027 84.71 538.027C85.4227 538.027 86 537.514 86 536.88C86 536.246 85.4227 535.733 84.71 535.733C83.9972 535.733 83.42 536.246 83.42 536.88Z" fill="#C2C7D3"/>
    <path fill-rule="evenodd" clip-rule="evenodd" d="M168.994 541.484H183.95C184.57 541.484 185.072 541.023 185.072 540.453V530.831C185.072 530.261 184.57 529.8 183.95 529.8H168.994C168.374 529.8 167.872 530.261 167.872 530.831V540.453C167.872 541.023 168.374 541.484 168.994 541.484ZM178.622 536.94H170.022V538.239H178.622V536.94Z" fill="#C2C7D3"/>
    <path d="M167.872 531.747H185.072V534.344H167.872V531.747Z" fill="#9BA3AE"/>
    <path fill-rule="evenodd" clip-rule="evenodd" d="M230.136 535.304C230.134 535.557 230.109 535.81 230.063 536.059L231.266 537.112C231.455 537.277 231.496 537.538 231.364 537.745L230.504 539.095C230.402 539.256 230.212 539.355 230.007 539.355C229.954 539.354 229.901 539.348 229.849 539.335L228.244 538.919C227.81 539.24 227.322 539.494 226.797 539.673L226.392 541.143C226.328 541.374 226.099 541.536 225.836 541.536H224.116C223.854 541.536 223.625 541.374 223.562 541.143L223.156 539.673C222.631 539.495 222.142 539.241 221.707 538.92L220.102 539.335C220.051 539.348 219.998 539.355 219.944 539.355C219.739 539.355 219.55 539.256 219.447 539.095L218.587 537.745C218.456 537.539 218.496 537.278 218.685 537.113L219.889 536.059C219.842 535.81 219.818 535.557 219.816 535.304C219.818 535.052 219.843 534.799 219.889 534.55L218.685 533.497C218.496 533.331 218.456 533.07 218.587 532.864L219.447 531.513C219.58 531.308 219.85 531.21 220.103 531.274L221.708 531.689C222.142 531.369 222.63 531.114 223.155 530.936L223.56 529.466C223.624 529.235 223.853 529.073 224.116 529.073H225.836C226.099 529.073 226.328 529.235 226.392 529.466L226.795 530.936C227.32 531.114 227.809 531.369 228.244 531.689L229.849 531.274C230.102 531.21 230.372 531.308 230.505 531.513L231.365 532.864C231.496 533.07 231.455 533.331 231.267 533.496L230.063 534.55C230.109 534.799 230.134 535.051 230.136 535.304ZM222.683 535.304C222.683 536.452 223.709 537.382 224.976 537.382C225.584 537.382 226.168 537.163 226.598 536.773C227.028 536.384 227.269 535.855 227.269 535.304C227.269 534.157 226.243 533.227 224.976 533.227C223.709 533.227 222.683 534.157 222.683 535.304Z" fill="#C2C7D3"/>
    <rect x="116.536" y="522.841" width="24.9275" height="24.9275" rx="12.4638" fill="#4F6EF7"/>
    <path fill-rule="evenodd" clip-rule="evenodd" d="M129.237 532.48L125.095 536.622C124.848 536.87 124.447 536.87 124.2 536.622C123.953 536.375 123.953 535.974 124.2 535.727L128.342 531.585H126.389C126.039 531.585 125.755 531.302 125.755 530.952C125.755 530.602 126.039 530.319 126.389 530.319H129.871C129.956 530.319 130.038 530.336 130.112 530.367C130.187 530.398 130.257 530.443 130.318 530.504C130.565 530.752 130.565 531.152 130.318 531.4L129.237 532.48ZM129.658 539.024H131.612C131.961 539.024 132.245 539.307 132.245 539.657C132.245 540.006 131.961 540.29 131.612 540.29H128.134H128.13C128.116 540.29 128.103 540.289 128.09 540.289C128.105 540.29 128.119 540.29 128.134 540.29M127.903 540.248C127.739 540.185 127.608 540.056 127.542 539.893C127.573 539.97 127.62 540.042 127.682 540.104C127.747 540.17 127.823 540.217 127.903 540.248ZM128.763 538.128L132.905 533.986C133.152 533.739 133.553 533.739 133.8 533.986C134.047 534.233 134.047 534.634 133.8 534.882L129.658 539.024" fill="white"/>
  </g>
  <defs>
    <clipPath id="clip0">
      <rect width="258" height="558.656" fill="white"/>
    </clipPath>
  </defs>
</svg>
