<svg width="288" height="589" viewBox="0 0 288 589" fill="none" xmlns="http://www.w3.org/2000/svg">
<g clip-path="url(#clip0)" filter="url(#filter0_d)">
<rect width="258" height="558.656" transform="translate(15 11)" fill="white"/>
<g opacity="0.5">
<path d="M32.416 60.0039H34.6416L36.5732 68.4863L38.1522 60.0039H40.7725L38.0934 72.232H35.4227L33.5246 64.2955L31.635 72.232H28.9643L26.2768 60.0039H28.9055L30.4928 68.4863L32.416 60.0039Z" fill="black"/>
<path d="M46.475 66.1768C46.475 65.768 46.3742 65.4433 46.1727 65.2025C45.9711 64.9618 45.6492 64.8414 45.2068 64.8414C44.8205 64.8414 44.521 64.9338 44.3082 65.1186C44.0954 65.3033 43.9891 65.5609 43.9891 65.8912H41.4527C41.4527 65.3537 41.6123 64.8666 41.9315 64.4299C42.2506 63.9876 42.7013 63.6348 43.2836 63.3717C43.8659 63.1085 44.5518 62.977 45.3412 62.977C46.0467 62.977 46.6766 63.0973 47.2309 63.3381C47.7852 63.5732 48.2219 63.9288 48.541 64.4047C48.8602 64.8806 49.0197 65.4769 49.0197 66.1936V69.9896C49.0197 70.5271 49.0505 70.9527 49.1121 71.2662C49.1793 71.5798 49.2717 71.8541 49.3893 72.0893V72.232H46.8361C46.7354 72.0193 46.6542 71.7533 46.5926 71.4342C46.3574 71.7029 46.0551 71.9325 45.6856 72.1228C45.3216 72.3076 44.8709 72.4 44.3334 72.4C43.7567 72.4 43.2332 72.2852 42.7629 72.0557C42.2982 71.8205 41.9287 71.4986 41.6543 71.0898C41.38 70.6755 41.2428 70.2024 41.2428 69.6705C41.2428 68.7187 41.5955 67.9824 42.301 67.4617C43.0065 66.9354 44.0563 66.6723 45.4504 66.6723H46.475V66.1768ZM44.8961 70.4768C45.288 70.4768 45.6184 70.3928 45.8871 70.2248C46.1615 70.0512 46.3574 69.8609 46.475 69.6537V68.1336H45.526C44.9101 68.1336 44.465 68.268 44.1906 68.5367C43.9163 68.7999 43.7791 69.119 43.7791 69.4941C43.7791 69.7797 43.8799 70.0148 44.0815 70.1996C44.283 70.3844 44.5546 70.4768 44.8961 70.4768Z" fill="black"/>
<path d="M53.5045 72.232H50.9598V59.332H53.5045V72.232Z" fill="black"/>
<path d="M58.1236 72.232H55.5789V59.332H58.1236V72.232Z" fill="black"/>
<path d="M64.3133 72.4C63.3559 72.4 62.5356 72.2012 61.8525 71.8037C61.1751 71.4062 60.6544 70.8743 60.2904 70.208C59.9321 69.5417 59.7529 68.8055 59.7529 67.9992V67.6717C59.7529 66.7646 59.9237 65.9584 60.2652 65.2529C60.6124 64.5475 61.1051 63.9932 61.7434 63.59C62.3816 63.1813 63.1431 62.977 64.0277 62.977C65.3435 62.977 66.3457 63.3857 67.0344 64.2031C67.7231 65.015 68.0674 66.0956 68.0674 67.4449V68.5199H62.3313C62.4208 69.0742 62.6504 69.5193 63.0199 69.8553C63.3951 70.1856 63.8794 70.3508 64.4729 70.3508C64.904 70.3508 65.3043 70.2724 65.6738 70.1156C66.049 69.9533 66.3709 69.7013 66.6397 69.3598L67.8658 70.7623C67.5803 71.171 67.138 71.5462 66.5389 71.8877C65.9398 72.2292 65.1979 72.4 64.3133 72.4ZM64.0109 65.0178C63.5126 65.0178 63.1319 65.1857 62.8688 65.5217C62.6056 65.852 62.432 66.2831 62.3481 66.815H65.5731V66.6135C65.5675 66.1488 65.4387 65.768 65.1867 65.4713C64.9404 65.1689 64.5484 65.0178 64.0109 65.0178Z" fill="black"/>
<path d="M73.9379 64.9926H72.401V69.3934C72.401 69.7629 72.4738 70.0092 72.6193 70.1324C72.7705 70.2556 73.0057 70.3172 73.3248 70.3172C73.476 70.3172 73.6104 70.3116 73.7279 70.3004C73.8455 70.2892 73.9463 70.2752 74.0303 70.2584L74.0219 72.1732C73.8147 72.2404 73.588 72.2936 73.3416 72.3328C73.1008 72.3776 72.8293 72.4 72.527 72.4C71.7095 72.4 71.06 72.19 70.5785 71.7701C70.1026 71.3502 69.8647 70.6531 69.8647 69.6789V64.9926H68.5713V63.1449H69.8647V60.9025H72.401V63.1449H73.9379V64.9926Z" fill="black"/>
<path d="M80.1107 69.6957C80.1107 69.4493 79.9904 69.245 79.7496 69.0826C79.5145 68.9146 79.0245 68.7523 78.2799 68.5955C77.664 68.4667 77.1125 68.2876 76.6254 68.058C76.1439 67.8229 75.7604 67.5233 75.4748 67.1594C75.1949 66.7954 75.0549 66.3503 75.0549 65.824C75.0549 65.3145 75.2005 64.8442 75.4916 64.4131C75.7828 63.982 76.1999 63.6348 76.743 63.3717C77.2917 63.1085 77.9467 62.977 78.7082 62.977C79.9008 62.977 80.8386 63.2541 81.5217 63.8084C82.2104 64.3571 82.5547 65.0598 82.5547 65.9164H80.0184C80.0184 65.5749 79.912 65.2977 79.6992 65.085C79.4921 64.8666 79.1589 64.7574 78.6998 64.7574C78.3247 64.7574 78.0279 64.847 77.8096 65.0262C77.5912 65.2053 77.482 65.4293 77.482 65.698C77.482 65.9556 77.6024 66.1656 77.8432 66.3279C78.0895 66.4847 78.5178 66.6191 79.1281 66.7311C79.772 66.8598 80.3543 67.0306 80.875 67.2434C81.3957 67.4505 81.81 67.7445 82.118 68.1252C82.4259 68.5003 82.5799 68.993 82.5799 69.6033C82.5799 70.1408 82.4203 70.6195 82.1012 71.0395C81.7876 71.4594 81.3397 71.7925 80.7574 72.0389C80.1807 72.2796 79.5005 72.4 78.7166 72.4C77.86 72.4 77.1377 72.246 76.5498 71.9381C75.9619 71.6301 75.5168 71.241 75.2145 70.7707C74.9121 70.2948 74.7609 69.8105 74.7609 69.3178H77.1629C77.1853 69.7713 77.3505 70.1016 77.6584 70.3088C77.9719 70.5104 78.3443 70.6111 78.7754 70.6111C79.2121 70.6111 79.5425 70.5271 79.7664 70.3592C79.996 70.1912 80.1107 69.9701 80.1107 69.6957Z" fill="black"/>
</g>
<path opacity="0.5" d="M261.87 131.538L258.091 127.716C257.795 127.426 257.324 127.43 257.032 127.725C256.741 128.02 256.737 128.497 257.023 128.797L260.267 132.078L257.023 135.36C256.826 135.552 256.748 135.836 256.817 136.104C256.886 136.371 257.092 136.58 257.357 136.65C257.621 136.72 257.902 136.64 258.091 136.441L261.87 132.619C262.165 132.32 262.165 131.837 261.87 131.538Z" fill="#9BA3AE"/>
<g opacity="0.5">
<path d="M228.796 128.648H226.97V122.003L224.908 122.625V121.15L228.609 119.832H228.796V128.648Z" fill="black"/>
<path d="M231.771 127.747C231.771 127.473 231.864 127.243 232.049 127.058C232.239 126.872 232.489 126.78 232.799 126.78C233.109 126.78 233.357 126.872 233.543 127.058C233.728 127.243 233.821 127.473 233.821 127.747C233.821 128.021 233.728 128.251 233.543 128.436C233.357 128.622 233.109 128.715 232.799 128.715C232.489 128.715 232.239 128.622 232.049 128.436C231.864 128.251 231.771 128.021 231.771 127.747Z" fill="black"/>
<path d="M241.325 128.648H235.26V127.402L238.102 124.379C238.521 123.923 238.812 123.544 238.973 123.242C239.138 122.936 239.221 122.658 239.221 122.408C239.221 122.029 239.126 121.73 238.937 121.513C238.751 121.295 238.483 121.186 238.132 121.186C237.741 121.186 237.439 121.325 237.225 121.603C237.016 121.878 236.911 122.22 236.911 122.631H235.085C235.085 122.099 235.21 121.613 235.46 121.174C235.71 120.731 236.064 120.378 236.524 120.116C236.987 119.85 237.536 119.717 238.169 119.717C239.104 119.717 239.817 119.941 240.309 120.388C240.805 120.835 241.053 121.45 241.053 122.232C241.053 122.829 240.874 123.393 240.515 123.925C240.16 124.454 239.682 125.026 239.082 125.643L237.618 127.179H241.325V128.648Z" fill="black"/>
<path d="M242.613 124.331L243.127 119.844H248.11V121.349H244.627L244.415 123.176C244.528 123.115 244.699 123.047 244.929 122.97C245.163 122.893 245.425 122.855 245.715 122.855C246.57 122.855 247.231 123.115 247.699 123.635C248.17 124.155 248.406 124.883 248.406 125.818C248.406 126.334 248.297 126.818 248.079 127.269C247.866 127.717 247.537 128.08 247.094 128.358C246.65 128.632 246.09 128.769 245.413 128.769C244.901 128.769 244.417 128.666 243.962 128.461C243.506 128.255 243.133 127.959 242.843 127.572C242.557 127.185 242.41 126.721 242.401 126.181H244.216C244.248 126.528 244.369 126.802 244.578 127.003C244.788 127.201 245.062 127.3 245.401 127.3C245.828 127.3 246.13 127.144 246.308 126.834C246.489 126.524 246.58 126.147 246.58 125.703C246.58 125.256 246.469 124.895 246.247 124.621C246.026 124.347 245.679 124.21 245.207 124.21C244.897 124.21 244.657 124.26 244.488 124.361C244.318 124.462 244.179 124.57 244.07 124.687L242.613 124.331Z" fill="black"/>
</g>
<g opacity="0.5">
<path d="M205.021 146.138H204.541V145.254C204.209 145.232 203.891 145.151 203.587 145.009C203.286 144.868 203.039 144.652 202.848 144.36C202.66 144.066 202.566 143.675 202.566 143.189H203.126C203.126 143.594 203.209 143.911 203.375 144.139C203.541 144.368 203.748 144.53 203.996 144.624C204.247 144.715 204.499 144.76 204.753 144.76C205.23 144.76 205.6 144.635 205.863 144.384C206.129 144.133 206.263 143.829 206.263 143.472C206.263 143.127 206.15 142.844 205.924 142.625C205.701 142.402 205.302 142.191 204.725 141.99C204.33 141.862 203.988 141.716 203.699 141.553C203.414 141.39 203.193 141.186 203.036 140.941C202.883 140.694 202.806 140.383 202.806 140.01C202.806 139.496 202.963 139.08 203.276 138.764C203.593 138.444 204.019 138.264 204.555 138.223V137.273H205.04V138.223C205.585 138.273 206.01 138.478 206.314 138.839C206.622 139.196 206.775 139.692 206.775 140.325H206.216C206.216 139.861 206.093 139.477 205.849 139.173C205.604 138.866 205.25 138.712 204.786 138.712C204.3 138.712 203.942 138.839 203.714 139.093C203.485 139.347 203.37 139.648 203.37 139.996C203.37 140.228 203.413 140.43 203.497 140.603C203.582 140.772 203.736 140.927 203.958 141.068C204.181 141.209 204.501 141.349 204.918 141.487C205.309 141.619 205.648 141.766 205.933 141.929C206.219 142.089 206.438 142.291 206.592 142.536C206.746 142.78 206.822 143.089 206.822 143.462C206.822 143.986 206.659 144.403 206.333 144.713C206.007 145.024 205.57 145.202 205.021 145.249V146.138Z" fill="#434D5A"/>
<path d="M209.837 141.426C210.361 141.426 210.757 141.296 211.027 141.035C211.3 140.775 211.436 140.462 211.436 140.095C211.436 139.684 211.319 139.348 211.083 139.088C210.851 138.825 210.489 138.693 209.997 138.693C209.567 138.693 209.208 138.82 208.92 139.074C208.635 139.328 208.492 139.673 208.492 140.109H207.932C207.932 139.736 208.022 139.408 208.2 139.126C208.379 138.841 208.624 138.618 208.934 138.458C209.248 138.298 209.602 138.218 209.997 138.218C210.599 138.218 211.082 138.383 211.445 138.712C211.812 139.041 211.996 139.508 211.996 140.114C211.996 140.421 211.897 140.719 211.699 141.007C211.502 141.292 211.21 141.507 210.825 141.651C211.276 141.774 211.605 141.984 211.812 142.282C212.019 142.58 212.123 142.918 212.123 143.298C212.123 143.715 212.032 144.069 211.85 144.36C211.668 144.649 211.417 144.87 211.097 145.024C210.781 145.177 210.422 145.254 210.02 145.254C209.65 145.254 209.298 145.182 208.962 145.038C208.63 144.893 208.357 144.677 208.144 144.389C207.934 144.097 207.829 143.735 207.829 143.302H208.393C208.393 143.738 208.544 144.094 208.845 144.37C209.149 144.643 209.541 144.779 210.02 144.779C210.506 144.779 210.884 144.654 211.154 144.403C211.427 144.149 211.563 143.787 211.563 143.316C211.563 142.821 211.403 142.464 211.083 142.244C210.764 142.021 210.348 141.91 209.837 141.91H209.263V141.426H209.837Z" fill="#434D5A"/>
<path d="M217.644 145.16H213.35V144.723L215.594 142.183C216.014 141.706 216.309 141.313 216.478 141.002C216.65 140.689 216.737 140.389 216.737 140.104C216.737 139.69 216.614 139.352 216.37 139.088C216.125 138.825 215.771 138.693 215.307 138.693C214.83 138.693 214.454 138.844 214.178 139.145C213.902 139.446 213.764 139.825 213.764 140.283H213.2C213.2 139.907 213.283 139.562 213.449 139.248C213.618 138.935 213.86 138.685 214.173 138.5C214.49 138.312 214.868 138.218 215.307 138.218C215.921 138.218 216.407 138.381 216.765 138.707C217.122 139.03 217.301 139.479 217.301 140.052C217.301 140.328 217.237 140.606 217.108 140.885C216.983 141.164 216.816 141.441 216.61 141.717C216.406 141.993 216.188 142.263 215.956 142.526L214.042 144.685H217.644V145.16Z" fill="#434D5A"/>
<path d="M219.328 144.93C219.328 145.218 219.268 145.495 219.149 145.762C219.033 146.032 218.872 146.257 218.665 146.439L218.331 146.199C218.475 146.002 218.585 145.804 218.66 145.607C218.735 145.412 218.773 145.191 218.773 144.944V144.271H219.328V144.93Z" fill="#434D5A"/>
<path d="M222.376 141.426C222.899 141.426 223.296 141.296 223.565 141.035C223.838 140.775 223.975 140.462 223.975 140.095C223.975 139.684 223.857 139.348 223.622 139.088C223.39 138.825 223.028 138.693 222.535 138.693C222.106 138.693 221.747 138.82 221.458 139.074C221.173 139.328 221.03 139.673 221.03 140.109H220.471C220.471 139.736 220.56 139.408 220.739 139.126C220.918 138.841 221.162 138.618 221.473 138.458C221.786 138.298 222.14 138.218 222.535 138.218C223.137 138.218 223.62 138.383 223.984 138.712C224.351 139.041 224.534 139.508 224.534 140.114C224.534 140.421 224.436 140.719 224.238 141.007C224.04 141.292 223.749 141.507 223.363 141.651C223.815 141.774 224.144 141.984 224.351 142.282C224.558 142.58 224.661 142.918 224.661 143.298C224.661 143.715 224.57 144.069 224.388 144.36C224.207 144.649 223.956 144.87 223.636 145.024C223.319 145.177 222.96 145.254 222.559 145.254C222.189 145.254 221.836 145.182 221.501 145.038C221.168 144.893 220.896 144.677 220.682 144.389C220.472 144.097 220.367 143.735 220.367 143.302H220.932C220.932 143.738 221.082 144.094 221.383 144.37C221.687 144.643 222.079 144.779 222.559 144.779C223.045 144.779 223.423 144.654 223.692 144.403C223.965 144.149 224.102 143.787 224.102 143.316C224.102 142.821 223.942 142.464 223.622 142.244C223.302 142.021 222.887 141.91 222.376 141.91H221.802V141.426H222.376Z" fill="#434D5A"/>
<path d="M229.209 138.26V138.75H229.129C228.311 138.75 227.67 138.994 227.206 139.483C226.742 139.969 226.483 140.637 226.43 141.487C226.618 141.227 226.859 141.024 227.154 140.88C227.449 140.736 227.775 140.664 228.132 140.664C228.568 140.664 228.932 140.767 229.223 140.974C229.515 141.181 229.734 141.455 229.882 141.797C230.029 142.139 230.103 142.511 230.103 142.912C230.103 143.351 230.021 143.747 229.858 144.102C229.695 144.456 229.462 144.737 229.157 144.944C228.856 145.151 228.496 145.254 228.076 145.254C227.615 145.254 227.218 145.141 226.886 144.915C226.557 144.687 226.303 144.382 226.124 144.003C225.945 143.62 225.856 143.199 225.856 142.738V142.136C225.856 141.355 225.975 140.675 226.213 140.095C226.452 139.515 226.812 139.065 227.295 138.745C227.781 138.422 228.392 138.26 229.129 138.26H229.209ZM226.42 142.747C226.42 143.171 226.494 143.534 226.641 143.838C226.789 144.139 226.986 144.371 227.234 144.534C227.485 144.694 227.765 144.774 228.076 144.774C228.38 144.774 228.642 144.691 228.861 144.525C229.081 144.359 229.248 144.138 229.364 143.862C229.484 143.583 229.543 143.274 229.543 142.935C229.543 142.612 229.488 142.316 229.379 142.046C229.269 141.774 229.103 141.556 228.88 141.393C228.661 141.227 228.381 141.143 228.043 141.143C227.795 141.143 227.56 141.194 227.337 141.294C227.115 141.394 226.922 141.531 226.759 141.703C226.599 141.872 226.486 142.062 226.42 142.272V142.747Z" fill="#434D5A"/>
<path d="M235.455 138.632L232.525 145.16H231.942L234.844 138.787H230.949V138.312H235.455V138.632Z" fill="#434D5A"/>
<path d="M236.617 144.817C236.617 144.707 236.651 144.614 236.72 144.539C236.792 144.464 236.889 144.426 237.012 144.426C237.137 144.426 237.236 144.464 237.308 144.539C237.38 144.614 237.416 144.707 237.416 144.817C237.416 144.926 237.38 145.017 237.308 145.089C237.236 145.162 237.137 145.198 237.012 145.198C236.889 145.198 236.792 145.162 236.72 145.089C236.651 145.017 236.617 144.926 236.617 144.817Z" fill="#434D5A"/>
<path d="M243.173 145.16H238.879V144.723L241.122 142.183C241.542 141.706 241.837 141.313 242.006 141.002C242.179 140.689 242.265 140.389 242.265 140.104C242.265 139.69 242.143 139.352 241.898 139.088C241.654 138.825 241.299 138.693 240.835 138.693C240.359 138.693 239.982 138.844 239.707 139.145C239.431 139.446 239.293 139.825 239.293 140.283H238.728C238.728 139.907 238.811 139.562 238.978 139.248C239.147 138.935 239.388 138.685 239.702 138.5C240.019 138.312 240.396 138.218 240.835 138.218C241.45 138.218 241.936 138.381 242.293 138.707C242.651 139.03 242.829 139.479 242.829 140.052C242.829 140.328 242.765 140.606 242.637 140.885C242.511 141.164 242.345 141.441 242.138 141.717C241.934 141.993 241.716 142.263 241.484 142.526L239.57 144.685H243.173V145.16Z" fill="#434D5A"/>
<path d="M246.051 141.426C246.575 141.426 246.971 141.296 247.241 141.035C247.514 140.775 247.65 140.462 247.65 140.095C247.65 139.684 247.533 139.348 247.297 139.088C247.065 138.825 246.703 138.693 246.211 138.693C245.781 138.693 245.422 138.82 245.134 139.074C244.849 139.328 244.706 139.673 244.706 140.109H244.146C244.146 139.736 244.236 139.408 244.414 139.126C244.593 138.841 244.838 138.618 245.148 138.458C245.462 138.298 245.816 138.218 246.211 138.218C246.813 138.218 247.296 138.383 247.66 138.712C248.026 139.041 248.21 139.508 248.21 140.114C248.21 140.421 248.111 140.719 247.914 141.007C247.716 141.292 247.424 141.507 247.039 141.651C247.49 141.774 247.819 141.984 248.026 142.282C248.233 142.58 248.337 142.918 248.337 143.298C248.337 143.715 248.246 144.069 248.064 144.36C247.882 144.649 247.631 144.87 247.312 145.024C246.995 145.177 246.636 145.254 246.235 145.254C245.865 145.254 245.512 145.182 245.176 145.038C244.844 144.893 244.571 144.677 244.358 144.389C244.148 144.097 244.043 143.735 244.043 143.302H244.607C244.607 143.738 244.758 144.094 245.059 144.37C245.363 144.643 245.755 144.779 246.235 144.779C246.721 144.779 247.098 144.654 247.368 144.403C247.641 144.149 247.777 143.787 247.777 143.316C247.777 142.821 247.617 142.464 247.297 142.244C246.978 142.021 246.562 141.91 246.051 141.91H245.477V141.426H246.051Z" fill="#434D5A"/>
</g>
<g opacity="0.5">
<path d="M77.9298 133.646C77.9298 134.489 77.6577 135.128 77.1135 135.563C76.5733 135.998 75.8235 136.216 74.8641 136.216H71.6108V127.412H74.6161C75.5877 127.412 76.3476 127.605 76.8958 127.992C77.4481 128.375 77.7242 128.976 77.7242 129.794C77.7242 130.197 77.6154 130.564 77.3977 130.895C77.18 131.221 76.8595 131.471 76.4362 131.645C76.9482 131.774 77.3251 132.025 77.567 132.4C77.8089 132.775 77.9298 133.191 77.9298 133.646ZM74.6161 128.669H73.1709V131.124H74.6343C75.1221 131.124 75.499 131.018 75.765 130.804C76.0311 130.59 76.1641 130.288 76.1641 129.897C76.1641 129.466 76.0372 129.153 75.7832 128.96C75.5332 128.766 75.1442 128.669 74.6161 128.669ZM76.3758 133.64C76.3758 133.217 76.2629 132.882 76.0372 132.636C75.8114 132.386 75.4425 132.261 74.9306 132.261H73.1709V134.964H74.8641C75.3639 134.964 75.7409 134.841 75.9948 134.595C76.2488 134.349 76.3758 134.031 76.3758 133.64Z" fill="black"/>
<path d="M82.9245 136.216H81.3765V128.669H78.6554V127.412H85.6698V128.669H82.9245V136.216Z" fill="black"/>
<path d="M93.567 133.338C93.5146 133.918 93.3514 134.434 93.0772 134.886C92.8031 135.337 92.4181 135.692 91.9223 135.95C91.4264 136.208 90.8197 136.337 90.1022 136.337C89.3766 136.337 88.7477 136.168 88.2156 135.829C87.6834 135.486 87.2722 135.003 86.982 134.378C86.6917 133.753 86.5466 133.015 86.5466 132.165V131.469C86.5466 130.619 86.6938 129.881 86.988 129.256C87.2823 128.631 87.6996 128.147 88.2397 127.805C88.784 127.462 89.4249 127.291 90.1627 127.291C90.8681 127.291 91.4627 127.422 91.9465 127.684C92.4343 127.942 92.8112 128.301 93.0772 128.76C93.3473 129.216 93.5106 129.74 93.567 130.332H92.013C91.9525 129.772 91.7852 129.337 91.5111 129.026C91.241 128.716 90.7915 128.561 90.1627 128.561C89.4814 128.561 88.9694 128.811 88.6267 129.31C88.2881 129.806 88.1188 130.522 88.1188 131.457V132.165C88.1188 133.055 88.274 133.763 88.5844 134.287C88.8948 134.807 89.4007 135.067 90.1022 135.067C90.7432 135.067 91.2027 134.92 91.4809 134.626C91.7631 134.327 91.9384 133.898 92.0069 133.338H93.567Z" fill="black"/>
</g>
<g opacity="0.5">
<rect x="26.008" y="116.264" width="34.4" height="34.4" rx="8" fill="#F7931A"/>
<path fill-rule="evenodd" clip-rule="evenodd" d="M47.2934 131.495C46.8291 133.38 43.7773 132.469 42.7823 132.236L43.6229 128.892C44.5954 129.124 47.7797 129.527 47.2934 131.495V131.495ZM46.8067 136.894C46.2985 138.968 42.6274 137.889 41.4555 137.613L42.3623 133.93C43.5561 134.205 47.3373 134.713 46.8067 136.894ZM50.7428 131.495C51.0303 129.463 49.416 128.405 47.2048 127.685L47.8903 124.933L46.1435 124.531L45.4803 127.219C45.016 127.113 44.5516 127.007 44.0872 126.923L44.7504 124.234L42.9816 123.832L42.296 126.584C41.9199 126.499 41.5442 126.436 41.168 126.351L38.758 125.801L38.3156 127.579C38.3156 127.579 39.6205 127.854 39.5761 127.876C40.2836 128.045 40.4162 128.489 40.3942 128.828L39.6205 131.961C39.6643 131.982 39.7311 131.982 39.7973 132.024C39.7311 132.003 39.6867 132.003 39.6205 131.982L38.5587 136.364C38.4705 136.576 38.2493 136.872 37.763 136.767C37.7849 136.788 36.4805 136.47 36.4805 136.47L35.64 138.397L37.9175 138.905C38.338 139.011 38.758 139.095 39.1561 139.201L38.4705 141.974L40.2174 142.376L40.903 139.624C41.3892 139.751 41.8536 139.857 42.296 139.963L41.6105 142.694L43.3573 143.096L44.0429 140.323C47.0279 140.831 49.261 140.598 50.1678 137.995C50.8978 135.92 50.1016 134.734 48.5097 133.951C49.6815 133.697 50.5216 132.977 50.7428 131.495V131.495Z" fill="white"/>
</g>
<path opacity="0.5" d="M261.87 187.954L258.091 184.132C257.795 183.842 257.324 183.846 257.032 184.141C256.741 184.436 256.737 184.913 257.023 185.213L260.267 188.494L257.023 191.776C256.826 191.968 256.748 192.252 256.817 192.52C256.886 192.787 257.092 192.996 257.357 193.066C257.621 193.136 257.902 193.056 258.091 192.857L261.87 189.035C262.165 188.736 262.165 188.253 261.87 187.954Z" fill="#9BA3AE"/>
<g opacity="0.5">
<path d="M227.224 179.858C227.647 179.858 227.962 179.751 228.167 179.537C228.373 179.324 228.476 179.037 228.476 178.679C228.476 178.372 228.383 178.116 228.197 177.911C228.012 177.705 227.724 177.602 227.333 177.602C227.03 177.602 226.766 177.687 226.541 177.856C226.315 178.021 226.202 178.247 226.202 178.533H224.376C224.376 178.05 224.507 177.628 224.769 177.27C225.031 176.907 225.382 176.627 225.821 176.429C226.26 176.232 226.748 176.133 227.284 176.133C228.183 176.133 228.911 176.346 229.467 176.774C230.028 177.197 230.308 177.822 230.308 178.648C230.308 179.031 230.191 179.394 229.957 179.737C229.723 180.075 229.397 180.343 228.977 180.541C229.457 180.714 229.82 180.978 230.066 181.333C230.316 181.688 230.441 182.107 230.441 182.591C230.441 183.139 230.302 183.607 230.024 183.994C229.745 184.381 229.368 184.677 228.893 184.883C228.417 185.084 227.881 185.185 227.284 185.185C226.784 185.185 226.303 185.094 225.839 184.913C225.38 184.731 225.001 184.453 224.702 184.078C224.408 183.704 224.261 183.226 224.261 182.645H226.099C226.099 182.952 226.216 183.208 226.45 183.413C226.684 183.615 226.978 183.716 227.333 183.716C227.732 183.716 228.044 183.609 228.27 183.395C228.5 183.177 228.615 182.899 228.615 182.561C228.615 182.101 228.49 181.775 228.24 181.581C227.994 181.384 227.655 181.285 227.224 181.285H226.281V179.858H227.224Z" fill="black"/>
<path d="M231.771 184.163C231.771 183.889 231.864 183.659 232.049 183.474C232.239 183.288 232.489 183.196 232.799 183.196C233.109 183.196 233.357 183.288 233.543 183.474C233.728 183.659 233.821 183.889 233.821 184.163C233.821 184.437 233.728 184.667 233.543 184.852C233.357 185.038 233.109 185.131 232.799 185.131C232.489 185.131 232.239 185.038 232.049 184.852C231.864 184.667 231.771 184.437 231.771 184.163Z" fill="black"/>
<path d="M237.999 179.858C238.423 179.858 238.737 179.751 238.943 179.537C239.148 179.324 239.251 179.037 239.251 178.679C239.251 178.372 239.158 178.116 238.973 177.911C238.787 177.705 238.499 177.602 238.108 177.602C237.806 177.602 237.542 177.687 237.316 177.856C237.09 178.021 236.977 178.247 236.977 178.533H235.151C235.151 178.05 235.282 177.628 235.544 177.27C235.806 176.907 236.157 176.627 236.596 176.429C237.036 176.232 237.524 176.133 238.06 176.133C238.959 176.133 239.686 176.346 240.243 176.774C240.803 177.197 241.083 177.822 241.083 178.648C241.083 179.031 240.966 179.394 240.733 179.737C240.499 180.075 240.172 180.343 239.753 180.541C240.233 180.714 240.595 180.978 240.841 181.333C241.091 181.688 241.216 182.107 241.216 182.591C241.216 183.139 241.077 183.607 240.799 183.994C240.521 184.381 240.144 184.677 239.668 184.883C239.193 185.084 238.656 185.185 238.06 185.185C237.56 185.185 237.078 185.094 236.615 184.913C236.155 184.731 235.776 184.453 235.478 184.078C235.184 183.704 235.036 183.226 235.036 182.645H236.875C236.875 182.952 236.992 183.208 237.225 183.413C237.459 183.615 237.753 183.716 238.108 183.716C238.507 183.716 238.82 183.609 239.045 183.395C239.275 183.177 239.39 182.899 239.39 182.561C239.39 182.101 239.265 181.775 239.015 181.581C238.769 181.384 238.431 181.285 237.999 181.285H237.056V179.858H237.999Z" fill="black"/>
<path d="M245.123 179.858C245.546 179.858 245.86 179.751 246.066 179.537C246.271 179.324 246.374 179.037 246.374 178.679C246.374 178.372 246.282 178.116 246.096 177.911C245.911 177.705 245.622 177.602 245.231 177.602C244.929 177.602 244.665 177.687 244.439 177.856C244.214 178.021 244.101 178.247 244.101 178.533H242.274C242.274 178.05 242.406 177.628 242.668 177.27C242.93 176.907 243.28 176.627 243.72 176.429C244.159 176.232 244.647 176.133 245.183 176.133C246.082 176.133 246.81 176.346 247.366 176.774C247.926 177.197 248.206 177.822 248.206 178.648C248.206 179.031 248.09 179.394 247.856 179.737C247.622 180.075 247.295 180.343 246.876 180.541C247.356 180.714 247.719 180.978 247.965 181.333C248.215 181.688 248.34 182.107 248.34 182.591C248.34 183.139 248.2 183.607 247.922 183.994C247.644 184.381 247.267 184.677 246.792 184.883C246.316 185.084 245.78 185.185 245.183 185.185C244.683 185.185 244.201 185.094 243.738 184.913C243.278 184.731 242.899 184.453 242.601 184.078C242.307 183.704 242.16 183.226 242.16 182.645H243.998C243.998 182.952 244.115 183.208 244.349 183.413C244.582 183.615 244.877 183.716 245.231 183.716C245.631 183.716 245.943 183.609 246.169 183.395C246.398 183.177 246.513 182.899 246.513 182.561C246.513 182.101 246.388 181.775 246.138 181.581C245.893 181.384 245.554 181.285 245.123 181.285H244.179V179.858H245.123Z" fill="black"/>
</g>
<g opacity="0.5">
<path d="M210.364 202.554H209.884V201.67C209.552 201.648 209.233 201.567 208.929 201.425C208.628 201.284 208.382 201.068 208.191 200.776C208.003 200.482 207.909 200.091 207.909 199.605H208.468C208.468 200.01 208.552 200.327 208.718 200.555C208.884 200.784 209.091 200.946 209.339 201.04C209.589 201.131 209.842 201.176 210.096 201.176C210.572 201.176 210.942 201.051 211.206 200.8C211.472 200.549 211.605 200.245 211.605 199.888C211.605 199.543 211.493 199.26 211.267 199.041C211.044 198.818 210.644 198.607 210.067 198.406C209.672 198.278 209.331 198.132 209.042 197.969C208.757 197.806 208.536 197.602 208.379 197.357C208.225 197.11 208.149 196.799 208.149 196.426C208.149 195.912 208.305 195.496 208.619 195.18C208.936 194.86 209.362 194.68 209.898 194.639V193.689H210.383V194.639C210.928 194.689 211.353 194.894 211.657 195.255C211.964 195.612 212.118 196.108 212.118 196.741H211.558C211.558 196.277 211.436 195.893 211.192 195.589C210.947 195.282 210.593 195.128 210.129 195.128C209.643 195.128 209.285 195.255 209.056 195.509C208.827 195.763 208.713 196.064 208.713 196.412C208.713 196.644 208.755 196.846 208.84 197.019C208.925 197.188 209.078 197.343 209.301 197.484C209.523 197.625 209.843 197.765 210.26 197.903C210.652 198.035 210.991 198.182 211.276 198.345C211.562 198.505 211.781 198.707 211.935 198.952C212.088 199.196 212.165 199.505 212.165 199.878C212.165 200.402 212.002 200.819 211.676 201.129C211.35 201.44 210.912 201.618 210.364 201.665V202.554Z" fill="#434D5A"/>
<path d="M215.97 201.576H215.406V195.405L213.548 196.097V195.565L215.876 194.7H215.97V201.576Z" fill="#434D5A"/>
<path d="M219.328 201.346C219.328 201.634 219.268 201.911 219.149 202.178C219.033 202.448 218.872 202.673 218.665 202.855L218.331 202.615C218.475 202.418 218.585 202.22 218.66 202.023C218.735 201.828 218.773 201.607 218.773 201.36V200.687H219.328V201.346Z" fill="#434D5A"/>
<path d="M220.932 198.063L221.266 194.728H224.689V195.246H221.75L221.505 197.564C221.625 197.48 221.797 197.396 222.023 197.315C222.252 197.23 222.509 197.188 222.794 197.188C223.406 197.188 223.896 197.385 224.266 197.781C224.639 198.172 224.826 198.71 224.826 199.394C224.826 199.83 224.754 200.22 224.61 200.565C224.465 200.907 224.243 201.176 223.942 201.374C223.641 201.571 223.253 201.67 222.78 201.67C222.416 201.67 222.082 201.601 221.778 201.463C221.477 201.325 221.23 201.117 221.035 200.838C220.844 200.555 220.729 200.201 220.692 199.775H221.233C221.286 200.236 221.444 200.588 221.708 200.833C221.974 201.074 222.332 201.195 222.78 201.195C223.266 201.195 223.633 201.04 223.881 200.729C224.131 200.416 224.257 199.974 224.257 199.403C224.257 198.92 224.122 198.516 223.852 198.19C223.586 197.864 223.2 197.701 222.695 197.701C222.369 197.701 222.109 197.745 221.915 197.832C221.723 197.92 221.545 198.039 221.378 198.19L220.932 198.063Z" fill="#434D5A"/>
<path d="M229.209 194.676V195.166H229.129C228.311 195.166 227.67 195.41 227.206 195.899C226.742 196.385 226.483 197.053 226.43 197.903C226.618 197.643 226.859 197.44 227.154 197.296C227.449 197.152 227.775 197.08 228.132 197.08C228.568 197.08 228.932 197.183 229.223 197.39C229.515 197.597 229.734 197.871 229.882 198.213C230.029 198.555 230.103 198.927 230.103 199.328C230.103 199.767 230.021 200.163 229.858 200.518C229.695 200.872 229.462 201.153 229.157 201.36C228.856 201.567 228.496 201.67 228.076 201.67C227.615 201.67 227.218 201.557 226.886 201.331C226.557 201.103 226.303 200.798 226.124 200.419C225.945 200.036 225.856 199.615 225.856 199.154V198.552C225.856 197.771 225.975 197.091 226.213 196.511C226.452 195.931 226.812 195.481 227.295 195.161C227.781 194.838 228.392 194.676 229.129 194.676H229.209ZM226.42 199.163C226.42 199.587 226.494 199.95 226.641 200.254C226.789 200.555 226.986 200.787 227.234 200.95C227.485 201.11 227.765 201.19 228.076 201.19C228.38 201.19 228.642 201.107 228.861 200.941C229.081 200.775 229.248 200.554 229.364 200.278C229.484 199.999 229.543 199.69 229.543 199.351C229.543 199.028 229.488 198.732 229.379 198.463C229.269 198.19 229.103 197.972 228.88 197.809C228.661 197.643 228.381 197.56 228.043 197.56C227.795 197.56 227.56 197.61 227.337 197.71C227.115 197.81 226.922 197.947 226.759 198.119C226.599 198.288 226.486 198.478 226.42 198.688V199.163Z" fill="#434D5A"/>
<path d="M235.446 199.761C235.446 200.174 235.348 200.524 235.154 200.809C234.963 201.092 234.702 201.306 234.373 201.454C234.044 201.598 233.676 201.67 233.268 201.67C232.857 201.67 232.487 201.598 232.158 201.454C231.829 201.306 231.567 201.092 231.373 200.809C231.181 200.524 231.086 200.174 231.086 199.761C231.086 199.359 231.203 199.01 231.438 198.712C231.674 198.411 231.986 198.193 232.374 198.058C232.036 197.923 231.765 197.719 231.561 197.447C231.36 197.171 231.26 196.851 231.26 196.487C231.26 196.092 231.348 195.757 231.523 195.481C231.699 195.205 231.937 194.995 232.238 194.851C232.539 194.706 232.879 194.634 233.259 194.634C233.638 194.634 233.98 194.706 234.284 194.851C234.588 194.995 234.828 195.205 235.003 195.481C235.179 195.757 235.267 196.092 235.267 196.487C235.267 196.851 235.163 197.171 234.956 197.447C234.753 197.719 234.483 197.923 234.147 198.058C234.533 198.193 234.845 198.411 235.083 198.712C235.325 199.01 235.446 199.359 235.446 199.761ZM234.707 196.482C234.707 196.219 234.643 195.984 234.514 195.777C234.389 195.57 234.216 195.407 233.997 195.288C233.781 195.169 233.535 195.109 233.259 195.109C232.842 195.109 232.498 195.233 232.229 195.481C231.959 195.725 231.824 196.059 231.824 196.482C231.824 196.893 231.959 197.219 232.229 197.461C232.498 197.702 232.843 197.823 233.263 197.823C233.677 197.823 234.02 197.702 234.293 197.461C234.569 197.219 234.707 196.893 234.707 196.482ZM234.881 199.761C234.881 199.469 234.811 199.213 234.67 198.994C234.528 198.774 234.336 198.605 234.091 198.486C233.846 198.364 233.569 198.303 233.259 198.303C232.791 198.303 232.406 198.436 232.102 198.702C231.801 198.969 231.65 199.322 231.65 199.761C231.65 200.218 231.801 200.573 232.102 200.823C232.406 201.071 232.795 201.195 233.268 201.195C233.738 201.195 234.124 201.071 234.425 200.823C234.729 200.573 234.881 200.218 234.881 199.761Z" fill="#434D5A"/>
<path d="M236.617 201.233C236.617 201.123 236.651 201.03 236.72 200.955C236.792 200.88 236.889 200.842 237.012 200.842C237.137 200.842 237.236 200.88 237.308 200.955C237.38 201.03 237.416 201.123 237.416 201.233C237.416 201.342 237.38 201.433 237.308 201.505C237.236 201.578 237.137 201.614 237.012 201.614C236.889 201.614 236.792 201.578 236.72 201.505C236.651 201.433 236.617 201.342 236.617 201.233Z" fill="#434D5A"/>
<path d="M242.336 201.576H241.771V199.845H238.554V199.521L241.72 194.728H242.336V199.366H243.403V199.845H242.336V201.576ZM239.241 199.366H241.771V195.453L241.522 195.89L239.241 199.366Z" fill="#434D5A"/>
<path d="M246.051 197.842C246.575 197.842 246.971 197.712 247.241 197.451C247.514 197.191 247.65 196.878 247.65 196.511C247.65 196.1 247.533 195.764 247.297 195.504C247.065 195.241 246.703 195.109 246.211 195.109C245.781 195.109 245.422 195.236 245.134 195.49C244.849 195.744 244.706 196.089 244.706 196.525H244.146C244.146 196.152 244.236 195.824 244.414 195.542C244.593 195.257 244.838 195.034 245.148 194.874C245.462 194.714 245.816 194.634 246.211 194.634C246.813 194.634 247.296 194.799 247.66 195.128C248.026 195.457 248.21 195.924 248.21 196.53C248.21 196.837 248.111 197.135 247.914 197.423C247.716 197.708 247.424 197.923 247.039 198.067C247.49 198.19 247.819 198.4 248.026 198.698C248.233 198.996 248.337 199.334 248.337 199.714C248.337 200.131 248.246 200.485 248.064 200.776C247.882 201.065 247.631 201.286 247.312 201.44C246.995 201.593 246.636 201.67 246.235 201.67C245.865 201.67 245.512 201.598 245.176 201.454C244.844 201.309 244.571 201.093 244.358 200.805C244.148 200.513 244.043 200.151 244.043 199.718H244.607C244.607 200.154 244.758 200.51 245.059 200.786C245.363 201.059 245.755 201.195 246.235 201.195C246.72 201.195 247.098 201.07 247.368 200.819C247.641 200.565 247.777 200.203 247.777 199.732C247.777 199.237 247.617 198.88 247.297 198.66C246.978 198.437 246.562 198.326 246.051 198.326H245.477V197.842H246.051Z" fill="#434D5A"/>
</g>
<g opacity="0.5">
<path d="M77.9298 190.062C77.9298 190.905 77.6577 191.544 77.1135 191.979C76.5733 192.414 75.8235 192.632 74.8641 192.632H71.6108V183.828H74.6161C75.5877 183.828 76.3476 184.021 76.8958 184.408C77.4481 184.791 77.7242 185.392 77.7242 186.21C77.7242 186.613 77.6154 186.98 77.3977 187.311C77.18 187.637 76.8595 187.887 76.4362 188.061C76.9482 188.19 77.3251 188.442 77.567 188.816C77.8089 189.191 77.9298 189.607 77.9298 190.062ZM74.6161 185.085H73.1709V187.541H74.6343C75.1221 187.541 75.499 187.434 75.765 187.22C76.0311 187.006 76.1641 186.704 76.1641 186.313C76.1641 185.882 76.0372 185.569 75.7832 185.376C75.5332 185.182 75.1442 185.085 74.6161 185.085ZM76.3758 190.056C76.3758 189.633 76.2629 189.298 76.0372 189.052C75.8114 188.802 75.4425 188.677 74.9306 188.677H73.1709V191.38H74.8641C75.3639 191.38 75.7409 191.257 75.9948 191.011C76.2488 190.766 76.3758 190.447 76.3758 190.056Z" fill="black"/>
<path d="M79.3085 184.378C79.3085 184.148 79.3831 183.959 79.5322 183.81C79.6814 183.656 79.889 183.58 80.1551 183.58C80.4211 183.58 80.6308 183.656 80.7839 183.81C80.9371 183.959 81.0137 184.148 81.0137 184.378C81.0137 184.604 80.9371 184.793 80.7839 184.946C80.6308 185.096 80.4211 185.17 80.1551 185.17C79.889 185.17 79.6814 185.096 79.5322 184.946C79.3831 184.793 79.3085 184.604 79.3085 184.378ZM80.9049 192.632H79.4053V186.089H80.9049V192.632Z" fill="black"/>
<path d="M85.5187 187.196H84.3577V190.788C84.3577 191.086 84.4201 191.282 84.5451 191.374C84.6701 191.463 84.8374 191.507 85.047 191.507C85.1478 191.507 85.2445 191.501 85.3372 191.489C85.43 191.477 85.5045 191.465 85.561 191.453V192.608C85.44 192.648 85.2989 192.682 85.1377 192.711C84.9764 192.739 84.791 192.753 84.5814 192.753C84.0775 192.753 83.6643 192.614 83.3418 192.336C83.0193 192.054 82.858 191.574 82.858 190.897V187.196H81.8059V186.089H82.858V184.487H84.3577V186.089H85.5187V187.196Z" fill="black"/>
<path d="M89.31 191.55C89.6608 191.55 89.955 191.447 90.1929 191.241C90.4348 191.036 90.5658 190.772 90.5859 190.449H92.0009C91.9888 190.88 91.8618 191.271 91.6199 191.622C91.3781 191.969 91.0576 192.245 90.6585 192.451C90.2594 192.652 89.8139 192.753 89.3221 192.753C88.657 192.753 88.1027 192.606 87.6592 192.312C87.2198 192.013 86.8913 191.616 86.6736 191.12C86.4559 190.62 86.3471 190.068 86.3471 189.463V189.258C86.3471 188.653 86.4559 188.103 86.6736 187.607C86.8913 187.107 87.2198 186.71 87.6592 186.416C88.1027 186.117 88.657 185.968 89.3221 185.968C89.8462 185.968 90.3078 186.073 90.7069 186.283C91.106 186.488 91.4184 186.779 91.6441 187.154C91.8699 187.524 91.9888 187.956 92.0009 188.448H90.5859C90.5698 188.097 90.4489 187.797 90.2231 187.547C90.0014 187.297 89.695 187.172 89.304 187.172C88.917 187.172 88.6167 187.274 88.403 187.48C88.1934 187.682 88.0483 187.942 87.9676 188.26C87.887 188.579 87.8467 188.911 87.8467 189.258V189.463C87.8467 189.818 87.887 190.155 87.9676 190.473C88.0483 190.792 88.1934 191.052 88.403 191.253C88.6126 191.451 88.915 191.55 89.31 191.55Z" fill="black"/>
<path d="M92.8293 189.3C92.8293 188.663 92.9503 188.095 93.1921 187.595C93.434 187.091 93.7807 186.694 94.2322 186.404C94.6877 186.113 95.234 185.968 95.8709 185.968C96.5159 185.968 97.0662 186.113 97.5217 186.404C97.9772 186.694 98.3239 187.091 98.5618 187.595C98.8036 188.095 98.9246 188.663 98.9246 189.3V189.427C98.9246 190.06 98.8036 190.628 98.5618 191.132C98.3239 191.632 97.9772 192.027 97.5217 192.318C97.0702 192.608 96.524 192.753 95.883 192.753C95.242 192.753 94.6938 192.608 94.2382 192.318C93.7827 192.027 93.434 191.632 93.1921 191.132C92.9503 190.628 92.8293 190.06 92.8293 189.427V189.3ZM94.3289 189.427C94.3289 189.814 94.3814 190.169 94.4862 190.491C94.595 190.81 94.7643 191.066 94.9941 191.259C95.2239 191.453 95.5202 191.55 95.883 191.55C96.2418 191.55 96.534 191.453 96.7598 191.259C96.9896 191.066 97.1569 190.81 97.2617 190.491C97.3705 190.169 97.425 189.814 97.425 189.427V189.3C97.425 188.921 97.3705 188.571 97.2617 188.248C97.1569 187.926 96.9896 187.666 96.7598 187.468C96.53 187.27 96.2337 187.172 95.8709 187.172C95.5121 187.172 95.2178 187.27 94.9881 187.468C94.7623 187.666 94.595 187.926 94.4862 188.248C94.3814 188.571 94.3289 188.921 94.3289 189.3V189.427Z" fill="black"/>
<path d="M100.146 184.378C100.146 184.148 100.221 183.959 100.37 183.81C100.519 183.656 100.727 183.58 100.993 183.58C101.259 183.58 101.468 183.656 101.621 183.81C101.775 183.959 101.851 184.148 101.851 184.378C101.851 184.604 101.775 184.793 101.621 184.946C101.468 185.096 101.259 185.17 100.993 185.17C100.727 185.17 100.519 185.096 100.37 184.946C100.221 184.793 100.146 184.604 100.146 184.378ZM101.742 192.632H100.243V186.089H101.742V192.632Z" fill="black"/>
<path d="M104.808 192.632H103.309V186.089H104.717L104.766 186.863C104.996 186.577 105.272 186.357 105.594 186.204C105.917 186.047 106.276 185.968 106.671 185.968C107.299 185.968 107.803 186.154 108.182 186.525C108.565 186.891 108.757 187.522 108.757 188.417V192.632H107.251V188.405C107.251 187.95 107.152 187.635 106.955 187.462C106.761 187.285 106.479 187.196 106.108 187.196C105.81 187.196 105.55 187.268 105.328 187.414C105.111 187.555 104.937 187.746 104.808 187.988V192.632Z" fill="black"/>
<path d="M120.197 189.754C120.145 190.334 119.982 190.85 119.708 191.302C119.434 191.753 119.049 192.108 118.553 192.366C118.057 192.624 117.45 192.753 116.733 192.753C116.007 192.753 115.378 192.584 114.846 192.245C114.314 191.902 113.903 191.419 113.612 190.794C113.322 190.169 113.177 189.431 113.177 188.581V187.885C113.177 187.035 113.324 186.297 113.618 185.672C113.913 185.047 114.33 184.563 114.87 184.221C115.414 183.878 116.055 183.707 116.793 183.707C117.499 183.707 118.093 183.838 118.577 184.1C119.065 184.358 119.442 184.717 119.708 185.176C119.978 185.632 120.141 186.156 120.197 186.748H118.643C118.583 186.188 118.416 185.753 118.142 185.442C117.871 185.132 117.422 184.977 116.793 184.977C116.112 184.977 115.6 185.227 115.257 185.726C114.919 186.222 114.749 186.938 114.749 187.873V188.581C114.749 189.472 114.904 190.179 115.215 190.703C115.525 191.223 116.031 191.483 116.733 191.483C117.374 191.483 117.833 191.336 118.111 191.042C118.393 190.743 118.569 190.314 118.637 189.754H120.197Z" fill="black"/>
<path d="M125.077 188.212C125.077 187.873 124.983 187.603 124.793 187.401C124.608 187.2 124.325 187.099 123.947 187.099C123.604 187.099 123.33 187.184 123.124 187.353C122.923 187.522 122.822 187.734 122.822 187.988H121.322C121.322 187.637 121.433 187.309 121.655 187.002C121.876 186.692 122.189 186.442 122.592 186.253C122.999 186.063 123.479 185.968 124.031 185.968C124.769 185.968 125.378 186.156 125.857 186.531C126.337 186.906 126.577 187.47 126.577 188.224V191.108C126.577 191.705 126.662 192.178 126.831 192.529V192.632H125.295C125.226 192.479 125.172 192.271 125.132 192.009C124.942 192.215 124.702 192.39 124.412 192.535C124.126 192.68 123.787 192.753 123.396 192.753C122.969 192.753 122.588 192.668 122.253 192.499C121.919 192.33 121.655 192.098 121.461 191.804C121.272 191.509 121.177 191.175 121.177 190.8C121.177 190.106 121.437 189.574 121.957 189.203C122.477 188.833 123.215 188.647 124.17 188.647H125.077V188.212ZM123.693 191.562C124.031 191.562 124.321 191.483 124.563 191.326C124.805 191.165 124.977 190.985 125.077 190.788V189.572H124.279C123.747 189.572 123.346 189.671 123.076 189.869C122.81 190.062 122.677 190.326 122.677 190.661C122.677 190.919 122.763 191.134 122.937 191.308C123.114 191.477 123.366 191.562 123.693 191.562Z" fill="black"/>
<path d="M131.747 190.848C131.747 190.711 131.711 190.586 131.638 190.473C131.566 190.356 131.429 190.252 131.227 190.159C131.025 190.066 130.731 189.977 130.344 189.893C129.651 189.748 129.086 189.526 128.651 189.228C128.22 188.929 128.004 188.504 128.004 187.952C128.004 187.597 128.105 187.27 128.306 186.972C128.512 186.67 128.804 186.428 129.183 186.246C129.562 186.061 130.014 185.968 130.538 185.968C131.086 185.968 131.558 186.061 131.953 186.246C132.348 186.428 132.65 186.676 132.86 186.99C133.073 187.301 133.18 187.653 133.18 188.048H131.68C131.68 187.79 131.584 187.565 131.39 187.371C131.201 187.174 130.915 187.075 130.532 187.075C130.173 187.075 129.905 187.158 129.727 187.323C129.55 187.484 129.461 187.672 129.461 187.885C129.461 188.099 129.552 188.272 129.733 188.405C129.919 188.534 130.272 188.653 130.792 188.762C131.541 188.919 132.132 189.145 132.563 189.439C132.999 189.73 133.216 190.175 133.216 190.776C133.216 191.159 133.106 191.499 132.884 191.798C132.666 192.096 132.358 192.33 131.959 192.499C131.56 192.668 131.092 192.753 130.556 192.753C129.955 192.753 129.449 192.646 129.038 192.432C128.627 192.219 128.314 191.945 128.101 191.61C127.891 191.275 127.786 190.931 127.786 190.576H129.232C129.252 190.967 129.399 191.243 129.673 191.404C129.947 191.566 130.247 191.646 130.574 191.646C130.957 191.646 131.247 191.572 131.445 191.423C131.646 191.269 131.747 191.078 131.747 190.848Z" fill="black"/>
<path d="M135.956 192.632H134.456V183.344H135.956V186.821C136.177 186.551 136.441 186.341 136.748 186.192C137.058 186.043 137.399 185.968 137.77 185.968C138.415 185.968 138.933 186.158 139.324 186.537C139.715 186.912 139.91 187.547 139.91 188.442V192.632H138.405V188.429C138.405 187.97 138.306 187.649 138.108 187.468C137.911 187.287 137.627 187.196 137.256 187.196C136.949 187.196 136.687 187.266 136.47 187.407C136.256 187.545 136.085 187.73 135.956 187.964V192.632Z" fill="black"/>
</g>
<g opacity="0.5">
<rect x="26.008" y="172.68" width="34.4" height="34.4" rx="8" fill="#2FCF6E"/>
<path fill-rule="evenodd" clip-rule="evenodd" d="M45.6374 185.986C46.2345 187.818 43.1675 188.668 42.2013 189L41.155 185.739C42.1023 185.42 45.0144 184.071 45.6374 185.986V185.986ZM48.0636 190.787C48.7237 192.802 45.0427 193.839 43.9041 194.229L42.736 190.648C43.8931 190.247 47.3669 188.671 48.0636 190.787ZM43.5579 182.825L42.6921 180.146L40.9992 180.733L41.8507 183.347C41.4012 183.504 40.9517 183.661 40.5135 183.836L39.6617 181.222L37.9503 181.82L38.8164 184.5C38.4527 184.628 38.1007 184.774 37.7371 184.902L35.404 185.716L35.964 187.447C35.964 187.447 37.2152 186.987 37.1888 187.028C37.8779 186.796 38.2241 187.1 38.3836 187.397L39.3751 190.444C39.4236 190.438 39.4802 190.403 39.5585 190.403C39.4913 190.421 39.4537 190.444 39.3864 190.462L40.7905 194.712C40.8271 194.937 40.7953 195.304 40.3274 195.473C40.3571 195.479 39.0838 195.903 39.0838 195.903L39.3842 197.97L41.5828 197.19C41.9951 197.057 42.3957 196.905 42.789 196.783L43.6662 199.481L45.3591 198.893L44.4932 196.214C44.9723 196.063 45.4218 195.906 45.8527 195.761L46.7076 198.423L48.4005 197.835L47.5236 195.138C50.3222 193.984 52.0933 192.604 51.4931 189.933C51.0208 187.799 49.7222 187.224 47.9602 187.408C48.8203 186.573 49.1544 185.522 48.5626 184.158C47.7374 182.295 45.8117 182.259 43.5579 182.825Z" fill="white"/>
</g>
<path opacity="0.5" d="M261.87 244.37L258.091 240.548C257.795 240.258 257.324 240.262 257.032 240.557C256.741 240.852 256.737 241.329 257.023 241.629L260.267 244.911L257.023 248.192C256.826 248.384 256.748 248.668 256.817 248.936C256.886 249.203 257.092 249.412 257.357 249.482C257.621 249.552 257.902 249.472 258.091 249.273L261.87 245.451C262.165 245.152 262.165 244.669 261.87 244.37Z" fill="#9BA3AE"/>
<g opacity="0.5">
<path d="M205.854 236.274C206.277 236.274 206.592 236.167 206.797 235.953C207.003 235.74 207.106 235.453 207.106 235.095C207.106 234.788 207.013 234.532 206.828 234.327C206.642 234.121 206.354 234.018 205.963 234.018C205.661 234.018 205.397 234.103 205.171 234.272C204.945 234.437 204.832 234.663 204.832 234.949H203.006C203.006 234.466 203.137 234.044 203.399 233.686C203.661 233.323 204.012 233.043 204.451 232.845C204.891 232.648 205.378 232.549 205.915 232.549C206.814 232.549 207.541 232.762 208.098 233.19C208.658 233.613 208.938 234.238 208.938 235.064C208.938 235.447 208.821 235.81 208.587 236.153C208.354 236.491 208.027 236.759 207.608 236.957C208.087 237.13 208.45 237.394 208.696 237.749C208.946 238.104 209.071 238.523 209.071 239.007C209.071 239.555 208.932 240.023 208.654 240.41C208.376 240.797 207.999 241.093 207.523 241.299C207.047 241.5 206.511 241.601 205.915 241.601C205.415 241.601 204.933 241.51 204.469 241.329C204.01 241.147 203.631 240.869 203.333 240.494C203.038 240.12 202.891 239.642 202.891 239.061H204.729C204.729 239.368 204.846 239.624 205.08 239.829C205.314 240.031 205.608 240.132 205.963 240.132C206.362 240.132 206.675 240.025 206.9 239.811C207.13 239.593 207.245 239.315 207.245 238.977C207.245 238.517 207.12 238.191 206.87 237.997C206.624 237.8 206.286 237.701 205.854 237.701H204.911V236.274H205.854Z" fill="black"/>
<path d="M210.401 240.579C210.401 240.305 210.494 240.075 210.68 239.89C210.869 239.704 211.119 239.612 211.429 239.612C211.74 239.612 211.988 239.704 212.173 239.89C212.359 240.075 212.451 240.305 212.451 240.579C212.451 240.853 212.359 241.083 212.173 241.268C211.988 241.454 211.74 241.547 211.429 241.547C211.119 241.547 210.869 241.454 210.68 241.268C210.494 241.083 210.401 240.853 210.401 240.579Z" fill="black"/>
<path d="M216.63 236.274C217.053 236.274 217.367 236.167 217.573 235.953C217.779 235.74 217.881 235.453 217.881 235.095C217.881 234.788 217.789 234.532 217.603 234.327C217.418 234.121 217.13 234.018 216.739 234.018C216.436 234.018 216.172 234.103 215.946 234.272C215.721 234.437 215.608 234.663 215.608 234.949H213.782C213.782 234.466 213.913 234.044 214.175 233.686C214.437 233.323 214.787 233.043 215.227 232.845C215.666 232.648 216.154 232.549 216.69 232.549C217.589 232.549 218.317 232.762 218.873 233.19C219.433 233.613 219.714 234.238 219.714 235.064C219.714 235.447 219.597 235.81 219.363 236.153C219.129 236.491 218.803 236.759 218.383 236.957C218.863 237.13 219.226 237.394 219.472 237.749C219.722 238.104 219.847 238.523 219.847 239.007C219.847 239.555 219.708 240.023 219.429 240.41C219.151 240.797 218.774 241.093 218.299 241.299C217.823 241.5 217.287 241.601 216.69 241.601C216.19 241.601 215.709 241.51 215.245 241.329C214.785 241.147 214.406 240.869 214.108 240.494C213.814 240.12 213.667 239.642 213.667 239.061H215.505C215.505 239.368 215.622 239.624 215.856 239.829C216.09 240.031 216.384 240.132 216.739 240.132C217.138 240.132 217.45 240.025 217.676 239.811C217.906 239.593 218.02 239.315 218.02 238.977C218.02 238.517 217.896 238.191 217.646 237.997C217.4 237.8 217.061 237.701 216.63 237.701H215.686V236.274H216.63Z" fill="black"/>
<path d="M226.988 237.846C226.988 238.721 226.861 239.434 226.607 239.986C226.357 240.539 226.008 240.946 225.561 241.208C225.113 241.47 224.593 241.601 224.001 241.601C223.404 241.601 222.88 241.47 222.429 241.208C221.977 240.946 221.624 240.539 221.37 239.986C221.121 239.434 220.996 238.721 220.996 237.846V236.298C220.996 235.423 221.121 234.712 221.37 234.163C221.62 233.611 221.969 233.206 222.417 232.948C222.868 232.686 223.392 232.555 223.989 232.555C224.581 232.555 225.101 232.686 225.549 232.948C226 233.206 226.353 233.611 226.607 234.163C226.861 234.712 226.988 235.423 226.988 236.298V237.846ZM225.156 236.044C225.156 235.29 225.053 234.766 224.847 234.472C224.642 234.177 224.356 234.03 223.989 234.03C223.622 234.03 223.336 234.177 223.13 234.472C222.924 234.766 222.822 235.29 222.822 236.044V238.088C222.822 238.85 222.924 239.382 223.13 239.684C223.34 239.982 223.63 240.132 224.001 240.132C224.368 240.132 224.652 239.982 224.853 239.684C225.055 239.382 225.156 238.85 225.156 238.088V236.044Z" fill="black"/>
<path d="M232.448 241.48H230.622V234.835L228.56 235.457V233.982L232.261 232.664H232.448V241.48Z" fill="black"/>
<path d="M241.325 241.48H235.26V240.234L238.102 237.211C238.521 236.755 238.812 236.376 238.973 236.074C239.138 235.768 239.221 235.49 239.221 235.24C239.221 234.861 239.126 234.562 238.937 234.345C238.751 234.127 238.483 234.018 238.132 234.018C237.741 234.018 237.439 234.157 237.225 234.435C237.016 234.71 236.911 235.052 236.911 235.463H235.085C235.085 234.931 235.21 234.446 235.46 234.006C235.71 233.563 236.064 233.21 236.524 232.948C236.988 232.682 237.536 232.549 238.169 232.549C239.104 232.549 239.817 232.773 240.309 233.22C240.805 233.667 241.053 234.282 241.053 235.064C241.053 235.661 240.874 236.225 240.515 236.757C240.16 237.286 239.682 237.858 239.082 238.475L237.618 240.011H241.325V241.48Z" fill="black"/>
<path d="M245.123 236.274C245.546 236.274 245.86 236.167 246.066 235.953C246.271 235.74 246.374 235.453 246.374 235.095C246.374 234.788 246.282 234.532 246.096 234.327C245.911 234.121 245.622 234.018 245.231 234.018C244.929 234.018 244.665 234.103 244.439 234.272C244.214 234.437 244.101 234.663 244.101 234.949H242.274C242.274 234.466 242.406 234.044 242.668 233.686C242.93 233.323 243.28 233.043 243.72 232.845C244.159 232.648 244.647 232.549 245.183 232.549C246.082 232.549 246.81 232.762 247.366 233.19C247.926 233.613 248.206 234.238 248.206 235.064C248.206 235.447 248.09 235.81 247.856 236.153C247.622 236.491 247.295 236.759 246.876 236.957C247.356 237.13 247.719 237.394 247.965 237.749C248.215 238.104 248.34 238.523 248.34 239.007C248.34 239.555 248.2 240.023 247.922 240.41C247.644 240.797 247.267 241.093 246.792 241.299C246.316 241.5 245.78 241.601 245.183 241.601C244.683 241.601 244.201 241.51 243.738 241.329C243.278 241.147 242.899 240.869 242.601 240.494C242.307 240.12 242.16 239.642 242.16 239.061H243.998C243.998 239.368 244.115 239.624 244.349 239.829C244.582 240.031 244.877 240.132 245.231 240.132C245.631 240.132 245.943 240.025 246.169 239.811C246.398 239.593 246.513 239.315 246.513 238.977C246.513 238.517 246.388 238.191 246.138 237.997C245.893 237.8 245.554 237.701 245.123 237.701H244.179V236.274H245.123Z" fill="black"/>
</g>
<g opacity="0.5">
<path d="M210.364 258.97H209.884V258.086C209.552 258.064 209.233 257.983 208.929 257.842C208.628 257.7 208.382 257.484 208.191 257.192C208.003 256.898 207.909 256.507 207.909 256.021H208.468C208.468 256.426 208.552 256.743 208.718 256.971C208.884 257.2 209.091 257.362 209.339 257.456C209.589 257.547 209.842 257.592 210.096 257.592C210.572 257.592 210.942 257.467 211.206 257.216C211.472 256.965 211.605 256.661 211.605 256.304C211.605 255.959 211.493 255.676 211.267 255.457C211.044 255.234 210.644 255.023 210.067 254.822C209.672 254.694 209.331 254.548 209.042 254.385C208.757 254.222 208.536 254.018 208.379 253.773C208.225 253.526 208.149 253.215 208.149 252.842C208.149 252.328 208.305 251.912 208.619 251.596C208.936 251.276 209.362 251.096 209.898 251.055V250.105H210.383V251.055C210.928 251.105 211.353 251.31 211.657 251.671C211.964 252.028 212.118 252.524 212.118 253.157H211.558C211.558 252.693 211.436 252.309 211.192 252.005C210.947 251.698 210.593 251.544 210.129 251.544C209.643 251.544 209.285 251.671 209.056 251.925C208.827 252.179 208.713 252.48 208.713 252.828C208.713 253.06 208.755 253.262 208.84 253.435C208.925 253.604 209.078 253.759 209.301 253.9C209.523 254.041 209.843 254.181 210.26 254.319C210.652 254.451 210.991 254.598 211.276 254.761C211.562 254.921 211.781 255.123 211.935 255.368C212.088 255.612 212.165 255.921 212.165 256.294C212.165 256.818 212.002 257.235 211.676 257.545C211.35 257.856 210.912 258.034 210.364 258.081V258.97Z" fill="#434D5A"/>
<path d="M216.671 251.093V251.582H216.591C215.772 251.582 215.131 251.826 214.667 252.315C214.203 252.801 213.944 253.469 213.891 254.319C214.079 254.059 214.321 253.856 214.615 253.712C214.91 253.568 215.236 253.496 215.594 253.496C216.029 253.496 216.393 253.599 216.685 253.806C216.976 254.013 217.196 254.288 217.343 254.629C217.491 254.971 217.564 255.343 217.564 255.744C217.564 256.183 217.483 256.579 217.32 256.934C217.157 257.288 216.923 257.569 216.619 257.776C216.318 257.983 215.957 258.086 215.537 258.086C215.076 258.086 214.68 257.973 214.347 257.747C214.018 257.519 213.764 257.214 213.585 256.835C213.407 256.453 213.317 256.031 213.317 255.57V254.968C213.317 254.187 213.436 253.507 213.675 252.927C213.913 252.347 214.274 251.897 214.757 251.577C215.242 251.254 215.854 251.093 216.591 251.093H216.671ZM213.882 255.579C213.882 256.003 213.955 256.366 214.103 256.67C214.25 256.971 214.448 257.203 214.695 257.366C214.946 257.526 215.227 257.606 215.537 257.606C215.841 257.606 216.103 257.523 216.323 257.357C216.542 257.191 216.71 256.97 216.826 256.694C216.945 256.415 217.005 256.106 217.005 255.767C217.005 255.444 216.95 255.148 216.84 254.879C216.73 254.606 216.564 254.388 216.341 254.225C216.122 254.059 215.843 253.976 215.504 253.976C215.257 253.976 215.021 254.026 214.799 254.126C214.576 254.226 214.383 254.363 214.22 254.535C214.06 254.705 213.948 254.894 213.882 255.104V255.579Z" fill="#434D5A"/>
<path d="M219.328 257.762C219.328 258.05 219.268 258.327 219.149 258.594C219.033 258.864 218.872 259.089 218.665 259.271L218.331 259.031C218.475 258.834 218.585 258.636 218.66 258.439C218.735 258.244 218.773 258.023 218.773 257.776V257.103H219.328V257.762Z" fill="#434D5A"/>
<path d="M220.932 254.479L221.266 251.144H224.69V251.662H221.75L221.505 253.98C221.625 253.896 221.797 253.812 222.023 253.731C222.252 253.646 222.509 253.604 222.794 253.604C223.406 253.604 223.896 253.802 224.266 254.197C224.639 254.589 224.826 255.126 224.826 255.81C224.826 256.246 224.754 256.636 224.61 256.981C224.465 257.323 224.243 257.592 223.942 257.79C223.641 257.987 223.253 258.086 222.78 258.086C222.416 258.086 222.082 258.017 221.778 257.879C221.477 257.741 221.23 257.533 221.035 257.254C220.844 256.971 220.729 256.617 220.692 256.191H221.233C221.286 256.652 221.444 257.004 221.708 257.249C221.974 257.49 222.332 257.611 222.78 257.611C223.266 257.611 223.633 257.456 223.881 257.145C224.131 256.832 224.257 256.39 224.257 255.819C224.257 255.336 224.122 254.932 223.852 254.606C223.586 254.28 223.2 254.117 222.695 254.117C222.369 254.117 222.109 254.161 221.915 254.248C221.723 254.336 221.545 254.455 221.379 254.606L220.932 254.479Z" fill="#434D5A"/>
<path d="M230.103 256.177C230.103 256.59 230.006 256.94 229.811 257.225C229.62 257.508 229.36 257.722 229.03 257.87C228.701 258.014 228.333 258.086 227.925 258.086C227.515 258.086 227.145 258.014 226.815 257.87C226.486 257.722 226.224 257.508 226.03 257.225C225.839 256.94 225.743 256.59 225.743 256.177C225.743 255.775 225.861 255.426 226.096 255.128C226.331 254.827 226.643 254.609 227.032 254.474C226.693 254.339 226.422 254.135 226.218 253.863C226.017 253.587 225.917 253.267 225.917 252.903C225.917 252.508 226.005 252.173 226.18 251.897C226.356 251.621 226.594 251.411 226.895 251.267C227.196 251.122 227.536 251.05 227.916 251.05C228.295 251.05 228.637 251.122 228.941 251.267C229.245 251.411 229.485 251.621 229.661 251.897C229.836 252.173 229.924 252.508 229.924 252.903C229.924 253.267 229.821 253.587 229.614 253.863C229.41 254.135 229.14 254.339 228.805 254.474C229.19 254.609 229.502 254.827 229.741 255.128C229.982 255.426 230.103 255.775 230.103 256.177ZM229.364 252.899C229.364 252.635 229.3 252.4 229.172 252.193C229.046 251.986 228.874 251.823 228.654 251.704C228.438 251.585 228.192 251.525 227.916 251.525C227.499 251.525 227.156 251.649 226.886 251.897C226.616 252.141 226.481 252.475 226.481 252.899C226.481 253.309 226.616 253.635 226.886 253.877C227.156 254.118 227.5 254.239 227.921 254.239C228.334 254.239 228.678 254.118 228.951 253.877C229.226 253.635 229.364 253.309 229.364 252.899ZM229.538 256.177C229.538 255.885 229.468 255.629 229.327 255.41C229.186 255.191 228.993 255.021 228.748 254.902C228.504 254.78 228.226 254.719 227.916 254.719C227.449 254.719 227.063 254.852 226.759 255.118C226.458 255.385 226.307 255.738 226.307 256.177C226.307 256.634 226.458 256.989 226.759 257.24C227.063 257.487 227.452 257.611 227.925 257.611C228.396 257.611 228.781 257.487 229.082 257.24C229.386 256.989 229.538 256.634 229.538 256.177Z" fill="#434D5A"/>
<path d="M232.13 257.555C232.773 257.555 233.284 257.435 233.663 257.197C234.042 256.956 234.315 256.63 234.481 256.219C234.651 255.805 234.74 255.338 234.749 254.817C234.564 255.093 234.322 255.317 234.021 255.49C233.723 255.662 233.393 255.749 233.033 255.749C232.603 255.749 232.243 255.639 231.951 255.419C231.66 255.2 231.438 254.916 231.288 254.568C231.141 254.217 231.067 253.845 231.067 253.453C231.067 253.015 231.148 252.613 231.312 252.249C231.475 251.886 231.71 251.596 232.017 251.379C232.327 251.16 232.699 251.05 233.132 251.05C233.624 251.05 234.03 251.168 234.35 251.403C234.673 251.635 234.914 251.956 235.074 252.367C235.234 252.778 235.314 253.248 235.314 253.778V254.328C235.314 254.836 235.262 255.314 235.159 255.763C235.058 256.211 234.887 256.606 234.646 256.948C234.408 257.29 234.083 257.558 233.672 257.752C233.262 257.947 232.748 258.044 232.13 258.044H232.003L232.008 257.555H232.13ZM231.617 253.43C231.617 253.74 231.674 254.037 231.787 254.319C231.903 254.598 232.07 254.825 232.29 255.001C232.509 255.176 232.779 255.264 233.099 255.264C233.387 255.264 233.643 255.206 233.865 255.09C234.088 254.971 234.273 254.819 234.42 254.634C234.571 254.449 234.682 254.255 234.754 254.051V253.726C234.754 253.005 234.604 252.46 234.303 252.09C234.002 251.716 233.614 251.53 233.141 251.53C232.824 251.53 232.552 251.618 232.323 251.793C232.097 251.969 231.923 252.201 231.801 252.489C231.678 252.778 231.617 253.091 231.617 253.43Z" fill="#434D5A"/>
<path d="M236.617 257.649C236.617 257.539 236.651 257.446 236.72 257.371C236.792 257.296 236.889 257.258 237.012 257.258C237.137 257.258 237.236 257.296 237.308 257.371C237.38 257.446 237.416 257.539 237.416 257.649C237.416 257.758 237.38 257.849 237.308 257.921C237.236 257.994 237.137 258.03 237.012 258.03C236.889 258.03 236.792 257.994 236.72 257.921C236.651 257.849 236.617 257.758 236.617 257.649Z" fill="#434D5A"/>
<path d="M240.708 254.258C241.232 254.258 241.629 254.128 241.898 253.867C242.171 253.607 242.307 253.294 242.307 252.927C242.307 252.516 242.19 252.181 241.955 251.92C241.723 251.657 241.361 251.525 240.868 251.525C240.439 251.525 240.08 251.652 239.791 251.906C239.506 252.16 239.363 252.505 239.363 252.941H238.804C238.804 252.568 238.893 252.24 239.072 251.958C239.25 251.673 239.495 251.45 239.805 251.29C240.119 251.13 240.473 251.05 240.868 251.05C241.47 251.05 241.953 251.215 242.317 251.544C242.684 251.873 242.867 252.34 242.867 252.946C242.867 253.253 242.768 253.551 242.571 253.839C242.373 254.124 242.082 254.339 241.696 254.483C242.148 254.606 242.477 254.816 242.684 255.114C242.891 255.412 242.994 255.75 242.994 256.13C242.994 256.547 242.903 256.901 242.721 257.192C242.539 257.481 242.289 257.702 241.969 257.856C241.652 258.009 241.293 258.086 240.892 258.086C240.522 258.086 240.169 258.014 239.834 257.87C239.501 257.725 239.228 257.509 239.015 257.221C238.805 256.929 238.7 256.567 238.7 256.134H239.264C239.264 256.57 239.415 256.926 239.716 257.202C240.02 257.475 240.412 257.611 240.892 257.611C241.378 257.611 241.756 257.486 242.025 257.235C242.298 256.981 242.434 256.619 242.434 256.148C242.434 255.653 242.274 255.296 241.955 255.076C241.635 254.853 241.219 254.742 240.708 254.742H240.135V254.258H240.708Z" fill="#434D5A"/>
<path d="M245.12 257.555C245.763 257.555 246.274 257.435 246.653 257.197C247.032 256.956 247.305 256.63 247.471 256.219C247.641 255.805 247.73 255.338 247.74 254.817C247.555 255.093 247.312 255.317 247.011 255.49C246.713 255.662 246.383 255.749 246.023 255.749C245.593 255.749 245.233 255.639 244.941 255.419C244.65 255.2 244.429 254.916 244.278 254.568C244.131 254.217 244.057 253.845 244.057 253.453C244.057 253.015 244.138 252.613 244.302 252.249C244.465 251.886 244.7 251.596 245.007 251.379C245.317 251.16 245.689 251.05 246.122 251.05C246.614 251.05 247.02 251.168 247.34 251.403C247.663 251.635 247.904 251.956 248.064 252.367C248.224 252.778 248.304 253.248 248.304 253.778V254.328C248.304 254.836 248.252 255.314 248.149 255.763C248.048 256.211 247.877 256.606 247.636 256.948C247.398 257.29 247.073 257.558 246.663 257.752C246.252 257.947 245.738 258.044 245.12 258.044H244.993L244.998 257.555H245.12ZM244.607 253.43C244.607 253.74 244.664 254.037 244.777 254.319C244.893 254.598 245.06 254.825 245.28 255.001C245.499 255.176 245.769 255.264 246.089 255.264C246.377 255.264 246.633 255.206 246.855 255.09C247.078 254.971 247.263 254.819 247.41 254.634C247.561 254.449 247.672 254.255 247.744 254.051V253.726C247.744 253.005 247.594 252.46 247.293 252.09C246.992 251.716 246.604 251.53 246.131 251.53C245.814 251.53 245.542 251.618 245.313 251.793C245.087 251.969 244.913 252.201 244.791 252.489C244.668 252.778 244.607 253.091 244.607 253.43Z" fill="#434D5A"/>
</g>
<g opacity="0.5">
<path d="M77.3856 249.048H71.6108V240.244H77.3554V241.502H73.1709V243.896H76.7749V245.13H73.1709V247.796H77.3856V249.048Z" fill="black"/>
<path d="M81.5035 243.612H80.3425V247.204C80.3425 247.502 80.405 247.698 80.53 247.79C80.6549 247.879 80.8222 247.923 81.0319 247.923C81.1327 247.923 81.2294 247.917 81.3221 247.905C81.4148 247.893 81.4894 247.881 81.5459 247.869V249.024C81.4249 249.064 81.2838 249.098 81.1226 249.127C80.9613 249.155 80.7759 249.169 80.5663 249.169C80.0624 249.169 79.6492 249.03 79.3267 248.752C79.0042 248.47 78.8429 247.99 78.8429 247.313V243.612H77.7907V242.505H78.8429V240.903H80.3425V242.505H81.5035V243.612Z" fill="black"/>
<path d="M84.0855 249.048H82.5859V239.76H84.0855V243.237C84.3073 242.967 84.5713 242.757 84.8777 242.608C85.1881 242.459 85.5287 242.384 85.8996 242.384C86.5446 242.384 87.0626 242.574 87.4537 242.953C87.8447 243.328 88.0402 243.963 88.0402 244.858V249.048H86.5345V244.845C86.5345 244.386 86.4358 244.065 86.2382 243.884C86.0407 243.703 85.7565 243.612 85.3856 243.612C85.0792 243.612 84.8172 243.682 84.5995 243.824C84.3859 243.961 84.2145 244.146 84.0855 244.38V249.048Z" fill="black"/>
<path d="M92.4 249.169C91.751 249.169 91.1906 249.03 90.719 248.752C90.2473 248.47 89.8845 248.091 89.6305 247.615C89.3766 247.135 89.2496 246.599 89.2496 246.006V245.759C89.2496 245.077 89.3786 244.485 89.6366 243.981C89.8946 243.473 90.2473 243.08 90.6948 242.802C91.1463 242.523 91.6562 242.384 92.2246 242.384C92.8535 242.384 93.3756 242.521 93.7908 242.796C94.206 243.066 94.5164 243.443 94.722 243.926C94.9276 244.406 95.0304 244.962 95.0304 245.595V246.242H90.7613C90.8016 246.738 90.9729 247.149 91.2753 247.476C91.5776 247.798 91.9828 247.96 92.4907 247.96C92.8414 247.96 93.1518 247.891 93.4219 247.754C93.692 247.617 93.9278 247.419 94.1294 247.161L94.9155 247.947C94.7059 248.258 94.3955 248.54 93.9843 248.794C93.5731 249.044 93.045 249.169 92.4 249.169ZM92.2186 243.588C91.8195 243.588 91.499 243.729 91.2571 244.011C91.0153 244.293 90.8601 244.676 90.7915 245.16H93.5489V245.045C93.5408 244.791 93.4904 244.553 93.3977 244.331C93.309 244.11 93.1679 243.93 92.9744 243.793C92.785 243.656 92.533 243.588 92.2186 243.588Z" fill="black"/>
<path d="M97.6547 249.048H96.1551V242.505H97.5822L97.6245 243.261C97.7898 242.991 97.9954 242.777 98.2413 242.62C98.4912 242.463 98.7835 242.384 99.1181 242.384C99.2027 242.384 99.2975 242.392 99.4023 242.409C99.5071 242.425 99.5857 242.443 99.6381 242.463L99.626 243.884C99.5333 243.872 99.4345 243.862 99.3297 243.854C99.2289 243.842 99.1282 243.836 99.0274 243.836C98.6726 243.836 98.3824 243.904 98.1566 244.041C97.9309 244.178 97.7636 244.372 97.6547 244.622V249.048Z" fill="black"/>
<path d="M103.442 249.169C102.793 249.169 102.232 249.03 101.761 248.752C101.289 248.47 100.926 248.091 100.672 247.615C100.418 247.135 100.291 246.599 100.291 246.006V245.759C100.291 245.077 100.42 244.485 100.678 243.981C100.936 243.473 101.289 243.08 101.736 242.802C102.188 242.523 102.698 242.384 103.266 242.384C103.895 242.384 104.417 242.521 104.832 242.796C105.248 243.066 105.558 243.443 105.764 243.926C105.969 244.406 106.072 244.962 106.072 245.595V246.242H101.803C101.843 246.738 102.015 247.149 102.317 247.476C102.619 247.798 103.024 247.96 103.532 247.96C103.883 247.96 104.193 247.891 104.464 247.754C104.734 247.617 104.969 247.419 105.171 247.161L105.957 247.947C105.747 248.258 105.437 248.54 105.026 248.794C104.615 249.044 104.087 249.169 103.442 249.169ZM103.26 243.588C102.861 243.588 102.541 243.729 102.299 244.011C102.057 244.293 101.902 244.676 101.833 245.16H104.59V245.045C104.582 244.791 104.532 244.553 104.439 244.331C104.351 244.11 104.21 243.93 104.016 243.793C103.827 243.656 103.575 243.588 103.26 243.588Z" fill="black"/>
<path d="M111.115 242.505H112.615V249.048H111.2L111.163 248.389C110.958 248.635 110.704 248.826 110.402 248.963C110.099 249.1 109.74 249.169 109.325 249.169C108.68 249.169 108.158 248.979 107.759 248.601C107.36 248.222 107.16 247.599 107.16 246.732V242.505H108.66V246.744C108.66 247.2 108.763 247.514 108.968 247.687C109.174 247.857 109.418 247.941 109.7 247.941C110.071 247.941 110.369 247.875 110.595 247.742C110.825 247.605 110.998 247.421 111.115 247.192V242.505Z" fill="black"/>
<path d="M115.59 249.048H114.084V242.505H115.499L115.547 243.219C115.765 242.957 116.031 242.753 116.346 242.608C116.664 242.459 117.031 242.384 117.446 242.384C117.849 242.384 118.206 242.465 118.516 242.626C118.827 242.787 119.067 243.043 119.236 243.394C119.45 243.088 119.724 242.844 120.058 242.663C120.397 242.477 120.792 242.384 121.244 242.384C121.909 242.384 122.431 242.572 122.81 242.947C123.193 243.322 123.384 243.948 123.384 244.827V249.048H121.879V244.815C121.879 244.335 121.774 244.015 121.564 243.854C121.358 243.692 121.08 243.612 120.73 243.612C120.403 243.612 120.135 243.699 119.925 243.872C119.716 244.045 119.569 244.271 119.484 244.549C119.484 244.593 119.484 244.64 119.484 244.688V249.048H117.984V244.827C117.984 244.364 117.88 244.045 117.67 243.872C117.464 243.699 117.184 243.612 116.829 243.612C116.519 243.612 116.263 243.678 116.061 243.811C115.86 243.94 115.703 244.118 115.59 244.344V249.048Z" fill="black"/>
</g>
<g opacity="0.5">
<rect x="26.008" y="229.096" width="34.4" height="34.4" rx="8" fill="#6B71D6"/>
<path fill-rule="evenodd" clip-rule="evenodd" d="M43.4534 235.164C43.4034 235.284 41.8945 237.845 40.1003 240.853C38.306 243.862 36.8231 246.363 36.8047 246.411C36.7809 246.474 37.7557 247.087 40.2227 248.56L43.6741 250.621L47.1245 248.559C49.6033 247.077 50.5655 246.472 50.5414 246.408C50.4167 246.08 43.7071 234.944 43.6339 234.944C43.5846 234.944 43.5033 235.043 43.4534 235.164M36.8129 247.893C36.9459 248.123 43.6456 257.649 43.6736 257.648C43.7199 257.647 50.5696 247.865 50.5431 247.838C50.5181 247.813 44.1156 251.624 43.8485 251.823L43.6848 251.945L40.3699 249.967C38.5466 248.879 36.9876 247.945 36.9053 247.892C36.7689 247.803 36.7607 247.803 36.8129 247.893" fill="white"/>
</g>
<path d="M261.87 300.786L258.091 296.964C257.795 296.674 257.324 296.678 257.032 296.973C256.741 297.268 256.737 297.745 257.023 298.045L260.267 301.327L257.023 304.608C256.826 304.8 256.748 305.085 256.817 305.352C256.886 305.619 257.092 305.828 257.357 305.898C257.621 305.968 257.902 305.888 258.091 305.689L261.87 301.867C262.165 301.569 262.165 301.085 261.87 300.786Z" fill="#9BA3AE"/>
<path d="M223.426 297.896H217.361V296.65L220.203 293.627C220.623 293.171 220.913 292.792 221.074 292.49C221.239 292.184 221.322 291.906 221.322 291.656C221.322 291.277 221.227 290.978 221.038 290.761C220.852 290.543 220.584 290.434 220.234 290.434C219.843 290.434 219.54 290.573 219.327 290.851C219.117 291.125 219.012 291.468 219.012 291.879H217.186C217.186 291.347 217.311 290.861 217.561 290.422C217.811 289.979 218.166 289.626 218.625 289.364C219.089 289.098 219.637 288.965 220.27 288.965C221.205 288.965 221.919 289.188 222.411 289.636C222.906 290.083 223.154 290.698 223.154 291.48C223.154 292.077 222.975 292.641 222.616 293.173C222.261 293.701 221.784 294.274 221.183 294.891L219.72 296.427H223.426V297.896Z" fill="black"/>
<path d="M224.714 293.579L225.228 289.092H230.211V290.597H226.728L226.516 292.424C226.629 292.363 226.801 292.295 227.03 292.218C227.264 292.141 227.526 292.103 227.816 292.103C228.671 292.103 229.332 292.363 229.8 292.883C230.271 293.403 230.507 294.131 230.507 295.066C230.507 295.582 230.398 296.066 230.181 296.517C229.967 296.965 229.639 297.328 229.195 297.606C228.752 297.88 228.191 298.017 227.514 298.017C227.002 298.017 226.518 297.914 226.063 297.709C225.607 297.503 225.234 297.207 224.944 296.82C224.658 296.433 224.511 295.969 224.503 295.429H226.317C226.349 295.776 226.47 296.05 226.68 296.251C226.889 296.449 227.163 296.548 227.502 296.548C227.929 296.548 228.232 296.392 228.409 296.082C228.59 295.772 228.681 295.395 228.681 294.951C228.681 294.504 228.57 294.143 228.349 293.869C228.127 293.595 227.78 293.458 227.308 293.458C226.998 293.458 226.758 293.508 226.589 293.609C226.42 293.71 226.281 293.818 226.172 293.935L224.714 293.579Z" fill="black"/>
<path d="M231.771 296.995C231.771 296.721 231.864 296.491 232.049 296.306C232.239 296.12 232.489 296.028 232.799 296.028C233.109 296.028 233.357 296.12 233.543 296.306C233.728 296.491 233.821 296.721 233.821 296.995C233.821 297.269 233.728 297.499 233.543 297.684C233.357 297.87 233.109 297.963 232.799 297.963C232.489 297.963 232.239 297.87 232.049 297.684C231.864 297.499 231.771 297.269 231.771 296.995Z" fill="black"/>
<path d="M240.485 297.896H238.665V296.009H235.097L235.012 294.854L238.646 289.092H240.485V294.54H241.458V296.009H240.485V297.896ZM236.808 294.54H238.665V291.571L238.55 291.764L236.808 294.54Z" fill="black"/>
<path d="M248.412 290.108L245.038 297.896H243.109L246.483 290.561H242.154V289.092H248.412V290.108Z" fill="black"/>
<path d="M210.364 315.386H209.884V314.502C209.552 314.48 209.233 314.399 208.929 314.257C208.628 314.116 208.382 313.9 208.191 313.608C208.003 313.314 207.909 312.923 207.909 312.437H208.468C208.468 312.842 208.552 313.159 208.718 313.387C208.884 313.616 209.091 313.778 209.339 313.872C209.589 313.963 209.842 314.008 210.096 314.008C210.572 314.008 210.942 313.883 211.206 313.632C211.472 313.381 211.605 313.077 211.605 312.72C211.605 312.375 211.493 312.092 211.267 311.873C211.044 311.65 210.644 311.439 210.067 311.238C209.672 311.11 209.331 310.964 209.042 310.801C208.757 310.638 208.536 310.434 208.379 310.189C208.225 309.942 208.149 309.631 208.149 309.258C208.149 308.744 208.305 308.328 208.619 308.012C208.936 307.692 209.362 307.512 209.898 307.471V306.521H210.383V307.471C210.928 307.521 211.353 307.726 211.657 308.087C211.964 308.444 212.118 308.94 212.118 309.573H211.558C211.558 309.109 211.436 308.725 211.192 308.421C210.947 308.114 210.593 307.96 210.129 307.96C209.643 307.96 209.285 308.087 209.056 308.341C208.827 308.595 208.713 308.896 208.713 309.244C208.713 309.476 208.755 309.678 208.84 309.851C208.925 310.02 209.078 310.175 209.301 310.316C209.523 310.457 209.843 310.597 210.26 310.735C210.652 310.867 210.991 311.014 211.276 311.177C211.562 311.337 211.781 311.539 211.935 311.784C212.088 312.028 212.165 312.337 212.165 312.71C212.165 313.234 212.002 313.651 211.676 313.961C211.35 314.272 210.912 314.45 210.364 314.497V315.386Z" fill="#434D5A"/>
<path d="M215.18 310.674C215.703 310.674 216.1 310.544 216.37 310.283C216.642 310.023 216.779 309.71 216.779 309.343C216.779 308.932 216.661 308.597 216.426 308.336C216.194 308.073 215.832 307.941 215.34 307.941C214.91 307.941 214.551 308.068 214.263 308.322C213.977 308.576 213.835 308.921 213.835 309.357H213.275C213.275 308.984 213.364 308.656 213.543 308.374C213.722 308.089 213.966 307.866 214.277 307.706C214.59 307.546 214.945 307.466 215.34 307.466C215.942 307.466 216.425 307.631 216.788 307.96C217.155 308.289 217.339 308.756 217.339 309.362C217.339 309.669 217.24 309.967 217.042 310.255C216.845 310.54 216.553 310.755 216.167 310.899C216.619 311.022 216.948 311.232 217.155 311.53C217.362 311.828 217.466 312.166 217.466 312.546C217.466 312.963 217.375 313.317 217.193 313.608C217.011 313.897 216.76 314.118 216.44 314.272C216.124 314.425 215.765 314.502 215.363 314.502C214.993 314.502 214.64 314.43 214.305 314.286C213.973 314.141 213.7 313.925 213.487 313.637C213.277 313.345 213.172 312.983 213.172 312.55H213.736C213.736 312.986 213.886 313.342 214.187 313.618C214.492 313.891 214.883 314.027 215.363 314.027C215.849 314.027 216.227 313.902 216.497 313.651C216.769 313.397 216.906 313.035 216.906 312.564C216.906 312.069 216.746 311.712 216.426 311.492C216.106 311.269 215.691 311.158 215.18 311.158H214.606V310.674H215.18Z" fill="#434D5A"/>
<path d="M219.328 314.178C219.328 314.466 219.268 314.743 219.149 315.01C219.033 315.28 218.872 315.505 218.665 315.687L218.331 315.447C218.475 315.25 218.585 315.052 218.66 314.855C218.735 314.66 218.773 314.439 218.773 314.192V313.519H219.328V314.178Z" fill="#434D5A"/>
<path d="M222.376 310.674C222.899 310.674 223.296 310.544 223.565 310.283C223.838 310.023 223.975 309.71 223.975 309.343C223.975 308.932 223.857 308.597 223.622 308.336C223.39 308.073 223.028 307.941 222.535 307.941C222.106 307.941 221.747 308.068 221.458 308.322C221.173 308.576 221.03 308.921 221.03 309.357H220.471C220.471 308.984 220.56 308.656 220.739 308.374C220.918 308.089 221.162 307.866 221.473 307.706C221.786 307.546 222.14 307.466 222.535 307.466C223.137 307.466 223.62 307.631 223.984 307.96C224.351 308.289 224.534 308.756 224.534 309.362C224.534 309.669 224.436 309.967 224.238 310.255C224.04 310.54 223.749 310.755 223.363 310.899C223.815 311.022 224.144 311.232 224.351 311.53C224.558 311.828 224.661 312.166 224.661 312.546C224.661 312.963 224.57 313.317 224.389 313.608C224.207 313.897 223.956 314.118 223.636 314.272C223.319 314.425 222.96 314.502 222.559 314.502C222.189 314.502 221.836 314.43 221.501 314.286C221.168 314.141 220.896 313.925 220.682 313.637C220.472 313.345 220.367 312.983 220.367 312.55H220.932C220.932 312.986 221.082 313.342 221.383 313.618C221.687 313.891 222.079 314.027 222.559 314.027C223.045 314.027 223.423 313.902 223.692 313.651C223.965 313.397 224.102 313.035 224.102 312.564C224.102 312.069 223.942 311.712 223.622 311.492C223.302 311.269 222.887 311.158 222.376 311.158H221.802V310.674H222.376Z" fill="#434D5A"/>
<path d="M230.183 314.408H225.889V313.971L228.132 311.431C228.552 310.954 228.847 310.561 229.016 310.25C229.189 309.937 229.275 309.637 229.275 309.352C229.275 308.938 229.153 308.6 228.908 308.336C228.664 308.073 228.309 307.941 227.845 307.941C227.369 307.941 226.992 308.092 226.717 308.393C226.441 308.694 226.303 309.073 226.303 309.531H225.738C225.738 309.155 225.821 308.81 225.988 308.496C226.157 308.183 226.398 307.933 226.712 307.748C227.029 307.56 227.406 307.466 227.845 307.466C228.46 307.466 228.946 307.629 229.303 307.955C229.661 308.278 229.839 308.727 229.839 309.3C229.839 309.576 229.775 309.854 229.647 310.133C229.521 310.412 229.355 310.689 229.148 310.965C228.944 311.241 228.726 311.511 228.494 311.774L226.58 313.933H230.183V314.408Z" fill="#434D5A"/>
<path d="M235.361 311.553C235.361 312.557 235.177 313.3 234.811 313.782C234.444 314.262 233.928 314.502 233.263 314.502C232.608 314.502 232.092 314.262 231.716 313.782C231.34 313.3 231.152 312.557 231.152 311.553V310.396C231.152 309.393 231.337 308.653 231.707 308.176C232.08 307.7 232.595 307.461 233.254 307.461C233.915 307.461 234.431 307.7 234.801 308.176C235.174 308.653 235.361 309.393 235.361 310.396V311.553ZM234.801 310.326C234.801 309.545 234.671 308.952 234.411 308.548C234.154 308.143 233.768 307.941 233.254 307.941C232.746 307.941 232.362 308.143 232.102 308.548C231.845 308.952 231.716 309.545 231.716 310.326V311.614C231.716 312.383 231.846 312.977 232.106 313.397C232.37 313.817 232.755 314.027 233.263 314.027C233.781 314.027 234.166 313.817 234.42 313.397C234.674 312.977 234.801 312.383 234.801 311.614V310.326Z" fill="#434D5A"/>
<path d="M236.617 314.065C236.617 313.955 236.651 313.862 236.72 313.787C236.792 313.712 236.889 313.674 237.012 313.674C237.137 313.674 237.236 313.712 237.308 313.787C237.38 313.862 237.416 313.955 237.416 314.065C237.416 314.174 237.38 314.265 237.308 314.337C237.236 314.41 237.137 314.446 237.012 314.446C236.889 314.446 236.792 314.41 236.72 314.337C236.651 314.265 236.617 314.174 236.617 314.065Z" fill="#434D5A"/>
<path d="M239.264 310.895L239.598 307.56H243.022V308.078H240.083L239.838 310.396C239.957 310.312 240.13 310.228 240.356 310.147C240.584 310.062 240.842 310.02 241.127 310.02C241.738 310.02 242.229 310.218 242.599 310.613C242.972 311.005 243.159 311.542 243.159 312.226C243.159 312.662 243.087 313.052 242.942 313.397C242.798 313.739 242.575 314.008 242.274 314.206C241.973 314.403 241.586 314.502 241.113 314.502C240.749 314.502 240.415 314.433 240.111 314.295C239.81 314.157 239.562 313.949 239.368 313.67C239.177 313.387 239.062 313.033 239.025 312.607H239.565C239.619 313.068 239.777 313.42 240.04 313.665C240.307 313.906 240.664 314.027 241.113 314.027C241.599 314.027 241.966 313.872 242.213 313.561C242.464 313.248 242.59 312.806 242.59 312.235C242.59 311.752 242.455 311.348 242.185 311.022C241.919 310.696 241.533 310.533 241.028 310.533C240.702 310.533 240.442 310.577 240.247 310.664C240.056 310.752 239.877 310.871 239.711 311.022L239.264 310.895Z" fill="#434D5A"/>
<path d="M244.607 310.895L244.941 307.56H248.365V308.078H245.426L245.181 310.396C245.3 310.312 245.473 310.228 245.698 310.147C245.927 310.062 246.184 310.02 246.47 310.02C247.081 310.02 247.572 310.218 247.942 310.613C248.315 311.005 248.501 311.542 248.501 312.226C248.501 312.662 248.429 313.052 248.285 313.397C248.141 313.739 247.918 314.008 247.617 314.206C247.316 314.403 246.929 314.502 246.456 314.502C246.092 314.502 245.758 314.433 245.454 314.295C245.153 314.157 244.905 313.949 244.711 313.67C244.519 313.387 244.405 313.033 244.367 312.607H244.908C244.962 313.068 245.12 313.42 245.383 313.665C245.65 313.906 246.007 314.027 246.456 314.027C246.942 314.027 247.308 313.872 247.556 313.561C247.807 313.248 247.932 312.806 247.932 312.235C247.932 311.752 247.798 311.348 247.528 311.022C247.261 310.696 246.876 310.533 246.371 310.533C246.045 310.533 245.785 310.577 245.59 310.664C245.399 310.752 245.22 310.871 245.054 311.022L244.607 310.895Z" fill="#434D5A"/>
<path d="M77.1498 305.464H71.6108V296.66H73.1709V304.212H77.1498V305.464Z" fill="black"/>
<path d="M78.1717 297.21C78.1717 296.98 78.2463 296.791 78.3954 296.642C78.5446 296.488 78.7522 296.412 79.0183 296.412C79.2843 296.412 79.4939 296.488 79.6471 296.642C79.8003 296.791 79.8769 296.98 79.8769 297.21C79.8769 297.436 79.8003 297.625 79.6471 297.778C79.4939 297.928 79.2843 298.002 79.0183 298.002C78.7522 298.002 78.5446 297.928 78.3954 297.778C78.2463 297.625 78.1717 297.436 78.1717 297.21ZM79.7681 305.464H78.2684V298.921H79.7681V305.464Z" fill="black"/>
<path d="M84.3818 300.028H83.2208V303.62C83.2208 303.918 83.2833 304.114 83.4083 304.206C83.5333 304.295 83.7006 304.339 83.9102 304.339C84.011 304.339 84.1077 304.333 84.2004 304.321C84.2932 304.309 84.3677 304.297 84.4242 304.285V305.44C84.3032 305.48 84.1621 305.514 84.0009 305.543C83.8396 305.571 83.6542 305.585 83.4446 305.585C82.9407 305.585 82.5275 305.446 82.205 305.168C81.8825 304.886 81.7212 304.406 81.7212 303.729V300.028H80.6691V298.921H81.7212V297.319H83.2208V298.921H84.3818V300.028Z" fill="black"/>
<path d="M88.3849 305.585C87.7358 305.585 87.1755 305.446 86.7038 305.168C86.2322 304.886 85.8694 304.507 85.6154 304.031C85.3614 303.551 85.2344 303.015 85.2344 302.422V302.175C85.2344 301.493 85.3634 300.901 85.6214 300.397C85.8794 299.889 86.2322 299.496 86.6797 299.218C87.1312 298.939 87.6411 298.8 88.2095 298.8C88.8384 298.8 89.3604 298.937 89.7757 299.212C90.1909 299.482 90.5013 299.859 90.7069 300.342C90.9125 300.822 91.0153 301.378 91.0153 302.011V302.658H86.7462C86.7865 303.154 86.9578 303.565 87.2602 303.892C87.5625 304.214 87.9676 304.376 88.4756 304.376C88.8263 304.376 89.1367 304.307 89.4068 304.17C89.6769 304.033 89.9127 303.835 90.1143 303.577L90.9004 304.363C90.6907 304.674 90.3803 304.956 89.9692 305.21C89.558 305.46 89.0299 305.585 88.3849 305.585ZM88.2035 300.004C87.8044 300.004 87.4839 300.145 87.242 300.427C87.0001 300.709 86.8449 301.092 86.7764 301.576H89.5338V301.461C89.5257 301.207 89.4753 300.969 89.3826 300.747C89.2939 300.526 89.1528 300.346 88.9593 300.209C88.7699 300.072 88.5179 300.004 88.2035 300.004Z" fill="black"/>
<path d="M94.8248 304.382C95.1755 304.382 95.4698 304.279 95.7076 304.073C95.9495 303.868 96.0805 303.604 96.1007 303.281H97.5157C97.5036 303.712 97.3766 304.103 97.1347 304.454C96.8928 304.801 96.5723 305.077 96.1732 305.283C95.7742 305.484 95.3287 305.585 94.8369 305.585C94.1717 305.585 93.6174 305.438 93.174 305.144C92.7346 304.845 92.406 304.448 92.1884 303.952C91.9707 303.452 91.8618 302.9 91.8618 302.295V302.09C91.8618 301.485 91.9707 300.935 92.1884 300.439C92.406 299.939 92.7346 299.542 93.174 299.248C93.6174 298.95 94.1717 298.8 94.8369 298.8C95.3609 298.8 95.8225 298.905 96.2216 299.115C96.6207 299.32 96.9331 299.611 97.1589 299.986C97.3846 300.356 97.5036 300.788 97.5157 301.28H96.1007C96.0846 300.929 95.9636 300.629 95.7379 300.379C95.5162 300.129 95.2098 300.004 94.8187 300.004C94.4317 300.004 94.1314 300.107 93.9178 300.312C93.7081 300.514 93.563 300.774 93.4824 301.092C93.4018 301.411 93.3614 301.743 93.3614 302.09V302.295C93.3614 302.65 93.4018 302.987 93.4824 303.305C93.563 303.624 93.7081 303.884 93.9178 304.085C94.1274 304.283 94.4297 304.382 94.8248 304.382Z" fill="black"/>
<path d="M98.3441 302.132C98.3441 301.495 98.465 300.927 98.7069 300.427C98.9488 299.923 99.2954 299.526 99.7469 299.236C100.202 298.946 100.749 298.8 101.386 298.8C102.031 298.8 102.581 298.946 103.036 299.236C103.492 299.526 103.839 299.923 104.077 300.427C104.318 300.927 104.439 301.495 104.439 302.132V302.259C104.439 302.892 104.318 303.46 104.077 303.964C103.839 304.464 103.492 304.859 103.036 305.15C102.585 305.44 102.039 305.585 101.398 305.585C100.757 305.585 100.209 305.44 99.753 305.15C99.2975 304.859 98.9488 304.464 98.7069 303.964C98.465 303.46 98.3441 302.892 98.3441 302.259V302.132ZM99.8437 302.259C99.8437 302.646 99.8961 303.001 100.001 303.323C100.11 303.642 100.279 303.898 100.509 304.091C100.739 304.285 101.035 304.382 101.398 304.382C101.757 304.382 102.049 304.285 102.275 304.091C102.504 303.898 102.672 303.642 102.776 303.323C102.885 303.001 102.94 302.646 102.94 302.259V302.132C102.94 301.753 102.885 301.403 102.776 301.08C102.672 300.758 102.504 300.498 102.275 300.3C102.045 300.102 101.748 300.004 101.386 300.004C101.027 300.004 100.733 300.102 100.503 300.3C100.277 300.498 100.11 300.758 100.001 301.08C99.8961 301.403 99.8437 301.753 99.8437 302.132V302.259Z" fill="black"/>
<path d="M105.661 297.21C105.661 296.98 105.735 296.791 105.885 296.642C106.034 296.488 106.241 296.412 106.507 296.412C106.773 296.412 106.983 296.488 107.136 296.642C107.289 296.791 107.366 296.98 107.366 297.21C107.366 297.436 107.289 297.625 107.136 297.778C106.983 297.928 106.773 298.002 106.507 298.002C106.241 298.002 106.034 297.928 105.885 297.778C105.735 297.625 105.661 297.436 105.661 297.21ZM107.257 305.464H105.758V298.921H107.257V305.464Z" fill="black"/>
<path d="M110.323 305.464H108.823V298.921H110.232L110.281 299.695C110.51 299.409 110.787 299.189 111.109 299.036C111.432 298.879 111.79 298.8 112.185 298.8C112.814 298.8 113.318 298.986 113.697 299.357C114.08 299.724 114.272 300.354 114.272 301.249V305.464H112.766V301.237C112.766 300.782 112.667 300.467 112.47 300.294C112.276 300.117 111.994 300.028 111.623 300.028C111.325 300.028 111.065 300.1 110.843 300.246C110.625 300.387 110.452 300.578 110.323 300.82V305.464Z" fill="black"/>
<rect x="26.008" y="285.512" width="34.4" height="34.4" rx="8" fill="#345D9D"/>
<path d="M43.4622 303.873L41.983 308.86H49.8947C50.0006 308.857 50.1035 308.895 50.181 308.967C50.2584 309.04 50.3039 309.14 50.3075 309.246V309.376L49.6195 311.75C49.557 311.981 49.3428 312.138 49.1035 312.128H36.9952L39.0248 305.214L36.7545 305.902L37.2704 304.32L39.5407 303.632L42.3958 293.931C42.4605 293.702 42.6733 293.546 42.9118 293.553H45.9733C46.0791 293.549 46.1821 293.588 46.2595 293.66C46.3369 293.732 46.3825 293.832 46.3861 293.938V294.069L43.9782 302.256L46.2485 301.568L45.7669 303.219L43.4622 303.873Z" fill="white"/>
<rect x="28.072" y="341.928" width="29.584" height="29.584" rx="12" fill="#F5F7F8"/>
<path d="M69.8895 361.192H68.8145L71.803 353.366H72.7168L75.7106 361.192H74.641L73.8939 359.144H70.6313L69.8895 361.192ZM70.9376 358.3H73.5875L72.2599 354.645L70.9376 358.3Z" fill="black"/>
<path d="M76.3664 358.236C76.3664 357.645 76.4613 357.127 76.6513 356.682C76.8448 356.234 77.1135 355.887 77.4575 355.64C77.8015 355.392 78.2046 355.269 78.6669 355.269C79.0181 355.269 79.3262 355.328 79.5914 355.446C79.8566 355.564 80.0841 355.733 80.274 355.951V352.936H81.2791V361.192H80.36L80.3116 360.574C80.1217 360.807 79.8888 360.986 79.6129 361.111C79.3406 361.237 79.0216 361.3 78.6561 361.3C78.2011 361.3 77.8015 361.172 77.4575 360.918C77.1135 360.66 76.8448 360.309 76.6513 359.864C76.4613 359.42 76.3664 358.915 76.3664 358.349V358.236ZM77.3715 358.349C77.3715 358.736 77.4235 359.09 77.5274 359.413C77.6349 359.732 77.8015 359.986 78.0273 360.176C78.253 360.366 78.5451 360.461 78.9034 360.461C79.251 360.461 79.5323 360.382 79.7473 360.225C79.9658 360.067 80.1414 359.866 80.274 359.623V356.919C80.145 356.682 79.9712 356.487 79.7526 356.333C79.5341 356.179 79.2546 356.102 78.9141 356.102C78.5522 356.102 78.2566 356.199 78.0273 356.392C77.8015 356.586 77.6349 356.845 77.5274 357.172C77.4235 357.494 77.3715 357.849 77.3715 358.236V358.349Z" fill="black"/>
<path d="M82.5799 358.236C82.5799 357.645 82.6748 357.127 82.8648 356.682C83.0583 356.234 83.327 355.887 83.671 355.64C84.015 355.392 84.4181 355.269 84.8804 355.269C85.2316 355.269 85.5397 355.328 85.8049 355.446C86.0701 355.564 86.2976 355.733 86.4875 355.951V352.936H87.4926V361.192H86.5735L86.5251 360.574C86.3352 360.807 86.1023 360.986 85.8264 361.111C85.5541 361.237 85.2351 361.3 84.8696 361.3C84.4146 361.3 84.015 361.172 83.671 360.918C83.327 360.66 83.0583 360.309 82.8648 359.864C82.6748 359.42 82.5799 358.915 82.5799 358.349V358.236ZM83.585 358.349C83.585 358.736 83.637 359.09 83.7409 359.413C83.8484 359.732 84.015 359.986 84.2408 360.176C84.4665 360.366 84.7586 360.461 85.1169 360.461C85.4645 360.461 85.7458 360.382 85.9608 360.225C86.1793 360.067 86.3549 359.866 86.4875 359.623V356.919C86.3585 356.682 86.1847 356.487 85.9661 356.333C85.7476 356.179 85.4681 356.102 85.1276 356.102C84.7657 356.102 84.4701 356.199 84.2408 356.392C84.015 356.586 83.8484 356.845 83.7409 357.172C83.637 357.494 83.585 357.849 83.585 358.236V358.349Z" fill="black"/>
<path d="M93.6148 358.73L93.7653 359.746L93.9803 358.832L95.5283 353.366H96.4044L97.9094 358.832L98.1298 359.768L98.291 358.725L99.495 353.366H100.543L98.6511 361.192H97.6998L96.0926 355.478L95.9744 354.898L95.8508 355.478L94.1845 361.192H93.2331L91.3411 353.366H92.3839L93.6148 358.73Z" fill="black"/>
<path d="M104.784 357.204C104.784 356.856 104.68 356.58 104.472 356.376C104.268 356.168 103.965 356.064 103.564 356.064C103.191 356.064 102.89 356.157 102.661 356.344C102.432 356.53 102.317 356.745 102.317 356.989H101.312C101.312 356.709 101.407 356.439 101.597 356.177C101.787 355.912 102.054 355.695 102.398 355.527C102.745 355.355 103.154 355.269 103.623 355.269C104.257 355.269 104.777 355.43 105.182 355.753C105.587 356.075 105.789 356.562 105.789 357.215V359.924C105.789 360.117 105.805 360.323 105.838 360.542C105.873 360.76 105.925 360.948 105.993 361.106V361.192H104.945C104.913 361.12 104.884 361.031 104.859 360.923C104.838 360.816 104.82 360.703 104.806 360.585C104.619 360.782 104.386 360.95 104.107 361.09C103.831 361.23 103.514 361.3 103.155 361.3C102.761 361.3 102.415 361.224 102.118 361.074C101.824 360.92 101.595 360.712 101.43 360.45C101.269 360.189 101.188 359.898 101.188 359.58C101.188 358.952 101.425 358.478 101.898 358.155C102.371 357.829 103.007 357.666 103.806 357.666H104.784V357.204ZM103.301 360.44C103.659 360.44 103.969 360.35 104.23 360.171C104.492 359.988 104.677 359.786 104.784 359.563V358.365H103.967C103.401 358.365 102.964 358.454 102.656 358.634C102.347 358.813 102.193 359.081 102.193 359.44C102.193 359.719 102.286 359.956 102.473 360.149C102.663 360.343 102.939 360.44 103.301 360.44Z" fill="black"/>
<path d="M108.444 361.192H107.439V352.936H108.444V361.192Z" fill="black"/>
<path d="M111.121 361.192H110.116V352.936H111.121V361.192Z" fill="black"/>
<path d="M115.126 361.3C114.584 361.3 114.113 361.179 113.712 360.939C113.314 360.696 113.004 360.362 112.782 359.94C112.563 359.517 112.454 359.033 112.454 358.488V358.257C112.454 357.627 112.574 357.089 112.814 356.645C113.058 356.197 113.373 355.856 113.76 355.624C114.151 355.387 114.563 355.269 114.997 355.269C115.556 355.269 116.011 355.394 116.362 355.645C116.717 355.892 116.976 356.231 117.141 356.661C117.31 357.087 117.394 357.571 117.394 358.112V358.558H113.459C113.47 358.917 113.543 359.243 113.68 359.537C113.819 359.827 114.016 360.06 114.271 360.235C114.525 360.407 114.828 360.493 115.179 360.493C115.53 360.493 115.828 360.422 116.072 360.278C116.315 360.135 116.528 359.943 116.711 359.703L117.319 360.176C117.132 360.463 116.863 360.723 116.512 360.956C116.165 361.185 115.702 361.3 115.126 361.3ZM114.997 356.075C114.602 356.075 114.269 356.22 113.997 356.51C113.728 356.801 113.56 357.215 113.492 357.752H116.389V357.677C116.374 357.419 116.322 357.168 116.233 356.924C116.143 356.677 116 356.475 115.803 356.317C115.606 356.156 115.337 356.075 114.997 356.075Z" fill="black"/>
<path d="M121 356.134H119.915V359.752C119.915 360.053 119.979 360.244 120.108 360.327C120.241 360.409 120.389 360.45 120.554 360.45C120.637 360.45 120.723 360.443 120.812 360.429C120.905 360.414 120.974 360.402 121.017 360.391L121.022 361.192C120.943 361.217 120.839 361.24 120.71 361.262C120.585 361.287 120.432 361.3 120.253 361.3C120.01 361.3 119.786 361.251 119.581 361.154C119.377 361.058 119.214 360.896 119.092 360.671C118.97 360.441 118.91 360.133 118.91 359.746V356.134H117.851V355.376H118.91V353.963H119.915V355.376H121V356.134Z" fill="black"/>
<path fill-rule="evenodd" clip-rule="evenodd" d="M46.777 356.161H43.423V352.807C43.423 352.472 43.1994 352.248 42.864 352.248C42.5286 352.248 42.305 352.472 42.305 352.807V356.161H38.951C38.6156 356.161 38.392 356.385 38.392 356.72C38.392 357.055 38.6156 357.279 38.951 357.279H42.305V360.633C42.305 360.968 42.5286 361.192 42.864 361.192C43.1994 361.192 43.423 360.968 43.423 360.633V357.279H46.777C47.1124 357.279 47.336 357.055 47.336 356.72C47.336 356.385 47.1124 356.161 46.777 356.161Z" fill="#434D5A"/>
<rect x="15" y="521.496" width="258" height="47.9855" fill="white"/>
<path d="M15.688 521.808H273" stroke="#EAEAEA" stroke-width="0.905797" stroke-linecap="square"/>
<path d="M55.3313 544.071L47.7633 538.463C47.51 538.275 47.1457 538.275 46.8923 538.463L39.3243 544.071C39.0371 544.291 38.9975 544.679 39.2354 544.942C39.4734 545.206 39.9008 545.248 40.1953 545.036L41.1358 544.339V551.409C41.1358 551.753 41.4439 552.032 41.8238 552.032H45.9518V548.293H48.7038V552.032H52.8318C53.2118 552.032 53.5198 551.753 53.5198 551.409V544.339L54.4603 545.036C54.6501 545.181 54.9115 545.222 55.1442 545.144C55.3769 545.065 55.5448 544.879 55.5836 544.657C55.6223 544.435 55.5259 544.211 55.3313 544.071V544.071Z" fill="#C2C7D3"/>
<path fill-rule="evenodd" clip-rule="evenodd" d="M101 542.022H102.935C103.291 542.022 103.58 542.258 103.58 542.548V551.443C103.58 551.907 102.935 552.539 102.409 552.539H90.68C89.2552 552.539 88.1 551.597 88.1 550.435V541.496C88.1 540.625 88.9662 539.919 90.035 539.919H100.355C100.711 539.919 101 540.155 101 540.445V542.022ZM90.68 542.022H99.71V540.971H90.035C89.6796 540.971 89.39 541.207 89.39 541.496C89.39 541.786 89.6796 542.022 90.035 542.022H90.68ZM98.42 547.376C98.42 548.01 98.9973 548.523 99.71 548.523C100.423 548.523 101 548.01 101 547.376C101 546.742 100.423 546.229 99.71 546.229C98.9973 546.229 98.42 546.742 98.42 547.376Z" fill="#4F6EF7"/>
<path fill-rule="evenodd" clip-rule="evenodd" d="M183.994 551.98H198.95C199.57 551.98 200.072 551.519 200.072 550.949V541.326C200.072 540.757 199.57 540.295 198.95 540.295H183.994C183.374 540.295 182.872 540.757 182.872 541.326V550.949C182.872 551.519 183.374 551.98 183.994 551.98ZM193.622 547.436H185.022V548.734H193.622V547.436Z" fill="#C2C7D3"/>
<path d="M182.872 542.243H200.072V544.84H182.872V542.243Z" fill="#9BA3AE"/>
<path fill-rule="evenodd" clip-rule="evenodd" d="M245.136 545.8C245.134 546.053 245.109 546.306 245.063 546.555L246.266 547.608C246.455 547.773 246.496 548.034 246.364 548.241L245.504 549.591C245.402 549.752 245.212 549.851 245.007 549.851C244.954 549.85 244.901 549.844 244.849 549.831L243.244 549.415C242.81 549.736 242.322 549.99 241.797 550.169L241.392 551.639C241.328 551.87 241.099 552.032 240.836 552.032H239.116C238.854 552.032 238.625 551.87 238.562 551.639L238.156 550.169C237.631 549.991 237.142 549.737 236.707 549.416L235.102 549.831C235.051 549.844 234.998 549.851 234.944 549.851C234.739 549.851 234.55 549.752 234.447 549.591L233.587 548.241C233.456 548.035 233.496 547.774 233.685 547.609L234.889 546.555C234.843 546.306 234.818 546.053 234.816 545.8C234.818 545.548 234.843 545.295 234.889 545.046L233.685 543.993C233.496 543.827 233.456 543.566 233.587 543.36L234.447 542.009C234.58 541.804 234.85 541.706 235.103 541.77L236.708 542.185C237.142 541.865 237.63 541.61 238.155 541.432L238.56 539.962C238.624 539.731 238.853 539.569 239.116 539.568H240.836C241.099 539.569 241.328 539.731 241.392 539.962L241.795 541.432C242.32 541.61 242.809 541.865 243.244 542.185L244.849 541.77C245.102 541.706 245.372 541.804 245.505 542.009L246.365 543.36C246.496 543.566 246.455 543.827 246.267 543.992L245.063 545.046C245.109 545.295 245.134 545.547 245.136 545.8ZM237.683 545.8C237.683 546.948 238.709 547.878 239.976 547.878C240.584 547.878 241.168 547.659 241.598 547.269C242.028 546.88 242.269 546.351 242.269 545.8C242.269 544.653 241.243 543.723 239.976 543.723C238.709 543.723 237.683 544.653 237.683 545.8Z" fill="#C2C7D3"/>
<rect x="131.536" y="533.337" width="24.9275" height="24.9275" rx="12.4638" fill="#4F6EF7"/>
<path fill-rule="evenodd" clip-rule="evenodd" d="M144.237 542.976L140.095 547.118C139.848 547.366 139.447 547.366 139.2 547.118C138.953 546.871 138.953 546.47 139.2 546.223L143.342 542.081H141.389C141.039 542.081 140.755 541.798 140.755 541.448C140.755 541.098 141.039 540.815 141.389 540.815H144.871C144.956 540.815 145.038 540.832 145.113 540.863C145.188 540.894 145.257 540.94 145.318 541C145.565 541.247 145.565 541.648 145.318 541.896L144.237 542.976ZM144.658 549.52H146.612C146.961 549.52 147.245 549.803 147.245 550.153C147.245 550.502 146.961 550.786 146.612 550.786H143.133H143.13C143.118 550.786 143.106 550.785 143.095 550.785C143.108 550.786 143.121 550.786 143.133 550.786M142.9 550.743C142.738 550.68 142.608 550.551 142.542 550.39C142.573 550.466 142.62 550.538 142.682 550.6C142.746 550.665 142.821 550.712 142.9 550.743ZM143.763 548.624L147.905 544.482C148.152 544.235 148.553 544.235 148.8 544.482C149.047 544.729 149.047 545.13 148.8 545.377L144.658 549.52" fill="white"/>
</g>
<defs>
<filter id="filter0_d" x="0" y="0" width="288" height="588.656" filterUnits="userSpaceOnUse" color-interpolation-filters="sRGB">
<feFlood flood-opacity="0" result="BackgroundImageFix"/>
<feColorMatrix in="SourceAlpha" type="matrix" values="0 0 0 0 0 0 0 0 0 0 0 0 0 0 0 0 0 0 127 0"/>
<feOffset dy="4"/>
<feGaussianBlur stdDeviation="7.5"/>
<feColorMatrix type="matrix" values="0 0 0 0 0 0 0 0 0 0 0 0 0 0 0 0 0 0 0.05 0"/>
<feBlend mode="normal" in2="BackgroundImageFix" result="effect1_dropShadow"/>
<feBlend mode="normal" in="SourceGraphic" in2="effect1_dropShadow" result="shape"/>
</filter>
<clipPath id="clip0">
<rect width="258" height="558.656" fill="white" transform="translate(15 11)"/>
</clipPath>
</defs>
</svg>
