<?xml version="1.0" encoding="UTF-8"?>
<svg width="17px" height="17px" viewBox="0 0 17 17" version="1.1" xmlns="http://www.w3.org/2000/svg" xmlns:xlink="http://www.w3.org/1999/xlink">
    <!-- Generator: sketchtool 40.1 (33804) - http://www.bohemiancoding.com/sketch -->
    <title>3A719124-019D-470F-908A-5D61F117A295</title>
    <desc>Created with sketchtool.</desc>
    <defs></defs>
    <g id="Page-1" stroke="none" stroke-width="1" fill="none" fill-rule="evenodd">
        <g id="Icons" transform="translate(-324.000000, -770.000000)" stroke="#9b9bab" stroke-width="0.7">
            <g id="icons/list-items/sync" transform="translate(324.000000, 770.000000)">
                <g id="Group" transform="translate(0.365217, 0.365217)">
                    <polyline id="Shape" points="10.5913043 11.6869565 0 11.6869565 0 0 16.0695652 0 16.0695652 7.96173913"></polyline>
                    <ellipse id="Oval" cx="8.03478261" cy="5.84347826" rx="1.46086957" ry="1.46086957"></ellipse>
                    <path d="M13.8782609,6.57391304 L13.8782609,4.3826087 C12.6365217,4.3826087 11.6869565,3.43304348 11.6869565,2.19130435 L4.3826087,2.19130435 C4.3826087,3.43304348 3.43304348,4.3826087 2.19130435,4.3826087 L2.19130435,7.30434783 C3.43304348,7.30434783 4.3826087,8.25391304 4.3826087,9.49565217 L10.5913043,9.49565217" id="Shape"></path>
                    <path d="M15.0469565,13.5130435 C15.6313043,13.8052174 16.0695652,14.1704348 16.0695652,14.6086957 C16.0695652,15.4121739 14.7547826,16.0695652 13.1478261,16.0695652 C11.5408696,16.0695652 10.226087,15.4121739 10.226087,14.6086957 C10.226087,14.1704348 10.5913043,13.8052174 11.2486957,13.5130435" id="Shape"></path>
                    <path d="M15.0469565,11.3217391 C15.6313043,11.613913 16.0695652,11.9791304 16.0695652,12.4173913 C16.0695652,13.2208696 14.7547826,13.8782609 13.1478261,13.8782609 C11.5408696,13.8782609 10.226087,13.2208696 10.226087,12.4173913 C10.226087,11.9791304 10.5913043,11.613913 11.1756522,11.3217391" id="Shape"></path>
                    <path d="M15.0469565,9.13043478 C15.6313043,9.4226087 16.0695652,9.78782609 16.0695652,10.226087 C16.0695652,11.0295652 14.7547826,11.6869565 13.1478261,11.6869565 C11.5408696,11.6869565 10.226087,11.0295652 10.226087,10.226087 C10.226087,9.78782609 10.5913043,9.4226087 11.1756522,9.13043478" id="Shape"></path>
                    <ellipse id="Oval" cx="13.1478261" cy="8.03478261" rx="2.92173913" ry="1.46086957"></ellipse>
                </g>
            </g>
        </g>
    </g>
</svg>
