<?xml version="1.0" encoding="UTF-8"?>
<svg width="17px" height="20px" viewBox="0 0 17 20" version="1.1" xmlns="http://www.w3.org/2000/svg" xmlns:xlink="http://www.w3.org/1999/xlink">
    <!-- Generator: Sketch 54.1 (76490) - https://sketchapp.com -->
    <title>lock</title>
    <desc>Created with Sketch.</desc>
    <g id="Page-1" stroke="none" stroke-width="1" fill="none" fill-rule="evenodd">
        <g id="Wallet/Small/Lock-" transform="translate(-2.000000, 0.000000)" fill="#9BA3AE">
            <g id="lock" transform="translate(2.000000, 0.000000)">
                <path d="M14.1666667,6.66666667 L13.3333333,6.66666667 L13.3333333,5.00833333 C13.3606301,2.27101721 11.1647954,0.0293038168 8.4275,0 L8.29083333,0 C5.57281261,0.00348840392 3.36298889,2.19213882 3.33333333,4.91 L3.33333333,6.66666667 L2.5,6.66666667 C1.11928813,6.66666667 3.7673568e-14,7.78595479 3.73034936e-14,9.16666667 L3.73034936e-14,17.5 C3.7673568e-14,18.8807119 1.11928813,20 2.5,20 L14.1666667,20 C15.5473785,20 16.6666667,18.8807119 16.6666667,17.5 L16.6666667,9.16666667 C16.6666667,7.78595479 15.5473785,6.66666667 14.1666667,6.66666667 Z M9.16666667,14.8466667 L9.16666667,16.6666667 L7.5,16.6666667 L7.5,14.8466667 C6.35204443,14.4408031 5.66343993,13.2669448 5.86933693,12.0668891 C6.07523394,10.8668334 7.11574258,9.98964406 8.33333333,9.98964406 C9.55092409,9.98964406 10.5914327,10.8668334 10.7973297,12.0668891 C11.0032267,13.2669448 10.3146222,14.4408031 9.16666667,14.8466667 L9.16666667,14.8466667 Z M11.6666667,6.66666667 L5,6.66666667 L5,4.92583333 C5.02007285,3.12155245 6.48727544,1.66883617 8.29166667,1.66666667 L8.4075,1.66666667 C9.2820538,1.6754533 10.1171761,2.03183709 10.7286141,2.65718913 C11.3400521,3.28254118 11.6775575,4.12546987 11.6666667,5 L11.6666667,6.66666667 Z" id="Shape"></path>
            </g>
        </g>
    </g>
</svg>