<?xml version="1.0" encoding="UTF-8"?>
<svg width="20px" height="20px" viewBox="0 0 20 20" version="1.1" xmlns="http://www.w3.org/2000/svg" xmlns:xlink="http://www.w3.org/1999/xlink">
    <!-- Generator: Sketch 54.1 (76490) - https://sketchapp.com -->
    <title>Wallet/Small/Advanced</title>
    <desc>Created with Sketch.</desc>
    <g id="Wallet/Small/Advanced" stroke="none" stroke-width="1" fill="none" fill-rule="evenodd">
        <g id="lightning" transform="translate(1.000000, 0.000000)" fill="#9BA3AE">
            <path d="M17.4125838,7.96582136 C17.2697918,7.68084081 16.9740084,7.50085309 16.6501767,7.50085309 L9.95000351,7.50085309 L10.6945616,0.926301819 C10.7370592,0.554660518 10.5211714,0.201351299 10.1675913,0.0613608535 C9.81316121,-0.0802961448 9.40773401,0.029696348 9.17569706,0.325509491 L0.676175115,11.1581035 C0.478986206,11.409753 0.444138166,11.7497298 0.587780087,12.0347103 C0.731422008,12.3205241 1.02720537,12.5005119 1.35103716,12.5005119 L8.05121031,12.5005119 L7.30665218,19.0750631 C7.26415458,19.4467044 7.48004243,19.8000136 7.83362255,19.9400041 C7.93646676,19.9808346 8.04441069,20 8.15065471,20 C8.40904018,20 8.66062603,19.8841746 8.8246668,19.6750222 L17.3241887,8.84242819 C17.5213777,8.5907787 17.5553757,8.25080191 17.4125838,7.96582136 Z" id="Path"></path>
        </g>
    </g>
</svg>