<?xml version="1.0" encoding="UTF-8"?>
<svg width="20px" height="20px" viewBox="0 0 20 20" version="1.1" xmlns="http://www.w3.org/2000/svg" xmlns:xlink="http://www.w3.org/1999/xlink">
    <!-- Generator: Sketch 57.1 (83088) - https://sketch.com -->
    <title>Generic/Small/Key</title>
    <desc>Created with Sketch.</desc>
    <g id="Generic/Small/Key" stroke="none" stroke-width="1" fill="none" fill-rule="evenodd">
        <g id="key" transform="translate(1.000000, 0.000000)" fill="#9BA3AE">
            <path d="M19.3580645,0.319354839 L15.4870968,0.319354839 C15.4024251,0.319797016 15.3213222,0.353512684 15.2612903,0.413225806 L7.49354839,8.14741935 C4.95219911,7.55306404 2.32486883,8.71621627 1.05646684,10.9971965 C-0.21193515,13.2781767 0.186236666,16.1237429 2.03200634,17.9689661 C3.87777601,19.8141893 6.72345993,20.2115185 9.00406448,18.9424412 C11.284669,17.6733639 12.4470433,15.0456893 11.8519355,12.5045161 L13.1370968,11.19 C13.196101,11.1296559 13.2291061,11.0485909 13.2290323,10.9641935 L13.2290323,8.70612903 L15.4870968,8.70612903 C15.6652531,8.70612903 15.8096774,8.56170476 15.8096774,8.38354839 L15.8096774,6.12548387 L18.0677419,6.12548387 C18.1532886,6.1254656 18.2353249,6.09146754 18.2958065,6.03096774 L19.586129,4.74064516 C19.6466288,4.68016364 19.6806452,4.59812736 19.6806452,4.51258065 L19.6806452,0.641612903 C19.6806452,0.463582521 19.536095,0.319354839 19.3580645,0.319354839 Z M5.6483871,16.1258065 C4.66852706,16.1258065 3.87419355,15.3314729 3.87419355,14.3516129 C3.87419355,13.3717529 4.66852706,12.5774194 5.6483871,12.5774194 C6.62824714,12.5774194 7.42258065,13.3717529 7.42258065,14.3516129 C7.42258065,15.3314729 6.62824714,16.1258065 5.6483871,16.1258065 L5.6483871,16.1258065 Z" id="Shape"></path>
        </g>
    </g>
</svg>