<?xml version="1.0" encoding="UTF-8"?>
<svg width="20px" height="20px" viewBox="0 0 20 20" version="1.1" xmlns="http://www.w3.org/2000/svg" xmlns:xlink="http://www.w3.org/1999/xlink">
    <!-- Generator: Sketch 54.1 (76490) - https://sketchapp.com -->
    <title>c-question</title>
    <desc>Created with Sketch.</desc>
    <g id="Page-1" stroke="none" stroke-width="1" fill="none" fill-rule="evenodd">
        <g id="Generic/Small/Help-" fill="#9BA3AE">
            <g id="c-question">
                <path d="M10,0 C4.48583333,0 0,4.48583333 0,10 C0,15.5141667 4.48583333,20 10,20 C15.5141667,20 20,15.5141667 20,10 C20,4.48583333 15.5141667,0 10,0 Z M9.58333333,15.8333333 C8.89333333,15.8333333 8.33333333,15.2733333 8.33333333,14.5833333 C8.33333333,13.8933333 8.89333333,13.3333333 9.58333333,13.3333333 C10.2733333,13.3333333 10.8333333,13.8933333 10.8333333,14.5833333 C10.8333333,15.2733333 10.2733333,15.8333333 9.58333333,15.8333333 Z M13.1758333,8.43916667 C12.9183333,8.85166667 12.4291667,9.315 11.7075,9.83 C10.54,10.6933333 10.5716667,10.885 10.5716667,11.6666667 L8.52416667,11.6666667 C8.52416667,11.0558333 8.51083333,10.5866667 8.84083333,10.0158333 C9.05166667,9.65 9.43833333,9.26083333 10,8.84916667 C10.6741667,8.3675 11.3291667,7.90333333 11.3291667,7.095 C11.3291667,6.3375 10.6808333,6.0675 9.92333333,6.0675 C9.15083333,6.0675 8.27,6.32 7.28083333,6.825 L6.43833333,5.13333333 C8.23583333,4.12583333 11.0725,3.67 12.6233333,4.9325 C13.7616667,5.86 13.7683333,7.49083333 13.1758333,8.43916667 Z" id="Shape"></path>
            </g>
        </g>
    </g>
</svg>