<?xml version="1.0" encoding="utf-8"?>
<!-- Generator: Adobe Illustrator 18.0.0, SVG Export Plug-In . SVG Version: 6.00 Build 0)  -->
<!DOCTYPE svg PUBLIC "-//W3C//DTD SVG 1.1//EN" "http://www.w3.org/Graphics/SVG/1.1/DTD/svg11.dtd">
<svg version="1.1" id="Layer_1" xmlns="http://www.w3.org/2000/svg" xmlns:xlink="http://www.w3.org/1999/xlink" x="0px" y="0px"
	 viewBox="263 319.4 70 54.3" enable-background="new 263 319.4 70 54.3" xml:space="preserve" fill="#523971">
<g>
	<path d="M324.8,319.4l-8.4,8.4c-17.8-7.2-39-3.5-53.4,10.9l5,5c11.6-11.5,28.3-15,42.9-10.4l-5.8,5.8c-11.2-2.3-23.4,0.9-32.1,9.7
		l5,5c5.7-5.7,13.2-8.5,20.8-8.3l-8.6,8.6c-2.6,1-5.1,2.6-7.2,4.7l1.2,1.2l-9,8.9l2.7,2.7l49.6-49.5L324.8,319.4z"/>
	<path d="M292.9,368.7l5,5l5-5C300.2,365.9,295.6,365.9,292.9,368.7z"/>
	<path d="M295.3,359.8c4.4-0.9,9.3,0.5,12.7,3.9l5-5c-3-3-6.9-5-10.7-5.8L295.3,359.8z"/>
	<path d="M307.9,347.2c3.7,1.4,7.1,3.5,10,6.5l5-5c-2.9-2.9-6.2-5.2-9.7-6.9L307.9,347.2z"/>
	<path d="M323.7,331.4l-5.1,5.1c3.3,1.9,6.5,4.2,9.4,7.1l5-5C330.1,335.9,326.9,333.5,323.7,331.4z"/>
</g>
</svg>
