<?xml version="1.0" encoding="utf-8"?>
<!-- Generator: Adobe Illustrator 21.1.0, SVG Export Plug-In . SVG Version: 6.00 Build 0)  -->
<svg version="1.1" id="Layer_1" xmlns="http://www.w3.org/2000/svg" xmlns:xlink="http://www.w3.org/1999/xlink" x="0px" y="0px"
	 viewBox="0 0 68.7 30.3" style="enable-background:new 0 0 68.7 30.3;" xml:space="preserve">
<style type="text/css">
	.st0{fill:url(#SVGID_1_);}
	.st1{fill:url(#SVGID_2_);}
	.st2{fill:url(#SVGID_3_);}
	.st3{fill:none;}
	.st4{fill:#44B4EA;}
	.st5{font-family:'Ubuntu-Light';}
	.st6{font-size:8px;}
</style>
<linearGradient id="SVGID_1_" gradientUnits="userSpaceOnUse" x1="2.1458" y1="9.5" x2="29.8129" y2="9.5">
	<stop  offset="0" style="stop-color:#C727B5"/>
	<stop  offset="1" style="stop-color:#44B4EA"/>
</linearGradient>
<polygon class="st0" points="24.3,1.8 19.8,11.2 14.5,1.9 8.3,1.9 1.8,17.2 8,17.2 11.8,8.2 17,17.2 22.9,17.2 23.1,17.2 30.5,1.8 
	"/>
<linearGradient id="SVGID_2_" gradientUnits="userSpaceOnUse" x1="28.3154" y1="9.5464" x2="48.8646" y2="9.5464">
	<stop  offset="0" style="stop-color:#C727B5"/>
	<stop  offset="1" style="stop-color:#44B4EA"/>
</linearGradient>
<polygon class="st1" points="40.8,1.9 34.5,1.9 28.1,17.2 34.3,17.2 38.1,8.2 43.3,17.2 49.2,17.2 49.4,17.2 "/>
<linearGradient id="SVGID_3_" gradientUnits="userSpaceOnUse" x1="45.4092" y1="9.5" x2="66.8833" y2="9.5">
	<stop  offset="0" style="stop-color:#C727B5"/>
	<stop  offset="1" style="stop-color:#44B4EA"/>
</linearGradient>
<polygon class="st2" points="61.2,1.8 56.8,11.2 51.4,1.9 45.2,1.9 53.9,17.2 59.8,17.2 60,17.2 67.4,1.8 "/>
<rect y="20.2" class="st3" width="68.7" height="6.5"/>
<text transform="matrix(1 0 0 1 19.2503 26.3747)" class="st4 st5 st6">NAVPAY</text>
</svg>
