<?xml version="1.0" encoding="utf-8"?>
<!-- Generator: Adobe Illustrator 21.1.0, SVG Export Plug-In . SVG Version: 6.00 Build 0)  -->
<svg version="1.1" id="Layer_1" xmlns="http://www.w3.org/2000/svg" xmlns:xlink="http://www.w3.org/1999/xlink" x="0px" y="0px"
	 viewBox="0 0 68.7 17.6" style="enable-background:new 0 0 68.7 17.6;" xml:space="preserve">
<style type="text/css">
	.st0{fill:url(#SVGID_1_);}
	.st1{fill:url(#SVGID_2_);}
	.st2{fill:url(#SVGID_3_);}
</style>
<g>
	
		<linearGradient id="SVGID_1_" gradientUnits="userSpaceOnUse" x1="1.8958" y1="744.8125" x2="29.5629" y2="744.8125" gradientTransform="matrix(1 0 0 1 0 -736)">
		<stop  offset="0" style="stop-color:#C727B5"/>
		<stop  offset="1" style="stop-color:#44B4EA"/>
	</linearGradient>
	<polygon class="st0" points="24,1.1 19.5,10.5 14.2,1.2 8,1.2 1.5,16.5 7.7,16.5 11.5,7.5 16.7,16.5 22.6,16.5 22.8,16.5 30.2,1.1 
			"/>
	
		<linearGradient id="SVGID_2_" gradientUnits="userSpaceOnUse" x1="28.0654" y1="744.8625" x2="48.6146" y2="744.8625" gradientTransform="matrix(1 0 0 1 0 -736)">
		<stop  offset="0" style="stop-color:#C727B5"/>
		<stop  offset="1" style="stop-color:#44B4EA"/>
	</linearGradient>
	<polygon class="st1" points="40.5,1.2 34.2,1.2 27.8,16.5 34,16.5 37.8,7.5 43,16.5 48.9,16.5 49.1,16.5 	"/>
	
		<linearGradient id="SVGID_3_" gradientUnits="userSpaceOnUse" x1="45.1592" y1="744.8125" x2="66.6333" y2="744.8125" gradientTransform="matrix(1 0 0 1 0 -736)">
		<stop  offset="0" style="stop-color:#C727B5"/>
		<stop  offset="1" style="stop-color:#44B4EA"/>
	</linearGradient>
	<polygon class="st2" points="60.9,1.1 56.5,10.5 51.1,1.2 44.9,1.2 53.6,16.5 59.5,16.5 59.7,16.5 67.2,1.1 	"/>
</g>
</svg>
