<?xml version="1.0" encoding="utf-8"?>
<!-- Generator: Adobe Illustrator 21.1.0, SVG Export Plug-In . SVG Version: 6.00 Build 0)  -->
<svg version="1.1" id="Layer_1" xmlns="http://www.w3.org/2000/svg" xmlns:xlink="http://www.w3.org/1999/xlink" x="0px" y="0px"
	 viewBox="0 0 68.7 30.3" style="enable-background:new 0 0 68.7 30.3;" xml:space="preserve">
<style type="text/css">
	.st0{fill:url(#SVGID_1_);}
	.st1{fill:url(#SVGID_2_);}
	.st2{fill:url(#SVGID_3_);}
	.st3{fill:none;}
	.st4{enable-background:new    ;}
	.st5{fill:#44B4EA;}
</style>
<linearGradient id="SVGID_1_" gradientUnits="userSpaceOnUse" x1="2.1458" y1="22.5" x2="29.8129" y2="22.5" gradientTransform="matrix(1 0 0 -1 0 32)">
	<stop  offset="0" style="stop-color:#C727B5"/>
	<stop  offset="1" style="stop-color:#44B4EA"/>
</linearGradient>
<polygon class="st0" points="24.3,1.8 19.8,11.2 14.5,1.9 8.3,1.9 1.8,17.2 8,17.2 11.8,8.2 17,17.2 22.9,17.2 23.1,17.2 30.5,1.8 
	"/>
<linearGradient id="SVGID_2_" gradientUnits="userSpaceOnUse" x1="28.3154" y1="22.45" x2="48.8646" y2="22.45" gradientTransform="matrix(1 0 0 -1 0 32)">
	<stop  offset="0" style="stop-color:#C727B5"/>
	<stop  offset="1" style="stop-color:#44B4EA"/>
</linearGradient>
<polygon class="st1" points="40.8,1.9 34.5,1.9 28.1,17.2 34.3,17.2 38.1,8.2 43.3,17.2 49.2,17.2 49.4,17.2 "/>
<linearGradient id="SVGID_3_" gradientUnits="userSpaceOnUse" x1="45.4092" y1="22.5" x2="66.8833" y2="22.5" gradientTransform="matrix(1 0 0 -1 0 32)">
	<stop  offset="0" style="stop-color:#C727B5"/>
	<stop  offset="1" style="stop-color:#44B4EA"/>
</linearGradient>
<polygon class="st2" points="61.2,1.8 56.8,11.2 51.4,1.9 45.2,1.9 53.9,17.2 59.8,17.2 60,17.2 67.4,1.8 "/>
<rect y="20.2" class="st3" width="68.7" height="6.5"/>
<g class="st4">
	<path class="st5" d="M23.7,26.4c-0.1-0.2-0.2-0.4-0.4-0.7c-0.2-0.3-0.3-0.5-0.5-0.8s-0.4-0.6-0.6-0.9c-0.2-0.3-0.4-0.6-0.6-0.9
		c-0.2-0.3-0.4-0.6-0.6-0.8s-0.4-0.5-0.5-0.6v4.7H20v-5.5h0.4c0.3,0.3,0.6,0.7,0.9,1.1s0.6,0.8,0.9,1.2s0.6,0.8,0.8,1.2
		c0.3,0.4,0.5,0.7,0.6,1v-4.5h0.5v5.5H23.7z"/>
	<path class="st5" d="M29.4,26.4c-0.1-0.3-0.2-0.5-0.3-0.8c-0.1-0.3-0.2-0.5-0.3-0.7h-2.7c-0.1,0.2-0.2,0.5-0.3,0.7
		c-0.1,0.3-0.2,0.5-0.3,0.8H25c0.2-0.6,0.4-1.1,0.6-1.6c0.2-0.5,0.4-1,0.6-1.4c0.2-0.4,0.4-0.9,0.5-1.3c0.2-0.4,0.4-0.8,0.6-1.2h0.5
		c0.2,0.4,0.4,0.8,0.6,1.2c0.2,0.4,0.4,0.8,0.5,1.3c0.2,0.4,0.4,0.9,0.5,1.4s0.4,1,0.6,1.6H29.4z M27.5,21.5
		c-0.2,0.5-0.4,0.9-0.6,1.4c-0.2,0.5-0.4,1-0.6,1.5h2.4c-0.2-0.5-0.4-1.1-0.6-1.5S27.7,21.9,27.5,21.5z"/>
	<path class="st5" d="M30.3,20.8c0.2,0.5,0.3,0.9,0.5,1.3c0.1,0.4,0.3,0.8,0.4,1.2c0.1,0.4,0.3,0.8,0.4,1.2s0.3,0.8,0.5,1.2
		c0.2-0.4,0.3-0.8,0.5-1.1s0.3-0.8,0.4-1.2c0.1-0.4,0.3-0.8,0.4-1.2c0.1-0.4,0.3-0.9,0.5-1.4h0.6c-0.2,0.7-0.5,1.3-0.7,1.8
		c-0.2,0.5-0.4,1-0.5,1.4c-0.2,0.4-0.3,0.8-0.5,1.2s-0.3,0.7-0.5,1.1h-0.5c-0.2-0.4-0.3-0.7-0.5-1.1c-0.2-0.4-0.3-0.8-0.5-1.2
		c-0.2-0.4-0.4-0.9-0.5-1.4c-0.2-0.5-0.4-1.1-0.7-1.8H30.3z"/>
	<path class="st5" d="M36.8,20.8c0.8,0,1.4,0.1,1.8,0.4c0.4,0.3,0.6,0.7,0.6,1.3c0,0.3-0.1,0.6-0.2,0.8c-0.1,0.2-0.3,0.4-0.5,0.5
		s-0.5,0.2-0.8,0.3c-0.3,0.1-0.6,0.1-1,0.1h-0.8v2.1h-0.5v-5.4c0.2-0.1,0.4-0.1,0.7-0.1C36.3,20.8,36.5,20.8,36.8,20.8z M36.8,21.3
		c-0.2,0-0.4,0-0.5,0c-0.1,0-0.3,0-0.4,0v2.4h0.7c0.3,0,0.6,0,0.8-0.1c0.2,0,0.4-0.1,0.6-0.2c0.2-0.1,0.3-0.2,0.4-0.4
		c0.1-0.2,0.1-0.4,0.1-0.6c0-0.2,0-0.4-0.1-0.6s-0.2-0.3-0.4-0.4c-0.2-0.1-0.3-0.2-0.6-0.2C37.2,21.3,37,21.3,36.8,21.3z"/>
	<path class="st5" d="M43.5,26.4c-0.1-0.3-0.2-0.5-0.3-0.8c-0.1-0.3-0.2-0.5-0.3-0.7h-2.7c-0.1,0.2-0.2,0.5-0.3,0.7
		c-0.1,0.3-0.2,0.5-0.3,0.8h-0.6c0.2-0.6,0.4-1.1,0.6-1.6c0.2-0.5,0.4-1,0.6-1.4c0.2-0.4,0.4-0.9,0.5-1.3s0.4-0.8,0.6-1.2h0.5
		c0.2,0.4,0.4,0.8,0.6,1.2c0.2,0.4,0.4,0.8,0.5,1.3c0.2,0.4,0.4,0.9,0.5,1.4s0.4,1,0.6,1.6H43.5z M41.6,21.5
		c-0.2,0.5-0.4,0.9-0.6,1.4c-0.2,0.5-0.4,1-0.6,1.5h2.4c-0.2-0.5-0.4-1.1-0.6-1.5C42,22.4,41.8,21.9,41.6,21.5z"/>
	<path class="st5" d="M45.7,26.4v-2.3c-0.4-0.6-0.7-1.1-1-1.7s-0.6-1.1-0.9-1.6h0.6c0.2,0.5,0.5,0.9,0.7,1.4
		c0.3,0.5,0.6,0.9,0.8,1.4c0.3-0.4,0.6-0.9,0.8-1.4c0.3-0.5,0.5-1,0.8-1.4h0.6c-0.3,0.5-0.6,1-0.9,1.6s-0.7,1.1-1,1.7v2.3H45.7z"/>
</g>
</svg>
