<?xml version="1.0" encoding="UTF-8" standalone="no"?>
<svg width="20px" height="24px" viewBox="0 0 20 24" version="1.1" xmlns="http://www.w3.org/2000/svg" xmlns:xlink="http://www.w3.org/1999/xlink" xmlns:sketch="http://www.bohemiancoding.com/sketch/ns">
    <!-- Generator: Sketch 3.1.1 (8761) - http://www.bohemiancoding.com/sketch -->
    <title>Imported Layers</title>
    <desc>Created with Sketch.</desc>
    <defs></defs>
    <g id="Page-1" stroke="none" stroke-width="1" fill="none" fill-rule="evenodd" sketch:type="MSPage">
        <g id="Imported-Layers" sketch:type="MSLayerGroup" fill="#FFFFFF">
            <path d="M8.182,6.722 C8.734,6.722 9.182,6.274 9.182,5.722 C9.182,5.169 8.734,4.722 8.182,4.722 C7.629,4.722 7.182,5.169 7.182,5.722 C7.182,6.274 7.629,6.722 8.182,6.722" id="Fill-1" sketch:type="MSShapeGroup"></path>
            <path d="M11.182,6.722 C11.734,6.722 12.182,6.274 12.182,5.722 C12.182,5.169 11.734,4.722 11.182,4.722 C10.629,4.722 10.182,5.169 10.182,5.722 C10.182,6.274 10.629,6.722 11.182,6.722" id="Fill-2" sketch:type="MSShapeGroup"></path>
            <path d="M1.182,9.385 C0.63,9.385 0.182,9.823 0.182,10.388 L0.182,15.382 C0.182,15.936 0.626,16.385 1.182,16.385 C1.734,16.385 2.182,15.947 2.182,15.382 L2.182,10.388 C2.182,9.834 1.738,9.385 1.182,9.385" id="Fill-3" sketch:type="MSShapeGroup"></path>
            <path d="M16.117,6.992 C15.856,5.106 14.785,3.476 13.265,2.467 L14.879,0.854 C15.074,0.658 15.074,0.342 14.879,0.147 C14.684,-0.049 14.367,-0.049 14.172,0.147 L12.353,1.966 C11.537,1.596 10.634,1.385 9.682,1.385 C8.729,1.385 7.827,1.596 7.011,1.966 L5.192,0.147 C4.997,-0.049 4.68,-0.049 4.485,0.147 C4.289,0.342 4.289,0.658 4.485,0.854 L6.098,2.467 C4.343,3.632 3.182,5.625 3.182,7.885 C3.182,7.901 3.185,7.916 3.185,7.931 C3.144,7.998 3.115,17.292 3.115,17.292 C3.115,18.325 3.951,19.166 4.978,19.166 L14.319,19.166 C15.346,19.166 16.182,18.325 16.182,17.292 C16.182,17.292 16.158,7.015 16.117,6.992 L16.117,6.992 Z M9.682,3.385 C12.163,3.385 14.182,5.403 14.182,7.885 C14.182,8.053 14.172,8.22 14.154,8.385 L5.209,8.385 C5.191,8.22 5.182,8.053 5.182,7.885 C5.182,5.403 7.2,3.385 9.682,3.385 L9.682,3.385 Z M5.115,10.385 L14.181,10.385 L14.181,17.166 L5.115,17.166 L5.115,10.385 Z" id="Fill-4" sketch:type="MSShapeGroup"></path>
            <path d="M1.182,16.385 L1.182,16.385 C0.633,16.385 0.183,15.935 0.183,15.386 L0.183,10.344 C0.183,9.795 0.633,9.345 1.182,9.345 C1.732,9.345 2.182,9.795 2.182,10.344 L2.182,15.386 C2.182,15.935 1.732,16.385 1.182,16.385" id="Fill-5" sketch:type="MSShapeGroup"></path>
            <path d="M18.182,16.385 L18.182,16.385 C17.633,16.385 17.183,15.935 17.183,15.386 L17.183,10.344 C17.183,9.795 17.633,9.345 18.182,9.345 C18.732,9.345 19.182,9.795 19.182,10.344 L19.182,15.386 C19.182,15.935 18.732,16.385 18.182,16.385" id="Fill-6" sketch:type="MSShapeGroup"></path>
            <path d="M12.182,23.405 L12.182,23.405 C11.632,23.405 11.182,22.955 11.182,22.406 L11.182,18.24 C11.182,17.69 11.632,17.241 12.182,17.241 C12.731,17.241 13.181,17.69 13.181,18.24 L13.181,22.406 C13.181,22.955 12.731,23.405 12.182,23.405" id="Fill-7" sketch:type="MSShapeGroup"></path>
            <path d="M7.182,23.405 L7.182,23.405 C6.632,23.405 6.182,22.955 6.182,22.406 L6.182,18.24 C6.182,17.69 6.632,17.241 7.182,17.241 C7.731,17.241 8.181,17.69 8.181,18.24 L8.181,22.406 C8.181,22.955 7.731,23.405 7.182,23.405" id="Fill-8" sketch:type="MSShapeGroup"></path>
        </g>
    </g>
</svg>