<?xml version="1.0" encoding="UTF-8" standalone="no"?>
<svg width="20px" height="24px" viewBox="0 0 20 24" version="1.1" xmlns="http://www.w3.org/2000/svg" xmlns:xlink="http://www.w3.org/1999/xlink" xmlns:sketch="http://www.bohemiancoding.com/sketch/ns">
    <!-- Generator: Sketch 3.1.1 (8761) - http://www.bohemiancoding.com/sketch -->
    <title>Group</title>
    <desc>Created with Sketch.</desc>
    <defs></defs>
    <g id="Page-1" stroke="none" stroke-width="1" fill="none" fill-rule="evenodd" sketch:type="MSPage">
        <g id="Group" sketch:type="MSLayerGroup" transform="translate(1.000000, 1.000000)" fill="#BAB6B6">
            <path d="M7.694,7.337 C8.246,7.337 8.694,6.889 8.694,6.337 C8.694,5.784 8.246,5.337 7.694,5.337 C7.142,5.337 6.694,5.784 6.694,6.337 C6.694,6.889 7.142,7.337 7.694,7.337" id="Fill-1" sketch:type="MSShapeGroup"></path>
            <path d="M10.694,7.337 C11.246,7.337 11.694,6.889 11.694,6.337 C11.694,5.784 11.246,5.337 10.694,5.337 C10.142,5.337 9.694,5.784 9.694,6.337 C9.694,6.889 10.142,7.337 10.694,7.337" id="Fill-2" sketch:type="MSShapeGroup"></path>
            <path d="M0.694,9 C0.142,9 -0.306,9.438 -0.306,10.003 L-0.306,14.997 C-0.306,15.551 0.138,16 0.694,16 C1.246,16 1.694,15.562 1.694,14.997 L1.694,10.003 C1.694,9.449 1.25,9 0.694,9" id="Fill-3" sketch:type="MSShapeGroup"></path>
            <path d="M15.629,6.607 C15.368,4.721 14.297,3.091 12.777,2.082 L14.391,0.469 C14.586,0.273 14.586,-0.043 14.391,-0.238 C14.196,-0.434 13.879,-0.434 13.684,-0.238 L11.865,1.581 C11.049,1.211 10.146,1 9.194,1 C8.241,1 7.339,1.211 6.523,1.581 L4.704,-0.238 C4.509,-0.434 4.192,-0.434 3.997,-0.238 C3.802,-0.043 3.802,0.273 3.997,0.469 L5.611,2.082 C3.855,3.247 2.694,5.24 2.694,7.5 C2.694,7.516 2.697,7.531 2.697,7.546 C2.656,7.613 2.627,16.907 2.627,16.907 C2.627,17.94 3.463,18.781 4.49,18.781 L13.831,18.781 C14.858,18.781 15.694,17.94 15.694,16.907 C15.694,16.907 15.67,6.63 15.629,6.607 L15.629,6.607 Z M9.194,3 C11.675,3 13.694,5.019 13.694,7.5 C13.694,7.668 13.685,7.835 13.667,8 L4.721,8 C4.703,7.835 4.694,7.668 4.694,7.5 C4.694,5.019 6.712,3 9.194,3 L9.194,3 Z M4.627,10 L13.693,10 L13.693,16.781 L4.627,16.781 L4.627,10 Z" id="Fill-4" sketch:type="MSShapeGroup"></path>
            <path d="M0.695,16 L0.695,16 C0.145,16 -0.305,15.55 -0.305,15.001 L-0.305,9.959 C-0.305,9.41 0.145,8.96 0.695,8.96 C1.244,8.96 1.694,9.41 1.694,9.959 L1.694,15.001 C1.694,15.55 1.244,16 0.695,16" id="Fill-5" sketch:type="MSShapeGroup"></path>
            <path d="M17.695,16 L17.695,16 C17.145,16 16.695,15.55 16.695,15.001 L16.695,9.959 C16.695,9.41 17.145,8.96 17.695,8.96 C18.244,8.96 18.694,9.41 18.694,9.959 L18.694,15.001 C18.694,15.55 18.244,16 17.695,16" id="Fill-6" sketch:type="MSShapeGroup"></path>
            <path d="M11.694,23.02 L11.694,23.02 C11.144,23.02 10.694,22.57 10.694,22.021 L10.694,17.855 C10.694,17.306 11.144,16.856 11.694,16.856 C12.244,16.856 12.693,17.306 12.693,17.855 L12.693,22.021 C12.693,22.57 12.244,23.02 11.694,23.02" id="Fill-7" sketch:type="MSShapeGroup"></path>
            <path d="M6.694,23.02 L6.694,23.02 C6.144,23.02 5.694,22.57 5.694,22.021 L5.694,17.855 C5.694,17.306 6.144,16.856 6.694,16.856 C7.244,16.856 7.693,17.306 7.693,17.855 L7.693,22.021 C7.693,22.57 7.244,23.02 6.694,23.02" id="Fill-8" sketch:type="MSShapeGroup"></path>
        </g>
    </g>
</svg>