<?xml version="1.0" encoding="UTF-8" standalone="no"?>
<svg width="73px" height="28px" viewBox="0 0 73 28" version="1.1" xmlns="http://www.w3.org/2000/svg" xmlns:xlink="http://www.w3.org/1999/xlink" xmlns:sketch="http://www.bohemiancoding.com/sketch/ns">
    <!-- Generator: Sketch 3.0.2 (7799) - http://www.bohemiancoding.com/sketch -->
    <title>bitpay-white-logo</title>
    <description>Created with Sketch.</description>
    <defs></defs>
    <g id="Page-1-Copy" stroke="none" stroke-width="1" fill="none" fill-rule="evenodd" sketch:type="MSPage">
        <g id="Artboard-1" sketch:type="MSArtboardGroup" transform="translate(-307.000000, -686.000000)" fill="#FFFFFF">
            <g id="bitpay-white-logo" sketch:type="MSLayerGroup" transform="translate(307.969342, 687.150000)">
                <g id="Group" sketch:type="MSShapeGroup">
                    <path d="M72.0114126,5.87733333 L68.2680839,5.87733333 L66.102042,14.9533333 L65.7979301,16.1986667 C65.588979,16.2553333 65.380028,16.312 65.1710769,16.3496667 C64.7909371,16.425 64.3918322,16.4628333 63.9739301,16.4628333 C63.498965,16.4628333 63.1188252,16.3875 62.8338462,16.2553333 C62.5678322,16.1233333 62.3588811,15.9345 62.2447552,15.6703333 C62.1307972,15.425 62.0928671,15.1231667 62.1118322,14.7835 C62.1307972,14.444 62.2066573,14.0665 62.3018182,13.6891667 L63.4419021,8.972 L64.1828811,5.83966667 L60.3636923,5.83966667 L58.6345175,13.0855 C58.4255664,13.9533333 58.3114406,14.7835 58.2736783,15.5761667 C58.2355804,16.3686667 58.3685035,17.0478333 58.6345175,17.6705 C58.9005315,18.2743333 59.3756643,18.746 60.0216503,19.1045 C60.6678042,19.4628333 61.5987692,19.6328333 62.7767832,19.6328333 C63.5937902,19.6328333 64.315972,19.5573333 64.924028,19.4253333 C64.9428252,19.4253333 64.9809231,19.4065 64.9998881,19.4065 L64.9998881,19.4065 C64.8288671,20.1611667 64.4868252,20.765 63.9547972,21.2366667 C63.4038042,21.7083333 62.6057622,21.9536667 61.5417063,21.9536667 C61.0855385,21.9536667 60.6676364,21.9348333 60.2874965,21.8783333 L59.5465175,24.9538333 C60.0404476,25.0105 60.5916084,25.0481667 61.1996643,25.0481667 C62.3397483,25.0481667 63.3277762,24.9161667 64.1827133,24.6706667 C65.0378182,24.4065 65.7598322,24.0291667 66.3868531,23.5008333 C66.9949091,22.9725 67.507972,22.312 67.926042,21.5385 C68.3439441,20.746 68.667021,19.8213333 68.9140699,18.727 L71.4981818,7.934 L72.0114126,5.87733333 L72.0114126,5.87733333 Z" id="y_2_"></path>
                    <path d="M56.3355524,13.6325 C56.1074685,14.5758333 56.0314406,15.5383333 56.1264336,16.4816667 C56.2214266,17.444 56.6015664,18.8968333 56.9624056,19.6328333 L53.3521678,19.6328333 C52.9151329,18.8968333 52.9342657,18.5385 52.8391049,18.312 C52.3641399,18.6893333 51.8510769,19.01 51.2811189,19.2553333 C50.7111608,19.5006667 50.083972,19.6328333 49.361958,19.6328333 C48.525986,19.6328333 47.8038042,19.4818333 47.2148811,19.1988333 C46.6257902,18.9158333 46.1316923,18.5196667 45.7517203,18.029 C45.3715804,17.5383333 45.1055664,16.9721667 44.9347133,16.3118333 C44.7635245,15.6513333 44.6876643,14.9533333 44.6876643,14.1985 C44.6876643,13.0475 44.8966154,11.972 45.2957203,10.9528333 C45.7136224,9.934 46.2837483,9.047 47.0055944,8.29233333 C47.7277762,7.53766667 49.4947133,5.85833333 52.3829371,5.85833333 L58.1781818,5.85833333 L56.3355524,13.6325 L56.3355524,13.6325 Z M53.6943776,9.0095 C51.9462378,9.0095 51.6233287,9.0095 50.9011469,9.368 C50.3880839,9.63216667 49.9701818,10.0285 49.6091748,10.4813333 C49.2481678,10.9341667 48.9440559,11.4626667 48.7351049,12.0663333 C48.5261538,12.6701667 48.412028,13.2928333 48.412028,13.9343333 C48.412028,14.727 48.5451189,15.3683333 48.8111329,15.8403333 C49.0771469,16.312 49.5710769,16.5383333 50.2930909,16.5383333 C50.6732308,16.5383333 51.0342378,16.4628333 51.3383497,16.312 C51.6424615,16.161 51.9843357,15.9156667 52.3263776,15.5573333 C52.3644755,15.1421667 52.4213706,14.7081667 52.4973986,14.2553333 C52.5734266,13.8025 52.6685874,13.3686667 52.7446154,12.9911667 L53.6943776,9.0095 L53.6943776,9.0095 Z" id="a_2_"></path>
                    <path d="M43.6618741,11.3303333 C43.6618741,12.5568333 43.4529231,13.67 43.053986,14.689 C42.6548811,15.7078333 42.0849231,16.5758333 41.3629091,17.3116667 C40.6407273,18.0476667 39.7857902,18.6136667 38.7787972,19.0288333 C37.7718042,19.4438333 36.6887832,19.6515 35.5106014,19.6515 C34.9406434,19.6515 34.3705175,19.5948333 33.7814266,19.5005 L32.6413427,24.048 L28.8981818,24.048 L33.2493986,5.896 L38.2466014,5.896 C39.1966993,5.896 40.0137063,6.04683333 40.6786573,6.33 C41.3627413,6.613 41.9137343,7.00933333 42.3697343,7.5 C42.8067692,7.9905 43.1296783,8.5755 43.3387972,9.236 C43.5668811,9.8775 43.6618741,10.5756667 43.6618741,11.3303333 L43.6618741,11.3303333 Z M34.4844755,16.4816667 C34.7694545,16.5571667 35.1304615,16.576 35.5485315,16.576 C36.2136503,16.576 36.8025734,16.4626667 37.3535664,16.2175 C37.8855944,15.9721667 38.3607273,15.6325 38.7406993,15.1986667 C39.1208392,14.7646667 39.4058182,14.2363333 39.6337343,13.6326667 C39.8426853,13.0288333 39.9568112,12.3495 39.9568112,11.6136667 C39.9568112,10.8966667 39.8047552,10.274 39.4818462,9.7835 C39.1587692,9.274 38.6077762,9.00966667 37.8097343,9.00966667 L36.3276084,9.00966667 L34.4844755,16.4816667 L34.4844755,16.4816667 Z" id="p_2_"></path>
                    <path d="M26.618014,16.4816667 C26.143049,16.4816667 25.7629091,16.4063333 25.4779301,16.2741667 C25.2119161,16.142 25.002965,15.9533333 24.8888392,15.6891667 C24.7748811,15.4438333 24.736951,15.142 24.7559161,14.8023333 C24.7748811,14.4628333 24.8509091,14.0853333 24.9459021,13.708 L26.085986,8.99066667 L30.3422098,8.99066667 L31.1212867,5.8585 L26.8459301,5.8585 L27.8341259,1.896 L23.8439161,2.51866667 L21.3166993,13.123 C21.1077483,13.991 20.9937902,14.8211667 20.9558601,15.6136667 C20.9177622,16.4063333 21.0506853,17.0855 21.3166993,17.7081667 C21.5827133,18.312 22.0578462,18.7836667 22.7038322,19.1421667 C23.349986,19.5005 24.280951,19.6705 25.458965,19.6705 C26.275972,19.6705 26.9981538,19.595 27.6062098,19.4628333 C27.6631049,19.444 27.7580979,19.4251667 27.8151608,19.4063333 L28.5942378,16.1796667 C28.3282238,16.274 28.0622098,16.3306667 27.8151608,16.3685 C27.435021,16.4438333 27.0360839,16.4816667 26.618014,16.4816667 L26.618014,16.4816667 Z" id="t_2_"></path>
                    <path d="M17.0985734,5.87733333 L13.7924476,19.6516667 L17.5356084,19.6516667 L20.8227692,5.87733333 L17.0985734,5.87733333 Z" id="i_bottom_6_"></path>
                    <path d="M21.2218741,4.29216667 L21.7918322,1.89583333 L18.0485035,1.89583333 L17.4785455,4.29216667 L21.2218741,4.29216667 Z" id="i_top_2_"></path>
                    <path d="M8.81420979,5.89616667 C9.61225175,5.89616667 10.3151329,6.047 10.9042238,6.33016667 C11.4933147,6.61333333 11.9682797,6.99066667 12.3673846,7.48116667 C12.7473566,7.97166667 13.0323357,8.53783333 13.2224895,9.17933333 C13.4124755,9.82083333 13.5074685,10.519 13.5074685,11.2736667 C13.5074685,12.4246667 13.2983497,13.5001667 12.8613147,14.538 C12.4242797,15.557 11.8543217,16.4626667 11.1131748,17.2175 C10.3721958,17.9721667 9.49812587,18.576 8.49113287,19.01 C7.48397203,19.444 6.40095105,19.6705 5.22293706,19.6705 C5.07088112,19.6705 4.80486713,19.6705 4.42472727,19.6516667 C4.04475524,19.6516667 3.60772028,19.6138333 3.13275524,19.5383333 C2.63882517,19.4628333 2.12576224,19.3685 1.59373427,19.2363333 C1.04274126,19.1043333 0.529678322,18.9155 0.0545454545,18.6891667 L4.40593007,0.537166667 L8.30097902,-0.0666666667 L6.76195804,6.36766667 C7.104,6.21666667 7.40811189,6.1035 7.74998601,6.028 C8.07306294,5.93383333 8.43406993,5.89616667 8.81420979,5.89616667 L8.81420979,5.89616667 Z M5.54584615,16.576 C6.13493706,16.576 6.68593007,16.4438333 7.19899301,16.142 C7.71222378,15.8591667 8.16805594,15.4816667 8.5481958,15.01 C8.92816783,14.5381667 9.23211189,13.991 9.44106294,13.406 C9.65018182,12.8023333 9.76413986,12.1796667 9.76413986,11.538 C9.76413986,10.7455 9.63121678,10.1228333 9.3652028,9.67 C9.09918881,9.21716667 8.5481958,9.0095 7.82601399,9.0095 C7.5980979,9.0095 7.35104895,9.02833333 6.97090909,9.12283333 C6.59093706,9.19833333 6.26802797,9.387 5.96391608,9.65116667 L4.3299021,16.5006667 C4.82383217,16.5761667 4.97588811,16.595 5.10897902,16.595 C5.20397203,16.576 5.35586014,16.576 5.54584615,16.576 L5.54584615,16.576 Z" id="b_2_"></path>
                </g>
            </g>
        </g>
    </g>
</svg>