<?xml version="1.0" encoding="UTF-8" standalone="no"?>
<svg width="27px" height="23px" viewBox="0 0 27 23" version="1.1" xmlns="http://www.w3.org/2000/svg" xmlns:xlink="http://www.w3.org/1999/xlink" xmlns:sketch="http://www.bohemiancoding.com/sketch/ns">
    <!-- Generator: Sketch 3.1.1 (8761) - http://www.bohemiancoding.com/sketch -->
    <title>Imported Layers</title>
    <desc>Created with Sketch.</desc>
    <defs>
        <path id="path-1" d="M1.252,2.05 C1.805,2.05 2.252,1.602 2.252,1.05 C2.252,0.497 1.805,0.05 1.252,0.05 C0.7,0.05 0.252,0.497 0.252,1.05 C0.252,1.602 0.7,2.05 1.252,2.05 L1.252,2.05 Z"></path>
        <path id="path-3" d="M1.252,2.05 C1.805,2.05 2.252,1.602 2.252,1.05 C2.252,0.497 1.805,0.05 1.252,0.05 C0.7,0.05 0.252,0.497 0.252,1.05 C0.252,1.602 0.7,2.05 1.252,2.05 L1.252,2.05 Z"></path>
        <path id="path-5" d="M1.252,2.05 C1.805,2.05 2.252,1.602 2.252,1.05 C2.252,0.497 1.805,0.05 1.252,0.05 C0.7,0.05 0.252,0.497 0.252,1.05 C0.252,1.602 0.7,2.05 1.252,2.05 L1.252,2.05 Z"></path>
    </defs>
    <g id="Page-1" stroke="none" stroke-width="1" fill="none" fill-rule="evenodd" sketch:type="MSPage">
        <g id="Imported-Layers" sketch:type="MSLayerGroup">
            <path d="M24.252,0.05 L2.253,0.05 C1.15,0.05 0.253,0.943 0.253,2.041 L0.253,20.058 C0.253,21.156 1.15,22.05 2.253,22.05 L24.252,22.05 C25.355,22.05 26.253,21.156 26.253,20.058 L26.253,2.041 C26.253,0.943 25.355,0.05 24.252,0.05 L24.252,0.05 Z M2.253,20.058 L2.253,8.05 L24.251,8.05 L24.249,20.05 L2.253,20.058 L2.253,20.058 Z M24.252,7.05 L2.253,7.05 L2.253,2.05 L24.253,2.041 L24.252,7.05 L24.252,7.05 Z" id="Fill-1" fill="#FFFFFF" sketch:type="MSShapeGroup"></path>
            <path d="M5.252,6.05 C5.805,6.05 6.252,5.602 6.252,5.05 C6.252,4.497 5.805,4.05 5.252,4.05 C4.7,4.05 4.252,4.497 4.252,5.05 C4.252,5.602 4.7,6.05 5.252,6.05" id="Fill-2" fill="#FFFFFF" sketch:type="MSShapeGroup"></path>
            <g id="Group-5" transform="translate(4.000000, 4.000000)">
                <mask id="mask-2" sketch:name="Clip 4" fill="white">
                    <use xlink:href="#path-1"></use>
                </mask>
                <g id="Clip-4"></g>
                <path d="M0.252,0.05 L2.252,0.05 L2.252,2.05 L0.252,2.05 L0.252,0.05 Z" id="Fill-3" fill="#FFFFFF" sketch:type="MSShapeGroup" mask="url(#mask-2)"></path>
            </g>
            <path d="M8.252,6.05 C8.805,6.05 9.252,5.602 9.252,5.05 C9.252,4.497 8.805,4.05 8.252,4.05 C7.7,4.05 7.252,4.497 7.252,5.05 C7.252,5.602 7.7,6.05 8.252,6.05" id="Fill-6" fill="#FFFFFF" sketch:type="MSShapeGroup"></path>
            <g id="Group-9" transform="translate(7.000000, 4.000000)">
                <mask id="mask-4" sketch:name="Clip 8" fill="white">
                    <use xlink:href="#path-3"></use>
                </mask>
                <g id="Clip-8"></g>
                <path d="M0.252,0.05 L2.252,0.05 L2.252,2.05 L0.252,2.05 L0.252,0.05 Z" id="Fill-7" fill="#FFFFFF" sketch:type="MSShapeGroup" mask="url(#mask-4)"></path>
            </g>
            <path d="M11.252,6.05 C11.805,6.05 12.252,5.602 12.252,5.05 C12.252,4.497 11.805,4.05 11.252,4.05 C10.7,4.05 10.252,4.497 10.252,5.05 C10.252,5.602 10.7,6.05 11.252,6.05" id="Fill-10" fill="#FFFFFF" sketch:type="MSShapeGroup"></path>
            <g id="Group-13" transform="translate(10.000000, 4.000000)">
                <mask id="mask-6" sketch:name="Clip 12" fill="white">
                    <use xlink:href="#path-5"></use>
                </mask>
                <g id="Clip-12"></g>
                <path d="M0.252,0.05 L2.252,0.05 L2.252,2.05 L0.252,2.05 L0.252,0.05 Z" id="Fill-11" fill="#FFFFFF" sketch:type="MSShapeGroup" mask="url(#mask-6)"></path>
            </g>
        </g>
    </g>
</svg>