<?xml version="1.0" encoding="UTF-8" standalone="no"?>
<svg width="27px" height="23px" viewBox="0 0 27 23" version="1.1" xmlns="http://www.w3.org/2000/svg" xmlns:xlink="http://www.w3.org/1999/xlink" xmlns:sketch="http://www.bohemiancoding.com/sketch/ns">
    <!-- Generator: Sketch 3.1.1 (8761) - http://www.bohemiancoding.com/sketch -->
    <title>Imported Layers</title>
    <desc>Created with Sketch.</desc>
    <defs>
        <path id="path-1" d="M1.098,1.665 C1.65,1.665 2.098,1.217 2.098,0.665 C2.098,0.112 1.65,-0.335 1.098,-0.335 C0.546,-0.335 0.098,0.112 0.098,0.665 C0.098,1.217 0.546,1.665 1.098,1.665 L1.098,1.665 Z"></path>
        <path id="path-3" d="M1.098,1.665 C1.65,1.665 2.098,1.217 2.098,0.665 C2.098,0.112 1.65,-0.335 1.098,-0.335 C0.546,-0.335 0.098,0.112 0.098,0.665 C0.098,1.217 0.546,1.665 1.098,1.665 L1.098,1.665 Z"></path>
        <path id="path-5" d="M1.098,1.665 C1.65,1.665 2.098,1.217 2.098,0.665 C2.098,0.112 1.65,-0.335 1.098,-0.335 C0.546,-0.335 0.098,0.112 0.098,0.665 C0.098,1.217 0.546,1.665 1.098,1.665 L1.098,1.665 Z"></path>
    </defs>
    <g id="Page-1" stroke="none" stroke-width="1" fill="none" fill-rule="evenodd" sketch:type="MSPage">
        <g id="Imported-Layers" sketch:type="MSLayerGroup" transform="translate(0.000000, 1.000000)">
            <g>
                <path d="M24.097,-0.335 L2.099,-0.335 C0.996,-0.335 0.098,0.559 0.098,1.656 L0.098,19.673 C0.098,20.772 0.996,21.665 2.099,21.665 L24.097,21.665 C25.201,21.665 26.098,20.772 26.098,19.673 L26.098,1.656 C26.098,0.559 25.201,-0.335 24.097,-0.335 L24.097,-0.335 Z M2.098,19.673 L2.098,7.665 L24.097,7.665 L24.095,19.665 L2.098,19.673 L2.098,19.673 Z M24.097,6.665 L2.098,6.665 L2.099,1.665 L24.098,1.656 L24.097,6.665 L24.097,6.665 Z" id="Fill-1" fill="#B4B1AD" sketch:type="MSShapeGroup"></path>
                <g id="Group-4" transform="translate(4.000000, 4.000000)">
                    <mask id="mask-2" sketch:name="Clip 3" fill="white">
                        <use xlink:href="#path-1"></use>
                    </mask>
                    <g id="Clip-3"></g>
                    <path d="M0.098,-0.335 L2.098,-0.335 L2.098,1.665 L0.098,1.665 L0.098,-0.335 Z" id="Fill-2" fill="#B4B1AD" sketch:type="MSShapeGroup" mask="url(#mask-2)"></path>
                </g>
                <g id="Group-7" transform="translate(7.000000, 4.000000)">
                    <mask id="mask-4" sketch:name="Clip 6" fill="white">
                        <use xlink:href="#path-3"></use>
                    </mask>
                    <g id="Clip-6"></g>
                    <path d="M0.098,-0.335 L2.098,-0.335 L2.098,1.665 L0.098,1.665 L0.098,-0.335 Z" id="Fill-5" fill="#B4B1AD" sketch:type="MSShapeGroup" mask="url(#mask-4)"></path>
                </g>
                <g id="Group-10" transform="translate(10.000000, 4.000000)">
                    <mask id="mask-6" sketch:name="Clip 9" fill="white">
                        <use xlink:href="#path-5"></use>
                    </mask>
                    <g id="Clip-9"></g>
                    <path d="M0.098,-0.335 L2.098,-0.335 L2.098,1.665 L0.098,1.665 L0.098,-0.335 Z" id="Fill-8" fill="#B4B1AD" sketch:type="MSShapeGroup" mask="url(#mask-6)"></path>
                </g>
            </g>
        </g>
    </g>
</svg>