<?xml version="1.0" encoding="UTF-8" standalone="no"?>
<svg width="14px" height="14px" viewBox="0 0 14 14" version="1.1" xmlns="http://www.w3.org/2000/svg" xmlns:xlink="http://www.w3.org/1999/xlink" xmlns:sketch="http://www.bohemiancoding.com/sketch/ns">
    <!-- Generator: Sketch 3.4 (15575) - http://www.bohemiancoding.com/sketch -->
    <title>calendar</title>
    <desc>Created with Sketch.</desc>
    <defs></defs>
    <g id="Receive" stroke="none" stroke-width="1" fill="none" fill-rule="evenodd" sketch:type="MSPage">
        <path d="M11.7509766,1.49707031 L14,1.49707031 L14,14 L0,14 L0,1.49707031 L2.24902344,1.49707031 L2.24902344,0 L2.74804688,0 L2.74804688,1.49707031 L11.2519531,1.49707031 L11.2519531,0 L11.7509766,0 L11.7509766,1.49707031 Z M13.5009766,3.00097656 L13.5009766,2.00292969 L11.7509766,2.00292969 L11.7509766,2.50195312 L11.2519531,2.50195312 L11.2519531,2.00292969 L2.74804688,2.00292969 L2.74804688,2.50195312 L2.24902344,2.50195312 L2.24902344,2.00292969 L0.499023438,2.00292969 L0.499023438,3.00097656 L13.5009766,3.00097656 Z M13.5009766,13.5009766 L13.5009766,3.5 L0.499023438,3.5 L0.499023438,13.5009766 L13.5009766,13.5009766 Z M9.50195312,4.49804688 L9.50195312,6.50097656 L7.49902344,6.50097656 L7.49902344,4.49804688 L9.50195312,4.49804688 Z M6.50097656,4.49804688 L6.50097656,6.50097656 L4.49804688,6.50097656 L4.49804688,4.49804688 L6.50097656,4.49804688 Z M12.5029297,4.49804688 L12.5029297,6.50097656 L10.5,6.50097656 L10.5,4.49804688 L12.5029297,4.49804688 Z M6.00195312,6.00195312 L6.00195312,4.99707031 L4.99707031,4.99707031 L4.99707031,6.00195312 L6.00195312,6.00195312 Z M9.00292969,6.00195312 L9.00292969,4.99707031 L7.99804688,4.99707031 L7.99804688,6.00195312 L9.00292969,6.00195312 Z M11.9970703,6.00195312 L11.9970703,4.99707031 L10.9990234,4.99707031 L10.9990234,6.00195312 L11.9970703,6.00195312 Z M12.5029297,7.49902344 L12.5029297,9.50195312 L10.5,9.50195312 L10.5,7.49902344 L12.5029297,7.49902344 Z M6.50097656,7.49902344 L6.50097656,9.50195312 L4.49804688,9.50195312 L4.49804688,7.49902344 L6.50097656,7.49902344 Z M3.5,7.49902344 L3.5,9.50195312 L1.49707031,9.50195312 L1.49707031,7.49902344 L3.5,7.49902344 Z M9.50195312,7.49902344 L9.50195312,9.50195312 L7.49902344,9.50195312 L7.49902344,7.49902344 L9.50195312,7.49902344 Z M9.00292969,9.00292969 L9.00292969,7.99804688 L7.99804688,7.99804688 L7.99804688,9.00292969 L9.00292969,9.00292969 Z M11.9970703,9.00292969 L11.9970703,7.99804688 L10.9990234,7.99804688 L10.9990234,9.00292969 L11.9970703,9.00292969 Z M3.00097656,9.00292969 L3.00097656,7.99804688 L2.00292969,7.99804688 L2.00292969,9.00292969 L3.00097656,9.00292969 Z M6.00195312,9.00292969 L6.00195312,7.99804688 L4.99707031,7.99804688 L4.99707031,9.00292969 L6.00195312,9.00292969 Z M3.5,10.5 L3.5,12.5029297 L1.49707031,12.5029297 L1.49707031,10.5 L3.5,10.5 Z M9.50195312,10.5 L9.50195312,12.5029297 L7.49902344,12.5029297 L7.49902344,10.5 L9.50195312,10.5 Z M6.50097656,10.5 L6.50097656,12.5029297 L4.49804688,12.5029297 L4.49804688,10.5 L6.50097656,10.5 Z M9.00292969,11.9970703 L9.00292969,10.9990234 L7.99804688,10.9990234 L7.99804688,11.9970703 L9.00292969,11.9970703 Z M3.00097656,11.9970703 L3.00097656,10.9990234 L2.00292969,10.9990234 L2.00292969,11.9970703 L3.00097656,11.9970703 Z M6.00195312,11.9970703 L6.00195312,10.9990234 L4.99707031,10.9990234 L4.99707031,11.9970703 L6.00195312,11.9970703 Z" id="calendar" fill="#7A8C9E" sketch:type="MSShapeGroup"></path>
    </g>
</svg>