<?xml version="1.0" encoding="UTF-8" standalone="no"?>
<svg width="291px" height="117px" viewBox="0 0 291 117" version="1.1" xmlns="http://www.w3.org/2000/svg" xmlns:xlink="http://www.w3.org/1999/xlink" xmlns:sketch="http://www.bohemiancoding.com/sketch/ns">
    <!-- Generator: Sketch 3.1.1 (8761) - http://www.bohemiancoding.com/sketch -->
    <title>Group</title>
    <desc>Created with Sketch.</desc>
    <defs>
        <path d="M47.6175517,17.4492 C48.4157241,17.4087429 49.0926552,17.2064571 49.644977,16.8457143 C50.1972989,16.4816 50.6687931,16.0702857 51.0661954,15.6050286 C51.0661954,15.2914857 51.0830345,14.9610857 51.1133448,14.6172 C51.1436552,14.2733143 51.1874368,13.9226857 51.2446897,13.5686857 L52.5951839,6.6168 C52.4975172,6.58308571 52.3392299,6.56622857 52.1203218,6.55611429 C51.9014138,6.55274286 51.7060805,6.55274286 51.5343218,6.55948571 C50.4498851,6.6168 49.4833218,6.87302857 48.6312644,7.3248 C47.7792069,7.77657143 47.0618621,8.35308571 46.4792299,9.06108571 C45.8965977,9.76571429 45.4621494,10.5748571 45.1758851,11.4885143 C44.8929885,12.3988 44.7751149,13.3461714 44.8256322,14.3238857 C44.8458391,14.7116 44.903092,15.0993143 45.0007586,15.4937714 C45.0984253,15.8848571 45.2533448,16.2287429 45.4688851,16.5220571 C45.6844253,16.8153714 45.963954,17.0513714 46.3074713,17.2300571 C46.6509885,17.4053714 47.0854368,17.4795429 47.6175517,17.4492 M51.9687701,19.2225714 C51.861,19.0236571 51.7565977,18.8011429 51.6488276,18.5584 C51.5410575,18.3122857 51.4501264,18.0560571 51.3794023,17.7796 C50.9786322,18.1706857 50.4397816,18.5685143 49.7561149,18.9764571 C49.0724483,19.3810286 48.217023,19.6136571 47.1932069,19.6642286 C46.3546207,19.7080571 45.6305402,19.6170286 45.0209655,19.3911429 C44.408023,19.1652571 43.8994828,18.8314857 43.4953448,18.3898286 C43.0912069,17.9481714 42.7847356,17.4188571 42.5691954,16.7985143 C42.357023,16.1815429 42.229046,15.4937714 42.192,14.7385714 C42.1246437,13.5012571 42.2761954,12.2841714 42.6432874,11.0805714 C43.0070115,9.87697143 43.5930115,8.79137143 44.4012874,7.82377143 C45.2061954,6.85617143 46.2401149,6.05377143 47.503046,5.4132 C48.7626092,4.77262857 50.2579195,4.40851429 51.988977,4.31748571 C52.5008851,4.29051429 53.1003563,4.31411429 53.7907586,4.38828571 C54.4811609,4.46245714 55.0806322,4.61754286 55.5858046,4.85017143 L53.8480115,13.6563429 C53.7739195,14.0845143 53.7166667,14.4958286 53.6695172,14.8869143 C53.6223678,15.2746286 53.6122644,15.6825714 53.6324713,16.1073714 C53.656046,16.5321714 53.7166667,16.9603429 53.8143333,17.3885143 C53.9153678,17.8200571 54.0702874,18.2785714 54.2858276,18.7674286 L51.9687701,19.2225714 M35.964908,20.2812 C34.5436897,20.3553714 33.4828276,20.1058857 32.7856897,19.5327429 C32.0885517,18.9596 31.7079885,18.0897714 31.6473678,16.93 C31.6103218,16.1714286 31.6911494,15.1970857 31.8965862,14.0036 L34.2978391,1.52594286 L37.0392414,0.939314286 L36.1602414,5.45365714 L41.2052299,5.18731429 L40.7775172,7.37537143 L35.7325287,7.63834286 L34.499908,14.0878857 C34.318046,14.9678286 34.243954,15.7297714 34.2776322,16.3737143 C34.3079425,16.9839429 34.5032759,17.4121143 34.8568966,17.6616 C35.2138851,17.9110857 35.7897816,18.0156 36.587954,17.9751429 C37.1402759,17.9448 37.6757586,17.8301714 38.1977701,17.6245143 C38.7231494,17.4222286 39.1205517,17.2401714 39.4000805,17.0783429 L39.7132874,19.2529143 C39.4371264,19.4349714 38.9622644,19.6406286 38.2887011,19.8698857 C37.6151379,20.0991429 36.8405402,20.2373714 35.964908,20.2812 M19.3683103,13.1877143 C20.4662184,13.0933143 21.4698276,12.9719429 22.3757701,12.8236 C23.2817126,12.6718857 24.063046,12.4561143 24.7130345,12.1729143 C25.3663908,11.8897143 25.8648276,11.5256 26.2150805,11.0805714 C26.5619655,10.6355429 26.7168851,10.0725143 26.6832069,9.39148571 C26.6731034,9.22628571 26.6326897,9.05097143 26.5552299,8.87228571 C26.4777701,8.69022857 26.3565287,8.52502857 26.1847701,8.37668571 C26.0163793,8.22834286 25.7873678,8.11034286 25.4977356,8.02268571 C25.2047356,7.9384 24.8511149,7.90468571 24.4335057,7.92828571 C23.770046,7.962 23.1537356,8.13394286 22.5913103,8.44074286 C22.0255172,8.74754286 21.5270805,9.13862857 21.0926322,9.614 C20.6615517,10.0893714 20.3011954,10.6355429 20.0081954,11.2525143 C19.7185632,11.8694857 19.503023,12.5134286 19.3683103,13.1877143 M22.486908,20.9622286 C21.5203448,21.0128 20.6783908,20.9217714 19.961046,20.6925143 C19.2437011,20.4598857 18.6341264,20.1227429 18.1356897,19.6777143 C17.6372529,19.2326857 17.2566897,18.7 16.994,18.0864 C16.7346782,17.4694286 16.5864943,16.812 16.5494483,16.1107429 C16.482092,14.8194857 16.6168046,13.5653143 16.9502184,12.3448571 C17.287,11.1244 17.8022759,10.0320571 18.4926782,9.0712 C19.1864483,8.11034286 20.051977,7.32817143 21.0858966,6.72805714 C22.1198161,6.12794286 23.312023,5.79417143 24.6625172,5.72337143 C25.4404828,5.68291429 26.114046,5.7436 26.6865747,5.9088 C27.2557356,6.07062857 27.7272299,6.31 28.0943218,6.62354286 C28.4647816,6.94045714 28.7443103,7.30794286 28.9396437,7.73274286 C29.1316092,8.15754286 29.2427471,8.5992 29.2663218,9.06108571 C29.3101034,9.92754286 29.1888621,10.6692571 28.8958621,11.2862286 C28.6062299,11.9032 28.202092,12.4291429 27.6935517,12.8640571 C27.1816437,13.2956 26.5754368,13.6428571 25.874931,13.9024571 C25.1744253,14.1586857 24.4436092,14.3744571 23.6824828,14.5430286 C22.9179885,14.7116 22.1433908,14.8430857 21.3586897,14.9307429 C20.5706207,15.0184 19.8297011,15.0959429 19.1291954,15.1701143 C19.1157241,15.3184571 19.1123563,15.4398286 19.119092,15.5308571 L19.1291954,15.7533714 C19.1527701,16.1781714 19.2268621,16.576 19.3514713,16.9502286 C19.4727126,17.3210857 19.6848851,17.6447429 19.9846207,17.9144571 C20.2843563,18.1875429 20.6918621,18.3932 21.2037701,18.5314286 C21.7156782,18.6696571 22.3791379,18.7202286 23.1975172,18.6764 C23.5578736,18.6561714 23.9317011,18.6056 24.319,18.5213143 C24.702931,18.4370286 25.070023,18.3325143 25.416908,18.2145143 C25.7604253,18.0931429 26.0702644,17.9751429 26.3396897,17.8605143 C26.6091149,17.7425143 26.8010805,17.638 26.9088506,17.5368571 L27.2523678,19.7114286 C26.881908,19.9339429 26.2824368,20.1834286 25.4472184,20.4598857 C24.6153678,20.7329714 23.6285977,20.9015429 22.486908,20.9622286 M8.3925977,8.7408 C7.82343678,8.77114286 7.26101149,8.89588571 6.71205747,9.12177143 C6.15973563,9.34428571 5.64782759,9.64434286 5.17296552,10.0185714 L3.35771264,19.5226286 C3.54967816,19.5496 3.76858621,19.5765714 4.0178046,19.6001714 C4.26702299,19.6237714 4.51287356,19.6305143 4.76209195,19.6170286 C5.84316092,19.5597143 6.80972414,19.3001143 7.66178161,18.8382286 C8.51383908,18.3797143 9.22781609,17.7863429 9.79697701,17.0614857 C10.3695057,16.3366286 10.8005862,15.5207429 11.0834828,14.6070857 C11.3697471,13.6968 11.4876207,12.7494286 11.4371034,11.7717143 C11.4135287,11.3671429 11.352908,10.9726857 11.2451379,10.5883429 C11.1407356,10.2073714 10.968977,9.8736 10.7365977,9.5904 C10.5008506,9.30382857 10.1943793,9.08468571 9.81718391,8.9296 C9.43662069,8.77451429 8.96175862,8.71045714 8.3925977,8.7408 M5.64782759,7.63497143 C6.07217241,7.35514286 6.56387356,7.10565714 7.12293103,6.89325714 C7.68198851,6.67748571 8.2881954,6.55274286 8.93144828,6.51902857 C9.74982759,6.47857143 10.473908,6.5696 11.1036897,6.79548571 C11.7334713,7.02137143 12.2622184,7.3484 12.6831954,7.77994286 C13.1075402,8.21148571 13.4342184,8.73405714 13.6665977,9.35102857 C13.898977,9.968 14.0336897,10.6389143 14.0707356,11.3570286 C14.138092,12.6314286 13.9932759,13.8721143 13.6362874,15.0858286 C13.2826667,16.2961714 12.7034023,17.3918857 11.8951264,18.3662286 C11.0902184,19.3439429 10.0596667,20.1463429 8.80683908,20.7768 C7.55401149,21.4072571 6.06543678,21.768 4.33437931,21.8590286 C4.05148276,21.8725143 3.73490805,21.8758857 3.39475862,21.8657714 C3.05124138,21.8556571 2.70098851,21.8253143 2.344,21.768 C1.99037931,21.7140571 1.64349425,21.6398857 1.30334483,21.5454857 C0.966563218,21.4510857 0.670195402,21.3398286 0.414241379,21.2049714 L4.38826437,0.460571429 L7.12629885,-0.129428571 L5.64782759,7.63497143" id="path-1"></path>
    </defs>
    <g id="Page-1" stroke="none" stroke-width="1" fill="none" fill-rule="evenodd" sketch:type="MSPage">
        <g id="Group" sketch:type="MSLayerGroup" transform="translate(0.000000, 1.000000)">
            <path d="M5.92422989,115.2476 C4.16622989,115.2476 2.6843908,113.8788 2.56651724,112.095314 C2.44527586,110.237657 3.84965517,108.632857 5.70868966,108.511486 L101.139126,102.244 C102.991425,102.115886 104.597874,103.528514 104.719115,105.386171 C104.840356,107.2472 103.435977,108.852 101.576943,108.973371 L6.14987356,115.240857 C6.07241379,115.244229 5.99832184,115.2476 5.92422989,115.2476" id="Fill-1" fill="#FFFFFF" sketch:type="MSShapeGroup"></path>
            <path d="M150.275563,105.6188 C148.534402,105.6188 147.059299,104.2736 146.921218,102.506971 C146.77977,100.649314 148.16731,99.0276571 150.022977,98.8860571 L207.141138,94.4897143 C209.00354,94.3582286 210.613356,95.7371429 210.754805,97.5914286 C210.899621,99.4490857 209.51208,101.067371 207.656414,101.212343 L150.538253,105.608686 C150.45069,105.615429 150.363126,105.6188 150.275563,105.6188" id="Fill-2" fill="#FFFFFF" sketch:type="MSShapeGroup"></path>
            <path d="M218.787046,40.6412571 C217.854161,38.1362857 215.910931,36.9630286 212.957356,37.1181143 C207.690092,37.3945714 202.77308,41.3020571 198.206322,48.8405714 C193.636195,56.3824571 191.504368,63.0174286 191.804103,68.7454857 C191.93208,71.2133714 192.955897,72.3967429 194.868816,72.2956 C196.946759,72.1877143 199.310966,70.7683429 201.97154,68.0341143 C204.628747,65.2998857 206.982851,62.124 209.037218,58.5064571 C213.577034,50.4487429 216.826977,44.4948 218.787046,40.6412571 L218.787046,40.6412571 Z M161.648678,45.4354286 C161.406195,45.368 161.042471,45.3444 160.564241,45.3713714 C158.887069,45.4590286 157.095391,46.3524571 155.182471,48.0482857 C152.043667,50.7656571 148.790356,55.1653714 145.429276,61.2440571 C142.064828,67.3261143 140.481954,72.2382857 140.677287,75.9772 C140.872621,79.7161143 142.128816,81.5265714 144.442506,81.4052 C148.591655,81.1860571 152.888989,76.8537714 157.32777,68.4016 C161.766552,59.9494286 163.868069,53.4156 163.625586,48.8001143 C163.521184,46.8109714 162.861092,45.6882857 161.648678,45.4354286 L161.648678,45.4354286 Z M116.580563,49.1136571 C116.038345,44.9128571 114.014287,42.9068571 110.501655,43.0889143 C104.991908,43.3788571 99.882931,48.9922857 95.1747241,59.9325714 C92.6084483,65.9708 91.4499195,71.3785714 91.7025057,76.1525143 C91.9517241,80.9264571 94.1576437,83.3235429 98.3202644,83.3471429 C101.752069,83.1650857 104.830253,81.1894286 107.554816,77.4168 C110.279379,73.6408 112.525713,69.5141714 114.290448,65.0335429 C111.454747,62.8690857 109.945966,60.0337143 109.764103,56.5341714 C109.652966,54.3865714 110.141299,52.6435429 111.232471,51.3118286 C112.320276,49.9767429 113.866103,49.2586286 115.859851,49.1541143 L116.580563,49.1136571 L116.580563,49.1136571 Z M77.433069,21.4848 C76.3284253,24.8157714 74.0955632,27.6848571 70.7412184,30.0954286 C67.3868736,32.506 63.8338276,33.8107429 60.0820805,34.0062857 C58.3240805,34.0973143 56.8691839,33.7972571 55.7106552,33.0993714 C54.5554943,32.4014857 53.9459195,31.4541143 53.881931,30.264 C53.8179425,29.0671429 54.2321839,27.7691429 55.1179195,26.3666286 C56.0137586,26.6397143 57.0207356,26.7476 58.1354828,26.6869143 C61.2507126,26.5250857 64.0662069,25.2978857 66.5887011,23.0120571 C69.1111954,20.7262286 70.2932989,18.0695429 70.1350115,15.0453714 C69.8925287,10.4332571 66.6964713,8.28565714 60.5535747,8.60931429 C52.4101954,9.03411429 44.6137011,12.2369714 37.164092,18.2145143 C29.7111149,24.1886857 23.8443793,31.7373143 19.5605172,40.8604 C15.2732874,49.9801143 13.3704713,59.1166857 13.852069,68.2701143 C14.5929885,82.4334857 21.4296552,89.1763429 34.3587011,88.4986857 C42.4212529,88.0738857 50.8003793,84.5237714 59.4927126,77.8416 C68.1884138,71.1628 73.8227701,64.1232571 76.3991494,56.7297143 C77.9685517,57.6838286 78.8004023,59.0357714 78.8913333,60.7855429 C79.079931,64.3693714 76.7561379,68.9376571 71.9266897,74.4971429 C67.0938736,80.0566286 60.8903563,84.6114286 53.3094023,88.1615429 C45.7318161,91.7116571 37.9151149,93.6974286 29.8525632,94.1188571 C11.0938276,95.1033143 1.2598046,86.8837714 0.347126437,69.4568571 C0.00024137931,62.8522286 1.11498851,55.87 3.69136782,48.5135429 C6.26774713,41.1570857 9.90835632,34.2658857 14.6165632,27.8332 C19.3214023,21.4038857 25.3430575,15.9994857 32.6781609,11.6267429 C40.0098966,7.25062857 47.3483678,4.87377143 54.6935747,4.48605714 C62.0387816,4.10171429 67.7303908,5.0592 71.7717701,7.36188571 C75.8131494,9.6612 77.9382414,12.7629143 78.1436782,16.6602857 C78.2177701,18.0931429 77.982023,19.7013143 77.433069,21.4848 L77.433069,21.4848 Z M237.232575,63.0241714 C230.059126,74.9624 223.70069,81.0781714 218.157264,81.3681143 C213.84646,81.594 211.519299,78.4046286 211.172414,71.8 C210.913092,66.8676 211.499092,61.9689143 212.923678,57.1073143 C204.665793,73.6576571 196.66723,82.1368 188.924621,82.5413714 C183.576529,82.8212 180.710517,79.3014286 180.326586,71.9820571 C180.22892,70.0873143 180.269333,68.1757143 180.451195,66.2472571 C177.541402,70.8863429 174.443011,74.7938286 171.156023,77.9697143 C165.821402,83.1145143 159.324885,85.8892 151.663103,86.2937714 C143.997954,86.6949714 139.586115,84.9721714 138.424218,81.122 L132.813437,102.362 C131.462943,107.139314 130.405448,110.247771 129.640954,111.684 C128.873092,113.120229 127.983989,114.064229 126.966908,114.516 C125.949828,114.971143 124.643115,115.237486 123.04677,115.321771 L117.297908,115.6252 C119.217563,112.489771 122.86154,101.825943 128.229839,83.6303429 C130.072034,77.3932 131.702057,71.9281143 133.123276,67.2350857 C130.620989,69.2309714 128.219736,70.2862286 125.916149,70.4076 C123.245471,70.5492 120.908207,69.912 118.91446,68.5027429 C116.33808,74.3016 113.158862,78.9373143 109.376805,82.4065143 C105.598115,85.8757143 100.59354,87.7738286 94.3698161,88.1008571 C90.378954,88.3098857 87.0616552,87.2681143 84.4212874,84.9721714 C81.7775517,82.6796 80.326023,79.0452 80.0667011,74.0689714 C79.8073793,69.0961143 80.6762759,63.9041143 82.6733908,58.4929714 C84.6705057,53.0818286 87.8631954,48.3483429 92.2548276,44.2857714 C96.643092,40.2265714 101.671241,38.0486286 107.339276,37.7519429 C116.839885,37.2529714 121.851195,42.0168 122.376575,52.0434286 C122.575276,55.8632571 121.945494,59.9258286 120.490598,64.2311429 C121.777103,65.8393143 123.535103,66.5844 125.771333,66.4664 C129.667897,66.2607429 133.194,63.0174286 136.349644,56.7330857 C137.447552,53.2369143 138.316448,50.5869714 138.952966,48.7798857 C140.727805,43.7396 142.068195,40.6749714 142.974138,39.5927429 C144.789391,37.58 148.052805,36.4539429 152.761011,36.2044571 L156.354471,36.0156571 C154.121609,37.7283429 151.218552,42.6708571 147.645299,50.8364571 C154.549322,40.5805714 160.837034,35.3042857 166.505069,35.0042286 C171.853161,34.7244 174.719172,38.2441714 175.103103,45.5669143 C175.419678,51.6152571 173.826701,57.9198286 170.330908,64.4873714 C166.831747,71.0549143 162.581563,76.2233143 157.573621,79.9993143 L158.533448,79.9487429 C161.806966,79.7768 165.070379,78.2866286 168.32369,75.4849714 C171.580368,72.6799429 174.358816,69.6220571 176.669138,66.3079429 C177.932069,64.4873714 179.693437,61.4227429 181.949874,57.1140571 C182.316966,56.4128 182.657115,55.7688571 182.966954,55.1822286 C183.010736,55.0676 183.051149,54.9563429 183.091563,54.8417143 C185.226759,48.9855429 188.46323,43.9284 192.800977,39.6702857 C197.142092,35.4121714 202.025425,33.1432 207.454345,32.8566286 C210.007149,32.7217714 212.431977,33.1735429 214.728828,34.2119429 C217.02231,35.2469714 218.59508,37.0203429 219.447138,39.5286857 C220.231839,37.6541714 221.504874,35.9886857 223.269609,34.5423429 C225.034345,33.0926286 226.714885,32.3273143 228.31123,32.2430286 L234.302575,32.0474857 L235.501517,31.9834286 C232.979023,34.2692571 230.032184,39.8725714 226.654264,48.7866286 C223.279713,57.7006857 221.696839,64.1468571 221.905644,68.1251429 C222.013414,70.1952 222.784644,71.1897714 224.222701,71.1156 C228.597494,70.8863429 233.797402,64.5177143 239.819057,52.0097143 C241.119034,47.6133714 242.580667,43.9756 244.200586,41.1031429 C246.288632,37.4013143 248.524862,34.9705143 250.90254,33.8107429 C253.283586,32.6476 256.590782,31.9564571 260.820759,31.7339429 C261.140701,31.7170857 261.309092,31.8654286 261.325931,32.1857143 C261.339402,32.5026286 261.123862,32.9139429 260.669207,33.4162857 C257.547241,36.4539429 254.482529,41.7605714 251.478437,49.3395429 C248.470977,56.9151429 247.103644,63.2534286 247.369701,68.3442857 C247.511149,71.0515429 248.339632,72.3630286 249.858517,72.2821143 C252.731264,72.1337714 256.250632,69.0758857 260.423356,63.1118286 C264.592713,57.1477714 267.724782,51.2376571 269.819563,45.3848571 C270.095724,44.5723429 270.496494,43.3923429 271.015138,41.8516 C271.533782,40.3074857 271.897506,39.2522286 272.109678,38.6824571 C272.318483,38.1126857 272.658632,37.3170286 273.123391,36.2954857 C273.591517,35.2705714 274.015862,34.5726857 274.396425,34.1917143 C274.776989,33.8141143 275.292264,33.3286286 275.938885,32.7352571 C276.588874,32.1418857 277.269172,31.7474286 277.979782,31.5518857 C280.269897,30.9517714 282.411828,30.6011429 284.405575,30.4966286 L289.315851,30.2370286 C286.921333,31.8789143 284.600908,35.7526857 282.36131,41.8549714 C280.546057,46.9761714 279.03054,51.622 277.808023,55.7958286 C276.585506,59.9696571 275.837851,62.5016 275.565057,63.3950286 C275.292264,64.2884571 274.662483,66.4529143 273.682448,69.8951429 C272.702414,73.3407429 271.900874,75.9940571 271.277828,77.8618286 C269.573713,83.5359429 267.492402,88.0738857 265.027161,91.4756571 C262.565287,94.8774286 259.429851,97.6554857 255.620851,99.8098286 C251.811851,101.964171 247.91192,103.144171 243.921057,103.356571 C239.930195,103.5656 236.474816,102.968857 233.561655,101.562971 C230.645126,100.160457 229.099299,97.7903429 228.92754,94.4458857 C228.833241,92.6961143 229.291264,91.0980571 230.294874,89.6483429 C231.301851,88.1986286 232.500793,87.4366857 233.898437,87.3625143 C235.29608,87.2917143 236.488287,87.5479429 237.478425,88.1345714 C238.471931,88.7212 239.185908,89.3988571 239.627092,90.1742857 C238.215977,90.7272 237.586195,92.4365143 237.734379,95.3022286 C237.815207,96.8126286 238.418046,97.9993714 239.542897,98.8557143 C240.667747,99.7154286 242.068759,100.099771 243.745931,100.012114 C250.20877,99.6749714 255.334586,93.6198857 259.120011,81.8502286 L264.996851,63.3512 C261.490954,68.2431429 258.422874,71.9348571 255.792609,74.4263429 C253.158977,76.9178286 251.081034,78.4417143 249.548678,79.0013714 C248.016322,79.5610286 246.194333,79.8981714 244.079345,80.0060571 C241.960989,80.1173143 240.223195,79.352 238.855862,77.7067429 C237.488529,76.0648571 236.737506,73.5902286 236.606161,70.2862286 C236.528701,68.3611429 236.737506,65.9404571 237.232575,63.0241714 L237.232575,63.0241714 Z" id="Fill-3" fill="#FFFFFF" sketch:type="MSShapeGroup"></path>
            <path d="M282.364678,17.4492 C283.162851,17.4087429 283.839782,17.2064571 284.392103,16.8457143 C284.944425,16.4816 285.41592,16.0702857 285.813322,15.6050286 C285.813322,15.2914857 285.830161,14.9610857 285.860471,14.6172 C285.890782,14.2733143 285.934563,13.9226857 285.991816,13.5686857 L287.34231,6.6168 C287.244644,6.58308571 287.086356,6.56622857 286.867448,6.55611429 C286.64854,6.55274286 286.453207,6.55274286 286.281448,6.55948571 C285.197011,6.6168 284.230448,6.87302857 283.378391,7.3248 C282.526333,7.77657143 281.808989,8.35308571 281.226356,9.06108571 C280.643724,9.76571429 280.209276,10.5748571 279.923011,11.4885143 C279.640115,12.3988 279.522241,13.3461714 279.572759,14.3238857 C279.592966,14.7116 279.650218,15.0993143 279.747885,15.4937714 C279.845552,15.8848571 280.000471,16.2287429 280.216011,16.5220571 C280.431552,16.8153714 280.71108,17.0513714 281.054598,17.2300571 C281.398115,17.4053714 281.832563,17.4795429 282.364678,17.4492 L282.364678,17.4492 Z M286.715897,19.2225714 C286.608126,19.0236571 286.503724,18.8011429 286.395954,18.5584 C286.288184,18.3122857 286.197253,18.0560571 286.126529,17.7796 C285.725759,18.1706857 285.186908,18.5685143 284.503241,18.9764571 C283.819575,19.3810286 282.964149,19.6136571 281.940333,19.6642286 C281.101747,19.7080571 280.377667,19.6170286 279.768092,19.3911429 C279.155149,19.1652571 278.646609,18.8314857 278.242471,18.3898286 C277.838333,17.9481714 277.531862,17.4188571 277.316322,16.7985143 C277.104149,16.1815429 276.976172,15.4937714 276.939126,14.7385714 C276.87177,13.5012571 277.023322,12.2841714 277.390414,11.0805714 C277.754138,9.87697143 278.340138,8.79137143 279.148414,7.82377143 C279.953322,6.85617143 280.987241,6.05377143 282.250172,5.4132 C283.509736,4.77262857 285.005046,4.40851429 286.736103,4.31748571 C287.248011,4.29051429 287.847483,4.31411429 288.537885,4.38828571 C289.228287,4.46245714 289.827759,4.61754286 290.332931,4.85017143 L288.595138,13.6563429 C288.521046,14.0845143 288.463793,14.4958286 288.416644,14.8869143 C288.369494,15.2746286 288.359391,15.6825714 288.379598,16.1073714 C288.403172,16.5321714 288.463793,16.9603429 288.56146,17.3885143 C288.662494,17.8200571 288.817414,18.2785714 289.032954,18.7674286 L286.715897,19.2225714 L286.715897,19.2225714 Z M270.712034,20.2812 C269.290816,20.3553714 268.229954,20.1058857 267.532816,19.5327429 C266.835678,18.9596 266.455115,18.0897714 266.394494,16.93 C266.357448,16.1714286 266.438276,15.1970857 266.643713,14.0036 L269.044966,1.52594286 L271.786368,0.939314286 L270.907368,5.45365714 L275.952356,5.18731429 L275.524644,7.37537143 L270.479655,7.63834286 L269.247034,14.0878857 C269.065172,14.9678286 268.99108,15.7297714 269.024759,16.3737143 C269.055069,16.9839429 269.250402,17.4121143 269.604023,17.6616 C269.961011,17.9110857 270.536908,18.0156 271.33508,17.9751429 C271.887402,17.9448 272.422885,17.8301714 272.944897,17.6245143 C273.470276,17.4222286 273.867678,17.2401714 274.147207,17.0783429 L274.460414,19.2529143 C274.184253,19.4349714 273.709391,19.6406286 273.035828,19.8698857 C272.362264,20.0991429 271.587667,20.2373714 270.712034,20.2812 L270.712034,20.2812 Z M254.115437,13.1877143 C255.213345,13.0933143 256.216954,12.9719429 257.122897,12.8236 C258.028839,12.6718857 258.810172,12.4561143 259.460161,12.1729143 C260.113517,11.8897143 260.611954,11.5256 260.962207,11.0805714 C261.309092,10.6355429 261.464011,10.0725143 261.430333,9.39148571 C261.42023,9.22628571 261.379816,9.05097143 261.302356,8.87228571 C261.224897,8.69022857 261.103655,8.52502857 260.931897,8.37668571 C260.763506,8.22834286 260.534494,8.11034286 260.244862,8.02268571 C259.951862,7.9384 259.598241,7.90468571 259.180632,7.92828571 C258.517172,7.962 257.900862,8.13394286 257.338437,8.44074286 C256.772644,8.74754286 256.274207,9.13862857 255.839759,9.614 C255.408678,10.0893714 255.048322,10.6355429 254.755322,11.2525143 C254.46569,11.8694857 254.250149,12.5134286 254.115437,13.1877143 L254.115437,13.1877143 Z M257.234034,20.9622286 C256.267471,21.0128 255.425517,20.9217714 254.708172,20.6925143 C253.990828,20.4598857 253.381253,20.1227429 252.882816,19.6777143 C252.384379,19.2326857 252.003816,18.7 251.741126,18.0864 C251.481805,17.4694286 251.333621,16.812 251.296575,16.1107429 C251.229218,14.8194857 251.363931,13.5653143 251.697345,12.3448571 C252.034126,11.1244 252.549402,10.0320571 253.239805,9.0712 C253.933575,8.11034286 254.799103,7.32817143 255.833023,6.72805714 C256.866943,6.12794286 258.059149,5.79417143 259.409644,5.72337143 C260.187609,5.68291429 260.861172,5.7436 261.433701,5.9088 C262.002862,6.07062857 262.474356,6.31 262.841448,6.62354286 C263.211908,6.94045714 263.491437,7.30794286 263.68677,7.73274286 C263.878736,8.15754286 263.989874,8.5992 264.013448,9.06108571 C264.05723,9.92754286 263.935989,10.6692571 263.642989,11.2862286 C263.353356,11.9032 262.949218,12.4291429 262.440678,12.8640571 C261.92877,13.2956 261.322563,13.6428571 260.622057,13.9024571 C259.921552,14.1586857 259.190736,14.3744571 258.429609,14.5430286 C257.665115,14.7116 256.890517,14.8430857 256.105816,14.9307429 C255.317747,15.0184 254.576828,15.0959429 253.876322,15.1701143 C253.862851,15.3184571 253.859483,15.4398286 253.866218,15.5308571 L253.876322,15.7533714 C253.899897,16.1781714 253.973989,16.576 254.098598,16.9502286 C254.219839,17.3210857 254.432011,17.6447429 254.731747,17.9144571 C255.031483,18.1875429 255.438989,18.3932 255.950897,18.5314286 C256.462805,18.6696571 257.126264,18.7202286 257.944644,18.6764 C258.305,18.6561714 258.678828,18.6056 259.066126,18.5213143 C259.450057,18.4370286 259.817149,18.3325143 260.164034,18.2145143 C260.507552,18.0931429 260.817391,17.9751429 261.086816,17.8605143 C261.356241,17.7425143 261.548207,17.638 261.655977,17.5368571 L261.999494,19.7114286 C261.629034,19.9339429 261.029563,20.1834286 260.194345,20.4598857 C259.362494,20.7329714 258.375724,20.9015429 257.234034,20.9622286 L257.234034,20.9622286 Z M243.139724,8.7408 C242.570563,8.77114286 242.008138,8.89588571 241.459184,9.12177143 C240.906862,9.34428571 240.394954,9.64434286 239.920092,10.0185714 L238.104839,19.5226286 C238.296805,19.5496 238.515713,19.5765714 238.764931,19.6001714 C239.014149,19.6237714 239.26,19.6305143 239.509218,19.6170286 C240.590287,19.5597143 241.556851,19.3001143 242.408908,18.8382286 C243.260966,18.3797143 243.974943,17.7863429 244.544103,17.0614857 C245.116632,16.3366286 245.547713,15.5207429 245.830609,14.6070857 C246.116874,13.6968 246.234747,12.7494286 246.18423,11.7717143 C246.160655,11.3671429 246.100034,10.9726857 245.992264,10.5883429 C245.887862,10.2073714 245.716103,9.8736 245.483724,9.5904 C245.247977,9.30382857 244.941506,9.08468571 244.56431,8.9296 C244.183747,8.77451429 243.708885,8.71045714 243.139724,8.7408 L243.139724,8.7408 Z M240.394954,7.63497143 C240.819299,7.35514286 241.311,7.10565714 241.870057,6.89325714 C242.429115,6.67748571 243.035322,6.55274286 243.678575,6.51902857 C244.496954,6.47857143 245.221034,6.5696 245.850816,6.79548571 C246.480598,7.02137143 247.009345,7.3484 247.430322,7.77994286 C247.854667,8.21148571 248.181345,8.73405714 248.413724,9.35102857 C248.646103,9.968 248.780816,10.6389143 248.817862,11.3570286 C248.885218,12.6314286 248.740402,13.8721143 248.383414,15.0858286 C248.029793,16.2961714 247.450529,17.3918857 246.642253,18.3662286 C245.837345,19.3439429 244.806793,20.1463429 243.553966,20.7768 C242.301138,21.4072571 240.812563,21.768 239.081506,21.8590286 C238.798609,21.8725143 238.482034,21.8758857 238.141885,21.8657714 C237.798368,21.8556571 237.448115,21.8253143 237.091126,21.768 C236.737506,21.7140571 236.390621,21.6398857 236.050471,21.5454857 C235.71369,21.4510857 235.417322,21.3398286 235.161368,21.2049714 L239.135391,0.460571429 L241.873425,-0.129428571 L240.394954,7.63497143 L240.394954,7.63497143 Z" id="Fill-4" fill="#FFFFFF" sketch:type="MSShapeGroup"></path>
            <g id="Group-7" transform="translate(234.747126, 0.000000)">
                <mask id="mask-2" sketch:name="Clip 6" fill="white">
                    <use xlink:href="#path-1"></use>
                </mask>
                <g id="Clip-6"></g>
                <path d="M-18.3781724,-15.6717143 L71.1282759,-20.3681143 L74.0347011,35.1660571 L-15.4683793,39.8624571 L-18.3781724,-15.6717143" id="Fill-5" fill="#FFFFFF" sketch:type="MSShapeGroup" mask="url(#mask-2)"></path>
            </g>
        </g>
    </g>
</svg>