<?xml version="1.0" encoding="UTF-8" standalone="no"?>
<svg width="189px" height="92px" viewBox="0 0 189 92" version="1.1" xmlns="http://www.w3.org/2000/svg" xmlns:xlink="http://www.w3.org/1999/xlink" xmlns:sketch="http://www.bohemiancoding.com/sketch/ns">
    <!-- Generator: Sketch 3.1.1 (8761) - http://www.bohemiancoding.com/sketch -->
    <title>Imported Layers</title>
    <desc>Created with Sketch.</desc>
    <defs></defs>
    <g id="Page-1" stroke="none" stroke-width="1" fill="none" fill-rule="evenodd" sketch:type="MSPage">
        <g id="Imported-Layers" sketch:type="MSLayerGroup" fill="#FFFFFF">
            <path d="M186.838,11.679 C186.823,11.384 186.831,11.1 186.863,10.828 C186.895,10.557 186.937,10.271 186.987,9.973 L188.198,3.851 C187.845,3.689 187.428,3.582 186.948,3.53 C186.468,3.478 186.049,3.462 185.693,3.48 C184.489,3.543 183.449,3.797 182.57,4.242 C181.692,4.687 180.972,5.246 180.411,5.918 C179.85,6.591 179.442,7.345 179.187,8.182 C178.933,9.019 178.828,9.867 178.873,10.726 C178.901,11.252 178.989,11.73 179.137,12.16 C179.286,12.589 179.501,12.957 179.782,13.264 C180.063,13.571 180.417,13.803 180.843,13.961 C181.268,14.119 181.772,14.183 182.354,14.152 C183.068,14.115 183.663,13.955 184.139,13.673 C184.614,13.391 184.991,13.113 185.268,12.842 C185.318,13.032 185.38,13.212 185.456,13.382 C185.531,13.552 185.605,13.705 185.679,13.843 L187.293,13.527 C187.143,13.187 187.033,12.868 186.964,12.569 C186.896,12.271 186.854,11.974 186.838,11.679 L186.838,11.679 Z M185.174,9.914 C185.134,10.16 185.104,10.403 185.083,10.642 C185.063,10.881 185.052,11.11 185.05,11.329 C184.775,11.652 184.445,11.939 184.061,12.191 C183.676,12.443 183.206,12.583 182.651,12.612 C182.281,12.632 181.977,12.58 181.738,12.457 C181.5,12.335 181.306,12.171 181.156,11.967 C181.006,11.763 180.897,11.524 180.83,11.251 C180.762,10.978 180.722,10.707 180.708,10.437 C180.672,9.757 180.754,9.1 180.952,8.466 C181.151,7.832 181.453,7.269 181.858,6.778 C182.263,6.288 182.763,5.885 183.356,5.571 C183.949,5.257 184.623,5.08 185.376,5.041 C185.495,5.034 185.631,5.034 185.784,5.038 C185.937,5.043 186.047,5.057 186.114,5.079 L185.174,9.914 L185.174,9.914 Z" id="Fill-1" sketch:type="MSShapeGroup"></path>
            <path d="M174.541,14.581 C173.55,14.633 172.811,14.459 172.327,14.06 C171.841,13.661 171.578,13.057 171.535,12.249 C171.508,11.723 171.565,11.045 171.707,10.214 L173.381,1.54 L175.288,1.131 L174.677,4.27 L178.187,4.086 L177.889,5.607 L174.379,5.791 L173.52,10.274 C173.393,10.885 173.341,11.415 173.365,11.864 C173.387,12.287 173.522,12.586 173.77,12.759 C174.017,12.933 174.419,13.005 174.974,12.976 C175.358,12.956 175.731,12.875 176.095,12.734 C176.459,12.593 176.737,12.466 176.93,12.352 L177.149,13.865 C176.956,13.991 176.626,14.134 176.157,14.294 C175.688,14.453 175.149,14.549 174.541,14.581" id="Fill-2" sketch:type="MSShapeGroup"></path>
            <path d="M169.649,5.855 C169.514,5.56 169.319,5.303 169.062,5.085 C168.805,4.867 168.479,4.701 168.081,4.587 C167.684,4.472 167.215,4.429 166.673,4.458 C165.734,4.507 164.904,4.74 164.184,5.158 C163.463,5.575 162.862,6.118 162.38,6.786 C161.898,7.454 161.54,8.213 161.306,9.061 C161.072,9.91 160.979,10.783 161.026,11.681 C161.051,12.168 161.155,12.626 161.336,13.054 C161.518,13.482 161.782,13.851 162.13,14.16 C162.478,14.47 162.901,14.705 163.4,14.866 C163.899,15.026 164.486,15.089 165.16,15.053 C165.953,15.012 166.64,14.895 167.22,14.704 C167.799,14.513 168.218,14.34 168.475,14.185 L168.237,12.673 C168.161,12.741 168.029,12.816 167.841,12.896 C167.653,12.977 167.438,13.059 167.197,13.142 C166.956,13.226 166.702,13.297 166.433,13.356 C166.164,13.415 165.904,13.451 165.653,13.464 C165.085,13.494 164.622,13.461 164.266,13.363 C163.909,13.266 163.627,13.124 163.418,12.935 C163.209,12.747 163.062,12.523 162.975,12.264 C162.889,12.004 162.838,11.727 162.822,11.432 L162.814,11.278 C162.811,11.214 162.813,11.131 162.821,11.027 C163.309,10.976 163.826,10.92 164.373,10.859 C164.92,10.798 165.459,10.709 165.99,10.591 C166.521,10.473 167.03,10.324 167.518,10.144 C168.005,9.964 168.427,9.724 168.782,9.422 C169.138,9.12 169.417,8.755 169.62,8.327 C169.823,7.898 169.908,7.382 169.877,6.779 C169.86,6.458 169.784,6.15 169.649,5.855 L169.649,5.855 Z M167.753,8.183 C167.51,8.492 167.163,8.745 166.709,8.942 C166.255,9.14 165.713,9.29 165.082,9.394 C164.451,9.498 163.753,9.583 162.987,9.649 C163.082,9.181 163.231,8.732 163.434,8.303 C163.637,7.875 163.889,7.495 164.189,7.164 C164.49,6.833 164.837,6.561 165.23,6.347 C165.624,6.134 166.052,6.015 166.514,5.99 C166.805,5.975 167.052,5.998 167.254,6.058 C167.456,6.118 167.616,6.2 167.734,6.303 C167.852,6.406 167.937,6.521 167.991,6.646 C168.043,6.772 168.073,6.893 168.079,7.008 C168.104,7.483 167.995,7.875 167.753,8.183 L167.753,8.183 Z" id="Fill-3" sketch:type="MSShapeGroup"></path>
            <path d="M159.019,6.981 C158.858,6.553 158.63,6.188 158.336,5.888 C158.042,5.589 157.675,5.36 157.236,5.203 C156.797,5.046 156.293,4.983 155.724,5.012 C155.275,5.036 154.855,5.122 154.465,5.271 C154.075,5.42 153.733,5.593 153.438,5.788 L154.468,0.389 L152.56,0.798 L149.796,15.222 C149.974,15.315 150.18,15.395 150.415,15.459 C150.651,15.524 150.892,15.576 151.139,15.614 C151.387,15.653 151.63,15.675 151.869,15.682 C152.108,15.689 152.326,15.687 152.525,15.677 C153.728,15.614 154.766,15.363 155.637,14.925 C156.509,14.487 157.226,13.929 157.787,13.25 C158.348,12.571 158.752,11.81 159,10.967 C159.247,10.124 159.348,9.26 159.301,8.375 C159.275,7.875 159.181,7.41 159.019,6.981 L159.019,6.981 Z M157.222,10.636 C157.023,11.27 156.725,11.839 156.327,12.342 C155.93,12.845 155.434,13.257 154.841,13.578 C154.248,13.898 153.575,14.078 152.821,14.118 C152.649,14.127 152.477,14.123 152.303,14.106 C152.13,14.09 151.977,14.072 151.843,14.053 L153.108,7.446 C153.439,7.184 153.796,6.975 154.178,6.82 C154.562,6.665 154.951,6.577 155.348,6.556 C155.745,6.536 156.075,6.579 156.339,6.688 C156.603,6.796 156.817,6.949 156.98,7.146 C157.143,7.344 157.261,7.575 157.334,7.842 C157.408,8.108 157.452,8.382 157.467,8.664 C157.503,9.344 157.421,10.001 157.222,10.636 L157.222,10.636 Z" id="Fill-4" sketch:type="MSShapeGroup"></path>
            <path d="M184.347,19.261 C183.019,19.404 181.602,19.718 180.096,20.201 C179.63,20.359 179.191,20.647 178.779,21.066 C178.368,21.485 178.042,21.828 177.802,22.094 C177.563,22.361 177.306,22.844 177.032,23.542 C176.758,24.24 176.562,24.783 176.442,25.171 C176.323,25.558 176.118,26.276 175.828,27.324 C175.539,28.371 175.316,29.171 175.161,29.723 C173.979,33.703 172.106,37.758 169.543,41.887 C166.98,46.016 164.743,48.183 162.831,48.39 C161.822,48.499 161.221,47.654 161.026,45.856 C160.661,42.471 161.341,38.198 163.067,33.035 C164.793,27.873 166.642,24.223 168.614,22.084 C168.898,21.732 169.029,21.45 169.006,21.238 C168.983,21.027 168.866,20.933 168.653,20.956 C165.839,21.26 163.658,21.843 162.113,22.705 C160.567,23.568 159.166,25.271 157.91,27.814 C156.934,29.789 156.093,32.267 155.387,35.245 C151.83,43.805 148.595,48.242 145.683,48.556 C144.727,48.66 144.175,48.024 144.027,46.648 C143.741,44.004 144.56,39.649 146.484,33.582 C148.408,27.516 150.169,23.674 151.767,22.057 L150.971,22.143 L146.979,22.494 C145.917,22.608 144.824,23.181 143.699,24.212 C142.575,25.243 141.786,26.398 141.333,27.678 C140.673,26.037 139.557,24.914 137.987,24.307 C136.418,23.701 134.783,23.49 133.083,23.673 C129.472,24.063 126.297,25.757 123.558,28.755 C120.819,31.752 118.846,35.243 117.637,39.225 C117.614,39.303 117.59,39.38 117.568,39.457 C117.381,39.86 117.178,40.302 116.959,40.783 C115.613,43.738 114.551,45.845 113.773,47.106 C112.356,49.4 110.612,51.541 108.544,53.53 C106.475,55.519 104.352,56.631 102.174,56.866 L101.537,56.935 C104.738,54.235 107.384,50.632 109.477,46.126 C111.569,41.62 112.398,37.357 111.964,33.337 C111.439,28.472 109.397,26.231 105.839,26.615 C102.068,27.022 98.067,30.772 93.836,37.863 C95.921,32.288 97.676,28.888 99.102,27.664 L96.712,27.922 C93.578,28.26 91.443,29.133 90.305,30.54 C89.742,31.296 88.961,33.387 87.96,36.812 C87.602,38.04 87.121,39.84 86.516,42.211 C84.642,46.516 82.409,48.808 79.817,49.088 C78.33,49.249 77.128,48.817 76.211,47.792 C77.024,44.869 77.293,42.138 77.019,39.599 C76.299,32.935 72.78,29.944 66.46,30.627 C62.689,31.034 59.414,32.672 56.634,35.54 C54.957,37.271 53.585,39.152 52.507,41.178 C52.517,41.158 52.525,41.133 52.535,41.114 C49.984,45.898 45.565,54.242 40.009,59.015 C34.453,63.789 28.993,66.465 23.629,67.044 C15.025,67.973 10.215,63.731 9.199,54.317 C8.542,48.235 9.475,42.075 11.998,35.837 C14.522,29.598 18.159,24.35 22.911,20.092 C27.662,15.833 32.747,13.412 38.164,12.827 C42.253,12.385 44.463,13.698 44.795,16.765 C45.012,18.775 44.321,20.589 42.723,22.206 C41.124,23.823 39.29,24.743 37.218,24.967 C36.475,25.047 35.8,25.013 35.193,24.865 C34.652,25.833 34.425,26.713 34.511,27.507 C34.596,28.3 35.038,28.908 35.836,29.33 C36.634,29.752 37.617,29.9 38.785,29.774 C41.281,29.504 43.604,28.504 45.755,26.774 C47.905,25.044 49.288,23.048 49.904,20.788 C50.203,19.579 50.301,18.498 50.198,17.546 C49.918,14.955 48.387,12.967 45.605,11.582 C42.823,10.197 38.989,9.768 34.103,10.296 C29.217,10.823 24.407,12.68 19.674,15.867 C14.941,19.053 11.123,22.876 8.219,27.336 C5.316,31.796 3.141,36.526 1.692,41.524 C0.244,46.523 -0.243,51.217 0.231,55.606 C1.482,67.189 8.347,72.306 20.828,70.958 C26.192,70.379 31.337,68.767 36.263,66.121 C41.189,63.476 45.161,60.211 48.18,56.327 C48.668,55.701 49.096,55.101 49.498,54.513 C49.519,54.96 49.551,55.403 49.599,55.842 C49.956,59.148 51.058,61.517 52.905,62.949 C54.752,64.382 57.003,64.954 59.659,64.668 C63.801,64.22 67.07,62.771 69.464,60.318 C71.859,57.866 73.81,54.659 75.316,50.698 C76.699,51.565 78.28,51.902 80.059,51.71 C81.591,51.545 83.154,50.751 84.75,49.33 C83.975,52.51 83.089,56.213 82.09,60.44 C79.177,72.766 77.138,80.008 75.974,82.167 L79.798,81.754 C80.86,81.64 81.722,81.413 82.384,81.074 C83.046,80.735 83.606,80.073 84.063,79.087 C84.521,78.101 85.113,75.991 85.838,72.755 L88.8,58.391 C89.717,60.913 92.725,61.9 97.823,61.349 C102.922,60.798 107.155,58.709 110.524,55.082 C112.602,52.845 114.526,50.126 116.295,46.925 C116.245,48.217 116.288,49.493 116.424,50.753 C116.949,55.619 118.991,57.859 122.549,57.475 C127.701,56.919 132.727,50.972 137.628,39.635 C136.855,42.929 136.646,46.215 137,49.494 C137.474,53.884 139.145,55.924 142.013,55.614 C145.701,55.216 149.719,50.905 154.066,42.683 C153.843,44.645 153.793,46.267 153.915,47.547 C154.126,49.745 154.717,51.366 155.69,52.411 C156.663,53.457 157.852,53.903 159.26,53.751 C160.667,53.599 161.871,53.309 162.873,52.88 C163.874,52.451 165.207,51.357 166.871,49.599 C168.534,47.841 170.446,45.267 172.605,41.877 L169.366,54.426 C167.273,62.41 164.076,66.634 159.774,67.099 C158.659,67.219 157.71,67.014 156.927,66.483 C156.145,65.952 155.699,65.185 155.591,64.18 C155.385,62.276 155.743,61.113 156.665,60.693 C156.342,60.193 155.839,59.765 155.156,59.411 C154.473,59.057 153.667,58.93 152.738,59.03 C151.808,59.131 151.035,59.682 150.418,60.685 C149.801,61.688 149.555,62.772 149.681,63.935 C149.921,66.156 151.039,67.681 153.036,68.509 C155.033,69.336 157.359,69.607 160.014,69.32 C162.67,69.033 165.229,68.101 167.691,66.525 C170.153,64.948 172.144,62.981 173.662,60.623 C175.181,58.265 176.404,55.164 177.332,51.318 C177.678,50.05 178.115,48.251 178.643,45.92 C179.17,43.589 179.508,42.121 179.658,41.517 C179.808,40.912 180.213,39.196 180.875,36.369 C181.537,33.542 182.379,30.388 183.4,26.907 C184.671,22.757 186.075,20.091 187.613,18.908 L184.347,19.261 L184.347,19.261 Z M72.566,37.913 C71.238,38.056 70.235,38.593 69.556,39.522 C68.877,40.451 68.615,41.63 68.769,43.058 C69.02,45.385 70.132,47.218 72.103,48.557 C71.089,51.609 69.743,54.443 68.065,57.058 C66.386,59.674 64.405,61.105 62.121,61.352 C59.343,61.491 57.782,59.975 57.439,56.802 C57.096,53.628 57.67,49.982 59.159,45.861 C61.899,38.396 65.101,34.465 68.766,34.07 C71.102,33.817 72.528,35.081 73.043,37.861 L72.566,37.913 L72.566,37.913 Z M92.826,58.357 C91.286,58.524 90.381,57.364 90.113,54.878 C89.844,52.392 90.72,49.061 92.741,44.883 C94.761,40.706 96.769,37.654 98.763,35.726 C99.977,34.525 101.141,33.864 102.257,33.744 C102.575,33.709 102.817,33.71 102.982,33.746 C103.801,33.871 104.283,34.595 104.425,35.917 C104.757,38.984 103.597,43.417 100.945,49.214 C98.294,55.011 95.587,58.059 92.826,58.357 L92.826,58.357 Z M135.085,40.712 C133.849,43.2 132.394,45.403 130.721,47.323 C129.048,49.243 127.521,50.277 126.14,50.426 C124.866,50.564 124.14,49.813 123.963,48.173 C123.551,44.365 124.731,39.864 127.501,34.669 C130.271,29.474 133.409,26.688 136.914,26.309 C138.879,26.097 140.219,26.808 140.932,28.444 C139.767,31.084 137.818,35.173 135.085,40.712 L135.085,40.712 Z" id="Fill-5" sketch:type="MSShapeGroup"></path>
            <path d="M24.619,91.598 L24.625,91.611 C24.624,91.606 24.622,91.602 24.62,91.598 L24.619,91.598" id="Fill-6" sketch:type="MSShapeGroup"></path>
            <path d="M75.602,68.944 C57.514,72.038 40.157,76.386 27.9,81.406 C22.791,83.499 21.501,87.672 23.108,91.611 C43.922,82.124 54.233,79.448 69.428,75.671 C72.122,75.002 74.267,72.981 75.138,70.346 C75.295,69.872 75.451,69.401 75.602,68.944" id="Fill-7" sketch:type="MSShapeGroup"></path>
            <path d="M143.297,66.886 C143.836,64.621 143.219,64.532 140.914,64.196 C128.294,62.356 114.408,62.5 97.701,66.076 C94.886,66.678 92.571,68.647 92.129,71.492 C92.129,71.492 113.117,64.595 143.297,66.886" id="Fill-8" sketch:type="MSShapeGroup"></path>
        </g>
    </g>
</svg>