<?xml version="1.0" encoding="UTF-8" standalone="no"?>
<svg width="100px" height="26px" viewBox="0 0 100 26" version="1.1" xmlns="http://www.w3.org/2000/svg" xmlns:xlink="http://www.w3.org/1999/xlink" xmlns:sketch="http://www.bohemiancoding.com/sketch/ns">
    <!-- Generator: Sketch 3.0.2 (7799) - http://www.bohemiancoding.com/sketch -->
    <title>fi-social-github 4 + GitHub_Logo</title>
    <description>Created with Sketch.</description>
    <defs></defs>
    <g id="Page-1-Copy" stroke="none" stroke-width="1" fill="none" fill-rule="evenodd" sketch:type="MSPage">
        <g id="Artboard-1" sketch:type="MSArtboardGroup" transform="translate(-170.000000, -685.000000)" fill="#FFFFFF">
            <g id="fi-social-github-4-+-GitHub_Logo" sketch:type="MSLayerGroup" transform="translate(170.000000, 686.000000)">
                <g id="fi-social-github-4" sketch:type="MSShapeGroup">
                    <path d="M12.499359,-0.0578125 C5.59647436,-0.0578125 0,5.68626645 0,12.7717928 C0,18.4398849 3.58076923,23.2484375 8.54839744,24.9438322 C9.17403846,25.0625822 9.40160256,24.6675164 9.40160256,24.326398 C9.40160256,24.0224507 9.39070513,23.2162007 9.38525641,22.1444901 C5.90801282,22.920477 5.17435897,20.4244243 5.17435897,20.4244243 C4.60576923,18.9425164 3.78621795,18.5484375 3.78621795,18.5484375 C2.65128205,17.7530428 3.8724359,17.7685033 3.8724359,17.7685033 C5.12692308,17.8596217 5.78717949,19.0902138 5.78717949,19.0902138 C6.90192308,21.0507401 8.71314103,20.4833059 9.425,20.1569901 C9.53814103,19.326398 9.86185897,18.7622533 10.2185897,18.4408717 C7.44326923,18.1171875 4.52532051,17.0165296 4.52532051,12.1007401 C4.52532051,10.6997533 5.01217949,9.55435855 5.81153846,8.65731908 C5.68365385,8.33429276 5.25384615,7.03001645 5.93429487,5.26291118 C5.93429487,5.26291118 6.98365385,4.91817434 9.37211538,6.57902961 C10.3685897,6.29317434 11.438141,6.15041118 12.5012821,6.14613487 C13.5628205,6.15074013 14.6326923,6.29317434 15.6304487,6.57902961 C18.0173077,4.91817434 19.0650641,5.26291118 19.0650641,5.26291118 C19.7471154,7.03001645 19.3176282,8.33429276 19.1894231,8.65731908 C19.9907051,9.55435855 20.4740385,10.6997533 20.4740385,12.1007401 C20.4740385,17.0280428 17.5519231,18.1135691 14.7673077,18.4300164 C15.2153846,18.826398 15.6153846,19.6109375 15.6153846,20.807977 C15.6153846,22.5221217 15.6003205,23.9053454 15.6003205,24.3260691 C15.6003205,24.6698191 15.825,25.0694901 16.4596154,24.9421875 C21.4217949,23.2431743 25,18.4382401 25,12.7717928 C25,5.68626645 19.4035256,-0.0578125 12.499359,-0.0578125 L12.499359,-0.0578125 Z" id="Shape"></path>
                </g>
                <g id="GitHub_Logo" transform="translate(35.000000, 3.800000)" sketch:type="MSShapeGroup">
                    <g id="Group">
                        <path d="M12.3640385,7.44853846 L6.96254308,7.44853846 C6.82320923,7.44853846 6.71010923,7.56163846 6.71010923,7.70110615 L6.71010923,10.3418908 C6.71010923,10.4812246 6.82320923,10.5947262 6.96254308,10.5947262 L9.06968308,10.5947262 L9.06968308,13.8758308 C9.06968308,13.8758308 8.59653692,14.0371154 7.28845846,14.0371154 C5.74521231,14.0371154 3.58935231,13.4732215 3.58935231,8.73265846 C3.58935231,3.99115846 5.83408615,3.36730154 7.94176154,3.36730154 C9.76608462,3.36730154 10.5520292,3.68839846 11.0520785,3.84325846 C11.2092138,3.89130923 11.3545708,3.73484308 11.3545708,3.59550923 L11.9571462,1.04386615 C11.9571462,0.978549231 11.9350615,0.899981538 11.8606431,0.846710769 C11.6574646,0.701755385 10.4185846,0.00856615385 7.28845846,0.00856615385 C3.68250923,0.00856615385 -0.0163292308,1.54271077 -0.0163292308,8.91763385 C-0.0163292308,16.2928246 4.21856308,17.3917015 7.78716923,17.3917015 C10.7419569,17.3917015 12.5345585,16.1289969 12.5345585,16.1289969 C12.6084415,16.0881738 12.6163385,15.9849785 12.6163385,15.9375969 L12.6163385,7.70110615 C12.6163385,7.56177231 12.5033723,7.44853846 12.3640385,7.44853846 L12.3640385,7.44853846 Z" id="Shape"></path>
                        <path d="M40.2010938,0.892084615 C40.2010938,0.751546154 40.0897338,0.638178462 39.9504,0.638178462 L36.9090138,0.638178462 C36.7700815,0.638178462 36.6571154,0.751546154 36.6571154,0.892084615 C36.6571154,0.892753846 36.6579185,6.76967077 36.6579185,6.76967077 L31.9172215,6.76967077 L31.9172215,0.892084615 C31.9172215,0.751546154 31.8053262,0.638178462 31.66626,0.638178462 L28.6250077,0.638178462 C28.4866108,0.638178462 28.3737785,0.751546154 28.3737785,0.892084615 L28.3737785,16.8067938 C28.3737785,16.9471985 28.4866108,17.0613692 28.6250077,17.0613692 L31.66626,17.0613692 C31.8053262,17.0613692 31.9172215,16.9470646 31.9172215,16.8067938 L31.9172215,9.99951231 L36.6579185,9.99951231 C36.6579185,9.99951231 36.64962,16.8062585 36.64962,16.8067938 C36.64962,16.9471985 36.7624523,17.0613692 36.9015185,17.0613692 L39.9499985,17.0613692 C40.0893323,17.0613692 40.2006923,16.9470646 40.20096,16.8067938 L40.20096,0.892084615 L40.2010938,0.892084615 Z" id="Shape"></path>
                        <g transform="translate(14.187692, 0.936923)" id="Shape">
                            <path d="M3.91553538,2.04356308 C3.91553538,0.948433846 3.03750462,0.0635769231 1.95428769,0.0635769231 C0.872141538,0.0635769231 -0.00642461538,0.948567692 -0.00642461538,2.04356308 C-0.00642461538,3.13762154 0.872141538,4.02502154 1.95428769,4.02502154 C3.03750462,4.02488769 3.91553538,3.13748769 3.91553538,2.04356308 L3.91553538,2.04356308 Z"></path>
                            <path d="M3.69803538,12.5127415 L3.69803538,5.16646154 C3.69803538,5.02699385 3.58547077,4.91295692 3.44640462,4.91295692 L0.414655385,4.91295692 C0.275589231,4.91295692 0.151112308,5.05644 0.151112308,5.19590769 L0.151112308,15.7209 C0.151112308,16.0302185 0.343850769,16.1221708 0.59334,16.1221708 L3.32487231,16.1221708 C3.62455385,16.1221708 3.69803538,15.97494 3.69803538,15.7159477 C3.69803538,15.1517862 3.69803538,12.9417185 3.69803538,12.5127415 L3.69803538,12.5127415 Z"></path>
                        </g>
                        <path d="M51.7596462,5.87383846 L48.7415492,5.87383846 C48.6031523,5.87383846 48.4904538,5.98800923 48.4904538,6.12828 L48.4904538,13.9317785 C48.4904538,13.9317785 47.7236492,14.4927277 46.63548,14.4927277 C45.5473108,14.4927277 45.2584708,13.9989692 45.2584708,12.93342 L45.2584708,6.12828 C45.2584708,5.98787538 45.14604,5.87383846 45.0075092,5.87383846 L41.94444,5.87383846 C41.8061769,5.87383846 41.6929431,5.98800923 41.6929431,6.12828 L41.6929431,13.4485938 C41.6929431,16.61352 43.4569015,17.3879538 45.8835323,17.3879538 C47.8742262,17.3879538 49.4793092,16.28814 49.4793092,16.28814 C49.4793092,16.28814 49.5557354,16.8676938 49.5902677,16.9364908 C49.6249338,17.00502 49.7150123,17.0742185 49.8123185,17.0742185 L51.7609846,17.0656523 C51.8992477,17.0656523 52.0124815,16.9513477 52.0124815,16.8116123 L52.0115446,6.12841385 C52.0115446,5.98787538 51.8987123,5.87383846 51.7596462,5.87383846 L51.7596462,5.87383846 Z" id="Shape"></path>
                        <path d="M60.0084508,5.51633538 C58.2942831,5.51633538 57.1283492,6.28113231 57.1283492,6.28113231 L57.1283492,0.892084615 C57.1283492,0.751546154 57.0160523,0.638178462 56.8773877,0.638178462 L53.8274354,0.638178462 C53.6887708,0.638178462 53.5760723,0.751546154 53.5760723,0.892084615 L53.5760723,16.8067938 C53.5760723,16.9471985 53.6887708,17.0613692 53.8278369,17.0613692 L55.9439446,17.0613692 C56.0392431,17.0613692 56.1113862,17.0122477 56.1646569,16.9261846 C56.2172585,16.8406569 56.2931492,16.19244 56.2931492,16.19244 C56.2931492,16.19244 57.5401938,17.3743015 59.90124,17.3743015 C62.6729262,17.3743015 64.2624831,15.9683815 64.2624831,11.06292 C64.2624831,6.15732462 61.7238231,5.51633538 60.0084508,5.51633538 L60.0084508,5.51633538 Z M58.8180231,14.4830908 C57.7712123,14.4512354 57.0611585,13.9762154 57.0611585,13.9762154 L57.0611585,8.93637231 C57.0611585,8.93637231 57.7615754,8.50699385 58.6210015,8.4303 C59.7078323,8.33299385 60.7550446,8.66131846 60.7550446,11.2539185 C60.7551785,13.9877262 60.2825677,14.52726 58.8180231,14.4830908 L58.8180231,14.4830908 Z" id="Shape"></path>
                        <path d="M26.6268185,5.84840769 L24.3454108,5.84840769 C24.3454108,5.84840769 24.3420646,2.83512923 24.3420646,2.83446 C24.3420646,2.72028923 24.2833062,2.66340462 24.1513338,2.66340462 L21.0423554,2.66340462 C20.9214923,2.66340462 20.8565769,2.71654154 20.8565769,2.83272 L20.8565769,5.94732 C20.8565769,5.94732 19.2984738,6.32342769 19.1931369,6.35381077 C19.0883354,6.38432769 19.0111062,6.48096462 19.0111062,6.59634 L19.0111062,8.55357231 C19.0111062,8.69437846 19.1235369,8.80788 19.2626031,8.80788 L20.8565769,8.80788 L20.8565769,13.5164538 C20.8565769,17.01372 23.3097092,17.3571692 24.9649846,17.3571692 C25.7213492,17.3571692 26.6261492,17.1143723 26.7755215,17.0590938 C26.8658677,17.0259 26.9183354,16.9323415 26.9183354,16.8308862 L26.9208785,14.6778369 C26.9208785,14.5374323 26.8022908,14.4237969 26.6687123,14.4237969 C26.5358031,14.4237969 26.1957,14.4778708 25.8455585,14.4778708 C24.7249985,14.4778708 24.3452769,13.9568077 24.3452769,13.2823569 C24.3452769,12.6084415 24.3451431,8.80774615 24.3451431,8.80774615 L26.6266846,8.80774615 C26.7657508,8.80774615 26.8784492,8.69424462 26.8784492,8.55343846 L26.8784492,6.10204615 C26.8784492,5.96164154 26.7658846,5.84840769 26.6268185,5.84840769 L26.6268185,5.84840769 Z" id="Shape"></path>
                    </g>
                </g>
            </g>
        </g>
    </g>
</svg>