<?xml version="1.0" encoding="UTF-8" standalone="no"?>
<svg width="41px" height="41px" viewBox="0 0 41 41" version="1.1" xmlns="http://www.w3.org/2000/svg" xmlns:xlink="http://www.w3.org/1999/xlink" xmlns:sketch="http://www.bohemiancoding.com/sketch/ns">
    <!-- Generator: Sketch 3.0.2 (7799) - http://www.bohemiancoding.com/sketch -->
    <title>Shape</title>
    <description>Created with Sketch.</description>
    <defs></defs>
    <g id="Page-1" stroke="none" stroke-width="1" fill="none" fill-rule="evenodd" sketch:type="MSPage">
        <g id="Group" sketch:type="MSLayerGroup" transform="translate(-320.000000, -1600.000000)" fill="#2C3E50">
            <g id="Icons" sketch:type="MSShapeGroup">
                <g id="Group">
                    <path d="M342.67375,1629.28597 C339.47125,1630.77347 336.49625,1630.75972 334.49625,1630.61347 C332.11125,1630.44097 330.19375,1629.78847 329.35,1629.21722 C328.83,1628.86722 328.12375,1629.00097 327.7725,1629.52097 C327.42125,1630.04097 327.5575,1630.74722 328.075,1631.09972 C329.43125,1632.01597 331.82875,1632.69847 334.3325,1632.87972 C334.7575,1632.90972 335.2225,1632.92972 335.72375,1632.92972 C337.9025,1632.92972 340.67,1632.72222 343.63125,1631.34347 C344.2,1631.07847 344.44625,1630.40347 344.1825,1629.83347 C343.91875,1629.26722 343.2425,1629.02097 342.67375,1629.28597 C342.67375,1629.28597 343.2425,1629.02097 342.67375,1629.28597 L342.67375,1629.28597 L342.67375,1629.28597 Z M355.3025,1627.60222 C355.41125,1617.73222 356.42625,1599.07972 337.53,1600.58722 C318.87375,1602.08722 323.82125,1621.79722 323.5425,1628.39722 C323.2975,1631.88972 322.1375,1636.15722 320.5,1640.50097 L325.5425,1640.50097 C326.06125,1638.65972 326.4425,1636.83972 326.60625,1635.10472 C326.91,1635.31847 327.235,1635.52222 327.5825,1635.71847 C328.1475,1636.05097 328.6325,1636.49347 329.14625,1636.96222 C330.3475,1638.05722 331.70875,1639.29722 334.36875,1639.45222 C334.54875,1639.46222 334.7275,1639.46722 334.90375,1639.46722 C337.59375,1639.46722 339.435,1638.28972 340.915,1637.34347 C341.62375,1636.89097 342.23625,1636.49847 342.8125,1636.30972 C344.45125,1635.79722 345.88,1634.97097 346.95,1633.91722 C347.1175,1633.75222 347.2725,1633.58347 347.4175,1633.41222 C348.0125,1635.59472 348.82875,1638.05097 349.73375,1640.50222 L360.5,1640.50222 C357.915,1636.50597 355.24875,1632.59472 355.3025,1627.60222 C355.3025,1627.60222 355.24875,1632.59472 355.3025,1627.60222 L355.3025,1627.60222 L355.3025,1627.60222 Z M325.3475,1622.23222 L325.3475,1622.23222 C325.16375,1619.00972 326.70375,1616.29972 328.79,1616.17847 C330.87625,1616.05722 332.72,1618.56972 332.90375,1621.79097 L332.90375,1621.79222 C332.91375,1621.96597 332.9175,1622.13597 332.91875,1622.30847 C332.25875,1622.47472 331.66125,1622.71597 331.1275,1622.99722 C331.125,1622.97222 331.12375,1622.94972 331.12125,1622.92597 L331.12125,1622.92347 C330.94125,1621.09472 329.96625,1619.71597 328.94,1619.83972 C327.91375,1619.96597 327.22625,1621.54847 327.405,1623.37722 L327.405,1623.37847 C327.4825,1624.17597 327.71125,1624.88722 328.03125,1625.42847 C327.95125,1625.49097 327.7275,1625.65597 327.46875,1625.84347 C327.275,1625.98597 327.0375,1626.15847 326.75375,1626.36972 C325.975,1625.34972 325.4425,1623.88472 325.3475,1622.23222 C325.3475,1622.23222 325.4425,1623.88472 325.3475,1622.23222 L325.3475,1622.23222 L325.3475,1622.23222 Z M346.48625,1630.19472 C346.4125,1631.89722 344.185,1633.49847 342.1275,1634.14222 L342.11625,1634.14597 C341.26125,1634.42347 340.4975,1634.91222 339.69,1635.42847 C338.33375,1636.29597 336.93,1637.19347 334.905,1637.19347 C334.7725,1637.19347 334.635,1637.18972 334.50125,1637.18222 C332.645,1637.07347 331.7775,1636.28222 330.67625,1635.28097 C330.09625,1634.75222 329.49875,1634.20597 328.72375,1633.75097 L328.7075,1633.74097 C327.03875,1632.79972 326.00375,1631.62972 325.93625,1630.60847 C325.905,1630.10097 326.12875,1629.66222 326.6075,1629.30347 C327.6475,1628.52347 328.34625,1628.01347 328.80625,1627.67597 C329.31875,1627.30097 329.4725,1627.18722 329.5875,1627.07847 C329.67,1627.00097 329.75875,1626.91472 329.855,1626.82222 C330.81,1625.89472 332.4075,1624.34097 334.86125,1624.34097 C336.36125,1624.34097 338.02,1624.91972 339.78875,1626.05597 C340.62125,1626.59847 341.34625,1626.84847 342.265,1627.16472 C342.89625,1627.38222 343.61125,1627.62972 344.56875,1628.03972 L344.58375,1628.04597 C345.48,1628.41597 346.535,1629.08597 346.48625,1630.19472 C346.48625,1630.19472 346.535,1629.08597 346.48625,1630.19472 L346.48625,1630.19472 L346.48625,1630.19472 Z M345.99375,1626.19472 C345.82125,1626.10972 345.645,1626.02597 345.4575,1625.95097 C344.595,1625.58097 343.90125,1625.33097 343.3275,1625.13097 C343.645,1624.50972 343.84125,1623.73597 343.86,1622.89472 L343.86,1622.89347 C343.90375,1620.84722 342.87375,1619.18597 341.555,1619.18347 C340.23875,1619.18097 339.135,1620.83472 339.09125,1622.88222 L339.09125,1622.88347 C339.09,1622.95097 339.09,1623.01597 339.09,1623.08347 C338.27875,1622.70972 337.48125,1622.43847 336.70125,1622.27222 C336.6975,1622.19472 336.69375,1622.11847 336.69125,1622.04097 L336.69125,1622.03847 C336.61375,1618.31097 338.9025,1615.22597 341.79875,1615.14597 C344.69375,1615.06847 347.105,1618.02472 347.18,1621.75222 L347.18,1621.75347 C347.215,1623.43972 346.76375,1624.99222 345.99375,1626.19472 C345.99375,1626.19472 346.76375,1624.99222 345.99375,1626.19472 L345.99375,1626.19472 L345.99375,1626.19472 Z" id="Shape"></path>
                </g>
            </g>
        </g>
    </g>
</svg>