<?xml version="1.0" encoding="UTF-8" standalone="no"?>
<svg width="147px" height="71px" viewBox="0 0 147 71" version="1.1" xmlns="http://www.w3.org/2000/svg" xmlns:xlink="http://www.w3.org/1999/xlink" xmlns:sketch="http://www.bohemiancoding.com/sketch/ns">
    <!-- Generator: Sketch 3.1.1 (8761) - http://www.bohemiancoding.com/sketch -->
    <title>Imported Layers</title>
    <desc>Created with Sketch.</desc>
    <defs></defs>
    <g id="Page-1" stroke="none" stroke-width="1" fill="none" fill-rule="evenodd" sketch:type="MSPage">
        <g id="Imported-Layers" sketch:type="MSLayerGroup">
            <path d="M145.097596,9.04180645 C145.085947,8.81341935 145.09216,8.59354839 145.117011,8.38296774 C145.141862,8.17316129 145.174479,7.95174194 145.213309,7.72103226 L146.153766,2.98141935 C145.879628,2.856 145.555787,2.77316129 145.183021,2.73290323 C144.810255,2.69264516 144.484862,2.68025806 144.208394,2.69419355 C143.273372,2.74296774 142.465713,2.9396129 141.783085,3.28412903 C141.101234,3.62864516 140.542085,4.06141935 140.106415,4.58167742 C139.670745,5.10270968 139.353894,5.68645161 139.155862,6.33445161 C138.958606,6.98245161 138.877064,7.63896774 138.912011,8.304 C138.933755,8.71122581 139.002096,9.08129032 139.117032,9.41419355 C139.232745,9.74632258 139.399713,10.0312258 139.617936,10.2689032 C139.83616,10.5065806 140.111074,10.6861935 140.441904,10.8085161 C140.771957,10.9308387 141.163362,10.9803871 141.61534,10.9563871 C142.16983,10.9277419 142.631904,10.803871 143.001564,10.5855484 C143.370447,10.3672258 143.663223,10.152 143.87834,9.94219355 C143.91717,10.0892903 143.965319,10.2286452 144.02434,10.3602581 C144.082585,10.491871 144.140053,10.6103226 144.197521,10.7171613 L145.450947,10.4725161 C145.334457,10.2092903 145.249032,9.96232258 145.195447,9.73083871 C145.142638,9.50012903 145.110021,9.27019355 145.097596,9.04180645 L145.097596,9.04180645 Z M143.80534,7.67535484 C143.774277,7.86580645 143.750979,8.05393548 143.73467,8.23896774 C143.719138,8.424 143.710596,8.60129032 143.709043,8.77083871 C143.495479,9.02090323 143.239202,9.24309677 142.940989,9.43819355 C142.642,9.63329032 142.277,9.74167742 141.845989,9.76412903 C141.558649,9.7796129 141.322564,9.73935484 141.136957,9.64412903 C140.952128,9.54967742 140.801468,9.42270968 140.684979,9.26477419 C140.568489,9.10683871 140.48384,8.92180645 140.431809,8.71045161 C140.379,8.49909677 140.347936,8.28929032 140.337064,8.08025806 C140.309106,7.55380645 140.372787,7.04516129 140.526553,6.55432258 C140.681096,6.06348387 140.915628,5.6276129 141.230149,5.24748387 C141.54467,4.86812903 141.932968,4.55612903 142.393489,4.31303226 C142.854011,4.06993548 143.377436,3.93290323 143.962213,3.90270968 C144.054628,3.89729032 144.160245,3.89729032 144.279064,3.9003871 C144.397883,3.90425806 144.483309,3.91509677 144.53534,3.93212903 L143.80534,7.67535484 L143.80534,7.67535484 Z" id="Fill-1" fill="#50E3C2" sketch:type="MSShapeGroup"></path>
            <path d="M135.547798,11.2885161 C134.778191,11.3287742 134.204287,11.1940645 133.828415,10.8851613 C133.450989,10.5762581 133.246745,10.1086452 133.213351,9.48309677 C133.192383,9.07587097 133.236649,8.55096774 133.346926,7.9076129 L134.646947,1.19225806 L136.127915,0.875612903 L135.653415,3.30580645 L138.379266,3.16335484 L138.14784,4.34090323 L135.421989,4.48335484 L134.754894,7.95406452 C134.656266,8.42709677 134.615883,8.83741935 134.634521,9.18503226 C134.651606,9.51251613 134.756447,9.744 134.949043,9.87793548 C135.140862,10.0126452 135.453053,10.0683871 135.884064,10.0459355 C136.182277,10.0304516 136.471947,9.96774194 136.754628,9.85858065 C137.037309,9.74941935 137.253202,9.65109677 137.403085,9.56283871 L137.57316,10.7341935 C137.423277,10.8317419 137.167,10.9424516 136.802777,11.0663226 C136.438553,11.1894194 136.019968,11.2637419 135.547798,11.2885161" id="Fill-2" fill="#50E3C2" sketch:type="MSShapeGroup"></path>
            <path d="M131.748691,4.53290323 C131.643851,4.30451613 131.492415,4.10554839 131.29283,3.93677419 C131.093245,3.768 130.840074,3.63948387 130.530989,3.55122581 C130.222681,3.46219355 129.858457,3.42890323 129.437543,3.45135484 C128.708319,3.48929032 128.063745,3.66967742 127.504596,3.99329032 C126.94467,4.31612903 126.477936,4.73651613 126.103617,5.25367742 C125.729298,5.77083871 125.451277,6.35845161 125.269553,7.01496774 C125.08783,7.67225806 125.015606,8.34812903 125.052106,9.04335484 C125.071521,9.4203871 125.152287,9.77496774 125.292851,10.1063226 C125.434191,10.4376774 125.639213,10.7233548 125.909468,10.9625806 C126.179723,11.2025806 126.508223,11.3845161 126.895745,11.5091613 C127.283266,11.6330323 127.739128,11.6818065 128.262553,11.6539355 C128.878394,11.6221935 129.411915,11.5316129 129.86234,11.3837419 C130.311989,11.235871 130.637383,11.1019355 130.836968,10.9819355 L130.652138,9.81135484 C130.593117,9.864 130.490606,9.92206452 130.344606,9.984 C130.198606,10.0467097 130.031638,10.1101935 129.844479,10.1744516 C129.657319,10.2394839 129.460064,10.2944516 129.25116,10.340129 C129.042255,10.3858065 128.84034,10.4136774 128.645415,10.4237419 C128.204309,10.4469677 127.844745,10.4214194 127.568277,10.3455484 C127.291032,10.2704516 127.072032,10.1605161 126.909723,10.0141935 C126.747415,9.86864516 126.633255,9.69522581 126.565691,9.49470968 C126.498904,9.29341935 126.459298,9.07896774 126.446872,8.85058065 L126.44066,8.73135484 C126.43833,8.68180645 126.439883,8.61754839 126.446096,8.53703226 C126.825074,8.49754839 127.226574,8.45419355 127.651372,8.40696774 C128.07617,8.35974194 128.494755,8.29083871 128.907128,8.19948387 C129.3195,8.10812903 129.714787,7.99277419 130.093766,7.85341935 C130.471968,7.71406452 130.799691,7.52825806 131.075383,7.29445161 C131.351851,7.06064516 131.568521,6.77806452 131.72617,6.44670968 C131.883819,6.11458065 131.94983,5.71509677 131.925755,5.24825806 C131.912553,4.99974194 131.853532,4.76129032 131.748691,4.53290323 L131.748691,4.53290323 Z M130.276266,6.33522581 C130.087553,6.57445161 129.818074,6.77032258 129.4655,6.92283871 C129.112926,7.07612903 128.692011,7.19225806 128.201979,7.27277419 C127.711947,7.35329032 127.169883,7.41909677 126.575011,7.47019355 C126.648787,7.10787097 126.7645,6.76025806 126.922149,6.42812903 C127.079798,6.09677419 127.2755,5.80258065 127.508479,5.54632258 C127.742234,5.29006452 128.011713,5.07948387 128.316915,4.91380645 C128.622894,4.74890323 128.955277,4.65677419 129.314064,4.63741935 C129.540053,4.62580645 129.731872,4.6436129 129.888745,4.69006452 C130.045617,4.73651613 130.169872,4.8 130.261511,4.87974194 C130.353149,4.95948387 130.41916,5.04851613 130.461096,5.14529032 C130.501479,5.24283871 130.524777,5.33651613 130.529436,5.42554839 C130.548851,5.79329032 130.464202,6.09677419 130.276266,6.33522581 L130.276266,6.33522581 Z" id="Fill-3" fill="#50E3C2" sketch:type="MSShapeGroup"></path>
            <path d="M123.493479,5.40464516 C123.368447,5.07329032 123.191383,4.79070968 122.963064,4.55845161 C122.734745,4.32696774 122.449734,4.14967742 122.108809,4.02812903 C121.767883,3.90658065 121.376479,3.85780645 120.934596,3.88025806 C120.585904,3.89883871 120.259734,3.96541935 119.956862,4.08077419 C119.653989,4.19612903 119.388394,4.33006452 119.159298,4.48103226 L119.959191,0.30116129 L118.477447,0.617806452 L116.330936,11.7847742 C116.46917,11.8567742 116.629149,11.9187097 116.811649,11.9682581 C116.994926,12.0185806 117.182085,12.0588387 117.373904,12.0882581 C117.5665,12.1184516 117.755213,12.1354839 117.940819,12.1409032 C118.126426,12.1463226 118.295723,12.1447742 118.450266,12.1370323 C119.384511,12.0882581 120.190617,11.8939355 120.867032,11.5548387 C121.544223,11.2157419 122.101043,10.7837419 122.536713,10.2580645 C122.972383,9.7323871 123.286128,9.14322581 123.478723,8.49058065 C123.670543,7.83793548 123.748979,7.16903226 123.712479,6.48387097 C123.692287,6.09677419 123.619287,5.73677419 123.493479,5.40464516 L123.493479,5.40464516 Z M122.097936,8.23432258 C121.943394,8.72516129 121.711968,9.16567742 121.402883,9.55509677 C121.094574,9.94451613 120.709383,10.2634839 120.248862,10.512 C119.78834,10.7597419 119.265691,10.8990968 118.680138,10.9300645 C118.546564,10.9370323 118.412989,10.9339355 118.277862,10.9207742 C118.143511,10.9083871 118.024691,10.8944516 117.920628,10.8797419 L118.903021,5.76464516 C119.160074,5.56180645 119.437319,5.4 119.733979,5.28 C120.032191,5.16 120.334287,5.09187097 120.642596,5.0756129 C120.950904,5.06012903 121.207181,5.09341935 121.412202,5.17780645 C121.617223,5.26141935 121.783415,5.37987097 121.91,5.5323871 C122.036585,5.68567742 122.128223,5.86451613 122.184915,6.07122581 C122.242383,6.27716129 122.276553,6.48929032 122.288202,6.7076129 C122.31616,7.23406452 122.252479,7.74270968 122.097936,8.23432258 L122.097936,8.23432258 Z" id="Fill-4" fill="#50E3C2" sketch:type="MSShapeGroup"></path>
            <path d="M143.163096,14.9117419 C142.131777,15.0224516 141.03134,15.2655484 139.861787,15.6394839 C139.499894,15.7618065 139.158968,15.9847742 138.839011,16.3091613 C138.51983,16.6335484 138.26666,16.8990968 138.080277,17.1050323 C137.89467,17.3117419 137.695085,17.6856774 137.482298,18.2260645 C137.269511,18.7664516 137.117298,19.1868387 137.024106,19.4872258 C136.931691,19.7868387 136.772489,20.3427097 136.547277,21.1540645 C136.32284,21.9646452 136.14966,22.584 136.029287,23.0113548 C135.111351,26.0926452 133.656787,29.232 131.666372,32.4286452 C129.675957,35.6252903 127.938713,37.3029677 126.453862,37.4632258 C125.670277,37.5476129 125.203543,36.8934194 125.052106,35.5014194 C124.768649,32.8807742 125.296734,29.5726452 126.637138,25.5754839 C127.977543,21.5790968 129.413468,18.7532903 130.944915,17.0972903 C131.165468,16.8247742 131.267202,16.6064516 131.24934,16.4423226 C131.231479,16.2789677 131.140617,16.2061935 130.975202,16.224 C128.789862,16.4593548 127.096106,16.9107097 125.896266,17.5780645 C124.695649,18.2461935 123.607638,19.5646452 122.632234,21.5334194 C121.874277,23.0624516 121.22116,24.9809032 120.672883,27.2864516 C117.910532,33.9135484 115.398245,37.3486452 113.136798,37.5917419 C112.394372,37.6722581 111.965691,37.179871 111.850755,36.1145806 C111.628649,34.0676129 112.264681,30.696 113.758851,25.9989677 C115.253021,21.3027097 116.620606,18.3282581 117.861606,17.0763871 L117.243436,17.1429677 L114.143266,17.4147097 C113.318521,17.5029677 112.469702,17.9465806 111.596032,18.7447742 C110.723138,19.5429677 110.110404,20.4371613 109.758606,21.428129 C109.246053,20.1576774 108.379372,19.2882581 107.160117,18.8183226 C105.941638,18.3491613 104.671904,18.1858065 103.351691,18.3274839 C100.547404,18.6294194 98.0817128,19.9409032 95.954617,22.2619355 C93.8275213,24.5821935 92.2952979,27.2849032 91.3563936,30.3677419 C91.3385319,30.428129 91.3198936,30.4877419 91.3028085,30.5473548 C91.1575851,30.8593548 90.9999362,31.2015484 90.8298617,31.5739355 C89.7845638,33.8616774 88.9598191,35.4929032 88.3556277,36.4691613 C87.2551915,38.2451613 85.9008085,39.9027097 84.2948085,41.4425806 C82.6880319,42.9824516 81.0393191,43.8433548 79.3478936,44.0252903 L78.8532021,44.0787097 C81.3390851,41.9883871 83.3939574,39.1989677 85.0193723,35.7104516 C86.6440106,32.2219355 87.2878085,28.9215484 86.950766,25.8092903 C86.5430532,22.0428387 84.9572447,20.307871 82.194117,20.6051613 C79.2655745,20.9202581 76.1584149,23.8234839 72.8726383,29.3132903 C74.4918404,24.9971613 75.854766,22.3649032 76.9621915,21.4172903 L75.1061277,21.6170323 C72.6722766,21.8787097 71.0142447,22.5545806 70.1304787,23.643871 C69.6932553,24.2291613 69.086734,25.848 68.3093617,28.4996129 C68.0313404,29.4503226 67.6577979,30.843871 67.1879574,32.6794839 C65.732617,36.0123871 63.9984787,37.7868387 61.9855426,38.0036129 C60.8307447,38.1282581 59.8972766,37.7938065 59.1851383,37.0002581 C59.8165106,34.7372903 60.0254149,32.6229677 59.8126277,30.6572903 C59.2534787,25.4980645 56.5206383,23.1824516 51.6125532,23.7112258 C48.6840106,24.0263226 46.1406596,25.2944516 43.9817234,27.5148387 C42.6793723,28.8549677 41.613883,30.3112258 40.7767128,31.8797419 C40.7844787,31.8642581 40.7906915,31.8449032 40.7984574,31.8301935 C38.8173617,35.5339355 35.3855851,41.9938065 31.0708191,45.6890323 C26.7560532,49.3850323 22.5158404,51.4567742 18.3501809,51.9050323 C11.6683511,52.6242581 7.93292553,49.340129 7.14390426,42.051871 C6.63368085,37.3432258 7.35824468,32.5741935 9.31759574,27.7447742 C11.2777234,22.9145806 14.1022021,18.8516129 17.7925851,15.5550968 C21.4821915,12.2578065 25.4311809,10.3834839 29.638,9.93058065 C32.8135,9.5883871 34.5297766,10.6049032 34.7876064,12.9793548 C34.9561277,14.5354839 34.4195,15.939871 33.1785,17.1917419 C31.9367234,18.4436129 30.5124468,19.155871 28.9033404,19.3292903 C28.3263298,19.3912258 27.8021277,19.3649032 27.330734,19.2503226 C26.9105957,19.9997419 26.7343085,20.6810323 26.8010957,21.2957419 C26.8671064,21.9096774 27.2103617,22.3803871 27.8300851,22.7070968 C28.4498085,23.0338065 29.2132021,23.1483871 30.120266,23.0508387 C32.0586489,22.8418065 33.8626809,22.0676129 35.5331383,20.7282581 C37.2028191,19.3889032 38.2768511,17.8436129 38.755234,16.0939355 C38.9874362,15.1579355 39.0635426,14.3210323 38.9835532,13.584 C38.7661064,11.5780645 37.5771383,10.0389677 35.4166489,8.96670968 C33.2561596,7.89445161 30.2786915,7.56232258 26.4842447,7.97109677 C22.6897979,8.37909677 18.9543723,9.81677419 15.2787447,12.284129 C11.603117,14.7507097 8.63807447,17.7104516 6.38284043,21.1633548 C4.12838298,24.6162581 2.43928723,28.2781935 1.314,32.1476129 C0.189489362,36.0178065 -0.188712766,39.651871 0.179393617,43.0498065 C1.15091489,52.0172903 6.48224468,55.9788387 16.1749362,54.9352258 C20.3405957,54.4869677 24.3361809,53.2389677 28.1616915,51.1904516 C31.9872021,49.1427097 35.0718404,46.6149677 37.416383,43.608 C37.7953617,43.1233548 38.1277447,42.6588387 38.4399362,42.2036129 C38.4562447,42.5496774 38.4810957,42.8926452 38.5183723,43.2325161 C38.795617,45.792 39.6514255,47.6260645 41.0857979,48.7347097 C42.5201702,49.844129 44.2682872,50.2869677 46.3309255,50.0655484 C49.5475851,49.7187097 52.0862766,48.5969032 53.9454468,46.6978065 C55.8053936,44.7994839 57.3205319,42.3166452 58.4900851,39.2500645 C59.564117,39.9212903 60.7919149,40.1821935 62.1734787,40.0335484 C63.3632234,39.9058065 64.5770426,39.2910968 65.8164894,38.1909677 C65.2146277,40.6529032 64.5265638,43.5197419 63.7507447,46.7922581 C61.4885213,56.3349677 59.9050426,61.9416774 59.0010851,63.6131613 L61.9707872,63.2934194 C62.7955319,63.2051613 63.4649574,63.0294194 63.9790638,62.7669677 C64.4931702,62.5045161 64.9280638,61.992 65.2829681,61.2286452 C65.6386489,60.4652903 66.0983936,58.8317419 66.6614255,56.3264516 L68.9617021,45.2059355 C69.6738404,47.1584516 72.0098404,47.9225806 75.9689255,47.496 C79.9287872,47.0694194 83.216117,45.452129 85.8324681,42.644129 C87.446234,40.9122581 88.9404043,38.8072258 90.3142021,36.3290323 C90.2753723,37.3292903 90.308766,38.3171613 90.414383,39.2926452 C90.8220957,43.059871 92.4079043,44.7940645 95.1710319,44.4967742 C99.1720532,44.0663226 103.075223,39.4621935 106.881319,30.6851613 C106.281011,33.2353548 106.118702,35.7793548 106.393617,38.3179355 C106.761723,41.7166452 108.059415,43.296 110.286691,43.056 C113.150777,42.747871 116.271138,39.4103226 119.647,33.0449032 C119.473819,34.563871 119.434989,35.8196129 119.529734,36.8105806 C119.693596,38.5122581 120.152564,39.7672258 120.908191,40.5762581 C121.663819,41.3860645 122.587191,41.7313548 123.680638,41.6136774 C124.773309,41.496 125.70833,41.2714839 126.486479,40.9393548 C127.263851,40.6072258 128.299053,39.7602581 129.591309,38.3992258 C130.882787,37.0381935 132.367638,35.0454194 134.044309,32.4209032 L131.528915,42.1362581 C129.9035,48.3174194 127.420723,51.5876129 124.079809,51.9476129 C123.213904,52.0405161 122.476915,51.8818065 121.86884,51.4707097 C121.261543,51.0596129 120.915181,50.4658065 120.831309,49.6877419 C120.67133,48.2136774 120.949351,47.3132903 121.665372,46.988129 C121.414532,46.6010323 121.023904,46.2696774 120.493489,45.9956129 C119.963074,45.7215484 119.337138,45.6232258 118.615681,45.7006452 C117.893447,45.7788387 117.293138,46.2054194 116.813979,46.9819355 C116.334819,47.7584516 116.143777,48.5976774 116.241628,49.4980645 C116.428011,51.2175484 117.296245,52.3981935 118.847106,53.0392258 C120.397968,53.6794839 122.20433,53.8892903 124.266191,53.6670968 C126.32883,53.4449032 128.316138,52.7233548 130.228117,51.5032258 C132.140096,50.2823226 133.686298,48.7594839 134.86517,46.9339355 C136.044819,45.1083871 136.994596,42.7076129 137.715277,39.7300645 C137.983979,38.7483871 138.323351,37.3556129 138.733394,35.5509677 C139.14266,33.7463226 139.405149,32.6098065 139.521638,32.1421935 C139.638128,31.6738065 139.952649,30.3452903 140.466755,28.1566452 C140.980862,25.968 141.634755,23.5261935 142.42766,20.8312258 C143.414713,17.6183226 144.505053,15.5543226 145.699457,14.6384516 L143.163096,14.9117419 L143.163096,14.9117419 Z M56.3544468,29.352 C55.3231277,29.4627097 54.5442021,29.8784516 54.0168936,30.5976774 C53.4895851,31.3169032 53.286117,32.2296774 53.4057128,33.3352258 C53.6006383,35.1367742 54.4642128,36.555871 55.994883,37.5925161 C55.2074149,39.9553548 54.162117,42.1494194 52.8589894,44.1739355 C51.5550851,46.1992258 50.0166489,47.3070968 48.2429043,47.4983226 C46.0855213,47.6059355 44.8732553,46.4322581 44.606883,43.9757419 C44.3405106,41.5184516 44.7862766,38.6957419 45.9426277,35.5052903 C48.0705,29.7259355 50.5571596,26.6825806 53.403383,26.3767742 C55.2175106,26.1809032 56.3249362,27.1594839 56.724883,29.3117419 L56.3544468,29.352 L56.3544468,29.352 Z M72.0882766,45.1796129 C70.8923191,45.3089032 70.1895,44.4108387 69.9813723,42.4861935 C69.7724681,40.5615484 70.452766,37.9827097 72.022266,34.748129 C73.5909894,31.5143226 75.1503936,29.1514839 76.6989255,27.6588387 C77.6417128,26.7290323 78.5456702,26.2172903 79.4123511,26.1243871 C79.6593085,26.0972903 79.8472447,26.0980645 79.975383,26.1259355 C80.6114149,26.2227097 80.985734,26.7832258 81.0960106,27.8067097 C81.3538404,30.1811613 80.4529894,33.6131613 78.3934574,38.1011613 C76.3347021,42.5891613 74.2324574,44.9489032 72.0882766,45.1796129 L72.0882766,45.1796129 Z M104.906436,31.5189677 C103.946564,33.4451613 102.816617,35.1507097 101.517372,36.6371613 C100.218128,38.1236129 99.032266,38.924129 97.9597872,39.0394839 C96.9704043,39.1463226 96.4065957,38.5649032 96.2691383,37.2952258 C95.9491809,34.3470968 96.8655638,30.8624516 99.016734,26.8405161 C101.167904,22.8185806 103.604862,20.6616774 106.32683,20.3682581 C107.85284,20.204129 108.893479,20.7545806 109.447191,22.0211613 C108.542457,24.0650323 107.028872,27.2307097 104.906436,31.5189677 L104.906436,31.5189677 Z" id="Fill-5" fill="#FFFFFF" sketch:type="MSShapeGroup"></path>
            <path d="M19.1190106,70.9145806 L19.1236702,70.9246452 C19.1228936,70.9207742 19.1213404,70.9176774 19.1197872,70.9145806 L19.1190106,70.9145806" id="Fill-6" fill="#FFFFFF" sketch:type="MSShapeGroup"></path>
            <path d="M58.7121915,53.376 C44.6651277,55.7713548 31.1857553,59.1375484 21.6670213,63.024 C17.6993936,64.6443871 16.6975851,67.8750968 17.9455745,70.9246452 C34.1096383,63.579871 42.117117,61.508129 53.9174894,58.584 C56.0096383,58.0660645 57.6754362,56.5014194 58.3518511,54.4614194 C58.4737766,54.0944516 58.5949255,53.7298065 58.7121915,53.376" id="Fill-7" fill="#FFFFFF" sketch:type="MSShapeGroup"></path>
            <path d="M111.28384,51.7827097 C111.702426,50.0291613 111.223266,49.9602581 109.433213,49.700129 C99.6325745,48.2756129 88.848766,48.3870968 75.8741809,51.1556129 C73.6880638,51.6216774 71.8902447,53.1460645 71.5469894,55.3486452 C71.5469894,55.3486452 87.8461809,50.0090323 111.28384,51.7827097" id="Fill-8" fill="#FFFFFF" sketch:type="MSShapeGroup"></path>
        </g>
    </g>
</svg>