<?xml version="1.0" encoding="UTF-8" standalone="no"?>
<svg width="107px" height="24px" viewBox="0 0 107 24" version="1.1" xmlns="http://www.w3.org/2000/svg" xmlns:xlink="http://www.w3.org/1999/xlink" xmlns:sketch="http://www.bohemiancoding.com/sketch/ns">
    <!-- Generator: Sketch 3.0.2 (7799) - http://www.bohemiancoding.com/sketch -->
    <title>Group copy 5 + Group copy 2 + bitcore 2</title>
    <description>Created with Sketch.</description>
    <defs>
        <linearGradient x1="15.2309634%" y1="37.2440314%" x2="136.882932%" y2="24.3752426%" id="linearGradient-1">
            <stop stop-color="#F4F4F4" offset="0%"></stop>
            <stop stop-color="#CACACA" offset="77.2868673%"></stop>
            <stop stop-color="#BEBEBE" offset="100%"></stop>
        </linearGradient>
    </defs>
    <g id="Page-1-Copy" stroke="none" stroke-width="1" fill="none" fill-rule="evenodd" sketch:type="MSPage">
        <g id="Artboard-1" sketch:type="MSArtboardGroup" transform="translate(-576.000000, -687.000000)">
            <g id="Group-copy-5-+-Group-copy-2-+-bitcore-2" sketch:type="MSLayerGroup" transform="translate(576.000000, 687.000000)">
                <g id="Group-copy-5-+-Group-copy-2" sketch:type="MSShapeGroup">
                    <g id="Group-copy" transform="translate(0.023540, 0.000000)">
                        <path d="M12.4764595,23.5778488 C19.3277372,23.5778488 24.8817946,17.8625254 24.8817946,10.8123159 C24.8817946,6.59822563 23.4991328,4.26770823 22.2804055,2.96572361 C21.0616783,1.66373902 16.1655844,0.172045287 12.287472,0.172044735 C8.89881459,0.172044252 7.63647279,0.0189987938 5.13715313,1.0019282 C2.63783335,1.98485735 0.0711244052,6.24028018 0.0711244052,10.8123159 C0.0711244052,17.8625254 5.62518178,23.5778488 12.4764595,23.5778488 Z" id="Oval-6" stroke="#DEDEDE" stroke-width="0.2" fill="#FFFFFF"></path>
                        <path d="M3.18195601,2.33546372 C3.18195601,2.33546372 4.83726237,-0.350222885 12.9400139,0.0420550321 C21.0427655,0.434332962 22.4333732,3.14515887 22.4333732,3.14515887 L22.7704647,5.81294066 L22.4333732,8.97366672 L21.6026672,12.6988179 L21.0761189,14.1508047 L12.1820266,9.93937969 L8.5606864,7.60571728 L5.44163598,5.08741496 L3.83037627,3.39107803 L3.18195601,2.33546372 Z" id="Path-133" stroke="#E7E7E7" stroke-width="0.2" fill="url(#linearGradient-1)"></path>
                        <path d="M7.56747819,2.3913009 L6.2396086,4.51511818 L5.69713771,5.53768499 L13.2883307,11.0283325 L21.068912,13.4730565 C21.068912,13.4730565 21.8241155,10.6586272 22.1420402,8.31151608 C22.2907116,7.21393524 22.3218817,6.15896721 22.3285988,5.62029946 C22.3447521,4.32489662 20.7117697,3.08574948 20.7117697,3.08574948 L20.854821,7.26864572 L20.0130377,11.7610652 L14.7459785,9.00671251 L11.2008004,6.79334474 L7.99761709,4.35816983 L7.63192334,3.43019111 L7.56747819,2.3913009 Z" id="Path" opacity="0.8" fill="#E0E0E0"></path>
                        <path d="M2.00897344,4.01283197 C2.43438922,3.24307399 3.24621181,2.38473948 3.24621181,2.38473948 C3.24621181,2.38473948 5.86189458,6.60063872 13.3773959,10.1665747 C20.8928979,13.7325102 20.8928979,13.4414944 20.8928979,13.4414944 C20.8928979,13.4414944 21.4332136,11.8835406 21.9745345,9.33448753 C22.5158554,6.78543449 22.30541,3.17035745 22.30541,3.17035745 C22.30541,3.17035745 22.8398314,3.70010887 23.2922942,4.43919028 C23.7447568,5.1782717 23.9830378,5.94610452 23.9830378,5.94610452 C23.9830378,5.94610452 24.4564969,7.58161018 23.4100638,10.3512623 C22.363631,13.1209145 21.4356876,14.7236917 21.4356876,14.7236917 C21.4356876,14.7236917 14.9007473,12.8644039 11.2681907,11.3534739 C7.63563415,9.84254392 3.21039412,7.51202135 2.13632906,5.67970846 C1.62322966,4.80438098 1.58355766,4.78258995 2.00897344,4.01283197 Z" id="Path-131" stroke="#EEEEEE" stroke-width="0.2" fill="#F4F4F4"></path>
                        <path d="M7.62790026,2.32471649 C7.62790026,2.32471649 10.4683651,1.7573075 13.9838286,2.02781878 C17.499292,2.29832993 19.0802873,2.51541464 20.4600765,3.57711186 C21.8398658,4.63880908 20.015414,12.0746929 20.015414,12.0746929 C20.015414,12.0746929 14.468397,9.22642572 12.4530108,7.86370303 C10.4376246,6.50098029 8.37337216,4.92990366 7.59784103,4.02878114 C6.82230988,3.12765862 7.62790026,2.32471649 7.62790026,2.32471649 Z" id="Path-132" fill="#D5D5D5"></path>
                        <path d="M7.79632637,2.19060129 C7.79632637,2.19060129 9.15609457,1.21808254 12.4320718,1.343267 C15.7080491,1.46845118 19.2787726,1.87763322 20.6585619,2.93933044 C22.0383512,4.00102767 20.1490285,11.452098 20.1490285,11.452098 C20.1490285,11.452098 14.6737092,8.58331173 12.6986075,7.25519572 C10.7235061,5.92707953 8.57185752,4.29212224 7.79632639,3.39099972 C7.02079524,2.4898772 7.79632637,2.19060129 7.79632637,2.19060129 Z" id="Path-132" fill="#FFFFFF"></path>
                        <path d="M12.3696727,19.7139115 C13.0885881,18.4482468 12.9163952,18.3357389 11.8891944,19.3837618 C11.8891944,19.3837618 12.0415757,19.6766637 9.55689351,21.162352 C7.07221132,22.6480403 7.66605483,22.1990375 7.66605483,22.1990375 C6.32842401,22.7749561 6.40864153,23.0287606 7.823409,22.6756118 C7.823409,22.6756118 8.07777128,22.852392 10.1889244,21.7714571 C12.3000776,20.6905222 12.3696727,19.7139115 12.3696727,19.7139115 Z" id="Path-116" fill-opacity="0.233800551" fill="#D8D8D8" transform="translate(9.450961, 20.475990) rotate(50.000000) translate(-9.450961, -20.475990) "></path>
                    </g>
                </g>
                <path d="M43.218,8.186 C43.9220035,8.186 44.5306641,8.31066542 45.044,8.56 C45.5573359,8.80933458 45.982665,9.14666454 46.32,9.572 C46.657335,9.99733546 46.9066659,10.4959971 47.068,11.068 C47.2293341,11.6400029 47.31,12.2559967 47.31,12.916 C47.31,13.9280051 47.1230019,14.8849955 46.749,15.787 C46.3749981,16.6890045 45.8653366,17.4736633 45.22,18.141 C44.5746634,18.8083367 43.8120044,19.3363314 42.932,19.725 C42.0519956,20.1136686 41.0986718,20.308 40.072,20.308 C39.9399993,20.308 39.7090017,20.3043334 39.379,20.297 C39.0489984,20.2896666 38.6713355,20.256667 38.246,20.198 C37.8206645,20.139333 37.369669,20.0513339 36.893,19.934 C36.4163309,19.8166661 35.9653355,19.6553344 35.54,19.45 L39.346,3.456 L42.756,2.928 L41.392,8.604 C41.6853348,8.47199934 41.9786652,8.3693337 42.272,8.296 C42.5653348,8.2226663 42.880665,8.186 43.218,8.186 Z M40.358,17.602 C40.8713359,17.602 41.3553311,17.4773346 41.81,17.228 C42.2646689,16.9786654 42.6569983,16.6450021 42.987,16.227 C43.3170016,15.8089979 43.5773324,15.3360026 43.768,14.808 C43.9586676,14.2799974 44.054,13.7300029 44.054,13.158 C44.054,12.4539965 43.9366678,11.904002 43.702,11.508 C43.4673322,11.111998 43.0346698,10.914 42.404,10.914 C42.1986656,10.914 41.9310016,10.9506663 41.601,11.024 C41.2709984,11.0973337 40.9740013,11.2513322 40.71,11.486 L39.258,17.514 C39.3460004,17.5286667 39.4229997,17.5433333 39.489,17.558 C39.5550003,17.5726667 39.6246663,17.5836666 39.698,17.591 C39.7713337,17.5983334 39.8593328,17.602 39.962,17.602 L40.358,17.602 Z M51.446,20 L48.19,20 L50.94,8.428 L54.218,8.428 L51.446,20 Z M53.03,7.02 C52.5753311,7.02 52.1646685,6.88433469 51.798,6.613 C51.4313315,6.34166531 51.248,5.92733612 51.248,5.37 C51.248,5.06199846 51.3103327,4.77233469 51.435,4.501 C51.5596673,4.22966531 51.7246656,3.99500099 51.93,3.797 C52.1353344,3.59899901 52.3736653,3.44133392 52.645,3.324 C52.9163347,3.20666608 53.2059985,3.148 53.514,3.148 C53.9686689,3.148 54.3793315,3.28366531 54.746,3.555 C55.1126685,3.82633469 55.296,4.24066388 55.296,4.798 C55.296,5.10600154 55.2336673,5.39566531 55.109,5.667 C54.9843327,5.93833469 54.8193344,6.17299901 54.614,6.371 C54.4086656,6.56900099 54.1703347,6.72666608 53.899,6.844 C53.6276653,6.96133392 53.3380015,7.02 53.03,7.02 Z M57.562,5.546 L60.972,5.018 L60.136,8.428 L63.788,8.428 L63.128,11.112 L59.498,11.112 L58.53,15.16 C58.4419996,15.497335 58.3870001,15.8126652 58.365,16.106 C58.3429999,16.3993348 58.3796662,16.6523323 58.475,16.865 C58.5703338,17.0776677 58.7353322,17.2426661 58.97,17.36 C59.2046678,17.4773339 59.5273313,17.536 59.938,17.536 C60.2900018,17.536 60.6309984,17.5030003 60.961,17.437 C61.2910016,17.3709997 61.624665,17.2793339 61.962,17.162 L62.204,19.67 C61.7639978,19.8313341 61.2873359,19.9706661 60.774,20.088 C60.2606641,20.2053339 59.6520035,20.264 58.948,20.264 C57.9359949,20.264 57.1513361,20.1136682 56.594,19.813 C56.0366639,19.5123318 55.6406678,19.1016693 55.406,18.581 C55.1713322,18.0603307 55.0686665,17.46267 55.098,16.788 C55.1273335,16.11333 55.2299991,15.4020037 55.406,14.654 L57.562,5.546 Z M63.898,15.38 C63.898,14.3826617 64.0593317,13.4440044 64.382,12.564 C64.7046683,11.6839956 65.1666637,10.9140033 65.768,10.254 C66.3693363,9.5939967 67.0989957,9.07333524 67.957,8.692 C68.8150043,8.31066476 69.7719947,8.12 70.828,8.12 C71.4880033,8.12 72.0783307,8.18233271 72.599,8.307 C73.1196693,8.43166729 73.5926645,8.59666564 74.018,8.802 L72.896,11.354 C72.6026652,11.2366661 72.2983349,11.1303338 71.983,11.035 C71.6676651,10.9396662 71.2826689,10.892 70.828,10.892 C69.7279945,10.892 68.8626698,11.2623296 68.232,12.003 C67.6013302,12.7436704 67.286,13.7519936 67.286,15.028 C67.286,15.7760037 67.4473317,16.3809977 67.77,16.843 C68.0926683,17.3050023 68.6866623,17.536 69.552,17.536 C69.9773355,17.536 70.387998,17.4920004 70.784,17.404 C71.180002,17.3159996 71.5319985,17.2060007 71.84,17.074 L72.082,19.692 C71.6713313,19.8533341 71.2203358,19.9963327 70.729,20.121 C70.2376642,20.2456673 69.6400035,20.308 68.936,20.308 C68.0266621,20.308 67.2566698,20.1760013 66.626,19.912 C65.9953302,19.6479987 65.4746687,19.2923356 65.064,18.845 C64.6533313,18.3976644 64.3563343,17.8733363 64.173,17.272 C63.9896657,16.6706637 63.898,16.0400033 63.898,15.38 Z M78.484,20.308 C77.7066628,20.308 77.0320029,20.1906678 76.46,19.956 C75.8879971,19.7213322 75.4150019,19.3913355 75.041,18.966 C74.6669981,18.5406645 74.3846676,18.0383362 74.194,17.459 C74.0033324,16.8796638 73.908,16.2380035 73.908,15.534 C73.908,14.6539956 74.0509986,13.7740044 74.337,12.894 C74.6230014,12.0139956 75.0446639,11.2220035 75.602,10.518 C76.1593361,9.81399648 76.8413293,9.23833557 77.648,8.791 C78.4546707,8.34366443 79.3786615,8.12 80.42,8.12 C81.1826705,8.12 81.8536638,8.23733216 82.433,8.472 C83.0123362,8.70666784 83.4889981,9.03666454 83.863,9.462 C84.2370019,9.88733546 84.5193324,10.3896638 84.71,10.969 C84.9006676,11.5483362 84.996,12.1899965 84.996,12.894 C84.996,13.7740044 84.8566681,14.6539956 84.578,15.534 C84.2993319,16.4140044 83.8886694,17.2059965 83.346,17.91 C82.8033306,18.6140035 82.1250041,19.1896644 81.311,19.637 C80.4969959,20.0843356 79.554672,20.308 78.484,20.308 Z M80.112,10.892 C79.6279976,10.892 79.2026685,11.0313319 78.836,11.31 C78.4693315,11.5886681 78.1613346,11.9406645 77.912,12.366 C77.6626654,12.7913355 77.4756673,13.2569975 77.351,13.763 C77.2263327,14.2690025 77.164,14.7493311 77.164,15.204 C77.164,15.9520037 77.2813322,16.5276647 77.516,16.931 C77.7506678,17.3343353 78.1759969,17.536 78.792,17.536 C79.2760024,17.536 79.7013315,17.3966681 80.068,17.118 C80.4346685,16.8393319 80.7426654,16.4873355 80.992,16.062 C81.2413346,15.6366645 81.4283327,15.1710025 81.553,14.665 C81.6776673,14.1589975 81.74,13.6786689 81.74,13.224 C81.74,12.4759963 81.6226678,11.9003353 81.388,11.497 C81.1533322,11.0936647 80.7280031,10.892 80.112,10.892 Z M94.72,11.244 C94.4266652,11.1706663 94.1370014,11.1010003 93.851,11.035 C93.5649986,10.9689997 93.1433361,10.936 92.586,10.936 C92.3806656,10.936 92.1533346,10.9543332 91.904,10.991 C91.6546654,11.0276668 91.4493341,11.0679998 91.288,11.112 L89.154,20 L85.876,20 L88.516,9.044 C89.1466698,8.83866564 89.8543294,8.64433425 90.639,8.461 C91.4236706,8.27766575 92.3073284,8.186 93.29,8.186 C93.6566685,8.186 94.0636644,8.21899967 94.511,8.285 C94.9583356,8.35100033 95.350665,8.4573326 95.688,8.604 L94.72,11.244 Z M95.468,15.468 C95.468,14.5293286 95.6329983,13.6200044 95.963,12.74 C96.2930016,11.8599956 96.7586637,11.0790034 97.36,10.397 C97.9613363,9.71499659 98.6909957,9.16500209 99.549,8.747 C100.407004,8.32899791 101.356661,8.12 102.398,8.12 C102.911336,8.12 103.387998,8.1933326 103.828,8.34 C104.268002,8.4866674 104.652998,8.69933194 104.983,8.978 C105.313002,9.25666806 105.569666,9.59766465 105.753,10.001 C105.936334,10.4043353 106.028,10.8626641 106.028,11.376 C106.028,12.1973374 105.844669,12.8939971 105.478,13.466 C105.111332,14.0380029 104.60167,14.5036649 103.949,14.863 C103.29633,15.2223351 102.522671,15.4826659 101.628,15.644 C100.733329,15.8053341 99.7580053,15.886 98.702,15.886 C98.8046672,16.5020031 99.0283316,16.938332 99.373,17.195 C99.7176684,17.451668 100.263996,17.58 101.012,17.58 C101.481336,17.58 101.957998,17.5396671 102.442,17.459 C102.926002,17.3783329 103.380665,17.2573341 103.806,17.096 L104.048,19.67 C103.637331,19.8313341 103.113003,19.9779993 102.475,20.11 C101.836997,20.2420007 101.144004,20.308 100.396,20.308 C99.4866621,20.308 98.7203364,20.1796679 98.097,19.923 C97.4736635,19.6663321 96.9676686,19.3180022 96.579,18.878 C96.1903314,18.4379978 95.9080009,17.9246696 95.732,17.338 C95.5559991,16.7513304 95.468,16.1280033 95.468,15.468 Z M101.87,10.716 C101.121996,10.716 100.465669,10.983664 99.901,11.519 C99.3363305,12.054336 98.9660009,12.7619956 98.79,13.642 C99.6993379,13.6126665 100.432664,13.5356673 100.99,13.411 C101.547336,13.2863327 101.979998,13.1360009 102.288,12.96 C102.596002,12.7839991 102.801333,12.5933344 102.904,12.388 C103.006667,12.1826656 103.058,11.9773344 103.058,11.772 C103.058,11.0679965 102.662004,10.716 101.87,10.716 Z" id="bitcore-2" fill="#FFFFFF" sketch:type="MSShapeGroup"></path>
            </g>
        </g>
    </g>
</svg>