<?xml version="1.0" encoding="UTF-8" standalone="no"?>
<svg width="356px" height="156px" viewBox="0 0 356 156" version="1.1" xmlns="http://www.w3.org/2000/svg" xmlns:xlink="http://www.w3.org/1999/xlink" xmlns:sketch="http://www.bohemiancoding.com/sketch/ns">
    <!-- Generator: Sketch 3.1.1 (8761) - http://www.bohemiancoding.com/sketch -->
    <title>Artboard 1</title>
    <desc>Created with Sketch.</desc>
    <defs></defs>
    <g id="Page-1" stroke="none" stroke-width="1" fill="none" fill-rule="evenodd" sketch:type="MSPage">
        <g id="Artboard-1" sketch:type="MSArtboardGroup" fill="#000000">
            <g id="Shape-+-Group-+-Shape" sketch:type="MSLayerGroup" transform="translate(3.000000, 2.000000)">
                <path d="M345.60395,17.3834625 C343.107745,17.6655752 340.470246,18.2298007 337.644354,19.1231577 C336.749488,19.4052704 335.948818,19.9694959 335.195247,20.7217965 C334.441675,21.5211159 333.829399,22.1323601 333.358417,22.6495668 C332.887435,23.1667735 332.416453,24.0601305 331.898372,25.3766566 C331.380292,26.6931827 331.003506,27.6805772 330.768015,28.4328778 C330.532524,29.1381597 330.155739,30.5017045 329.637658,32.4764937 C329.07248,34.4512828 328.695694,35.955884 328.366007,36.9902974 C326.152391,44.4662848 322.620026,52.0363098 317.816009,59.7944099 C313.011991,67.5525101 308.820251,71.5961259 305.240787,71.9722762 C303.356859,72.1603514 302.226502,70.6087314 301.849717,67.2233786 C301.143243,60.8758421 302.461993,52.882648 305.664671,43.1967775 C308.914448,33.510907 312.352617,26.6931827 316.073375,22.6965856 C316.591455,22.0383226 316.874044,21.5211159 316.826946,21.0979468 C316.779848,20.7217965 316.544357,20.5337213 316.167571,20.5807401 C310.892572,21.1449656 306.795028,22.2263977 303.874939,23.8720553 C300.954851,25.4706941 298.364449,28.6679718 295.962441,33.4638882 C294.125611,37.1783726 292.57137,41.7862139 291.205522,47.3814497 C284.517577,63.4148567 278.441908,71.7371823 272.978516,72.3014078 C271.188784,72.4894829 270.152624,71.3140132 269.870034,68.7279798 C269.351954,63.791007 270.859097,55.6097377 274.485659,44.2311909 C278.11222,32.852644 281.409095,25.6587693 284.42338,22.6495668 L282.916237,22.7906232 L275.427623,23.4488862 C273.449498,23.6839802 271.377177,24.7183935 269.257758,26.6461639 C267.138338,28.5739342 265.678294,30.7367985 264.830526,33.1347567 C263.605973,30.0785354 261.486554,27.96269 258.566465,26.834239 C255.599278,25.7057881 252.537894,25.282619 249.382314,25.6587693 C242.600173,26.4110699 236.665799,29.5613288 231.484996,35.2035834 C226.351291,40.7988193 222.630533,47.3814497 220.369819,54.8104183 C220.322721,54.9514747 220.275623,55.0925311 220.228525,55.2335874 C219.898837,55.9858881 219.474953,56.8322263 219.098168,57.7255832 C216.554864,63.2738003 214.57674,67.2233786 213.116695,69.574318 C210.432098,73.8530278 207.182321,77.8966436 203.320268,81.6111279 C199.458215,85.3256123 195.454868,87.4414577 191.357324,87.8646268 L190.179869,88.0056832 C196.208439,82.927654 201.153751,76.2039672 205.062902,67.7405853 C208.972053,59.2772033 210.526294,51.331028 209.725624,43.761003 C208.736562,34.639358 204.921607,30.4546858 198.233662,31.1599676 C191.168931,31.9122682 183.633218,38.9650865 175.720719,52.224385 C179.62987,41.7862139 182.926745,35.3916586 185.611343,33.1347567 L181.137013,33.6049446 C175.249737,34.2161889 171.24639,35.8618465 169.12697,38.4948986 C168.09081,39.9054623 166.583667,43.8080218 164.746837,50.2495958 C164.087462,52.5535165 163.192596,55.9388693 162.015141,60.3586354 C158.482776,68.4458671 154.291035,72.7245769 149.43992,73.2417835 C146.661126,73.5238963 144.400412,72.7245769 142.657778,70.7968065 C144.164921,65.2956082 144.683001,60.217579 144.164921,55.4216626 C142.799073,42.9146648 136.205324,37.3194289 124.336576,38.5889362 C117.271845,39.3412368 111.10198,42.3974581 105.874079,47.8046188 C102.718499,51.0489152 100.128098,54.5753244 98.1499731,58.3838463 C98.1499731,58.3368275 98.1970713,58.2898087 98.1970713,58.2427899 C93.3930543,67.2233786 85.1037699,82.8336164 74.6950663,91.7671863 C64.2863626,100.700756 54.0189536,105.731767 43.9399374,106.813199 C27.7852525,108.552894 18.7423969,100.606719 16.8584686,82.9746728 C15.6339152,71.5961259 17.3765489,60.0295039 22.1334677,48.3688443 C26.8903866,36.6611659 33.7196265,26.834239 42.6211876,18.8880637 C51.5227486,10.9418884 61.0836846,6.38106591 71.2568972,5.25261497 C78.9339048,4.40627678 83.078547,6.89827258 83.6908237,12.6345648 C84.1147076,16.3960679 82.7959578,19.7814207 79.7816726,22.837642 C76.7673873,25.8468445 73.3292183,27.5865396 69.4671653,28.0097087 C68.0542191,28.1507651 66.7825676,28.1037463 65.6522106,27.8216336 C64.6160501,29.6553663 64.1921662,31.301024 64.380559,32.7586064 C64.5218536,34.2632076 65.3696214,35.3916586 66.876764,36.190978 C68.3839066,36.9902974 70.2207366,37.2724101 72.4343523,37.0373162 C77.0970748,36.5201095 81.477208,34.639358 85.5276538,31.3950615 C89.5780995,28.1507651 92.1685009,24.4362808 93.2988579,20.157571 C93.8640363,17.9006692 94.0524292,15.8788612 93.8640363,14.0921473 C93.3459561,9.24921202 90.4729655,5.48770892 85.2450645,2.90167554 C80.0171636,0.315642154 72.811138,-0.483677255 63.6740859,0.503717309 C54.4899356,1.49111187 45.4941782,4.97050224 36.5926171,10.9418884 C27.6910561,16.9132746 20.5321287,24.0601305 15.1158349,32.4294749 C9.65244298,40.7988193 5.60199722,49.6383516 2.87030124,58.9950905 C0.138605258,68.3518295 -0.756260667,77.144343 0.138605258,85.372631 C2.49351559,107.095311 15.351326,116.687144 38.8062329,114.14813 C48.8852491,113.066698 58.5403814,110.057495 67.7716299,105.073504 C77.0028784,100.136531 84.4914932,93.9770694 90.143278,86.7361759 C91.0381439,85.5607062 91.8388134,84.4322553 92.639483,83.3508231 C92.6865812,84.1971613 92.7336794,84.9964807 92.8278758,85.8428189 C93.4872507,92.049299 95.5595718,96.4690652 99.0448391,99.1491362 C102.530106,101.829207 106.721847,102.910639 111.714257,102.346414 C119.485461,101.500076 125.608228,98.7729858 130.129655,94.2121633 C134.651083,89.6513408 138.277645,83.5859171 141.103538,76.2039672 C143.693939,77.8496248 146.661126,78.4608691 150.005099,78.0847188 C152.878089,77.7555873 155.798178,76.2980048 158.812463,73.6179338 C157.352419,79.58932 155.703982,86.501082 153.820053,94.4472573 C148.356661,117.533483 144.541707,131.121913 142.328091,135.165528 L149.487018,134.413228 C151.465143,134.178134 153.11358,133.754965 154.338134,133.14372 C155.562687,132.485457 156.645946,131.262969 157.493713,129.429236 C158.341481,127.595503 159.471838,123.645925 160.837686,117.580501 L166.395274,90.6857542 C168.137908,95.4346518 173.742595,97.2683846 183.350629,96.2339712 C192.911565,95.1995579 200.871162,91.2969984 207.182321,84.4792741 C211.091472,80.2946019 214.670936,75.1695539 218.014909,69.1981677 C217.920712,71.5961259 218.014909,73.9940842 218.2504,76.3920424 C219.239462,85.5136874 223.054417,89.6983596 229.742362,88.9930778 C239.397495,87.9586644 248.864234,76.8152115 258.048384,55.562719 C256.58834,61.7221803 256.211554,67.8816416 256.870929,74.0411029 C257.765795,82.269391 260.874277,86.0779129 266.290571,85.5136874 C273.214007,84.7613868 280.74972,76.6741551 288.89771,61.2990112 C288.473826,64.9664767 288.379629,68.022698 288.61512,70.4206562 C288.991906,74.5583096 290.122263,77.5675121 291.959093,79.5423012 C293.795923,81.5170904 296.009539,82.3164098 298.647038,82.034297 C301.284538,81.7521843 303.545252,81.1879588 305.42918,80.3886394 C307.313108,79.58932 309.809313,77.5204933 312.917795,74.2291781 C316.026277,70.9378629 319.60574,66.0949276 323.703284,59.7473912 L317.627616,83.2567855 C313.718465,98.2087604 307.689894,106.154936 299.636101,107.001274 C297.56378,107.236368 295.774048,106.860218 294.314003,105.825804 C292.853959,104.83841 292.006191,103.380827 291.817799,101.500076 C291.441013,97.9266476 292.100388,95.7637834 293.843021,94.964464 C293.230745,94.0240882 292.288781,93.2247688 291.017129,92.5665057 C289.745477,91.9082427 288.238335,91.6731487 286.495701,91.8612239 C284.753068,92.049299 283.293023,93.0837124 282.162666,94.964464 C280.985211,96.8452155 280.561327,98.8670234 280.796818,101.076906 C281.2678,105.261579 283.340121,108.082706 287.107978,109.634326 C290.875834,111.185946 295.208869,111.703153 300.201279,111.138927 C305.193689,110.621721 309.997706,108.835007 314.613331,105.919842 C319.228955,102.957658 322.949713,99.2901925 325.822704,94.8704264 C328.695694,90.4506602 330.956408,84.6203304 332.699042,77.4264557 C333.358417,75.0284975 334.159086,71.6901635 335.148149,67.3174162 C336.137211,62.9446688 336.796586,60.217579 337.032077,59.0891281 C337.314666,57.9606772 338.068237,54.7633996 339.339889,49.4502764 C340.564442,44.1371533 342.165781,38.2598047 344.096808,31.7241931 C346.498816,23.9660929 349.136316,18.9350825 352.009307,16.7251994 L345.60395,17.3834625 L345.60395,17.3834625 Z M135.78144,52.3184225 C133.285235,52.6005353 131.401307,53.5879298 130.129655,55.327625 C128.858004,57.0673202 128.339924,59.2772033 128.669611,61.9572742 C129.140593,66.3300216 131.212914,69.7623932 134.933672,72.254389 C133.049744,77.9906812 130.506441,83.3038043 127.350861,88.1937584 C124.195281,93.0837124 120.474523,95.7637834 116.188586,96.2339712 C110.960685,96.516084 108.040597,93.6479379 107.381222,87.7235705 C106.721847,81.7992031 107.805105,74.9344599 110.630998,67.2233786 C115.764702,53.2117795 121.793273,45.8768485 128.669611,45.1245479 C133.049744,44.65436 135.734342,47.0052994 136.676306,52.224385 L135.78144,52.3184225 L135.78144,52.3184225 Z M173.836791,90.6387354 C170.9638,90.9678669 169.268265,88.7579838 168.750185,84.1031237 C168.232105,79.4482637 169.880542,73.1947647 173.695496,65.3896458 C177.510451,57.5845269 181.278308,51.8482346 184.999066,48.2277879 C187.25978,45.9708861 189.473396,44.7483975 191.545717,44.5133036 C192.157993,44.4662848 192.581877,44.4662848 192.911565,44.5133036 C194.465806,44.7483975 195.360671,46.1119424 195.643261,48.6039382 C196.255537,54.3402305 194.08902,62.6625561 189.09661,73.5238963 C184.1042,84.3852365 179.017594,90.0745099 173.836791,90.6387354 L173.836791,90.6387354 Z M253.150171,57.5845269 C250.842359,62.239387 248.110663,66.3770404 244.955083,69.9504683 C241.799503,73.5238963 238.926513,75.4986854 236.336111,75.7807981 C233.934103,76.0158921 232.568255,74.6523472 232.238567,71.5491071 C231.484996,64.4022512 233.698612,55.9858881 238.879414,46.2529988 C244.060217,36.5201095 249.947493,31.301024 256.541242,30.5957421 C260.214902,30.2195918 262.758205,31.5361179 264.076955,34.5923392 C261.910437,39.529312 258.283875,47.1933746 253.150171,57.5845269 L253.150171,57.5845269 Z" id="Shape" sketch:type="MSShapeGroup"></path>
                <g id="Group" transform="translate(41.721167, 110.588622)" sketch:type="MSShapeGroup">
                    <path d="M99.9423943,-0.0940375775 C65.9845874,5.68927344 33.3926285,13.8705427 10.4087037,23.2743004 C0.800669512,27.1768599 -1.60133902,35.0289976 1.4129462,42.4109475 C40.4573594,24.6378453 59.8147223,19.6068349 88.3562355,12.5540166 C93.3957436,11.2845093 97.4461894,7.5230062 99.0946266,2.58603338 C99.3772159,1.64565761 99.6598051,0.75230062 99.9423943,-0.0940375775 L99.9423943,-0.0940375775 Z" id="Shape"></path>
                </g>
                <path d="M268.687424,106.513379 C269.676486,102.281688 268.54613,102.093612 264.213095,101.482368 C240.522697,98.0499967 214.477388,98.2850906 183.109983,105.008777 C177.834984,106.137228 173.501949,109.804694 172.654181,115.164836 C172.654181,115.164836 212.028282,102.234669 268.687424,106.513379 L268.687424,106.513379 L268.687424,106.513379 Z" id="Shape" sketch:type="MSShapeGroup"></path>
            </g>
        </g>
    </g>
</svg>