<?xml version="1.0" encoding="UTF-8" standalone="no"?>
<svg width="117px" height="46px" viewBox="0 0 117 46" version="1.1" xmlns="http://www.w3.org/2000/svg" xmlns:xlink="http://www.w3.org/1999/xlink" xmlns:sketch="http://www.bohemiancoding.com/sketch/ns">
    <!-- Generator: Sketch 3.0.2 (7799) - http://www.bohemiancoding.com/sketch -->
    <title>Copay + Path 1 + Path 1 copy 2</title>
    <description>Created with Sketch.</description>
    <defs></defs>
    <g id="Page-1-Copy" stroke="none" stroke-width="1" fill="none" fill-rule="evenodd" sketch:type="MSPage">
        <g id="Artboard-1" sketch:type="MSArtboardGroup" transform="translate(-103.000000, -98.000000)">
            <g id="Copay-+-Path-1-+-Path-1-copy-2" sketch:type="MSLayerGroup" transform="translate(102.000000, 93.000000)">
                <path d="M3.684356,49.6740183 L42.161057,46.4241876" id="Path-1" stroke="#FFFFFF" stroke-width="3" stroke-linecap="round" sketch:type="MSShapeGroup" transform="translate(23.012087, 47.973822) rotate(1.000000) translate(-23.012087, -47.973822) "></path>
                <path d="M61.951468,45.5927145 L84.9766781,43.382459" id="Path-1-copy" stroke="#FFFFFF" stroke-width="3" stroke-linecap="round" sketch:type="MSShapeGroup" transform="translate(73.548107, 44.572597) rotate(1.000000) translate(-73.548107, -44.572597) "></path>
                <path d="M96.863496,31.2903145 C93.7190379,36.0206001 91.0263885,38.3857132 88.7854893,38.3857132 C87.0429596,38.3857132 86.1717078,37.0310102 86.1717078,34.3215635 C86.1717078,32.2976394 86.510528,30.3063892 87.1881784,28.347753 C83.5095046,34.9418281 80.1051689,38.2388163 76.9750692,38.2388163 C74.8130416,38.2388163 73.732044,36.7372177 73.732044,33.7339756 C73.732044,32.9564608 73.7890165,32.1751708 73.9029623,31.3901027 C72.6327268,33.2263394 71.3011371,34.7584306 69.9081784,35.9863959 C67.6493436,37.977676 64.9710511,38.9733012 61.8732204,38.9733012 C58.7753898,38.9733012 57.0328862,38.1735367 56.6456574,36.5739838 L53.9350692,45.1429743 C53.2896878,47.0689666 52.7975919,48.3175784 52.4587667,48.8888473 C52.1199414,49.4601162 51.7407856,49.827355 51.3212877,49.9905746 C50.9017898,50.1537943 50.3693581,50.2354029 49.7239767,50.2354029 L47.4006154,50.2354029 C48.2396112,48.9949333 49.9337119,44.710481 52.4829683,37.3819172 C53.3570253,34.8691916 54.1296034,32.6682758 54.8007048,30.7791642 L54.8007048,30.7791642 C53.7505225,31.5412221 52.760136,31.9222461 51.829523,31.9222461 C50.7485092,31.9222461 49.8207873,31.6121334 49.0463297,30.9918986 C47.8846432,33.3096181 46.5051612,35.1376511 44.9078423,36.4760525 C43.3105234,37.8144539 41.2534011,38.4836446 38.7364137,38.4836446 C37.1229603,38.4836446 35.8080154,37.985832 34.7915398,36.9901919 C33.7750641,35.9945519 33.2668339,34.4766316 33.2668339,32.4363856 C33.2668339,30.3961395 33.7266612,28.2906372 34.6463297,26.1198154 C35.5659981,23.9489937 36.9535473,22.0801563 38.8090188,20.5132474 C40.6644902,18.9463384 42.7377468,18.1628957 45.0288507,18.1628957 C48.8688699,18.1628957 50.7888507,20.2194329 50.7888507,24.3325689 C50.7888507,25.8994778 50.4500306,27.5479719 49.7723801,29.2781005 C50.2564161,29.9636232 50.9501907,30.3063794 51.8537246,30.3063794 C53.4289888,30.3063794 54.9189153,29.0549322 56.3235432,26.5520026 C56.8403084,25.1449746 57.2461664,24.0787278 57.5411196,23.3532557 C58.3639809,21.3293316 58.9690168,20.1052023 59.3562457,19.6808312 C60.1307033,18.8973767 61.4698496,18.5056553 63.3737246,18.5056553 L64.8258255,18.5056553 C63.8900225,19.1585341 62.6154134,21.1171409 61.0019599,24.3815345 C64.0029833,20.3336864 66.6490073,18.3097927 68.9401112,18.3097927 C71.1021388,18.3097927 72.1831364,19.8113913 72.1831364,22.8146334 C72.1831364,25.2955726 71.4086904,27.8417614 69.8597751,30.4532763 C68.3108598,33.0647913 66.4876847,35.088685 64.3901952,36.5250182 L64.7774221,36.5250182 C66.1004539,36.5250182 67.4476674,35.9864013 68.8191028,34.9091514 C70.1905382,33.8319015 71.3764087,32.6404157 72.3767499,31.3346582 C72.925324,30.6164916 73.6997701,29.4005232 74.7001112,27.6867166 C74.8630396,27.4075841 75.0135554,27.1511835 75.1516589,26.9175146 L75.1516589,26.9175146 C75.1703698,26.8719726 75.1892657,26.8264184 75.2083465,26.7808519 C76.1925531,24.4304884 77.6043037,22.4310773 79.4436406,20.7825585 C81.2829775,19.1340397 83.2997641,18.3097927 85.4940608,18.3097927 C86.526671,18.3097927 87.4947285,18.5464577 88.3982625,19.0197948 C89.3017964,19.4931318 89.8987652,20.252092 90.1891868,21.296698 C90.5441466,20.5458874 91.0927125,19.8930185 91.8349011,19.3380716 C92.5770897,18.7831246 93.2708643,18.5056553 93.9162457,18.5056553 L96.3364137,18.554621 L96.8204473,18.554621 C95.7555681,19.4360073 94.4486904,21.6639225 92.8997751,25.2384336 C91.3508598,28.8129446 90.5764137,31.4162595 90.5764137,33.0484563 C90.5764137,33.8971987 90.866831,34.3215635 91.4476742,34.3215635 C93.2168669,34.3215635 95.4473746,31.8276377 98.139258,26.8397155 C98.7562026,25.0687117 99.4218052,23.6127738 100.136078,22.4718738 C101.055746,21.0028966 102.007669,20.0562367 102.991876,19.6318655 C103.976083,19.2074943 105.323296,18.9953119 107.033557,18.9953119 C107.162633,18.9953119 107.22717,19.0605988 107.22717,19.1911746 C107.22717,19.3217503 107.130364,19.4849676 106.93675,19.6808312 C105.613718,20.8560129 104.266505,22.9615152 102.895069,25.9974013 C101.523634,29.0332874 100.837926,31.595798 100.837926,33.6850099 C100.837926,34.7949037 101.144478,35.3498423 101.75759,35.3498423 C102.919277,35.3498423 104.403632,34.1746782 106.210699,31.8243148 C108.017767,29.4739514 109.405316,27.1236232 110.373389,24.7732598 C110.502465,24.4468204 110.688009,23.9734905 110.930027,23.3532557 C111.172045,22.7330209 111.341455,22.3086561 111.438262,22.0801485 C111.53507,21.851641 111.688345,21.5333673 111.898094,21.1253181 C112.107843,20.7172689 112.293388,20.4397996 112.454733,20.2929019 C112.616078,20.1460042 112.833891,19.9583044 113.108178,19.7297968 C113.382466,19.5012893 113.664816,19.3543938 113.955237,19.2891059 C114.89104,19.0932423 115.762292,18.9953119 116.569019,18.9953119 L118.553557,18.9953119 C117.553215,19.6155467 116.536755,21.1497887 115.504145,23.598084 C114.665149,25.654652 113.95524,27.5234893 113.374397,29.204652 C112.793554,30.8858147 112.438599,31.9059225 112.309523,32.2650058 C112.180447,32.6240891 111.881962,33.4973013 111.414061,34.8846686 C110.946159,36.2720359 110.567003,37.3411087 110.276582,38.0919193 C109.469855,40.3769948 108.534066,42.1887061 107.469187,43.5271075 C106.404308,44.8655089 105.081296,45.9345818 103.500111,46.7343583 C101.918927,47.5341347 100.321632,47.9340169 98.7081784,47.9340169 C97.094725,47.9340169 95.715243,47.6157433 94.569691,46.9791866 C93.4241391,46.3426298 92.8513717,45.3388438 92.8513717,43.9677985 C92.8513717,43.2496319 93.0691846,42.6049238 93.5048171,42.0336549 C93.9404495,41.462386 94.4406126,41.1767559 95.0053213,41.1767559 C95.57003,41.1767559 96.0459916,41.3073296 96.4332204,41.5684811 C96.8204493,41.8296326 97.0947322,42.1234237 97.2560776,42.449863 C96.6752343,42.6457266 96.3848171,43.331239 96.3848171,44.5064207 C96.3848171,45.1266555 96.60263,45.6244681 97.0382625,45.9998734 C97.4738949,46.3752786 98.030528,46.5629784 98.7081784,46.5629784 C101.321973,46.5629784 103.516237,44.1963286 105.291036,39.4629578 L108.050027,32.0201775 C106.533381,33.9461697 105.218436,35.3906422 104.105153,36.3536384 C102.99187,37.3166345 102.120619,37.8960557 101.491372,38.0919193 C100.862125,38.2877829 100.119947,38.3857132 99.2648171,38.3857132 C98.4096868,38.3857132 97.7239793,38.0347962 97.2076742,37.3329516 C96.6913691,36.6311069 96.4412876,35.6028384 96.4574221,34.248115 C96.4668221,33.4588492 96.6021793,32.4729195 96.863496,31.2903145 Z M33.3152372,10.8670124 C32.7989321,12.2054138 31.8389417,13.3316127 30.4352372,14.2456429 C29.0315328,15.1596732 27.5713793,15.6166814 26.054733,15.6166814 C25.3448135,15.6166814 24.763979,15.461625 24.312212,15.1515076 C23.8604451,14.8413902 23.634565,14.441508 23.634565,13.951849 C23.634565,13.4621899 23.8281765,12.9398948 24.2154053,12.3849479 C24.5703651,12.5155236 24.9737224,12.5808105 25.4254893,12.5808105 C26.683983,12.5808105 27.8456521,12.140124 28.9105314,11.2587377 C29.9754106,10.3773514 30.5078423,9.31643937 30.5078423,8.07596979 C30.5078423,6.18262147 29.2655018,5.23596151 26.7807835,5.23596151 C23.4893384,5.23596151 20.2786142,6.37848215 17.1485146,8.6635577 C14.0184149,10.9486333 11.4933981,13.9110261 9.57338851,17.550825 C7.65337891,21.1906239 6.69338851,24.8874942 6.69338851,28.6415469 C6.69338851,34.4521676 9.30714388,37.3574344 14.534733,37.3574344 C17.793909,37.3574344 21.2466476,36.08434 24.8930524,33.5381129 C28.5394572,30.9918859 30.959601,28.2335146 32.1535566,25.2629164 C32.7666689,25.6872876 33.0732204,26.2585479 33.0732204,26.9767145 C33.0732204,28.4456916 32.0406257,30.2655638 29.9754053,32.4363856 C27.9101849,34.6072073 25.3125638,36.33731 22.1824641,37.6267455 C19.0523645,38.916181 15.8577746,39.5608891 12.5985986,39.5608891 C5.0153674,39.5608891 1.22380868,35.9864317 1.22380868,28.8374096 C1.22380868,26.1279628 1.8207775,23.2961438 3.01473305,20.3418676 C4.2086886,17.3875913 5.82211784,14.6455418 7.85506918,12.1156367 C9.88802052,9.58573165 12.4291716,7.50471191 15.4785986,5.87251509 C18.5280256,4.24031827 21.5370711,3.4242321 24.5058255,3.4242321 C27.4745798,3.4242321 29.7495151,3.93836638 31.3306994,4.96665038 C32.9118838,5.99493438 33.7024641,7.30883312 33.7024641,8.908386 C33.7024641,9.49597686 33.5733898,10.1488458 33.3152372,10.8670124 Z M48.5138927,23.010496 C48.3848164,21.2803674 47.6103704,20.4153161 46.1905314,20.4153161 C43.9639656,20.4153161 41.7858361,22.602427 39.6560776,26.9767145 C38.4943911,29.3923658 37.9135566,31.5794767 37.9135566,33.5381129 C37.9135566,35.4967491 38.7525398,36.5250177 40.4305314,36.6229495 C41.8181013,36.6229495 43.1007776,35.8803111 44.2785986,34.395012 C45.4564196,32.9097129 46.4486786,31.2693797 47.2554053,29.4739631 C46.158257,28.527289 45.609691,27.3358032 45.609691,25.89947 C45.609691,25.0180837 45.8436383,24.3162496 46.3115398,23.7939466 C46.7794413,23.2716436 47.4167458,23.010496 48.2234725,23.010496 L48.5138927,23.010496 Z M66.7619599,22.4718738 C66.6651527,22.4392299 66.5199441,22.4229081 66.3263297,22.4229081 C65.6486792,22.4229081 64.9065018,22.7493426 64.0997751,23.4022213 C62.7767432,24.4468273 61.3730598,26.17693 59.8886826,28.5925813 C58.4043055,31.0082326 57.662128,32.9831611 57.662128,34.5174261 C57.662128,36.0516911 58.1300225,36.8188121 59.0658255,36.8188121 C60.7438171,36.8188121 62.5669921,35.1376746 64.5354053,31.7753492 C66.5038185,28.4130237 67.4880104,25.7852262 67.4880104,23.8918779 C67.4880104,23.0757795 67.245996,22.6024495 66.7619599,22.4718738 Z M89.8987667,21.7373889 C89.576076,20.6927829 88.8177642,20.1704878 87.6238087,20.1704878 C85.4940501,20.1704878 83.4288607,21.6639255 81.4281784,24.6508457 C79.4274962,27.6377658 78.42717,30.3063676 78.42717,32.656731 C78.42717,33.6686931 78.814393,34.1746665 79.5888507,34.1746665 C80.4278465,34.1746665 81.4120383,33.6442105 82.5414557,32.5832826 C83.6708731,31.5223546 84.6873336,30.2737428 85.5908675,28.8374096 C87.5915498,25.6383038 89.0275018,23.2716539 89.8987667,21.7373889 Z" id="Copay" fill="#FFFFFF" sketch:type="MSShapeGroup" transform="translate(59.879271, 26.886944) rotate(-3.000000) translate(-59.879271, -26.886944) "></path>
            </g>
        </g>
    </g>
</svg>