<?xml version="1.0" encoding="UTF-8" standalone="no"?>
<svg width="81px" height="26px" viewBox="0 0 81 26" version="1.1" xmlns="http://www.w3.org/2000/svg" xmlns:xlink="http://www.w3.org/1999/xlink" xmlns:sketch="http://www.bohemiancoding.com/sketch/ns">
    <!-- Generator: Sketch 3.0.2 (7799) - http://www.bohemiancoding.com/sketch -->
    <title>Insight 2</title>
    <description>Created with Sketch.</description>
    <defs></defs>
    <g id="Page-1-Copy" stroke="none" stroke-width="1" fill="none" fill-rule="evenodd" sketch:type="MSPage">
        <g id="Artboard-1" sketch:type="MSArtboardGroup" transform="translate(-1010.000000, -687.000000)" fill="#FFFFFF">
            <path d="M1015.025,689.675 L1018.925,689.675 L1014.75,707 L1010.875,707 L1015.025,689.675 Z M1021.575,694.45 C1021.85833,694.366666 1022.17083,694.270834 1022.5125,694.1625 C1022.85417,694.054166 1023.2375,693.954167 1023.6625,693.8625 C1024.0875,693.770833 1024.5625,693.695834 1025.0875,693.6375 C1025.6125,693.579166 1026.20833,693.55 1026.875,693.55 C1028.84168,693.55 1030.19166,694.116661 1030.925,695.25 C1031.65834,696.383339 1031.78334,697.933324 1031.3,699.9 L1029.6,707 L1025.875,707 L1027.525,700.05 C1027.625,699.616664 1027.70417,699.195835 1027.7625,698.7875 C1027.82083,698.379165 1027.81667,698.020835 1027.75,697.7125 C1027.68333,697.404165 1027.52917,697.154168 1027.2875,696.9625 C1027.04583,696.770832 1026.675,696.675 1026.175,696.675 C1025.69166,696.675 1025.2,696.724999 1024.7,696.825 L1022.275,707 L1018.55,707 L1021.575,694.45 Z M1037,704.35 C1037.85,704.35 1038.43333,704.229168 1038.75,703.9875 C1039.06667,703.745832 1039.225,703.483335 1039.225,703.2 C1039.225,703.016666 1039.19583,702.858334 1039.1375,702.725 C1039.07917,702.591666 1038.98333,702.466667 1038.85,702.35 C1038.71667,702.233333 1038.53333,702.112501 1038.3,701.9875 C1038.06667,701.862499 1037.76667,701.716667 1037.4,701.55 C1036.98333,701.366666 1036.59167,701.170834 1036.225,700.9625 C1035.85833,700.754166 1035.5375,700.504168 1035.2625,700.2125 C1034.9875,699.920832 1034.77083,699.587502 1034.6125,699.2125 C1034.45417,698.837498 1034.375,698.391669 1034.375,697.875 C1034.375,696.524993 1034.87083,695.458337 1035.8625,694.675 C1036.85417,693.891663 1038.29999,693.5 1040.2,693.5 C1041.1,693.5 1041.9,693.599999 1042.6,693.8 C1043.3,694.000001 1043.86666,694.216665 1044.3,694.45 L1043.025,697.225 C1042.675,697.041666 1042.225,696.866667 1041.675,696.7 C1041.125,696.533333 1040.58334,696.45 1040.05,696.45 C1039.81667,696.45 1039.5875,696.4625 1039.3625,696.4875 C1039.1375,696.5125 1038.92917,696.566666 1038.7375,696.65 C1038.54583,696.733334 1038.39167,696.849999 1038.275,697 C1038.15833,697.150001 1038.1,697.349999 1038.1,697.6 C1038.1,697.933335 1038.22917,698.183333 1038.4875,698.35 C1038.74583,698.516668 1039.10833,698.716665 1039.575,698.95 C1040.225,699.266668 1040.76666,699.558332 1041.2,699.825 C1041.63334,700.091668 1041.97917,700.374998 1042.2375,700.675 C1042.49583,700.975001 1042.68333,701.316665 1042.8,701.7 C1042.91667,702.083335 1042.975,702.533331 1042.975,703.05 C1042.975,703.583336 1042.8625,704.108331 1042.6375,704.625 C1042.4125,705.141669 1042.05834,705.599998 1041.575,706 C1041.09166,706.400002 1040.475,706.724999 1039.725,706.975 C1038.975,707.225001 1038.07501,707.35 1037.025,707.35 C1036.375,707.35 1035.7875,707.308334 1035.2625,707.225 C1034.7375,707.141666 1034.275,707.037501 1033.875,706.9125 C1033.475,706.787499 1033.1375,706.658334 1032.8625,706.525 C1032.5875,706.391666 1032.375,706.283334 1032.225,706.2 L1033.5,703.35 C1033.78333,703.516668 1034.225,703.724999 1034.825,703.975 C1035.425,704.225001 1036.15,704.35 1037,704.35 Z M1048.5,707 L1044.8,707 L1047.925,693.85 L1051.65,693.85 L1048.5,707 Z M1050.3,692.25 C1049.78333,692.25 1049.31667,692.095835 1048.9,691.7875 C1048.48333,691.479165 1048.275,691.008337 1048.275,690.375 C1048.275,690.024998 1048.34583,689.695835 1048.4875,689.3875 C1048.62917,689.079165 1048.81667,688.812501 1049.05,688.5875 C1049.28333,688.362499 1049.55417,688.183334 1049.8625,688.05 C1050.17083,687.916666 1050.5,687.85 1050.85,687.85 C1051.36667,687.85 1051.83333,688.004165 1052.25,688.3125 C1052.66667,688.620835 1052.875,689.091663 1052.875,689.725 C1052.875,690.075002 1052.80417,690.404165 1052.6625,690.7125 C1052.52083,691.020835 1052.33333,691.287499 1052.1,691.5125 C1051.86667,691.737501 1051.59583,691.916666 1051.2875,692.05 C1050.97917,692.183334 1050.65,692.25 1050.3,692.25 Z M1063.225,705.35 C1062.975,706.433339 1062.64584,707.370829 1062.2375,708.1625 C1061.82916,708.954171 1061.32084,709.612497 1060.7125,710.1375 C1060.10416,710.662503 1059.375,711.054165 1058.525,711.3125 C1057.675,711.570835 1056.68334,711.7 1055.55,711.7 C1054.49999,711.7 1053.61667,711.604168 1052.9,711.4125 C1052.18333,711.220832 1051.53334,710.983335 1050.95,710.7 L1052.2,707.75 C1052.71667,707.983334 1053.25416,708.183333 1053.8125,708.35 C1054.37084,708.516668 1055.05833,708.6 1055.875,708.6 C1056.94167,708.6 1057.74583,708.362502 1058.2875,707.8875 C1058.82917,707.412498 1059.18333,706.800004 1059.35,706.05 L1059.45,705.575 C1059.11667,705.741667 1058.7625,705.875 1058.3875,705.975 C1058.0125,706.075 1057.61667,706.125 1057.2,706.125 C1056.41666,706.125 1055.74167,706.004168 1055.175,705.7625 C1054.60833,705.520832 1054.14584,705.183335 1053.7875,704.75 C1053.42916,704.316665 1053.1625,703.80417 1052.9875,703.2125 C1052.8125,702.62083 1052.725,701.975003 1052.725,701.275 C1052.725,700.008327 1052.95833,698.887505 1053.425,697.9125 C1053.89167,696.937495 1054.5125,696.125003 1055.2875,695.475 C1056.0625,694.824997 1056.95416,694.333335 1057.9625,694 C1058.97084,693.666665 1060.02499,693.5 1061.125,693.5 C1061.925,693.5 1062.71666,693.583332 1063.5,693.75 C1064.28334,693.916668 1065.05,694.174998 1065.8,694.525 L1063.225,705.35 Z M1061.575,696.725 C1061.29167,696.658333 1060.94167,696.625 1060.525,696.625 C1059.89166,696.625 1059.325,696.737499 1058.825,696.9625 C1058.325,697.187501 1057.89584,697.491665 1057.5375,697.875 C1057.17916,698.258335 1056.90417,698.720831 1056.7125,699.2625 C1056.52083,699.804169 1056.425,700.38333 1056.425,701 C1056.425,701.300002 1056.45,701.579165 1056.5,701.8375 C1056.55,702.095835 1056.64167,702.320832 1056.775,702.5125 C1056.90833,702.704168 1057.09167,702.858333 1057.325,702.975 C1057.55833,703.091667 1057.85,703.15 1058.2,703.15 C1058.43333,703.15 1058.74583,703.108334 1059.1375,703.025 C1059.52917,702.941666 1059.88333,702.750002 1060.2,702.45 L1061.575,696.725 Z M1074.925,693.625 C1075.64167,693.625 1076.25833,693.729166 1076.775,693.9375 C1077.29167,694.145834 1077.71666,694.437498 1078.05,694.8125 C1078.38333,695.187502 1078.63333,695.633331 1078.8,696.15 C1078.96667,696.666669 1079.05,697.224997 1079.05,697.825 C1079.05,698.525004 1078.96667,699.216663 1078.8,699.9 L1077.1,707 L1073.375,707 L1075.025,700.05 C1075.09167,699.766665 1075.15417,699.466668 1075.2125,699.15 C1075.27083,698.833332 1075.3,698.533335 1075.3,698.25 C1075.3,697.816665 1075.1875,697.445835 1074.9625,697.1375 C1074.7375,696.829165 1074.30834,696.675 1073.675,696.675 C1073.40833,696.675 1073.15417,696.691666 1072.9125,696.725 C1072.67083,696.758334 1072.43333,696.8 1072.2,696.85 L1069.775,707 L1066.05,707 L1070.55,688.2 L1074.425,687.6 L1072.9,693.875 C1073.23333,693.808333 1073.57083,693.75 1073.9125,693.7 C1074.25417,693.65 1074.59166,693.625 1074.925,693.625 L1074.925,693.625 Z M1083.75,690.575 L1087.625,689.975 L1086.675,693.85 L1090.825,693.85 L1090.075,696.9 L1085.95,696.9 L1084.85,701.5 C1084.75,701.883335 1084.6875,702.241665 1084.6625,702.575 C1084.6375,702.908335 1084.67917,703.195832 1084.7875,703.4375 C1084.89583,703.679168 1085.08333,703.866666 1085.35,704 C1085.61667,704.133334 1085.98333,704.2 1086.45,704.2 C1086.85,704.2 1087.2375,704.1625 1087.6125,704.0875 C1087.9875,704.0125 1088.36666,703.908334 1088.75,703.775 L1089.025,706.625 C1088.525,706.808334 1087.98334,706.966666 1087.4,707.1 C1086.81666,707.233334 1086.125,707.3 1085.325,707.3 C1084.17499,707.3 1083.28334,707.129168 1082.65,706.7875 C1082.01666,706.445832 1081.56667,705.97917 1081.3,705.3875 C1081.03333,704.79583 1080.91667,704.116671 1080.95,703.35 C1080.98333,702.583329 1081.1,701.775004 1081.3,700.925 L1083.75,690.575 Z" id="Insight-2" sketch:type="MSShapeGroup"></path>
        </g>
    </g>
</svg>