<?xml version="1.0" encoding="UTF-8" standalone="no"?>
<svg width="348px" height="135px" viewBox="0 0 348 135" version="1.1" xmlns="http://www.w3.org/2000/svg" xmlns:xlink="http://www.w3.org/1999/xlink" xmlns:sketch="http://www.bohemiancoding.com/sketch/ns">
    <!-- Generator: Sketch 3.0.3 (7891) - http://www.bohemiancoding.com/sketch -->
    <title>Copay + Path 1 + Path 1 copy</title>
    <desc>Created with Sketch.</desc>
    <defs></defs>
    <g id="Page-1" stroke="none" stroke-width="1" fill="none" fill-rule="evenodd" sketch:type="MSPage">
        <g id="Copay-+-Path-1-+-Path-1-copy" sketch:type="MSLayerGroup" transform="translate(-4.000000, -39.000000)">
            <path d="M10.9609591,170.062295 L125.429145,160.505074" id="Path-1" stroke="#2C3E50" stroke-width="7" stroke-linecap="round" sketch:type="MSShapeGroup" transform="translate(68.460959, 165.062295) rotate(1.000000) translate(-68.460959, -165.062295) "></path>
            <path d="M184.305617,158.059847 L252.805617,151.559847" id="Path-1-copy" stroke="#2C3E50" stroke-width="7" stroke-linecap="round" sketch:type="MSShapeGroup" transform="translate(218.805617, 155.059847) rotate(1.000000) translate(-218.805617, -155.059847) "></path>
            <path d="M288.1689,115.998828 C278.814138,129.909824 270.803506,136.865235 264.136831,136.865235 C258.952805,136.865235 256.360831,132.881275 256.360831,124.913235 C256.360831,118.961205 257.368821,113.105264 259.384831,107.345235 C248.440776,126.737332 238.312877,136.433235 229.000831,136.433235 C222.568799,136.433235 219.352831,132.017279 219.352831,123.185235 C219.352831,120.898692 219.522324,118.601045 219.861313,116.292288 C216.082362,121.69236 212.120883,126.19799 207.976831,129.809235 C201.256797,135.665264 193.288877,138.593235 184.072831,138.593235 C174.856785,138.593235 169.672837,136.241259 168.520831,131.537235 L160.456831,156.737235 C158.536821,162.401263 157.072836,166.073227 156.064831,167.753235 C155.056826,169.433244 153.928837,170.513233 152.680831,170.993235 C151.432825,171.473238 149.84884,171.713235 147.928831,171.713235 L141.016831,171.713235 C143.512843,168.065217 148.552793,155.465343 156.136831,133.913235 C158.73715,126.52372 161.03557,120.051187 163.032097,114.495618 L163.032097,114.495618 C159.907805,116.736706 156.961405,117.857235 154.192831,117.857235 C150.976815,117.857235 148.216842,116.945244 145.912831,115.121235 C142.456814,121.937269 138.352855,127.313215 133.600831,131.249235 C128.848807,135.185255 122.728868,137.153235 115.240831,137.153235 C110.440807,137.153235 106.528846,135.68925 103.504831,132.761235 C100.480816,129.833221 98.9688308,125.369265 98.9688308,119.369235 C98.9688308,113.369205 100.336817,107.177267 103.072831,100.793235 C105.808844,94.4092032 109.936803,88.9132582 115.456831,84.3052352 C120.976858,79.6972121 127.144797,77.3932352 133.960831,77.3932352 C145.384888,77.3932352 151.096831,83.4411747 151.096831,95.5372352 C151.096831,100.145258 150.088841,104.99321 148.072831,110.081235 C149.512838,112.097245 151.576817,113.105235 154.264831,113.105235 C158.951242,113.105235 163.383773,109.424934 167.562541,102.064227 C169.099917,97.9263876 170.307345,94.79073 171.184831,92.6572352 C173.632843,86.7052054 175.432825,83.1052414 176.584831,81.8572352 C178.888842,79.5532236 182.872802,78.4012352 188.536831,78.4012352 L192.856831,78.4012352 C190.072817,80.3212448 186.280855,86.0811872 181.480831,95.6812352 C190.408875,83.7771756 198.280797,77.8252352 205.096831,77.8252352 C211.528863,77.8252352 214.744831,82.241191 214.744831,91.0732352 C214.744831,98.3692716 212.440854,105.857197 207.832831,113.537235 C203.224808,121.217274 197.800862,127.169214 191.560831,131.393235 L192.712831,131.393235 C196.64885,131.393235 200.65681,129.809251 204.736831,126.641235 C208.816851,123.473219 212.344816,119.969254 215.320831,116.129235 C216.952839,114.017225 219.256816,110.44126 222.232831,105.401235 C222.717543,104.580352 223.165327,103.82632 223.576185,103.139138 L223.576185,103.139138 C223.63185,103.005207 223.688065,102.871239 223.744831,102.737235 C226.672845,95.8252006 230.872803,89.9452594 236.344831,85.0972352 C241.816858,80.2492109 247.816798,77.8252352 254.344831,77.8252352 C257.416846,77.8252352 260.296817,78.5212282 262.984831,79.9132352 C265.672844,81.3052421 267.448826,83.5372198 268.312831,86.6092352 C269.368836,84.4012241 271.00082,82.4812433 273.208831,80.8492352 C275.416842,79.217227 277.480821,78.4012352 279.400831,78.4012352 L286.600831,78.5452352 L288.040831,78.5452352 C284.872815,81.1372481 280.984854,87.6891826 276.376831,98.2012352 C271.768808,108.713288 269.464831,116.369211 269.464831,121.169235 C269.464831,123.665248 270.328822,124.913235 272.056831,124.913235 C277.320179,124.913235 283.95594,117.579007 291.964293,102.910344 C293.799703,97.702111 295.779871,93.4204356 297.904831,90.0652352 C300.640844,85.7452136 303.472816,82.9612414 306.400831,81.7132352 C309.328845,80.4652289 313.336805,79.8412352 318.424831,79.8412352 C318.808833,79.8412352 319.000831,80.0332332 319.000831,80.4172352 C319.000831,80.8012371 318.712834,81.2812323 318.136831,81.8572352 C314.200811,85.3132524 310.192851,91.5051905 306.112831,100.433235 C302.03281,109.36128 299.992831,116.897204 299.992831,123.041235 C299.992831,126.305251 300.904822,127.937235 302.728831,127.937235 C306.184848,127.937235 310.600804,124.48127 315.976831,117.569235 C321.352858,110.657201 325.480816,103.74527 328.360831,96.8332352 C328.744833,95.8732304 329.296827,94.4812443 330.016831,92.6572352 C330.736834,90.833226 331.240829,89.5852385 331.528831,88.9132352 C331.816832,88.2412318 332.272828,87.3052412 332.896831,86.1052352 C333.520834,84.9052292 334.072828,84.0892373 334.552831,83.6572352 C335.032833,83.225233 335.680827,82.6732385 336.496831,82.0012352 C337.312835,81.3292318 338.152826,80.8972361 339.016831,80.7052352 C341.800845,80.1292323 344.392819,79.8412352 346.792831,79.8412352 L352.696831,79.8412352 C349.720816,81.6652443 346.696846,86.1771992 343.624831,93.3772352 C341.128818,99.4252654 339.016839,104.92121 337.288831,109.865235 C335.560822,114.80926 334.504833,117.80923 334.120831,118.865235 C333.736829,119.92124 332.848838,122.489215 331.456831,126.569235 C330.064824,130.649256 328.936835,133.793224 328.072831,136.001235 C325.672819,142.721269 322.888847,148.049215 319.720831,151.985235 C316.552815,155.921255 312.616854,159.065223 307.912831,161.417235 C303.208807,163.769247 298.456855,164.945235 293.656831,164.945235 C288.856807,164.945235 284.752848,164.009245 281.344831,162.137235 C277.936814,160.265226 276.232831,157.313255 276.232831,153.281235 C276.232831,151.169225 276.880824,149.273244 278.176831,147.593235 C279.472837,145.913227 280.960822,145.073235 282.640831,145.073235 C284.320839,145.073235 285.736825,145.457231 286.888831,146.225235 C288.040837,146.993239 288.856828,147.85723 289.336831,148.817235 C287.608822,149.393238 286.744831,151.409218 286.744831,154.865235 C286.744831,156.689244 287.392824,158.15323 288.688831,159.257235 C289.984837,160.361241 291.640821,160.913235 293.656831,160.913235 C301.43287,160.913235 307.960804,153.953305 313.240831,140.033235 L321.448831,118.145235 C316.936808,123.809263 313.024847,128.057221 309.712831,130.889235 C306.400814,133.721249 303.80884,135.425232 301.936831,136.001235 C300.064821,136.577238 297.856844,136.865235 295.312831,136.865235 C292.768818,136.865235 290.728838,135.833245 289.192831,133.769235 C287.656823,131.705225 286.912831,128.681255 286.960831,124.697235 C286.988796,122.376133 287.391484,119.476675 288.1689,115.998828 Z M99.1128308,55.9372352 C97.5768231,59.8732548 94.7208517,63.1852217 90.5448308,65.8732352 C86.3688099,68.5612486 82.0248534,69.9052352 77.5128308,69.9052352 C75.4008203,69.9052352 73.6728375,69.4492397 72.3288308,68.5372352 C70.9848241,67.6252306 70.3128308,66.4492424 70.3128308,65.0092352 C70.3128308,63.569228 70.8888251,62.0332433 72.0408308,60.4012352 C73.0968361,60.7852371 74.2968241,60.9772352 75.6408308,60.9772352 C79.3848495,60.9772352 82.840815,59.6812481 86.0088308,57.0892352 C89.1768467,54.4972222 90.7608308,51.3772534 90.7608308,47.7292352 C90.7608308,42.1612073 87.0648678,39.3772352 79.6728308,39.3772352 C69.8807819,39.3772352 60.3288774,42.7372016 51.0168308,49.4572352 C41.7047843,56.1772688 34.1928594,64.8891816 28.4808308,75.5932352 C22.7688023,86.2972887 19.9128308,97.16918 19.9128308,108.209235 C19.9128308,125.297321 27.6887531,133.841235 43.2408308,133.841235 C52.9368793,133.841235 63.2087766,130.097273 74.0568308,122.609235 C84.9048851,115.121198 92.1048131,107.009279 95.6568308,98.2732352 C97.4808399,99.5212414 98.3928308,101.201225 98.3928308,103.313235 C98.3928308,107.633257 95.3208615,112.985203 89.1768308,119.369235 C83.0328001,125.753267 75.3048774,130.841216 65.9928308,134.633235 C56.6807843,138.425254 47.1768793,140.321235 37.4808308,140.321235 C14.920718,140.321235 3.64083081,129.80934 3.64083081,108.785235 C3.64083081,100.817195 5.41681305,92.4892786 8.96883081,83.8012352 C12.5208486,75.1131917 17.3208006,67.0492724 23.3688308,59.6092352 C29.4168611,52.169198 36.9767855,46.0492592 46.0488308,41.2492352 C55.1208762,36.4492112 64.0727867,34.0492352 72.9048308,34.0492352 C81.736875,34.0492352 88.5048073,35.56122 93.2088308,38.5852352 C97.9128543,41.6092503 100.264831,45.4732116 100.264831,50.1772352 C100.264831,51.9052438 99.8808347,53.8252246 99.1128308,55.9372352 Z M144.328831,91.6492352 C143.944829,86.5612097 141.640852,84.0172352 137.416831,84.0172352 C130.792798,84.0172352 124.312862,90.4491708 117.976831,103.313235 C114.520814,110.417271 112.792831,116.849206 112.792831,122.609235 C112.792831,128.369264 115.288806,131.393234 120.280831,131.681235 C124.408851,131.681235 128.224813,129.497257 131.728831,125.129235 C135.232848,120.761213 138.184819,115.937262 140.584831,110.657235 C137.320814,107.873221 135.688831,104.369256 135.688831,100.145235 C135.688831,97.5532222 136.384824,95.4892428 137.776831,93.9532352 C139.168838,92.4172275 141.064819,91.6492352 143.464831,91.6492352 L144.328831,91.6492352 Z M198.616831,90.0652352 C198.328829,89.9692347 197.896834,89.9212352 197.320831,89.9212352 C195.304821,89.9212352 193.096843,90.8812256 190.696831,92.8012352 C186.760811,95.8732505 182.584853,100.9612 178.168831,108.065235 C173.752809,115.169271 171.544831,120.977213 171.544831,125.489235 C171.544831,130.001258 172.936817,132.257235 175.720831,132.257235 C180.712856,132.257235 186.136802,127.313285 191.992831,117.425235 C197.84886,107.537186 200.776831,99.809263 200.776831,94.2412352 C200.776831,91.8412232 200.056838,90.4492371 198.616831,90.0652352 Z M267.448831,87.9052352 C266.488826,84.8332198 264.232849,83.2972352 260.680831,83.2972352 C254.344799,83.2972352 248.200861,87.6891912 242.248831,96.4732352 C236.296801,105.257279 233.320831,113.105201 233.320831,120.017235 C233.320831,122.99325 234.472819,124.481235 236.776831,124.481235 C239.272843,124.481235 242.200814,122.921251 245.560831,119.801235 C248.920848,116.68122 251.944817,113.009256 254.632831,108.785235 C260.584861,99.3771881 264.856818,92.4172577 267.448831,87.9052352 Z" id="Copay" fill="#2C3E50" sketch:type="MSShapeGroup" transform="translate(178.140831, 103.049235) rotate(-3.000000) translate(-178.140831, -103.049235) "></path>
        </g>
    </g>
</svg>