<?xml version="1.0" encoding="UTF-8" standalone="no"?>
<svg width="117px" height="48px" viewBox="0 0 117 48" version="1.1" xmlns="http://www.w3.org/2000/svg" xmlns:xlink="http://www.w3.org/1999/xlink" xmlns:sketch="http://www.bohemiancoding.com/sketch/ns">
    <!-- Generator: Sketch 3.0.4 (8053) - http://www.bohemiancoding.com/sketch -->
    <title>logo-negative + beta 2</title>
    <desc>Created with Sketch.</desc>
    <defs></defs>
    <g id="Page-1" stroke="none" stroke-width="1" fill="none" fill-rule="evenodd" sketch:type="MSPage">
        <g id="logo-negative-+-beta-2" sketch:type="MSLayerGroup" transform="translate(-1.000000, -3.000000)">
            <g id="logo-negative" sketch:type="MSShapeGroup">
                <g id="Page-1-Copy">
                    <g id="Artboard-1">
                        <g id="Copay-+-Path-1-+-Path-1-copy-2">
                            <path d="M3.68527215,49.6683062 L42.1619732,46.4184755" id="Path-1" stroke="#FFFFFF" stroke-width="3" transform="translate(22.685272, 47.918475) rotate(1.000000) translate(-22.685272, -47.918475) "></path>
                            <path d="M61.9548011,45.5910569 L84.9800112,43.3808014" id="Path-1-copy" stroke="#FFFFFF" stroke-width="3" transform="translate(73.454801, 44.380801) rotate(1.000000) translate(-73.454801, -44.380801) "></path>
                            <path d="M96.8656606,31.2983997 C93.7212025,36.0286853 91.0285531,38.3937984 88.7876539,38.3937984 C87.0451242,38.3937984 86.1738724,37.0390954 86.1738724,34.3296487 C86.1738724,32.3057246 86.5126926,30.3144744 87.190343,28.3558382 C83.5116692,34.9499133 80.1073335,38.2469015 76.9772338,38.2469015 C74.8152062,38.2469015 73.7342086,36.7453029 73.7342086,33.7420608 C73.7342086,32.964546 73.7911811,32.183256 73.9051269,31.3981879 C72.6348914,33.2344246 71.3033017,34.7665158 69.910343,35.9944811 C67.6515082,37.9857612 64.9732157,38.9813864 61.875385,38.9813864 C58.7775544,38.9813864 57.0350508,38.1816219 56.647822,36.582069 L53.9372338,45.1510595 C53.2918524,47.0770518 52.7997565,48.3256636 52.4609313,48.8969325 C52.122106,49.4682014 51.7429502,49.8354402 51.3234523,49.9986598 C50.9039544,50.1618795 50.3715227,50.2434881 49.7261413,50.2434881 L47.40278,50.2434881 C48.2417758,49.0030185 49.9358765,44.7185662 52.4851329,37.3900024 C53.3591899,34.8772768 54.131768,32.676361 54.8028694,30.7872494 L54.8028694,30.7872494 C53.7526871,31.5493073 52.7623006,31.9303313 51.8316876,31.9303313 C50.7506738,31.9303313 49.8229519,31.6202186 49.0484943,30.9999838 C47.8868078,33.3177033 46.5073258,35.1457363 44.9100069,36.4841377 C43.312688,37.8225391 41.2555657,38.4917298 38.7385783,38.4917298 C37.1251249,38.4917298 35.81018,37.9939172 34.7937044,36.9982771 C33.7772287,36.0026371 33.2689985,34.4847168 33.2689985,32.4444708 C33.2689985,30.4042247 33.7288258,28.2987224 34.6484943,26.1279006 C35.5681627,23.9570789 36.9557119,22.0882415 38.8111834,20.5213326 C40.6666548,18.9544236 42.7399114,18.1709809 45.0310153,18.1709809 C48.8710345,18.1709809 50.7910153,20.2275181 50.7910153,24.3406541 C50.7910153,25.907563 50.4521952,27.5560571 49.7745447,29.2861857 C50.2585807,29.9717084 50.9523553,30.3144646 51.8558892,30.3144646 C53.4311534,30.3144646 54.9210799,29.0630174 56.3257078,26.5600878 C56.842473,25.1530598 57.248331,24.086813 57.5432842,23.3613409 C58.3661455,21.3374168 58.9711814,20.1132875 59.3584103,19.6889164 C60.1328679,18.9054619 61.4720142,18.5137405 63.3758892,18.5137405 L64.8279901,18.5137405 C63.8921871,19.1666193 62.617578,21.1252261 61.0041245,24.3896197 C64.0051479,20.3417716 66.6511719,18.3178779 68.9422758,18.3178779 C71.1043034,18.3178779 72.185301,19.8194765 72.185301,22.8227186 C72.185301,25.3036578 71.410855,27.8498466 69.8619397,30.4613615 C68.3130244,33.0728765 66.4898493,35.0967702 64.3923598,36.5331034 L64.7795867,36.5331034 C66.1026185,36.5331034 67.449832,35.9944865 68.8212674,34.9172366 C70.1927028,33.8399867 71.3785733,32.6485009 72.3789145,31.3427434 C72.9274886,30.6245768 73.7019347,29.4086084 74.7022758,27.6948018 C74.8652042,27.4156693 75.01572,27.1592687 75.1538235,26.9255998 L75.1538235,26.9255998 C75.1725344,26.8800578 75.1914303,26.8345036 75.2105111,26.7889371 C76.1947177,24.4385736 77.6064683,22.4391625 79.4458052,20.7906437 C81.2851421,19.1421249 83.3019287,18.3178779 85.4962254,18.3178779 C86.5288356,18.3178779 87.4968931,18.5545429 88.4004271,19.02788 C89.303961,19.501217 89.9009298,20.2601772 90.1913514,21.3047832 C90.5463112,20.5539726 91.0948771,19.9011037 91.8370657,19.3461568 C92.5792543,18.7912098 93.2730289,18.5137405 93.9184103,18.5137405 L96.3385783,18.5627062 L96.8226119,18.5627062 C95.7577327,19.4440925 94.450855,21.6720077 92.9019397,25.2465188 C91.3530244,28.8210298 90.5785783,31.4243447 90.5785783,33.0565415 C90.5785783,33.9052839 90.8689956,34.3296487 91.4498388,34.3296487 C93.2190315,34.3296487 95.4495392,31.8357229 98.1414226,26.8478007 C98.7583672,25.0767969 99.4239698,23.620859 100.138243,22.479959 C101.057911,21.0109818 102.009834,20.0643219 102.994041,19.6399507 C103.978248,19.2155795 105.325461,19.0033971 107.035722,19.0033971 C107.164798,19.0033971 107.229335,19.068684 107.229335,19.1992598 C107.229335,19.3298355 107.132529,19.4930528 106.938915,19.6889164 C105.615883,20.8640981 104.26867,22.9696004 102.897234,26.0054865 C101.525799,29.0413726 100.840091,31.6038832 100.840091,33.6930951 C100.840091,34.8029889 101.146643,35.3579275 101.759755,35.3579275 C102.921442,35.3579275 104.405797,34.1827634 106.212864,31.8324 C108.019932,29.4820366 109.407481,27.1317084 110.375554,24.781345 C110.50463,24.4549056 110.690174,23.9815757 110.932192,23.3613409 C111.17421,22.7411061 111.34362,22.3167413 111.440427,22.0882337 C111.537235,21.8597262 111.69051,21.5414525 111.900259,21.1334033 C112.110008,20.7253541 112.295553,20.4478848 112.456898,20.3009871 C112.618243,20.1540894 112.836056,19.9663896 113.110343,19.737882 C113.384631,19.5093745 113.666981,19.362479 113.957402,19.2971911 C114.893205,19.1013275 115.764457,19.0033971 116.571184,19.0033971 L118.555722,19.0033971 C117.55538,19.6236319 116.53892,21.1578739 115.50631,23.6061692 C114.667314,25.6627372 113.957405,27.5315745 113.376562,29.2127372 C112.795719,30.8938999 112.440764,31.9140077 112.311688,32.273091 C112.182612,32.6321743 111.884127,33.5053865 111.416226,34.8927538 C110.948324,36.2801211 110.569168,37.3491939 110.278747,38.1000045 C109.47202,40.38508 108.536231,42.1967913 107.471352,43.5351927 C106.406473,44.8735941 105.083461,45.942667 103.502276,46.7424435 C101.921092,47.5422199 100.323797,47.9421021 98.710343,47.9421021 C97.0968896,47.9421021 95.7174076,47.6238285 94.5718556,46.9872718 C93.4263037,46.350715 92.8535363,45.346929 92.8535363,43.9758837 C92.8535363,43.2577171 93.0713492,42.613009 93.5069817,42.0417401 C93.9426141,41.4704712 94.4427772,41.1848411 95.0074859,41.1848411 C95.5721946,41.1848411 96.0481562,41.3154148 96.435385,41.5765663 C96.8226139,41.8377178 97.0968968,42.1315089 97.2582422,42.4579482 C96.6773989,42.6538118 96.3869817,43.3393242 96.3869817,44.5145059 C96.3869817,45.1347407 96.6047946,45.6325533 97.0404271,46.0079586 C97.4760595,46.3833638 98.0326926,46.5710636 98.710343,46.5710636 C101.324138,46.5710636 103.518402,44.2044138 105.293201,39.471043 L108.052192,32.0282627 C106.535546,33.9542549 105.220601,35.3987274 104.107318,36.3617236 C102.994035,37.3247197 102.122784,37.9041409 101.493537,38.1000045 C100.86429,38.2958681 100.122112,38.3937984 99.2669817,38.3937984 C98.4118514,38.3937984 97.7261439,38.0428814 97.2098388,37.3410368 C96.6935337,36.6391921 96.4434522,35.6109236 96.4595867,34.2562002 C96.4689867,33.4669344 96.6043439,32.4810047 96.8656606,31.2983997 L96.8656606,31.2983997 Z M33.3174018,10.8750976 C32.8010967,12.213499 31.8411063,13.3396979 30.4374018,14.2537281 C29.0336974,15.1677584 27.5735439,15.6247666 26.0568976,15.6247666 C25.3469781,15.6247666 24.7661436,15.4697102 24.3143766,15.1595928 C23.8626097,14.8494754 23.6367296,14.4495932 23.6367296,13.9599342 C23.6367296,13.4702751 23.8303411,12.94798 24.2175699,12.3930331 C24.5725297,12.5236088 24.975887,12.5888957 25.4276539,12.5888957 C26.6861476,12.5888957 27.8478167,12.1482092 28.912696,11.2668229 C29.9775752,10.3854366 30.5100069,9.32452454 30.5100069,8.08405496 C30.5100069,6.19070664 29.2676664,5.24404668 26.7829481,5.24404668 C23.491503,5.24404668 20.2807788,6.38656732 17.1506792,8.67164287 C14.0205795,10.9567185 11.4955627,13.9191113 9.57555307,17.5589102 C7.65554347,21.1987091 6.69555307,24.8955794 6.69555307,28.6496321 C6.69555307,34.4602528 9.30930844,37.3655196 14.5368976,37.3655196 C17.7960736,37.3655196 21.2488122,36.0924252 24.895217,33.5461981 C28.5416218,30.9999711 30.9617656,28.2415998 32.1557212,25.2710016 C32.7688335,25.6953728 33.075385,26.2666331 33.075385,26.9847997 C33.075385,28.4537768 32.0427903,30.273649 29.9775699,32.4444708 C27.9123495,34.6152925 25.3147284,36.3453952 22.1846287,37.6348307 C19.0545291,38.9242662 15.8599392,39.5689743 12.6007632,39.5689743 C5.01753196,39.5689743 1.22597324,35.9945169 1.22597324,28.8454948 C1.22597324,26.136048 1.82294206,23.304229 3.01689761,20.3499528 C4.21085316,17.3956765 5.8242824,14.653627 7.85723374,12.1237219 C9.89018508,9.59381682 12.4313362,7.51279708 15.4807632,5.88060026 C18.5301902,4.24840344 21.5392357,3.43231727 24.5079901,3.43231727 C27.4767444,3.43231727 29.7516797,3.94645155 31.332864,4.97473555 C32.9140484,6.00301955 33.7046287,7.31691829 33.7046287,8.91647117 C33.7046287,9.50406203 33.5755544,10.156931 33.3174018,10.8750976 L33.3174018,10.8750976 Z M48.5160573,23.0185812 C48.386981,21.2884526 47.612535,20.4234013 46.192696,20.4234013 C43.9661302,20.4234013 41.7880007,22.6105122 39.6582422,26.9847997 C38.4965557,29.400451 37.9157212,31.5875619 37.9157212,33.5461981 C37.9157212,35.5048343 38.7547044,36.5331029 40.432696,36.6310347 C41.8202659,36.6310347 43.1029422,35.8883963 44.2807632,34.4030972 C45.4585842,32.9177981 46.4508432,31.2774649 47.2575699,29.4820483 C46.1604216,28.5353742 45.6118556,27.3438884 45.6118556,25.9075552 C45.6118556,25.0261689 45.8458029,24.3243348 46.3137044,23.8020318 C46.7816059,23.2797288 47.4189104,23.0185812 48.2256371,23.0185812 L48.5160573,23.0185812 L48.5160573,23.0185812 Z M66.7641245,22.479959 C66.6673173,22.4473151 66.5221087,22.4309933 66.3284943,22.4309933 C65.6508438,22.4309933 64.9086664,22.7574278 64.1019397,23.4103065 C62.7789078,24.4549125 61.3752244,26.1850152 59.8908472,28.6006665 C58.4064701,31.0163178 57.6642926,32.9912463 57.6642926,34.5255113 C57.6642926,36.0597763 58.1321871,36.8268973 59.0679901,36.8268973 C60.7459817,36.8268973 62.5691567,35.1457598 64.5375699,31.7834344 C66.5059831,28.4211089 67.490175,25.7933114 67.490175,23.8999631 C67.490175,23.0838647 67.2481606,22.6105347 66.7641245,22.479959 L66.7641245,22.479959 Z M89.9009313,21.7454741 C89.5782406,20.7008681 88.8199288,20.178573 87.6259733,20.178573 C85.4962147,20.178573 83.4310253,21.6720107 81.430343,24.6589309 C79.4296608,27.645851 78.4293346,30.3144528 78.4293346,32.6648162 C78.4293346,33.6767783 78.8165576,34.1827517 79.5910153,34.1827517 C80.4300111,34.1827517 81.4142029,33.6522957 82.5436203,32.5913678 C83.6730377,31.5304398 84.6894982,30.281828 85.5930321,28.8454948 C87.5937144,25.646389 89.0296664,23.2797391 89.9009313,21.7454741 L89.9009313,21.7454741 Z" id="Copay" fill="#FFFFFF" transform="translate(59.725973, 26.932317) rotate(-3.000000) translate(-59.725973, -26.932317) "></path>
                        </g>
                    </g>
                </g>
            </g>
            <path d="M94.8443198,6.51969504 C95.0539982,6.40110064 95.2955807,6.29944981 95.5690743,6.21473952 C95.842568,6.13002922 96.1342902,6.08767471 96.4442496,6.08767471 C96.8362572,6.08767471 97.1803982,6.14697103 97.476683,6.26556544 C97.7729678,6.38415985 98.0168293,6.54722471 98.2082749,6.75476493 C98.3997205,6.96230515 98.5433025,7.21007903 98.6390252,7.49809403 C98.734748,7.78610902 98.7826087,8.09529695 98.7826087,8.42566709 C98.7826087,9.01016811 98.6823292,9.57560083 98.4817672,10.1219822 C98.2812052,10.6683636 97.9758085,11.1554405 97.565568,11.5832274 C97.1553275,12.0110144 96.6425346,12.354086 96.0271739,12.6124524 C95.4118132,12.8708187 94.689345,13 93.8597475,13 C93.7230007,13 93.5725815,12.9936468 93.4084853,12.9809403 C93.2443891,12.9682337 93.0780163,12.9449388 92.9093619,12.9110546 C92.7407074,12.8771705 92.5766137,12.834816 92.4170757,12.7839898 C92.2575378,12.7331637 92.1185139,12.6738673 92,12.6060991 L94.4204067,3.20330368 L95.7468443,3 L94.8443198,6.51969504 Z M95.7414727,6.88888889 C95.4750389,6.88888889 95.2108294,6.93434298 94.9488362,7.02525253 C94.686843,7.11616207 94.4403954,7.24386642 94.2094862,7.40836941 L93.1304348,11.8109668 C93.219246,11.8282829 93.3213775,11.8455988 93.4368321,11.8629149 C93.5522867,11.880231 93.6677396,11.8888889 93.7831943,11.8888889 C94.2894184,11.8888889 94.7467895,11.7914873 95.1553213,11.5966811 C95.5638531,11.4018749 95.9102118,11.1421373 96.1944078,10.8174603 C96.4786039,10.4927834 96.6984084,10.1204927 96.8538281,9.7005772 C97.0092478,9.28066168 97.0869565,8.84127214 97.0869565,8.38239538 C97.0869565,8.19191824 97.0669743,8.00577291 97.0270092,7.82395382 C96.9870442,7.64213473 96.9159962,7.48196317 96.8138633,7.34343434 C96.7117303,7.20490551 96.5740749,7.09451701 96.400893,7.01226551 C96.227711,6.93001402 96.0079065,6.88888889 95.7414727,6.88888889 Z M102.049269,13 C101.587714,13 101.189515,12.9408772 100.854661,12.82263 C100.519807,12.7043827 100.239258,12.5412854 100.013006,12.3333333 C99.7867529,12.1253812 99.6193284,11.8827741 99.5107272,11.6055046 C99.4021259,11.3282351 99.3478261,11.0346601 99.3478261,10.7247706 C99.3478261,10.1539217 99.4428508,9.6034685 99.632903,9.0733945 C99.8229552,8.54332049 100.094454,8.0744159 100.447408,7.66666667 C100.800363,7.25891743 101.230236,6.93476165 101.737042,6.6941896 C102.243848,6.45361755 102.818521,6.33333333 103.461078,6.33333333 C103.832133,6.33333333 104.151144,6.37614636 104.418122,6.4617737 C104.6851,6.54740104 104.9023,6.66360783 105.069727,6.81039755 C105.237154,6.95718728 105.361591,7.12640067 105.443042,7.31804281 C105.524493,7.50968495 105.565217,7.70744037 105.565217,7.91131498 C105.565217,8.29459927 105.488293,8.61875505 105.334441,8.88379205 C105.180589,9.14882905 104.976965,9.37104905 104.723562,9.55045872 C104.470159,9.72986838 104.173772,9.86850104 103.834393,9.96636086 C103.495014,10.0642207 103.142066,10.1416919 102.775536,10.1987768 C102.409007,10.2558617 102.037958,10.2945972 101.662379,10.3149847 C101.2868,10.3353722 100.931588,10.3537206 100.596734,10.3700306 C100.587684,10.4352705 100.583159,10.4882771 100.583159,10.529052 L100.583159,10.6269113 C100.583159,10.814476 100.608047,10.9918442 100.657822,11.1590214 C100.707598,11.3261986 100.80036,11.4729861 100.936112,11.5993884 C101.071863,11.7257906 101.25965,11.8256877 101.499478,11.8990826 C101.739306,11.9724774 102.053792,12.0091743 102.442947,12.0091743 C102.614899,12.0091743 102.793636,11.9949033 102.979163,11.9663609 C103.16469,11.9378184 103.341164,11.9011215 103.508591,11.8562691 C103.676018,11.8114167 103.825343,11.766565 103.956569,11.7217125 C104.087796,11.6768601 104.180558,11.6340471 104.234859,11.5932722 L104.343459,12.559633 C104.162457,12.6493379 103.870596,12.7451575 103.467866,12.8470948 C103.065136,12.9490321 102.592275,13 102.049269,13 Z M101.043478,9.11111111 C101.542076,9.09465012 101.997684,9.06378623 102.410316,9.01851852 C102.822948,8.9732508 103.179698,8.89506228 103.480575,8.78395062 C103.781453,8.67283895 104.015704,8.52263469 104.183336,8.33333333 C104.350968,8.14403198 104.434783,7.89712086 104.434783,7.59259259 C104.434783,7.51851815 104.419739,7.44032963 104.389651,7.35802469 C104.359563,7.27571975 104.307985,7.19958883 104.234915,7.12962963 C104.161845,7.05967043 104.060837,7.00205784 103.93189,6.95679012 C103.802942,6.91152241 103.643909,6.88888889 103.454786,6.88888889 C103.153908,6.88888889 102.872377,6.95061667 102.610184,7.07407407 C102.34799,7.19753148 102.113739,7.3600813 101.907423,7.5617284 C101.701107,7.76337549 101.524881,7.99794105 101.37874,8.2654321 C101.2326,8.53292315 101.120847,8.81481333 101.043478,9.11111111 Z M108.537372,13 C107.902293,13 107.436575,12.859314 107.140205,12.5779376 C106.843835,12.2965613 106.695652,11.8872929 106.695652,11.3501199 C106.695652,11.0005312 106.754925,10.5528937 106.873473,10.0071942 L108.232535,4.3157474 L109.464582,4.11111111 L108.969223,6.17026379 L111.217391,6.17026379 L110.976063,7.16786571 L108.727894,7.16786571 L108.029311,10.1095124 C107.927699,10.5102605 107.876893,10.859844 107.876893,11.1582734 C107.876893,11.4396497 107.953101,11.6421523 108.10552,11.7657874 C108.257939,11.8894224 108.511967,11.951239 108.867611,11.951239 C109.113175,11.951239 109.354501,11.9107385 109.591597,11.8297362 C109.828694,11.7487339 110.010747,11.6741277 110.137763,11.6059153 L110.226673,12.616307 C110.099657,12.6930459 109.883734,12.7761786 109.578896,12.8657074 C109.274058,12.9552363 108.926887,13 108.537372,13 Z M116.046692,12.9142157 C116.004136,12.824346 115.961581,12.7242653 115.919025,12.6139706 C115.876469,12.5036759 115.842425,12.3872555 115.816891,12.2647059 C115.629645,12.4281054 115.378569,12.5915025 115.063655,12.754902 C114.748741,12.9183015 114.361488,13 113.901884,13 C113.527392,13 113.206099,12.942811 112.937997,12.8284314 C112.669894,12.7140517 112.450734,12.5547396 112.280511,12.3504902 C112.110287,12.1462408 111.984749,11.9052301 111.903893,11.627451 C111.823036,11.3496718 111.782609,11.0433023 111.782609,10.7083333 C111.782609,10.160945 111.878358,9.62581961 112.06986,9.10294118 C112.261362,8.58006275 112.54861,8.11438113 112.931613,7.70588235 C113.314617,7.29738358 113.795492,6.96650453 114.374252,6.71323529 C114.953013,6.45996605 115.629642,6.33333333 116.40416,6.33333333 C116.633962,6.33333333 116.902061,6.35784289 117.208464,6.40686275 C117.514866,6.4558826 117.778709,6.53758113 118,6.65196078 L117.016963,10.5 C116.974407,10.6879094 116.938235,10.8676462 116.908446,11.0392157 C116.878657,11.2107852 116.863762,11.3905219 116.863762,11.5784314 C116.863762,11.7663408 116.880784,11.9562899 116.914829,12.1482843 C116.948874,12.3402787 117.008451,12.5465675 117.093563,12.7671569 L116.046692,12.9142157 Z M114.185771,11.8888889 C114.573124,11.8888889 114.905137,11.8109676 115.181818,11.6551227 C115.458499,11.4992777 115.698286,11.3174614 115.901186,11.1096681 C115.910408,10.9624812 115.926548,10.8088031 115.949605,10.6486291 C115.972662,10.4884552 116.002635,10.3261191 116.039526,10.1616162 L116.869565,6.94083694 C116.823452,6.92352084 116.747365,6.91053395 116.641304,6.9018759 C116.535243,6.89321785 116.440712,6.88888889 116.357708,6.88888889 C115.832013,6.88888889 115.357051,6.98412603 114.932806,7.17460317 C114.508562,7.36508032 114.146576,7.61832454 113.846838,7.93434343 C113.5471,8.25036233 113.316536,8.61832402 113.155138,9.03823954 C112.993741,9.45815506 112.913043,9.8975446 112.913043,10.3564214 C112.913043,10.5382404 112.931489,10.7222213 112.968379,10.9083694 C113.00527,11.0945175 113.072134,11.259018 113.168972,11.4018759 C113.265811,11.5447338 113.394927,11.6616157 113.556324,11.7525253 C113.717721,11.8434348 113.927535,11.8888889 114.185771,11.8888889 Z" id="beta-2" fill="#FFFFFF" sketch:type="MSShapeGroup" transform="translate(105.000000, 8.000000) rotate(-3.000000) translate(-105.000000, -8.000000) "></path>
        </g>
    </g>
</svg>