<?xml version="1.0" encoding="UTF-8" standalone="no"?>
<svg width="34px" height="30px" viewBox="0 0 34 30" version="1.1" xmlns="http://www.w3.org/2000/svg" xmlns:xlink="http://www.w3.org/1999/xlink" xmlns:sketch="http://www.bohemiancoding.com/sketch/ns">
    <!-- Generator: Sketch 3.0.3 (7891) - http://www.bohemiancoding.com/sketch -->
    <title>Shape</title>
    <desc>Created with Sketch.</desc>
    <defs></defs>
    <g id="Page-1" stroke="none" stroke-width="1" fill="none" fill-rule="evenodd" sketch:type="MSPage">
        <g id="Icons" sketch:type="MSLayerGroup" transform="translate(-896.000000, -1730.000000)" fill="#404040">
            <g id="Group" sketch:type="MSShapeGroup">
                <path d="M928.454,1738.942 L928.083,1741.319 C928.083,1741.319 927.553,1736.917 926.904,1735.271 C925.909,1732.75 925.466,1732.771 925.463,1732.773 C926.13,1734.467 926.009,1735.377 926.009,1735.377 C926.009,1735.377 924.828,1732.158 921.706,1731.134 C918.247,1730 916.376,1730.31 916.16,1730.369 L916.065,1730.369 C916.09,1730.371 916.115,1730.374 916.14,1730.376 C916.139,1730.377 916.137,1730.377 916.137,1730.378 C916.152,1730.395 919.959,1731.044 920.634,1731.972 C920.634,1731.972 919.017,1731.972 917.407,1732.436 C917.334,1732.457 923.33,1733.185 924.554,1739.176 C924.554,1739.176 923.898,1737.805 923.084,1737.572 C923.619,1739.199 923.481,1742.285 922.973,1743.817 C922.907,1744.014 922.839,1742.964 921.837,1742.512 C922.158,1744.813 921.818,1748.464 920.221,1749.469 C920.097,1749.547 921.222,1745.866 920.448,1747.289 C915.988,1754.127 910.717,1750.443 908.346,1748.823 C909.562,1749.088 911.867,1748.782 912.887,1748.023 C912.887,1748.023 912.889,1748.021 912.892,1748.02 C913.999,1747.262 914.657,1746.709 915.246,1746.84 C915.836,1746.972 916.228,1746.38 915.77,1745.855 C915.311,1745.329 914.198,1744.606 912.691,1745.001 C911.628,1745.278 910.312,1746.454 908.301,1745.265 C906.758,1744.351 906.613,1743.592 906.6,1743.066 C906.637,1742.88 906.686,1742.707 906.743,1742.547 C906.921,1742.051 907.459,1741.901 907.758,1741.782 C908.267,1741.87 908.704,1742.028 909.163,1742.263 C909.169,1742.11 909.171,1741.907 909.162,1741.677 C909.206,1741.589 909.18,1741.324 909.108,1741.003 C909.067,1740.681 909.001,1740.348 908.897,1740.044 L908.898,1740.044 C908.9,1740.043 908.901,1740.043 908.903,1740.042 C908.905,1740.041 908.908,1740.037 908.909,1740.035 C908.909,1740.035 908.91,1740.035 908.91,1740.033 C908.913,1740.029 908.915,1740.024 908.916,1740.018 C908.948,1739.874 909.292,1739.595 909.72,1739.296 C910.105,1739.027 910.554,1738.743 910.91,1738.523 C911.224,1738.329 911.464,1738.183 911.514,1738.145 C911.534,1738.13 911.557,1738.113 911.582,1738.094 C911.587,1738.09 911.591,1738.087 911.596,1738.083 C911.6,1738.081 911.603,1738.077 911.606,1738.075 C911.775,1737.94 912.027,1737.686 912.08,1737.151 L912.08,1737.147 C912.082,1737.131 912.083,1737.116 912.084,1737.099 C912.085,1737.088 912.086,1737.077 912.086,1737.065 C912.086,1737.056 912.087,1737.047 912.087,1737.039 C912.088,1737.018 912.089,1736.996 912.089,1736.974 L912.089,1736.97 C912.09,1736.918 912.089,1736.865 912.086,1736.807 C912.084,1736.775 912.082,1736.747 912.077,1736.721 C912.077,1736.721 912.076,1736.718 912.076,1736.717 C912.075,1736.714 912.075,1736.712 912.074,1736.709 C912.073,1736.704 912.072,1736.699 912.07,1736.695 C912.07,1736.695 912.07,1736.694 912.069,1736.694 C912.067,1736.689 912.065,1736.684 912.064,1736.679 C912.064,1736.679 912.064,1736.679 912.064,1736.678 C912.008,1736.55 911.803,1736.501 910.956,1736.487 L910.954,1736.487 L910.954,1736.487 C910.608,1736.481 910.156,1736.481 909.563,1736.483 C908.524,1736.487 907.95,1735.467 907.766,1735.073 C908.017,1733.684 908.743,1732.694 909.936,1732.022 C909.958,1732.009 909.954,1732 909.926,1731.991 C910.159,1731.85 907.107,1731.987 905.701,1733.773 C904.455,1733.463 903.368,1733.484 902.432,1733.704 C902.251,1733.699 902.028,1733.677 901.762,1733.622 C901.139,1733.058 900.247,1732.016 900.2,1730.771 C900.2,1730.771 900.197,1730.773 900.192,1730.777 C900.191,1730.765 900.19,1730.754 900.19,1730.741 C900.19,1730.741 898.293,1732.199 898.577,1736.176 C898.576,1736.239 898.575,1736.301 898.573,1736.36 C898.06,1737.057 897.805,1737.642 897.786,1737.771 C897.335,1738.697 896.874,1740.09 896.498,1742.207 C896.498,1742.207 896.761,1741.374 897.288,1740.43 C896.9,1741.618 896.595,1743.466 896.774,1746.239 C896.774,1746.239 896.821,1745.624 896.989,1744.739 C897.12,1746.458 897.693,1748.58 899.14,1751.076 C901.92,1755.867 906.193,1758.287 910.915,1758.658 C911.754,1758.727 912.604,1758.729 913.46,1758.664 C913.539,1758.658 913.617,1758.653 913.696,1758.646 C914.664,1758.578 915.637,1758.432 916.61,1758.197 C929.899,1754.986 928.454,1738.942 928.454,1738.942 L928.454,1738.942 L928.454,1738.942 L928.454,1738.942 Z" id="Shape"></path>
            </g>
        </g>
    </g>
</svg>