<?xml version="1.0" encoding="UTF-8" standalone="no"?>
<svg width="34px" height="34px" viewBox="0 0 34 34" version="1.1" xmlns="http://www.w3.org/2000/svg" xmlns:xlink="http://www.w3.org/1999/xlink" xmlns:sketch="http://www.bohemiancoding.com/sketch/ns">
    <!-- Generator: Sketch 3.0.3 (7891) - http://www.bohemiancoding.com/sketch -->
    <title>Shape 2</title>
    <desc>Created with Sketch.</desc>
    <defs></defs>
    <g id="Page-1" stroke="none" stroke-width="1" fill="none" fill-rule="evenodd" sketch:type="MSPage">
        <path d="M8.571,14.454 L3.992,6.523 C6.924,2.851 11.437,0.5 16.5,0.5 C22.357,0.5 27.479,3.648 30.267,8.344 L17.211,8.344 C16.977,8.323 16.74,8.313 16.5,8.313 C12.691,8.312 9.482,10.926 8.571,14.454 C8.571,14.454 9.482,10.926 8.571,14.454 L8.571,14.454 L8.571,14.454 Z M22.229,10.656 L31.4,10.656 C32.111,12.467 32.501,14.437 32.501,16.5 C32.501,25.276 25.435,32.4 16.683,32.498 L23.226,21.164 C24.148,19.84 24.689,18.232 24.689,16.5 C24.688,14.213 23.745,12.143 22.229,10.656 C22.229,10.656 23.745,12.143 22.229,10.656 L22.229,10.656 L22.229,10.656 Z M10.688,16.5 C10.688,13.295 13.295,10.688 16.5,10.688 C19.705,10.688 22.312,13.295 22.312,16.5 C22.312,19.705 19.705,22.312 16.5,22.312 C13.295,22.312 10.688,19.705 10.688,16.5 C10.688,16.5 10.688,19.705 10.688,16.5 L10.688,16.5 L10.688,16.5 Z M18.693,24.389 L14.113,32.324 C6.409,31.171 0.5,24.526 0.5,16.501 C0.5,13.65 1.246,10.975 2.553,8.656 L9.085,19.97 C10.394,22.754 13.225,24.688 16.5,24.688 C17.259,24.688 17.995,24.583 18.693,24.389 C18.693,24.389 17.995,24.583 18.693,24.389 L18.693,24.389 L18.693,24.389 Z" id="Shape-2" fill="#404040" sketch:type="MSShapeGroup"></path>
    </g>
</svg>