<?xml version="1.0" encoding="UTF-8" standalone="no"?>
<svg width="146px" height="59px" viewBox="0 0 146 59" version="1.1" xmlns="http://www.w3.org/2000/svg" xmlns:xlink="http://www.w3.org/1999/xlink" xmlns:sketch="http://www.bohemiancoding.com/sketch/ns">
    <!-- Generator: Sketch 3.0.2 (7799) - http://www.bohemiancoding.com/sketch -->
    <title>Copay + Path 1 + Path 1 copy + beta</title>
    <description>Created with Sketch.</description>
    <defs></defs>
    <g id="Login" stroke="none" stroke-width="1" fill="none" fill-rule="evenodd" sketch:type="MSPage">
        <g id="1" sketch:type="MSArtboardGroup" transform="translate(-476.000000, -40.000000)">
            <g id="Copay-+-Path-1-+-Path-1-copy-+-beta" sketch:type="MSLayerGroup" transform="translate(475.000000, 26.000000)">
                <g id="Copay-+-Path-1-+-Path-1-copy" sketch:type="MSShapeGroup">
                    <path d="M4.56854526,70.9203354 L52.2636225,66.934771" id="Path-1" stroke="#FFFFFF" stroke-width="3" stroke-linecap="round" transform="translate(28.568545, 68.750123) rotate(1.000000) translate(-28.568545, -68.750123) "></path>
                    <path d="M76.7940072,65.9143193 L105.335674,63.203681" id="Path-1-copy" stroke="#FFFFFF" stroke-width="3" stroke-linecap="round" transform="translate(91.169007, 64.663256) rotate(1.000000) translate(-91.169007, -64.663256) "></path>
                    <path d="M120.070375,48.3739792 C116.172557,54.1751607 112.834794,57.0757151 110.057013,57.0757151 C107.897002,57.0757151 106.817013,55.4143189 106.817013,52.0914768 C106.817013,49.6093537 107.237009,47.1673016 108.077013,44.765247 C103.51699,52.852164 99.2970322,56.8955619 95.4170128,56.8955619 C92.7369994,56.8955619 91.3970128,55.0540144 91.3970128,51.370864 C91.3970128,50.4173267 91.4676351,49.4591593 91.6088803,48.4963585 C90.0343176,50.7483034 88.3837012,52.6272468 86.6570128,54.133213 C83.8569988,56.5753018 80.537032,57.7963279 76.6970128,57.7963279 C72.8569936,57.7963279 70.6970152,56.8155036 70.2170128,54.8538257 L66.8570128,65.3627619 C66.0570088,67.7247822 65.4470149,69.256069 65.0270128,69.9566683 C64.6070107,70.6572675 64.1370154,71.107646 63.6170128,71.3078172 C63.0970102,71.5079884 62.4370168,71.6080725 61.6370128,71.6080725 L58.7570128,71.6080725 C59.797018,70.0867713 61.896997,64.8323558 65.0570128,55.8446683 C66.1404792,52.7630833 67.0981542,50.0638991 67.9300403,47.7471088 L67.9300403,47.7471088 C66.6282519,48.6816901 65.4005853,49.1489747 64.2470128,49.1489747 C62.9070061,49.1489747 61.7570176,48.7686551 60.7970128,48.0080045 C59.3570056,50.8504357 57.6470227,53.0923197 55.6670128,54.7337236 C53.6870029,56.3751276 51.1370284,57.1958172 48.0170128,57.1958172 C46.0170028,57.1958172 44.3870191,56.5853042 43.1270128,55.3642598 C41.8670065,54.1432154 41.2370128,52.281651 41.2370128,49.7795108 C41.2370128,47.2773707 41.8070071,44.6952007 42.9470128,42.0329236 C44.0870185,39.3706465 45.8070013,37.0787204 48.1070128,35.1570768 C50.4070243,33.2354331 52.9769986,32.2746257 55.8170128,32.2746257 C60.5770366,32.2746257 62.9570128,34.7967452 62.9570128,39.8410598 C62.9570128,41.7627034 62.537017,43.7844024 61.6970128,45.9062172 C62.2970158,46.7469363 63.1570072,47.1672896 64.2770128,47.1672896 C66.2296841,47.1672896 68.0765721,45.6325255 69.8177254,42.5629543 C70.4582989,40.8373872 70.9613938,39.5297512 71.3270128,38.6400385 C72.3470179,36.1579154 73.0970104,34.6566539 73.5770128,34.1362087 C74.5370176,33.1753869 76.197001,32.6949832 78.5570128,32.6949832 L80.3570128,32.6949832 C79.197007,33.495668 77.6170228,35.8976866 75.6170128,39.9011108 C79.3370314,34.9368647 82.6169986,32.4547789 85.4570128,32.4547789 C88.1370262,32.4547789 89.4770128,34.2963265 89.4770128,37.9794768 C89.4770128,41.0220792 88.5170224,44.1447033 86.5970128,47.3474428 C84.6770032,50.5501822 82.4170258,53.032268 79.8170128,54.7937747 L80.2970128,54.7937747 C81.937021,54.7937747 83.6070043,54.1332196 85.3070128,52.8120896 C87.0070213,51.4909595 88.4770066,50.0297316 89.7170128,48.4283619 C90.3970162,47.5476086 91.3570066,46.0563554 92.5970128,43.9545576 C92.7989761,43.612232 92.9855531,43.2977844 93.1567438,43.011215 L93.1567438,43.011215 C93.1799376,42.9553627 93.2033606,42.8994954 93.2270128,42.843613 C94.4470189,39.9611475 96.1970014,37.5090869 98.4770128,35.4873576 C100.757024,33.4656284 103.256999,32.4547789 105.977013,32.4547789 C107.257019,32.4547789 108.457007,32.7450228 109.577013,33.3255193 C110.697018,33.9060159 111.437011,34.836798 111.797013,36.1178938 C112.237015,35.1971062 112.917008,34.3964334 113.837013,33.7158513 C114.757017,33.0352691 115.617009,32.6949832 116.417013,32.6949832 L119.417013,32.7550342 L120.017013,32.7550342 C118.697006,33.8359588 117.077022,36.5682549 115.157013,40.9520045 C113.237003,45.335754 112.277013,48.528437 112.277013,50.5301491 C112.277013,51.5710394 112.637009,52.0914768 113.357013,52.0914768 C115.550075,52.0914768 118.314975,49.0329477 121.651789,42.9158028 C122.416543,40.7438591 123.241613,38.9583093 124.127013,37.5591193 C125.267019,35.7575784 126.447007,34.5966028 127.667013,34.0761576 C128.887019,33.5557125 130.557002,33.2954938 132.677013,33.2954938 C132.837014,33.2954938 132.917013,33.3755611 132.917013,33.5356981 C132.917013,33.695835 132.797014,33.8960033 132.557013,34.1362087 C130.917005,35.5774414 129.247021,38.1596114 127.547013,41.8827959 C125.847004,45.6059805 124.997013,48.7486214 124.997013,51.310813 C124.997013,52.6719772 125.377009,53.3525491 126.137013,53.3525491 C127.57702,53.3525491 129.417002,51.911338 131.657013,49.0288725 C133.897024,46.1464071 135.617007,43.2639848 136.817013,40.3815193 C136.977014,39.9811769 137.207011,39.4006891 137.507013,38.6400385 C137.807014,37.8793879 138.017012,37.3589505 138.137013,37.0787108 C138.257013,36.7984711 138.447012,36.4081431 138.707013,35.9077151 C138.967014,35.4072871 139.197012,35.0670011 139.397013,34.886847 C139.597014,34.7066929 139.867011,34.4764995 140.207013,34.1962598 C140.547015,33.9160201 140.897011,33.7358687 141.257013,33.6558002 C142.417019,33.4155947 143.497008,33.2954938 144.497013,33.2954938 L146.957013,33.2954938 C145.717007,34.0561444 144.457019,35.9377256 143.177013,38.9402938 C142.137008,41.4624511 141.257016,43.7543771 140.537013,45.8161406 C139.817009,47.8779041 139.377014,49.1289554 139.217013,49.5693321 C139.057012,50.0097088 138.687016,51.0806087 138.107013,52.782064 C137.52701,54.4835193 137.057015,55.7946211 136.697013,56.7154087 C135.697008,59.5178057 134.537019,61.7396728 133.217013,63.3810768 C131.897006,65.0224807 130.257023,66.3335825 128.297013,67.3144215 C126.337003,68.2952604 124.357023,68.7856725 122.357013,68.7856725 C120.357003,68.7856725 118.64702,68.3953445 117.227013,67.6146768 C115.807006,66.8340091 115.097013,65.6029746 115.097013,63.9215364 C115.097013,63.040783 115.36701,62.2501186 115.907013,61.5495193 C116.447016,60.8489201 117.067009,60.4986257 117.767013,60.4986257 C118.467016,60.4986257 119.05701,60.6587603 119.537013,60.9790342 C120.017015,61.2993082 120.357012,61.659611 120.557013,62.0599534 C119.837009,62.3001588 119.477013,63.1408653 119.477013,64.5820981 C119.477013,65.3427487 119.74701,65.9532617 120.287013,66.4136555 C120.827016,66.8740493 121.517009,67.1042428 122.357013,67.1042428 C125.597029,67.1042428 128.317002,64.2018037 130.517013,58.3968385 L133.937013,49.2690768 C132.057003,51.6310971 130.42702,53.4025858 129.047013,54.5835959 C127.667006,55.7646061 126.587017,56.4752033 125.807013,56.7154087 C125.027009,56.9556142 124.107018,57.0757151 123.047013,57.0757151 C121.987008,57.0757151 121.137016,56.6453534 120.497013,55.7846172 C119.85701,54.923881 119.547013,53.6628213 119.567013,52.0014002 C119.578665,51.0334514 119.746451,49.8243157 120.070375,48.3739792 Z M41.2970128,23.3270172 C40.6570096,24.9684212 39.4670215,26.3495818 37.7270128,27.4705406 C35.9870041,28.5914994 34.1770222,29.1519704 32.2970128,29.1519704 C31.4170084,29.1519704 30.6970156,28.9618106 30.1370128,28.5814853 C29.57701,28.20116 29.2970128,27.7107479 29.2970128,27.1102342 C29.2970128,26.5097206 29.5370104,25.8691823 30.0170128,25.1886002 C30.457015,25.3487372 30.95701,25.4288045 31.5170128,25.4288045 C33.0770206,25.4288045 34.5170062,24.8883503 35.8370128,23.8074257 C37.1570194,22.7265012 37.8170128,21.4254078 37.8170128,19.9041066 C37.8170128,17.5821205 36.2770282,16.4211449 33.1970128,16.4211449 C29.1169924,16.4211449 25.1370322,17.8223224 21.2570128,20.6247193 C17.3769934,23.4271163 14.2470247,27.0601694 11.8670128,31.5239874 C9.48700094,35.9878055 8.29701284,40.5216155 8.29701284,45.1255534 C8.29701284,52.2516486 11.5369804,55.8146428 18.0170128,55.8146428 C22.057033,55.8146428 26.3369902,54.2533307 30.8570128,51.1306598 C35.3770354,48.0079888 38.3770054,44.6251461 39.8570128,40.98203 C40.6170166,41.5024751 40.9970128,42.2030639 40.9970128,43.0838172 C40.9970128,44.8853581 39.7170256,47.1172337 37.1570128,49.7795108 C34.597,52.441788 31.3770322,54.563571 27.4970128,56.1449236 C23.6169934,57.7262762 19.657033,58.5169406 15.6170128,58.5169406 C6.21696584,58.5169406 1.51701284,54.1332568 1.51701284,45.3657576 C1.51701284,42.0429155 2.25700544,38.569997 3.73701284,34.9468981 C5.21702024,31.3237991 7.21700024,27.9609732 9.73701284,24.8583193 C12.2570254,21.7556655 15.4069939,19.2035208 19.1870128,17.2018087 C22.9670317,15.2000966 26.6969944,14.1992555 30.3770128,14.1992555 C34.0570312,14.1992555 36.877003,14.8297854 38.8370128,16.090864 C40.7970226,17.3519427 41.7770128,18.9632968 41.7770128,20.9249747 C41.7770128,21.645591 41.6170144,22.4462639 41.2970128,23.3270172 Z M60.1370128,38.219681 C59.977012,36.0978662 59.0170216,35.0369747 57.2570128,35.0369747 C54.496999,35.0369747 51.797026,37.7192287 49.1570128,43.0838172 C47.7170056,46.0463512 46.9970128,48.7286052 46.9970128,51.1306598 C46.9970128,53.5327143 48.0370024,54.7937741 50.1170128,54.9138768 C51.8370214,54.9138768 53.4270055,54.0031114 54.8870128,52.1815534 C56.3470201,50.3599953 57.5770078,48.3483048 58.5770128,46.1464215 C57.217006,44.9854284 56.5370128,43.5242005 56.5370128,41.7626938 C56.5370128,40.6817693 56.8270099,39.821046 57.4070128,39.1804981 C57.9870157,38.5399502 58.7770078,38.219681 59.7770128,38.219681 L60.1370128,38.219681 Z M82.7570128,37.5591193 C82.6370122,37.5190851 82.457014,37.4990683 82.2170128,37.4990683 C81.3770086,37.4990683 80.4570178,37.8994047 79.4570128,38.7000896 C77.8170046,39.9811853 76.077022,42.1029684 74.2370128,45.0655023 C72.3970036,48.0280363 71.4770128,50.4500716 71.4770128,52.331681 C71.4770128,54.2132905 72.057007,55.154081 73.2170128,55.154081 C75.2970232,55.154081 77.5570006,53.0923485 79.9970128,48.9688215 C82.437025,44.8452945 83.6570128,41.6225863 83.6570128,39.3006002 C83.6570128,38.2997441 83.3570158,37.7192563 82.7570128,37.5591193 Z M111.437013,36.6583534 C111.037011,35.3772576 110.09702,34.7367193 108.617013,34.7367193 C105.977,34.7367193 103.417025,36.5682585 100.937013,40.2313917 C98.4570004,43.8945249 97.2170128,47.1672751 97.2170128,50.0497406 C97.2170128,51.2908021 97.697008,51.9113236 98.6570128,51.9113236 C99.697018,51.9113236 100.917006,51.2607769 102.317013,49.959664 C103.71702,48.6585511 104.977007,47.1272643 106.097013,45.3657576 C108.577025,41.4424019 110.357007,38.5399628 111.437013,36.6583534 Z" id="Copay" fill="#FFFFFF" transform="translate(74.225346, 42.973724) rotate(-3.000000) translate(-74.225346, -42.973724) "></path>
                </g>
                <path d="M121.941913,17.544962 C122.16085,17.4150036 122.4131,17.3036123 122.69867,17.2107848 C122.98424,17.1179573 123.288844,17.0715443 123.61249,17.0715443 C124.021807,17.0715443 124.381143,17.1365226 124.690511,17.266481 C124.999878,17.3964395 125.254508,17.5751297 125.454407,17.802557 C125.654306,18.0299843 125.804228,18.3015005 125.904177,18.6171139 C126.004127,18.9327273 126.054101,19.2715425 126.054101,19.6335696 C126.054101,20.2740792 125.949394,20.8936932 125.739976,21.4924304 C125.530558,22.0911676 125.211676,22.6249175 124.783321,23.0936962 C124.354966,23.5624749 123.81953,23.9384205 123.176997,24.2215443 C122.534465,24.5046681 121.780095,24.6462278 120.913866,24.6462278 C120.771081,24.6462278 120.61402,24.6392659 120.442678,24.6253418 C120.271336,24.6114177 120.097617,24.5858905 119.921516,24.5487595 C119.745414,24.5116285 119.574075,24.4652155 119.407492,24.409519 C119.24091,24.3538225 119.095747,24.2888443 118.972,24.2145823 L121.499282,13.9107848 L122.88429,13.688 L121.941913,17.544962 Z M123.284086,18.1715443 C122.998516,18.1715443 122.71533,18.220278 122.434519,18.3177468 C122.153709,18.4152157 121.88956,18.5521341 121.642066,18.7285063 L120.485514,23.4487595 C120.580704,23.467325 120.69017,23.4858902 120.813917,23.5044557 C120.937664,23.5230212 121.06141,23.5323038 121.185157,23.5323038 C121.72774,23.5323038 122.217961,23.4278745 122.655835,23.2190127 C123.093709,23.0101509 123.464944,22.7316726 123.769552,22.3835696 C124.07416,22.0354666 124.309752,21.6363145 124.476335,21.1861013 C124.642917,20.735888 124.726207,20.2647957 124.726207,19.7728101 C124.726207,19.5685897 124.70479,19.3690136 124.661954,19.1740759 C124.619119,18.9791383 124.542968,18.80741 124.433499,18.6588861 C124.324031,18.5103621 124.176488,18.3920089 123.990868,18.3038228 C123.805247,18.2156367 123.569656,18.1715443 123.284086,18.1715443 Z M130.009226,24.6740759 C129.523757,24.6740759 129.104927,24.606777 128.752724,24.4721772 C128.400521,24.3375774 128.105437,24.1519252 127.867461,23.9152152 C127.629486,23.6785051 127.453388,23.4023476 127.33916,23.0867342 C127.224932,22.7711208 127.167818,22.4369469 127.167818,22.0842025 C127.167818,21.4344103 127.267766,20.8078342 127.467665,20.2044557 C127.667564,19.6010772 127.95313,19.0673272 128.324371,18.6031899 C128.695612,18.1390525 129.147758,17.7700689 129.680822,17.4962278 C130.213886,17.2223868 130.818334,17.0854684 131.494183,17.0854684 C131.884462,17.0854684 132.220001,17.134202 132.500812,17.2316709 C132.781622,17.3291397 133.010075,17.4614169 133.186176,17.6285063 C133.362278,17.7955958 133.493162,17.9882099 133.578833,18.2063544 C133.664504,18.424499 133.707339,18.6496022 133.707339,18.8816709 C133.707339,19.31796 133.626429,19.6869436 133.464606,19.9886329 C133.302783,20.2903222 133.088609,20.5432732 132.822076,20.7474937 C132.555544,20.9517141 132.243802,21.1095184 131.886839,21.2209114 C131.529877,21.3323044 131.158641,21.4204891 130.773122,21.4854684 C130.387602,21.5504476 129.997329,21.59454 129.602291,21.6177468 C129.207252,21.6409537 128.833637,21.6618396 128.481434,21.6804051 C128.471915,21.754667 128.467156,21.815004 128.467156,21.8614177 L128.467156,21.9728101 C128.467156,22.1863133 128.493332,22.38821 128.545687,22.5785063 C128.598041,22.7688026 128.69561,22.9358896 128.838395,23.0797722 C128.98118,23.2236547 129.178696,23.3373667 129.43095,23.4209114 C129.683203,23.5044561 130.013983,23.5462278 130.4233,23.5462278 C130.604161,23.5462278 130.792159,23.5299833 130.987298,23.4974937 C131.182438,23.4650041 131.368056,23.4232323 131.544157,23.3721772 C131.720259,23.3211221 131.87732,23.2700678 132.015345,23.2190127 C132.153371,23.1679576 132.250939,23.1192239 132.308053,23.0728101 L132.42228,24.1728101 C132.2319,24.2749203 131.924917,24.383991 131.501322,24.5000253 C131.077726,24.6160597 130.580366,24.6740759 130.009226,24.6740759 Z M128.652775,20.6917975 C129.204877,20.673232 129.709377,20.6384222 130.166289,20.5873671 C130.623201,20.536312 131.018233,20.4481272 131.351398,20.3228101 C131.684563,20.197493 131.943952,20.0280855 132.129573,19.8145823 C132.315193,19.6010791 132.408002,19.3226009 132.408002,18.9791392 C132.408002,18.8955945 132.391344,18.8074097 132.358028,18.7145823 C132.324711,18.6217548 132.267598,18.5358907 132.186686,18.4569873 C132.105775,18.378084 131.993928,18.3131057 131.851143,18.2620506 C131.708358,18.2109955 131.532259,18.1854684 131.322841,18.1854684 C130.989676,18.1854684 130.677934,18.2550879 130.387604,18.3943291 C130.097275,18.5335703 129.837886,18.7169018 129.60943,18.9443291 C129.380974,19.1717564 129.185837,19.4363107 129.024014,19.738 C128.862191,20.0396893 128.738446,20.3576186 128.652775,20.6917975 Z M136.762923,24.688 C136.048998,24.688 135.525461,24.534837 135.192296,24.2285063 C134.859131,23.9221757 134.692551,23.4766105 134.692551,22.8917975 C134.692551,22.5112048 134.759183,22.0238679 134.892449,21.4297722 L136.420241,15.2335696 L137.805248,15.0107848 L137.24839,17.252557 L139.775672,17.252557 L139.504381,18.3386329 L136.977099,18.3386329 L136.191786,21.5411646 C136.077558,21.9774537 136.020445,22.3580406 136.020445,22.6829367 C136.020445,22.9892674 136.106114,23.2097293 136.277456,23.3443291 C136.448798,23.4789289 136.734364,23.5462278 137.134162,23.5462278 C137.410213,23.5462278 137.681501,23.5021355 137.948033,23.4139494 C138.214565,23.3257633 138.41922,23.2445405 138.562005,23.1702785 L138.661954,24.2702785 C138.519169,24.3538232 138.276438,24.4443286 137.933754,24.5417975 C137.59107,24.6392663 137.200797,24.688 136.762923,24.688 Z M144.7874,24.5766076 C144.739805,24.4744974 144.692211,24.3607854 144.644616,24.2354684 C144.597021,24.1101513 144.558946,23.9778741 144.530389,23.8386329 C144.320971,24.0242878 144.040164,24.20994 143.687961,24.3955949 C143.335758,24.5812499 142.90265,24.6740759 142.388624,24.6740759 C141.969788,24.6740759 141.610451,24.6090977 141.310603,24.4791392 C141.010754,24.3491808 140.765644,24.1681699 140.575264,23.9361013 C140.384884,23.7040326 140.24448,23.4301957 140.15405,23.1145823 C140.063619,22.7989689 140.018405,22.4508711 140.018405,22.0702785 C140.018405,21.4483344 140.125492,20.8403236 140.33967,20.2462278 C140.553847,19.6521321 140.875109,19.1230234 141.303464,18.6588861 C141.731819,18.1947487 142.269634,17.8188031 142.916926,17.531038 C143.564218,17.2432728 144.320967,17.0993924 145.187196,17.0993924 C145.444209,17.0993924 145.744053,17.1272402 146.086737,17.1829367 C146.429421,17.2386332 146.724506,17.3314593 146.972,17.4614177 L145.872561,21.8335696 C145.824966,22.0470728 145.784511,22.2512902 145.751194,22.4462278 C145.717878,22.6411655 145.70122,22.8453829 145.70122,23.0588861 C145.70122,23.2723893 145.720258,23.4882099 145.758334,23.7063544 C145.79641,23.924499 145.863042,24.1588848 145.958232,24.409519 L144.7874,24.5766076 Z M142.659914,23.5740759 C143.059712,23.5740759 143.402391,23.4905325 143.687961,23.323443 C143.973531,23.1563536 144.221022,22.9614188 144.43044,22.7386329 C144.439959,22.5808262 144.456617,22.4160599 144.480414,22.2443291 C144.504212,22.0725983 144.535148,21.8985494 144.573224,21.7221772 L145.42993,18.2690127 C145.382335,18.2504472 145.303804,18.2365233 145.194336,18.2272405 C145.084867,18.2179578 144.987299,18.2133165 144.901628,18.2133165 C144.359045,18.2133165 143.868824,18.3154251 143.43095,18.5196456 C142.993075,18.723866 142.61946,18.9953823 142.310093,19.3342025 C142.000725,19.6730228 141.762754,20.0675336 141.596171,20.5177468 C141.429589,20.9679601 141.346299,21.4390524 141.346299,21.931038 C141.346299,22.1259757 141.365337,22.3232311 141.403413,22.5228101 C141.441489,22.7223892 141.5105,22.8987587 141.61045,23.0519241 C141.710399,23.2050894 141.843663,23.3304046 142.010246,23.4278734 C142.176828,23.5253423 142.393382,23.5740759 142.659914,23.5740759 Z" id="beta" fill="#50E3C2" sketch:type="MSShapeGroup" transform="translate(132.972000, 19.188000) rotate(-3.000000) translate(-132.972000, -19.188000) "></path>
            </g>
        </g>
    </g>
</svg>