<?xml version="1.0" encoding="UTF-8" standalone="no"?>
<svg width="27px" height="21px" viewBox="0 0 27 21" version="1.1" xmlns="http://www.w3.org/2000/svg" xmlns:xlink="http://www.w3.org/1999/xlink" xmlns:sketch="http://www.bohemiancoding.com/sketch/ns">
    <!-- Generator: Sketch 3.1.1 (8761) - http://www.bohemiancoding.com/sketch -->
    <title>Imported Layers</title>
    <desc>Created with Sketch.</desc>
    <defs>
        <path id="path-1" d="M1.348,1.885 C1.901,1.885 2.348,1.437 2.348,0.885 C2.348,0.333 1.901,-0.115 1.348,-0.115 C0.796,-0.115 0.348,0.333 0.348,0.885 C0.348,1.437 0.796,1.885 1.348,1.885 L1.348,1.885 Z"></path>
    </defs>
    <g id="Page-1" stroke="none" stroke-width="1" fill="none" fill-rule="evenodd" sketch:type="MSPage">
        <g id="Imported-Layers" sketch:type="MSLayerGroup">
            <path d="M24.823,0.02 L1.956,0.02 C0.877,0.02 0,0.901 0,1.984 L0,16.26 C0,17.343 0.877,18.225 1.956,18.225 L9.649,18.225 L9.649,19.183 L7.846,19.183 C7.569,19.183 7.346,19.406 7.346,19.683 C7.346,19.959 7.569,20.183 7.846,20.183 L18.852,20.183 C19.129,20.183 19.352,19.959 19.352,19.683 C19.352,19.406 19.129,19.183 18.852,19.183 L16.848,19.183 L16.848,18.225 L24.823,18.225 C25.902,18.225 26.779,17.343 26.779,16.26 L26.779,1.984 C26.779,0.901 25.902,0.02 24.823,0.02 L24.823,0.02 Z M24.779,1.984 L24.779,10.865 L1.983,10.865 L1.956,2.02 L24.779,1.984 L24.779,1.984 Z M10.649,18.225 L15.849,18.225 L15.849,19.183 L10.649,19.183 L10.649,18.225 Z M2,16.26 L1.986,11.865 L24.779,11.865 L24.779,16.225 L2,16.26 L2,16.26 Z" id="Fill-1" fill="#FFFFFF" sketch:type="MSShapeGroup"></path>
            <path d="M13.348,14.885 C13.901,14.885 14.348,14.437 14.348,13.885 C14.348,13.333 13.901,12.885 13.348,12.885 C12.796,12.885 12.348,13.333 12.348,13.885 C12.348,14.437 12.796,14.885 13.348,14.885" id="Fill-2" fill="#FFFFFF" sketch:type="MSShapeGroup"></path>
            <g id="Group-5" transform="translate(12.000000, 13.000000)">
                <mask id="mask-2" sketch:name="Clip 4" fill="white">
                    <use xlink:href="#path-1"></use>
                </mask>
                <g id="Clip-4"></g>
                <path d="M0.348,-0.115 L2.348,-0.115 L2.348,1.885 L0.348,1.885 L0.348,-0.115 Z" id="Fill-3" fill="#FFFFFF" sketch:type="MSShapeGroup" mask="url(#mask-2)"></path>
            </g>
        </g>
    </g>
</svg>