<?xml version="1.0" encoding="UTF-8" standalone="no"?>
<svg width="28px" height="21px" viewBox="0 0 28 21" version="1.1" xmlns="http://www.w3.org/2000/svg" xmlns:xlink="http://www.w3.org/1999/xlink" xmlns:sketch="http://www.bohemiancoding.com/sketch/ns">
    <!-- Generator: Sketch 3.1.1 (8761) - http://www.bohemiancoding.com/sketch -->
    <title>Imported Layers</title>
    <desc>Created with Sketch.</desc>
    <defs>
        <path id="path-1" d="M1.194,2.5 C1.746,2.5 2.194,2.052 2.194,1.5 C2.194,0.948 1.746,0.5 1.194,0.5 C0.642,0.5 0.194,0.948 0.194,1.5 C0.194,2.052 0.642,2.5 1.194,2.5 L1.194,2.5 Z"></path>
    </defs>
    <g id="Page-1" stroke="none" stroke-width="1" fill="none" fill-rule="evenodd" sketch:type="MSPage">
        <g id="Imported-Layers" sketch:type="MSLayerGroup" transform="translate(1.000000, 1.000000)">
            <g>
                <path d="M24.669,-0.365 L1.801,-0.365 C0.723,-0.365 -0.155,0.517 -0.155,1.6 L-0.155,15.875 C-0.155,16.958 0.723,17.84 1.801,17.84 L9.494,17.84 L9.494,18.798 L7.691,18.798 C7.415,18.798 7.191,19.021 7.191,19.298 C7.191,19.574 7.415,19.798 7.691,19.798 L18.698,19.798 C18.974,19.798 19.198,19.574 19.198,19.298 C19.198,19.021 18.974,18.798 18.698,18.798 L16.694,18.798 L16.694,17.84 L24.669,17.84 C25.748,17.84 26.625,16.958 26.625,15.875 L26.625,1.6 C26.625,0.517 25.748,-0.365 24.669,-0.365 L24.669,-0.365 Z M24.625,1.6 L24.625,10.481 L1.829,10.481 L1.801,1.635 L24.625,1.6 L24.625,1.6 Z M10.494,17.84 L15.694,17.84 L15.694,18.798 L10.494,18.798 L10.494,17.84 Z M1.845,15.875 L1.832,11.48 L24.625,11.48 L24.625,15.84 L1.845,15.875 L1.845,15.875 Z" id="Fill-1" fill="#199678" sketch:type="MSShapeGroup"></path>
                <g id="Group-4" transform="translate(12.000000, 12.000000)">
                    <mask id="mask-2" sketch:name="Clip 3" fill="white">
                        <use xlink:href="#path-1"></use>
                    </mask>
                    <g id="Clip-3"></g>
                    <path d="M0.194,0.5 L2.194,0.5 L2.194,2.5 L0.194,2.5 L0.194,0.5 Z" id="Fill-2" fill="#199678" sketch:type="MSShapeGroup" mask="url(#mask-2)"></path>
                </g>
            </g>
        </g>
    </g>
</svg>