<?xml version="1.0" encoding="utf-8"?>
<!-- Generator: Adobe Illustrator 16.0.3, SVG Export Plug-In . SVG Version: 6.00 Build 0)  -->
<!DOCTYPE svg PUBLIC "-//W3C//DTD SVG 1.1//EN" "http://www.w3.org/Graphics/SVG/1.1/DTD/svg11.dtd">
<svg version="1.1" id="Layer_1" xmlns="http://www.w3.org/2000/svg" xmlns:xlink="http://www.w3.org/1999/xlink" x="0px" y="0px"
	 width="726.5px" height="122px" viewBox="-185.25 13.5 726.5 122" enable-background="new -185.25 13.5 726.5 122"
	 xml:space="preserve">
<g id="Layer_1_1_" xmlns:sketch="http://www.bohemiancoding.com/sketch/ns">
	<title>Artboard 1</title>
	<desc>Created with Sketch.</desc>
</g>
<g>
	<path fill="#FFFFFF" d="M-171.053,111.535v-0.287c3.888,0.287,8.208,0.287,12.816,0.287c32.255,0,52.415-16.991,52.415-46.366
		c0-10.512-2.736-18.288-9.504-27.072h0.432c14.256,11.232,24.912,25.632,24.912,43.2c0,27.071-19.872,47.23-47.519,47.23h-16.128
		L-171.053,111.535z M-163.277,26.001h16.56c8.64,0,22.751,6.336,28.079,20.88l-0.288,0.288c-6.912-3.456-15.12-3.744-23.327-3.6
		v58.895c-4.896,1.296-10.368,2.017-15.552,2.017c-1.872,0-3.744,0-5.472-0.433V26.001z"/>
	<path fill="#FFFFFF" d="M-59.31,128.527l-18.719-17.855h40.751v-7.199l17.28,17.855v7.199H-59.31z M-69.966,59.553V26.001h31.248
		v-6.624l17.28,18.288v6.192h-28.943v15.695H-69.966z M-69.966,104.191V66.465h30.384v-6.912l17.279,17.28v6.912h-28.079v20.447
		H-69.966z"/>
	<path fill="#FFFFFF" d="M17.44,38.385v54.718c0,6.049,2.448,10.656,6.624,12.528c-0.288,0.288-1.008,0.576-2.304,0.576
		c-16.56,0-25.919-13.392-25.919-25.632V19.666L17.44,38.385z M75.183,38.385v47.807c0,30.239-23.904,42.335-40.607,42.335
		c-17.279,0-37.007-21.455-38.303-26.928v-0.287c6.48,6.623,12.672,11.663,24.768,11.663c18.144,0,32.543-10.368,32.543-33.407
		V19.666L75.183,38.385z"/>
	<path fill="#FFFFFF" d="M117.376,106.208v0.288c-10.512,0-18.432-3.6-24.192-12.527c-1.152-1.873-2.304-4.752-2.304-6.625v-0.287
		L117.376,106.208z M150.207,47.745h-0.288c-5.76-4.464-10.224-9.072-18.432-9.072c-11.808,0-19.439,7.488-19.439,20.448
		l-0.288,0.288c-8.352-1.152-16.704-7.056-16.704-16.56c0-11.952,11.52-18.864,22.32-18.864c8.64,0,12.671,2.88,17.855,6.768
		l4.752-3.888h0.288l15.12,16.127L150.207,47.745z M131.487,128.527c-14.399,0-32.255-16.416-35.279-21.168v-0.575
		c5.04,4.032,11.088,6.191,20.304,6.191c13.824,0,27.215-8.64,27.215-26.207c0-5.328-2.016-10.224-4.896-14.256l0.288-0.288
		c9.792,7.488,20.448,17.424,20.448,30.959C159.567,119.023,146.319,128.527,131.487,128.527z M98.8,60.273h-0.288l-0.288,0.288
		c3.6,10.8,13.536,16.704,19.296,18.719c8.64,3.024,14.832,2.448,19.007,5.904h0.288c0-5.04-5.76-14.256-13.392-16.416
		C111.472,65.457,108.88,68.769,98.8,60.273z"/>
	<path fill="#FFFFFF" d="M249.566,38.961l-3.168,5.76c-5.615-2.88-11.664-4.608-19.583-4.608c-15.265,0-37.296,13.968-37.296,38.447
		c0,10.656,1.873,16.703,6.192,22.896h-0.433c-14.831-5.328-24.191-19.439-24.191-35.423c0-22.896,18.144-42.047,41.328-42.047
		c5.615,0,10.799,1.728,16.127,3.456l2.16-5.76h0.288L249.566,38.961z M251.582,113.84l2.593,8.208
		c-6.336,3.024-14.544,6.479-25.487,6.479c-17.568,0-33.552-14.399-40.607-22.031v-0.432c6.336,4.463,14.976,6.911,23.184,6.911
		c9.216,0,17.711-2.016,25.631-6.624l-1.295-7.199h0.287L251.582,113.84z"/>
	<path fill="#FFFFFF" d="M300.398,23.985c11.375,0,26.207,6.768,31.535,16.992l-0.288,0.288c-4.176-1.008-9.216-2.304-13.968-2.304
		c-22.031,0-40.031,20.16-40.031,41.759c0,5.904,1.872,13.392,4.32,18.575l-0.288,0.288c-14.399-4.32-21.312-21.6-21.312-35.711
		C260.367,42.849,279.375,23.985,300.398,23.985z M317.246,128.527c-17.424,0-33.264-12.959-43.631-25.055l0.287-0.433
		c7.633,5.616,16.992,9.647,28.656,9.647c23.903,0,45.503-20.879,45.503-47.519c0-14.832-6.048-24.048-13.248-31.968l0.288-0.288
		c12.384,9.072,30.239,24.335,30.239,45.359C365.341,107.072,343.741,128.527,317.246,128.527z"/>
	<path fill="#FFFFFF" d="M385.069,110.672v-91.15l21.887,19.296v89.71h-9.216l-20.159-17.855H385.069z"/>
	<path fill="#FFFFFF" d="M454.763,128.527h-6.911l-20.592-17.424v-0.432h7.92V36.369h0.432l19.151,24.336V128.527z M492.202,68.337
		v26.495h-0.432l-60.911-75.455h0.433l38.447,21.312L492.202,68.337z M519.418,128.527h-0.433l-19.151-15.84v-93.31h0.433
		l19.151,18.144V128.527z"/>
</g>
</svg>
