<?xml version="1.0" encoding="UTF-8"?>
<svg width="23px" height="21px" viewBox="0 0 23 21" version="1.1" xmlns="http://www.w3.org/2000/svg" xmlns:xlink="http://www.w3.org/1999/xlink">
    <!-- Generator: Sketch 58 (84663) - https://sketch.com -->
    <title>Icons/Wallets</title>
    <desc>Created with Sketch.</desc>
    <g id="Page-1" stroke="none" stroke-width="1" fill="none" fill-rule="evenodd">
        <g id="Artboard-Copy-69" transform="translate(-132.000000, -29.000000)" fill="#E7E7E7">
            <g id="Tabs/Wallets">
                <g id="Wallets" transform="translate(102.000000, 1.000000)">
                    <g id="Icons/Wallets" transform="translate(30.000000, 28.000000)">
                        <path d="M21.6546474,3.46474359 L3.76602564,3.46474359 L2.82451923,3.46474359 C2.3057492,3.46474359 1.88301282,3.07582612 1.88301282,2.59855769 C1.88301282,2.12128926 2.3057492,1.73237179 2.82451923,1.73237179 L16.9471154,1.73237179 L16.9471154,3.46474359 L18.8301282,3.46474359 L18.8301282,0.866185897 C18.8301282,0.388051282 18.4083333,3.55271368e-15 17.8886218,3.55271368e-15 L2.82451923,3.55271368e-15 C1.26444311,3.55271368e-15 3.55271368e-15,1.16328766 3.55271368e-15,2.59855769 L3.55271368e-15,17.3237179 C3.55271368e-15,19.2371226 1.68623798,20.7884615 3.76602564,20.7884615 L20.8874102,20.7884615 C21.6546474,20.7884615 22.5961538,19.7481854 22.5961538,18.9845041 L22.5961538,4.33092949 C22.5961538,3.85279487 22.174359,3.46474359 21.6546474,3.46474359 Z M16.9471154,14.173951 C15.9067508,14.173951 15.0641026,13.3282386 15.0641026,12.2840909 C15.0641026,11.2399432 15.9067508,10.3942308 16.9471154,10.3942308 C17.98748,10.3942308 18.8301282,11.2399432 18.8301282,12.2840909 C18.8301282,13.3282386 17.98748,14.173951 16.9471154,14.173951 Z" id="Shape"></path>
                    </g>
                </g>
            </g>
        </g>
    </g>
</svg>