<svg width="37" height="37" viewBox="0 0 37 37" fill="none" xmlns="http://www.w3.org/2000/svg">
<g id="Transact Button">
<rect id="Rectangle" x="0.384033" y="0.209961" width="36.2319" height="36.2319" rx="18.1159" fill="#4F6EF7"/>
<path id="Combined Shape" fill-rule="evenodd" clip-rule="evenodd" d="M18.845 14.2213L12.8244 20.2419C12.465 20.6012 11.8824 20.6012 11.5231 20.2419C11.1637 19.8825 11.1637 19.2999 11.5231 18.9405L17.5437 12.9199H14.7042C14.196 12.9199 13.784 12.508 13.784 11.9998C13.784 11.4916 14.196 11.0796 14.7042 11.0796H19.7652C19.8899 11.0796 20.0089 11.1044 20.1174 11.1494C20.2259 11.1943 20.3276 11.2609 20.4158 11.3491C20.5823 11.5156 20.6853 11.7457 20.6853 11.9998V17.0607C20.6853 17.5689 20.2734 17.9809 19.7652 17.9809C19.257 17.9809 18.845 17.5689 18.845 17.0607V14.2213ZM19.4562 23.732H22.2956C22.8038 23.732 23.2158 24.144 23.2158 24.6522C23.2158 25.1604 22.8038 25.5723 22.2956 25.5723H17.2347C16.9816 25.5723 16.7523 25.4702 16.586 25.3048C16.5847 25.3035 16.5834 25.3022 16.5821 25.3009C16.4948 25.2131 16.4289 25.1121 16.3843 25.0044C16.3393 24.8959 16.3145 24.7769 16.3145 24.6522V19.5912C16.3145 19.083 16.7265 18.671 17.2347 18.671C17.7429 18.671 18.1549 19.083 18.1549 19.5912V22.4307L24.1755 16.4101C24.5348 16.0507 25.1174 16.0507 25.4768 16.4101C25.8361 16.7694 25.8361 17.352 25.4768 17.7114L19.4562 23.732Z" fill="white"/>
</g>
</svg>
