<?xml version="1.0" encoding="UTF-8"?>
<svg width="24px" height="22px" viewBox="0 0 24 22" version="1.1" xmlns="http://www.w3.org/2000/svg" xmlns:xlink="http://www.w3.org/1999/xlink">
    <!-- Generator: Sketch 58 (84663) - https://sketch.com -->
    <title>Icons/home</title>
    <desc>Created with Sketch.</desc>
    <g id="Page-1" stroke="none" stroke-width="1" fill="none" fill-rule="evenodd">
        <g id="Artboard-Copy-69" transform="translate(-42.000000, -28.000000)" fill="#E7E7E7">
            <g id="Tabs/Wallets">
                <g id="Home" transform="translate(13.000000, 1.000000)">
                    <g id="Icons/home" transform="translate(29.000000, 27.000000)">
                        <path d="M23.6211583,9.22584821 L12.6211583,0.225848206 C12.2528786,-0.0752827354 11.723438,-0.0752827354 11.3551583,0.225848206 L0.355158287,9.22584821 C-0.0623817739,9.57814356 -0.119919278,10.2003262 0.225933916,10.6232178 C0.571787109,11.0461093 1.19301457,11.113178 1.62115829,10.7738482 L2.98815829,9.65584821 L2.98815829,20.9998482 C2.98815829,21.552133 3.43587354,21.9998482 3.98815829,21.9998482 L9.98815829,21.9998482 L9.98815829,15.9998482 L13.9881583,15.9998482 L13.9881583,21.9998482 L19.9881583,21.9998482 C20.540443,21.9998482 20.9881583,21.552133 20.9881583,20.9998482 L20.9881583,9.65584821 L22.3551583,10.7738482 C22.6310073,11.0065931 23.0108684,11.072636 23.349086,10.946653 C23.6873036,10.8206701 23.9313915,10.5222119 23.9877554,10.1657207 C24.0441194,9.80922958 23.9040126,9.45002732 23.6211583,9.22584821 L23.6211583,9.22584821 Z" id="Path"></path>
                    </g>
                </g>
            </g>
        </g>
    </g>
</svg>