<?xml version="1.0" encoding="UTF-8" standalone="no"?> <!-- Created with Vectornator for iOS (http://vectornator.io/) --><!DOCTYPE svg PUBLIC "-//W3C//DTD SVG 1.1//EN" "http://www.w3.org/Graphics/SVG/1.1/DTD/svg11.dtd">
<svg height="100%" style="fill-rule:nonzero;clip-rule:evenodd;stroke-linecap:round;stroke-linejoin:round;" xmlns:xlink="http://www.w3.org/1999/xlink" xmlns="http://www.w3.org/2000/svg" xml:space="preserve" width="100%" xmlns:vectornator="http://vectornator.io" version="1.1" viewBox="0 0 20 20">
<metadata>
<vectornator:setting key="DimensionsVisible" value="1"/>
<vectornator:setting key="PencilOnly" value="0"/>
<vectornator:setting key="SnapToPoints" value="0"/>
<vectornator:setting key="OutlineMode" value="0"/>
<vectornator:setting key="CMYKEnabledKey" value="0"/>
<vectornator:setting key="RulersVisible" value="1"/>
<vectornator:setting key="SnapToEdges" value="0"/>
<vectornator:setting key="GuidesVisible" value="1"/>
<vectornator:setting key="DisplayWhiteBackground" value="0"/>
<vectornator:setting key="doHistoryDisabled" value="0"/>
<vectornator:setting key="SnapToGuides" value="1"/>
<vectornator:setting key="TimeLapseWatermarkDisabled" value="0"/>
<vectornator:setting key="Units" value="Points"/>
<vectornator:setting key="DynamicGuides" value="0"/>
<vectornator:setting key="IsolateActiveLayer" value="0"/>
<vectornator:setting key="SnapToGrid" value="0"/>
</metadata>
<defs/>
<g id="Wallet/Small/Help-" vectornator:layerName="Wallet/Small/Help-">
<path d="M13.3333+0L-1.26629e-06+0L-1.26629e-06+20L13.3333+20C14.7117+20+15.8333+18.8783+15.8333+17.5L15.8333+2.5C15.8333+1.12167+14.7117+0+13.3333+0ZM7.91667+5C9.0675+5+10+5.9325+10+7.08333C10+8.23417+9.0675+9.16667+7.91667+9.16667C6.76583+9.16667+5.83333+8.23417+5.83333+7.08333C5.83333+5.9325+6.76583+5+7.91667+5ZM11.6667+14.1667L4.16667+14.1667L4.16667+12.8158C4.16667+12.0733+4.65417+11.4242+5.36667+11.2142C6.02917+11.0183+6.91917+10.8333+7.91667+10.8333C8.91417+10.8333+9.80417+11.0183+10.4667+11.2142C11.1792+11.4242+11.6667+12.0733+11.6667+12.8158L11.6667+14.1667ZM16.6667+3.33333L19.1667+3.33333L19.1667+7.5L16.6667+7.5L16.6667+3.33333ZM16.6667+9.16667L19.1667+9.16667L19.1667+13.3333L16.6667+13.3333L16.6667+9.16667Z" opacity="1" fill="#4f6ef7"/>
</g>
</svg>
